<?xml version="1.0" encoding="UTF-8"?>
<svg id="Layer_1" data-name="Layer 1" xmlns="http://www.w3.org/2000/svg" viewBox="0 0 200 200">
  <defs>
    <style>
      .cls-1 {
        fill: #fbb247;
      }
    </style>
  </defs>
  <path class="cls-1" d="M7.07,69.09v110.25c.08,.04,.16,.08,.25,.12,.2-.41,.42-.81,.6-1.22,8.61-19.13,17.21-38.26,25.82-57.39,.73-1.61,1.53-3.2,2.16-4.84,.8-2.08,2.28-2.89,4.54-2.83,3.25,.09,6.5,.02,9.96,.02-12.77-20.69-15.46-42.31-7.14-64.88,5.59-15.17,15.63-27.17,29.5-36.07,27.33-17.53,63.14-16.13,88.88,3.54,15.27,11.68,24.74,26.86,28.01,45.44,3.26,18.49-.45,35.76-10.78,51.97h2.08c4.89,0,9.77,0,14.66,0,3.83,0,5.33,2.17,3.82,5.53-11.81,26.26-23.62,52.51-35.42,78.78-.75,1.67-1.95,2.5-3.88,2.5-52.06-.02-104.12-.01-156.18-.02-2.72,0-3.93-1.29-3.93-4.16,0-27.4,0-54.8,0-82.2C0,97.98,0,82.34,0,66.7c0-3.4,1.1-4.46,4.63-4.46,8.24,0,16.48,0,24.71,0,1.9,0,3.27,.97,3.68,2.52,.41,1.55-.28,3.21-1.79,3.85-.75,.32-1.66,.39-2.51,.4-6.7,.03-13.41,.01-20.12,.02-.47,0-.93,.04-1.55,.06Zm184.05,50.93c-.77,0-1.32,0-1.88,0-48.56,0-97.12,0-145.67-.03-1.27,0-1.91,.3-2.44,1.49-9.63,21.52-19.32,43.02-29,64.52-1.04,2.32-2.08,4.65-3.22,7.2,.75,0,1.27,0,1.78,0,48.61,0,97.21,0,145.82,.03,1.3,0,1.91-.36,2.43-1.52,9.79-21.86,19.63-43.69,29.46-65.54,.89-1.98,1.76-3.97,2.72-6.15ZM79.26,47.25c-10.34,1.52-20.29,3.53-29.91,6.89-.49,.17-.94,.87-1.1,1.4-3.49,11.99-3.45,24-.08,36.02,.25,.9,.69,1.37,1.62,1.68,7.57,2.51,15.33,4.31,23.2,5.66,2.04,.35,4.1,.64,6.3,.98-1.88-17.64-1.86-35.03-.04-52.64Zm70.82,52.48c.52,0,.86,.04,1.18,0,9.57-1.44,19-3.42,28.19-6.44,1.04-.34,1.51-.9,1.79-1.89,3.3-11.89,3.31-23.77,0-35.65-.28-.99-.74-1.54-1.79-1.88-9.32-3.07-18.9-5.06-28.61-6.5-.21-.03-.43,.05-.71,.08,1.82,17.44,1.81,34.8-.03,52.29Zm-31.81-55.06v57.54c.61,.03,1.09,.09,1.56,.06,7.2-.44,14.41-.92,21.61-1.32,1.19-.07,1.49-.53,1.6-1.57,1.61-15.22,1.79-30.46,.54-45.71-.2-2.43-.48-4.85-.75-7.52-8.23-.5-16.33-.98-24.56-1.48Zm-7.11,.2c-.7,0-1.21-.03-1.72,0-7.07,.42-14.14,.89-21.21,1.25-1.41,.07-1.87,.59-1.95,1.88-.37,6.23-.95,12.46-1.2,18.69-.42,10.74,.08,21.46,1.16,32.16,.14,1.39,.49,2.09,2.14,2.17,7.17,.33,14.33,.79,21.49,1.22,.95,.06,1.32-.17,1.32-1.21-.04-18.18-.03-36.37-.03-54.55,0-.46,0-.92,0-1.61Zm30.74-5.56c-1.55-9.95-3.64-19.49-7.05-28.71-.19-.52-.91-1.1-1.48-1.22-3.88-.79-7.79-1.48-11.7-2.15-1.1-.19-2.24-.18-3.41-.27-.04,.44-.08,.67-.08,.89,0,9.67,.01,19.34-.03,29.02,0,1.04,.44,1.18,1.36,1.22,5.69,.23,11.38,.51,17.07,.8,1.7,.09,3.4,.26,5.31,.42Zm-54.58,0c1.05-.07,1.71-.13,2.37-.16,6.63-.36,13.27-.76,19.91-1.04,1.26-.05,1.6-.36,1.59-1.57-.05-9.38-.03-18.76-.03-28.15,0-.44-.04-.88-.06-1.43-5.25,.28-10.23,1.08-15.13,2.37-.91,.24-1.38,.66-1.62,1.5-1.47,5.16-3.1,10.29-4.41,15.49-1.06,4.2-1.73,8.5-2.62,12.99Zm-35.53,6.67c.6-.11,.83-.13,1.05-.19,8.36-2.43,16.87-4.15,25.51-5.3,1.5-.2,1.87-.78,2.12-2.1,1.29-6.68,2.7-13.33,4.13-19.98,.38-1.79,.99-3.53,1.6-5.65-15.64,7.23-26.97,18.11-34.41,33.23ZM143.21,12.79c.1,.52,.12,.7,.17,.86,2.58,8.34,4.39,16.85,5.65,25.47,.12,.84,.44,1.11,1.31,1.26,6.76,1.23,13.52,2.5,20.26,3.85,2.22,.44,4.39,1.13,6.97,1.81-7.46-15.15-18.76-26.04-34.37-33.25ZM51.98,101.51c1.78,3.87,4.1,7.67,6.86,11.2,.26,.34,1.01,.45,1.53,.45,6.41,.03,12.82,.02,19.23,.02,.46,0,.93-.05,1.52-.08-.27-1.8-.6-3.48-.75-5.16-.08-.87-.55-1.09-1.26-1.19-1.18-.17-2.38-.25-3.54-.48-7.85-1.56-15.68-3.16-23.59-4.75Zm125.69-.46c-1.51,.41-2.63,.79-3.78,1.02-7.77,1.57-15.54,3.11-23.31,4.68-.5,.1-1.31,.34-1.38,.64-.41,1.87-.65,3.77-.97,5.78,7.28,0,14.31,.01,21.34-.03,.42,0,.97-.39,1.22-.75,1.46-2.11,2.9-4.24,4.24-6.43,.91-1.49,1.66-3.07,2.64-4.92Zm-90.17,6.92c.2,1.27,.47,2.57,.59,3.88,.09,1.04,.52,1.37,1.62,1.37,6.64-.05,13.28-.03,19.93-.03,.46,0,.92-.05,1.43-.07v-3.86c-7.82-.42-15.53-.84-23.56-1.27Zm30.69,1.27c0,1.07-.08,2.09,.04,3.08,.04,.32,.6,.82,.92,.82,6.99,.05,13.98,.04,20.96,.01,.32,0,.87-.21,.91-.41,.33-1.6,.56-3.22,.82-4.79-8.03,.43-15.78,.85-23.66,1.27Z"/>
  <path class="cls-1" d="M127.17,164.25c9.57,0,19.15,0,28.72,0,.38,0,.77,0,1.15,0,2.97,.09,4.57,2.33,3.43,4.96-2.14,4.9-4.37,9.76-6.57,14.63-.75,1.67-2.16,2.2-3.95,2.19-7.9-.02-15.8,0-23.7,0-11.63,0-23.26,0-34.9,0-3.9,0-5.41-2.19-3.88-5.6,2.02-4.49,4.09-8.97,6.05-13.49,.84-1.93,2.21-2.71,4.34-2.7,9.77,.04,19.53,.02,29.3,.02Zm24.76,6.84h-5.47c-15.22,0-30.44,.01-45.66-.02-1.08,0-1.61,.31-2,1.28-.79,1.98-1.73,3.91-2.6,5.86-.12,.28-.14,.6-.23,.96,13.44,0,26.65,0,39.86,0,3.78,0,7.56,.02,11.34-.02,.45,0,1.16-.19,1.3-.49,1.17-2.42,2.24-4.88,3.45-7.58Z"/>
</svg>