<?xml version="1.0" encoding="UTF-8"?>
<svg id="Layer_1" data-name="Layer 1" xmlns="http://www.w3.org/2000/svg" viewBox="0 0 200 200">
  <defs>
    <style>
      .cls-1 {
        fill: #fbb247;
      }
    </style>
  </defs>
  <path class="cls-1" d="M0,177.04c.93-2.74,2.32-5.27,5.13-5.97,2.55-.63,5.26-.56,8.19-.83,0-.72,0-1.57,0-2.43,0-31.07,0-62.14,0-93.21,0-6.3,3.5-10.97,9.03-12.1,.95-.19,1.94-.19,2.91-.2,8.4-.01,16.8,0,25.19,0h2.29c0-3.53,.02-6.86,0-10.19-.02-2.64,.83-4.87,2.39-6.96,.65-.87,.87-2.2,.99-3.36,1.4-13.48,7.24-24.39,17.53-32.52,26.26-20.76,64.32-4.74,69.77,29.3,.14,.87,.29,1.75,.35,2.63,.11,1.85,.63,3.41,1.69,5.03,1.03,1.58,1.55,3.75,1.71,5.7,.27,3.37,.07,6.78,.07,10.37,.91,0,1.61,0,2.31,0,8.46,0,16.93-.01,25.39,0,7.09,.02,11.73,4.86,11.73,12.33,.02,31.07,0,62.14,0,93.21,0,.81,0,1.61,0,2.66,1.89,0,3.62-.02,5.36,0,4.74,.08,8.03,3.68,7.95,8.67-.18,11.11-8.94,20.45-19.51,20.8-.52,.02-1.04,.03-1.56,.03-52.6,0-105.2,0-157.8,0-9.6,0-17.26-5.66-20.11-14.76C.63,184.02,.33,182.77,0,181.55c0-1.5,0-3,0-4.51Zm84.23-6.65h31.4c1.86-13.67,2.5-27.27,1.27-41.16-11.43,4.45-22.56,4.33-33.89,.02-.18,3.38-.33,6.43-.5,9.48-.13,2.33-1.16,3.55-2.96,3.52-1.86-.03-3-1.42-2.88-3.8,.25-4.7,.52-9.4,.94-14.09,.37-4.11,.95-8.2,1.45-12.49-4.2,1.1-8.22,2.15-12.24,3.22-13.9,3.67-23.56,12.5-29.11,26.33-3.72,9.26-2.88,19.01-2.84,28.68,0,.1,.16,.21,.19,.25h15.5c0-2.67-.02-5.2,0-7.72,.03-2.53,1.17-4,3-3.95,1.76,.05,2.82,1.46,2.85,3.89,.03,2.58,0,5.16,0,7.77h21.98c-.17-1.44-.37-2.72-.48-4.01-.35-4.08-.73-8.15-.99-12.23-.13-2.09,1.01-3.45,2.7-3.55,1.64-.1,2.91,1.21,3.12,3.23,.05,.47,.02,.96,.06,1.43,.46,5.02,.92,10.04,1.4,15.18Zm-16.53,6.26c-.75,0-1.39,0-2.04,0-18.82,0-37.63,0-56.45,0-3.04,0-3.69,.8-3.26,3.93,1.09,7.77,7,13.25,14.55,13.26,53,.03,105.99,.03,158.99,0,7.5,0,13.28-5.31,14.51-13.06,.52-3.28-.14-4.13-3.23-4.13-18.82,0-37.63,0-56.45,0h-2.04c-2.59,8.13-7.27,11.68-15.2,11.69-11.33,0-22.66,0-33.98,0-8.12,0-12.73-3.45-15.4-11.69Zm10.67-71.1c-.02-.17-.05-.34-.07-.52-2.46-.87-4.94-1.68-7.38-2.6-8.38-3.17-13.56-9.27-14.74-18.6-.48-3.83-.22-7.77-.3-11.65-.04-2.25-1.45-3.72-3.6-3.72-8.92,0-17.84,0-26.76,0-4.48,0-6.34,1.99-6.34,6.77,0,31,0,62.01,0,93.01v2.15h9.77v-2.52c0-26.22,0-52.45,0-78.67,0-.75-.03-1.51,.03-2.25,.33-4.68,3.74-8.12,8.19-8.23,2.54-.06,5.08-.05,7.62,0,1.98,.03,3.24,1.24,3.26,3.01,.02,1.78-1.23,3.05-3.18,3.11-2.08,.06-4.17,.01-6.25,.02-3.12,0-3.8,.7-3.8,3.92,0,14.07,0,28.14,0,42.2,0,.57,.05,1.13,.09,2.14,.56-.91,.88-1.4,1.19-1.91,5.15-8.54,11.99-15.21,20.91-19,5.38-2.29,11.18-3.51,16.79-5.22,1.53-.47,3.05-.95,4.58-1.42Zm42.74-.25c1.12,.42,1.69,.69,2.29,.86,3.46,.95,6.9,1.96,10.39,2.78,13.11,3.11,23.15,10.72,30.32,22.59,.25,.42,.57,.79,1.09,1.52,0-15.39,.01-30.33-.02-45.26,0-2.03-.96-2.9-2.96-2.93-2.34-.03-4.69,.04-7.03-.03-1.91-.05-3.2-1.42-3.14-3.17,.06-1.69,1.29-2.89,3.14-2.94,2.02-.05,4.03-.02,6.05-.02,6.65,0,9.82,3.3,9.82,10.25,0,26.35,0,52.69,0,79.04v2.34h9.67c.04-.38,.09-.58,.09-.78,0-31.74,.02-63.48,0-95.22,0-3.76-2.15-5.87-5.81-5.87-9.11-.02-18.22,0-27.33,0-2.15,0-3.52,1.47-3.54,3.77-.02,3.07,.05,6.14-.03,9.21-.22,9.33-5.78,17.45-14.13,20.64-2.74,1.05-5.52,2-8.86,3.21Zm-47.37-56.88c0,6.43-.37,12.65,.08,18.8,.86,11.61,8.88,21.2,19.6,24.05,2.88,.76,5.82,1.21,9.06,.67-.4-.47-.59-.73-.81-.96-2.59-2.69-3.27-5.91-1.94-9.39,1.38-3.59,4.17-5.27,7.84-5.31,1.56-.02,3.13,.07,4.69-.02,3.69-.21,7.03,.45,9.32,4.1,2.61-3.92,4.34-7.98,4.56-12.46,.32-6.54,.26-13.09,.28-19.64,0-.57-.58-1.26-1.05-1.71-2.16-2.05-4.61-3.83-6.51-6.11-2.02-2.41-3.54-5.28-5.36-8.09-4.4,6.51-10.42,10.82-17.62,13.41-7.18,2.58-14.63,2.83-22.14,2.66Zm64.16-6.14c-1.24-18.06-16.76-36.91-39.32-36.05-22.16,.85-35.66,20.18-36.4,35.9,.24,.05,.49,.15,.73,.15,6.57-.02,13.16,.29,19.71-.14,11.5-.75,21.44-4.81,27.64-15.9,1.02-1.82,2.71-2.49,4.71-2.08,1.95,.4,2.92,1.82,3.54,3.68,1.91,5.72,5.2,10.34,10.14,13.57,.59,.39,1.28,.81,1.93,.84,2.39,.1,4.79,.04,7.32,.04Zm27.29,128.16c0-4.74,.2-9.31-.03-13.85-.95-18.64-9.48-32-25.88-39.35-4.79-2.15-10.08-3.06-15.15-4.52-1.02-.3-2.06-.53-3.32-.84,3.17,19.67,3.42,39.06,.77,58.53h22.01c0-1.05,0-2,0-2.94,.02-2.05-.03-4.1,.11-6.13,.11-1.58,1.17-2.46,2.59-2.59,1.44-.13,2.54,.63,2.95,2.13,.21,.77,.19,1.62,.2,2.43,.02,2.36,0,4.71,0,7.14h15.75ZM87.44,95.63c-1.21,8.62-2.38,17.11-3.63,25.58-.17,1.17,.03,1.71,1.1,2.14,10.09,4.08,20.15,4.1,30.22-.02,.92-.37,1.27-.81,1.1-1.95-1.27-8.54-2.45-17.09-3.68-25.73-8.24,3.52-16.72,3.53-25.12-.02Zm-25.66-22.7c0,3.27-.17,6.2,.04,9.11,.39,5.42,2.67,9.99,7.23,12.59,3.71,2.12,7.86,3.38,12.14,5.16,0-2.78,.04-5.01-.04-7.23-.02-.44-.42-.97-.78-1.28-5.47-4.51-9.29-10.2-11.32-17.2-.14-.48-.82-1.07-1.28-1.1-1.93-.12-3.86-.05-5.98-.05Zm64.26,103.79h-51.94c.17,.49,.25,.88,.44,1.21,1.8,3.12,4.55,4.27,7.91,4.26,11.72-.02,23.43,0,35.15-.02,.84,0,1.7-.04,2.52-.23,2.71-.62,4.65-2.25,5.92-5.22ZM67.64,48.44c-2.22,0-4.23-.12-6.22,.04-1.82,.14-2.77,1.39-2.79,3.31-.03,3.89-.02,7.77,0,11.66,0,1.71,.82,3.04,2.43,3.21,2.16,.23,4.36,.06,6.58,.06v-18.26Zm64.76,18.31c2.15,0,4.23,.13,6.28-.04,1.72-.14,2.67-1.37,2.69-3.18,.05-3.95,.05-7.91,0-11.86-.02-1.81-.98-3.04-2.7-3.18-2.05-.17-4.11-.04-6.27-.04v18.3Zm-13.58,32.5c8.6-1,17.02-6.66,17.74-11.66-2.25,.25-4.55,.59-6.86,.74-1.88,.12-3.78,0-5.66,.03-1.49,.02-5.16,3.18-5.21,4.55-.07,2.1-.02,4.21-.02,6.33Zm19.27-26.24h-6.63c-1.23,3.07-2.41,6.03-3.61,9.02,7.16,.95,11-2.4,10.24-9.02Zm-27.03,9.41c-1.24,0-2.47-.04-3.71,.01-1.33,.06-2.24,.74-2.32,2.23-.08,1.5,.75,2.38,2.09,2.44,2.53,.11,5.07,.11,7.61,.01,1.32-.05,2.19-.9,2.14-2.4-.05-1.49-.95-2.19-2.28-2.27-1.17-.07-2.34-.01-3.51-.02Z"/>
  <path class="cls-1" d="M141.82,152.84c-2.08,0-4.17,.05-6.25,0-3.66-.1-6.21-2.81-6.27-6.65-.03-1.84-.04-3.69,0-5.53,.08-3.4,2.28-6.18,5.49-6.32,4.68-.21,9.37-.21,14.05,0,3.22,.15,5.4,2.9,5.48,6.32,.05,1.91,.05,3.82,0,5.74-.09,3.61-2.61,6.31-6.06,6.44-2.15,.08-4.3,.01-6.44,.02Zm-6.6-6.3h13.13v-6.04h-13.13v6.04Z"/>
</svg>