<?xml version="1.0" encoding="UTF-8"?>
<svg id="Layer_1" data-name="Layer 1" xmlns="http://www.w3.org/2000/svg" viewBox="0 0 200 200">
  <defs>
    <style>
      .cls-1 {
        fill: #fbb247;
      }
    </style>
  </defs>
  <path class="cls-1" d="M45.59,90.04c1.43-1.49,1.97-2.51,2.64-2.65,1.78-.37,3.62-.37,5.44-.51-.36,1.9-.23,4.25-1.18,5.63-2.99,4.38-6.39,8.41-10.48,13.65-4.03-5-7.38-8.69-10.19-12.86-1.16-1.72-1.17-4.46-1.71-6.73,2,.49,4.01,.93,5.99,1.5,.58,.17,1.08,.68,1.63,1.04,14.47-38.97,30.55-53.36,58.14-52.06,21.95,1.03,42.08,18.76,48.98,43.22,5.9,20.92,4.03,51.92-24.56,74.58h64.27c-.24-.77-.72-1.7-.81-2.68-.17-1.91-.12-3.84-.16-5.77,1.69,.35,3.82,.07,4.97,1.16,3.6,3.38,6.84,7.28,11.42,12.3-3.76,3.71-6.95,7.25-10.51,10.2-1.6,1.33-3.94,1.49-5.94,2.18,.36-2.29,.71-4.59,1.1-6.88,.11-.65,.34-1.28,.72-2.65-2.64,0-4.91,0-7.18,0-56.56,0-113.12,0-169.68,0-1.7,0-3.54,.41-5.06-.2-1.33-.53-2.32-2.21-3.46-3.39,1.12-1.18,2.09-2.87,3.41-3.4,1.52-.61,3.36-.21,5.06-.21,28.07,0,56.14,.14,84.2-.05,27.31-.19,49.27-26.04,48.53-56.73-.76-31.17-23.31-55.53-50.48-54.52-22.07,.82-42.93,21.39-45.13,45.83Z"/>
  <path class="cls-1" d="M150.27,43.96c10.85-6.26,14.04-5.94,18.41,2.21,8.57,16.01,8.43,16.87-4.81,27.82-.38,7.44,2.53,10.19,9.11,9.66,5.86-.47,8.91,3.77,9.24,10.4,.14,2.92,.04,5.85,.03,8.78-.05,9.99-2.67,13.27-11.27,13.33-3.59,.02-5.71,.66-6.84,5.37-1.19,4.95,1.44,5.98,3.98,7.57,5.1,3.17,7.81,7.47,5.54,14.33-1.43,4.32-3.58,7.25-8.34,5.31,.06-.53-.02-1.24,.22-1.76,4.17-9.21,4.29-9.44-3.97-14.63-3.86-2.42-5.47-4.95-3.42-9.79,.73-1.72,1.18-3.72,1.29-5.63,.33-5.58,2.81-7.19,7.55-7.02,8.69,.31,13.08-7.9,8.98-17.14-.84-1.89-4.55-2.25-7-3.01-2.72-.84-7.22-.38-7.97-2.15-2.08-4.88-3.21-10.6-3.4-16.05-.06-1.74,3.82-4.09,6.22-5.43,4.92-2.76,6.21-6.21,2.66-11.41-.78-1.14-1.41-2.46-1.92-3.79-2-5.21-4.68-6.11-8.97-2.81-2.46,1.89-6.7,4.47-8.3,3.33-4.02-2.85-7.49-7.26-10.09-11.86-.86-1.52,1.19-5.84,2.65-8.3,3.09-5.24,2.43-8.44-2.56-11.55-8.78-5.46-8.79-5.85-13.8,3.9-2,3.89-4.09,5.15-7.72,3.13-1.7-.94-3.62-1.62-5.49-1.84-5.4-.62-7.32-3.97-6.51-9.87,1.03-7.45-2.33-9.11-8.13-8.86-9.1,.39-9.41,.09-9.14,9.05,.18,5.82-1.49,8.64-6.66,8.85-1.86,.08-3.81,.77-5.53,1.67-4.27,2.23-6.86,.51-8.5-4.14-2.09-5.92-4.9-7.59-10.21-3.75-8.49,6.13-8.87,5.91-4.78,13.89,2.14,4.18,1.92,7.13-1.56,9.91-1.38,1.1-2.73,2.45-3.69,4.02-3.26,5.34-6.87,6.67-11.56,2.2-3.46-3.3-6.13-2.28-8.04,2.3-.91,2.19-2.02,4.29-3.2,6.32-2.13,3.66-1.6,6.73,1.92,8.23,6.5,2.79,6.66,7.63,4.16,13.83-.61,1.52-.98,3.26-1.12,4.93-.39,4.9-2.65,6.88-6.82,6.16-7.69-1.32-7.31,4.45-7.37,10.46-.06,6.02,.19,11.09,7.27,9.85,4.62-.81,6.64,1.72,7.06,6.74,.16,1.91,.57,3.91,1.29,5.63,2.4,5.67,1.44,9.49-3.84,12.14-8.05,4.04-1.07,9.1-.38,13.68-4.38,2.88-6.56,.09-8.19-4.05-2.52-6.38-1.12-9.68,7.28-17.1-.7-6.07-1.22-12.31-9-11.08-.39,.06-.84-.17-1.23-.33-5.47-2.21-7.47-9.74-5.87-22.69,.72-5.82,3.63-9.55,8.91-9.34,4.11,.17,5.34-1.97,6.43-6.05,1.1-4.1,.35-6.1-2.8-8.18-5.05-3.33-6.09-8.49-3.42-14.4,1.66-3.67,3.49-7.26,5.45-10.74,2.53-4.5,6.82-6.52,10.49-3.96,6.44,4.49,9.56,.9,12.64-4.65-5.43-13.35,.96-25.65,14.27-26.27,2.9-.13,6.66,2.75,8.72,5.51,2.28,3.06,3.56,5,7.61,3.74,3.84-1.19,4.37-3.29,4.46-7.15,.18-7.74,3.2-11.06,9.8-11.38,3.19-.15,6.38-.1,9.57,0,5.86,.19,9.71,3.83,9.2,10.4-.65,8.31,3.77,8.9,8.62,9.78,9.29-14.27,9.95-14.42,23.14-5.35,8.28,5.69,8.54,8.08,2.15,23.38,2.02,1.61,4.27,3.4,7.09,5.65Z"/>
  <path class="cls-1" d="M92.96,138.1c-18.66-.39-33.29-17.86-32.85-39.22,.44-21.27,15.76-37.84,34.53-37.32,18.29,.5,32.9,17.94,32.57,38.89-.34,21.37-15.51,38.05-34.25,37.66Zm.59-7.23c14.96,.03,27.21-13.84,27.33-30.93,.12-16.87-12.27-31.08-27.15-31.13-14.95-.05-27.26,13.88-27.33,30.92-.07,16.98,12.25,31.11,27.15,31.13Z"/>
  <path class="cls-1" d="M140.67,168.15c2.83,1.1,5.84,1.35,6.22,2.61,.73,2.47,.93,7.06-.32,8.06-5.56,4.47-11.53,8.43-17.75,11.51-1.47,.73-4.78-2.3-6.72-4.27-1.67-1.69-2.6-4.34-3.81-6.47-6.24,.04-9.96,2.45-8.88,10.29,.12,.9-.11,1.99-.45,2.84-4.31,10.74-12.78,6.32-19.7,6.67-5.58,.28-8.33-4.22-8.61-10.39-.16-3.7,.19-6.66-4.37-7.98-4.56-1.32-5.91,.99-7.9,4.48-1.18,2.06-3.3,3.96-5.34,4.73-5.36,2.01-18.86-6.96-20.42-13.14-1.41-5.58,.48-7.97,6.07-7.71-.69,5.93,6.44,15.33,11.75,14.67,1.75-.22,3.81-2.93,4.71-5.07,2.23-5.28,4.98-7.6,10.03-4.72,1.48,.85,3.27,1.28,4.94,1.35,4.86,.22,6.59,2.81,6.4,8.41-.1,2.94,1.15,8.21,2.46,8.51,4.21,.96,8.83,.58,13.07-.45,1-.24,1.73-5.11,1.58-7.78-.32-5.54,1.09-8.91,6.27-9.47,1.45-.16,2.99-.62,4.27-1.41,5.25-3.22,8.13-.74,10.41,4.82,1.33,3.24,2.38,7.74,7.38,5.12,8.94-4.68,10.45-6.64,8.7-15.23Z"/>
  <path class="cls-1" d="M94.06,72.44c1.42,4.24,2.41,6.15,2.69,8.2,.8,5.86,.86,11.9,2.12,17.6,.66,2.98,3.46,5.27,4.84,8.15,.75,1.57,.55,3.74,.78,5.65-1.68-.14-3.64,.29-5-.55-3.07-1.89-6.04-4.15-8.67-6.76-1.26-1.25-2.39-3.71-2.29-5.52,.38-6.63,1.18-13.24,2.11-19.8,.25-1.73,1.55-3.26,3.42-6.96Z"/>
</svg>