<?xml version="1.0" encoding="UTF-8"?>
<svg id="Layer_1" data-name="Layer 1" xmlns="http://www.w3.org/2000/svg" viewBox="0 0 200 200">
  <defs>
    <style>
      .cls-1 {
        fill: #5c2e63;
      }
    </style>
  </defs>
  <path class="cls-1" d="M22.84,140.76c-2.15-.25-4.16-.28-6.1-.73C6.91,137.74,.05,128.34,.03,117.03-.01,85.88,0,54.72,.03,23.57,.04,11.5,7.65,1.91,18.4,.2c.91-.15,1.85-.19,2.77-.19C62.61,0,104.04,0,145.48,0c11.94,0,21.29,10.34,21.29,23.59,0,31.12,0,62.24,0,93.36,0,13.21-9.33,23.59-21.2,23.59-22.43,0-44.85,0-67.28-.01-.73,0-1.32,.19-1.91,.67-14.69,11.65-29.4,23.29-44.1,34.93-3.39,2.68-7.78,1.33-9.05-2.84-.29-.95-.36-2.02-.37-3.03-.03-9.45-.02-18.9-.02-28.36,0-.41,0-.82,0-1.15Zm11.55,17.87c.32-.21,.5-.31,.65-.44,12.16-9.62,24.33-19.23,36.47-28.89,1.38-1.1,2.83-1.62,4.52-1.62,23.12,.02,46.24,.02,69.36,0,5.69,0,9.8-4.58,9.81-10.89,0-31.06,0-62.11,0-93.17,0-6.16-4.18-10.79-9.73-10.79-41.35,0-82.7,0-124.05,0-5.68,0-9.82,4.58-9.82,10.89,0,31.06,0,62.11,0,93.17,0,6.2,4.13,10.77,9.72,10.8,2.31,.01,4.63,0,6.94,0,3.73,.01,6.12,2.69,6.13,6.83,0,7.07,0,14.15,0,21.22v2.87Z"/>
  <path class="cls-1" d="M165.61,181.1v-1.22c0-7.65,0-15.3,0-22.96,0-4.03,2.41-6.73,6.02-6.76,2.34-.02,4.69,0,7.03,0,5.57,0,9.73-4.59,9.74-10.78,.01-16.94,0-33.89,0-50.83,0-14.15,0-28.29,0-42.44,0-5.27-3.07-9.54-7.55-10.57-.62-.14-1.26-.19-1.89-.23-3.43-.2-5.91-3.06-5.77-6.67,.14-3.65,2.75-6.25,6.2-6.18,11.39,.25,20.57,10.55,20.59,23.3,.05,31.32,.05,62.63,0,93.95-.02,13.03-9.46,23.3-21.2,23.3-.49,0-.97,0-1.59,0v1.3c0,9.23,0,18.46,0,27.68,0,.99,.02,2.01-.17,2.97-.87,4.54-5.53,6.52-9.01,3.81-3.98-3.1-7.92-6.26-11.88-9.39-10.84-8.58-21.68-17.15-32.51-25.75-.58-.46-1.14-.64-1.84-.64-14.58,.02-29.17,.02-43.75,.01-3.17,0-5.51-2.05-6.06-5.28-.63-3.73,1.88-7.31,5.3-7.54,.32-.02,.64-.02,.95-.02,15.31,0,30.62,0,45.92-.01,1.6,0,2.98,.5,4.28,1.54,12.17,9.67,24.36,19.3,36.54,28.94,.16,.13,.34,.24,.67,.47Z"/>
  <path class="cls-1" d="M73.28,68.55c.1-6.2,4.69-11.21,10.21-11.13,5.64,.08,10.14,5.24,10.03,11.52-.11,6.11-4.75,11.08-10.25,10.98-5.57-.1-10.09-5.24-9.99-11.37Z"/>
  <path class="cls-1" d="M54.52,68.73c0,6.14-4.52,11.17-10.06,11.19-5.56,.02-10.12-5.02-10.14-11.21-.01-6.2,4.5-11.25,10.08-11.29,5.6-.03,10.13,5.03,10.13,11.31Z"/>
  <path class="cls-1" d="M112.27,68.65c0-6.18,4.55-11.23,10.1-11.23,5.6,0,10.12,5.06,10.11,11.31-.01,6.17-4.58,11.22-10.13,11.19-5.56-.03-10.08-5.08-10.07-11.27Z"/>
</svg>