<?xml version="1.0" encoding="UTF-8"?>
<svg id="Layer_1" data-name="Layer 1" xmlns="http://www.w3.org/2000/svg" viewBox="0 0 200 200">
  <defs>
    <style>
      .cls-1 {
        fill: #5c2e63;
      }
    </style>
  </defs>
  <path class="cls-1" d="M33.62,0C77.88,0,122.15,0,166.41,0c.36,.12,.72,.3,1.09,.35,15.4,2.12,27.69,13.18,31.45,28.31,.4,1.63,.7,3.29,1.04,4.93V166.39c-.12,.37-.29,.73-.35,1.1-2.74,18.94-18.05,32.42-37.27,32.46-41.59,.09-83.19,.03-124.78,.02-5.33,0-10.56-.81-15.34-3.2C7.98,189.63,.12,178.19,.06,162c-.11-24.87-.03-49.73-.03-74.6,0-16.53-.05-33.07,.01-49.6C.1,21.08,10.18,7.05,25.88,1.83,28.39,1,31.03,.6,33.62,0ZM116.71,99.97c0,1.01,0,1.78,0,2.54,.02,6.25-.08,12.5,.13,18.74,.06,1.63,.75,3.52,1.78,4.78,3.45,4.23,8.76,4.13,12.94-.04,14.74-14.72,29.46-29.45,44.19-44.18,4.66-4.66,4.64-9-.04-13.69-14.59-14.59-29.18-29.18-43.78-43.77-.83-.83-1.68-1.65-2.64-2.3-1.72-1.17-3.58-1.69-5.72-1.07-4.76,1.36-6.81,3.89-6.84,8.87-.05,5.99-.01,11.98-.01,17.96,0,.69,0,1.38,0,2.26-2.11,0-3.93-.06-5.74,0-13.07,.49-25.9,2.3-38.23,6.87-13.67,5.07-24.11,13.99-31.07,26.78-5.06,9.3-6.94,19.53-7.89,29.96-1.13,12.37,0,24.41,4.92,35.95,4.1,9.63,9.51,18.48,15.67,26.9,1.7,2.32,3.38,3.06,5.42,2.3,2.25-.83,2.95-2.29,2.67-5.39-.47-5.12-1.05-10.23-1.32-15.36-.57-10.69-.28-21.33,2.53-31.76,3.04-11.24,10.06-18.69,21.1-22.37,10.27-3.42,20.92-3.78,31.94-4Z"/>
</svg>