<?xml version="1.0" encoding="UTF-8"?>
<svg id="Layer_1" data-name="Layer 1" xmlns="http://www.w3.org/2000/svg" viewBox="0 0 200 200">
  <defs>
    <style>
      .cls-1 {
        fill: #5c2e63;
      }
    </style>
  </defs>
  <path class="cls-1" d="M18.95,34.36C42.27,8.79,73.53-2.87,111.96,.6c30.09,2.72,53.9,15.25,70.97,35.96,13.56,16.45,18.89,34.83,16.52,54.71-2.09,17.5-10.08,32.86-24.05,46.08-10.49,9.93-23.47,16.83-37.85,22.38-33.47,12.9-66.72,26.19-100.04,39.36-2.44,.97-4.78,1.45-7.06-.06-2.38-1.58-2.32-3.64-1.65-5.93,3.7-12.66,7.18-25.37,10.99-38.01,1.12-3.71,.01-6.12-3.52-8.59C12.55,129.89,.7,108.54,0,87.23c.03-22,6.22-38.91,18.95-52.88Zm74.86,12.94c-10.96-9.51-27.92-12.4-42.21-7.13-14.44,5.32-23.05,17.51-21.6,30.79,.76,6.97,4.02,13.12,9.85,18.2,18.79,16.36,37.66,32.66,56.48,49,1.28,1.11,2.16,1.88,4.01,.41,19.65-15.66,39.59-31.08,59.03-46.91,14.79-12.05,14.35-31.28-.34-43.54-14.08-11.75-37.24-11.96-51.98-.45-2.13,1.66-4.24,3.33-6.47,5.08-2.44-1.96-4.69-3.64-6.78-5.45Z"/>
</svg>