<?xml version="1.0" encoding="UTF-8"?>
<svg id="Layer_1" data-name="Layer 1" xmlns="http://www.w3.org/2000/svg" viewBox="0 0 200 200">
  <defs>
    <style>
      .cls-1 {
        fill: #5c2e63;
      }
    </style>
  </defs>
  <path class="cls-1" d="M75.21,44.83c.16-2.35,1.97-1.57,3.15-1.57,28.64-.02,57.29,0,85.93,.06,6.72,.02,11.83,3.71,11.96,14.18,.26,19.94,.01,39.88,.1,59.82,.01,2.68-.78,2.88-3.14,2.5-11.04-1.8-22.13-2.93-33.3-1.18-5.21,.81-9.52,4.9-10.25,10.2-.27,1.95-.86,3.48-2.11,4.93-2.04,2.37-3.7,4.83-2.2,8.32,.53,1.23,.09,2.7-.61,4.07-.75,1.48-1.48,3.29-.84,4.94,1.73,4.39-.33,5.3-3.99,4.74-6.18-.96-10.69,1.36-15.04,5.96-7.74,8.19-16.17,15.72-24.34,23.49-.95,.91-1.67,2.38-3.6,1.99,3.32-9.19,6.49-18.36,9.97-27.41,1.29-3.36,.53-4.1-2.84-4.08-15.93,.13-31.86,.08-47.79,.04-7.5-.02-12.47-4.75-12.52-12.37-.12-19.51-.01-39.02,0-58.53,11.36,3.36,23,3.99,34.7,3.31,6.19-.36,10.72-3.6,13.97-9.34,5.37-9.5,5.91-19.86,6.59-30.31,.2-3.05-.93-4.21-3.82-3.75Z"/>
  <path class="cls-1" d="M18.16,57.63c0-2.56,.05-5.12-.01-7.68-.1-4.03-.46-7.47,4.33-10.01,4.29-2.28,5.67-7.91,7.54-12.49,1.32-3.23,3.03-5.96,5.81-8.14,4.82-3.78,5.03-9.57,5.81-15.04,.62-4.37,2.7-5.39,6.41-3.04,4.06,2.57,5.78,8.47,3.83,14.58-1.11,3.5-2.93,6.75-4.23,10.2-1.54,4.08-1.06,4.69,3.1,4.7,4.19,.02,8.38-.07,12.56,.16,7.22,.4,10.24,5.38,7.29,11.95-.55,1.23-.38,2.13,.2,3.17,.55,.99,1.66,2.71,1.43,2.93-4.65,4.45,.93,11.62-4.12,15.88-.87,.74-1.32,1.73-1.49,2.95-.83,5.86-3.7,9.14-9.22,9.59-12.47,1-24.8-.29-37-3.06-2.01-.46-2.27-1.7-2.26-3.41,.04-4.41,.01-8.82,.01-13.23Z"/>
  <path class="cls-1" d="M181.83,142.32c0,2.28,.02,4.56,0,6.83-.04,4.33,.76,8.34-4.55,11.26-4.47,2.46-5.79,8.48-7.84,13.31-.72,1.71-1.2,3.67-2.76,4.69-6.23,4.09-7.67,10.47-8.36,17.31-.44,4.42-2.44,5.35-6.34,3.08-4.42-2.58-5.97-9.63-3.43-16.17,1.23-3.17,2.76-6.22,4.04-9.37,1.13-2.78,.54-4.2-2.85-4.04-4.46,.21-8.94,.09-13.4-.14-6.93-.36-9.89-5.41-6.92-11.79,.76-1.63,.06-2.7-.59-3.94-.58-1.11-1.98-2.56-1.14-3.44,3.23-3.34,.77-7.82,1.93-10.61,1.75-4.19,3.12-8.81,5.65-12.67,2.2-3.36,5.93-4.03,9.66-4.19,11.51-.49,22.85,.76,34.11,3.18,2.01,.43,2.84,1.37,2.81,3.45-.08,4.41-.02,8.83-.02,13.24Z"/>
  <path class="cls-1" d="M15.57,58.42c0,4.41-.02,8.83,0,13.24,.02,2.99-1.35,4.3-4.32,4.46C.03,76.73,.03,76.79,.03,65.52c0-6.83,.08-13.67-.03-20.5-.05-3.42,1.32-4.84,4.71-4.93,10.86-.3,10.86-.38,10.86,10.65,0,2.56,0,5.13,0,7.69Z"/>
  <path class="cls-1" d="M199.96,141.9c0,4.55-.03,9.1,0,13.66,.03,2.8-1.24,4.29-4,4.3-12.48,.06-11.63,1.03-11.56-10.74,.04-6.69,.09-13.37-.03-20.06-.06-3.58,1.32-5.21,4.93-5.19,11.5,.07,10.72-.78,10.65,10.36-.02,2.56,0,5.12,0,7.68Z"/>
  <path class="cls-1" d="M75.21,44.83c2.89-.46,4.02,.71,3.82,3.75-.68,10.45-1.22,20.82-6.59,30.31-3.25,5.74-7.77,8.98-13.97,9.34-11.7,.68-23.34,.05-34.7-3.31-.4-5.61-.27-5.65,5.62-4.4,10.14,2.14,20.37,2.11,30.59,.73,4.81-.65,9.65-5.89,10.44-10.86,.09-.56-.1-1.33,.2-1.66,3.44-3.77,3.88-7.88,3.76-13.1-.08-3.26,1.75-7.03,.83-10.81Z"/>
</svg>