<?xml version="1.0" encoding="UTF-8"?>
<svg id="Layer_1" data-name="Layer 1" xmlns="http://www.w3.org/2000/svg" viewBox="0 0 200 200">
  <defs>
    <style>
      .cls-1 {
        fill: #5c2e63;
      }
    </style>
  </defs>
  <path class="cls-1" d="M98.95,151.25c-11.09-.02-22.19-.15-33.28,0-4.49,.06-8.2,2.28-11.3,5.36-4.43,4.4-8.88,8.78-13.22,13.26-1.85,1.9-3.93,2.71-6.44,1.75-2.59-.99-3.24-3.14-3.22-5.66,.03-2.62,.33-5.28-.3-7.86-1.31-5.39-4.79-9.12-9.8-11.68-7.54-3.85-13.19-9.49-17.06-16.8C1.59,124.44,.06,118.95,.05,113.11c0-24.87-.13-49.73,.02-74.6C.2,17.39,17.99,.23,39.94,.1c25.92-.16,51.83-.11,77.75,0,18.42,.08,35.34,14.21,38.51,31.79,.77,4.27,.71,8.57,.74,12.86,.1,13.87,.04,27.74,.05,41.6,0,.87,.1,1.75,.15,2.62-.71,4.6-.18,9.23-.35,13.84-.23,6.1,.53,12.23-1.02,18.3-2.64,10.31-8.72,18.21-17.84,23.97-7.05,4.45-14.96,6.13-23.33,6.08-5.21-.03-10.43,.05-15.64,.08ZM52.31,41.17c-9.21,.46-17.17,4.99-21.42,14.32-4.28,9.41-2.79,18.53,4.59,25.91,13.6,13.61,27.68,26.79,41.53,40.18,1.07,1.04,1.72,1.04,2.8,0,13.66-13.22,27.36-26.39,41.04-39.59,5-4.82,7.56-10.75,7.27-17.47-.41-9.5-5.06-16.77-14.1-20.91-9.19-4.2-18.01-3.11-26.14,2.75-3.06,2.2-5.49,5.07-8.22,7.62-.91,.85-1.53,.92-2.43,.01-2.06-2.07-4.18-4.09-6.34-6.06-4.83-4.41-10.57-6.7-18.57-6.77Z"/>
  <path class="cls-1" d="M98.95,151.25c5.21-.03,10.43-.11,15.64-.08,8.37,.05,16.28-1.62,23.33-6.08,9.12-5.76,15.2-13.66,17.84-23.97,1.55-6.07,.79-12.2,1.02-18.3,.17-4.61-.35-9.24,.35-13.84,5.63,.01,11.26,.06,16.89,.03,14.02-.09,26.07,11.38,25.96,24.83-.13,16.34,.16,32.68-.11,49.01-.15,9.07-5.06,15.84-13.08,20.32-4.68,2.61-7.21,6.12-7.21,11.31,0,.64-.05,1.28,0,1.91,.11,1.48-.3,2.65-1.84,3.3-1.59,.66-2.93,.27-4.06-.86-2.35-2.35-4.76-4.66-6.97-7.13-3.37-3.77-7.44-5.33-12.67-5.19-9.6,.27-19.21,.12-28.81,.04-7.54-.06-14.11-2.67-19.27-7.94-4.37-4.46-6.97-9.81-6.98-16.11,0-3.75-.02-7.49-.03-11.24Z"/>
</svg>