<?xml version="1.0" encoding="UTF-8"?>
<svg id="Layer_1" data-name="Layer 1" xmlns="http://www.w3.org/2000/svg" viewBox="0 0 200 200">
  <defs>
    <style>
      .cls-1 {
        fill: #5c2e63;
      }
    </style>
  </defs>
  <path class="cls-1" d="M0,133.97c.32-1.53,.61-3.07,.97-4.59,4.04-16.9,18.62-28.39,35.85-28.27,.51,0,1.02,0,1.67,0v-5.96c-3.45-.62-6.9-.96-10.18-1.89C5.08,86.65-5.3,58.65,7.82,38.23c.86-1.34,1.95-2.39,3.49-1.75,.91,.38,1.87,1.48,2.11,2.44,.2,.83-.44,1.99-.96,2.85-3,4.95-4.51,10.32-4.59,16.09-.21,16.12,12.09,29.47,28.47,30.98,15.03,1.38,29.53-9.93,32.02-25.27,2.08-12.8-2.1-23.4-12.62-30.79-10.52-7.39-21.73-7.47-32.96-1.23-.34,.19-.67,.41-1.02,.58-1.58,.78-3.12,.41-3.94-.93-.86-1.4-.47-3.11,1.05-4.1,4.15-2.7,8.67-4.49,13.56-5.25,1.98-.31,3.98-.43,6.02-.65,.17-2.06,.17-4.1,.53-6.07C40.56,6.52,47.66,.22,56.34,.1c12.23-.17,24.47-.07,36.71-.07,17.12,0,34.24-.03,51.36,0,9.54,.02,16.89,5.9,18.67,14.95,.4,2.04,.38,4.16,.55,6.23,19.89-.16,36.46,16.72,36.37,36.99-.09,19.14-15.25,36.29-36.37,36.71v6.09c11.41,.29,20.88,4.7,28.14,13.56,5.51,6.73,8.11,14.56,8.24,23.29,.26,17-13.8,36.68-36.55,36.85,0,2.15,.04,4.3,0,6.45-.23,9.53-6.06,16.75-15.01,18.51-1.45,.29-2.98,.31-4.47,.31-28.64,.02-57.28,.02-85.92,0-11.73,0-19.39-7.8-19.41-19.68,0-1.89,0-3.78,0-5.5-3.55-.43-6.95-.55-10.21-1.29-15-3.4-25.86-15.4-28.07-30.75-.06-.45-.23-.88-.35-1.31,0-2.5,0-5,0-7.5ZM69.59,17.56c-3.64,0-7.14-.06-10.65,.03-1.83,.05-2.83,1.21-2.94,3.05-.07,1.25-.18,2.53,.03,3.74,.15,.83,.63,1.87,1.28,2.29,23.24,14.94,23.23,47.92-.07,62.69-.96,.61-1.3,1.25-1.29,2.37,.05,4.47,.07,8.95,0,13.42-.02,1.26,.37,2.02,1.39,2.76,20.36,14.83,20.4,44.89,.07,59.68-1.09,.8-1.5,1.61-1.45,2.92,.09,2.5,.02,5,.03,7.5,0,3.68,.81,4.48,4.52,4.48,20.44,0,40.88,0,61.31,0,6.77,0,13.54,0,20.31,0,2.99,0,3.94-.99,3.95-4.04,0-2.3-.06-4.61,.03-6.91,.05-1.2-.36-1.87-1.38-2.51-6.34-3.91-11.09-9.3-14.14-16.15-3.45-7.76-4.22-15.82-2.05-24.06,.25-.93,1.35-2.03,2.26-2.27,.82-.21,2.32,.38,2.77,1.1,.54,.85,.36,2.21,.33,3.35-.09,3.79-.85,7.67-.28,11.34,1.91,12.41,9.02,20.88,20.79,24.73,11.74,3.83,22.41,1.09,31.01-7.81,8.72-9.03,11.07-20.01,6.89-31.89-3.96-11.24-12.18-18.1-23.85-19.99-11.33-1.83-20.89,1.94-28.38,10.83-1.69,2.01-3.15,2.41-4.64,1.25-1.51-1.17-1.62-3.13,.21-4.95,2.76-2.75,5.68-5.38,8.76-7.77,1.24-.97,1.74-1.81,1.71-3.33-.09-3.75-.12-7.5,.01-11.25,.05-1.53-.51-2.29-1.74-3.1-10.72-7.07-16.66-17.12-16.94-30.06-.31-13.91,5.74-24.67,17.3-32.25,.47-.31,1.24-.72,1.24-1.1,.05-2.09,.1-4.22-.29-6.25-.14-.72-1.46-1.69-2.29-1.73-3.62-.19-7.26-.08-10.85-.08-1.42,5.97-3.8,8.34-8.63,8.36-15.3,.04-30.59,.04-45.89,0-3.89,0-6.9-2.29-7.93-5.81-.22-.75-.31-1.53-.51-2.57Zm94.14,9.66c-16.79-.05-30.48,13.66-30.56,30.6-.08,17.08,13.51,31.02,30.33,31.09,16.84,.07,30.63-13.75,30.66-30.75,.03-17.1-13.52-30.89-30.43-30.94ZM36.58,106.93c-16.5-.25-30.5,13.42-30.74,30.02-.25,17.39,13.12,31.47,30.09,31.7,16.89,.22,30.63-13.12,30.88-29.98,.26-17.53-13.03-31.48-30.23-31.73ZM50.11,23.19c.07-1.35,.08-2.45,.18-3.54,.36-3.9,3.14-7.32,6.96-7.65,4.38-.38,8.83-.31,13.23-.09,2.72,.14,4.53,2.31,4.96,5.05,.43,2.75,.93,3.2,3.65,3.21,8.46,0,16.91,0,25.37,0,6.18,0,12.36,0,18.54,0,2.64,0,3.2-.5,3.56-3.06,.44-3.12,2.73-5.29,6.01-5.39,3.57-.11,7.16-.15,10.73,.01,5.11,.24,8.48,3.94,8.58,9.12,.01,.74,0,1.48,0,2.37,2.13-.56,3.93-1.03,5.67-1.48,1.2-9.7-5.21-16.03-14.13-15.95-28.3,.25-56.59,.09-84.89,.11-1.55,0-3.15,.03-4.64,.41-6.67,1.68-10.25,7.69-9.27,15.48,1.71,.44,3.45,.88,5.5,1.41Zm101.78,149.42c0,1.89,0,3.64,0,5.39,0,6.9-3.38,10.34-10.17,10.35-27.14,0-54.28,0-81.42,0-6.71,0-10.07-3.41-10.08-10.2,0-2.06,0-4.13,0-6.36-2.12,.69-3.89,1.26-5.67,1.83,0,3.3-.26,6.54,.06,9.72,.63,6.37,6.2,10.79,13.25,10.8,28.77,.01,57.53,0,86.3,0,.65,0,1.3,0,1.95-.07,5.22-.53,8.85-3.31,10.72-8.21,1.47-3.84,.76-7.88,.78-11.81-1.97-.5-3.72-.94-5.72-1.44ZM44.54,94.31v7.61c1.85,.59,3.62,1.15,5.53,1.75v-10.77c-1.91,.48-3.65,.93-5.53,1.41Zm113.02,7.17v-7.17c-1.91-.48-3.7-.93-5.51-1.38v9.94c1.93-.48,3.67-.92,5.51-1.38Z"/>
  <path class="cls-1" d="M58.66,57.99c0,3.81,.03,7.63,0,11.44-.05,5.31-3.48,9.01-8.74,9.11-7.67,.14-15.35,.14-23.03,0-5.23-.09-8.72-3.8-8.78-9.11-.08-7.56-.07-15.13,0-22.69,.05-5.62,3.67-9.15,9.27-9.18,7.35-.03,14.7-.03,22.05,0,5.71,.02,9.19,3.58,9.23,9.38,.02,3.68,0,7.37,0,11.05Zm-5.78,.14c0-3.68,.02-7.36,0-11.04-.02-2.75-.93-3.65-3.66-3.66-7.22-.02-14.44-.02-21.65,0-2.66,0-3.66,1.01-3.67,3.68-.02,7.3-.02,14.59,0,21.89,0,2.64,1.07,3.7,3.69,3.71,7.22,.02,14.44,.02,21.65,0,2.62,0,3.61-1.04,3.63-3.73,.03-3.61,0-7.23,0-10.84Z"/>
  <path class="cls-1" d="M100.99,126.52c-5.49-.01-10.46-1.66-15.03-4.74-.62-.42-1.67-.53-2.42-.35-1.63,.4-3.2,1.08-4.79,1.63-1.69,.58-3.22,.27-4.52-.96-1.36-1.3-1.69-2.9-1.17-4.7,.11-.38,.24-.75,.38-1.12,1.6-4.2,2.34-8.23,1.75-13.03-2.15-17.3,11.95-31.6,28.78-29.58,10.68,1.28,18.19,7.3,21.77,17.57,3.62,10.38,1.21,19.72-6.34,27.57-4.99,5.19-11.5,7.75-18.41,7.71Zm-21.69-10.34c.21,.07,.43,.15,.64,.22,.68-.22,1.38-.38,2.02-.67,2.59-1.18,4.83-.65,7.11,1,6.92,5.02,15.71,5.26,22.75,.78,7.21-4.59,10.77-12.81,9.29-21.4-1.82-10.54-11.72-17.8-22.66-16.6-10.15,1.11-18.64,10.95-17.78,21.25,.44,5.26,2.22,10.45-1.37,15.42Z"/>
  <path class="cls-1" d="M181.51,138.17c-1.07,1.4-1.68,2.85-2.76,3.5-6.62,4.02-13.33,7.92-20.06,11.75-2.91,1.66-6.04-.13-6.08-3.49-.08-7.89-.09-15.77,0-23.66,.04-3.25,3.15-5.07,5.95-3.48,6.79,3.86,13.55,7.79,20.22,11.86,1.07,.65,1.66,2.12,2.71,3.52Zm-23.03,8.65c5.02-2.93,9.82-5.73,14.87-8.68-5.15-3-9.93-5.78-15.02-8.75,0,5.7,0,10.94,0,16.17,0,.31,.07,.61,.14,1.26Z"/>
  <path class="cls-1" d="M164.02,54.2c1.64,0,3.05-.04,4.47,.01,1.78,.06,2.92,1.12,3.01,2.7,.1,1.69-.98,2.99-2.81,3.13-1.47,.11-2.96,.02-4.68,.02,0,2.07,0,3.95,0,5.83,0,4.07,.02,8.15-.01,12.22-.02,2.17-1.14,3.43-2.92,3.42-1.79,0-2.87-1.26-2.88-3.45-.02-5.91,0-11.81,0-18.01-1.44,0-2.78,.03-4.11,0-2.16-.06-3.39-1.16-3.39-2.97,0-1.83,1.22-2.86,3.41-2.91,1.23-.03,2.47-.04,3.7-.06,.05,0,.1-.06,.39-.25,0-2.38,0-4.92,0-7.46,.02-5.95,3.6-9.56,9.49-9.59,1.95,0,3.9-.04,5.85,.01,1.9,.05,3.05,1.15,3.1,2.82,.05,1.76-1.13,2.97-3.11,3.03-2.08,.07-4.16,0-6.24,.03-2.18,.04-3.23,1.08-3.26,3.27-.04,2.63,0,5.25,0,8.19Z"/>
  <path class="cls-1" d="M21.17,145.26c-6.18-5.55-7.4-12.24-5.54-19.75,.91-3.67,4.36-4.63,6.95-1.92,2.34,2.44,5.02,4.12,8.45,4.7,.19-.56,.38-1.1,.55-1.65,2.16-6.76,9.89-9.51,15.63-5.42,1.29,.92,2.38,.92,3.61,.37,1.98-.89,3.81-.83,5.44,.65,1.64,1.49,1.91,3.38,1.2,5.41-.58,1.66-1.02,3.45-1.97,4.89-1.43,2.16-2.28,4.49-3.08,6.92-3.21,9.71-11.33,15.9-21.59,16.59-3.51,.24-7.02,.27-10.38-1.1-1.91-.78-3.35-1.98-3.89-4.08-.67-2.59,.33-4.34,2.89-5.08,.5-.14,.99-.3,1.71-.53Zm4.42,4.82c8.21,.84,18.83-1.97,21.81-14.03,.51-2.08,1.15-3.98,2.61-5.6,.63-.7,.95-1.67,1.65-2.95-3.37,.84-5.86,.1-8.36-1.74-2.34-1.73-5.71,.17-6.24,3.11-.13,.71-.11,1.44-.15,2.16-.13,2.35-1.11,3.32-3.4,3.35-3.81,.05-7.31-1.01-10.56-2.98-.69-.42-1.38-.85-2.18-1.35-.42,3.84,.47,7.07,3.09,9.57,1.35,1.29,3.02,2.24,4.62,3.22,2.29,1.41,2.44,3.85,.21,5.37-.9,.61-1.86,1.13-3.1,1.87Z"/>
  <path class="cls-1" d="M101.29,10.07c1.55,.16,2.72,1.57,2.61,3.13-.12,1.64-1.63,2.9-3.22,2.69-1.53-.2-2.71-1.7-2.52-3.21,.19-1.55,1.64-2.76,3.14-2.61Z"/>
  <path class="cls-1" d="M38.31,49.26c4.76-.07,8.72,3.85,8.79,8.69,.07,4.79-3.85,8.83-8.61,8.88-4.76,.05-8.74-3.89-8.79-8.7-.05-4.83,3.81-8.81,8.6-8.87Zm2.99,8.82c.02-1.52-1.3-2.92-2.81-2.97-1.53-.05-2.88,1.23-2.95,2.79-.08,1.66,1.24,3.04,2.87,3.04,1.56,0,2.86-1.3,2.89-2.86Z"/>
  <path class="cls-1" d="M103.45,108.57c-.83-.29-2.35-.66-3.73-1.33-1.52-.73-2.93-1.7-4.35-2.63-5.45-3.58-4.57-9.91-2.01-13.74,.82-1.23,2.13-1.51,3.47-.86,1.43,.69,1.89,1.94,1.53,3.46-.14,.56-.48,1.07-.7,1.62-.99,2.47-.58,3.7,1.67,5.11,.77,.48,1.56,.95,2.34,1.43,2.5,1.52,3.79,1.27,5.66-1.08,.4-.51,.82-1.33,1.3-1.38,1.13-.13,2.66-.29,3.34,.33,.69,.62,1.09,2.47,.68,3.28-1.75,3.37-4.52,5.54-9.19,5.8Z"/>
</svg>