<?xml version="1.0" encoding="UTF-8"?>
<svg id="Layer_1" data-name="Layer 1" xmlns="http://www.w3.org/2000/svg" viewBox="0 0 200 200">
  <defs>
    <style>
      .cls-1 {
        fill: #5c2e63;
      }
    </style>
  </defs>
  <path class="cls-1" d="M87.5,200c-5.17-.99-8.69-3.84-11.92-7.36-15.78-17.2-25.9-36.7-31.6-58.01-1.57-5.88-2.83-11.84-3.75-17.82-.77-5.02,.51-9.85,3.72-14.17,5.13-6.91,15.84-8.75,23.97-5.98,.61,.21,1.21,.42,2.12,.75,0-.98,0-1.73,0-2.48,0-16.73,0-33.46,0-50.18,0-4.69,1.34-8.96,4.96-12.61,5.27-5.31,13.59-7.29,21.64-5.02,7.31,2.06,13.02,8.21,13.24,15.02,.29,8.98,.13,17.96,.16,26.94,0,.76,0,1.52,0,2.36,16.73-6.72,31.21,4.52,30.11,17.54,7.19-3.06,14.27-3.02,20.91,.74,6.74,3.81,9.29,9.6,9.09,15.93,3.85-.48,7.66-1.45,11.42-1.32,9.72,.34,17.57,7.23,18.25,15.7,.65,8.09-.55,16.11-2.01,24.08-2.78,15.28-7.88,29.98-14.23,44.42-2.48,5.63-5.94,9.97-12.98,11.49H87.5Zm-7.41-122.3c0,11.19,0,22.39,0,33.58,0,3.72-1.78,5.8-4.94,5.85-2.92,.04-4.77-1.87-5.17-5.33-.47-4.09-3.92-7.16-8.5-7.58-5.25-.49-8.94,1.58-10.52,5.81-1.47,3.94-.66,7.83,.13,11.75,4.93,24.71,15.22,47.36,33.67,66.93,1.73,1.83,3.65,2.66,6.34,2.66,25.15-.04,50.3-.02,75.45-.02,3.99,0,5.21-.77,6.73-4.02,7.19-15.35,12.51-31.17,15.12-47.6,.95-5.98,1.38-12.04,1.5-18.08,.1-5.01-4.19-8.67-9.36-8.79-5.28-.12-9.7,3.2-10.36,7.77-.06,.45-.11,.91-.22,1.35-.59,2.36-2.77,3.9-5.21,3.71-2.63-.21-4.5-1.83-4.56-4.3-.11-5.59,.02-11.19-.1-16.79-.11-5.18-4.27-8.94-9.83-9.1-5.31-.15-9.49,3.27-10.18,8.34-.41,2.99-2.35,4.64-5.28,4.51-2.89-.13-4.66-1.97-4.68-4.99-.03-5.14,.01-10.28-.03-15.42,0-1.1-.1-2.22-.39-3.29-1.07-3.93-5.22-6.61-9.92-6.52-4.65,.1-8.6,3.02-9.45,7.02-.19,.9-.25,1.82-.49,2.7-.51,1.84-2.4,3.13-4.55,3.21-2.2,.08-4.17-1.04-4.8-2.87-.3-.85-.39-1.79-.39-2.69-.03-7.74-.02-15.49-.02-23.23,0-6.31,.05-12.63-.03-18.94-.05-3.67-2.78-6.81-6.69-8.02-3.84-1.19-8.09-.19-10.82,2.49-2.02,1.99-2.45,4.37-2.45,6.9,.02,11,0,22,0,33Z"/>
  <path class="cls-1" d="M16.99,34.79c6.17,0,11.78-.03,17.39,.01,3.02,.02,5.03,1.34,5.48,3.45,.6,2.83-1.51,5.1-5.02,5.17-4.56,.09-9.13,.03-13.69,.03-5.01,0-10.03,.02-15.04,0-4.05-.02-6.04-1.6-6.07-5.06C-.03,30.19,0,22,.03,13.8c0-2.09,.79-3.87,3.19-4.72,1.89-.67,3.95-.49,5.13,.9,.98,1.16,1.61,2.79,1.67,4.24,.21,4.54,.08,9.09,.08,14.15,1.42-1.06,2.46-1.83,3.49-2.62,11.61-8.94,24.65-15.84,39.32-20.2,28.29-8.41,56.15-7.2,83.49,3.26,3.18,1.22,4.38,3.6,3.18,5.98-1.18,2.34-4.03,3.19-7.25,1.95-8.1-3.12-16.48-5.43-25.22-6.7-21.29-3.1-41.7-.59-61.21,7.41-10.08,4.13-19.19,9.55-27.39,16.11-.37,.3-.74,.6-1.52,1.24Z"/>
</svg>