<?xml version="1.0" encoding="UTF-8"?>
<svg id="Layer_1" data-name="Layer 1" xmlns="http://www.w3.org/2000/svg" viewBox="0 0 200 200">
  <defs>
    <style>
      .cls-1 {
        fill: #fbb247;
      }
    </style>
  </defs>
  <path class="cls-1" d="M134.24,134.1c.73,.36,1.8,.05,1.95-.76,.13-.69-.19-1.47-.33-2.33,.88,.31,1.15,1.6,2.18,1.04,.31-.17,.5-.58,.77-.91-.62,.18-1.06,.31-1.51,.44,.2-.48,.39-.95,.66-1.62-.19-.15-.56-.44-.92-.72,9.24-20.15,9.51-40.36-1.04-60.05-10.49-19.56-27.27-30.57-49.04-34.02-.07,.08-.14,.16-.21,.23,.14,.19,.26,.39,.42,.55,2.94,2.96,5.92,5.88,8.83,8.87,3.31,3.4,2.07,9.11-2.38,10.77-2.5,.93-4.94,.58-6.9-1.35-5.19-5.12-10.31-10.32-15.49-15.44-1.82-1.8-3.71-3.51-5.63-5.2-2.77-2.44-3.37-7.48-.15-10.6,3.6-3.48,7.09-7.06,10.64-10.59,3.54-3.53,7.06-7.07,10.63-10.56,2.13-2.09,5.37-2.41,7.94-.87,2.5,1.49,3.67,4.43,2.99,7.26-.33,1.38-1.06,2.46-2.04,3.43-3.05,3.04-6.09,6.08-9.13,9.13-.25,.25-.48,.51-.76,.82,2.73,.44,5.38,.78,7.99,1.31,2.68,.55,5.36,1.17,7.98,1.97,4.77,1.45,9.35,3.38,13.75,5.74,4.63,2.48,8.97,5.38,13.02,8.71,6,4.92,11.11,10.66,15.45,17.08,.59,.87,1.13,1.77,1.68,2.67,.11,.19,.26,.46,.2,.63-.37,1.01,.12,1.5,.95,1.95,.85,.47,1.29,1.22,1.11,1.86,.62,.99,1.21,1.67,1.52,2.46,1.62,4.14,3.38,8.25,4.7,12.49,1.41,4.51,2.34,9.18,2.57,13.93,.19,4,.37,8.02,.26,12.02-.13,4.6-.89,9.14-1.94,13.64-1.67,7.19-4.33,13.97-7.93,20.38-4.39,7.82-9.97,14.69-16.71,20.62-5.39,4.74-11.31,8.68-17.77,11.79-5.1,2.45-10.41,4.29-15.92,5.62-6.98,1.68-14.05,2.15-21.19,2.13-18.2-.03-36.4,0-54.6-.02-2.21,0-4.42-.13-6.63-.22-.83-.03-1.44-.38-1.44-1.32-1.25,.23-2.11-.36-2.91-1.91-2.33-4.51,.86-9.79,5.94-9.79,2.68,0,5.36,.12,8.04,.12,2.03,0,4.06-.12,6.09-.12,1.56,0,3.13,.15,4.69,.18,.75,.01,1.51-.18,2.26-.18,14.26-.02,28.51,.03,42.77-.05,4.91-.03,9.78-.58,14.52-1.95,2.66-.77,5.35-1.44,7.92-2.44,4.94-1.92,9.6-4.42,13.95-7.47,6.23-4.37,11.5-9.68,15.9-15.88,.8-1.12,1.53-2.29,2.28-3.44Zm7.85-8.88c-.33,.23-.74,.38-.88,.67-.18,.34-.31,.89-.15,1.19,.35,.67,.83,1.3,1.37,1.83,.22,.22,.8,.31,1.09,.18,.54-.25,1.05-.75,.69-1.41-.15-.27-.72-.39-1.11-.43-.26-.03-.55,.21-.82,.32,.54-.89,.52-1.62-.18-2.36Zm2.27,1.44c.1-.09,.2-.18,.3-.27-.3-.37-.67-.71-.87-1.13-.14-.29-.04-.7-.05-1.06,.33,.09,.73,.1,.99,.29,.39,.29,.69,.7,1.03,1.06,.1-.09,.2-.19,.3-.28-.55-.56-1.01-1.35-1.67-1.58-.41-.14-1.12,.57-1.78,.95,.67,.76,1.22,1.39,1.77,2.01Zm-5.12,1.48c-.05-.1-.1-.2-.15-.29-.29,.18-.66,.29-.84,.55-.13,.18-.11,.64,.03,.8,.18,.19,.56,.22,.86,.28,.12,.02,.27-.09,.38-.06,.2,.05,.4,.15,.59,.23-.14,.18-.26,.38-.43,.54-.09,.09-.25,.1-.38,.14,.04,.1,.08,.21,.13,.31,.33-.16,.72-.27,.96-.52,.15-.16,.19-.66,.07-.78-.22-.22-.61-.3-.94-.36-.32-.06-.65-.01-.97-.01l-.08-.25,.76-.57Zm.8-1.13c-.1,.09-.2,.18-.31,.28,.56,.65,1.12,1.3,1.68,1.95,.1-.08,.19-.17,.29-.25-.55-.66-1.11-1.31-1.66-1.97Z"/>
  <path class="cls-1" d="M51.41,159.67c-2.94,0-5.88,.01-8.81-.02-.27,0-.59-.27-.81-.49-.69-.69-1.4-.81-2.22-.22-.62,.45-1.2,.49-1.73-.19-.13-.16-.44-.18-.83-.33,.12,.54,.19,.85,.27,1.22h-1.25c-.06-.31-.13-.61-.21-.98-.17,.04-.34,.02-.4,.1-.72,1.01-1.77,.97-2.84,.94-1.39-.04-2.79,.06-4.18-.04-.6-.04-1.31-.26-1.74-.65-7.49-6.66-13.57-14.41-18.14-23.36-2.41-4.72-4.35-9.63-5.73-14.73C.46,112.29-.42,103.54,.19,94.62c.41-5.98,1.43-11.83,3.17-17.54,2.45-8.03,6.09-15.52,10.96-22.38,4.47-6.3,9.72-11.86,15.8-16.62,4.68-3.66,9.68-6.82,15.11-9.26,1.11-.5,2.23-1.06,3.41-1.28,2.5-.47,4.65,.36,6.23,2.37,1.46,1.85,1.89,3.92,1.12,6.24-.8,2.4-2.63,3.58-4.78,4.53-4.44,1.97-8.53,4.53-12.38,7.49-6.43,4.94-11.75,10.86-15.99,17.77-3.69,6.01-6.31,12.46-7.91,19.33-1.24,5.35-1.71,10.78-1.62,16.28,.11,6.45,1.18,12.73,3.18,18.83,2.93,8.9,7.59,16.84,13.94,23.75,3.12,3.4,6.58,6.39,10.32,9.09,3.21,2.33,6.66,4.21,10.22,5.91,.18,.08,.32,.22,.49,.34-.01,.07-.03,.13-.04,.2Zm-15.73-113.4c.07,.92,.82,.82,1.16,.65,.41-.2,.76-.73,.9-1.19,.08-.28-.3-.69-.47-1.05-.11,.03-.22,.06-.33,.09,.16,1-.15,1.61-1.25,1.5Zm-1.77-2.5c.04,.07,.19,.32,.34,.57,.13-.22,.22-.46,.39-.64,.22-.26,.49-.48,.74-.71,.15-.13,.29-.27,.44-.4-.18-.1-.35-.28-.53-.3-.86-.11-1.36,.35-1.37,1.48Z"/>
  <path class="cls-1" d="M177.19,178.48H109.78c2.09-.95,3.93-1.78,5.76-2.63,5.3-2.47,10.19-5.6,14.74-9.26,1.09-.88,2.13-1.31,3.54-1.3,7.23,.07,14.45,.02,21.68,.04,1.64,0,3.27,.14,4.91,.19,.53,.02,1.05-.09,1.58-.1,.62-.01,1.24,.02,1.86,.02,.69,0,1.38,.01,2.07,0,.36-.01,.72-.11,1.08-.11,3.19,0,6.38,0,9.58,0,.13,0,.26-.03,.47-.06-.67-1.49-2.65-2-2.78-3.85-1.35-.19-1.73-.55-1.82-1.79-1.31-.34-1.36-.39-1.46-1.2-.8-.59-1.5-.96-2.01-1.51-1.05-1.12-2.23-2.21-2.93-3.53-1.21-2.28-.91-4.65,.62-6.73,1.56-2.12,3.71-2.94,6.33-2.59,1.55,.2,2.79,.94,3.88,1.99,.8,.77,1.59,1.57,2.37,2.37,.25,.26,.54,.55,.62,.87,.36,1.47,1.55,2.49,2.6,3.07,1.74,.96,2.98,2.34,4.32,3.66,3.78,3.74,7.55,7.5,11.27,11.3,2.58,2.63,2.61,6.66,.02,9.26-7.1,7.16-14.22,14.31-21.39,21.4-3.44,3.4-8.78,2.39-10.77-2-1.09-2.4-.7-5.34,1.63-7.63,3.06-3.02,6.1-6.07,9.15-9.11,.13-.13,.21-.31,.5-.76Z"/>
  <path class="cls-1" d="M135.64,132.25c0,.38,.08,.77-.03,1.12-.05,.16-.46,.19-.71,.29,.09-.47,.18-.94,.27-1.4,.16,0,.32,0,.47,0Z"/>
  <path class="cls-1" d="M144.14,128.17c-.45,.3-.71,.55-1.02,.63-.12,.03-.34-.36-.51-.56,.27-.2,.53-.46,.83-.58,.11-.04,.35,.25,.7,.51Z"/>
  <path class="cls-1" d="M142.53,126.48c-.39,.24-.61,.48-.84,.48-.16,0-.33-.31-.5-.48,.2-.18,.38-.45,.6-.5,.15-.03,.38,.24,.73,.49Z"/>
</svg>