<?xml version="1.0" encoding="UTF-8"?>
<svg id="Layer_1" data-name="Layer 1" xmlns="http://www.w3.org/2000/svg" viewBox="0 0 200 200">
  <defs>
    <style>
      .cls-1 {
        fill: #fbb247;
      }
    </style>
  </defs>
  <path class="cls-1" d="M163.08,193.25c7.52,0,13.89,0,20.25,0,1.96,0,4.23-.06,4.34,3.2,.11,3.26-2.04,3.59-4.08,3.56-1.28-.02-2.55,0-3.83,0-57.41,0-114.83,0-172.24,0-1.49,0-2.98-.05-4.47,0-1.73,.04-2.94-.81-3.06-3.14-.14-2.89,1.32-3.61,3.28-3.6,6.59,.03,13.18,.01,21.23,.01-8.54-14.7-.95-25.25,4.55-36.36,2.84-5.72,5.55-11.55,8.5-17.17,2.52-4.81,4.29-9.45,3.69-15.74-.69-7.26,2.75-11.28,8.95-11.48,7.65-.25,15.32-.35,22.96,.06,3.87,.21,5.42-2.13,6.06-6.26,.57-3.63,1.49-6.96-2.34-9.55-6.28-4.24-10.14-11.81-9.33-20.71,1.33-14.75-3.43-25.97-9.9-37.13-6.61-11.41-6.31-11.69,5.01-13.45-2.06-4.69-4.04-9.03-5.88-13.46-1.94-4.66-1.21-7.52,3.38-6.72,13.68,2.38,27.4,4.48,40.99,7.5,10.65,2.36,18.81,14.9,19.23,28.76,.35,11.65,.2,23.34,.09,35.01-.08,8.85-3.28,15.95-9.27,20.01-3.8,2.58-3.83,5.22-2.92,9.69,.98,4.8,2.84,6.49,6.72,6.29,7.22-.38,14.46-.25,21.69-.06,7.55,.19,10.28,4.17,9.42,13.89-.31,3.5,.32,6.21,1.79,9.09,4.86,9.54,9.31,19.42,14.33,28.81,4.85,9.08,6.31,18.14,.83,28.98Zm-9.83-30.54c.39,1.03,.78,2.07,1.17,3.1-.81,2.06-1.95,3.81-3.93,3.16-7.62-2.48-8.98,3.07-9.6,11.02-1.09,14.09-.26,15.39,10.93,13.18,7.77-1.54,11.7-11.14,8.11-20.14-1.04-2.61-2.54-4.91-3.83-7.35-.57-1.34-1.14-2.67-1.71-4.01-2.96-6.11-5.91-12.21-9.5-19.62-.33,2.93-.46,4.17-.61,5.41q-1.71,13.98,8.98,15.26Zm-119.21,.4c2.51-.35,5.02-.73,7.54-1.02,1.46-.17,3.48,.07,2.9-2.75-1.01-4.93,.17-10.48-2.63-16.07-3.14,6.82-5.9,12.81-8.66,18.8-.33,.67-.66,1.34-.99,2.01-1.71,3.38-3.68,6.59-5.08,10.17-2.29,5.87-.99,11.21,2.67,15.41,4.83,5.55,11.17,4.64,16.39,2.99,3.2-1.01,.16-7.51,.24-11.54,.03-1.62-.29-3.25-.26-4.87,.1-5.74-1.66-8.36-6.48-7.46-2.7,.5-6.42,1.72-6.24-4.68,.37-.16,.57-.48,.6-.98Zm60.1-43.57c-14.01,0-28.03,.18-42.04-.1-4.98-.1-6.1,2.06-5.4,8.21,2.21,19.56,4.11,39.17,5.77,58.82,.42,4.93,1.21,6.94,5.53,6.89,23.99-.28,47.98-.25,71.97-.01,3.63,.04,4.68-1.64,5.05-5.8,1.82-20.17,3.63-40.35,5.8-60.46,.72-6.69-1.46-7.72-5.93-7.64-13.59,.25-27.18,.09-40.76,.09ZM63.75,13.62c2.27,5.14,3.98,8.54,5.3,12.17,.91,2.51,3.5,4.7,1.91,7.96-2.01,4.12-3.99-.21-6-.38-.96-.08-1.95,.23-4.33,.55,10.34,12.79,13.48,27.4,12.55,44.24-.44,7.89,5.33,14.44,12,15.24,5.69,.69,11.5,.73,17.19,.06,7.69-.9,12.64-8.16,12.79-18.07,.17-10.85,.2-21.71-.03-32.56-.23-10.58-5.25-19.88-13.26-22.44-12.12-3.87-24.59-5.49-38.1-6.78Zm29.98,98.86c2.53,0,5.06,.03,7.59-.02,1.01-.02,1.98,.01,2.28-1.86,.82-4.95-2.39-10.02-6.52-10.06-2.32-.02-4.69,.38-6.95-.08-6.31-1.28-5.66,5.2-5.81,9.26-.2,5.64,3.74,1.57,5.65,2.65,1.06,.6,2.49,.11,3.76,.1Z"/>
  <path class="cls-1" d="M168.32,.1c5.73,0,11.47-.2,17.2,.04,9.22,.38,14.17,6.67,14.36,18.23,.15,8.94,.17,17.9-.01,26.84-.24,11.54-5.35,17.71-14.52,17.94-1.7,.04-3.43,.28-5.09-.04-11.1-2.08-20.38,1.05-26.49,14.21-.91,1.96-2.33,4.45-4.59,3.31-2.47-1.26-2.09-4.42-1.95-7.06,.34-6.15,.04-11.05-5.62-13.97-4.34-2.24-5.67-8.48-5.72-14.48-.08-8.94-.19-17.9,.03-26.84,.26-11.03,5.34-17.66,13.93-18.12,6.15-.33,12.32-.06,18.47-.07Zm-14.87,67.17c5.42-13.81,14.91-10.82,23.59-10.93,2.76-.04,5.52,.11,8.28-.03,6.19-.33,8.97-3.72,9.08-11.44,.13-8.94,.06-17.89,.02-26.83-.03-6.9-2.84-10.63-8.22-10.69-12.1-.12-24.21-.08-36.31-.03-5.44,.02-8.26,3.76-8.36,10.58-.13,9.21-.07,18.43-.02,27.65,.02,4.39,1.23,8.85,4.73,9.48,5.56,1,7.11,5.06,7.2,12.26Z"/>
  <path class="cls-1" d="M28.64,48.33c-.32,2.6,.75,6.64-2.86,6.43-2.89-.17-2.52-3.62-2.48-6.24,.04-2.81-.59-6.64,2.89-6.49,3.05,.13,2.21,3.75,2.45,6.3Z"/>
  <path class="cls-1" d="M28.61,71.11c-.18,2.66,.53,6.26-2.43,6.39-3.41,.15-2.87-3.68-2.87-6.51,0-2.57-.51-6.03,2.45-6.21,3.68-.23,2.51,3.82,2.85,6.33Z"/>
  <path class="cls-1" d="M36.49,59.8c-.09,2.18-1.17,3.37-3.22,3.32-1.88-.04-3.44-.74-3.48-3.47-.03-2.28,1.27-3.19,2.94-3.24,1.74-.05,3.48-.06,3.75,3.39Z"/>
  <path class="cls-1" d="M19.11,56.38c1.99,.01,3.28,1.07,3.01,3.82-.22,2.28-1.56,2.93-3.18,2.92-1.87-.01-3.4-.73-3.36-3.52,.04-2.9,1.74-3.23,3.53-3.22Z"/>
  <path class="cls-1" d="M93.96,167.6c-4.86-.63-7.47-3.87-7.36-9.57,.1-5.68,2.72-9.11,7.34-8.94,4.56,.17,7.17,3.68,7.08,9.35-.09,5.69-2.97,8.63-7.06,9.16Z"/>
  <path class="cls-1" d="M183.81,32.25c-2.7-2.92-4.05-4.25-5.27-5.73-1.37-1.66-3.21-3.51-1.42-6.09,2.11-3.06,3.72-.38,5.29,1.36,.32,.35,.62,.74,.93,1.1,6.79,7.95,5.86,15.15-2.59,20.2-1.24,.74-2.46,1.02-3.5-.31-1.31-1.69-1.03-3.57,.28-4.92,1.8-1.85,3.79-3.4,6.29-5.6Z"/>
  <path class="cls-1" d="M153.66,33.11c1.09,1.06,3.02,2.72,4.75,4.66,1.2,1.34,1.76,3.14,.33,4.92-1.32,1.64-2.77,1.34-3.97-.05-2.36-2.73-4.63-5.59-6.86-8.48-1.46-1.9-1.23-3.87,.2-5.68,.45-.57,.84-1.3,1.37-1.69,3.06-2.21,5.29-10.54,8.72-6.5,4.15,4.88-3.32,6.79-4.54,12.83Z"/>
  <path class="cls-1" d="M173.84,24.01c-2.24,5.68-4.72,12.21-7.41,18.59-.66,1.57-2.26,1.51-3.37,.5-1.19-1.08-1.19-2.9-.64-4.42,2.11-5.86,4.31-11.67,6.53-17.46,.61-1.59,1.73-2.46,3.13-1.92,1.38,.53,1.95,1.94,1.76,4.72Z"/>
</svg>