<?xml version="1.0" encoding="UTF-8"?>
<svg id="Layer_1" data-name="Layer 1" xmlns="http://www.w3.org/2000/svg" viewBox="0 0 200 200">
  <defs>
    <style>
      .cls-1 {
        fill: #fbb247;
      }
    </style>
  </defs>
  <path class="cls-1" d="M181.06,157.96c-1.66-2.28-6.94-2.34-4.51-6.21,2.33-3.71,4.89,.28,7.86,.63,5.87-10.14,8.88-21.22,9.54-33.45-1.5,0-2.83,.03-4.16,0-1.98-.06-3.22-.91-3.16-2.9,.05-1.85,1.23-2.64,3.09-2.67,1.27-.02,2.53,0,4.16,0-.38-12.11-3.66-23.12-9.37-33.46-2.91,.03-5.55,4.48-7.96,.63-2.41-3.85,2.76-4.01,4.3-5.95-3-6.88-16.77-19.97-25.91-24.48-.67,1.04-1.38,2.1-2.07,3.18-1.07,1.67-2.59,2.03-4.28,1.06-1.61-.92-1.82-2.33-.91-3.88,.62-1.05,1.26-2.09,2.03-3.39-11.19-5.68-22.97-8.56-35.74-9.11-.09,1.59,.18,3.09-.34,4.29-.46,1.07-1.81,2.5-2.74,2.48-1.03-.01-2.47-1.32-2.93-2.38-.51-1.17-.12-2.7-.12-4.86-6.29,1.03-12.24,1.46-17.82,3.05-6.68,1.9-13.07,4.71-19.53,7.26-1.95,.77-3.75,1.67-5.1-.59-1.35-2.26,.24-3.36,2.14-4.35,8.82-4.59,18.17-7.8,28.13-9.29,1.99-.3,2.71-.97,2.58-2.84-.15-2.2-.04-4.41-.04-6.58-.62-.14-.91-.27-1.18-.25-7.65,.55-9.07-2.38-8.67-8.61,.21-3.25-.02-6.52,.06-9.78,.09-3.68,2.01-5.47,5.94-5.48,10.99-.04,21.98-.04,32.98,0,4.03,.01,5.92,1.88,5.95,5.73,.03,3.91,.02,7.82,0,11.74-.02,4.72-1.68,6.26-6.79,6.37-.87,.02-1.73,.1-2.94,.18,0,2.62-.17,5.12,.11,7.58,.08,.69,1.37,1.66,2.23,1.8,14.62,2.41,27.76,7.92,39.51,16.42,2.11,1.53,4.11,3.19,6.34,4.93,1.95-1.99,3.87-3.94,6.35-6.46-1.02-.71-2.61-1.29-3.11-2.32-.52-1.09-.47-2.96,.24-3.86,.46-.59,3.03-.58,3.8,.07,3.61,3.03,7.06,6.27,10.25,9.69,.72,.78,.72,2.89,.11,3.86-.94,1.48-2.71,1.21-4.1,.06-1.03-.85-2-1.75-3.15-2.77-2,1.99-3.89,3.87-5.94,5.91,1.23,1.39,2.56,2.85,3.84,4.35,42.56,50,13.39,123.09-52.57,135.1-21.02,3.83-40.94,.64-59.69-9.01-1.16-.6-2.48-1.8-2.71-2.91-.5-2.41,2.12-3.39,4.96-2.28,6.83,2.67,13.6,5.58,20.65,7.62,5.32,1.54,11.02,1.89,17.14,2.86,0-1.87-.05-3.13,.01-4.39,.1-1.86,1.14-3.03,3.15-2.99,1.89,.04,2.78,1.23,2.82,2.96,.03,1.19,0,2.38,0,3.92,12.85-.36,24.57-3.35,35.56-8.8-.11-2.75-4.93-5.43-.33-7.6,3.93-1.86,3.97,2.82,6.31,4.38,10.37-6.26,18.98-14.28,25.73-24.2ZM127.79,18.34c0-3.4-.16-6.64,.05-9.86,.15-2.4-.55-3.22-3.26-3.17-9.2,.16-18.41,.05-27.61,.06-.94,0-1.89,.11-2.82,.17v12.8h33.63Zm-10.1,5.68h-13.68v8.22h13.68v-8.22Z"/>
  <path class="cls-1" d="M110.92,130.25c-6.32,.04-11.77-3.41-14.12-8.92-2.31-5.42-1.02-11.73,3.84-15.55,4.24-3.34,8.87-6.24,13.47-9.14,7.56-4.77,15.22-9.41,22.86-14.05,3.6-2.19,6.75-2.06,9.21,.21,2.45,2.26,2.67,5.4,.38,8.66-7.48,10.64-14.98,21.26-22.55,31.84-3.1,4.34-7.31,7.01-13.1,6.96Zm31.61-43.24c-.2-.24-.39-.47-.59-.71-.9,.41-1.87,.73-2.7,1.24-7.64,4.65-15.3,9.27-22.88,14.02-4.03,2.53-8.1,5.05-11.8,7.98-5.59,4.44-3.59,12.91,3.34,15.07,4.29,1.34,8.31,.04,11.45-4.31,7.51-10.38,14.83-20.89,22.2-31.36,.41-.59,.65-1.28,.96-1.93Z"/>
  <path class="cls-1" d="M31.63,113.34c9,0,18,.02,27-.02,2.15,0,4.25,.18,4.28,2.69,.03,2.61-2.04,2.96-4.36,2.95-18.1-.04-36.19-.02-54.29-.02-.3,0-.59,0-.89,0-2.13-.01-3.43-.91-3.36-3.01,.07-2.04,1.52-2.6,3.44-2.59,9.39,.01,18.79,0,28.18,0h0Z"/>
  <path class="cls-1" d="M39.01,100.96c-6.52,0-13.05-.01-19.57,0-2.18,0-4.14-.39-4.17-2.87-.03-2.56,2.05-2.83,4.17-2.83,13.15,0,26.29,0,39.44,0,2.06,0,3.97,.4,4.02,2.7,.06,2.39-1.73,3.02-4.02,3.01-6.62-.05-13.25-.02-19.87-.01Z"/>
  <path class="cls-1" d="M38.91,136.9c-6.62,0-13.24-.04-19.86,.02-2.22,.02-3.8-.67-3.78-2.89,.02-2.11,1.62-2.73,3.67-2.72,13.44,.02,26.88,.02,40.32,0,2.07,0,3.63,.67,3.65,2.76,.02,2.28-1.66,2.86-3.83,2.85-6.72-.04-13.44-.02-20.16-.02Z"/>
  <path class="cls-1" d="M46.69,154.87c-4.15,0-8.3-.03-12.45,.01-2.04,.02-3.67-.54-3.69-2.67-.02-2.22,1.56-2.96,3.76-2.95,8.2,.03,16.4,.03,24.6,0,2.11,0,3.9,.49,3.98,2.76,.08,2.5-1.83,2.92-4.05,2.88-4.05-.06-8.1-.02-12.15-.02v-.02Z"/>
  <path class="cls-1" d="M46.52,82.88c-4.05,0-8.1-.02-12.14,0-2.12,.01-3.88-.52-3.83-2.84,.06-2.28,1.82-2.8,3.93-2.79,8.19,.02,16.39,.01,24.58-.02,2.17,0,3.85,.69,3.84,2.9-.01,2.29-1.84,2.78-3.94,2.76-4.15-.03-8.29-.01-12.44-.01Z"/>
  <path class="cls-1" d="M54.2,172.88c-1.87,0-3.83,.32-5.58-.12-1.08-.28-2.54-1.72-2.54-2.63,0-.94,1.51-2.6,2.48-2.69,3.81-.32,7.69-.36,11.49-.03,1.05,.09,2.53,1.76,2.7,2.86,.12,.74-1.57,2.28-2.68,2.54-1.86,.43-3.91,.12-5.88,.12,0-.02,0-.03,0-.05Z"/>
  <path class="cls-1" d="M54.33,64.84c-1.87,0-3.82,.31-5.58-.11-1.11-.26-2.45-1.48-2.74-2.51-.47-1.67,.84-2.86,2.67-2.91,3.83-.11,7.69-.21,11.5,.1,1,.08,2.7,1.86,2.56,2.6-.2,1.06-1.65,2.39-2.84,2.71-1.73,.46-3.7,.12-5.57,.12Z"/>
</svg>