<?xml version="1.0" encoding="UTF-8"?>
<svg id="Layer_1" data-name="Layer 1" xmlns="http://www.w3.org/2000/svg" viewBox="0 0 200 200">
  <defs>
    <style>
      .cls-1 {
        fill: #fbb247;
      }
    </style>
  </defs>
  <path class="cls-1" d="M165.64,200H1.66c-1.17-1.77-1.62-3.68-1.61-5.85C.09,153.85,.13,113.54,0,73.23c-.02-4.69,1.49-6.63,6.26-6.47,7.01,.23,14.06-.26,21.06,.16,4.95,.3,6.13-1.49,6.06-6.19-.26-16.9-.03-33.81-.13-50.71C33.19,3.33,35.75-.05,42.91,0,67.61,.18,92.32,.18,117.02,0c7.02-.05,10.46,2.9,9.56,9.81-.8,6.13,1.69,7.72,7.35,7.09,7.12-.8,10.23,3.15,9.48,9.84-.65,5.75,1.67,7.11,6.92,6.6,6.92-.67,9.96,2.9,9.68,9.82-.24,5.97,.06,11.96-.09,17.94-.09,3.56,.3,6.08,4.92,5.77,6.38-.43,8.77,3.2,8.61,9.22-.15,5.46,.35,10.96-.13,16.37-.53,5.88,1.05,8.16,7.43,7.73,6.48-.44,13.43-1.77,19.25,2.96v7.81c-2.51,1.09-2.35,3.7-3.07,5.7-8.72,24.12-17.41,48.25-25.91,72.45-1.37,3.89-3.21,7.43-5.37,10.87v.02Zm-80.46-6.58c23.68,0,47.36-.08,71.03,.08,4.04,.03,6.47-.54,8.01-5.02,8.8-25.49,17.9-50.88,27.14-76.21,1.69-4.63,.8-5.74-4.05-5.73-47.62,.13-95.23,.13-142.85,0-4.02-.01-5.82,1.21-7.17,5.09-8.79,25.22-17.75,50.38-26.99,75.44-1.99,5.39-.96,6.52,4.62,6.46,23.41-.26,46.83-.11,70.25-.11h.01Zm47.45-93.4c6.12,0,11.02-.23,15.89,.07,3.77,.24,4.83-1.03,4.78-4.78-.19-16.63-.19-33.27,0-49.91,.05-3.92-.86-5.36-5.1-5.32-23.13,.2-46.27,.23-69.4,0-4.64-.05-5.53,1.59-5.44,5.76,.25,11.95,.09,23.91,.09,35.87s6.12,18.46,18.37,18.23c.39,0,.78-.43,1.17-.67-12.72-17.54-12.28-33.67,1.22-45.38,11.52-9.99,29.17-9.15,40.27,1.91,11.86,11.81,11.51,28.22-1.85,44.22h0ZM40.17,53.22c0,13.76,.07,27.53-.05,41.29-.03,3.47,.03,5.68,4.74,5.72,4.81,.04,5.33-1.87,5.3-5.91-.17-22.33-.11-44.67-.06-67,.02-9.03,1.38-10.4,10.43-10.44,17.66-.07,35.32-.06,52.98,0,3.8,.01,6.95,.44,6.87-5.34-.08-5.38-2.95-4.94-6.46-4.94-22.59,.05-45.19,.17-67.78-.09-4.91-.06-6.16,1.49-6.06,6.19,.28,13.5,.1,27.01,.1,40.51h0Zm55.97-29.75c-11.16,0-22.34,.22-33.49-.1-4.66-.13-6.22,1-6.15,5.97,.29,21.55,.17,43.1,.08,64.65-.02,3.68-.17,6.31,5.05,6.26,4.89-.05,5.32-2.13,5.28-6.07-.16-16.36-.09-32.72-.06-49.07,.02-10.47,1.28-11.77,11.55-11.79,17.66-.04,35.31-.11,52.97,.07,3.94,.04,5.36-.91,5.45-5.14,.11-4.64-2.11-4.86-5.63-4.82-11.68,.13-23.37,.05-35.05,.05h0ZM6.86,173.19c.46,.04,.92,.09,1.38,.13,7.71-21.58,15.42-43.17,23.76-66.54-16.63,8.19-21.1-2.34-25.14-13.86,0,0,0,80.27,0,80.27Zm123.63-80.95c8.59-11.86,7.61-24.87-2.16-33.16-9.35-7.93-23.2-7.22-31.68,1.64-8.42,8.8-8.42,21.93,.24,31.3,2.64-5.37,7.92-9.29,3.75-16.89-2.41-4.39,.95-9.55,5.45-12.55,4.77-3.18,9.74-3.22,14.54-.04,4.53,3,7.78,8.09,5.47,12.57-3.89,7.55,.73,11.66,4.38,17.12h.01Zm-97.21-4.69c0-9.38-4.68-14.07-14.04-14.07-2.08,0-4.17,.17-6.22-.04-3.82-.39-4.48,1.22-3.26,4.47,2.28,6.05,5.22,11.98,6.52,18.24,1.59,7.71,6.19,5.9,11.4,5.55,6.51-.43,5.67-4.58,5.61-8.71-.03-1.82,0-3.63,0-5.45h0Zm80.46,12.89c2.99-1.9,9.16,.74,9.42-5.16,.27-6.04-4.73-8.21-10.13-8.33-5.45-.12-9.54,3.03-9.41,8.25,.14,5.9,6.2,3.64,10.12,5.25h0Zm53.05-13.15c0-3.64-.05-7.28,.02-10.91,.05-2.51-1.42-2.92-3.49-2.94-2.18-.02-3.4,.66-3.38,3.07,.05,6.76,.06,13.51,0,20.27-.02,2.24,.75,3.28,3.13,3.33,2.54,.05,3.92-.61,3.78-3.46-.15-3.11-.03-6.24-.05-9.35h0Zm-53.44-20.32c-4.04,.17-6.36,2.52-6.42,6.3-.06,3.73,2.08,6.39,6.15,6.52,4.44,.14,6.89-2.52,6.81-6.64-.07-3.75-2.53-6.06-6.54-6.18Z"/>
  <path class="cls-1" d="M106.34,156.59c-7.02,0-14.05,.13-21.07-.04-8.08-.19-11.59-3.39-11.72-11.24-.06-3.72-.97-5.85-4.24-8.06-6.94-4.69-7.58-13.81-2.06-19.65,5-5.3,13.71-5.4,18.81-.21,5.59,5.68,5.21,15.32-1.7,19.69-4.14,2.62-5.18,5.42-4.16,9.48,1.18,4.67,5.23,3.39,8.41,3.41,12.23,.09,24.46,.1,36.68,0,2.89-.03,6.81,1.3,7.65-3.18,.64-3.45,.92-6.56-3.24-9.23-7.58-4.86-8.28-14.08-2.45-20.07,5.02-5.15,13.86-5.14,18.88,.03,5.88,6.04,5.11,14.99-2.46,20.05-3.26,2.18-3.37,4.53-3.62,7.7-.62,7.99-3.95,11.12-11.87,11.3-7.28,.17-14.57,.04-21.85,.03h0Zm34.81-25.5c2.75-3.91,2.32-6.89-.61-9.38-2.45-2.08-5.27-2.05-7.7,.02-2.92,2.48-3.49,5.45-.34,9.62,2.6-7,5.8-5.14,8.66-.25h-.01Zm-68.79,.29c2.16-2.74,3.51-7.5,7.27-2.16,2.71,3.84,2.91,.36,3.3-1.2,.77-3.13-.45-5.76-3.3-7.16-2.44-1.2-5.08-1.09-7.21,.99-2.88,2.82-2.88,5.82-.07,9.53h.01Z"/>
</svg>