<?xml version="1.0" encoding="UTF-8"?>
<svg id="Layer_1" data-name="Layer 1" xmlns="http://www.w3.org/2000/svg" viewBox="0 0 230 200">
  <defs>
    <style>
      .cls-1 {
        fill: #fbb247;
      }
    </style>
  </defs>
  <path class="cls-1" d="M186.16,0c6.23,4.02,8.49,10.85,7.92,20.22-.38,6.27-.07,12.62-.07,19.36h-7.08V19.13c0-8.27-.66-9.2-6.57-9.2H13.63c-5.78,0-6.49,.95-6.49,8.79v116.34h4.32c45.28,0,90.56,.17,135.84-.23,5.72-.05,9.22,1.91,10.86,10.05H7.16c0,5.35-.08,10.13,.03,14.9,.08,3.34,1.5,5.13,3.92,5.25,.71,.04,1.44,.02,2.15,.02H192.87c-1.39,6.61-4.89,9.85-10.45,9.86-21.68,.03-43.37,0-65.04,.02h-5.69v15.15c2.92,0,5.89-.34,8.8,.13,1.7,.27,4.13,1.3,4.69,2.98,.53,1.6-.94,4.49-1.53,6.81h-53.2c-.59-2.31-2.06-5.18-1.54-6.78,.55-1.68,2.97-2.75,4.66-3.02,2.91-.48,5.88-.13,8.87-.13v-15.13h-4.16c-21.26,0-42.53-.27-63.79,.15-6.7,.13-11.59-2.46-14.47-11.08V11C1.75,6.09,4.29,2.31,7.91,0H186.16ZM104.08,175.26h-14.02v14.42h14.02v-14.42Z"/>
  <path class="cls-1" d="M230,110c-2.06,2.59-4.28,5-6.12,7.87-.84,1.3-1.66,3.88-1.28,5.24,2.05,7.47-.57,12.34-4.08,17.19-3.25,4.5-6.75,6.91-11.27,4.3-2.14-1.24-3.38-.19-4.23,2.57-1.87,6.03-5.37,7.81-9.87,7.86-4.95,.05-9.42-.56-11.64-7.91-.94-3.13-2.42-3.54-4.6-2.33-4.07,2.25-7.39,.24-10.4-3.84-3.45-4.69-6.78-9.43-4.66-16.88,1.07-3.73,.12-5.5-2.2-7-4.69-3.04-5.12-8.83-5.14-15.16-.02-6.17,1-11.31,5.28-14.06,2.45-1.57,3.05-3.48,2.04-7.07-2.04-7.24,1.2-11.88,4.53-16.5,2.96-4.09,6.23-6.37,10.33-4.13,2.53,1.38,3.93,.66,5.04-2.83,2-6.3,5.97-7.32,10.45-7.32s8.5,.86,10.53,7.15c1.2,3.69,2.67,4.34,5.35,3,1.56-.79,3.59-.77,5.22-.18,6.61,2.42,10.74,12.86,9.23,22.06-.25,1.54,.64,3.83,1.47,5.24,1.84,3.1,3.98,5.85,6,8.74v14h0Zm-52.7-37.04c-1.78-2-3.22-5.43-6.46-1.17-3.35,4.41-2.13,7.14,.29,10.03-1.21,3.92-2.48,7.33-3.3,10.95-.57,2.55-1.16,4.11-3.35,3.86-3.24-.37-2.78,3.01-2.77,5.82,0,2.79-.48,5.85,2.74,6.07,1.03,.07,2.53,1.07,2.94,2.24,1.41,3.98,2.44,8.22,3.68,12.61-.6,.92-1.38,1.95-2.01,3.14-1.84,3.49,.86,4.58,1.92,6.37,.98,1.67,2.4,4.57,3.99,1.82,2.17-3.73,3.93-2.1,6.08-.46,1.45,1.1,3.23,1.44,4.62,2.64,.98,.84,2.21,2.56,2.22,3.9,.03,4.29,1.87,4.34,4.07,4.28,2.29-.07,4.76,.63,4.61-4.47-.03-1.14,.64-2.94,1.33-3.38,3.01-1.91,6.15-3.44,9.29-5.12,2.51,2.91,4.5,3.39,5.98,1.44,2.32-3.05,2.42-6.56,.31-10.51,1.14-3.72,2.47-7.28,3.29-11.06,.53-2.46,1.12-3.82,3.07-3.58,3.48,.42,2.99-3.09,3-6.05,.01-2.85,.33-5.86-2.9-5.84-.94,0-2.39-.9-2.75-1.95-1.4-4.16-2.47-8.55-3.9-13.68,.51-.51,1.41-1.14,2.05-2.12,1.91-2.96-.2-4.51-1.38-6.06-1.23-1.61-2.47-5.46-4.52-2.25-2.1,3.29-3.7,2.18-5.8,.48-1.43-1.16-3.05-2.04-4.66-2.54-1.82-.57-2.74-1.62-2.54-4.36,.31-4.44-1.95-4.14-4.05-4.07-2.12,.06-4.51-.7-4.48,4.15,0,1.28-.72,3.2-1.5,3.72-2.89,1.93-5.92,3.39-9.15,5.17l.02-.02Z"/>
  <path class="cls-1" d="M51.51,72.63c8.31,7.72,16.36,15.2,24.41,22.68,1,.92,2.39,1.55,2.89,2.85,.79,2.08,1.78,5.06,1.25,6.83-.92,3.07-3.28,2.99-5.22,1.2-10.48-9.66-20.95-19.33-31.36-29.12-2.9-2.73-2.83-6.42,.14-9.21,10.21-9.61,20.48-19.1,30.74-28.62,1.98-1.83,4.15-2.69,5.68,.5,1.61,3.33,.36,5.88-1.83,7.89-7.99,7.35-15.94,14.76-23.91,22.17-.86,.8-1.69,1.7-2.82,2.84h.02Z"/>
  <path class="cls-1" d="M142.72,72.5c-8.87-8.22-17.22-15.97-25.56-23.73-.9-.83-2.19-1.48-2.53-2.65-.56-1.92-1.15-4.8-.52-6.15,.63-1.34,2.79-1.75,4.27-1.67,1.04,.06,2.04,1.6,3.02,2.52,9.36,8.67,18.75,17.32,28.08,26.02,4.28,3.98,4.3,7.29,.02,11.28-9.74,9.09-19.52,18.08-29.28,27.14-2.14,1.98-4.45,3.6-6.26-.13-1.77-3.68,.05-6.07,2.24-8.09,8.67-7.98,17.31-16.03,26.5-24.55h.01Z"/>
  <path class="cls-1" d="M86.08,110.79c.36-1.99,.53-2.95,.71-3.91,4.55-23.75,9.1-47.51,13.69-71.25,.3-1.54,.75-3.58,1.58-4.22,1.07-.81,3.28-1.24,3.8-.4,.99,1.59,1.81,4.42,1.48,6.35-1.54,9.38-3.48,18.64-5.27,27.94-2.87,14.92-5.75,29.83-8.59,44.76-.6,3.14-1.86,5.44-4.23,4.57-1.3-.48-2.28-2.7-3.17-3.86v.02Z"/>
  <path class="cls-1" d="M96.72,159.91c-4.42,0-8.83-.02-13.25,0-2.52,.02-4.32-1.41-4.25-5.13,.06-3.45,1.85-4.74,4.19-4.73,9.07,.02,18.14,.04,27.21,.04,2.5,0,4.32,1.31,4.23,5.11-.08,3.46-1.79,4.73-4.16,4.71-4.66-.05-9.3,0-13.96,0Z"/>
  <path class="cls-1" d="M33.73,153.07c-1.96,2.14-3.11,4.33-4.12,4.22-1.07-.12-2.56-2.27-2.81-3.86-.16-1.04,1.48-3.65,2.43-3.76,1.13-.13,2.36,1.66,4.5,3.39h0Z"/>
  <path class="cls-1" d="M21.68,153.4c-2.04,1.97-3.28,4.08-4.27,3.88-1.08-.23-2.5-2.46-2.69-4.07-.13-1.05,1.64-3.51,2.62-3.57,1.1-.06,2.28,1.85,4.34,3.76h0Z"/>
  <path class="cls-1" d="M192.26,82.63c7.95-.08,14.35,8.86,14.31,19.98-.03,10.91-6.28,19.66-14.1,19.77-8.03,.11-14.41-8.58-14.49-19.74-.08-11.09,6.23-19.93,14.28-20.01Zm.22,9.86c-4.06-.08-7.44,4.45-7.44,9.96s3.15,9.85,7.02,10.06c3.98,.21,7.37-4.36,7.41-9.97,.03-5.36-3.17-9.97-6.99-10.05h.01Z"/>
</svg>