<?xml version="1.0" encoding="UTF-8"?>
<svg id="Layer_1" data-name="Layer 1" xmlns="http://www.w3.org/2000/svg" viewBox="0 0 200 200">
  <defs>
    <style>
      .cls-1 {
        fill: #fbb247;
      }
    </style>
  </defs>
  <path class="cls-1" d="M0,18.13c.22-.33,.53-.63,.65-1.01C4.3,5.47,11.05,.03,22.15,.02c43.48-.03,86.97-.03,130.45,0,13.85,0,22.37,9.36,22.39,24.45,.02,16.91-.02,33.82,.03,50.73,.01,3.29-.46,6.12-4.03,6.54-2.78,.32-4.4-2.19-4.41-6.61-.03-9.76,0-19.53,0-29.5H8.58c-.07,1.58-.19,3.08-.19,4.58,0,41.64-.01,83.28,0,124.91,0,10.76,4.73,15.89,14.64,15.89,43.09,.01,86.18,0,129.28,0,9.35,0,14.26-5.34,14.27-15.44,0-7.96,.03-15.92,0-23.87-.02-3.38,.86-6.23,4.4-6.12,3.26,.11,4.07,2.82,4.04,6.06-.08,8.53,.04,17.05-.05,25.58-.14,12.74-8.79,22.65-20.41,22.68-44.66,.14-89.31,.11-133.97,.02-9.17-.02-16.42-5.98-19.55-15.42-.3-.9-.69-1.77-1.04-2.65C0,127.28,0,72.71,0,18.13Zm166.58,17.89c0-3.87,0-7.39,0-10.91,.03-10.96-4.73-16.14-14.78-16.14-23.42,0-46.83,0-70.25,0-19.77,0-39.55-.03-59.32,.02-7.19,.02-12.79,4.2-13.49,10.8-.57,5.27-.11,10.68-.11,16.24H166.58Z"/>
  <path class="cls-1" d="M200,134.1c-4.34,3.38-5.59,3.17-8.86-1.52-2.51-3.61-5-7.23-7.81-11.3-2.88,4.19-5.59,8.06-8.24,11.99-1.71,2.54-3.8,4.34-6.55,2.21-2.94-2.27-2.02-5.04-.13-7.73,3.24-4.6,6.37-9.28,9.66-14.1-3.21-4.69-6.34-9.2-9.42-13.75-2.5-3.68-2.61-6.47-.18-8.11,3.09-2.09,5.04-.14,6.8,2.52,2.51,3.79,5.15,7.49,8.06,11.7,2.71-3.92,5.24-7.62,7.8-11.3,3.26-4.69,4.55-4.91,8.86-1.55v4.26c-3.39,4.78-6.86,9.51-10.1,14.41-.54,.82-.54,2.78,0,3.6,3.24,4.9,6.71,9.62,10.11,14.4v4.26Z"/>
  <path class="cls-1" d="M140.35,117.02c.06-.04-.71,.86-1.03,.7-4.06-1.99-8.64-3.39-11.93-6.43-4.03-3.73-3.04-10.79,1.08-15.17,6.57-6.98,20.01-7.03,26.37,.16,1.54,1.74,2.89,4.26,3.13,6.57,.18,1.68-1.3,4.64-2.63,5.14-1.28,.48-4.08-.96-4.91-2.43-3.12-5.56-10.58-7.52-15.38-3.56-2.27,1.87-2.2,3.86,.52,5.06,2.5,1.1,5.26,1.45,7.85,2.33,3.32,1.13,6.85,1.97,9.82,3.82,5.93,3.7,6.77,11.58,2.25,17.14-6.51,8.03-21.41,8.07-27.7-.11-1.35-1.75-2.51-4.22-2.59-6.41-.06-1.59,1.54-4.2,2.88-4.64,1.27-.42,3.86,.9,4.65,2.29,3.28,5.74,9.57,7.73,14.92,4.09,.91-.62,2.2-1.97,2.06-2.72-.2-1.11-1.35-2.33-2.38-2.89-2.12-1.15-4.43-1.9-7-2.96Z"/>
  <path class="cls-1" d="M116.57,109.9c0,4.4,.11,8.81-.03,13.21-.23,7.34-5.26,12.88-11.86,13.28-6.2,.38-11.86-4.79-12.88-11.72-.45-3.05,.22-5.6,3.2-6.28,3-.68,4.59,1.26,5.02,4.41,.37,2.79,1.79,4.53,4.4,4.36,2.88-.18,3.94-2.44,3.95-5.32,.04-8.24,.07-16.48,0-24.72-.03-3.4,.75-6.24,4.32-6.13,3.35,.11,3.99,2.93,3.92,6.11-.09,4.26-.02,8.52-.02,12.78h-.02Z"/>
  <path class="cls-1" d="M25.55,23.78c-1.64,1.14-3.36,3.26-4.91,3.13-1.42-.12-3.5-2.5-3.79-4.19-.44-2.57,1.47-4.86,3.98-4.39,1.73,.32,3.21,2.3,4.8,3.53-.02,.64-.04,1.28-.07,1.93Z"/>
  <path class="cls-1" d="M58.93,23.43c-1.57,1.26-3.14,3.5-4.71,3.5-1.39,0-3.56-2.25-4-3.93-.68-2.65,1.21-4.9,3.67-4.65,1.73,.18,3.32,2.06,4.98,3.18,.02,.63,.04,1.26,.06,1.89Z"/>
  <path class="cls-1" d="M42.17,23.72c-1.6,1.16-3.25,3.29-4.79,3.2-1.37-.08-3.38-2.4-3.76-4.1-.6-2.67,1.29-4.85,3.77-4.48,1.7,.25,3.2,2.16,4.79,3.32,0,.68,0,1.37,0,2.05Z"/>
</svg>