<?xml version="1.0" encoding="UTF-8"?>
<svg id="Layer_1" data-name="Layer 1" xmlns="http://www.w3.org/2000/svg" viewBox="0 0 200 320">
  <defs>
    <style>
      .cls-1 {
        fill: #fbb247;
      }
    </style>
  </defs>
  <path class="cls-1" d="M0,288.76V32.32c.74-2.89,1.03-6.04,2.3-8.64C7.92,12.26,16.6,4.86,28.64,2.11c1.04-.23,1.89-1.39,2.83-2.11H168.53c.78,.69,1.48,1.8,2.36,2.01,17.45,4.06,29.53,16.92,29.1,37.56-.68,32.26-.18,64.54-.18,96.82,0,48.95-.06,97.9,.04,146.86,.03,12.77-4.12,23.11-14.8,29.46-5.17,3.07-10.99,4.91-16.52,7.3H31.47c-16-4.16-27.84-13.06-31.47-31.24H0Zm187.47-16.65V35.63H13.54v236.47H187.47Zm-87.82,39.23c8.68,.19,16.04-6.22,16.11-14.03,.07-7.7-6.77-14.24-15.22-14.53-8.8-.3-15.26,5.64-15.35,14.11s5.69,14.24,14.45,14.43h.01Z"/>
  <path class="cls-1" d="M114.37,111.55c-3.33,3.3-6.13,6.68-9.49,9.23-3.23,2.44-6.49,1.55-9.6-1.35-1.29-1.21-3.91-1.58-5.67-1.14-1.08,.27-2.28,2.74-2.36,4.29-.22,4.64-2.93,6.21-6.54,6.61-2.84,.32-5.74,.22-8.61,.06-4.33-.25-6.78-2.39-6.83-7.41-.02-1.54-1.19-3.87-2.37-4.36-1.49-.61-3.93-.31-5.27,.66-4.76,3.48-8.5,3.45-12.56-.77-1.09-1.13-2.06-2.39-3.2-3.45-3.42-3.14-3.59-6.01-.11-9.44,1.24-1.23,2.27-4.15,1.72-5.56-.56-1.43-3.12-2.52-4.92-2.76-5.04-.67-7.18-2.79-7.25-8.11-.14-10.17,.27-10.55,9.82-11.83,1.28-.17,2.81-1.66,3.4-2.95,.47-1.01,.07-3.01-.64-4.01-3.73-5.34-3.61-7.18,1.34-12.22,5.34-5.45,9.05-5.87,13.62-2.2,1.47,1.17,3.94,1.94,5.62,1.49,1.21-.32,1.81-3.01,2.8-4.57,1.22-1.92,2.35-5.1,3.89-5.37,4.71-.82,9.65-1.02,14.36-.34,1.41,.2,2.98,3.98,3.37,6.33,.86,5.21,4.04,6.97,8.13,3.93,4.87-3.63,8.28-3.33,12.51,1.05,1.32,1.37,2.69,2.69,4.09,3.97,2.87,2.66,2.87,5.07,.02,7.94-1.45,1.47-3,3.77-3.03,5.71-.06,4.21,3.38,3.34,5.99,3.54,4.3,.32,6.59,2.36,6.6,7.45,.03,10.93-.02,11.13-9.82,12.28-1.28,.15-2.84,1.57-3.46,2.84-.48,.99,.04,2.82,.58,4.03,.83,1.85,2.07,3.49,3.89,6.43l-.02,.02Zm-10.09-39.02c1.09-.89,2.08-1.37,2.57-2.18,1.34-2.2,5.75-3.1,2.8-7.21-3.39-4.73-6.43-5.33-10.62-2.75-1.75,1.08-4.17,1.63-6.19,1.4-6.28-.73-9.13-4.55-7.1-12.51-3.92,0-7.06,.1-10.19-.03-2.63-.11-3.46,1.1-3.63,3.82-.13,2.05-1.06,5.69-1.88,5.76-4.22,.42-8.51,6.08-12.91,.07-.99-1.34-3.92-2.67-4.97-2.06-2.82,1.64-5.11,4.32-8.69,7.57,1.65,1.12,2.71,2.04,3.91,2.6,3.74,1.77,3.69,4.15,1.89,7.7-2.18,4.29-5.06,6.14-9.61,5.46-3.24-.48-4.29,1.66-3.81,4.63,.44,2.73-1.9,7.82,3.16,7.26,5.31-.58,7.41,2.44,9.48,6.29,1.32,2.46,2.23,4.67-1.26,6.56-1.56,.84-3.42,3.73-3.13,5.25,.88,4.55,8.75,7.13,11.9,3.85,4.45-4.63,7.67,.13,11.43,.9,3.46,.7,2.29,3.59,2.76,5.86,.33,1.56,1.36,3.98,2.38,4.16,3.04,.55,6.23,.2,8.37,.2,1.34-3.96,1.59-8.42,3.38-9.28,4.55-2.19,9.93-5.47,14.48,.75,.65,.89,1.9,1.28,2.65,1.75,1.82-1.32,3.43-2.29,4.81-3.55,1.34-1.22,2.45-2.72,4.02-4.49-2.04-1.75-3.86-2.85-5.01-4.47-.76-1.07-1.23-3.35-.66-4.31,2.37-4.03,4.42-8.48,10.51-7.26,4.17,.83,3.58-3.19,3.54-5.97-.04-2.71,.86-6.56-3.48-6.09-4.86,.52-7.57-1.24-8.56-6.33-.21-1.06-1.29-1.92-2.32-3.36h-.02Z"/>
  <path class="cls-1" d="M166.56,120.04c-7.28,1.83-8.11,4.01-3.25,9.46-1.77,3.65-3,7.47-8.47,4.34-1.92-1.1-5.06-.13-5.46,3.83-.13,1.26-1.65,3.09-2.77,3.32-1.74,.34-4.49,.23-5.4-.92-4.35-5.55-4.61-5.77-9.47-1.13-1.22-.64-2.5-1.41-3.86-1.99-2.33-1-3.22-2.46-1.71-4.94,1.77-2.89,.49-5.73-2.05-5.5-6.06,.54-5.69-3.14-5.53-7.21,7.61-3.21,7.98-4.23,3.26-9.56,1.67-3.53,2.61-7.82,8.19-4.64,1.31,.75,3.66-.59,5.54-.96-.33-.38-.66-.78-.99-1.16,.98-1.62,1.69-4.29,2.98-4.65,2.31-.65,5.57-2.61,7.01,2.07,1.23,4.03,4.36,4.23,6.62,1.53,3.06-3.67,4.75,.49,7.02,.87,.35,.05-.05,3.22,.44,4.75,.6,1.86,1.96,5.1,2.68,5,6.61-.85,5,3.86,5.22,7.51h0Zm-24.17,7.05c3.71,.09,8.57-3.94,8.8-7.26,.23-3.33-4.31-7.64-8.23-7.79-4.29-.16-8.9,3.68-8.93,7.45-.02,3.53,4.35,7.51,8.35,7.61h0Z"/>
  <path class="cls-1" d="M100.48,170.71H41.64c-1.52,0-3.25,.41-4.51-.22-1.43-.71-3.56-2.59-3.39-3.58,.28-1.62,2-3.19,3.45-4.27,.81-.6,2.3-.2,3.48-.2,39.56,0,79.13-.03,118.69,.05,3.22,0,8.21-1.46,7.99,4.39-.2,5.38-4.99,3.73-8.03,3.75-19.61,.14-39.23,.07-58.84,.07h0Z"/>
  <path class="cls-1" d="M89.37,186.26c16.04,0,32.09-.01,48.13,.02,1.68,0,3.57-.22,4.97,.5,1.22,.63,2.45,2.39,2.6,3.78,.11,1.02-1.31,2.85-2.41,3.29-1.83,.73-3.95,.85-5.95,.85-31.92,.04-63.84,.03-95.75,.03-1.01,0-2.33,.39-2.98-.13-1.66-1.32-3.02-3.06-4.49-4.64,1.57-1.23,3.1-3.46,4.72-3.52,8.09-.36,16.21-.17,24.31-.17h26.85Z"/>
  <path class="cls-1" d="M64.07,209.94h24.8c2.65,0,5.33,.21,5.58,3.87,.28,4.16-2.77,4.53-5.49,4.54-16.7,.11-33.41,.07-50.11,.05-2.71,0-5.34-.65-5.32-4.25,.02-3.95,2.83-4.26,5.73-4.25,8.27,.03,16.53,.01,24.8,.01h.01Z"/>
  <path class="cls-1" d="M53.81,233.71c5.4,0,10.83-.33,16.18,.19,1.7,.17,3.19,2.61,4.78,4.02-1.48,1.42-2.92,4.01-4.43,4.05-10.79,.35-21.6,.38-32.38,0-1.54-.05-2.99-2.9-4.49-4.46,1.55-1.27,3.02-3.48,4.66-3.63,5.19-.47,10.45-.17,15.68-.18h0Z"/>
  <path class="cls-1" d="M111.96,234.51c2.81,2.43,5.62,4.65,8.16,7.18,1.02,1.01,1.45,2.71,2.15,4.09-1.75,.68-4.15,2.49-5.14,1.85-4.96-3.22-9.68-6.92-14.12-10.91-.71-.64-.18-4.38,.87-5.38,3.62-3.39,7.56-6.52,11.75-9.05,1.54-.93,4.13,.12,6.24,.27-.75,1.77-1.12,3.93-2.32,5.24-2.18,2.41-4.84,4.33-7.59,6.71h0Z"/>
  <path class="cls-1" d="M155.19,234.6c-3.14-2.57-6.01-4.44-8.22-6.95-1.04-1.18-.79-3.63-1.13-5.5,1.85-.16,4.26-1.18,5.47-.33,4.57,3.25,8.83,7.03,13.01,10.86,.61,.55,.65,3.09,.07,3.63-4.17,3.82-8.41,7.63-13.01,10.81-1.28,.89-3.85-.34-5.83-.6,.53-1.88,.55-4.26,1.69-5.5,2.15-2.36,4.93-4.05,7.95-6.41h0Z"/>
  <path class="cls-1" d="M124.75,248.62c1.51-4.1,2.98-7.25,3.84-10.59,1.38-5.32,2.4-10.76,3.5-16.16,.64-3.14,2.07-5.63,5.38-4.91,3.39,.75,3.05,3.79,2.35,6.51-2.2,8.51-4.32,17.07-6.87,25.46-.43,1.41-2.82,2.79-4.39,2.92-1.12,.1-2.39-1.95-3.8-3.23h-.01Z"/>
  <path class="cls-1" d="M76.95,69.4c11.06-.14,19.49,7.52,19.55,17.75,.06,10.18-8.43,18.1-19.33,18.06-10.62-.04-19.16-7.81-19.32-17.56-.16-10.17,8.15-18.11,19.1-18.24h0Zm.26,3.89c-8.68-.03-14.71,5.8-14.61,14.14,.09,8.07,6.04,13.75,14.45,13.8,8.3,.05,15.67-6.46,15.72-13.89,.05-7.47-7.21-14.04-15.55-14.06h0Z"/>
</svg>