<?xml version="1.0" encoding="UTF-8"?>
<svg id="Layer_1" data-name="Layer 1" xmlns="http://www.w3.org/2000/svg" viewBox="0 0 200 200">
  <defs>
    <style>
      .cls-1 {
        fill: #fbb247;
      }
    </style>
  </defs>
  <path class="cls-1" d="M49.63,67.21c-1.21-4.72-2.48-9.32-3.56-13.99-1.86-8.07-3.2-16.23-3.57-24.6-.24-5.49,0-10.89,1.38-16.16,1.24-4.75,3.44-8.78,7.67-10.9,3.47-1.74,7.03-1.34,10.55-.29,4.59,1.36,8.72,3.89,12.81,6.9-4.09,2.92-6.87,6.92-8.08,12.17-5.94-.4-10.27,2.65-12.07,11.08-1.17,5.51-1.12,11.12-.33,16.66,.77,5.4,1.84,10.75,2.76,16.13,.18,1.07,.48,1.46,1.65,1.27,4.98-.81,9.98-1.44,14.98-2.08,2.13-.27,4.29-.33,6.41-.64,.55-.08,1.17-.6,1.52-1.12,5.67-8.53,10.93-17.45,17.04-25.56,8.19-10.87,17.1-21.03,27.92-28.74,4.17-2.97,8.53-5.48,13.42-6.56,4.86-1.07,9.32-.31,12.91,3.89,2.36,2.76,3.54,6.24,4.27,9.92,1.21,6.11,1.14,12.27,.6,18.46-.99,11.44-3.64,22.44-6.73,33.35-3.21,11.31-7.53,22.09-11.98,32.82-.33,.78-.35,1.39-.03,2.21,2.91,7.43,5.78,14.89,8.66,22.34,.15,.38,.29,.75,.51,1.33,3.03-1.05,6.03-2.01,8.98-3.13,4.78-1.8,9.4-4.04,13.65-7.11,3.25-2.35,6.26-5.02,8.12-9,1.98-4.24,1.65-8.3-.66-12.24-.11-.19-.22-.39-.38-.69,3.34-3.74,5.15-8.31,5.47-13.99,2.33,1.59,4.63,2.88,6.63,4.61,2.31,1.99,4.62,4.13,6.49,6.63,5.17,6.93,4.89,14.38-.48,21.16-3.24,4.09-7.21,7.1-11.47,9.62-9.45,5.58-19.58,8.97-29.94,11.58-1.2,.3-2.41,.6-3.75,.93,.75,2.8,1.51,5.52,2.22,8.26,2.18,8.4,3.88,16.9,4.68,25.62,.57,6.29,.67,12.55-.58,18.74-.98,4.87-2.69,9.3-6.65,12.12-2.7,1.92-5.67,2.45-8.79,2-7.65-1.1-13.9-5.59-19.93-10.56-7.85-6.47-14.63-14.25-21.08-22.41-.16-.2-.24-.48-.33-.69-3.57,4.18-6.85,8.25-10.35,12.07-6.4,6.98-13.23,13.39-21.24,17.95-3.67,2.09-7.5,3.68-11.67,3.75-5.86,.11-10.2-3.2-12.44-9.3-2.27-6.18-2.43-12.66-2.23-19.41,4.33,2.46,8.73,3.11,13.27,1.42,1.46,3.57,3.62,6.02,6.95,7,2.4,.71,4.76,.38,7.08-.35,6.14-1.93,11.26-5.92,16.07-10.43,2.95-2.77,5.69-5.83,8.52-8.76,.24-.25,.44-.54,.57-.71-3.8-5.85-7.55-11.63-11.29-17.42-.73-1.13-1.33-2.38-2.11-3.45-.37-.5-1.02-.95-1.57-1.01-5.33-.64-10.69-1.06-16.01-1.8-6.25-.87-12.47-1.97-18.61-3.66-8.45-2.33-16.82-4.91-24.78-8.92-5.15-2.59-10.06-5.63-14.23-10-2.86-3-5.16-6.39-5.89-10.88-.72-4.46,.57-8.28,2.88-11.74,2.7-4.05,6.24-7.02,10.08-9.56,8.51-5.62,17.76-9.05,27.26-11.77,2.91-.83,5.84-1.56,8.84-2.36Zm50.47,64.05c4.9-.2,9.93-.4,14.96-.65,.37-.02,.84-.36,1.05-.72,5-8.49,9.47-17.32,13.67-26.35,.93-2.01,1.67-3.91,.11-5.94-.18-.23-.2-.6-.34-.89-4.08-8.88-8.51-17.54-13.43-25.86-.23-.38-.74-.74-1.14-.77-3.42-.22-6.85-.52-10.27-.5-6.36,.05-12.72,.29-19.07,.5-.36,.01-.85,.36-1.05,.71-5.36,9.17-10.22,18.67-14.59,28.49-.36,.8-.32,1.41,.03,2.2,4.35,9.78,9.17,19.25,14.54,28.36,.23,.38,.75,.75,1.14,.77,4.75,.25,9.49,.44,14.38,.65Zm-47.9-6c.3-.61,.46-.88,.57-1.17,2.9-7.48,5.77-14.98,8.7-22.45,.36-.93,.37-1.68,0-2.6-2.31-5.7-4.58-11.42-6.82-17.15-.79-2.02-1.49-4.1-2.24-6.2-6.81,2.01-13.37,4.39-19.5,8.09-3.48,2.1-6.77,4.49-9.38,7.9-3.03,3.95-4.25,8.36-2.3,13.4,1.17,3.02,3.2,5.3,5.44,7.32,3.5,3.17,7.43,5.55,11.61,7.34,4.61,1.97,9.29,3.7,13.94,5.53ZM105.61,40.71c4.61,7.27,9.07,14.32,13.57,21.34,.23,.36,.71,.65,1.1,.71,1.31,.19,2.64,.21,3.95,.37,4.35,.51,8.7,1.03,13.04,1.59,1.95,.25,3.9,.61,5.81,.91,.09-.18,.14-.25,.16-.34,1.66-6.92,3.03-13.91,3.43-21.09,.29-5.18,.19-10.35-1.41-15.32-2.02-6.26-5.96-8.85-10.74-8.61-3.3,.17-6.35,1.46-9.27,3.15-4.21,2.44-8.04,5.52-11.62,8.98-2.81,2.73-5.48,5.65-8.03,8.29Zm37.54,94.4c-.23-.02-.35-.05-.47-.04-7.42,.94-14.83,1.88-22.25,2.87-.49,.07-1.07,.46-1.36,.9-3.84,5.89-7.63,11.82-11.44,17.73-.68,1.06-1.41,2.08-2.2,3.23,2.77,2.87,5.35,5.7,8.08,8.33,2.13,2.05,4.37,4,6.7,5.75,3.75,2.82,7.68,5.23,12.19,6.22,5.6,1.23,9.96-1.2,12.37-7.01,1.39-3.35,1.85-6.93,1.97-10.57,.29-9.36-1.4-18.39-3.58-27.43Zm-77.36-43.52c3.59-7.05,7-13.76,10.57-20.77-5.65,.97-11.04,1.9-16.72,2.87,2.09,6.07,4.07,11.84,6.15,17.9Zm69.13-.02c2.07-6.03,4.06-11.81,6.15-17.88-5.69-.97-11.09-1.9-16.73-2.86,3.57,7,6.99,13.71,10.58,20.74ZM59.65,127c5.73,.98,11.1,1.9,16.71,2.86-3.56-7-6.98-13.73-10.56-20.75-2.07,6.02-4.06,11.8-6.15,17.88Zm75.27-17.86c-3.57,7-7,13.72-10.57,20.72,5.63-.96,11.02-1.88,16.72-2.86-2.09-6.06-4.08-11.85-6.15-17.86Zm-23.96-47.04c-3.63-5.12-7.05-9.96-10.61-15-3.58,5.08-6.99,9.93-10.56,15h21.18Zm0,76.49h-21.21c3.62,5.13,7.04,9.97,10.6,15.01,3.58-5.06,6.98-9.88,10.61-15.01Z"/>
  <path class="cls-1" d="M95.04,25.38c.12,6.65-4.95,12.95-11.7,12.76-6.11-.17-11.04-5.95-10.99-13.16,.06-6.99,5.14-12.63,11.33-12.59,6.45,.04,11.38,5.69,11.35,12.99Z"/>
  <path class="cls-1" d="M50.73,167c-6.25,0-11.33-5.7-11.35-12.76-.02-7.04,5.1-12.95,11.21-12.95,6.45,0,11.57,5.65,11.57,12.79,0,7.52-5.39,13.1-11.44,12.92Z"/>
  <path class="cls-1" d="M165.83,91.41c-6.32-.01-11.71-6.14-11.12-14.07,.5-6.66,5.49-12.17,12.13-11.65,6.08,.48,10.69,6.05,10.58,13.21-.11,7.06-5.56,12.82-11.6,12.51Z"/>
  <path class="cls-1" d="M120.07,100.44c-.03,12.25-8.98,22.37-19.81,22.24-10.97-.13-19.65-10.01-19.58-22.47,.07-12.33,8.79-22.29,19.85-22.17,10.95,.11,19.43,10,19.55,22.4Z"/>
</svg>