<?xml version="1.0" encoding="UTF-8"?>
<svg id="Layer_1" data-name="Layer 1" xmlns="http://www.w3.org/2000/svg" viewBox="0 0 200 200">
  <defs>
    <style>
      .cls-1 {
        fill: #fbb247;
      }
    </style>
  </defs>
  <path class="cls-1" d="M96.56,186.2c0-3.66-.09-7.1,.04-10.52,.07-1.99,1.37-3.08,3.36-3.25,.64-.05,1.29-.02,1.94-.02,15.16,0,30.31,0,45.47,0,18.43-.02,31.92-13.54,31.93-32,0-3.01,0-6.03,0-9.21h-6.9c0,3.38,.04,6.8,0,10.22-.16,11.43-7.73,21.18-18.85,23.39-4.99,.99-10.24,.69-15.52,.99-.44-8.86,.67-17.05,3.53-24.96,5.95-16.43,16.83-28.49,32.48-36.27,1.44-.72,2.6-.71,4.02,.03,8.92,4.66,14.28,11.98,14.84,21.96,.51,9.01,.49,18.14-.34,27.11-1.48,16.06-15.73,30.08-31.71,32.11-1.92,.24-3.86,.42-5.79,.43-18.89,.03-37.78,.02-56.67,.02-.5,0-1,0-1.82,0Z"/>
  <path class="cls-1" d="M58.87,52.37c-3.35-3.02-6.72-6.05-10.23-9.22,2.42-3.2,3.8-7.2,2.7-11.81-.79-3.28-2.51-5.92-5.19-7.94-5.3-4-12.7-3.58-17.61,.97-5.38,4.99-5.79,11.93-1.02,19.25-9.85,5.38-14.35,13.78-13.71,24.93-4.09,.1-7.83-3.14-8.5-7.63C3.48,48.71,1.69,36.49,.08,24.25c-.75-5.71,3.61-10.48,9.4-10.48,32.76-.03,65.51-.03,98.27,.02,1.43,0,2.87,.54,4.05,.78-.53,3.28-1.22,6.15-1.39,9.05-.25,4.25,1.73,7.49,5.47,9.5,1.06,.57,1.52,1.15,1.37,2.3-.06,.42-.05,.87,0,1.29,.71,6.72-.3,12.9-5.04,18.19-1.76,1.97-2.32,4.73-1.71,7.33,.47,2-.24,3.28-1.63,4.24-1.54,1.06-3.3,1.81-5.42,2.94,.18-5.81-.38-10.81-2.94-15.41-2.53-4.53-6.14-7.9-10.87-10.34,2.8-3.7,4.18-7.71,3.08-12.31-.79-3.28-2.51-5.92-5.18-7.95-5.3-4-12.7-3.59-17.61,.97-5.39,4.99-5.8,11.95-1.1,19.13-1.88,1.37-3.89,2.6-5.62,4.15-1.68,1.51-3.08,3.34-4.32,4.73Z"/>
  <path class="cls-1" d="M59.4,158.54h-8.46c-.56-1.94-1-3.97-1.74-5.87-.33-.84-1.18-1.61-1.98-2.1-.96-.59-2.24-.68-3.16-1.3-2.47-1.67-4.7-1.49-6.98,.34-.75,.61-1.71,.97-2.79,1.57-1.7-6.1-3.33-11.95-4.96-17.79-.69-2.49-1.51-4.95-2.04-7.47-.33-1.56-1.06-1.96-2.51-1.83-1.27,.12-2.56,.02-3.96,.02v-4.14c.07-.05,.12-.1,.18-.12,2.39-.74,5.31-.88,7.02-2.39,1.64-1.45,2.11-4.29,2.9-6.58,.28-.81-.01-1.81-.07-2.73,0-.13-.15-.24-.21-.37-.88-1.7-2.86-3.89-2.38-5.01,.92-2.15,3.21-3.75,5.03-5.47,.29-.27,1.3-.2,1.66,.1,3.59,2.99,7.16,3.09,11.27,.8,1.83-1.02,3.15-1.81,3.46-3.99,.22-1.53,.83-3.01,1.27-4.54h8.47c.49,1.76,1.06,3.52,1.44,5.32,.33,1.55,.97,2.58,2.68,2.86,.9,.14,1.88,.44,2.6,.98,2.69,2.02,4.95,1.19,7.54-.42,3.4-2.11,2.2-2.22,5.23,.61,1.25,1.17,2.61,2.23,3.92,3.34-.15,.15-.3,.29-.44,.44-.01,.07,0,.15-.04,.21-1.16,2.21-3.14,4.38-3.27,6.65-.13,2.18,1.58,4.51,2.64,6.7,.34,.71,1.1,1.44,1.83,1.71,1.94,.71,3.98,1.18,6.12,1.78v8.31c-.25,.15-.36,.25-.49,.3-2.37,.76-5.27,.93-6.95,2.45-1.63,1.47-2.07,4.31-2.88,6.6-.24,.69,0,1.56,.05,2.35,.01,.19,.21,.37,.31,.56,.88,1.7,2.88,3.88,2.4,5.01-.92,2.15-3.19,3.76-5.03,5.46-.31,.29-1.41,.16-1.84-.17-3.4-2.69-6.66-3.11-10.69-.87-2.11,1.18-3.66,2.05-3.99,4.54-.19,1.4-.75,2.74-1.15,4.14Zm-4.29-17.19c9.52,.02,17.29-7.72,17.29-17.24,0-9.44-7.66-17.17-17.07-17.24-9.54-.07-17.35,7.62-17.4,17.13-.05,9.53,7.67,17.33,17.18,17.35Z"/>
  <path class="cls-1" d="M124.13,34.55h27.17c-1.63,2.88-3.66,5.62-4.83,8.69-3.3,8.7-1.69,16.73,4.05,24.03,.64,.82,1.13,2.01,1.13,3.03,.02,4.08-.17,8.16-.3,12.25-.01,.42-.16,.84-.25,1.26-.62,2.82-1.87,4.68-5.26,4.7-3.06,.02-6.1,.89-9.17,1.02-1.17,.05-2.46-.77-3.54-1.45-1.56-.99-2.83-2.63-4.5-3.24-3.62-1.31-4.19-4.2-4.46-7.32-.18-2-.05-4.02-.04-6.03,.02-3.01-1.28-5.2-3.93-6.66-3.33-1.84-3.83-3.87-1.76-7.01,6.54-9.92,5.61-7.16,5.68-19.14,0-1.4,0-2.79,0-4.13Z"/>
  <path class="cls-1" d="M130.62,103.32c8.45,.69,15.73-1.47,21.57-7.7,5.79-6.18,6.95-13.76,6.34-21.94,2.44,.72,4.6,1.36,6.77,2.01,2.24,15.83-9.71,32.23-25.66,34.04-8.94,1.01-18.07,.68-27.1,.44-5.38-.14-9.33-5.29-9.09-10.7,.23-5.34,4.66-9.67,10.12-9.82,2.23-.06,4.45-.03,6.68-.01,7.2,.06,11.85,5.78,10.44,12.82-.04,.21-.04,.43-.07,.87Z"/>
  <path class="cls-1" d="M158.56,7.04V27.54h-2.1c-11.49,0-22.98,0-34.48,0-3.71,0-5-1.37-4.7-4.95,.72-8.43,7.76-15.43,16.18-15.66,8.11-.22,16.23-.06,24.35-.06,.2,0,.4,.09,.75,.18Z"/>
  <path class="cls-1" d="M96.53,68.93c-3.46,0-6.62-.07-9.77,.04-1,.04-2.13,.36-2.96,.91-6.01,3.92-11.95,7.96-17.96,11.88-.74,.48-2.02,.88-2.66,.55-.63-.33-1.06-1.61-1.08-2.48-.1-4.81-.1-9.63-.03-14.44,.13-9.54,7.75-17.12,17.17-17.15,9.44-.03,17.09,7.51,17.29,17.03,.02,1.14,0,2.27,0,3.66Z"/>
  <path class="cls-1" d="M186.19,51.86c-.07,9.48-7.94,17.17-17.46,17.07-9.47-.1-17.12-7.98-17.01-17.52,.11-9.38,7.92-17.01,17.35-16.96,9.49,.05,17.19,7.88,17.12,17.41Zm-13.54-.33h6.57c-.23-5.91-4.79-10.28-10.48-10.18-5.62,.1-10.18,4.8-10.13,10.45,.05,5.58,4.56,10.1,10.23,10.13v-6.65c-1.95-.54-3.44-1.57-3.29-3.85,.11-1.69,1.17-2.75,2.81-3.11,1.79-.39,3.11,.65,4.28,3.22Z"/>
  <path class="cls-1" d="M179.3,83.64c0-3.16-.08-6.22,.07-9.28,.03-.6,.89-1.31,1.54-1.71,7.96-4.93,12.27-12.03,12.12-21.42-.15-9.03-4.46-15.87-12.2-20.47-1.13-.67-1.59-1.32-1.57-2.65,.08-5.09,.03-10.19,.03-15.31,9.72,2.91,20.01,19.58,20.65,33.16,.89,18.67-10.46,32.73-20.65,37.68Z"/>
  <path class="cls-1" d="M55.09,68.85H20.81c-.7-6.92,1.07-12.85,6.79-17.09,5.77-4.27,12.09-4.83,18.42-1.42,7.22,3.89,9.68,10.37,9.07,18.5Z"/>
  <path class="cls-1" d="M26.76,186.12c-2.09-7.85-4.17-15.67-6.26-23.49-2.07-7.76-4.17-15.51-6.22-23.28-1.46-5.51,1.44-8.81,7.28-8.17,5.06,18.23,10.14,36.51,15.25,54.94h-10.05Z"/>
  <path class="cls-1" d="M27.73,193.2h61.8v6.64c-.51,.05-1.06,.15-1.6,.15-17.65,0-35.3,.02-52.95,0-4.36,0-7.22-2.7-7.25-6.79Z"/>
  <path class="cls-1" d="M165.63,0h6.59V27.63h-6.59V0Z"/>
  <path class="cls-1" d="M37.91,41.33c-3.74,0-6.86-3.1-6.88-6.85-.02-3.86,3.14-6.99,7-6.94,3.74,.06,6.81,3.2,6.78,6.95-.03,3.75-3.15,6.84-6.89,6.83Z"/>
  <path class="cls-1" d="M86.19,34.53c-.05,3.74-3.18,6.82-6.92,6.8-3.82-.02-6.96-3.26-6.85-7.09,.1-3.76,3.26-6.76,7.03-6.69,3.74,.07,6.8,3.23,6.75,6.98Z"/>
  <path class="cls-1" d="M89.52,186.1h-16.14c1.38-5.45,7.03-7.75,16.14-6.61v6.61Z"/>
  <path class="cls-1" d="M165.8,101.2c3.25-5.38,5.49-11.05,6.59-17.24,0,4.33,.03,8.66-.04,12.99,0,.43-.48,1.01-.89,1.24-1.86,1.06-3.77,2.01-5.66,3Z"/>
</svg>