<?xml version="1.0" encoding="UTF-8"?>
<svg id="Layer_1" data-name="Layer 1" xmlns="http://www.w3.org/2000/svg" viewBox="0 0 200 200">
  <defs>
    <style>
      .cls-1 {
        fill: #fff;
      }

      .cls-2 {
        fill: #fbb247;
      }
    </style>
  </defs>
  <circle id="path849" class="cls-2" cx="100.21" cy="99.74" r="100"/>
  <path id="path2" class="cls-1" d="M180.28,99.74c0-10.6-13.28-20.65-33.64-26.89,4.7-20.75,2.61-37.26-6.59-42.55-2.12-1.24-4.6-1.83-7.31-1.83v7.28c1.5,0,2.71,.29,3.72,.85,4.44,2.55,6.36,12.24,4.86,24.7-.36,3.07-.95,6.3-1.66,9.59-6.4-1.57-13.38-2.77-20.72-3.56-4.41-6.04-8.97-11.52-13.57-16.31,10.64-9.89,20.62-15.3,27.41-15.3v-7.28h0c-8.97,0-20.72,6.4-32.6,17.49-11.88-11.03-23.62-17.36-32.6-17.36v7.28c6.75,0,16.77,5.38,27.41,15.21-4.57,4.8-9.14,10.25-13.48,16.28-7.37,.78-14.36,1.99-20.75,3.59-.75-3.26-1.31-6.43-1.7-9.46-1.53-12.46,.36-22.16,4.76-24.73,.98-.59,2.25-.85,3.75-.85v-7.28h0c-2.74,0-5.22,.59-7.37,1.83-9.17,5.29-11.22,21.76-6.49,42.45-20.3,6.26-33.51,16.28-33.51,26.85s13.28,20.65,33.64,26.89c-4.7,20.75-2.61,37.26,6.59,42.55,2.12,1.24,4.6,1.83,7.34,1.83,8.97,0,20.72-6.4,32.6-17.49,11.88,11.03,23.62,17.36,32.6,17.36,2.74,0,5.22-.59,7.37-1.83,9.17-5.29,11.22-21.76,6.49-42.45,20.23-6.23,33.45-16.28,33.45-26.85h0Zm-42.48-21.76c-1.21,4.21-2.71,8.55-4.41,12.89-1.34-2.61-2.74-5.22-4.27-7.83-1.5-2.61-3.1-5.16-4.7-7.64,4.63,.69,9.1,1.53,13.38,2.58h0Zm-14.94,34.75c-2.55,4.41-5.16,8.58-7.86,12.46-4.86,.42-9.79,.65-14.75,.65s-9.85-.23-14.68-.62c-2.71-3.88-5.35-8.03-7.9-12.4-2.48-4.27-4.73-8.61-6.79-12.99,2.02-4.37,4.31-8.74,6.75-13.02,2.55-4.41,5.16-8.58,7.86-12.46,4.86-.42,9.79-.65,14.75-.65s9.85,.23,14.68,.62c2.71,3.88,5.35,8.03,7.9,12.4,2.48,4.27,4.73,8.61,6.79,12.99-2.06,4.37-4.31,8.74-6.75,13.02h0Zm10.54-4.24c1.76,4.37,3.26,8.74,4.5,12.99-4.27,1.04-8.78,1.93-13.44,2.61,1.6-2.51,3.2-5.09,4.7-7.73,1.5-2.61,2.9-5.25,4.24-7.86h0Zm-33.09,34.82c-3.03-3.13-6.07-6.62-9.07-10.44,2.94,.13,5.94,.23,8.97,.23s6.1-.07,9.07-.23c-2.94,3.82-5.97,7.31-8.97,10.44Zm-24.28-19.22c-4.63-.69-9.1-1.53-13.38-2.58,1.21-4.21,2.71-8.55,4.41-12.89,1.34,2.61,2.74,5.22,4.27,7.83s3.1,5.16,4.7,7.64Zm24.11-67.9c3.03,3.13,6.07,6.62,9.07,10.44-2.94-.13-5.94-.23-8.97-.23s-6.1,.07-9.07,.23c2.94-3.82,5.97-7.31,8.97-10.44Zm-24.15,19.22c-1.6,2.51-3.2,5.09-4.7,7.73-1.5,2.61-2.9,5.22-4.24,7.83-1.76-4.37-3.26-8.74-4.5-12.99,4.27-1.01,8.78-1.89,13.44-2.58h0Zm-29.53,40.85c-11.55-4.93-19.02-11.39-19.02-16.51s7.47-11.62,19.02-16.51c2.81-1.21,5.87-2.28,9.04-3.3,1.86,6.4,4.31,13.05,7.34,19.87-3,6.79-5.42,13.41-7.24,19.77-3.23-1.01-6.3-2.12-9.14-3.33h0Zm17.55,46.63c-4.44-2.55-6.36-12.24-4.86-24.7,.36-3.07,.95-6.3,1.66-9.59,6.4,1.57,13.38,2.77,20.72,3.56,4.41,6.04,8.97,11.52,13.57,16.31-10.64,9.89-20.62,15.3-27.41,15.3-1.47-.03-2.71-.33-3.69-.88h0Zm77.4-24.86c1.53,12.46-.36,22.16-4.76,24.73-.98,.59-2.25,.85-3.75,.85-6.75,0-16.77-5.38-27.41-15.21,4.57-4.8,9.14-10.25,13.48-16.28,7.37-.78,14.36-1.99,20.75-3.59,.75,3.3,1.34,6.46,1.7,9.5Zm12.56-21.76c-2.81,1.21-5.87,2.28-9.04,3.3-1.86-6.4-4.31-13.05-7.34-19.87,3-6.79,5.42-13.41,7.24-19.77,3.23,1.01,6.3,2.12,9.17,3.33,11.55,4.93,19.02,11.39,19.02,16.51-.03,5.12-7.5,11.62-19.06,16.51h0Z"/>
</svg>