<?xml version="1.0" encoding="UTF-8"?>
<svg id="Layer_1" data-name="Layer 1" xmlns="http://www.w3.org/2000/svg" viewBox="0 0 281.96 176.82">
  <defs>
    <style>
      .cls-1 {
        fill: #5c2e63;
      }
    </style>
  </defs>
  <path class="cls-1" d="M281.96,173.03c-3.01,1.26-6.02,3.63-9.03,3.63-88,.2-176.01,.16-264.01,.16-3.56,0-7.09,.03-8.5-4.31-1.48-4.56,1.04-8.51,5.81-8.57,8.79-.11,17.59-.03,25.96-.03-.44-3.31-1.22-6.46-1.23-9.61-.09-36.45-.06-72.91-.05-109.36,0-7.54,.8-8.37,8.18-8.38,9.11-.02,18.23,0,28.04,0-.56,2.72-1.03,5.03-1.62,7.88h-25.45v112.66H241.24V44.72h-24.71c-.86-2.83-1.57-5.17-2.47-8.12,10.83,0,21.21-.14,31.58,.18,1.31,.04,2.95,2.33,3.7,3.92,.65,1.38,.3,3.25,.3,4.9,.01,35.96,.04,71.92-.04,107.87,0,3.35-.64,6.69-1.02,10.31,8.1,0,16.71,.14,25.31-.07,3.72-.09,6.4,1.01,8.07,4.34v4.97Zm-141-.04c2.32,0,4.75,.42,6.93-.14,1.54-.4,2.73-2.12,4.07-3.25-1.21-1.28-2.34-3.55-3.65-3.66-4.94-.44-9.95-.39-14.9-.01-1.25,.1-3.47,2.36-3.29,3.2,.32,1.46,1.97,3.32,3.41,3.7,2.32,.61,4.93,.17,7.42,.17Z"/>
  <path class="cls-1" d="M153.42,0c.56,2.84,1.12,5.69,1.82,9.28,9.41,0,19.13,.06,28.86-.1,1.01-.02,2.18-1.2,2.96-2.12,4.75-5.6,11.18-6.41,16.04-1.91,4.47,4.13,4.44,11.35-.05,15.46-4.72,4.31-11.67,3.27-16.07-2.16-.96-1.18-2.76-2.18-4.26-2.31-3.71-.33-7.47-.11-12.4-.11,1.66,1.36,2.32,1.98,3.06,2.5,13.07,9.14,21.25,21.51,25,36.96,.33,1.35,2.23,3.1,3.58,3.26,3.42,.41,4.57,1.96,4.42,5.21-.17,3.47-.19,6.96,0,10.43,.22,3.95-1.6,5.26-5.36,5.18-17.49-.38-14.57,2.55-15.08-14.41-.14-4.67,1.61-6.73,6.11-6.57-3.21-22.3-23.62-39.59-37.18-40.97q-.78,7.51-8.87,7.51c-2.66,0-5.31,0-7.97,0q-7.76,0-8.68-7.35c-16.1,1.84-34.56,22.11-36.75,40.7,5.69-.05,6.2,3.51,6.1,8.2-.31,14.5,1.52,12.8-13.22,12.86-7.22,.03-7.47-.25-7.48-7.6,0-1.99,0-3.98,0-5.96,.03-6.7,.06-6.73,7.5-7.31,3.57-17.54,12.78-31.72,29.22-42.62-6.49,0-11.53-.15-16.56,.11-1.15,.06-2.46,1.31-3.32,2.33-4.56,5.41-11.34,6.2-16.09,1.73-4.47-4.2-4.33-11.22,.31-15.41,4.9-4.42,11.42-3.45,15.96,2.25,.73,.92,1.92,2.1,2.91,2.12,10.41,.15,20.83,.1,30.83,.1,1.02-3.48,1.87-6.38,2.72-9.28,7.31,0,14.62,0,21.92,0Z"/>
  <path class="cls-1" d="M137.45,40.8c1.94-.29,3.22,.85,3.17,4.23-.18,12.92-.04,25.85-.2,38.77-.02,1.57-1.52,3.09-1.7,4.7-.25,2.2-.74,5.33,.43,6.45,1.14,1.1,4.73,.97,6.34-.05,2.29-1.44,2.24-4.16,.23-6.48-.9-1.04-2.15-2.33-2.16-3.52-.15-14.22-.1-28.45-.1-42.62,3.69-1.28,5.53-.82,7.05,2.94,6.03,14.99,12.62,29.75,18.78,44.69,.82,1.99,1.1,4.73,.43,6.73-2.13,6.42-4.95,12.61-7.23,18.99-1,2.79-2.48,3.7-5.42,3.59-10.12-.37-20.26-.33-30.37-.82-1.58-.08-3.78-1.77-4.48-3.27-2.86-6.14-5.45-12.42-7.69-18.8-.65-1.86-.39-4.51,.44-6.36,7.21-16.11,14.65-32.12,22.48-49.15Z"/>
  <path class="cls-1" d="M123.81,129.94v-6.39h36.06v6.39h-36.06Z"/>
</svg>