<?xml version="1.0" encoding="UTF-8"?>
<svg id="Layer_1" data-name="Layer 1" xmlns="http://www.w3.org/2000/svg" viewBox="0 0 427.44 511.03">
  <defs>
    <style>
      .cls-1 {
        fill: #5c2e63;
      }
    </style>
  </defs>
  <path class="cls-1" d="M45.13,511.03c-2.18-.66-4.36-1.36-6.56-1.97C16.65,503.07,.91,483.23,.07,460.5c-.06-1.66-.07-3.33-.07-4.99C0,322.11,0,188.71,0,55.3,.01,29.93,13.78,9.86,36.47,2.76,41.78,1.1,47.54,.16,53.09,.14,116.78-.04,180.46-.02,244.14,.05c29.89,.04,53.14,23.25,53.35,53.09,.09,12.97-.09,25.95,.1,38.92,.05,3.2-.86,5.22-3.57,6.92-3.73,2.34-7.21,5.1-11.62,8.28v-24.94H15.4V429.09H282.39c0-2.08,0-4.01,0-5.95,0-40.92,.07-81.84-.1-122.76-.02-4.25,1.15-7.2,4.36-9.84,3.52-2.9,6.68-6.23,10.87-10.2v6.55c0,55.89,0,111.78,0,167.67,0,29.69-15.67,49.29-44.56,55.79-.46,.1-.87,.45-1.3,.68H45.13Zm103.49-21.55c12.12,.01,21.88-9.78,21.74-21.82-.13-11.94-9.65-21.5-21.49-21.57-12.2-.07-21.89,9.44-21.96,21.56-.07,12.12,9.57,21.81,21.71,21.82Z"/>
  <path class="cls-1" d="M260.15,252.19c-9.52-18.62-22.69-33.62-38.84-46.71,1.72-1.35,3.06-2.48,4.47-3.5,57.67-41.84,115.35-83.67,173.05-125.47,2.14-1.55,4.33-3.13,6.7-4.28,6.22-3.01,13.25-1.63,17.84,3.25,4.42,4.7,5.48,12.9,2.04,18.55-1.62,2.66-3.69,5.15-5.95,7.3-52.39,49.8-104.83,99.54-157.27,149.29-.47,.44-1.02,.79-2.03,1.57Z"/>
  <path class="cls-1" d="M66.54,372.08c3.18-18.58,7.88-35.39,16.04-51.12,6.46-12.45,15.14-22.98,27.01-30.65,8.27-5.34,17.21-8.49,27.21-8.12,21.01,.77,34.72,16.5,32.59,37.41-2.32,22.75-16.57,36.74-40.76,39.65-9.71,1.17-19.49,1.8-29.24,2.7-11.15,1.03-21.93,3.39-32.85,10.14Z"/>
  <path class="cls-1" d="M212.45,210.88c17.49,12.32,29.58,28.92,39.27,48.17-22.79,12.51-45.41,24.92-68.27,37.46-3.5-10.86-10.56-18.34-19.24-23.91,16.09-20.59,32.02-40.97,48.24-61.72Z"/>
</svg>