<?xml version="1.0" encoding="UTF-8"?>
<svg id="Layer_1" data-name="Layer 1" xmlns="http://www.w3.org/2000/svg" xmlns:xlink="http://www.w3.org/1999/xlink" viewBox="0 0 200 200">
  <defs>
    <style>
      .cls-1 {
        fill: #5c2e63;
        fill-rule: evenodd;
      }

      .cls-2 {
        clip-path: url(#clippath-1);
      }

      .cls-3 {
        clip-path: url(#clippath);
      }

      .cls-4 {
        fill: none;
      }
    </style>
    <clipPath id="clippath">
      <rect class="cls-4" width="200" height="200"/>
    </clipPath>
    <clipPath id="clippath-1">
      <rect class="cls-4" width="200" height="200"/>
    </clipPath>
  </defs>
  <g class="cls-3">
    <g class="cls-2">
      <g>
        <path class="cls-1" d="m129.17,183.33l4.17,16.67h-66.67l4.17-16.67h58.33Zm4.81-150H8.34c-4.61,0-8.34,3.79-8.34,8.33v125c0,2.21.88,4.33,2.44,5.89,1.56,1.56,3.68,2.44,5.89,2.44h183.33c4.6,0,8.33-3.79,8.33-8.33V41.67c0-1.33-.31-2.64-.92-3.82-.61-1.18-1.49-2.2-2.58-2.97l-7.64,6.79h2.81v116.67H8.33V41.67h118.23l7.41-8.33Z"/>
        <path class="cls-1" d="m141.67,195.83c0-2.3-1.9-4.17-4.25-4.17H62.58c-1.11,0-2.18.44-2.98,1.22-.79.78-1.25,1.84-1.27,2.95,0,2.3,1.9,4.17,4.25,4.17h74.83c1.11,0,2.18-.44,2.98-1.21.79-.78,1.25-1.84,1.27-2.95Z"/>
        <path class="cls-1" d="m50.42,130.99c14.79,11.88,37.42,2.28,43.93-4.23,3.13-3.13,4.88-7.36,4.88-11.79s-1.76-8.66-4.88-11.79c-3.13-3.13-7.36-4.88-11.79-4.88s-8.66,1.76-11.79,4.88c-6.51,6.51-7.05,22.73-20.36,27.8Zm54.3-25.69L192.07,27.66c6.93-6.15,7.21-16.36.7-22.87-1.5-1.54-3.3-2.76-5.3-3.57-2-.81-4.14-1.19-6.29-1.13-2.15.07-4.27.58-6.21,1.51-1.94.93-3.67,2.25-5.07,3.88l-77.65,87.34,12.49,12.49Z"/>
      </g>
    </g>
  </g>
</svg>