<?xml version="1.0" encoding="UTF-8"?>
<svg id="Layer_1" data-name="Layer 1" xmlns="http://www.w3.org/2000/svg" viewBox="0 0 200.01 150">
  <defs>
    <style>
      .cls-1 {
        fill: #fbb247;
      }
    </style>
  </defs>
  <path class="cls-1" d="M200.01,97.32c-4.13,3.11-4.96,2.87-7.12-2.45-9.32-22.85-18.6-45.72-27.91-68.58-.64-1.58-1.37-3.11-2.45-5.54-1.76,4.2-3.15,7.41-4.46,10.66-8.39,20.76-16.75,41.53-25.13,62.3-.59,1.46-1.03,3.15-2.02,4.23-.77,.84-2.65,1.59-3.38,1.14-1.03-.64-2.02-2.41-2-3.68,.03-1.67,1-3.35,1.66-4.98,8.54-21.08,17.1-42.15,25.64-63.23,.71-1.76,1.31-3.56,2.09-5.67h-51.76c-.1,1.61-.29,3.14-.29,4.68-.02,32.81,.03,65.63-.07,98.44-.01,3.48,.73,4.8,4.18,6.2,5.59,2.28,10.49,6.47,15.76,9.71,1.87,1.15,3.94,2.6,5.96,2.68,8.17,.31,16.37-.08,24.54,.29,1.75,.08,3.41,2.2,5.12,3.37-1.65,1.04-3.3,2.96-4.96,2.96-35.23,.17-70.47,.14-105.7,.12-2.33,0-5.36,.21-4.83-3.42,.19-1.3,3.02-2.99,4.69-3.05,7.67-.33,15.37,.07,23.03-.29,2.16-.1,4.76-1.31,6.27-2.95,4.33-4.67,9-8.35,15.09-9.99,1.23-.33,2.9-2.43,2.91-3.72,.15-34.42,.1-68.84,.07-103.26,0-.49-.24-.98-.43-1.72H44.68c.79,2.15,1.45,4.11,2.23,6.02,8.46,20.72,16.95,41.44,25.42,62.16,.67,1.64,1.74,3.28,1.77,4.94,.03,1.44-.83,3.39-1.91,4.19-.63,.47-2.7-.53-3.65-1.44-.91-.88-1.23-2.48-1.76-3.79-9.03-22.21-18.05-44.42-27.08-66.63-.72-1.78-1.52-3.52-2.72-6.29-1.05,2.41-1.76,3.92-2.38,5.47-9,22.22-17.99,44.45-26.99,66.68-.59,1.47-.93,3.26-1.94,4.28-1.01,1.01-3.11,2.06-4.01,1.57-1-.54-1.93-3.04-1.59-4.27,.99-3.56,2.63-6.92,4.02-10.34C12.47,63.57,20.84,43.01,29.44,21.89c-1.34-.23-2.6-.07-3.31-.66-1.04-.86-2.39-2.36-2.28-3.43,.11-1.07,1.72-2.26,2.9-2.84,.97-.47,2.3-.13,3.47-.13,10.52,0,21.04,.04,31.56-.02,7.22-.04,14.56,1.14,21.05-4.13,1.94-1.58,5.29-1.05,7.58-2.33,2.37-1.32,4.26-3.65,6.33-5.58C97.76,1.83,98.68,.03,99.69,0s2.79,1.5,2.99,2.6c.72,4.07,3.47,5.03,6.55,6.12,4.38,1.55,8.62,3.57,12.98,5.19,1.66,.62,3.5,.97,5.26,.98,14.53,.08,29.06,.05,43.58,.05,1,0,2.19-.35,2.96,.11,1.3,.76,2.34,2.03,3.48,3.08-1.04,1.13-1.94,2.55-3.18,3.31-.89,.55-2.25,.23-3.79,.31,.37,1.43,.55,2.61,.98,3.68,8.94,22.06,17.9,44.1,26.9,66.14,.38,.92,1.06,1.7,1.6,2.55v3.21h0Z"/>
  <path class="cls-1" d="M162.22,110.04c-1.03-6.47-10.81-8.4-6.16-16.66,1.99-.71,3.79-.52,3.67,3.3-.11,3.5,1.48,5.56,4.89,4.98,3.64-.62,4.01-3.91,3.09-6.59-.99-2.9-3.1-5.36-4.79-7.97-1.98-3.05-4.45-5.83-5.96-9.12-2.25-4.9-.77-9.2,3.11-12.73,1.54-1.4,2.5-3.54,3.73-5.34,1.12,1.67,1.92,4.18,3.43,4.85,5.28,2.36,5.76,6.7,5.5,11.61l-1.35,1.3c-1.03-1.22-2.68-2.3-2.96-3.69-.62-3.08-1.29-6.09-4.85-5.12-3.82,1.04-3.37,4.85-2.19,7.5,1.4,3.14,3.96,5.66,5.84,8.59,1.87,2.9,4.13,5.75,5.11,9,1.37,4.57,.21,8.75-4.19,11.37-1.19,.71-1.93,2.29-2.87,3.47,.3,.42,.6,.84,.91,1.25,7.33,0,14.66,.04,21.99-.02,2.5-.02,5.06,.12,5.17,3.47,.13,3.91-2.94,3.1-5.12,3.11-16.03,.05-32.06,.11-48.09-.09-1.74-.02-4.84-1.52-4.94-2.59-.32-3.55,2.42-3.93,5.16-3.9,6.99,.08,13.99,.02,21.88,.02h0Z"/>
  <path class="cls-1" d="M35.19,108.7c-.96-1.25-2.04-2.42-2.84-3.78-1.52-2.58-3.37-5.11-4.18-7.95-.93-3.29,.89-4.52,4.13-3.38,.1,.62,.07,1.37,.34,1.97,.92,2.05,1.68,4.31,3.07,5.92,.5,.57,3.68-.2,3.87-.89,.63-2.39,1.31-5.42,.43-7.44-1.37-3.11-4.44-5.34-6.02-8.4-2.03-3.9-3.87-8.13-4.64-12.45-.34-1.93,2-4.52,3.38-6.64,1.33-2.05,2.97-3.86,4.48-5.78,1.37,1.82,2.92,3.53,4.08,5.49,1.6,2.7,3.39,5.45,4.22,8.45,.89,3.2-1.04,4.03-3.92,2.87-.15-1.17,.07-2.71-.54-3.53-1.26-1.69-2.97-2.99-4.49-4.46-.95,1.99-3.06,4.38-2.6,5.89,.97,3.23,3.19,6.07,5.04,8.97,1.86,2.93,4.32,5.51,5.72,8.64,2.32,5.2,.81,9.7-3.42,13.1-.92,.74-1.48,2-2.21,3.02,1.2,.58,2.4,1.61,3.62,1.64,6.17,.17,12.36-.19,18.51,.25,1.79,.13,3.45,2.26,5.16,3.47-1.65,.98-3.29,2.79-4.95,2.81-16.35,.21-32.7,.22-49.05,0-1.57-.02-3.12-1.97-4.68-3.03,1.6-1.14,3.16-3.17,4.81-3.26,7.15-.36,14.32-.16,21.48-.16,.41-.45,.82-.89,1.22-1.34l-.02,.02Z"/>
</svg>