<?xml version="1.0" encoding="UTF-8"?>
<svg id="Layer_1" data-name="Layer 1" xmlns="http://www.w3.org/2000/svg" viewBox="0 0 200 200">
  <defs>
    <style>
      .cls-1 {
        fill: #fff;
      }
    </style>
  </defs>
  <path class="cls-1" d="M139.98,36.43c1.27,0,2.19,0,3.11,0,13.83,0,27.66-.01,41.5,0,9.68,.01,15.41,5.23,15.41,14.05,.01,33.01,.01,66.02,0,99.02,0,8.82-5.74,14.05-15.41,14.06-13.83,.02-27.66,0-41.5,0-.92,0-1.84,0-2.99,0-.05,.95-.12,1.71-.12,2.46,0,6.32,.02,12.64-.01,18.95-.05,9.04-6.51,14.98-16.42,14.99-35.71,.03-71.43,.03-107.14,0-9.79,0-16.38-5.96-16.39-14.8C0,128.39,0,71.6,.02,14.81,.02,5.96,6.61,.03,16.41,.02c35.71-.03,71.43-.03,107.14,0,9.91,0,16.37,5.95,16.42,14.99,.03,6.25,0,12.49,0,18.74,0,.77,0,1.54,0,2.67Zm50.06,27.26c-1.18,0-2.09,0-3.01,0-15.08,0-30.16-.04-45.24,.02-6.61,.03-11.38-2.43-14.21-7.94-1.49-2.89-3.22-5.67-4.66-8.58-.69-1.39-1.61-1.75-3.21-1.74-17.97,.05-35.94,.03-53.91,.03-4.54,0-5.77,1.14-5.77,5.35,0,32.79,0,65.58,0,98.37,0,4.19,1.25,5.33,5.8,5.33,39.46,0,78.91,0,118.37,0,4.55,0,5.84-1.17,5.84-5.32,0-27.68,0-55.36,0-83.04v-2.48Zm-60.31-27.26c.14-.41,.26-.6,.27-.79,.01-7.17,.07-14.34-.01-21.51-.04-2.94-2.27-4.87-5.56-4.93-4.92-.08-9.85-.1-14.77,.04-.82,.02-1.94,.78-2.35,1.47-2.52,4.32-4.93,8.69-7.25,13.11-1.25,2.39-3.08,3.49-6.06,3.48-16.02-.06-32.04-.06-48.06,0-2.86,.01-4.69-1.03-5.91-3.34-2.3-4.34-4.79-8.6-7.05-12.96-.75-1.45-1.67-1.91-3.39-1.86-4.14,.12-8.28,.03-12.42,.04-5.34,0-7.18,1.67-7.18,6.51,0,51.53,0,103.07,0,154.6v2.28h119.88v-8.98c-1.08,0-2,0-2.92,0-20.4,0-40.79,0-61.19-.02-1.63,0-3.31-.03-4.88-.37-6.86-1.51-10.91-6.59-10.91-13.6-.01-32.94,.1-65.87-.07-98.81-.04-8.58,6.62-14.56,15.94-14.43,20.39,.28,40.79,.09,61.18,.09,.92,0,1.84,0,2.72,0Zm.26,145.47H10.19c-.9,5.7,.23,9.07,8.33,9.02,34.46-.19,68.92-.08,103.38-.08,.94,0,1.88,.02,2.81-.04,2.92-.19,4.99-1.96,5.24-4.57,.13-1.39,.02-2.8,.02-4.33Zm3.15-136.41c1.22,2.23,2.4,4.13,3.32,6.13,1.02,2.22,2.69,2.97,5.3,2.96,15.31-.08,30.61-.04,45.92-.04,.75,0,1.49-.08,2.37-.12,0-1.32,0-2.45,0-3.57,0-4.17-1.27-5.35-5.8-5.35-16.17,0-32.33,0-48.5,0-.75,0-1.5,0-2.6,0ZM96.78,9.32H43.2c1.53,2.8,2.89,5.41,4.41,7.95,.28,.47,1.17,.91,1.79,.91,13.73,.05,27.46,.05,41.19,0,.61,0,1.51-.43,1.79-.91,1.51-2.54,2.87-5.15,4.41-7.96Z"/>
  <path class="cls-1" d="M119.91,136.31c14.68,0,29.36,0,44.05,0,3.6,0,5.76,1.56,5.97,4.17,.19,2.4-1.33,4.29-3.95,4.79-.83,.16-1.7,.18-2.56,.18-28.97,0-57.95,0-86.92,0-1,0-2.04-.06-3.01-.3-2.12-.53-3.5-2.32-3.49-4.29,.01-1.98,1.41-3.74,3.56-4.25,1.04-.24,2.16-.29,3.24-.29,14.37-.02,28.74-.01,43.11-.01Z"/>
  <path class="cls-1" d="M99.99,118.21c8.19,0,16.38-.03,24.57,.01,3.32,.02,5.53,1.98,5.42,4.65-.11,2.57-2.31,4.36-5.53,4.38-6.63,.03-13.26,0-19.89,0-9.67,0-19.35,.02-29.02-.01-3.67-.01-6.13-2.52-5.45-5.43,.54-2.29,2.48-3.59,5.56-3.6,8.11-.03,16.23,0,24.34,0Z"/>
  <path class="cls-1" d="M138.28,86.3c-2.33-1.97-4.37-3.61-6.29-5.36-2.45-2.23-2.61-4.85-.55-6.78,2.14-2,5.09-1.87,7.64,.4,3.01,2.69,6,5.39,8.95,8.13,2.62,2.43,2.67,4.86,.1,7.27-2.99,2.8-6.04,5.55-9.12,8.28-2.47,2.19-5.37,2.31-7.48,.42-2.11-1.89-2.01-4.59,.37-6.79,1.91-1.77,3.93-3.44,6.38-5.58Z"/>
  <path class="cls-1" d="M81.77,86.37c2.26,1.95,4.26,3.61,6.18,5.36,2.52,2.3,2.69,5.03,.54,6.95-2.15,1.92-5.1,1.72-7.65-.57-2.99-2.69-5.98-5.39-8.92-8.12-2.62-2.43-2.62-4.81,0-7.24,3-2.78,6.03-5.54,9.1-8.26,2.44-2.17,5.37-2.3,7.47-.42,2.11,1.89,2.01,4.59-.38,6.79-1.96,1.8-4.02,3.51-6.34,5.52Z"/>
  <path class="cls-1" d="M119.98,77.65c-.11,.36-.19,1.02-.49,1.57-3.36,6.15-6.71,12.31-10.17,18.41-1.02,1.8-2.88,2.61-5.11,2.28-2.12-.31-3.62-1.51-4-3.41-.21-1.04-.04-2.32,.46-3.27,3.18-5.99,6.48-11.94,9.81-17.86,1.21-2.15,3.61-3.06,5.86-2.45,2.18,.59,3.69,2.43,3.63,4.73Z"/>
  <path class="cls-1" d="M89.99,59.11c0,2.49-2.39,4.61-5.11,4.54-2.65-.07-4.88-2.14-4.88-4.54,0-2.49,2.38-4.61,5.11-4.54,2.66,.07,4.88,2.13,4.88,4.54Z"/>
  <path class="cls-1" d="M109.93,59.09c0,2.56-2.27,4.62-5.03,4.56-2.66-.06-4.87-2.11-4.88-4.53-.01-2.51,2.33-4.61,5.07-4.56,2.7,.06,4.83,2.05,4.84,4.52Z"/>
</svg>