<?xml version="1.0" encoding="UTF-8"?>
<svg id="Layer_1" data-name="Layer 1" xmlns="http://www.w3.org/2000/svg" viewBox="0 0 200 200">
  <defs>
    <style>
      .cls-1 {
        fill: #fff;
      }
    </style>
  </defs>
  <path class="cls-1" d="M115.24,200H11.33c-.23-.11-.45-.25-.7-.31C3.75,197.79,.01,193.01,.01,185.91,0,128.63,0,71.36,.01,14.08,.02,5.66,5.7,.02,14.15,.02c32.8-.02,65.61-.02,98.41,0,8.37,0,13.96,5.56,14.07,13.91,.04,3.06,.05,6.12-.01,9.18-.02,1.05,.26,1.6,1.29,2.04,3.46,1.48,6.84,3.15,10.31,4.62,.71,.3,1.77,.28,2.49-.02,6-2.49,11.98-5.04,17.92-7.67,1.92-.85,3.52-.68,4.98,.79,4.51,4.5,9.01,9,13.51,13.51,1.54,1.54,1.62,3.18,.74,5.16-2.54,5.69-4.92,11.47-7.44,17.17-.6,1.35-.55,2.4,.08,3.79,2.13,4.66,4.07,9.41,5.93,14.18,.51,1.3,1.04,2.16,2.42,2.68,5.88,2.26,11.7,4.7,17.58,6.96,2.12,.81,3.08,2.2,3.14,4.4,.03,1.02,.26,2.03,.41,3.04v12.5c-.13,.82-.4,1.64-.37,2.45,.08,2.71-1.13,4.27-3.71,5.22-5.78,2.15-11.46,4.56-17.21,6.8-1.12,.44-1.71,1.07-2.16,2.22-1.97,5-4.04,9.97-6.2,14.9-.5,1.12-.55,1.98-.06,3.08,2.55,5.83,4.98,11.72,7.58,17.52,.93,2.07,.75,3.73-.83,5.31-4.37,4.36-8.73,8.72-13.07,13.1-1.68,1.69-3.41,1.95-5.64,.94-5.8-2.62-11.67-5.09-17.55-7.51-.81-.33-2.01-.26-2.84,.09-3.35,1.4-6.61,3.02-9.95,4.45-.99,.42-1.38,.91-1.36,2,.07,3.06,.2,6.13-.04,9.17-.17,2.22-.56,4.55-1.44,6.57-1.84,4.26-5.57,6.32-9.91,7.42Zm4.73-99.84c0-28.45,0-56.9,0-85.34,0-5.77-2.39-8.16-8.19-8.16-32.29,0-64.58,0-96.87,0-5.84,0-8.25,2.44-8.25,8.33,0,56.7,0,113.4,0,170.1,0,5.84,2.43,8.25,8.33,8.25,32.22,0,64.45,0,96.67,0,5.95,0,8.31-2.34,8.31-8.24,0-28.32,0-56.63,0-84.95Zm6.68,68.3c3.41-1.7,6.46-3.1,9.38-4.73,1.99-1.11,3.79-1.23,5.89-.29,5.45,2.45,11,4.69,16.44,7.15,1.43,.65,2.34,.47,3.39-.63,2.75-2.86,5.54-5.68,8.4-8.43,1.03-.99,1.02-1.85,.47-3.08-2.45-5.52-4.76-11.11-7.22-16.63-.9-2.02-.82-3.79,.3-5.7,3.12-5.29,5.45-10.93,7.01-16.87,.53-2.01,1.68-3.23,3.61-3.97,5.76-2.22,11.47-4.57,17.22-6.81,1.04-.41,1.54-.91,1.53-2.1-.07-4.22-.07-8.45,0-12.67,.02-1.28-.53-1.8-1.63-2.23-5.75-2.24-11.46-4.58-17.22-6.81-1.86-.72-2.98-1.92-3.49-3.84-1.57-6.01-3.93-11.7-7.08-17.05-1.1-1.86-1.15-3.58-.28-5.53,2.48-5.58,4.82-11.22,7.29-16.81,.51-1.16,.52-1.97-.45-2.91-2.95-2.84-5.84-5.75-8.69-8.69-.91-.94-1.7-1.06-2.9-.52-4.5,2.02-9.06,3.94-13.6,5.87-7.03,2.99-5.21,2.95-11.82-.48-2.04-1.06-4.17-1.94-6.55-3.03,0,3.39,.08,6.31-.03,9.22-.05,1.32,.44,1.94,1.58,2.51,10.2,5.04,18.36,12.39,24.72,21.83,13.86,20.56,13.79,49.3-.17,69.78-6.33,9.29-14.42,16.51-24.44,21.6-.68,.35-1.54,1.18-1.58,1.82-.16,3.11-.07,6.24-.07,10.02Zm.06-18.8c15.75-7.44,32.69-28.73,29.59-56.66-1.86-16.75-18.11-40.61-29.59-42.45v99.11Z"/>
  <path class="cls-1" d="M39.98,26.58h46.71c0-1.95-.01-3.87,0-5.79,.03-4.82,2.66-7.44,7.52-7.47,3.91-.02,7.81-.03,11.72,0,4.7,.03,7.37,2.71,7.37,7.42,0,52.85,0,105.7,0,158.55,0,4.7-2.68,7.39-7.4,7.39-28.38,.01-56.76,.01-85.13,0-4.69,0-7.45-2.73-7.45-7.38-.01-52.85-.01-105.7,0-158.55,0-4.67,2.74-7.4,7.39-7.44,3.97-.03,7.94-.03,11.91,0,4.61,.03,7.26,2.65,7.35,7.25,.04,1.94,0,3.88,0,6.01ZM20.08,179.89H106.53V20.12h-13.18c0,1.9,0,3.66,0,5.41-.02,5.24-2.53,7.77-7.79,7.78-14.77,.01-29.55,.01-44.32,0-5.47,0-7.91-2.5-7.93-8.05,0-1.72,0-3.44,0-5.17h-13.23V179.89Z"/>
  <path class="cls-1" d="M69.94,19.94c-1.17,0-2.35,.08-3.51-.02-1.82-.14-2.8-1.29-3.05-3.02-.22-1.53,.92-3.23,2.6-3.36,2.7-.21,5.45-.21,8.15,.04,1.72,.16,2.65,1.77,2.44,3.44-.21,1.7-1.23,2.72-2.92,2.89-1.22,.12-2.47,.02-3.7,.02,0,0,0,0,0,0Z"/>
  <path class="cls-1" d="M53.26,13.38c1.84-.04,3.38,1.48,3.37,3.31-.01,1.78-1.45,3.25-3.21,3.26-1.87,.02-3.41-1.48-3.39-3.3,.01-1.74,1.49-3.23,3.23-3.27Z"/>
  <path class="cls-1" d="M61.42,99.78c1.75-2.06,3.43-3.88,4.9-5.87,.46-.62,.46-1.69,.42-2.54-.51-10.46,7.26-18.43,17.55-17.95,8.39,.4,15.37,7.52,15.68,16.02,.32,8.61-6.1,16.48-14.69,16.95-3.87,.21-5.28,2.52-7.29,4.91,4,4.4,7.99,8.67,11.84,13.07,6.8,7.76,3.16,19.59-6.77,21.91-4.77,1.11-9.07-.07-12.52-3.63-3.35-3.46-6.55-7.05-10-10.77-1.01,1.17-1.96,2.28-2.92,3.39-2.37,2.76-4.64,5.63-7.14,8.27-3.14,3.32-7.95,4-11.82,1.93-3.97-2.13-6.12-6.58-4.96-11.05,.45-1.75,1.49-3.47,2.65-4.9,3.88-4.8,7.93-9.46,11.99-14.25-.28-.38-.47-.7-.72-.98-2.86-3.29-5.85-6.47-8.57-9.88-2.73-3.42-5.8-6.26-9.95-7.82-1.81-.68-2.48-2.14-2.47-4.02,.03-3.9-.02-7.81,.02-11.71,.03-2.92,1.26-4.17,4.17-4.2,3.97-.04,7.94,0,11.91-.01,1.9,0,3.35,.76,3.87,2.64,1.61,5.85,5.3,10.31,9.43,14.52,1.82,1.85,3.48,3.85,5.39,5.98Zm24.76-19.15c-6.95-2.43-14.05,3.91-12.61,11.13,.5,2.48-.08,4.17-1.64,6-10.13,11.87-20.18,23.81-30.26,35.72-.34,.4-.69,.78-.97,1.22-.97,1.54-.76,3.36,.48,4.43,1.23,1.07,3.12,1.04,4.45-.16,.67-.6,1.24-1.33,1.83-2.02,9.87-11.66,19.77-23.31,29.59-35.02,1.45-1.73,2.95-2.34,5.24-2.09,4.08,.45,7.41-1.2,9.54-4.76,2.03-3.4,1.96-6.88-.24-10.55-1.81,2.42-3.49,4.7-5.22,6.95-1.54,2-3.41,2.39-5.04,1.14-1.61-1.23-1.73-3.17-.26-5.17,1.65-2.25,3.33-4.46,5.1-6.83Zm-21.32,46.09c3.61,3.89,6.97,7.68,10.52,11.29,2.46,2.5,6.47,2.5,9.04,.27,2.53-2.2,3.15-6.16,.95-8.78-3.74-4.46-7.75-8.7-11.74-13.13-2.97,3.51-5.81,6.87-8.76,10.35Zm-12.12-16.69c1.55-1.83,2.93-3.45,4.33-5.1-1.97-2.2-3.84-4.27-5.69-6.37-3.88-4.41-8.47-8.32-10.01-14.37-.09-.36-.7-.83-1.09-.84-2.25-.08-4.5-.04-6.98-.04,0,2.31,.07,4.37-.03,6.43-.05,1.16,.35,1.82,1.41,2.21,3.02,1.12,5.24,3.21,7.27,5.66,3.44,4.14,7.05,8.14,10.78,12.43Z"/>
</svg>