<?xml version="1.0" encoding="UTF-8"?>
<svg id="Layer_1" data-name="Layer 1" xmlns="http://www.w3.org/2000/svg" viewBox="0 0 199.13 200">
  <defs>
    <style>
      .cls-1 {
        fill: #fff;
      }
    </style>
  </defs>
  <path class="cls-1" d="M115.19,0c4.31,.87,8.13,2.58,11,6.1,2.49,3.05,3.81,6.53,3.82,10.41,.05,20.89,.03,41.79,.02,62.68,0,.19-.06,.38-.12,.7h-6.47V30.18H6.84V169.8h6.41c.03-.71,.09-1.4,.09-2.1,0-8.72,0-17.44,0-26.17,0-3.83,1.03-4.85,4.87-4.85,13.48,0,26.95,0,40.43,0,3.74,0,4.7,.97,4.71,4.76,0,8.72,0,17.44,0,26.17,0,.7,0,1.4,0,2.23h6.67c0-.74,0-1.49,0-2.24,0-8.66,0-17.31,0-25.97,0-3.99,.96-4.94,4.96-4.94,12.37,0,24.74,0,37.11,0,3.58,0,4.64,1.06,4.64,4.67,0,9.43,0,18.87,0,28.45h6.6v-33h6.71v2.16c0,14.26-.17,28.51,.06,42.76,.15,9.45-5.86,16.89-14.57,18.09-.12,.02-.23,.12-.34,.18H14.79c-3.87-.85-7.42-2.29-10.19-5.28C1.27,191.13,0,186.82,0,182.03c0-22.92,0-45.83,0-68.75C0,81.58,.01,49.87,0,18.17,0,13.31,1.21,8.93,4.59,5.28,7.36,2.29,10.92,.85,14.79,0H115.19Zm8.2,23.27c0-2.09,.01-3.98,0-5.86-.05-6.55-4.19-10.75-10.76-10.75-31.75-.02-63.51-.01-95.26,0-4.08,0-7.35,1.56-9.37,5.23-1.99,3.63-1.24,7.52-1.23,11.39H123.39Zm-.04,153.48H6.67c0,1.72,0,3.32,0,4.93,0,7.7,3.96,11.66,11.65,11.66,31.17,0,62.34,0,93.5,0,.84,0,1.7,0,2.53-.09,4.96-.59,8.65-4.35,8.96-9.28,.15-2.33,.03-4.68,.03-7.21Zm-103.23-6.91H56.54v-26.37H20.12v26.37Zm56.73-.05h33.12v-26.28h-33.12v26.28Z"/>
  <path class="cls-1" d="M136.68,200c0-20.31,0-40.61,.05-60.92,0-2.96,.35-5.91,.55-9.05h-1.9c-24.48,0-48.95,0-73.43,0-4.33,0-5.28-.95-5.28-5.28,0-11.06,0-22.13,0-33.19,0-3.84,1.03-4.87,4.85-4.87,29.03,0,58.06,0,87.1,0,3.81,0,4.8,1.02,4.8,4.91,0,10.41,.02,20.83-.03,31.24,0,1.17,.33,1.84,1.34,2.49,3.68,2.39,5.34,5.91,5.34,10.25,0,9.89,0,19.79,0,29.68,0,.71,0,1.42,0,2.01,2.39-.15,4.74-.7,6.93-.32,2.21,.39,4.26,1.7,6.73,2.76,5.06-4.05,10.62-4.27,16.29,.33,2.4-1.79,4.9-3.51,8.27-3.21v6.26c-4.08,1.43-4.93,2.64-4.94,6.99-.01,6.64-.03,13.28-.04,19.91h-6.64c0-7.09,.04-14.18,.02-21.26,0-3.05-2.05-5.26-4.78-5.35-2.87-.09-5.08,2.05-5.14,5.18-.08,4.23-.05,8.45-.02,12.68,.02,2.92,.11,5.84,.16,8.76h-7.03c.03-7.41,.14-14.81,.04-22.22-.03-2.57-2.48-4.48-5.05-4.39-2.59,.08-4.75,2.22-4.76,4.96-.04,7.22,0,14.43,0,21.65h-6.64c-.02-.78-.05-1.56-.05-2.34,0-20.36,0-40.72,0-61.09,0-.78,.02-1.57-.11-2.33-.34-1.99-2.08-3.77-3.94-4.13-2.1-.4-4.24,.49-5.22,2.53-.54,1.11-.74,2.48-.75,3.74-.06,21.21-.06,42.41-.08,63.62h-6.64ZM63.44,123.23h83.2v-29.74H63.44v29.74Z"/>
  <path class="cls-1" d="M38.42,36.69c6.84,0,13.67,0,20.51,0,3.34,0,4.41,1.07,4.41,4.46,.01,11.46,.01,22.91,0,34.37,0,3.42-1.13,4.51-4.61,4.51-13.61,0-27.21,0-40.82,0-3.37,0-4.56-1.2-4.57-4.61-.01-11.39-.01-22.78,0-34.17,0-3.45,1.13-4.55,4.57-4.56,6.84,0,13.67,0,20.51,0Zm-18.28,36.54H56.57v-29.78H20.15v29.78Z"/>
  <path class="cls-1" d="M116.67,39.98v6.5h-46.63c0-1.87-.05-3.74,.05-5.59,.02-.32,.58-.74,.97-.87,.47-.15,1.03-.04,1.55-.04,13.86,0,27.71,0,41.57,0,.77,0,1.54,0,2.5,0Z"/>
  <path class="cls-1" d="M116.68,53.51v6.36h-46.51v-6.36h46.51Z"/>
  <path class="cls-1" d="M70.17,73.2v-6.41h46.44v6.41h-46.44Z"/>
  <path class="cls-1" d="M199.13,113.92c-1.78,1.82-3.27,3.34-4.7,4.8-3.38-3.3-6.83-6.55-10.13-9.93-1.31-1.34-1.2-3.07,.09-4.4,3.26-3.34,6.63-6.58,10.01-9.91,1.47,1.53,2.94,3.06,4.68,4.87-2.48,2.29-5.05,4.66-7.79,7.19,2.81,2.64,5.35,5.03,7.84,7.38Z"/>
  <path class="cls-1" d="M167.86,106.55c2.88,2.72,5.41,5.12,7.87,7.44-1.68,1.75-3.16,3.28-4.62,4.79-3.42-3.34-6.86-6.59-10.15-9.97-1.34-1.38-1.23-3.1,.18-4.55,3.21-3.3,6.51-6.51,9.86-9.84,1.47,1.62,2.9,3.19,4.36,4.8-2.26,2.2-4.75,4.63-7.51,7.33Z"/>
  <path class="cls-1" d="M19.91,103.49v6.52c-1.94,0-3.8,.05-5.65-.04-.32-.02-.86-.6-.87-.94-.09-1.79-.04-3.6-.04-5.53h6.56Z"/>
  <path class="cls-1" d="M26.81,110.01v-6.49h6.58c0,1.86,.05,3.72-.04,5.57-.02,.32-.6,.86-.94,.88-1.8,.09-3.6,.04-5.6,.04Z"/>
  <path class="cls-1" d="M40.2,103.45h6.42v6.41h-6.42v-6.41Z"/>
  <path class="cls-1" d="M106.83,103.48h33.15v6.41h-33.15v-6.41Z"/>
  <path class="cls-1" d="M90.22,103.45h9.67v6.47h-9.67v-6.47Z"/>
  <path class="cls-1" d="M76.85,110.02v-6.52h6.55c0,1.86,.06,3.66-.05,5.45-.02,.37-.63,.99-1,1.01-1.79,.11-3.59,.05-5.51,.05Z"/>
</svg>