<?xml version="1.0" encoding="UTF-8"?>
<svg id="Layer_1" data-name="Layer 1" xmlns="http://www.w3.org/2000/svg" viewBox="0 0 200 200">
  <defs>
    <style>
      .cls-1 {
        fill: #fff;
      }
    </style>
  </defs>
  <path class="cls-1" d="M15.65,200c-4.58-.96-8.69-2.62-11.69-6.08-2.14-2.48-3.44-5.24-3.8-8.36-.11-.97-.13-1.95-.13-2.92C.02,127.56,.04,72.5,0,17.43,0,11.74,1.98,6.98,7.01,3.41,10.37,1.02,14.26,.02,18.48,.02c30.56-.01,61.12-.04,91.68,.01,10.72,.02,18.33,6.99,18.37,16.69,.06,12.56,.01,25.13,.01,37.69,0,.7,0,1.41,0,2.11l.57,.3c.51-.55,1.22-1.04,1.5-1.68,.79-1.81,1.31-3.72,2.14-5.51,.24-.53,1.14-1.15,1.75-1.16,5.55-.09,11.1-.02,16.65-.08,1.18-.01,1.75,.4,1.92,1.35,.82,4.7,3.35,7.9,8.93,8.61,.96,.12,1.96,.58,2.73,1.12,2.4,1.67,4.53,1.26,7.04,0,4.54-2.29,4.62-2.15,8.23,1.11,2.95,2.67,5.88,5.37,8.88,8,.88,.77,1.25,1.39,.55,2.49-1.21,1.92-2.99,3.91-3.07,5.93-.08,1.9,1.73,3.86,2.69,5.8,.32,.65,.72,1.32,.82,2.01,.46,3.15,2.61,4.44,5.86,5.2,4.29,1,4.23,1.21,4.23,5.16,0,4.04-.05,8.07,.03,12.11,.02,1.18-.37,1.87-1.66,2.03-5.23,.65-8.56,3.08-9.31,7.99-.03,.18-.15,.37-.28,.52-3.07,3.59-2.5,7.08,.31,10.52,1.15,1.41,.75,2.4-.66,3.59-3.73,3.16-7.31,6.47-10.87,9.79-.86,.8-1.59,1.02-2.58,.35-4.25-2.86-8.55-3.41-13.04-.36-.83,.56-1.97,.89-3.01,1.01-2.86,.34-3.92,1.96-4.68,4.28-1.51,4.64-1.65,4.6-7.03,4.6-4.11,0-8.22-.04-12.32,.03-1.28,.02-1.96-.28-2.31-1.45-.54-1.82-1.21-3.61-1.96-5.37-.26-.61-.91-1.08-1.38-1.61-.22,.09-.44,.18-.66,.26,0,.68,0,1.35,0,2.03,0,12.37-.15,24.74,.05,37.1,.14,8.95-6.27,15.96-15.29,17.2-.12,.02-.23,.14-.35,.22H15.65Zm91.5-45.29c0-1.28,0-2.32,0-3.35-.03-3.51,.97-7.41-.4-10.42-1.37-3.01-5.11-5.15-7.85-7.64-3.31-3.02-3.5-3.1-1.15-6.79,1.58-2.48,2.13-4.67,.06-7.07-.52-.6-.96-1.37-1.07-2.11-.79-5.01-4.24-7.39-9.5-8.08-1.2-.16-1.57-.78-1.55-1.89,.08-4.49,.16-8.99-.02-13.47-.08-2,.42-3.19,2.75-3.48,4.42-.54,7.28-2.59,7.9-6.77,.04-.25,.14-.52,.3-.72,3.37-4.07,2.93-8.04-.35-11.94-.78-.93-.38-1.57,.46-2.3,3.1-2.72,6.19-5.46,9.15-8.3,.7-.67,1.21-1.78,1.23-2.69,.11-5.73,.06-11.45,.05-17.18,0-.56-.09-1.12-.14-1.64H21.56v115.86H107.16ZM7.2,167.55H121.45v-2.28c0-7.35-.07-14.71,.05-22.06,.03-1.79-.49-2.85-2.38-3.58-2.46-.95-4.84,.21-4.85,2.58,0,5.66,0,11.33,0,16.99,0,.68,0,1.36,0,2.03H14.48V32.4H114.28c0,.8,0,1.5,0,2.2,0,7.75,0,15.49,.02,23.24,0,.61,0,1.6,.38,1.77,1.13,.53,2.56,1.21,3.65,.99,1.71-.36,3.26-1.05,3.21-3.4-.19-9.69-.08-19.39-.08-29.09v-2.13H7.2V167.55Zm174.32-38.36c-1.05-1.92-1.89-3.64-2.92-5.27-.65-1.03-.55-1.77,.08-2.82,1.71-2.85,3.83-5.68,4.58-8.76,1.09-4.47,3.23-7.32,8.45-7.92,.44-.05,1.12-.72,1.13-1.11,.07-2.4,.67-5.08-.32-7.1-.61-1.24-3.74-1.46-5.73-2.14-.07-.02-.15-.03-.2-.07-.59-.56-1.53-1.05-1.69-1.7-1.2-4.88-3.28-9.42-6.31-13.58-.67-.92-.59-1.58-.06-2.47,1.02-1.7,1.92-3.47,2.71-4.91-2.18-2.12-4.19-4.06-6.2-6.01-2.01,.84-3.98,1.77-6.04,2.49-.72,.25-1.76,.18-2.48-.11-3.8-1.52-7.39-3.73-11.36-4.59-4.02-.88-6.37-2.39-6.92-6.08-.26-1.77-1.32-2.49-3.39-2.26-2.12,.23-4.79-.49-6.29,.43-1.39,.85-1.63,3.31-2.24,5.1-.39,1.12-1.1,1.54-2.35,1.9-3.82,1.11-7.89,1.97-11.22,3.86-3.58,2.03-6.51,2.37-9.82,.09-1.53-1.06-2.73-.83-3.96,.55-1.39,1.56-3.93,2.78-4.27,4.44-.32,1.54,1.72,3.42,2.48,5.23,.29,.69,.23,1.78-.19,2.4-2.84,4.2-4.89,8.66-6.16,13.45-.18,.66-.93,1.41-1.63,1.71-2.04,.88-5.02,1.05-6.05,2.45-1.07,1.46-.29,4.02-.31,6.1,0,.07,.01,.13,0,.19-.2,1.1,.34,1.66,1.51,1.95,1.66,.42,3.33,.86,4.9,1.49,.66,.26,1.4,.94,1.56,1.54,1.26,4.93,3.36,9.51,6.34,13.8,.38,.55,.34,1.6,.04,2.24-.84,1.83-1.92,3.58-2.99,5.51,.68,.52,1.26,.92,1.78,1.36,1.62,1.37,3.05,3.58,4.89,3.89,1.7,.29,3.79-1.54,5.79-2.22,.77-.26,1.89-.18,2.66,.14,3.41,1.37,6.6,3.52,10.14,4.19,4.91,.92,7.77,2.92,8.45,7.42,.07,.44,.73,1.13,1.14,1.14,2.73,.06,5.68,.51,8.1-.29,1.22-.4,1.5-3.15,2.2-4.84,.08-.18,.09-.42,.23-.54,.61-.53,1.16-1.25,1.91-1.51,3.49-1.19,7.44-1.7,10.45-3.5,4.26-2.55,7.9-2.93,11.97-.14,.37,.25,1.42,.14,1.8-.16,2-1.58,3.88-3.28,5.83-4.96Zm-60.33,45.13H7.41c0,3.92-.41,7.78,.1,11.54,.65,4.85,5.36,7.67,11.78,7.67,29.97,0,59.94,0,89.91,0,.93,0,1.87-.05,2.8-.13,4.52-.4,8.68-3.61,9.1-7.65,.39-3.72,.08-7.51,.08-11.43Zm.18-155.01c.19-2.72,.21-5.24-1.16-7.56-2.33-3.95-6.18-5.29-10.95-5.28-29.96,.04-59.93,.02-89.89,.02-.79,0-1.58,.03-2.37,.1-6.88,.54-11.42,6.57-9.51,12.72H121.36Z"/>
  <path class="cls-1" d="M28.75,83.87H62.82c-3.05-2.67-5.65-4.96-8.28-7.26,1.84-1.67,3.41-3.09,4.84-4.38,6.63,6,13.24,11.97,19.78,17.89H28.75v-6.25Z"/>
  <path class="cls-1" d="M59.23,127.63c-1.24-1.14-2.79-2.58-4.56-4.2,2.57-2.26,5.17-4.54,7.77-6.83-.08-.17-.16-.34-.25-.51H28.73v-6.24h50.23c-6.43,5.79-13.06,11.76-19.73,17.77Z"/>
  <path class="cls-1" d="M49.87,96.94v6.1h-6.88v-6.1h6.88Z"/>
  <path class="cls-1" d="M64.16,96.93v6.11h-6.9v-6.11h6.9Z"/>
  <path class="cls-1" d="M71.58,96.92h6.82v6.15h-6.82v-6.15Z"/>
  <path class="cls-1" d="M142.86,132.27c-19.6,.02-35.54-14.36-35.68-32.16-.14-17.74,15.99-32.37,35.67-32.36,19.65,0,35.91,14.73,35.74,32.36-.17,17.76-16.15,32.15-35.73,32.17Zm28.53-32.25c0-14.26-12.78-25.8-28.58-25.79-15.65,0-28.46,11.54-28.53,25.68-.07,14.21,12.77,25.87,28.51,25.89,15.8,.02,28.59-11.52,28.6-25.78Z"/>
  <path class="cls-1" d="M53.75,180.73h21.08v6.28h-21.08v-6.28Z"/>
  <path class="cls-1" d="M157.1,99.97c.02,7.08-6.44,12.93-14.26,12.92-7.81-.01-14.33-5.93-14.26-12.95,.06-6.99,6.45-12.76,14.19-12.82,7.82-.05,14.32,5.77,14.34,12.85Zm-21.32,.03c0,3.6,3.16,6.44,7.13,6.41,3.87-.03,7-2.83,7.07-6.32,.07-3.53-3.13-6.47-7.08-6.51-3.97-.03-7.13,2.81-7.13,6.41Z"/>
</svg>