<?xml version="1.0" encoding="UTF-8"?>
<svg id="Layer_1" data-name="Layer 1" xmlns="http://www.w3.org/2000/svg" viewBox="0 0 72 72">
  <defs>
    <style>
      .cls-1 {
        fill: #5a2b5f;
      }
    </style>
  </defs>
  <path class="cls-1" d="M14.24,53.87v-2.4c1.23,0,2.47,0,3.7,0,3.96,0,7.92,0,11.88,0,2.18,0,3.57-1.15,3.58-2.96,.02-1.82-1.37-3.02-3.52-3.02-4.16,0-8.32,.02-12.48,0-1.75,0-3.41,.42-4.46,1.78-3.43,4.41-8.08,4.65-13.12,4.07v-2.2H5.74c0-3.26,0-6.34,0-9.41,0-4.69,0-9.39,0-14.08,0-2.76,1.38-4.11,4.18-4.12,3.01-.01,6.02-.09,9.02,.03,1.45,.06,2.4-.45,3.38-1.44,5.67-5.72,11.42-11.36,17.08-17.09C41.51,.9,43.91-.11,46.92-.09c7.82,.07,15.64,.03,23.46,.03,.44,0,.89,0,1.43,0V2.33c-.57,0-1.11,0-1.65,0-7.87,0-15.74,.02-23.61-.01-1.97,0-3.62,.6-5.01,1.99-5.45,5.45-10.91,10.88-16.36,16.32-.2,.2-.38,.43-.77,.87h8.93v2.32c-.4,.03-.78,.09-1.16,.09-7.27,0-14.53,0-21.8,0-2.04,0-2.22,.18-2.22,2.24,0,6.99,0,13.98,0,20.97,0,.29,.02,.58,.05,1.12,1.99-1.69,3.82-3.24,5.77-4.9-.44-1.46-1.81-1.47-3.29-1.48v-11.69c.92-.3,2.07-.35,2.69-.95,.63-.6,.75-1.73,1.19-2.91,1.06,0,2.45,0,3.83,0s2.68,0,4.1,0v2.41c-1.52,0-3.05,.05-4.58-.02-.95-.04-1.51,.17-1.96,1.11-.36,.75-1.09,1.55-1.84,1.85-1.1,.45-1.2,1.13-1.16,2.08,.04,1,.04,2,0,3-.07,1.6-.25,3.19,1.83,3.8,.41,.12,.73,.67,1.01,1.07,1.08,1.59,1.06,1.6,3.12,1.35,.04-.51,.08-1.04,.13-1.65,.99-.24,1.96-.47,2.93-.71,1.83-.46,2.4-1.83,1.43-3.43-.52-.85-1.04-1.7-1.53-2.51,1.44-1.44,2.81-2.81,4.28-4.27,.75,.45,1.56,.94,2.36,1.43,1.88,1.14,3.14,.61,3.67-1.57,.21-.87,.42-1.74,.64-2.67h5.98c.27,1.05,.54,2.1,.82,3.15,.41,1.51,1.84,2.08,3.18,1.28,.9-.54,1.79-1.08,2.9-1.75,1.21,1.26,2.45,2.48,3.61,3.78,.21,.24,.25,.82,.11,1.12-.32,.72-.81,1.38-1.22,2.06-.93,1.53-.37,2.88,1.39,3.34,.97,.25,1.94,.48,2.97,.74,.06,.56,.12,1.09,.18,1.68,1.32,.23,2.49,.38,3.09-1.3,.23-.62,.94-1.25,1.58-1.51,1.09-.44,1.34-1.09,1.28-2.16-.09-1.59,.04-3.2-.06-4.79-.03-.46-.48-.93-.84-1.31-.73-.79-1.5-1.55-2.3-2.27-.42-.37-.94-.85-1.44-.89-1.59-.11-3.19-.04-4.9-.04v-2.32h8.19c.36,3.14,.59,3.36,3.62,3.59v11.64c-.95,.31-2.1,.37-2.72,.97-.63,.6-.74,1.74-1.16,2.88h-4.35c-.05,.64-.09,1.12-.13,1.67-1.6,1.09-4.7,.03-4.91,3.46,1.28-.47,2.47-.91,3.66-1.36,1.73-.65,3.49-1.25,5.19-1.98,2.26-.96,4.49-1.4,6.93,.14,0-1.87,0-3.49,0-5.11,0-5.49-.03-10.98,.02-16.48,.01-1.43-.54-1.94-1.95-1.93-5.76,.05-11.53,0-17.29,.03-.63,0-1.28,.15-1.89,.34-2.38,.73-4.87-.09-6.23-2.1-1.34-1.97-1.39-4.67,.27-6.4,3.04-3.17,6.26-6.16,9.56-9.37,.36,.48,.78,1.03,1.31,1.74-.17,.18-.48,.54-.82,.88-2.51,2.51-5.04,5.01-7.54,7.53-1.61,1.61-1.75,3.41-.4,4.73,1.35,1.31,3.1,1.14,4.75-.49,2.28-2.25,4.51-4.55,6.84-6.75,.51-.48,1.35-.84,2.05-.87,2.5-.1,5-.04,7.62-.04v2.39c-2.19,0-4.38-.07-6.56,.04-.71,.03-1.53,.37-2.07,.84-1.72,1.5-3.34,3.13-5,4.72,.06,.14,.12,.27,.17,.41,1.07,0,2.14,0,3.21,0,3.71,0,7.42,.02,11.13-.02,.55,0,1.35-.13,1.6-.49,2.39-3.43,5.84-3.4,9.54-2.95v2.13c-2.34,.69-5.45-1.11-6.8,1.44,.37,1.97,.86,3.43,.87,4.89,.08,8.29,0,16.58,.06,24.86,.02,3.05-1.27,5.08-4.05,6.36-8.82,4.04-17.63,8.14-26.42,12.25-4.51,2.11-9.11,2.54-13.89,1.08-.77-.23-1.56-.38-2.31-.67-5.54-2.12-11.31-2.41-17.15-2.14-.74,.03-1.48,0-2.3,0v-2.31c.42-.03,.85-.06,1.29-.09,7.13-.51,14.06,.39,20.82,2.78,4.32,1.53,8.54,1.04,12.68-.92,8.78-4.15,17.6-8.19,26.42-12.26,1.33-.61,2.27-1.47,2.45-2.96,.31-2.61-2.2-4.41-4.84-3.43-8.11,3.03-16.24,6.01-24.28,9.22-3.29,1.31-6.14,1.24-8.75-1.19-2.83-2.63-6.08-3.87-9.96-3.24-.43,.07-.88,0-1.39,0Zm35.95-10.68c-1.79-.54-3.56-.62-4.56-2.91-1.04-2.38,.26-3.71,1.06-5.24-.52-.66-.94-1.2-1.38-1.76-1.81,1.07-3.12,2.2-5.46,1.22-2.31-.97-2.39-2.75-2.94-4.53h-2.18c-.15,.57-.3,1.09-.43,1.62-.66,2.77-4.05,4.25-6.37,2.63-1.41-.98-2.21-.63-2.97,.66,.23,1.55,2.43,2.5,1.26,4.55-.83,1.45-.94,3.44-3.33,3.51,2.05,.15,3.99,.11,5.93,.16,.76,.02,1.1-.22,1.4-.96,1.18-2.89,4.04-4.37,6.91-3.69,2.84,.67,4.76,3.12,4.69,5.99-.07,3.03-2.23,5.31-5.43,5.84-.42,.07-.96,.33-1.16,.67-1.22,2.06-3,2.99-5.36,2.94-1.41-.03-2.82,0-4.23,0,.93,.99,1.83,1.83,2.9,2.33,.85,.4,2.02,.75,2.83,.48,4.68-1.61,9.29-3.41,13.28-4.9,.66-1.88,1.14-3.26,1.64-4.64,.68-1.88,2.81-.89,3.9-1.95v-2Zm-13.81,4.58c1.75-.23,3.07-1.62,3.04-3.54-.03-1.8-1.45-3.34-3.25-3.52-1.8-.18-3.3,.92-3.56,2.22,1.31,1.68,2.44,3.13,3.77,4.84Z"/>
</svg>