<?xml version="1.0" encoding="UTF-8"?>
<svg id="Layer_1" data-name="Layer 1" xmlns="http://www.w3.org/2000/svg" viewBox="0 0 72 72">
  <defs>
    <style>
      .cls-1 {
        fill: #5a2b5f;
      }
    </style>
  </defs>
  <path class="cls-1" d="M6.48,72c0-2.62-.02-5.25-.02-7.87,0-2.6,0-5.2,0-7.88H-.21c0-1.15,0-2.22,0-3.29,0-3.68,0-7.35,0-11.03,0-2.34,0-4.68,.08-7.03,.09-2.86,3.1-5.88,6.25-6.36,.49-.07,.98-.12,1.52-.18v2.32c-.53,.09-1.06,.13-1.55,.27-2.21,.63-3.78,2.43-3.8,4.62-.05,6.02-.02,12.05-.01,18.07,0,.04,.03,.08,.06,.17H11.31v-4.3H6.52v-9.24h2.34v6.8h2.47c.03-.34,.06-.68,.09-1.06h14.78c.03,.36,.07,.7,.11,1.12h6.12v9.06h-6.12v10.58H11.39v-10.51h-2.44v13.36h24.76V37.62c3.83,3.23,7.53,6.36,11.26,9.51,4.71-4.9,9.39-9.77,14.19-14.76-1.79,0-3.4-.02-5.01,.02-.22,0-.46,.25-.64,.43-2.79,2.6-5.57,5.2-8.3,7.75-3.03-2.81-6.04-5.61-9.05-8.4,.52-.46,1.07-.95,1.6-1.42,2.32,2.19,4.73,4.46,7.25,6.84,1.17-1.13,2.18-2.13,3.22-3.1,1.43-1.35,2.86-2.69,4.31-4.02,.19-.18,.5-.35,.75-.35,3.73-.02,7.47-.02,11.42-.02-6.56,6.83-13.02,13.55-19.54,20.34-2.97-2.51-5.92-5-9-7.6,0,.36,0,.58,0,.79,0,9.21,0,18.41,0,27.62,0,.26-.02,.51-.04,.77H6.48Zm7.44-7.52h9.79v-16.06H13.92v16.06Zm12.38-10.67h3.59v-4.27h-3.59v4.27Z"/>
  <path class="cls-1" d="M61.24,0V2.27h-2.56V0h2.56Z"/>
  <path class="cls-1" d="M54.17,14.03v-1.91h2.47v1.88c6.94,.67,12.54,5.59,13.28,12.41h1.87v2.26H39.03v-2.22h1.98c.38-3.32,1.73-6.13,4.2-8.45,2.46-2.31,5.43-3.59,8.96-3.97Zm-10.62,12.34h23.82c-.59-5.69-5.96-10.24-12.29-10.05-5.74,.17-10.9,4.33-11.52,10.05Z"/>
  <path class="cls-1" d="M30.1,14.47c.06,5.4-4.63,10.38-11.12,10.35-6.44-.03-11.14-4.84-11.15-10.43,0-5.7,5.01-10.38,11.1-10.38,6.22,0,11.16,4.63,11.16,10.46ZM19.04,6.33c-4.81,0-8.78,3.67-8.72,8.11,.05,4.42,3.91,8.05,8.56,8.06,4.81,.01,8.79-3.62,8.78-8.01-.02-4.51-3.86-8.15-8.61-8.16Z"/>
  <path class="cls-1" d="M11.67,25.12c1.09,.28,2.14,.54,3.19,.81,.58,.15,1.17,.27,1.72,.49,1.55,.6,3.05,.5,4.61-.02,1.36-.45,2.77-.75,4.16-1.12,.21-.05,.42-.09,.67-.15v9.47c-1.49-.37-2.98-.64-4.39-1.11-1.92-.63-3.75-.6-5.66,.02-1.38,.45-2.82,.72-4.29,1.08v-9.48Zm2.56,6.39c1.25-.31,2.43-.57,3.59-.9,.72-.2,1.38-.19,2.1,.02,1.13,.33,2.29,.58,3.48,.87v-3.24c-1.03,.27-2,.47-2.93,.78-1.05,.35-2.04,.42-3.11,.06-1-.34-2.04-.56-3.12-.85v3.27Z"/>
  <path class="cls-1" d="M66.15,2.57v2.26h-2.43V2.57h2.43Z"/>
  <path class="cls-1" d="M68.39,11.76v-2.24h2.44v2.24h-2.44Z"/>
  <path class="cls-1" d="M61.15,6.89h-2.42v-2.2h2.42v2.2Z"/>
  <path class="cls-1" d="M68.38,7.12v-2.2h2.44v2.2h-2.44Z"/>
  <path class="cls-1" d="M63.69,9.44v-2.23h2.44v2.23h-2.44Z"/>
  <path class="cls-1" d="M70.84,14.15v1.99h-2.44v-1.99h2.44Z"/>
</svg>