<?xml version="1.0" encoding="UTF-8"?>
<svg id="Layer_1" data-name="Layer 1" xmlns="http://www.w3.org/2000/svg" viewBox="0 0 200 250">
  <defs>
    <style>
      .cls-1 {
        fill: #fbb247;
      }
    </style>
  </defs>
  <path class="cls-1" d="M27.99,93.36C10.31,86.11,1.49,69.1,4.18,52.53c1.47-9.05,5.81-16.62,12.92-22.6,7.1-5.96,15.42-8.91,25.2-9.09-1.7-1.75-3.1-3.26-4.56-4.7-1.77-1.75-3.64-3.41-5.38-5.2-2.51-2.59-2.4-6.76,.15-9.11,2.73-2.5,6.81-2.42,9.47,.16,4.95,4.84,9.9,9.66,14.85,14.5,2.07,2.02,4.15,4.04,6.19,6.1,2.86,2.89,2.92,6.62,.05,9.46-6.99,6.9-14.02,13.77-21.08,20.61-2.81,2.72-6.94,2.72-9.57,.12-2.61-2.57-2.54-6.59,.24-9.36,2.73-2.72,5.52-5.4,8.27-8.11,.39-.39,.76-.79,1.39-1.45-3.3-.05-6.12,.49-8.86,1.46-11.4,4.02-18.27,15.77-16.06,27.45,2.22,11.76,12.79,20.34,24.93,20.11,1.61-.02,3.32-.41,4.81-1.02,6.55-2.71,13.32-4.49,20.35-5.51,7.86-1.15,15.71-1.04,23.49,.19,33.46,5.24,57.75,30,64.23,59.11,6.68,30.04-4.9,60.61-30.82,79.01-.5,.35-1,.72-1.81,1.31h54.42c-.71-.8-1.28-1.54-1.94-2.17-2.45-2.37-4.95-4.69-7.38-7.06-2.96-2.9-3.1-7-.38-9.6,2.81-2.67,6.8-2.51,9.83,.45,5.3,5.21,10.57,10.45,15.86,15.66,1.45,1.42,3,2.76,4.45,4.2,3.4,3.36,3.4,7,.02,10.32-6.77,6.64-13.56,13.26-20.34,19.9-1.82,1.79-3.91,2.74-6.53,2.16-2.51-.55-4.23-2.04-4.95-4.44-.71-2.37-.24-4.57,1.57-6.39,2.86-2.85,5.75-5.65,8.63-8.47,.34-.34,.65-.71,1.27-1.4h-2.55c-52.58,0-105.15,0-157.73,0-2.84,0-5.26-.66-6.81-3.12-2.74-4.35,.38-9.8,5.69-9.89,5.29-.09,10.57-.03,15.86-.03h2.91C13.41,201.11,1.39,181.4,.11,156.24c-1.28-25.19,8.51-46.05,27.88-62.86h0v-.02Zm50.63-4.87c-35.64,.11-65.56,27.86-65.44,63.81,.12,36.79,30.52,63.66,65.05,63.84,36.3,.19,65.55-28.99,65.58-63.8,.03-34.54-28.63-63.74-65.19-63.86h0Z"/>
</svg>