<?xml version="1.0" encoding="UTF-8"?>
<svg id="Layer_1" data-name="Layer 1" xmlns="http://www.w3.org/2000/svg" viewBox="0 0 200 200">
  <defs>
    <style>
      .cls-1 {
        fill: #fbb247;
      }
    </style>
  </defs>
  <path class="cls-1" d="M97.65,0c2.59,.42,5.2,.73,7.76,1.27,20.29,4.25,33.81,18.86,34.9,37.62,.07,1.24,.2,2.48,.34,4.19,4.06,0,7.92-.03,11.78,0,11.99,.12,20.92,8.11,21.36,18.92,.06,1.42,.33,3.38,1.36,4.14,8.02,5.84,9.18,13.63,7.74,22.73h-12.15c-.37-.49-.66-.7-.68-.93-.79-11.17-3.27-13.25-15.87-13.25-38.32,0-76.65,0-114.97,0-1.87,0-3.75,0-6.36,0,0-3.46-.37-6.82,.21-10.05,.19-1.05,2.84-2.39,4.43-2.46,6.7-.27,13.43-.12,20.21-.12q-2.01-6.9-9.18-6.9c-7.82,0-15.64-.02-23.46,0-6.75,.02-9.14,2.09-9.14,8.04-.02,38.4-.02,76.8,0,115.2,0,5.61,2.55,7.89,8.86,7.89,45.21,.02,90.41,.02,135.62,0,6.79,0,9.34-2.33,9.42-8.43,.02-1.67,0-3.34,0-5.15,1.46-.13,2.53-.3,3.59-.32,3.26-.04,6.53-.01,9.72-.01,2.43,14.82,.44,23.48-16.96,27.59H16.9c-9.2-2.32-14.91-7.62-16.9-16.1V58.47c4.41-13.25,13.07-16.05,25.06-15.48,8.69,.41,17.42,.08,26.34,.08,.1-1.39,.19-2.34,.22-3.3,.73-19.1,14.86-34.54,35.41-38.6C89.61,.67,92.23,.39,94.84,0c.94,0,1.88,0,2.82,0Zm-8.48,57.77c8.05-6.88,15.68-13.34,23.22-19.88,8.93-7.75,9.09-5.44,.32-13.91-2.27-2.19-3.79-2.11-6.08-.01-5.68,5.21-11.6,10.2-17.65,15.47-2.25-1.88-4.83-3.92-7.24-6.11-1.96-1.78-3.54-.96-4.58,.61-1.94,2.91-7.28,3.8-6.19,8.46,.05,.23,.42,.41,.64,.6,5.71,4.8,11.41,9.6,17.55,14.76Zm45.08,4.1h29.75c-.7-4.65-2.74-6.54-7.38-6.67-4.21-.11-8.5,.4-12.63-.13-5.89-.75-8.55,1.69-9.74,6.8Z"/>
  <path class="cls-1" d="M200,155.08c-2.67,6.79-8.06,9.28-15.91,9.14-15.17-.28-30.36,.05-45.53-.12-22.89-.24-39.21-15.9-38.1-36.31,.88-16.19,16.78-30.78,34.73-31.16,17.52-.37,35.05-.16,52.57-.09,6.86,.03,10.21,4.07,12.24,9.38v49.15Zm-16.29-46.4c-12.36,0-24.36-.04-36.36,.02-4.05,.02-8.17-.02-12.14,.57-11.57,1.72-20.4,11.97-19.45,22.18,1.06,11.48,10.95,20.13,23.35,20.23,12.66,.1,25.33,.03,37.99,.03,2.13,0,4.27,0,6.61,0v-43.04Z"/>
  <path class="cls-1" d="M150.4,137.79c-4.41-.06-7.87-3.32-7.82-7.36,.05-4.11,3.48-7.12,8.06-7.07,4.39,.05,8.07,3.41,7.99,7.29-.08,3.85-3.95,7.2-8.23,7.14Z"/>
</svg>