<?xml version="1.0" encoding="UTF-8"?>
<svg id="Layer_1" data-name="Layer 1" xmlns="http://www.w3.org/2000/svg" viewBox="0 0 200 200">
  <defs>
    <style>
      .cls-1 {
        fill: #fbb247;
      }
    </style>
  </defs>
  <path class="cls-1" d="M199.52-.45V199.55H33.39v-11.76h30.77v-43.76H-.48V-.45H199.52ZM87.8,101.01V47.16h99.88V11.41H11.21V101.01H87.8Zm99.86,4.83V59.02H99.57V187.69h33.55V105.84h54.54Zm-42.72,11.76v70.07h42.75V117.6h-42.75ZM11.2,132.23H87.57v-19.3H11.2v19.3Zm76.39,55.51v-43.5h-11.49v43.5h11.49Z"/>
  <path class="cls-1" d="M50.15,41.43c0,3.65,.06,7.1-.05,10.54-.02,.61-.6,1.39-1.15,1.76-2.35,1.62-4.78,3.12-7.48,4.85,2.53,1.5,4.79,2.94,7.16,4.19,1.22,.65,1.58,1.44,1.55,2.77-.09,3.38-.03,6.76-.03,10.33-.56-.22-.98-.33-1.35-.54-7.46-4.38-14.91-8.78-22.36-13.18-1.64-.97-1.85-5.4-.26-6.37,7.71-4.72,15.45-9.41,23.18-14.1,.15-.09,.35-.11,.79-.24Z"/>
  <path class="cls-1" d="M57.64,56.04V31.9h10.89v24.15h-10.89Z"/>
  <path class="cls-1" d="M57.69,63.05h10.77v10.59h-10.77v-10.59Z"/>
  <path class="cls-1" d="M84.53,63.09v10.53h-8.78v-10.53h8.78Z"/>
  <path class="cls-1" d="M116.66,105c1.13,4.37,.16,7.55-4.51,9.18,5.32,1.24,5.3,4.87,4.62,8.88-.26-.07-.64-.1-.93-.27-3.71-2.16-7.41-4.33-11.1-6.52-1.29-.77-1.6-3.01-.43-3.74,4.06-2.55,8.19-5,12.36-7.53Z"/>
  <path class="cls-1" d="M149.47,72.64c-.03,3.19-2.71,5.82-5.9,5.8-3.19-.03-5.83-2.71-5.8-5.89,.03-3.19,2.71-5.82,5.9-5.8,3.19,.03,5.83,2.71,5.8,5.89Z"/>
  <path class="cls-1" d="M126.73,99.99v12.68h-5.69v-12.68h5.69Z"/>
  <path class="cls-1" d="M126.75,116.56v5.52h-5.73v-5.52h5.73Z"/>
  <path class="cls-1" d="M166.25,168.31c3.19-.03,5.87,2.6,5.9,5.79,.03,3.19-2.61,5.87-5.8,5.9-3.19,.03-5.87-2.6-5.9-5.79-.03-3.19,2.61-5.87,5.8-5.9Z"/>
</svg>