<?xml version="1.0" encoding="UTF-8"?>
<svg id="Layer_1" data-name="Layer 1" xmlns="http://www.w3.org/2000/svg" viewBox="0 0 300 200">
  <defs>
    <style>
      .cls-1 {
        fill: #fbb247;
      }
    </style>
  </defs>
  <path class="cls-1" d="M105.53,140.87v-7.59h-5.5c-15.35,0-30.69,.05-46.04-.04-3.24-.02-7.91,1.35-7.8-4.61,.1-5.33,4.42-4.37,7.61-4.37,37.3-.03,74.59-.02,111.89-.03,1.65,0,3.61,.5,4.86-.31,1.45-.93,3.02-2.99,3.15-4.69,.1-1.28-1.78-3.19-3.17-4.03-1.17-.71-2.9-.34-4.38-.34-17.33-.01-34.66,0-51.98,0h-5.63v-7.53h-24.91c-4.46,0-8.97,.44-13.34-.22-1.88-.28-3.48-2.87-5.2-4.4,1.73-1.55,3.34-3.36,5.26-4.53,1.02-.62,2.59-.12,3.91-.12h70.3c.99,0,1.98-.04,2.97,0,3.04,.15,6.1-.37,6.13-4.48,.03-4.45-3.18-4.85-6.4-4.82-6.44,.07-12.87,.02-19.31,.02h-16.84c.58-5.09,.72-9.69,1.7-14.05,1.11-4.93,4.79-5.86,8.96-5.84,21.29,.09,42.58,.04,63.86,.04,9.08,0,18.15-.03,27.23,0,7.73,.03,10.21,2.9,9.27,11.46-3.04,27.88-6.22,55.75-9.36,83.62-.71,6.35-1.45,12.7-2.23,19.44h-32.45c-5.28,0-10.57-.23-15.84,.07-5.16,.29-8.89-.11-11.24-6.9-2.41-6.95-8.59-9.91-15.44-9.59-6.86,.33-11.79,4.22-14.93,10.94-.75,1.62-1.23,3.4-1.96,5.47-3.17,0-6.46,.14-9.73-.03-5.11-.27-7.72-3.6-7.43-9.36,.12-2.38,.55-4.73,.78-7.11,.22-2.32,.37-4.65,.59-7.56-8.35,0-16.23,0-24.11,0-2.91,0-6.08,.05-6.2-4.31-.13-4.8,3.25-4.73,6.32-4.73h56.93c1.32,0,2.94,.52,3.9-.14,1.84-1.28,3.3-3.23,4.92-4.9-1.63-1.48-3.21-4.16-4.89-4.24-8.89-.43-17.81-.21-26.73-.21h-7.52l.02,.02Z"/>
  <path class="cls-1" d="M229.08,183.25h-13.05c3.53-31.5,7.02-62.68,10.55-94.24,7.67,0,15.06-.43,22.39,.16,4.64,.37,7.54,4.24,8.86,9.21,2.06,7.73,4.19,15.45,5.95,23.27,.92,4.09,2.83,6.58,6.21,8.5,13.36,7.62,13.28,7.73,11.22,24.11-.64,5.09-1.16,10.19-1.7,15.29-1.31,12.47-3.45,14.45-15.3,13.72-2.85-9.76-8.33-16.58-18.39-16.16-9.1,.38-14.25,6.64-16.73,16.14h-.01Zm3.7-86.69c-.96,10.41-1.89,20.47-2.84,30.75h27.9c-2.06-8.91-3.77-17.47-6.16-25.8-.59-2.05-3.24-4.4-5.2-4.73-4.32-.71-8.8-.22-13.69-.22h-.01Z"/>
  <path class="cls-1" d="M238.27,9.23c-24.86,.01-45.91,18.38-51.92,45.29-.24,1.07-.52,2.13-.67,3.21-.45,3.18-1.91,5.24-4.97,4.64-3.23-.63-3.48-3.46-3.02-6.41,1.85-11.63,6.24-21.98,12.96-31.1,22.7-30.82,64.61-33.36,90.56-5.51,25.86,27.75,24.9,74.62-2.08,100.87-1.11,1.08-2.23,2.6-3.53,2.9-1.53,.34-3.89,.18-4.74-.89-.89-1.13-.81-3.7-.42-5.43,.27-1.18,1.79-2.04,2.78-2.99,16.93-16.32,23.02-42.42,15.32-65.59-7.82-23.52-27.78-39-50.27-38.99h0Z"/>
  <path class="cls-1" d="M234.18,41.57c0-5.69-.35-11.42,.19-17.05,.2-2.04,2.36-5.11,3.98-5.42,2.93-.57,3.98,2.36,3.97,5.51-.03,10.65-.06,21.29,.02,31.94,.05,5.97,2.64,10.31,7.54,12.7,6.79,3.31,13.63,6.48,20.48,9.64,2.74,1.26,4.8,3.03,3.42,6.61-1.39,3.63-4.06,3.03-6.7,1.78-5.92-2.78-11.85-5.52-17.76-8.32-3.3-1.57-6.29-2.86-10.29-1.75-5.48,1.52-10.99-6.21-7.88-11.28,4-6.52,2.62-13.23,3-19.96,.08-1.46,0-2.94,.02-4.4h0Z"/>
  <path class="cls-1" d="M246.59,199.99c-6.66,.06-12.32-6.23-12.25-13.62,.07-7.25,5.42-13.32,11.89-13.5,6.69-.18,12.39,5.92,12.49,13.36,.1,7.45-5.41,13.7-12.12,13.76h-.01Z"/>
  <path class="cls-1" d="M124.2,186.3c.05-7.49,5.68-13.61,12.36-13.42,6.75,.19,12.07,6.43,11.91,13.97-.15,7.21-5.63,13.15-12.14,13.15s-12.17-6.16-12.13-13.7Z"/>
  <path class="cls-1" d="M15.4,145.81c3.37,0,6.9-.46,10.06,.18,1.86,.38,4.38,2.52,4.35,3.84-.03,1.36-2.7,3.72-4.39,3.83-6.92,.44-13.94,.48-20.84,0-1.78-.13-4.23-2.58-4.57-4.19-.21-1.01,2.76-3.21,4.68-3.53,3.42-.59,7.13-.17,10.71-.17v.04Z"/>
</svg>