<?xml version="1.0" encoding="UTF-8"?>
<svg id="Layer_1" data-name="Layer 1" xmlns="http://www.w3.org/2000/svg" viewBox="0 0 200 200">
  <defs>
    <style>
      .cls-1 {
        fill: #fff;
      }
    </style>
  </defs>
  <path class="cls-1" d="M40.11,14.68C40.35,4.97,44.52,.14,53.46,.11c30.07-.13,60.14-.17,90.21,.05,6.78,.05,12.2,3.05,13.18,11.26-1.35,.75-1.56,2.16-1.79,3.54-1.17-.15-2.35-.29-3.53-.44-.72-6.49-4.57-8.1-10.2-8.07-26.86,.16-53.71,.08-80.57,.08-14.91,0-15.16,.25-14.89,15.72,.01,.8,.16,1.61,.25,2.41,.79,3.84,3.71,3,6.13,3,30.78,.03,61.57,.03,92.35,0,2.42,0,5.32,.83,6.2-2.94v-.25c1.4-.58,2.77-1.47,4.29-.38,0,3.99,0,7.98,0,11.97-.35-.09-.7-.08-1.06,0-.21-1.58-.56-3.06-2.32-3.47-2.31-2.62-5.31-1.4-7.98-1.41-32.46-.14-64.92-.16-97.38-.21-1.27,.11-2.54,.22-3.27,1.58-.5,0-.99,0-1.49,0-.81-5.93,1.65-12.16-1.48-17.87Z"/>
  <path class="cls-1" d="M185.63,80.14c-2.95,.85-3.63,6.27-7.18,3.21-3.36-2.89,.09-5.21,1.18-7.66,.22-.49,.45-.99,.79-1.39,3.29-3.9,4.55-12.7,9.38-11.33,6,1.71,6.58,10.81,9.84,16.51,.83,1.46,.13,3.07-1.31,4.2-2.65,2.08-3.62-2.22-6.21-1.64,0,11.89,.14,23.75-.04,35.6-.21,13.62-10.04,22.68-22.75,21.31-2.08-.22-4.5-.24-4.59-3.1-.08-2.77,2.31-3.15,4.33-3.54,15.52-3.02,16.81-4.68,16.82-21.61,0-9.75,0-19.49,0-29.24,0-.25-.09-.5-.26-1.31Z"/>
  <path class="cls-1" d="M7.91,119.86c0-12.94-.24-25.09,.07-37.23,.32-12.8,10.86-22,22.79-20.46,2.13,.27,4.37,.56,4.47,3.31,.1,2.88-2.14,3.04-4.29,3.34-14.45,1.96-16.84,4.82-16.87,19.96-.02,10.69,0,21.39,0,32.29,3.21-.27,4.12-6.66,7.75-2.77,2.89,3.1-.33,5.59-1.83,7.64-3.16,4.33-4.18,12.64-9.74,12.22-5.34-.41-5.56-8.76-8.43-13.35-1.16-1.85-2.98-4.12-.81-6.57,2.77-3.14,4.22,1.09,6.9,1.63Z"/>
  <path class="cls-1" d="M96.92,199.72c-14.82,.11-29.64,.36-44.46,.24-6.08-.05-10.89-2.56-11.83-9.87,1.4-.51,2.8-1.01,4.19-1.52,2.29,1.19,2.21,4.98,6.06,4.89,14.39-.34,28.79-.14,43.85-.14-10.02-8.93-10.19-16.74-1.14-22.66,.55,.04,1.11,.07,1.66,.11,2.69-.12,5.38-.24,8.07-.36,9.63,7.82,8.42,16.28-3.29,23.02-1.46,1.86-3.77,3.25-3.11,6.28Zm1.27-24.21c-3.14,.32-4.77,2.21-4.79,5.32-.02,3.18,1.9,5.25,4.73,5.29,3.2,.03,5.29-2.03,5.05-5.7-.21-3.19-2.11-4.74-4.99-4.91Z"/>
  <path class="cls-1" d="M155.5,191.21c-1.01,6.78-5.85,8.6-11.16,8.71-11.19,.23-22.39-.11-33.59-.22,0-1.97,0-3.95,0-5.92,10.65-.1,21.3-.25,31.94-.28,5.52-.02,8.66-2.49,8.49-8.63-.15-5.61-.38-11.22-.58-16.83-1.8-3.52-4.98-2.1-7.58-2.13-14.86-.14-29.71-.08-44.57-.09,0-.5,0-1,.02-1.5,10.5-.03,21,.19,31.48-.17,6.78-.24,13.7,1.57,20.36-1.17l4.72,.97c.16,9.08,.32,18.17,.48,27.25Z"/>
  <path class="cls-1" d="M44.83,188.58c-1.4,.51-2.8,1.01-4.19,1.52-.28-2.1-.8-4.21-.8-6.31-.04-55.3-.03-110.59,0-165.89,0-1.07,.19-2.14,.28-3.21,3.13,5.71,.67,11.94,1.48,17.87,0,42.27,0,84.54,0,126.81,1,3.25-2.46,8.01,2.95,9.77,.09,6.48,.19,12.97,.28,19.45Z"/>
  <path class="cls-1" d="M155.5,191.21c-.16-9.08-.32-18.17-.47-27.25,.02-42.63,.04-85.26,.06-127.9,0-3.99,0-7.98,.01-11.97-.01-3.04-.03-6.09-.04-9.14,.24-1.38,.45-2.79,1.8-3.54,.15,5.11,.42,10.22,.42,15.33,.03,51.84,.05,103.68-.05,155.53,0,3,1.4,6.52-1.72,8.94Z"/>
  <path class="cls-1" d="M110.75,193.79c0,1.97,0,3.95,0,5.92-4.61,0-9.22,0-13.83,.01-.66-3.03,1.65-4.42,3.11-6.28,3.57,.12,7.14,.23,10.72,.35Z"/>
  <path class="cls-1" d="M46.35,30.98c-.18,13.46-.45,26.93-.52,40.39-.15,29.93-.19,59.87-.27,89.8-.37,.34-.65,.74-.85,1.21-1.4-.49-1.53-1.74-1.62-3.02,0-42.27,0-84.54-.01-126.8,.73-1.36,2-1.47,3.27-1.58Z"/>
  <path class="cls-1" d="M151.33,161.02c0-39.86,0-79.72,.04-119.57,0-2.95,.23-5.9,.35-8.85,1.77,.41,2.11,1.89,2.32,3.47-.03,38.89-.01,77.78-.14,116.67,0,2.88,1.73,6.74-2.56,8.29Z"/>
  <path class="cls-1" d="M46.14,24.65c34.89,.02,69.78,.04,104.67,.06-.88,3.77-3.78,2.93-6.2,2.94-30.78,.03-61.57,.03-92.35,0-2.41,0-5.33,.84-6.13-3Z"/>
  <path class="cls-1" d="M151.33,161.02c4.29-1.55,2.55-5.42,2.56-8.29,.13-38.89,.12-77.78,.14-116.67,.36-.08,.71-.08,1.06,0-.02,42.64-.04,85.27-.06,127.9-1.58-.33-3.15-.65-4.72-.97-.5-.24-1-.47-1.5-.7,.84-.42,1.67-.84,2.51-1.26Z"/>
  <path class="cls-1" d="M43.08,32.56c0,42.27,0,84.54,.01,126.8-.5,0-1,0-1.5,0,0-42.27,0-84.54,0-126.81,.5,0,.99,0,1.49,0Z"/>
  <path class="cls-1" d="M150.82,24.47c.24-3.32,.47-6.64,.71-9.95,1.18,.14,2.35,.29,3.53,.44,.01,3.05,.03,6.1,.04,9.14-1.53-1.1-2.89-.2-4.28,.38Z"/>
  <path class="cls-1" d="M93.59,170.67c.03-4.66-3.42-2.26-4.96-2.29-14.59-.22-29.18-.1-43.77-.07,1.31-3.47,4.22-2.37,6.58-2.4,9.15-.11,18.31-.31,27.45,.06,5.45,.22,11.12-1.72,16.37,1.34-1.85,1.15-.73,2.31-.01,3.47-.55-.04-1.11-.07-1.66-.11Z"/>
  <path class="cls-1" d="M95.26,170.77c-.72-1.16-1.84-2.32,.01-3.47,1.07,.03,2.14,.06,3.2,.09,1.62,.24,3.24,.47,4.86,.71,0,.77,0,1.54,0,2.31-2.69,.12-5.38,.24-8.07,.36Z"/>
  <path class="cls-1" d="M148.81,162.28c.5,.23,1,.47,1.5,.7-6.66,2.74-13.58,.94-20.36,1.17-10.48,.37-20.99,.15-31.48,.17-15.32-.03-30.64,0-45.96-.15-2.64-.03-5.71,1.23-7.79-1.81,.2-.47,.48-.87,.85-1.21,0,0,.4,.02,.4,.02,0,0,.04,.42,.04,.42,.47,1.06,1.2,1.19,2.12,.69,33.57,0,67.13,0,100.7-.01Z"/>
  <path class="cls-1" d="M44.71,162.38c2.08,3.03,5.15,1.78,7.79,1.81,15.32,.15,30.64,.12,45.96,.15,0,.5-.01,1-.02,1.5,0,.52,0,1.04,.02,1.55-1.07-.03-2.14-.06-3.2-.09-5.26-3.05-10.92-1.12-16.37-1.34-9.14-.36-18.3-.16-27.45-.06-2.36,.03-5.27-1.07-6.58,2.4,0,0,.09,.52,.09,.52,0,0-.41,.3-.41,.3-5.41-1.76-1.95-6.52-2.95-9.77,.5,0,1,0,1.5,0,.09,1.28,.22,2.53,1.62,3.02Z"/>
  <path class="cls-1" d="M98.47,167.39c-.02-.52-.03-1.03-.02-1.55,14.86,0,29.71-.05,44.57,.09,2.6,.02,5.77-1.4,7.58,2.13-15.76,.02-31.51,.03-47.27,.05-1.62-.24-3.24-.47-4.86-.71Z"/>
  <path class="cls-1" d="M134.24,94.47c6.4,18.37-4.32,25.67-17.17,34.31-13.71,9.22-23.76,8.55-37.63,0-13.86-8.53-18.76-17.43-18.73-34.54,.04-17.13,5.13-25.91,18.94-34.39,13.93-8.56,23.9-8.77,37.61,.24,13.17,8.65,23.21,16.28,16.97,34.38Zm-8.38-20.75c-8.9-5.46-17.06-10.38-25.11-15.48-1.81-1.14-3.08-1.04-4.84,.07-8.07,5.09-16.24,10-25.08,15.41,8.61,5.29,16.51,10.04,24.3,14.99,2.25,1.43,4.1,1.52,6.35,.11,7.81-4.93,15.69-9.73,24.39-15.1Zm-30.53,56.3c0-10.81,0-20.24,0-29.68,0-1.86,.29-3.81-1.66-4.99-8.44-5.14-16.87-10.3-26.03-15.9,0,10.75,.09,19.95-.05,29.16-.04,2.97,.56,5.03,3.23,6.58,7.81,4.54,15.48,9.34,24.51,14.84Zm6.15-.08c9.28-5.64,17.13-10.49,25.07-15.19,2.08-1.23,2.64-2.87,2.62-5.24-.08-9.61-.04-19.22-.04-29.97-8.98,5.42-17.06,10.33-25.18,15.17-2.06,1.23-2.53,3.02-2.51,5.36,.08,9.39,.03,18.79,.03,29.88Z"/>
  <path class="cls-1" d="M48.12,162.3c-.92,.5-1.66,.37-2.12-.69,.71,.23,1.42,.46,2.12,.69Z"/>
  <path class="cls-1" d="M123.79,18.14c-4.07,0-8.14,.04-12.2-.02-1.98-.02-3.59-1.04-3.73-3.18-.17-2.66,2.19-2.85,3.77-2.89,7.88-.19,15.76-.13,23.64-.16,2.16,0,3.23,1.12,3.41,3.39,.23,2.88-1.65,2.87-3.45,2.89-3.81,.05-7.63,.01-11.44,.01,0-.01,0-.03,0-.04Z"/>
</svg>