<?xml version="1.0" encoding="UTF-8"?>
<svg id="Layer_1" data-name="Layer 1" xmlns="http://www.w3.org/2000/svg" viewBox="0 0 200 230">
  <defs>
    <style>
      .cls-1 {
        fill: #fbb247;
      }
    </style>
  </defs>
  <path class="cls-1" d="M27.99,85.89C10.31,79.22,1.49,63.57,4.18,48.32c1.47-8.33,5.81-15.29,12.92-20.79,7.1-5.49,15.42-8.2,25.2-8.36-1.7-1.61-3.1-3-4.56-4.32-1.77-1.61-3.64-3.14-5.38-4.78-2.51-2.38-2.4-6.22,.15-8.38,2.73-2.3,6.81-2.23,9.47,.15,4.95,4.45,9.9,8.89,14.85,13.34,2.07,1.86,4.15,3.71,6.19,5.61,2.86,2.66,2.92,6.09,.05,8.71-6.99,6.35-14.02,12.67-21.08,18.96-2.81,2.51-6.94,2.51-9.57,.11-2.61-2.37-2.54-6.06,.24-8.61,2.73-2.51,5.52-4.97,8.27-7.46,.39-.36,.76-.72,1.39-1.33-3.3-.05-6.12,.45-8.86,1.35-11.4,3.7-18.27,14.51-16.06,25.25,2.22,10.82,12.79,18.71,24.93,18.5,1.61-.02,3.32-.38,4.81-.94,6.55-2.5,13.32-4.13,20.35-5.07,7.86-1.06,15.71-.95,23.49,.17,33.46,4.82,57.75,27.6,64.23,54.38,6.68,27.63-4.9,55.76-30.82,72.69-.5,.32-1,.67-1.81,1.21h54.42c-.71-.74-1.28-1.41-1.94-2-2.45-2.18-4.95-4.31-7.38-6.5-2.96-2.67-3.1-6.44-.38-8.83,2.81-2.46,6.8-2.31,9.83,.41,5.3,4.8,10.57,9.61,15.86,14.41,1.45,1.31,3,2.54,4.45,3.86,3.4,3.09,3.4,6.44,.02,9.5-6.77,6.11-13.56,12.2-20.34,18.31-1.82,1.64-3.91,2.52-6.53,1.99-2.51-.51-4.23-1.87-4.95-4.08-.71-2.18-.24-4.21,1.57-5.88,2.86-2.62,5.75-5.2,8.63-7.8,.34-.31,.65-.66,1.27-1.29h-2.55c-52.58,0-105.15,0-157.73,.01-2.84,0-5.26-.61-6.81-2.87-2.74-4,.38-9.02,5.69-9.1,5.29-.08,10.57-.02,15.86-.02h2.91C13.41,185.02,1.39,166.89,.11,143.74c-1.28-23.17,8.51-42.36,27.88-57.83h0Zm50.63-4.48c-35.64,.1-65.56,25.63-65.44,58.71,.12,33.84,30.52,58.57,65.05,58.73,36.3,.17,65.55-26.67,65.58-58.69,.03-31.77-28.63-58.64-65.19-58.75h0Z"/>
</svg>