<?xml version="1.0" encoding="UTF-8"?>
<svg id="Layer_1" data-name="Layer 1" xmlns="http://www.w3.org/2000/svg" viewBox="0 0 200 150">
  <defs>
    <style>
      .cls-1 {
        fill: #fbb247;
      }
    </style>
  </defs>
  <path class="cls-1" d="M200,97.31c-4.13,3.11-4.96,2.87-7.12-2.45-9.32-22.85-18.6-45.72-27.91-68.57-.64-1.58-1.37-3.11-2.45-5.54-1.76,4.2-3.15,7.41-4.46,10.66-8.39,20.76-16.75,41.53-25.13,62.3-.59,1.46-1.03,3.15-2.02,4.23-.77,.84-2.65,1.59-3.38,1.14-1.03-.64-2.02-2.41-2-3.68,.03-1.67,1-3.35,1.66-4.98,8.54-21.08,17.1-42.15,25.64-63.23,.71-1.76,1.31-3.56,2.09-5.67h-51.76c-.1,1.61-.29,3.14-.29,4.68-.02,32.81,.03,65.63-.07,98.44-.01,3.48,.73,4.8,4.18,6.2,5.59,2.28,10.49,6.47,15.76,9.71,1.87,1.15,3.94,2.6,5.96,2.68,8.17,.31,16.37-.08,24.54,.29,1.75,.08,3.41,2.2,5.12,3.38-1.65,1.04-3.3,2.96-4.96,2.96-35.23,.17-70.47,.13-105.7,.12-2.33,0-5.36,.21-4.83-3.42,.19-1.3,3.02-2.99,4.69-3.05,7.67-.33,15.37,.07,23.03-.29,2.16-.1,4.76-1.31,6.27-2.96,4.33-4.67,9-8.35,15.09-9.99,1.23-.33,2.9-2.43,2.91-3.72,.15-34.42,.1-68.84,.07-103.25,0-.49-.24-.98-.43-1.72H44.67c.79,2.15,1.45,4.11,2.23,6.02,8.46,20.72,16.95,41.44,25.42,62.16,.67,1.64,1.74,3.28,1.77,4.94,.03,1.44-.83,3.39-1.91,4.19-.63,.47-2.7-.53-3.64-1.44-.91-.88-1.23-2.48-1.76-3.79-9.03-22.21-18.05-44.42-27.08-66.63-.72-1.78-1.52-3.52-2.72-6.29-1.05,2.41-1.76,3.92-2.38,5.47-9,22.22-17.99,44.45-26.99,66.68-.59,1.47-.93,3.26-1.94,4.28-1.01,1.01-3.11,2.06-4.01,1.57-1-.54-1.93-3.04-1.59-4.27,.99-3.56,2.63-6.92,4.02-10.34C12.46,63.57,20.83,43.01,29.43,21.89c-1.34-.23-2.6-.07-3.32-.66-1.04-.86-2.39-2.36-2.28-3.43,.11-1.07,1.72-2.26,2.91-2.84,.97-.47,2.3-.13,3.47-.13,10.52,0,21.04,.04,31.56-.02,7.22-.04,14.56,1.14,21.05-4.13,1.94-1.58,5.29-1.04,7.58-2.33,2.37-1.32,4.26-3.65,6.33-5.58C97.75,1.83,98.67,.03,99.68,0s2.79,1.5,2.99,2.6c.72,4.07,3.47,5.03,6.55,6.11,4.38,1.55,8.62,3.57,12.98,5.19,1.66,.62,3.5,.97,5.26,.98,14.53,.08,29.06,.04,43.58,.04,1,0,2.19-.35,2.96,.1,1.3,.76,2.34,2.03,3.48,3.08-1.04,1.13-1.94,2.55-3.18,3.31-.89,.55-2.25,.23-3.79,.31,.37,1.43,.55,2.61,.98,3.68,8.94,22.06,17.9,44.1,26.9,66.14,.38,.92,1.06,1.7,1.6,2.55v3.21h0Z"/>
  <path class="cls-1" d="M164.36,121.71c9.03,0,16.19,.03,23.35-.02,2.59-.02,5.57-.25,5.59,4.71,.02,5.68-3.45,4-5.68,4.01-15.7,.12-31.39,.19-47.09-.1-1.88-.03-5.28-2.15-5.34-3.54-.23-5.32,2.95-5.11,5.71-5.09,6.83,.05,13.65,.02,21.36,.02-1.1-8.63-10.93-11.19-6.2-22.22,2.15-1.08,3.79-.45,3.67,4.51-.11,4.71,1.58,7.35,4.95,6.52,3.62-.89,3.94-5.31,3.01-8.87-1.01-3.85-3.16-7.11-4.82-10.61-2.13-4.48-4.78-8.64-6.26-13.52-1.72-5.69-.41-10.98,3.07-15.25,1.55-1.91,2.48-4.85,3.7-7.32,1.29,2.21,2.27,5.47,3.91,6.44,5.33,3.16,5.62,9.04,5.49,15.46-.5,.57-.99,1.14-1.49,1.72-1-1.67-2.6-3.15-2.89-5.03-.62-4.13-1.32-7.99-4.91-6.72-3.56,1.26-3.32,6.1-2.26,9.41,1.35,4.21,3.81,7.68,5.69,11.57,1.87,3.87,4.2,7.57,5.26,11.88,1.57,6.35,.47,12.11-4.13,15.79-1.17,.94-1.87,3.07-3.7,6.25h0Z"/>
  <path class="cls-1" d="M45.51,76.58c-3.09,1.34-4.26,.41-4.39-2.79-.13-3.14-1.32-6-4.9-4.91-3.46,1.06-3.33,4.62-2.14,7.1,1.65,3.41,4.5,6.14,6.37,9.46,2,3.56,4.39,7.34,4.83,11.25,.3,2.62-2.46,5.66-3.94,8.46-.65,1.24-1.51,2.35-2.27,3.51,1.3,.46,2.6,1.28,3.92,1.31,6,.14,12.03-.2,18.01,.23,1.83,.13,4.88,1.97,5.05,3.34,.44,3.71-2.79,3.06-5,3.06-16.02,.04-32.04,.05-48.06-.02-2.14,0-5.32,.93-5.26-2.96,.05-3.7,2.96-3.62,5.56-3.61,6.99,.04,13.98,.02,22.62,.02-1.66-2.42-2.63-3.68-3.44-5.04-1.53-2.57-3.44-5.04-4.31-7.85-.96-3.11,.61-4.73,4.09-3.62,.11,1.07,.3,2.27,.36,3.47,.15,3.26,1.66,5.03,4.76,4.72,3.43-.35,4.16-3.29,3.33-5.88-.99-3.07-2.99-5.78-4.67-8.57-2.14-3.56-5.43-6.77-6.27-10.62-.69-3.17,1.24-7.14,2.46-10.57,.66-1.86,2.25-3.35,3.46-4.97,.36-.48,1-1.23,1.31-1.13,.62,.2,1.18,.83,1.63,1.41,1.04,1.33,1.76,3.09,3.03,4.03,3.72,2.74,4.16,6.59,3.86,11.18h0Z"/>
</svg>