<?xml version="1.0" encoding="UTF-8"?>
<svg id="Layer_1" data-name="Layer 1" xmlns="http://www.w3.org/2000/svg" viewBox="0 0 200 200">
  <defs>
    <style>
      .cls-1 {
        fill: #fbb247;
      }
    </style>
  </defs>
  <path class="cls-1" d="M100.41,199.88c-24.79,0-49.57,.03-74.36-.02-5.38-.01-10.75-.33-16.13-.5-2.05-.07-3.75-.72-5.22-2.03-3.01-2.68-5.05-5.66-4.65-9.58,.1-1.01,.09-2.03,.09-3.05,.01-5,2.74-8.52,7.88-10.56,4.74-1.89,9.6-3.54,14.35-5.4,11.51-4.5,22.77-9.4,33.17-15.65,4.2-2.52,8.22-5.23,11.36-8.8,1.08-1.23,1.53-2.57,1.78-4.09,.55-3.35-.31-5.97-3.16-8.57-5.23-4.77-9.32-10.33-12.02-16.56-.26-.6-.63-.84-1.36-.87-2.08-.09-4.19-.11-6.24-.4-5.52-.79-9.21-3.81-11.99-7.83-1.16-1.68-1.62-3.46-1.6-5.47,.1-9.87,.02-19.75,.08-29.62,0-1.04,.33-2.14,.79-3.11,1.72-3.67,4.66-6.42,8.76-8.17,.98-.42,1.24-.97,1.23-1.88-.08-5.66,0-11.32,1.21-16.92,3.08-14.11,11.82-24.91,25.43-32.82,7.3-4.24,15.32-6.94,24.08-7.69,14.9-1.29,28.41,1.97,40.26,9.97,11.78,7.95,19.18,18.33,21.79,31.15,.6,2.95,.65,5.99,.85,8.99,.17,2.5,.24,5.01,.25,7.51,0,.87,.39,1.24,1.23,1.63,4.5,2.07,7.73,5.14,9.16,9.45,.35,1.06,.41,2.23,.41,3.34,.03,9.22,0,18.44,.03,27.66,.01,3.39-1.2,6.35-3.76,8.87-1.32,1.3-1.47,2.88-1.69,4.46-.43,3.15-1.17,6.23-2.63,9.15-3.18,6.36-8.81,10.5-16.08,12.97-3.6,1.22-7.38,2.03-11.11,2.96-.82,.21-1.08,.46-1.11,1.24-.07,2.09,.81,3.8,2.31,5.36,2.99,3.13,6.65,5.6,10.46,7.9,11.19,6.75,23.31,12.01,35.75,16.74,3.78,1.44,7.61,2.78,11.42,4.18,3.59,1.32,6.23,3.49,7.65,6.67,.46,1.03,.85,2.15,.89,3.24,.09,2.06-.06,4.13-.17,6.2-.21,3.99-2.91,6.59-6.51,8.64-1.78,1.01-3.69,1.42-5.88,1.42-29-.06-58-.04-87.01-.04,0-.03,0-.06,0-.09Zm21.21-60.31c-2.25,.12-4.29,.24-6.32,.34-1.16,.06-2,.5-2.67,1.37-1.53,1.95-3.58,3.44-6.01,4.5-2.19,.96-4.53,1.56-6.88,.75-2.11-.72-4.32-1.53-6.02-2.78-4.24-3.15-6.34-8.27-2.63-13.16,1.42-1.87,3.23-3.42,5.49-4.53,3.58-1.75,7.26-1.83,10.67,.13,2.08,1.2,3.75,2.95,5.65,4.39,.45,.34,1.11,.66,1.69,.68,2.17,.08,4.34,.06,6.51,.01,.45,0,1.02-.16,1.31-.43,6.11-5.6,11.92-11.4,15.36-18.66,.32-.68,.56-1.45,.57-2.18,.03-14.56,.03-29.11,0-43.67,0-3.7,.03-7.41-.22-11.1-.73-10.68-7.56-19.51-20.09-22.55-11.77-2.86-23.64-2.72-35.38-.08-8.71,1.96-14.82,6.83-18.29,14.15-1.94,4.08-2.5,8.36-2.54,12.68-.15,14.99-.19,29.98-.21,44.97,0,2.02,.15,4.08,.57,6.07,.8,3.75,3,7.03,5.55,10.02,3.01,3.55,6.49,6.81,9.74,10.22,.35,.37,.74,.85,.76,1.29,.12,3.01,.17,6.02,.19,9.04,.02,2.31-.78,4.39-2.3,6.32-2.87,3.64-6.52,6.6-10.49,9.27-11.25,7.58-23.62,13.51-36.47,18.7-5.71,2.31-11.55,4.36-17.34,6.52-.82,.3-1.68,.56-1.73,1.51-.1,2.13-.22,4.26-.27,6.4-.03,1.05,.71,1.44,1.85,1.47,1.54,.03,3.08,.16,4.63,.17,12.56,.07,25.12,.18,37.68,.17,39.85,0,79.7-.04,119.56-.09,4.96,0,9.93-.18,14.89-.26,1.14-.02,1.87-.42,1.84-1.47-.06-2.13-.11-4.27-.33-6.39-.05-.47-.7-1.04-1.24-1.31-1.04-.52-2.2-.88-3.32-1.27-13.03-4.62-25.79-9.73-37.79-16.18-6.97-3.75-13.73-7.76-19.44-12.92-3.69-3.33-7.08-6.85-6.53-12.11ZM53.55,48.74c.34-.81,.7-1.62,1.02-2.44,4.3-10.76,12.91-17.72,25.11-21.49,4.96-1.54,10.14-2.05,15.36-2.27,7.15-.3,14.28-.24,21.28,1.2,13.54,2.79,23.51,9.35,28.65,20.88,.51,1.15,.96,2.32,1.46,3.48,.1,.23,.25,.45,.38,.67,.07-6.74-1.53-13.11-5.23-18.98-9.46-15.05-26.56-22.94-47.24-21.04-16.54,1.52-28.79,9.18-36.44,22.13-3.3,5.59-4.67,11.58-4.37,17.87Zm-1.91,56.94c0-.76,0-1.23,0-1.69,0-11.54,0-23.07,0-34.61q0-2.73-3.17-2.53c-4.98,.31-6.48,1.41-6.48,5.75-.01,9.83,.26,19.65,.4,29.48,.02,1.53,1,2.55,2.57,2.85,2.13,.4,4.33,.5,6.68,.74Zm97.14-39.19v39.54c2.19-.41,4.26-.66,6.23-1.19,1.84-.5,3.02-1.64,3-3.47,0-.72,.13-1.45,.13-2.17,.01-8.64,.03-17.28-.01-25.91,0-1.26-.25-2.53-.46-3.78-.19-1.11-.99-1.89-2.24-2.1-2.16-.37-4.34-.6-6.65-.9Zm-10.69,62.25c1.13-.41,2.22-.76,3.27-1.19,5.93-2.42,9.4-6.54,10.89-12.02,.27-.98-.16-1.36-1.23-1.37-.83,0-1.67,.03-2.5-.03-.83-.06-1.28,.2-1.63,.87-.76,1.49-1.54,2.98-2.47,4.4-2.04,3.11-4.17,6.18-6.33,9.35Zm-33.48,7.2c0-2.11-.56-2.63-2.85-2.63-2.15,0-2.86,.54-2.87,2.18-.02,1.95,1.04,2.99,3.03,2.96,1.96-.03,2.69-.71,2.69-2.51Z"/>
</svg>