<?xml version="1.0" encoding="UTF-8"?>
<svg id="Layer_1" data-name="Layer 1" xmlns="http://www.w3.org/2000/svg" viewBox="0 0 200 200">
  <defs>
    <style>
      .cls-1 {
        fill: #fbb247;
      }
    </style>
  </defs>
  <path class="cls-1" d="M57.35,200c-.64-9.78-.01-11.08,6.65-14.71,6.36-3.47,12.69-7.06,19.19-10.68,5.66,6.35,8.88,14.67,9.15,24.59-1.47,.09-2.95,.23-4.43,.26-9.93,.19-19.86,.36-29.79,.54h-.77Z"/>
  <path class="cls-1" d="M141.81,200c-7.89-.18-15.78-.38-23.67-.52-3.42-.06-6.83-.01-10.6-.01,.12-10.77,4.02-18.28,8.98-25,7.61,4.27,15.09,8.45,22.55,12.68,4.52,2.57,3.74,7.86,3.5,12.85h-.77Z"/>
  <path class="cls-1" d="M100.02,59.49c37.21,.73,68.5,42.6,67.94,91.41-.06,5.17-1.88,8.25-4.92,8.04-3.55-.25-4.78-3.41-4.84-7.73-.17-11.4-1.94-22.27-5.58-32.6-11.28-32.03-36.46-49.91-62.31-44.2-24.8,5.47-44.6,33.12-48.11,67.27-.32,3.08-.29,6.22-.46,9.33-.31,5.48-1.98,8.07-5.08,7.96-3.01-.11-4.65-3.04-4.69-8.37-.27-40.37,22.03-78.33,51.79-87.77,5.32-1.69,10.83-2.25,16.26-3.33Z"/>
  <path class="cls-1" d="M117.61,121.44c.59,2.74,1.56,5.46,1.68,8.24,.2,4.66,.48,9.59-.42,13.99-.89,4.36-3.29,8.12-4.82,12.29-1.17,3.17-2.01,6.57-3.01,9.86-.34,1.11-.53,2.4-1.07,3.29-3.67,6.03-8.63,5.96-13.68,4.95-4.58-.92-6.63-4.14-8.08-10.09-1.02-4.19-2.87-8.03-4.45-11.95-3.24-8.04-6.21-15.99-2.28-25.32,.67-1.6,.09-4.09,.3-6.13,.34-3.21,.43-6.63,1.37-9.52,3.15-9.73,12.84-14.66,22.15-11.69,8.37,2.67,12.83,10.32,12.28,22.08Z"/>
  <path class="cls-1" d="M36.3,88.36c-3.66,2.73-6.74,4.7-9.53,7.28-1.1,1.01-2.03,3.29-2.15,5.11-.31,4.42-.1,8.9-.1,14.19-2.67-3.42-5-6.79-7.65-9.59-1.05-1.11-2.96-1.63-4.26-1.2-3.18,1.06-6.23,2.84-10.21,4.75,1.78-5.09,3.41-9.08,4.55-13.32,.45-1.69,.3-4.31-.4-5.81-1.74-3.76-3.94-7.13-6.56-11.72,3.94,.61,7.08,.66,10.04,1.67,2.66,.91,3.97-.31,5.24-3.2,1.55-3.56,3.41-6.87,5.64-11.3,.74,5.36,1.12,9.85,2.06,14.1,.42,1.9,1.76,4.06,3.09,4.82,2.99,1.72,6.23,2.64,10.23,4.23Z"/>
  <path class="cls-1" d="M200,77.91c-2.65,4.65-4.51,8.15-6.57,11.41-1.33,2.1-1.65,3.86-.57,6.43,1.62,3.87,2.9,8.01,4.69,13.1-3.67-1.73-6.69-2.87-9.53-4.58-2.39-1.44-3.98-.82-5.68,1.73-2.03,3.04-4.36,5.72-6.96,9.06,0-5.02-.25-9.25,.08-13.39,.28-3.57-.7-5.36-2.97-6.76-2.76-1.71-5.37-3.86-8.91-6.44,3.79-1.54,6.69-2.92,9.68-3.86,2.43-.77,3.69-2.24,3.92-5.84,.27-4.19,1.08-8.33,1.8-13.56,2.34,4.64,4.09,8.63,6.25,12.15,.83,1.36,2.62,2.36,3.95,2.3,3.29-.15,6.55-.99,10.83-1.73Z"/>
  <path class="cls-1" d="M149.75,69.61c-2.01-4.98-3.45-9.16-5.34-12.95-.74-1.49-2.42-2.77-3.76-2.94-3.27-.42-6.59-.14-10.49-.14,1.6-2.31,2.83-4.73,4.5-6.37,4.28-4.21,4.63-9.11,2.24-15.09-.93-2.32-1.35-5.01-2.28-8.61,3.75,2.43,6.77,4.15,9.61,6.3,1.84,1.39,3.15,1.26,4.75-.6,2.47-2.87,5.14-5.43,8.48-8.92-.54,5.73-1.17,10.11-1.28,14.51-.05,1.81,.64,4.26,1.63,5.38,2.6,2.95,5.56,5.33,9.03,8.55-3.88,.99-7,2.09-10.18,2.5-2.5,.33-3.51,1.97-4.06,5.01-.75,4.11-1.72,8.14-2.85,13.36Z"/>
  <path class="cls-1" d="M88.45,48.09c1-5.53,1.63-9.56,2.48-13.5,.64-2.97,.41-5.12-1.62-7.09-2.57-2.51-4.86-5.53-7.89-9.05,3.94-.47,7.15-1.08,10.37-1.16,2.44-.06,3.58-1.46,4.33-4.5,.99-4.07,2.37-7.98,3.83-12.78,1.5,4.88,2.89,9.01,4.02,13.26,.69,2.58,1.61,3.91,3.79,3.97,3.28,.09,6.55,.68,10.7,1.15-2.85,3.36-5.04,6.38-7.55,8.78-2.3,2.2-2.56,4.58-1.78,7.94,.87,3.75,1.4,7.64,2.35,12.96-3.66-3.05-6.39-5.68-9.36-7.65-1.18-.78-3.12-.77-4.3,.02-2.94,1.95-5.65,4.56-9.35,7.66Z"/>
  <path class="cls-1" d="M42.41,20.19c3.53,3.68,6.01,6.66,8.78,9,1.11,.94,3.04,1.16,4.28,.54,3.08-1.54,5.98-3.75,9.77-6.22-1.34,5.27-2.63,9.49-3.41,13.87-.31,1.77,.05,4.35,.86,5.77,2,3.53,4.43,6.6,7.1,10.45-3.53,0-6.52,.33-9.45-.09-2.88-.41-4.43,1-5.55,4.48-1.16,3.6-2.73,6.97-4.56,11.54-1.1-4.86-2.14-8.6-2.75-12.46-.59-3.67-1.68-5.69-4.73-5.93-2.98-.24-5.92-1.43-9.64-2.39,3.41-3.18,6.41-5.69,9.12-8.68,.93-1.03,1.61-3.33,1.55-4.99-.16-4.45-.79-8.88-1.39-14.89Z"/>
</svg>