<?xml version="1.0" encoding="UTF-8"?>
<svg id="Layer_1" data-name="Layer 1" xmlns="http://www.w3.org/2000/svg" viewBox="0 0 200 200">
  <defs>
    <style>
      .cls-1 {
        fill: #fff;
      }
    </style>
  </defs>
  <path class="cls-1" d="M0,125.57c7.4-20.6,13.09-42.29,19.8-63.33,3.43-10.76,6.6-21.69,10.02-33.02-.88-.17-1.46-.38-2.03-.37-2.36,.03-4.01-1.25-3.77-4.94,.21-3.33,2.03-3.88,4.03-3.87,6.67,.04,13.33,.01,20,.01,5.33,0,10.67,.02,16,0,6.39-.04,12.84,1.19,18.46-5.34,3.34-3.88,8.57-1.2,12-5.75,1.05-1.39,2.59-1.9,2.48-4.72-.1-2.84,1.18-4.35,3.18-4.24,1.75,.09,2.77,1.53,2.87,4.03,.22,5.45,3.26,6.73,6.05,7.64,4.73,1.55,9.47,2.85,13.35,7.34,1.5,1.74,3.17,1.14,4.77,1.14,14.67,.05,29.33,.03,44,.03,1,0,2,0,3,.02,1.98,.04,3.24,1.63,3.36,4.25,.12,2.68-1.06,4.78-3.05,4.45-5.38-.89-3.66,3.05-2.49,6.86,8.82,28.84,17.62,57.7,26.43,86.55,.46,1.52,1.01,3,1.37,4.57,.56,2.45-.3,4.21-1.75,5.26-1.57,1.13-3.04,.36-3.92-1.64-.87-1.99-1.42-4.27-2.08-6.44-8.99-29.51-17.97-59.03-26.98-88.53-.65-2.13-.94-4.56-2.37-6.25-1.72,1.49-1.91,4.25-2.58,6.47-9.11,29.96-18.14,59.96-27.19,89.95-.33,1.09-.63,2.19-.99,3.25-.97,2.86-2.42,4.9-4.73,3.24-1.91-1.37-2.21-3.92-1.31-6.71,.55-1.72,1.04-3.48,1.56-5.22,9.16-30.15,18.31-60.3,27.53-90.64-1.24-1.54-2.6-.87-3.8-.87-14.67-.06-29.33,.08-44-.13-3.09-.04-4.24,.76-4.22,5.69,.15,44.39,.12,88.78,.03,133.18,0,3.93,.45,5.88,3.57,6.58,6.45,1.45,11.91,6.14,16.1,13.22,1.85,3.13,3.76,3.96,6.42,3.9,8-.18,16-.04,24-.08,2.39-.01,5.15-.3,5.32,4.25,.18,4.74-2.57,4.64-4.98,4.64-35.17-.01-70.33,0-105.5-.02-2.34,0-5.14,.37-4.97-4.6,.17-4.79,2.97-4.24,5.28-4.25,7.83-.02,15.67-.12,23.5,.06,2.2,.05,3.69-.8,5.09-3.28,4.06-7.23,9.12-12.58,15.7-13.99,3.4-.73,2.63-4.03,2.63-6.91,.02-37.75,.02-75.49,.02-113.24,0-6.88-.11-13.77,.05-20.65,.08-3.3-.46-4.52-2.99-4.49-15.64,.17-31.28,.09-47.51,.09,5.31,17.45,10.42,34.32,15.58,51.16,4.18,13.66,8.48,27.25,12.55,40.98,1.05,3.55,4.03,8.28-.08,11.03-4.31,2.89-4.67-3.59-5.74-7.06-9.08-29.46-18.03-58.99-27.03-88.5-.72-2.37-1.5-4.7-2.28-7.12-2.08,1.05-2.07,3.77-2.67,5.75-9.35,30.58-18.61,61.21-27.93,91.81-2.11,6.91-3.07,7.24-7.16,3.08v-4.27Z"/>
  <path class="cls-1" d="M164.12,155.56c-8.16,0-16.33,.02-24.49-.01-1.97,0-4.47,.48-4.53-3.6-.06-4.22,2.08-5.31,4.79-5.25,6.33,.14,12.66,.1,18.99,0,1.13-.02,2.79,1.05,3.04-2.07,.18-2.23-.38-3.47-1.85-4.29-4.05-2.26-4.98-7.09-5.01-12.67-.01-2.29,.4-3.53,2.24-3.45,1.55,.07,2.55,.48,2.53,3.11-.01,2.32-.27,4.79,1.03,6.75,1.32,1.99,3,2.06,4.63,1.36,1.81-.77,2.43-2.93,2.56-5.51,.28-5.62-2.18-9.31-4.56-12.91-2.76-4.16-5.53-8.24-6.79-13.84-1.42-6.29-.73-11.96,3.28-15.65,1.65-1.52,2.43-2.85,2.31-5.5-.07-1.49,.63-2.04,1.57-2.08,.97-.04,1.69,.57,1.58,2.02-.25,3.33,1.14,4.26,3.02,5.41,3.99,2.44,4.47,7.67,4.49,13.13,0,2.39-.94,2.69-2.23,2.66-1.22-.03-2.42-.08-2.33-2.54,0-.24,0-.47,0-.71-.07-3.39-.11-6.87-2.98-8.09-1.61-.68-3.14,.13-3.87,2.19-1.21,3.42-.9,7.06,.61,10.11,1.82,3.66,3.92,7.06,6,10.43,6.73,10.91,6.43,17.51-1.44,26.7-1,1.16-.97,2.35-.86,3.68,.21,2.56,1.7,1.77,2.73,1.78,6.66,.07,13.33,.15,19.99-.02,2.7-.07,4.92,.88,4.93,5.04,0,4.54-2.77,3.81-4.87,3.81-8.16,.03-16.33,.01-24.49,.01Z"/>
  <path class="cls-1" d="M37.55,155.56c-8.32,0-16.64,.02-24.96-.02-1.95,0-4.45,.53-4.53-3.58-.08-4.26,2.05-5.31,4.75-5.26,6.32,.13,12.65,.11,18.97-.03,1.09-.02,2.8,1.33,3.18-1.77,.3-2.5-.41-3.82-2.05-4.8-3.58-2.14-4.39-6.7-4.57-11.65-.08-2.24-.07-4.19,2.22-4.26,2.08-.07,2.58,1.18,2.45,3.79-.16,3.24,.15,6.36,2.72,7.47,1.61,.7,3.4,.78,4.56-1.49,1.53-3,1.27-6.44,.32-9.49-1.44-4.61-4.31-7.75-6.54-11.56-3.15-5.37-5.81-11.02-4.28-18.67,.58-2.89,1.47-5.52,3.39-6.64,1.94-1.13,3.13-2.42,2.79-5.65-.16-1.5,.52-2.01,1.5-2.03,.96-.01,1.74,.44,1.54,1.94-.52,3.88,1.5,4.46,3.24,5.9,3.26,2.71,3.8,7.39,3.75,12.35-.02,1.93-.28,3.12-1.9,3.07-1.51-.05-2.59-.34-2.57-3.04,0-1.63-.19-3.32-.51-4.89-.54-2.63-1.96-3.83-3.81-3.54-1.84,.3-2.95,1.9-3.2,4.64-.37,4.08,.75,7.44,2.49,10.45,2.32,4.02,4.97,7.69,7.07,11.93,4.14,8.39,3.22,16.3-2.49,22-1.29,1.29-2.03,2.39-1.59,4.47,.47,2.19,1.9,1.5,2.97,1.51,6.49,.06,12.98,.15,19.47-.03,2.8-.08,4.82,1.39,4.72,5.37-.1,3.85-2.63,3.49-4.63,3.49-8.15,0-16.31,0-24.46,0Z"/>
</svg>