<?xml version="1.0" encoding="UTF-8"?>
<svg id="Layer_1" data-name="Layer 1" xmlns="http://www.w3.org/2000/svg" viewBox="0 0 200 200">
  <defs>
    <style>
      .cls-1 {
        fill: #fff;
      }
    </style>
  </defs>
  <path class="cls-1" d="M145.92,67.28c8.08,8.15,7.92,10.8-.66,18.04-1.58,1.33-3.17,2.65-4.74,3.99-9.07,7.68-11.34,7.78-21.78,.54-.12,1.89-.12,3.48-.34,5.05-.61,4.28-3.48,7.05-8.55,7.3-6.46,.32-12.97,.3-19.43,.03-6.39-.27-8.8-3.66-8.96-11.72-.36-.08-.87-.32-1.05-.2-9.91,6.76-11.92,6.65-21.18-1.19-1.15-.97-2.29-1.94-3.44-2.91-9.9-8.33-10.06-9.66-2.23-18.73-11.31-1.16-11.78-1.42-14.06-11.01-.49-2.06-1.8-1.88-3.38-1.88-8.3,0-16.61,.11-24.91-.06-3.17-.07-3.55,1.1-3.54,3.35,.09,16.47,.13,32.93-.03,49.4-.03,2.82,1.12,3.41,4.17,3.38,11.14-.13,22.28-.05,33.42-.05,2.41,0,5.37-.37,6.11,2.18,.76,2.61,1.44,5.71-.51,7.97-1.83,2.12-5.37,2.1-6.14-.68-.91-3.28-3.15-2.9-5.74-2.9-10.74,0-21.47-.12-32.21,.06-4.92,.08-6.78-1.36-6.74-5.68,.21-19.21,.22-38.42,0-57.63-.05-4.46,1.62-6.17,6.95-6.04,9.51,.24,19.04,.09,28.56,.05,1.66,0,3.4,.51,3.99-1.92,2.33-9.66,2.46-9.64,14.16-11-.18-1.54-1.85-2.13-2.82-3.15-3.67-3.86-3.73-7.88,.23-11.55,3.41-3.16,7.08-6.13,10.69-9.14,6.2-5.17,10.32-5.25,16.7-.41,.71,.54,1.46,1.03,3.09,2.17,0-2.26-.12-3.71,.02-5.14,.47-4.58,3.52-7.33,8.87-7.58,6.26-.29,12.56-.24,18.83-.02,6.46,.22,8.71,3.18,9.58,11.89,2.16,.02,2.87-1.69,4.22-2.58,4.46-2.92,8.99-3.13,13.18,.11,4.48,3.47,8.82,7.09,12.89,10.9,4.52,4.24,3.76,7.38-2.8,14.33,1.07,1.13,2.56,.51,3.83,.6,6.63,.51,10.14,3.08,10.25,8.77,.07,3.45,1.6,3.86,5.01,3.79,9.11-.17,18.23,.09,27.34-.11,5.02-.11,7.3,1.07,7.24,5.79-.25,19.38-.21,38.77-.02,58.15,.04,4.11-1.84,5.45-6.44,5.4-10.94-.14-21.88-.05-32.81-.04-2.37,0-4.88-.52-5.18,2.71-.17,1.8-2.19,2.28-4.22,2.03-2.23-.28-2.78-1.59-3.05-3.28-1.05-6.65,.28-8.04,8.04-8.04,10.53,0,21.07-.11,31.6,.06,3.37,.05,4.49-.65,4.46-3.66-.18-16.29-.13-32.59-.03-48.89,.02-2.48-.43-3.69-3.87-3.6-8.09,.21-16.2,.07-24.3,.07-1.81,0-3.27-.24-3.69,2.16-1.53,8.84-3.26,9.98-14.54,10.54Zm-9.53-15.8c.07-17.16-16.24-31.11-36.38-31.13-19.87-.01-36.34,13.81-36.42,30.58-.08,17.19,16.09,31,36.38,31.08,19.87,.08,36.35-13.74,36.42-30.53ZM100.21,6.51c-2.63,0-5.27-.13-7.89,.03-5.2,.32-2.71,3.79-3.11,5.94-.57,3.09,2.24,2.17,3.95,1.88,4.64-.77,9.21-.71,13.86,0,1.23,.19,3.09,1.3,3.86-1.01,1.48-4.38-.46-6.81-5.82-6.85-1.62-.01-3.24,0-4.85,0Zm-38.51,63.93c-1.57,2.7-7.57,3.55-4.71,7.18,3.08,3.91,7.44,7.28,11.91,10.15,3.57,2.29,4.77-1.88,6.9-3.2,2.44-1.51-.2-2.22-1.29-2.84-5.11-2.9-8.79-6.97-12.81-11.3Zm76.56,.45c-1.15,.13-1.59,1.15-2.25,1.94-2.47,2.96-5.15,5.97-8.81,7.68-5.65,2.65-3.03,4.43,.02,6.83,2.02,1.59,3.35,1.24,5.03-.24,3.22-2.84,6.58-5.56,9.85-8.36,1.12-.96,2.75-2.03,1.43-3.47-1.47-1.6-3.43-2.88-5.27-4.39Zm-38.3,25c2.43,0,4.86,.04,7.29,0,5.73-.11,3.2-3.84,3.52-6.12,.45-3.24-2.52-1.87-4.09-1.65-4.66,.66-9.25,.6-13.89-.07-1.14-.16-2.7-1.11-3.61,.64-1.88,3.61,.67,7.14,5.32,7.21,1.82,.02,3.64,0,5.47,0ZM61.71,31.55c1.13-.18,1.61-1.16,2.26-1.95,2.56-3.1,5.47-6.04,9.25-8,3.99-2.06,3.54-3.44,.41-5.84-2.49-1.92-4.11-2.15-6.42-.02-3,2.76-6.26,5.32-9.36,8-1.1,.95-2.74,2.01-1.39,3.45,1.49,1.59,3.42,2.88,5.24,4.37Zm76.21,.23q7.34-5.39,1.06-10.7c-1.14-.96-2.28-1.94-3.42-2.9q-6.45-5.44-12.4,1.07c5.93,3.3,10.83,7.52,14.77,12.53Zm-85.54,10.4c-4.11-.71-5.4,.88-5.17,4.22,.25,3.59,.12,7.2,.05,10.8-.08,4.36,3.74,3.02,6.48,3.25,3.94,.34,2.63-1.86,2.56-3.65-.14-3.76-.58-7.61,.13-11.28,.67-3.46-.94-3.76-4.05-3.34Zm91.49,10.33h-.05c0,1.2,.34,2.49-.06,3.58-1.7,4.6,1.56,4.51,5.31,4.39,2.99-.1,3.75-1.38,3.67-3.63-.11-3.26-.36-6.55,.05-9.77,.54-4.27-1.53-5.17-6.21-5.1-5.76,.09-2.41,3.1-2.66,4.87-.26,1.86-.06,3.77-.06,5.65Z"/>
  <path class="cls-1" d="M32.33,167.63c-13.48-12.37-14.44-25.13-2.88-34.72,10.19-8.46,27.1-8.4,37.25,.12,11.4,9.58,10.3,22.52-3.05,34.56,11.16,4.96,18.66,12.35,21.12,22.98,.52,2.24,1.6,3.06,4.43,2.98,7.08-.2,14.19-.2,21.27,0,2.99,.08,4.28-.7,4.85-3.2,2.41-10.5,9.86-17.76,21.24-22.82-7.31-5.33-11.7-11.79-11.02-20.09,.48-5.88,3.31-10.93,8.41-14.93,10.19-8.02,26.37-7.87,36.37,.22,11.67,9.44,10.8,21.76-2.55,34.93,11.47,5.02,19,12.63,21.14,23.59,.58,2.98,3.05,2.14,5.09,2.22,2.65,.1,5.77-.23,5.79,3.02,.03,3.33-2.97,3.52-6.02,3.52-62.41-.02-124.82-.02-187.23,0-2.94,0-6.13,.09-6.3-3.26-.19-3.66,3.27-3.2,6.07-3.25,2.2-.03,4.27,.37,4.85-2.49,2.15-10.73,9.54-18.25,21.18-23.36Zm14.75,25.85c8.49,0,16.99-.26,25.46,.09,5.3,.22,5.01-1.75,3.82-4.83-4-10.35-16.3-17.74-29.13-17.44-12.94,.31-24.61,8.16-28.08,18.64-.9,2.71-.48,3.66,3.08,3.59,8.28-.17,16.57-.05,24.86-.05Zm105.09,0c8.49,0,16.98-.04,25.46,.03,2.55,.02,4.25,0,3.47-2.98-2.7-10.4-15.61-19.12-28.83-19.22-13.09-.1-25.98,8.06-28.98,18.31-.74,2.52-.71,4.08,3.42,3.95,8.48-.26,16.97-.08,25.46-.08ZM29.24,149.08c.07,8.8,8.68,15.96,19,15.82,9.96-.14,18.49-7.37,18.63-15.79,.14-8.6-8.6-16-18.89-16-10.49,0-18.82,7.09-18.74,15.97Zm141.47,.64c.43-8.93-7.59-16.34-17.96-16.6-10.42-.26-19.22,6.62-19.62,15.35-.39,8.52,8.25,16.21,18.46,16.42,10.09,.22,18.71-6.62,19.12-15.18Z"/>
  <path class="cls-1" d="M99.67,141.08c-3.84,0-7.68,0-11.52,0-2.69,0-5.06-.73-5.18-3.28-.12-2.6,2.25-3.46,4.92-3.47,8.09-.05,16.17-.06,24.26,0,2.67,.02,5.02,.9,4.87,3.51-.15,2.56-2.54,3.24-5.22,3.24-4.04,0-8.09,0-12.13,0Z"/>
  <path class="cls-1" d="M100.17,123.67c4.24,0,8.47,0,12.71,0,2.36,0,4,.97,4.11,2.94,.13,2.25-1.51,3.41-4.17,3.42-8.68,.01-17.35,.03-26.03-.02-2.39-.01-3.82-1.22-3.82-3.19,0-1.99,1.49-3.11,3.87-3.14,4.44-.04,8.88-.01,13.32-.01Z"/>
  <path class="cls-1" d="M99.95,119.38c-3.03,0-6.07,.07-9.1-.02-2.43-.07-4.45-.85-4.5-3.26-.04-2.34,1.76-3.41,4.28-3.44,6.27-.08,12.53-.09,18.8,0,2.52,.04,4.28,1.16,4.19,3.5-.1,2.42-2.16,3.12-4.57,3.19-3.03,.08-6.06,.02-9.1,.02Z"/>
  <path class="cls-1" d="M100.03,67.44c-10.68,.01-19.38-7.16-19.51-16.08-.12-9.04,8.86-16.5,19.74-16.41,10.57,.09,19.28,7.51,19.2,16.35-.08,8.91-8.77,16.12-19.44,16.13Zm-.41-6.51c6.58,.14,12.2-4.38,12.14-9.79-.05-5.2-5.44-9.66-11.69-9.69-6.28-.03-11.67,4.33-11.83,9.56-.16,5.18,5.12,9.77,11.38,9.91Z"/>
</svg>