<?xml version="1.0" encoding="UTF-8"?>
<svg id="Layer_1" data-name="Layer 1" xmlns="http://www.w3.org/2000/svg" viewBox="0 0 200 200">
  <defs>
    <style>
      .cls-1 {
        fill: #fff;
      }
    </style>
  </defs>
  <path class="cls-1" d="M38.97,180.15c.24-.46,.2-.89-.12-1.29,1.01-2.72,2.02-5.44,3.03-8.15,.78-1.01,1.79-1.9,2.3-3.05,.75-1.7,3.6-3.07,1.53-5.33-1.7-1.85-4.08-4.23-6.07-4.14-2.47,.11-1.9,3.66-2.02,5.96-.31,.5-.35,1.02-.13,1.57-.07,1.09-.14,2.18-.22,3.27-1.37,3.29-2.74,6.57-4.11,9.86-3.83,5.35-7.64,10.72-11.5,16.04-3.08,4.24-6.9,5.51-11.02,2.12-4.14-3.41-4.46-8.04-.99-12.04,9.84-11.33,14.04-25.08,15.3-40.25,.2-2.43,.59-4.79,2.14-6.81,9.29-12.09,18.56-24.21,27.75-36.4,2.18-2.89,5.01-3.23,8.04-3.31,2.37-.7,3.14,4.47,6,1.97l-.07-.1c-2.45,2.85,.65,3.82,1.57,5.53,4.24,9.27,11.9,6.3,18.48,5.61,4.5-.47,8.41-1.15,11.22,3.59,1.7,2.86,1.71,6.3-.34,8.35-2.97,2.96-5.26,8.27-11.07,5.34-1.76-.89-4.38,.28-6.61,.48-8.39,.76-15.71-1.71-21.39-9.13-4.84,6.28-9.18,12.28-13.9,17.89-2.83,3.37-1.56,4.83,1.35,6.6,3.7,2.25,7.24,4.8,10.81,7.29,7.95,5.55,8.46,8.42,3.05,17.18-2.37,3.84-4.94,7.55-7.19,11.47-3.71,6.46-8.16,8.5-14.13,3.42-.57-1.18-1.13-2.36-1.7-3.54Z"/>
  <path class="cls-1" d="M167.75,8.44c-46.97,0-93.94,0-140.91,0-.48-.26-.96-.23-1.41,.08-2.93,1.85-1.29,4.88-1.3,7.26-.14,27.86,.16,55.73-.26,83.59-.11,7.19,1.47,10.03,8.16,8.86,2.82-.49,5.76-.08,9.06-.08-6.23,10.86-17.64,12.9-24.42,5.02-.02-36.64-.05-73.28-.07-109.92C18.29,.33,20.85,.06,23.75,.06,72.64,.13,121.54,.19,170.43,0c5.46-.02,6.76,2.31,6.73,7.75-.17,25.4-.22,50.8,.02,76.2,.06,6.47-2.35,8.69-7.82,8.02,.08-26.36,.18-52.72,.2-79.08,0-1.62,.96-4.03-1.8-4.45Z"/>
  <path class="cls-1" d="M122.16,187.62c-5.67,.2-13.17-11.75-11.22-17.48,2.81-8.24,.38-13.26-7.68-15.18-.9-.21-.97-.61-1.33-1.04-4.78-5.77-1.92-19.48,4.58-22.06,4.75-1.88,7.31-10.56,4.2-15.79-3.9-6.58,1.88-8.79,4.48-11.91,2.33-2.8,4.74-7.55,9.86-3.66,5.21,3.95,12.83,1.21,14.21-5.49,1.34-6.47,5.13-6.68,9.49-6.33,4.54,.37,10.05-2.18,11.7,6.29,1.3,6.66,9.12,9.22,14.34,5.4,2.55-1.87,4.66-2.01,6.57,.36,4.15,5.15,12.48,8.07,6.22,18.46-1.87,3.11,.11,11.11,6.1,12.35,6.85,1.42,6.32,7.08,6.27,11.88-.05,4.71,.74,10.75-6.72,11.13-3.83,.19-7.68,11.02-5.12,14.42,3.63,4.81,1.82,8.18-1.52,11.08-3.45,2.99-5.25,9.83-12.13,5.66-6.09-3.68-12.71-.04-14.31,6.99-1.81,7.95-8.72,4.5-13,6.88-3.16,1.76-5.9-2.26-7.25-5.38-4.17-9.67-6.51-10.91-15.92-7.36-.7,.26-1.37,.59-1.85,.8Zm54.71-9.68c2.54,.04,4.53-3.36,3.86-5.76-2.69-9.66,.67-19.71,8.22-24.93,1.63-1.13,3.37-2.47,3.3-4.92-.07-2.54-2.1-2.39-3.71-3.08-5.98-2.56-11.11-17.08-8.24-23.79,1.04-2.44,.95-3.79-.68-5.65-1.74-1.99-2.87-.65-4.45,.16-4.81,2.47-18.51-2.45-21.09-7.41-3.1-5.94-5.06-5.99-8.18-.19-2.75,5.12-16.68,10.42-21.24,7.85-1.84-1.04-3.06-2.26-5.03,.02-1.9,2.21-.92,3.62-.03,5.69,2.3,5.3-2.95,20.89-7.67,23.14-1.68,.8-4.44-.06-4.47,3.13-.03,2.71,1.85,4.11,3.87,5.36,6.07,3.74,10.51,17.02,7.74,23.94-.87,2.18-.79,3.35,.63,4.94,1.51,1.71,2.67,1.27,4.48,.37,6.95-3.44,19.43,2.23,22.26,10.19,.73,2.05,1.11,3.36,3.35,3.21,1.67-.11,2.83-.4,3.04-2.58,.58-5.95,4.56-7.52,9.11-9.08,5.21-1.78,10.01-7.33,14.93-.61Z"/>
  <path class="cls-1" d="M96.58,34.19c-19.19,0-38.39-.33-57.56,.18-6.66,.18-5.64-3.96-5.59-8.22,.05-4.14-1.27-8.44,5.49-8.39,38.62,.33,77.26,.36,115.88-.02,6.75-.07,5.53,4.07,5.51,8.21-.02,4.09,1.45,8.57-5.41,8.4-19.43-.48-38.87-.17-58.31-.17Z"/>
  <path class="cls-1" d="M70.59,41.58l.17,.71s.65,.18,.65,.18c-.05,10.42-.1,20.84-.16,31.26-5.53,3.41-11.55,1.56-17.29,1.52-6.97-.05-14.12,1.78-20.95-1.33,.09-10.49,.18-20.98,.26-31.47,0,0,.65-.17,.65-.17,0,0,.18-.71,.18-.71,12.16,0,24.32,0,36.47,0Z"/>
  <path class="cls-1" d="M91.33,156.02c-2.48-.12-4.95-.33-7.43-.35-6.92-.08-14.38,1.79-18.4-7.38-.64-1.45-2.77-2.2-4.29-3.09-8.68-5.1-8.86-6.52-1.96-13.6,1.41-1.44,2.38-2.56,4.34-1,6.78,5.4,14.66,4.57,22.3,4.02,4.83-.35,7.34-.07,6.28,6.59-.74,4.68,.34,9.72,.61,14.59-.5-.06-.98,.01-1.45,.22Z"/>
  <path class="cls-1" d="M28.3,125.01c-6.05,8.17-9.97,17.22-10.5,27.98-.19,3.92-1.61,3.67-5.14,1.9C3.06,150.08-.38,142.32,.03,131.4c.17-4.52,1.94-6.35,5.96-6.36,6.97,0,13.93-.23,20.9-.37,.45,.21,.92,.32,1.41,.34Z"/>
  <path class="cls-1" d="M69.13,83.82c3.54-3.32,6.86-6.98,12.27-5.83,6.71,1.42,11.84,8.09,11.13,14.85-.86,8.25-6.29,12.39-16.23,12.37-2.5-1.72-4.99-3.43-7.49-5.15,0,0,.07,.1,.07,.1,.35-1.46-.11-2.59-1.17-3.48-.09-3.1-.18-6.2-.26-9.3,.56-1.19,1.12-2.38,1.68-3.57Z"/>
  <path class="cls-1" d="M82.47,48.65c-1.05-1.09-2.1-2.18-3.15-3.27,11.42-2.46,22.97-.21,34.43-1.25,2.55,1.5,1.56,2.89-.1,4.26-10.39,.08-20.79,.17-31.18,.25Z"/>
  <path class="cls-1" d="M125.82,69.38c10.95,.06,21.9,.12,32.86,.17,.06,.98,.12,1.96,.17,2.94-.13,.36-.18,.74-.17,1.13-10.94-.03-21.88-.05-32.82-.08,.04-.41,0-.82-.12-1.22,.03-.98,.05-1.97,.08-2.95Z"/>
  <path class="cls-1" d="M62.73,82.61c.23,2.33,.11,4.46-2.74,4.47-7.61,.03-15.22,.12-22.83-.01-3.64-.06-3.45-2.08-1.51-4.58,9.03,.04,18.06,.08,27.09,.12Z"/>
  <path class="cls-1" d="M158.71,44.18c2.05,1.38,1.48,2.73-.03,4.08-10.53,.17-21.07,.34-31.6,.51-1.12-1.08-2.83-1.67-2.66-3.83,11.43-.25,22.86-.5,34.3-.76Z"/>
  <path class="cls-1" d="M85.23,72.34c-.47-.03-.91-.17-1.32-.42,1.47-.87,2.94-1.73,4.41-2.6,7.35-.07,14.69-.23,22.04-.15,1.85,.02,4.83-1.35,4.66,2.89-.48,.37-.97,.75-1.45,1.12,0,0,.18,.5,.18,.5-8.8-.11-17.61-.23-26.41-.34-.7-.34-1.4-.67-2.11-1.01Z"/>
  <path class="cls-1" d="M134.94,83.73c-.39,2.72-2.11,3.28-4.29,3.27-10.08-.03-20.16-.04-30.23,0-2.06,0-3.32-.67-3.03-3.21,12.52-.02,25.04-.04,37.56-.06Z"/>
  <path class="cls-1" d="M128.81,60.97l-1.55-.56c-.47-.97-.94-1.94-1.41-2.9,.06-.39,.08-.78,.04-1.17,8.39,.16,16.78,.32,25.17,.49-.22,1.22-.44,2.43-.65,3.65-7.2,.17-14.4,.34-21.6,.51Z"/>
  <path class="cls-1" d="M80.83,60.72c-.23-.5-.29-1.03-.16-1.57,.56-.49,1.12-.98,1.68-1.48,.22-.37,.29-.78,.2-1.21,9.83-.01,19.67-.02,29.5-.03-.1,.44-.03,.85,.21,1.22-.14,.94-.27,1.88-.41,2.83-10.34,.08-20.68,.17-31.02,.25Z"/>
  <path class="cls-1" d="M134.94,83.73c-12.52,.02-25.04,.04-37.56,.06-.03-.58-.05-1.16-.08-1.74,12.47-.02,24.94-.05,37.41-.07,.39,.54,2.08,.88,.22,1.76Z"/>
  <path class="cls-1" d="M50.9,95.98c-5.15,4.43-10.75,2.48-16.32,1.49,5.19-3.7,10.78-1.34,16.32-1.49Z"/>
  <path class="cls-1" d="M112.33,94.58c-5.35,6.13-9.87,3.81-14.06,3.86-.22,0-.77-1.76-.65-1.85,4.27-3.05,8.86-.42,14.7-2.01Z"/>
  <path class="cls-1" d="M151.07,56.82c2.52-.19,5.04-.38,7.57-.58,.93,1.14,1.73,2.33,1.42,3.99-3.21,.08-6.42,.15-9.64,.23,.22-1.22,.44-2.43,.65-3.65Z"/>
  <path class="cls-1" d="M88.32,69.33c-1.47,.87-2.94,1.73-4.41,2.6-1.19,.15-2.61,.42-3.05-1.1-.33-1.15,.69-1.77,1.75-1.75,1.9,.04,3.81,.16,5.71,.25Z"/>
  <path class="cls-1" d="M112.23,60.96l-.38-.49c.14-.94,.27-1.88,.41-2.83,.91,.01,1.83,.02,2.74,.03,.71,2.74-1.25,2.8-2.77,3.28Z"/>
  <path class="cls-1" d="M125.85,57.51c.47,.97,.94,1.94,1.41,2.9-1.12,.31-1.93-.22-2.34-1.29-.33-.86,0-1.49,.93-1.61Z"/>
  <path class="cls-1" d="M125.82,69.38c-.03,.98-.05,1.97-.08,2.95-1.59-1.04-2.17-2.04,.08-2.95Z"/>
  <path class="cls-1" d="M115,57.67c-.91-.01-1.83-.02-2.74-.03-.24-.37-.31-.78-.21-1.22,.57-.23,1.14-.46,1.72-.69,.41,.65,.82,1.3,1.23,1.95Z"/>
  <path class="cls-1" d="M158.85,72.5c-.06-.98-.12-1.96-.17-2.94,1.64,.87,2.24,1.81,.17,2.94Z"/>
  <path class="cls-1" d="M113.57,73.19c.48-.37,.97-.75,1.45-1.12-.08,1-.51,1.45-1.45,1.12Z"/>
  <path class="cls-1" d="M82.35,57.67c-.56,.49-1.12,.98-1.68,1.48-.1-.39-.25-.77-.27-1.16,0-.17,.26-.35,.4-.53,.52,.07,1.03,.14,1.55,.21Z"/>
  <path class="cls-1" d="M82.35,57.67c-.52-.07-1.03-.14-1.55-.21,0-.47,.03-.94,.07-1.4,.56,.13,1.12,.27,1.68,.4,.08,.43,.01,.84-.2,1.21Z"/>
  <path class="cls-1" d="M87.34,73.35c0,.36-.16,.59-.48,.7-.54-.57-1.09-1.14-1.63-1.71,.7,.34,1.4,.67,2.11,1.01Z"/>
  <path class="cls-1" d="M149.61,124.13c9.54-.12,17.73,8.55,17.96,19.01,.22,9.81-9.56,21.08-18.23,21-7.93-.07-17.03-10.95-17.35-20.73-.32-10.08,7.97-19.16,17.62-19.28Zm1.17,9.9c-7.94,.07-11.51,3.41-11.32,9.57,.18,5.9,4.76,10.69,10.28,10.75,5.43,.06,10.74-5.27,10.42-11.08-.38-7-4.09-10.12-9.38-9.25Z"/>
</svg>