<?xml version="1.0" encoding="UTF-8"?>
<svg id="Layer_1" data-name="Layer 1" xmlns="http://www.w3.org/2000/svg" viewBox="0 0 200 200">
  <defs>
    <style>
      .cls-1 {
        fill: #fff;
      }
    </style>
  </defs>
  <path class="cls-1" d="M36.03,0H123.48c1.91,3.02,3.92,5.97,3.21,9.88-.95,5.23,.9,7.63,6.59,6.93,7.28-.9,10.86,2.68,10.16,9.96-.47,4.88,.86,6.72,6.21,6.56,8.74-.25,10.2,1.66,10.3,10.61,.06,5.71,.14,11.43-.03,17.14-.11,3.63,.44,6.01,4.99,5.71,6.4-.42,8.7,3.28,8.55,9.26-.15,5.71,.35,11.46-.14,17.14-.46,5.36,1.04,7.15,6.67,6.91,6.74-.28,13.94-1.89,20.02,2.97v7.81c-2.51,1.09-2.35,3.7-3.07,5.71-8.96,24.88-17.87,49.77-26.65,74.72-1.91,5.43-4.59,8.72-11.08,8.7-50.73-.17-101.46-.14-152.19-.02-4.86,.01-7.02-1.22-7-6.55C.17,153.37,.18,113.3,0,73.24c-.02-5.34,2.1-6.77,6.95-6.59,6.75,.25,13.54-.24,20.28,.16,4.82,.28,6.25-1.26,6.16-6.09-.29-15.6,.01-31.22-.18-46.82-.06-4.92,.4-9.56,2.82-13.9Zm49.99,193.31c23.42,0,46.83-.08,70.25,.08,4.07,.03,6.45-.61,7.99-5.05,8.81-25.48,17.9-50.87,27.15-76.2,1.72-4.71,.67-5.71-4.1-5.7-47.61,.13-95.22,.13-142.83,0-4.05-.01-5.81,1.28-7.15,5.13-8.8,25.21-17.75,50.37-27,75.43-2.02,5.47-.81,6.49,4.67,6.43,23.67-.25,47.35-.11,71.03-.11Zm46.52-93.38c5.93,0,10.56-.27,15.14,.08,4.32,.33,5.74-.96,5.67-5.48-.28-16.37-.29-32.75,0-49.12,.09-4.74-1.69-5.42-5.83-5.39-22.87,.18-45.74,.21-68.61-.02-4.53-.05-5.62,1.38-5.53,5.68,.27,12.21,.09,24.43,.09,36.64q0,18.82,19.06,17.46c.16-.01,.29-.35,.44-.53-12.76-18.07-12.12-34.47,1.77-45.92,11.52-9.5,28.81-8.48,39.69,2.33,11.92,11.84,11.58,28.49-1.91,44.27ZM50.09,60.71c0-11.17-.04-22.33,.01-33.5,.04-9.02,1.38-10.39,10.45-10.42,18.18-.07,36.36-.14,54.53,.06,4.21,.05,5.27-1.45,5.21-5.41-.05-3.64-1.01-4.99-4.84-4.97-23.37,.15-46.74,.17-70.11-.01-4.2-.03-5.25,1.45-5.23,5.39,.13,27.78,.18,55.57-.04,83.35-.04,4.64,2.07,4.68,5.59,4.86,4.17,.21,4.53-1.72,4.49-5.08-.15-11.42-.06-22.85-.06-34.28ZM96.8,23.37c-11.42,0-22.85,.24-34.27-.11-4.86-.15-6.08,1.33-6.02,6.1,.26,21.55,.18,43.1,.06,64.64-.02,3.84,.19,6.13,5.19,6.13,5.06,0,5.18-2.4,5.15-6.19-.13-16.61-.09-33.23-.04-49.85,.03-9.26,1.61-10.85,10.89-10.88,17.39-.06,34.79-.03,52.18-.01,3.62,0,7.02,.77,6.92-5.2-.09-5.66-3.34-4.63-6.57-4.64-11.16-.01-22.33,0-33.49,0ZM31.97,106.84c-16.3,7.76-21.2-2.1-24.78-14.02v80.3c.34,.06,.69,.11,1.03,.17,7.72-21.6,15.44-43.21,23.75-66.46Zm98.49-14.69c8.59-11.78,7.66-24.79-2.07-33.11-9.33-7.98-23.16-7.31-31.67,1.52-8.44,8.76-8.5,21.79-.14,31.14,4.05-5.12,7.67-9.71,3.99-17.35-2.16-4.49,1.44-9.47,6.1-12.25,4.63-2.76,9.36-2.7,13.88,.28,4.54,2.99,7.79,8,5.56,12.54-3.65,7.44,.48,11.71,4.35,17.21Zm-97.18-4.95q0-13.84-13.49-13.84c-1.3,0-2.61,.14-3.89-.02-5.79-.76-8.28,.46-5.2,6.85,2.35,4.86,4.32,10.07,5.37,15.35,1.52,7.68,6.18,6.59,11.85,6.04,6.61-.65,5.31-4.94,5.36-8.92,.02-1.82,0-3.63,0-5.45Zm80.52,12.91c3.23-1.61,9.43,.96,9.36-5.26-.07-6.01-5.05-8.04-10.45-8.01-5.49,.02-9.53,3.37-9.07,8.52,.47,5.32,6.27,3.72,10.16,4.76Zm52.99-13.07c0-3.38-.1-6.76,.03-10.13,.11-2.69-.98-3.69-3.65-3.6-2.27,.08-3.28,.9-3.26,3.22,.06,6.76,.06,13.51,0,20.27-.02,2.32,.99,3.13,3.26,3.2,2.67,.08,3.77-.9,3.65-3.6-.14-3.11-.03-6.23-.03-9.35Zm-52.72-20.13c-4.48-.12-6.89,2.2-7.15,5.92-.26,3.7,1.74,6.49,5.81,6.83,4.44,.37,7.01-2.16,7.15-6.28,.13-3.75-2.18-6.18-5.81-6.47Z"/>
  <path class="cls-1" d="M106.94,156.49c-7.28,0-14.57,.14-21.85-.04-7.99-.2-11.45-3.44-11.51-11.42-.03-3.83-1.27-5.79-4.42-7.96-6.86-4.74-7.39-13.91-1.77-19.7,5.06-5.22,13.79-5.18,18.81,.07,5.52,5.78,5.01,15.25-1.99,19.65-4.22,2.65-5,5.62-3.93,9.55,1.25,4.6,5.37,3.2,8.54,3.23,12.49,.1,24.97,.07,37.46,.02,2.76,0,6.24,.71,6.72-3.39,.37-3.15,1.07-6.16-2.78-8.74-7.85-5.28-8.9-13.7-3.36-19.94,4.97-5.6,14.25-5.72,19.41-.26,5.78,6.11,4.86,14.8-2.74,20.02-2.89,1.98-3.24,4.02-3.46,7-.65,8.91-3.82,11.77-12.84,11.91-6.76,.1-13.53,.02-20.29,.02Zm34.26-24.92c2.72-5.23,2.07-8.44-1.62-10.63-2.43-1.44-5.06-1.08-7.06,.94-2.64,2.68-3.24,5.63,0,9.03,2.7-5.39,5.67-5.73,8.69,.65Zm-68.82-.28c2.16-2.74,3.51-7.5,7.27-2.16,2.71,3.84,2.91,.36,3.3-1.2,.77-3.13-.45-5.76-3.3-7.16-2.44-1.2-5.08-1.09-7.21,.99-2.88,2.82-2.88,5.82-.07,9.53Z"/>
</svg>