<?xml version="1.0" encoding="UTF-8"?>
<svg id="Layer_1" data-name="Layer 1" xmlns="http://www.w3.org/2000/svg" viewBox="0 0 200.01 169.98">
  <defs>
    <style>
      .cls-1 {
        fill: #fbb247;
      }
    </style>
  </defs>
  <path class="cls-1" d="M0,100.81c.84-.37,1.68-1.05,2.53-1.06,36.46-.05,72.92-.06,109.39-.03,6.97,0,13.77,5.05,16.39,11.89,2.65,6.92,.74,14.9-4.78,19.94-.48,.44-.98,.85-1.58,1.37,.26,.15,.45,.34,.65,.35,10.8,.69,20.33-2.16,28.12-9.93,5.98-5.97,11.88-12.02,17.99-17.85,8.14-7.76,20.95-6.78,27.58,1.93,5.58,7.32,4.84,17.29-1.89,24.12-6.12,6.2-12.33,12.31-18.5,18.45-3.04,3.03-6.08,6.06-9.12,9.08-7.17,7.12-15.85,10.84-25.93,10.86-36.01,.08-72.01,.05-108.02,.02-5.49,0-8.93-3.37-9.36-8.88-.27-3.55-2.68-5.8-6.28-5.82-4.75-.02-9.51,.03-14.26-.04-.98,0-1.95-.45-2.93-.69v-53.71Zm3.15,51.44c4.79,0,9.4-.02,14,0,5.19,.02,8.85,3.39,9.34,8.55,.4,4.18,2.52,6.14,6.75,6.14,35.74,0,71.49,.03,107.23,0,9.35,0,17.4-3.34,24.06-9.92,3.51-3.47,7-6.97,10.5-10.45,5.75-5.73,11.56-11.42,17.25-17.22,6.59-6.72,6.08-16.93-1.02-22.71-6.07-4.94-14.88-4.45-20.8,1.3-5.87,5.71-11.63,11.54-17.42,17.32-7.3,7.28-16.06,11.06-26.43,11.07h-57.8c-.65,0-1.38,.15-1.93-.09-.55-.24-1.27-.87-1.28-1.34,0-.49,.66-1.2,1.2-1.43,.61-.27,1.4-.13,2.12-.14,14.39-.04,28.78,.03,43.16-.16,8.85-.11,15.85-9.27,13.96-17.89-1.68-7.68-7.84-12.5-16.11-12.51-34.9-.02-69.8-.02-104.69-.03-.68,0-1.37,.07-2.1,.11v49.41h.01Z"/>
  <path class="cls-1" d="M144.56,66.07c5.44-5.21,10.7-10.23,15.94-15.28,1.5-1.44,2.96-2.92,4.37-4.45,1.11-1.21,2.09-1.3,3.28-.1,2.94,2.94,5.91,5.85,8.91,8.74,1.14,1.1,1.07,2.04-.02,3.14-10.06,10.16-20.11,20.33-30.13,30.53-1.26,1.28-2.24,1.14-3.45-.06-3.93-3.87-7.93-7.68-11.97-11.56-.52,.43-.97,.8-1.41,1.18-13.35,11.3-28.52,14.59-45,8.82-16.26-5.7-26.1-17.56-29.4-34.43C50.88,28.01,68.98,3.39,93.82,.37c24.49-2.98,45.77,12.29,50.5,36.4,1.58,8.05,.9,16.04-2.15,23.69-.78,1.96-.62,3.24,1.08,4.41,.57,.4,1.05,.94,1.32,1.19h-.01Zm-5.87-6.03c6.84-15.27,2.88-38.82-17.13-50.89-19.59-11.82-44.61-5.98-56.95,13.23-12.24,19.05-6.94,44.26,11.98,57.11,18.81,12.77,41.83,6.34,52.27-4.92-2.15-2.03-4.28-4.12-6.48-6.12-1.36-1.24-1.33-2.31-.04-3.6,2.86-2.84,5.62-5.77,8.45-8.64,1.46-1.48,2.19-1.49,3.78-.04,1.34,1.22,2.64,2.49,4.12,3.88h0Zm-13.24,6.56c6.63,6.38,13.11,12.62,19.76,19.04,9.64-9.77,19.11-19.37,28.14-28.52-2.4-2.64-4.61-5.07-7.32-8.05-.48,.77-.79,1.53-1.33,2.08-5.31,5.44-10.65,10.86-15.99,16.27-3.71,3.76-3.7,3.74-7.55,0-2.78-2.7-5.61-5.36-8.26-7.9-2.5,2.38-4.85,4.6-7.45,7.07h0Z"/>
  <path class="cls-1" d="M98.42,56.13c0-2.91,.06-5.82-.05-8.72-.02-.5-.66-1.17-1.17-1.41-1.52-.71-3.18-1.14-4.69-1.88-3.61-1.77-5.45-4.7-5.36-8.74,.09-4.03,2.14-6.83,5.7-8.58,.87-.43,1.8-.82,2.75-.96,1.52-.22,2.63-.58,2.96-2.4,.1-.56,1.54-1.3,2.27-1.21,.72,.09,1.76,1.05,1.88,1.77,.22,1.25,.83,1.44,1.86,1.76,2.15,.69,4.27,1.52,6.29,2.54,1.76,.89,2.18,2.42,1.41,3.9-.78,1.5-2.44,1.97-4.18,1.16-1.63-.76-3.25-1.53-5.33-2.51,0,3.47-.04,6.48,.05,9.47,.01,.36,.69,.82,1.16,1.02,1.6,.7,3.31,1.18,4.86,1.97,3.49,1.78,5.34,4.66,5.27,8.62-.07,4.01-2.05,6.86-5.6,8.67-.52,.26-1.06,.56-1.62,.66-2.56,.43-4.77,1.05-4.2,4.5,.08,.47-1.12,1.57-1.78,1.62-.78,.06-1.63-.69-2.41-1.15-.17-.1-.28-.49-.24-.71,.65-3.32-1.58-3.7-4.03-4.36-2.21-.6-4.31-1.77-6.32-2.93-1.98-1.13-2.42-2.88-1.44-4.39,.99-1.53,2.64-1.64,4.63-.53,2.22,1.24,4.53,2.33,6.8,3.48,.18-.22,.36-.43,.53-.65h0Zm4.44,.39c3.14-.26,4.9-1.85,4.92-4.3,.02-2.39-1.9-4.18-4.92-4.52v8.82Zm-4.51-25.64c-3.24,.35-4.97,1.95-4.9,4.37,.06,2.31,2.13,4.12,4.9,4.21,0,0,0-8.58,0-8.58Z"/>
  <path class="cls-1" d="M69.87,26.09c-1.45-.04-2.31-1.38-1.51-2.34,2.3-2.78,4.74-5.45,7.26-8.03,.34-.35,1.64-.19,2.14,.2,.32,.25,.28,1.57-.08,2-2.2,2.61-4.53,5.12-6.85,7.63-.28,.3-.75,.43-.95,.54h-.01Z"/>
</svg>