<?xml version="1.0" encoding="UTF-8"?>
<svg id="Layer_1" data-name="Layer 1" xmlns="http://www.w3.org/2000/svg" viewBox="0 0 200 200">
  <defs>
    <style>
      .cls-1 {
        fill: #fbb247;
      }
    </style>
  </defs>
  <path class="cls-1" d="M60.52,154.26c-4.58-10.48-7.41-21.56-8.74-33.34h-.67c-1.49,0-2.98-.02-4.47,0-1.05,.02-1.92-.38-2.42-1.65-.5-1.3-.21-2.45,.45-3.56,2.26-3.79,4.49-7.61,6.74-11.41,1.91-3.25,3.83-6.5,5.74-9.74,1.11-1.87,2.81-1.89,3.91-.02,4.21,7.13,8.41,14.27,12.62,21.4,.61,1.03,.78,2.14,.33,3.31-.45,1.17-1.23,1.67-2.23,1.67-1.37,0-2.74,0-4.2,0,.11,.81,.21,1.54,.32,2.26,4.3,26.67,19.75,47.79,40.12,54.43,13.91,4.54,27.26,2.24,39.86-6.68,9.51-6.72,16.74-16.45,21.95-28.73,.57-1.34,1.17-2.66,1.77-3.98,.73-1.62,2.04-2.1,3.28-1.18,3.14,2.33,6.27,4.68,9.39,7.04,1.18,.89,1.57,2.56,.93,4.08-3.45,8.13-7.22,15.96-12.18,22.74-11.18,15.28-24.76,24.67-40.79,28.05-4.58,.97-9.19,1.22-13.82,1.01-.54-.02-1.08,.06-1.62,.06-36.46,0-72.91,0-109.37,0-4.31,0-7.4-3.98-7.4-9.56,0-60.29,0-120.58,0-180.87C.02,4.03,3.11,.03,7.37,.03c36.53,0,73.07,0,109.6,0,4.23,0,7.31,4.01,7.32,9.52,0,4.01,0,8.03,0,12.04,0,.12,.01,.24,.03,.45,.37,.04,.73,.08,1.08,.1,13.06,.73,25.08,5.69,35.96,15.1,10.48,9.06,18.54,20.91,24.13,35.57,3.31,8.68,5.47,17.83,6.58,27.4,.09,.75,.25,1.04,.89,1.01,1.51-.07,3.02,0,4.52-.03,1.02-.02,1.83,.45,2.29,1.66,.46,1.2,.26,2.32-.36,3.37-4.19,7.09-8.36,14.19-12.55,21.28-1.15,1.95-2.83,1.94-3.98,0-4.16-7.05-8.31-14.11-12.48-21.16-.64-1.09-.9-2.22-.42-3.49,.49-1.28,1.35-1.68,2.41-1.65,1.31,.04,2.62,0,4.03,0-.15-.99-.26-1.9-.42-2.79-3.56-19.85-11.92-35.27-25.32-45.96-7.45-5.94-15.6-9.18-24.32-9.94-11.05-.97-21.41,2.12-31.02,9.24-8.44,6.25-15.12,14.87-20.07,25.73-.95,2.09-1.88,4.21-2.82,6.32-.8,1.8-2.08,2.3-3.44,1.18-.99-.82-2.01-1.07-3.16-1.06-11.7,.04-23.4,.02-35.1,.02-1.34,0-2.24-.92-2.46-2.47-.23-1.6,.62-3.17,1.86-3.42,.28-.06,.58-.05,.87-.05,9.28,0,18.57,0,27.85,0,.19,0,.37,0,.7,0-.65-.73-1.11-1.49-1.02-2.42,.08-.84,.32-1.7,.64-2.44,2.21-5.09,4.45-10.17,7.2-14.82,2.48-4.19,5.18-8.11,8.16-11.71,.17-.2,.34-.41,.65-.8-.37,0-.58,0-.79,0-14.58,0-29.16,0-43.75,0-.23,0-.47,.01-.7-.02-1.19-.19-2.05-1.44-2.04-2.97,0-1.56,.9-2.82,2.12-2.96,.25-.03,.5-.01,.75-.01,16.46,0,32.92,0,49.37,.01,.47,0,.84-.16,1.22-.51,9.01-8.39,18.98-13.81,29.94-16.07,2.59-.53,5.22-.75,7.84-1.07,.43-.05,.55-.21,.55-.76-.01-4.01,0-8.03,0-12.04,0-2-1.09-3.38-2.64-3.42-.14,0-.27,0-.41,0-36.34,0-72.68,0-109.02,0-2.02,0-3.01,1.26-3.01,3.86,0,60.11,0,120.23,0,180.34,0,2.65,.97,3.91,3.03,3.91,29.3,0,58.6,0,87.9,0h.46s.03-.09,.05-.13c-.15-.1-.3-.2-.46-.28-12.85-6.69-23.3-17.36-31.35-31.95-.64-1.16-1.27-1.54-2.34-1.53-10.29,.06-20.58,.04-30.87,.03-1.7,0-2.81-1.76-2.39-3.77,.24-1.17,.98-2,1.95-2.16,.25-.04,.5-.03,.75-.03,9.44,0,18.88,0,28.31,0,.25,0,.49,0,.86,0Zm8.96-75.8c.27-.61,.51-1.12,.73-1.65,2.99-7.01,6.57-13.44,11.11-18.88,15.23-18.24,33.09-25.16,53.43-19.85,16.01,4.18,28.44,15.66,37.43,33.31,4.53,8.88,7.38,18.66,8.78,29.15,.07,.54,.22,.69,.63,.68,1.8-.03,3.6-.01,5.39-.01,.17,0,.33-.03,.5-.05-3.29-33.82-23.71-63.88-51.52-71.34-29.34-7.88-58.51,10.78-72.01,44.52,1.82,1.36,3.63,2.72,5.52,4.14Zm105.08,65.23c-.08,.09-.12,.12-.14,.16-.31,.69-.63,1.38-.93,2.08-2.92,6.79-6.46,13-10.86,18.29-14.75,17.7-32.09,24.63-51.91,20.23-13.05-2.9-24.03-11.05-32.97-23.7-7.87-11.14-12.71-24.27-14.73-39.14-.07-.53-.21-.7-.63-.69-1.39,.03-2.78,.01-4.18,.01-.57,0-1.15,0-1.73,0,3.48,35.45,25.77,67.12,56.14,72.4,29.98,5.21,56.2-16.55,67.36-45.56-1.8-1.35-3.61-2.7-5.43-4.06Zm10.31-22.64c2.74-4.64,5.43-9.2,8.18-13.87h-16.36c2.75,4.67,5.44,9.23,8.18,13.87Zm-125.75-19.99c-2.73,4.63-5.42,9.2-8.15,13.83h16.31c-2.74-4.65-5.43-9.21-8.16-13.83Z"/>
  <path class="cls-1" d="M155.07,86.25c.85,2.43,1.69,4.69,2.43,7,.45,1.41,.78,2.89,1.13,4.35,.11,.44,.26,.58,.61,.58,.83,0,1.68-.05,2.49,.13,3.3,.74,5.6,4.33,5.62,8.68,0,2.68,0,5.37,0,8.05-.01,4.93-2.93,8.78-6.74,8.88-.6,.02-1.35-.24-1.75,.14-.39,.37-.43,1.38-.61,2.11-.81,3.28-1.89,6.41-3.28,9.6,.39,.44,.82,.87,1.2,1.36,2.83,3.68,2.83,9.12,0,12.78-1.43,1.86-2.87,3.73-4.31,5.59-2.65,3.42-6.89,3.44-9.57,.05-.43-.54-.82-1.42-1.3-1.52-.48-.1-1.06,.58-1.59,.93-2.23,1.48-4.54,2.68-6.95,3.55-.41,.15-.53,.38-.54,.92-.02,1.25,0,2.53-.21,3.73-.72,3.98-3.44,6.69-6.6,6.7-2.07,0-4.14,0-6.21,0-3.76-.01-6.74-3.81-6.82-8.7-.01-.65,.03-1.31-.02-1.95-.02-.22-.2-.55-.35-.6-2.93-1.1-5.73-2.6-8.39-4.51-.13-.09-.44,0-.57,.15-.6,.67-1.12,1.47-1.75,2.08-2.61,2.57-6.31,2.32-8.68-.62-1.62-2.01-3.21-4.07-4.76-6.17-2.46-3.35-2.43-8.7,.05-12.08,.44-.6,.93-1.13,1.41-1.71-.31-.78-.58-1.44-.85-2.1-1.15-2.88-2.08-5.88-2.75-9.01-.13-.62-.34-.75-.8-.75-.87,0-1.75,.01-2.59-.21-3.17-.85-5.35-4.39-5.35-8.58,0-2.71,0-5.42,0-8.13,0-4.85,2.91-8.69,6.66-8.82,.63-.02,1.42,.23,1.85-.17,.4-.37,.42-1.44,.61-2.2,.75-2.99,1.71-5.86,2.88-8.61,.1-.24,.2-.48,.35-.85-.42-.5-.86-.98-1.27-1.52-2.69-3.56-2.7-8.96-.02-12.52,1.46-1.94,2.93-3.86,4.43-5.75,2.74-3.46,6.93-3.4,9.65,.09,.4,.51,.77,1.31,1.23,1.41,.45,.09,.99-.54,1.49-.87,2.24-1.5,4.57-2.72,7-3.59,.42-.15,.57-.38,.57-.97,0-1.17-.02-2.38,.17-3.52,.61-3.73,2.97-6.55,5.91-6.78,2.56-.2,5.15-.22,7.71,.01,3.42,.32,5.97,4.11,6.04,8.56,.01,.82-.17,1.84,.14,2.4,.29,.52,1.11,.55,1.7,.79,2.33,.97,4.56,2.22,6.68,3.79,.43,.32,.66,.23,.97-.2,.88-1.24,1.81-2.42,3.07-3.01,2.75-1.3,5.23-.7,7.35,1.91,1.52,1.86,2.97,3.81,4.44,5.74,2.66,3.52,2.67,8.93,.02,12.47-.42,.56-.87,1.06-1.23,1.5Zm-33.11,77.65c.99,0,1.97,0,2.96,0,.02,0,.04,0,.06,0,1.43-.03,2.32-1.17,2.32-3.01,0-1.43,0-2.86,0-4.29,.01-1.72,.67-2.79,1.95-3.17,3.82-1.13,7.4-3.05,10.71-5.77,1.06-.87,2.15-.7,3.06,.46,.8,1.02,1.59,2.06,2.39,3.07,.99,1.26,2.25,1.27,3.25,0,1.45-1.85,2.88-3.71,4.31-5.59,.95-1.25,.93-2.9-.01-4.16-.76-1.01-1.53-1.99-2.29-2.98-1.02-1.33-1.13-2.66-.36-4.27,2.05-4.25,3.51-8.81,4.36-13.7,.29-1.64,1.13-2.52,2.44-2.53,1.08,0,2.17,0,3.25,0,1.48,0,2.39-1.16,2.4-3.08,.01-2.56,.01-5.12,0-7.68,0-1.87-.93-3.05-2.36-3.06-1.12,0-2.24,.02-3.36,0-1.25-.02-2.07-.89-2.35-2.48-.86-4.97-2.35-9.59-4.44-13.9-.68-1.41-.57-2.78,.32-3.97,.77-1.02,1.56-2.02,2.33-3.04,1.03-1.36,1.05-2.98,.02-4.33-1.4-1.84-2.81-3.66-4.23-5.48-1.01-1.29-2.29-1.28-3.29,0-.78,1.01-1.55,2.03-2.34,3.03-.94,1.19-2.01,1.35-3.11,.46-3.3-2.7-6.85-4.62-10.66-5.73-1.31-.38-1.97-1.47-1.98-3.22,0-1.4,0-2.81,0-4.21,0-1.88-.9-3.05-2.36-3.06-1.97-.01-3.95-.01-5.92,0-1.45,.01-2.35,1.18-2.36,3.06,0,1.43,0,2.86,0,4.29-.02,1.72-.68,2.77-1.97,3.15-3.81,1.11-7.36,3.03-10.66,5.74-1.09,.9-2.18,.73-3.11-.45-.8-1.02-1.58-2.06-2.38-3.08-.96-1.22-2.25-1.23-3.21,0-1.45,1.85-2.88,3.71-4.31,5.59-.97,1.28-.96,2.93,.01,4.22,.73,.97,1.47,1.92,2.21,2.88,1.1,1.42,1.21,2.68,.4,4.38-2.03,4.23-3.48,8.77-4.33,13.64-.3,1.71-1.11,2.55-2.48,2.56-1.08,.01-2.17,0-3.25,0-1.42,.01-2.35,1.16-2.36,2.99-.02,2.61-.02,5.22,0,7.83,.01,1.84,.93,3,2.34,3.01,1.12,0,2.24,0,3.36,0,1.23,.01,2.1,.9,2.37,2.47,.85,4.97,2.34,9.59,4.43,13.9,.7,1.46,.59,2.81-.34,4.03-.76,1-1.53,1.99-2.3,2.98-1.04,1.35-1.07,2.98-.05,4.32,1.41,1.86,2.83,3.71,4.27,5.53,.99,1.27,2.25,1.25,3.25-.01,.79-1,1.56-2.02,2.34-3.03,.96-1.22,2.03-1.38,3.15-.45,3.27,2.68,6.78,4.57,10.55,5.69,1.44,.43,2.05,1.44,2.05,3.36,0,1.4-.01,2.81,0,4.21,.02,1.76,.92,2.9,2.27,2.93,1.01,.02,2.01,0,3.02,0Z"/>
  <path class="cls-1" d="M122,80.2c13,0,23.74,13.82,23.74,30.57,0,17.29-10.58,31.13-23.8,31.09-13.39-.04-23.84-14.33-23.73-31.2,.11-16.68,10.78-30.46,23.79-30.46Zm19.16,30.9c.01-13.69-8.56-24.87-19.12-24.93-10.55-.06-19.23,11.16-19.23,24.86,0,13.72,8.64,24.92,19.2,24.89,10.53-.03,19.14-11.18,19.15-24.81Z"/>
</svg>