<?xml version="1.0" encoding="UTF-8"?>
<svg id="Layer_1" data-name="Layer 1" xmlns="http://www.w3.org/2000/svg" viewBox="0 0 200 230">
  <defs>
    <style>
      .cls-1 {
        fill: #fbb247;
      }
    </style>
  </defs>
  <path class="cls-1" d="M115.68,106.81c-21.89-11.81-44.21-13.56-67.14-4.16-23.05,9.45-39.62,31.63-39.63,52.67h4.47c18.52,0,37.03,.02,55.55-.01,2.54,0,4.8,.28,5.69,2.79,.9,2.56-1.29,4.78-4.93,4.82-8.27,.08-16.55,.05-24.82,.05-12.87,0-25.74,0-38.61-.01C1.15,162.95-.02,161.86,0,157.32c.15-27.42,20.46-53.28,49.99-63.64,1.33-.46,2.64-.95,4.09-1.48-26.7-17.28-35.61-36.7-27.29-59.15C34.27,12.87,55.22-.33,79.21,0c22.79,.32,43.34,14.59,50.02,34.54,6.18,18.45,.15,43.62-27.08,57.17,6.82,3.4,13.82,6.98,20.93,10.35,.89,.43,2.48,.03,3.59-.35,36.52-12.41,74.61,12.01,73.29,47.15-.45,12.05-5.63,22.45-14.65,31.38-1.33,1.31-2.31,3.44-2.33,5.2-.19,13.02-.09,26.04-.11,39.05,0,5.41-2.72,6.84-7.94,4.23-8.37-4.19-16.77-8.34-25.04-12.7-2.52-1.32-4.41-1.55-7.09-.1-8.22,4.43-16.66,8.52-25.02,12.73-5.37,2.71-8.2,1.23-8.21-4.35-.02-13.02,.05-26.04-.09-39.05-.02-1.59-.7-3.54-1.86-4.68-22.3-21.9-19.78-53.37,5.89-72.13,.6-.44,1.17-.9,2.17-1.67v.02Zm-38.07-17.8c24.9,.09,45.2-18.02,45.28-40.42,.08-22.47-19.95-40.75-44.81-40.86-25.07-.13-45.57,18.16-45.54,40.62,.02,22.41,20.15,40.57,45.07,40.68h0Zm68.61,98.58c25.07,0,45.31-18.27,45.26-40.85-.05-22.34-20.34-40.6-45.16-40.62-24.95-.02-45.43,18.46-45.31,40.89,.12,22.37,20.42,40.58,45.22,40.57h0Zm-27.95,31.98c7.13-3.59,14.04-6.51,20.25-10.35,5.61-3.47,10.13-3.22,15.63,.09,6.25,3.76,13.1,6.72,19.84,10.1v-30.87c-18.76,9.13-37.16,9.02-55.72-.12v31.15h0Z"/>
  <path class="cls-1" d="M112.53,147c-.06-16.87,14.92-30.5,33.6-30.57,18.61-.07,33.77,13.46,33.96,30.31,.19,16.61-15.1,30.5-33.68,30.61-18.54,.12-33.82-13.57-33.88-30.36Zm33.91-22.83c-14.07-.07-25.33,9.98-25.36,22.64-.03,12.48,11.06,22.68,24.83,22.83,13.9,.16,25.57-10.09,25.67-22.53,.1-12.57-11.19-22.87-25.14-22.94h0Z"/>
  <path class="cls-1" d="M146.28,143.23c1.45-2.27,2.84-4.52,4.33-6.72,1.41-2.07,3.4-3.04,5.95-1.71,2.49,1.3,2.77,3.34,1.45,5.47-2.54,4.12-5.18,8.19-7.79,12.27-.13,.21-.25,.52-.45,.56-1.83,.45-3.92,1.55-5.47,1.12-2.93-.83-6.31-7.58-5.24-9.46,1.31-2.3,3.42-2.69,5.97-1.78,.34,.12,.72,.14,1.25,.23v.02Z"/>
</svg>