<?xml version="1.0" encoding="UTF-8"?>
<svg id="Layer_1" data-name="Layer 1" xmlns="http://www.w3.org/2000/svg" viewBox="0 0 200 200">
  <defs>
    <style>
      .cls-1 {
        fill: #fbb247;
      }
    </style>
  </defs>
  <path class="cls-1" d="M87.01,190.75c3.13-.32,6.02-.53,8.89-.92,13.69-1.85,27.08-5.02,39.98-10.21,4.73-1.9,9.3-4.22,13.95-6.33,1.02-.46,1.49-1.18,1.57-2.37,.34-4.93,.69-9.86,1.17-14.78,.1-1.02,.75-1.99,1.22-3.19,2.28,2.2,4.22,4.03,6.08,5.94,.34,.35,.5,1.1,.45,1.64-.47,5.28-.94,10.57-1.59,15.83-.11,.9-.92,1.95-1.7,2.47-11.96,8.03-25.03,13.26-38.78,16.75-15.6,3.96-31.44,4.99-47.45,4.13-21.34-1.15-41.5-6.81-60.52-16.95-2.23-1.19-4.33-2.65-6.58-3.82-1.41-.73-1.85-1.86-1.98-3.34-.49-5.65-.99-11.3-1.51-16.95-.56-6.08-.13-12.08,1.45-17.96,2.37-8.83,7.62-14.51,16.31-16.8,11.91-3.14,22.91-8.59,33.48-15.05,.99-.61,1.37-1.35,1.34-2.51-.06-2.2-.09-4.4,.01-6.6,.06-1.38-.45-2.23-1.47-3.06-11.26-9.2-17.88-21.26-19.75-36.05C28.18,33.61,45.41,7.66,70.75,1.46c28.46-6.97,56.48,11.65,62.54,41.54,4.55,22.48-5.31,45.72-24.53,57.45-1.82,1.11-2.07,2.27-1.96,4.23,.13,2.25,1.05,3.52,2.89,4.45,1.92,.97,3.74,2.16,5.55,3.22,.52-2.58,.87-4.97,1.51-7.28,.61-2.18,1.31-2.27,2.87-.64,3.06,3.19,6.1,6.41,9.19,9.58,1.2,1.24,2.65,1.73,4.33,1.11,1.52-.57,2.64-1.74,2.6-3.33-.04-1.32-.57-2.91-1.41-3.88-2.87-3.3-5.97-6.37-8.97-9.54-1.52-1.6-1.39-2.28,.69-3.04,5.93-2.18,11.46-1.32,16.24,2.95,4.84,4.33,6.5,9.99,5.29,16.5-.23,1.25-.06,2.04,.8,2.9,2.78,2.79,5.48,5.66,8.01,8.28-3.46,3.63-6.82,7.14-10.34,10.82-.11-.1-.59-.51-1.02-.97-2.4-2.5-4.76-5.05-7.22-7.48-.49-.48-1.46-.86-2.08-.71-3.99,.98-7.78,.43-11.42-1.39-5-2.5-9.96-5.08-14.94-7.62-.31-.16-.63-.28-1.2-.54-6.87,22.73-13.72,45.38-20.53,68.04-.41,1.36-.4,2.85-.63,4.62ZM39.15,60.18c.11,.76,.22,1.84,.44,2.9,5.11,24.65,26.72,40.18,50.49,36.28,19.33-3.17,34.89-20.68,36.53-40.99,.13-1.62-.32-1.97-1.73-2.05-5.18-.31-10.37-.61-15.54-1.16-10.21-1.09-20.1-3.57-29.4-8.26-1.13-.57-1.96-.59-3.03,.17-5.66,3.98-11.78,7.04-18.37,8.8-6.3,1.68-12.73,2.86-19.4,4.32Zm13.44,58.11c-.36,0-.5-.04-.59,0-.47,.23-.95,.47-1.41,.73-9.96,5.7-20.34,10.31-31.36,13.27-4.64,1.25-7.56,4.37-9.24,8.92-1.67,4.52-2.1,9.26-1.87,14.03,.26,5.24,.81,10.46,1.17,15.69,.08,1.2,.57,1.9,1.59,2.35,4.65,2.11,9.22,4.42,13.95,6.33,12.89,5.19,26.28,8.36,39.96,10.21,2.87,.39,5.76,.6,8.87,.92-.2-1.7-.17-3.13-.56-4.42-6.82-22.72-13.68-45.41-20.51-68.04Zm-13.68-66.65c.76-.06,1.39-.07,2.01-.15,6.86-.9,13.4-3.08,19.94-5.32,11.2-3.84,20.53-10.11,26.42-21.18,1.16-2.18,3.32-2.53,5.27-1.21,1.82,1.23,2.35,3.4,.97,5.41-2.3,3.37-4.82,6.58-7.26,9.84-.37,.5-.83,.94-1.42,1.62,13.43,6.21,27.36,7.49,41.51,7.92-1.57-19.91-19.13-41.87-45.58-40.65-25.4,1.16-41.42,23.37-41.86,43.72Zm60.53,53.41c-13.37,4.42-26.32,3.63-39.42-2.63,.19,5.14-.07,9.88,.67,14.43,.72,4.4,2.44,8.63,3.83,12.89,.24,.74,.95,1.56,1.64,1.87,8.94,3.95,18.14,4.58,27.54,2.09,1.09-.29,1.63-.92,1.94-2.03,.94-3.33,1.79-6.7,3.02-9.92,2.07-5.44,.89-10.93,.77-16.7Z"/>
  <path class="cls-1" d="M157.4,148.8c3.49-3.65,6.87-7.17,10.41-10.87,2.65,2.79,5.55,5.7,8.28,8.77,1.31,1.47,2.48,1.89,4.51,1.55,5.93-.99,11.14,.87,15.01,5.82,3.93,5.03,4.72,10.74,2.65,16.86-.76,2.24-1.29,2.34-2.86,.71-3.11-3.23-6.17-6.5-9.32-9.69-1.53-1.55-3.7-1.66-5.29-.46-1.46,1.1-2.12,3.16-1.39,4.88,.34,.81,.94,1.55,1.54,2.19,2.91,3.09,5.86,6.14,8.78,9.22,1.38,1.45,1.25,2.14-.63,2.84-5.89,2.19-11.43,1.5-16.27-2.74-4.9-4.29-6.55-9.94-5.43-16.45,.23-1.36,.06-2.24-.91-3.21-3.12-3.12-6.13-6.35-9.08-9.42Z"/>
  <path class="cls-1" d="M155.48,96.24c2.23-1.41,4.4-1.67,6.49-1.43,2.58,.3,5.27,.67,7.64,1.71,8.06,3.56,14.75,9.08,19.9,16.53,1.44,2.08,2.55,4.27,2.74,7,.09,1.32,1.19,2.56,1.92,4.02,.66-.58,1.09-.97,1.54-1.33,1.2-.96,2.42-.92,3.47,.19,.99,1.04,1.15,2.38,.19,3.47-2.19,2.45-4.45,4.86-6.81,7.13-.99,.95-2.34,.86-3.35-.17-1-1.03-.98-2.29-.26-3.51,.24-.4,.56-.75,1.08-1.42-2.14-1.61-4.2-3.17-6.28-4.69-.27-.2-.7-.4-.98-.31-1.99,.61-3.5-.28-4.81-1.79-8.25,8.64-16.37,17.15-24.51,25.67-1.92-2.11-3.68-4.04-5.41-5.95,7.95-8.31,16.07-16.8,24.31-25.42-1.59-1.72-1.33-3.22-.58-5.01,1.02-2.43,.22-4.8-1.19-6.89-2.09-3.08-5.1-4.79-8.43-5.91-2.08-.7-4.22-1.19-6.65-1.86Z"/>
  <path class="cls-1" d="M124.68,181.52c-.63-.38-1.26-.6-1.69-1.04-2.38-2.42-4.75-4.87-7.06-7.37-1.2-1.29-1.17-2.41,.12-3.62,8.97-8.45,17.96-16.89,26.97-25.3,1.36-1.27,2.47-1.17,3.85,.2,1.14,1.13,2.25,2.31,3.34,3.49,1.52,1.63,1.54,2.87,.07,4.6-7.2,8.41-14.41,16.81-21.61,25.22-.78,.91-1.52,1.86-2.35,2.71-.43,.44-1.03,.71-1.63,1.11Z"/>
  <path class="cls-1" d="M25.06,143.32c7.67,0,15.26-.02,22.85,.05,.37,0,1.04,.77,1.04,1.18,.06,7.58,.04,15.15,.06,22.73,0,1.05-.48,1.38-1.4,1.38-7.13-.01-14.25,0-21.38,0-.88,0-1.44-.22-1.43-1.32,.03-7.76,.03-15.52,.04-23.28,0-.17,.1-.34,.22-.74Z"/>
</svg>