<?xml version="1.0" encoding="UTF-8"?>
<svg id="Layer_1" data-name="Layer 1" xmlns="http://www.w3.org/2000/svg" viewBox="0 0 60 35.26">
  <defs>
    <style>
      .cls-1 {
        fill: #5c2e63;
      }
    </style>
  </defs>
  <path class="cls-1" d="M29.99,15.99c4.44,0,8-3.59,8-8,0-4.42-3.57-8-8-8s-7.98,3.58-7.98,8,3.58,8,7.98,8Z"/>
  <path class="cls-1" d="M36.41,17.3h-12.82c-2.29,0-4.17,2.1-4.17,4.68v12.87c0,.14,.07,.27,.08,.41h20.99c.02-.15,.07-.27,.07-.41v-12.87c0-2.58-1.87-4.68-4.16-4.68Z"/>
  <path class="cls-1" d="M51.52,19.81c3.56,0,6.42-2.87,6.42-6.41s-2.86-6.41-6.42-6.41-6.4,2.87-6.4,6.41c0,3.54,2.86,6.41,6.4,6.41Z"/>
  <path class="cls-1" d="M56.67,20.85h-10.27c-1.84,0-3.35,1.68-3.35,3.76v10.32c0,.11,.05,.22,.06,.34h16.83c0-.12,.06-.23,.06-.34v-10.32c0-2.07-1.5-3.76-3.33-3.76Z"/>
  <path class="cls-1" d="M8.48,19.81c3.56,0,6.41-2.87,6.41-6.41s-2.86-6.41-6.41-6.41-6.4,2.87-6.4,6.41,2.86,6.41,6.4,6.41Z"/>
  <path class="cls-1" d="M13.62,20.85H3.34c-1.84,0-3.34,1.68-3.34,3.76v10.32c0,.11,.05,.22,.06,.34H16.9c0-.12,.06-.23,.06-.34v-10.32c0-2.07-1.5-3.76-3.33-3.76Z"/>
</svg>