<?xml version="1.0" encoding="UTF-8"?>
<svg id="Layer_1" data-name="Layer 1" xmlns="http://www.w3.org/2000/svg" viewBox="0 0 200 200">
  <defs>
    <style>
      .cls-1 {
        fill: #5c2e63;
      }
    </style>
  </defs>
  <path class="cls-1" d="M200,122.81v77.19H40.91v-26.39h51.26v-23.75h48.21v-27.04h59.62ZM88.23,13.9c0,7.68,5.97,13.9,13.34,13.9s13.34-6.22,13.34-13.9S108.94,0,101.57,0s-13.34,6.22-13.34,13.9Zm60.9,67.22c-1.29,3.1-4.82,4.35-7.79,2.93l-24.75-12.14c-1.45-.67-2.65-2.01-3.13-3.6l-4.18-12.31-5.79,30.15,19.52,.42c4.18,.08,7.47,3.77,7.39,8.12l-1.04,42.17c-.08,4.35-3.53,7.79-7.63,7.79h-.16c-4.26-.08-7.55-3.77-7.47-8.12l.88-34.3-24.34-.59-5.62,29.04c-.24,1.17-.72,2.43-1.37,3.43l-20.81,31.19c-2.65,4.02-7.79,4.86-11.65,2.09-3.78-2.76-4.66-8.12-1.93-12.06l19.77-29.35,12.67-74.8-25.2,24.25c-.44,.42-.93,.76-1.45,1.01l2.36,2.46-6.89,7.18,11.48,11.96-9.19,9.57L16.07,69.34l9.18-9.57,11.48,11.96,6.89-7.18,3.84,4c.29-.65,.7-1.26,1.23-1.79l31.57-31.23c4.17-3.74,10.85-5.99,16.64-4.99l5.46,1.09c7.31,1.34,12.94,6.53,15.27,13.31l5.95,16.99,22.58,11.05c2.97,1.34,4.26,5.02,2.97,8.12Zm-97.47-2.21l-8.04-8.37-4.02,4.19,8.04,8.37,4.02-4.19Zm-8.04,23.92l-2.3,2.39-4.59-4.79,2.3-2.39-13.78-14.36-2.3,2.39-4.59-4.79,2.3-2.39-6.89-7.18L0,86.09l36.74,38.28,13.78-14.36-6.89-7.18Z"/>
</svg>