<?xml version="1.0" encoding="UTF-8"?>
<svg id="Layer_1" data-name="Layer 1" xmlns="http://www.w3.org/2000/svg" viewBox="0 0 43.81 39.02">
  <defs>
    <style>
      .cls-1 {
        fill: #5c2e63;
      }
    </style>
  </defs>
  <path class="cls-1" d="M36.53,13.12l6.8,6.21c.82,.76,.59,1.35-.53,1.35h-5.1v16.23c0,1.11-.94,2.11-2.05,2.11h-8.85v-11.37c0-1.11-1-2.11-2.11-2.11h-5.57c-1.11,0-2.11,1-2.11,2.11v11.37H8.17c-1.11,0-2.11-1-2.11-2.11V20.68H1.02c-1.11,0-1.35-.59-.53-1.35L20.35,1.29c.82-.76,2.23-.76,3.1,0l4.51,4.04V2.11c0-1.11,1-2.11,2.11-2.11h4.39c1.11,0,2.05,1,2.05,2.11V13.12Z"/>
</svg>