<?xml version="1.0" encoding="UTF-8"?>
<svg id="Layer_1" data-name="Layer 1" xmlns="http://www.w3.org/2000/svg" xmlns:xlink="http://www.w3.org/1999/xlink" viewBox="0 0 201 201">
  <defs>
    <style>
      .cls-1 {
        fill: none;
        stroke: #5c2e63;
      }

      .cls-2 {
        fill: #5c2e63;
      }

      .cls-3 {
        mask: url(#mask);
      }
    </style>
    <mask id="mask" x="-6.01" y="-6.01" width="214.84" height="214.84" maskUnits="userSpaceOnUse"/>
  </defs>
  <path class="cls-2" d="M109.48,148.42h-17.97c-1.3,0-2.34-1.05-2.34-2.34v-10.2l-5.66-2.36-7.23,7.23c-.44,.44-1.04,.68-1.65,.68s-1.22-.25-1.65-.68l-12.71-12.71c-.92-.92-.92-2.4,0-3.32l7.21-7.21-2.32-5.67h-10.23c-1.3,0-2.34-1.05-2.34-2.34v-17.97c0-1.3,1.05-2.34,2.34-2.34h10.2l2.36-5.66-7.23-7.24c-.91-.92-.91-2.4,0-3.31l12.7-12.71c.88-.89,2.43-.89,3.31,0l7.21,7.22,5.68-2.32v-10.23c0-1.3,1.05-2.34,2.34-2.34h17.97c1.3,0,2.34,1.05,2.34,2.34v10.2l5.65,2.36,7.23-7.23c.88-.88,2.44-.89,3.32,0l12.71,12.71c.44,.44,.68,1.04,.68,1.65s-.25,1.22-.68,1.65l-7.22,7.21,2.32,5.68h10.23c1.3,0,2.34,1.05,2.34,2.34v17.97c0,1.3-1.05,2.34-2.34,2.34h-10.2l-2.36,5.65,7.23,7.23c.44,.44,.68,1.04,.68,1.66s-.25,1.22-.68,1.66l-12.71,12.71c-.44,.44-1.04,.68-1.66,.68s-1.22-.25-1.66-.68l-7.21-7.22-5.67,2.32v10.24c0,1.3-1.05,2.34-2.35,2.34Zm-15.62-4.69h13.28v-9.45c0-.95,.58-1.8,1.46-2.17l8.57-3.52c.87-.37,1.87-.16,2.55,.51l6.65,6.67,9.39-9.39-6.69-6.68c-.67-.68-.87-1.69-.5-2.57l3.58-8.54c.36-.87,1.22-1.45,2.16-1.45h9.41v-13.28h-9.45c-.95,0-1.8-.57-2.17-1.45l-3.52-8.57c-.36-.87-.16-1.88,.51-2.55l6.67-6.66-9.39-9.39-6.68,6.69c-.68,.67-1.69,.88-2.57,.51l-8.54-3.57c-.87-.36-1.45-1.22-1.45-2.16v-9.43h-13.28v9.45c0,.95-.57,1.81-1.45,2.17l-8.57,3.52c-.88,.35-1.87,.16-2.55-.51l-6.66-6.66-9.39,9.39,6.69,6.69c.67,.67,.87,1.69,.5,2.57l-3.57,8.54c-.36,.87-1.22,1.44-2.16,1.44h-9.43v13.28h9.45c.95,0,1.81,.58,2.17,1.46l3.52,8.57c.36,.88,.16,1.88-.51,2.55l-6.65,6.65,9.39,9.39,6.69-6.69c.68-.68,1.69-.87,2.57-.5l8.54,3.58c.87,.36,1.44,1.22,1.44,2.16v9.41Zm6.63-21.35c-12.06,0-21.87-9.82-21.87-21.87s9.81-21.88,21.87-21.88,21.87,9.81,21.87,21.88-9.81,21.87-21.87,21.87Zm0-39.06c-9.48,0-17.19,7.71-17.19,17.19s7.71,17.19,17.19,17.19,17.19-7.71,17.19-17.19-7.71-17.19-17.19-17.19Zm0,117.19c-29.48,0-56.74-12.58-75.78-34.75v25.9h-4.69v-34.9H54.93v4.69H27.21c18.18,21.9,44.63,34.37,73.29,34.37,52.55,0,95.31-42.75,95.31-95.31h4.69c0,55.14-44.86,100-100,100ZM5.19,100.5H.5C.5,45.36,45.36,.5,100.5,.5c29.48,0,56.74,12.58,75.78,34.75V9.35h4.69V44.25h-34.9v-4.69h27.71C155.6,17.65,129.15,5.19,100.5,5.19,47.94,5.19,5.19,47.94,5.19,100.5Z"/>
  <g class="cls-3">
    <path class="cls-1" d="M109.48,148.42h-17.97c-1.3,0-2.34-1.05-2.34-2.34v-10.2l-5.66-2.36-7.23,7.23c-.44,.44-1.04,.68-1.65,.68s-1.22-.25-1.65-.68l-12.71-12.71c-.92-.92-.92-2.4,0-3.32l7.21-7.21-2.32-5.67h-10.23c-1.3,0-2.34-1.05-2.34-2.34v-17.97c0-1.3,1.05-2.34,2.34-2.34h10.2l2.36-5.66-7.23-7.24c-.91-.92-.91-2.4,0-3.31l12.7-12.71c.88-.89,2.43-.89,3.31,0l7.21,7.22,5.68-2.32v-10.23c0-1.3,1.05-2.34,2.34-2.34h17.97c1.3,0,2.34,1.05,2.34,2.34v10.2l5.65,2.36,7.23-7.23c.88-.88,2.44-.89,3.32,0l12.71,12.71c.44,.44,.68,1.04,.68,1.65s-.25,1.22-.68,1.65l-7.22,7.21,2.32,5.68h10.23c1.3,0,2.34,1.05,2.34,2.34v17.97c0,1.3-1.05,2.34-2.34,2.34h-10.2l-2.36,5.65,7.23,7.23c.44,.44,.68,1.04,.68,1.66s-.25,1.22-.68,1.66l-12.71,12.71c-.44,.44-1.04,.68-1.66,.68s-1.22-.25-1.66-.68l-7.21-7.22-5.67,2.32v10.24c0,1.3-1.05,2.34-2.35,2.34Zm-15.62-4.69h13.28v-9.45c0-.95,.58-1.8,1.46-2.17l8.57-3.52c.87-.37,1.87-.16,2.55,.51l6.65,6.67,9.39-9.39-6.69-6.68c-.67-.68-.87-1.69-.5-2.57l3.58-8.54c.36-.87,1.22-1.45,2.16-1.45h9.41v-13.28h-9.45c-.95,0-1.8-.57-2.17-1.45l-3.52-8.57c-.36-.87-.16-1.88,.51-2.55l6.67-6.66-9.39-9.39-6.68,6.69c-.68,.67-1.69,.88-2.57,.51l-8.54-3.57c-.87-.36-1.45-1.22-1.45-2.16v-9.43h-13.28v9.45c0,.95-.57,1.81-1.45,2.17l-8.57,3.52c-.88,.35-1.87,.16-2.55-.51l-6.66-6.66-9.39,9.39,6.69,6.69c.67,.67,.87,1.69,.5,2.57l-3.57,8.54c-.36,.87-1.22,1.44-2.16,1.44h-9.43v13.28h9.45c.95,0,1.81,.58,2.17,1.46l3.52,8.57c.36,.88,.16,1.88-.51,2.55l-6.65,6.65,9.39,9.39,6.69-6.69c.68-.68,1.69-.87,2.57-.5l8.54,3.58c.87,.36,1.44,1.22,1.44,2.16v9.41Zm6.63-21.35c-12.06,0-21.87-9.82-21.87-21.87s9.81-21.88,21.87-21.88,21.87,9.81,21.87,21.88-9.81,21.87-21.87,21.87Zm0-39.06c-9.48,0-17.19,7.71-17.19,17.19s7.71,17.19,17.19,17.19,17.19-7.71,17.19-17.19-7.71-17.19-17.19-17.19Zm0,117.19c-29.48,0-56.74-12.58-75.78-34.75v25.9h-4.69v-34.9H54.93v4.69H27.21c18.18,21.9,44.63,34.37,73.29,34.37,52.55,0,95.31-42.75,95.31-95.31h4.69c0,55.14-44.86,100-100,100ZM5.19,100.5H.5C.5,45.36,45.36,.5,100.5,.5c29.48,0,56.74,12.58,75.78,34.75V9.35h4.69V44.25h-34.9v-4.69h27.71C155.6,17.65,129.15,5.19,100.5,5.19,47.94,5.19,5.19,47.94,5.19,100.5Z"/>
  </g>
</svg>