<?xml version="1.0" encoding="UTF-8"?>
<svg id="Layer_1" data-name="Layer 1" xmlns="http://www.w3.org/2000/svg" viewBox="0 0 200 150">
  <defs>
    <style>
      .cls-1 {
        fill: #5c2e63;
      }
    </style>
  </defs>
  <path class="cls-1" d="M200,150l-2.45-41.77c.85-12.39-9.27-19.01-14.6-21.31-.33-.14-.68-.33-1.04-.55l-8.54,24.4-2.41-22.01,1.49-1.37-.41-5.98,3.97-1.62c-.01-.12-.03-.23-.03-.34v-6.2c1.64-2.24,2.89-6.78,3.62-11.93,1.04-.46,1.71-1.15,2.59-6.56,.62-3.81-.35-6.16-.59-6.16,.41-3.46,.98-10.31-.49-13.75,0,0,1.01-2.23,1.01-5.2-4.24,.74-17.76-9.91-21.8-1.24-5.86-.74-9.35,9.4-6.7,20.19,0,0-3.29-.19-1.97,5.45,1.23,5.3,2.22,6.51,3.95,7.27,.74,5.15,1.98,9.69,3.62,11.93v5.63l5.48,2.24-.42,6.28,1.49,1.37-2.48,22.7-10.73-24.7c-.1,.05-.2,.1-.3,.15-2.77,1.19-8.59,3.56-13.33,7.3l-.43,3.7-.03-.42h0c.08-1.18,.04-2.32-.08-3.41-1.34-12.01-14.08-18.72-20.03-21.35l-11.89,29.18-2.94-26.88,1.81-1.67-.51-7.66,4.9-2v-7.19c1.92-2.62,3.38-7.94,4.24-13.97,2.02-.89,3.18-2.3,4.62-8.51,1.54-6.61-2.31-6.39-2.31-6.39,3.11-12.64-.98-24.52-7.84-23.65-4.73-10.16-20.58,2.32-25.55,1.45,0,3.48,1.18,6.09,1.18,6.09-1.72,4.03-1.06,12.05-.57,16.1-.28,0-3.76,.04-2.28,6.39,1.44,6.21,2.6,7.63,4.62,8.51,.87,6.03,2.32,11.35,4.24,13.97v7.19l5.78,2.37-.49,7.3,1.81,1.67-3.13,28.64-12.6-30.94c-6.35,2.8-20.41,10.24-20.14,23.82l-.27-2.33c-4.74-3.74-10.55-6.11-13.32-7.3-.09-.05-.2-.1-.3-.15l-10.74,24.7-2.48-22.7,1.49-1.37-.42-6.28,5.48-2.24v-5.63c1.64-2.24,2.88-6.78,3.62-11.93,1.73-.76,2.71-1.97,3.95-7.26,1.31-5.64-1.98-5.45-1.98-5.45,2.65-10.79-.84-20.93-6.7-20.19-4.04-8.67-17.57,1.98-21.8,1.24,0,2.97,1.01,5.2,1.01,5.2-1.47,3.44-.9,10.28-.49,13.75-.24,0-1.21,2.35-.59,6.16,.88,5.4,1.55,6.1,2.58,6.56,.74,5.15,1.98,9.69,3.63,11.93v6.2c0,.11-.02,.22-.04,.34l3.98,1.62-.41,5.98,1.49,1.37-2.41,22.01-8.54-24.4c-.37,.22-.72,.41-1.04,.55-5.32,2.3-15.44,8.91-14.6,21.31L0,150H200Z"/>
</svg>