<?xml version="1.0" encoding="UTF-8"?>
<svg id="Layer_1" data-name="Layer 1" xmlns="http://www.w3.org/2000/svg" viewBox="0 0 200 200">
  <defs>
    <style>
      .cls-1 {
        fill: #5c2e63;
      }
    </style>
  </defs>
  <path class="cls-1" d="M187.05,25.84h-54.04V8.51c0-4.7-2.9-8.51-6.47-8.51h-53.07c-3.58,0-6.47,3.81-6.47,8.51V25.84H12.95c-7.14,0-12.95,7.64-12.95,17.02v33.39c0,6.08,2.48,11.7,6.47,14.73v100.5c0,4.7,2.9,8.51,6.47,8.51H187.05c3.57,0,6.47-3.81,6.47-8.51V90.99c4-3.04,6.47-8.65,6.47-14.73V42.86c0-9.39-5.81-17.02-12.95-17.02Zm-107.12-8.81h40.13v8.81h-40.13v-8.81Zm100.65,165.96H19.42V100.5l60.01,44.06,2.45,1.8v6.83c0,4.7,2.9,8.51,6.47,8.51h23.3c3.58,0,6.47-3.81,6.47-8.51v-6.83l62.46-45.86v82.48h0Zm-85.76-38.3v-19h10.36v19h-10.36Zm92.23-68.43c-3.14,2.31-66.01,48.46-68.93,50.61v-4.64c0-7.48-4.63-13.56-10.31-13.56h-15.62c-5.69,0-10.31,6.08-10.31,13.56v4.64c-1.93-1.42-68.09-49.99-68.93-50.61V42.86H187.05v33.39Z"/>
</svg>