<?xml version="1.0" encoding="UTF-8"?>
<svg id="Layer_1" data-name="Layer 1" xmlns="http://www.w3.org/2000/svg" viewBox="0 0 72 72">
  <defs>
    <style>
      .cls-1 {
        fill: #5c2e63;
      }
    </style>
  </defs>
  <path class="cls-1" d="M68.65,0h-28.78c-1.85,0-3.35,1.85-3.35,4.12V22.4c0,2.27,1.5,4.12,3.35,4.12h2.53v7.26c0,.5,.24,.96,.61,1.17,.14,.08,.29,.12,.43,.12,.25,0,.49-.11,.68-.31l7.74-8.23h16.8c1.85,0,3.35-1.85,3.35-4.12V4.12c0-2.27-1.5-4.12-3.35-4.12Zm-20.49,12.49l-1.54,1.84,.36,2.6c.03,.19-.04,.38-.16,.49-.07,.06-.15,.1-.24,.1-.06,0-.13-.02-.19-.06l-1.9-1.23-1.9,1.23c-.14,.09-.3,.07-.43-.04-.13-.11-.19-.3-.16-.49l.36-2.6-1.54-1.84c-.11-.13-.15-.33-.1-.51,.05-.18,.18-.31,.33-.34l2.12-.38,.95-2.37c.07-.17,.21-.28,.36-.28s.3,.11,.36,.28l.95,2.37,2.12,.38c.15,.03,.28,.16,.33,.34,.05,.18,0,.38-.1,.51Zm9.76,0l-1.54,1.84,.36,2.6c.03,.19-.04,.38-.16,.49-.07,.06-.15,.1-.24,.1-.06,0-.13-.02-.19-.06l-1.9-1.23-1.9,1.23c-.14,.09-.3,.07-.43-.04-.13-.11-.19-.3-.16-.49l.36-2.6-1.54-1.84c-.11-.13-.15-.33-.1-.51,.05-.18,.17-.31,.33-.34l2.12-.38,.95-2.37c.07-.17,.21-.28,.36-.28s.3,.11,.36,.28l.95,2.37,2.12,.38c.15,.03,.28,.16,.33,.34,.05,.18,0,.38-.1,.51Zm9.76,0l-1.54,1.84,.36,2.6c.03,.19-.04,.38-.16,.49-.07,.06-.15,.1-.24,.1-.06,0-.13-.02-.19-.06l-1.9-1.23-1.9,1.23c-.14,.09-.3,.07-.43-.04-.13-.11-.19-.3-.16-.49l.36-2.6-1.54-1.84c-.11-.13-.15-.33-.1-.51,.05-.18,.18-.31,.33-.34l2.12-.38,.95-2.37c.07-.17,.21-.28,.36-.28s.3,.11,.37,.28l.95,2.37,2.12,.38c.15,.03,.28,.16,.33,.34,.05,.18,0,.38-.1,.51Z"/>
  <path class="cls-1" d="M23.01,12.62c-7.04,0-10.94,4.49-10.86,13.14,.1,11.85,4.19,19.04,10.86,18.91,0,0,10.86,.54,10.86-18.91,0-8.65-3.67-13.14-10.86-13.14Z"/>
  <path class="cls-1" d="M42.22,53.66l-10.85-5.32-2.54-2.64c-.67-.7-1.66-.65-2.29,.12l-3.53,4.32-3.54-4.32c-.62-.76-1.61-.81-2.28-.11l-2.54,2.64-10.85,5.32c-3.49,1.71-3.49,16.94-3.79,18.34H46.01c-.3-1.39-.3-16.63-3.8-18.34Z"/>
</svg>