<?xml version="1.0" encoding="UTF-8"?>
<svg id="SvgjsSvg1016" xmlns="http://www.w3.org/2000/svg" viewBox="0 0 255.96 178.8">
  <defs>
    <style>
      .cls-1 {
        fill: #5c2e63;
      }
    </style>
  </defs>
  <g id="SvgjsG1018">
    <path class="cls-1" d="m39.4,35.04h-14.72C11.08,35.04,0,46.12,0,59.72v34.68c0,5.96,3.96,10.96,9.36,12.64l-1.6,60.84c-.08,2.88,1,5.64,3,7.68,2,2.08,4.72,3.2,7.6,3.2,5.4,0,9.92-4.04,10.56-9.4l3.04-26,3.12,26.04c.64,5.36,5.16,9.4,10.6,9.4,2.88,0,5.6-1.12,7.6-3.2s3.08-4.8,3-7.68l-1.6-60.84c5.4-1.72,9.36-6.68,9.36-12.64v-34.72c0-13.64-11.04-24.68-24.64-24.68Zm16.88,59.36c0,1.64-.72,3.08-1.8,4.08l-.64-24.32c-.04-2.16-1.84-3.96-3.96-3.76-2.16.04-3.84,1.84-3.76,3.96l.76,29.48h0v.04l1.68,64.24c0,.8-.28,1.52-.8,2.08-.56.56-1.28.88-2.08.88-1.44,0-2.68-1.08-2.84-2.56l-6.88-58.8c-.24-1.96-1.88-3.44-3.84-3.44s-3.64,1.48-3.84,3.44l-6.92,58.8c-.16,1.44-1.4,2.52-2.84,2.52-.8,0-1.52-.32-2.08-.88-.56-.56-.84-1.28-.8-2.08l2.44-93.76c.04-2.16-1.64-3.92-3.76-3.96-2.16-.2-3.92,1.64-3.96,3.76l-.76,24.4c-1.12-1-1.84-2.48-1.84-4.08v-34.68c0-9.32,7.6-16.92,16.92-16.92h14.68c9.32,0,16.92,7.6,16.92,16.92v34.64Zm-24.24-62.68c8.76,0,15.84-7.12,15.84-15.84S40.76,0,32.04,0s-15.88,7.12-15.88,15.88,7.12,15.84,15.88,15.84Zm0-23.96c4.48,0,8.12,3.64,8.12,8.12s-3.64,8.12-8.12,8.12-8.12-3.64-8.12-8.12c0-4.52,3.64-8.12,8.12-8.12Zm199.28,27.28h-14.68c-13.6,0-24.68,11.08-24.68,24.68v34.68c0,5.96,3.96,10.96,9.36,12.64l-1.6,60.84c-.08,2.88,1,5.64,3,7.68,2,2.08,4.72,3.2,7.6,3.2,5.4,0,9.92-4.04,10.56-9.4l3.04-26,3.08,26.04c.64,5.36,5.16,9.4,10.6,9.4,2.88,0,5.6-1.12,7.6-3.2s3.08-4.8,3-7.68l-1.6-60.84c5.4-1.72,9.36-6.68,9.36-12.64v-34.72c.04-13.64-11.04-24.68-24.64-24.68Zm16.92,59.36c0,1.64-.72,3.08-1.8,4.08l-.64-24.32c-.04-2.16-1.84-3.96-3.96-3.76-2.16.04-3.84,1.84-3.76,3.96l.76,29.48h0v.04l1.68,64.24c0,.8-.28,1.52-.8,2.08-.56.56-1.28.88-2.08.88-1.44,0-2.68-1.08-2.84-2.56l-6.88-58.8c-.24-1.96-1.88-3.44-3.84-3.44s-3.64,1.48-3.84,3.44l-6.92,58.8c-.16,1.44-1.4,2.52-2.84,2.52-.8,0-1.52-.32-2.08-.88s-.84-1.28-.8-2.08l2.44-93.76c.04-2.16-1.64-3.92-3.76-3.96-2.16-.2-3.92,1.64-3.96,3.76l-.64,24.36c-1.12-1-1.84-2.48-1.84-4.08v-34.68c0-9.32,7.6-16.92,16.92-16.92h14.68c9.32,0,16.92,7.6,16.92,16.92v34.68h-.12Zm-24.28-62.68c8.76,0,15.84-7.12,15.84-15.84s-7.12-15.88-15.84-15.88-15.84,7.12-15.84,15.88c0,8.72,7.12,15.84,15.84,15.84Zm0-23.96c4.48,0,8.12,3.64,8.12,8.12s-3.64,8.12-8.12,8.12-8.12-3.64-8.12-8.12c.04-4.52,3.68-8.12,8.12-8.12ZM89.24,27.28c0,.48.12,1,.28,1.44.08.2.24.4.36.56.12.2.2.44.4.6l8.4,9.04c.76.8,1.8,1.24,2.84,1.24.96,0,1.88-.36,2.64-1.04,1.56-1.44,1.64-3.92.2-5.48l-2.32-2.52h33.4c2.16,0,3.88-1.72,3.88-3.88s-1.72-3.88-3.88-3.88h-33.4l2.32-2.52c1.48-1.56,1.36-4.04-.2-5.48s-4-1.36-5.48.2l-8.4,9.04c-.16.2-.28.4-.4.64-.12.2-.28.36-.36.56-.16.48-.28.96-.28,1.48h0Zm64.72,18.24h-33.4c-2.16,0-3.88,1.72-3.88,3.88s1.72,3.88,3.88,3.88h33.4l-2.32,2.52c-1.48,1.56-1.36,4.04.2,5.48.76.68,1.68,1.04,2.64,1.04,1.04,0,2.08-.4,2.84-1.24l8.4-9.04c.16-.2.24-.4.4-.64.12-.2.28-.36.36-.56.36-.92.36-1.96,0-2.92-.08-.2-.24-.4-.36-.56-.12-.2-.2-.44-.4-.6l-8.4-9.04c-1.48-1.56-3.92-1.64-5.48-.2s-1.64,3.92-.2,5.48l2.32,2.52Zm-25.96,35.44c-26.96,0-48.92,21.96-48.92,48.92s21.96,48.92,48.92,48.92,48.92-21.96,48.92-48.92-21.96-48.92-48.92-48.92Zm0,90.08c-22.72,0-41.16-18.48-41.16-41.16s18.48-41.16,41.16-41.16,41.16,18.48,41.16,41.16-18.44,41.16-41.16,41.16Z"/>
    <path class="cls-1" d="m127,101.12c-4.36,0-9.08,1.32-11.8,3.32l2,5.2c2.08-1.56,5.36-2.56,8.36-2.56,5.2.08,7.84,2.88,7.84,7.12,0,3.72-2.08,6.96-5.8,11.32-4.12,4.96-5.6,9.84-5.12,14.28l.16,2.16h6.44l-.08-2.16c-.24-4.2,1.08-7.84,4.72-12.16,3.96-4.72,7.12-8.76,7.12-14.36-.04-6.28-4.32-12.16-13.84-12.16Zm-1.24,47.2c-2.88,0-4.96,2.16-4.96,5.2,0,2.88,2,5.12,4.88,5.12,3.04,0,4.96-2.24,4.96-5.12,0-3.04-1.96-5.2-4.88-5.2Z"/>
  </g>
</svg>