<?xml version="1.0" encoding="UTF-8"?>
<svg id="Layer_1" data-name="Layer 1" xmlns="http://www.w3.org/2000/svg" viewBox="0 0 199.75 249.61">
  <defs>
    <style>
      .cls-1 {
        fill: #5a2b5f;
      }
    </style>
  </defs>
  <path class="cls-1" d="M0,18.97c.33-1.95,.53-3.94,1.02-5.86C2.68,6.58,6.44,1.98,13.27,.44,14.58,.14,15.96,.02,17.31,.02,45.91,0,74.52,0,103.12,0c.34,0,.69,.03,1.38,.06-.66,.41-1.04,.67-1.44,.88-11.26,5.91-20.33,14.3-27.63,24.64-1.03,1.45-2.17,2.09-3.97,2.08-19.1-.05-38.19-.03-57.29-.03-.55,0-1.1,0-1.72,0V207.38H116.11c0-1,.05-1.98-.03-2.95-.02-.24-.4-.57-.68-.66-8-2.77-15.04-7.14-21.42-12.64-1.1-.95-2.27-1.17-3.66-.65-6.03,2.25-12.26,3.17-18.69,2.78-6.02-.37-11.54-2.26-16.73-5.59,.65-.39,1.2-.75,1.77-1.06,8.47-4.59,13.77-11.83,17.11-20.64,.34-.9,.22-2.19-.16-3.11-3.14-7.68-5.42-15.59-6.57-23.81-1.06-7.58-1.29-15.18-.69-22.81,1.15-14.81,5.82-28.46,13.52-41.1,6.13-10.06,13.94-18.47,24.31-24.28,8.39-4.71,17.39-7.32,27.02-7.67,14.72-.54,27.61,4.3,38.88,13.55,13.39,10.99,21.57,25.34,26.18,41.86,2.19,7.84,3.3,15.84,3.46,23.98,.38,19.82-4.34,38.21-15.51,54.71-8.24,12.16-19.05,21.21-33.09,26.07-6.9,2.39-14.01,3.41-21.31,3.12-.43-.02-.86,0-1.42,0,0,.57,0,1.04,0,1.5,0,6.71,.04,13.43-.01,20.14-.03,3.9-.59,7.72-2.24,11.3-3.08,6.66-8.21,10.19-15.64,10.2-29,0-58.01,.03-87.01,.01-3.11,0-6.27,.12-9.31-.4-6.06-1.05-10.01-4.95-12.15-10.56-.91-2.39-1.2-5.02-1.77-7.53-.09-.38-.17-.75-.25-1.13,0-70.33,0-140.67,0-211ZM155.2,155.45c3.91,0,7.83,.02,11.74,0,2.38-.02,3.69-1.52,3.44-3.88-.08-.71-.23-1.42-.46-2.1-3.49-10.39-5.32-21.08-6.01-32.01-.32-5.13-.75-10.29-1.64-15.34-1.75-9.88-7.29-17.42-15.79-22.51-9.06-5.42-18.4-4.31-27.43,.27-7.77,3.94-12.14,10.72-14.57,18.89-2.05,6.87-2.14,14.02-2.84,21.07-.62,6.28-1.19,12.55-2.82,18.67-1.09,4.08-2.24,8.15-3.19,12.27-.7,3.03,.76,4.69,3.83,4.69,7.55,0,15.1,.02,22.65-.02,1.41,0,2.18,.55,2.73,1.82,.52,1.19,1.16,2.39,2,3.38,3.4,4.03,9.23,3.87,12.43-.31,.7-.91,1.27-1.95,1.71-3,.56-1.31,1.37-1.91,2.83-1.88,3.79,.07,7.59,.02,11.38,.02Zm-90.93,60.1c-2.92,.08-5.31,1.3-7.27,3.4-5.22,5.59-4.87,14.98,.73,20.2,3.75,3.49,8.23,3.76,12.13,.72,6.54-5.09,7.15-15.54,1.23-21.31-1.9-1.85-4.14-2.94-6.83-3.01Z"/>
</svg>