<?xml version="1.0" encoding="UTF-8"?>
<svg id="Layer_1" data-name="Layer 1" xmlns="http://www.w3.org/2000/svg" viewBox="0 0 200 200">
  <defs>
    <style>
      .cls-1 {
        fill: #5a2b5f;
      }
    </style>
  </defs>
  <path class="cls-1" d="M.1,200c0-.37,0-.69,0-1,0-12.48-.27-24.96,.07-37.43,.42-15.48,9.07-26.69,25.43-33.23,11.8-4.72,23.82-9.02,35.73-13.55,.9-.34,1.31-.2,1.88,.44,12,13.73,24.03,27.45,36.05,41.17,.22,.25,.45,.49,.75,.82,.31-.33,.54-.57,.75-.82,12.02-13.72,24.05-27.44,36.05-41.17,.57-.65,.98-.79,1.88-.44,11.91,4.53,23.93,8.83,35.73,13.55,16.51,6.61,25.11,17.94,25.45,33.57,.26,12.27,.05,24.55,.05,36.82v1.26H.1Zm170.3-46.08h-26.47v6.66c.42,.02,.78,.05,1.14,.05,8.06,0,16.11,0,24.17,0,.2,0,.44,.05,.6-.02,.22-.1,.54-.3,.54-.46,.04-2.05,.02-4.09,.02-6.23Z"/>
  <path class="cls-1" d="M149.78,44.06c0,3.93,.02,7.87-.02,11.8,0,.68,.24,1.1,.82,1.54,4.57,3.5,5.86,8.6,3.21,12.87-2.19,3.53-5.71,5.64-10.19,6.57-.78,.16-1.08,.47-1.33,1.08-4.01,9.91-9.89,18.86-19.22,25.82-8.78,6.55-19.1,8.53-30.45,6.56-8.51-1.48-15.25-5.54-21.07-10.87-6.71-6.14-11.13-13.4-13.86-21.43-.48-1.4-1.09-2.17-2.92-2.63-4.99-1.25-8.51-4.01-9.59-8.53-.86-3.59,.42-6.76,3.27-9.44,.5-.47,.68-.93,.68-1.54-.02-7.5-.13-14.99,.02-22.49,.12-5.96,2.56-11.09,8.39-14.7,.76-.47,1.6-.89,2.48-1.14,1.28-.37,2.12-1.07,2.94-1.97,6.8-7.54,15.67-12.4,26.51-14.46,15.61-2.97,29.61,.08,42.07,8.6,6.04,4.13,11.19,8.96,15.51,14.43,2.61,3.31,3.45,7.02,3.26,10.99-.14,2.97-.03,5.96-.03,8.93h-.47Zm-30.16,1.36c-6.29,.38-12.56,.4-18.78-.52-12.03-1.78-22.62-6.19-31.75-13.15-1.02-.78-1.78-.81-2.54,.15-.97,1.21-1.95,2.46-2.56,3.81-2.75,6.06-3.51,12.44-3.15,18.85,.26,4.6,1.13,9.21,2.1,13.75,1.58,7.33,4.4,14.32,9.1,20.66,4.47,6.04,10.28,10.75,18.05,13.58,8.74,3.19,16.97,2.43,24.77-2.18,4.71-2.79,8.5-6.34,11.62-10.41,6.15-8.03,10.23-16.78,12.45-26.2,1.64-6.94,2.12-13.88,.38-20.85-1.05-4.19-2.73-8.17-5.48-11.78-.79-1.03-1.49-1.08-2.56-.28-.74,.55-1.47,1.12-2.26,1.6-4.12,2.51-8.86,3.61-13.74,4.35-1.3,.2-2.62,.34-3.93,.51-.02,.12-.05,.23-.07,.35,1.74,.48,3.47,.97,5.2,1.45-5.67,.56-11.12-.99-16.69-1.52,5.94,3.89,13,5.64,19.86,7.82Z"/>
</svg>