<?xml version="1.0" encoding="UTF-8"?>
<svg id="Layer_1" data-name="Layer 1" xmlns="http://www.w3.org/2000/svg" viewBox="0 0 200 250">
  <defs>
    <style>
      .cls-1 {
        fill: #5a2b5f;
      }
    </style>
  </defs>
  <path class="cls-1" d="M15.09,250c-.3-.13-.59-.31-.9-.39C5.23,247.37,.13,241,.12,231.92c-.02-24.24,0-48.48,0-72.72,0-46.61,.16-93.22-.12-139.82C-.07,8.08,8.13-.1,19.93,0c36.68,.32,73.36,.11,110.04,.12,9.36,0,16.5,5.62,18.15,14.28,.27,1.42,.25,2.91,.25,4.37,.02,17.89,.01,35.79,.01,53.68,0,.97,0,1.94,0,3.29,1.01,0,1.88,0,2.75,0,10.23,0,20.46-.02,30.69,0,10.65,.02,17.96,6.95,18.09,17.31,.12,9.43,.04,18.87,.02,28.31,0,2.94-1.32,4.57-3.6,4.64-2.37,.07-3.86-1.65-3.86-4.66-.03-9.11,0-18.22-.02-27.33-.01-7.31-3.74-10.95-11.18-10.95-33.44,0-66.87,0-100.31,0-.9,0-1.8,0-2.83,0v3.37h2.91c25.87,0,51.74,0,77.6,0,7.73,0,8.83,1.06,8.85,8.53,0,.97,0,1.96,.12,2.92,.69,5.57,5.05,9.44,10.77,9.57,1.58,.04,3.16-.02,4.74,.02,3.64,.09,5.7,2,5.91,5.57,.1,1.78,.04,3.58,.04,5.37,0,9.68,.01,19.36,0,29.04,0,5.06-1.91,6.89-7.08,6.9-1,0-2,0-2.99,0-6.75,.05-11.25,4.32-11.48,10.93-.06,1.71,.04,3.42-.09,5.12-.22,2.88-2.23,4.75-5.17,4.95-.91,.06-1.83,.03-2.74,.03-26.12,0-52.24,0-78.35,0h-3.03v3.37h2.75c33.44,0,66.87,0,100.31,0,7.59,0,11.28-3.62,11.29-11.1,.01-8.78,0-17.57,.01-26.35,0-.97,0-1.98,.26-2.9,.51-1.79,1.98-2.94,3.72-2.47,1.28,.35,2.39,1.66,3.29,2.77,.42,.52,.2,1.57,.2,2.38,0,8.87,.02,17.73,0,26.6-.02,11.49-7.07,18.39-18.77,18.39-10.8,0-21.61,0-32.8,0v2.71c0,13.5-.34,27.02,.11,40.5,.35,10.56-4.47,18.24-15.12,20.71h-51.9c-.63-.73-1.44-1.37-1.84-2.2-1.27-2.65,.77-5.11,4.24-5.11,15.22-.02,30.44,0,45.66-.01,7.36,0,11.36-3.94,11.37-11.18,0-14.23,0-28.47,0-42.7,0-.86,0-1.71,0-2.55h-9.65c0,4.87,.01,9.58,0,14.28-.02,5.92-2.99,8.83-9.05,8.83-31.94,0-63.87,0-95.81,0-6.09,0-9.05-2.86-9.05-8.81-.01-52.7-.01-105.4,0-158.1,0-6.01,2.86-8.75,9.03-8.75,31.94,0,63.87,0,95.81,0,6.26,0,9.07,2.78,9.07,8.99,0,10.08,0,20.17,0,30.25,0,.87,.07,1.73,.12,2.66h9.53c0-.92,0-1.72,0-2.52,0-18.14,0-36.27,0-54.41,0-7.38-3.98-11.24-11.55-11.24-36.68,0-73.35,0-110.03,0-7.73,0-11.71,3.85-11.71,11.35,0,70.84,0,141.67,0,212.51,0,7.5,3.98,11.37,11.7,11.37,15.05,0,30.11,.01,45.16-.01,2.19,0,3.96,.48,4.63,2.8,.61,2.1-.8,3.29-2.1,4.54H15.09Zm62.87-63.82c0,1.72,.13,3.2-.03,4.64-.22,1.94-1.45,3.08-3.48,3.19-2.04,.11-3.31-.97-3.81-2.83-.21-.77-.13-1.62-.13-2.43,0-38.07,0-76.13,0-114.2,0-.73-.07-1.48,.06-2.19,.36-2.03,1.67-3.25,3.76-3.2,2.08,.05,3.39,1.26,3.61,3.34,.11,1.01,.02,2.05,.02,3.07h45.56v-15.63H25.05V201.87H123.57v-15.69h-45.62Zm103.42-39.28v-32.16c-6.19,.45-11.56-1-15.94-5.22-4.44-4.29-5.72-9.7-5.44-15.62H78.12v73.98h81.75c-.63-12.91,8.42-21.71,21.51-20.98ZM47.16,52.29H123.6v-11.14H47.16v11.14Zm-22.14-11.08v11.12h14.34v-11.29c-4.48,0-8.79,0-13.09,0-.4,0-.8,.1-1.25,.17Z"/>
  <path class="cls-1" d="M74.4,213.39c6.97,.06,12.61,5.69,12.54,12.52-.07,6.78-5.92,12.39-12.82,12.3-6.93-.09-12.65-5.81-12.56-12.57,.09-6.8,5.86-12.3,12.84-12.25Zm5.05,12.45c.04-2.77-2.33-5.12-5.18-5.12-2.74,0-5.08,2.19-5.2,4.87-.12,2.72,2.26,5.19,5.07,5.28,2.8,.08,5.27-2.26,5.32-5.02Z"/>
  <path class="cls-1" d="M74.38,16.14c3.24,0,6.48-.03,9.71,.01,2.55,.03,4.16,1.43,4.2,3.53,.04,2.06-1.6,3.71-4.06,3.74-6.64,.08-13.28,.08-19.93,0-2.51-.03-4.07-1.62-4.05-3.73,.03-2.14,1.57-3.51,4.16-3.54,3.32-.04,6.64-.01,9.96-.01Z"/>
  <path class="cls-1" d="M78.84,130.85c.03-19.22,15.94-34.67,35.6-34.6,19.46,.07,35.35,15.7,35.31,34.72-.04,19.12-16.08,34.67-35.69,34.61-19.49-.06-35.26-15.62-35.23-34.73Zm7.5,.15c.05,15.09,12.56,27.28,27.95,27.25,15.35-.03,27.95-12.33,27.97-27.31,.03-15.08-12.68-27.43-28.16-27.37-15.39,.06-27.82,12.34-27.76,27.42Z"/>
  <path class="cls-1" d="M113.01,143.18c0-3.52,.14-6.2-.09-8.86-.06-.72-1.13-1.58-1.94-1.96-2.97-1.39-5.91-2.77-7-6.14-1.7-5.25,1.07-9.95,6.81-11.62,1.05-.31,2.33-.21,2.41-1.88,.02-.38,1.31-1.14,1.62-.98,.82,.41,1.43,1.24,2.41,2.16,1.49,.39,3.54,.77,5.46,1.48,1.97,.72,2.55,2.24,1.6,4.14-.9,1.8-2.26,1.82-3.95,1.02-1.15-.55-2.43-.83-3.95-1.33,0,2.72-.16,5.08,.09,7.4,.08,.71,1.16,1.55,1.97,1.92,5.71,2.59,7.83,5.96,6.96,11.49-.76,4.88-4.18,7.11-8.18,8.01-.95,1.17-1.61,1.97-2.27,2.78-.67-.64-1.29-1.36-2.04-1.9-.54-.39-1.26-.54-1.9-.82-2.31-1-4.73-1.84-6.89-3.1-.78-.46-1.32-1.92-1.32-2.92,0-2.59,2.27-3.57,4.5-2.17,1.64,1.03,3.35,1.95,5.67,3.28Zm3.1-8.71v7.94c2.12-.36,3.29-1.42,3.47-3.34,.22-2.33-1.01-3.77-3.47-4.6Zm-2.82-14.87c-2.14,.37-3.78,1.16-3.71,3.33,.07,2.15,1.66,3.11,3.71,3.47v-6.8Z"/>
</svg>