<?xml version="1.0" encoding="UTF-8"?>
<svg id="Layer_1" data-name="Layer 1" xmlns="http://www.w3.org/2000/svg" viewBox="0 0 200 200">
  <defs>
    <style>
      .cls-1 {
        fill: #5a2b5f;
      }
    </style>
  </defs>
  <path class="cls-1" d="M185.94,0c.97,.32,1.95,.61,2.92,.95,6.48,2.28,10.94,8.39,11.13,15.28,.01,.46,.01,.91,.01,1.37,0,54.94,0,109.89,0,164.83,0,8.39-4.69,14.89-12.31,16.92-1.61,.43-3.34,.62-5.01,.62-39.64,.03-79.29,.03-118.94,.02-5.87,0-10.57-2.36-14.05-7.11-.26-.35-.42-.78-.68-1.28,1.87-1.09,3.66-2.13,5.63-3.28,2.76,4.53,7.1,5.06,11.89,5.05,38.34-.08,76.69-.04,115.03-.04,7.93,0,11.77-3.81,11.77-11.68,0-54.42-.07-108.84,.09-163.27,.02-7.06-4.53-12.88-13.4-11.56,0,.64,0,1.33,0,2.02,0,8.98,0,17.97,0,26.95,0,2.87-1.58,4.54-3.92,4.05-.82-.17-1.65-.76-2.27-1.36-2.39-2.29-4.7-4.66-7.17-7.13-2.41,2.42-4.73,4.69-6.98,7.02-1.24,1.28-2.6,2.02-4.35,1.3-1.69-.7-2.01-2.21-2-3.88,.02-8.85,0-17.71,0-26.56,0-.77,0-1.54,0-2.49-.85-.04-1.54-.09-2.22-.09-28.9,0-57.81,0-86.71,0-7.01,0-11.05,4-11.06,11-.02,18.75,0,37.5,0,56.25,0,.83,0,1.67,0,2.62h-6.69c0-.77,0-1.51,0-2.26,0-18.68,0-37.37,0-56.05,0-9.75,4.49-15.51,13.97-17.98,.12-.03,.21-.14,.31-.22,41.67,0,83.33,0,125,0Zm-25.78,6.75V27.98c.15,.11,.3,.22,.45,.34,.71-.81,1.37-1.67,2.12-2.43,3.48-3.52,4.37-3.5,7.93,.05,.79,.78,1.6,1.54,2.58,2.49V6.75h-13.09Z"/>
  <path class="cls-1" d="M0,125.39c1.04-1.47,2.53-2.07,4.26-2.34,2.12-.33,4.23-.72,6.31-1.26,.61-.16,1.21-.81,1.57-1.39,.47-.76,.54-1.78,1.04-2.5,1.71-2.43,1.14-4.48-.67-6.57-1.1-1.27-1.9-2.79-2.83-4.2-1.08-1.64-.95-3.19,.45-4.59,3.03-3.04,6.06-6.09,9.11-9.11,1.41-1.4,2.96-1.47,4.6-.39,2.01,1.33,4.01,2.66,6.01,3.99,.33,.22,.63,.48,.98,.63,1.21,.54,7.44-2.64,7.71-3.94,.46-2.23,.88-4.46,1.32-6.7,.55-2.81,1.54-3.69,4.34-3.7,3.91-.02,7.81-.03,11.72,0,2.6,.02,3.67,.92,4.18,3.43,.48,2.36,.85,4.74,1.44,7.07,.17,.66,.88,1.27,1.48,1.7,.56,.4,1.41,.41,1.97,.81,2.71,1.92,5.07,1.37,7.41-.71,1.11-.98,2.44-1.72,3.7-2.52,1.86-1.19,3.2-1.1,4.74,.42,3.02,2.96,6.01,5.96,8.97,8.98,1.52,1.55,1.63,2.88,.45,4.74-1.15,1.81-2.37,3.58-3.56,5.37-.25,.38-.52,.75-.76,1.14-.84,1.41,1.96,7.81,3.57,8.14,2.48,.51,4.98,.97,7.45,1.52,2.13,.47,2.99,1.53,3.01,3.68,.03,4.23,.02,8.46,0,12.69,0,1.98-1.04,3.17-2.93,3.58-2.54,.55-5.11,.97-7.63,1.6-.61,.15-1.21,.78-1.56,1.35-.47,.76-.54,1.78-1.05,2.5-1.64,2.35-1.2,4.34,.57,6.42,1.13,1.32,1.96,2.91,2.93,4.37,1.1,1.65,.94,3.21-.43,4.6-3.02,3.06-6.05,6.1-9.11,9.11-1.4,1.38-3,1.43-4.62,.37-2.12-1.39-4.19-2.87-6.36-4.17-.59-.35-1.52-.35-2.23-.2-.87,.19-1.63,.89-2.5,1.04-2.84,.49-3.88,2.28-4.1,4.94-.13,1.61-.55,3.2-.89,4.79-.49,2.33-1.54,3.22-3.91,3.24-4.1,.03-8.2,.03-12.3,0-2.38-.02-3.44-.89-3.93-3.21-.51-2.42-.88-4.87-1.48-7.26-.17-.65-.87-1.32-1.49-1.67-1.01-.57-2.28-.71-3.22-1.35-1.83-1.24-3.26-.81-4.85,.45-1.57,1.25-3.32,2.29-5.02,3.36-1.78,1.13-3.26,1-4.76-.47-3.02-2.96-6-5.97-8.98-8.97-1.37-1.39-1.57-2.93-.47-4.59,1.4-2.11,2.88-4.19,4.15-6.37,.37-.64,.33-1.64,.18-2.43-.15-.81-.85-1.52-.97-2.32-.46-2.96-2.36-3.98-5.09-4.21-1.42-.12-2.79-.65-4.21-.79-1.72-.17-2.88-1.03-3.73-2.45v-15.62Zm16.8,35.49c1.93,2.05,3.65,3.88,5.44,5.8,2.24-1.49,4.47-2.94,6.67-4.44,1.38-.94,2.67-.96,4.2-.25,2.76,1.28,5.57,2.47,8.43,3.5,1.74,.63,2.68,1.67,2.99,3.45,.36,2.11,.75,4.23,1.27,6.3,.13,.53,.77,1.3,1.21,1.32,2.26,.13,4.53,.06,6.9,.06,.54-2.69,1.09-5.23,1.56-7.78,.33-1.79,1.3-2.77,3.06-3.37,2.69-.92,5.36-1.99,7.9-3.27,1.86-.94,3.38-.93,5.06,.28,2.05,1.48,4.2,2.82,5.88,3.94,2.06-1.93,3.94-3.68,5.87-5.49-1.37-2.06-2.74-4.2-4.2-6.27-1.1-1.56-1.11-2.99-.26-4.72,1.25-2.55,2.34-5.21,3.26-7.9,.64-1.88,1.71-2.96,3.66-3.29,2.18-.37,4.35-.79,6.5-1.31,.45-.11,1.06-.77,1.09-1.2,.11-2.26,.05-4.53,.05-6.83-2.72-.56-5.25-1.16-7.81-1.59-1.94-.32-2.84-1.46-3.47-3.21-.95-2.68-2.01-5.34-3.27-7.9-.85-1.73-.85-3.16,.25-4.72,1.49-2.11,2.88-4.29,4.24-6.34-1.91-1.95-3.68-3.75-5.55-5.66-2.09,1.39-4.27,2.78-6.4,4.27-1.56,1.09-3.01,1.08-4.73,.25-2.62-1.26-5.34-2.37-8.08-3.33-1.73-.61-2.74-1.6-3.05-3.4-.38-2.18-.77-4.36-1.31-6.5-.13-.52-.81-1.24-1.28-1.27-2.2-.13-4.41-.06-6.78-.06-.53,2.56-1.13,5.02-1.53,7.5-.33,2.05-1.37,3.14-3.36,3.8-2.64,.87-5.22,1.98-7.71,3.2-1.78,.88-3.28,.9-4.91-.24-2.11-1.49-4.29-2.87-6.18-4.13-2.01,1.92-3.83,3.66-5.75,5.49,1.4,2.12,2.75,4.26,4.21,6.31,1.15,1.62,1.17,3.09,.29,4.89-1.26,2.55-2.31,5.22-3.26,7.9-.63,1.78-1.62,2.85-3.52,3.18-2.55,.44-5.07,1.02-7.74,1.57,0,2.21,.05,4.35-.02,6.49-.04,1.08,.37,1.44,1.41,1.61,2.24,.36,4.46,.92,6.69,1.33,1.67,.31,2.52,1.33,3.1,2.87,1.04,2.79,2.13,5.57,3.41,8.26,.79,1.66,.81,3.06-.23,4.56-1.48,2.14-2.89,4.32-4.22,6.31Z"/>
  <path class="cls-1" d="M133.3,113.07c0-6.09,0-12.13,0-18.18,0-3.97,.96-4.91,5-4.92,4.93,0,9.87,0,15.05,0,0-3.69,0-7.19,0-10.69,0-.98-.04-1.96,.07-2.92,.2-1.8,1.25-2.92,3.06-2.94,6.77-.06,13.54-.05,20.3-.02,1.83,0,2.83,1.16,3.18,2.87,.13,.63,.07,1.3,.07,1.95,0,32.28,0,64.56,0,96.83,0,4-.97,4.98-4.94,4.98-19,0-38,0-57.01,0-3.73,0-4.77-1.03-4.77-4.74,0-19.13,0-38.26,0-57.4,0-3.48,1.09-4.57,4.53-4.58,4.95-.01,9.89-.02,14.84-.04,.12,0,.24-.08,.62-.21Zm39.96-32.92h-13.06v93.09h13.06V80.15Zm-33.14,16.62v76.51h13.07V96.76h-13.07Zm-19.99,23.3v53.18h13.03v-53.18h-13.03Z"/>
  <path class="cls-1" d="M126.53,73.5v6.39h-59.65v-6.39h59.65Z"/>
  <path class="cls-1" d="M119.88,33.43v6.41h-53.02v-6.41h53.02Z"/>
  <path class="cls-1" d="M119.87,20.11v6.41h-33.08v-6.41h33.08Z"/>
  <path class="cls-1" d="M93.45,66.56v-6.43h19.69v6.43h-19.69Z"/>
  <path class="cls-1" d="M79.89,26.52h-13.02v-6.41h13.02v6.41Z"/>
  <path class="cls-1" d="M86.59,60.16v6.41h-6.39v-6.41h6.39Z"/>
  <path class="cls-1" d="M66.81,66.56v-6.41h6.41v6.41h-6.41Z"/>
  <path class="cls-1" d="M49.91,156.65c-12.82-.03-23.35-10.64-23.27-23.46,.08-12.78,10.54-23.16,23.35-23.16,12.89,0,23.41,10.49,23.37,23.33-.04,12.84-10.59,23.32-23.45,23.29Zm.09-6.66c9.14,0,16.63-7.46,16.69-16.61,.06-9.12-7.4-16.62-16.59-16.67-9.26-.05-16.83,7.46-16.78,16.67,.04,9.14,7.55,16.61,16.68,16.61Z"/>
</svg>