<?xml version="1.0" encoding="UTF-8"?>
<svg id="SvgjsSvg1001" xmlns="http://www.w3.org/2000/svg" viewBox="0 0 256 256">
  <defs>
    <style>
      .cls-1 {
        fill: #5c2e63;
      }
    </style>
  </defs>
  <g id="SvgjsG1008">
    <g>
      <path class="cls-1" d="m171.36,238.64c-10.78,0-19.52-8.74-19.52-19.52,0-10.78,8.74-19.52,19.52-19.52,10.78,0,19.52,8.74,19.52,19.52s-8.74,19.52-19.52,19.52h0Zm0-26c-3.58,0-6.48,2.9-6.48,6.48,0,3.58,2.9,6.48,6.48,6.48,3.58,0,6.48-2.9,6.48-6.48h0c-.04-3.56-2.92-6.44-6.48-6.48Zm62.96-17.36h-125.84v-41.28h13.04v28.24h99.76V34.72h-99.76v6.48h-13.04v-19.52h125.84v173.6h0Z"/>
      <path class="cls-1" d="m232,256h-121.36c-13.25,0-24-10.75-24-24h0v-43.28h13.04v43.28c0,6.01,4.87,10.88,10.88,10.88h121.44c6.01.04,10.92-4.79,10.96-10.8,0-.03,0-.05,0-.08V24c.04-6.01-4.79-10.92-10.8-10.96-.05,0-.11,0-.16,0h-121.36c-6.01,0-10.88,4.87-10.88,10.88,0,.03,0,.05,0,.08v17.2h-12.96v-17.2c0-13.25,10.75-24,24-24h121.2c13.25,0,24,10.75,24,24v208c0,13.25-10.75,24-24,24h0ZM41.2,91.12h-6.48v-39.04h39.04v6.48c0,17.98-14.58,32.56-32.56,32.56h0Zm6.8-26v11.84c5.43-2.04,9.67-6.37,11.6-11.84h-11.6Z"/>
      <path class="cls-1" d="m186.56,91.12h-6.48c-17.98,0-32.56-14.58-32.56-32.56v-6.48h39.04v39.04Zm-24.88-26c1.97,5.57,6.35,9.95,11.92,11.92v-11.92h-11.92Zm24.88,78.08h-39.04v-6.48c-.09-17.98,14.42-32.63,32.4-32.72.05,0,.11,0,.16,0h6.48v39.2Zm-24.88-13.04h11.92v-11.92c-5.57,1.97-9.95,6.35-11.92,11.92Zm-51.04-8.64c-13.25,0-24-10.75-24-24s10.75-24,24-24,24,10.75,24,24h0c0,13.25-10.75,24-24,24Zm0-34.72c-6.01,0-10.88,4.87-10.88,10.88s4.87,10.88,10.88,10.88,10.88-4.87,10.88-10.88h0c0-6.01-4.87-10.88-10.88-10.88Z"/>
      <path class="cls-1" d="m49.92,195.28c-27.57,0-49.92-22.35-49.92-49.92s22.35-49.92,49.92-49.92,49.92,22.35,49.92,49.92-22.35,49.92-49.92,49.92h0Zm0-86.8c-20.37,0-36.88,16.51-36.88,36.88s16.51,36.88,36.88,36.88,36.88-16.51,36.88-36.88-16.51-36.88-36.88-36.88h0Z"/>
      <path class="cls-1" d="m186.56,143.2h-76.8v-13.04h63.84v-65.04H47.76v20.4h-13.04v-33.44h151.84v91.12Zm-154-4.32h34.72v13.04h-34.72v-13.04Z"/>
    </g>
  </g>
</svg>