<?xml version="1.0" encoding="UTF-8"?>
<svg id="Layer_1" data-name="Layer 1" xmlns="http://www.w3.org/2000/svg" viewBox="0 0 150 200">
  <defs>
    <style>
      .cls-1 {
        fill: #5a2b5f;
      }
    </style>
  </defs>
  <path class="cls-1" d="M116.11,158.76c.17,6.69-2.15,10.64-8.83,12.29,.61,1.43,1.4,2.82,1.82,4.32,.69,2.51,.59,5.25-1,7.19-2.69,3.3-5.55,6.62-8.88,9.14-3.46,2.61-7.35,1.61-10.7-.97-.18,.12-.35,.18-.36,.27-1.25,6.22-4.5,8.99-10.58,8.99-1.93,0-3.85,0-5.78,0-5.28-.03-8.73-3.01-9.81-8.43-.05-.25-.13-.5-.24-.93-.61,.39-1.1,.71-1.59,1.02-3.61,2.27-8.2,1.8-11.25-1.23-1.97-1.96-3.91-3.97-5.77-6.04-2.96-3.28-3.34-8.11-1.04-11.93,.27-.45,.53-.92,.84-1.47-6.48-1.23-9.3-5.37-8.95-12.21-.89,0-1.6,0-2.31,0-9.24,0-18.47,0-27.71,0-3.08,0-4.11-1.04-3.95-4.27,.46-9.43,.74-18.87,1.55-28.27,1.32-15.1,8.58-26.21,21.33-33.53,8.84-5.08,18.25-8.65,27.78-11.92,1.6-.55,2.79,.12,4.07,.98,10.99,7.33,22.57,8.39,34.63,3.32,2.26-.95,4.28-2.5,6.48-3.63,.9-.46,2.08-1,2.94-.76,10.92,3.12,21.61,6.86,31.26,13.27,10.78,7.16,16.77,17.54,18.1,30.61,1.04,10.2,1.29,20.49,1.82,30.75,.12,2.39-1.05,3.45-3.48,3.46-9.37,.02-18.74,.02-28.11,.02-.71,0-1.43,0-2.29,0Zm-73.17-15.48c-.21-.4-.35-.71-.52-.99-2.84-4.72-2.37-9.23,1.41-13.21,1.59-1.68,3.2-3.33,4.8-5,2.22-2.33,4.94-3.35,7.99-2.75,1.76,.35,3.41,1.27,5.21,1.97,.06-.26,.16-.65,.24-1.04,.95-4.71,4.37-7.84,8.94-8,2.72-.1,5.45-.11,8.17,.01,4.37,.19,7.79,3.28,8.77,7.74,.11,.5,.21,.99,.33,1.55,6.13-3.7,9.6-3.21,14.5,1.93,1.31,1.38,2.66,2.72,3.94,4.13,3.13,3.43,3.57,8.26,1.17,12.27-.26,.43-.49,.87-.78,1.4,4.7,.8,7.67,3.33,8.84,8.07,.12,.49,1.09,1.08,1.68,1.08,8.24,.07,16.48,.05,24.72,.04,.45,0,.9-.08,1.39-.13,.06-.37,.16-.63,.15-.89-.43-8.04-.68-16.1-1.37-24.11-1.19-13.76-7.61-23.99-19.43-30.45-7.46-4.08-15.32-7.01-23.39-9.4-.65-.19-1.58,.02-2.2,.39-14.97,8.93-29.92,8.91-44.91,.03-.57-.34-1.43-.58-2.01-.38-9.67,3.31-19.23,6.9-27.85,12.73-7.82,5.29-12.99,12.59-14.37,22.26-1.06,7.46-1.45,15.04-2.03,22.57-.18,2.38-.03,4.79-.03,7.39,8.98,0,17.81,.01,26.63-.03,.39,0,1.05-.45,1.13-.8,1.05-4.96,4.1-7.59,8.88-8.37Zm67.02,13.99c0-1.18,.02-2.36,0-3.54-.06-2.69-1.23-3.93-3.81-3.97-2.12-.04-4.25-.02-6.38-.01-1.46,0-2.64-.51-3.18-2-.52-1.45-.1-2.7,.97-3.77,1.48-1.49,2.95-3.01,4.37-4.56,1.88-2.03,1.87-3.79,.01-5.78-1.48-1.59-2.99-3.16-4.51-4.71-1.87-1.91-3.45-1.93-5.37-.03-1.59,1.57-2.99,3.39-4.72,4.77-.86,.68-2.47,1.14-3.36,.75-.88-.38-1.67-1.91-1.81-3.03-.28-2.25-.05-4.57-.11-6.86-.06-2.57-1.26-3.86-3.67-3.92-2.26-.06-4.52-.06-6.77,0-2.45,.07-3.58,1.33-3.62,3.94-.03,2.15-.02,4.3-.02,6.46,0,1.56-.4,2.93-1.92,3.56-1.49,.61-2.7,.01-3.77-1.12-1.44-1.54-2.88-3.08-4.37-4.56-1.8-1.8-3.47-1.84-5.25-.09-1.59,1.57-3.13,3.21-4.63,4.87-1.88,2.08-1.85,3.73,.05,5.79,1.48,1.6,3.17,3.01,4.44,4.76,.66,.9,1.11,2.57,.75,3.5-.36,.93-1.81,1.78-2.88,1.94-2.09,.3-4.24,.08-6.36,.11-2.76,.03-3.93,1.2-3.97,4.01-.04,2.29-.04,4.58,0,6.87,.05,2.53,1.26,3.8,3.72,3.88,1.92,.06,3.85,.06,5.78,0,1.61-.04,3.11,.11,3.83,1.91,.7,1.77-.12,3.04-1.32,4.22-1.45,1.43-2.86,2.9-4.23,4.41-1.6,1.77-1.6,3.55,0,5.33,1.55,1.71,3.16,3.37,4.78,5.01,1.76,1.78,3.48,1.79,5.24,.03,1.48-1.49,2.95-3.01,4.36-4.57,1.11-1.23,2.39-1.83,3.92-1.14,1.48,.67,1.82,2.08,1.82,3.63,0,2.08-.02,4.17,0,6.25,.03,2.74,1.15,3.98,3.73,4.05,2.19,.06,4.38,.05,6.58,0,2.5-.05,3.72-1.38,3.77-4.06,.04-2.22-.18-4.47,.09-6.65,.14-1.14,.86-2.51,1.74-3.15,1.15-.84,2.53-.33,3.58,.8,1.58,1.69,3.16,3.38,4.8,4.99,1.62,1.59,3.33,1.56,4.94-.05,1.63-1.63,3.22-3.31,4.79-5.01,1.77-1.9,1.76-3.66-.04-5.62-1.47-1.6-2.99-3.16-4.51-4.71-1.06-1.09-1.61-2.52-.79-3.74,.61-.92,1.92-1.68,3-1.82,2.16-.28,4.38-.04,6.57-.11,2.45-.08,3.64-1.38,3.7-3.91,.03-1.11,0-2.22,0-3.33Z"/>
  <path class="cls-1" d="M114.81,41.88c-.1,22.98-17.96,41.43-40.04,41.37-21.84-.06-39.66-18.84-39.55-41.67C35.33,18.37,53.14-.12,75.26,0c21.98,.12,39.66,18.83,39.56,41.88Zm-39.89,35.01c18.51,.06,33.74-15.68,33.84-34.97,.1-19.56-15.02-35.55-33.67-35.61-18.57-.05-33.78,15.78-33.81,35.22-.03,19.49,15,35.3,33.63,35.36Z"/>
  <path class="cls-1" d="M91.32,155.71c-.04,9.49-7.31,17.02-16.4,16.96-9.06-.06-16.35-7.75-16.27-17.15,.09-9.45,7.45-17.03,16.46-16.96,9.11,.07,16.24,7.63,16.21,17.16Zm-16.23,10.61c5.69-.04,10.22-4.83,10.19-10.77-.03-5.92-4.67-10.7-10.32-10.65-5.68,.05-10.22,4.85-10.2,10.79,.02,5.9,4.66,10.68,10.33,10.64Z"/>
</svg>