<?xml version="1.0" encoding="UTF-8"?>
<svg id="Layer_1" data-name="Layer 1" xmlns="http://www.w3.org/2000/svg" viewBox="0 0 254.7 190.13">
  <defs>
    <style>
      .cls-1 {
        fill: #5c2e63;
      }
    </style>
  </defs>
  <path class="cls-1" d="M69.78,109.59c1.03,1.87,1.46,2.71,1.84,3.72,.78,2.08,.85,3.86-.67,5.37-1.48,1.48-3,1.33-5.2,.56-.97-.34-1.85-.73-3.71-1.62-1.76-.84-2.44-1.15-3.13-1.4-14.89,10.11-35.04,8.42-47.91-4.42-14.65-14.62-14.65-38.31,0-52.93,14.65-14.62,38.41-14.62,53.06,0,12.22,12.19,13.63,32.81,4.25,47.78,.3,.76,.63,1.4,1.48,2.94h0Zm76.02,52.48c8.44,5.09,13.72,13.07,13.72,21.92,0,1.22-.1,2.44-.3,3.63l-.42,2.5H89.7l-.42-2.5c-.2-1.2-.3-2.41-.3-3.63,0-9.37,5.91-17.73,15.18-22.75,5.51,6.27,12.93,10.12,21.2,10.12s15.02-3.52,20.44-9.29Zm-20.44,3.3c-13.74,0-25.03-14.11-25.03-31.79,0-17.67,11.3-31.79,25.03-31.79s25.03,14.11,25.03,31.79-11.29,31.79-25.03,31.79h0Zm7.63-88.13c-.62,2.13-.91,3.02-1.36,4-.93,2.03-2.14,3.34-4.29,3.34s-3.07-1.18-4.08-3.29c-.44-.93-.78-1.81-1.48-3.78-.64-1.81-.9-2.49-1.21-3.16-17.7-3.36-30.75-18.77-30.75-36.93C89.82,16.76,106.62,0,127.34,0s37.52,16.76,37.52,37.43c0,17.24-13.62,32.81-30.86,36.78-.31,.71-.54,1.42-1.01,3.04h0Zm59.88,41.77c-1.88,1.03-2.72,1.46-3.73,1.83-2.08,.77-3.87,.84-5.39-.67-1.48-1.48-1.34-2.99-.56-5.19,.34-.97,.74-1.84,1.62-3.7,.84-1.76,1.15-2.44,1.4-3.12-10.14-14.85-8.44-34.95,4.43-47.8,14.65-14.62,38.41-14.62,53.06,0,14.65,14.62,14.65,38.31,0,52.93-12.22,12.19-32.89,13.6-47.89,4.24-.76,.3-1.4,.63-2.95,1.48h0Zm8.8-37.24c0,.68,.17,1.35,.51,1.99,.34,.64,.84,1.38,1.49,2.2-.74,.38-1.38,.77-1.94,1.16-.52,.36-.99,.79-1.41,1.26-.38,.44-.68,.94-.89,1.49-.21,.55-.32,1.15-.32,1.81s.14,1.36,.42,2.02c.28,.66,.71,1.26,1.29,1.81,.58,.54,1.3,.98,2.18,1.29,.87,.32,1.86,.48,2.95,.48,.86,0,1.64-.08,2.34-.25,.69-.16,1.35-.42,1.96-.76,.64-.36,1.24-.81,1.77-1.31,1.25,1.03,2.07,1.67,2.46,1.93,.38,.26,.78,.39,1.2,.39s.77-.16,1.1-.47c.33-.31,.49-.69,.49-1.15,0-.34-.08-.62-.24-.82-.16-.21-.6-.59-1.3-1.16-.71-.57-1.22-1-1.55-1.28,.52-.86,.91-1.64,1.18-2.35,.27-.71,.41-1.25,.41-1.64,0-.41-.17-.8-.47-1.07-.29-.28-.68-.44-1.09-.44-.44,0-.78,.15-1.02,.45-.24,.3-.5,.79-.78,1.46-.28,.68-.48,1.14-.61,1.38-.33-.33-.65-.66-.96-1.01-.37-.42-.74-.84-1.09-1.28-.38-.46-.78-.94-1.22-1.46,1.26-.75,2.22-1.5,2.87-2.22,.65-.73,.97-1.58,.97-2.57,0-.72-.2-1.41-.6-2.08-.4-.67-1-1.21-1.81-1.62-.81-.41-1.76-.62-2.87-.62s-2.08,.2-2.91,.59c-.82,.4-1.45,.93-1.88,1.6-.42,.67-.65,1.44-.64,2.23h0Zm3.72,6.3c.87,1.05,1.62,1.93,2.24,2.64s1.32,1.42,2.1,2.14c-.36,.35-.76,.68-1.17,.97-.37,.25-.77,.46-1.2,.6-.42,.14-.86,.21-1.3,.21-.45,0-.89-.08-1.3-.25-.41-.16-.78-.41-1.09-.72-.3-.3-.54-.64-.71-1.03-.16-.36-.24-.76-.24-1.16,0-.71,.22-1.32,.66-1.84,.44-.52,1.11-1.04,2.01-1.55h0Zm1.34-3.6c-.3-.37-.6-.75-.9-1.13-.23-.3-.42-.6-.57-.9-.14-.26-.22-.55-.23-.85,0-.51,.2-.95,.61-1.33,.41-.38,.91-.57,1.52-.57s1.11,.18,1.51,.55c.4,.37,.6,.82,.6,1.37s-.2,1.02-.6,1.41c-.4,.39-1.04,.87-1.94,1.44h0Zm17.87-3.57l.19-1.52c.06-.44,.1-.82,.13-1.13,.03-.31,.04-.52,.04-.62,0-.39-.1-.7-.31-.93-.2-.23-.48-.36-.78-.35-.3,0-.6,.12-.8,.35-.2,.23-.31,.53-.31,.84,0,.26,.04,.75,.11,1.47,.07,.72,.17,1.35,.28,1.9-.62-.3-1.18-.57-1.66-.81-.39-.2-.8-.38-1.21-.55-.25-.11-.52-.18-.79-.19-.29,0-.56,.11-.77,.31-.22,.2-.34,.48-.34,.77,0,.16,.05,.33,.15,.52,.1,.19,.21,.31,.31,.36,.65,.27,1.26,.48,1.84,.62,.58,.14,1.24,.27,1.98,.38-.93,.87-1.78,1.83-2.53,2.86-.09,.12-.13,.3-.13,.54,0,.25,.11,.49,.32,.72,.22,.22,.49,.34,.81,.34,.27,0,.53-.11,.72-.3,.21-.2,.43-.49,.66-.87,.23-.39,.67-1.18,1.34-2.4,.66,1.34,1.19,2.27,1.61,2.79,.42,.52,.79,.78,1.12,.78s.6-.1,.82-.31c.21-.21,.32-.46,.32-.74,0-.2-.04-.39-.14-.56-.15-.23-.31-.44-.49-.64-.19-.22-.38-.45-.55-.68-.18-.21-.37-.41-.57-.6-.29-.31-.6-.61-.91-.91,1.36-.2,2.6-.53,3.74-.97,.12-.05,.24-.17,.35-.36,.1-.16,.16-.35,.16-.54,0-.29-.12-.58-.34-.77-.21-.2-.5-.31-.79-.31-.18,0-.43,.06-.74,.18-.31,.12-.72,.31-1.24,.58-.52,.26-1.06,.53-1.63,.79h0Zm8.21,7.71c.08,.82,.21,1.42,.39,1.82,.19,.4,.51,.6,.99,.6,.43,.02,.83-.22,1-.62,.2-.41,.33-1,.39-1.78l.57-6.49c.06-.6,.09-1.18,.09-1.76,0-.98-.13-1.73-.38-2.26s-.76-.78-1.51-.78c-.62,0-1.13,.2-1.51,.61-.38,.41-.57,.98-.57,1.7,0,.53,.04,1.42,.12,2.64l.42,6.3h0Zm1.46,8.66c.53,0,.99-.18,1.38-.53,.4-.35,.59-.83,.59-1.45,0-.54-.19-1.01-.59-1.39-.37-.37-.89-.58-1.41-.57-.55,0-1.02,.19-1.4,.57-.37,.36-.58,.87-.57,1.39,0,.62,.2,1.11,.6,1.45,.4,.35,.87,.52,1.4,.52h0Zm-216.47-4.22l-.13,.66c-.05,.22-.07,.45-.07,.68,0,.39,.13,.71,.38,.96,.25,.25,.6,.37,1.05,.37,.56,0,.93-.16,1.1-.49,.17-.33,.34-.87,.49-1.61l.62-3.03h2.91l-.49,2.46c-.11,.44-.17,.89-.18,1.34,0,.39,.13,.71,.38,.96,.25,.25,.6,.37,1.04,.37,.39,0,.7-.1,.91-.29,.2-.19,.35-.43,.43-.69,.07-.26,.16-.64,.26-1.12l.62-3.03h2.03c.6,0,1.04-.13,1.34-.4,.29-.27,.46-.65,.44-1.05,0-.43-.15-.78-.45-1.06-.3-.28-.74-.42-1.33-.42h-1.46l.79-3.83h.67c.59,0,1.03-.13,1.33-.4,.3-.26,.45-.61,.45-1.05,0-.95-.63-1.43-1.88-1.46l.49-2.47,.07-.31c.03-.16,.06-.33,.09-.51,.02-.18,.03-.35,.03-.54,0-.4-.13-.72-.37-.96-.25-.24-.6-.35-1.06-.35-.4,0-.7,.1-.9,.29-.21,.19-.35,.44-.43,.71-.1,.36-.18,.73-.25,1.1l-.63,3.01h-2.88l.49-2.45c.15-.8,.22-1.24,.22-1.33,.01-.35-.12-.7-.37-.95-.25-.25-.6-.37-1.07-.37-.33,0-.6,.07-.81,.22-.22,.17-.39,.4-.49,.66-.12,.29-.22,.69-.32,1.2l-.62,3.01h-1.96c-.59,0-1.03,.13-1.34,.4-.3,.27-.47,.66-.45,1.06,0,.41,.16,.76,.47,1.04,.31,.28,.75,.43,1.32,.43h1.37l-.75,3.83h-.62c-.59,0-1.03,.14-1.34,.41-.3,.27-.47,.67-.45,1.07,0,.94,.6,1.42,1.82,1.45l-.49,2.46Zm7.7-9.22l-.75,3.83h-2.93l.78-3.83h2.91Zm8.67,3.21c.08,.82,.21,1.42,.4,1.82,.18,.4,.51,.6,.99,.6,.43,.02,.83-.22,1-.62,.2-.41,.33-1,.4-1.78l.57-6.49c.06-.6,.09-1.18,.09-1.76,0-.98-.13-1.73-.38-2.26-.25-.52-.76-.78-1.51-.78-.62,0-1.13,.2-1.51,.61-.38,.41-.57,.98-.57,1.7,0,.53,.04,1.42,.12,2.65,0,0,.42,6.3,.42,6.3Zm1.46,8.66c.53,0,.99-.18,1.38-.53,.39-.35,.59-.83,.59-1.45,0-.54-.19-1.01-.58-1.39-.37-.38-.89-.58-1.42-.57-.55,0-1.02,.19-1.4,.57-.37,.36-.58,.87-.57,1.39,0,.62,.2,1.11,.6,1.46,.4,.35,.87,.52,1.4,.52Zm13.29-21.26c0-.72-.28-1.08-.84-1.08s-.83,.37-.83,1.1v1.4c-1.82,.16-3.2,.72-4.16,1.68-.96,.96-1.44,2.2-1.44,3.71,0,1.16,.25,2.11,.74,2.84,.49,.74,1.13,1.3,1.92,1.7,.79,.4,1.77,.76,2.95,1.09v6.12c-.59-.17-1.06-.41-1.41-.72-.34-.29-.61-.65-.8-1.05-.24-.54-.44-1.09-.62-1.65-.09-.32-.29-.59-.57-.78-.3-.19-.65-.29-1-.28-.46-.01-.91,.17-1.23,.51-.33,.34-.49,.72-.49,1.14,0,.57,.12,1.15,.37,1.74s.62,1.16,1.14,1.71c.51,.55,1.15,1.01,1.92,1.37s1.66,.61,2.69,.72v3.55c0,.4,.06,.7,.19,.9,.13,.19,.35,.29,.66,.29,.34,0,.56-.12,.66-.35,.1-.24,.15-.61,.15-1.13v-3.28c1.26-.1,2.34-.43,3.25-.99,.91-.55,1.6-1.27,2.07-2.14,.47-.87,.7-1.81,.7-2.81,0-.76-.14-1.51-.44-2.2-.29-.66-.72-1.25-1.26-1.73-.5-.46-1.09-.82-1.73-1.07-.65-.25-1.51-.52-2.6-.82v-5.47c1.1,.36,1.8,1.09,2.09,2.18,.25,.93,.81,1.4,1.67,1.4,.46,0,.84-.16,1.16-.48s.48-.7,.48-1.14c0-.4-.11-.83-.32-1.3-.23-.5-.54-.97-.91-1.38-.47-.57-1.08-1.02-1.76-1.32-.67-.29-1.48-.48-2.41-.58v-1.42h0Zm-1.67,9.03c-.79-.29-1.38-.61-1.76-.97s-.58-.88-.58-1.57c0-.73,.21-1.27,.62-1.63,.41-.36,.99-.65,1.72-.87,0,0,0,5.04,0,5.04Zm1.67,3.91c.91,.29,1.6,.64,2.07,1.06s.7,1.01,.7,1.77c0,.71-.24,1.33-.72,1.87-.48,.53-1.17,.89-2.05,1.07v-5.76Zm54.38-54.92c0,.4,.17,.78,.51,1.12,.34,.35,.75,.52,1.24,.52,.83,0,1.4-.49,1.7-1.49,.31-.95,.7-1.66,1.16-2.15s1.17-.73,2.13-.73c.82,0,1.5,.24,2.02,.72,.52,.48,.78,1.07,.78,1.78,0,.36-.09,.69-.26,1-.17,.31-.38,.59-.63,.84-.39,.38-.8,.75-1.22,1.11-.64,.56-1.15,1.05-1.53,1.45-.38,.42-.69,.9-.91,1.42-.23,.54-.34,1.18-.34,1.91,0,.59,.16,1.03,.47,1.33,.31,.3,.7,.45,1.15,.45,.88,0,1.4-.46,1.56-1.37,.1-.43,.17-.73,.22-.9,.05-.17,.12-.34,.21-.51,.09-.17,.22-.36,.4-.57,.23-.25,.46-.49,.72-.72,1.08-.96,1.83-1.65,2.24-2.06,.42-.41,.78-.89,1.08-1.46,.3-.56,.46-1.21,.46-1.96,0-.95-.26-1.82-.8-2.63-.53-.81-1.28-1.44-2.26-1.91-.97-.47-2.1-.7-3.37-.7-1.37,0-2.57,.28-3.59,.84-1.03,.56-1.81,1.27-2.34,2.12-.53,.85-.8,1.7-.8,2.53h0Zm6.42,14.42c.52,0,.97-.18,1.37-.53,.4-.35,.59-.83,.59-1.45,0-.55-.19-1.02-.57-1.39-.37-.37-.87-.58-1.4-.57-.56,0-1.03,.19-1.42,.57-.38,.36-.59,.87-.58,1.39,0,.62,.2,1.11,.6,1.45,.4,.35,.87,.52,1.4,.52h0Zm24.2-12.78c-.74-1.18-1.89-1.78-3.47-1.78-1.34-.01-2.65,.44-3.7,1.28-1.1,.86-1.97,1.99-2.53,3.28-.58,1.28-.88,2.66-.89,4.07,0,1.32,.29,2.44,.86,3.34,.57,.9,1.33,1.55,2.26,1.93,.91,.38,1.92,.48,2.88,.28,1-.2,1.92-.7,2.63-1.43,.13,.53,.39,.91,.79,1.15,.4,.24,.95,.36,1.66,.36,1.23,0,2.37-.26,3.43-.78,1.06-.52,2-1.24,2.77-2.13,.78-.89,1.4-1.92,1.81-3.04,.42-1.1,.63-2.27,.63-3.46,0-1.51-.26-2.89-.78-4.14-.51-1.23-1.29-2.34-2.27-3.24-.99-.91-2.18-1.61-3.57-2.1-1.39-.49-2.92-.73-4.59-.73-2.03,0-3.9,.34-5.58,1.01-1.69,.67-3.12,1.61-4.29,2.81-1.18,1.21-2.09,2.65-2.69,4.23-.62,1.62-.93,3.37-.93,5.24s.3,3.42,.91,4.9c.59,1.46,1.51,2.76,2.68,3.82,1.18,1.07,2.63,1.88,4.36,2.45,1.73,.57,3.67,.85,5.83,.85,1.44,0,2.77-.13,3.99-.39,1.15-.24,2.26-.63,3.3-1.15,.95-.48,1.82-1.11,2.57-1.86,.73-.73,1.33-1.58,1.78-2.51h-2.8c-.77,.97-1.75,1.76-2.86,2.29-1.13,.54-2.5,.91-4.13,1.1-2.04,.21-3.88,.14-5.5-.22s-3.01-.96-4.15-1.8c-1.12-.82-2.02-1.9-2.62-3.14-.6-1.25-.9-2.63-.9-4.14,0-1.13,.14-2.24,.42-3.33,.28-1.09,.69-2.08,1.22-2.97,.58-1,1.35-1.88,2.26-2.59,.94-.72,2.01-1.26,3.14-1.6,1.19-.37,2.5-.56,3.93-.56s2.66,.19,3.77,.58c1.11,.39,2.04,.92,2.8,1.6s1.33,1.49,1.73,2.42,.6,1.92,.6,2.97c0,1.26-.28,2.43-.84,3.49s-1.21,1.91-1.96,2.53c-.75,.62-1.36,.93-1.84,.93-.14,0-.27-.06-.36-.17-.11-.13-.16-.3-.15-.47,0-.19,.06-.59,.18-1.18l2-9.43h-3.47l-.33,1.46h0Zm-7.2,6.82c0-1.03,.16-2.02,.5-2.98,.33-.96,.81-1.74,1.43-2.34,.62-.6,1.31-.9,2.09-.9,.39,0,.73,.07,1.03,.22s.56,.36,.78,.64c.21,.28,.38,.61,.49,.98,.11,.37,.16,.79,.16,1.26,0,.94-.16,1.91-.49,2.91-.32,1-.8,1.84-1.43,2.49s-1.35,.99-2.18,.99c-.71,0-1.28-.28-1.72-.84s-.66-1.37-.66-2.42h0Zm20.26-2.7c.08,.82,.21,1.42,.39,1.82,.18,.4,.51,.6,.99,.6,.43,.02,.83-.22,1-.62,.2-.41,.33-1,.39-1.78l.57-6.49c.06-.6,.09-1.18,.09-1.76,0-.98-.13-1.73-.38-2.26-.25-.52-.76-.78-1.51-.78-.62,0-1.12,.2-1.51,.61-.38,.41-.57,.98-.57,1.7,0,.53,.04,1.42,.12,2.64l.42,6.3h0Zm1.46,8.66c.53,0,.99-.18,1.38-.53,.4-.35,.59-.83,.59-1.45,0-.54-.19-1.01-.59-1.39-.37-.37-.89-.58-1.41-.57-.55,0-1.02,.19-1.4,.57-.37,.36-.58,.87-.57,1.39,0,.62,.2,1.11,.6,1.45,.4,.35,.87,.52,1.4,.52Z"/>
</svg>