<?xml version="1.0" encoding="UTF-8"?>
<svg id="Layer_1" data-name="Layer 1" xmlns="http://www.w3.org/2000/svg" viewBox="0 0 150 200">
  <defs>
    <style>
      .cls-1 {
        fill: #5c2e63;
      }
    </style>
  </defs>
  <path class="cls-1" d="M149.55,123.4c0,2.2-.37,4.46,.07,6.59,1.6,7.88-1.71,12.86-10.72,15.47-1.81,.52-3.63,3.44-3.8,5.36-2.53,28.35-28.49,49.47-60.75,49.18-32.08-.3-57.67-21.53-59.32-49.6-.22-3.72-1.97-5.46-5.53-6.56-7.27-2.27-10.27-6.34-9.33-13.25,1.21-8.9,.61-18.01,2.17-26.85,1.73-9.77,8.41-17.5,18.63-22.07,13.89-6.21,27.97-10.85,44.6-6.46,7.24,1.91,16.4,1.23,23.84-.7,25.54-6.65,56.69,10.32,59.43,33.32,.62,5.16,.62,10.38,.91,15.57-.07,0-.13,0-.2,0Zm-23.81,24.5c-.14-23.92-23.03-43.45-50.89-43.43-28.09,.02-50.82,19.82-50.71,44.16,.1,23.92,22.91,43.37,50.87,43.36,28.16,0,50.88-19.75,50.73-44.1Z"/>
  <path class="cls-1" d="M114.27,33.97c.07,18.88-17.38,33.96-39.3,33.96-21.94,0-39.41-15.04-39.37-33.9C35.64,15.08,53.04,.01,74.89,0c21.84-.01,39.31,15.06,39.38,33.97Z"/>
  <path class="cls-1" d="M74.57,118.61c19.42-.07,34.78,12.8,35,29.35,.22,16.43-15.07,29.83-34.28,30.06-19.08,.23-34.85-13.03-35.02-29.44-.17-16.5,15.16-29.9,34.3-29.97Zm20.83,20.77c-10.16,8.85-20.41,17.79-30.5,26.58,8.37,4.29,19.23,3.04,26.85-3.62,7.37-6.44,8.7-15.66,3.65-22.96Zm-41.06,17.61c10.25-8.72,20.65-17.58,30.95-26.34-9.06-4.45-19.69-3.14-27.3,3.67-7.34,6.57-8.57,15.63-3.65,22.68Z"/>
</svg>