<?xml version="1.0" encoding="UTF-8"?>
<svg id="Layer_1" data-name="Layer 1" xmlns="http://www.w3.org/2000/svg" viewBox="0 0 200 200">
  <defs>
    <style>
      .cls-1 {
        fill: #5c2e63;
      }
    </style>
  </defs>
  <path class="cls-1" d="M86.25,0c15.67,.17,28.21,5.65,36.08,18.95,3.8,6.42,5.61,13.43,6.49,20.69,.22,1.82,.34,3.64,.46,5.47,.14,2.11-.35,4.24,1.77,5.99,.89,.74,1.13,2.39,1.3,3.67,.98,7.41-.25,14.42-4.5,20.84-.12,.19-.23,.4-.4,.54-4.56,3.55-5.84,8.95-8.56,13.53-5.62,9.49-13.47,16.5-24.52,20.07-8.41,2.72-16.2,.99-23.69-2.92-10.36-5.41-16.53-14.06-21.15-23.98-.81-1.74-2.05-3.37-3.38-4.81-4.09-4.44-6.07-9.69-6.57-15.4-.27-3.09,.09-6.27,.49-9.37,.16-1.18,1.3-2.23,1.88-3.39,.36-.73,.71-1.56,.72-2.36,.09-6.69,.97-13.28,3.08-19.68C51.75,9.61,66-.17,86.25,0Z"/>
  <path class="cls-1" d="M162.72,135.36c-19.56,4.72-30.06,16.23-31.8,35.2-.68,0-1.5,0-2.32,0-41.36,0-82.72,0-124.08,0-3.63,0-4.6-.91-4.52-4.26,.14-5.48,.27-10.97,.46-16.45,.24-6.75,3.23-11.89,9.82-15.01,7.27-3.45,14.45-7.07,21.74-10.48,6.75-3.15,13.44-6.33,19.25-10.97,2.52-2.01,3.57-1.85,6.15,.04,7.63,5.59,16.05,9.44,25.83,10.09,11.77,.78,21.87-3.25,31.03-9.85,3.04-2.19,3.89-2.39,6.71-.14,9.5,7.62,21.29,11.3,31.97,16.89,3.15,1.65,6.34,3.21,9.76,4.93Z"/>
  <path class="cls-1" d="M168.69,200c-17.24-.06-31.09-13.17-31.01-29.35,.09-16.31,13.93-29.42,31.03-29.38,17.48,.05,31.37,13.2,31.29,29.61-.08,16.16-14.07,29.17-31.31,29.12Zm10.79-15.13c1.28-1.18,2.77-2.18,3.64-3.53,.41-.64-.11-2.08-.62-2.94-1.46-2.41-1.15-3.51,1.65-3.96,2.41-.39,3.12-1.59,3.1-3.79-.02-2.18-.66-3.4-3.12-3.77-2.72-.41-3.27-1.67-1.65-3.75,1.57-2.02,.86-3.34-.79-4.9-1.62-1.53-2.99-1.71-4.86-.46-2.27,1.52-3.58,1.06-4.02-1.52-.39-2.3-1.63-2.96-3.97-2.96-2.3,0-3.64,.57-4.05,2.88-.49,2.71-1.72,3.17-4.12,1.53-1.97-1.35-3.3-.8-4.82,.65-1.47,1.39-2.31,2.58-.88,4.52,1.87,2.54,1.42,3.55-1.77,4.09-2.27,.38-2.83,1.6-2.81,3.55,.02,1.92,.24,3.41,2.72,3.85,3.24,.58,3.72,1.58,1.89,4.03-1.63,2.18-.34,3.39,1.15,4.85,1.45,1.42,2.73,1.57,4.45,.44,2.57-1.69,3.64-1.29,4.22,1.56,.41,2,1.46,2.85,3.66,2.8,3.33-.08,3.55-.16,4.36-3.27,.54-2.07,1.74-2.54,3.68-1.46,.85,.48,1.73,.91,2.97,1.56Z"/>
  <path class="cls-1" d="M175.95,170.62c.02,3.76-3.23,6.84-7.2,6.81-3.84-.03-7.12-3.13-7.1-6.72,.02-3.73,3.1-6.69,7.02-6.76,4.07-.07,7.26,2.85,7.29,6.68Z"/>
</svg>