<?xml version="1.0" encoding="UTF-8"?>
<svg id="Layer_1" data-name="Layer 1" xmlns="http://www.w3.org/2000/svg" viewBox="0 0 200 200">
  <defs>
    <style>
      .cls-1 {
        fill: #5c2e63;
      }
    </style>
  </defs>
  <path class="cls-1" d="M40.09,149.6v-6.39c3.61,0,7.17,0,10.74,0,10.86,0,21.72,.02,32.57,0,6.05,0,9.89-3.23,9.92-8.27,.03-5.06-3.82-8.36-9.82-8.36-11.55-.01-23.11,.05-34.66-.01-5.02-.03-9.66,1.34-12.69,5.24-9.45,12.16-22.34,12.49-36.13,11.01v-6.15H16.5c0-8.92,0-17.33,0-25.74,0-13.04-.02-26.07,0-39.11,.01-8.19,3.71-11.8,12.07-11.82,8.63-.02,17.26-.12,25.89,.06,2.87,.06,4.9-.76,6.93-2.8,16.16-16.26,32.52-32.32,48.63-48.64C115.87,2.71,122.55-.07,130.89,0c21.71,.2,43.43,.07,65.15,.07,1.23,0,2.46,0,3.96,0V6.73c-1.63,0-3.13,0-4.62,0-21.86,0-43.71,.04-65.57-.03-5.29-.02-9.83,1.5-13.59,5.26-15.35,15.31-30.71,30.6-46.06,45.9-.45,.45-.83,.99-1.67,2h24.51v6.82c-2.38,0-4.84,0-7.3,0-18.79,0-37.59-.02-56.38-.02-5.53,0-6.14,.55-6.14,5.83-.02,19.69,0,39.39,0,59.08,0,.65,.08,1.31,.17,2.63,5.5-4.67,10.59-8.99,15.98-13.57-1.22-4.09-5.06-4.09-9.16-4.12v-32.45c2.61-.85,5.78-1.02,7.53-2.68,1.74-1.66,2.06-4.81,3.19-7.81h22.17v6.43c-4.4,0-8.8,.1-13.2-.04-2.29-.07-3.65,.39-4.82,2.73-1.12,2.21-3.15,4.37-5.33,5.53-2.47,1.31-3.45,2.62-3.21,5.36,.26,2.89,.15,5.82,.01,8.73-.21,4.46-.58,8.81,5.11,10.53,1.14,.35,2.43,1.81,2.73,2.99,1.3,4.99,4.89,4.21,8.69,3.92,.14-1.66,.26-3.14,.4-4.82,2.76-.66,5.46-1.29,8.15-1.96,5.08-1.27,6.64-5.08,3.92-9.53-1.44-2.36-2.88-4.71-4.26-6.96,4.02-4.01,7.83-7.81,11.89-11.85,2.23,1.35,4.59,2.78,6.94,4.21,4.52,2.74,8.31,1.25,9.6-3.82,.68-2.68,1.31-5.37,1.99-8.19h16.62c.72,2.82,1.43,5.62,2.16,8.41,1.26,4.78,5.06,6.28,9.35,3.7,2.37-1.43,4.74-2.86,7.68-4.63,3.38,3.49,6.81,6.9,10.03,10.5,.58,.65,.66,2.27,.28,3.12-.9,2.01-2.24,3.82-3.39,5.72-2.55,4.21-.96,7.98,3.9,9.25,2.69,.7,5.39,1.35,8.21,2.05,.17,1.57,.33,3.04,.5,4.64,3.75,.76,6.92,1,8.61-3.62,.64-1.73,2.63-3.48,4.41-4.18,3.06-1.2,3.8-3.07,3.51-6.02-.21-2.2-.14-4.44-.03-6.65,.27-5.09,.85-10.24-5.56-12.41-.81-.28-1.71-1.26-1.94-2.09-1.43-5.27-5.52-4.78-9.55-4.66-3.04,.09-6.09,.02-9.42,.02v-6.44h22.34c.82,2.62,.96,5.79,2.61,7.53,1.66,1.75,4.83,2.08,7.89,3.25v31.79q-9.13,1.71-10.08,10.51h-12.83c-.13,1.73-.23,3.08-.34,4.56-4.49,3.01-13.06,.11-13.64,9.63,4.35-1.62,8.45-3.14,12.53-4.68,3.9-1.47,7.85-2.83,11.68-4.47,6.38-2.71,12.71-4.17,19.62,.31,0-5.24,0-9.75,0-14.26,0-15.12,.02-30.23,0-45.35,0-5.14-.59-5.69-5.81-5.69-15.73-.01-31.46-.04-47.19,.04-1.9,0-3.85,.41-5.68,.96-6.46,1.95-13.23-.18-17.07-5.54-3.95-5.51-4.15-13.19,.56-18.11,8.42-8.81,17.37-17.13,26.51-26.05,1.08,1.39,2.25,2.9,3.73,4.8-1.53,1.59-3.39,3.57-5.3,5.49-5.99,6-12.03,11.95-18,17.96-4.44,4.47-4.82,9.5-1.06,13.13,3.67,3.55,8.54,3.16,12.88-1.12,6.53-6.44,12.97-12.97,19.54-19.36,1.01-.98,2.49-2.03,3.78-2.06,7.49-.19,15-.1,22.8-.1v6.65c-6.26,0-12.48-.05-18.7,.04-1.3,.02-2.98,.15-3.84,.93-5.19,4.77-10.19,9.74-15.26,14.64l.44,1.01c3.81,0,7.61,0,11.42,0,9.47,0,18.93,.08,28.4-.04,1.52-.02,3.73-.38,4.43-1.39,6.63-9.55,16.23-9.37,26.5-8.18v5.91c-6.55,1.93-15.18-3.1-18.94,4.1,1.03,5.27,2.43,9.18,2.46,13.1,.21,23.16,0,46.32,.16,69.48,.06,8.49-3.55,14.1-11.28,17.64-24.51,11.23-48.96,22.6-73.38,34.03-12.52,5.86-25.31,7.05-38.57,2.98-2.13-.65-4.34-1.06-6.41-1.85-15.39-5.89-31.41-6.67-47.63-5.93-2.05,.09-4.1,.01-6.36,.01v-6.65c2.89,0,5.78,.18,8.63-.03,17.18-1.28,33.81,1.21,49.97,7.02,14.04,5.05,27.35,3.53,40.75-2.98,23-11.16,46.34-21.63,69.54-32.39,.63-.29,1.27-.56,1.89-.88,5.37-2.69,7.46-7.8,5.23-12.74-2.14-4.75-7.19-6.67-12.67-4.62-19.52,7.32-39.02,14.71-58.53,22.07-4.42,1.67-8.84,3.35-13.26,5.01-5.78,2.16-11.2,1.44-16.23-2.12-.34-.24-.71-.45-1.02-.73-9.16-8.54-19.65-13.14-32.46-10.95-.5,.09-1.05-.14-1.75-.25Zm99.86-29.34c-1.62-.43-3.07-.84-4.54-1.19-7.71-1.83-11.84-11.19-7.33-17.63,2.72-3.89,1.84-6.13-2.22-8.4-4.22,2.3-7.8,5.65-14.31,3.18-6.81-2.59-6.92-7.72-8.49-12.71h-6.29c-.96,5.33-1.87,9.78-8.06,12.61-6.66,3.05-10.3-1.06-14.78-3.11-1.7,1.47-3.04,2.64-4.15,3.6,.88,4.85,6.84,7.56,3.57,13.2-2.31,4-2.49,9.65-9.27,9.68,5.91,.4,11.47,.52,17.02,.29,1.09-.04,2.62-1.22,3.11-2.26,3.82-8.26,11.44-12.43,19.55-10.48,7.89,1.9,13.17,8.72,12.94,16.7-.24,8.4-6.19,14.65-15.16,16.14-1.15,.19-2.6,.97-3.17,1.92-3.41,5.7-8.38,8.24-14.94,8.08-3.89-.09-7.78-.02-11.66-.02,2.52,2.7,4.9,5.01,7.75,6.31,2.49,1.14,5.88,2.26,8.21,1.47,13-4.43,25.79-9.45,36.84-13.59,1.8-5.15,3.15-8.84,4.37-12.56,1.79-5.45,7.59-2.88,10.99-5.71v-5.54Zm-38.36,12.66c4.84-.61,8.52-4.47,8.44-9.82-.08-5.01-4.02-9.28-9.01-9.78-4.99-.5-9.15,2.54-9.91,6.18,3.64,4.66,6.77,8.67,10.49,13.42Z"/>
</svg>