<?xml version="1.0" encoding="UTF-8"?>
<svg id="Layer_1" data-name="Layer 1" xmlns="http://www.w3.org/2000/svg" viewBox="0 0 200 150">
  <defs>
    <style>
      .cls-1 {
        fill: #5c2e63;
      }
    </style>
  </defs>
  <path class="cls-1" d="M180.23,150H19.81c-.14-5.89,.5-11.58,1.83-17.21,2.62-11.03,8.54-19.62,19.31-24.04,10.13-4.16,20.48-7.78,30.73-11.64,1.28-.48,2.54-1.03,3.85-1.45,4.89-1.6,6.86-5.3,7.24-10.05,.06-.7-.26-1.56-.68-2.16-9.45-13.6-13.92-28.84-14.7-45.16-.23-4.83,.22-9.81,1.2-14.55,2.18-10.52,8.9-17.03,19.44-19.43,7.51-1.71,15.1-1.73,22.6,.04,11.43,2.7,18.4,10.18,19.93,22.08,2.52,19.61-2.29,37.71-12.43,54.51-2.54,4.21-1.03,11.28,3.48,13.51,3.67,1.81,7.61,3.07,11.44,4.55,8.26,3.2,16.6,6.22,24.79,9.6,11.81,4.88,18.4,14.02,20.56,26.34,.85,4.87,1.21,9.82,1.83,15.04Z"/>
  <path class="cls-1" d="M125.99,2.55c9.33-3.19,18.65-3.86,27.69,.74,6.17,3.14,8.72,8.94,9.37,15.42,1.44,14.29-2.05,27.52-9.47,39.76-1.99,3.28-.89,8.47,2.65,10.15,3.26,1.55,6.75,2.62,10.13,3.93,5.78,2.24,11.62,4.36,17.32,6.79,9.05,3.85,13.78,11.05,15.25,20.49,.52,3.3,.7,6.65,1.06,10.28-4.79,0-9.13,0-13.47,0-3.56,0-7.31,.7-10.62-.2-3.14-.85-5.82-3.39-8.72-5.16-10.08-6.13-21.23-9.68-32.33-13.39-2.75-.92-5.49-1.91-8.16-3.02-2.08-.87-2.43-2.29-1.25-4.24,8.9-14.7,13.33-30.73,13.75-47.78,.26-10.79-1.8-21.11-9.36-29.57-1.18-1.32-2.38-2.6-3.85-4.19Z"/>
  <path class="cls-1" d="M72.88,2.76c-11.81,9.81-14.22,22.82-13.4,36.73,.97,16.42,5.54,31.85,14.46,45.85,1.14,1.8,.28,2.49-1.2,3.01-6.63,2.31-13.28,4.54-19.9,6.86-8.4,2.94-16.77,6.15-23.8,11.63-3.55,2.77-7.03,3.49-11.24,3.33-5.89-.22-11.79-.05-17.67-.05-.97-11.12,3.14-24.18,12.48-29.25,7.79-4.22,16.14-6.89,24.46-9.73,1.9-.65,3.76-1.45,5.64-2.17,2.15-.83,3.24-2.51,3.89-4.61,.57-1.86,.32-3.33-.81-5.11-8.05-12.68-11.8-26.5-9.83-41.48,1.32-10.07,6.99-15.55,17.14-17.12,6.61-1.02,13.19-.86,19.78,2.12Z"/>
</svg>