<?xml version="1.0" encoding="UTF-8"?>
<svg id="Layer_1" data-name="Layer 1" xmlns="http://www.w3.org/2000/svg" viewBox="0 0 200 200">
  <defs>
    <style>
      .cls-1 {
        fill: #fbb247;
      }
    </style>
  </defs>
  <path class="cls-1" d="M200,129.75c-4.13,4.14-4.96,3.82-7.12-3.26-9.32-30.47-18.6-60.96-27.91-91.43-.64-2.1-1.37-4.15-2.45-7.38-1.76,5.6-3.15,9.88-4.46,14.21-8.39,27.68-16.75,55.37-25.13,83.06-.59,1.95-1.03,4.2-2.02,5.64-.77,1.12-2.65,2.12-3.38,1.52-1.03-.85-2.02-3.21-2-4.9,.03-2.23,1-4.47,1.66-6.64,8.54-28.1,17.1-56.2,25.64-84.3,.71-2.34,1.31-4.75,2.09-7.56h-51.76c-.1,2.15-.29,4.19-.29,6.24-.02,43.75,.03,87.5-.07,131.25-.01,4.64,.73,6.4,4.18,8.27,5.59,3.04,10.49,8.63,15.76,12.95,1.87,1.53,3.94,3.47,5.96,3.57,8.17,.41,16.37-.1,24.54,.38,1.75,.1,3.41,2.93,5.12,4.5-1.65,1.38-3.3,3.94-4.96,3.95-35.23,.23-70.47,.18-105.7,.16-2.33,0-5.36,.28-4.83-4.56,.19-1.73,3.02-3.98,4.69-4.07,7.67-.44,15.37,.09,23.03-.38,2.16-.13,4.76-1.75,6.27-3.94,4.33-6.23,9-11.13,15.09-13.32,1.23-.44,2.9-3.24,2.91-4.96,.15-45.89,.1-91.78,.07-137.67,0-.65-.24-1.31-.43-2.29H44.67c.79,2.86,1.45,5.48,2.23,8.02,8.46,27.63,16.95,55.25,25.42,82.88,.67,2.18,1.74,4.37,1.77,6.58,.03,1.92-.83,4.52-1.91,5.59-.63,.63-2.7-.71-3.64-1.92-.91-1.17-1.23-3.31-1.76-5.05-9.03-29.61-18.05-59.23-27.08-88.84-.72-2.37-1.52-4.69-2.72-8.38-1.05,3.21-1.76,5.23-2.38,7.29-9,29.63-17.99,59.27-26.99,88.9-.59,1.96-.93,4.35-1.94,5.7-1.01,1.35-3.11,2.74-4.01,2.09-1-.72-1.93-4.05-1.59-5.69,.99-4.75,2.63-9.22,4.02-13.79C12.46,84.76,20.83,57.34,29.43,29.18c-1.34-.31-2.6-.09-3.32-.88-1.04-1.15-2.39-3.14-2.28-4.57,.11-1.43,1.72-3.01,2.91-3.78,.97-.63,2.3-.17,3.47-.17,10.52,0,21.04,.05,31.56-.02,7.22-.05,14.56,1.52,21.05-5.51,1.94-2.11,5.29-1.39,7.58-3.1,2.37-1.76,4.26-4.87,6.33-7.44C97.75,2.44,98.67,.04,99.68,0c1.01-.04,2.79,2,2.99,3.47,.72,5.43,3.47,6.71,6.55,8.15,4.38,2.06,8.62,4.76,12.98,6.92,1.66,.82,3.5,1.29,5.26,1.3,14.53,.1,29.06,.06,43.58,.06,1,0,2.19-.46,2.96,.14,1.3,1.01,2.34,2.7,3.48,4.11-1.04,1.51-1.94,3.4-3.18,4.41-.89,.73-2.25,.3-3.79,.41,.37,1.9,.55,3.48,.98,4.9,8.94,29.41,17.9,58.8,26.9,88.18,.38,1.23,1.06,2.27,1.6,3.4v4.28Z"/>
  <path class="cls-1" d="M164.36,146.71c9.03,0,16.19,.03,23.35-.02,2.59-.02,5.57-.25,5.59,4.71,.02,5.68-3.45,4-5.68,4.01-15.7,.12-31.39,.19-47.09-.1-1.88-.03-5.28-2.15-5.34-3.54-.23-5.32,2.95-5.11,5.71-5.09,6.83,.05,13.65,.02,21.36,.02-1.1-8.63-10.93-11.19-6.2-22.22,2.15-1.08,3.79-.45,3.67,4.51-.11,4.71,1.58,7.35,4.95,6.52,3.62-.89,3.94-5.31,3.01-8.87-1.01-3.85-3.16-7.11-4.82-10.61-2.13-4.48-4.78-8.64-6.26-13.52-1.72-5.69-.41-10.98,3.07-15.25,1.55-1.91,2.48-4.85,3.7-7.32,1.29,2.21,2.27,5.47,3.91,6.44,5.33,3.16,5.62,9.04,5.49,15.46-.5,.57-.99,1.14-1.49,1.72-1-1.67-2.6-3.15-2.89-5.03-.62-4.13-1.32-7.99-4.91-6.72-3.56,1.26-3.32,6.1-2.26,9.41,1.35,4.21,3.81,7.68,5.69,11.57,1.87,3.87,4.2,7.57,5.26,11.88,1.57,6.35,.47,12.11-4.13,15.79-1.17,.94-1.87,3.07-3.7,6.25Z"/>
  <path class="cls-1" d="M45.51,102.11c-3.09,1.78-4.26,.54-4.39-3.72-.13-4.19-1.32-8-4.9-6.54-3.46,1.41-3.33,6.16-2.14,9.46,1.65,4.55,4.5,8.19,6.37,12.61,2,4.74,4.39,9.78,4.83,15,.3,3.49-2.46,7.54-3.94,11.28-.65,1.65-1.51,3.13-2.27,4.68,1.3,.61,2.6,1.7,3.92,1.74,6,.19,12.03-.27,18.01,.3,1.83,.17,4.88,2.62,5.05,4.45,.44,4.94-2.79,4.08-5,4.08-16.02,.05-32.04,.07-48.06-.02-2.14-.01-5.32,1.24-5.26-3.94,.05-4.93,2.96-4.83,5.56-4.81,6.99,.05,13.98,.02,22.62,.02-1.66-3.23-2.63-4.9-3.44-6.72-1.53-3.43-3.44-6.72-4.31-10.47-.96-4.15,.61-6.31,4.09-4.83,.11,1.43,.3,3.02,.36,4.62,.15,4.35,1.66,6.71,4.76,6.29,3.43-.46,4.16-4.39,3.33-7.84-.99-4.09-2.99-7.7-4.67-11.42-2.14-4.74-5.43-9.03-6.27-14.16-.69-4.22,1.24-9.52,2.46-14.09,.66-2.48,2.25-4.47,3.46-6.63,.36-.64,1-1.64,1.31-1.51,.62,.27,1.18,1.11,1.63,1.88,1.04,1.77,1.76,4.12,3.03,5.37,3.72,3.65,4.16,8.78,3.86,14.91Z"/>
</svg>