<?xml version="1.0" encoding="UTF-8"?>
<svg id="Layer_1" data-name="Layer 1" xmlns="http://www.w3.org/2000/svg" viewBox="0 0 200 200">
  <defs>
    <style>
      .cls-1 {
        fill: #fbb247;
      }
    </style>
  </defs>
  <path class="cls-1" d="M182.04,92.5c.47,.02,.83,.05,1.19,.05,2.39,0,4.79-.01,7.18,0,6.35,.05,10.56,5.02,9.39,11.19-3.59,19.09-7.22,38.18-10.83,57.27-1.84,9.74-3.69,19.48-5.52,29.23-1.07,5.71-5.7,9.61-11.63,9.74-.44,0-.88,0-1.31,0-53.27,0-106.54,0-159.81,0-6.34,0-10.71-4.27-10.71-10.52C0,150.28,0,111.08,0,71.88c0-5.58,3.93-9.37,9.59-9.35,6.2,.03,12.41-.01,18.61,.03,.99,0,1.15-.35,1.15-1.21-.02-15.17-.02-30.35-.02-45.52,0-.43-.02-.87,0-1.3,.09-1.58,1.04-2.52,2.65-2.55,1.95-.03,3.91-.04,5.87,0,.77,.02,.97-.25,.96-.98-.04-2.66-.02-5.32-.01-7.99,0-2.2,.83-3.03,3.03-3.03C80.88,0,119.92,0,158.96,0c2.27,0,3.1,.83,3.1,3.08,0,24.06,0,48.12,0,72.17q0,1.42,1.4,1.42c3.07,0,6.14,0,9.2,0,5.44,.02,9.35,3.89,9.37,9.28,0,2.15,0,4.31,0,6.55Zm-90.98,102.57c26.84,0,53.67,0,80.51,0,3.75,0,6.38-2.18,7.06-5.83,1.3-6.93,2.6-13.86,3.91-20.79,4.11-21.74,8.24-43.47,12.35-65.21,.69-3.63-1.14-5.8-4.89-5.8-11.63,0-23.26,0-34.89,0-41.84,0-83.68,0-125.51,0-3.75,0-5.98,1.8-6.71,5.45-.51,2.58-.99,5.16-1.48,7.74-3.15,16.64-6.3,33.28-9.44,49.91-1.98,10.49-3.96,20.99-5.96,31.48-.13,.67,0,1.13,.5,1.59,1.12,1.04,2.42,1.47,3.95,1.47,26.87-.01,53.74,0,80.61,0Zm-1.23-102.56l.02-.19c-.45-.06-.9-.12-1.35-.18-4.63-.62-9.04-1.82-12.91-4.55-.31-.22-.81-.21-1.23-.26-1.76-.2-3.59-.14-5.28-.61-2.71-.76-5-2.39-5.7-5.18-1.5-5.97-.59-11.64,3.12-16.71,3.02-4.12,7.11-6.96,11.7-9.12,2.21-1.04,4.52-1.88,6.83-2.83-.07-.14-.14-.33-.24-.48-3.82-5.71-5.25-12.05-4.83-18.8,.24-3.9,1.85-7.31,4.95-9.83,3.35-2.73,7.16-4.5,11.62-3.83,7.65,1.16,12.82,6.39,13.39,13.74,.5,6.42-.97,12.49-4.37,18.05-.24,.39-.51,.76-.76,1.12,.11,.11,.14,.17,.2,.19,.38,.14,.76,.27,1.14,.4,3.84,1.3,7.5,2.98,10.83,5.3,7.62,5.31,11.41,12.31,9.83,21.69-.28,1.69-1.07,3.06-2.32,4.2-2.47,2.25-5.46,2.88-8.71,2.72-.48-.02-1.08-.03-1.43,.22-3.96,2.78-8.47,4-13.2,4.6-.35,.04-.69,.11-1.04,.17,0,.04,.02,.08,.03,.12h47.57v-1.17c0-24.39,0-48.78,.03-73.17,0-1.03-.29-1.26-1.3-1.26-36.95,.03-73.9,.03-110.86,0-1.02,0-1.3,.25-1.3,1.27,.03,24.32,.02,48.65,.02,72.97,0,1.44,0,1.45,1.47,1.45,17.73,0,35.47,0,53.2,0,.29,0,.57-.03,.86-.04Zm5.72-4.77c1.25-.09,3.04-.16,4.81-.37,3.57-.42,7.02-1.27,10.14-3.13,.59-.35,.84-.74,.7-1.45-.2-1.01-.33-2.04-.41-3.06-.1-1.33,.85-2.43,2.14-2.6,1.33-.17,2.51,.73,2.75,2.09,.07,.39,.12,.79,.17,1.18,.31,2.43,.46,2.53,2.89,1.93,.2-.05,.39-.1,.58-.17,1.45-.57,2.49-1.38,2.75-3.1,.91-6.07-1.29-10.9-5.91-14.77-4.49-3.76-9.81-5.88-15.44-7.35-.29-.08-.69-.04-.96,.1-3.2,1.67-6.37,1.68-9.58,.02-.29-.15-.73-.19-1.05-.1-5.05,1.33-9.86,3.2-14.08,6.31-5.41,3.99-8.25,9.1-7.16,15.95,.22,1.36,.96,2.2,2.13,2.67,.89,.35,1.88,.47,2.83,.65,.64,.12,1-.13,1.06-.84,.06-.83,.19-1.65,.34-2.47,.24-1.4,1.37-2.26,2.72-2.1,1.34,.16,2.23,1.27,2.13,2.68-.04,.6-.15,1.19-.22,1.78q-.28,2.3,1.87,3.34c4.5,2.17,9.34,2.68,14.79,2.8ZM4.91,169.93c.08,.02,.16,.03,.24,.05,.04-.12,.08-.25,.11-.37,4.19-22.19,8.39-44.38,12.56-66.58,1.24-6.59,4.26-9.58,10.82-10.44,.6-.08,.69-.34,.69-.85,0-7.85-.01-15.7,0-23.55,0-.62-.23-.8-.83-.8-6.51,.02-13.01-.01-19.52,.02-2.07,.01-3.72,1.52-4,3.55-.08,.56-.07,1.13-.07,1.69,0,32.1,0,64.2-.01,96.3,0,.32,0,.65,0,.97ZM43.7,4.93c0,2.05,.04,4.01-.02,5.96-.03,.89,.26,1.22,1.15,1.11,.36-.05,.74,0,1.11,0,34.39,0,68.78,0,103.18,0,2.78,0,3.5,.71,3.5,3.4,0,25.16,0,50.32,0,75.47,0,.33,.02,.67,0,1-.03,.51,.2,.72,.72,.7,.88-.02,1.76-.07,2.63,.01,.97,.09,1.17-.29,1.17-1.18-.02-28.42-.02-56.84-.02-85.26v-1.21H43.7Zm61.48,30.85c-.09-.78-.15-1.95-.38-3.08-.9-4.47-5.62-8.24-10.04-8.06-4.82,.2-9.22,3.97-9.78,8.71-.65,5.61,.53,10.94,3.58,15.73,.83,1.3,2.14,2.37,3.41,3.32,1.81,1.35,3.79,1.33,5.76,.15,2.08-1.25,3.57-3.02,4.64-5.14,1.79-3.54,2.47-7.35,2.81-11.64Zm57.06,45.78c-.08,.19-.14,.28-.14,.37-.01,3.33-.01,6.65-.03,9.98,0,.66,.42,.64,.88,.64,4.48,0,8.97,0,13.45,0,.19,0,.39-.04,.57-.07,0-2.63,.18-5.22-.06-7.78-.18-1.91-1.98-3.12-4-3.14-2.49-.03-4.99,0-7.48,0-1.07,0-2.14,0-3.19,0Z"/>
</svg>