<?xml version="1.0" encoding="UTF-8"?>
<svg id="Layer_1" data-name="Layer 1" xmlns="http://www.w3.org/2000/svg" viewBox="0 0 200 200">
  <defs>
    <style>
      .cls-1 {
        fill: #fbb247;
      }
    </style>
  </defs>
  <path class="cls-1" d="M165.48,81.03v-18.79c11.44,9.99,22.94,20.03,34.33,29.98-11.05,9.6-22.56,19.6-34.21,29.73v-22.11c-5.98,1.66-11.56,2.81-16.77,4.74-16.65,6.15-26.75,17.45-32.17,32.19-2.49,6.77-3.72,13.7-3.63,20.84,.14,10.89,.09,21.79,0,32.68-.03,4.01-2.13,7.12-6.37,8.82-4.02,1.61-7.92,1.17-11.39-1.27-2.56-1.81-3.99-4.21-4-7.09-.02-13.03-.77-26.1,.21-39.07,1.75-23.1,11.8-42.92,33.66-57.17,11.12-7.25,23.88-11.1,37.48-13.02,.9-.13,1.8-.28,2.85-.45Z"/>
  <path class="cls-1" d="M100.54,99.84c-2.78-2.29-5.67-4.53-8.35-6.97-.68-.62-.9-1.83-.9-2.76-.05-19.14-.04-38.28-.04-57.42,0-.86,0-1.73,0-2.81h-23.13C79.61,19.86,91.13,9.82,102.33,.06c11.04,9.63,22.53,19.64,34.1,29.72h-23.36v2.78c0,18.4-.02,36.81,.04,55.21,0,1.47-.55,2.37-1.8,3.34-3.66,2.81-7.15,5.78-10.77,8.73Z"/>
  <path class="cls-1" d="M-.19,91.96c11.37-9.94,22.8-19.93,34.42-30.09v18.53c5.09,.69,9.93,1.18,14.69,2.01,17.52,3.03,32.86,9.57,44.97,21.34,1.62,1.58,2.04,2.7,.66,4.7-3.84,5.59-6.23,11.73-7.81,18.09-.12,.49-.31,.96-.6,1.86-10.14-19.53-28.95-26.55-51.78-28.72v22.43C22.61,111.85,11.13,101.83-.19,91.96Z"/>
</svg>