<?xml version="1.0" encoding="UTF-8"?>
<svg id="Layer_1" data-name="Layer 1" xmlns="http://www.w3.org/2000/svg" viewBox="0 0 200 200">
  <defs>
    <style>
      .cls-1 {
        fill: #fbb247;
      }
    </style>
  </defs>
  <path class="cls-1" d="M133.85,73.85c-1.21,.38-1.11,1.46-1.24,2.38-.4,2.73-.82,5.46-1.14,8.2-.15,1.26-.73,1.58-1.94,1.47-4.91-.45-4.91-.42-4.21-5.18,.48-3.28,.91-6.57,1.41-9.84,.4-2.59,1.41-3.48,4.01-3.52,2.36-.04,4.72-.09,7.07,0,1.64,.06,2.36-.42,2.34-2.2-.07-5.8-.05-11.6,.06-17.4,.04-1.96-.64-3.3-2.04-4.67-10.86-10.59-10.62-28.05,.45-38.34,1.94-1.8,4.12-3.29,6.54-4.35,2.09-.92,3.52-.28,4.47,1.84-1.41,4.05-1.67,8.07,.33,12.03,.03,1.93,.06,3.87,.11,5.8,.02,.61-.16,1.46,.47,1.7,2.42,.93,4.75,2.52,7.51,1.82,5.39-1.38,5.37-1.44,5.38-7,.01-4.08,.03-8.15,.11-12.23,.08-4.19,2.27-5.42,6-3.4,15.39,8.34,18.55,29.48,6.13,41.75-1.74,1.72-2.4,3.39-2.36,5.78,.14,8.15,.12,16.3,.01,24.46-.03,2.19,.44,3.65,2.25,5.22,4.13,3.57,7.85,7.61,11.72,11.47,4.23,4.21,4.23,4.3,.64,9.07-1.66,2.21-3.28,4.46-4.99,6.63-.75,.94-.65,1.75-.34,2.85,.84,2.98,2.58,4.34,5.76,4.43,2.75,.07,5.49,.76,8.24,1.1,2.05,.25,3.21,1.39,3.24,3.38,.1,6.63,.16,13.26,.12,19.89-.01,2.02-1.35,3.06-3.32,3.34-3.57,.51-7.14,1-10.7,1.56-2.59,.41-4.41,4.85-2.87,6.94,2.1,2.84,4.23,5.64,6.33,8.48,1.56,2.11,1.5,3.5-.31,5.32-4.39,4.42-8.81,8.82-13.26,13.18-1.87,1.83-3.19,1.89-5.33,.33-2.86-2.08-5.7-4.17-8.5-6.33-.99-.77-1.83-.76-3.04-.43-3.04,.85-4.28,2.67-4.39,5.78-.09,2.74-.69,5.48-1.13,8.2-.36,2.26-1.51,3.29-3.78,3.33-3.05,.05-6.1,0-9.16-.01-2.09-2.35-5.56-2.22-7.08,.07-.01,2.69-.06,5.38-.03,8.07,.04,4.18-.9,5.17-5.07,5.17-34.88,0-69.75,0-104.63,0-5.48,0-10.95-.03-16.43-.05-1.67-2-3.78-.91-5.75-.79-.85-.61-1.29-1.45-1.28-2.48,.13-11.81-.9-23.68,.43-35.41,1.51-13.29,8.98-22.9,21.22-28.38,8.53-3.82,17.34-7.02,26.03-10.5,1.16-.46,2.41-.79,2.32-2.47-.1-1.73,.28-3.34-1.83-4.57-8.79-5.11-14.53-12.68-17.04-22.54-.47-1.84-1.33-2.47-3.16-2.4-2.07,.08-4.18,.09-6.23-.17-4.79-.61-8.19-4.27-8.39-9.09-.15-3.66-.12-7.33,0-10.98,.12-3.41,1.74-6.16,4.7-7.83,1.62-.92,1.95-2.02,1.92-3.67-.22-12.04,3.63-22.62,11.47-31.82,14.61-17.16,41.5-20.98,60.29-8.49,14.12,9.39,21.15,22.63,21.4,39.45,.03,2.25,.39,3.77,2.58,4.99,2.56,1.42,3.77,4.04,3.9,6.96,.18,4,.31,8.01-.04,12.01-.3,3.36-1.98,5.89-4.91,7.47-1.26,.68-1.61,1.55-1.57,2.83,.06,1.73,.11,3.46,.07,5.18-.15,5.55-4.25,10.15-9.75,9.73-5.78-.44-10.32,.9-14.04,5.38-1.06,1.28-2.69,2.24-4.25,2.92-2.31,1.01-1.96,2.84-2,4.68-.04,1.81,1.38,2.03,2.56,2.51,7.4,2.97,14.8,5.93,22.21,8.86,2.34,.93,2.43,.83,2.25-1.71-.95-13.72,5.56-24.84,17.83-30.45,15.64-7.15,34.86,.96,40.68,17.16,6.22,17.32-3.94,35.92-21.8,39.85-4.03,.89-8.09,.99-12.19,.22-2.68-.51-2.7-.41-2.34,2.18,.04,.27,.02,.55,.04,.83-.13,.46-.36,.93-.36,1.39-.03,5.78-.03,11.55-.02,17.33,0,.88,.35,1.61,1.21,2,0,0,0,0,0,0,1.84,1.73,4.95,1.76,7.07,.09,1.6-.02,3.19-.11,4.78-.04,1.4,.06,2-.54,2.18-1.87,.41-3.15,.95-6.29,1.33-9.44,.23-1.93,1.11-3.18,3.02-3.75,2.46-.73,4.84-1.7,7.09-2.95,1.61-.89,3.04-.64,4.44,.42,2.65,2.01,5.34,3.96,7.97,6,1.02,.79,1.77,.74,2.68-.19,2.47-2.53,4.97-5.02,7.52-7.46,.99-.95,1.06-1.75,.2-2.83-1.98-2.49-3.82-5.09-5.8-7.58-1.28-1.61-1.46-3.19-.45-4.97,1.23-2.17,2.14-4.49,2.85-6.88,.54-1.82,1.78-2.68,3.63-2.91,3.1-.39,6.18-.89,9.27-1.27,1.46-.18,2.23-.67,2.18-2.33-.1-3.38-.11-6.77,0-10.15,.06-1.65-.7-2.17-2.16-2.35-3.1-.39-6.18-.91-9.27-1.29-1.95-.24-3.17-1.18-3.74-3.06-.71-2.39-1.66-4.7-2.85-6.89-.91-1.68-.7-3.15,.43-4.62,1.98-2.58,3.88-5.22,5.89-7.77,.86-1.09,.79-1.86-.21-2.82-2.55-2.44-5.04-4.95-7.5-7.48-.89-.92-1.63-.98-2.67-.17-2.56,2-5.22,3.89-7.81,5.87-1.55,1.18-3.08,1.37-4.82,.41-2.19-1.21-4.5-2.16-6.91-2.84-1.86-.52-2.72-1.75-2.96-3.57-.4-3.08-.89-6.15-1.24-9.24-.18-1.58-.79-2.35-2.5-2.25-1.66,.09-3.33-.04-4.99-.07-1.6-1.61-4.52-1.61-6.29,0Zm-26.93,22.93c1.62-1.3,2.05-4.09,.77-5.91-1.03-1.47-2.41-1.39-3.8-.44-.46,.13-.99,.22-1.13,.77-.74,2.79-1.57,5.54-2.74,8.19-.24,.54-.03,.86,.56,1.07,2.95,1.04,5.66-.51,6.35-3.67ZM20.11,70.63c-1.66,1.1-1.4,2.22-.04,3.36,.04,2.06,.04,4.13,.13,6.19,.1,2.35,1.22,3.55,3.57,3.74,1.51,.13,3.04,.04,4.56,.1,1.42,.05,1.98-.63,1.96-2-.03-3.17,.07-6.34,0-9.51-.14-5.79,1.25-5.35-5.92-5.28-2.29,.02-3.83,1.04-4.26,3.4Zm6.65-13.27c-1.65,1.16-1.38,2.26,.11,3.33q3.34,.24,3.58-3.07c2-26.69,31.85-42.25,55.46-27.98,10.81,6.53,16.58,16.4,17.4,29.04,.08,1.21,.27,2.16,1.86,2.12,1.62-.04,1.71-1.02,1.71-2.23-.05-8.13-2-15.68-6.38-22.63-14.81-23.48-49.87-24.57-65.98-2.04-5.04,7.04-7.46,14.89-7.75,23.46Zm125.79,11.24c1.25,.55,.87-.53,.88-.97,.05-2.21,.02-4.42,.03-6.63,.03-4.76,.06-9.53,.11-14.29,0-.99,.09-1.95,1.27-2.35,3.21-1.1,5.04,.11,5.2,3.48,.03,.69,.03,1.38,.03,2.07,0,10.64-.03,21.27-.02,31.91,0,1.01-.45,2.4,.43,2.92,1,.59,1.72-.8,2.58-1.29,.54-.3,.97-.8,1.52-1.08,1.76-.9,2.26-2.28,2.24-4.23-.08-10.98,0-21.96-.08-32.94-.02-2.41,.69-4.1,2.64-5.67,8.82-7.08,9.88-20.41,2.41-28.44-.37-.39-.7-1.05-1.29-.88-.67,.2-.41,.94-.42,1.45-.05,3.94-.1,7.87-.08,11.81,.01,2.16-.95,3.42-2.99,4.17q-9.43,3.46-19.12,.4c-.33-.11-.66-.2-.99-.31-2.71-.92-3.3-1.7-3.33-4.52-.04-3.59-.04-7.18-.11-10.77-.02-.77,.44-1.95-.48-2.2-.78-.22-1.28,.9-1.79,1.53-6.88,8.39-5.58,20.84,3,27.81,1.73,1.41,2.49,2.98,2.49,5.14,0,7.53,.07,15.06,.12,22.58,.39,1.12,1.3,1.23,2.31,1.22,1.15-.01,2.3,.05,3.46,.07Zm-69.05,38.47c-2.85-1.17-5.53-3.15-8.91-1.42-.96,.49-2.17,.32-3.26,.06-.94-.23-1.67-.75-1.73-1.79-.06-1,.67-1.45,1.51-1.7,1.07-.32,2.09-.7,2.8-1.64,4.16,0,8.32,0,12.48,0,1.59,1.96,3.52,1.95,4.61,0,.97-.14,1.3-.97,1.72-1.66,1.94-3.17,3.07-6.62,3.68-10.27,.86-5.15,.18-10.34,.52-15.5,.13-1.96-.66-2.74-2.54-2.86-3.16-.21-5.82-1.62-8.24-3.59-2.24-1.83-3.78-4.21-5.46-6.49-.8-1.08-1.48-1.21-2.53-.33-1.96,1.64-4.05,3.14-6,4.8-4.62,3.94-9.93,5.9-16.02,5.86-5.68-.04-11.37,.05-17.05,0-1.66-.01-2.41,.52-2.36,2.25,.11,4.28-.05,8.57,.2,12.83,.95,16.26,14.54,28.6,30.89,28.11,5.82-.17,11.16-1.94,15.97-5.25,.38-.26,.99-.49,.82-1.05-.07-.22-.71-.25-1.1-.37Zm-42.9,86.39c18.8-.02,37.6-.03,56.4-.05q3.16,0,3.17-3.2c.03-10.15,.09-20.31,.06-30.46,0-2.11,.91-2.77,2.9-2.74,3.21,.05,3.44,.16,3.6,3.31,.05,.9,.05,1.8,.05,2.69,0,8.98,0,17.96,0,26.94,0,3.55,.01,3.57,3.48,3.56,4.72-.02,9.43-.16,14.15-.06,2,.04,2.45-.75,2.43-2.55-.07-5.66,0-11.33,.02-16.99,2.11-1.97,2.41-5.28,.03-7.49-.04-.55-.09-1.1-.13-1.65-1-12.31-6.99-21.23-18.42-26.17-7.76-3.35-15.7-6.28-23.53-9.46-1.49-.61-2.16-.3-2.84,1.17-2.83,6.09-7.63,9.71-14.42,9.88-7.32,.18-12.81-3.13-15.88-9.9-.68-1.51-1.38-1.75-2.85-1.16-7.96,3.23-16.06,6.16-23.9,9.64-11.2,4.97-17.25,13.83-17.96,26.01-.56,9.51-.01,19.05-.07,28.58,1.44,1.78,4.9,1.83,7.07,.11,3.26-.02,6.51-.04,9.77-.05q3.15-.01,3.16-3.2c.02-10.07,.01-20.14,.09-30.21,.02-2.74,.35-2.94,3.03-2.97,3.06-.03,3.28,.16,3.45,3.21,.05,.89,.05,1.79,.05,2.69,.01,10.14,.03,20.28,.04,30.42,.53,1.92,1.72,2.68,3.61,2.19,1.34-.35,2.55-.98,3.46-2.08ZM116.8,127.77c.32,4.13,.85,8.86,5.37,12.08,1.48,1.06,2.78,2.58,3.71,4.15,1.89,3.23,4.92,4.51,8.25,5.42,3.39,.92,6.81,1.03,10.3,.45,11.46-1.91,20.05-12.66,19.4-24.38-.64-11.55-10.85-21.65-22.33-22.1-13.54-.52-24.68,10.14-24.7,24.38ZM48.2,64.1s0-.01,0-.02c1.87,0,3.75-.06,5.62,.01,5.5,.22,10.39-1.19,14.6-4.87,2.76-2.41,5.7-4.62,8.61-6.87,2.87-2.22,4.48-1.98,6.64,.85,1.68,2.2,3.33,4.42,5.02,6.61,1.57,2.05,3.59,3.4,6.15,3.97,1.5,.34,1.99-.16,2.02-1.64,.07-4.77-.69-9.38-2.67-13.72-5.91-12.93-20.29-20.05-33.89-16.86-14.31,3.36-23.93,15.84-23.54,30.46,.04,1.5,.56,2.12,2.08,2.09,3.12-.05,6.24-.02,9.37-.02Zm28.71,58.63q.1-3.7-3.61-2.95c-.54,.11-1.09,.17-1.64,.26-4.38,.67-8.7,0-13.02-.61-.75-.11-1.47-.4-1.81,.71-1.54,5.01,1.91,11.51,6.98,13.05,6.83,2.09,12.9-2.76,13.1-10.46Zm36.55-46.8s.05,0,.07,0c0-.62-.02-1.24,0-1.86,.26-5.86-.58-6.76-6.43-6.84-.69,0-1.38,0-2.08,0-1.12,0-1.63,.58-1.63,1.67,0,4.48-.02,8.96,0,13.44,0,.7,.11,1.49,1.02,1.55,2.27,.16,4.58,.45,6.8-.25,1.46-.46,2.19-1.64,2.24-3.17,.04-1.52,0-3.03,0-4.55Z"/>
  <path class="cls-1" d="M170.67,100.85c-.82-.23-1.3-.94-1.87-1.53-3.16-3.22-3.15-2.3,.06-5.59,.39-.4,.8-.76,1.22-1.12,.43-.38,.89-.39,1.3,0,1.14,1.1,2.27,2.22,3.39,3.35,.13,.13,.22,.37,.23,.56,.04,.61-3.66,4.33-4.32,4.33Z"/>
  <path class="cls-1" d="M175.02,157.64c-1,1.51-2.32,2.85-3.82,3.91-1.1,.78-1.69-.58-2.3-1.18-3.52-3.44-3.02-2.61-.13-5.57,1.9-1.94,1.91-1.95,3.83-.06,.78,.77,1.52,1.59,2.26,2.4,.08,.09,.09,.26,.16,.49Z"/>
  <path class="cls-1" d="M140.23,87.25c-3.22,0-3.37-.12-3.39-2.93-.02-3.3,.3-3.69,2.95-3.67,3.38,.02,3.58,.2,3.59,3.45,.01,3.02-.1,3.14-3.15,3.15Z"/>
  <path class="cls-1" d="M183.51,130.29c-3.11,0-3.36-.23-3.36-3.2,0-3.05,.23-3.29,3.27-3.29,2.9,0,3.29,.34,3.28,2.88-.01,3.35-.25,3.61-3.19,3.62Z"/>
  <path class="cls-1" d="M143.37,170.37c0,2.86-.22,3.13-2.57,3.12-3.7-.01-3.97-.24-3.97-3.34,0-2.88,.31-3.25,2.73-3.26,3.56-.02,3.79,.19,3.8,3.47Z"/>
  <path class="cls-1" d="M133.45,180.11c-.86-.39-1.21-1.13-1.21-2-.01-5.78,0-11.55,.02-17.33,0-.46,.23-.93,.36-1.39,.67,2.47,.75,5.01,.76,7.55,.02,4.39,.05,8.78,.07,13.18Z"/>
  <path class="cls-1" d="M149.98,14.27c-2-3.96-1.74-7.98-.33-12.03,.81,3.99,.26,8.02,.33,12.03Z"/>
  <path class="cls-1" d="M133.45,186.76c1.51-2.29,4.98-2.42,7.08-.07-2.36,.02-4.72,.05-7.08,.07Z"/>
  <path class="cls-1" d="M140.53,180.2c-2.12,1.68-5.23,1.64-7.07-.09,2.36,.03,4.72,.06,7.07,.09Z"/>
  <path class="cls-1" d="M133.85,73.85c1.77-1.61,4.69-1.61,6.29,0-2.1,0-4.19,0-6.29,0Z"/>
  <path class="cls-1" d="M1.54,199.15c1.97-.12,4.07-1.21,5.75,.79-1.93-.18-3.98,.55-5.75-.79Z"/>
  <path class="cls-1" d="M83.5,107.07c-4.78,0-9.56-.03-14.34-.02-1.57,0-2.29-.75-2.25-2.29,.01-.48,.02-.97-.01-1.45-.15-1.91,.65-2.85,2.64-2.75,1.45,.07,2.91,.01,4.36,0-.7,.94-1.72,1.32-2.8,1.64-.84,.25-1.57,.69-1.51,1.7,.06,1.04,.79,1.56,1.73,1.79,1.09,.26,2.31,.43,3.26-.06,3.38-1.73,6.06,.25,8.91,1.42Z"/>
  <path class="cls-1" d="M33.53,193.36c2.36,.03,4.71,.07,7.07,.1-.9,1.1-2.12,1.73-3.46,2.08-1.89,.5-3.08-.27-3.61-2.19Z"/>
  <path class="cls-1" d="M106.91,96.79c-.02-1.02-.04-2.04-.05-3.07q-.01-3.04-2.99-3.29c1.4-.95,2.77-1.03,3.8,.44,1.28,1.82,.85,4.62-.77,5.91Z"/>
  <path class="cls-1" d="M126.86,173.9c.01-2.5,.02-5,.03-7.49,2.38,2.21,2.07,5.52-.03,7.49Z"/>
  <path class="cls-1" d="M6.89,193.36c2.36,.04,4.71,.07,7.07,.11-2.17,1.72-5.63,1.67-7.07-.11Z"/>
  <path class="cls-1" d="M86.39,100.58c1.54,0,3.07,0,4.61,0-1.09,1.96-3.02,1.96-4.61,0Z"/>
  <path class="cls-1" d="M146.78,67.3c1.94,.36,4.17-.58,5.76,1.3-1.15-.03-2.3-.08-3.46-.07-1.01,0-1.92-.1-2.31-1.22Z"/>
  <path class="cls-1" d="M26.76,57.36c.04,1.11,.07,2.22,.11,3.33-1.49-1.06-1.75-2.16-.11-3.33Z"/>
  <path class="cls-1" d="M20.11,70.63c-.01,1.12-.02,2.24-.04,3.36-1.37-1.13-1.62-2.26,.04-3.36Z"/>
  <path class="cls-1" d="M83.53,83.85c-3.15-.03-3.35-.24-3.31-3.51,.03-2.78,.29-3.01,3.4-3,2.95,.01,3.2,.31,3.18,3.89-.01,2.47-.22,2.64-3.27,2.61Z"/>
  <path class="cls-1" d="M50.25,83.85c-3.17-.02-3.37-.23-3.34-3.48,.02-2.82,.31-3.06,3.59-3.02,2.77,.03,3.05,.42,3,4.08-.03,2.28-.26,2.45-3.25,2.43Z"/>
</svg>