<?xml version="1.0" encoding="UTF-8"?>
<svg id="Layer_1" data-name="Layer 1" xmlns="http://www.w3.org/2000/svg" viewBox="0 0 200 200">
  <defs>
    <style>
      .cls-1 {
        fill: #fbb247;
      }
    </style>
  </defs>
  <path class="cls-1" d="M174.67,89.45c-4.91-.84-9.51-1.69-14.13-2.38-1.11-.17-1.5-.72-1.71-1.9-1.56-8.46-4.3-16.36-8.35-23.6-.59-1.05-.59-1.76,.08-2.77,2.39-3.6,4.69-7.28,7.02-10.94,.5-.78,.97-1.58,1.35-2.19-4.26-5.06-8.4-9.98-12.7-15.09-2.84,2.5-5.8,5.09-8.74,7.69q-3.52,3.11-7.36,.46c-5.41-3.71-11.17-6.37-17.3-7.89-1.27-.31-1.75-.96-1.89-2.46-.45-4.81-1.06-9.59-1.53-14.39-.15-1.57-.66-2.1-2.07-2.04-3.32,.13-6.64-.03-9.97-.01-1.9,.01-3.82,.04-5.71,.3-.42,.06-.98,1.07-1.06,1.72-.62,4.99-1.2,9.98-1.66,14.99-.14,1.52-.56,2-1.86,1.99-12.01-.05-24.02-.04-36.02,0-1.3,0-1.8-.43-1.77-2.03,.08-4,.03-8.01,.02-12.02,0-.74-.06-1.49-.1-2.66-12.53,9.61-24.75,18.99-37.22,28.55,12.46,9.55,24.64,18.9,37.24,28.57v-16.72c.96,0,1.6,0,2.25,0,15.83,0,31.66,.14,47.49-.04,17.41-.19,30.92,12.04,36.54,27.82,2.27,6.38,3.04,13.01,2.8,19.94-.41,11.51-4.22,21.15-10.85,29.41-.32,.4-.71,.74-1.24,1.28-1.44-1.83-2.85-3.61-4.2-5.32,1.7-2.6,3.53-4.95,4.92-7.61,6.31-12.1,6.95-24.76,1.43-37.34-5.63-12.81-14.92-19.93-27.2-20.31-14.69-.45-29.39-.11-44.09-.11-.3,0-.59,.06-1.1,.11v23.23C37.17,71.32,18.74,57.19,0,42.82,18.64,28.52,37.09,14.37,55.82,0V23.08c.65,.07,1.16,.17,1.67,.17,7.94,0,15.89-.04,23.83,.04,1.4,.01,1.8-.52,1.98-2.09,.63-5.54,1.41-11.06,2.16-16.8,2.45,0,4.88,0,7.3,0,6.69,0,13.38,.05,20.07-.05,1.44-.02,1.96,.49,2.14,2.15,.58,5.49,1.26,10.96,1.97,16.43,.07,.57,.51,1.43,.91,1.55,5.23,1.57,10.12,4.04,14.86,7.05,.47,.3,1.49-.04,2.01-.49,3.63-3.09,7.19-6.29,10.78-9.44,.47-.42,.97-.8,1.35-1.12,6.92,8.16,13.78,16.24,20.77,24.46-2.88,4.52-5.85,9.28-8.91,13.93-.84,1.27-.72,2.16-.19,3.56,1.97,5.18,3.8,10.44,5.54,15.74,.43,1.3,.9,1.89,2.08,2.07,4.44,.66,8.87,1.5,13.31,2.16,1.38,.2,1.91,.75,1.85,2.49-.18,5.75-.26,11.51-.27,17.26,0,4.48,.14,8.95,.24,13.43,.02,1-.05,1.71-1.14,1.88-5.62,.89-11.23,1.86-16.85,2.79-.23,.04-.46-.02-.92-.05-.28-2.4-.56-4.79-.85-7.33,4.5-.78,8.76-1.52,13.17-2.28v-21.14Z"/>
  <path class="cls-1" d="M150.67,185.84c12.65-9.7,24.84-19.05,37.33-28.64-12.47-9.57-24.69-18.94-37.33-28.64,0,1.65,0,2.8,0,3.95,0,3.66-.03,7.31,.02,10.97,.02,1.31-.27,1.9-1.5,1.89-16.91-.06-33.82,.23-50.72-.18-16.46-.4-30.76-13.4-35.29-32.04-3.73-15.34-1.43-29.61,7.23-42.2,.33-.48,.68-.96,1.12-1.58,1.68,1.81,3.2,3.45,4.75,5.12-1.15,1.89-2.33,3.57-3.28,5.41-6.2,12.07-6.87,24.65-1.42,37.17,5.52,12.68,14.67,19.92,26.79,20.37,14.86,.56,29.75,.15,44.63,.15,.29,0,.58-.07,1.08-.14v-23.16c18.79,14.41,37.22,28.54,55.93,42.89-18.63,14.29-37.06,28.43-55.78,42.79v-23.11c-.8-.05-1.37-.11-1.94-.12-7.53-.06-15.05-.09-22.58-.17-1.77-.02-2.92,.24-3.13,2.91-.42,5.22-1.23,10.4-1.92,15.84h-29.35c-.44-4.06-.85-8.22-1.34-12.36-.23-2.01-.51-4.03-.93-6-.13-.61-.72-1.39-1.22-1.55-5.16-1.65-10.04-4.04-14.72-7.07-.41-.27-1.35,.17-1.85,.59-3.57,3.07-7.09,6.22-10.62,9.34-.52,.46-1.06,.88-1.51,1.25-6.93-8.16-13.79-16.24-20.76-24.45,2.88-4.52,5.82-9.22,8.84-13.82,.85-1.29,.85-2.22,.25-3.74-1.96-5.03-3.75-10.17-5.42-15.35-.49-1.51-.98-2.24-2.41-2.45-4.91-.71-9.8-1.62-14.79-2.47v-34.53c6.19-1.04,12.36-2.08,18.77-3.16,.31,2.64,.58,5.02,.88,7.6-4.48,.77-8.71,1.5-13.15,2.27,0,2.94,0,5.79,0,8.64,0,3.51,.07,7.03-.07,10.54-.07,1.73,.58,2.17,1.81,2.36,4.13,.64,8.24,1.38,12.37,1.97,1.03,.15,1.46,.73,1.65,1.76,1.61,8.68,4.47,16.73,8.55,24.2,.26,.48,.09,1.62-.23,2.14-2.52,4.1-5.12,8.13-7.72,12.17-.55,.86-.89,1.5-.04,2.49,3.76,4.32,7.45,8.72,11.17,13.09,.2,.24,.47,.41,.82,.7,3.49-3.08,7.02-6.09,10.43-9.26,1.38-1.29,2.37-1.58,4.01-.3,5.83,4.55,12.26,7.54,19.11,9.24,1.19,.3,1.65,.87,1.79,2.31,.45,4.81,1.07,9.6,1.53,14.41,.15,1.55,.62,2.25,2,2.22,5.24-.11,10.48-.1,15.71-.28,.4-.01,1.03-1.17,1.11-1.86,.63-5,1.2-10.01,1.67-15.03,.13-1.43,.55-1.89,1.76-1.88,12.07,.04,24.14,.03,36.21,0,1.22,0,1.7,.43,1.67,1.92-.06,4.01-.02,8.01-.02,12.02,0,.75,0,1.5,0,2.85Z"/>
</svg>