<?xml version="1.0" encoding="UTF-8"?>
<svg id="Layer_1" data-name="Layer 1" xmlns="http://www.w3.org/2000/svg" viewBox="0 0 200 200">
  <defs>
    <style>
      .cls-1 {
        fill: #fbb247;
      }
    </style>
  </defs>
  <path class="cls-1" d="M43.55,0c-.26,.63,.37,.6,.65,.76,5.8,3.27,11.61,6.52,17.42,9.77,6.68,3.74,13.35,7.5,20.05,11.21,1.56,.86,2.21,2.02,2.21,3.77-.03,26.02-.02,52.04-.02,78.05,0,.49,0,.98,0,1.46,.47,.22,.74-.13,1.04-.3,10.1-5.64,20.19-11.3,30.3-16.92,.81-.45,.92-.99,.92-1.78-.02-12.97,.01-25.94-.04-38.9,0-1.98,.73-3.26,2.5-4.25,12.26-6.81,24.5-13.65,36.7-20.56,1.99-1.13,3.59-1.11,5.58,.01,12.23,6.94,24.51,13.79,36.81,20.63,1.65,.92,2.35,2.11,2.34,3.95-.04,13.78-.04,27.57,0,41.35,0,1.84-.7,3.04-2.35,3.95-11.78,6.55-23.53,13.16-35.32,19.71-.81,.45-1.06,.94-1.06,1.82,.03,12.97,0,25.94,.05,38.9,0,2.03-.77,3.3-2.59,4.32-25.18,14.05-50.34,28.13-75.49,42.25-1.8,1.01-3.3,1.07-5.13,.04-25.1-14.1-50.24-28.16-75.37-42.21-.99-.55-1.9-1.17-2.6-2.05,0,0-.06,.03-.07,.05-.03,.03-.04,.07-.06,.1C0,111.19,0,67.22,0,23.25c.01,.04,.02,.08,.04,.12,.01,.03,.04,.06,.06,.08,.78-.66,1.48-1.37,2.4-1.89,8.57-4.76,17.12-9.56,25.67-14.34,3.84-2.15,7.69-4.29,11.52-6.46,.26-.15,.92-.12,.59-.76h3.27ZM6.47,30.24v1.32c0,39.72,0,79.45-.02,119.17,0,.83,.25,1.3,1.01,1.72,22.93,12.8,45.84,25.63,68.75,38.45,1.18,.66,1.19,.65,1.19-.64,0-11.22,0-22.43,.02-33.65,0-.86-.32-1.3-1.06-1.71-11.64-6.38-23.26-12.82-34.92-19.15-1.96-1.06-2.77-2.37-2.77-4.57,.06-27.16,.03-54.32,.07-81.48,0-1.09-.35-1.64-1.31-2.17-6.02-3.31-11.99-6.69-17.98-10.05-4.24-2.37-8.49-4.74-12.98-7.24Zm70.95,.06c-.37,.17-.53,.22-.67,.3-10.28,5.75-20.54,11.51-30.84,17.24-.74,.41-.77,.94-.77,1.61,0,25.36,0,50.73,0,76.09,0,1.42,0,1.42,1.29,.71,9.95-5.56,19.89-11.15,29.86-16.68,.91-.5,1.14-1.08,1.14-2.03-.02-25.24-.02-50.48-.02-75.73v-1.51Zm77.4,85.89c-.36,.17-.52,.23-.66,.31-23.17,12.86-46.34,25.73-69.53,38.56-.75,.41-.78,.91-.78,1.59,0,11.13,0,22.26,0,33.39q0,1.56,1.39,.78c22.84-12.78,45.67-25.57,68.52-38.33,.79-.44,1.09-.9,1.09-1.79-.03-11.09-.02-22.18-.02-33.27v-1.24Zm-3.31-5.45c-.37-.24-.63-.43-.92-.59-10.13-5.67-20.26-11.32-30.37-17.03-.78-.44-1.28-.23-1.92,.13-21.99,12.32-43.99,24.63-65.99,36.94-1.22,.68-2.42,1.37-3.66,2.08,.39,.55,.94,.71,1.4,.96,9.8,5.4,19.61,10.79,29.4,16.21,.87,.48,1.5,.49,2.37,0,18.72-10.42,37.45-20.82,56.19-31.22,4.47-2.48,8.94-4.96,13.5-7.5Zm38.78-64.65c-.64-.36-1.07-.61-1.5-.85-9.88-5.53-19.76-11.05-29.61-16.61-.86-.48-1.45-.43-2.26,.03-10.01,5.63-20.03,11.24-30.05,16.85-.31,.17-.69,.27-.85,.64,.11,.08,.21,.15,.32,.21,10.35,5.79,20.7,11.58,31.03,17.4,.65,.36,1.06,.18,1.58-.12,5.66-3.18,11.32-6.35,16.99-9.52,4.72-2.64,9.44-5.28,14.36-8.04ZM9.82,24.81c.19,.13,.32,.24,.46,.32,10.31,5.77,20.63,11.53,30.92,17.34,.71,.4,1.14,.16,1.69-.15,7.98-4.48,15.97-8.95,23.96-13.42,2.38-1.33,4.76-2.67,7.25-4.07-.33-.22-.52-.36-.74-.48-10.2-5.71-20.41-11.42-30.6-17.15-.64-.36-1.09-.31-1.7,.04-10.12,5.69-20.26,11.35-30.39,17.01-.28,.16-.55,.35-.86,.56Zm112.76,26.91v1.2c0,11.01,.01,22.01-.02,33.02,0,.98,.31,1.5,1.18,1.98,9.49,5.27,18.96,10.59,28.43,15.89,.82,.46,1.65,.91,2.65,1.46v-1.36c0-11.05-.01-22.1,.02-33.14,0-.89-.28-1.36-1.07-1.8-9.96-5.54-19.9-11.12-29.85-16.68-.38-.22-.73-.54-1.34-.57Zm70.97-.15c-.58,.31-.95,.49-1.31,.69-9.95,5.57-19.89,11.15-29.86,16.69-.87,.48-1.11,1-1.11,1.91,.03,11.01,.02,22.02,.03,33.03,0,.39-.12,.8,.13,1.19,.46,0,.77-.29,1.13-.49,9.95-5.56,19.89-11.15,29.86-16.68,.9-.5,1.15-1.06,1.15-2.01-.03-10.97-.02-21.94-.02-32.91v-1.42Z"/>
</svg>