<?xml version="1.0" encoding="UTF-8"?>
<svg id="Layer_1" data-name="Layer 1" xmlns="http://www.w3.org/2000/svg" viewBox="0 0 200 200">
  <defs>
    <style>
      .cls-1 {
        fill: #fbb247;
      }
    </style>
  </defs>
  <path class="cls-1" d="M40.61,23.06c3.87,1.63,7.66,3.49,11.64,4.78,1.97,.64,4.36,.58,6.43,.18,1.72-.33,3.2-1.77,4.9-2.44,7.81-3.07,14.86-5.78,17.71-15.66C83.48,2.34,91.72-.75,99.97,.15c8.47,.92,14.6,5.69,16.86,13.88,1.1,3.98,2.85,5.79,6.66,6.53,2.38,.46,4.77,1.29,6.94,2.36,6.89,3.39,12.76,5.95,21.13,1.14,8.61-4.95,15.71,2.06,21.38,8.59,4.91,5.65,5.83,12.96,1.42,19.14-2.9,4.06-2.69,7.08-.15,10.82,1.24,1.82,2.17,3.95,2.81,6.07,2.23,7.36,4.35,13.71,13.94,15.65,7.08,1.43,9.8,9.74,8.84,18.79-.78,7.42-5.19,13.13-12.76,14.46-5.15,.9-7.52,3.24-8.24,8-.15,.99-.44,2.04-.95,2.88-4.4,7.18-4.6,13.39,1.07,20.77,5.25,6.85,2.08,14.6-6.78,22.77-6.28,5.79-14.01,7.07-20.67,2.17-4.98-3.66-9.09-4.54-13.98-.52-1.07,.88-2.49,1.48-3.84,1.85-7.38,2.04-12.39,5.28-13.94,14.09-1.45,8.17-9.98,11.13-22.37,10.25-6.63-.47-13.14-5.82-14.19-13.09-.72-5.01-3.06-6.93-7.58-7.73-2.38-.42-4.79-1.28-6.9-2.45-6.55-3.64-12.29-5.57-19.92-.78-6.7,4.21-14.8-.06-21.96-8.84-4.72-5.79-5.52-12.86-1.09-19.21,2.64-3.79,2.77-6.64,.23-10.28-1.48-2.13-2.51-4.68-3.3-7.18-2.2-6.93-4.02-13.05-13.32-14.69C2.15,114.35-.65,106.38,.13,97.05c.62-7.49,4.88-13.25,12.44-14.69,5.29-1.01,7.88-3.43,8.63-8.41,.12-.79,.34-1.63,.75-2.31,4.46-7.36,4.15-13.55-.94-21.37-7.18-11.03,4.67-26.37,19.59-27.22ZM194.29,99.9c-.09-7.24-3.18-10.95-10.95-12.19-4.89-.78-7.3-3.13-8.73-7.91-1.84-6.18-4.54-12.17-7.4-17.98-1.83-3.72-1.86-6.69,.46-10.18,5.23-7.85,4.81-11.46-1.4-17.64-6.69-6.66-10.42-7.2-18.19-2-3.69,2.48-6.86,2.35-10.81,.51-6.07-2.84-12.37-5.29-18.77-7.27-3.74-1.16-5.78-2.59-6.48-6.73-1.36-8.13-6.84-12.73-14.03-12.74-7.24-.01-12.51,4.49-14.04,12.7-.82,4.37-3.07,6.61-7.17,8.08-5.35,1.92-10.7,4.11-15.62,6.91-4.34,2.47-7.74,2.35-11.82-.45-7.78-5.34-14.44-4.47-20.82,2.14-5.18,5.37-5.2,9.99,.74,17.83,3.35,4.41,4.17,8.35,1.31,13.37-2.09,3.66-3.58,7.8-4.56,11.9-1.24,5.18-3.88,7.92-9.29,8.97-8.38,1.63-11.19,5.29-11.07,12.74,.11,7.37,3.03,10.59,11.63,12.23,4.32,.82,6.57,3.04,7.93,7.28,2.05,6.34,4.66,12.55,7.58,18.55,1.83,3.75,1.79,6.74-.51,10.19-5.29,7.97-4.83,11.41,1.87,18.05,6.36,6.31,9.99,6.79,17.75,1.56,3.7-2.49,6.81-2.54,10.76-.5,5.04,2.61,10.32,5.14,15.8,6.46,6,1.44,8.86,4.25,10.19,10.33,.75,3.43,3.88,8.26,6.8,8.97,9.79,2.41,19.42,2.12,20.59-11.45,.37-4.29,2.65-6.78,6.87-8.29,5.73-2.06,11.05-5.28,16.82-7.21,2.89-.96,6.47-.61,9.56,0,2.03,.41,3.67,2.49,5.63,3.58,5.53,3.06,10.1,1.33,14.32-2.83,6.04-5.96,8.33-10.9,4.43-15.32-7.34-8.33-6.72-16.14-1.38-24.74,.83-1.34,1.29-3.03,1.52-4.61,.89-6.13,4.48-8.86,10.53-9.96,7.27-1.31,10.03-5.29,9.94-12.38Z"/>
  <path class="cls-1" d="M99.44,157.31c-30.73-.08-56.92-25.61-57.03-55.61-.12-33.43,25.42-59.1,58.72-59.02,30.32,.07,56.6,26.3,56.38,56.25-.25,33.02-25.55,58.46-58.07,58.37Zm.84-108.73c-29.68,.14-51.96,22.95-51.92,53.18,.03,26.9,23.87,49.88,51.63,49.75,29.41-.14,51.72-23.27,51.64-53.55-.07-26.55-23.93-49.5-51.34-49.37Z"/>
  <path class="cls-1" d="M103.76,95.13c0,10.46,.14,20.56-.13,30.65-.05,1.94-1.73,3.83-2.67,5.74-.96-1.92-2.69-3.83-2.75-5.78-.28-10.1-.13-20.21-.13-30.23-10.33-1.6-10.31-1.99-10.82-9.09-.56-7.91,4.54-8.35,9.04-8.41,1.81-3.62,3.29-6.58,4.77-9.54,1.31,2.83,2.61,5.66,4.19,9.08,9.36,2.38,10.08,3.33,9.44,11.35-.54,6.67-5.6,5.75-10.95,6.23Zm4.07-6.11l1.53-1.8c-1.21-1.06-2.32-2.86-3.67-3.05-3.16-.45-6.45-.37-9.63-.02-1.09,.12-2.02,1.66-3.02,2.55,1.12,.77,2.2,2.12,3.37,2.21,3.79,.29,7.61,.11,11.42,.11Z"/>
  <path class="cls-1" d="M129.78,122.24c-1.74,2.65-3.13,4.78-4.53,6.9-1.33-2.01-2.67-4.02-4.52-6.81-8.86-1.88-9.22-2.45-9.18-10.11,.03-7.24,5.1-7.15,10.81-7.3,0-8.43,0-16.7,0-24.97,0-1.62-.41-3.4,.12-4.83,.6-1.59,2.05-2.86,3.14-4.27,.86,1.39,2.42,2.75,2.47,4.16,.25,7.7,.12,15.42,.13,23.13,0,2.19,0,4.38,0,6.49,10.08,1.18,10.82,1.8,10.88,8.57,.06,7.24-.56,7.8-9.31,9.04Zm3.99-9.74c-.39-.5-.78-.99-1.17-1.49-4.21,0-8.43-.15-12.62,.12-.91,.06-1.73,1.57-2.6,2.42,.88,.82,1.71,2.26,2.65,2.34,3.42,.28,6.92,.42,10.29-.05,1.28-.18,2.31-2.16,3.45-3.32Z"/>
  <path class="cls-1" d="M73.83,103.35c0-9.23-.17-18.12,.14-26.99,.07-1.86,1.93-3.65,2.97-5.47,.82,1.83,2.3,3.63,2.35,5.48,.25,8.88,.11,17.76,.11,26.52,10.94,2.47,11.16,2.91,10.95,10.96-.18,7.01-5.3,6.49-9.04,6.74-1.89,3.24-3.43,5.88-4.97,8.52-1.23-2.51-2.46-5.02-3.92-8.02-9.52-2.21-9.94-2.67-9.41-10.89,.34-5.22,1.2-5.8,10.83-6.85Zm9.96,6.63h-15.57c1.87,7.46,7.54,3.87,11.01,4.59,2.87,.6,6.64,.74,4.56-4.59Z"/>
</svg>