<?xml version="1.0" encoding="UTF-8"?>
<svg id="Layer_1" data-name="Layer 1" xmlns="http://www.w3.org/2000/svg" viewBox="0 0 200 200">
  <defs>
    <style>
      .cls-1 {
        fill: #fbb247;
      }
    </style>
  </defs>
  <path class="cls-1" d="M200,8.99V165.72c-1.26,3.48-3.81,4.72-7.42,4.7-16.46-.08-32.93-.02-49.39-.06-1.32,0-2.04,.35-2.69,1.59-6.94,13.2-17.52,22.11-31.82,26.39-3.14,.94-6.61,2.01-9.72,1.55-17.72-2.58-30.85-12-39.34-27.79-.74-1.38-1.53-1.76-3-1.75-16.66,.05-33.32,.04-49.98,.02-4.21,0-6.63-2.37-6.63-6.48C0,112.98,0,62.06,0,11.14,0,6.29,2.8,2.44,7.42,.76c.66-.24,1.3-.51,1.95-.76,60.42,0,120.83,0,181.25,0,4.64,1.42,8.08,4.08,9.37,8.99Zm-11.77,49.78H11.84v99.76H54.63c-.25-2.13-.68-4.12-.7-6.12-.12-14.13-.18-28.27-.19-42.4,0-3.12,1.43-4.95,4.38-5.99,13.1-4.66,26.2-9.35,39.34-13.88,1.48-.51,3.43-.59,4.9-.09,13.27,4.58,26.48,9.32,39.71,14.04,2.76,.98,4.22,2.98,4.21,5.92-.05,14.2-.09,28.4-.21,42.6-.02,1.97-.45,3.93-.69,5.9h42.86V58.77ZM11.81,46.77H188.12V11.83H11.81V46.77Zm53.63,86.95c0,4.75-.05,9.51,0,14.26,.21,18.3,11.64,33.84,28.73,38.99,2.09,.63,4.38,1.44,6.45,1.17,17.82-2.37,32.99-18.74,33.71-36.76,.48-12.03,.17-24.09,.26-36.14,.01-1.28-.65-1.62-1.65-1.97-10.54-3.72-21.06-7.49-31.6-11.19-.77-.27-1.81-.28-2.58,0-10.61,3.71-21.19,7.52-31.8,11.23-1.21,.42-1.56,1.02-1.55,2.25,.06,6.06,.03,12.11,.03,18.17Z"/>
  <path class="cls-1" d="M123.8,35.17c-3.15-.01-5.81-2.68-5.83-5.83-.01-3.23,2.74-5.95,5.97-5.88,3.16,.07,5.77,2.77,5.73,5.93-.04,3.16-2.72,5.8-5.88,5.78Z"/>
  <path class="cls-1" d="M147.27,35.17c-3.15,0-5.83-2.65-5.86-5.8-.03-3.23,2.72-5.96,5.94-5.91,3.16,.05,5.78,2.74,5.76,5.9-.03,3.16-2.7,5.81-5.85,5.81Z"/>
  <path class="cls-1" d="M170.68,35.17c-3.15-.01-5.81-2.68-5.83-5.83-.01-3.23,2.74-5.95,5.97-5.88,3.16,.07,5.77,2.77,5.73,5.93-.04,3.16-2.72,5.8-5.88,5.78Z"/>
  <path class="cls-1" d="M99.09,146.15c4.38-4.42,8.32-8.49,12.37-12.44,3.34-3.25,8.55-1.86,9.8,2.53,.61,2.13,.09,4.05-1.43,5.58-5.48,5.56-10.99,11.1-16.56,16.56-2.33,2.28-5.75,2.23-8.1-.02-3.05-2.93-6.05-5.92-8.96-8.98-2.21-2.31-2.08-5.92,.11-8.11,2.23-2.24,5.71-2.37,8.09-.14,1.6,1.5,3.01,3.21,4.69,5.02Z"/>
</svg>