<svg width="45" height="45" viewBox="0 0 45 45" fill="none" xmlns="http://www.w3.org/2000/svg">
<g id="Group 95">
<path id="Vector" d="M43.6066 44.996H1.7943C0.600407 44.464 0.178444 43.5621 0.390425 42.2762C0.638403 40.7704 0.802389 39.2485 1.01837 37.7366C1.36434 35.3229 2.27026 33.223 4.85403 32.5671C7.91576 31.7912 11.0315 31.2332 14.1812 30.5673C14.0292 31.5092 13.9472 32.2991 13.7572 33.0631C13.6912 33.331 13.3793 33.553 13.1493 33.761C12.5933 34.265 11.8074 34.6389 11.4954 35.2589C10.6855 36.8627 10.0776 38.5706 9.39962 40.2404C9.31363 40.4544 9.26564 40.6864 9.22964 40.9164C9.03966 42.1423 9.55561 42.8102 10.7895 42.9842C11.2755 43.0522 11.7594 43.2602 12.2334 43.2302C12.6233 43.2062 13.2893 42.9582 13.3153 42.7462C13.3633 42.3542 13.1213 41.8223 12.8213 41.5343C12.6713 41.3883 12.1334 41.6643 11.7654 41.7123C11.3694 41.7643 10.9435 41.8523 10.5775 41.7543C10.4355 41.7163 10.3255 41.1883 10.3695 40.9084C10.7175 38.6906 11.9674 36.9367 13.4053 35.3129C13.8052 34.8629 14.4492 34.4709 15.0311 35.1849C16.309 36.7547 17.6389 38.3066 18.0809 40.3584C18.1768 40.8004 18.2188 41.4543 17.9729 41.7223C17.6269 42.0963 17.0669 42.0443 16.575 41.5783C16.391 41.4043 15.6831 41.5023 15.4611 41.7223C15.2351 41.9483 15.1431 42.5802 15.3031 42.8442C15.4551 43.0942 16.009 43.1702 16.393 43.1902C16.773 43.2102 17.1609 43.0362 17.5489 42.9982C18.9008 42.8642 19.5467 42.1103 19.2008 40.7744C18.8788 39.5345 18.2268 38.3766 17.9389 37.1307C17.6349 35.8128 16.913 34.8189 15.901 34.077C15.2271 33.583 15.1031 33.0531 15.2571 32.3711C15.6811 30.4953 16.409 28.7934 18.1688 27.7075C16.341 26.1697 14.4692 24.7238 14.1872 22.146C14.1712 22.008 13.9812 21.8541 13.8352 21.7701C12.2134 20.8341 11.2835 18.4604 12.1014 16.7725C12.5713 15.8026 12.5873 14.8827 12.5373 13.8968C12.4893 12.9328 12.4933 11.9609 12.3754 11.005C12.1654 9.29717 11.7954 7.64532 9.94558 6.83339C10.0696 6.66341 10.1396 6.55742 10.2196 6.45943C12.8633 3.24771 15.975 0.765932 20.2007 0H22.4005C24.3843 0.467958 26.2401 1.19989 27.842 2.50978C28.052 2.68176 28.4039 2.69576 28.6979 2.74576C30.3298 3.01973 31.6017 3.87766 32.5636 5.18354C34.8594 8.30126 35.0793 12.4129 32.8255 15.4646C33.1855 16.1946 33.6655 16.7885 33.7575 17.4384C33.9394 18.7263 33.6995 20.1962 32.6836 20.9181C31.4037 21.8261 31.0897 23.0999 30.4218 24.3018C29.7938 25.4317 28.7379 26.3397 27.808 27.2836C26.5941 28.5175 25.0822 29.1174 23.3464 29.2174C21.5725 29.3194 19.9487 28.8394 18.3708 28.0315C18.0868 28.6495 17.8329 29.2054 17.5629 29.7914C19.3407 31.0332 21.0486 32.2451 22.7864 33.409C22.9804 33.539 23.4504 33.511 23.6364 33.361C25.2882 32.0292 26.9061 30.6533 28.5179 29.3054C28.3219 28.8514 28.158 28.4655 27.992 28.0795C28.09 28.0295 28.188 27.9795 28.2879 27.9315C28.7339 28.6535 29.3638 29.3214 29.5878 30.1073C30.0098 31.5932 30.2038 33.1431 30.4857 34.6689C30.6517 35.5648 30.4558 36.1748 29.5018 36.6287C28.206 37.2447 27.682 38.8026 28.042 40.2344C28.3579 41.4923 29.6338 42.5642 30.9157 42.6502C32.4236 42.7502 33.7335 41.9063 34.2714 40.4864C34.7534 39.2125 34.4474 37.6527 33.2095 36.9567C32.0496 36.3048 31.9916 35.4648 31.9896 34.3669C31.9856 33.1371 31.7916 31.9052 31.6796 30.6833C32.3196 30.8633 32.9155 31.0772 33.5315 31.1972C35.6793 31.6212 37.8491 31.9492 39.9829 32.4331C42.0847 32.9111 43.5886 34.155 44.0045 36.3648C44.3605 38.2546 44.5705 40.1704 44.8805 42.0703C45.1624 43.8061 45.0445 44.1241 43.6086 45L43.6066 44.996ZM32.2296 16.7945C31.9296 16.9405 31.7016 17.0785 31.4557 17.1605C31.1097 17.2745 30.7497 17.3465 30.3958 17.4365C30.3318 17.0665 30.2058 16.6925 30.2158 16.3245C30.2458 15.2626 30.4138 14.1987 30.3778 13.1408C30.3138 11.243 29.5638 9.67714 27.9 8.61323C27.394 8.28926 27.0261 8.20927 26.5001 8.59924C25.1922 9.56915 23.6964 10.0791 22.0705 10.2351C21.3786 10.3011 20.6866 10.4331 20.0107 10.5951C16.709 11.383 15.4011 13.1508 15.5851 16.4865C15.5991 16.7545 15.5171 17.2105 15.3651 17.2665C15.1191 17.3565 14.7811 17.1765 14.4792 17.1265C14.0672 17.0585 13.4753 16.8005 13.2693 16.9805C12.5733 17.5844 13.2153 20.4402 14.1032 20.4902C15.4571 20.5662 15.2871 21.3961 15.4351 22.24C15.5411 22.846 15.7111 23.5719 16.119 23.9699C17.3909 25.2118 18.7328 26.4017 20.1687 27.4456C20.7326 27.8555 21.6085 27.9195 22.3565 27.9875C24.8063 28.2095 26.5841 26.9716 28.186 25.2798C29.2679 24.1379 29.9978 22.914 29.8838 21.2901C29.8358 20.6182 30.0698 20.2622 30.8317 20.4742C31.0517 20.5342 31.3657 20.5082 31.5537 20.3902C32.4496 19.8222 32.8375 17.8784 32.2336 16.7985L32.2296 16.7945Z" fill="black"/>
<path id="Vector_2" d="M32.7397 39.3643C32.7497 40.1622 32.1198 40.8022 31.3038 40.8262C30.4479 40.8521 29.788 40.2062 29.8 39.3583C29.812 38.5324 30.4099 37.9604 31.2578 37.9624C32.0798 37.9624 32.7317 38.5804 32.7397 39.3663V39.3643Z" fill="black"/>
</g>
</svg>
