<?xml version="1.0" encoding="UTF-8"?>
<svg id="SvgjsSvg1096" xmlns="http://www.w3.org/2000/svg" viewBox="0 0 249.95 257.95">
  <defs>
    <style>
      .cls-1 {
        fill: #5c2e63;
        stroke: #5c2e63;
        stroke-miterlimit: 10;
        stroke-width: 2px;
      }
    </style>
  </defs>
  <g id="SvgjsG1098">
    <path class="cls-1" d="M246.95,256.95H3c-1.11,0-2-.89-2-2v-27.99c0-17.16,8.89-23.74,25.3-29.87,24.12-9.01,40.52-16.7,47.44-22.21,.87-.68,2.12-.55,2.81,.32,.69,.86,.55,2.12-.32,2.81-9.15,7.3-31.45,16.45-48.54,22.84-15.38,5.74-22.7,11.11-22.7,26.12v25.99H244.95v-25.99c0-15-7.32-20.38-22.69-26.12-17.08-6.39-39.37-15.53-48.53-22.83-.86-.69-1.01-1.95-.32-2.81,.69-.86,1.95-1.01,2.81-.32,6.93,5.52,23.33,13.2,47.44,22.21,16.4,6.13,25.29,12.7,25.29,29.87v27.99c0,1.11-.89,2-2,2Z"/>
    <path class="cls-1" d="M124.97,184.96c-27.77,0-71.99-39.35-71.99-85.98,0-1.11,.89-2,2-2s2,.89,2,2c0,44.46,41.76,81.98,67.99,81.98s67.99-37.52,67.99-81.98c0-1.11,.89-2,2-2s2,.89,2,2c0,46.63-44.22,85.98-71.98,85.98Zm.12,16c-1.1,0-2.02-.89-2.02-2s.88-2,1.98-2h.04c1.11,0,2,.89,2,2s-.89,2-2,2Zm69.87-125.97c-1.11,0-2-.89-2-2,0-37.49-30.5-67.99-67.99-67.99S56.99,35.5,56.99,72.98c0,1.11-.89,2-2,2s-2-.89-2-2C52.99,33.29,85.28,1,124.97,1s71.99,32.29,71.99,71.99c0,1.1-.89,2-2,2Z"/>
    <path class="cls-1" d="M46.99,89.01c-1.1,0-2-.92-2-2.03,0-9.52,44.73-18,79.98-18s79.98,8.47,79.98,18c0,1.11-.89,2-2,2s-2-.89-2-2c-1.07-4.02-34.99-14-75.98-14s-74.91,9.97-75.99,14.05c0,1.11-.89,1.97-2,1.97Z"/>
    <path class="cls-1" d="M202.96,88.98H46.99c-1.1,0-2-.89-2-2s.89-2,2-2H202.96c1.11,0,2,.89,2,2s-.89,2-2,2Zm-147.97,12c-1.11,0-2-.89-2-2v-4c0-1.11,.89-2,2-2s2,.89,2,2v4c0,1.11-.89,2-2,2Zm139.97,0c-1.11,0-2-.89-2-2v-4c0-1.11,.89-2,2-2s2,.89,2,2v4c0,1.11-.89,2-2,2ZM122.97,60.99c-5.11,0-10-2.18-13.41-5.99-2.96-3.31-4.59-7.57-4.59-12.01,0-9.92,8.07-18,18-18s18,8.07,18,18c0,5.11-2.19,10-6,13.42-3.3,2.95-7.56,4.58-12,4.58Zm0-31.99c-7.72,0-14,6.28-14,14,0,3.45,1.27,6.77,3.57,9.34,2.66,2.96,6.46,4.66,10.43,4.66,3.45,0,6.76-1.26,9.33-3.56,2.97-2.66,4.67-6.46,4.67-10.44,0-7.72-6.28-14-14-14Z"/>
    <path class="cls-1" d="M126.97,48.99c-.51,0-1.02-.2-1.41-.59l-8-8c-.78-.78-.78-2.05,0-2.83s2.05-.78,2.83,0l8,8c.78,.78,.78,2.05,0,2.83-.39,.39-.9,.59-1.41,.59Z"/>
    <path class="cls-1" d="M110.98,64.99c-.51,0-1.02-.2-1.41-.59-.78-.78-.78-2.05,0-2.83l16-16c.78-.78,2.05-.78,2.83,0s.78,2.05,0,2.83l-16,16c-.39,.39-.9,.59-1.41,.59Zm8-23.99c-.49,0-.98-.18-1.37-.54-.8-.76-.85-2.02-.09-2.83l15.5-16.5c.75-.81,2.02-.85,2.82-.09,.8,.76,.85,2.02,.09,2.83l-15.5,16.5c-.39,.42-.92,.63-1.46,.63Zm-63.99,42.19c-1.11,0-2-.89-2-2v-8.2c0-1.11,.89-2,2-2s2,.89,2,2v8.2c0,1.11-.89,2-2,2Zm139.97,0c-1.11,0-2-.89-2-2v-8.2c0-1.11,.89-2,2-2s2,.89,2,2v8.2c0,1.11-.89,2-2,2Zm-24,89.78c-1.11,0-2-.89-2-2v-4c0-1.11,.89-2,2-2s2,.89,2,2v4c0,1.11-.89,2-2,2Z"/>
    <path class="cls-1" d="M142.97,200.96c-.51,0-1.02-.2-1.41-.59-.78-.78-.78-2.05,0-2.83l27.99-27.99c.78-.78,2.05-.78,2.83,0s.78,2.05,0,2.83l-27.99,27.99c-.39,.39-.9,.59-1.41,.59Z"/>
    <path class="cls-1" d="M142.97,200.96c-.38,0-.77-.11-1.11-.34l-12-8c-.92-.61-1.17-1.85-.55-2.77,.61-.92,1.85-1.17,2.77-.55l12,8c.92,.61,1.17,1.85,.55,2.77-.38,.58-1.02,.89-1.66,.89Zm-63.99-27.99c-1.11,0-2-.89-2-2v-4c0-1.11,.89-2,2-2s2,.89,2,2v4c0,1.11-.89,2-2,2Z"/>
    <path class="cls-1" d="M106.98,200.96c-.51,0-1.02-.2-1.41-.59l-27.99-27.99c-.78-.78-.78-2.05,0-2.83,.78-.78,2.05-.78,2.83,0l27.99,27.99c.78,.78,.78,2.05,0,2.83-.39,.39-.9,.59-1.41,.59Z"/>
    <path class="cls-1" d="M106.98,200.96c-.65,0-1.28-.31-1.67-.89-.61-.92-.36-2.16,.55-2.77l12-8c.92-.61,2.16-.37,2.77,.55,.61,.92,.36,2.16-.55,2.77l-12,8c-.34,.23-.73,.34-1.11,.34Zm-51.99,51.99c-1.11,0-2-.89-2-2v-23.99c0-1.1,.89-2,2-2s2,.89,2,2v23.99c0,1.11-.89,2-2,2Zm139.97,0c-1.11,0-2-.89-2-2v-23.99c0-1.1,.89-2,2-2s2,.89,2,2v23.99c0,1.11-.89,2-2,2Z"/>
    <path class="cls-1" d="M54.99,228.95c-.59,0-1.17-.26-1.56-.75-.69-.86-.55-2.12,.31-2.81l20-16c.86-.69,2.12-.55,2.81,.31,.69,.86,.55,2.12-.31,2.81l-20,16c-.37,.29-.81,.44-1.25,.44Zm139.97,0c-.44,0-.88-.14-1.25-.44l-20-16c-.86-.69-1-1.95-.31-2.81,.7-.86,1.95-1,2.81-.31l20,16c.86,.69,1,1.95,.31,2.81-.4,.49-.98,.75-1.56,.75Z"/>
    <path class="cls-1" d="M174.96,212.96H74.98c-1.11,0-2-.89-2-2s.89-2,2-2h99.98c1.11,0,2,.89,2,2,0,1.11-.89,2-2,2Z"/>
    <path class="cls-1" d="M114.98,228.95c-.16,0-.32-.02-.49-.06-1.07-.27-1.72-1.36-1.46-2.43l4-16c.27-1.07,1.35-1.73,2.42-1.46,1.07,.27,1.72,1.35,1.46,2.43l-4,16c-.23,.91-1.04,1.52-1.94,1.52Zm19.99,0c-.9,0-1.71-.61-1.94-1.52l-4-16c-.27-1.07,.38-2.16,1.45-2.43,1.07-.27,2.16,.38,2.42,1.46l4,16c.27,1.07-.38,2.16-1.45,2.43-.16,.04-.33,.06-.48,.06Z"/>
    <path class="cls-1" d="M114.98,240.95c-1.11,0-2-.89-2-2v-12c0-1.1,.89-2,2-2s2,.89,2,2v12c0,1.11-.89,2-2,2Zm20,0c-1.11,0-2-.89-2-2v-12c0-1.1,.89-2,2-2s2,.89,2,2v12c0,1.11-.89,2-2,2Z"/>
    <path class="cls-1" d="M134.97,240.95h-20c-1.11,0-2-.89-2-2s.89-2,2-2h20c1.1,0,2,.89,2,2s-.89,2-2,2Zm-27.99-12H54.99c-1.11,0-2-.89-2-2s.89-2,2-2h51.99c1.11,0,2,.89,2,2,0,1.11-.89,2-2,2Zm87.98,0h-51.99c-1.11,0-2-.89-2-2s.89-2,2-2h51.99c1.1,0,2,.89,2,2s-.89,2-2,2Z"/>
    <path class="cls-1" d="M126.97,228.95h-4c-1.11,0-2-.89-2-2s.89-2,2-2h4c1.11,0,2,.89,2,2s-.89,2-2,2Z"/>
    <path class="cls-1" d="M118.98,242.95c-1.11,0-2-.89-2-2v-2c0-1.1,.89-2,2-2s2,.89,2,2v2c0,1.11-.89,2-2,2Z"/>
    <path class="cls-1" d="M124.97,242.95c-1.11,0-2-.89-2-2v-2c0-1.1,.89-2,2-2s2,.89,2,2v2c0,1.11-.89,2-2,2Z"/>
    <path class="cls-1" d="M130.97,242.95c-1.1,0-2-.89-2-2v-2c0-1.1,.89-2,2-2s2,.89,2,2v2c0,1.11-.89,2-2,2Z"/>
  </g>
</svg>