<?xml version="1.0" encoding="UTF-8"?>
<svg id="Layer_1" data-name="Layer 1" xmlns="http://www.w3.org/2000/svg" viewBox="0 0 619.65 578.67">
  <defs>
    <style>
      .cls-1 {
        fill: #5c2e63;
      }
    </style>
  </defs>
  <path class="cls-1" d="M292.84,290.17c-32.53-.37-60.27-8.9-85.36-26-2.1-1.43-4.72-2.48-7.23-2.85-23.16-3.46-45.81-.87-68.13,5.83-1.99,.6-4.34,.03-6.52,0,.15-2.19-.26-4.6,.53-6.52,8.61-20.94,17.48-41.77,26.05-62.73,.9-2.2,1.05-5.24,.33-7.49C123.97,101.71,183.16,10.58,275.77,.8c80.51-8.5,153.18,52.04,159.2,132.61,5.85,78.34-49.53,146.05-127.39,155.69-5.61,.69-11.29,.84-14.74,1.08Zm-1.59-204.91c-.79-.74-1.4-1.31-1.99-1.88-16.87-16.12-36.66-20.44-58.02-11.78-21.02,8.52-30.17,26.38-31.48,48.19-1.21,20.19,7.67,36.83,20.68,51.46,18.47,20.78,40.76,36.74,65.07,49.88,2.83,1.53,7.92,1.53,10.75,0,24.16-13.07,46.35-28.9,64.62-49.65,11.15-12.67,19.87-26.59,21.67-44.05,2.54-24.74-10.85-49.33-32.68-56.8-22.12-7.57-42.01-3.24-58.61,14.64Z"/>
  <path class="cls-1" d="M401.7,419.18c2.82,0,4.79,0,6.76,0,60.82,0,121.64,0,182.47,0,6.54,0,6.56,0,6.56-6.43,0-87.99,0-175.97,0-263.96,0-1.8,0-3.6,0-5.95h-141.93c-2.24-14.98-4.39-29.37-6.61-44.19,1.27,0,3.05,0,4.83,0,43.83,0,87.65-.02,131.48,0,22.45,.01,34.24,11.89,34.25,34.3,.04,104.82,.09,209.63,.15,314.45,.01,20.94-12.98,34.23-33.82,34.25-57.49,.05-114.98,.06-172.47,0-20.72-.02-33.75-13.21-33.73-33.78,.06-52.82,.19-105.65,.04-158.47-.02-5.11,1.53-8.11,5.74-10.84,5.52-3.58,10.5-7.98,16.29-12.47v153.09Zm80.96,30.98c-.1,9.42,7.64,17.4,16.92,17.43,8.98,.03,16.79-7.72,17.04-16.9,.25-9.26-7.66-17.32-17-17.31-9.27,0-16.85,7.51-16.95,16.78Z"/>
  <path class="cls-1" d="M132.74,195.62c-6.07,14.51-11.68,28.2-17.65,41.73-.56,1.27-3.43,2.15-5.23,2.16-26.83,.13-53.65,.09-80.48,.09-2.14,0-4.28,0-6.94,0-.13,2.34-.32,4.28-.32,6.22-.01,88.15,.02,176.3-.09,264.44,0,4.38,.94,5.96,5.74,5.95,61.32-.17,122.64-.11,183.96-.11h5.99v-223.5c7.11,2.82,13.59,5.31,19.98,8.03,.93,.4,1.74,1.79,2,2.87,.35,1.42,.1,2.98,.1,4.48,.05,78.98,.1,157.97,.16,236.95,.02,20.34-12.96,33.66-33.27,33.68-57.82,.08-115.64,.09-173.46,0C13.22,578.57,0,565.19,0,545.28c.03-105.14,.08-210.29,.15-315.43,.02-22.48,11.83-34.22,34.28-34.23,30.83-.01,61.65,0,92.48,0,1.66,0,3.31,0,5.83,0Zm-12.59,334.69c-9.2-.05-16.99,7.51-17.17,16.66-.18,9.26,7.73,17.48,16.91,17.56,9.21,.09,17.1-7.91,17.08-17.31-.02-9.25-7.6-16.87-16.82-16.92Z"/>
  <path class="cls-1" d="M530.19,217.11c4.56-6.66,8.59-12.55,12.62-18.43,.72,.25,1.43,.51,2.15,.76,0,7.27-.36,14.56,.17,21.79,.22,3.01,1.8,6.35,3.75,8.72,7.92,9.6,12.61,20.7,13.32,32.82,.8,13.72,.12,27.55-.47,41.31-.27,6.16-3.71,11.19-8.17,15.57-2.02,1.97-3.75,4.64-4.62,7.31-7.51,22.89-29.29,39.71-51.75,38.21-23.38-1.56-38.12-15.38-47.16-36.27-1.59-3.66-3.87-7.18-6.47-10.22-4.3-5.01-7.47-10.7-7.38-17.09,.23-15.12,.05-30.44,2.37-45.31,3.89-24.92,21.34-37.27,44.61-42.55,6.28-1.42,12.79-1.81,19.56-2.72-1.19-3.92-2.38-7.84-3.57-11.76,.3-.4,.59-.79,.89-1.19,10.22,6.45,20.44,12.9,30.17,19.03Zm-80.84,57.12c0,8.69-.15,16.67,.05,24.64,.14,5.45,2.45,9.79,7.17,13,1.83,1.25,3.33,3.65,3.99,5.82,2.5,8.26,6.11,15.82,12.14,22.09,11.96,12.44,28.11,15.49,42.33,7.89,11-5.89,17.89-15.09,21.62-26.91,.87-2.76,1.95-6.19,4.07-7.7,7.68-5.46,8.76-13.33,9.14-21.61,.19-4.15-.11-8.33,.13-12.49,.17-2.99-1.27-3.79-3.84-4.67-6.42-2.2-12.83-4.58-18.92-7.56-2.87-1.4-4.13-.79-6.34,1-8.51,6.9-17.22,13.55-26,20.1-1.96,1.46-4.5,2.14-7.98,3.73,6.28-11.6,12.14-21.83,10.58-35.35-14.15,11.78-29.74,17.25-48.15,18.01Z"/>
  <path class="cls-1" d="M146.11,435.97c9.81-14.13,16.37-28.98,17.37-46.35-23.4-.19-45.15-4.11-60.92-21.92-6.74,2.52-13.14,4.71-19.33,7.4-1.25,.55-2.3,2.95-2.4,4.56-1.71,26.19-.38,31.61,13.45,56.3-10.83,1.84-21.51,3.82-32.25,5.38-3.67,.53-6.83-3.24-5.39-6.39,6.01-13.11,3.9-26.49,1.5-39.78-3.77-20.87,.17-39.77,13.5-56.41,30.74-38.38,86.31-30.2,106.15,15.42,6.9,15.87,6.48,32.01,3.6,48.53-1.69,9.73-2.15,19.39,1.64,29.02,2.71,6.86-1.09,10.6-8.27,9.27-9.32-1.73-18.68-3.28-28.67-5.01Z"/>
</svg>