<?xml version="1.0" encoding="UTF-8"?>
<svg id="Layer_1" data-name="Layer 1" xmlns="http://www.w3.org/2000/svg" viewBox="0 0 561.71 638.63">
  <defs>
    <style>
      .cls-1 {
        fill: #5c2e63;
      }
    </style>
  </defs>
  <path class="cls-1" d="M369.57,306.48c2.78,9.23,4.87,18.58,4.63,28.29-.14,5.64,1.78,11.09,1.25,16.78-1.11,11.83-.81,23.77-3.23,35.5-9.1,43.97-30.65,80.43-65.38,109.02-1.25,1.03-2.39,2.21-3.79,3.52,1.83,1.59,3.72,1.07,5.4,1.07,54.07,.05,108.14,.07,162.22,.07,6.41,0,6.4-.06,6.4-6.7-.08-114.63-.14-229.26-.23-343.9,0-7.45,.72-6.42-6.32-6.42-111.64-.03-223.28-.02-334.91-.02-1.33,0-2.66,.05-3.99,.08,1.26-1.69,3.07-.88,4.62-.88,111.79-.04,223.57,0,335.36-.16,5.2,0,6.26,1.43,6.25,6.38-.05,64.21,.14,128.42,.26,192.63,.01,5.51,0,11.03,0,16.54,.44,0,.88,0,1.32,0v-38.06c.52,.01,1.04,.02,1.56,.04v18.5c1.83-2.36,3.41-4.1,6.24-3.12,2.95,1.02,1.62,3.7,1.64,5.62,.13,10.93,.06,21.86,.06,32.79,.63-1.16,.63-2.32,.63-3.48,.13-90.16,.27-180.32,.4-270.48,0-3.99,.03-7.97,.04-11.96,.95,2.56,.81,5.24,.81,7.89-.05,157.76-.07,315.51-.25,473.27-.03,25.04-10.84,44.51-32.28,57.68-9.53,5.85-20.07,8.84-31.27,8.88-29.45,.12-58.91,.12-88.36,.13-50.42,.02-100.84-.16-151.27,.09-19.6,.1-36.74-5.56-50.58-19.57-12.06-12.22-18.31-27.13-18.47-44.42-.07-7.48-.2-14.97,.08-22.43,.13-3.52,2.47-6.06,6.13-5.94,3.86,.13,6.57,2.27,6.84,6.51,.11,1.66-.05,3.33,.02,4.99,.31,8.13-.67,16.29,.76,24.4,4.22,23.84,24.13,41.59,48.31,42.88,3.15,.17,6.32,.09,9.48,.09,77.38,0,154.76-.11,232.14,.08,19.6,.05,35.19-7.09,46.43-23.24,5.46-7.85,8.33-16.7,8.46-26.2,.24-18.3-.05-36.61,.23-54.91,.07-4.53-2.36-4.19-5.3-4.19-47.26,.02-94.52,0-141.78,0-13.81,0-27.63,.22-41.43-.11-5.73-.14-10.67,1.34-15.65,3.91-30.42,15.7-62.73,21.98-96.87,19.55-45.13-3.21-83.86-20.88-116.32-51.98-19.87-19.04-34.7-41.71-44.52-67.6C2.09,382.98-.06,347.39,7.63,311.05c.4-1.9,.49-3.97,1.88-5.56,.13,3.47,.34,6.92-1.44,10.16-.54,.98-.8,2.29,0,3.32,3.19,4.14,.25,8.91,1.4,13.28,.33,1.25-1.07,2.41-2.3,2.97-4.39,2-2.01,4.3-.55,6.76-.81-4.23,4.69-3.84,4.91-7.08,.12-1.8-.07-4.26,2.44-4.06,2.73,.22,1.56,2.89,1.57,4.45,.11,11.65,.06,23.31,.06,35.7,.76-1.4,1.12-2.06,1.48-2.72,.2,.97,.47,1.92,.59,2.9,2.67,21.68,8.51,42.36,18.98,61.66,1.64,3.03,2.7,4.1,5.58,1.1,4.03-4.2,8.9-7.44,13.99-10.28,15.37-8.58,31.97-13.79,49.02-17.73,3.1-.72,5.69-1.56,7.82-4.49,5.74-7.91,13.25-13.96,21.99-18.38,5.98-3.02,6.83-9.12,1.62-13.45-6.42-5.34-12.41-11.09-17.66-17.56-5.59-6.9-10.42-14.22-10.51-23.6,1.93-1.78,.66-4.08,.94-6.12,.2-1.4,.28-2.74,2.18-2.62,1.56,.1,1.68,1.26,1.85,2.47,.23,1.63-.7,3.56,1.01,4.92,1.64-1.14,1-4.32,3.37-3.95,2.07,.32,1.45,2.66,1.58,4.23,.12,1.39,.75,2.14,2.16,2.18,3.19,9.53,9.32,17.25,16.54,23.73,8.97,8.06,18.68,15.28,29.48,21.01,11.37,6.04,22.38,7.62,34.28,1.33,11.7-6.19,22.16-13.9,31.56-23.08,5.26-5.14,10.77-10.2,13.98-17.05,3.13-6.66,3.32-14.09,5.36-21.05,3.53,4.31,8.01,3.3,12.49,2.22-.87,10.83-2.9,21.23-9.23,30.5-5.49,8.03-12.79,14.27-19.64,20.96-4.09,3.99-3.58,11.72,1.22,14.51,7.3,4.25,13.37,9.81,17.76,17.08,.87,1.44,1.67,2.86,3.56,3.17,9.91,1.64,19.42,4.89,29.13,7.21,18.24,4.36,35.02,11.28,49.03,23.92,2.76,2.49,3.44,1.65,4.79-.93,12.28-23.44,19.01-48.34,20.03-74.78,.53-13.67-.9-27.18-2.9-40.67,6.94-.49,12.13-2.63,10.55-11.16Zm-155.94,146.9c-5.63,5.83-10.16,12.2-17.18,15.58-2.55,1.23-3.31,2.69-3.28,5.34,.12,8.82,.09,17.63,0,26.45-.05,4.84-2.6,7.65-6.62,7.64-3.88-.01-6.73-3.09-6.8-7.62-.09-6.49-.34-12.99,.04-19.46,.4-6.69,.18-12.65-7.72-14.9-.69-.2-1.16-1.13-1.77-1.69-11.37-10.57-18.94-23.68-25.54-37.52-2.14-4.49-1.92-11.48-6.73-12.96-4.44-1.37-10.04,1.15-15.15,1.79-2.38,.3-3.55,1.34-4.73,3.56-3.12,5.88-2.62,12.11-2.72,18.33-.04,2.53,1.73,2.39,3.47,2.25,6.7-.53,12.57,1.24,18.18,5.16,9.83,6.87,14.16,20.04,9.82,31.84-4.14,11.25-17.5,19.46-28.91,17.67-10.69-1.67-18.5-7.38-22.46-17.48-4.14-10.57-1.81-20.2,5.49-28.76,.8-.94,2.4-1.43,2.1-3.14-1.29-7.3-.7-14.57,.24-21.84,.36-2.77-.76-3.59-3.46-2.71-5.53,1.8-11.18,3.21-16.64,5.2-12.52,4.57-24.7,9.74-34.19,19.69-2.2,2.3-2.21,3.86-.46,6.3,11.33,15.81,24.79,29.5,40.68,40.68,32.49,22.88,68.57,33.6,108.36,31.72,37.24-1.75,70.27-14.58,99.49-37.51,12.86-10.09,23.39-22.47,33.73-35,1.66-2.02,1.37-3.77-.34-5.71-5.38-6.13-11.62-10.87-19.27-13.99-7.95-3.24-15.79-6.68-25.48-9.37,8.58,11.62,8.41,23.74,7.2,35.87-.38,3.79-.25,6.88,1.62,10.34,4.25,7.89,.64,17.29-7.68,21.32-7.51,3.63-17.51-.1-21.06-7.85-3.72-8.13-.29-18.42,8.17-21.07,5.74-1.8,6.56-5.06,6.34-9.86-.09-1.99-.01-3.99-.08-5.99-.55-16.35-16.13-28.81-32-24.91-19.09,4.69-23.13,21.32-20.3,37.12,.35,1.94,1.61,2.12,3.14,2.51,5.18,1.3,8.67,4.63,10.83,9.46,2.63,5.86,.68,13.94-4.41,18.14-5.52,4.55-14.3,4.9-19.97,.8-5.35-3.87-8.49-12.67-5.27-18.21,3.24-5.58,3.3-10.82,1.3-17.22Zm6.63-73.54c-22.86,17.91-45.02,17-67.67,1.09,0,10.21-.04,19,.04,27.8,.02,1.63,.28,3.36,.88,4.86,5.6,14.02,12.54,27.28,22.84,38.49,8,8.7,13.17,8.61,20.91-.24,6.92-7.92,11.64-17.26,17.06-26.2,8.6-14.18,5.41-29.39,5.93-45.8Zm-99.46,101.69c7.89,.08,14.53-6.19,14.61-13.81,.08-8.01-6.36-14.4-14.55-14.43-7.78-.03-13.92,6.21-14.08,14.31-.15,7.41,6.33,13.84,14.03,13.93Zm162.29-5.57c.12-1.66-.82-2.47-2.31-2.62-1.7-.17-3.06,.57-3.2,2.34-.13,1.66,.94,2.9,2.63,3.03,1.76,.13,2.69-1.01,2.88-2.74Zm-56.28,2.44c2.11-.11,3.05-1.07,3.06-2.51,.01-1.74-1.12-2.63-2.9-2.57-1.57,.06-2.51,.98-2.5,2.46,.01,1.73,1.08,2.65,2.34,2.61Zm-94.27-78.04c.06,.29,.11,.57,.17,.86,1.76-.31,3.53-.53,5.26-.97,1.53-.38,1.59-1.76,1.06-2.79-.7-1.37-1.68-.28-2.43,.19-1.39,.85-2.71,1.8-4.06,2.72Zm-18.2-70.18c-.54,1.69-2,3.18-.92,4.96,.1,.17,1.15,.11,1.3-.13,1.04-1.61,.86-3.25-.38-4.83Z"/>
  <path class="cls-1" d="M489.98,88.11c-.02,3.99-.04,7.97-.04,11.96-.14,90.16-.27,180.32-.4,270.48,0,1.16,0,2.32-.63,3.48,0-10.93,.07-21.86-.06-32.79-.02-1.92,1.31-4.6-1.64-5.62-2.83-.98-4.41,.76-6.24,3.12v-18.5c-.52-.01-1.04-.02-1.56-.04v38.06c-.44,0-.88,0-1.32,0,0-5.51,0-11.03,0-16.54-.12-64.21-.31-128.42-.26-192.63,0-4.95-1.05-6.38-6.25-6.38-111.78,.17-223.57,.12-335.36,.16-1.55,0-3.36-.81-4.62,.88-.06,4.98-.12,9.97-.2,14.95-.09,5.15-2.57,8.12-6.74,8.1-3.92-.01-6.4-2.93-6.41-7.85-.04-21.94-.26-43.88,.05-65.81,.5-34.76,29.52-62.87,64.94-62.95,56.55-.12,113.11-.03,169.66-.03,24.12,0,48.24-.09,72.36,.01,33.55,.14,61.65,25.36,64.72,57.93Zm-185.85,41.91c55.9,0,111.8-.06,167.7,.11,4.43,.01,5.55-1.11,5.38-5.48-.37-9.3-.09-18.63-.12-27.94-.1-31.1-22.54-53.27-53.64-53.26-79.69,.03-159.38-.04-239.06-.06-27.14,0-48.68,18.23-52.42,45.1-1.65,11.86-.13,23.93-.65,35.89-.19,4.48,.98,5.76,5.62,5.75,55.73-.17,111.46-.11,167.2-.11Z"/>
  <path class="cls-1" d="M17.08,368.28c-.36,.66-.72,1.32-1.48,2.72,0-12.39,.05-24.04-.06-35.7-.01-1.56,1.16-4.23-1.57-4.45-2.51-.2-2.32,2.25-2.44,4.06-.22,3.23-5.73,2.85-4.91,7.08-1.46-2.46-3.85-4.76,.55-6.76,1.23-.56,2.63-1.72,2.3-2.97-1.15-4.38,1.8-9.15-1.4-13.28-.8-1.03-.54-2.34,0-3.32,1.78-3.23,1.57-6.69,1.44-10.16,7.95-31.51,23.44-58.62,45.95-82.17,22.93-24,50.14-40.41,81.73-49.92,19.1-5.75,38.68-8.28,58.57-7.38,41.31,1.85,78.49,15.19,110.64,41.48,12.84,10.5,24.37,22.35,34,35.97,13.59,19.23,23.43,40.16,29.17,63.01,1.58,8.54-3.61,10.67-10.55,11.16-5.27-25.25-15.42-48.41-31.08-68.86-30.89-40.31-71.67-63.7-122.3-68.81-52.95-5.34-98.08,13.34-137.32,47.56-5.05,4.4-9.7,10.17-13.81,15.8-12,16.45-22.96,33.55-29.06,53.25-3.8,1.78-7.78,3.41-3.91,8.74,.56,.76,.16,2.22,.21,3.35-1.75,8.75-4.47,17.44-5,26.26-.67,11.06-1.01,22.25,.33,33.35Z"/>
  <path class="cls-1" d="M270.22,568.95c0-17.3,13.35-30.75,30.53-30.76,17.14-.01,31.18,13.75,31.06,30.43-.13,17.51-13.76,31.23-30.94,31.15-17.05-.08-30.65-13.76-30.65-30.82Zm48.06,.14c.02-9.99-7.67-17.84-17.47-17.83-9.34,0-17.48,8.1-17.54,17.42-.05,9.8,7.81,17.67,17.66,17.69,9.77,.01,17.32-7.52,17.34-17.28Z"/>
  <path class="cls-1" d="M403.9,195.87c-.1,2.14-1.1,3.78-2.56,5.24-12.9,12.85-25.75,25.75-38.69,38.55-3.21,3.17-6.99,3.27-9.68,.45-3.16-3.3-2.54-6.74,.39-9.7,12.93-13.07,25.95-26.06,38.96-39.05,2.24-2.23,4.95-2.7,7.8-1.42,2.49,1.11,3.69,3.22,3.79,5.92Z"/>
  <path class="cls-1" d="M514.35,86.48c13.87-1.44,21.53-9.13,23.04-23.05,.41,.2,.83,.41,1.24,.61,1.52,3.92,3.23,7.78,4.51,11.79,1.09,3.42,2.89,5.72,6.52,6.63,3.93,.98,7.17,3.68,12.05,4.43-3.92,2.89-7.57,4-11.13,5.04-4.23,1.23-6.58,3.72-7.77,7.94-1.06,3.77-2.79,7.34-4.46,11.6-1.04-2.48-2.09-4.25-2.51-6.15-1.82-8.3-6.48-13.62-15.03-15.35-2.07-.42-4-1.52-6-2.31-.15-.39-.3-.79-.46-1.18Z"/>
  <path class="cls-1" d="M23.99,527.51c1.72,4.19,3.49,7.3,4.26,10.63,1.29,5.6,4.83,8.16,10.04,9.65,3.13,.89,6.39,1.82,10.3,4.65-14,1.77-21.92,9.21-23.66,23.89-3.07-4.98-4.22-8.88-5.55-12.68-1.22-3.47-3.02-5.93-6.92-6.99-3.97-1.08-7.71-3.01-12.46-4.94,4.69-1.89,8.6-3.79,12.71-5.02,3.62-1.09,5.45-3.36,6.59-6.7,1.34-3.91,2.9-7.75,4.69-12.48Z"/>
  <path class="cls-1" d="M499.97,0c1.68,4.35,3.25,7.6,4.17,11.02,1.33,4.97,4.26,7.71,9.2,9.16,2.75,.81,7.49,.81,7.42,4.38-.05,2.65-4.63,3.08-7.26,3.78-5.43,1.45-8.3,4.67-9.62,9.97-.78,3.15-2.3,6.12-3.87,10.13-1.92-4.89-3.72-8.91-5.07-13.07-1.01-3.11-2.71-5-5.87-6.02-4.2-1.35-8.27-3.13-13.31-5.07,5.1-1.99,9.32-3.83,13.67-5.28,2.76-.92,4.37-2.51,5.29-5.25,1.46-4.33,3.23-8.55,5.24-13.76Z"/>
  <path class="cls-1" d="M62.72,638.63c-.51-.4-.72-.48-.75-.6-2.78-11.23-8.08-20.06-20.75-21.98-.53-.08-.98-.74-1.72-1.33,3.41-2.1,6.88-3.17,10.31-4.28,4-1.29,6.94-3.24,7.97-7.85,.84-3.78,2.78-7.32,4.63-11.99,1.9,4.86,3.73,8.72,4.89,12.76,.99,3.43,2.99,5.31,6.2,6.42,4.06,1.4,8.05,3.01,12.66,4.75-4.14,2.93-8.55,3.85-12.61,5.38-3.26,1.23-5.22,2.93-6.2,6.35-1.18,4.11-2.98,8.03-4.64,12.37Z"/>
  <path class="cls-1" d="M246.26,291.39c4.36-.52,6.63,2.11,8.17,6.37,5.97-32.95,1.44-62.87-23.88-85.14-33.8-29.72-85.81-17.98-105.6,23.72-8.94,18.83-9.55,38.77-7.3,59.05,.8,7.25,1.44,14.53,1.83,21.82,.23,4.23,1.28,8.25,2.11,12.34-1.41-.04-2.05-.79-2.16-2.18-.13-1.57,.49-3.91-1.58-4.23-2.37-.36-1.73,2.81-3.37,3.95-1.71-1.36-.78-3.29-1.01-4.92-.17-1.21-.29-2.37-1.85-2.47-1.9-.12-1.98,1.22-2.18,2.62-.29,2.04,.99,4.34-.94,6.12-1.36-7.35-2.61-14.71-1.94-22.24,.45-5.06-2.28-9.56-2.57-14.53-1.54-26.21,.97-51.33,16.52-73.85,32.8-47.51,103.65-45.95,134.39,2.58,14.73,23.25,16.37,48.18,13.76,74.24-.4,3.96-1.13,7.89-1.71,11.84-2.89,2.98-1.31,6.69-1.63,10.09,0,0-.04,.09-.04,.09-4.49,1.07-8.96,2.09-12.49-2.22,.47-4.74,1.75-9.4,1.5-15.61-2.67,5.72-6.8,5.62-11.05,5.34-16.15-1.06-31.76-3.82-44.7-14.59-1.98-1.65-3.37-.42-4.94,.31-20.8,9.75-42.71,14.48-65.66,14.51-2.37,0-4.66-.11-6.55-1.78-2.49-2.2-2.63-5.27-1.6-7.82,1.02-2.51,3.81-3.33,6.66-3.33,9.83,0,19.59-.82,29.24-2.76,21.73-4.37,41.3-13.39,58.75-27.08,2.17-1.7,3.11-3.5,3.03-6.27-.18-6.32-.13-12.64-.04-18.97,.07-4.61,3.01-7.94,6.8-7.47,4.26,.53,6.29,3.18,6.24,7.57-.1,8.15-.13,16.31-.03,24.46,.04,2.94-1.27,4.92-3.27,6.9-5.18,5.14-11.53,8.75-17.65,13.58,5.54,3.42,10.5,7.11,16.83,8.1,6.43,2.98,13.23,2.07,19.96,1.85Z"/>
  <path class="cls-1" d="M114.34,330.16c1.24,1.58,1.43,3.22,.38,4.83-.16,.24-1.2,.31-1.3,.13-1.08-1.78,.38-3.27,.92-4.96Z"/>
  <path class="cls-1" d="M25.45,296.58c-.65,4.21-1.97,8.21-3.7,12.09-.05-1.13,.34-2.59-.21-3.35-3.87-5.33,.11-6.96,3.91-8.74Z"/>
  <path class="cls-1" d="M265.3,316.57c.32-3.4-1.26-7.11,1.63-10.09,.11,3.47-.18,6.88-1.63,10.09Z"/>
  <path class="cls-1" d="M246.26,291.39c-6.73,.22-13.52,1.12-19.96-1.85,6.74-.32,13.32,1.06,19.96,1.85Z"/>
  <path class="cls-1" d="M121.45,474.98c-4.54,.14-8.91-3.88-8.96-8.23-.05-4.7,3.7-8.57,8.43-8.68,4.56-.11,8.35,3.37,8.57,7.88,.23,4.64-3.56,8.9-8.04,9.03Z"/>
  <path class="cls-1" d="M301.19,90.67c26.11,0,52.21-.02,78.32,.02,6.87,.01,9.24,3.8,6.62,9.96-1.33,3.13-3.88,3.19-6.57,3.19-10.64,.01-21.28,0-31.93,0-41.07,0-82.15,0-123.22-.02-1.82,0-3.72,.11-5.43-.38-3.24-.92-5.02-3.28-4.71-6.72,.3-3.34,2.11-5.55,5.61-5.95,1.48-.17,2.99-.11,4.48-.11,25.61,0,51.22,0,76.82,0Z"/>
  <path class="cls-1" d="M414.86,93.18c.08-5.54,4.86-10.23,10.25-10.07,5.46,.17,10.02,5.06,9.82,10.55-.21,5.85-4.71,9.55-11.53,9.5-4.34-.03-8.6-5.02-8.54-9.98Z"/>
</svg>