<?xml version="1.0" encoding="UTF-8"?>
<svg id="Layer_1" data-name="Layer 1" xmlns="http://www.w3.org/2000/svg" viewBox="0 0 1278.77 1278.8">
  <defs>
    <style>
      .cls-1 {
        fill: #5c2e63;
      }
    </style>
  </defs>
  <path class="cls-1" d="M1010.63,928.28c.03,82.41,.42,164.82-.05,247.22-.3,51.84-35.78,92.9-86.6,101.94-5.89,1.05-11.89,1.36-17.9,1.36-177.81-.03-355.61,0-533.42-.04-53.19-.01-96.07-37.28-103.56-89.95-.82-5.74-.86-11.62-.86-17.44-.05-106.55-.08-213.1,.09-319.65,0-5.11-1.29-6.24-6.27-6.21-38.79,.22-77.58,.18-116.37,.03-3.71-.01-5.42,1.07-6.93,4.54-10.12,23.23-34.57,38.31-58.95,36.71-26.99-1.77-48.93-18.79-56.55-43.86-7.44-24.5,1.12-51.27,21.68-66.86,2.75-2.08,3.2-3.73,2.38-6.96-15.51-61.5-30.88-123.03-46.27-184.56-.2-.78-.12-1.68-1.04-2.1v-9.99c4.82-12.25,14.17-15.84,26.78-15.8,78.73,.29,157.45,.11,236.18,.24,4.09,0,5.26-.88,5.2-5.1-.25-19.3-.11-38.61-.11-57.92,0-129.49-.03-258.98,.02-388.47,.02-47.52,28.68-87.06,73-100.8,6.09-1.89,12.39-3.09,18.59-4.6,186.16,0,372.32,0,558.47,0,8.26,2.13,16.78,3.17,24.83,6.22,41.57,15.77,67.65,53.48,67.72,98.68,.12,81.86,.02,163.72,0,245.59-13.77-.04-27.54-.08-41.3-.11-.02-46.28-.12-92.57,.04-138.85,.02-4.49-1.19-5.38-5.48-5.37-216.45,.11-432.89,.11-649.34,0-4.05,0-5.25,.82-5.25,5.1,.13,113.55,.13,227.1,.02,340.65,0,3.86,.89,4.92,4.85,4.91,46.62-.15,93.24-.18,139.86,.04,4.31,.02,5.5-1.56,6.59-5.22,12.15-40.89,24.44-81.73,36.75-122.57,3.48-11.54,10.26-16.51,22.38-16.52,32.47-.02,64.93-.02,97.4,.02,2.15,0,4.36,.07,6.43,.58,10.26,2.53,16.91,12.18,15.65,22.44-1.26,10.31-9.87,18.02-20.53,18.05-26.97,.08-53.95,.09-80.92-.05-3.49-.02-5.13,.78-6.22,4.41-31.61,105.91-63.35,211.78-95.17,317.62-1.07,3.56-.78,5.86,1.78,8.81,13.8,15.88,18.56,34.37,13.73,54.83-6.36,26.96-27.85,44.82-56.12,47.41-24.96,2.29-49.81-12.94-60.45-37.33-1.31-3.01-2.89-3.88-5.94-3.75-4.98,.23-10.01,.38-14.97-.03-4.31-.36-5.11,1.2-5.1,5.25,.13,72.26,.14,144.52-.02,216.78,0,4.35,1.31,5.06,5.29,5.06,216.45-.1,432.89-.1,649.34,.02,4.38,0,5.45-1.02,5.44-5.42-.15-46.28-.05-92.57-.02-138.86,13.74-.03,27.49-.05,41.23-.08ZM638.89,164.92c108.55,0,217.1-.02,325.65,.09,3.9,0,4.92-.95,4.87-4.86-.22-18.31-.06-36.63-.11-54.94-.09-37.1-26.77-64.02-63.79-64.03-177.48-.06-354.96-.06-532.43,0-36.77,.01-63.57,26.93-63.7,63.62-.07,18.31,.18,36.63-.15,54.94-.08,4.6,1.33,5.28,5.5,5.28,108.05-.12,216.1-.09,324.16-.09Zm.46,948.94c-108.37,0-216.74,.02-325.11-.09-3.9,0-4.91,.96-4.87,4.86,.22,18.48,.06,36.95,.13,55.43,.01,3.82,.05,7.7,.73,11.43,5.74,31.36,30.7,52.1,63.01,52.11,177.46,.05,354.91,.06,532.37,0,36.78-.01,63.56-26.93,63.69-63.62,.07-18.31-.18-36.63,.14-54.93,.08-4.59-1.3-5.29-5.49-5.28-108.2,.12-216.41,.1-324.61,.1ZM231.59,804.3c8.66,0,17.32-.19,25.97,.08,3.85,.12,4.7-.6,3.69-4.59-16.59-65.86-33.03-131.76-49.41-197.67-.72-2.88-1.74-4-4.92-3.97-17.48,.18-34.97,.18-52.45,0-3.47-.03-4.2,.83-3.37,4.16,16.63,66.19,33.2,132.39,49.69,198.61,.64,2.58,1.64,3.48,4.32,3.43,8.82-.16,17.65-.06,26.47-.06Zm52.26-206.06c-8.82,0-17.64,.09-26.45-.05-2.92-.05-4.14,.23-3.26,3.76,16.66,66.3,33.22,132.63,49.72,198.97,.7,2.8,1.92,3.6,4.74,3.51,7.15-.23,14.31-.22,21.46,0,2.79,.08,4.01-.81,5.07-3.41,4.1-10.04,10.43-18.57,19.25-24.92,2.91-2.09,3.04-3.95,2.27-7-14.02-55.68-27.97-111.37-41.8-167.1-.77-3.12-2.08-3.86-5.05-3.8-8.65,.18-17.3,.06-25.95,.06Zm-125.1,206.06c0-.93,.1-1.45-.01-1.92-16.69-66.84-33.42-133.67-50.04-200.53-.77-3.09-2.22-3.7-5.11-3.68-17.48,.13-34.95,.05-52.43,.09-1.21,0-2.61-.53-3.83,.84,2.87,11.51,5.75,23.09,8.66,34.67,10.55,42.03,21.11,84.05,31.65,126.08,.47,1.89,.41,3.88,3.2,4.3,23.29,3.5,39.42,16.36,48.84,37.79,.7,1.59,1.39,2.41,3.2,2.38,5.28-.08,10.57-.03,15.87-.03Zm287.77-205.69c-.84-.16-1.32-.33-1.81-.33-28.3-.02-56.61,.03-84.91-.09-3.47-.01-3.16,1.2-2.49,3.83,8.28,32.85,16.4,65.73,24.61,98.6,4.99,19.98,10.05,39.93,15.08,59.9,.28,.02,.57,.04,.85,.05,16.21-53.96,32.42-107.91,48.66-161.95Zm-54.4,246.93c11.31-.05,20.59-9.47,20.42-20.74-.17-11.3-9.63-20.57-20.84-20.44-11.36,.14-20.38,9.41-20.28,20.85,.09,11.47,9.17,20.38,20.71,20.33Zm-289.11-20.58c-.06-11.4-9.29-20.64-20.58-20.6-11.26,.04-20.51,9.38-20.5,20.7,.01,11.41,9.12,20.45,20.62,20.48,11.41,.03,20.51-9.13,20.45-20.58Z"/>
  <path class="cls-1" d="M1010.63,928.28c-13.74,.03-27.49,.05-41.23,.08-6.32-.08-12.63-.21-18.95-.24-12.47-.07-20.34-6.76-22.31-18.99-1.48-9.19-3.09-18.35-4.43-27.56-.44-2.99-1.67-4.5-4.68-5.36-16.03-4.59-31.35-11.01-45.93-19.08-2.98-1.65-4.86-1.34-7.46,.61-7.45,5.59-15.14,10.85-22.74,16.23-9.98,7.06-20.24,6.28-28.86-2.32-18.74-18.68-37.45-37.4-56.14-56.14-8.96-8.98-9.72-18.65-2.33-29.14,5.55-7.89,11.13-15.77,16.83-23.54,1.36-1.86,1.59-3.24,.43-5.32-8.47-15.15-15.04-31.1-19.87-47.76-.69-2.38-1.86-3.45-4.36-3.82-9.36-1.39-18.68-3.14-28.04-4.55-12.19-1.84-19.21-9.73-19.22-22.09-.04-26.63-.04-53.26,0-79.89,.02-12.31,7.07-20.14,19.37-21.97,9.2-1.37,18.36-3.05,27.56-4.41,2.64-.39,4-1.43,4.75-4.08,4.73-16.52,11.33-32.29,19.63-47.33,1.24-2.24,1.19-3.68-.32-5.73-5.82-7.9-11.49-15.92-17.09-23.98-6.95-9.98-6.14-19.82,2.4-28.39,18.79-18.87,37.63-37.7,56.49-56.49,8.72-8.69,18.65-9.41,28.78-2.22,7.87,5.58,15.77,11.12,23.53,16.86,2.05,1.51,3.55,1.6,5.76,.37,15.02-8.32,30.81-14.88,47.31-19.65,2.61-.75,3.61-2.04,4-4.75,1.37-9.54,3.12-19.02,4.66-28.53,1.84-11.35,9.8-18.28,21.28-18.44,6.65-.09,13.3-.18,19.95-.27,13.77,.04,27.54,.08,41.3,.11,6.82,.05,13.65,.05,20.47,.17,10.1,.18,17.99,6.23,20.06,16.14,2,9.59,3.41,19.3,4.85,29,.56,3.8,1.93,5.88,6.01,7.06,15.68,4.55,30.75,10.75,45.01,18.75,2.71,1.52,4.63,1.46,7.14-.42,7.6-5.67,15.36-11.12,23.13-16.56,10.12-7.09,19.93-6.21,28.76,2.59,18.74,18.69,37.47,37.4,56.15,56.15,8.64,8.67,9.41,18.83,2.31,28.86-5.58,7.88-11.14,15.77-16.87,23.53-1.5,2.03-1.6,3.55-.38,5.76,8.28,15.05,14.95,30.79,19.65,47.33,.75,2.63,2.07,3.58,4.78,3.97,9.37,1.34,18.69,3.1,28.04,4.59,11.87,1.89,18.92,9.88,18.94,21.91,.05,26.64,.05,53.27,0,79.91-.02,12-6.97,20.01-18.9,21.98-9.35,1.54-18.68,3.14-28.05,4.51-2.88,.42-4.16,1.73-4.95,4.49-4.66,16.19-11.15,31.66-19.26,46.42-1.4,2.55-1.34,4.26,.41,6.61,5.76,7.74,11.32,15.63,16.84,23.54,6.92,9.91,6.14,19.94-2.32,28.43-18.79,18.88-37.63,37.71-56.5,56.51-8.56,8.52-18.55,9.4-28.41,2.52-8.05-5.61-16.05-11.3-23.95-17.14-2.04-1.51-3.49-1.61-5.73-.36-14.87,8.28-30.5,14.79-46.86,19.48-3.03,.87-4.2,2.45-4.64,5.4-1.36,9.21-2.99,18.37-4.4,27.57-1.82,11.82-9.9,18.84-21.91,18.91-6.49,.04-12.98,.11-19.47,.17Zm.25-444.29c-.57-5.79,.48-11.73-1.79-17.29-3.66-8.93-13.21-14.34-22.02-12.72-10.33,1.89-17.28,9.56-17.68,19.91-.26,6.65-.21,13.32-.06,19.97,.07,2.86-.5,4.2-3.66,5.18-7.59,2.35-14.78,5.7-21.48,10.17-47.02,31.42-48.93,100.2-3.72,134.24,15.66,11.79,33.48,16.01,52.74,16.94,16.57,.8,28.53,9.8,34.8,25.07,6.68,16.28,3.8,31.67-8.31,44.36-11.52,12.07-26.02,15.34-42.14,10.74-14.94-4.26-28.53-20.05-28.68-38.01-.11-12.95-9.53-22.47-20.96-21.96-11.58,.51-21.32,9.5-20.2,23.49,.54,6.65,1.17,13.24,3.14,19.63,8.6,27.92,26.9,46.44,54.5,55.75,3.04,1.03,4.15,2.29,4,5.55-.29,6.31-.27,12.65-.04,18.97,.44,11.86,9.48,21.05,20.42,21.03,11.35-.02,20.34-8.61,20.94-20.45,.31-6.14,.13-12.32-.23-18.46-.23-4.01,1.24-5.68,5.09-6.95,33.57-11.05,55.42-40.23,56.79-75.38,1.5-38.51-24.79-73.37-62.03-82.52-8.97-2.21-18.19-1.73-27.17-3.1-23.51-3.57-39.08-27.73-33.15-50.53,6.19-23.79,30.97-37.14,53.81-29,16.45,5.86,26.78,20.37,27.4,38.48,.42,12.28,9.67,21.43,21.34,21.1,11.69-.33,20.13-9.42,19.69-21.83-1.24-34.98-18.39-59.42-49.7-74.42-3.82-1.83-9.6-1.19-11.28-5.13-1.56-3.66-.33-8.5-.33-12.82Zm-170.72,155.1c-.05-10.12-8-17.93-18.12-17.8-10.53,.13-18.18,7.92-18.09,18.41,.09,10.27,8.1,17.9,18.71,17.79,9.97-.1,17.55-8.07,17.5-18.4Zm328.81,.63c.06-10.62-7.53-18.4-17.95-18.41-10.49,0-18.17,7.7-18.17,18.23,0,10.2,7.65,17.82,17.98,17.89,10.3,.07,18.09-7.53,18.15-17.71Z"/>
  <path class="cls-1" d="M516.04,329.93c47.45,0,94.89-.03,142.34,.02,15.72,.02,26.01,13.46,21.02,27.43-2.67,7.48-8.03,12.06-15.91,13.44-1.95,.34-3.97,.48-5.96,.48-94.56,.02-189.12,0-283.67,.05-9.44,0-16.97-3.15-21.21-11.99-6.62-13.78,3.28-29.13,19.06-29.37,15.65-.23,31.3-.05,46.95-.05,32.46,0,64.93,0,97.39,0Z"/>
  <path class="cls-1" d="M556.76,907.35c-14.15,0-28.3,.23-42.45-.08-9.22-.21-17-7.17-18.76-15.83-1.91-9.4,2.21-18.41,10.46-22.77,3.14-1.66,6.5-2.47,10.06-2.46,27.14,0,54.27-.07,81.41,.03,12.2,.05,21.13,8.87,21.18,20.52,.05,11.71-8.62,20.46-20.96,20.65-13.65,.21-27.3,.05-40.95,.05,0-.04,0-.07,0-.11Z"/>
  <path class="cls-1" d="M721.82,907.36c-14.15,0-28.31,.4-42.44-.11-14.58-.52-23.6-15.79-17.45-28.9,3.65-7.78,10.04-12.02,18.59-12.06,27.63-.16,55.27-.19,82.9,0,11.49,.08,20.2,9.17,20.32,20.39,.12,11.21-8.4,20.36-19.97,20.63-13.98,.32-27.97,.08-41.95,.08,0-.01,0-.03,0-.04Z"/>
  <path class="cls-1" d="M557.15,255.7c7.94,.21,15.29,1.92,21.47,6.99,7.8,6.42,7.91,15.54,.4,22.28-10.85,9.74-33.02,9.67-43.88-.13-7.13-6.44-7.19-15.21,.02-21.63,6.28-5.59,13.97-7.3,21.99-7.52Z"/>
  <path class="cls-1" d="M392.77,292.29c-7.79-.21-15.17-1.79-21.37-6.87-7.92-6.48-7.97-15.97-.22-22.65,10.88-9.36,32.26-9.36,43.1,0,7.94,6.85,7.73,16.4-.52,22.96-5.15,4.09-13.04,6.56-20.99,6.56Z"/>
  <path class="cls-1" d="M474.86,255.76c10.09-.04,18.54,8.4,18.43,18.41-.11,9.89-8.33,18.05-18.24,18.11-10.09,.06-18.49-8.36-18.39-18.43,.1-9.9,8.3-18.05,18.21-18.09Z"/>
  <path class="cls-1" d="M603.22,950.02c9.92,.14,18.05,8.41,17.96,18.29-.09,10.19-8.42,18.23-18.69,18.06-9.99-.17-18.01-8.34-17.94-18.28,.07-10.15,8.4-18.21,18.67-18.07Z"/>
  <path class="cls-1" d="M676.33,950.02c9.95,.15,18,8.39,17.91,18.33-.09,10.16-8.45,18.21-18.71,18.02-10-.19-18.04-8.41-17.93-18.31,.12-10.13,8.49-18.19,18.73-18.03Z"/>
  <path class="cls-1" d="M657.54,274.04c-.01,10.04-7.92,18.09-17.94,18.25-10.14,.17-18.39-8.05-18.38-18.3,0-10.25,8.21-18.36,18.43-18.22,9.98,.13,17.9,8.22,17.89,18.27Z"/>
  <path class="cls-1" d="M529.67,968.08c.05,10.32-7.98,18.36-18.28,18.31-10.07-.05-17.98-7.97-18.04-18.04-.05-10.31,7.99-18.37,18.27-18.32,10.06,.05,17.99,7.99,18.04,18.06Z"/>
  <path class="cls-1" d="M785.43,968.32c-.05,10.27-8.22,18.24-18.52,18.06-10.06-.17-17.83-8.16-17.79-18.29,.04-10.27,8.19-18.22,18.52-18.08,10,.14,17.85,8.21,17.8,18.3Z"/>
  <path class="cls-1" d="M638.87,1196.19c-33.78,0-67.57,.05-101.35-.03-15.12-.04-24.93-12.39-21.04-26.2,2.45-8.68,10.22-14.69,19.59-14.96,4.99-.14,9.98-.03,14.98-.04,63.24,0,126.48-.01,189.72,0,11.51,0,19.52,6.1,21.88,16.5,2.62,11.53-5.7,23.29-17.45,24.48-3.3,.33-6.65,.22-9.97,.23-32.12,.01-64.24,0-96.36,0Z"/>
</svg>