<?xml version="1.0" encoding="UTF-8"?>
<svg id="Layer_1" data-name="Layer 1" xmlns="http://www.w3.org/2000/svg" viewBox="0 0 405.6 432.78">
  <defs>
    <style>
      .cls-1 {
        fill: #5c2e63;
      }
    </style>
  </defs>
  <path class="cls-1" d="M390.07,365.32V67.74H149.7c0,2.08,0,3.86,0,5.65,0,13.83,.03,27.67-.02,41.5-.02,5.34-2.95,8.73-7.4,8.83-4.45,.09-7.46-3.21-7.48-8.68-.06-20.33-.4-40.67,.1-60.99C135.62,24.76,160.19,.42,189.5,.25c53.49-.32,106.99-.32,160.48-.03,30.83,.17,55.18,25.26,55.49,56.66,.25,25,.05,50,.05,75,0,80.5-.01,160.99,.01,241.49,.01,36.56-28.21,62.42-64.62,59.14-4.41-.4-7.48-2.82-7.54-7.21-.23-17.49-.23-35-.04-52.49,.05-4.68,3.38-7.03,9.13-7.07,13.83-.09,27.66-.02,41.49-.05,1.95,0,3.91-.22,6.11-.35ZM270.14,44.48s0,.02,0,.03c5.49,0,10.98,.15,16.46-.04,5.01-.18,8.4-3.6,8.44-8.06,.04-4.43-3.33-7.98-8.37-8.06-10.97-.18-21.95-.16-32.93,.02-5.29,.08-8.5,3.2-8.68,7.72-.19,4.65,3.17,8.12,8.6,8.35,5.48,.23,10.97,.05,16.46,.05Z"/>
  <path class="cls-1" d="M176.45,255.08h-51.71c1.07,8.42,2.06,16.58,3.23,24.72,.08,.58,1.42,1.25,2.25,1.39,1.46,.25,3,0,4.48,.16,4.74,.5,7.82,3.52,7.8,7.56-.01,4.01-3.12,7.14-7.86,7.5-3.31,.25-6.66,.07-9.99,.07-27.66-.01-55.32-.02-82.98-.04-1.64,0-3.28,0-5.82,0,.82,7.54,1.53,14.56,2.34,21.57,3.53,30.27,7.12,60.53,10.62,90.81,.93,8.04,1.37,8.57,9.49,8.57,16.33,0,32.66-.05,48.99-.04,5.62,0,9.06,2.5,9.53,6.78,.5,4.52-2.77,8.3-7.86,8.33-18.83,.12-37.66,.29-56.48-.11-9.76-.21-16.79-7.69-18.09-18.16-1.84-14.87-3.46-29.78-5.2-44.66-4.34-37.05-8.66-74.1-13.17-111.13-.17-1.41-1.94-3.31-3.36-3.78C3.94,251.77,.15,246.93,.04,237.71c-.05-4.67-.07-9.33,.03-14,.16-7.33,4.03-12.85,11.17-14.73,3.48-.92,4.25-2.85,4.72-5.84,5.91-38.13,33.9-66.8,71.87-73.25,5.03-.85,6.44-2.29,5.6-7.56-2.06-12.81-3.34-25.75-4.92-38.65-.16-1.32-.33-2.65-.35-3.98-.08-4.54,2.83-8.06,6.85-8.37,3.71-.28,7.26,2.57,7.86,6.85,1.41,10.06,2.59,20.15,3.86,30.23,.68,5.45,1.56,10.89,1.94,16.37,.23,3.31,1.79,4.02,4.74,4.28,40.41,3.55,73.54,35.4,78.54,75.18,.18,1.47,1.69,3.48,3.04,3.98,8.99,3.3,12.6,8.02,12.66,17.48,.03,4.33,.07,8.67-.04,13-.19,8.03-4.39,13.62-12.23,15.53-2.83,.69-3.83,1.94-4.06,4.58-.31,3.48-.68,6.97-1.35,10.4-.82,4.24-4.48,6.86-8.26,6.26-3.91-.62-6.68-4.02-6.42-8.23,.24-3.93,.75-7.85,1.17-12.16Zm-72.94-46.89c-.16-2.57-.17-4.23-.38-5.87-2.22-18.01-4.58-36.01-6.62-54.04-.44-3.87-1.79-4.51-5.41-3.95-29.92,4.58-54.57,28.32-59.97,58.06-.31,1.7-.22,3.48-.34,5.75,3.06,0,5.54-.13,7.99,.03,4.54,.28,7.86,3.51,7.89,7.46,.03,4.04-3.09,7.15-7.81,7.35-4.82,.21-9.66,.06-14.49,.12-10.61,.12-9.2-1.29-9.38,9.29-.12,7.22-.07,7.23,7.31,7.24,54.65,.08,109.3,.15,163.95,.22,1,0,2.19,.34,2.95-.09,1.18-.67,2.87-1.8,2.95-2.84,.33-4.27,.14-8.58,.14-13.6-2.98,0-5.73,0-8.48,0-18.57-.03-37.13-.03-55.7-.11-11.8-.05-23.6-.12-35.4-.37-4.86-.11-7.93-3.06-7.99-7.03-.06-4.09,3.32-7.33,8.2-7.57,3.29-.17,6.59-.03,10.57-.03Zm73.1-.33c-1.37-32.46-33.08-63.39-65.46-63.33,2.59,21.11,5.18,42.15,7.78,63.33h57.68ZM30.86,255.02c.93,7.75,2.06,14.64,2.49,21.59,.26,4.12,2.08,4.81,5.66,4.79,22.81-.12,45.62-.05,68.42-.07,1.6,0,3.19-.22,5.29-.37-.89-7.27-2-14-2.42-20.77-.27-4.25-1.68-5.59-6.02-5.55-22.64,.22-45.28,.1-67.92,.11-1.62,0-3.23,.16-5.49,.27Z"/>
  <path class="cls-1" d="M223.43,351.31c-26.81,0-53.63,.01-80.44,0-14.8-.01-21.06-8.48-16.49-22.52,5.68-17.44,18.26-28.64,34.06-36.67,21.32-10.84,44.25-14.16,67.85-13.63,21.53,.48,42.41,4.24,61.57,14.66,15.91,8.65,28.31,20.51,32.89,38.79,2.79,11.14-3.96,19.49-15.51,19.49-27.98,0-55.96,0-83.94,0,0-.04,0-.08,0-.12Z"/>
  <path class="cls-1" d="M223.96,385.04c27.49,0,54.98,0,82.47,0,12.48,0,17.53,5,17.92,17.41,.25,7.88-.72,15.29-6.3,21.42-5.24,5.75-11.76,8.63-19.49,8.64-49.65,.03-99.3,.09-148.95-.03-14.41-.03-25.09-10.96-25.41-25.38-.04-1.83-.01-3.67,0-5.5,.06-10.73,5.91-16.54,16.79-16.54,27.66-.02,55.31,0,82.97-.01Z"/>
  <path class="cls-1" d="M319.09,161.87c-.21,17.07-5.45,32.72-13.63,47.48-8.2,14.79-18.32,28.14-30.53,39.9-3.26,3.14-6.17,3.44-9.47,.17-20.37-20.13-36.39-42.92-42.64-71.41-4.39-20.01-2.22-38.76,13.83-53.35,15.67-14.25,33.84-17.28,53.36-9.01,18.38,7.8,29.3,25.65,29.09,46.21Zm-48.91,18.29c10.81,0,19.74-8.94,19.66-19.67-.08-10.83-8.89-19.68-19.65-19.75-11.02-.08-19.96,8.92-19.85,19.97,.11,10.89,8.84,19.45,19.84,19.44Z"/>
  <path class="cls-1" d="M224.56,375.52c-26.97,0-53.94,0-80.9-.02-1.65,0-3.39,.1-4.94-.36-3.71-1.1-6.02-3.54-5.76-7.67,.26-4.12,2.84-6.21,6.65-6.94,1.29-.25,2.65-.15,3.98-.15,53.44,0,106.87,0,160.31,0,1.83,0,3.69-.02,5.47,.32,3.92,.73,6.3,3.21,6.3,7.21,0,3.97-2.36,6.49-6.24,7.32-1.6,.34-3.31,.28-4.97,.28-26.64,.02-53.27,.01-79.91,0Z"/>
  <path class="cls-1" d="M65.96,223.04c-4.81,.03-8.09-3.08-8-7.57,.08-4.16,3.35-7.25,7.79-7.37,4.88-.13,8.58,2.97,8.47,7.09-.12,5.01-3.08,7.82-8.26,7.85Z"/>
</svg>