<?xml version="1.0" encoding="UTF-8"?>
<svg id="Layer_1" data-name="Layer 1" xmlns="http://www.w3.org/2000/svg" viewBox="0 0 1124.19 826.96">
  <defs>
    <style>
      .cls-1 {
        fill: #5c2e63;
      }
    </style>
  </defs>
  <path class="cls-1" d="M1013.7,439.41c0-2.23,0-4.03,0-5.82,0-99.47,0-198.95,.01-298.42,0-28.64,.01-57.28-.01-85.92-.02-19.74-12-31.83-31.68-31.83-125.31-.02-250.61,0-375.92,0-60.64,0-121.29,.4-181.93-.23-18.75-.2-33.24,13.77-32.98,33.03,.69,49.65,.23,99.33,.23,148.99,0,9.49,.01,18.98,.01,28.47,0,5.36-3.91,9.51-8.87,9.44-4.9-.06-8.41-3.96-8.41-9.26,.03-33.48,.05-66.96,.07-100.44,.01-26.33-.08-52.66,.04-79,.12-28.11,19.46-47.96,47.61-48.22,28.81-.27,57.62,.28,86.44,.27,29.62-.02,59.23-.4,88.85-.42,93.3-.05,186.61,0,279.91,.01,31.97,0,63.94-.14,95.91,.02,7.6,.04,15.45,0,22.75,1.78,21.41,5.22,35.1,23.17,35.15,45.21,.07,32.66-.2,65.31-.17,97.97,.05,55.65,.25,111.31,.33,166.96,.05,39.64,.37,79.28-.23,118.91-.16,10.82,2.62,19.67,8.21,28.72,20.38,32.99,40.18,66.33,60.14,99.57,6.58,10.96,12.85,22.11,19.56,32.99,3.7,6,5.8,12.14,5.44,19.31-.48,9.62,.3,19.36-.75,28.9-1.26,11.38-10.12,18.47-21.58,18.79-2.66,.07-5.33,.01-8,.01-126.16,0-252.32,0-378.48,0-35.13,0-70.26,.05-105.38-.04-2.56,0-6.08-.13-7.46-1.7-2.05-2.32-3.58-6-3.5-9.06,.1-3.67,3.24-6.11,7.17-6.47,2.81-.26,5.66-.17,8.49-.17,26.33,0,52.66,0,78.99,0,131.14-.02,262.28-.04,393.42-.05,4.49,0,8.98,.09,13.48,.04,5.49-.07,6.65-1.28,6.74-6.83,.04-2.3,0-4.6,0-7.76-10.98,0-21.41-.01-31.85,0-3.16,0-6.33,.18-9.49,.18-105.49,0-210.99,0-316.48-.01-43.32,0-86.63,.03-129.95-.02-2.29,0-4.72-.16-6.83-.93-3.68-1.34-5.32-4.39-5.14-8.28,.18-3.92,2.23-6.6,6.02-7.64,1.73-.48,3.61-.55,5.43-.55,37.32-.04,74.64-.06,111.97-.05,112.8,0,225.6,.02,338.4,.07,11.64,0,23.28,.22,34.92,.47,4.15,.09,4.77-1.67,2.87-4.83-4.81-7.97-9.79-15.82-14.58-23.8-18.86-31.37-37.67-62.76-56.51-94.14-5.39-8.98-10.95-17.87-16.15-26.97-1.67-2.92-3.69-3.65-6.84-3.65-37.65,.11-75.3,.13-112.94,.11-94.96-.05-189.92-.13-284.88-.22-6.62,0-10.74-3.37-10.72-8.52,.02-5.35,4-8.72,10.54-8.72,97.83,.03,195.65,.09,293.48,.11,33.81,0,67.61-.09,101.42-.15,.98,0,1.97-.1,3.76-.19Z"/>
  <path class="cls-1" d="M295.88,234.82c164.1,.73,295.91,133.03,295.99,296.28,.08,162.65-133,296.09-295.55,295.87C132.26,826.74,.38,694.6,0,531.45-.37,367.94,132.64,234.95,295.88,234.82Zm.21,17.4c-154.87,.32-279.01,125.1-278.86,280.03,.15,151.72,124.79,276.52,276.79,277.48,155.55,.98,282.56-126.71,280.7-282.28-1.82-151.26-126.03-275.5-278.63-275.23Z"/>
  <path class="cls-1" d="M700.48,62.11c-47.99,0-95.98-.03-143.98,.01-38.48,.03-76.97,.24-115.45,.14-5.07-.01-6.11,1.96-6.1,6.5,.08,53.16,0,106.33,.01,159.49,0,4.5-.88,8.43-5.56,10.1-5.93,2.11-11.42-1.92-11.54-8.62-.18-10.47-.04-20.95-.03-31.42,0-10.3,.02-20.59,.02-30.89,0-33-.01-66,0-99,0-15.64,7.6-23.43,23.27-23.43,43.95,.01,87.89,.25,131.84,.23,115.82-.05,231.64-.19,347.46-.28,13.56-.01,27.12-.05,40.69,.08,14.11,.13,22.24,8.49,22.24,22.56-.01,97.32-.02,194.64-.02,291.96,0,11.49,.1,22.98,0,34.47-.12,13.31-8.42,21.48-21.64,21.48-119.14,0-238.29,0-357.43-.01-7.39,0-10.68-2.36-11.05-7.9-.32-4.78,2.63-8.48,7.42-8.9,2.98-.27,6-.11,8.99-.11,98.33,0,196.66,0,294.99,0,18.14,0,36.28-.02,54.42-.03,6.77,0,6.89-.11,6.89-7.09,.01-101.81,.02-203.62,.03-305.42,0-5.82-.26-11.64,.03-17.44,.23-4.68-1.24-6.31-6.2-6.29-47.61,.18-95.21,.1-142.82,.09-38.83,0-77.66,0-116.5,0,0-.09,0-.18,0-.26Z"/>
  <path class="cls-1" d="M998.85,573.34c-3.41-8.72-6.64-17.06-9.94-25.36-7.19-18.09-14.52-36.12-21.57-54.27-1.42-3.66-3.24-4.92-7.3-4.91-33.15,.12-66.31-.13-99.46-.12-71.14,.03-142.28,.15-213.41,.21-8.65,0-17.29,.02-25.94-.11-6.05-.09-9.9-3.77-9.71-8.96,.18-5.01,3.98-8.18,9.95-8.17,85.14,.04,170.29,.12,255.43,.14,28.15,0,56.31-.16,84.46-.16,3.47,0,7.34-.27,10.3,1.12,3.32,1.56,7.16,4.31,8.46,7.49,11.82,28.77,23.03,57.78,34.64,86.63,4.15,10.31,.07,24.04-16.28,23.94-71.65-.41-143.31-.15-214.96-.14-51.13,0-102.26-.02-153.39-.04-1.17,0-2.33,0-3.5,0-7.34-.06-11.12-3.02-10.96-8.58,.16-5.5,4.01-8.43,11.29-8.42,45.16,.05,90.31,.2,135.47,.19,77.31-.03,154.62-.15,231.93-.24,1.29,0,2.58-.15,4.49-.26Z"/>
  <path class="cls-1" d="M294.38,325.84c8.45-2.42,15.57,1.16,21.48,6.21,17.35,14.81,13.27,39.02-7.74,48.2-1.26,.55-2.49,1.18-3.73,1.77,.07,.45,.14,.89,.2,1.34,7.16,.42,14.32,.85,21.49,1.27,32.35,1.87,64.3,6.1,95.02,16.99,12.13,4.3,23.73,9.77,33.33,18.68,5.65,5.25,9.62,11.46,10.71,19.24,.83,5.93-2.09,10.52-7.15,11.35-5.09,.84-9.02-2.5-10.08-8.57-1.03-5.85-3.49-8.97-11.76-14.22,1.82,6.47,3.34,12.07,4.96,17.63,6.65,22.84,13.34,45.66,20.01,68.49,4.15,14.18,8.34,28.34,12.41,42.54,.72,2.51,1.88,3.63,4.64,4.14,7.06,1.32,11.44,6.71,12.13,14,3.71,38.83-27.09,72.7-66.16,73.31-20.33,.32-38.08-5.44-52.51-19.99-13.07-13.18-19.44-29.16-19.02-47.77,.06-2.83-.15-5.71,.31-8.47,.92-5.55,6.2-10.11,12.02-11.34,1.4-.29,3.34-1.55,3.7-2.75,13.53-45.94,26.91-91.94,40.3-137.92,.32-1.1,.53-2.22,.94-4-34.27-10.62-69.25-14.4-105.39-14.95v19.59c.93,.41,1.8,.77,2.65,1.18,8.82,4.2,13.36,11.03,13.35,20.95-.04,73-.02,145.99-.02,218.99,0,2.33,0,4.66,0,7.84,3.27,0,6.35-.15,9.42,.03,9.26,.55,18.81,0,27.7,2.13,16.1,3.88,26.44,19.04,25.96,35.41-.2,6.86-4.41,11.39-11.21,11.39-36.83,.04-73.65-.07-110.48-.09-13.8,0-27.61,.1-41.41,.09-8.47,0-12.91-4.55-12.84-12.96,.17-18.96,16.26-35.45,35.29-35.92,9.12-.23,18.24-.04,28-.04,0-2.35,0-4.13,0-5.9,0-54.5-.01-108.99-.02-163.49,0-18.82,.11-37.64-.03-56.46-.08-10.45,4.29-17.81,13.82-22.24,1.21-.56,2.65-2.19,2.71-3.4,.29-5.45,.13-10.93,.13-17.03-36.96,.38-72.86,4.52-108.27,15.63,2.8,9.83,5.43,19.23,8.17,28.59,8.59,29.36,17.23,58.71,25.86,88.06,2.49,8.46,5.09,16.88,7.43,25.37,.77,2.77,2.27,3.96,5,4.6,6.92,1.64,11.15,6.79,11.72,13.73,2.33,28.35-11.71,54.52-37.57,66.61-38.27,17.88-87.97,1.65-98.68-45.9-1.51-6.72-1.45-13.9-1.38-20.85,.07-6.87,4.81-12.13,11.73-13.63,2.89-.63,4.09-2.04,4.85-4.68,8.12-28.11,16.3-56.2,24.51-84.29,4.01-13.73,8.12-27.43,12.16-41.15,.27-.93,.38-1.91,.68-3.5-5.6,3.02-8.84,6.93-9.8,12.72-.97,5.92-4.7,9.15-9.62,8.54-5.09-.63-8.21-5.13-7.52-11.07,1.32-11.2,8.31-18.67,16.99-24.71,17.86-12.43,38.44-17.91,59.29-22.57,25.94-5.8,52.35-7.46,78.78-8.92,1.75-.1,3.5-.22,5.64-1.54-1.28-.67-2.52-1.41-3.84-2-8.32-3.7-14.44-9.57-17.1-18.39-.75-2.48-.11-5.38-.1-8.09,9.32-9.28,18.64-18.56,27.96-27.84Zm75.58,251.74c-2.51,19.39,7.42,37.47,25.41,47.63,17.42,9.84,43.94,7.13,60.28-5.8,11.87-9.39,19.91-29.82,16.27-41.83h-101.96Zm-149.91,2.85H116.73c-.18,19.16,6.37,34.66,22.52,44.76,18.49,11.56,38.14,11.75,56.84,1.05,17.1-9.78,24.72-25.67,23.98-45.81Zm236.78-20.04c-11.78-40.11-23.37-79.61-34.97-119.11-.39,.07-.79,.14-1.18,.21-11.57,39.44-23.13,78.87-34.87,118.89h71.02Zm-252.94,2.06c-11.74-40.05-23.28-79.4-34.82-118.74l-1.3,.28c-11.51,39.34-23.03,78.67-34.67,118.46h70.79Zm99.16,106.88c.1-2.18,.28-4.12,.28-6.07,.02-72.78,.02-145.57,.02-218.35,0-6.61-.69-7.26-7.54-7.29-7.19-.03-7.51,.23-7.51,7.19-.01,73.1-.01,146.2,0,219.3,0,1.75,.21,3.49,.31,5.21h14.44Zm62.46,31.98c-3.69-10.09-10.2-14.46-21.04-14.48-32.59-.05-65.18-.05-97.78-.03-2.32,0-4.7,.1-6.93,.65-7.14,1.76-11.73,6.28-14.21,13.86h139.96Zm-69.53-359.15c-7.6,.02-13.53,5.18-13.45,11.72,.07,6.31,6,11.57,13.13,11.65,7.46,.09,14.03-5.65,13.84-12.09-.18-6.14-6.37-11.3-13.52-11.28Z"/>
  <path class="cls-1" d="M294.38,325.84c-9.32,9.28-18.64,18.56-27.96,27.84-2.73-6.69,1.24-11.78,4.6-16.58,5.07-7.25,12.74-10.72,21.34-12.11,.61-.1,1.34,.55,2.02,.85Z"/>
</svg>