<?xml version="1.0" encoding="UTF-8"?>
<svg id="Layer_1" data-name="Layer 1" xmlns="http://www.w3.org/2000/svg" viewBox="0 0 496.77 554.9">
  <defs>
    <style>
      .cls-1 {
        fill: #5c2e63;
      }
    </style>
  </defs>
  <path class="cls-1" d="M222.31,140.39c0-6.4-.05-11.99,.01-17.57,.07-6.77,3.05-9.78,9.73-9.84,6.33-.06,12.66,0,18.99,0,10.31,0,12.39,2.12,12.4,12.63,0,4.59,0,9.19,0,14.93,4.13-3.21,7.37-5.69,10.57-8.22,6.01-4.76,12.07-9.44,17.95-14.35,4.22-3.52,8.2-3.56,12.71-.54,28.44,19.01,46.21,45.24,50.21,79.21,2.23,18.92,1.15,38.24,1.29,57.38,.04,5.12-3.65,7.96-9.48,7.97-15.65,.02-31.29-.12-46.94-.11-52.65,.03-105.29,.1-157.94,.15-1.33,0-2.68,.08-3.99-.08-4.33-.54-7.56-2.99-7.48-7.33,.46-24.07-2.8-48.35,3.78-72.09,7.57-27.29,23.33-48.64,46.71-64.5,4.47-3.03,8.5-2.93,12.76,.47,7.81,6.23,15.77,12.27,23.68,18.37,1.39,1.07,2.87,2.03,5.02,3.54Zm67.87,104.52c0-2.03,0-3.81,0-5.59,0-8-.08-16,.02-24,.07-5.56,3.53-9.21,8.4-9.17,4.68,.04,8.13,3.51,8.39,8.81,.2,3.99,.05,8,.06,12,0,5.94,0,11.88,0,17.97h32.44c-.79-19.24,1.96-38.27-3.15-56.93-6.12-22.32-18.43-40.34-37.29-53.98-1.55,1.17-2.9,2.14-4.19,3.17-10.29,8.21-20.56,16.43-30.85,24.64-1.04,.83-2.01,2.06-3.2,2.34-3.06,.74-6.95,2.39-9.16,1.18-2.46-1.34-4.6-5.34-4.81-8.33-.62-8.89-.22-17.85-.22-26.92h-7.34c0,8.57-.11,16.86,.04,25.14,.08,4.25-.45,8.23-4.59,10.27-4.3,2.13-7.92,.15-11.41-2.61-11.11-8.77-22.38-17.35-33.53-26.08-2.04-1.6-3.58-2.3-6-.32-19.49,15.97-32.38,36.07-35.39,61.15-1.84,15.29-.9,30.91-1.19,46.38,0,.25,.36,.51,.58,.81h30.74c0-2.1,0-3.89,0-5.69,0-8-.1-16,.06-24,.1-5.44,3.85-9.15,8.65-9.02,4.64,.13,8,3.72,8.09,8.98,.12,6.5,.04,13,.04,19.5,0,3.41,0,6.83,0,10.28h94.79Z"/>
  <path class="cls-1" d="M239.47,296.87c0-4.82-.06-9.77,.03-14.71,.04-2.15,.08-4.39,.7-6.42,1.3-4.25,4.55-6.15,8.85-5.57,4.55,.61,7.13,3.56,7.27,8.15,.18,6.14,.05,12.29,.05,19.24,8.88,0,17.48,0,26.08,0,32.93-.03,65.86-.06,98.79-.08,14.32,0,28.63,0,42.95,.03,8.8,.02,11.35,2.56,11.35,11.26,0,16.99,.05,33.99-.08,50.98-.04,5.18-3.68,8.61-8.44,8.53-4.57-.07-7.8-3.35-8.19-8.37-.09-1.16-.03-2.33-.03-3.5,0-12,0-23.99,0-35.99,0-1.8,0-3.6,0-5.77h-162.44c0,1.74,0,3.49,0,5.23,0,12.83,.03,25.66,0,38.49-.02,6.28-2.92,9.7-8.14,9.82-5.44,.13-8.66-3.39-8.7-9.85-.08-12.66-.02-25.33-.02-37.99,0-1.8,0-3.61,0-5.75H77.41c-.08,1.91-.23,3.69-.23,5.46-.01,12.83,.04,25.66-.01,38.49-.03,6.08-3.22,9.68-8.36,9.7-5.2,.02-8.45-3.53-8.47-9.59-.06-17.16-.06-34.32,0-51.48,.02-6.39,3.16-9.68,9.49-9.7,25.97-.05,51.94,.04,77.92,.05,29.92,.02,59.85,.01,89.77,0,.46,0,.92-.3,1.95-.66Z"/>
  <path class="cls-1" d="M244.52,554.88c-19.49,0-38.98,0-58.46-.01-8.13,0-11.16-2.7-10.88-10.64,.47-13.1,.59-26.29,2.35-39.25,1.43-10.5,7.2-19.63,14.14-27.69,8.79-10.21,20.19-14.92,33.53-15.04,12.82-.12,25.65-.08,38.48-.13,14.43-.06,26.18,5.56,35.17,16.81,9.79,12.24,14.83,26.3,15.24,41.94,.21,7.99,.08,15.99,.02,23.98-.05,6.93-3.15,10.02-10.12,10.03-19.82,.04-39.64,.01-59.46,0Zm52.54-17.01c0-7.26,.47-14.08-.11-20.82-.94-10.88-5.12-20.61-12.35-28.89-5.2-5.96-11.78-9.17-19.73-9.19-13.65-.03-27.31,.02-40.96,.16-6.75,.07-12.82,2.32-17.58,7.17-14.27,14.51-15.76,32.47-13.96,51.37h10.97c0-4.48-.06-8.62,.01-12.75,.1-5.92,3.46-9.77,8.4-9.75,4.99,.02,8.32,3.81,8.43,9.74,.08,4.26,.01,8.51,.01,12.74h48.22c0-4.52-.07-8.67,.02-12.82,.12-5.92,3.54-9.73,8.52-9.65,5.02,.08,8.24,3.85,8.3,9.83,.04,4.25,0,8.5,0,12.88h11.8Z"/>
  <path class="cls-1" d="M427.14,554.88c-19.49,0-38.97,.02-58.46,0-8.19-.01-11.28-2.94-11.03-11.14,.36-12.12-.2-24.47,1.95-36.29,3.08-16.87,11.27-31.62,27.18-39.83,6.26-3.23,13.9-4.68,21.02-5.15,12.61-.83,25.3-.25,37.96-.36,15.65-.13,28,6.21,37.22,18.75,8.19,11.15,12.98,23.61,13.52,37.48,.35,8.98,.3,17.98,.19,26.98-.08,6.62-3.24,9.54-10.09,9.55-19.82,.05-39.64,.02-59.46,.02Zm24-17.15c0-4.24-.02-8.19,0-12.15,.04-6.44,3.13-10.34,8.2-10.39,5.18-.05,8.47,3.74,8.61,10.1,.09,4.1,.02,8.21,.02,12.48h11.81c.24-11.71,1.39-23.32-3.52-34.1-2.65-5.82-6.14-11.42-10.13-16.42-4.56-5.71-11.17-8.25-18.54-8.25-13.65-.01-27.31-.03-40.96,.16-7.87,.11-14.52,3.22-19.7,9.25-12.39,14.39-13.63,31.45-12.12,49.39h11.27c0-4.34-.05-8.46,.01-12.58,.08-6.09,3.14-9.86,8.04-10.03,5.06-.17,8.59,3.83,8.7,10,.07,4.11,.01,8.22,.01,12.54h48.3Z"/>
  <path class="cls-1" d="M69.28,554.87c-19.49,0-38.97,.02-58.46,0-8.05,0-11.13-2.78-10.8-10.76,.55-13.42,.28-27.07,2.73-40.18,2.61-13.98,10.37-25.9,22.41-34.31,7.31-5.11,15.62-7.31,24.49-7.36,12.49-.08,24.98,.05,37.47-.18,16.9-.31,29.83,6.74,39.34,20.49,8.19,11.84,12.29,25,12.52,39.36,.12,7.49,.04,14.99,0,22.48-.04,7.27-3.06,10.42-10.26,10.44-19.82,.05-39.64,.02-59.46,.02Zm52.89-17.02c0-5.55,.08-10.67-.02-15.79-.24-12.4-4.17-23.48-12.03-33.12-5.26-6.45-12.04-9.91-20.37-9.95-13.65-.06-27.31-.03-40.96,.17-7.29,.11-13.65,2.78-18.65,8.23-13.31,14.48-14.58,32.01-13.07,50.35h11.16c0-4.24-.03-8.2,0-12.15,.06-6.41,3.14-10.27,8.26-10.38,5.35-.12,8.55,3.77,8.63,10.57,.05,3.94,0,7.88,0,11.91h48.18c0-4.47-.06-8.6,.01-12.73,.1-5.86,3.48-9.74,8.41-9.79,4.91-.04,8.34,3.9,8.41,9.77,.05,4.26,0,8.51,0,12.92h12.03Z"/>
  <path class="cls-1" d="M241.71,109.16c-30.32,0-54.6-24.35-54.54-54.69C187.23,24.2,211.63-.04,241.99,0c30.15,.04,54.4,24.59,54.32,55-.08,29.93-24.5,54.16-54.59,54.16Zm-.17-16.82c20.95,.08,37.79-16.6,37.92-37.55,.13-20.89-16.67-37.85-37.55-37.91-20.98-.06-37.8,16.6-37.9,37.54-.1,20.97,16.6,37.85,37.52,37.93Z"/>
  <path class="cls-1" d="M243.45,452.02c-19.62-.11-35.26-16.08-35.13-35.88,.13-19.21,16.34-35.1,35.64-34.93,19.52,.17,35.4,16.4,35.2,35.96-.2,19.28-16.26,34.96-35.72,34.85Zm.09-16.86c10.09,.11,18.55-8.06,18.74-18.09,.19-10.26-8.17-18.88-18.41-18.99-10.08-.1-18.49,8.08-18.68,18.16-.2,10.42,7.94,18.8,18.35,18.92Z"/>
  <path class="cls-1" d="M68.11,452.02c-19.43-.17-34.98-16.07-34.89-35.68,.09-19.39,16.15-35.26,35.53-35.13,19.36,.13,35.36,16.26,35.25,35.51-.12,19.7-16.16,35.48-35.89,35.3Zm.34-53.94c-10.27,.03-18.5,8.51-18.37,18.94,.13,10.15,8.39,18.21,18.59,18.14,10.14-.07,18.36-8.23,18.49-18.36,.13-10.12-8.5-18.75-18.72-18.72Z"/>
  <path class="cls-1" d="M391.03,416.73c-.22-19.31,15.58-35.36,34.96-35.51,19.61-.15,35.54,15.63,35.69,35.36,.14,19.37-15.6,35.29-35.04,35.43-19.79,.14-35.39-15.3-35.61-35.28Zm35.31,18.41c10.23-.07,18.47-8.17,18.57-18.27,.1-10.23-8.39-18.8-18.61-18.79-10.28,.01-18.6,8.5-18.49,18.85,.11,10.16,8.37,18.27,18.53,18.2Z"/>
</svg>