<?xml version="1.0" encoding="UTF-8"?>
<svg id="SvgjsSvg1096" xmlns="http://www.w3.org/2000/svg" viewBox="0 0 470.19 560.09">
  <defs>
    <style>
      .cls-1 {
        fill: #5c2e63;
      }
    </style>
  </defs>
  <path class="cls-1" d="M297.47,218.45c0,1.95,0,3.89,0,5.84,0,66.99-.51,133.99,.24,200.98,.35,31.49-23.37,57.99-54.91,58.58-.58,.01-1.15,.26-2.9,.69,2.53,1.28,4.04,2.15,5.62,2.83,20.94,9.02,42.32,17.15,62.7,27.3,15.11,7.53,29.04,17.49,43.26,26.73,5.8,3.77,6.88,10,3.51,14.64-3.58,4.92-9.7,5.47-15.35,.98-24.74-19.65-53.69-31.09-82.37-43.32-19.55-8.34-38.22-18.74-57.35-28.06-2.27-1.1-5.02-1.7-7.55-1.71-34.83-.11-69.66,.06-104.49-.12-25.64-.14-47.38-16.93-53.69-41.36-1.27-4.94-1.67-10.19-1.81-15.31-.28-9.99-.18-20-.05-29.99,.04-2.84-1.18-4.25-3.32-6.01-5.84-4.83-12.37-9.43-16.57-15.53-12.7-18.42-5.02-40.57,15.89-48.34,1.41-.52,2.56-1.72,3.83-2.6-1.17-1.23-2.13-2.81-3.53-3.62-11.73-6.82-20.46-15.95-23.23-29.72-2.91-14.46,2.83-26.52,15.86-33.4,2.64-1.39,5.53-2.3,8.24-3.57,.96-.45,1.73-1.29,2.58-1.96-.77-.96-1.37-2.15-2.32-2.85-4.54-3.35-9.53-6.18-13.71-9.92-7.41-6.64-12.17-15.01-13.33-25.04-1.98-17.09,6.89-29.36,24.73-34.79,1.7-.52,3.15-1.85,4.71-2.8-1.39-1.25-2.59-2.84-4.19-3.7-8.64-4.63-16.39-10.25-21.81-18.6-13.73-21.19-3.54-46.78,21.04-52.17,4.3-.94,5.22-2.63,5.16-6.6-.21-13.16-.14-26.33-.07-39.49C32.48,24.01,56.56,.06,89.06,.03c50.33-.04,100.65-.04,150.98,0,33.76,.03,57.39,23.82,57.43,57.71,0,2.63,0,5.27,0,8.3,1.68-.24,2.78-.35,3.87-.55,7.78-1.42,15.04-.01,21.29,4.79,4.07,3.13,8.03,6.58,11.32,10.5,18.64,22.2,36.9,44.71,55.61,66.86,25.46,30.15,38.24,65.46,43.76,103.99,4.7,32.81,4.93,65.73,3.61,98.75-.77,19.15,1.42,37.87,9.36,55.66,4.53,10.15,11.89,17.98,19.5,25.72,5.29,5.37,5.82,11.02,1.58,15.36-4.28,4.39-10.1,3.57-15.78-1.59-25.87-23.52-34.17-53.95-34.39-87.46-.14-21.32,.69-42.65,.25-63.96-.44-21.52-3.62-42.77-8.27-63.82-6.08-27.48-19.11-51.3-37.01-72.74-17.08-20.46-34.01-41.05-51.09-61.52-2.55-3.06-5.34-6-8.39-8.53-5.57-4.62-10.05-3.43-12.88,3.34-3.36,8.03-2.63,16.36-.93,24.59,4.63,22.42,15.53,42.05,27.61,61.1,9.65,15.23,16.68,31.45,19.31,49.39,2.03,13.89,1.29,27.58-3.4,40.91-2.43,6.92-7.43,9.85-13.32,7.88-5.46-1.83-7.58-7.35-5.4-14.06,.1-.32,.19-.64,.32-.95,4.07-9.69,3.7-17.83-6-24.64-6.99-4.92-12.85-11.45-19.22-17.27-.44,.22-.87,.44-1.31,.66Zm-19.68,23.78c0-61.48,.02-122.96-.01-184.45-.01-23.13-15-38.08-38.18-38.09-49.65-.03-99.3-.02-148.95-.01-23.78,0-38.67,14.86-38.67,38.65-.01,122.46-.01,244.93,0,367.39,0,23.31,15.13,38.46,38.46,38.48,49.65,.04,99.3,.04,148.95,0,23.34-.02,38.39-15.15,38.39-38.51,.01-61.15,0-122.3,0-183.45Zm42.82-31.51c.58-.39,1.16-.79,1.73-1.18-7.81-13.65-15.61-27.3-23.42-40.95l-1.4,.42c0,6.71-.05,13.43,.06,20.14,.01,.85,.69,1.89,1.37,2.5,7.18,6.4,14.43,12.72,21.66,19.07ZM31.73,151.73v-29.79c-7.66,1.63-10.93,4.81-11.61,10.89-.87,7.77,3.79,15.43,11.61,18.9Zm.28,47.65c-5.54,1.5-9.12,3.97-9.74,9.37-.77,6.74,3.61,14.71,9.74,17.51v-26.88Zm-.1,75.6c-4.33,1.62-7.15,4.01-7.46,8.25-.45,6.14,2.17,10.99,7.46,15.84v-24.09Zm.36,72.69c-8.01,4.58-7.87,14.65-.28,19.95,.11-1.12,.27-2.04,.27-2.96,.02-5.4,.01-10.81,.01-16.99Z"/>
  <path class="cls-1" d="M309.6,328.52c1.44-8.15,2.52-16.39,4.44-24.42,1.45-6.05,6.85-8.81,12.23-7.22,5.52,1.63,8.29,6.62,6.61,12.6-5.46,19.39-2.42,37.88,5.68,55.85,3.75,8.33,2.78,13.97-3.13,16.65-6.03,2.73-10.93,0-14.79-8.4-6.55-14.24-10.2-29.15-11.03-45.05Z"/>
  <path class="cls-1" d="M260.51,221.11c0,12.83,.12,25.66-.03,38.49-.29,24.98-9.76,45.2-30.98,59.33-18.02,12-35.95,24.13-53.92,36.21-7.16,4.81-14.28,4.79-21.43-.03-18.1-12.19-36.18-24.39-54.32-36.52-19.99-13.36-29.89-32.45-30.37-56.06-.59-28.98-.29-57.98-.15-86.97,.05-10.73,7.58-17.54,18.34-17.35,.5,0,1.01-.04,1.5,.06,22.3,4.53,38.75-7,54.61-20,3.09-2.53,5.82-5.48,8.79-8.15,7.69-6.93,17.19-7.07,24.69,.1,9.44,9.02,19.38,17.24,31.06,23.29,8.52,4.41,17.23,6.99,26.91,5.12,2.11-.41,4.31-.35,6.48-.41,11.28-.34,18.71,6.65,18.79,17.91,.1,15,.03,29.99,.02,44.99Zm-171.02-42.78c-.21,.73-.47,1.2-.47,1.67,.06,28.65-.39,57.32,.46,85.95,.42,14.23,7.09,26.32,19.16,34.61,17.71,12.16,35.55,24.13,53.47,35.97,1.33,.88,4.24,.89,5.57,.02,16.83-11.07,33.41-22.53,50.26-33.58,16.12-10.58,22.94-25.68,22.9-44.49-.06-24.99,0-49.98-.01-74.97,0-1.75-.21-3.49-.35-5.62-32.3,5.26-54.02-13.28-75.92-32.03-10.71,10.95-22.82,19.65-36.38,26.33-10.54,5.18-21.46,8.07-33.32,6.19-1.75-.28-3.58-.04-5.35-.04Z"/>
  <path class="cls-1" d="M164.82,427.33c9.83,0,19.66-.04,29.5,.02,7.11,.04,11.26,3.77,11.23,9.9-.03,6.09-4.17,9.71-11.33,9.72-19.66,.03-39.33,.04-58.99,0-6.81-.01-10.9-3.65-11-9.56-.1-6.09,4.11-10.01,11.1-10.07,9.83-.08,19.66-.02,29.5-.02Z"/>
  <path class="cls-1" d="M164.69,56.23c-5.65,0-11.3,.13-16.95-.04-5.92-.17-9.88-4.17-9.93-9.63-.04-5.22,3.72-9.59,9.33-9.72,11.79-.27,23.59-.24,35.38,.04,5.65,.13,9.47,4.42,9.45,9.59-.02,5.47-3.99,9.55-9.84,9.72-5.81,.17-11.63,.04-17.44,.04Z"/>
  <path class="cls-1" d="M98.33,229.26c0-10.66-.06-21.33,.02-31.99,.05-7.27,4.26-11.97,11.16-10.75,17.87,3.17,30.67-5.95,43.13-16.41,1.4-1.18,2.67-2.51,4.01-3.76,5.93-5.47,10.39-5.22,16.6,.02,6.21,5.24,12.64,10.29,19.39,14.8,7.4,4.95,15.61,6.85,24.73,5.51,10.22-1.5,14.06,2.34,14.06,12.69,0,18.99-.02,37.99,0,56.98,.02,17.75-6.62,31.97-21.72,41.93-12.79,8.43-25.48,17.02-38.16,25.61-4.56,3.09-8.94,2.99-13.45-.06-13.24-8.96-26.57-17.79-39.77-26.81-12.91-8.82-19.22-21.43-19.86-36.79-.43-10.31-.08-20.65-.08-30.98-.02,0-.05,0-.07,0Zm19.96-22.14c0,18.67-.35,36.81,.16,54.93,.21,7.56,4.14,13.97,10.64,18.38,10.89,7.39,21.84,14.68,32.63,22.21,2.56,1.79,4.3,1.36,6.62-.23,10.01-6.9,20.04-13.77,30.24-20.39,9.27-6.01,13.24-14.54,13.2-25.32-.05-12.66,0-25.33,0-37.99,0-3.79,0-7.57,0-11.6-18.92-.53-33.09-10.42-46.93-21.07-13.83,10.8-27.96,20.42-46.56,21.08Z"/>
</svg>