<?xml version="1.0" encoding="UTF-8"?>
<svg id="Layer_1" data-name="Layer 1" xmlns="http://www.w3.org/2000/svg" viewBox="0 0 200 200">
  <defs>
    <style>
      .cls-1 {
        fill: #fbb247;
      }
    </style>
  </defs>
  <path class="cls-1" d="M88.38,169.97h-3.73c-24.16,0-48.32,0-72.48,0-8.1,0-12.27-3.91-12.27-11.52,0-35.85,0-71.7,0-107.55,0-6.98,4.41-11.11,11.89-11.11,32.96,0,65.92,0,98.88,0h3.91c.06-1.31,.16-2.41,.16-3.51,.01-9.31,0-18.63,.02-27.94,.02-5.89,3.03-8.68,9.35-8.68,22.19,0,44.38,0,66.58,0,6.06,0,9.19,2.88,9.19,8.58,.02,50.26,.02,100.52,0,150.78,0,6.89-4.42,10.95-11.77,10.95-24.35,.01-48.69,0-73.04,0h-3.7c1.37,5.74,2.61,11.13,4.03,16.48,.13,.49,1.41,.99,2.17,1.01,3.65,.11,7.3,.09,10.95,.03,2.49-.04,3.6,.98,3.47,3.35-.11,2.02-.05,4.04-.02,6.06,.03,1.87-.93,2.75-2.91,2.73-2.15-.01-4.31,0-6.46,0-16.85,0-33.71,0-50.56,0-3.97,0-4.25-.27-4.25-4.08,0-1.67,.07-3.34-.02-5.01-.11-2.15,.99-3.06,3.19-3.05,3.75,.02,7.49,.06,11.23-.05,.76-.02,2.03-.53,2.16-1.03,1.41-5.35,2.64-10.73,4.01-16.46Zm26.38-117.41c-1.29,0-2.12,0-2.95,0-29.78,0-59.55,0-89.33,0-6.33,0-8.39,1.97-8.39,7.91,0,29.43,0,58.87,0,88.3,0,6.75,2.04,8.55,9.19,8.54,22.27-.06,44.54-.06,66.81-.06,29.47,0,58.94,.01,88.4,0,4.75,0,7.16-2.35,7.18-6.9,.03-4.83,0-9.67,0-14.5,0-3.67,0-7.34,0-11.35-1.4,0-2.49,0-3.58,0-19.19,0-38.39,0-57.58,0-6.81,0-9.75-2.75-9.75-9.14,0-19.59,0-39.19,0-58.78,0-1.22,0-2.43,0-4.02Zm-.19-8.53c-3.13,0-6.1,0-9.07,0-31.18,0-62.35,0-93.53,0-4.95,0-7.53,2.23-7.53,6.57-.01,36.2-.02,72.39,0,108.59,0,4.22,2.48,6.51,6.98,6.52,58.98,.01,117.96,.01,176.94,0,4.36,0,6.94-2.25,6.97-6.28,.07-11.42,.03-22.84,.02-34.26,0-.33-.14-.66-.24-1.1-1.62,.22-3.15,.43-4.88,.66v2.99c0,7.73,.04,15.46-.01,23.19-.04,6.29-4.64,10.55-11.36,10.55-52.71,.01-105.42,.01-158.13,0-6.55,0-11.06-4.29-11.18-10.47-.01-.53,0-1.05,0-1.58,0-29.96,0-59.92,0-89.87,0-7.01,4.32-11.11,11.82-11.23,.94-.02,1.87,0,2.81,0,29.02,0,58.05,0,87.07,0,1.09,0,2.17,0,3.33,0v-4.27Zm4.76,18.11c0,17.57,0,35.14,0,52.71,0,4.68,.74,5.38,5.64,5.38,21.44,0,42.88,0,64.31,0,5.33,0,6.08-.72,6.08-5.83,0-35.05,0-70.1,0-105.15,0-4.55-.88-5.38-5.69-5.38-21.53,0-43.06,0-64.59,0-4.95,0-5.75,.74-5.75,5.3,0,17.66,0,35.31,0,52.97Zm-8.54,125.22c-1.29-5.57-2.45-10.81-3.78-16-.15-.57-1.23-1.3-1.91-1.32-3.46-.14-6.93-.12-10.39-.02-.66,.02-1.74,.57-1.86,1.05-1.36,5.34-2.56,10.72-3.86,16.29h21.8Zm16.57,4.6h-54.81v3.23h54.81v-3.23Z"/>
  <path class="cls-1" d="M96.04,76.82c-4.14,0-7.65,0-11.16,0-1.65,0-3.44,.04-3.38-2.13,.06-2.09,1.84-2.11,3.48-2.12,5.14,0,10.29-.09,15.42,.05,1.14,.03,2.82,.57,3.22,1.34,.36,.7-.38,2.32-1.16,3.06-12.36,11.72-24.81,23.36-37.23,35.02-.33,.31-.64,.82-1.01,.87-1.14,.16-2.31,.15-3.47,.2,.13-1.08-.18-2.55,.46-3.19,4.49-4.46,9.17-8.76,13.8-13.1,6.34-5.96,12.69-11.9,19.03-17.86,.56-.52,1.04-1.12,2-2.15Z"/>
  <path class="cls-1" d="M78.21,120.44c4.39,0,7.92,.01,11.46,0,1.62,0,3.18,.2,3.2,2.1,.01,1.88-1.5,2.17-3.15,2.16-5.43-.02-10.86,.07-16.29-.07-1.01-.03-2.41-.72-2.84-1.49-.32-.58,.35-2.02,1.03-2.66,12.66-11.97,25.39-23.88,38.1-35.81,1.18-1.11,2.5-1.83,3.86-.45,1.36,1.39,.35,2.57-.78,3.63-10.72,10.06-21.45,20.12-32.16,30.19-.64,.6-1.24,1.24-2.42,2.41Z"/>
  <path class="cls-1" d="M33.93,55.61c1.97,0,3.97-.21,5.88,.09,.93,.14,1.69,1.22,2.52,1.88-.84,.74-1.62,2.06-2.52,2.13-3.25,.26-6.54,.19-9.81,.08-2.16-.07-3.07,.63-2.97,2.73,.13,2.89,0,5.79,.04,8.69,.01,1.49-.44,2.73-2.23,2.75-1.78,.02-2.3-1.19-2.29-2.7,.02-3.25-.05-6.5,.01-9.75,.07-3.73,2.35-5.82,6.33-5.9,1.68-.03,3.37,0,5.05,0h0Z"/>
  <path class="cls-1" d="M125.62,60.84c0-13.17,0-26.35,0-39.52,0-8.27,3.47-11.55,12.18-11.55,16,0,32.01,0,48.01,0,7.57,0,11.46,3.59,11.46,10.65,.02,27.05,.02,54.1,0,81.15,0,7.15-3.81,10.71-11.36,10.71-16.47,0-32.94,.01-49.42,0-6.89,0-10.82-3.61-10.85-10.08-.05-13.79-.02-27.58-.02-41.36h-.01Zm4.58,.31h.02c0,13.61-.02,27.22,0,40.83,0,4.36,1.84,6.04,6.47,6.04,16.38,0,32.75,0,49.13,0,5.05,0,6.92-1.74,6.93-6.49,.01-26.96,.02-53.92,0-80.88,0-4.9-1.89-6.62-7.12-6.62-16.1,0-32.19,0-48.29,0-5.44,0-7.14,1.62-7.15,6.82,0,13.44,0,26.87,0,40.31Z"/>
  <path class="cls-1" d="M161.61,116.87c-1.96,0-3.94,.16-5.87-.08-.84-.1-1.56-1.02-2.34-1.57,.72-.52,1.42-1.45,2.17-1.48,3.91-.15,7.83-.15,11.74,0,.76,.03,1.48,.96,2.22,1.47-.78,.55-1.51,1.46-2.35,1.58-1.83,.24-3.72,.07-5.58,.07Z"/>
  <path class="cls-1" d="M184.08,22.61c-2.26,0-4.15,.21-5.94-.08-.95-.15-1.74-1.17-2.61-1.8,.82-.77,1.57-2.12,2.47-2.21,2.67-.29,5.42-.29,8.08,.02,.92,.1,2.3,1.37,2.39,2.21,.3,2.86,.3,5.78,.02,8.64-.09,.88-1.43,1.65-2.19,2.47-.74-.84-1.98-1.61-2.12-2.53-.32-2.04-.1-4.16-.1-6.72Z"/>
  <path class="cls-1" d="M179.65,59.1c-1.11,.64-2.33,1.9-3.29,1.75-1.02-.17-2.34-1.62-2.47-2.63-.09-.68,1.63-2.2,2.57-2.22,1.06-.02,2.16,1.2,3.24,1.89-.01,.41-.03,.81-.04,1.22Z"/>
  <path class="cls-1" d="M162.03,55.42c.72,1.01,2.02,2.03,2,3.02-.02,.87-1.64,2.47-2.36,2.38-1.09-.14-2.63-1.36-2.81-2.31-.17-.89,1.19-2.04,1.88-3.07,.43,0,.87-.02,1.3-.02Z"/>
  <path class="cls-1" d="M149.59,59.09c-1.03,.64-2,1.66-3.11,1.82-1.75,.26-3.02-.98-2.65-2.54,.23-.97,1.65-2.32,2.58-2.36,1.05-.04,2.15,1.21,3.23,1.89-.02,.39-.04,.79-.05,1.18Z"/>
</svg>