<?xml version="1.0" encoding="UTF-8"?>
<svg id="Layer_1" data-name="Layer 1" xmlns="http://www.w3.org/2000/svg" viewBox="0 0 199.99 200">
  <defs>
    <style>
      .cls-1 {
        font-family: MyriadPro-Regular, 'Myriad Pro';
        font-size: 52px;
      }

      .cls-1, .cls-2 {
        fill: #fbb247;
      }
    </style>
  </defs>
  <path class="cls-2" d="M19.72,0H180.27c.74,.38,1.46,.91,2.23,1.1,11.02,2.77,17.46,11.77,17.47,24.81,.03,49.55,.03,99.1,0,148.65,0,12.36-6.67,21.69-17.06,24.28-.91,.23-1.76,.76-2.64,1.16H19.72c-.47-.32-.91-.78-1.42-.93-12.95-3.67-18.3-11.5-18.3-26.91V27.78C0,12.43,5.49,4.42,18.31,.93c.51-.14,.94-.61,1.41-.93ZM100.19,59.57v.02H10.02c-2.37,0-4.59-.51-4.58,3.91,.11,37.02,0,74.04,.11,111.06,.02,8.25,4.44,15.14,11.02,17.36,2.86,.96,5.98,1.17,8.98,1.18,49.63,.07,99.27,.05,148.9,.04,1.51,0,3.03-.06,4.54-.27,10.05-1.36,15.49-8.45,15.5-20.27,.02-35.73-.06-71.47,.1-107.2,.02-4.65-1.08-5.94-5.05-5.92-29.78,.19-59.56,.1-89.34,.1h0Zm-.47-6.48h38.04c17.36,0,34.73-.09,52.09,.07,3.56,.03,4.89-1.16,4.72-5.48-.28-7.23,0-14.48-.1-21.72-.12-8.66-4.61-15.94-11.42-18.02-2.88-.88-5.99-1.05-9-1.06-49.34-.06-98.67-.05-148.01-.03-1.92,0-3.86,.1-5.77,.37-9.19,1.3-14.72,8.62-14.77,19.54-.03,6.76,.28,13.54-.1,20.26-.29,5.12,1.43,6.16,5.43,6.14,29.63-.16,59.26-.09,88.89-.09v.02Z"/>
  <path class="cls-2" d="M104.35,76.07c2.18,1,3.8,1.74,5.95,2.73-2.23,6.51-4.34,12.69-6.46,18.88-2.09,6.09-4.18,12.18-6.28,18.27-1.41,4.07-4.02,5-7.83,2.79,4.8-14,9.61-28.04,14.62-42.66h0Z"/>
  <path class="cls-2" d="M75.18,98.97c3.95,3.56,7.3,6.58,10.95,9.87-1.26,1.93-2.38,3.66-3.8,5.85-5.1-4.44-10.02-8.49-14.69-12.89-2.25-2.11-1.48-4.63,.6-6.48,4.49-3.98,9.03-7.86,13.99-12.16,1.23,1.81,2.37,3.48,3.85,5.66-3.6,3.35-6.98,6.5-10.91,10.15h.01Z"/>
  <path class="cls-2" d="M117.67,114.7c-1.47-2.22-2.54-3.84-3.84-5.79,3.66-3.32,7.08-6.43,10.93-9.92-3.76-3.53-7.13-6.7-10.79-10.14,1.25-1.96,2.29-3.59,3.71-5.81,5.07,4.47,10.08,8.62,14.72,13.27,.77,.77,.59,4.66-.3,5.55-4.48,4.46-9.34,8.4-14.43,12.85h0Z"/>
  <path class="cls-2" d="M13.99,30.02c0-6.48,4.41-11.47,10.02-11.35,5.49,.11,9.68,4.94,9.73,11.22,.05,6.65-4.02,11.38-9.83,11.42-5.8,.04-9.91-4.65-9.91-11.29h0Zm14.7,1.33c.03-.7,.07-1.41,.1-2.11-1.62-1.32-3.24-3.66-4.86-3.64-1.45,.01-2.88,2.6-4.32,4.06,1.33,1.75,2.49,4.63,4.03,4.94,1.48,.3,3.35-2.06,5.05-3.24h0Z"/>
  <path class="cls-2" d="M88.35,41.4c-5.97-.02-9.89-4.59-9.8-11.45,.08-6.17,4.49-11.04,9.96-11.01,5.64,.03,9.91,5.13,9.81,11.69-.1,6.46-4.11,10.79-9.97,10.77Zm4.98-10.16c-.02-.75-.04-1.49-.06-2.24-1.69-1.11-3.45-3.19-5.05-3.03-1.44,.14-2.71,2.74-4.06,4.25,1.44,1.59,2.77,4.26,4.35,4.47,1.47,.2,3.21-2.2,4.82-3.45Z"/>
  <path class="cls-2" d="M56.25,41.35c-5.87,.04-9.97-4.54-9.99-11.17-.02-6.39,4.44-11.52,9.97-11.46,5.38,.06,9.7,5.01,9.78,11.19,.09,6.68-3.94,11.4-9.76,11.44Zm.6-16.7c-.6,.03-1.2,.05-1.81,.08-1.06,1.92-3.03,3.93-2.89,5.73,.12,1.63,2.71,4.38,3.91,4.18,1.6-.26,3.87-2.78,4.05-4.57,.16-1.64-2.08-3.6-3.26-5.42Z"/>
  <text class="cls-1" transform="translate(54.47 174.28)"><tspan x="0" y="0">PHP</tspan></text>
</svg>