<?xml version="1.0" encoding="UTF-8"?>
<svg id="Layer_1" data-name="Layer 1" xmlns="http://www.w3.org/2000/svg" viewBox="0 0 200 200">
  <defs>
    <style>
      .cls-1 {
        fill: #fbb247;
      }
    </style>
  </defs>
  <path class="cls-1" d="M120.55,83.21c-2.02,2.39-4.16,5.38-6.8,7.91-2.49,2.39-5.45,4.36-8.31,6.37-.94,.66-1.48,1.24-1.41,2.39,.1,1.58,.02,3.18,.02,5.03-2.5-.11-4.92,.99-6.74-1.79-1.22-1.87-3.55-2.52-5.9-2.53-5.32-.03-10.64-.06-15.97-.01-5.15,.05-8.38,3.08-8.53,7.96-.05,1.6-.04,3.2,.08,4.79,.29,3.92,3.4,6.87,7.54,6.94,5.81,.11,11.62,.04,17.44,.02,2.23,0,4.36-.8,5.44-2.56,1.64-2.67,3.94-2.15,6.45-1.93,.12,.67,.23,1.31,.4,2.27,1.78,0,3.57-.01,5.37,0,6.3,.05,12.61-.03,18.9,.19,4.7,.17,9.19,1.4,13.83,3.54-8.97,3.78-15.99,9.28-21.12,16.86-5.11,7.54-7.39,15.86-7.28,24.88H0c-.36-6.58-.09-12.96,2.36-19.13,6.42-16.12,21.65-26.23,39.78-26.33,5.67-.03,11.34,0,17.02,0,1.04,0,2.08,0,3.33,0,.05-.9,.12-1.6,.12-2.3,0-5.26,.05-10.53-.05-15.79-.01-.78-.47-1.88-1.11-2.26-6.24-3.72-11.26-8.52-15.01-14.54-.14-.22-.35-.4-.69-.8-2.1,2.09-4.82,1.85-7.47,1.85-4.13,0-8.28-.24-12.39,.03-8.18,.53-12.9-4.78-13.48-10.91-.67-7.06-1.02-14.23,.66-21.28,.29-1.22,.72-2.44,1.28-3.58,2.22-4.52,5.58-7.3,11.25-7.07,5.17,.22,4.49,.25,5.37-3.98,3.02-14.42,11.8-24.94,25.54-31.05,19.16-8.52,38.61-8.26,57.14,1.87,12.55,6.86,20.17,17.43,22.29,31.27,.2,1.3,.82,1.92,2.16,1.93,1.19,.01,2.39,.08,3.57,0,3.92-.29,6.71,1.48,8.91,4.33,2.44,3.16,3.59,6.83,3.78,10.64,.26,5.18,.41,10.41-.02,15.57-.22,2.66-1.42,5.42-2.87,7.76-1.78,2.88-4.84,4.34-8.47,4.43-1.33,.03-2.66,.08-3.99,.03-1.56-.05-2.32,.47-2.71,2.05-1.58,6.46-4,12.62-8.44,17.87-4.93,5.82-11.3,9.01-19.22,9.15-3.22,.06-6.44,.05-9.66,0-1.37-.02-2.35,.3-3.17,1.47-1.43,2.04-3.58,3.39-6.1,3.48-4.32,.16-8.69,.26-12.96-.23-4.21-.49-7.16-4.27-6.92-7.85,.26-3.96,3.77-7.3,8.15-7.5,3.63-.16,7.28-.13,10.92-.05,2.99,.06,5.29,1.45,7.12,3.67,.51,.62,1.38,1.36,2.09,1.36,4.47,.01,9.01,.24,13.4-.39,6.77-.98,11.14-5.36,14.06-10.95,1.67-3.19,2.7-6.68,4.04-10.03,.57-1.43-.04-1.86-1.51-2.01-2.49-.25-4.96-.69-7.56-1.07Zm6.1-42.88c-.19-.9-.29-1.36-.39-1.81-3.1-13.27-11.82-21.88-24.83-26.77-8.05-3.02-16.5-3.34-24.99-2.42-15.63,1.71-27.25,9-33.89,22.79-1.09,2.27-1.64,4.79-2.23,7.24-.14,.59,.59,1.36,.93,2.05,.58-.42,1.18-.81,1.72-1.27,.18-.16,.21-.48,.3-.73,8.05-20.49,31.45-31.46,53.06-24.67,13.31,4.18,22.34,12.77,27.32,25.25,.24,.61,1.08,1.17,1.77,1.39,.3,.09,.92-.77,1.24-1.06Z"/>
  <path class="cls-1" d="M199.86,162.44c-.02,20.89-17.81,38.03-39.75,37.88-23.64-.16-40.06-18.26-39.94-38.15,.12-20.83,17.91-37.75,39.91-37.81,21.93-.06,39.8,17.05,39.78,38.08Zm-20.22,19.53c1.04-.11,2.14-.05,3.09-.38,.74-.26,1.71-.94,1.82-1.56,.11-.59-.63-1.52-1.25-1.97-1.05-.75-2.31-1.23-3.48-1.84-1.87-.97-2.08-1.91-.87-3.9,1.09-1.81,2.2-2.15,3.86-1.18,1.07,.63,2.08,1.4,3.22,1.87,.79,.33,2.18,.64,2.56,.27,.55-.54,.8-1.8,.56-2.58-1.49-4.83-5.29-7.44-10.58-7.43-1.76,0-3.4,.03-4.82-1.36-4.73-4.63-9.64-9.1-14.3-13.79-1-1-1.7-2.65-1.78-4.04-.4-7-6.44-11.08-13.41-8.77-.65,.21-1.37,.98-1.5,1.6-.1,.5,.49,1.35,1.03,1.71,1.13,.76,2.44,1.3,3.66,1.94,1.75,.91,2.03,2.14,.92,3.93-1.14,1.83-2.21,2.12-4.02,1.07-.95-.56-1.85-1.25-2.87-1.64-.88-.34-1.9-.33-2.86-.47-.16,.98-.69,2.07-.4,2.91,1.25,3.73,4.62,7.58,10.33,7.13,2.45-.19,4.23,.66,5.91,2.33,3.86,3.85,7.82,7.63,11.88,11.3,2.08,1.88,3.49,3.85,3.53,6.69,.07,5.73,4.27,8.07,9.77,8.18Zm-26.59-15.84c-.33,.05-.65,.11-.98,.16-.47-.66-.8-1.6-1.46-1.92-.78-.38-2.23-.64-2.71-.23-1.36,1.15-2.38,2.67-3.52,4.04-.24,.29-.4,.77-.7,.88-3.78,1.39-5.86,4.64-8.63,7.12-2.1,1.88-2.09,4.27-.35,6.47,2.71,3.42,5.98,4.96,8.23,3.22,3.09-2.4,5.64-5.43,8.44-8.19,.62-.61,1.29-1.16,1.93-1.75,1.38-1.26,3.07-2.36,3.99-3.88,.34-.56-1.09-2.11-1.7-3.21-.06-.11-.06-.25-.08-.38l-.51-.49c1.84-1.4,3.68-2.79,5.68-4.31-1.17-1.04-1.95-1.74-3.02-2.69-1.63,1.83-3.12,3.49-4.61,5.16Zm13.39-13.31q2.35,2.89,4.58,.78c1.43-1.36,2.84-2.75,4.3-4.08,.37-.33,1.08-.79,1.36-.66,1.67,.78,2.45-.26,3.3-1.27,1.14-1.35,2.24-2.72,3.42-4.03,1.46-1.62,.07-2.49-.93-3.48-.99-.98-1.94-2.03-3.51-.76-1.6,1.29-3.31,2.45-4.85,3.8-.52,.46-.69,1.3-.96,1.99-.27,.69-.23,1.61-.7,2.1-1.9,1.93-3.95,3.72-6,5.62Z"/>
  <path class="cls-1" d="M170.09,164.05c-4.16-3.92-8.32-7.85-12.48-11.77-.16,.15-.32,.3-.48,.45,4.1,3.98,8.2,7.95,12.3,11.93,.22-.2,.44-.41,.66-.61Z"/>
  <path class="cls-1" d="M147.26,175c.16,1.95-5.35,7.18-7.35,7.08,2.03-2.74,4.7-4.9,7.35-7.08Z"/>
  <path class="cls-1" d="M138.18,180.34c-.2-.16-.54-.32-.57-.5-.03-.28,.07-.67,.27-.86,2.04-1.99,4.11-3.96,6.2-5.89,.22-.21,.72-.14,1.09-.21,.04,.34,.25,.84,.09,1-2.12,2.09-4.3,4.14-6.47,6.19-.13,.13-.36,.16-.62,.27Z"/>
</svg>