<?xml version="1.0" encoding="UTF-8"?>
<svg id="Layer_1" data-name="Layer 1" xmlns="http://www.w3.org/2000/svg" viewBox="0 0 200 200">
  <defs>
    <style>
      .cls-1 {
        fill: #fbb247;
      }
    </style>
  </defs>
  <path class="cls-1" d="M124.52,167.64v25.67c2.89,0,5.63-.35,8.23,.15,1.24,.24,2.22,2.1,3.32,3.22-1.02,1.04-1.92,2.35-3.11,3.04-.85,.49-2.08,.17-3.14,.17-20.15,0-40.29,0-60.44,0-1.06,0-2.31,.31-3.13-.21-1.15-.73-1.98-2.09-2.94-3.18,1-1.06,1.89-2.85,3.01-3.04,2.66-.45,5.42-.15,8.45-.15v-25.68h-4.79c-19.09,0-38.17,.02-57.26,0-8.75-.01-12.72-4.46-12.72-14.34C0,112.43,0,71.56,.01,30.7c0-9.96,4.13-14.51,13.13-14.54,9.85-.04,19.69,0,29.54,0,.61,0,1.35-.25,1.79,.05,1.4,.94,2.69,2.08,4.02,3.14-1.37,1.19-2.71,3.36-4.11,3.4-9.08,.31-18.17,.17-27.26,.17q-11.32,0-11.32,12.64c0,29.84,0,59.69,0,89.53,0,2.02,0,4.04,0,6.83h5.59c46.81,0,93.61,0,140.42,0,1.06,0,2.28-.38,3.15,.08,1.51,.81,2.8,2.13,4.19,3.23-1.45,1.04-2.82,2.27-4.37,3.03-.89,.43-2.09,.08-3.15,.08-46.65,0-93.31,0-139.96,0-1.78,0-3.55,0-5.79,0,0,6.45-.35,12.37,.21,18.19,.17,1.78,2.68,3.51,4.4,4.77,.86,.63,2.36,.16,3.57,.16,57.41,0,114.82,0,172.23,0,6.88,0,7.95-1.18,7.95-8.71,0-4.56,0-9.13,0-14.41-6.25,0-12.25,0-18.25,0-1.36,0-2.85,.38-4.06-.11-1.34-.54-2.41-1.88-3.6-2.88,1.21-1.14,2.39-3.21,3.64-3.27,7.22-.32,14.46-.15,21.98-.15,.09-2.16,.22-3.8,.22-5.45,.01-31.71,.01-63.42,0-95.13,0-7.2-.94-8.27-7.33-8.28-13.33-.03-26.66-.04-39.99-.05-1.3,0-2.61,.13-4.52,.23,5.49,8.89,9.03,18.01,10.58,28.19,5.72,37.56-24.02,73.03-57.82,68.74-29.26-3.72-49.84-29.77-49.03-62.06C47.02,19.71,81.27-8.35,114.24,2.26c.87,.28,2.04,.31,2.53,.96,.87,1.14,1.32,2.67,1.95,4.04-1.12,.62-2.3,1.87-3.35,1.75-2.53-.29-4.98-1.48-7.51-1.84-19.13-2.72-35.19,3.78-46.65,21.37-11.4,17.51-12.89,36.81-4.02,56.07,8.84,19.2,23.51,29.22,43.01,29.16,20.68-.06,38.42-14.47,44.94-35.92,6.74-22.17,.53-45.5-16-60.1-.71-.63-1.72-1.13-2.04-1.96-.49-1.24-1.06-3.47-.58-3.93,.9-.85,3.26-1.5,3.76-.91,6.65,7.87,15.19,4.98,23.08,5.19,11.2,.3,22.42,.04,33.63,.09,9.39,.04,12.99,3.99,12.99,14.37,.02,40.87,.03,81.73,0,122.6,0,10.22-3.83,14.41-13.02,14.42-19.09,.02-38.17,0-57.26,0-1.63,0-3.26,0-5.18,0Zm-5.96,.4h-37.44v24.98h37.44v-24.98Z"/>
  <path class="cls-1" d="M115.93,91.15c.64,2.12,.99,5.55-2.18,7.29-1.6,.88-4.78,1.06-5.7-.05-1.66-1.99-2.16-5.19-3.45-8.73h-9.21c1.24,3.69,1.21,7.46-2.41,9.21-1.51,.73-4.46,.55-5.36-.59-1.52-1.93-1.93-4.96-3.04-8.19-.82-1.58-2.63-3.7-3.08-6.14-3-16.35-5.7-32.77-8.52-49.28-1.18-.13-2.23,.09-2.9-.38-1.45-1-2.7-2.35-4.04-3.56,1.49-.97,2.92-2.56,4.5-2.79,4.32-.64,7.5,1.53,8.24,6.51,.47,3.11,2.01,3.2,4.14,3.2,12.25-.05,24.51-.03,36.76-.02,6.73,0,7.55,.97,6.42,8.13-1.26,7.98-2.97,15.89-3.92,23.91-.61,5.16-2.9,6.23-7.01,6.1-8.01-.26-16.03-.08-24.05-.08-1.49,0-2.97,0-5.11,0,.42,2.7,.75,4.87,1.14,7.35,9.74,0,19.1-.14,28.46,.13,1.67,.05,3.3,1.85,4.95,2.84-1.32,1.47-2.63,2.94-4.61,5.16Zm-35.16-46.64q1.35,9.87,9.52,8.54v-8.54h-9.52Zm38.14,8.93c.56-2.95,1.1-5.8,1.67-8.79h-9.57v8.79h7.9Zm-14.22-.05c.15-3.18,.28-5.94,.41-8.78h-9.11c.27,3.17,.51,5.93,.76,8.78h7.95Zm-13.34,6.76h-7.61c.06,9.23,.81,10.03,8,8.29-.12-2.57-.24-5.19-.39-8.29Zm18.58,8.79q7.03,.53,7.62-8.64h-7.62v8.64Zm-12.85-8.72c.29,3.11,.55,5.86,.79,8.5,6.43,.85,7.2-.4,5.73-8.5h-6.52Z"/>
  <path class="cls-1" d="M171.24,46.9c0-2.9-.32-5.3,.11-7.52,.29-1.47,1.66-2.68,2.55-4,1.05,1.36,2.61,2.55,3.02,4.12,.53,2.01,.13,4.33,.13,7.32,2.41,0,4.68-.39,6.76,.14,1.27,.32,2.26,2.06,3.38,3.16-1.07,1.15-1.99,2.95-3.24,3.31-1.98,.56-4.18,.15-6.91,.15,0,2.75,.35,5.32-.13,7.67-.29,1.4-1.89,2.47-2.9,3.68-.92-1.27-2.35-2.42-2.64-3.85-.45-2.22-.12-4.63-.12-7.51-2.56,0-4.75,.44-6.68-.15-1.41-.43-2.5-2.21-3.73-3.4,1.19-1.04,2.27-2.63,3.6-2.98,1.98-.51,4.15-.13,6.81-.13Z"/>
  <path class="cls-1" d="M35.63,116.66c4.97,0,9.96-.22,14.91,.15,1.31,.1,2.51,2.02,3.76,3.1-1.27,1.06-2.51,3.01-3.8,3.04-10.09,.25-20.2,.25-30.29,0-1.38-.03-2.73-1.86-4.09-2.86,1.38-1.15,2.7-3.17,4.15-3.28,5.1-.41,10.24-.16,15.37-.16Z"/>
  <path class="cls-1" d="M27.88,101.66c2.56,0,5.18-.38,7.64,.15,1.39,.3,2.52,2.09,3.77,3.21-1.12,1.1-2.19,3.07-3.36,3.15-5.39,.35-10.82,.39-16.21,0-1.25-.09-2.39-2.27-3.58-3.48,1.21-1.01,2.33-2.66,3.64-2.89,2.64-.46,5.39-.14,8.1-.14Z"/>
</svg>