<?xml version="1.0" encoding="UTF-8"?>
<svg id="Layer_1" data-name="Layer 1" xmlns="http://www.w3.org/2000/svg" viewBox="0 0 200 200">
  <defs>
    <style>
      .cls-1 {
        fill: #fbb247;
      }
    </style>
  </defs>
  <path class="cls-1" d="M0,183.34V9.26C1.49,4.41,4.53,1.23,9.42,0H190.58c2.71,.86,5.35,1.93,6.99,4.44,.98,1.49,1.63,3.21,2.43,4.82V183.34c-.66,1.43-1.21,2.92-2,4.26-1.48,2.51-3.9,3.82-6.45,5h8.46v7.4c-66.67,0-133.33,0-200,0v-7.4H8.74c-1.53-.8-2.73-1.34-3.85-2.03-2.68-1.65-3.86-4.4-4.89-7.23ZM99.96,5.85c-29.22,0-58.45-.02-87.67,.05-1.49,0-3.14,.42-4.41,1.17-2.05,1.21-2.2,3.46-2.2,5.71,.02,55.68,.02,111.35,.02,167.03,0,5.03,1.87,6.96,6.75,6.96,58.33,0,116.66,0,174.99,0,5.01,0,6.86-1.9,6.86-7.03,0-55.61,0-111.23,0-166.84,0-5.13-1.85-7.05-6.84-7.05-29.16,0-58.33,0-87.49,0Z"/>
  <path class="cls-1" d="M16.8,175.41V62.48H183.17v112.93H16.8Zm83.2-11.26c6.58,0,13.16,0,19.74,0,8.09,0,16.18,.02,24.27-.01,3.52-.02,5.86-2.54,5.68-5.98-.17-3.19-2.51-5.24-6.05-5.24-28.44,0-56.87,0-85.31,0-.97,0-1.93-.03-2.9,.02-2.88,.16-5.07,2.49-5.14,5.43-.09,3.4,2.29,5.79,5.88,5.79,14.61,.02,29.22,0,43.83,0Zm0-33.86c-14.13,0-28.25,0-42.38,0-.72,0-1.45-.02-2.17,.02-2.89,.18-5.06,2.47-5.15,5.42-.11,3.46,2.31,5.8,6.05,5.8,28.62,0,57.23,0,85.85,0,.78,0,1.57,.03,2.35-.01,2.94-.17,5.18-2.62,5.16-5.61-.02-3.41-2.37-5.62-6.06-5.62-14.55-.01-29.1,0-43.65,0Zm5.5-28.26c0,3.85-.06,7.49,.02,11.12,.07,3.38,2.5,5.81,5.6,5.77,3.03-.04,5.46-2.47,5.47-5.71,.05-11.23,.05-22.46,0-33.69-.01-3.38-2.46-5.82-5.57-5.8-3.1,.01-5.45,2.46-5.51,5.87-.06,3.08-.01,6.17-.02,9.25,0,.59-.07,1.17-.1,1.71h-10.89c0-3.72,.03-7.3,0-10.87-.04-3.49-2.43-6-5.61-5.97-3.1,.03-5.47,2.52-5.48,5.9-.03,11.11-.03,22.21,0,33.32,0,3.49,2.41,6.01,5.57,6,3.16-.01,5.48-2.54,5.52-6.06,.03-3.02,0-6.05,.01-9.07,0-.58,.08-1.17,.12-1.77h10.88Zm33.21,5.62c1.99,0,3.73,.03,5.47,0,8.98-.18,16.01-6.97,16.61-16.03,.58-8.65-5.71-16.63-14.42-17.69-4.23-.52-8.56-.2-12.85-.2-3.62,0-5.9,2.3-5.91,6.01-.03,11.05-.03,22.1,0,33.14,0,3.54,2.36,6.05,5.52,6.05,3.16,0,5.48-2.49,5.56-6.01,.04-1.66,0-3.31,0-5.27Zm-88.44,0c1.94,0,3.67,.04,5.4,0,9.46-.24,16.75-7.69,16.71-17.04-.05-9.48-7.48-16.86-17.01-16.89-3.32-.01-6.63,0-9.95,0-4.04,0-6.23,2.25-6.24,6.41-.01,10.85-.01,21.7,0,32.55,0,3.69,2.24,6.22,5.48,6.25,3.31,.03,5.58-2.53,5.61-6.32,0-1.59,0-3.17,0-4.95Z"/>
  <path class="cls-1" d="M183.19,17.21V50.92H16.81V17.21H183.19Zm-39.04,22.5c7.18,0,14.36,.01,21.54-.02,.89,0,1.83-.07,2.65-.39,2.57-.99,3.91-3.67,3.36-6.44-.52-2.63-2.76-4.39-5.72-4.39-14.54-.01-29.09,0-43.63,0-.65,0-1.34,.07-1.96,.27-2.6,.84-4.13,3.42-3.75,6.21,.37,2.71,2.58,4.72,5.41,4.74,7.36,.04,14.72,.01,22.09,.01Zm-66.24,0c3.06,0,5.47-2.5,5.46-5.65-.01-3.13-2.46-5.6-5.53-5.59-3.07,.02-5.48,2.52-5.45,5.66,.02,3.17,2.42,5.59,5.52,5.58Zm-49.75-5.8c-.08,3.17,2.26,5.72,5.31,5.79,3.1,.08,5.59-2.3,5.67-5.43,.09-3.15-2.26-5.71-5.32-5.8-3.08-.09-5.59,2.32-5.67,5.44Zm27.59,5.79c3.09,0,5.49-2.43,5.5-5.6,0-3.15-2.39-5.62-5.48-5.63-3.07,0-5.5,2.46-5.5,5.61,0,3.18,2.37,5.61,5.47,5.62Z"/>
  <path class="cls-1" d="M138.77,96.26v-11.36c2.43,.12,4.84,0,7.15,.44,2.46,.47,3.96,3.11,3.77,5.8-.18,2.59-2.13,4.85-4.69,5.08-2.02,.18-4.07,.04-6.24,.04Z"/>
  <path class="cls-1" d="M50.37,96.22v-11.32c2.41,.13,4.82,0,7.13,.44,2.42,.46,3.95,3.15,3.77,5.81-.18,2.57-2.15,4.8-4.7,5.08-1.49,.17-3.01,.07-4.51,.07-.53,0-1.06-.05-1.68-.08Z"/>
</svg>