<?xml version="1.0" encoding="UTF-8"?>
<svg id="Layer_1" data-name="Layer 1" xmlns="http://www.w3.org/2000/svg" viewBox="0 0 200 250">
  <defs>
    <style>
      .cls-1 {
        fill: #5c2e63;
      }
    </style>
  </defs>
  <path class="cls-1" d="M46.17,120.38c5.9,1.02,11.66,1.25,17.57,.45,0,.81,0,1.41,0,2,0,33.98,0,67.96,0,101.94,0,.82-.03,1.67,.13,2.46,.49,2.45,2.45,4.29,4.85,4.61,.74,.1,1.5,.1,2.24,.1,34.79,0,69.58,0,104.37,0,.71,0,1.42,0,2.12-.11,2.62-.41,4.6-2.61,4.85-5.36,.05-.52,.04-1.04,.04-1.56,0-53.42,0-106.85,0-160.27,0-.39,0-.78,0-1.17-.14-3.25-2.49-5.72-5.6-5.87-.62-.03-1.25-.01-1.87-.01-18.25,0-36.5,0-54.75,0q-1.63,0-1.67-1.68c-.12-5.01-.83-9.94-2.1-14.77-.12-.45-.22-.91-.38-1.58,.56,0,1,0,1.43,0,19.67,0,39.33-.01,59,0,11.66,.01,21.17,8.3,23.25,20.25,.26,1.48,.33,3.02,.33,4.53,.02,53.6,.02,107.19,0,160.79,0,14.17-10.2,24.84-23.76,24.85-35.5,.02-71,.02-106.5,0-11.68,0-21.29-8.37-23.29-20.21-.24-1.4-.32-2.85-.32-4.27-.02-34.54-.01-69.09-.01-103.63,0-.42,.03-.85,.06-1.49Z"/>
  <path class="cls-1" d="M55.93,113.45c-24.52,.02-46.01-15.76-53.12-39.61C-3.74,51.91,1.26,32.48,16.79,16.24,25.78,6.84,36.93,1.69,49.57,.32c29.62-3.2,56,17.91,60.35,47.39,3.16,21.43-3.77,39.27-19.8,53.04-10,8.59-21.75,12.53-34.19,12.7Zm43.04-56.67c.03-5.98-1.29-12.48-3.65-17.94C84.17,12.98,53.04,3.91,30.62,19.99c-17.55,12.58-23.62,35.75-14.6,55.74,8.08,17.9,27.1,28.19,46.33,25.07,20.95-3.4,36.52-22.12,36.61-44.02Z"/>
  <path class="cls-1" d="M124.54,122.48c-10.5,0-21,0-31.5,0-2.93,0-5.17-1.63-5.94-4.24-1.08-3.66,1.41-7.42,5.13-7.77,.21-.02,.42-.02,.62-.02,21.04,0,42.08,0,63.13,0,2.57,0,4.51,1.19,5.57,3.66,1.61,3.77-.93,8.09-4.89,8.33-1.54,.09-3.08,.04-4.62,.04-9.17,0-18.33,0-27.5,0Z"/>
  <path class="cls-1" d="M124.54,158.95c-10.25,0-20.5,0-30.75-.01-.91,0-1.85-.04-2.72-.29-2.75-.81-4.38-3.49-4.06-6.5,.29-2.72,2.58-4.99,5.29-5.21,.41-.03,.83-.03,1.25-.03,20.67,0,41.33,0,62-.01,1.78,0,3.4,.33,4.72,1.65,1.77,1.76,2.3,3.91,1.53,6.3-.79,2.46-2.56,3.78-5.02,4.06-.58,.07-1.17,.03-1.75,.03-10.17,0-20.33,0-30.5,0Z"/>
  <path class="cls-1" d="M124.67,184.91c10.46,0,20.92-.01,31.37,0,3.49,0,6.02,2.48,6.08,5.86,.06,3.25-2.31,5.93-5.44,6.14-.46,.03-.92,.02-1.37,.02-20.54,0-41.08,0-61.62,0-.62,0-1.26,.02-1.87-.09-3.03-.55-5.03-3.24-4.82-6.43,.2-3.01,2.65-5.46,5.67-5.48,6.87-.05,13.75-.02,20.62-.02,3.79,0,7.58,0,11.37,0Z"/>
  <path class="cls-1" d="M61.28,50.69c.69,0,1.18,0,1.67,0,8.33,0,16.66,.01,24.98,0,1.59,0,3.06,.28,4.33,1.35,1.82,1.53,2.57,4,1.93,6.32-.66,2.38-2.62,4.06-5.09,4.35-.49,.06-1,.05-1.5,.05-10.49,0-20.99,0-31.48,0-4.25,0-6.58-2.42-6.58-6.82,0-9.54-.02-19.08,0-28.62,.01-4.45,4.06-7.4,7.95-5.85,2.35,.93,3.77,3.15,3.77,6.02,.01,7.16,0,14.31,0,21.47,0,.52,0,1.03,0,1.75Z"/>
</svg>