<?xml version="1.0" encoding="UTF-8"?>
<svg id="Layer_1" data-name="Layer 1" xmlns="http://www.w3.org/2000/svg" viewBox="0 0 200 200">
  <defs>
    <style>
      .cls-1 {
        fill: #5c2e63;
      }
    </style>
  </defs>
  <path class="cls-1" d="M77.93,172.4c-1.06,0-1.88,0-2.71,0-18.8,.01-37.6,.01-56.39,.04-4.99,0-9.48-1.3-13.23-4.66C1.27,163.93,0,158.94,0,153.45c.01-16.34,0-32.68,0-49.03,0-23.44,0-46.87,0-70.31,0-11.29,7.35-18.49,18.85-18.49,12.51,0,25.02,0,37.53,0,.76,0,1.52,0,2.39,0v4.01c-.83,0-1.64,0-2.45,0-12.93,0-25.87-.05-38.8,.06-6.9,.06-11.96,4.41-13.2,11.01-.17,.88-.2,1.8-.2,2.7,0,40.12-.01,80.25,0,120.37,0,9.31,5.42,14.6,14.9,14.6,52.22,0,104.45,0,156.67,0,2.19,0,4.38,0,6.57-.04,7.91-.13,13.49-5.55,13.56-13.33,.09-9.67,.06-19.33,.06-29,0-30.67-.02-61.33-.04-92,0-6.56-2.91-11.35-8.3-13.26-1.88-.67-3.99-.99-6-1-13-.1-26.01-.08-39.01-.1-.77,0-1.54,0-2.46,0v-4.01c.79,0,1.55,0,2.3,0,12.86,0,25.72,0,38.59,0,11.9,0,19.01,6.98,19.01,18.72,.02,39.92,.01,79.83,0,119.75,0,11.14-7.26,18.3-18.57,18.31-18.52,.02-37.03,0-55.55,0h-2.95c-.06,6.17,2.37,10.88,7.22,14.41,3.19,2.33,6.87,3.16,10.78,3.19,4.38,.02,8.76-.09,13.14,.02,4.02,.1,6.37,3.1,5.26,6.51-.66,2.03-2.51,3.36-5.06,3.43-2.89,.08-5.79,.02-8.69,.02-32.58,0-65.16,0-97.73,0-.71,0-1.42,.04-2.12-.03-2.92-.29-4.97-2.42-4.91-5.06,.07-2.71,2.1-4.76,5.1-4.82,4.8-.1,9.61-.03,14.41-.05,5.45-.03,10.07-1.9,13.63-6.06,2.76-3.23,3.91-7,3.96-11.55Zm4.26,.11c-.07,.53-.14,.87-.15,1.21-.4,11.18-9.18,20.78-23,20.33-4.09-.13-8.2-.02-12.3,.06-.58,.01-1.16,.51-1.73,.78,.59,.35,1.16,.73,1.78,1.03,.23,.11,.56,.02,.84,.02,34.98,0,69.97,0,104.95,0,.63,0,1.29,.03,1.9-.11,.34-.08,.6-.48,.9-.74-.31-.32-.56-.8-.94-.92-.59-.18-1.26-.13-1.89-.13-4.03,0-8.06,.04-12.09-.02-10.6-.16-19.01-6.71-21.17-16.51-.36-1.61-.48-3.27-.72-5.01h-36.39Z"/>
  <path class="cls-1" d="M186.76,35.04h-46.74v-3.87h50.79v116.94H8.72V31.12H58.72v3.9H12.78v109.02H186.76V35.04Z"/>
  <path class="cls-1" d="M61.52,13.46C74,8.87,85.89,4.48,97.79,.15c.59-.21,1.4-.19,2,.02,11.86,4.27,23.7,8.59,35.55,12.91,.12,.04,.21,.15,.42,.3-.51,.2-.95,.4-1.4,.56-4.21,1.48-4.24,1.48-4.2,5.98,.03,2.65-.34,5.28,1.27,7.83,1.21,1.93,.18,5.1-1.44,6.26-1.31,.93-2.63,.9-3.88-.12-1.63-1.32-2.54-4.85-1.2-6.73,2.37-3.33,.48-6.8,1.21-10.23q-3.41,.63-3.41,3.57c.01,5.35-.07,10.7,.11,16.05,.07,1.97-.76,2.86-2.47,3.18-2.98,.56-5.96,1.23-8.96,1.47-10.36,.83-20.73,1-31.06-.54-.42-.06-.84-.14-1.25-.23-3.91-.92-4.13-1.2-4.14-5.14,0-5.07-.11-10.15,0-15.22,.03-1.63-.56-2.31-2.06-2.78-3.61-1.12-7.18-2.41-11.36-3.83Zm57.12,5.71c-6.51,2.15-12.57,4.2-18.69,6.1-1.1,.34-2.5,.33-3.6-.02-5.24-1.65-10.43-3.47-15.63-5.23-.5-.17-1.02-.26-1.67-.42,0,5.08,.06,9.93-.04,14.79-.03,1.48,.42,2.19,1.93,2.3,4.71,.33,9.43,1.04,14.14,.96,7.19-.11,14.37-.72,21.54-1.22,.7-.05,1.91-.83,1.93-1.29,.14-5.2,.09-10.41,.09-15.97Zm4.98-5.93c-1.07-.45-1.68-.75-2.32-.98-4.63-1.69-9.46-2.99-13.85-5.14-5.97-2.92-11.46-2.77-17.42,.05-5.06,2.39-10.5,3.99-16.04,6.04,.57,.31,.84,.52,1.14,.62,7.33,2.5,14.66,5.02,22.02,7.45,.72,.24,1.68,.11,2.44-.13,3.9-1.22,7.77-2.53,11.65-3.81,3.98-1.31,7.95-2.63,12.38-4.1Z"/>
  <path class="cls-1" d="M159.33,82.01c3.97,3.63,7.39,6.74,10.79,9.85,.72,.66,1.47,1.31,2.11,2.05,1.32,1.51,1.52,3.2,.2,4.74-1.77,2.07-3.61,4.11-5.6,5.97-1.81,1.69-3.9,1.43-6.04-.51-3.33-3.01-6.62-6.06-9.93-9.09-.51-.47-1.05-.91-1.74-1.5-1.25,1.29-2.47,2.52-3.65,3.77-1.29,1.36-2.79,2.22-4.71,1.65-1.87-.56-2.47-2.13-2.79-3.85-1.31-7.04-2.67-14.07-3.93-21.12-.66-3.7,1.27-5.6,5.02-5.16,6.66,.79,13.33,1.54,19.98,2.39,2.14,.27,4.6,.32,5.47,2.82,.87,2.49-.77,4.24-2.37,5.84-.74,.74-1.67,1.29-2.8,2.15Zm9.71,14.46c-4.07-3.75-7.98-7.26-11.79-10.88-2.32-2.2-2.32-3.97-.2-6.35,1.04-1.17,2.13-2.29,3.51-3.77-7.75-.93-14.99-1.8-22.62-2.72,1.38,7.42,2.71,14.52,4.13,22.1,.9-.92,1.47-1.5,2.02-2.09,4.18-4.44,5.41-4.5,9.86-.44,3.36,3.06,6.72,6.12,10.18,9.27,1.64-1.72,3.17-3.32,4.9-5.13Z"/>
  <path class="cls-1" d="M55.41,139.67c-3.1,0-6.21,.08-9.31-.02-3.27-.11-4.96-1.78-4.99-4.97-.06-5.97-.06-11.94,0-17.91,.04-3.34,1.9-5.09,5.34-5.11,5.93-.04,11.85-.05,17.78,0,3.46,.02,5.23,1.67,5.29,5.13,.1,5.97,.09,11.94,0,17.91-.05,3.26-1.72,4.85-5.01,4.94-3.03,.09-6.07,.02-9.1,.02,0,0,0,0,0,.01Zm.07-24c-2.82,0-5.64,.04-8.46-.02-1.37-.03-1.84,.48-1.83,1.83,.06,5.48,.06,10.96,0,16.45-.01,1.38,.51,1.81,1.86,1.8,5.5-.05,11-.05,16.5,0,1.46,.01,2-.52,1.99-1.95-.04-5.41-.04-10.83,0-16.24,.01-1.45-.59-1.94-2.03-1.9-2.68,.08-5.36,.02-8.04,.02Z"/>
  <path class="cls-1" d="M69.53,91.52c0,2.99,.05,5.98-.01,8.96-.06,3.08-1.71,4.8-4.87,4.84-6.21,.08-12.43,.08-18.64,0-3.11-.04-4.83-1.75-4.88-4.86-.09-6.04-.09-12.09,0-18.14,.05-3.11,1.91-4.88,5.11-4.93,6.07-.08,12.15-.09,18.22,0,3.33,.05,5,1.83,5.05,5.15,.05,2.99,.01,5.98,0,8.96Zm-4-.1c0-2.71-.02-5.42,.01-8.13,.02-1.25-.34-1.91-1.8-1.9-5.58,.06-11.16,.04-16.74,0-1.22,0-1.8,.34-1.79,1.65,.04,5.56,.05,11.12,0,16.68-.01,1.31,.53,1.68,1.76,1.68,5.58-.03,11.16-.04,16.74,0,1.39,.01,1.87-.54,1.85-1.86-.05-2.71-.02-5.42-.01-8.13Z"/>
  <path class="cls-1" d="M84.43,55.3v-3.68h67.15v3.68H84.43Z"/>
  <path class="cls-1" d="M145.1,116.8v3.79h-60.6v-3.79h60.6Z"/>
  <path class="cls-1" d="M145.11,130.85v3.58h-60.64v-3.58h60.64Z"/>
  <path class="cls-1" d="M129.4,83.12h-44.91v-3.76h44.91v3.76Z"/>
  <path class="cls-1" d="M84.43,97.05v-3.73h44.99v3.73h-44.99Z"/>
  <path class="cls-1" d="M108.48,158.15c-.03,4.6-3.89,8.33-8.56,8.28-4.7-.05-8.44-3.82-8.4-8.44,.04-4.62,3.89-8.34,8.56-8.29,4.69,.06,8.43,3.82,8.4,8.44Zm-8.46-4.41c-2.32-.01-4.3,1.9-4.36,4.2-.06,2.42,1.89,4.42,4.32,4.44,2.34,.01,4.3-1.87,4.36-4.19,.06-2.4-1.92-4.44-4.32-4.45Z"/>
</svg>