<?xml version="1.0" encoding="UTF-8"?>
<svg id="Layer_1" data-name="Layer 1" xmlns="http://www.w3.org/2000/svg" viewBox="0 0 200 200">
  <defs>
    <style>
      .cls-1 {
        fill: #5c2e63;
      }
    </style>
  </defs>
  <path class="cls-1" d="M44.43,46.91C44.46,21.06,67.35,.04,95.54,0c28.24-.04,51.22,21.14,51.09,47.09-.13,25.99-22.93,46.82-51.17,46.76-28.23-.06-51.07-21.07-51.04-46.93Z"/>
  <path class="cls-1" d="M116.45,114.37c-1.99,3.98-3.87,7.73-6,11.98-3.71,0-8.19-.12-12.65,.02-9.81,.31-18.39,7.14-20.22,15.94-2.67,12.79,7.36,23.93,21.8,24.19,3.87,.07,7.75,.01,11.82,.01,.26,1.05,.45,2.06,.76,3.04,1.32,4.22,3.83,7.7,7.55,10.48,.51,.38,1.24,1.14,1.12,1.53-1.32,4.29-1.14,8.53,.44,13.03-1.09,0-1.9,0-2.71,0-33.23,0-66.47,0-99.7,0C7.08,194.58,.01,188.09,0,177.5c0-10.19,.01-20.39,0-30.58-.01-6.56,3.11-11.31,9.47-14.35,29.8-14.25,61.51-20.5,95.03-19.11,4.08,.17,8.14,.6,11.94,.89Z"/>
  <path class="cls-1" d="M199.98,146.53c0,9.64,.02,19.27,0,28.91-.04,14.29-11.2,24.53-26.78,24.54-6.84,0-13.7,.09-20.52-.26-6.41-.34-11.76-3.12-16.12-7.42-3-2.96-2.96-6.95-.03-9.58,2.92-2.62,7.38-2.63,10.41,.22,2.81,2.64,6.12,3.71,10.05,3.66,5.4-.07,10.8,0,16.2-.02,7.62-.04,12.19-4.25,12.19-11.25,.02-19.34,.02-38.69,0-58.03,0-6.92-4.55-11.06-12.08-11.09-5.71-.02-11.41,.04-17.12-.02-3.56-.04-6.49,1.07-8.99,3.39-3.19,2.95-7.62,3.11-10.59,.49-3.11-2.74-3.06-6.77,.21-9.88,4.92-4.68,10.92-7.26,18.05-7.36,6.54-.08,13.09-.12,19.62,0,14.43,.26,25.38,10.46,25.49,23.74,.08,9.99,.02,19.97,.02,29.96Z"/>
  <path class="cls-1" d="M134.22,153.11c-.81,0-1.62,0-2.43,0-10.72,0-21.43,.04-32.15-.02-5.76-.03-9.39-4.6-7.42-9.17,1.17-2.71,3.73-4.2,7.42-4.21,10.72-.02,21.43,0,32.15,0,.82,0,1.63,0,3.19,0-2.5-2.3-4.66-4.1-6.56-6.1-1.05-1.11-2.04-2.5-2.4-3.9-.75-2.95,.81-5.68,3.56-7.07,2.75-1.39,5.98-1.03,8.47,.96,.4,.32,.77,.68,1.15,1.02,6.09,5.56,12.17,11.12,18.26,16.69,3.27,2.99,3.32,7.08,.1,10.03-6.29,5.77-12.62,11.51-18.89,17.29-2.26,2.08-4.88,2.82-7.9,1.94-5.03-1.46-6.61-7.27-2.95-10.89,2.11-2.09,4.43-4,6.66-6-.08-.19-.17-.38-.25-.57Z"/>
</svg>