<?xml version="1.0" encoding="UTF-8"?>
<svg id="Layer_1" data-name="Layer 1" xmlns="http://www.w3.org/2000/svg" viewBox="0 0 200 200">
  <defs>
    <style>
      .cls-1 {
        fill: #5c2e63;
      }
    </style>
  </defs>
  <path class="cls-1" d="M100.04,199.92c-23.91,0-47.83,.22-71.74-.07-19.16-.23-27.9-6.51-28.09-20.77-.4-30.99-.14-61.98-.09-92.98,.01-6.43,1.3-13.44,10-15.66,13.75-3.5,13.84-10.71,14.67-19.77C27.32,22.91,63.13-.33,100.96,0c38.81,.35,72.47,24.12,74.36,53.57,.51,7.95,2,13.05,13.19,15.88,8.29,2.09,11.34,8.56,11.36,15.2,.08,31.95,.28,63.89-.05,95.84-.14,13.62-10.99,19.38-28.03,19.42-23.91,.05-47.83,.01-71.74,.01Zm-.1-134.3c11.96,0,24.01-.73,35.85,.2,13.13,1.03,14.82-3.71,13.1-11.62-4.36-20.02-25.39-33.88-50.62-33.26-25.12,.62-43.8,15.14-47.22,35.99-1.18,7.17,2.08,9.17,11.15,8.8,12.55-.5,25.17-.13,37.75-.12Zm-37.03,44.91c10.56,1.6,20.06,2.94,26.52-6.65,3.65-5.42,11.87-5.35,18.17-2.06,6.08,3.18,8.69,7.66,4.9,13.65-2.8,4.42-6.63,8.01-11,11.42-5.29,4.13-10.43,8.48-12.35,14.09-1.11,3.27-3.46,8.34,4.23,9.07,4.88,.46,12.04,2.82,14.18-3.41,3.06-8.92,12.92-13.74,20.05-20.24,12.87-11.75,10.89-27.5-4.14-35.09-23.79-12.02-54.01-2.59-60.56,19.21Zm47.98,60.71c-1.68-4.8-4.49-8.51-12.09-8.83-7.47-.32-12.74,2.7-13.25,7.58-.59,5.63,4.66,9.95,12.48,10,6.78,.04,10.92-3.72,12.86-8.74Z"/>
</svg>