<?xml version="1.0" encoding="UTF-8"?>
<svg id="SvgjsSvg1001" xmlns="http://www.w3.org/2000/svg" viewBox="0 0 213.33 213.33">
  <defs>
    <style>
      .cls-1 {
        fill: #5c2e63;
      }
    </style>
  </defs>
  <g id="SvgjsG1008">
    <path class="cls-1" d="m106.67,0C47.76,0,0,47.76,0,106.67s47.76,106.67,106.67,106.67c58.88-.07,106.6-47.78,106.67-106.67C213.33,47.76,165.58,0,106.67,0Zm0,202.67c-25.59,0-48.79-10.08-65.99-26.4,6.95-21.75,24.11-38.74,46.02-45.33,36.29-10.91,74.49,9.36,85.98,45.32-17.21,16.33-40.41,26.41-66.01,26.41Zm-32-117.33c0-17.67,14.33-32,32-32,17.67.02,31.98,14.33,32,32,0,17.67-14.33,32-32,32s-32-14.33-32-32Zm106.16,82.29c-8.95-22.33-27.45-39.6-50.66-46.74,11.53-7.64,19.16-20.69,19.17-35.56,0-23.56-19.1-42.67-42.67-42.67s-42.67,19.1-42.67,42.67c0,14.85,7.61,27.91,19.12,35.55-22.46,6.94-41.45,23.65-50.66,46.67-13.61-16.57-21.79-37.77-21.79-60.89C10.67,53.65,53.65,10.67,106.67,10.67c52.99.06,95.94,43.01,96,96,0,23.15-8.2,44.38-21.84,60.96Z"/>
  </g>
</svg>