<?xml version="1.0" encoding="UTF-8"?>
<svg id="Layer_1" data-name="Layer 1" xmlns="http://www.w3.org/2000/svg" viewBox="0 0 200 200">
  <defs>
    <style>
      .cls-1 {
        fill: #5c2e63;
      }
    </style>
  </defs>
  <path class="cls-1" d="M138.02,200c-4.81-1.64-6.98-5-6.93-9.83,0-.32-.06-.65-.11-.97-.32-2.44,.07-5.32-1.18-7.18-1.2-1.8-4.06-2.61-6.26-3.73-.53-.27-1.41-.25-1.98-.02-2.85,1.16-5.65,2.45-8.48,3.65-4.72,2-9.02,.69-11.63-3.58-2.23-3.64-4.43-7.29-6.57-10.98-2.42-4.16-1.49-8.37,2.46-11.22,2.48-1.79,5.07-3.44,7.5-5.3,.6-.45,.99-1.43,1.05-2.2,.15-1.87,.15-3.77,0-5.64-.06-.76-.47-1.73-1.07-2.18-2.38-1.81-4.91-3.43-7.35-5.18-4.08-2.92-5.05-7.14-2.59-11.36,2.15-3.68,4.34-7.34,6.57-10.98,2.56-4.18,6.86-5.52,11.46-3.6,2.9,1.21,5.76,2.54,8.69,3.69,.61,.24,1.53,.11,2.16-.17,1.15-.51,2.12-1.46,3.3-1.87,2.53-.88,3.61-2.46,3.58-5.06-.03-2.07,.35-4.14,.55-6.22,.52-5.38,3.82-8.33,9.43-8.37,4.25-.03,8.5-.05,12.74,0,5.21,.07,8.51,3.14,8.97,8.18,.26,2.85,.5,5.71,.92,8.54,.1,.68,.76,1.42,1.36,1.87,.84,.63,2.02,.85,2.8,1.53,2.39,2.08,4.7,2.08,7.39,.45,1.87-1.13,4.01-1.84,6.06-2.67,4.32-1.75,8.64-.47,11.05,3.39,2.37,3.78,4.66,7.62,6.87,11.48,2.31,4.04,1.3,8.28-2.56,11.06-2.48,1.79-5.08,3.44-7.5,5.3-.58,.44-.93,1.43-.99,2.2-.14,1.81,.12,3.65-.09,5.45-.15,1.25,.26,1.89,1.25,2.54,2.45,1.61,4.84,3.3,7.23,5,4.01,2.86,4.99,7.16,2.53,11.38-2.14,3.68-4.33,7.35-6.57,10.98-2.56,4.16-6.88,5.48-11.49,3.55-2.78-1.17-5.54-2.37-8.27-3.63-1-.46-1.77-.53-2.74,.17-1.29,.93-2.68,1.81-4.16,2.37-1.82,.69-2.29,1.83-2.36,3.58-.12,2.72-.46,5.45-.81,8.16-.52,3.94-3.12,6.16-6.82,7.4h-17.4Zm15.63-8.3c.46-4.32,.95-8.39,1.31-12.46,.19-2.11,1.23-3.38,3.19-4.32,2.88-1.38,5.77-2.83,8.37-4.64,2.25-1.56,4.23-1.88,6.71-.71,3.66,1.73,7.43,3.26,11.24,4.92,2.34-3.92,4.58-7.67,6.77-11.33-.23-.29-.29-.42-.4-.49-3.22-2.25-6.41-4.54-9.69-6.71-2.15-1.42-2.94-3.15-2.47-5.66,.36-1.96,.55-4.03,.35-6.01-.72-6.93-1.5-6.04,5.1-10.6,2.39-1.65,4.76-3.31,7.21-5.01-2.39-3.98-4.63-7.73-6.88-11.48-4.08,1.77-7.98,3.39-11.81,5.13-2.07,.94-3.77,.63-5.64-.6-2.72-1.77-5.55-3.44-8.5-4.81-2.19-1.01-3.39-2.29-3.58-4.67-.33-4.06-.85-8.1-1.28-12.12h-13.76c-.43,4.13-.89,8.13-1.25,12.14-.21,2.34-1.41,3.68-3.64,4.65-2.68,1.16-5.35,2.53-7.66,4.26-2.47,1.84-4.66,2.09-7.41,.73-3.51-1.73-7.17-3.16-10.83-4.75-2.35,3.93-4.58,7.68-6.86,11.5,3.45,2.39,6.68,4.75,10.04,6.91,2.34,1.51,3.02,3.41,2.61,6.02-.32,2.04-.59,4.19-.29,6.2,1.02,6.76,.47,6.24-5.19,10.21-2.38,1.66-4.75,3.32-7.16,5,2.35,3.92,4.57,7.63,6.87,11.47,4.05-1.76,7.97-3.45,11.88-5.18,1.98-.87,3.66-.56,5.49,.6,2.85,1.81,5.82,3.48,8.86,4.98,1.85,.91,3.04,2.04,3.23,4.09,.35,3.69,.75,7.38,1.14,11.07,.09,.83,.05,1.7,1.39,1.69,4.1-.05,8.21-.02,12.55-.02Z"/>
  <path class="cls-1" d="M0,133.59c.89-3.25,1.49-6.6,2.74-9.72,5.74-14.38,19.93-23.79,35.87-23.86,17.13-.07,34.26-.02,51.4-.01,2.77,0,4.44,1.22,4.87,3.46,.37,1.89-.74,3.92-2.66,4.52-.93,.29-1.99,.3-2.99,.3-16.59,.02-33.18-.02-49.78,.02-13.49,.03-24.96,7.71-29.1,19.69-1.01,2.92-1.6,6.09-1.67,9.17-.21,9.37-.08,18.75-.08,28.12,0,.38,.07,.76,.13,1.42,.84,0,1.62,0,2.4,0,19.76,0,39.52,0,59.29,0,.54,0,1.08,0,1.62,0,3.65,.01,5.66,1.48,5.65,4.14,0,2.65-2.06,4.16-5.66,4.16-22.12,0-44.25-.03-66.37,.03-2.66,0-4.59-.76-5.67-3.16,0-12.76,0-25.52,0-38.28Z"/>
  <path class="cls-1" d="M77.62,83.29c-23.79-.06-43.11-18.72-43.11-41.62C34.52,18.62,54.06-.11,78,0c23.69,.11,43.06,19,42.91,41.84-.16,22.97-19.52,41.52-43.29,41.45Zm34.58-41.67c-.03-18.37-15.43-33.27-34.43-33.32-19.04-.05-34.57,14.96-34.56,33.4,.01,18.45,15.51,33.35,34.63,33.3,18.99-.05,34.39-15.01,34.36-33.37Z"/>
  <path class="cls-1" d="M146.84,125c11.87,.02,21.57,9.45,21.52,20.92-.04,11.37-9.73,20.71-21.53,20.76-11.81,.05-21.66-9.44-21.65-20.86,0-11.44,9.78-20.84,21.66-20.82Zm-.06,33.28c7.11,0,12.88-5.5,12.97-12.36,.09-6.83-5.85-12.61-12.96-12.62-7.08,0-12.86,5.56-12.91,12.41-.05,6.99,5.67,12.56,12.9,12.56Z"/>
</svg>