<?xml version="1.0" encoding="UTF-8"?>
<svg id="Layer_1" data-name="Layer 1" xmlns="http://www.w3.org/2000/svg" viewBox="0 0 200 250">
  <defs>
    <style>
      .cls-1 {
        fill: #5c2e63;
      }
    </style>
  </defs>
  <path class="cls-1" d="M102.84,0c5.28,1.3,9.91,3.5,12.21,7.99,1.26,2.47,1.72,5.24,2.69,8.34,1.31,0,3.17-.01,5.03,0,9.76,.07,15.34,4.34,16.58,12.97,.93,0,1.93,0,2.92,0,12.69,0,25.39-.02,38.08,0,11.67,.02,19.63,6.83,19.64,16.88,.02,62.33,.02,124.66,0,186.99,0,10.01-8.01,16.82-19.71,16.82-53.52,.01-107.05,.01-160.57,0-11.69,0-19.69-6.82-19.7-16.83C0,170.83,0,108.5,.01,46.17c0-10.03,7.98-16.85,19.64-16.87,12.6-.02,25.2,0,37.8,0,1.03,0,2.06,0,3.21,0,.41-4.8,2.35-9.1,7.38-10.94,4.46-1.63,9.57-1.92,14.86-2.89,0-.09,.07-.88,.13-1.66,.5-6.3,5.25-11.43,12.28-13.25,.62-.16,1.23-.37,1.85-.55,1.89,0,3.79,0,5.68,0Zm88.14,139.71c0-30.92-.11-61.84,.08-92.76,.05-7.62-5.63-10.23-11.88-10.2-12.69,.07-25.39,0-38.08,.07-1.02,0-2.3,.55-2.98,1.21-1.74,1.69-3.7,2.7-6.38,2.7-21.12-.01-42.25,.06-63.37-.11-2.07-.02-4.45-1.22-6.09-2.46-1.25-.94-2.22-1.42-3.84-1.42-12.41,.04-24.82,.02-37.23,.02-8.81,0-12.47,3.11-12.47,10.64,0,61.52,0,123.03,0,184.55,0,7.38,3.71,10.56,12.29,10.56,52.19,0,104.39,0,156.58,0,1.14,0,2.28,.03,3.41-.06,4.14-.32,7.63-1.71,9.13-5.23,.72-1.69,.8-3.66,.8-5.5,.05-30.68,.03-61.35,.03-92.03Zm-60.45-106.69c0-1.28,.02-2.25,0-3.22-.11-3.85-2.35-5.77-6.87-5.9-1.7-.05-3.41-.08-5.11-.1-6.76-.07-9.8-2.82-10.35-8.65-.18-1.95-1.2-4.15-2.66-5.64-2.26-2.3-5.61-2.65-8.85-1.45-3.49,1.29-4.98,3.8-5.07,7.01-.17,6.03-3.36,8.69-10.39,8.73-1.99,.01-3.98-.04-5.96,.08-2.94,.18-5.12,1.66-5.59,4.08-.32,1.63-.06,3.33-.06,5.05h60.92Z"/>
  <path class="cls-1" d="M172.68,226.77V52.53c-.88-.06-1.69-.15-2.51-.15-3.79-.02-7.58-.02-11.37-.03-4.04-.01-6.11-1.39-6.06-4.02,.04-2.22,2.24-3.51,6.05-3.52,4.83,0,9.66-.01,14.49,0,5.75,.02,8.24,2.17,8.25,7.17,.02,13.59,0,27.18,0,40.76,0,44.75,0,89.5,0,134.25,0,4.29-1.42,6.32-5.08,7.21-.89,.22-1.86,.27-2.8,.27-41.49,.01-82.98,.03-124.47-.06-1.78,0-3.97-.74-5.27-1.78-7.84-6.25-15.54-12.65-23.14-19.12-1.16-.99-2.22-2.61-2.23-3.95-.15-16.92-.11-33.85-.08-50.77,0-2.59,1.64-4.16,4.04-4.14,2.81,.02,4.55,1.59,4.68,4.25,.03,.65,0,1.3,0,1.95,0,14.16,0,28.32,0,42.47,0,.87,0,1.75,0,2.86,5.19,0,10.09,0,14.98,0,7.44,0,9.83,2.07,9.87,8.48,.03,3.82,.06,7.65,.11,11.47,0,.15,.12,.3,.26,.62h120.25Zm-130.03-5.76c.21-.08,.43-.16,.64-.24,0-1.85,.12-3.71-.08-5.54-.06-.54-.98-1.4-1.58-1.45-2.3-.17-4.62-.07-6.53-.07,2.51,2.43,5.03,4.86,7.54,7.29Z"/>
  <path class="cls-1" d="M113.88,83.88c4.27,0,7.96-.04,11.64,0,5.29,.07,8.7,2.87,8.91,7.43,.14,2.92,.13,5.86,0,8.78-.21,4.56-3.6,7.37-8.89,7.45-3.76,.05-7.51,.01-11.64,.01,0,3.19,.02,6.1,0,9-.05,5.77-3.22,8.49-9.94,8.51-2.84,.01-5.68,.02-8.52,0-5.92-.06-9.24-2.91-9.32-8.05-.05-3.06,0-6.13,0-9.46-3.96,0-7.53,.02-11.11,0-5.99-.04-9.34-2.85-9.46-7.96-.06-2.6-.06-5.2,0-7.8,.12-4.99,3.47-7.84,9.23-7.9,3.41-.03,6.81-.02,10.22-.04,.18,0,.37-.07,1.1-.22,0-2.59-.05-5.32,.02-8.03,.04-1.45,.04-2.97,.51-4.33,.97-2.83,4.15-4.78,7.72-4.87,3.59-.09,7.19-.08,10.79-.02,5.11,.08,8.54,2.93,8.71,7.33,.13,3.31,.03,6.63,.03,10.18Z"/>
  <path class="cls-1" d="M27.2,52.35v3.29c0,28.07,0,56.13,.01,84.2,0,2.18-.37,4.07-3.15,4.89-2.56,.76-5.06-.45-5.5-2.76-.17-.88-.12-1.78-.12-2.68,0-28.88,0-57.76,0-86.64,0-5.99,2.18-7.85,9.17-7.85,35.7,0,71.41,0,107.11,0,1.13,0,2.32-.09,3.39,.16,2.09,.48,3.62,1.61,3.42,3.63-.2,2.06-1.43,3.52-4.06,3.71-.94,.07-1.89,.04-2.84,.04-34.57,0-69.13,0-103.7,0-1.12,0-2.23,0-3.74,0Z"/>
  <path class="cls-1" d="M100.13,164.44c17.81,0,35.62,0,53.43,0,1.04,0,2.34-.28,3.07,.15,1.36,.8,3.15,1.94,3.31,3.09,.16,1.15-1.23,2.7-2.41,3.64-.73,.58-2.33,.46-3.54,.46-36,.02-71.99,.02-107.99,0-1.03,0-2.11,0-3.09-.24-2.08-.5-3.2-1.82-3.07-3.63,.14-1.9,1.43-3.16,3.74-3.4,1.03-.11,2.08-.07,3.12-.07,17.81,0,35.62,0,53.43,0Z"/>
  <path class="cls-1" d="M89.52,190.94c-14.48,0-28.95,0-43.43,0-.85,0-1.72,.06-2.55-.06-2.25-.32-3.6-1.53-3.69-3.46-.09-2.06,1.29-3.35,3.62-3.75,.91-.16,1.89-.07,2.83-.07,28.86,0,57.72,0,86.58,0,.95,0,1.93-.09,2.83,.08,2.3,.45,3.66,1.7,3.53,3.81-.13,1.97-1.51,3.09-3.74,3.4-.83,.12-1.7,.05-2.55,.05-14.48,0-28.95,0-43.43,0Z"/>
  <path class="cls-1" d="M76.25,152.57c-9.94,0-19.88,0-29.82,0-1.04,0-2.09,0-3.11-.14-2.16-.31-3.37-1.56-3.46-3.35-.1-1.92,1.08-3.27,3.34-3.68,1-.19,2.07-.18,3.1-.18,20.07,0,40.14,0,60.21,0,4.32,0,6.43,1.2,6.49,3.63,.05,2.46-2.08,3.73-6.35,3.73-10.13,0-20.26,0-30.39,0Z"/>
  <path class="cls-1" d="M142.94,145.21c3.98,0,7.96-.03,11.94,0,3.33,.04,5.29,1.43,5.32,3.65,.02,2.22-1.96,3.67-5.25,3.69-7.96,.04-15.91,.04-23.87,0-3.36-.02-5.17-1.42-5.11-3.75,.06-2.22,1.83-3.54,5.04-3.58,3.98-.06,7.96-.01,11.94-.01Z"/>
</svg>