<?xml version="1.0" encoding="UTF-8"?>
<svg id="Layer_1" data-name="Layer 1" xmlns="http://www.w3.org/2000/svg" viewBox="0 0 200 200">
  <defs>
    <style>
      .cls-1 {
        fill: #5c2e63;
      }
    </style>
  </defs>
  <path class="cls-1" d="M104.03,93.4c7.67-2.45,13.45-.24,17.56,6.65,3.5-1.91,7.2-2.28,11-.97,3.77,1.31,6.37,3.93,7.95,7.53,1.62-.44,3.12-1.03,4.67-1.22,8.22-1.03,15,4.92,15.06,13.54,.09,12.87,.1,25.75-.23,38.62-.21,8.37-2.22,16.5-4.76,24.48-1.55,4.86-3.05,9.73-4.59,14.59-.96,3.05-3.62,4.23-6.08,2.72-1.62-1-2.14-2.84-1.43-5.06,1.8-5.65,3.75-11.26,5.35-16.97,1.25-4.45,2.19-9,3.02-13.55,1.08-5.94,1.13-11.97,1.13-18,0-8.79,.02-17.58,.02-26.37,0-2.87-1.56-5.54-4.13-6.27-3.27-.92-7.11,1.58-7.15,5.06-.05,3.73,.01,7.46-.03,11.19-.02,1.56-.4,3.02-1.92,3.84-2.28,1.23-5.47,0-5.51-2.78-.09-5.99-.03-11.99-.06-17.98-.01-2.16-.56-4.11-2.48-5.42-1.82-1.24-3.72-1.56-5.71-.46-1.87,1.04-3.03,2.57-3.04,4.79-.02,5.95,.02,11.9-.03,17.85-.01,1.52-.35,2.98-1.82,3.9-2.19,1.36-5.34,.25-5.63-2.5-.09-.79-.17-1.59-.17-2.38,0-7.24,.03-14.47,.04-21.71,0-3.5-1.46-5.37-4.2-6.3-3.02-1.02-6.91,1.68-6.92,4.88-.02,7.9,.01,15.81-.03,23.71,0,1.7-.3,3.42-1.99,4.35-2.14,1.18-4.53,.41-5.35-1.78-.35-.93-.46-1.99-.47-2.98-.03-17.85-.06-35.7,.02-53.54,.01-2.85-2.2-5.28-5.08-5.65-2.67-.35-6.04,2.49-5.93,5.08,.09,2.17,.04,4.35,.01,6.52-.04,2.51-.97,3.92-2.93,4.55-2.08,.67-4.61-.62-4.72-2.79-.21-4.05-.72-8.15,.65-12.14,1.92-5.62,7.69-9.27,13.79-8.69,5.96,.56,11.08,5.26,11.76,11.1,.33,2.81,.23,5.67,.25,8.51,.03,3.73,0,7.46,0,11.19,0,.26,.05,.52,.08,.91Z"/>
  <path class="cls-1" d="M8.59,47.8c.38-2.24,.72-5.29,1.45-8.25,.62-2.49,.34-4.31-1.82-5.98-2.09-1.62-3.83-3.69-5.75-5.53C.32,25.97-.58,23.56,.39,20.68c.96-2.85,3.19-4.13,6.03-4.54,3.25-.47,6.5-.96,9.75-1.37,1.03-.13,1.62-.57,2.08-1.52,1.68-3.47,3.28-7,5.28-10.29,2.38-3.92,8.2-3.94,10.62-.03,2,3.23,3.57,6.73,5.22,10.17,.5,1.05,1.12,1.53,2.26,1.67,3.21,.39,6.42,.89,9.62,1.36,5.1,.75,7.81,5.1,5.78,9.41-.48,1.01-1.28,1.92-2.07,2.73-2.28,2.31-4.59,4.57-6.97,6.78-.72,.67-.88,1.33-.72,2.23,.6,3.32,1.16,6.64,1.75,9.96,.86,4.86-2.3,8.59-7.09,8.25-.98-.07-1.98-.48-2.88-.93-3.01-1.51-6-3.07-8.95-4.71-.94-.52-1.63-.47-2.55,.03-3.03,1.67-6.1,3.27-9.19,4.83-4.84,2.43-9.87-.72-9.78-6.89Zm.86-24.29c-.1,.19-.2,.39-.31,.58,.37,.24,.79,.42,1.11,.72,1.91,1.79,3.79,3.61,5.69,5.41,1.9,1.8,2.81,3.96,2.44,6.58-.15,1.09-.4,2.17-.58,3.26-.34,2.09-.66,4.18-1.02,6.47,.6-.28,1-.44,1.38-.64,2.33-1.2,4.66-2.39,6.97-3.62,2.51-1.34,4.99-1.3,7.49,.05,2.31,1.24,4.64,2.43,6.96,3.63,.36,.19,.74,.34,1.36,.61-.48-2.99-.85-5.7-1.35-8.38-.57-3.05-.31-5.78,2.2-8.01,2.02-1.79,3.92-3.73,5.87-5.61,.26-.25,.47-.54,.91-1.05-3.2-.44-6.06-.87-8.94-1.22-3.04-.37-5.31-1.7-6.59-4.61-1.13-2.55-2.42-5.04-3.65-7.55-.12-.25-.3-.48-.54-.88-.29,.54-.51,.91-.7,1.29-1.21,2.46-2.49,4.9-3.62,7.41-1.28,2.83-3.58,3.97-6.49,4.33-2.87,.36-5.73,.8-8.6,1.21Z"/>
  <path class="cls-1" d="M79.56,49.03c.67-3.97,1.23-7.69,1.95-11.39,.24-1.24-.03-2.06-.95-2.91-2.35-2.17-4.59-4.45-6.9-6.66-2.13-2.04-3.1-4.44-2.13-7.33,.97-2.9,3.22-4.2,6.12-4.61,3.21-.45,6.41-.96,9.62-1.35,1.1-.13,1.7-.59,2.17-1.6,1.44-3.1,2.92-6.18,4.51-9.2,2.24-4.25,7.01-5.22,10.49-2.13,.8,.71,1.38,1.73,1.88,2.7,1.5,2.92,2.94,5.87,4.34,8.84,.38,.82,.89,1.22,1.78,1.33,3.26,.43,6.5,.94,9.76,1.37,4.35,.58,7.03,3.58,6.61,7.48-.19,1.77-1.11,3.16-2.34,4.36-2.41,2.36-4.82,4.72-7.27,7.04-.68,.65-.94,1.28-.76,2.22,.62,3.31,1.17,6.64,1.75,9.96,.87,4.96-2.37,8.75-7.18,8.29-1.06-.1-2.14-.58-3.11-1.07-2.97-1.5-5.91-3.06-8.83-4.65-.74-.4-1.31-.43-2.07-.02-3.04,1.66-6.1,3.27-9.18,4.85-3.76,1.93-7.6,.9-9.38-2.57-.49-.95-.63-2.08-.88-2.96Zm32.35-2.48c.05-.33,.11-.5,.09-.66-.41-2.62-.76-5.26-1.28-7.86-.6-3-.16-5.63,2.16-7.8,1.95-1.82,3.87-3.66,5.8-5.5,.3-.29,.57-.61,1.11-1.18-3.1-.45-5.86-.94-8.64-1.24-3.02-.33-5.44-1.38-6.77-4.34-1.13-2.51-2.4-4.95-3.62-7.41-.2-.4-.44-.79-.76-1.36-.33,.63-.55,1.01-.74,1.4-1.25,2.55-2.51,5.09-3.75,7.65-.86,1.76-2.14,3.11-4.07,3.57-1.83,.43-3.73,.61-5.59,.91-1.76,.28-3.51,.57-5.26,.85-.11,.18-.21,.37-.32,.55,.39,.22,.84,.36,1.15,.66,2,1.89,3.99,3.8,5.96,5.72,1.58,1.54,2.43,3.38,2.17,5.62-.17,1.41-.39,2.8-.6,4.2-.31,2-.63,4-.99,6.27,2.61-1.34,5.04-2.44,7.31-3.8,3.23-1.94,6.29-1.94,9.52,0,2.27,1.36,4.68,2.47,7.13,3.75Z"/>
  <path class="cls-1" d="M150.88,48.02c.49-2.87,1.05-6.55,1.76-10.21,.26-1.31,.05-2.21-.98-3.14-2.4-2.17-4.7-4.47-6.98-6.76-2.58-2.59-3.08-5.62-1.44-8.46,1.24-2.14,3.27-3.02,5.62-3.35,3.25-.46,6.5-.96,9.75-1.38,.94-.12,1.48-.51,1.89-1.37,1.54-3.24,3.08-6.49,4.79-9.65,2.21-4.05,7.1-4.89,10.36-1.81,.78,.74,1.36,1.75,1.86,2.72,1.49,2.88,2.93,5.78,4.29,8.71,.44,.94,1.05,1.29,2.01,1.42,3.3,.44,6.6,.9,9.88,1.41,4.14,.65,6.53,3.44,6.28,7.24-.12,1.78-.99,3.19-2.23,4.4-2.47,2.42-4.93,4.86-7.44,7.24-.65,.62-.87,1.21-.7,2.11,.62,3.27,1.18,6.55,1.73,9.82,.71,4.18-1.22,7.46-4.89,8.37-1.82,.45-3.51,.04-5.13-.81-3.02-1.59-6.06-3.15-9.06-4.79-.8-.44-1.42-.41-2.2,.02-3.12,1.69-6.24,3.39-9.42,4.96-4.72,2.34-9.9-.81-9.77-6.69Zm32.38-1.37c-.48-3.14-.75-5.96-1.38-8.7-.7-3.07-.04-5.59,2.21-7.74,1.64-1.56,3.27-3.13,4.93-4.67,.6-.56,1.27-1.06,1.91-1.58-.09-.15-.19-.3-.28-.45-2.72-.41-5.43-.94-8.16-1.2-3.18-.31-5.67-1.41-7.07-4.5-1.29-2.84-2.75-5.6-4.24-8.6-.27,.45-.44,.68-.56,.93-1.24,2.55-2.48,5.1-3.71,7.66-.9,1.87-2.17,3.43-4.21,3.98-1.82,.48-3.72,.63-5.59,.93-1.79,.28-3.59,.57-5.38,.86-.09,.16-.18,.32-.27,.48,.34,.2,.73,.35,1,.62,2.12,2.02,4.21,4.07,6.31,6.11,1.46,1.42,2.11,3.16,1.91,5.18-.16,1.58-.43,3.15-.67,4.73-.28,1.88-.57,3.76-.9,5.9,2.81-1.45,5.37-2.68,7.83-4.07,2.85-1.61,5.6-1.6,8.45,0,2.46,1.39,5.01,2.64,7.85,4.13Z"/>
  <path class="cls-1" d="M77.31,126.8c0-4.33,.02-8.67,0-13,0-1.66,.45-3.05,1.91-3.99,2.06-1.33,5.21,.06,5.59,2.49,.1,.65,.19,1.32,.19,1.98,.01,8.96,0,17.93,0,26.89,0,.58,0,1.16-.07,1.73-.26,2.2-1.09,3.27-2.73,3.61-2.01,.41-3.49-.25-4.54-2.16-1.99-3.61-3.92-7.25-5.87-10.89-1.59-2.97-3.15-5.96-4.77-8.91-1.27-2.33-3.2-3.58-5.94-3.49-2.76,.09-5.71,2.78-5.54,5.54,.15,2.4,.71,4.78,1.26,7.13,1.58,6.75,3.42,13.45,4.85,20.23,1.85,8.79,5.38,16.71,10.93,23.81,3.91,4.99,7.56,10.19,11.3,15.31,1.51,2.06,1.64,3.79,.5,5.25-1.76,2.24-4.68,2.22-6.46-.12-1.75-2.29-3.42-4.64-5.11-6.98-3.35-4.64-6.72-9.26-10.03-13.93-4-5.66-6.38-12.03-8-18.71-1.93-7.92-3.86-15.85-5.71-23.79-.6-2.58-1.26-5.21-1.34-7.83-.17-6.04,4-11.26,10.02-13.06,5.49-1.64,11.78,.57,14.99,5.44,1.58,2.4,2.89,4.97,4.32,7.46,.08,0,.16-.02,.24-.02Z"/>
  <path class="cls-1" d="M77.35,97.76c-.02-2.04,1.68-4.01,3.56-3.89,2.3,.15,3.94,1.27,4.05,3.83,.09,2.09-1.74,3.9-3.85,3.9-2.06,0-3.74-1.71-3.76-3.84Z"/>
</svg>