<?xml version="1.0" encoding="UTF-8"?>
<svg id="Layer_1" data-name="Layer 1" xmlns="http://www.w3.org/2000/svg" viewBox="0 0 200 200">
  <defs>
    <style>
      .cls-1 {
        fill: #5c2e63;
      }
    </style>
  </defs>
  <path class="cls-1" d="M23.15,138.32c1.35-.16,19.73-.23,24.67-.11,.25,0,.49,.05,.72,.07,.27,.45,.16,.9,.17,1.33,0,4.14,.02,8.28,0,12.42-.01,3.73,.8,7.28,2.61,10.6,3.83,7,9.88,11.27,18.11,12.8,1.37,.25,2.77,.35,4.17,.34,2.33-.01,4.66,0,6.99,0,22.8,0,45.61,0,68.41,0,3.13,0,6.16-.45,9.09-1.48,8.27-2.9,14.38-9.84,15.9-18.01,.28-1.49,.42-3,.42-4.51,0-34.51,0-69.01,0-103.52,0-6.14-2.08-11.57-6.45-16.16-4.24-4.46-9.57-7.01-15.89-7.73-1.01-.11-2.03-.12-3.05-.12-24.97,0-49.93,0-74.9-.01-5.15,0-9.91,1.21-14.16,3.92-6.14,3.92-9.83,9.34-10.96,16.24-.21,1.25-.26,2.53-.28,3.8-.04,3.26,0,6.53-.02,9.79,0,.43,.1,.87-.18,1.34-.22,.02-.46,.06-.7,.06-5.65,.13-23.28,.06-24.6-.11-.03-.2-.1-.43-.1-.65,0-4.3-.12-8.6,.05-12.89,.34-8.53,2.97-16.45,7.92-23.62C38.78,10.97,49.57,3.9,63.4,1.02,66.88,.29,70.43,0,74,0c17.93,0,35.86,0,53.79,0,7.08,0,14.16,.02,21.24,0,24.03-.07,43.92,15.44,49.46,36.25,1.03,3.88,1.5,7.82,1.5,11.82,0,19.86,0,39.72,0,59.58,0,14.81,.01,29.61,0,44.42-.01,9.31-2.59,17.95-7.96,25.77-7.43,10.82-17.83,17.81-31.17,20.89-3.8,.88-7.68,1.26-11.59,1.26-15.94,0-31.88,0-47.81,0-9.2,0-18.4,0-27.59,0-24.15,0-44.08-15.77-49.4-36.78-.89-3.53-1.36-7.12-1.35-10.76,.01-4.3,0-8.6,0-12.9,0-.39,.03-.78,.04-1.24Z"/>
  <path class="cls-1" d="M84.92,147.19c-.02-.71-.04-1.14-.04-1.57,0-8.88,0-17.75,0-26.63,0-.47,.07-.95-.08-1.33-.11-.09-.14-.12-.18-.14-.04-.02-.08-.03-.12-.03-.04,0-.08-.02-.12-.02-.04,0-.08,0-.13,0-.04,0-.08,0-.13,0s-.08,0-.13,0c-.08,0-.17,0-.25,0s-.17,0-.25,0c-27.47,0-54.93,0-82.4,0-.08,0-.17,0-.25,0-.04,0-.08,0-.13,0-.04,0-.08,0-.13,0-.04,0-.09,0-.13,0-.04,0-.08-.02-.12-.03-.04-.01-.08-.02-.19-.05-.04-.19-.1-.41-.13-.64-.02-.24,0-.48,0-.72,0-11.82,0-23.64,0-35.46v-1.35c.31-.06,.54-.13,.78-.14,.42-.02,.85,0,1.27,0,27,0,54,0,81,0,.54,0,1.1,.08,1.63-.09,.3-.37,.19-.78,.19-1.16,0-2.87,0-5.73,0-8.6,0-5.13,0-10.27,0-15.4,0-.43,0-.86,0-1.28,.49-.13,.71,.17,.96,.35,3.12,2.2,6.23,4.4,9.34,6.61,18.27,12.95,36.53,25.89,54.8,38.84,.37,.26,.73,.53,1.08,.79-.05,.47-.47,.58-.75,.79-7.58,5.5-15.17,10.98-22.76,16.47-13.63,9.86-27.26,19.72-40.9,29.58-.5,.36-1,.72-1.74,1.25Z"/>
</svg>