<?xml version="1.0" encoding="UTF-8"?>
<svg id="Layer_1" data-name="Layer 1" xmlns="http://www.w3.org/2000/svg" viewBox="0 0 199.98 200.01">
  <defs>
    <style>
      .cls-1 {
        fill: #5c2e63;
      }
    </style>
  </defs>
  <path class="cls-1" d="M157.12,200c-2-.38-4.03-.66-6.01-1.17-9.1-2.36-16.67-7.96-22.92-16.12-8.04-10.5-12.49-23.04-14.34-37-1.28-9.66-1.04-19.34-.05-29,3.51-34.3,16.44-62.91,36.87-86.89,10.39-12.18,22.19-21.98,35.38-29.34,.22-.12,.43-.23,.66-.33,.06-.03,.13,0,.32,0,4.08,8.86,8.19,17.79,12.27,26.66-3.14,2.19-6.25,4.2-9.23,6.46-12.99,9.89-23.77,22.47-31.98,38.13-5.03,9.6-8.75,19.86-10.43,31.07-.56,3.75-.77,7.57-1.16,11.46,1.92-1.17,3.54-2.35,5.28-3.17,5.05-2.39,10.33-2.66,15.66-1.96,7.71,1.02,14.6,4.37,20.41,10.62,6.31,6.8,9.96,15.38,11.44,25.3,1.61,10.81,.46,21.22-3.9,30.93-5.84,13-14.98,20.66-27.03,23.37-1.96,.44-3.96,.66-5.94,.98h-5.3Z"/>
  <path class="cls-1" d="M0,126.62c.12-1.62,.26-3.23,.37-4.85,1.29-19.99,6-38.77,14.13-56.26C27.81,36.91,46.83,15.48,71.38,1.09c.63-.37,1.29-.7,1.99-1.09,4.13,8.97,8.23,17.87,12.38,26.9-.74,.48-1.45,.92-2.15,1.38-18.77,12.16-33.56,29.09-43.27,52.05-4.27,10.1-6.89,20.78-7.19,32.18,0,.43,0,.87,0,1.5,.64-.49,1.16-.93,1.7-1.3,4.53-3.08,9.46-4.18,14.59-4.2,10.25-.04,19.23,3.85,26.48,12.73,5.58,6.83,8.75,15.16,9.93,24.54,1.74,13.83-.83,26.41-8.19,37.37-5.87,8.74-13.61,13.82-22.76,15.86-1.96,.44-3.95,.67-5.93,1h-5.31c-1.21-.19-2.42-.34-3.62-.57-10.06-1.94-18.38-7.71-25.15-16.7-8.32-11.03-12.64-24.23-14.27-38.81-.25-2.26-.41-4.53-.61-6.79v-10.52Z"/>
</svg>