<?xml version="1.0" encoding="UTF-8"?>
<svg id="Layer_1" data-name="Layer 1" xmlns="http://www.w3.org/2000/svg" viewBox="0 0 200 200">
  <defs>
    <style>
      .cls-1 {
        fill: #5c2e63;
      }
    </style>
  </defs>
  <path class="cls-1" d="M22.84,140.75c-2.15-.25-4.17-.28-6.1-.73C6.91,137.74,.05,128.34,.03,117.03-.01,85.87,0,54.72,.03,23.57,.04,11.5,7.65,1.91,18.4,.2c.91-.15,1.85-.19,2.77-.19C62.61,0,104.05,0,145.48,0c11.94,0,21.29,10.34,21.29,23.59,0,31.12,0,62.24,0,93.36,0,13.21-9.33,23.59-21.2,23.59-22.43,0-44.85,0-67.28-.01-.73,0-1.32,.19-1.91,.67-14.69,11.65-29.4,23.29-44.1,34.93-3.39,2.68-7.78,1.33-9.05-2.84-.29-.95-.36-2.02-.37-3.03-.03-9.45-.02-18.9-.02-28.36,0-.41,0-.82,0-1.15Zm11.55,17.87c.32-.22,.5-.32,.66-.44,12.16-9.62,24.33-19.23,36.47-28.88,1.38-1.1,2.83-1.62,4.52-1.61,23.12,.02,46.24,.02,69.36,0,5.69,0,9.8-4.58,9.8-10.89,0-31.06,0-62.11,0-93.17,0-6.16-4.18-10.79-9.73-10.79-41.35,0-82.7,0-124.05,0-5.67,0-9.82,4.58-9.82,10.89,0,31.06,0,62.11,0,93.17,0,6.19,4.14,10.77,9.72,10.79,2.31,.01,4.63,0,6.94,0,3.73,.02,6.12,2.69,6.12,6.84,0,7.59,0,15.17,0,22.76v1.33Z"/>
  <path class="cls-1" d="M165.61,181.08v-9.84c0-4.79,0-9.58,0-14.37,0-3.96,2.42-6.68,5.97-6.71,2.4-.02,4.8,0,7.21,0,5.39-.01,9.59-4.62,9.6-10.63,.03-10.22,0-20.45,0-30.67,0-20.9,0-41.8,0-62.69,0-4.82-2.47-8.84-6.43-10.26-1.19-.43-2.49-.48-3.75-.66-2.96-.42-5.19-3.35-5.03-6.65,.16-3.36,2.55-6.02,5.55-6.12,2.28-.07,4.5,.32,6.66,1.11,8.73,3.19,14.58,12.02,14.59,22.23,.03,31.28,.04,62.57,0,93.85-.02,13.03-9.44,23.35-21.16,23.35-.49,0-.98,0-1.63,0v1.25c0,9.26,0,18.52,0,27.78,0,.99,.01,2.01-.18,2.97-.89,4.5-5.52,6.46-8.97,3.79-3.61-2.79-7.17-5.66-10.75-8.49-11.22-8.88-22.43-17.76-33.66-26.61-.5-.39-1.2-.66-1.81-.66-14.61-.04-29.23-.03-43.84-.03-3.09,0-5.4-2-5.98-5.14-.71-3.81,1.82-7.47,5.32-7.68,.38-.02,.75-.02,1.13-.02,15.19,0,30.39,0,45.58-.02,1.69,0,3.14,.52,4.52,1.62,12.09,9.61,24.21,19.19,36.33,28.78,.2,.16,.42,.3,.78,.55Z"/>
  <path class="cls-1" d="M93.52,68.72c-.02,6.16-4.6,11.22-10.14,11.19-5.55-.02-10.12-5.11-10.1-11.25,.02-6.17,4.56-11.23,10.11-11.25,5.58-.01,10.15,5.08,10.13,11.3Z"/>
  <path class="cls-1" d="M54.53,68.73c0,6.14-4.52,11.17-10.06,11.19-5.56,.02-10.12-5.02-10.14-11.21-.01-6.2,4.5-11.25,10.08-11.29,5.6-.03,10.13,5.03,10.13,11.31Z"/>
  <path class="cls-1" d="M132.48,68.69c0,6.19-4.53,11.23-10.1,11.23-5.59,0-10.15-5.1-10.11-11.32,.03-6.18,4.61-11.22,10.15-11.18,5.58,.04,10.06,5.07,10.06,11.27Z"/>
</svg>