<?xml version="1.0" encoding="UTF-8"?>
<svg id="Layer_1" data-name="Layer 1" xmlns="http://www.w3.org/2000/svg" viewBox="0 0 200 200">
  <defs>
    <style>
      .cls-1 {
        fill: #5c2e63;
      }
    </style>
  </defs>
  <path class="cls-1" d="M20.36,169.24c-4.06,0-8.12,.1-12.17-.02-6.5-.19-9.28-3.92-7.8-10.29,5.89-25.27,11.8-50.53,17.69-75.8,5.58-23.95,11.15-47.9,16.73-71.85C36.6,3.63,41.08,.06,48.94,.05c18.68,0,37.37-.15,56.05,.05,12.57,.13,25.16,1.1,36.94,5.88,21.05,8.54,28.86,24.32,26.23,48.17-2.78,25.22-18.58,40.4-40.53,50.19-15.03,6.7-31.08,9.03-47.41,9.63-4.3,.16-8.6,.05-12.91,.06-8.54,.02-12.83,3.49-14.78,11.87-2.51,10.78-5.02,21.56-7.57,32.32-1.78,7.51-6.15,10.95-13.91,11.02-3.56,.03-7.13,0-10.69,0,0,0,0,0,0-.01ZM91.12,30.61c-.03,.22-.07,.44-.1,.66-2.09,0-4.18-.06-6.27,.01-6.18,.22-10.9,3.76-12.37,9.71-2.6,10.5-5.06,21.05-7.39,31.61-1.12,5.07,1.69,9.02,6.85,9.26,10.73,.5,21.39-.03,31.53-4.25,11.58-4.82,17.99-14.31,17.95-26.67-.03-9.22-3.93-14.97-12.84-17.4-5.63-1.54-11.55-1.99-17.34-2.93Z"/>
  <path class="cls-1" d="M180.33,41.22c6.7,3.09,11.68,7.82,14.7,14.27,6.77,14.43,6.23,29.25,.73,43.79-6.79,17.96-20.82,28.83-37.87,36.13-16.55,7.08-34.11,9.08-51.92,9.43-3.07,.06-6.15-.02-9.22,.03-6.58,.1-11.15,3.69-12.7,10.14-2.64,11-5.19,22.03-7.78,33.04-2.05,8.72-6.12,11.94-15.04,11.94-7.25,0-14.51-.02-21.76,.02-3.3,.02-6.78-.74-7.46-4.08-.66-3.26,.24-6.88,.75-10.3,.07-.44,1.86-.85,2.86-.88,3.69-.11,7.38-.02,11.06-.06,7.61-.09,12.12-3.68,13.89-11.17,2.55-10.77,5.05-21.56,7.52-32.35,1.87-8.18,6.15-11.72,14.5-11.68,17.52,.09,34.9-.96,51.72-6.45,17.19-5.61,32.08-14.6,41.65-30.45,9.3-15.41,10.54-31.95,5.14-49.04-.24-.77-.52-1.54-.77-2.31Z"/>
</svg>