<?xml version="1.0" encoding="UTF-8"?>
<svg id="Layer_1" data-name="Layer 1" xmlns="http://www.w3.org/2000/svg" viewBox="0 0 200 200">
  <defs>
    <style>
      .cls-1 {
        fill: #5c2e63;
      }
    </style>
  </defs>
  <path class="cls-1" d="M80.88,136.13c-1.35,1.94-2.76,3.91-4.11,5.93-.39,.59-.89,1.34-.85,1.99,.4,6.77,.9,13.53,1.79,20.4,6.92-12.65,13.84-25.29,20.85-38.1,6.24,4.74,13.75,4.93,20.39,7.97,3.86,1.77,7.75,3.51,11.43,5.69,4.5,2.67,7.16,7.11,7.86,12.77,1.94,15.48,3.77,30.98,5.64,46.47,.03,.21-.04,.43-.07,.76H0c.68-5.38,1.33-10.66,2-15.94,1.34-10.47,2.66-20.93,4.06-31.39,.76-5.68,3.56-9.88,7.93-12.76,5.96-3.92,12.52-6.15,19.11-8.3,4.31-1.41,8.58-3,13.19-4.62,6.48,12.05,13.25,24.63,20.33,37.8,.17-1.47,.3-2.32,.36-3.18,.39-5.43,.82-10.85,1.09-16.29,.06-1.11-.3-2.4-.84-3.35-1.13-2-2.5-3.83-3.75-5.7,3.32-7.09,12.18-8.99,17.4-.15Z"/>
  <path class="cls-1" d="M87.52,50.66c2.28-6.87,5.3-13.1,9.48-18.57,7.05-9.21,15.69-15.67,26.2-18.84,1.03-.31,1.56-.77,1.85-2.02C126.59,4.38,131.53-.03,137.45,0c6.02,.03,10.85,4.32,12.42,11.2,.29,1.25,.86,1.68,1.85,2.02,18.62,6.27,30.75,19.89,36.52,40.59,.4,1.43,.91,2.04,2.24,2.41,5.65,1.59,9.49,7.21,9.53,13.62,.04,6.53-3.78,12.19-9.52,13.85-1.4,.4-1.92,1.18-2.33,2.64-5.77,20.65-18,34.07-36.46,40.41-1.08,.37-1.54,.86-1.84,2.02-1.78,6.95-6.6,11.16-12.53,11.05-5.94-.11-10.59-4.34-12.33-11.11-.17-.67-.74-1.56-1.27-1.72-10.39-3.11-18.94-9.45-26.1-18.29-.09-.11-.21-.19-.43-.4-7.45,9.17-16.77,13.47-27.84,12.61-7.72-.6-14.43-4-20.1-9.9-12.08-12.56-14.21-32.72-4.93-48.2,8.86-14.79,27-21.38,43.2-12.15Zm62.05-31.55c-2.44,5.92-6.28,9.32-12.04,9.36-5.86,.04-9.72-3.48-12.19-9.24-5.42,1.52-10.29,4.09-14.72,7.63-8.19,6.54-14.25,14.92-17.37,25.78-.44,1.53-.12,2.33,.89,3.32,1.53,1.51,3.09,3.09,4.28,4.93,8.14,12.6,9.39,25.93,3.21,40.01-.29,.65-.34,1.87,.02,2.38,6.09,8.78,14.18,14.18,23.71,17.34,2.45-5.81,6.32-9.24,12.04-9.28,5.82-.05,9.71,3.49,12.16,9.13,16.83-4.47,30.43-21.81,33.05-37.05-.04-.05-.08-.13-.13-.16-4.88-2.57-7.78-6.77-7.93-12.88-.15-6.1,2.46-10.48,7.23-13.38,.45-.27,.85-1.55,.66-2.09-1.33-3.76-2.53-7.64-4.33-11.12-6.43-12.44-15.99-20.52-28.51-24.66Z"/>
  <path class="cls-1" d="M163.82,50.03c-.62,.99-1.03,1.96-1.68,2.66-1.57,1.7-1.65,3.53-.83,5.66,.85,2.24,1.57,4.36,4.37,4.28,2.85-.08,3.61,.74,3.76,3.84,.13,2.67,.02,5.36-.15,8.03-.12,1.86-1.11,2.92-2.91,2.72-2.26-.25-3.77,.71-4.65,3.16-.91,2.54-1.64,4.82,.62,7.07,1.67,1.66,1.54,3.09-.05,4.91-1.58,1.81-3.18,3.61-4.8,5.37-1.55,1.69-2.82,1.85-4.23,.03-2.07-2.68-4.17-1.79-6.5-.73-2.22,1-2.92,2.8-2.75,5.28,.13,1.87-.73,2.99-2.35,3.07-2.66,.13-5.32,.12-7.98,.06-1.97-.05-2.87-1.46-2.69-3.5,.28-3.1-1.31-4.31-3.56-5.32-2.15-.96-3.88-.96-5.58,1.03-1.61,1.88-2.7,1.79-4.36-.01-1.62-1.76-3.23-3.54-4.8-5.36-1.57-1.82-1.71-3.11-.08-4.7,2.26-2.19,1.76-4.43,.81-7.03-.92-2.51-2.42-3.57-4.78-3.33-1.94,.2-2.81-1.06-2.89-2.99-.11-2.67-.15-5.36-.03-8.04,.13-2.77,.86-3.65,3.32-3.53,2.67,.13,3.71-1.48,4.6-3.91,.87-2.39,.96-4.31-.86-6.23-1.82-1.91-1.73-2.99,.03-5.04,1.52-1.76,3.07-3.5,4.65-5.21,1.66-1.81,2.87-1.95,4.38-.04,1.92,2.42,3.87,1.87,6.11,.83,2.09-.97,3.16-2.37,3.06-5.03-.09-2.61,.66-3.45,3.03-3.6,2.39-.15,4.79-.11,7.18,.01,1.81,.09,2.98,1.08,2.8,3.37-.2,2.52,.68,4.17,2.88,5.16,2.29,1.02,4.3,1.81,6.31-.72,1.53-1.93,2.7-1.8,4.37,.02,1.62,1.76,3.24,3.54,4.79,5.38,.53,.63,.88,1.46,1.44,2.4Zm-26.34,1.79c-9.06,0-16.25,8.03-16.33,18.25-.08,9.68,7.54,18.15,16.3,18.14,8.79,0,16.41-8.45,16.35-18.12-.06-10.16-7.31-18.28-16.32-18.27Z"/>
</svg>