<?xml version="1.0" encoding="UTF-8"?>
<svg id="Layer_1" data-name="Layer 1" xmlns="http://www.w3.org/2000/svg" viewBox="0 0 200 200">
  <defs>
    <style>
      .cls-1 {
        fill: #5c2e63;
      }
    </style>
  </defs>
  <path class="cls-1" d="M146.87,200c-3.11-1.31-5.12-3.32-4.99-6.83,.02-.4-.53-1-.96-1.19-1.59-.71-3.25-1.29-5.04-1.98-.42,.36-.91,.79-1.42,1.2-2.57,2.06-6.13,2.16-8.56,0-2.94-2.61-5.77-5.34-8.49-8.15-.92-.95-1.37-2.32-2.17-3.75h-2.14c-36.02,0-72.03,0-108.05,0-.61,0-1.22,.02-1.83,0-2.04-.1-3.28-1.28-3.22-3.03,.05-1.66,1.27-2.77,3.23-2.81,2.57-.05,5.14-.01,7.96-.01,0-.93,0-1.68,0-2.44,0-13.67,0-27.34,0-41.01,0-.71-.04-1.45,.1-2.14,.32-1.62,1.36-2.55,3.13-2.46,1.75,.09,2.7,1.08,2.85,2.74,.06,.65,.03,1.3,.03,1.95,0,13.6,0,27.21,0,40.81,0,.77,0,1.54,0,2.42h14.19c.03-.66,.1-1.34,.1-2.02,0-30.33,0-60.67,.02-91,0-1.24-.35-2.04-1.33-2.99-1.05-1.02-1.86-2.61-2.03-4.03-.32-2.63-.15-5.33-.08-8,.08-3.16,2.33-5.37,5.6-5.6,.61-.04,1.22-.04,1.83-.04,41.18,0,82.36-.01,123.54,.04,1.57,0,3.26,.31,4.68,.93,1.76,.77,2.65,2.43,2.69,4.31,.07,2.86,.22,5.75-.08,8.58-.15,1.35-1.02,2.84-2.02,3.84-.89,.87-1.31,1.59-1.31,2.78,.04,10.42,0,20.83,.07,31.25,0,.89,.75,1.77,1.13,2.66,.64,1.53,1.21,3.08,1.9,4.58,.28,.61,.74,1.18,1.23,1.67,.25,.25,.77,.25,1.12,.44,2.14,1.14,4.17,1.86,6.16-.4,.53-.61,1.68-.72,2.7-1.12v-1.87c0-20.24-.02-40.49,.04-60.73,0-1.41-.47-2.2-1.69-2.96-24.89-15.35-49.77-30.73-74.61-46.15-1.3-.81-2.2-.93-3.6-.1-26.15,15.5-52.34,30.95-78.56,46.36-1.26,.74-1.72,1.51-1.72,2.92,.05,18.75,.03,37.49,.03,56.24,0,.78,.24,1.74-.14,2.3-.63,.93-1.55,1.97-2.58,2.3-1.42,.45-2.65-.41-3.12-1.83-.24-.72-.26-1.54-.26-2.31-.01-19.59,.01-39.19-.04-58.78,0-2.2,.78-3.58,2.76-4.75C41.87,33.41,69.78,16.92,97.7,.45c.23-.13,.43-.3,.65-.45,.68,0,1.36,0,2.04,0,.09,.1,.16,.22,.26,.28,26.64,16.46,53.26,32.94,79.94,49.35,2.12,1.31,3.02,2.77,3.01,5.23-.09,21.8-.04,43.6-.08,65.4,0,1.35,.37,2.31,1.4,3.23,1.94,1.72,3.81,3.53,5.63,5.37,2.17,2.2,2.87,5.42,.9,7.46-2.1,2.18-1.48,3.92-.35,5.97,.09,.17,.19,.36,.22,.54,.24,1.3,.96,1.72,2.39,1.72,3.36,0,6.09,2.42,6.19,5.54,.14,4.03,.12,8.07,0,12.1-.08,2.56-2.3,5.21-4.9,5.24-2.78,.03-3.79,1.3-4.36,3.48-.1,.37-.28,.74-.49,1.07-.61,.95-.55,1.64,.34,2.54,2.78,2.84,2.66,6.23-.19,9.02-2.42,2.37-4.88,4.71-7.35,7.04-3.05,2.87-6.5,2.91-9.78,.19-.37-.31-.99-.74-1.32-.63-1.73,.57-3.41,1.27-5.07,2.01-.3,.14-.56,.72-.55,1.09,.07,3.49-1.87,5.55-5.09,6.74h-14.27ZM34.39,72.95h2.62c17.74,0,35.47,0,53.21,0,3.21,0,4.62,.85,4.68,2.82,.06,2.04-1.47,3.04-4.71,3.04-16.65,0-33.3,0-49.95,0-.78,0-1.57,.06-2.35,.1v94.37h13.58c0-.87,0-1.58,0-2.29,0-10.35-.01-20.7,0-31.05,0-3.62,2.02-5.52,5.79-5.55,1.09-.01,2.17,0,3.26,0,4.39,0,8.79,0,13.35,0,0-.92,0-1.62,0-2.32,0-10.35,0-20.7,0-31.05,0-3.75,1.97-5.66,5.88-5.67,13.05-.01,26.1-.01,39.14,0,3.9,0,5.9,1.92,5.91,5.65,.02,6.18,0,12.37,0,18.55,0,.62,0,1.24,0,1.99,4.76-2.94,6.03-2.89,10.52,.2,.31,.21,.88,.31,1.22,.18,1.77-.65,3.5-1.4,5.24-2.11,.69-6.18,2.44-7.68,8.98-7.68,2.02,0,4.03,0,6.12,0v-33.33h-2.51c-15.56,0-31.12,0-46.69,0-3.23,0-4.79-1-4.74-3.02,.05-1.96,1.5-2.84,4.68-2.84,16.72,0,33.44,0,50.15,0h2.53v-7.34H34.39v7.34Zm159.31,88.87v-11.46c-1.31,0-2.46,0-3.61,0-1.78,0-2.87-.8-3.52-2.41-1.09-2.72-2.26-5.42-3.49-8.08-.68-1.48-.65-2.78,.61-3.91,.93-.83,1.92-1.6,2.52-2.09-3.09-2.98-5.83-5.63-8.76-8.46-.51,.53-1.16,1.28-1.88,1.96-1.87,1.78-2.7,1.81-5.05,.75-2.45-1.1-4.94-2.16-7.51-2.96-2.1-.65-3.01-1.82-2.94-3.85,.04-1.02,0-2.04,0-3.13h-12.04c0,1.34,.02,2.5,0,3.67-.04,1.62-.89,2.59-2.49,3.18-2.84,1.03-5.67,2.14-8.44,3.35-1.66,.73-3.05,.58-4.23-.69-.81-.87-1.48-1.85-2.04-2.57-3.23,3.14-5.97,5.79-9.02,8.76,.58,.44,1.44,.98,2.17,1.66,1.88,1.77,1.9,2.59,.79,4.84-1.15,2.34-2.26,4.73-3.1,7.18-.69,1.99-1.9,2.89-4.03,2.82-1.07-.04-2.13,0-3.3,0v11.46c1.11,0,2.11,0,3.11,0,2.7,.02,3.35,.59,4.26,3.01,.9,2.37,1.9,4.73,3.08,6.98,.96,1.82,1,3.36-.67,4.71-.87,.71-1.84,1.3-2.49,1.75,3.25,3.15,5.95,5.77,9.17,8.89,.5-.69,.97-1.58,1.67-2.27,1.92-1.91,2.72-1.9,5.22-.78,2.45,1.1,4.95,2.12,7.51,2.94,1.98,.64,2.92,1.75,2.85,3.71-.03,1.08,0,2.16,0,3.26h12.04c0-1.28,0-2.43,0-3.59,0-1.71,.89-2.72,2.58-3.32,2.79-.99,5.56-2.06,8.25-3.26,1.74-.78,3.11-.57,4.42,.7,.84,.82,1.73,1.58,2.41,2.21,2.89-2.76,5.61-5.37,8.78-8.41-.67-.47-1.57-.96-2.3-1.63-1.96-1.82-1.98-2.68-.84-4.99,1.13-2.28,2.12-4.63,3.02-7.01,.85-2.27,1.58-2.87,4.15-2.9,1-.01,2.01,0,3.13,0Zm-136-21.48v32.96h38.49v-32.92h-10.89c0,3.31,0,6.48,0,9.66,0,3.01-.96,3.9-4.16,3.91-2.85,0-5.7,.01-8.56,0-3.03-.01-3.99-.95-4-3.87-.01-3.23,0-6.46,0-9.75h-10.88Zm50.02-39.06c0,3.5,.02,6.87,0,10.23-.02,2.16-1.04,3.33-3.06,3.37-3.53,.07-7.06,.07-10.59,0-1.9-.03-2.96-1.12-3.05-2.97-.05-1.04-.02-2.08-.02-3.12,0-2.5,0-5.01,0-7.47h-10.84v32.93h34.78c1.03-2.07,1.89-3.76,2.7-5.47,.42-.89,1.03-1.83,1.04-2.75,.08-7.61,.05-15.22,.04-22.83,0-.62-.06-1.25-.1-1.93h-10.88Zm10.8,72.06c-.65-1.51-1.3-2.86-1.79-4.26-.35-.99-.83-1.4-2-1.44-4.18-.16-6.57-2.62-6.6-6.62-.02-3.32-.02-6.63,0-9.95,.03-3.95,2.52-6.36,6.68-6.58,.53-.03,1.31-.21,1.5-.56,.59-1.11,.96-2.33,1.43-3.53h-15.15v32.94h15.93Zm-17.01-72.02h-4.27v7.59h4.27v-7.59Zm-22.45,46.74v-7.66h-4.19v7.66h4.19Z"/>
  <path class="cls-1" d="M99.32,29.63c1.77,0,3.53-.04,5.3,.01,1.87,.06,3.03,1.1,3.13,2.69,.1,1.67-1.03,3.04-2.93,3.1-3.73,.11-7.47,.1-11.2,0-1.76-.05-2.97-1.39-2.98-2.9,0-1.6,1.29-2.78,3.18-2.89,.14,0,.27,0,.41,0,1.7,0,3.4,0,5.09,0h0Z"/>
  <path class="cls-1" d="M99.36,41.34c1.77,0,3.53-.04,5.3,.01,1.85,.06,3.01,1.13,3.09,2.72,.08,1.67-1.06,3.01-2.97,3.07-3.73,.1-7.47,.1-11.2,0-1.75-.05-2.95-1.42-2.94-2.94,.02-1.6,1.32-2.79,3.22-2.84,1.83-.05,3.67-.01,5.5,0Z"/>
  <path class="cls-1" d="M172.28,155.98c.06,9.69-8.04,17.5-18.17,17.52-10.05,.02-18.21-7.67-18.28-17.23-.07-9.71,7.98-17.56,18.08-17.63,10.15-.06,18.31,7.64,18.38,17.33Zm-18.26-11.47c-6.77,.02-12.13,5.21-12.08,11.71,.05,6.36,5.44,11.44,12.15,11.43,6.7,0,12.04-5.1,12.07-11.5,.03-6.47-5.37-11.66-12.14-11.64Z"/>
</svg>