<?xml version="1.0" encoding="UTF-8"?>
<svg id="Layer_1" data-name="Layer 1" xmlns="http://www.w3.org/2000/svg" viewBox="0 0 200 200">
  <defs>
    <style>
      .cls-1 {
        fill: #5a2b5f;
      }
    </style>
  </defs>
  <path class="cls-1" d="M160.32,0c1.1,.33,2.23,.59,3.3,1.01,3.42,1.36,4.88,4.14,5.28,7.6,.09,.74,.07,1.49,.07,2.24,0,31.39,0,62.78,0,94.17v1.34c-4.23-2.75-8.96-2.81-13.73-3.19V13.38H13.78V186.51h1.36c29.03,0,58.06,0,87.09-.02,.92,0,1.46,.21,1.89,1.08,1.53,3.13,4.05,5.41,6.72,7.53,1.67,1.33,3.41,2.58,5.11,3.87,.26,.2,.51,.42,.9,.76-.45,.03-.74,.07-1.02,.07-34.62,0-69.24,0-103.86,0-4.2,0-7.54-1.58-10.04-5.05-1.23-1.71-1.78-3.53-1.92-5.55-.03-.51-.02-1.02-.02-1.53C0,129.14,0,70.61,.02,12.08c0-1.22-.01-2.49,.34-3.63C1.72,3.96,4.74,1.17,9.38,.2,9.61,.16,9.83,.07,10.05,0c50.09,0,100.18,0,150.27,0Z"/>
  <path class="cls-1" d="M155.27,113.23c1.23,0,2.45-.01,3.68,0,1.92,.02,3.05,1.09,3.13,3.01,.05,1.29,.02,2.58,.01,3.88,0,2.19,.93,3.78,3,4.62,2.23,.91,4.45,1.87,6.72,2.68,2.24,.8,4.04-.2,5.63-1.68,.82-.76,1.58-1.6,2.4-2.37,1.35-1.27,3.14-1.28,4.48,0,1.42,1.37,2.8,2.79,4.2,4.17,.29,.28,.61,.53,.93,.77,1.56,1.15,1.47,3.53-.05,4.76-1.21,.98-2.35,2.08-3.32,3.29-1.07,1.34-1.15,2.96-.54,4.55,.79,2.03,1.61,4.04,2.47,6.03,.86,2,2.56,2.84,4.61,2.99,1.39,.11,2.79,.01,4.19,.02,2.05,.02,3.17,1.13,3.18,3.15,.01,2.35,.02,4.69,0,7.04-.02,1.96-1.15,3.09-3.12,3.11-1.09,.02-2.18,0-3.27,0-3.24,0-4.71,.98-5.92,3.93-.67,1.63-1.34,3.27-2.02,4.9-.84,2.02-.48,3.98,1.08,5.53,.94,.93,1.92,1.82,2.9,2.69,1.27,1.13,1.32,3.18,.08,4.37-1.64,1.57-3.3,3.13-4.92,4.72-1.9,1.85-3.49,1.86-5.37,.02-1.01-1-2.03-2-3.14-2.89-1.3-1.05-2.86-1.34-4.43-.75-2.41,.91-4.79,1.91-7.16,2.93-1.71,.74-2.46,2.18-2.55,3.96-.07,1.39,0,2.79-.02,4.18-.03,1.96-1.17,3.11-3.12,3.12-2.52,.02-5.04,.02-7.56,0-1.87-.02-2.99-1.1-3.05-2.96-.04-1.29,0-2.58-.01-3.88-.02-2.43-1.07-3.92-3.33-4.81-2.09-.82-4.15-1.7-6.25-2.48-1.9-.71-3.6-.27-5.07,1.13-1.03,.98-2.07,1.95-3.12,2.91-1.31,1.19-3.06,1.25-4.35,.04-2.02-1.91-3.99-3.89-5.95-5.88-.74-.75-.57-2.38,.21-3.16,1.14-1.12,2.28-2.25,3.38-3.41,1.45-1.54,1.76-3.33,.99-5.28-.76-1.93-1.66-3.8-2.36-5.75-.72-2-2.96-3.18-4.79-3.19-1.4,0-2.79,.01-4.19,0-1.96-.03-3.09-1.16-3.11-3.13-.02-2.35-.02-4.69,0-7.04,.02-1.97,1.16-3.1,3.11-3.13,1.33-.02,2.66-.01,3.99,0,2.07,.01,4.31-1.18,5.08-3.38,.66-1.89,1.53-3.7,2.26-5.57,.77-1.95,.45-3.74-1.01-5.28-1.08-1.14-2.17-2.25-3.28-3.36-1-1.01-.98-2.44,.05-3.46,1.76-1.75,3.49-3.53,5.25-5.29,1.56-1.56,3.36-1.56,4.94-.04,1.03,.98,2.06,1.97,3.13,2.9,1.8,1.57,3.79,1.38,5.84,.54,1.98-.81,4.01-1.51,5.94-2.43,1.57-.75,2.45-2.14,2.53-3.91,.06-1.39,0-2.79,.02-4.18,.03-2.16,1.14-3.26,3.29-3.28,1.23,0,2.45,0,3.68,0Zm-17.34,42.57c.14,3.22,.51,5.48,1.67,7.65,1.61,3,3.61,5.49,6.57,7.3,7.86,4.79,19.45,3.03,24.66-6.9,2.65-5.06,2.52-10.37-.61-15.4-4.14-6.65-10.18-9.3-17.8-8.22-6.67,.95-11.07,5-13.53,11.12-.66,1.63-.76,3.49-.95,4.45Z"/>
  <path class="cls-1" d="M137.81,76.67v13.2H58.78v-13.2h79.03Z"/>
  <path class="cls-1" d="M58.77,56.53v-13.19h79.06v13.19H58.77Z"/>
  <path class="cls-1" d="M58.77,123.16v-13.19h54.88v13.19H58.77Z"/>
  <path class="cls-1" d="M58.77,156.44v-13.19h44.66v13.19H58.77Z"/>
  <path class="cls-1" d="M44.7,89.87h-13.6v-13.23h13.6v13.23Z"/>
  <path class="cls-1" d="M44.69,56.53h-13.62v-13.21h13.62v13.21Z"/>
  <path class="cls-1" d="M44.71,109.97v13.21h-13.65v-13.21h13.65Z"/>
  <path class="cls-1" d="M44.71,156.46h-13.65v-13.21h13.65v13.21Z"/>
</svg>