<?xml version="1.0" encoding="UTF-8"?>
<svg id="Layer_1" data-name="Layer 1" xmlns="http://www.w3.org/2000/svg" viewBox="0 0 200 200">
  <defs>
    <style>
      .cls-1 {
        fill: #5c2e63;
      }
    </style>
  </defs>
  <path class="cls-1" d="M0,185c1.13-1.49,2.66-1.77,4.45-1.77,10.48,.06,20.96,.03,31.44,.02,3.45,0,4.11-.67,4.11-4.13,0-7.38,0-14.75,0-22.13,0-.59-.03-1.18,.03-1.76,.19-1.87,1.35-2.96,3.03-2.89,1.6,.06,2.71,1.13,2.75,2.95,.08,3.46,.04,6.92,.04,10.38,0,2.21,0,4.41,0,6.58,3.36,.41,6.54,.64,9.65,1.2,5.26,.95,9.89,3.51,14.48,6.13,6.66,3.8,13.24,7.77,20.05,11.29,8.12,4.2,16.58,4.19,24.89,.53,10.11-4.45,20.12-9.14,30.15-13.78,13.57-6.29,27.11-12.63,40.66-18.95,3.77-1.76,7-4.08,8.11-8.41,1.19-4.62-1.73-8.9-6.49-9.11-2.22-.1-4.62,.17-6.67,.96-17.59,6.76-35.13,13.67-52.67,20.56-.56,.22-1.14,.65-1.49,1.14-4.3,5.89-9.57,7.78-16.56,5.62-2.33-.72-4.65-1.74-6.71-3.05-8.95-5.69-17.82-11.53-26.68-17.36-.77-.51-1.75-1.33-1.83-2.1-.11-1,.32-2.33,.99-3.08,.98-1.1,2.36-.8,3.57,0,4.2,2.74,8.4,5.47,12.6,8.21,4.58,2.98,9.13,6.02,13.76,8.94,1.64,1.03,3.39,1.97,5.2,2.64,6.51,2.4,11.58-.79,12.12-7.73,.59-7.62-1.62-14.52-7.69-19.18-9.08-6.97-18.63-13.35-29.77-16.77-10.1-3.1-20.06-3.34-29.91,1.02-2.55,1.13-5.19,2.08-7.83,2.99-1.41,.49-2.01,1.17-1.96,2.79,.13,4.89,.08,9.79,.02,14.69-.02,1.96-1.28,3.23-2.95,3.19-1.6-.04-2.72-1.24-2.87-3.11-.04-.58-.02-1.17-.02-1.76,0-7.38,0-14.75,0-22.13,0-3.48-.62-4.09-4.13-4.09-10.48,0-20.96-.03-31.44,.02-1.79,0-3.32-.3-4.43-1.81v-2.35c1.14-1.47,2.66-1.81,4.45-1.77,3.77,.09,7.55,.03,11.32,.03,7.03,0,14.05-.04,21.08,.01,5.41,.04,8.8,3.37,9.01,8.7,.02,.61,.08,1.23,.13,1.93,4.62-1.7,8.97-3.39,13.4-4.86,1.27-.42,1.55-.97,1.55-2.18-.04-10.57-.02-21.14-.02-31.71,0-.52,.02-1.04,0-1.57-.06-1.34-.51-2.01-1.97-1.27-1.04,.53-2.23,.79-3.21,1.39-.58,.36-1.2,1.12-1.27,1.76-.39,3.81-2.5,6.09-6.22,6.2-3.51,.11-7.03,.12-10.54,0-3.67-.12-5.95-2.58-6.1-6.27-.02-.39-.04-.77-.06-1.2-1.35-.56-2.7-1.03-3.96-1.68-1.08-.56-1.79-.48-2.72,.38-2.49,2.29-5.9,2.35-8.3,.1-2.71-2.53-5.34-5.17-7.88-7.87-2.03-2.15-2.39-5.45-.5-7.51,1.54-1.68,1.47-3.01,.44-4.72-.33-.55-.4-1.26-.75-1.79-.27-.41-.78-.95-1.18-.94-3.39,.04-5.4-1.81-6.7-4.72v-13.71c1.38-2.85,3.42-4.67,6.81-4.58,.35,0,.87-.49,1.05-.88,.69-1.47,1.26-2.99,1.63-3.87-.93-2.34-2.14-4.18-2.27-6.1-.1-1.46,.9-3.24,1.9-4.47,1.76-2.16,3.9-4.02,5.88-6,4.13-4.13,6.62-4.24,11.07-.46,1.55-.62,3.14-1.18,4.65-1.92,.43-.21,.83-.93,.87-1.45C31.94,2.17,34.18,.04,38.41,.02c3.25-.02,6.51-.04,9.76,0,3.58,.05,6.05,2.36,6.19,5.93,.05,1.28,.51,1.83,1.66,2.2,1.35,.43,2.63,1.07,3.64,1.49,1.55-.88,2.81-1.9,4.24-2.35,2.2-.68,4.24,0,5.9,1.66,2.08,2.07,4.16,4.14,6.22,6.22,3.92,3.96,4,6.61,.25,10.88,.61,1.5,1.18,3.07,1.9,4.58,.2,.42,.79,.84,1.25,.91,4.98,.75,6.46,2.38,6.59,7.42,0,.26,.04,.51,.09,1.1,.81,0,1.62,0,2.44,0,28.77,0,57.54,0,86.31,0,6.22,0,10.89,3.28,12.4,8.76,.38,1.36,.52,2.83,.53,4.25,.04,10.45,.03,20.89,.01,31.34,0,.71-.03,1.45-.24,2.12-.44,1.43-1.52,2.15-2.97,2.01-1.43-.14-2.39-.99-2.59-2.49-.08-.64-.06-1.3-.06-1.96,0-10.25,0-20.5,0-30.75,0-5.04-2.38-7.4-7.44-7.4-11.13,0-22.26,0-33.39,0-.58,0-1.16,0-2.06,0,0,.78,0,1.46,0,2.15,0,8.29,0,16.58,0,24.88,0,4.61-2.06,6.66-6.68,6.67-5.47,0-10.94,.02-16.4,0-4.15-.02-6.26-2.1-6.27-6.25-.03-8.36,0-16.71,0-25.07,0-.7,0-1.41,0-2.24h-23.67c0,.72,.02,1.47,0,2.22-.1,3.43-2.43,6.04-5.81,6.14-1.49,.04-2.12,.6-2.4,1.89-.03,.13-.06,.26-.12,.37-1.01,1.93-1.65,3.56,.33,5.61,1.68,1.74,1.55,4.49-.06,6.36-3.29,3.84-6.7,7.62-11.09,10.58v32.68c2.9,0,5.76-.2,8.57,.04,10.39,.88,19.82,4.66,28.64,10.04,4.16,2.54,8.25,5.23,12.27,8,8.39,5.79,12.46,13.92,12.65,24.08,0,.52,0,1.04,0,1.86,17.69-6.91,35.22-13.75,52.95-20.68,0-.58,0-1.35,0-2.13-.07-10.51-.13-21.02-.2-31.53,0-.65-.05-1.31,.03-1.96,.21-1.68,1.46-2.82,2.99-2.78,1.54,.04,2.75,1.22,2.8,2.93,.08,2.54,.05,5.09,.06,7.64,.06,8.55,.11,17.11,.18,25.66,0,.64,.06,1.28,.09,2.01,5.1,.77,8.96,3.18,11.04,7.99,.44,1.01,.73,2.08,1.09,3.12v4.31c-1.66,6.95-6.34,11.02-12.6,13.88-14.02,6.4-27.93,13.02-41.91,19.5-9.44,4.37-18.85,8.81-28.39,12.94-8.35,3.62-17,4.39-25.64,.97-3.92-1.55-7.73-3.43-11.42-5.46-6.5-3.56-12.81-7.48-19.33-10.99-4.54-2.45-9.55-3.05-14.65-2.92-.09,.39-.16,.58-.17,.77-.42,7.19-3.28,9.93-10.4,9.93-10.35,0-20.7-.03-31.05,.03-1.79,0-3.32-.31-4.43-1.81v-2.35ZM80.03,37.45c-1.08,0-2.11-.03-3.13,0-1.98,.06-3.05-.87-3.69-2.76-.83-2.46-1.83-4.88-2.99-7.2-.91-1.82-.73-3.25,.76-4.53,.79-.67,1.67-1.24,2.16-1.61-2.96-3.01-5.5-5.59-8.27-8.4-.46,.56-1,1.31-1.64,1.96-1.85,1.86-2.61,1.87-5,.74-2.28-1.08-4.63-2.07-7.02-2.88-1.83-.62-2.67-1.72-2.65-3.59,0-1.03,0-2.05,0-3.13h-11.09c0,1.07-.04,1.98,0,2.89,.1,2.06-.82,3.21-2.79,3.89-2.51,.86-4.96,1.92-7.36,3.07-1.66,.79-3.02,.68-4.21-.68-.72-.83-1.34-1.75-1.87-2.44-2.98,3-5.52,5.56-8.31,8.38,.6,.5,1.36,1.11,2.09,1.76,1.56,1.36,1.67,2.85,.72,4.72-1.14,2.25-2.09,4.62-2.9,7.02-.66,1.97-1.8,2.92-3.87,2.82-1-.05-2.01,0-2.98,0v11.16c1.05,0,1.95,0,2.85,0,2.59,.02,3.23,.54,4.03,3.05,.45,1.42,.76,2.99,1.58,4.19,2.5,3.63,2.34,6.69-1.37,9.31-.05,.03-.06,.11,.07-.15,2.61,2.66,5.14,5.25,8.06,8.24,.45-.62,.91-1.43,1.54-2.08,1.78-1.84,2.71-1.92,5.01-.76,1.33,.68,2.65,1.55,4.07,1.83,4.23,.83,6.47,2.97,5.71,7.52,0,.05,.04,.12,.1,.26h10.9c0-1.27-.02-2.37,0-3.47,.04-1.62,.84-2.62,2.37-3.21,2.67-1.01,5.31-2.1,7.91-3.26,1.49-.66,2.8-.62,3.91,.59,.78,.86,1.42,1.86,1.95,2.56,3.01-3.03,5.55-5.59,8.19-8.25-.67-.65-1.54-1.44-2.35-2.28-1.07-1.11-1.18-2.33-.54-3.77,1.2-2.67,2.31-5.38,3.37-8.1,.57-1.45,1.5-2.23,3.07-2.23,1.15,0,2.31,0,3.56,0v-11.17Zm35.66,8.48v27.66h17.38v-27.57c-.48-.03-.86-.08-1.24-.08-5.32,0-10.65,0-16.14,0Z"/>
  <path class="cls-1" d="M158.17,124.24c2.73,0,5.47-.02,8.2,0,2.12,.02,3.45,1.15,3.47,2.88,.02,1.73-1.32,2.97-3.4,2.98-5.53,.03-11.06,.03-16.59,0-2.09-.01-3.39-1.24-3.35-3,.04-1.75,1.33-2.84,3.48-2.86,2.73-.03,5.47,0,8.2,0Z"/>
  <path class="cls-1" d="M158.2,112.39c2.73,0,5.46-.03,8.19,0,2.12,.03,3.44,1.19,3.44,2.9,0,1.71-1.34,2.93-3.44,2.94-5.53,.04-11.06,.05-16.58,0-2.12-.02-3.38-1.27-3.32-3.03,.05-1.68,1.28-2.77,3.32-2.81,2.8-.04,5.59-.01,8.39-.01Z"/>
  <path class="cls-1" d="M20.98,43.09c-.04-12.2,9.93-22.21,22.07-22.16,12.09,.05,21.99,9.95,22.05,22.05,.05,12.06-9.88,22.08-21.94,22.13-12.24,.05-22.14-9.78-22.18-22.02Zm21.84,16.14c9.01,.07,16.37-7.18,16.4-16.16,.04-8.85-7.24-16.19-16.13-16.27-8.86-.08-16.18,7.17-16.26,16.09-.08,8.94,7.1,16.27,15.98,16.34Z"/>
</svg>