<?xml version="1.0" encoding="UTF-8"?>
<svg id="Layer_1" data-name="Layer 1" xmlns="http://www.w3.org/2000/svg" viewBox="0 0 200 200">
  <defs>
    <style>
      .cls-1 {
        fill: #5c2e63;
      }
    </style>
  </defs>
  <path class="cls-1" d="M0,61c5-1.62,6-1.01,6.01,4.09,.04,21.5,.02,43,.02,64.5,0,1.82,0,3.64,0,5.85H127.61c0-2.06,0-4.01,0-5.96,0-26,0-52,0-78,0-1.33-.37-2.84,.13-3.96,.61-1.4,1.94-2.48,2.97-3.69,.99,1.28,2.66,2.46,2.84,3.84,.42,3.26,.14,6.61,.14,10.78h17.1q21.93,0,33.13,18.61c5.39,8.96,10.72,17.95,16.08,26.93v69c-2.03,.52-4.04,1.39-6.09,1.49-4.58,.23-9.18,.07-14.08,.07,0,13.16-6.42,21.13-17.83,25.44h-12c-8.28-3.89-14.88-9.26-16.6-18.89-.37-2.07-.52-4.17-.77-6.25h-50.98c.06,12.69-6.34,20.7-17.65,25.14h-12c-6.58-3.02-12.58-6.79-15.18-13.98-1.27-3.5-1.77-7.27-2.75-11.46-9.03,0-18.27,.1-27.5-.07-2.2-.04-4.38-.97-6.56-1.49,0-37.33,0-74.67,0-112Zm6.2,107.45c9.44,0,18.42,.1,27.39-.12,1.25-.03,2.87-1.4,3.63-2.59,10.34-16.2,31.05-16.26,41.17-.17,.86,1.37,2.97,2.75,4.52,2.77,15.99,.2,31.99,.2,47.98,0,1.56-.02,3.7-1.34,4.56-2.7,10.22-16.12,30.92-16.14,41.15,.03,.71,1.12,2.01,2.56,3.11,2.63,4.58,.3,9.2,.12,13.97,.12v-26H6.2v26.02Zm187.71-32.43c0-9.89,.09-19.17-.08-28.45-.03-1.71-.91-3.55-1.81-5.08-6.45-10.86-12.85-21.76-19.66-32.39-1.46-2.28-4.44-4.89-6.84-5.02-10.39-.55-20.83-.24-31.44-.24v71.03c1.34,.06,2.31,.14,3.29,.14,18.62,0,37.24,0,56.56,0Zm-20.71,40.52c-.05-9.5-7.71-17.16-17.16-17.16-9.46,0-17.12,7.65-17.16,17.16-.05,9.74,7.78,17.56,17.41,17.4,9.49-.15,16.96-7.83,16.91-17.41Zm-97.86,.04c.09-9.51-7.48-17.14-17.06-17.2-9.45-.06-17.2,7.57-17.31,17.04-.11,9.49,7.4,17.31,16.82,17.53,9.51,.22,17.46-7.65,17.55-17.36Z"/>
  <path class="cls-1" d="M56,0c.28,.95,.92,1.95,.8,2.85-1,7.62,4.66,9.43,9.99,11.01,1.47,.44,4.01-1.01,5.39-2.3,3.61-3.37,6.55-3.33,9.45,.73,.77,1.07,1.73,2.06,2.75,2.89,3.13,2.53,3.01,5.01,.55,8.07-3.15,3.93-2.89,11.23,.64,14.47,1.25,1.15,3.67,1.25,5.58,1.42,4.21,.36,6.54,2.09,5.85,6.68-.17,1.14-.17,2.35,0,3.49,.73,4.88-1.46,6.76-6.24,7.34-7.63,.92-10.99,9.43-6.07,15.24,2.85,3.37,3.12,5.98-.44,8.8-1.03,.82-1.97,1.83-2.75,2.89-2.65,3.65-5.28,3.53-8.76,.81-6.58-5.14-14.79-1.52-15.67,6.85-.41,3.87-1.89,5.85-5.95,5.52-1.82-.15-3.67-.13-5.49,0-3.77,.25-5.37-1.47-5.72-5.2-.51-5.44-4.99-9.97-10.43-10.04-1.91-.03-4.09,1.91-5.73,3.41-2.86,2.6-5.19,2.45-7.56-.5-.73-.9-1.63-1.66-2.46-2.48-5.02-5.01-5.12-5.09-.7-10.48,1.86-2.28,2.78-4.2,1.05-7.05-1.92-3.18-1.79-7.97-7.59-7.52-2.1,.16-4.32-1.22-6.49-1.89,0-4.33,0-8.67,0-13,2.15-.72,4.28-1.46,6.44-2.14,1.71-.54,3.95-.5,5.07-1.61,3.58-3.54,3.67-10.32,.27-14.45-2.38-2.88-2.57-5.16,.44-7.58,1.29-1.04,2.52-2.21,3.52-3.52,2.55-3.33,5.17-3.46,8.46-.94,1.58,1.2,3.88,2.58,5.59,2.29,6.95-1.14,9.23-3.85,10.29-10.71C40.25,2.2,40.68,1.11,41,0c5,0,10,0,15,0ZM16.07,20.38c6.88,4.9,4.97,9.75,2.77,15.98-2.36,6.67-5.54,9.97-12.58,9.51v5.3c7.02,.14,9.39,4.65,12.18,10.56,3.06,6.49,2.54,10.96-2.44,15.57,1.53,1.36,2.6,2.32,4.11,3.66,4.8-6.92,10.45-5.87,16.38-2.03,.68,.44,1.54,.75,2.34,.82,4.58,.41,6.02,3.18,6.38,7.41,.12,1.49,1.88,2.84,2.89,4.25,1.01-1.35,2.7-2.61,2.91-4.08,.61-4.2,1.77-7.42,6.78-7.54,.95-.02,2.05-.41,2.79-.99,5.87-4.58,11.14-4.1,15.85,2.54,1.59-1.54,2.73-2.64,4.33-4.19-6.74-4.94-6.69-10.37-2.63-16.27,.54-.79,.86-1.85,.95-2.81,.45-4.5,3-6.15,7.35-6.36,1.44-.07,2.79-1.91,4.19-2.94-1.37-.99-2.66-2.64-4.14-2.84-4.09-.53-6.97-1.83-7.27-6.49-.08-1.28-.5-2.78-1.3-3.73-4.66-5.54-2.88-10.2,1.66-14.62,.19-.18,.15-.6,.31-1.31-.85-.92-1.85-1.99-3.24-3.48-4.9,6.13-9.69,5.37-16.33,2.97-7.06-2.55-9.82-6.25-9.57-14.6-2.57,1.66-5.18,2.59-5.16,3.45,.17,6.75-4.28,8.18-9.41,10.66-6.25,3.02-10.98,3.79-15.76-2.54-1.58,1.49-2.74,2.6-4.35,4.13Z"/>
  <path class="cls-1" d="M54.91,116.18c0-4.32,.07-8.65-.02-12.97-.06-2.97,1.3-4.2,4.21-4.18,8.15,.06,16.3-.16,24.43,.2,1.4,.06,3.82,2.38,3.87,3.73,.35,8.8,.35,17.62,0,26.42-.05,1.33-2.46,3.62-3.86,3.68-8.13,.35-16.28,.12-24.43,.21-3.31,.04-4.34-1.55-4.24-4.62,.14-4.15,.03-8.31,.04-12.47Zm6.22,10.58h20.04v-21.33h-20.04v21.33Z"/>
  <path class="cls-1" d="M124.14,78.92c0,4.16,.33,8.37-.18,12.47-.18,1.47-2.36,3.76-3.7,3.83-7.98,.36-15.98,.16-23.97,.19-2.87,0-4.26-1.26-4.24-4.22,.06-8.49,.06-16.99,0-25.48-.02-3.13,1.38-4.59,4.51-4.58,7.83,.04,15.66,.03,23.48,0,2.94-.01,4.19,1.39,4.13,4.31-.09,4.49-.02,8.99-.03,13.49Zm-6.44,10.22v-21.63h-19.21v21.63h19.21Z"/>
  <path class="cls-1" d="M124.15,116.33c0,4.33-.06,8.67,.01,13,.04,2.75-1.24,3.93-3.93,3.91-8-.03-16-.05-24,0-2.95,.02-4.21-1.3-4.19-4.24,.06-8.5,.06-17,0-25.5-.02-3.17,1.36-4.53,4.52-4.5,7.67,.07,15.33,.11,23-.02,3.51-.06,4.74,1.48,4.62,4.83-.15,4.16-.04,8.33-.04,12.5Zm-25.77,10.52h19.38v-21.36h-19.38v21.36Z"/>
  <path class="cls-1" d="M162.92,108.1c-4.67,0-9.33-.07-14,.02-2.96,.06-4.32-1.35-4.32-4.2-.02-8.33-.11-16.67,.11-24.99,.03-1.26,1.38-3.23,2.53-3.61,8.44-2.76,16.04,.26,20.78,7.9,3.86,6.23,7.76,12.43,11.59,18.67,2.64,4.31,1.73,6.09-3.19,6.19-4.5,.09-9,.02-13.5,.02Zm-11.74-6.32h20.5c0-.59,.12-.97-.02-1.2-2.64-4.4-5.3-8.79-7.98-13.16-4.12-6.71-4.48-6.86-12.5-5.22v19.59Z"/>
  <path class="cls-1" d="M72.04,48.37c-.06,12.89-10.78,23.53-23.65,23.49-13.22-.05-23.6-10.71-23.46-24.09,.14-12.98,10.79-23.31,23.84-23.15,13.04,.16,23.32,10.66,23.26,23.75Zm-23.35,17.63c9.59-.1,17.36-8,17.32-17.62-.04-9.83-8.09-17.62-18-17.41-9.61,.2-17.18,8.13-17.04,17.84,.14,9.6,8.06,17.29,17.72,17.19Z"/>
</svg>