<?xml version="1.0" encoding="UTF-8"?>
<svg id="Layer_1" data-name="Layer 1" xmlns="http://www.w3.org/2000/svg" viewBox="0 0 200 170">
  <defs>
    <style>
      .cls-1 {
        fill: #fbb247;
      }
    </style>
  </defs>
  <path class="cls-1" d="M54.22,166.5c.03-28.01,.06-56.01,.07-84.01,0-8.29-.77-9.02-9.09-9.02-12.09,0-24.18-.03-36.26,.02-5.17,.02-6.07,.91-6.12,6.21-.08,8.56,0,17.11-.05,25.67,0,1.34,.68,3.61-1.32,3.62-2.02,0-1.33-2.26-1.34-3.6-.05-8.7-.08-17.41,0-26.11,.05-5.61,2.85-8.41,8.47-8.48,7.22-.08,14.45-.12,21.67,.03,2.36,.05,3-.71,2.96-2.99-.12-7.67-.06-15.34-.03-23.01,.03-7.1,2.16-9.46,9.26-9.11,4.18,.21,5.12-1.19,4.96-5.11-.3-7.66-.14-15.34-.07-23.01C47.38,2.29,49.62,.03,54.91,.02,100.75,0,146.6,0,192.44,.01c5.27,0,7.54,2.29,7.54,7.55,.03,30.1,.04,60.19,0,90.29,0,6.62-3.52,10.13-10.08,10.15-16.21,.05-32.43,.1-48.64-.05-3.11-.03-3.91,.71-2.77,3.62,.86,2.18,1.69,4.45,2.08,6.75,.76,4.47,2.49,7.37,7.72,6.27,.89-.19,2.33-.31,2.4,1.16,.08,1.79-1.46,1.52-2.57,1.52-10.32,.03-20.64,.16-30.95-.07-3.48-.08-4.37,.91-4.33,4.38,.14,12.06-.58,12.63-12.76,12.63-13.12,0-26.24,.08-39.36-.06-2.79-.03-3.89,.6-3.72,3.61,.26,4.71-.02,9.44,.11,14.16,.06,2.33-.85,3.74-2.97,4.48l.1,.09h-.02ZM123.79,14.3c-23.14,0-46.28,.08-69.43-.09-3.6-.03-4.57,1.05-4.35,4.46,.27,4.11,.32,8.28,0,12.38-.3,3.69,.86,4.67,4.57,4.63,16.65-.21,33.31-.11,49.97-.08,5.33,0,8.24,2.02,8.18,6.51-.05,3.74,1.63,3.85,4.49,3.83,22.4-.08,44.81-.05,67.22-.05,1.03,0,2.07-.04,3.09,.02,.85,.05,1.85,0,1.74,1.35-.1,1.21-.96,1.3-1.88,1.32-1.03,.02-2.06,0-3.1,0-22.26,0-44.52,.12-66.77-.12-4.07-.04-4.86,1.16-4.73,4.92,.29,8.54,.22,17.11,.03,25.66-.07,3.02,.66,4,3.85,3.99,25.5-.14,51-.13,76.5,0,3.21,.02,4.25-.66,4.22-4.09-.17-20.2-.17-40.42,0-60.63,.03-3.36-.9-4.15-4.18-4.13-23.14,.14-46.28,.08-69.43,.08l.02,.03Zm-13.64,71.01c0-13.72-.08-27.44,.05-41.16,.04-4.15-1.62-5.85-5.77-5.83-20.93,.08-41.86,.09-62.79,0-4.24-.02-5.8,1.88-5.7,5.92,.14,5.16,0,10.33,.05,15.49,.03,3.52-1.12,8.1,.63,10.28,1.87,2.31,6.65,.82,10.12,.68,7.06-.28,10.66,3.94,10.45,10.61-.46,14.88-.09,29.79-.2,44.69-.02,2.63,.6,3.56,3.4,3.54,15.48-.14,30.95-.14,46.43,0,2.83,.03,3.4-.89,3.37-3.52-.13-13.57-.06-27.14-.05-40.71h0Zm45.12,.4c-12.97,0-25.94,.08-38.91-.06-2.66-.03-3.64,.59-3.49,3.4,.24,4.41,.14,8.85,.03,13.27-.05,2.14,.37,3.07,2.88,3.06,24.76-.1,49.52-.03,74.28-.08,4.7,0,7.03-2.4,7.2-7.06,.1-2.8-.19-5.63,.09-8.4,.33-3.26-.66-4.26-4.06-4.2-12.67,.22-25.35,.08-38.02,.08h0ZM124,11.58c23.14,0,46.27-.05,69.41,.07,2.96,.02,4.08-.54,4.01-3.8-.1-4.64-2.69-5.18-6.38-5.17-44.8,.04-89.59,.03-134.39,.03-.88,0-1.77-.03-2.65,.03-3.98,.33-3.78,3.23-3.96,6.14-.23,3.64,2.28,2.68,4.12,2.68,23.28,.03,46.57,.03,69.85,.03h0Zm-41.38,129.93h3.53c6.48,0,12.96,.03,19.44-.02,4.09-.03,4.39-2.79,4.62-6.04,.26-3.6-1.86-3.24-4.13-3.23-15.32,.02-30.63,.11-45.94-.06-4.59-.05-2.85,3.08-3.04,5.16-.19,2.07-.79,4.4,2.99,4.27,7.5-.28,15.02-.09,22.53-.08Zm43.71-16.97c3.53,0,7.06-.1,10.58,.04,2.14,.09,2.55-.71,1.97-2.58-1.22-3.93-2.43-7.85-3.55-11.81-.48-1.69-1.38-2.26-3.16-2.23-5.58,.11-11.17,.11-16.75,0-1.91-.03-2.62,.6-2.56,2.51,.1,3.23,.24,6.49-.01,9.7-.25,3.29,.51,4.89,4.24,4.45,3.04-.36,6.16-.08,9.25-.09h0Z"/>
  <path class="cls-1" d="M5.24,119.49c0-12.99,.11-25.98-.08-38.96-.05-3.53,1.05-4.56,4.56-4.51,12.68,.2,25.36,.17,38.04,0,3.31-.04,4.33,1.06,4.32,4.33-.1,26.12-.04,52.24-.07,78.35,0,4.72-1.32,5.99-6.08,6.01-11.65,.03-23.3-.06-34.94,.05-4.17,.03-5.81-1.79-5.78-5.88,.1-13.13,.04-26.26,.03-39.4h0Zm2.74-5.06c0,10.75,.1,21.5-.06,32.26-.04,2.9,.42,4.09,3.73,4.03,11.33-.22,22.67-.18,34-.02,2.89,.04,3.69-.79,3.67-3.68-.11-21.5-.09-43.01,0-64.51,0-2.73-.48-3.84-3.58-3.79-11.48,.2-22.96,.18-34.44,0-2.79-.04-3.42,.79-3.39,3.46,.15,10.75,.06,21.5,.07,32.26h0Zm20.75,38.93c-5.74,0-11.5,.19-17.23-.08-3.09-.14-3.83,1.04-3.56,3.79,.23,2.37-.79,5.07,3.45,4.99,11.49-.2,22.98-.19,34.47,0,3.78,.06,3.4-2.19,3.44-4.6,.04-2.38,.11-4.33-3.34-4.17-5.73,.25-11.49,.07-17.23,.07Z"/>
  <path class="cls-1" d="M54.13,166.41c-.29,2.77-2.16,3.55-4.57,3.56-13.99,0-27.98,.09-41.97-.05-4.6-.05-7.44-3.27-7.46-8.12-.07-15.04-.04-30.06-.02-45.1,0-1.25-.42-3.2,1.35-3.2,1.75,0,1.33,1.95,1.34,3.21,.02,14.3,0,28.59,.02,42.89,0,6.35,1.35,7.65,7.83,7.65,11.93,0,23.86,.04,35.79-.03,2.6-.02,5.2-.47,7.81-.71l-.09-.09h-.03Z"/>
  <path class="cls-1" d="M158.06,60.68c9.41,0,18.81-.03,28.22,.03,1.16,0,3.13-.65,3.09,1.35-.03,1.89-1.94,1.34-3.15,1.34-18.96,.03-37.92,.03-56.88,.02-1.25,0-3.23,.42-3.32-1.19-.12-2.27,2.09-1.51,3.37-1.52,9.55-.06,19.11-.03,28.66-.03h0Z"/>
  <path class="cls-1" d="M154.52,20.29c10.31,0,20.61-.05,30.92,.06,1.4,0,3.89-1.17,3.91,1.63,.02,2.3-2.32,1.43-3.65,1.43-21.2,.05-42.41,.05-63.61,0-1.29,0-3.58,.9-3.49-1.62,.09-2.31,2.34-1.44,3.67-1.45,10.75-.07,21.5-.04,32.25-.04h0Z"/>
  <path class="cls-1" d="M169.4,31.75c-5.44,0-10.88,.03-16.32-.02-1.23,0-3.09,.51-3.11-1.66-.02-1.8,1.7-1.46,2.83-1.47,11.32-.02,22.64-.03,33.96,0,1.08,0,2.76-.44,2.67,1.6-.08,1.84-1.7,1.52-2.83,1.52-5.73,.03-11.47,0-17.2,0v.02Z"/>
  <path class="cls-1" d="M74.39,104.49c-4.13,0-6.25-2.09-6.36-6.28-.05-2.17,.19-4.49-3.27-3.25-.34,.12-1.18-.36-1.36-.76-.35-.77,.25-1.42,.87-1.81,1.35-.86,2.83-.9,4.21-.16,1.94,1.04,2.28,2.88,2.29,4.91,0,2.29-.98,4.84,3.34,4.83,3.92,0,4.71-1.32,4.43-4.78-.15-1.91-.41-4.25,2.19-5.2,2.42-.89,3.87,.58,5.25,2.13,1.44,1.61,2.9,3.26,4.82,.72,1.38-1.81,5.3-2.76,1.56-6.37-2.95-2.85-1.01-6.81,3.38-6.86,4.33-.06,2.55-2.92,2.89-4.85,.45-2.58-.78-3.33-3.24-3.16s-5.23,.55-6.48-2.44c-1.25-2.97,.9-4.68,2.72-6.38,1.74-1.62,3.19-2.98,.41-5.08-1.87-1.41-3.14-4.3-5.66-.73-1.15,1.62-2.89,2.6-5.02,1.86-2.31-.81-3.1-2.69-2.86-4.93,.38-3.51-2.02-2.79-3.98-2.81-2.02-.03-4.28-.49-3.8,2.92,.3,2.07-.62,3.8-2.59,4.68-2.29,1.04-4.1-.07-5.4-1.79-2.62-3.49-3.87-.45-5.7,.91-2.5,1.85-1.59,3.24,.25,4.74,.57,.47,1.06,1.03,1.57,1.56,.64,.67,1.2,1.42,.43,2.29-.83,.96-1.55,.25-2.24-.29-.12-.09-.24-.19-.33-.3-1.64-2.02-5.46-3.69-4.77-5.84,1.12-3.51,4.67-5.95,7.68-8.25,1.71-1.31,2.57,1.24,3.8,2.06,1.17,.78,1.79,2.82,3.45,2.3,1.78-.56,1.28-2.52,1.12-3.86-.37-3.2,.99-4.25,4.01-3.87,1.31,.16,2.66,.15,3.97,0,3.68-.42,6.12,.34,5.31,4.85-.17,.96-.29,2.23,.77,2.8,1.44,.77,2.24-.6,2.84-1.44,2.87-4.05,5.44-3.32,8.08,.2,.7,.93,1.56,1.78,2.49,2.51,2.45,1.9,2.27,3.5,.06,5.64-1.56,1.5-4.73,2.68-3.76,5.35,1.04,2.87,4.15,1.16,6.31,1.3,2.19,.14,3.75,.15,3.03,3.05-.28,1.11-.14,2.35-.03,3.53,.33,3.72,.63,7.08-5.05,6.19-2.41-.38-2.84,1.65-1.02,2.99,4.15,3.04,2.55,5.39-.5,7.81-1.03,.82-2.15,1.57-2.99,2.56-2.04,2.39-3.64,1.61-5.39-.37-1.22-1.38-2.5-3.48-4.68-2.41-1.69,.83-.65,2.92-.69,4.39-.13,5.18-.04,5.18-6.32,5.18h-.04Z"/>
  <path class="cls-1" d="M74.28,69.94c4.18-.07,7.58,3.31,7.57,7.51-.01,4.08-3.11,7.31-7.15,7.46-4.19,.16-7.72-3.11-7.84-7.27-.12-4.14,3.25-7.64,7.42-7.71Zm4.83,7.22c-.35-2.77-1.98-4.51-4.87-4.45-2.93,.07-4.62,1.99-4.54,4.86,.08,2.88,1.91,4.68,4.82,4.59,2.89-.09,4.42-1.95,4.6-5.01h0Z"/>
  <path class="cls-1" d="M83.25,114.03c-4.41,0-8.82,0-13.23,0-1.15,0-2.65,.14-2.53-1.56,.1-1.41,1.51-1.11,2.47-1.11,8.82-.03,17.64-.03,26.46,0,.95,0,2.37-.37,2.51,1.04,.18,1.7-1.29,1.63-2.46,1.64-4.41,.02-8.82,0-13.23,0h.01Z"/>
  <path class="cls-1" d="M87.16,119.31c3.37,0,6.75-.02,10.12,.02,.7,0,1.57,.06,1.69,1.01,.14,1.12-.69,1.61-1.6,1.61-6.75,.05-13.5,.05-20.25,.02-.91,0-1.82-.43-1.69-1.55,.13-1.17,1.2-1.1,2.05-1.1,3.23-.03,6.46,0,9.68,0Z"/>
  <path class="cls-1" d="M123.43,97.57c-1.89,0-3.79,.04-5.68-.02-.76-.03-1.47-.42-1.42-1.32,.04-.81,.69-1.3,1.45-1.31,3.93-.04,7.86-.04,11.79,0,.74,0,1.4,.47,1.42,1.33,.02,.92-.68,1.26-1.44,1.28-2.04,.05-4.08,.02-6.12,.02h0Z"/>
  <path class="cls-1" d="M32.84,125.23c.48,3.61-.44,5.28-4.58,5.27-4.22,0-4.47-2.08-4.22-5.1-2.01-.15-2.89,3.78-4.87,1.55-1.59-1.79-6.16-2.65-3.17-6.76,.49-.67,.04-1.05-.64-1.13-5.21-.57-2.55-4.57-2.58-6.87-.05-3.13,3.35-.92,5.16-2.28-2.53-2.4-3.71-4.61-.2-7.55,2.47-2.07,3.94-1.72,6.3,1.06-.62-5.56,2.76-4.32,5.34-4.57,2.74-.27,3.83,.88,3.3,4.39,3.81-4.58,5.72-1.35,7.99,.82,3.04,2.9-1.02,3.81-1.61,6.15,5.15-.78,6.23,2.57,4.91,6.09-.98,2.63-1.89,5.57-3.4,7.84-2.79,4.22-3.42,4-7.73,1.09h0Zm-12.09-20.96c-.94-.06-1.43,.54-1.81,1.14-.66,1.05,.4,1.5,.87,2.17,2.33,3.37,1.77,4.76-2.29,5.58-.95,.2-2.13-.22-2.23,1.39-.09,1.49,.95,1.5,1.94,1.81,2.51,.79,3.26,2.42,1.8,4.72-.58,.92-.53,1.53,.2,2.29,.84,.88,1.45,.5,2.24-.09,2.97-2.24,4.91-1.68,5.34,2.2,.12,1.1,.09,2.05,1.57,2.08,1.39,.03,1.66-.7,1.74-1.91,.27-3.81,2.09-4.63,5.23-2.51,.72,.48,1.29,1.27,2.22,.34,.68-.68,1.07-1.27,.43-2.27-1.64-2.51-.78-4.17,1.96-4.94,1-.28,1.55-.67,1.53-1.76-.03-1.26-.93-1.17-1.8-1.39-4.71-1.16-4.84-1.5-2.1-5.99,.52-.86,.86-1.41,.03-2.24-.78-.79-1.41-.78-2.25-.09-2.82,2.3-4.45,1.38-5.31-1.94-.52-2-2.66-1.59-2.89-.63-1.12,4.62-3.26,4.71-6.39,2.03h-.03Z"/>
  <path class="cls-1" d="M43.04,84.51c-1.48-.46-3.8,.68-3.79-1.39,0-2.37,2.44-1.36,3.85-1.44,1.33-.08,3.61-.62,3.6,1.27-.02,2.48-2.57,.84-3.65,1.56h0Z"/>
  <path class="cls-1" d="M28.85,156.64c1.39,.2,3.66-.48,3.46,1.46-.21,2.07-2.59,1.18-4.03,1.19-1.24,0-3.55,.79-3.35-1.35,.21-2.18,2.6-.91,3.92-1.3Z"/>
  <path class="cls-1" d="M33.11,114.87c-.41,2.93-2.08,4.66-5.02,4.49-2.92-.17-4.61-2.11-4.45-5.01s2.02-4.65,4.97-4.48c2.93,.17,4.4,2.07,4.5,5Zm-4.84,1.8c1.07-.12,1.86-.63,2.02-1.8,.17-1.21-.53-2.01-1.57-2.22-1.39-.28-2.2,.65-2.29,1.94-.08,1.11,.71,1.8,1.84,2.09h0Z"/>
</svg>