<?xml version="1.0" encoding="UTF-8"?>
<svg id="Layer_1" data-name="Layer 1" xmlns="http://www.w3.org/2000/svg" viewBox="0 0 200 200">
  <defs>
    <style>
      .cls-1 {
        fill: #fbb247;
      }
    </style>
  </defs>
  <path class="cls-1" d="M84.52,160c-3.46,0-6.58-.04-9.7,.04-.61,.02-1.31,.38-1.78,.8-1.29,1.16-2.46,2.45-3.71,3.65-2.01,1.92-3.61,1.92-5.61,.03-1.06-1-2.09-2.02-3.14-3.03-.05-.04-.13-.05-.58-.23,0,1.68,.02,3.21,0,4.75-.04,2.74-1.22,3.96-3.93,3.98-4.1,.03-8.19,.04-12.29,0-2.48-.02-3.71-1.26-3.77-3.71-.04-1.58,0-3.16,0-5.35-1.47,1.43-2.56,2.51-3.68,3.56-2.03,1.92-3.91,2.15-5.54-.01-3.02-4.01-6.85-5.04-11.59-4.53-3.02,.32-6.1,.08-9.16,.06-5.91-.04-10.02-4.06-10.02-9.91C0,114.46,0,78.83,.01,43.21c0-5.76,4.1-9.81,9.85-9.88,1.09-.01,2.19,0,3.48,0,0-.94,0-1.69,0-2.43,0-8.19,0-16.39,0-24.58C13.35,2.13,15.43,0,19.57,0c53.6,0,107.21,0,160.81,0,4.17,0,6.27,2.11,6.27,6.28,.02,8.19,0,16.39,0,24.58,0,.75,0,1.5,0,2.48,1.47,0,2.77-.04,4.06,0,5.05,.19,9.03,4.16,9.26,9.2,.03,.62,.01,1.25,.01,1.87,0,34.86,0,69.71,0,104.57,0,7.27-3.74,11-11.04,11-23.61,0-47.22,0-70.83,0h-2.48c.15,.71,.22,1.29,.39,1.85,1.48,4.98,2.97,9.96,4.46,14.94q.95,3.17,4.25,3.21c6.88,.09,12.63,4.24,14.52,10.69,.5,1.7,.64,3.54,.7,5.33,.08,2.72-1.2,3.95-3.91,3.97-4.24,.03-8.47,0-12.71,0-19.51,0-39.02,0-58.53,0-3.83,0-4.85-1.02-4.81-4.77,.1-8.57,6.63-15.11,15.21-15.22,.76-.01,1.55,.12,2.28-.05,.48-.11,1.13-.54,1.26-.96,1.93-6.21,3.79-12.45,5.76-18.99ZM179.91,26.81H20.17V126.53h5.06c-.04-.26-.01-.44-.08-.51-1.01-1.05-2.05-2.07-3.05-3.13-1.82-1.93-1.84-3.56,0-5.45,2.86-2.93,5.76-5.83,8.69-8.69,1.88-1.83,3.53-1.82,5.44,.03,1.12,1.08,2.13,2.28,3.19,3.43,.19-.11,.39-.23,.58-.34,0-1.63-.04-3.27,0-4.9,.07-2.33,1.3-3.59,3.65-3.62,4.23-.05,8.47-.05,12.7,0,2.33,.03,3.56,1.3,3.62,3.64,.05,1.63,0,3.26,0,4.92,.4-.06,.58-.03,.65-.11,1.05-1.01,2.07-2.05,3.13-3.05,1.92-1.81,3.54-1.85,5.45,0,2.93,2.86,5.83,5.76,8.69,8.69,1.83,1.88,1.82,3.55-.03,5.44-1.09,1.11-2.31,2.1-3.47,3.14,.13,.17,.27,.34,.4,.51h105.09V26.81Zm-96.48,113.04h109.9v-1.99c0-31.23,0-62.47,0-93.7,0-.55,.18-1.26-.08-1.63-.63-.9-1.35-2.07-2.28-2.36-1.29-.4-2.81-.1-4.3-.1v2.75c0,27.83,0,55.67,0,83.5,0,5.14-1.87,7.01-7,7.01-31.23,0-62.47,0-93.7,0h-2.53v6.52ZM179.9,6.81H60.17v13.08h119.73V6.81ZM76.52,139.85v-6.41c-6.51-.51-6.46-.53-8.89-6.19-1.6-3.74,2.07-4.81,3.41-7.11-1.5-1.5-3.01-3.01-4.66-4.65-2.33,2.64-4.31,4.77-8.74,2.97-4.46-1.81-4.56-4.72-4.28-8.33h-6.94c1.6,5.29-1.33,7.28-5.62,8.87-3.95,1.47-4.99-2.01-7.32-3.4-1.5,1.5-3.02,3.02-4.66,4.66,2.66,2.34,4.77,4.32,2.98,8.75-1.81,4.47-4.73,4.55-8.32,4.27v6.94c5.3-1.61,7.28,1.34,8.87,5.62,1.47,3.94-2.01,4.99-3.4,7.32,1.51,1.51,3.02,3.02,4.66,4.65,2.34-2.66,4.32-4.78,8.76-2.98,4.47,1.81,4.54,4.74,4.27,8.32h6.59c.28-7.74-.13-5.92,6-8.8,3.84-1.8,4.96,1.94,7.74,3.59,.31-.47,.61-1.14,1.1-1.62,1.04-1.01,2.18-1.92,3.25-2.84q-4.59-5.66-2.09-11.26c1.52-3.43,4.69-1.79,7.3-2.39ZM13.34,40.19c-5.27-.59-6.74-.2-6.72,5.44,.11,30.61,.05,61.23,.05,91.84v2.35h10c0-2.04,.04-3.92-.03-5.79-.02-.49-.22-1.19-.57-1.41-2.4-1.49-2.76-3.74-2.76-6.31,.03-27.84,.02-55.68,.02-83.51v-2.61ZM114.42,179.92c-.17-.7-.26-1.18-.4-1.64-1.73-5.77-3.45-11.54-5.27-17.28-.15-.46-1.07-.95-1.65-.97-3.6-.09-7.21-.04-10.81-.04q-4.82,0-6.18,4.51c-1.52,5.09-3.03,10.19-4.58,15.41h28.89Zm-47.27,13.3h65.7c-.49-3.78-3.9-6.54-8.16-6.55-10.27-.03-20.55-.01-30.82-.01-6.25,0-12.5-.04-18.74,.02-4.09,.03-7.46,2.82-7.97,6.55Zm12.92-40.03h53.11v-6.35h-58.57c1.83,2.13,3.51,4.07,5.46,6.35ZM53.24,6.82H20.17v13.07H53.24V6.82ZM6.68,146.75c0,1.33-.06,2.5,.01,3.65,.12,1.78,1.14,2.85,2.92,2.89,3.66,.08,7.32,.02,10.23,.02,2.08-2.43,3.77-4.4,5.63-6.57H6.68Zm146.48,6.53v-6.48h-13v6.48h13Zm6.88-.09h6.48v-6.37h-6.48v6.37Zm19.88-6.43h-6.46v6.42h6.46v-6.42Zm13.22,.01h-6.33v6.41c6.04,.54,7.12-.56,6.33-6.41Z"/>
  <path class="cls-1" d="M100,53.33c-12.92,0-25.83,0-38.75,0-3.55,0-4.58-1.04-4.58-4.58,0-3.82-.02-7.64,0-11.46,.02-2.73,1.22-3.95,3.95-3.95,26.25-.01,52.5-.01,78.74,0,2.72,0,3.94,1.23,3.96,3.95,.03,3.96,.02,7.92,0,11.87-.01,2.99-1.18,4.16-4.16,4.17-13.05,.01-26.11,0-39.16,0Zm-36.55-13.24v6.44h73.06v-6.44H63.45Z"/>
  <path class="cls-1" d="M136.88,93.33c10.62,0,21.25,0,31.87,0,3.54,0,4.58,1.04,4.58,4.58,0,5.97,.01,11.94,0,17.91,0,2.99-1.18,4.16-4.17,4.16-21.66,0-43.33,0-64.99,0-2.99,0-4.15-1.17-4.16-4.17-.02-6.11-.02-12.22,0-18.33,0-2.99,1.17-4.15,4.16-4.16,10.9-.01,21.8,0,32.71,0Zm-30.12,19.85h59.81v-13.07h-59.81v13.07Z"/>
  <path class="cls-1" d="M59.88,86.66c-9.58,0-19.16,0-28.75,0-3.39,0-4.45-1.08-4.46-4.5,0-5.97-.01-11.94,0-17.91,0-3.12,1.14-4.25,4.29-4.25,19.37,0,38.75,0,58.12,0,3.12,0,4.25,1.14,4.25,4.28,.01,6.04,.01,12.08,0,18.12,0,3.11-1.15,4.25-4.29,4.25-9.72,0-19.44,0-29.16,0Zm-26.54-6.82h53.23v-13.07H33.4c-.03,.5-.06,.91-.06,1.31,0,3.88,0,7.75,0,11.76Z"/>
  <path class="cls-1" d="M136.67,76.66c-10.62,0-21.25,0-31.87,0-.62,0-1.26,.06-1.87-.05-1.79-.34-2.88-1.43-2.88-3.28,0-1.84,1.08-2.95,2.87-3.28,.61-.11,1.25-.05,1.87-.05,21.25,0,42.5,0,63.74,0,.62,0,1.26-.06,1.87,.05,1.8,.33,2.88,1.44,2.88,3.28,0,1.84-1.09,2.95-2.88,3.28-.61,.11-1.25,.05-1.87,.05-10.62,0-21.25,0-31.87,0Z"/>
  <path class="cls-1" d="M136.67,86.66c-10.62,0-21.25,0-31.87,0-.62,0-1.26,.06-1.87-.05-1.79-.34-2.88-1.43-2.88-3.28,0-1.84,1.08-2.95,2.87-3.28,.61-.11,1.25-.05,1.87-.05,21.25,0,42.5,0,63.74,0,.62,0,1.26-.06,1.87,.05,1.8,.33,2.88,1.44,2.88,3.28,0,1.84-1.09,2.94-2.88,3.28-.61,.11-1.25,.05-1.87,.05-10.62,0-21.25,0-31.87,0Z"/>
  <path class="cls-1" d="M60,93.33c9.51,0,19.03,0,28.54,0,.62,0,1.26-.06,1.87,.05,1.8,.33,2.88,1.44,2.88,3.28,0,1.84-1.09,2.94-2.88,3.28-.61,.11-1.25,.05-1.87,.05-19.03,0-38.05,0-57.08,0-.62,0-1.27,.06-1.87-.05-1.79-.34-2.88-1.44-2.88-3.28,0-1.84,1.08-2.95,2.88-3.28,.61-.11,1.25-.05,1.87-.05,9.51,0,19.03,0,28.54,0Z"/>
  <path class="cls-1" d="M146.8,60c7.43,0,14.86,0,22.29,0,2.66,0,4.18,1.19,4.23,3.25,.05,2.13-1.53,3.4-4.29,3.41-14.93,0-29.86,0-44.79,0-2.66,0-4.18-1.19-4.22-3.26-.05-2.14,1.51-3.4,4.28-3.4,7.5,0,15,0,22.5,0Z"/>
  <path class="cls-1" d="M83.54,103.33c2.08,0,4.17-.05,6.25,.01,2.13,.06,3.53,1.42,3.53,3.32,0,1.89-1.4,3.29-3.53,3.31-4.3,.05-8.61,.05-12.91,0-2.13-.03-3.52-1.43-3.52-3.32,0-1.89,1.39-3.26,3.53-3.31,2.22-.06,4.44-.01,6.66-.01Z"/>
  <path class="cls-1" d="M88.33,113.33c.21,0,.42,0,.62,0,2.81,.02,4.36,1.2,4.36,3.33,0,2.13-1.55,3.32-4.36,3.33-.69,0-1.39,.03-2.08,0-2.13-.11-3.52-1.44-3.52-3.33,0-1.89,1.39-3.21,3.52-3.32,.48-.02,.97,0,1.46,0Z"/>
  <path class="cls-1" d="M106.88,10c5.21,0,10.41,0,15.62,0,2.63,0,4.15,1.25,4.15,3.33,0,2.07-1.53,3.33-4.16,3.33-10.55,.01-21.11,.01-31.66,0-2.62,0-4.15-1.25-4.15-3.33,0-2.08,1.52-3.32,4.15-3.32,5.35-.01,10.69,0,16.04,0Z"/>
  <path class="cls-1" d="M73.52,16.65c-1.25,0-2.51,.08-3.75-.02-1.84-.15-3.1-1.58-3.09-3.31,.01-1.74,1.28-3.18,3.13-3.27,2.36-.11,4.72-.11,7.08,0,1.84,.09,3.1,1.57,3.09,3.3-.01,1.73-1.29,3.12-3.13,3.28-1.1,.09-2.22,.02-3.33,.02Z"/>
  <path class="cls-1" d="M50.09,120c9.18,.04,16.63,7.59,16.57,16.8-.06,9.16-7.65,16.6-16.85,16.52-9.07-.08-16.48-7.6-16.46-16.7,.02-9.18,7.55-16.66,16.75-16.62Zm9.9,16.69c.01-5.45-4.42-9.96-9.86-10.02-5.54-.06-10.11,4.44-10.13,9.96-.01,5.45,4.43,9.96,9.86,10.02,5.54,.06,10.11-4.44,10.13-9.96Z"/>
  <path class="cls-1" d="M46.7,16.65c-1.8,.02-3.33-1.49-3.35-3.29-.02-1.81,1.48-3.33,3.29-3.34,1.81-.02,3.33,1.47,3.34,3.29,.02,1.81-1.48,3.33-3.29,3.35Z"/>
  <path class="cls-1" d="M36.57,10.02c1.81-.06,3.36,1.4,3.42,3.22,.06,1.8-1.41,3.36-3.22,3.42-1.8,.06-3.36-1.42-3.42-3.22-.06-1.8,1.41-3.36,3.22-3.41Z"/>
  <path class="cls-1" d="M26.69,16.65c-1.8,.01-3.33-1.5-3.34-3.3-.01-1.81,1.49-3.32,3.3-3.33,1.81,0,3.32,1.48,3.33,3.3,.01,1.81-1.49,3.32-3.3,3.34Z"/>
</svg>