<?xml version="1.0" encoding="UTF-8"?>
<svg id="Layer_1" data-name="Layer 1" xmlns="http://www.w3.org/2000/svg" viewBox="0 0 200 199.99">
  <defs>
    <style>
      .cls-1 {
        fill: #fbb247;
      }
    </style>
  </defs>
  <path class="cls-1" d="M41.46,136.27c-3.17-.4-6.04-1.91-8.96-3.16-7.61-3.24-14.89-7.17-21.31-12.94-4.49-4.03-8.12-8.72-10.17-14.77-1.46-4.31-1.32-8.58,.17-12.94,3.01-8.83,9.11-14.33,15.9-19.16,4.39-3.12,9.08-5.58,13.91-7.68,2.67-1.16,5.4-2.18,8.14-3.12,2.71-.92,2.79-1.17,2.11-4.17-.37-1.62-.7-3.31-.85-4.97-.29-3.08-.65-6.18-1.08-9.2-.72-5.02-.72-10.01-.47-14.99,.36-7.24,1.55-14.27,5.15-20.62C47.94,1.58,53.63-.53,60.57,.11c9.05,.84,16.67,5.56,24,11.07,5.42,4.07,10.3,8.87,14.98,13.95,2.38,2.67,4.75,5.35,7.13,8.02,5.01,6.27,9.72,12.81,14.2,19.56,.82,1.24,1.98,1.7,3.29,1.64,3.25-.13,6.4,.76,9.6,1.14,4.22,.5,8.37,1.66,12.55,2.53,.1,.18,.16,.46,.29,.52,2.32,.91,2.31,1.1,1.6,3.73-.44,1.63-1.19,3.21-1.13,4.98,.02,.73-.21,1.23-.89,1.37-.63-.06-1.28-.03-1.89-.19-4.33-1.21-8.68-2.29-13.16-2.52-.66-.03-1.47-.8-1.95,.02-.5,.85,.57,1.39,.74,2.18,.08,.39,.4,.71,.59,1.07,2.23,4.29,5,8.2,7.05,12.62,.9,1.94,1.42,4.19,3.01,5.68,0,.28,.03,.58-.04,.85-.87,3.26-2.48,6.19-3.35,9.46-.21,.79-.42,2.26-1.84,1.82-2.03-4.41-3.93-8.91-6.11-13.22-3.44-6.82-7.33-13.33-11.28-19.8-.54-.88-.69-2.33-1.88-2.4-1.45-.08-2.84-.67-4.25-.68-9.9-.13-19.81-.77-29.67,.82-4.08-.43-8.03,1.23-12.1,1.01-3.83,1.02-7.74,1.6-11.61,2.28-5.05,.89-5.4,1.2-3.56,6.45,1.32,3.75,2.43,7.58,3.64,11.38-.08,.61,.15,.94,.72,.94h0c-1.31,4.39-3.18,8.47-5.37,12.39-.32-.52-.74-1-.95-1.57-2.77-7.49-5.52-15.01-7.64-22.76-.9-3.3-1.41-2.91-3.79-2.02-4.77,1.78-9.56,3.53-14.1,5.99-5.56,3-10.9,6.43-14.85,11.87-3.02,4.16-4.41,8.56-1.83,14.34,2.5,5.62,6.94,8.73,11.34,11.91,3.4,2.46,7.18,4.16,10.94,5.81,3.74,1.63,7.52,3.17,11.43,4.22-.1,3.24-1.84,6.03-2.02,9.26-.03,.46-.6,.38-.96,.44h0ZM103.38,52.84c.67,.61,4.68,1.13,5.28,.6,.63-.57,.63-1.17-.21-1.56-2.55-3.74-5.21-7.38-8.11-10.79-.01-1.61-1.59-1.61-2.17-2.67-1.23-2.23-2.91-3.98-4.96-5.26-.1-.26-.13-.58-.3-.76-5.85-6.49-12.09-12.44-19.22-17.11-4.79-3.13-9.77-5.62-15.55-5.27-3.04,.18-5.21,1.71-6.83,4.44-1.98,3.33-2.64,7.1-3.31,10.98-1.17,6.71-.14,13.26,.44,19.84,.34,3.81,1.47,7.53,2.02,11.33,.26,1.81,.66,2.51,2.25,1.6,.32-.18,.72-.24,1.1-.28,3.69-.35,7.22-1.63,10.91-2.07,4.13-.49,8.2-1.53,12.38-1.49,2.34-.86,4.75-.84,7.18-.81,3.5,.04,7,.03,10.5,0,.61,0,1.45,.41,1.74-.71,2.29-.19,4.58-.18,6.88,0h-.02Z"/>
  <path class="cls-1" d="M158.23,61.56c4.75,1.31,9.3,3.3,13.8,5.4,5.79,2.7,11.25,6.14,16.24,10.46,4.53,3.92,8.26,8.55,10.45,14.57,2.18,6,1.46,11.73-1.32,17.26-2.6,5.15-6.26,9.15-10.53,12.59-6.3,5.08-13.19,8.76-20.48,11.68-2.36,.94-4.73,1.81-7.09,2.73-1,.39-2,.59-1.57,2.74,2.3,11.27,3.8,22.68,2.56,34.29-.61,5.69-1.84,11.25-4.57,16.14-1.99,3.58-4.49,6.51-8.38,8-4.14,1.57-8.28,1.67-12.29,.74-6.18-1.44-11.96-4.34-17.31-8.17-5.88-4.21-11.35-9.02-16.47-14.33-.29-.3-.54-.57-.94-.61-1.82-2.75-3.99-5.09-6.36-7.23-.44-.68-.82-1.43-1.33-2.04-5.44-6.41-10.34-13.32-14.92-20.51-.67-1.05-1.3-1.23-2.28-1.36-4.13-.54-8.26-1.07-12.36-1.81-3.95-.71-7.86-1.66-11.78-2.51,0-.92-.17-1.91,.08-2.74,.6-2.04,1.29-4.03,1.48-6.19,.07-.88,.8-.75,1.28-.99,4.48,.56,8.87,1.72,13.3,2.55,.66,.12,1.48,.55,1.96-.13,.48-.7-.29-1.26-.6-1.82-2.92-5.31-5.64-10.75-8.36-16.18-.33-.66-.1-1.82-1.12-2,0-.35-.11-.78,.03-1.05,1.4-2.8,2.24-5.87,3.48-8.74,.35-.81,.55-2.01,1.79-1.83,1.69,2.86,2.78,6.07,4.17,9.1,3.69,8.06,7.88,15.77,12.46,23.22,.56,.91,1.17,1.41,2.15,1.46,5.05,.24,10.09,.56,15.15,.73,6.71,.23,13.38-.59,20.08-.86,4.15-1.07,8.43-1.05,12.62-1.77,3.63-.65,7.28-1.24,10.9-1.97,3.72-.75,3.8-.85,2.61-4.85-1.14-3.83-2.49-7.58-3.75-11.37,.02-.91,.03-1.8,.41-2.67,.87-2,1.92-3.89,2.77-5.91,.6-1.44,.8-3.19,2.07-4.24,.93,2.44,1.91,4.85,2.76,7.32,1.78,5.17,3.55,10.34,5.18,15.57,.72,2.3,1.27,2.77,3.3,1.95,4.89-1.97,9.88-3.66,14.56-6.19,6.33-3.41,12.47-7.12,16.58-13.95,2.6-4.32,2.66-9.83-.05-14.07-3.37-5.28-7.97-8.87-12.95-11.89-6.26-3.8-13.06-6.1-19.8-8.56-.21-2.45,.57-4.72,1.25-6.95,.3-1-.38-2.62,1.17-3.02h-.03Zm-57.73,98.47c.17-.03,.34-.05,.51-.08,1.53,3.4,4.3,5.57,6.51,8.29,2.91,2.56,5.63,5.38,8.48,8.01,5.72,5.29,11.81,9.89,19.03,11.78,8.32,2.18,12.55-.2,15.38-9.44,1.75-5.7,1.52-11.63,1.25-17.5-.31-6.71-1.48-13.29-2.94-19.82-.32-1.44-.79-1.8-1.87-1.47-2.66,.81-5.42,1.1-8.1,1.77-5,1.27-10.1,1.54-15.12,2.45-4.03,.81-8.08,1.54-12.2,1.18-7.29-.27-14.58-.16-22.27-.09,1.24,1.72,2.17,3.03,3.12,4.31,2.43,3.28,4.87,6.54,7.31,9.81,0,.71,.33,.93,.91,.79h0Z"/>
  <path class="cls-1" d="M54.12,129.66c-.48,.24-1.21,.11-1.28,.99-.18,2.16-.88,4.15-1.48,6.19-.24,.83-.06,1.82-.08,2.74-.31,.25-.61,.5-.69,.96-.77,4.18-1.83,8.32-2.24,12.53-.69,7.06-1.6,14.12-.29,21.3,.66,3.63,1.39,7.14,3.38,10.06,1.34,1.96,2.81,4.06,5.08,4.83,2.14,.73,4.22,.95,6.61,.44,7.26-1.56,13.18-5.88,18.95-10.58,4.21-3.43,8.02-7.4,11.87-11.32,2.36,2.14,4.54,4.49,6.36,7.23-4.9,5.7-10.48,10.49-16.29,14.9-4.02,3.05-8.36,5.47-12.94,7.43-3.48,1.49-7,2.38-10.64,2.58-3.73,.2-7.64-.05-10.61-2.84-3.41-3.19-6.39-6.87-8.09-11.76-3.13-8.97-3.46-18.28-2.81-27.63,.34-4.84,.9-9.72,1.85-14.53,.43-2.19,1.73-4.48,.67-6.93,.36-.06,.94,.02,.96-.44,.18-3.23,1.92-6.02,2.02-9.26,.11-.17,.29-.31,.34-.5,1.78-6.73,4.07-13.25,6.45-19.74,.92-2.5,1.79-5.03,2.68-7.55,2.19-3.91,4.06-8,5.37-12.39,.18-.07,.46-.08,.51-.21,2.12-5.39,5.35-10.05,7.87-15.17,.89-1.82,2.6-3.26,2.43-5.67,4.07,.22,8.01-1.44,12.09-1.01-.95,2.86-2.76,5.14-4.21,7.65-4.84,8.36-9.45,16.84-13.23,25.88-.38,.92-.38,1.72-.16,2.61-1.23-.18-1.44,1.02-1.79,1.83-1.23,2.87-2.08,5.94-3.48,8.74-.14,.27-.02,.7-.03,1.05-2.25,5.22-3.83,10.72-5.5,16.19-.17,.55,.25,.92,.33,1.4h.02Z"/>
  <path class="cls-1" d="M131.2,132.34c-4.19,.72-8.47,.7-12.62,1.77,.75-1.18,1.54-2.32,2.24-3.54,2.71-4.69,5.42-9.38,8.06-14.12,1.78-3.21,3.05-6.73,4.68-10.04,1-2.03,2.46-4.13,1.82-6.81,1.42,.45,1.63-1.03,1.84-1.82,.87-3.27,2.49-6.2,3.35-9.46,.07-.26,.03-.56,.04-.85,.23-.34,.54-.64,.67-1.01,1.16-3.52,2.51-6.99,3.35-10.62,.55-2.39,1.96-4.58,1.57-7.23,.68-.15,.91-.64,.89-1.37-.06-1.78,.7-3.35,1.13-4.98,.7-2.63,.72-2.82-1.6-3.73-.13-.05-.2-.34-.29-.52,1.45,.07,2.88,.03,3.03-2.13,.11-1.62,.56-3.16,.79-4.72,.93-6.41,1.52-12.89,1.25-19.4-.22-5.26-.98-10.4-3.43-15.09-1.49-2.86-3.58-4.47-6.41-4.85-4.93-.66-9.53,.65-13.93,3.16-5.73,3.26-10.77,7.64-15.69,12.19-1.92,1.78-3.86,3.57-5.24,5.97-2.38-2.67-4.75-5.35-7.13-8.02,2.34-1.16,4.03-3.29,5.88-5.14,4.05-4.02,8.47-7.45,13.07-10.58,3.84-2.62,7.92-4.72,12.18-6.34,1.04-.4,2.19-.64,3.27-.84,1.85-.34,3.77-.92,5.58-.8,2.82,.18,5.69,.59,8.4,1.83,5.01,2.29,7.54,6.99,9.38,12.2,3.3,9.33,3.51,19.08,2.78,28.97-.28,3.82-.97,7.55-1.32,11.34-.18,1.93-1.12,3.77-.55,5.8-1.55,.4-.87,2.02-1.17,3.02-.68,2.23-1.46,4.5-1.25,6.95-1.04,1.16-1.06,2.83-1.42,4.23-1.52,5.86-3.6,11.47-5.4,17.21-.89,2.81-2.55,5.29-2.77,8.37-1.28,1.04-1.47,2.8-2.07,4.24-.85,2.02-1.9,3.91-2.77,5.91-.38,.87-.39,1.76-.41,2.67-.55-.03-.83,.17-1.12,.8-1.55,3.37-2.99,6.78-4.96,9.93-1.43,2.28-3.17,4.54-3.68,7.46h-.02Z"/>
  <path class="cls-1" d="M77.09,54.37c3.65-4.22,6.42-9.26,9.94-13.6,2.06-2.53,3.88-5.31,6.16-7.62,2.05,1.29,3.73,3.04,4.96,5.26,.59,1.06,2.16,1.07,2.17,2.67-.54,.12-1.09,.05-1.56,.6-2.64,3.11-5.04,6.44-7.44,9.79-.78,1.09-.31,1.31,.62,1.32,1.52,.02,3.03,.04,4.55,.06-.29,1.12-1.12,.7-1.74,.71-3.5,.04-7,.04-10.5,0-2.42-.03-4.84-.05-7.18,.81h.02Z"/>
  <path class="cls-1" d="M103.38,52.84c1.2-.02,2.4-.04,3.6-.05,.64,0,1.3,.05,1.46-.92,.85,.39,.84,.99,.21,1.56-.6,.54-4.61,0-5.28-.6h.01Z"/>
  <path class="cls-1" d="M58.56,85.45c.46,.1,.73,.39,.72,.94-.57,0-.79-.33-.72-.94Z"/>
  <path class="cls-1" d="M123.63,144.01c-1.58,3.56-4.05,6.41-6.09,9.6-2.84,4.44-6.19,8.41-9.38,12.53-.5,.65-.76,1.25-.64,2.08-2.21-2.72-4.99-4.89-6.51-8.29-.03-.45,.1-.84,.37-1.16,3.65-4.25,6.95-8.83,10.05-13.59,4.12,.36,8.17-.37,12.2-1.18h0Z"/>
  <path class="cls-1" d="M99.59,159.23c.46,.04,.77,.29,.91,.79-.58,.14-.91-.09-.91-.79Z"/>
  <circle class="cls-1" cx="99.99" cy="100" r="16.57"/>
</svg>