<?xml version="1.0" encoding="UTF-8"?>
<svg id="Layer_1" data-name="Layer 1" xmlns="http://www.w3.org/2000/svg" viewBox="0 0 200 200">
  <defs>
    <style>
      .cls-1 {
        fill: #fbb247;
      }
    </style>
  </defs>
  <path class="cls-1" d="M100.35,199.99c-28.45,0-56.9,.03-85.35-.01-12.52-.02-14.94-2.08-14.96-12.81-.05-34.05-.06-68.1,0-102.16,.02-10.25,2.37-12.16,14.5-12.21,12.53-.05,25.09,.44,37.58-.17,8.23-.41,14.54,1.43,19.26,7.19,8.41,10.26,19.56,13.22,34.08,12.64,26.7-1.06,53.49-.35,80.25-.28,11.82,.03,14.21,2.15,14.24,12.49,.06,27.59,.05,55.19,0,82.78-.02,10.08-2.75,12.49-14.27,12.51-28.45,.06-56.9,.02-85.35,.02Zm-42.18-54.75c9.12,.03,16.97-6.47,17.31-14.3,.34-7.95-7.96-15.37-17.24-15.4-9.37-.03-17.39,7.14-17.17,15.34,.22,7.93,7.85,14.34,17.1,14.36Zm29.48,28.45c-.6-10.91-14.84-21.5-29.05-21.59-14.47-.1-28.57,9.88-29.52,20.97-.14,1.61-1.06,3.73,1.78,4.37,3.13,.7,3.82-1.02,4.51-3.31,3.1-10.21,10.61-16.52,23.06-16.42,11.89,.09,19.33,5.99,22.44,15.94,.6,1.93,.79,4.2,4.26,3.91,3.08-.26,2.63-2.12,2.53-3.87Zm51.76-14.47c8.78,0,17.55,.08,26.33-.05,2.36-.04,6.04,1.25,6.33-2.41,.29-3.71-3.33-2.95-5.82-2.96-17.89-.06-35.78-.07-53.66,.02-2.38,.01-6.14-.96-5.81,2.9,.31,3.62,3.93,2.43,6.31,2.46,8.77,.13,17.55,.05,26.33,.05Zm-.52,17.76c9.11,0,18.22,.07,27.33-.04,2.4-.03,6.03,.98,5.85-2.87-.14-3.06-3.14-2.51-5.35-2.51-18.22-.04-36.44-.05-54.66,.01-2.14,0-5.2-.65-5.33,2.47-.16,3.86,3.45,2.86,5.84,2.89,8.77,.12,17.55,.05,26.32,.05Zm-13.69-35.47c4.7,0,9.4-.03,14.09,.01,2.29,.02,3.98-.54,4.05-2.81,.07-2.24-1.48-3-3.82-3-9.4,0-18.79,0-28.19,.03-2.53,0-4.81,.42-4.62,3.29,.16,2.49,2.4,2.44,4.39,2.46,4.7,.06,9.4,.02,14.09,.02Z"/>
  <path class="cls-1" d="M112.66,.15c21.33,0,42.67,.18,63.99-.11,6.75-.09,9.58,1.3,9.48,7.75-.39,24.35-.1,48.72-.25,73.08-.01,2.43,2.01,6.72-3.83,6.33-4.8-.33-2.77-4.08-2.79-6.28-.16-22.3-.31-44.61,.05-66.91,.09-5.83-1.18-8.11-8.7-8.04-38.6,.34-77.2,.29-115.8,.03-6.66-.04-8.45,1.63-8.65,7.38-.23,6.6,3.43,6.79,9.15,6.76,33.52-.14,67.05,.12,100.56-.22,7.55-.08,9.98,1.73,9.79,8.38-.5,17.31-.06,34.63-.29,51.94-.03,2.42,2.35,6.82-3.05,6.92-6.38,.11-3.42-4.76-3.47-7.31-.3-15.55-.48-31.12,.02-46.66,.2-6.03-2.23-7.31-8.66-7.28-38.6,.22-77.2,.22-115.8,0-6.57-.04-9.01,1.57-8.72,7.44,.48,9.67,.18,19.37,.1,29.05-.02,2.46,.95,5.74-4,5.55-4.43-.17-3.07-3.23-3.09-5.27-.12-12.03,.09-24.07-.14-36.1-.08-3.85,1.38-4.68,5.73-4.8,14.72-.41,15.11-.63,14.74-13.13C38.82,2.2,40.89-.14,48.67,0c21.32,.41,42.66,.14,63.99,.14Z"/>
  <path class="cls-1" d="M91.88,42.75c-13.15,0-26.31,.08-39.46-.06-2.91-.03-7.49,1.54-7.31-3.46,.15-4.32,4.21-2.94,6.83-2.95,26.98-.09,53.96-.07,80.95-.04,2.81,0,6.59-.96,6.3,3.42-.29,4.26-4.11,3.04-6.83,3.05-13.49,.09-26.98,.04-40.47,.04Z"/>
  <path class="cls-1" d="M117.78,59.26c-5.05,0-10.09,.02-15.14,0-2.32-.01-4.84,.28-5.01-2.81-.18-3.18,2.32-2.98,4.69-2.98,10.77-.01,21.53,0,32.3,0,2.47,0,4.78,.05,4.49,3.14-.3,3.09-2.93,2.63-5.17,2.65-5.38,.05-10.77,.02-16.15,.02Z"/>
  <path class="cls-1" d="M68.9,130.28c-.72,5.7-4.28,9.39-10.94,9.3-6.08-.09-10.21-3.52-10.32-8.83-.11-5.78,4.07-9.23,10.78-9.21,6.29,.02,9.58,3.48,10.49,8.74Z"/>
</svg>