<?xml version="1.0" encoding="UTF-8"?>
<svg id="Layer_1" data-name="Layer 1" xmlns="http://www.w3.org/2000/svg" viewBox="0 0 72 72">
  <defs>
    <style>
      .cls-1 {
        fill: #5a2b5f;
      }
    </style>
  </defs>
  <path class="cls-1" d="M56.56,55.03c-3.14-.54-5.06-2.69-6.02-6.13,.12-.29,.34-.59,.35-.88,.02-5.64,.02-11.28,.02-16.92,0-.69,.01-1.39-.81-1.48-1.7-1.3-3.58-.3-5.36-.59-1.05-.17-2.1-.24-1.44-2.02,2.25-.17,4.53,.57,6.74-.4,1.87,.41,2.55,2.11,2.39,3.9-.26,2.93,1.62,3.31,3.08,3.55,3.49,.57,6.18,2.82,8.94,4.97,3.28,2.56,5.58,6.06,6.83,10.45,.04,2.73,.05,5.46,.15,8.19,.06,1.65-.35,3.36,.33,4.95-.68,2.35-1.99,4.21-4.16,4.06-2.52-.18-3.99,1.27-5.31,3.3-1.8,2.78-6.32,2.55-8.31-1.06-.42-.77-.84-1.51-1.38-2.17,0-.14,.03-.29,0-.43,0-.05-.11-.11-.17-.11-5.56,0-11.13,0-16.69,0,0,.1,0,.2,0,.29,.71,.08,1.42,.17,2.13,.25-1.51,.19-2.59,.61-3.9,2.13-3.59,4.16-7.16,4.78-10.59-2.11-.59-.97-1.47-.54-2.21-.54-4.07-.04-8.14,0-12.21-.03-.65,0-1.39,.23-2.03-.46,.7-.88,1.46-.56,2.13-.57,4.07-.03,8.14,.01,12.21-.03,.73,0,1.65,.45,2.1-.74,1.08-4.19,4.14-6.58,7.32-5.9,2.04,.44,2.71,2.5,3.89,3.98,.49,.62,.42,1.65,1.17,2.06-.03,.15-.11,.33-.07,.44,.04,.1,.22,.16,.34,.16,5.38,0,10.75,0,16.13,.01,.49,0,.87-.12,.78-.84,.7-2.46,1.63-4.7,3.88-5.74,2.9-1.34,6.5,1.68,7.41,4.33,.89,2.61,2.52,1.19,3.81,1.13,1.47-.08,1.84-1.59,2.05-3.02,.09-.62-.19-.92-.75-.9-2.76,.06-4.5-1.35-4.92-4.66-2.59-1-5.25-.21-7.87-.44Zm.52,14.19l-.06-.05c1.22,1.4,2.38,1.62,3.45-.22,2.12-.99,1.99-3.17,1.65-5.07-.36-2.01-1.83-2.97-3.59-2.99-1.42-.02-2.48,.79-3.06,2.29-.77,1.99-.64,3.88,.69,5.53,.17,.5,.53,.54,.92,.52Zm-4.65-33.49c-.36,.16-.61,.46-.61,.92,0,3.58,0,7.16-.01,10.74,0,.6,.27,.91,.76,1.01,.41,2.65,2.11,3.76,4.02,4.6,.43,.65,1.05,.91,1.7,.92,3.45,.04,6.9,.02,10.36,.03,.6,0,.95-.29,1.03-.99-.14-1.21-.04-2.36-.55-3.61-1.9-4.66-4.55-8.25-8.55-10.71-2.62-1.61-5.16-2.94-8.14-2.9Zm-19.42,29.37c0-2.86-1.06-3.99-3.14-4.14-2.82-.2-4.19,1.31-4.24,4.07-.05,2.25,1.82,4.75,3.54,4.73,1.96-.02,3.87-2.33,3.85-4.66Zm35.4-9.58c-.53,.13-1.44-.37-1.33,.96,.06,.7,.05,1.88,.96,1.45,.56-.26,1.73,.12,1.72-1.38,0-1.29-.74-.95-1.36-1.02Z"/>
  <path class="cls-1" d="M13.7,31.12c.04-.34,.07-.68,.11-1.02,.61-.88,.38-1.93,.4-2.91,.09-3.1-.19-6.22,.37-9.29,.06-.33,.13-.66,.19-.99,.16-.47,.32-.94,.48-1.41,0,0,0-.05,0-.05,1.6-2.91,3.9-4.99,6.17-7.1,.23-.1,.45-.21,.68-.31,.23,.04,.35-.04,.28-.33-.02-.49-.04-.98-.06-1.47,.03-.53,.05-1.07,.07-1.6,.04-.34,.09-.68,.13-1.03,.11-.16,.22-.31,.32-.47,.2-.31,.4-.62,.59-.94,.17-.18,.33-.36,.5-.54,.13-.02,.25-.08,.35-.19,.16-.11,.31-.22,.47-.34,0,0-.01,.01-.01,.01,1.15-.18,2.3-.22,3.45,0,.27,.17,.55,.33,.82,.5,.16,.17,.33,.35,.49,.52,.13,.17,.26,.33,.39,.5,.16,.79,.58,1.66,.43,2.37-.57,2.77,.62,3.81,2.69,4.18,.58,.52,1.16,1.04,1.74,1.56,.15,.17,.29,.33,.44,.5,0,0,0,0,0,0,.14,.17,.29,.34,.43,.5,.13,.18,.27,.36,.4,.54,.32,.76,.66,1.51,1.26,2.05,.12,.33,.23,.67,.35,1,.07,.12,.14,.24,.21,.37,0,0,.04,.08,.04,.08,1.1,3.77,.78,7.68,.83,11.56,.03,2.32,.33,4.54,1.65,6.4,.47,.75,.95,1.49,1.4,2.25,1.43,2.4,.49,4.81-2.02,4.96-2.1,.12-4.21,.08-6.32,.03-1.04-.02-1.65,.34-2.23,1.49-2.33,4.63-7.25,4.61-9.45-.05-.57-1.21-1.22-1.48-2.23-1.46-2.03,.04-4.07,.03-6.1,0-1.15-.01-2.15-.4-2.72-1.69-.6-1.35-.15-2.45,.59-3.48,.89-1.23,1.77-2.47,2.14-4.07,.08-.21,.17-.42,.25-.64Zm26.75,7.11c-3.7-4.33-4.21-9.09-3.96-14.11,.04-.84,0-1.69,0-2.54-.05-6.53-4.39-11.93-9.87-11.72-6.02,.23-9.49,4.22-10.12,11.35-.19,2.09,0,4.23-.04,6.34-.06,3.28-.58,6.38-2.8,8.73-.38,.4-.76,.87-.52,1.53,.22,.61,.74,.41,1.14,.41,8.48,.01,16.96,.01,26.16,.01ZM24.52,5.61c.03,1.25,.65,1.69,1.7,1.61,.89-.07,2.07,.38,2.16-1.26,.07-1.27-.43-2.29-1.72-2.37-1.21-.07-1.87,.65-2.13,2.02Zm4.64,35.22c-1.47,0-2.82-.01-4.18,.01-.33,0-.78-.12-.92,.42-.11,.47,.21,.77,.46,1.06,1.44,1.69,3.29,1.17,4.63-1.49Z"/>
  <path class="cls-1" d="M45.77,15.44c-.82,.28-1.16-.41-1.43-1.27-1.47-4.79-4.11-8.5-7.73-11.3-.71-.55-1.39-1.13-.73-2.22,.63-1.05,1.37-.64,2.07-.05,4.01,3.39,7.13,7.6,8.73,13.15,.34,1.16,.07,1.64-.91,1.69Z"/>
  <path class="cls-1" d="M10.04,10.78c-.1,.12-.16,.26-.18,.43-.52,.57-.79,1.28-.85,2.1-.28,.72-.55,1.44-.83,2.16-.61,0-1.21-.02-1.82-.03,0,0-.03-.05-.03-.05-.18-1.82,.83-3.3,1.04-5.01,0,0-.02-.01-.02-.01,.11-.21,.21-.42,.32-.62,0,0,.01-.02,.01-.02,.35-.19,.46-.55,.48-.97,0,0,0,0,0,0,.62-.99,1.43-1.83,1.77-3.04,0,0,0,0,0,0,.57-.36,.98-.9,1.23-1.6,0,0,.02-.03,.02-.03,1.08-.14,1.69-.95,2.12-2.01,.17-.2,.33-.4,.5-.6,.46-.04,.73-.37,.93-.81,.28-.2,.57-.39,.85-.59,.43,0,.86,0,1.29,.01,0,0,0,0,0,0,.14,.18,.29,.36,.43,.55,0,.47,0,.93,0,1.4-.15,.19-.3,.38-.45,.56-.28,.19-.55,.37-.83,.56-.17,.15-.33,.3-.5,.45-.26,.23-.53,.47-.79,.7-.14,.12-.28,.25-.41,.37,0,0-.03,.02-.03,.02-.62,.28-1.04,.8-1.33,1.48,0,0,0,0,0,0-.14,.17-.29,.33-.43,.5,0,0,0,0,0,0-.13,.17-.26,.35-.39,.52-.46,.36-.84,.8-.93,1.48-.55,.32-.83,.85-.85,1.56,0,0,0,0,0,0-.1,.17-.2,.34-.3,.51Z"/>
  <path class="cls-1" d="M.19,47.29c-.6-1.59,.34-1.88,1.3-1.89,5.27-.04,10.53-.04,15.8,0,1.2,0,1.57,.72,.95,2-6.02-.04-12.03-.07-18.05-.11Z"/>
  <path class="cls-1" d="M15.72,60.77c-1.52,0-3.03,0-4.55,0-.75,0-1.58-.06-1.64-1.14-.05-1.04,.69-1.42,1.47-1.42,3.25-.03,6.5-.01,9.75-.02,.79,0,1.26,.63,1.29,1.37,.03,.86-.57,1.23-1.34,1.22-1.66-.03-3.32,0-4.98,0Z"/>
  <path class="cls-1" d="M37.4,6.56c1.69,1.61,2.89,3.67,3.96,5.85,.42,.85,.66,1.68-.04,2.5-.43,.02-.86,.03-1.29,.05-.1-.1-.22-.16-.35-.19-.52-1.52-.97-3.09-2.29-3.99-.42-.52-.85-1.04-1.27-1.56-.18-.76-.73-1.13-1.21-1.56-.02-.32-.05-.63-.07-.95,.27-.34,.55-.68,.82-1.02,.27,0,.54,.01,.81,.02,.17,.14,.35,.27,.52,.41,0,0,.04,.04,.04,.04,.13,.13,.25,.26,.38,.39Z"/>
  <path class="cls-1" d="M12.41,10.77c.1-.09,.15-.21,.17-.36,.13-.22,.26-.43,.38-.65,0,0,0,0,0,0,.68-.45,1.11-1.16,1.43-1.97,.12-.15,.24-.3,.37-.45,.54-.2,.95-.58,1.2-1.19,0,0,.03-.02,.03-.02,.17-.14,.34-.28,.5-.42,.13,0,.26-.03,.38-.09,.14,.03,.29,.05,.43,.08,0,0,0,0,0,0,.16,.13,.32,.27,.48,.4,0,0,.06,.07,.06,.07,.11,.19,.23,.37,.34,.56,0,0,0-.01,0-.01-.09,1.12-.87,1.64-1.46,2.33-1.18,1.41-2.49,2.71-2.95,4.73,0,0,.02,0,.02,0-.11,.2-.22,.39-.33,.59-.16,.19-.32,.38-.47,.57-.46,0-.91,0-1.37,.01-.32-.48-.54-.98-.39-1.62,.55-.53,.68-1.3,.86-2.04,0,0,0,0,0,0,.11-.17,.22-.34,.33-.51Z"/>
  <path class="cls-1" d="M23.39,64.42c-.45,1.19-1.37,.73-2.1,.74-4.07,.04-8.14,0-12.21,.03-.67,0-1.43-.32-2.13,.57,.63,.68,1.37,.46,2.03,.46,4.07,.02,8.14-.02,12.21,.03,.74,0,1.62-.42,2.21,.54-1.42,0-2.84,0-4.26,0-.63-.21-1.27-.21-1.9,0-3.11,.03-6.21,.06-9.32,.08-.71,0-1.58,.13-1.62-1.09-.04-1.37,.89-1.3,1.7-1.3,5.13-.02,10.27-.03,15.4-.04Z"/>
  <path class="cls-1" d="M52.94,64.34c.1,.73-.29,.84-.78,.84-5.38,0-10.75,0-16.13-.01-.12,0-.3-.06-.34-.16-.04-.11,.04-.29,.07-.44,5.72-.08,11.45-.15,17.17-.23Z"/>
  <path class="cls-1" d="M37.89,66.77c-.71-.08-1.42-.17-2.13-.25,0-.1,0-.2,0-.29,5.56,0,11.13,0,16.69,0,.06,0,.16,.06,.17,.11,.02,.14,0,.29,0,.43-.4,0-.79,0-1.19,0-.33,0-.67,0-1,0-.68,0-1.36,0-2.05,0-1.5-.24-3-.24-4.51,0-1.99,0-3.98,0-5.97,0Z"/>
  <path class="cls-1" d="M.19,47.29c6.02,.04,12.03,.07,18.05,.11-.24,.81-.83,.53-1.29,.53-5.09,.02-10.18,.02-15.27,0-.54,0-1.21,.25-1.49-.64Z"/>
  <path class="cls-1" d="M50.11,29.62c.82,.09,.81,.79,.81,1.48,0,5.64,0,11.28-.02,16.92,0,.29-.23,.59-.35,.88-.4-5.44-.07-10.89-.19-16.33-.02-.98-.16-1.97-.25-2.95Z"/>
  <path class="cls-1" d="M10.78,54.06c-1.72,.94-3.51,.34-5.28,.3,.68-1.89,4.08-2.08,5.28-.3Z"/>
  <path class="cls-1" d="M10.78,54.06c-1.19-1.78-4.59-1.58-5.28,.3-.76-1.4-.64-2.2,.49-2.32,1.41-.15,2.87-.19,4.26,.03,.9,.14,1.61,.88,.52,1.99Z"/>
  <path class="cls-1" d="M2.77,64.43c.72,.07,1.28,.44,1.22,1.37-.07,.96-.71,1.1-1.41,1.06-.66-.04-1.09-.34-1.09-1.18,0-1.02,.61-1.18,1.29-1.24Z"/>
  <path class="cls-1" d="M13.67,52.76c.03-.19,.38-.71,1.13-.8,.86-.1,1.42,.44,1.51,1.32,.05,.55-.21,1.5-1,1.06-.56-.31-1.73,.74-1.64-1.58Z"/>
  <path class="cls-1" d="M71.77,62.63c-.68-1.6-.27-3.3-.33-4.95-.1-2.73-.11-5.46-.15-8.19,1.13,4.33,.6,8.75,.48,13.14Z"/>
  <path class="cls-1" d="M56.56,55.03c2.62,.23,5.28-.56,7.87,.44-2.62-.16-5.29,.64-7.87-.44Z"/>
  <path class="cls-1" d="M50.05,26.61c-2.21,.97-4.5,.23-6.74,.4,2.21-1.08,4.49-.39,6.74-.4Z"/>
  <path class="cls-1" d="M43.86,66.77c1.5-.24,3-.24,4.51,0-1.5,.25-3,.25-4.51,0Z"/>
  <path class="cls-1" d="M17.24,66.77c.63-.21,1.27-.21,1.9,0-.63,.25-1.27,.25-1.9,0Z"/>
  <path class="cls-1" d="M50.42,66.77c.33,0,.67,0,1,0-.33,.22-.67,.22-1,0Z"/>
  <path class="cls-1" d="M56.6,53.01c4.36-.01,8.72-.03,13.08-.04-.08,.7-.43,.99-1.03,.99-3.45-.01-6.9,0-10.36-.03-.65,0-1.27-.27-1.7-.92Z"/>
  <path class="cls-1" d="M52.44,35.74c.04,4.22,.09,8.44,.13,12.66-.48-.1-.76-.41-.76-1.01,0-3.58,0-7.16,.01-10.74,0-.46,.25-.75,.61-.92Z"/>
  <path class="cls-1" d="M57.03,69.18c1.16,.13,2.32,.32,3.45-.22-1.06,1.84-2.23,1.62-3.45,.22Z"/>
  <path class="cls-1" d="M56.17,68.71c.35,.07,.77-.04,.92,.52-.39,.02-.75-.02-.92-.52Z"/>
  <path class="cls-1" d="M56.54,39.89c3.01,.2,5.17,2.91,7.31,5.6,.25,.32,.38,1.05-.13,1.29-.5,.24-1.06,.41-1.6-.19-.72-.82-1.67-1.4-2.29-2.29-1.13-1.64-3.01-1.65-4.24-2.96-.24-.25-.59-.71-.53-.94,.13-.48,.55-.74,1.48-.51Z"/>
  <path class="cls-1" d="M25.15,15.05c-1.46,1.98-2.77,4.12-4.42,5.79-.61,.61-1.39-.62-1.16-1.71,.52-2.43,1.81-4.2,3.81-5.16,.87-.42,1.55-.06,1.78,1.08Z"/>
</svg>