<?xml version="1.0" encoding="UTF-8"?>
<svg id="Layer_1" data-name="Layer 1" xmlns="http://www.w3.org/2000/svg" viewBox="0 0 72 72">
  <defs>
    <style>
      .cls-1 {
        fill: #5a2b5f;
      }

      .cls-2 {
        fill: #233695;
      }
    </style>
  </defs>
  <path class="cls-2" d="M39.98,46.2s.03,.03,.03,.04c0,.01-.02,.03-.04,.04-.01-.01-.03-.03-.03-.04,0-.01,.02-.02,.04-.04Z"/>
  <path class="cls-2" d="M40.04,46.81c0,.06-.02,.12-.03,.17-.02-.05-.05-.09-.07-.14l.1-.03Z"/>
  <g>
    <path class="cls-1" d="M72.11,32.23c-.31,1.37-.71,2.71-1.56,3.86-1.72,2.32-4.04,3.48-6.92,3.54-1.01,.02-2.02,.01-3.02,0-.35,0-.51,.09-.64,.45-.72,1.94-2.82,2.53-4.46,1.26-1.3-1-2.58-2.02-3.84-3.07-1.52-1.26-1.53-3.24-.01-4.49,1.28-1.06,2.58-2.1,3.9-3.11,1.62-1.24,3.7-.63,4.41,1.27,.13,.34,.26,.49,.63,.47,.65-.03,1.31,.01,1.97-.02,1.34-.05,2.34-.98,2.36-2.31,.04-3.66,.04-7.31,0-10.97-.01-1.27-.97-2.17-2.23-2.29-.21-.02-.42-.02-.63-.02-11.76,0-23.52,0-35.29-.02-.57,0-.79,.17-.97,.71-1.99,5.81-7.51,9.27-13.17,8.88C6.24,25.94,1.36,21.53,.3,15.47-.87,8.79,3.34,2.2,9.9,.47c6.67-1.76,13.56,1.85,15.82,8.33,.22,.64,.51,.83,1.17,.83,12.09-.02,24.18,.03,36.27-.04,5.03-.03,8.34,3.47,8.84,7.14,0,.06,.07,.11,.11,.17v15.33ZM26.52,14.42c.31,0,.56,0,.82,0,11.46,0,22.91,0,34.37,0,.44,0,.89,0,1.33,.05,2.42,.28,4.23,2.18,4.27,4.63,.05,3.68,.05,7.36,0,11.04-.03,2.55-1.99,4.52-4.53,4.66-1.07,.06-2.15,.03-3.23,.03-1.51,0-1.72-.21-1.83-1.73-.01-.21-.11-.51-.26-.58-.15-.07-.44,.05-.61,.17-1.18,.92-2.35,1.86-3.52,2.8-.55,.44-.54,.63,.02,1.08,1.09,.88,2.19,1.76,3.3,2.62,.23,.18,.56,.24,.84,.36,.08-.28,.21-.55,.22-.83,.05-1.09,.41-1.48,1.5-1.49,1.43-.01,2.86,.02,4.29,0,3.69-.06,6.21-2.6,6.22-6.27,0-4.22,.01-8.44,0-12.65,0-.6-.07-1.22-.22-1.8-.72-2.78-3.08-4.48-6.2-4.48-12.02,0-24.04,0-36.05,0-.23,0-.45,0-.72,0v2.4ZM5.42,20.45c.63-1.39,1.65-2.41,3.02-3.09-3.4-3.48-2.64-8.01-.23-10.42,2.58-2.58,6.7-2.86,9.54-.61,1.48,1.17,2.38,2.69,2.67,4.55,.39,2.52-.45,4.64-2.23,6.47,1.41,.7,2.4,1.73,3.04,3.1,3.51-3.49,4.22-10.27-.17-14.78-4.32-4.43-11.44-4.36-15.63,.15-4.35,4.69-3.36,11.36-.01,14.62Zm3.12-8.4c0,2.65,2.13,4.77,4.79,4.77,2.65,0,4.79-2.14,4.79-4.77,0-2.66-2.19-4.85-4.84-4.82-2.64,.03-4.75,2.18-4.74,4.83Zm4.79,7.21s0,0,0,0c-.94,0-1.88-.07-2.8,.02-1.49,.14-2.46,1.01-3,2.4-.16,.41-.06,.64,.31,.85,3.68,2.03,7.35,2.02,11.02-.03,.37-.21,.4-.43,.26-.8-.54-1.42-1.54-2.29-3.06-2.42-.91-.08-1.82-.01-2.74-.01Z"/>
    <path class="cls-1" d="M57.63,72.03c-.91-.21-1.84-.34-2.72-.64-4.41-1.5-7.3-4.49-8.67-8.96-.05-.17-.12-.34-.2-.57-.9,.72-1.76,1.4-2.62,2.08-1.93,1.54-3.79,1.07-4.81-1.17-.08-.18-.47-.32-.71-.32-3.33-.02-6.65,0-9.98-.02-2.27-.01-3.86-1.63-3.77-3.81,.07-1.75,1.44-3.21,3.19-3.35,.7-.06,1.4-.04,2.11-.04,2.83,0,5.67,0,8.5,0,.4,0,.6-.09,.75-.52,.64-1.82,2.76-2.47,4.31-1.32,1.01,.75,1.98,1.56,3.02,2.39,.08-.21,.15-.37,.2-.53,1.71-5.93,7.32-10,13.29-9.62,6.44,.4,11.46,4.93,12.46,11.24,.03,.18,.09,.35,.13,.53v2.95c-.04,.13-.1,.26-.13,.39-.95,5.3-3.96,8.86-9.04,10.64-.85,.3-1.76,.43-2.64,.64h-2.67Zm1.29-2.4c5.93,0,10.78-4.84,10.79-10.78,.01-5.97-4.86-10.85-10.81-10.84-5.94,.01-10.78,4.84-10.8,10.78-.02,5.95,4.85,10.83,10.81,10.84Zm-25.22-11.99c-.73,0-1.45,0-2.18,0-1.24,0-2.48-.01-3.72,0-.77,.01-1.23,.45-1.26,1.13-.03,.71,.44,1.19,1.22,1.26,.21,.02,.42,0,.63,0,3.58,0,7.16,0,10.74,0,1.45,0,1.7,.26,1.78,1.69,.01,.21,.11,.55,.23,.59,.19,.05,.49-.05,.66-.18,1.18-.92,2.34-1.87,3.52-2.79,.48-.38,.46-.68-.01-1.05-1.16-.91-2.3-1.84-3.47-2.74-.18-.14-.45-.18-.68-.26-.09,.25-.24,.49-.25,.74-.05,1.26-.39,1.61-1.67,1.61-1.85,0-3.7,0-5.55,0Z"/>
    <path class="cls-1" d="M12.11,62.44c-1.07,0-2.14,0-3.22,0-5.13,0-8.77-3.65-8.77-8.76,0-4.19,0-8.39,0-12.58,0-4.99,3.65-8.65,8.64-8.67,3.07-.01,6.14-.03,9.21,0,2.68,.03,4.41,2.46,3.51,4.87-.54,1.45-1.86,2.32-3.58,2.33-2.58,.01-5.15,0-7.73,0-1.98,0-2.86,.89-2.86,2.88,0,3.3,0,6.61,0,9.91,0,1.84,.92,2.78,2.75,2.8,.23,0,.47-.02,.7,0,.84,.09,1.39-.04,1.8-.99,.63-1.46,2.61-1.87,3.92-.91,1.49,1.09,2.94,2.25,4.34,3.46,1.25,1.09,1.23,3.02-.03,4.1-1.38,1.19-2.81,2.34-4.29,3.41-1.49,1.08-3.5,.42-4.18-1.29-.07-.17-.12-.35-.21-.58ZM2.52,47.4h0c0,2.25-.03,4.5,0,6.75,.05,3,2.28,5.51,5.26,5.8,1.63,.16,3.27,.08,4.91,.09,1.5,.01,1.71,.21,1.82,1.73,.01,.21,.12,.51,.27,.57,.15,.07,.44-.06,.6-.18,1.18-.92,2.35-1.86,3.52-2.8,.55-.44,.54-.63-.02-1.08-1.09-.88-2.19-1.77-3.3-2.62-.23-.18-.56-.24-.85-.35-.08,.28-.2,.55-.22,.84-.05,1.08-.43,1.48-1.51,1.49-.98,.01-1.97,0-2.95,0-3.13-.02-5.14-2.03-5.15-5.15,0-3.33,.07-6.66-.02-9.98-.08-2.9,1.99-5.4,5.31-5.29,2.55,.08,5.11,.02,7.66,.01,.91,0,1.43-.45,1.44-1.18,.01-.73-.51-1.21-1.41-1.21-3.11-.01-6.23-.06-9.34,.01-3.57,.08-6.02,2.65-6.03,6.23,0,2.11,0,4.22,0,6.33Z"/>
    <path class="cls-1" d="M39.39,39.64c-1.69,0-3.37,.01-5.06,0-.42,0-.64,.08-.81,.54-.65,1.79-2.73,2.44-4.26,1.3-1.43-1.06-2.82-2.17-4.17-3.33-1.34-1.15-1.32-3.11,.03-4.25,1.34-1.13,2.71-2.23,4.12-3.28,1.52-1.14,3.63-.51,4.27,1.27,.18,.5,.44,.55,.87,.55,3.3-.01,6.6-.02,9.9,0,1.85,0,3.18,.97,3.67,2.59,.62,2.07-.73,4.34-2.88,4.52-1.88,.16-3.79,.03-5.68,.03,0,.02,0,.05,0,.07Zm-.94-2.41c1.5,0,3,0,4.49,0,.56,0,1.13,.02,1.68-.04,.67-.06,1.06-.54,1.06-1.18,0-.63-.41-1.08-1.08-1.17-.23-.03-.47-.02-.7-.02-3.65,0-7.3,0-10.95,0-1.27,0-1.6-.34-1.64-1.63,0-.23-.14-.46-.22-.69-.25,.08-.54,.11-.74,.26-1.17,.9-2.31,1.84-3.47,2.74-.49,.38-.45,.69,.02,1.05,1.14,.89,2.27,1.81,3.41,2.7,.2,.16,.48,.21,.73,.31,.09-.27,.25-.53,.26-.8,.05-1.14,.39-1.52,1.52-1.53,1.87-.01,3.74,0,5.62,0Z"/>
    <path class="cls-1" d="M56.52,60.81c.56-.59,1.03-1.11,1.52-1.61,1.55-1.56,3.1-3.12,4.67-4.67,.61-.6,1.28-.64,1.8-.15,.54,.51,.51,1.22-.12,1.85-2.3,2.31-4.6,4.61-6.9,6.91-.67,.67-1.28,.66-1.95,0-.72-.7-1.43-1.42-2.13-2.14-.57-.59-.61-1.31-.11-1.8,.51-.51,1.19-.48,1.8,.12,.45,.44,.87,.91,1.43,1.5Z"/>
  </g>
</svg>