<?xml version="1.0" encoding="UTF-8"?>
<svg id="Layer_1" data-name="Layer 1" xmlns="http://www.w3.org/2000/svg" viewBox="0 0 72 72">
  <defs>
    <style>
      .cls-1 {
        fill: #5a2b5f;
      }
    </style>
  </defs>
  <path class="cls-1" d="M66.17,32.79h5.83c-.27,.52-.39,.93-.64,1.19-2.45,2.61-4.89,5.22-7.4,7.75-.3,.3-1.24,.38-1.51,.11-2.58-2.54-5.09-5.17-7.61-7.79-.14-.15-.19-.41-.43-.94h5.69c0-12.34-10.69-24.58-22.95-26.55C23.65,4.39,10.68,13.4,6.86,27.62c-3.79,14.12,2.48,29.26,14.73,35.35,7.71,3.83,15.5,3.84,23.18-.1,7.66-3.93,12.44-10.62,14.96-19.69,1.56,1.62,2.92,2.92,4.13,4.38,.28,.33,.15,1.29-.06,1.83-4.97,12.68-13.73,20.4-26.25,22.26C16.83,74.73-.73,57.05,.02,34.33,.61,16.71,13.54,1.83,29.7,.17c17.85-1.83,33.38,11.28,36.12,30.49,.1,.67,.22,1.33,.35,2.13Z"/>
  <path class="cls-1" d="M31.56,35.95c.45-5.85,.89-11.53,1.33-17.21,.14-1.79,.2-3.6,.42-5.38,.09-.7,.53-1.36,.81-2.03,.33,.63,.88,1.24,.95,1.91,.68,6.79,1.28,13.58,1.9,20.37,.12,1.36,.32,2.72,.31,4.08-.02,2.93-1.74,4.69-4.4,4.37-5.78-.68-11.55-1.43-17.32-2.23-.54-.07-1.02-.68-1.53-1.03,.55-.31,1.08-.82,1.66-.89,5.2-.69,10.41-1.3,15.86-1.96Z"/>
</svg>