<?xml version="1.0" encoding="UTF-8"?>
<svg id="Layer_1" data-name="Layer 1" xmlns="http://www.w3.org/2000/svg" viewBox="0 0 72 72">
  <defs>
    <style>
      .cls-1 {
        fill: #5a2b5f;
      }
    </style>
  </defs>
  <path class="cls-1" d="M-.45,72.43c0-.21,0-.38,0-.55,0-3.97,0-7.94,0-11.91,0-2.86,1.79-5.1,4.58-5.77,.87-.21,1.74-.4,2.61-.62,.3-.07,.61-.16,.89-.3,.86-.45,.91-.74,.28-1.48-.59-.7-1.52-1.31-2.37-1.55-1.72-.5-2.77-2.25-2.45-4.01,.06-.31-.03-.71-.19-.99-1.27-2.15-1.43-4.36-.23-6.56,1.19-2.19,3.11-3.33,5.61-3.39,1.59-.04,3.19,.01,4.79,0,.22,0,.49-.05,.67-.17,2.75-1.86,6.1-.97,7.8,1.23,1.9,2.46,1.6,5.6-.76,7.92-.03,.03-.06,.08-.12,.16,.11,.16,.23,.32,.34,.5,.72,1.13,.84,2.31,.24,3.51-.6,1.2-1.61,1.87-2.94,1.92-.52,.02-.75,.22-.99,.62-.3,.51-.71,.96-1.1,1.47,.32,.62,.87,.92,1.53,1.08,.77,.19,1.55,.35,2.33,.54,1.75,.42,2.07,.6,3.84,2.17,.76-.6,1.51-1.19,2.36-1.86,0-3.17,0-6.48,0-9.8,0-2.48,.88-4.63,2.58-6.44,2.57-2.72,6.59-3.61,10.07-2.25,3.48,1.36,5.87,4.76,5.91,8.48,.03,3.17,.02,6.34,0,9.51,0,.47,.15,.7,.55,.95,.65,.4,1.21,.93,1.87,1.44,1.42-2.01,3.76-2.17,5.92-2.71,.7-.18,1.33-.42,1.71-1.08-.45-.66-.88-1.32-1.36-1.94-.1-.13-.38-.16-.58-.17-2.32-.12-3.77-1.97-3.37-4.27,.04-.25-.04-.57-.18-.79-1.35-2.21-1.5-4.49-.23-6.75,1.25-2.24,3.24-3.3,5.81-3.3,2.56,0,5.13,0,7.69,0,2.54,.01,4.49,1.1,5.72,3.32,1.24,2.24,1.09,4.49-.21,6.69-.15,.26-.23,.63-.18,.93,.39,2.08-1.1,4.05-3.21,4.15-.53,.02-.8,.19-1.05,.65-.27,.5-.69,.93-1.07,1.43,.28,.65,.87,.94,1.54,1.11,1.05,.26,2.12,.47,3.17,.77,2.31,.65,4.08,2.68,4.13,5.06,.1,4.33,.03,8.66,.03,13.04H-.45Zm48.78-2.32h20.88c0-3.53,.05-7.02-.02-10.5-.03-1.42-.85-2.49-2.21-2.95-1.27-.42-2.6-.67-3.88-.99-2.26,3.87-5.95,3.85-8.69,.02-1.19,.28-2.39,.53-3.58,.86-1.38,.38-2.45,1.59-2.47,2.99-.06,3.5-.02,7.01-.02,10.56ZM7.98,55.69c-1.06,.25-2.14,.5-3.22,.77-1.93,.48-2.89,1.71-2.89,3.7,0,3.1,0,6.2,0,9.29,0,.23,0,.46,0,.67H22.69c.03-.08,.06-.12,.06-.16,0-3.44,.03-6.87,0-10.31-.02-1.44-1.05-2.69-2.45-3.09-1.2-.34-2.43-.59-3.64-.88-1.92,3.82-6.77,3.78-8.67,0Zm38.01,14.44c0-3.52,.02-6.96-.01-10.4-.01-1.53-1.09-2.81-2.59-3.21-.86-.23-1.75-.37-2.6-.63-.56-.17-.93-.06-1.33,.36-1.27,1.32-2.58,2.6-3.92,3.94-1.38-1.39-2.72-2.71-4.03-4.06-.31-.32-.59-.4-1.02-.28-.83,.24-1.69,.41-2.53,.62-1.88,.47-2.85,1.72-2.85,3.66,0,3.12,0,6.25,0,9.37,0,.21,.03,.42,.04,.63h20.85Zm20.38-26.4c.7-1.22,.74-2.57,.04-3.91-.74-1.39-1.93-2.16-3.51-2.18-2.76-.04-5.51-.03-8.27,0-1.77,.02-3.33,1.23-3.81,2.93-.33,1.16-.22,2.27,.38,3.18,.78-.11,1.45-.19,2.1-.32,.33-.07,.68-.18,.96-.36,1.01-.7,2.02-1.09,3.23-.45,.5,.27,1.08,.48,1.64,.53,1.63,.15,3.27,.19,4.91,.3,.74,.05,1.47,.18,2.33,.29Zm-61.6,.02c.73-.11,1.4-.19,2.05-.33,.35-.07,.72-.19,1.02-.39,.81-.53,1.69-1.08,2.62-.63,2.16,1.03,4.43,1.13,6.73,1.01,1.42-.07,2.45-.84,3-2.17,.54-1.3,.31-2.53-.61-3.58-.94-1.07-2.16-1.46-3.54-1.06-1.63,.47-2.41,1.66-2.59,3.3h-2.35c.16-.78,.31-1.51,.46-2.26-1.23,0-2.47-.1-3.69,.02-2.98,.29-4.59,3.57-3.1,6.09Zm37.63-.32c-.42-2.29-1.66-4.04-3.79-5.08-2.55-1.24-5.03-.97-7.3,.73-1.47,1.1-2.35,2.59-2.62,4.49,.37-.06,.61-.15,.85-.13,.71,.06,1.27-.16,1.84-.6,.7-.53,1.56-.83,2.45-.42,1.54,.72,3.15,1.04,4.85,1,1.2-.02,2.41,0,3.73,0Zm-26.6,2.32c-.33,0-.6,0-.86,0-1.59,0-3.12-.31-4.59-.89-.92-.36-1.48,0-1.5,1.01-.02,.77-.02,1.55,0,2.32,.06,1.85,1.57,3.34,3.41,3.37,1.84,.03,3.42-1.4,3.54-3.24,.05-.82,0-1.64,0-2.57Zm23.22,.07c-.99-.08-1.91-.08-2.81-.24-.9-.16-1.78-.44-2.64-.73-.92-.32-1.48,.02-1.5,1.02-.02,.8-.03,1.6,0,2.39,.08,1.81,1.6,3.27,3.41,3.3,1.84,.03,3.43-1.41,3.53-3.24,.05-.82,0-1.64,0-2.5Zm23.22,0c-.99-.08-1.91-.08-2.81-.24-.9-.16-1.78-.44-2.64-.73-.9-.31-1.47,.01-1.5,.95-.03,.82-.03,1.65,0,2.47,.08,1.81,1.61,3.27,3.41,3.29,1.84,.03,3.42-1.41,3.53-3.25,.05-.82,0-1.64,0-2.49ZM10.59,53.84c-.06-.07-.12-.14-.18-.21-.09,.32-.3,.67-.25,.96,.16,.92,1.2,1.64,2.21,1.62,.98-.02,1.95-.75,2.15-1.63,.12-.5-.27-.94-.74-.91-1.06,.08-2.12,.11-3.18,.16Zm23.06-.08c-.09,.13-.3,.42-.41,.58,.84,.85,1.62,1.63,2.32,2.33,.73-.73,1.51-1.51,2.32-2.31-.16-.21-.36-.48-.44-.59h-3.78Zm26.99-.02c-1.13,0-2.13,0-3.12,0-.25,0-.61,0-.71,.15-.15,.24-.25,.64-.15,.89,.31,.83,.98,1.3,1.85,1.41,.85,.1,1.56-.22,2.08-.9,.42-.54,.64-1.1,.04-1.56Zm-28.95-1.3c-.97-.81-1.22-2.57-3.08-2.07v3.57c1.12-.37,2.39-.25,3.08-1.5Zm10.78,1.49v-3.66c-.39,.05-.75,.08-1.1,.14-.2,.03-.48,.03-.58,.16-.48,.63-.91,1.29-1.36,1.95,.68,1.13,1.91,1.05,3.04,1.4ZM6.47,48.09v-2.32c-.71,.11-1.1,.49-1.1,1.15,0,.67,.39,1.04,1.1,1.17Zm11.7-2.31v2.31c.71-.14,1.1-.52,1.09-1.18-.01-.66-.4-1.04-1.09-1.13Zm11.51,2.3v-2.32c-.7,.15-1.1,.51-1.1,1.18,0,.66,.4,1.04,1.1,1.14Zm11.7-2.32v2.34c.69-.14,1.1-.49,1.11-1.16,0-.67-.39-1.04-1.11-1.18Zm11.54,.05c-.76,.13-1.17,.54-1.12,1.16,.06,.65,.43,1.03,1.12,1.09v-2.26Zm11.66,2.25c.81-.19,1.18-.6,1.13-1.21-.04-.61-.45-.97-1.13-1v2.2Z"/>
  <path class="cls-1" d="M28.58,28.32c-.48,0-.88,.01-1.29,0-1.83-.07-3.34-1.53-3.34-3.36-.03-7.04-.03-14.08,0-21.13,0-1.95,1.58-3.39,3.6-3.4,4.81,0,9.62,0,14.43,0,6.62,0,13.25,0,19.87,0,2.47,0,3.88,1.4,3.88,3.86,0,6.73,0,13.45,0,20.18,0,2.45-1.42,3.85-3.89,3.85-7.91,0-15.81,.01-23.72-.02-.69,0-1.17,.2-1.63,.69-.96,1.02-1.97,2-2.97,2.98-.99,.98-2.12,1.26-3.23,.76-1.22-.55-1.75-1.53-1.72-2.85,.01-.48,0-.97,0-1.57Zm2.32-2.32c0,1.33-.02,2.54,.01,3.75,0,.28,.19,.55,.3,.82,.26-.12,.59-.17,.78-.36,1.25-1.21,2.49-2.44,3.7-3.69,.36-.38,.73-.53,1.26-.53,8.32,.02,16.64,.01,24.96,.01,1.1,0,1.5-.4,1.5-1.48,0-6.75,0-13.51,0-20.26,0-1.1-.4-1.5-1.47-1.5-11.39,0-22.79,0-34.18,0-1.1,0-1.5,.39-1.5,1.47,0,6.75,0,13.51,0,20.26,0,1.12,.39,1.5,1.54,1.51,1.01,0,2.02,0,3.1,0Z"/>
  <path class="cls-1" d="M49.18,21.02c-.55-.61-1.04-1.14-1.53-1.68,1.57-1.56,3.21-3.18,4.87-4.82-1.76-1.75-3.39-3.38-5.05-5.04,.62-.61,1.14-1.13,1.67-1.65,1.62,1.63,3.24,3.25,4.85,4.87,1.7-1.71,3.33-3.34,5-5.02,.6,.68,1.09,1.24,1.62,1.85-1.54,1.53-3.17,3.16-4.88,4.85,1.7,1.69,3.34,3.32,4.99,4.97-.56,.56-1.08,1.07-1.62,1.6-1.63-1.64-3.26-3.28-4.93-4.97-1.72,1.73-3.35,3.37-5,5.03Z"/>
  <path class="cls-1" d="M33.16,20.45c-1.32-1.32-2.72-2.72-4.14-4.15,.48-.45,1.01-.94,1.56-1.46,.79,.83,1.63,1.71,2.51,2.62,3.33-3.33,6.51-6.52,9.73-9.75,.56,.62,1.04,1.15,1.46,1.61-3.67,3.68-7.4,7.41-11.11,11.12Z"/>
</svg>