<?xml version="1.0" encoding="UTF-8"?>
<svg id="Layer_1" data-name="Layer 1" xmlns="http://www.w3.org/2000/svg" viewBox="0 0 261.04 173.97">
  <defs>
    <style>
      .cls-1 {
        fill: #e2dcf9;
      }
    </style>
  </defs>
  <path class="cls-1" d="M221.83,.25h38.96c-1.8,25.04-18.13,43.63-43.13,47.38-15.66,2.35-30.67-.98-44.28-9.4-9.78-6.04-18.69-13.44-29.08-18.54-13.13-6.45-26.51-9.15-40.13-1.06-3.72,2.2-5.89,5.63-7.85,9.19-2.61,4.75-3.92,7.66-4.86,9.57-6.41,13.1-32.45,17.22-34.46,13.44-.81-1.52,2.91-3.16,5.34-9.34,1.96-4.99,2.1-9.32,.92-15.98-1.48-8.36-2.2-16.85-3.26-25.27h92.9c10.81,7.42,22.64,12.58,35.75,14.5,13.96,2.04,27.35-3.99,33.18-14.5Z"/>
  <path class="cls-1" d="M.07,72.14c4.75,5.47,7.09,12.24,9.99,18.68,4.4,9.76,6.59,20.23,6.53,30.8-.11,18.69-4.73,36.29-15.67,51.84-.17,.25-.56,.34-.84,.51,0-33.95,0-67.89,0-101.84Z"/>
  <path class="cls-1" d="M221.83,.25c-5.83,10.78-19.22,16.96-33.18,14.87-13.11-1.97-24.94-7.26-35.75-14.87h68.93Z"/>
  <path class="cls-1" d="M65.88,51.53c-17.26,4.62-40.74,3.1-65.81,0V.25H69.36c10.02,15.62,10.61,32.49-3.48,51.28Z"/>
</svg>