<?xml version="1.0" encoding="UTF-8"?>
<svg id="Layer_1" data-name="Layer 1" xmlns="http://www.w3.org/2000/svg" viewBox="0 0 200 200">
  <defs>
    <style>
      .cls-1 {
        fill: #fbb247;
      }
    </style>
  </defs>
  <path class="cls-1" d="M92.24,0c4.6,.82,9.25,1.45,13.8,2.49,34.69,7.93,60.88,36.38,64.63,70.13,.09,.83,.01,1.68,.01,2.63-4.81-1.05-7.56-2.78-8.58-8.05-1.36-6.99-4.67-13.66-7.42-20.37-.46-1.13-2.34-2.41-3.6-2.45-7.29-.23-14.59-.11-22.46-.11,2.2,4.62,4.34,8.83,6.22,13.14,2.54,5.82,2.29,6.19-3.92,8.57-3.23-6.34-6.36-12.71-9.75-18.95-.65-1.19-2.33-2.6-3.57-2.63-9.24-.22-18.49-.12-28-.12v33.63h11.36c.05,.42,.1,.85,.16,1.27-5.62,.86-11.22,1.98-16.88,2.51-5.13,.48-10.33,.33-15.5,.45-.61,.01-1.57-.21-1.77,.06-3.99,5.53-9.83,1.96-14.75,2.63-4.3,.59-8.76,.12-14.29,.12,1.33,5.82,2.51,11.08,3.73,16.33,.2,.84,.56,1.65,.87,2.46q5.77,14.67,22.01,14.99c.76,.02,1.51,.1,2.61,.17,.36,1.91,.73,3.85,1.21,6.39-3.99,.18-7.8,.34-12.95,.57,4.64,4.86,8.75,8.8,12.38,13.11,2.38,2.83,4.44,6.04,5.97,9.37,2.06,4.47,3.48,9.22,5.29,14.15-14.06-.88-26.86-4.9-38.56-11.96C17.55,136.68,4.3,116.86,.76,91.17c-.12-.84-.5-1.65-.76-2.48,0-4.64,0-9.28,0-13.91,.27-1.1,.62-2.18,.79-3.29C5.12,42.25,21.36,21.19,48.94,7.92,58.55,3.3,68.95,1.47,79.45,0c4.26,0,8.52,0,12.79,0Zm-10.45,44.26c-7.18,0-13.93,.65-20.49-.17-8.06-1.01-12.03,2.32-14.99,8.88-3.58,7.95-6.96,15.83-7.39,24.65h42.88V44.26ZM29.83,77.85c3.98-11.41,7.8-22.39,11.68-33.53h-9.59c-16.05,0-16.23-.05-20.89,14.87-1.86,5.95-2.71,12.19-4.09,18.66H29.83Zm10.37,40.86c-3.55-11.23-7-22.15-10.5-33.25H7.54c.67,11.08,3.49,21.2,8.93,30.6,.64,1.1,2.04,2.5,3.13,2.54,7.09,.23,14.18,.12,20.6,.12ZM96.67,7.72c8.69,9.53,17.21,18.89,25.78,28.22,.54,.59,1.45,1.24,2.2,1.25,7.65,.09,15.31,.06,23.88,.06-13.76-16.89-30.9-26.2-51.86-29.53Zm-22.5,.31c-17.46,.97-45.13,16.72-50.5,29.23,7.55,0,14.97,.04,22.38-.06,.89-.01,2-.64,2.62-1.31,8.59-9.31,17.11-18.68,25.5-27.86Zm-.9,146.59c-8.41-8.96-16.97-18.09-25.56-27.2-.58-.61-1.36-1.48-2.06-1.49-7.33-.11-14.65-.07-22.42-.07,10.39,14.97,34.42,28.43,50.04,28.76Zm8.36-117.51V13.23c-.34-.2-.68-.39-1.03-.59-7.83,7.83-15.66,15.66-23.49,23.49,.31,.33,.62,.65,.92,.98h23.59Zm9-24.38c-.33,.22-.67,.44-1,.66v23.65h23.57c.28-.31,.55-.63,.83-.94-7.8-7.79-15.6-15.58-23.39-23.37Z"/>
  <path class="cls-1" d="M140.64,200c-8.47-4.7-17.64-8.55-25.26-14.28-16.99-12.78-25.21-30.74-29.51-50.48-2.91-13.35-3.74-26.88-3.47-40.21,8.39-.89,16.4-1.37,24.27-2.66,11.4-1.87,21.67-6.59,30.92-13.12,2.75-1.94,4.54-1.65,7.18-.13,12.13,7.01,24.82,12.86,38.97,15.08,5.36,.84,10.84,.99,16.27,1.45v19.13c-.29,1.98-.66,3.96-.86,5.95-1.93,19.44-7.44,37.64-20.2,53.36-9.82,12.1-22.77,20.09-37.38,25.91h-.91Zm-51.52-100.01c-.37,13.59,.52,27.4,4.24,40.91,6.48,23.57,20.26,41.47,44.64,50.78,1.74,.67,4.23,.82,5.91,.16,13.52-5.27,24.81-13.36,33.17-24.89,9.76-13.45,14.28-28.64,15.51-44.73,.55-7.28,.09-14.63,.09-21.98-3.76-.21-7.42-.22-11.01-.66-13.04-1.6-24.8-6.57-35.9-12.98-3.39-1.96-5.53-1.9-9.14,.06-7.57,4.11-15.55,7.93-23.85,10.3-7.28,2.08-15.23,2.03-23.66,3.01Z"/>
  <path class="cls-1" d="M141.56,179.79V96.82c12.46,6.86,24.87,12.82,39.33,12.11,6.93,28.07-13.74,65.3-39.33,70.87Z"/>
</svg>