<?xml version="1.0" encoding="UTF-8"?>
<svg id="Layer_1" data-name="Layer 1" xmlns="http://www.w3.org/2000/svg" viewBox="0 0 200 200">
  <defs>
    <style>
      .cls-1 {
        fill: #fbb247;
      }
    </style>
  </defs>
  <path class="cls-1" d="M0,181.24c33.52,0,67.04,.08,100.57-.03,39.14-.13,71.69-27.08,79.47-65.59,9.1-45.07-20.32-88.57-65.39-96.66-1.85-.33-3.74-.44-6.22,.23,2.03,1.86,4.3,3.53,5.99,5.66,.76,.95,.35,2.83,.48,4.29-1.56-.03-3.69,.6-4.57-.19-4.19-3.76-8.18-7.79-11.91-12.02-.79-.9-.88-3.63-.13-4.48,3.73-4.23,7.73-8.24,11.92-12,.91-.82,3.03-.28,4.6-.36-.19,1.57,.18,3.59-.67,4.62-1.91,2.33-4.41,4.16-6.35,6.66,13.55,1.97,25.79,6,37.1,12.79,31.8,19.11,48.39,56.54,41.03,92.57-7.39,36.14-37.15,64.47-73.4,69.66-5.26,.75-10.64,.95-15.96,.96-32.19,.11-64.37,.09-96.56,.12v-6.25Z"/>
  <path class="cls-1" d="M183.37,200c-2.34-2.19-2.25-4.24,.2-6.33,1.91-1.63,3.69-3.42,6.39-5.95h-42.4v-6.35h42.24c-2.76-2.84-4.99-4.72-6.63-7.02-.8-1.12-.52-3.03-.73-4.58,1.67,.16,3.88-.31,4.92,.59,3.81,3.28,7.18,7.06,10.81,10.56,2.43,2.34,2.45,4.37-.01,6.77-4.13,4.01-8.09,8.2-12.12,12.32h-2.67Z"/>
  <path class="cls-1" d="M80.46,47.43c.53,1.45,1.08,2.95,1.76,4.83-14.34,6.11-24.62,16.07-29.61,30.9-3.62,10.75-3.69,21.63-.11,32.43,7.2,21.74,27.64,35.51,50.74,34.24,22.53-1.23,41.37-17.46,46.05-39.82,4.22-20.15-3.54-45.74-31.11-57.82,.5-1.57,1.02-3.19,1.53-4.78,18.46,2.08,37.82,30.75,36.65,53.93-1.55,30.47-26.32,54.56-56.16,54.61-29.54,.06-54.06-23.5-56.27-54.07-1.66-22.9,17.82-52.09,36.54-54.46Z"/>
  <path class="cls-1" d="M96.85,55.44v-6.18c-1.89-.13-3.63-.26-5.71-.4v-5.48h18.08v5.42c-1.75,.14-3.49,.28-5.59,.44v6.34c15.31,1.92,27.16,9.66,34.93,23.36,5.13,9.04,6.44,18.85,4.45,28.94-4.15,20.98-24.12,36.7-44.6,35.44-22.48-1.38-39.89-18.58-41.82-41.14-1.62-18.94,12.02-42.86,40.27-46.74Zm3.01,81.92c21.07,.12,38.04-16.76,38.04-37.83,0-20.98-16.62-37.81-37.47-37.92-21.13-.12-37.97,16.63-38.03,37.81-.06,20.92,16.64,37.84,37.46,37.95Z"/>
  <path class="cls-1" d="M84.21,13.52c.22,1.73,.44,3.45,.67,5.24C49.7,27.68,26.49,48.97,20.14,85.03c-6.3,35.76,7.61,63.91,37.45,84.52-.89,1.53-1.77,3.04-2.65,4.53C31.17,161.77,7.58,126.77,13.45,87.3,20.13,42.44,56.57,17.07,84.21,13.52Z"/>
  <path class="cls-1" d="M119.38,75.44c1.97,1.66,3.31,2.8,5.22,4.42-4.07,3.86-7.68,7.35-11.38,10.75-1.69,1.55-2.23,2.91-1.38,5.39,1.87,5.49-.64,11.17-5.64,14.12-4.87,2.87-10.6,2.1-14.63-1.98-4.04-4.08-4.86-10-2.05-14.7,3.14-5.24,8.63-7.26,14.51-5.76,1.34,.34,3.45-.12,4.43-1.04,3.79-3.53,7.27-7.39,10.92-11.19Zm-19.38,17.54c-3.51,.05-6.36,3.06-6.3,6.65,.06,3.66,2.91,6.4,6.59,6.35,3.52-.04,6.45-3.09,6.36-6.64-.09-3.54-3.09-6.42-6.65-6.37Z"/>
  <path class="cls-1" d="M97.33,68.46h5.72v5.33h-5.72v-5.33Z"/>
  <path class="cls-1" d="M125.66,96.5h5.3v5.87h-5.3v-5.87Z"/>
  <path class="cls-1" d="M97.32,124.95h5.66v5.45h-5.66v-5.45Z"/>
  <path class="cls-1" d="M69.29,96.54h5.32v5.81h-5.32v-5.81Z"/>
</svg>