<?xml version="1.0" encoding="UTF-8"?>
<svg id="Layer_1" data-name="Layer 1" xmlns="http://www.w3.org/2000/svg" viewBox="0 0 200 200">
  <defs>
    <style>
      .cls-1 {
        fill: #fbb247;
      }
    </style>
  </defs>
  <path class="cls-1" d="M98.18,200c0-.27-.26-.17-.41-.19-2.52-.3-4.87-1.05-7.06-2.2-9.16-4.83-18.33-9.65-27.49-14.48-.51-.27-1-.55-1.41-.92-.75-.68-.67-1.25,.31-1.63,.77-.3,1.57-.54,2.38-.76,3.74-1.03,7.21-2.58,10.55-4.36,.84-.45,1.58-.38,2.37,.04,3.54,1.88,7.08,3.76,10.62,5.64,3.38,1.8,6.77,3.59,10.15,5.39,1.05,.56,2.06,.58,3.16,.02,22.14-11.39,44.28-22.76,66.42-34.13,5.22-2.68,10.44-5.37,15.67-8.04,.92-.47,1.39-1.12,1.39-2.05,0-.24,.02-.49,.02-.73,0-27.78,0-55.57,0-83.35,0-.28-.01-.55-.02-.83-.04-.85-.47-1.46-1.32-1.89-12.84-6.56-25.68-13.13-38.52-19.69-14.52-7.43-29.05-14.85-43.57-22.29-1.12-.57-2.15-.6-3.31,0-27.21,13.93-54.43,27.86-81.66,41.76-1.23,.63-1.75,1.44-1.75,2.68,.02,27.96,.02,55.92,0,83.89,0,1.26,.52,2.09,1.77,2.72,7.18,3.64,14.32,7.35,21.5,10.99,3.06,1.55,6.34,2.45,9.92,2.35,5.91-.15,10.47-4.28,10.47-9.51,0-27.6,0-55.21,0-82.81,0-.24,0-.49,.02-.73,.12-1.23,1.09-2.11,2.48-2.12,3.52-.03,7.04-.03,10.57,0,1.46,.01,2.45,.97,2.47,2.27,0,.11,0,.23,0,.34,0,27.77,0,55.53,0,83.3,0,3.73-.56,7.37-2.17,10.84-2.81,6.09-7.91,9.85-15.11,11.26-6.75,1.32-13.39,.95-19.87-1.36-4.45-1.59-8.59-3.66-12.72-5.77-4.98-2.54-9.97-5.05-14.95-7.58-4.9-2.49-7.85-6.21-8.85-11.14-.03-.13,.07-.35-.22-.37V55.66c.31,0,.2-.23,.22-.36,1-4.91,3.94-8.61,8.81-11.11C36.14,30.27,63.25,16.35,90.35,2.42c2.17-1.12,4.45-1.92,6.93-2.23,.13-.02,.36,.06,.35-.19h4.62c.05,.27,.31,.18,.47,.2,2.3,.3,4.44,.97,6.45,2.01,9.95,5.12,19.9,10.22,29.85,15.34,17.39,8.93,34.79,17.86,52.17,26.81,4.87,2.51,7.68,6.31,8.59,11.24,.02,.13-.09,.35,.21,.37v88.38c-.31,0-.2,.23-.22,.35-.94,5-3.87,8.78-8.82,11.32-25.81,13.26-51.62,26.52-77.43,39.77-1.68,.86-3.34,1.78-5.07,2.55-1.9,.85-3.97,1.25-6.07,1.48-.16,.02-.42-.08-.47,.19h-3.74Z"/>
  <path class="cls-1" d="M125.09,141.71c-6.33-.02-12.61-.45-18.78-1.77-4.81-1.03-9.39-2.58-13.47-5.12-5.28-3.29-8.68-7.72-10.19-13.29-.61-2.26-.88-4.55-.89-6.87,0-1.34,1.07-2.32,2.58-2.32,3.52,0,7.04,0,10.57,0,1.44,0,2.19,.64,2.39,1.88,.32,2.02,.84,4,1.78,5.87,1.69,3.35,4.67,5.39,8.48,6.6,2.92,.93,5.96,1.38,9.03,1.64,5.07,.43,10.15,.47,15.22,.18,3.8-.22,7.56-.66,11.13-1.93,2.56-.91,4.8-2.21,6.16-4.43,1.45-2.36,1.71-4.89,1.09-7.49-.35-1.46-1.46-2.49-2.84-3.29-2.02-1.17-4.29-1.83-6.6-2.37-4.49-1.06-9.08-1.66-13.69-2.16-5.71-.62-11.46-.99-17.13-1.95-4.82-.82-9.56-1.87-13.97-3.88-3.9-1.78-7.09-4.21-9.08-7.75-1.4-2.49-2.02-5.15-2.17-7.91-.31-5.49,1.08-10.53,5.05-14.88,2.47-2.71,5.57-4.7,9.08-6.21,4.35-1.88,8.97-2.94,13.74-3.51,6.75-.81,13.5-.73,20.25-.07,5.16,.51,10.2,1.5,14.94,3.46,7.82,3.23,12.67,8.61,14.72,16.01,.5,1.79,.81,3.6,1.01,5.44,.14,1.28-.75,2.75-2.76,2.71-3.32-.08-6.64-.02-9.96-.02-1.44,0-2.3-.6-2.62-1.85-.52-2.02-1.23-3.98-2.41-5.79-2.05-3.16-5.22-4.99-9.07-6.01-3.33-.88-6.76-1.2-10.21-1.32-4.02-.14-8.03-.15-12.03,.34-3.11,.38-6.14,.98-8.87,2.44-2.89,1.55-4.42,3.82-4.54,6.83-.03,.7-.02,1.4,.08,2.1,.21,1.46,1.03,2.58,2.41,3.4,1.63,.96,3.46,1.48,5.32,1.93,3.74,.9,7.56,1.44,11.39,1.97,5.44,.75,10.91,1.26,16.34,2.05,5.31,.78,10.57,1.7,15.63,3.4,2.81,.94,5.47,2.14,7.81,3.83,3.3,2.39,5.33,5.47,6.19,9.15,1.08,4.62,.86,9.2-.89,13.67-1.97,5.02-5.72,8.76-10.78,11.51-4.54,2.47-9.52,3.86-14.71,4.72-4.87,.81-9.78,1.1-14.73,1.08Z"/>
</svg>