<?xml version="1.0" encoding="UTF-8"?>
<svg id="Layer_1" data-name="Layer 1" xmlns="http://www.w3.org/2000/svg" viewBox="0 0 150 200">
  <defs>
    <style>
      .cls-1 {
        fill: #fbb247;
      }
    </style>
  </defs>
  <path class="cls-1" d="M105.06,175.3v-14.87h5.03c0,.92,0,1.82,0,2.72,0,6.3,.05,12.59-.01,18.89-.09,8.95-5.25,16.12-12.68,17.69-1.09,.23-2.23,.26-3.35,.26-25.98,.01-51.95,.01-77.93,0-8.64,0-15.44-6.88-16.02-16.19-.06-.99-.06-1.98-.06-2.97C.02,126.99,.04,73.15,0,19.3,0,14.23,1.01,9.62,4.15,5.72,7.1,2.05,10.84,.02,15.42,.02c26.44-.01,52.88-.04,79.32,.02,8.41,.02,14.95,7.27,15.29,17.2,.26,7.7,.05,15.42,.04,23.13,0,.2-.1,.39-.18,.69h-4.68c-.03-.78-.09-1.53-.09-2.28,0-6.72-.13-13.45,.03-20.16,.15-6.19-3.94-13.44-11.98-12.83-3.14,.24-6.31,.04-9.73,.04,0,1.5,.05,2.76,0,4.01-.2,4.32-2.57,6.73-6.61,6.73-14.48,0-28.95,0-43.43,0-4.33,0-6.71-2.57-6.74-7.23,0-1.05,0-2.1,0-3.36-.76-.06-1.39-.15-2.02-.15-2.91-.02-5.82-.02-8.72,0-5.66,.04-10.09,4.27-10.76,10.29-.12,1.05-.14,2.12-.14,3.18,0,51.08,0,102.17,0,153.25v2.76H105.06Zm-49.94,17.21c3.56,0,7.13,.02,10.69,0,3.18-.03,5.22-2.12,5.24-5.28,.01-3.14-2.07-5.34-5.19-5.35-7.19-.03-14.39-.03-21.58,0-3.14,.01-5.25,2.19-5.26,5.3-.02,3.11,2.1,5.3,5.22,5.33,3.63,.03,7.26,0,10.89,0Z"/>
  <path class="cls-1" d="M24.09,59.75v-22.06c.71-.04,1.4-.12,2.1-.12,18.77,0,37.54,.01,56.31-.04,1.46,0,2.46,.45,3.45,1.56,2.46,2.76,4.97,5.49,7.59,8.08,.73,.72,1.91,1.27,2.89,1.27,16.92,.08,33.84,.05,50.76,.05,.85,0,1.69,0,2.68,0v11.25H24.09Zm10.09-15.35c-.02-1.82-1.51-3.33-3.23-3.28-1.66,.05-3.03,1.5-3.07,3.25-.04,1.81,1.41,3.37,3.14,3.39,1.73,.01,3.18-1.53,3.16-3.36Zm18.19,.01c-.01-1.82-1.49-3.33-3.23-3.29-1.64,.03-3.03,1.5-3.08,3.23-.04,1.82,1.39,3.39,3.12,3.4,1.73,.01,3.2-1.52,3.19-3.34Zm-9.1,.02c0-1.82-1.47-3.35-3.2-3.32-1.65,.03-3.04,1.47-3.1,3.22-.06,1.81,1.39,3.41,3.1,3.44,1.72,.03,3.19-1.51,3.2-3.34Z"/>
  <path class="cls-1" d="M24.01,63.3h125.99c0,.82,0,1.57,0,2.32,0,26.38,0,52.76,0,79.14,0,5.71-2.39,8.24-7.77,8.24-36.8,0-73.6,0-110.4,0-5.43,0-7.82-2.59-7.83-8.44,0-26.31,0-52.62,0-78.92,0-.69,0-1.39,0-2.32Zm4.45,4.67c-.04,.73-.11,1.36-.11,1.98,0,24.97-.01,49.94,0,74.9,0,2.83,.69,3.51,3.5,3.51,36.8,0,73.61,0,110.41,0,2.86,0,3.43-.64,3.43-3.78,0-24.76,0-49.51,0-74.27,0-.75,0-1.51,0-2.35H28.46Z"/>
  <path class="cls-1" d="M86.93,139.84c-16.35,0-29.63-14.19-29.66-31.68-.03-17.6,13.26-31.8,29.74-31.78,16.41,.02,29.62,14.14,29.62,31.66,0,17.67-13.2,31.8-29.7,31.8Zm-12.63-20.7c3.67-.61,7.02-1.16,10.38-1.72v-6.9h-11.54c.4,2.99,.78,5.8,1.16,8.62Zm10.43-20.36c-3.48-.57-6.78-1.11-10.43-1.71-.37,2.81-.74,5.65-1.13,8.59h11.56v-6.88Zm4.57,18.65c3.42,.57,6.72,1.12,10.33,1.72,.38-2.83,.77-5.68,1.17-8.64h-11.5v6.92Zm-.01-11.78h11.52c-.42-2.99-.81-5.8-1.19-8.58-3.61,.6-6.91,1.15-10.33,1.71v6.87Zm-20.57,4.87h-6.94c.36,4.71,1.71,8.85,4.19,12.59,1.54-.84,2.88-1.57,4.18-2.27-.48-3.46-.94-6.8-1.42-10.32Zm.01-4.86c.49-3.59,.95-6.97,1.4-10.32-1.46-.77-2.8-1.48-4.11-2.18-2.44,3.22-4.3,9.01-4.03,12.5h6.74Zm39.28,17.47c2.41-3.9,3.85-7.98,4.13-12.57h-6.94c-.49,3.56-.95,6.94-1.41,10.29,1.39,.75,2.68,1.45,4.22,2.28Zm4.15-17.46c-.37-4.69-1.74-8.78-4.15-12.56-1.26,.66-2.41,1.19-3.47,1.86-.35,.22-.73,.85-.68,1.23,.41,3.13,.91,6.25,1.4,9.48h6.91Zm-36.48-13.05c3.23,.52,6.05,.97,9,1.45v-12.74c-4.77,2.2-6.95,6.33-9,11.3Zm9.03,42.27v-12.79c-3.01,.5-5.84,.97-8.98,1.49,1.95,4.93,4.16,9.06,8.98,11.3Zm4.46-12.79c0,3.98,0,7.5,0,11.01,0,.47,.08,.94,.12,1.42,3.51-.83,7.9-6.42,8.54-11-2.77-.46-5.54-.92-8.67-1.43Zm9.04-29.5c-2.04-4.93-4.17-9.1-8.88-11.17v12.65c2.98-.5,5.76-.96,8.88-1.49Zm1.76-7.91c-.1,.14-.2,.28-.3,.42,.89,1.87,1.77,3.75,2.72,5.75,.93-.5,1.78-.95,3-1.6-2-1.68-3.71-3.13-5.43-4.57Zm-.37,46.55c.12,.12,.24,.24,.35,.36,1.73-1.5,3.46-3,5.44-4.71-1.28-.65-2.1-1.05-3-1.51-.97,2.05-1.88,3.96-2.79,5.87Zm-31.09-4.29c2.04,1.71,3.7,3.1,5.37,4.49,.12-.12,.23-.24,.35-.36-.88-1.88-1.76-3.77-2.69-5.75-.96,.51-1.76,.94-3.02,1.62Zm5.72-41.83c-.12-.12-.23-.24-.35-.37-1.69,1.43-3.38,2.86-5.34,4.51,1.26,.67,2.11,1.12,3.01,1.6,.95-2.04,1.81-3.9,2.68-5.75Z"/>
</svg>