<?xml version="1.0" encoding="UTF-8"?>
<svg id="Layer_1" data-name="Layer 1" xmlns="http://www.w3.org/2000/svg" viewBox="0 0 200 200">
  <defs>
    <style>
      .cls-1 {
        fill: #fbb247;
      }
    </style>
  </defs>
  <path class="cls-1" d="M96.6,186.03c0-3.43-.05-6.73,.02-10.03,.05-2.34,1.43-3.59,3.92-3.6,6.47-.03,12.94-.01,19.4-.01,9.27,0,18.54,.02,27.81,0,18.02-.04,31.6-13.64,31.64-31.67,0-3.15,0-6.3,0-9.59h-6.9c0,3.13,0,6.2,0,9.27-.04,14.67-10.45,25.06-25.15,25.09-3.01,0-6.02,0-9.51,0,.23-4.03,.15-7.98,.74-11.82,3.42-22.39,15.25-38.76,35.44-49.09,1.51-.77,2.73-.77,4.21,.01,9.35,4.98,14.55,12.74,14.88,23.3,.26,8.46,.43,17-.41,25.4-1.78,17.92-17.71,32.51-35.71,32.8-19.83,.32-39.67,.08-59.5,.09-.21,0-.41-.07-.88-.15Z"/>
  <path class="cls-1" d="M58.64,52.09c-3.15-2.84-6.52-5.87-9.95-8.95,4.44-7.43,3.9-14.36-1.77-19.19-5.17-4.41-12.6-4.46-17.82-.12-5.77,4.8-6.36,11.74-1.61,19.81-9.92,5.37-14.31,13.85-13.69,25.01-4.45-.34-7.86-3.42-8.52-7.88C3.49,48.7,1.75,36.61,.1,24.52c-.81-5.9,3.52-10.8,9.51-10.8,32.63-.03,65.25-.02,97.88,.02,1.52,0,3.04,.49,4.36,.72-.53,3.34-1.23,6.27-1.4,9.24-.23,4.16,1.74,7.36,5.39,9.34,1.13,.61,1.6,1.26,1.45,2.47-.06,.5-.06,1.01,0,1.51,.76,6.61-.45,12.57-4.99,17.78-1.93,2.22-2.27,5.18-1.72,8.18,.13,.72-.16,1.7-.6,2.31-1.51,2.07-3.63,3.18-6.49,3.51,.61-11.23-3.74-19.79-13.71-25.17,4.72-7.95,4.18-14.85-1.47-19.68-5.17-4.41-12.6-4.46-17.82-.12-5.78,4.8-6.37,11.76-1.91,19.32-3.44,3.09-6.81,6.12-9.96,8.95Z"/>
  <path class="cls-1" d="M59.39,158.54h-8.43c-.57-2.02-1.03-4.05-1.76-5.98-.3-.79-1.12-1.45-1.85-1.97-.56-.4-1.44-.35-1.99-.75-3.5-2.59-6.71-1.84-9.84,.67-.26,.21-.63,.3-1.23,.58-2.53-9.06-5.02-17.99-7.53-26.97h-5.89v-4.28c1.86-.52,3.88-.97,5.8-1.69,.79-.3,1.51-1.09,2-1.83,.5-.76,.49-1.86,1.02-2.58,2.24-3.09,1.67-5.93-.58-8.67-1.35-1.64-1.09-2.89,.52-4.28,1.45-1.25,2.58-2.87,3.85-4.32,.14,.14,.28,.28,.42,.42,.07,.01,.15,.01,.21,.05,2.21,1.16,4.38,3.14,6.65,3.27,2.18,.13,4.51-1.58,6.7-2.64,.71-.35,1.45-1.09,1.72-1.82,.71-1.95,1.18-3.98,1.76-6.05h8.39c.09,.17,.19,.28,.23,.41,.77,2.37,.93,5.27,2.46,6.95,1.47,1.63,4.31,2.06,6.6,2.87,.69,.24,1.56,.01,2.34-.05,.19-.01,.37-.22,.56-.31,1.7-.88,3.88-2.88,5.01-2.4,2.16,.91,3.77,3.19,5.47,5.02,.29,.31,.15,1.4-.18,1.84-2.48,3.33-3.21,6.46-.95,10.5,1.26,2.26,2.23,3.86,4.85,4.23,1.32,.19,2.6,.7,3.92,1.08v8.51c-1.75,.49-3.5,1.07-5.3,1.45-1.55,.33-2.58,.95-2.88,2.66-.17,.97-.53,1.99-1.09,2.79-1.71,2.46-1.3,4.58,.31,6.99,2.11,3.14,1.91,3.23-.69,5.91-1.09,1.13-2.03,2.41-3.01,3.58-2.34-1.33-4.1-2.45-5.97-3.33-.71-.33-1.7-.22-2.53-.08-.68,.12-1.27,.77-1.95,.87-4.64,.69-6.19,3.89-6.7,8.01-.05,.42-.27,.81-.46,1.34Zm13.05-34.42c0-9.53-7.74-17.28-17.27-17.26-9.43,.01-17.16,7.69-17.21,17.11-.05,9.54,7.66,17.34,17.17,17.37,9.53,.03,17.31-7.7,17.32-17.22Z"/>
  <path class="cls-1" d="M124.19,34.51h27.19c-1.63,2.88-3.66,5.62-4.83,8.69-3.31,8.7-1.69,16.74,4.05,24.03,.64,.82,1.13,2.01,1.13,3.03,.02,4.08-.17,8.17-.3,12.25-.01,.42-.16,.84-.25,1.26-.62,2.82-1.87,4.68-5.26,4.7-3.06,.02-6.11,.89-9.18,1.02-1.17,.05-2.47-.77-3.54-1.45-1.57-.99-2.83-2.64-4.5-3.24-3.62-1.31-4.19-4.2-4.47-7.32-.18-2-.05-4.02-.04-6.03,.02-3.01-1.28-5.2-3.93-6.66-3.33-1.84-3.83-3.87-1.76-7.02,6.54-9.92,5.61-7.16,5.68-19.14,0-1.4,0-2.79,0-4.13Z"/>
  <path class="cls-1" d="M130.69,103.3c8.45,.69,15.74-1.48,21.58-7.71,5.8-6.18,6.95-13.76,6.34-21.95,2.44,.72,4.61,1.36,6.78,2.01,2.24,15.83-9.72,32.24-25.67,34.05-8.94,1.01-18.08,.68-27.12,.44-5.38-.14-9.33-5.29-9.1-10.7,.23-5.34,4.66-9.67,10.12-9.82,2.23-.06,4.46-.03,6.68-.01,7.2,.06,11.86,5.78,10.45,12.82-.04,.21-.04,.43-.07,.87Z"/>
  <path class="cls-1" d="M158.54,27.5c-12.67,0-25.17,.02-37.66-.02-2.33,0-3.57-1.51-3.57-3.94,0-8.46,7.21-16.28,15.88-16.61,8.39-.32,16.8-.07,25.35-.07V27.5Z"/>
  <path class="cls-1" d="M96.59,68.9c-3.31,0-6.39-.1-9.46,.05-1.21,.06-2.54,.44-3.55,1.09-5.91,3.82-11.71,7.8-17.62,11.63-.78,.51-2.09,.86-2.85,.54-.59-.25-.96-1.64-.97-2.54-.09-4.74-.09-9.48-.03-14.23,.11-9.66,7.77-17.27,17.3-17.25,9.43,.02,17.01,7.59,17.18,17.15,.02,1.07,0,2.15,0,3.54Z"/>
  <path class="cls-1" d="M186.28,51.82c-.07,9.48-7.94,17.17-17.47,17.07-9.48-.1-17.13-7.98-17.01-17.52,.11-9.38,7.92-17.01,17.36-16.96,9.5,.05,17.2,7.88,17.12,17.41Zm-13.66-.3h6.68c-.14-6.01-4.98-10.5-10.85-10.2-5.75,.29-10.22,5.46-9.73,11.25,.46,5.32,5.33,9.72,10.25,9.17v-6.49c-2.04-.56-3.57-1.66-3.31-4.03,.18-1.68,1.28-2.77,2.96-2.96,2.37-.26,3.47,1.27,4.01,3.25Z"/>
  <path class="cls-1" d="M179.39,12.23c13.52,8.72,20.72,20.58,20.61,36.24-.11,15.38-7.26,27.04-20.6,35.54,0-3.6-.05-6.72,.05-9.85,.01-.46,.65-1.02,1.13-1.31,16.85-10.15,16.86-32.31,.04-42.38-.58-.35-1.17-1.26-1.18-1.92-.1-5.24-.05-10.48-.05-16.32Z"/>
  <path class="cls-1" d="M55.12,68.81H20.83c-.7-6.92,1.07-12.86,6.79-17.09,5.77-4.27,12.1-4.83,18.43-1.42,7.22,3.89,9.68,10.37,9.07,18.51Z"/>
  <path class="cls-1" d="M26.78,186.12c-2.09-7.85-4.18-15.68-6.27-23.5-2.07-7.76-4.17-15.52-6.23-23.28-1.46-5.51,1.44-8.81,7.29-8.17,5.06,18.23,10.14,36.52,15.26,54.95h-10.05Z"/>
  <path class="cls-1" d="M27.75,193.2h61.83v6.64c-.51,.05-1.06,.15-1.6,.15-17.66,0-35.32,.02-52.98,0-4.36,0-7.22-2.7-7.25-6.79Z"/>
  <path class="cls-1" d="M165.69,0h6.65V27.56h-6.65V0Z"/>
  <path class="cls-1" d="M44.84,34.39c0,3.75-3.08,6.87-6.82,6.91-3.74,.04-6.9-3.04-6.96-6.77-.06-3.86,3.07-7.03,6.93-7.01,3.75,.02,6.85,3.13,6.86,6.88Z"/>
  <path class="cls-1" d="M79.44,27.51c3.74,.05,6.82,3.19,6.8,6.94-.02,3.75-3.13,6.84-6.88,6.85-3.83,0-6.98-3.22-6.9-7.05,.08-3.76,3.22-6.79,6.99-6.74Z"/>
  <path class="cls-1" d="M89.57,186.1h-16.15c1.38-5.45,7.04-7.75,16.15-6.61v6.61Z"/>
  <path class="cls-1" d="M172.49,83.98c0,4.23,.03,8.47-.04,12.7,0,.51-.43,1.21-.87,1.47-1.85,1.08-3.78,2.03-6.29,3.34,3.78-5.68,6.13-11.32,7.2-17.51Z"/>
</svg>