<?xml version="1.0" encoding="UTF-8"?>
<svg id="Layer_1" data-name="Layer 1" xmlns="http://www.w3.org/2000/svg" viewBox="0 0 200 200">
  <defs>
    <style>
      .cls-1 {
        fill: #fbb247;
      }
    </style>
  </defs>
  <path class="cls-1" d="M99.96,200C44.85,200.05,.15,155.41,0,100.17-.15,44.86,44.66-.01,100.05,0c55.22,.01,99.86,44.59,99.95,99.81,.1,55.39-44.58,100.13-100.04,100.19ZM12.85,99.99c-.12,48.07,38.71,87,86.93,87.15,48.17,.15,87.15-38.54,87.38-86.71,.23-48.2-38.52-87.43-86.5-87.58C51.87,12.69,12.98,51.29,12.85,99.99Z"/>
  <path class="cls-1" d="M81.23,134.51c1.76-1.49,3.32-2.44,4.4-3.79,3.71-4.6,7.64-6.25,14.1-5.1,14.91,2.66,28.64-8.69,30.97-24.29,2.13-14.25-8.55-28.34-23.53-31.07-14.2-2.59-28.99,7.4-31.82,21.79-.66,3.36-.64,6.99-.19,10.4,.38,2.93-.09,5.01-2.34,6.9-1.9,1.59-3.26,4.13-5.38,5.08-4.25,1.92-8.77,3.81-13.33,4.27-4.28,.43-7.51-4.01-7.32-8.23,.19-4.42,3.7-7.9,8.48-7.6,4.2,.27,5.37-1.27,5.24-5.25-.1-3.44-1.1-4.57-4.67-4.33-6.59,.44-10.9-5.75-8.27-11.38,2.13-4.57,7.57-6.47,11.79-3.42,4.16,3.01,5.25,.52,7.18-2.45,2.36-3.63,0-4.47-2.48-5.75-3.57-1.85-4.86-4.99-4.19-8.83,.66-3.75,3.19-5.93,6.85-6.42,3.66-.5,6.74,.94,8.28,4.4,1.42,3.19,2.78,4.17,6.23,2.16,3.34-1.95,4.57-3.43,1.95-6.95-2.35-3.16-1.9-6.69,.61-9.71,2.31-2.78,5.48-3.41,8.77-2.31,3.73,1.25,5.79,4.14,5.39,8.08-.42,4.06,1.24,4.92,4.97,4.94,3.78,.02,4.81-1.24,4.51-4.88-.32-3.87,1.61-6.83,5.39-8.1,3.31-1.12,6.47-.56,8.78,2.22,2.63,3.17,2.9,6.84,.5,10.12-2.34,3.21-1.32,4.59,1.75,6.35,2.97,1.71,4.78,2.16,6.4-1.51,1.64-3.73,4.77-5.45,8.91-4.73,3.54,.62,5.81,2.78,6.38,6.33,.68,4.23-.88,7.4-4.9,9.27-1.13,.53-2.06,1.47-3.32,2.39,.97,1.65,1.91,2.96,2.55,4.39,1.28,2.84,2.93,3.24,5.47,1.41,3.48-2.52,7.14-2.58,10.47,.22,2.7,2.27,3.62,5.36,2.35,8.71-1.53,4.03-4.63,5.93-8.95,5.47-2.67-.28-4.38,.27-3.99,3.42,.34,2.7-1.45,6.73,4.05,6.11,4.3-.48,7.47,1.3,8.93,5.44,1.18,3.36,.29,6.44-2.44,8.71-3.37,2.8-7.05,2.68-10.46,.1-3.26-2.47-4.4-.42-5.92,2.1-1.59,2.63-2.37,4.69,1.19,6.18,4.1,1.72,5.63,4.92,4.98,9.18-.55,3.6-2.84,5.8-6.32,6.38-4.24,.7-7.45-1.01-9.13-5.09-1.55-3.77-3.63-2.47-6.22-1.08-2.78,1.5-4.32,2.79-1.98,5.94,2.43,3.29,2.5,6.9-.05,10.14-2.3,2.92-5.5,3.78-9.05,2.49-3.97-1.44-5.74-4.52-5.34-8.57,.36-3.59-1-4.6-4.43-4.53-3.21,.07-5.51,.27-5.03,4.44,.47,4.08-1.27,7.16-5.22,8.64-3.53,1.33-6.77,.49-9.09-2.4-2.55-3.19-2.73-6.8-.17-10.11,2.2-2.84,1.38-4.68-2.28-6.29Z"/>
  <path class="cls-1" d="M106.14,77.11c-1.84,2.96-3.37,5.36-4.84,7.79-2.89,4.79-2.08,8.14,2.64,11.05,4.63,2.85,8.33,2.08,11.23-2.36,1.49-2.28,2.96-4.57,4.87-7.53,1.08,1.54,1.9,2.33,2.27,3.29,3.68,9.68-1.63,21.1-11.48,24.11-2.35,.72-5.42,.73-7.65-.19-3.25-1.33-4.92-.28-7.08,1.91-13.14,13.31-26.39,26.51-39.65,39.7-3.41,3.4-7.68,4.11-11.11,1.94-3.5-2.21-4.89-5.6-3.69-9.44,.65-2.09,2.32-4.02,3.92-5.64,12.85-12.97,25.77-25.89,38.75-38.74,2.02-2,2.82-3.67,2.1-6.8-2.6-11.44,7.11-21.28,19.74-19.08Zm-55.89,76.51c1.74-2.3,3.41-3.55,3.35-4.71-.06-1.21-1.78-3.22-2.82-3.25-1.14-.03-3.06,1.65-3.3,2.85-.22,1.13,1.32,2.6,2.76,5.1Z"/>
</svg>