<?xml version="1.0" encoding="UTF-8"?>
<svg id="Layer_1" data-name="Layer 1" xmlns="http://www.w3.org/2000/svg" viewBox="0 0 201.5 202">
  <defs>
    <style>
      .cls-1, .cls-2, .cls-3, .cls-4 {
        stroke: #fbb247;
        stroke-miterlimit: 10;
      }

      .cls-2, .cls-3 {
        fill: #fbb247;
      }

      .cls-3, .cls-4 {
        stroke-width: 2px;
      }
    </style>
  </defs>
  <path class="cls-3" d="M145.56,199.49h.84c7.66,0,15.31,0,22.97,0,.22,0,.49-.08,.65,.03,.25,.17,.58,.46,.59,.7,0,.24-.32,.54-.57,.7-.18,.11-.47,.04-.72,.04-45.18,0-90.36,0-135.53,0-.57,0-1.33,.14-1.31-.75,.02-.88,.78-.71,1.35-.71,7.24,0,14.48,0,21.72,0,.29,0,.57,0,.86,0,.02-.05,.05-.1,.07-.15-.15-.13-.29-.27-.45-.38-3.44-2.48-5.2-5.87-5.21-10.2,0-3.01-.02-6.01,.01-9.02,0-.66-.18-.87-.82-.86-3.02,.03-6.05,.02-9.07,0-3.27-.01-5.32-2.14-5.32-5.52,0-8.21,0-16.43,0-24.64,0-3.31,2.07-5.47,5.29-5.48,3-.01,6-.02,9,.01,.68,0,.93-.16,.93-.91-.02-31.23-.02-62.46,0-93.69,0-.68-.17-.98-.86-.88-.34,.05-.68,.03-1.02,.02-1.37-.05-2.43-.84-2.88-2.16-.26-.78-.52-1.57-.72-2.36-.14-.54-.39-.88-.93-1.01-.38-.09-.78-.21-1.09-.42-.96-.66-1.8-.44-2.66,.2-.45,.33-.96,.59-1.46,.85-1.17,.6-2.52,.42-3.47-.48-.84-.8-1.67-1.61-2.47-2.46-.94-.99-1.15-2.35-.57-3.61,.37-.82,.84-1.58,1.19-2.41,.12-.29,.11-.71,.02-1.02-.15-.52-.51-.99-.63-1.51-.21-.92-.78-1.29-1.62-1.45-.62-.12-1.23-.32-1.83-.51-1.34-.42-2.19-1.56-2.23-3.01-.03-1.15-.04-2.3-.03-3.46,.02-1.42,.77-2.48,2.09-2.95,.83-.29,1.68-.52,2.5-.84,.27-.11,.52-.4,.68-.66,.2-.34,.22-.78,.43-1.11,.7-1.08,.59-2.06-.18-3.06-.31-.41-.55-.89-.76-1.36-.58-1.28-.47-2.5,.45-3.57,.78-.9,1.6-1.76,2.43-2.6,.97-.98,2.33-1.16,3.59-.52,.76,.39,1.49,.85,2.27,1.21,.26,.12,.65,.11,.93,.01,.69-.25,1.37-.54,2-.9,.3-.17,.59-.49,.71-.82,.29-.79,.46-1.63,.71-2.44,.43-1.42,1.47-2.25,2.91-2.31,1.07-.05,2.14-.06,3.22-.07,1.51,0,2.65,.86,3.12,2.35,.26,.83,.5,1.68,.77,2.51,.25,.75,2.93,1.81,3.6,1.42,.75-.43,1.48-.87,2.23-1.29,1.34-.75,2.73-.55,3.83,.53,.76,.75,1.51,1.49,2.24,2.26,1.04,1.08,1.23,2.44,.57,3.79-.35,.71-.7,1.43-1.1,2.12-.27,.47-.27,.86,0,1.33,.24,.43,.48,.89,.58,1.37,.2,.92,.76,1.3,1.61,1.45,.57,.1,1.13,.3,1.69,.47,1.48,.44,2.32,1.55,2.37,3.13,0,.23,.03,.45,.02,.68-.02,.41,.16,.59,.57,.57,.29-.02,.58,0,.88,0,21.58,0,43.15,0,64.73,0,5.74,0,10.47,3.82,11.65,9.44,.21,.99,.27,2.04,.27,3.06,.02,6.06,.01,12.12,.01,18.18q0,1.01,1.01,1.01c13.97,0,27.94,0,41.91,0,2.37,0,3.55,1.21,3.55,3.65,0,3.28-.09,6.56,.03,9.84,.09,2.54-1.11,4.12-3.95,4.11-13.8-.08-27.6-.04-41.4-.04q-1.14,0-1.14,1.19c0,9.92,0,19.83,0,29.75,0,1.02,0,1.02,.99,1.02,.44,0,.88-.03,1.32-.04,1.94-.05,3.37,1,3.96,2.9,.37,1.19,.69,2.4,1.1,3.58,.11,.33,.41,.68,.71,.82,1.06,.5,2.15,.94,3.26,1.34,.27,.1,.67,.05,.93-.08,1.08-.58,2.12-1.23,3.19-1.83,1.75-1,3.46-.77,4.89,.64,1.02,1.01,2.04,2.02,3.04,3.04,1.25,1.27,1.54,3.09,.75,4.7-.57,1.16-1.2,2.3-1.74,3.47-.12,.26-.11,.68,0,.96,.42,1.12,.94,2.2,1.36,3.32,.17,.46,.42,.67,.86,.79,1.18,.31,2.35,.64,3.52,1,1.73,.53,2.81,1.97,2.85,3.83,.03,1.5,.05,3,.05,4.51-.01,1.9-1.02,3.3-2.77,3.88-1.16,.38-2.34,.72-3.48,1.14-.29,.11-.6,.41-.73,.7-.47,1.1-.9,2.21-1.28,3.35-.11,.32-.1,.79,.04,1.08,.56,1.14,1.22,2.22,1.81,3.35,.86,1.64,.62,3.43-.63,4.78-.97,1.05-1.95,2.1-2.95,3.13-1.32,1.38-3.08,1.68-4.76,.8-1.02-.53-2.04-1.07-3.03-1.65-.49-.29-.88-.33-1.41-.04-.95,.51-1.95,.93-2.95,1.3-.5,.19-.73,.47-.86,.98-.28,1.14-.59,2.27-.91,3.4-.56,1.98-1.9,3.03-3.92,3.08-.85,.02-1.71,.04-2.56,.02-.47-.01-.67,.16-.64,.65,.02,.45,0,.9,0,1.35,0,6.39-.04,12.77,.01,19.16,.04,4.62-1.7,8.24-5.44,10.83-.08,.05-.14,.13-.21,.19,.01,.06,.02,.13,.03,.19Zm-88.33-20.53c0,.33,0,.6,0,.87,0,2.98,0,5.96,0,8.94,0,3.25,2.27,5.58,5.45,5.58,25.53,0,51.05,0,76.58,0,3.23,0,5.48-2.32,5.48-5.63,0-38.29,0-76.58,.02-114.87,0-.72-.19-.94-.9-.93-3.49,.03-6.97,.02-10.46,.01-2.1,0-3.32-1.24-3.33-3.4-.01-3.58-.01-7.16,0-10.74,0-2.18,1.24-3.43,3.38-3.43,3.49,0,6.97-.01,10.46,.01,.62,0,.84-.15,.84-.83-.03-6.26,0-12.52-.02-18.78,0-2.97-2.08-5.32-4.97-5.44-2.85-.12-5.7-.04-8.56-.02-.2,0-.51,.27-.57,.47-1.03,3.43-3.07,4.98-6.59,4.98-13.87,0-27.75,0-41.62,0-.37,0-.73,0-1.1-.01-2.78-.15-4.96-1.95-5.65-4.71-.14-.56-.35-.76-.93-.76-4.02,.03-8.05,0-12.07,.02-3.26,.02-5.45,2.31-5.46,5.65-.01,6.51,0,13.02,0,19.53,0,28.87,0,57.75,0,86.62q0,1.13,1.12,1.13c2.36,0,4.73-.02,7.09,.02,1.67,.03,3.03,.79,3.94,2.22,.39,.61,.8,.79,1.48,.79,13.58-.02,27.16-.01,40.74,0,.57,0,1.33-.14,1.32,.75,0,.88-.77,.73-1.33,.73-12.14,0-24.28,0-36.42,0-1.41,0-2.83,.02-4.24,0-.47,0-.63,.14-.62,.65,.03,1.65,.01,3.31,.02,4.96,0,.27,.04,.53,.06,.88,.43,0,.79,0,1.15,0,15.92,0,31.84,0,47.76,0,1,0,1.36,.2,1.3,.77-.09,.86-.75,.7-1.29,.7-15.99,0-31.99,0-47.98,0-1,0-1.01,0-1.01,1.01,0,5.56,0,11.12,0,16.68,0,3.35-2.1,5.5-5.35,5.51-2.24,0-4.49,0-6.73,0-.31,0-.62,.03-1.01,.06Zm-4.97-90.11c0,16.58,0,33.16,0,49.74,0,1.33,.02,2.65,0,3.98,0,.48,.15,.69,.63,.67,.51-.02,1.02,0,1.54,0,1.52-.01,1.35,.15,1.35-1.35,0-26.52,0-53.04,0-79.57,0-8.87,0-17.73,0-26.6,0-3.89,2.94-6.92,6.72-6.92,4.41,0,8.83,0,13.24,0,1,0,1.15,.14,1.23,1.13,.19,2.41,2.12,4.29,4.48,4.29,14.43,.01,28.87,.01,43.3,0,2.4,0,4.31-1.88,4.51-4.34,.07-.89,.25-1.07,1.13-1.08,2.97,0,5.95,0,8.92,0,3.99,0,6.88,2.97,6.88,7.06,0,4.73,0,9.47,0,14.2,0,1.53,.02,3.06,0,4.58,0,.56,.18,.76,.72,.73,.61-.04,1.22,0,1.83,0q.97,0,.97-.97c0-6.14,0-12.27,0-18.41,0-6.19-4.46-10.77-10.49-10.77-25.55,0-51.1,0-76.66,0-5.77,0-10.3,4.66-10.31,10.59,0,17.68,0,35.36,0,53.04Zm98.92,36.42c.32,0,.51,0,.7,0,5.82-.05,10.74,4.89,10.82,10.85,.08,6.27-4.63,11.27-10.76,11.35-.63,0-.79,.22-.77,.82,.04,1.73,.03,3.46,.03,5.18,0,3.78,0,7.56-.03,11.34,0,.61,.18,.86,.79,.82,.83-.06,1.66-.03,2.48-.07,1.29-.07,2.07-.72,2.42-2,.39-1.4,.72-2.81,1.17-4.19,.12-.36,.49-.73,.83-.9,1.36-.66,2.77-1.22,4.14-1.87,.47-.22,.84-.26,1.3,0,1.26,.71,2.53,1.4,3.81,2.07,1.07,.57,2.12,.41,2.95-.45,.99-1.03,1.97-2.08,2.94-3.14,.91-.99,1.03-1.98,.39-3.16-.68-1.27-1.37-2.54-2.09-3.79-.27-.46-.24-.86-.04-1.34,.58-1.4,1.13-2.82,1.64-4.25,.19-.52,.45-.84,.97-.99,1.36-.41,2.7-.85,4.05-1.3,1.13-.38,1.78-1.22,1.79-2.38,.01-1.5,0-3.01-.05-4.51-.04-1.26-.72-2.1-1.9-2.45-1.29-.38-2.57-.77-3.87-1.1-.66-.17-1.01-.51-1.25-1.18-.49-1.36-1.07-2.69-1.68-3.99-.25-.54-.26-.96,.01-1.47,.67-1.25,1.31-2.52,1.94-3.79,.59-1.18,.42-2.21-.5-3.15-.95-.97-1.91-1.93-2.88-2.88-1.03-1.02-2.01-1.15-3.25-.43-1.19,.69-2.35,1.43-3.57,2.06-.36,.19-.91,.24-1.28,.11-1.43-.51-2.81-1.14-4.23-1.68-.54-.21-.82-.55-.97-1.1-.39-1.37-.81-2.73-1.23-4.09-.38-1.21-1.18-1.8-2.39-1.81-.51,0-1.03,.05-1.53,0-.77-.08-.92,.27-.92,1,.03,5.66,.01,11.32,.01,16.98v.9Zm-1.47,6.41c0-17.98,0-35.96,0-53.94,0-1.38-.02-2.76,0-4.13,0-.49-.17-.67-.64-.66-.58,.02-1.17,0-1.76,0q-1.12,0-1.12,1.13c0,38.24,0,76.48,0,114.73,0,4.06-2.86,7.04-6.81,7.04-25.6,0-51.2,0-76.8,0-3.95,0-6.8-2.98-6.8-7.05,0-2.98-.03-5.96,.02-8.94,.01-.79-.24-1.02-.96-.95-.58,.05-1.17,.05-1.75,0-.64-.05-.84,.18-.83,.85,.03,3.03,.01,6.06,.01,9.09,0,5.93,4.51,10.62,10.28,10.63,25.62,0,51.25,0,76.87,0,5.77,0,10.29-4.68,10.29-10.61,0-19.06,0-38.12,0-57.17ZM50.93,33.21c-5.55,.05-8.49-3.94-8.85-7.76-.38-4.05,2.23-7.91,6.09-8.96,1.96-.53,3.87-.39,5.7,.53,2.91,1.47,4.39,3.97,4.77,7.28,3.1-.97,6.18-.52,9.24-.62,1.02-.03,2.05,0,3.07-.04,.21,0,.54-.18,.59-.34,.33-1.2-.24-2.19-1.42-2.54-.91-.27-1.83-.54-2.75-.78-.52-.14-.82-.43-1.01-.96-.36-1.01-.78-2-1.24-2.96-.25-.51-.24-.93,.02-1.41,.47-.87,.92-1.76,1.37-2.66,.46-.92,.38-1.51-.33-2.23-.69-.71-1.39-1.4-2.1-2.09-.72-.7-1.3-.78-2.18-.28-.88,.49-1.72,1.05-2.62,1.49-.35,.17-.86,.2-1.22,.08-1.02-.34-1.99-.81-3-1.18-.51-.19-.79-.52-.94-1.05-.27-.96-.56-1.92-.86-2.87-.29-.92-.79-1.3-1.72-1.31-.97,0-1.95,0-2.92,.02-1.03,.02-1.49,.39-1.8,1.42-.28,.96-.56,1.92-.8,2.89-.13,.54-.43,.83-.94,1.03-.98,.39-1.94,.82-2.87,1.3-.47,.24-.86,.24-1.3-.01-.83-.47-1.67-.92-2.52-1.38-1.03-.55-1.58-.46-2.41,.41-.61,.64-1.23,1.29-1.83,1.94-.76,.82-.85,1.46-.31,2.43,.48,.87,1.01,1.72,1.43,2.62,.16,.35,.17,.87,.04,1.24-.35,1.06-.76,2.11-1.22,3.13-.16,.36-.53,.72-.88,.86-.95,.38-1.95,.64-2.92,.97-.86,.29-1.23,.81-1.23,1.73,0,1.03,.02,2.05,.06,3.08,.04,1.03,.39,1.49,1.36,1.78,.96,.29,1.94,.51,2.88,.86,.36,.13,.71,.5,.89,.85,.49,.98,.92,1.99,1.29,3.02,.14,.39,.15,.94,0,1.32-.39,.94-.92,1.82-1.37,2.73-.45,.91-.36,1.47,.31,2.18,.7,.73,1.41,1.45,2.14,2.15,.68,.65,1.31,.73,2.13,.27,.9-.5,1.76-1.07,2.69-1.52,.34-.16,.85-.16,1.21-.04,1.04,.35,2.06,.77,3.05,1.25,.33,.16,.67,.51,.8,.85,.36,.95,.62,1.95,.92,2.93,.32,1.03,.75,1.35,1.82,1.36,.22,0,.44-.03,.66,0,.71,.1,.92-.2,.91-.92-.03-3.03-.01-6.06,0-9.09,0-.99,.09-1.98,.14-3.03Zm103.96,38.25c7.17,0,14.33,0,21.5,.01,.63,0,.84-.17,.83-.84-.03-4.31-.02-8.61,0-12.92,0-.64-.15-.87-.81-.87-14.28,.02-28.57,.01-42.85,.02-1.43,0-2.04,.64-2.04,2.11,0,3.48,0,6.96,0,10.44,0,1.43,.61,2.04,2.02,2.04,7.12,0,14.24,0,21.35,0ZM37.22,161.04c0,4.23,0,8.46,0,12.69,0,1.62,1.06,3.02,2.5,3.39,.77,.2,.98,.05,.98-.77,0-1.55,.02-3.1-.01-4.66,0-.36-.26-.72-.34-1.09-.07-.34-.21-.83-.05-1.01,.44-.52,.42-1.09,.41-1.69,0-.73,.04-1.45-.02-2.18-.03-.37-.25-.72-.32-1.1-.07-.36-.11-.74-.05-1.09,.08-.47,.34-.91,.37-1.38,.06-.8,.05-1.6,0-2.4-.02-.35-.25-.68-.31-1.03-.07-.38-.12-.79-.06-1.16,.07-.47,.34-.91,.38-1.37,.07-.77,.06-1.55,0-2.32-.03-.4-.17-.81-.36-1.16-.33-.59-.26-1.03,.29-1.4,.24-.16,.52-.32,.66-.56,.94-1.58,2.34-2.26,4.1-2.26,7.46,0,14.91,0,22.37,0,.91,0,1.07-.24,.79-1.14-.47-1.52-1.72-2.43-3.4-2.43-8.11,0-16.23,.04-24.34-.03-2.01-.02-3.63,1.79-3.59,3.69,.08,4.15,.03,8.31,.02,12.46ZM186.89,71.42c2.46,0,4.92,0,7.38,0,1.25,0,1.83-.61,1.84-1.89,.01-3.55,.02-7.11,.02-10.66,0-1.36-.58-1.98-1.92-1.98-4.92-.01-9.85,0-14.77-.01-.59,0-.8,.17-.8,.81,.03,4.33,.04,8.66,.02,12.99,0,.59,.18,.78,.75,.77,2.49-.03,4.97-.01,7.46-.01Zm-35.73,64.92c0,2.95,.01,5.9-.01,8.85,0,.58,.18,.85,.75,.79,.56-.05,1.12-.07,1.67-.16,4.54-.8,8.05-5.38,7.66-9.98-.43-5.14-4.41-9.02-9.23-9.04-.68,0-.86,.24-.85,.92,.03,2.88,.01,5.75,.01,8.63ZM43.57,24.63c-.02,4.05,3.26,7.25,7.18,7,.5-.03,.83-.17,1.06-.71,.99-2.37,2.59-4.22,4.76-5.53,.45-.27,.58-.59,.55-1.1-.24-3.77-3.33-6.65-7.06-6.55-3.55,.09-6.46,3.19-6.48,6.9Z"/>
  <path class="cls-3" d="M18.18,200.97c-2.24,0-4.48,0-6.72,0-.22,0-.49,.07-.64-.04-.25-.17-.59-.46-.58-.7,0-.25,.35-.5,.59-.71,.09-.08,.28-.02,.43-.02,4.57,0,9.15,0,13.72,0,.1,0,.19,0,.29,0,.48,0,.82,.21,.81,.74,0,.53-.34,.73-.82,.73-1.68,0-3.36,0-5.04,0-.68,0-1.36,0-2.04,0Z"/>
  <path class="cls-2" d="M183.78,200.97c-1.8,0-3.6,0-5.4,0-.22,0-.49,.07-.65-.03-.29-.19-.51-.48-.76-.73,.27-.24,.5-.57,.81-.68,.32-.12,.72-.03,1.09-.03,3.5,0,7.01,0,10.51,0,.19,0,.43-.07,.57,.02,.29,.19,.53,.47,.79,.71-.25,.25-.47,.62-.76,.71-.4,.13-.87,.04-1.3,.04-1.63,0-3.26,0-4.89,0Z"/>
  <path class="cls-1" d="M199.04,199.5c.41,0,.83-.01,1.24,0,.46,.02,.8,.31,.7,.76-.06,.27-.43,.64-.7,.67-.82,.09-1.65,.04-2.48,.03-.46,0-.8-.29-.69-.75,.07-.28,.41-.59,.69-.68,.38-.12,.82-.03,1.23-.03Z"/>
  <path class="cls-4" d="M2.41,199.5c.27,0,.58-.09,.79,.02,.26,.14,.63,.45,.61,.66-.02,.27-.35,.67-.6,.73-.51,.12-1.07,.11-1.59,0-.25-.05-.64-.45-.61-.64,.03-.28,.35-.59,.62-.75,.2-.12,.52-.02,.79-.02Z"/>
  <path class="cls-3" d="M91.77,99.42c-.3-.26-.49-.4-.65-.57-2.06-2.16-4.27-4.19-6.13-6.52-2.71-3.4-3.88-7.48-3.99-11.85-.11-4.38-.18-8.76-.21-13.14-.04-6.91,4.19-12.87,10.58-14.96,.55-.18,.74-.4,.77-1.02,.25-4.64,3.34-8.09,7.73-8.72,4.09-.59,8.15,2.02,9.46,6.14,.27,.85,.4,1.76,.46,2.65,.04,.55,.22,.76,.7,.93,5.67,1.98,9.2,5.99,10.36,12.01,.38,1.96,.26,4.03,.25,6.06,0,3.23-.09,6.46-.16,9.69-.13,6.12-2.38,11.26-6.79,15.41-1.32,1.24-2.54,2.59-3.85,3.94,.3,.11,.6,.23,.91,.35,11.64,4.38,18.77,12.78,21.3,25.25,.36,1.78,.41,3.62,.56,5.44,.08,1.07-.16,1.3-1.18,1.3-20.62,0-41.25,0-61.87,0-1,0-1.21-.23-1.19-1.23,.28-14.19,8.92-26.29,22-30.82,.25-.09,.5-.18,.91-.33Zm.84,1.44c-.32,.08-.47,.11-.6,.15-11.98,3.54-21.06,15.39-21.6,28.17q-.04,1.06,1.02,1.06c13.65,0,27.31,0,40.96,0,6.12,0,12.24,0,18.36,.01,.62,0,.92-.16,.82-.84-.07-.47-.08-.95-.12-1.42-1.17-12.54-9.58-23.18-21.27-26.91-.24-.08-.49-.13-.87-.22,.19,2.57-.31,4.81-1.84,6.74-1.55,1.95-3.56,3.01-5.99,3.17-1.91,.13-3.68-.38-5.25-1.52-2.77-2.03-3.78-4.9-3.61-8.38Zm17.68-35.02c-.25,.29-.41,.5-.59,.7-1.89,2.08-4,3.88-6.31,5.45-4.96,3.37-10.4,5.44-16.27,6.33-.71,.11-.97,.36-.95,1.13,.06,2.05,.01,4.11,.02,6.16,.01,2.77,.71,5.34,2.1,7.72,3.4,5.85,10.12,8.65,16.53,6.89,6.21-1.7,10.83-7.61,10.93-14.11,.06-4.11,.02-8.21,0-12.32,0-.31-.2-.73-.45-.92-2.14-1.63-3.61-3.77-4.65-6.25-.09-.22-.2-.44-.35-.78Zm-25.48,23.21c-.08-1.4-.2-2.91-.23-4.43-.04-2.05-.01-4.11-.01-6.16,0-1.33,.14-1.47,1.43-1.65,6.93-.95,13.22-3.53,18.75-7.96,1.87-1.5,3.59-3.15,5.09-5.04,.2-.25,.64-.51,.9-.45,.3,.07,.54,.48,.76,.77,.1,.13,.1,.33,.16,.5,.96,2.95,2.48,5.49,5.09,7.2,.53,.35,.65,.81,.64,1.4-.01,4.13,.01,8.26-.02,12.39,0,1.14-.17,2.29-.27,3.46,1.36-2.47,2.21-5.55,2.27-8.49,.09-4.5,.19-9.01,.18-13.52-.02-7.5-5.86-13.63-13.17-13.82-3.7-.09-7.41-.09-11.11,.02-3.1,.08-5.86,1.27-8.18,3.39-3.16,2.88-4.77,6.51-4.7,10.89,.07,4.1,.13,8.21,.19,12.31,.04,3.29,.72,6.4,2.24,9.18Zm16.09-37.63h0c2.22,0,4.43,0,6.65,.01,.55,0,.71-.14,.62-.74-.36-2.35-1.5-4.15-3.45-5.4-4.28-2.74-10.08-.02-10.89,5.1-.16,1.04-.16,1.03,.86,1.03,2.07,0,4.14,0,6.21,0Zm6.79,49.41c-4.5,1.99-8.97,1.97-13.42,.02-.61,2.35,.59,5.41,2.69,7.01,2.19,1.67,5.23,1.8,7.56,.32,2.38-1.51,3.68-4.44,3.17-7.35Z"/>
  <path class="cls-3" d="M100.99,139.76c-10.21,0-20.42,0-30.63,0-.19,0-.39,0-.58,0-.52,.03-.89-.19-.89-.75,0-.56,.41-.73,.91-.73,2.02,0,4.05,0,6.07,0,18.57,0,37.14,0,55.71,0,.32,0,.67-.07,.94,.05,.24,.11,.56,.45,.54,.66-.02,.26-.32,.57-.57,.72-.2,.12-.52,.04-.79,.04-10.24,0-20.47,0-30.71,0Z"/>
  <path class="cls-3" d="M101.04,28.8c2.51,0,5.02-.01,7.53,.01,.31,0,.66,.14,.91,.34,.13,.1,.17,.54,.06,.68-.17,.22-.49,.43-.76,.44-1.46,.05-2.92,.03-4.39,.03-3.58,0-7.17,0-10.75,0-.24,0-.53,.06-.72-.05-.24-.14-.53-.42-.54-.66,0-.24,.25-.56,.47-.72,.17-.12,.47-.07,.71-.07,2.49,0,4.97,0,7.46,0h0Z"/>
  <path class="cls-3" d="M113,30.27c-.24,0-.53,.09-.72-.02-.26-.15-.62-.47-.59-.67,.04-.28,.35-.66,.62-.74,.43-.12,.94-.13,1.36,0,.29,.09,.49,.5,.72,.76-.25,.23-.47,.5-.75,.66-.17,.1-.43,.02-.65,.02,0,0,0,0,0,0Z"/>
  <path class="cls-2" d="M182.59,63.52c.01-1.8,1.06-3.38,2.67-4.03,1.6-.64,3.47-.22,4.65,1.05,1.21,1.31,1.54,3.25,.75,4.87-.26,.52-.23,.84,.2,1.21,.44,.39,.84,.84,1.24,1.27,.36,.38,.42,.81,.05,1.2-.36,.37-.75,.24-1.1-.09-.09-.09-.18-.17-.26-.27-.8-1.07-1.57-1.52-3.06-.99-2.59,.91-5.16-1.37-5.14-4.22Zm4.24,2.86c1.52,0,2.73-1.22,2.76-2.8,.03-1.52-1.23-2.84-2.72-2.86-1.53-.02-2.81,1.28-2.8,2.85,0,1.56,1.22,2.79,2.76,2.8Z"/>
</svg>