<?xml version="1.0" encoding="UTF-8"?>
<svg id="Layer_1" data-name="Layer 1" xmlns="http://www.w3.org/2000/svg" viewBox="0 0 230 200.01">
  <defs>
    <style>
      .cls-1 {
        fill: #fbb247;
      }
    </style>
  </defs>
  <path class="cls-1" d="M118.4,.1c17.86-.02,35.7-.04,53.56-.05,8.31,0,16.64,.04,24.95,0,2.67,0,5.28,.4,7.85,1.1,3.86,1.04,5.59,3.93,6.22,7.67,.34,2.07,.3,4.16,.3,6.24,.01,21.43,0,42.85,.01,64.28,0,3.12,.08,6.25,.11,9.37,.01,1.78,.64,3.08,1.94,4.33,2.68,2.57,5.17,5.38,7.63,8.19,1.87,2.14,1.9,4.28,.17,6.59-1.39,1.86-2.94,3.58-4.35,5.42-1.87,2.47-1.37,3.85,1.56,4.64,1.66,.44,3.3,.58,5,.48,4.54-.27,6.6,1.81,6.62,6.69,.01,3.3,0,6.59-.05,9.89-.07,3.89-1.85,5.82-5.48,6.02-1.59,.09-3.17,.17-4.75,.28-.41,.03-.85,.09-1.25,.22-2.98,.94-3.39,2.21-1.48,4.78,1.25,1.68,2.64,3.25,3.93,4.91,2.14,2.74,2.05,4.96-.3,7.5-2.5,2.7-5,5.4-7.53,8.07-2.43,2.58-4.5,2.66-7.13,.32-1.79-1.59-3.51-3.29-5.36-4.81-1.45-1.18-2.05-.97-3.04,.68-.94,1.57-.87,3.36-.93,5.11-.07,1.64,.03,3.3-.32,4.92-.39,1.8-1.41,2.96-3.13,3.14-4.59,.48-9.2,.51-13.8,.11-2.52-.21-3.5-1.44-3.78-4.18-.16-1.58-.17-3.17-.3-4.76-.09-1.13-.14-2.28-.41-3.37-.62-2.51-1.89-3.02-3.82-1.47-1.9,1.52-3.74,3.14-5.48,4.86-1.98,1.95-4.48,2.04-6.08-.2-2.64-3.7-6.24-4.99-10.34-4.81-7.26,.32-14.51,.12-21.77,.13-2.9,0-3.33,.55-3.04,3.59,.46,4.63,.92,9.26,1.32,13.9,.37,4.38,2.47,7.21,6.36,8.56,3.29,1.15,6.74,1.44,10.08,2.28,.56,.14,1.14,.24,1.7,.41,2.18,.66,3.01,1.87,3.01,4.34,0,2.22-.94,3.49-3.04,4.18-1.3,.43-2.63,.34-3.94,.27-8.21-.42-16.41,.1-24.62-.02-1.16-.02-2.33,0-3.5-.02v-9.17c2.22-.02,4.44,0,6.67-.05,1.76-.03,2.09-.56,1.4-2.32-.95-2.47-1.93-4.92-2.29-7.58-.63-4.77-1.08-9.57-1.32-14.39-.18-3.54-.54-3.97-3.82-4.12v-8.67c.63,0,1.26-.03,1.91-.03,10.8,0,21.59-.02,32.38,0,1.36,0,2.66-.13,3.61-1.34,1.64-2.07,3.37-4.08,4.93-6.22,1.75-2.4,.98-4.28-1.9-4.69-1.3-.19-2.63-.2-3.96-.22-2.73-.05-5.11-.8-6.74-3.37-.56-.89-1.43-1.29-2.46-1.29-6.08-.02-12.16-.06-18.25-.1v-8.86c5.67,.04,11.34,.1,17.01,.12,3.38,.01,3.52-.16,3.6-3.85,.08-3.74,1.28-5.08,4.78-5.33,1.95-.14,3.97,0,5.84-.49,3.51-.91,4.04-2.27,1.81-5.04-.34-.43-.71-.84-1.06-1.27-1.09-1.32-2.24-2.58-3.24-3.97-1.48-2.09-1.56-4.15-.01-5.9,3.02-3.42,6.15-6.74,9.35-9.98,1.62-1.64,3.23-1.64,5.06-.26,1.33,1.01,2.58,2.14,3.62,3.52,.76,.99,1.71,1.78,2.82,2.31,1.69,.83,2.43,.53,3.2-1.31,.22-.51,.34-1.08,.39-1.63,.2-2.38,.31-4.76,.52-7.13,.23-2.73,1.68-4.23,4.25-4.28,3.86-.07,7.74-.09,11.6-.02,3.53,.07,4.91,1.61,5.09,5.43,.03,.68,.02,1.36,.06,2.04,.09,1.7,.09,3.42,.32,5.1,.32,2.38,1.97,3.06,3.75,1.73,1.6-1.2,2.35-2.73,2.35-4.89-.05-22.05-.02-44.11-.02-66.16,0-4.49,.02-8.98-.02-13.47-.03-2.57-.63-3.17-3.02-3.36-.47-.04-.95-.02-1.43-.02-9.96,0-19.91,0-29.88-.02-16.74-.02-33.48-.05-50.22-.07V.07l-.02,.03Zm70.08,163.29v-1.05c.22-5.54,1.51-7.32,6.5-8.97,.39-.13,.77-.37,1.13-.61,3.15-2.14,5.74-1.89,8.47,.86,1.05,1.05,2.06,2.13,3.08,3.19,.55,.58,1.2,1.08,1.98,.7,1.15-.56,1.92-1.68,2.47-2.8,.41-.86-.68-1.4-1.12-2.04-.62-.91-1.39-1.71-2.14-2.51-1.02-1.11-1.98-2.32-2.08-3.91-.24-3.99,.75-7.65,3.04-10.83,1.1-1.54,2.68-2.34,4.45-2.74,1.58-.36,3.15-.29,4.74-.34,1.61-.05,2.35-.88,2.36-2.54,0-1.77-.75-2.74-2.28-2.86-1.74-.13-3.48-.23-5.23-.3-1.16-.05-2.16-.49-3.02-1.31-5.6-5.32-5.51-13.73,.24-18.78,1.08-.95,1.35-1.76,.39-2.96-1.54-1.95-2.51-2.26-3.78-1.06-1.31,1.23-2.64,2.45-3.91,3.74-1.89,1.91-3.92,2.22-6.25,1-1.76-.91-3.58-1.7-5.4-2.44-1.95-.78-3-2.21-3.15-4.43-.15-2.09-.32-4.19-.51-6.28-.13-1.53-.83-2.37-2.37-2.31-1.76,.08-2.47,.63-2.64,2.44-.2,2.09-.31,4.19-.44,6.28-.13,2.04-1.13,3.35-2.85,4.12-2.09,.94-4.19,1.9-6.27,2.88-2,.93-3.77,.66-5.38-.97-1.43-1.44-2.89-2.85-4.36-4.23-1.15-1.08-1.79-.88-3.33,.78-.93,1.01-1.4,1.95-.29,3.2,1.36,1.51,2.63,3.11,3.94,4.67,1.52,1.81,1.76,3.79,.74,5.97-.91,1.93-1.75,3.88-2.38,5.94-.72,2.4-2.29,3.57-4.61,3.68-1.79,.09-3.6,.21-5.38,.38-1.51,.15-2.14,1.01-2.17,2.77-.03,1.57,.64,2.49,2.1,2.62,1.16,.1,2.32,.17,3.48,.16,2.31,0,4.27,.76,5.68,2.79,1.28,1.83,2.24,3.85,2.93,6.01,.95,2.97,.51,5.72-1.26,8.19-.64,.9-1.38,1.73-2.12,2.53-2.25,2.45-2.25,2.64,.15,4.87,.03,.04,.09,.06,.13,.1,.79,.93,1.41,.93,2.32-.04,1.58-1.68,3.3-3.19,5.02-4.69,1.22-1.05,2.64-1.61,4.14-.76,2.21,1.27,4.56,2.1,6.88,3.06,1.68,.69,2.68,1.98,2.83,3.95,.15,2.04,.32,4.07,.45,6.11,.13,2.18,.91,2.98,2.87,2.89,1.68-.08,2.38-1.04,2.28-3.13-.02-.45-.07-.9-.07-1h.01Z"/>
  <path class="cls-1" d="M112.37,153.61v8.67c-4.54,.33-9.09,.09-13.64,.11-2.04,0-2.61,.56-2.87,2.74-.55,4.73-1.01,9.47-1.67,14.18-.43,3.06-.46,6.23-1.9,9.07-1,1.98-.8,2.25,1.35,2.27,2.28,.02,4.55,0,6.82,0,3.75,.02,7.51,.07,11.26,.1v9.17c-5.45,.03-10.9,.11-16.36,.09-7.31-.03-14.61-.13-21.93-.22-1.91-.02-3.82-.08-5.68-.54-2.13-.53-3.1-1.83-3.09-4.07,.01-2.24,1.01-3.72,3.07-4.11,2.39-.45,4.83-.63,7.23-1.04,5.23-.9,9.59-3.15,11.07-9.17,.48-1.95,.47-4.05,.67-6.08,.3-3.11,.61-6.21,.86-9.32,.21-2.48-.31-3.05-2.63-3.05-15.04,0-30.09,.02-45.13,.02-9.59,0-19.17,0-28.76,0-6.58,0-10.92-4.55-10.93-11.59C.05,104.97,.01,59.11,0,13.25,.02,4.79,4.43,.12,12.26,.11c34.79-.05,69.6-.08,104.4-.11,.57,0,1.16,.06,1.74,.1V9.28c-.79,.03-1.59,.1-2.38,.1-34.6-.01-69.18-.03-103.78-.05-2.99,0-3.53,.54-3.53,3.56-.06,36.94-.11,73.88-.16,110.82,0,3.42,.44,3.89,3.71,3.88,7.78-.03,15.57-.11,23.35-.12,23.1-.03,46.19-.04,69.29-.05,5.67,0,11.34,.03,17.01,.05v8.86c-.63,.02-1.26,.06-1.91,.06-27.11-.02-54.24-.04-81.35-.05-8.84,0-17.68-.02-26.53-.02-3.07,0-3.48,.53-3.45,3.75,.03,3.07-.03,6.13-.11,9.2-.09,3.58,.43,4.21,3.71,4.3,.59,.02,1.16,0,1.75,0,32.05,0,64.09-.03,96.14-.04,.74,0,1.48,.05,2.22,.08Z"/>
  <path class="cls-1" d="M50.88,94.92c-3.66-3.7-6.93-7.79-10.41-11.67-2.46-2.74-4.88-5.52-7.23-8.36-1.94-2.33-2.04-4.62-.1-6.86,6.28-7.29,12.56-14.58,19.05-21.65,.28,.69,.38,1.41,.38,2.16v7.49c0,.73-.07,1.5,.6,2.01-3.09,3.54-6.19,7.09-9.3,10.6-2.2,2.47-2.21,3.01-.06,5.44,2.63,2.98,5.23,6,7.84,9,0,3.18-.01,6.36-.02,9.54,0,.86,0,1.72-.75,2.3Z"/>
  <path class="cls-1" d="M135.52,80.18c1.9-2.14,3.79-4.27,5.7-6.41,1.53-1.72,1.55-2.77,.05-4.53-2.12-2.46-4.27-4.89-6.4-7.34,.02-1.07,.01-2.14,.06-3.2,.13-3.02-.33-6.07,.38-9.07,2.76,3.24,5.67,6.32,8.38,9.61,1.58,1.91,3.33,3.72,5.06,5.51,1.23,1.28,2.39,2.65,3.44,4.11,1.28,1.77,1.29,3.21,.01,4.97-1.25,1.72-2.67,3.31-4.06,4.91-3.31,3.78-6.65,7.53-9.98,11.29-.72,.82-1.47,1.62-2.21,2.43-.33-4.09,.29-8.21-.43-12.28Z"/>
  <path class="cls-1" d="M91.7,61.12c2.91-8.21,5.77-16.43,8.76-24.61,.97-2.64,3.15-3.68,5.21-2.83,2.15,.89,3.28,3.37,2.43,5.89-2.71,8.01-5.55,15.97-8.45,23.92-1.85,5.09-3.71,10.18-5.43,15.33-.36,1.06-.79,2.09-1.2,3.13-.79-.58-.67-1.48-.67-2.32v-16.17c0-.83,.15-1.74-.63-2.34h-.02Z"/>
  <path class="cls-1" d="M91.7,61.12c.78,.6,.63,1.5,.63,2.34v16.17c0,.84-.14,1.74,.67,2.32-1.49,4.28-2.97,8.57-4.5,12.84-1.31,3.65-2.66,7.29-4.02,10.92-.6,1.6-1.54,2.7-3.31,2.96-3.46,.51-5.45-1.78-4.4-5.42,.97-3.36,2.12-6.66,3.29-9.94,3.67-10.34,7.37-20.67,11.07-30.99,.15-.42,.38-.8,.57-1.19h0Z"/>
  <path class="cls-1" d="M135.52,80.18c.71,4.07,.09,8.2,.43,12.28-3.89,4.46-7.63,9.08-11.81,13.25-.84,.84-1.47,1.93-2.32,2.76-1.85,1.84-3.86,1.8-5.67,.01-1.62-1.6-1.78-3.97-.15-5.95,3.09-3.74,6.29-7.37,9.47-11.01,3.32-3.8,6.69-7.57,10.05-11.35h0Z"/>
  <path class="cls-1" d="M135.29,49.63c-.71,2.99-.25,6.05-.38,9.07-.05,1.07-.05,2.14-.06,3.2-3.55-3.56-6.69-7.54-10.07-11.28-2.46-2.73-4.86-5.51-7.29-8.28-.4-.45-.8-.91-1.14-1.41-2.15-3.31-1.14-6.79,2.33-8.25,.59-.24,.9,.09,1.28,.35,2.4,1.61,4.3,3.81,6.2,6.02,3.04,3.53,6.08,7.05,9.12,10.58h.01Z"/>
  <path class="cls-1" d="M50.88,94.92c.75-.58,.75-1.44,.75-2.3,0-3.18,.01-6.36,.02-9.54,4.42,4.99,8.96,9.85,13.13,15.09,1.18,1.49,2.74,2.66,3.85,4.25,2.13,3.05,1.1,6.38-2.2,7.3-1.45,.4-2.66-.12-3.61-1.18-4.01-4.5-7.98-9.06-11.96-13.6v-.02Z"/>
  <path class="cls-1" d="M53.18,58.04c-.67-.51-.6-1.28-.6-2.01v-7.49c0-.75-.09-1.47-.38-2.16,3.25-3.73,6.47-7.5,9.77-11.19,3-3.36,6.42-2.64,8.23,1.59,.29,.66-.15,.93-.36,1.34-1.41,2.9-3.67,5.07-5.71,7.43-3.62,4.19-7.3,8.33-10.96,12.48h0Z"/>
  <path class="cls-1" d="M188,146.75c-5.97,.91-10.79-1.43-14.59-6.23-4.24-5.37-4.81-13.15-1.59-19.27,3.31-6.3,9.77-9.84,16.19-8.86-.06,2.98-.11,5.97-.17,8.95-.26-.03-.53-.06-.78-.1-2.97-.52-7,1.48-8.2,4.68-1.44,3.86-.72,7.68,2.13,10.34,1.97,1.84,4.33,1.77,6.71,1.68,.55,2.92,.13,5.88,.31,8.82h-.01Z"/>
  <path class="cls-1" d="M188,146.75c-.17-2.94,.25-5.9-.31-8.82,3.97-1.17,6-3.85,6.08-8,.08-4.18-2.04-7.25-5.93-8.59,.06-2.98,.11-5.97,.17-8.95,10.92,1.74,17.12,13.83,12.69,24.42-2.41,5.78-6.68,9.26-12.72,9.94h.01Z"/>
</svg>