<?xml version="1.0" encoding="UTF-8"?>
<svg id="Layer_1" data-name="Layer 1" xmlns="http://www.w3.org/2000/svg" viewBox="0 0 200 200">
  <defs>
    <style>
      .cls-1 {
        fill: #fbb247;
      }
    </style>
  </defs>
  <path class="cls-1" d="M71.03,16.23H6.31c-.1,2.12-.24,3.78-.24,5.45-.01,55.74,0,111.48,0,167.22,0,.94-.23,1.97,.08,2.8,.35,.95,1.19,1.72,1.81,2.56,.52-.82,1.43-1.61,1.49-2.45,.19-2.96,.16-5.95,.08-8.92-.11-4.14,1.72-7.46,5.74-8.06,11.23-1.66,11.46-11.54,14.97-18.9,.54-1.13-.66-3.23-1.35-4.76-1.68-3.71-3.45-7.38-5.32-10.99-1.65-3.18-1.45-5.86,1.3-8.43,3.8-3.55,7.49-7.21,11.06-10.98,2.58-2.72,5.27-3.15,8.45-1.26,.95,.56,1.97,1,2.96,1.48,12.93,6.27,12.97,6.34,26.02,.31,1.77-.82,3.47-2.66,4.27-4.44,1.92-4.26,3.35-8.74,4.85-13.18,.98-2.9,2.81-4.29,5.97-4.25,5.54,.07,11.09,.07,16.62-.15,3.8-.15,5.91,1.63,7.05,4.96,.2,.59,.46,1.18,.56,1.79,1.75,10.43,7.72,16.97,18.29,19.03,2.1,.41,4.58,.58,6.5-.13,4.27-1.59,8.33-3.75,12.42-5.79,2.93-1.47,5.41-1.13,7.72,1.21,3.87,3.92,7.79,7.8,11.76,11.62,2.23,2.15,2.74,4.44,1.22,7.17-.53,.95-.84,2.05-1.47,2.93-5.82,8.26-6.35,16.4-1.21,25.49,2.54,4.49,5.87,5.85,10.13,6.17,12.4,.93,12.4,.82,12.41,13.39,0,1.88-.04,3.77,.17,5.62,.06,.55,1.11,1.51,1.39,1.41,.71-.24,1.45-.89,1.77-1.57,.31-.65,.12-1.54,.12-2.32,0-56.84,0-113.67,0-170.51,0-.92-.12-1.84-.2-3.08-1.73-.27-3.37-.53-5.03-.8-1.25-3.47-.31-5.19,3.53-4.95,1.58,.1,3.33-.37,4.7,.17,1.22,.48,2.11,1.94,2.95,3.11,.3,.41,.05,1.22,.05,1.84,0,59.81,0,119.62,0,179.43,0,1.39,0,2.77,0,4.51H.09v-4.98c0-59.5,.04-118.99-.09-178.49,0-4.14,.88-5.73,5.41-5.69,20.58,.22,41.17,.13,61.76,.06,3.63-.01,5.56,.89,3.86,5.32Zm-29.75,178.18c3.66-23.51,6.06-30.29,14.83-39.62,10.22-10.88,22.81-16.97,37.95-17.78,14.04-.75,26.58,3.2,37.5,11.8,14.57,11.49,20.79,27.02,21.07,45.62,7.91,0,15.46,.1,23.02-.02,10.44-.17,9.35,2.13,9.63-9.44,.1-3.97-.97-5.5-5.31-5.4-9.42,.21-14.17-3.2-17.56-11.61-.64-1.6-1.12-3.3-2.03-4.74-3.58-5.69-2.7-10.98,.33-16.73,5.37-10.19,4.93-10.14-3.11-18.5-3.27-3.4-5.8-3.9-10.08-1.76-16.06,8.01-10.51,6.76-26.23,1-6.12-2.24-9.36-5.79-11.23-11.89-3.34-10.93-3.69-10.55-15.02-10.88-5.29-.15-8.28,1.22-9.32,6.59-1.84,9.45-7.23,15.07-16.85,18.58-7.23,2.64-12.57,2.2-18.93-1.18-9.06-4.82-9.23-4.51-16.34,2.52-5.63,5.58-6.04,5.81-1.98,12.72,4.29,7.29,5.05,13.79,1.18,21.83-3.4,7.06-6.76,12.67-15.05,14.33-3.02,.61-4.3,12.51-1.77,14.19,.48,.32,1.21,.36,1.82,.37,7.74,.02,15.48,.02,23.46,.02Zm104.77,.02c.29-1.07,.64-1.8,.67-2.54,1.23-30.98-30.3-55.91-60.95-48.21-21.76,5.47-35.64,21.45-37.97,43.75q-.73,7,6.17,7c28.79,0,57.58,0,86.37,0,1.88,0,3.76,0,5.71,0Z"/>
  <path class="cls-1" d="M59.45,62.93c-1.32-3.79,0-5.08,3.65-5.08,36.67,.06,73.35,.06,110.02,0,3.71,0,4.86,1.4,3.61,5.07H59.45Z"/>
  <path class="cls-1" d="M90.39,78.21v5.42H22.14v-5.42H90.39Z"/>
  <path class="cls-1" d="M176.95,78.19v5.44H109.17v-5.44h67.78Z"/>
  <path class="cls-1" d="M167.1,26.57c-7.17-.14-13.16-6.22-13.09-13.29,.07-7.07,6.89-13.61,13.82-13.25,7.11,.37,13.19,6.65,13.08,13.52-.11,7.29-6.35,13.17-13.82,13.03Zm7.9-13.38c-.08-4.22-3.28-7.31-7.55-7.3-4.46,0-7.67,3.34-7.51,7.8,.14,4.14,3.55,7.55,7.54,7.54,4.17-.01,7.6-3.68,7.52-8.04Z"/>
  <path class="cls-1" d="M93.9,26.56c-7.49-.09-13.25-6.08-13.09-13.6C80.96,5.9,87.21-.11,94.29,0c6.91,.11,13.34,6.57,13.3,13.35-.04,7.32-6.24,13.3-13.69,13.21Zm7.82-13.15c.02-4.34-3.35-7.61-7.77-7.53-4.07,.08-7.62,3.45-7.73,7.33-.11,3.97,3.69,7.9,7.74,7.99,4.05,.09,7.73-3.61,7.75-7.79Z"/>
  <path class="cls-1" d="M117.77,13.46c-.01-7.37,5.6-13.22,12.86-13.42,7.06-.2,13.25,5.88,13.3,13.05,.06,7.66-5.68,13.52-13.2,13.47-7.51-.05-12.95-5.55-12.97-13.1Zm20.88,.09c.13-3.84-3.34-7.45-7.38-7.66-4.4-.24-8.04,2.93-8.26,7.17-.2,4.01,3.49,8.02,7.52,8.18,3.89,.15,7.97-3.71,8.11-7.69Z"/>
  <path class="cls-1" d="M90.6,37.89c-.07,1.54-.13,2.87-.22,4.67-4.38,0-8.46,0-12.53,0-17.39,0-34.79,0-52.18,0-1.93,0-4.31,.17-3.66-2.66,.24-1.04,2.25-2.39,3.45-2.39,21.03-.13,42.06-.08,63.09-.05,.45,0,.91,.18,2.05,.43Z"/>
  <path class="cls-1" d="M109.37,42.26c-1.17-3.88,.41-4.92,3.95-4.9,19.89,.1,39.79,.09,59.68,0,3.53-.02,5.17,.93,3.68,4.9H109.37Z"/>
  <path class="cls-1" d="M41.72,63.03H22.48c-1.53-3.72-.38-5.29,3.61-5.16,3.95,.12,7.91,.15,11.86,0,3.59-.14,5.09,1.13,3.77,5.17Z"/>
</svg>