<?xml version="1.0" encoding="UTF-8"?>
<svg id="Layer_1" data-name="Layer 1" xmlns="http://www.w3.org/2000/svg" viewBox="0 0 200 200">
  <defs>
    <style>
      .cls-1 {
        fill: #fbb247;
      }
    </style>
  </defs>
  <path class="cls-1" d="M174.52,167.25c12.07,1.84,15.59,8.5,10.39,19.42-4.37,9.19-12.01,13.27-22.01,13.27-40.71,0-81.43,0-122.14,0-6.01,0-12.03,.15-18.04-.05-9.4-.32-16.42-4.72-20.47-13.24-5.13-10.8-1.54-17.5,10.88-19.48,0-1.85,0-3.83,0-5.82,0-34.37,0-68.74,0-103.11,0-13.71,5.68-19.41,19.33-19.43,14.74-.02,29.49,0,44.97,0,0-8.77,0-17.11,0-25.45C77.46,3.14,80.52,0,90.54,0c32.3,0,64.59-.01,96.89,0,9.12,0,12.55,3.37,12.56,12.35,.02,30.42,.02,60.83,0,91.25,0,9.1-3.37,12.48-12.4,12.56-4.26,.03-8.51,0-13.07,0v51.08ZM138.74,32.22c-16.66,0-33.32,.11-49.97-.08-3.82-.04-5.01,1.03-4.98,4.92,.17,22.16,.15,44.32,.02,66.48-.03,4.35,1.37,6.11,5.94,6.09,32.63-.13,65.26-.13,97.89,0,4.53,.02,6.01-1.67,5.99-6.06-.13-22.16-.14-44.32,.02-66.48,.03-3.84-1.07-5-4.94-4.96-16.66,.19-33.31,.08-49.97,.08Zm15.87,83.95c-9.53,0-18.61,.25-27.66-.11-4.18-.17-5.86,1.27-7.25,5.12-6.44,17.79-24.75,29.13-42.91,26.99-19.56-2.31-35.07-17.01-37.48-35.54-2.59-19.87,8.14-38.35,26.45-45.26,3.63-1.37,7.51-2.09,11.31-3.12v-6.25c-13.39,0-26.42,.18-39.44-.1-4.39-.09-5.42,1.36-5.4,5.55,.17,28.68,.09,57.37,.09,86.05,0,1.63,0,3.27,0,4.85h122.29v-38.18Zm-83.78,58c-20.25,0-40.14,0-60.03,0-3.49,0-4.37,1.95-4.03,5.05,.94,8.69,7.97,14.28,18.36,14.28,45.67,.03,91.34,.02,137.02-.01,2.04,0,4.13-.19,6.12-.63,6.17-1.36,11.04-6.57,12.09-12.65,.68-3.97-.33-6.27-4.99-6.1-6.35,.22-12.7,.05-19.06,.05-13.2,0-26.4,0-39.52,0-2.01,11.28-3.79,12.75-15.03,12.76-5.84,0-11.68,.01-17.51,0-9.89-.02-12.53-2.41-13.41-12.75Zm90.37-57.77c0,12.2,.02,23.85,0,35.5-.02,7.51-1.65,9.21-8.99,9.22-38.98,.02-77.97,.02-116.95,0-7.58,0-9.34-1.81-9.35-9.45-.01-28.69,0-57.38,0-86.07,0-13.78,.26-14.03,14.15-14.03,12.32,0,24.64,0,37.11,0v-6.33c-15.36,0-30.44-.02-45.51,0-8.89,.01-12.06,3.19-12.06,12.11-.01,35.05,0,70.09,0,105.14,0,1.63,.19,3.27,.28,4.71,.85,.26,1.17,.44,1.5,.44,47.57,.04,95.14,.03,142.71,.15,3.55,0,3.77-1.79,3.76-4.51-.07-14.43-.02-28.86-.06-43.29,0-1.14-.3-2.27-.49-3.58h-6.08ZM83.89,25.43h109.67c0-3.93,0-7.5,0-11.08-.01-7.69-.22-7.92-7.7-7.92-17,0-34.01,0-51.01,0-14.94,0-29.89,.02-44.83-.01-3.11,0-6.08,.09-6.12,4.31-.05,4.78-.01,9.56-.01,14.7ZM45.09,109.82c1.11,3.83,1.85,7.14,3.1,10.25,.44,1.1,2.1,2.33,3.27,2.4,4.56,.28,9.14,.11,14.05,.11-.36-4.57-.67-8.56-1-12.76h-19.42Zm20.35-18.96c-18.34-.73-17.2-3-19.72,11.9h18.89c.29-4.1,.55-7.84,.83-11.9Zm43.81,83.69h-31.55c-.75,4.4,.92,6.07,5,5.99,7.21-.15,14.42-.16,21.62,0,4.35,.1,6.03-1.6,4.93-5.99Zm-37.06-51.96c4.28,0,8.2-.26,12.07,.07,4.73,.41,6.19-1.54,5.43-5.03-3.65-1.85-7.56-2.72-9.59-5.15-2.64-3.16-5.16-3.13-9.05-2.5,.38,4.18,.74,8.17,1.15,12.61Zm15.36,6.62h-13.75c1.5,4.89,1.99,9.7,6.71,12.38,2.21-3.39,4.46-6.76,6.62-10.18,.33-.52,.26-1.28,.43-2.2Zm8.85-6.62c3.69,0,7.45-.29,11.15,.07,4.7,.47,6.45-1.73,6.67-6.49-4.37,0-8.65,.26-12.87-.07-4.83-.37-6.07,1.7-4.94,6.49Zm-5.22,17.4c8.19-2.41,13.71-6.41,15.38-10.89q-11.7-.59-15.38,10.89Zm-36.27-10.89c-.32,.51-.63,1.03-.95,1.54,5.09,3.31,10.17,6.62,15.26,9.94,.31-.43,.62-.86,.93-1.29-1.13-3.36-2.26-6.71-3.43-10.19h-11.81Zm13.97-56.8c-4.86,3.25-9.73,6.5-15.73,10.51,13.22,2.51,13.88,2.08,15.73-10.51Zm8.33,30.67v-12.29h-5.09c-.35,4.17-.68,8.12-1.02,12.29h6.11Z"/>
  <path class="cls-1" d="M186.69,39.14v25.12H90.74v-25.12h95.95Zm-89.59,18.49h83.15v-11.96H97.1v11.96Z"/>
  <path class="cls-1" d="M90.72,102.84v-31.43h44.36v31.43h-44.36Zm38.01-25.17h-31.56v18.83h31.56v-18.83Z"/>
  <path class="cls-1" d="M142.24,102.87v-5.72h44.41v5.72h-44.41Z"/>
  <path class="cls-1" d="M142.26,77.06v-5.68h44.37v5.68h-44.37Z"/>
  <path class="cls-1" d="M142.33,90.39v-6.29h24.57c1.66,5.86,1.38,6.27-4.37,6.29-6.64,.02-13.27,0-20.19,0Z"/>
  <path class="cls-1" d="M174.39,90.1v-5.95h12.28v5.95h-12.28Z"/>
  <path class="cls-1" d="M123.09,122.8h25.03v25.29h-25.03v-25.29Zm6.19,18.56c12.8,2.08,15.37-.67,11.84-12.14h-11.84v12.14Z"/>
  <path class="cls-1" d="M143.05,183.86c-1.97,1.37-3.3,2.97-4.2,2.76-1.25-.3-2.73-1.83-3.04-3.09-.17-.72,1.85-2.81,2.79-2.75,1.28,.08,2.47,1.62,4.44,3.08Z"/>
  <path class="cls-1" d="M164.82,179.17c1.3,2.38,2.63,3.76,2.55,5.04-.06,.92-2.06,2.44-3.11,2.37-1.03-.07-2.78-1.89-2.7-2.81,.11-1.28,1.63-2.45,3.25-4.61Z"/>
  <path class="cls-1" d="M156,183.58c-1.93,1.51-3.15,3.17-4.05,3-1.27-.23-2.84-1.63-3.23-2.86-.22-.71,1.62-2.91,2.56-2.93,1.27-.02,2.56,1.42,4.71,2.78Z"/>
  <path class="cls-1" d="M109.32,19.22h-5.79v-5.86h5.79v5.86Z"/>
  <path class="cls-1" d="M90.83,13.26h5.72v5.86h-5.72v-5.86Z"/>
  <path class="cls-1" d="M116.23,13.26h6.04v5.95c-1.65,.07-3.42,.15-5.73,.26-.11-2.07-.2-3.84-.32-6.21Z"/>
</svg>