<?xml version="1.0" encoding="UTF-8"?>
<svg id="Layer_1" data-name="Layer 1" xmlns="http://www.w3.org/2000/svg" viewBox="0 0 200 200">
  <defs>
    <style>
      .cls-1 {
        fill: #fbb247;
      }
    </style>
  </defs>
  <path class="cls-1" d="M0,106.04c.03-.89,.08-1.77,.08-2.66,0-31.11,0-62.23-.03-93.34,0-1.65,.13-3.28,.32-4.9C.68,2.51,2.71,.57,5.38,.33,7.4,.15,9.42,.01,11.43,.01,65.82,0,120.21,0,174.6,.02c1.71,0,3.45,.09,5.12,.5,3.54,.87,4.67,2.68,4.67,7.18,.01,17.8,.01,35.6,.01,53.41,0,5.96,.02,11.91-.02,17.87,0,1.23,.27,1.6,1.28,1.61,3.55,.05,7.1-.3,10.64,.31,2.44,.42,3.61,1.84,3.63,4.98,.05,6.59,.04,13.18,.06,19.77-.02,3.67-.04,7.35-.05,11.02,0,24.02,0,48.03,0,72.05,0,2.38,.23,4.78-.22,7.14-.41,2.15-1.47,3.39-3.19,3.7-1.1,.19-2.21,.3-3.31,.45-14.32,0-28.64,0-42.95,0-4.88-.62-6.18-1.15-6.12-8.7,.08-10.07,0-20.15,.04-30.23,0-1.39-.25-1.84-1.42-1.83-7.51,.07-15.03,.05-22.54,.05-.05,.02-.09,.05-.13,.1-.42-.59-.93-.14-1.38-.14-17.64-.03-35.28-.03-52.91,0-.58,0-1.19-.4-1.76,.08-6.14-.02-12.27-.05-18.41-.06-12.53-.01-25.06-.02-37.59,0-1.18,0-2.35-.14-3.45-.5-3.83-1.27-4.43-3.28-4.49-8.55-.15-13.91-.05-27.82-.05-41.73,0-.82-.03-1.64-.05-2.46Zm150.31,0c-.53,.76-.17,1.66-.17,2.46-.06,22.93,.12,45.85-.11,68.78-.06,5.34,.99,6.59,5.24,6.62,.25,0,.51,0,.76,0h24.37c2.94,0,5.89,.02,8.83,0,3.83-.03,4.88-1.35,4.88-6.05,0-.06,0-.13,0-.19,0-17.04,.01-34.07,0-51.11,0-6.83-.07-13.67-.11-20.5,.02-2.78,.12-5.57,.05-8.35-.07-2.51-.89-3.8-2.46-4.11-.87-.17-1.76-.23-2.65-.23-7.95,0-15.9,.04-23.85,.03-4.02,0-8.05-.25-12.07,.15-1.87,.18-2.49,1.11-2.76,3.4-.36,3.05,.22,6.07,.05,9.1Zm-6.2,11.41c0-9.39,0-18.78,0-28.16,.02-.95,.04-1.89,.06-2.84,.04-3.42,.69-4.51,3.34-5.58,2.01-.3,4.03-.3,6.05-.3,5.71-.01,11.43-.05,17.14-.08,1.52,.02,3.05-.08,4.56,.1,1.46,.17,1.92-.28,1.91-2.28-.07-22.82-.07-45.63,0-68.45,0-1.99-.44-2.31-1.92-2.31-55.56,.05-111.13,.05-166.69,0-1.47,0-1.92,.33-1.92,2.31,.06,38.03,.06,76.06,0,114.09,0,2.01,.43,2.35,1.92,2.34,44.54-.05,89.08-.04,133.63-.04,.36,0,.72-.05,1.07,0,.76,.12,.94-.32,.92-1.2-.05-2.53-.05-5.07-.07-7.6Zm-47.11,26.04c-.12-3.38-2.05-5.68-4.67-5.53-2.41,.14-4.31,2.76-4.21,5.79,.11,3.05,2.14,5.39,4.59,5.3,2.49-.09,4.39-2.56,4.29-5.57Zm75.25-58.85s0-.02,0-.03c-1.83,0-3.66,.11-5.48-.05-.84-.07-.97,.25-.94,1.1,.03,.63,.04,1.27,0,1.89-.05,.75,.2,.99,.78,.99,3.7-.02,7.39,.08,11.09-.05,1.46-.05,.44-1.61,.65-2.45,.3-1.18,0-1.56-1.07-1.45-1.67,.17-3.36,.05-5.04,.05Zm-.1,103.94c-1.8-.04-3.29,1.74-3.34,3.99-.05,2.42,1.34,4.31,3.21,4.34,1.88,.03,3.41-1.78,3.48-4.09,.06-2.26-1.47-4.19-3.35-4.24Z"/>
</svg>