<?xml version="1.0" encoding="UTF-8"?>
<svg id="Layer_1" data-name="Layer 1" xmlns="http://www.w3.org/2000/svg" viewBox="0 0 200 200">
  <defs>
    <style>
      .cls-1 {
        fill: #fbb247;
      }
    </style>
  </defs>
  <path class="cls-1" d="M200,.25V200.25H33.87v-11.76h30.77v-43.76H0V.25H200ZM88.27,101.72V47.86h99.88V12.11H11.68V101.72H88.27Zm99.86,4.83V59.72H100.04V188.39h33.55V106.55h54.54Zm-42.72,11.76v70.07h42.75V118.3h-42.75ZM11.68,132.93H88.05v-19.3H11.68v19.3Zm76.39,55.51v-43.5h-11.49v43.5h11.49Z"/>
  <path class="cls-1" d="M50.62,42.13c0,3.65,.06,7.1-.05,10.54-.02,.61-.6,1.39-1.15,1.76-2.35,1.62-4.78,3.12-7.48,4.85,2.53,1.5,4.79,2.94,7.16,4.19,1.22,.65,1.58,1.44,1.55,2.77-.09,3.38-.03,6.76-.03,10.33-.56-.22-.98-.33-1.35-.54-7.46-4.38-14.91-8.78-22.36-13.18-1.64-.97-1.85-5.4-.26-6.37,7.71-4.72,15.45-9.41,23.18-14.1,.15-.09,.35-.11,.79-.24Z"/>
  <path class="cls-1" d="M58.11,56.75v-24.15h10.89v24.15h-10.89Z"/>
  <path class="cls-1" d="M58.17,63.75h10.77v10.59h-10.77v-10.59Z"/>
  <path class="cls-1" d="M85,63.8v10.53h-8.78v-10.53h8.78Z"/>
  <path class="cls-1" d="M117.14,105.71c1.13,4.37,.16,7.55-4.51,9.18,5.32,1.24,5.3,4.87,4.62,8.88-.26-.07-.64-.1-.93-.27-3.71-2.16-7.41-4.33-11.1-6.52-1.29-.77-1.6-3.01-.43-3.74,4.06-2.55,8.19-5,12.36-7.53Z"/>
  <path class="cls-1" d="M149.95,73.35c-.03,3.19-2.71,5.82-5.9,5.8-3.19-.03-5.83-2.71-5.8-5.89,.03-3.19,2.71-5.82,5.9-5.8,3.19,.03,5.83,2.71,5.8,5.89Z"/>
  <path class="cls-1" d="M127.2,100.7v12.68h-5.69v-12.68h5.69Z"/>
  <path class="cls-1" d="M127.22,117.27v5.52h-5.73v-5.52h5.73Z"/>
  <path class="cls-1" d="M166.72,169.02c3.19-.03,5.87,2.6,5.9,5.79,.03,3.19-2.61,5.87-5.8,5.9-3.19,.03-5.87-2.6-5.9-5.79-.03-3.19,2.61-5.87,5.8-5.9Z"/>
</svg>