<svg width="34" height="33" viewBox="0 0 34 33" fill="none" xmlns="http://www.w3.org/2000/svg">
<g id="Group 51">
<path id="Vector" d="M14.5331 21.9038C15.3898 22.3866 16.2975 22.7198 17.2596 22.9067C21.2475 23.6853 25.3612 21.4891 26.9217 17.7391C28.3564 14.2918 27.5574 10.4467 24.8207 7.90371C23.0426 6.25144 20.9076 5.4559 18.4801 5.58849C15.3762 5.75848 12.9658 7.19317 11.3781 9.85176C9.77002 12.5478 9.72922 15.3661 11.0551 18.2049C11.1333 18.3715 11.1095 18.4463 10.9837 18.5619C9.95361 19.507 8.93368 20.4657 7.90356 21.4109C7.81857 21.4891 7.67918 21.5367 7.56359 21.5435C7.12503 21.5571 6.68306 21.5435 6.24449 21.5537C6.1119 21.5537 6.04051 21.5095 5.97591 21.3939C5.46595 20.4521 5.05799 19.473 4.75201 18.4463C4.70781 18.2967 4.73841 18.2117 4.8438 18.1097C5.47615 17.4876 6.0983 16.8552 6.72726 16.2297C7.80497 15.1587 7.82197 13.5133 6.75785 12.4288C6.1255 11.7862 5.48635 11.1505 4.8438 10.5181C4.73841 10.4127 4.70781 10.3277 4.75201 10.1781C5.05459 9.15821 5.46255 8.18589 5.96231 7.25096C6.03711 7.10817 6.1323 7.06738 6.28529 7.06738C7.16582 7.07418 8.04295 7.07078 8.92349 7.07078C10.4704 7.07078 11.6331 5.91147 11.6365 4.36799C11.6365 3.48066 11.6399 2.59332 11.6331 1.70939C11.6331 1.54961 11.6875 1.46801 11.8235 1.39322C12.755 0.893456 13.7239 0.492287 14.7336 0.186311C14.8866 0.138714 14.9818 0.169312 15.0906 0.281503C15.7162 0.917254 16.3519 1.54961 16.9843 2.18196C18.045 3.23927 19.6837 3.24947 20.7512 2.20235C21.4039 1.5598 22.0499 0.910455 22.6924 0.257705C22.7876 0.159113 22.8726 0.145514 22.995 0.179511C24.0115 0.485488 24.9906 0.883257 25.9256 1.38982C26.0684 1.46801 26.1296 1.54961 26.1262 1.72299C26.116 2.59672 26.1228 3.46706 26.1194 4.34079C26.1194 5.91487 27.2685 7.07078 28.8459 7.07078C29.7265 7.07078 30.6036 7.07418 31.4841 7.07078C31.6303 7.07078 31.7187 7.11157 31.7901 7.24756C32.2967 8.18929 32.7046 9.17181 33.0106 10.1951C33.048 10.3175 33.0344 10.3991 32.9358 10.4977C32.2933 11.1267 31.6609 11.7726 31.0184 12.4016C29.9645 13.4317 29.9373 15.118 30.9742 16.1719C31.6167 16.8246 32.2661 17.4706 32.9188 18.1131C33.0276 18.2185 33.0514 18.3103 33.0072 18.4531C32.6944 19.4764 32.2933 20.4589 31.7799 21.3973C31.7153 21.5129 31.6507 21.5571 31.5147 21.5571C30.6138 21.5503 29.7129 21.5503 28.8119 21.5571C27.2821 21.5605 26.1228 22.7266 26.1228 24.2598C26.1228 25.1472 26.1228 26.0345 26.1228 26.9218C26.1228 27.068 26.0888 27.1564 25.9494 27.2278C25.0076 27.7344 24.0285 28.1491 23.0018 28.4483C22.8624 28.4891 22.7774 28.4585 22.6822 28.3599C22.0431 27.714 21.4039 27.068 20.7546 26.4323C19.7006 25.3954 18.079 25.3886 17.0183 26.4221C16.3689 27.0544 15.7332 27.7038 15.094 28.3463C14.9954 28.4483 14.9138 28.4823 14.7608 28.4415C13.7205 28.1525 12.7414 27.7242 11.7929 27.2176C11.6841 27.1598 11.6399 27.0952 11.6433 26.966C11.6501 26.3167 11.6433 25.6673 11.6501 25.018C11.6501 24.933 11.6807 24.8276 11.7385 24.7698C12.6394 23.8349 13.5471 22.9067 14.4515 21.9786C14.4753 21.9548 14.5059 21.9344 14.5364 21.9072L14.5331 21.9038Z" fill="black"/>
<path id="Vector_2" d="M20.7074 10.5828C19.9833 11.0554 19.3237 11.5279 18.6268 11.9291C17.9536 12.3167 17.6986 13.0816 17.8686 13.7649C18.0522 14.4959 18.45 15.0942 19.0585 15.5396C19.5583 15.9068 20.16 15.9102 20.6802 15.5804C21.4485 15.0942 22.2135 14.6081 22.992 14.1151C23.1144 14.2579 23.2028 14.4007 23.1892 14.6115C23.0906 16.1108 22.5841 17.4129 21.35 18.341C20.3912 19.0617 19.3305 19.2895 18.1678 18.9053C17.7156 18.7558 17.2703 18.783 16.8827 19.0515C16.4985 19.3167 16.1212 19.6023 15.7948 19.9321C12.0823 23.7228 8.37656 27.5169 4.68445 31.328C3.76312 32.2799 2.60381 32.3139 1.77767 31.8379C0.424578 31.0594 0.200196 29.2099 1.33911 28.1492C3.65433 25.9904 5.97635 23.8418 8.29497 21.6897C9.91664 20.1836 11.5383 18.681 13.1566 17.1715C13.3232 17.0151 13.4694 16.8349 13.6258 16.6649C14.1221 16.1278 14.2513 15.509 14.0881 14.8019C13.8807 13.9111 13.8807 13.0272 14.3023 12.1875C14.5845 11.6231 14.9924 11.1709 15.499 10.7868C16.0634 10.3584 16.6583 10.0184 17.3655 9.89604C18.4126 9.71246 19.4189 9.85185 20.3878 10.2666C20.5068 10.3176 20.585 10.457 20.704 10.5828H20.7074ZM4.12689 29.8389C4.13029 29.1318 3.63733 28.6286 2.94378 28.6252C2.27403 28.6252 1.75048 29.1556 1.74368 29.8389C1.74028 30.4984 2.24344 31.0254 2.88599 31.0288C3.59313 31.0288 4.12689 30.5188 4.13029 29.8389H4.12689Z" fill="black"/>
</g>
</svg>
