<svg width="37" height="31" viewBox="0 0 37 31" fill="none" xmlns="http://www.w3.org/2000/svg">
<g id="Group 52">
<path id="Vector" d="M7.72439 29.6635C7.31554 30.3037 6.65842 30.477 5.89249 30.478C4.99872 30.4802 4.10495 30.5573 3.21118 30.5869C2.07232 30.6238 1.27363 29.9678 1.187 28.83C1.05706 27.1291 0.993671 25.4218 0.902815 23.7177C0.867952 23.068 0.815128 22.4183 0.807733 21.7675C0.797169 20.7364 1.50922 19.9367 2.53082 19.8606C3.63271 19.7793 4.73989 19.6937 5.84178 19.7201C6.27176 19.7307 6.69117 20.0508 7.12115 20.2166C7.30603 20.2885 7.53528 20.4163 7.6927 20.3635C10.3962 19.4486 13.0542 19.6937 15.6722 20.6815C17.6477 21.4263 19.711 21.6819 21.787 21.8932C22.554 21.9714 23.3283 21.9894 24.0953 22.0728C24.9859 22.17 25.5036 22.7553 25.4708 23.5656C25.4381 24.3844 24.8285 24.938 23.92 24.9559C22.0775 24.9918 20.2361 25.0204 18.3936 25.0531C18.2542 25.0552 18.0798 25.0204 17.9826 25.089C17.8611 25.1757 17.7418 25.3489 17.7365 25.4884C17.7323 25.5951 17.8918 25.7388 18.0112 25.8074C18.1052 25.8613 18.251 25.8286 18.3735 25.8286C20.216 25.8233 22.0585 25.8106 23.902 25.8138C24.7683 25.8159 25.5628 25.5909 26.3002 25.1429C28.805 23.6237 31.3131 22.1098 33.8158 20.5864C34.3187 20.28 34.8205 19.9832 35.4375 20.1342C36.1686 20.3138 36.6472 20.7829 36.7877 21.5235C36.9271 22.2577 36.606 22.825 36.0122 23.2445C33.9046 24.733 31.8033 26.2311 29.683 27.7017C28.5747 28.4708 27.4728 29.2652 26.2949 29.9128C24.8613 30.6999 23.265 30.8573 21.6433 30.7464C18.0724 30.5034 14.5016 30.2668 10.9318 30.0269C10.1796 29.9762 9.4253 29.9361 8.67521 29.8642C8.36989 29.8357 8.07197 29.7364 7.72545 29.6593L7.72439 29.6635ZM3.31261 27.9151C3.31683 28.4856 3.79435 28.9578 4.35428 28.9483C4.91103 28.9388 5.39384 28.4391 5.3801 27.8865C5.36531 27.3055 4.89519 26.847 4.33103 26.8628C3.74892 26.8787 3.30838 27.334 3.31261 27.9151Z" fill="black"/>
<path id="Vector_2" d="M15.7684 2.23565C16.0188 2.38778 16.4657 2.61492 16.8608 2.91073C17.2168 3.17695 17.4873 3.17379 17.932 3.03645C18.9262 2.72796 19.465 2.22508 19.4977 1.12214C19.5178 0.446 20.0111 0.1354 20.6979 0.125892C21.0486 0.121666 21.3993 0.123779 21.7501 0.132231C22.4093 0.147021 22.8689 0.461847 22.9069 1.11051C22.9682 2.1374 23.3929 2.72056 24.4134 3.01849C24.911 3.16322 25.2406 3.19914 25.6178 2.86319C25.8132 2.68887 26.0362 2.54096 26.2601 2.40574C26.7207 2.12683 27.2035 2.17543 27.623 2.52089C27.6504 2.54308 27.6779 2.56526 27.7022 2.58956C28.8812 3.77808 29.4654 3.95979 28.072 5.71563C27.849 5.99665 27.829 6.22907 28.0265 6.51538C28.1153 6.64321 28.2051 6.79428 28.223 6.94324C28.3403 7.88561 29.0027 8.07577 29.7929 8.1698C30.6561 8.27333 30.936 8.62724 30.9519 9.49249C30.9582 9.86119 30.9783 10.232 30.954 10.5997C30.9149 11.1786 30.5906 11.616 30.0264 11.6413C28.9826 11.6889 28.3699 12.1062 28.0836 13.1647C27.9568 13.6359 27.8649 13.9613 28.2125 14.3311C28.3794 14.5086 28.4977 14.7304 28.634 14.9354C28.6921 15.0231 28.7608 15.1108 28.7903 15.209C29.1242 16.331 28.1533 16.7409 27.587 17.3494C27.2363 17.7276 26.6109 17.754 26.1915 17.3684C25.4435 16.6817 24.742 16.5718 23.826 17.08C23.3887 17.323 23.0569 17.4793 23.0622 18.0171C23.0633 18.1565 23.0295 18.296 23.0041 18.4344C22.8213 19.4496 22.5118 19.7116 21.4902 19.7127C19.69 19.7148 19.6034 19.6493 19.3382 17.8406C19.2822 17.4572 19.1322 17.2395 18.7508 17.1624C18.5649 17.1244 18.3652 17.0652 18.2141 16.9564C17.595 16.5106 17.1069 16.6986 16.5523 17.1381C15.63 17.8692 15.256 17.8068 14.4362 16.9849C13.2625 15.808 13.2318 15.6876 14.2101 14.3374C14.5197 13.9106 14.6063 13.562 14.2883 13.1383C14.2577 13.0971 14.2334 13.0443 14.227 12.9936C14.0907 12.0164 13.4241 11.7639 12.5589 11.6635C11.7317 11.5684 11.4464 11.1701 11.4369 10.3503C11.4327 10.0165 11.4253 9.68159 11.4369 9.34775C11.4591 8.7107 11.8098 8.21839 12.4395 8.19515C13.46 8.15817 14.0147 7.72819 14.3105 6.72878C14.4605 6.22168 14.5418 5.87305 14.1647 5.47793C13.9851 5.28988 13.8361 5.06063 13.722 4.82609C13.6259 4.62853 13.5488 4.39611 13.5498 4.18059C13.553 3.49706 14.8524 2.2441 15.7673 2.2367L15.7684 2.23565ZM17.8454 9.88655C17.8369 11.7787 19.3213 13.2947 21.187 13.2989C23.0527 13.3031 24.5624 11.8061 24.5877 9.92669C24.612 8.11063 23.0928 6.57242 21.2546 6.54918C19.3773 6.52594 17.8549 8.01661 17.8454 9.88549V9.88655Z" fill="black"/>
<path id="Vector_3" d="M26.3242 22.1901C27.5592 21.5488 28.8301 20.8896 30.1011 20.2293C30.4898 20.0275 30.8702 19.8078 31.2685 19.6271C31.8728 19.3525 32.4475 19.4 33.0264 19.8934C30.8892 21.2034 28.79 22.4891 26.6908 23.7748C26.5661 23.2381 26.451 22.7405 26.3242 22.1912V22.1901Z" fill="black"/>
<path id="Vector_4" d="M23.8242 20.9529C25.4522 20.319 27.0338 19.6746 28.6396 19.1009C28.9734 18.9815 29.3992 19.1231 29.7827 19.1442C29.7911 19.2087 29.7985 19.2721 29.807 19.3365C29.5682 19.458 29.3305 19.5805 29.0917 19.701C28.0141 20.2429 26.9418 20.7944 25.8537 21.3131C25.6857 21.3934 25.4395 21.3575 25.242 21.3153C24.7867 21.2191 24.3398 21.0871 23.8242 20.9518V20.9529Z" fill="black"/>
</g>
</svg>
