<svg width="32" height="29" viewBox="0 0 32 29" fill="none" xmlns="http://www.w3.org/2000/svg">
<g id="Group 47">
<path id="Vector" d="M16.2124 24.7577C13.2836 24.7577 10.3565 24.7577 7.42769 24.7577C7.20607 24.7577 7.09527 24.8708 7.09527 25.0971C7.09527 25.5538 7.09527 26.0104 7.09527 26.4671C7.09527 27.4643 6.46716 28.2534 5.47689 28.3566C4.61958 28.4476 3.74478 28.4529 2.88573 28.3461C1.98119 28.2342 1.31984 27.4643 1.31634 26.5528C1.30584 23.8602 1.28135 21.1675 1.32859 18.4766C1.35308 17.1259 1.65751 15.8085 2.15965 14.547C2.23313 14.3627 2.17364 14.2484 1.98119 14.2041C1.15188 14.0117 0.592004 13.3468 0.527269 12.4423C0.501025 12.0819 0.499275 11.7197 0.544765 11.3575C0.667237 10.3865 1.4773 9.83012 2.43433 10.0716C2.83149 10.1713 3.22515 10.2798 3.61706 10.4005C3.79202 10.4547 3.86726 10.404 3.93374 10.2413C4.39388 9.10228 4.86453 7.96854 5.32642 6.8313C5.88979 5.44387 7.32097 4.47284 8.81512 4.47109C9.00408 4.47109 9.19304 4.46234 9.38199 4.47284C9.56745 4.48334 9.62869 4.4116 9.62694 4.22615C9.61994 3.31286 9.62344 2.39956 9.62519 1.48627C9.62519 0.707702 10.1133 0.216064 10.8919 0.216064C14.4663 0.216064 18.039 0.216064 21.6134 0.216064C22.3885 0.216064 22.8767 0.712951 22.8767 1.49152C22.8767 2.38907 22.8837 3.28661 22.8714 4.18416C22.8679 4.41685 22.9484 4.48684 23.1706 4.47284C24.0384 4.41685 24.8642 4.56207 25.613 5.03621C26.3094 5.47886 26.8413 6.05448 27.1527 6.8313C27.6058 7.96329 28.0817 9.08654 28.5366 10.2185C28.6118 10.404 28.6923 10.4512 28.8865 10.397C29.3484 10.2675 29.8016 10.1031 30.2775 10.0331C31.0875 9.91235 31.7961 10.4162 31.9343 11.2175C32.0218 11.7249 32.0183 12.2393 31.9326 12.7449C31.8084 13.478 31.182 14.0904 30.4454 14.2076C30.246 14.2391 30.2162 14.2916 30.288 14.4753C30.8741 15.9712 31.1645 17.5214 31.154 19.1327C31.1383 21.5577 31.126 23.9826 31.161 26.4076C31.1768 27.5221 30.3072 28.4249 29.17 28.3899C28.5489 28.3706 27.926 28.3899 27.3049 28.3864C26.1956 28.3811 25.3821 27.5746 25.3681 26.4636C25.3611 25.9999 25.3681 25.5345 25.3681 25.0709C25.3681 24.756 25.3681 24.756 25.0549 24.756C22.1103 24.756 19.1675 24.756 16.2229 24.756L16.2124 24.7577ZM16.2124 14.2584C19.5664 14.2584 22.9186 14.2584 26.2726 14.2584C26.4144 14.2584 26.5578 14.2601 26.696 14.2426C27.1159 14.1866 27.3539 13.8367 27.2612 13.4238C27.2384 13.3241 27.2069 13.2261 27.1684 13.1316C26.3829 11.2158 25.5973 9.30174 24.81 7.38767C24.4845 6.59861 23.7462 6.09997 22.8924 6.09997C18.4449 6.09997 13.9974 6.09997 9.54996 6.09997C8.72589 6.09997 7.97357 6.61085 7.66389 7.36668C6.88706 9.25975 6.11899 11.1563 5.32817 13.0441C5.05873 13.688 5.16371 14.2758 6.15223 14.2689C9.50622 14.2444 12.8584 14.2601 16.2124 14.2601V14.2584ZM7.62715 21.297C8.38122 21.297 9.13705 21.3005 9.89113 21.297C10.2778 21.2952 10.4685 21.1028 10.472 20.7126C10.4755 20.0215 10.4755 19.3287 10.472 18.6376C10.4702 18.2387 10.276 18.0427 9.87713 18.0427C8.37597 18.0392 6.87307 18.0392 5.37191 18.0427C4.95201 18.0427 4.7718 18.2282 4.77005 18.6516C4.76655 19.3269 4.76655 20.004 4.77005 20.6794C4.77005 21.1168 4.95026 21.297 5.38591 21.2987C6.13299 21.3022 6.88007 21.2987 7.62715 21.2987V21.297ZM24.8117 21.297C25.5518 21.297 26.2919 21.2987 27.032 21.297C27.4764 21.297 27.6636 21.108 27.6653 20.6654C27.6671 20.004 27.6653 19.3427 27.6653 18.6813C27.6653 18.2247 27.4799 18.041 27.0162 18.041C25.5361 18.0392 24.0559 18.0392 22.5757 18.041C22.1418 18.041 21.9634 18.2229 21.9616 18.6638C21.9581 19.3322 21.9581 20.0023 21.9616 20.6724C21.9634 21.1273 22.1348 21.297 22.5915 21.2987C23.3316 21.3005 24.0716 21.2987 24.8117 21.2987V21.297ZM15.1627 3.80974C15.2641 3.80974 15.3674 3.80974 15.4689 3.80974C15.8345 3.80974 15.8713 3.81849 15.964 4.17541C16.0287 4.42735 16.1634 4.49384 16.4031 4.47634C16.5676 4.46409 16.6148 4.4221 16.5501 4.26289C16.2474 3.51231 15.95 2.75823 15.6526 2.00591C15.6141 1.91143 15.5633 1.84319 15.4479 1.84494C15.2589 1.84844 15.0699 1.84494 14.881 1.84494C14.7918 1.84494 14.7323 1.88518 14.699 1.96741C14.3858 2.74774 14.0709 3.52806 13.7577 4.30838C13.7385 4.35562 13.707 4.40986 13.7717 4.45534C13.9082 4.54807 14.2564 4.44485 14.3089 4.28563C14.4943 3.73276 14.5258 3.81499 15.0192 3.80799C15.0664 3.80799 15.1137 3.80799 15.1609 3.80799L15.1627 3.80974ZM19.6032 1.86769C19.2287 1.82453 18.9511 1.94642 18.7703 2.23335C18.7039 2.34008 18.6409 2.44855 18.5709 2.55353C18.4292 2.76523 18.3224 2.76873 18.1825 2.56403C18.0933 2.43456 17.9935 2.30684 17.9358 2.16337C17.8203 1.87818 17.6121 1.81695 17.3339 1.84319C17.1765 1.85719 17.1555 1.89743 17.2412 2.0234C17.4442 2.32258 17.6419 2.62526 17.8431 2.92619C18.0793 3.27961 18.0758 3.28136 17.8011 3.61379C17.5789 3.88323 17.3619 4.15791 17.131 4.44485C17.6401 4.52183 17.6576 4.51483 17.8938 4.12992C17.9848 3.98295 18.074 3.83424 18.1685 3.68902C18.3102 3.47032 18.4274 3.47032 18.5744 3.69077C18.6916 3.86748 18.8018 4.04944 18.9121 4.22965C19.073 4.49034 19.2707 4.54632 19.5909 4.41335C19.3565 4.12292 19.1325 3.82899 18.8893 3.55255C18.7231 3.36359 18.7021 3.20263 18.8543 2.98918C19.1098 2.63226 19.3425 2.2596 19.6014 1.86769H19.6032ZM12.3581 1.84494C11.9644 1.84494 11.5725 1.84494 11.1788 1.84494C11.0756 1.84494 11.0144 1.87993 11.0144 1.99541C11.0144 2.10913 11.0721 2.14762 11.1753 2.14762C11.3555 2.14762 11.5375 2.14762 11.7177 2.14762C11.9994 2.15112 12.0466 2.19486 12.0484 2.4783C12.0519 3.06091 12.0606 3.64178 12.0449 4.2244C12.0379 4.48334 12.1831 4.46759 12.3598 4.47459C12.5505 4.48159 12.6467 4.4396 12.6432 4.2174C12.6293 3.64353 12.638 3.06966 12.6397 2.49579C12.6397 2.17737 12.6695 2.14937 12.9967 2.14937C13.1541 2.14937 13.3116 2.14937 13.4691 2.14937C13.5758 2.14937 13.679 2.15462 13.679 1.99891C13.679 1.84494 13.5758 1.84669 13.4691 1.84669C13.0999 1.84669 12.7307 1.84669 12.3598 1.84669L12.3581 1.84494ZM21.0991 3.16589C21.0991 2.78798 21.0991 2.41006 21.0991 2.0339C21.0991 1.76271 20.8926 1.86244 20.7561 1.84669C20.6074 1.8292 20.5269 1.87119 20.5287 2.05314C20.5392 2.78448 20.5409 3.51581 20.5304 4.24714C20.5287 4.43085 20.5917 4.48684 20.7596 4.47284C20.9136 4.45884 21.1078 4.53233 21.1008 4.25239C21.0903 3.89022 21.0991 3.52806 21.0973 3.16764L21.0991 3.16589Z" fill="black"/>
<path id="Vector_2" d="M15.1543 3.53848C14.6066 3.53148 14.5769 3.48949 14.7973 2.99435C14.8673 2.83689 14.9338 2.67593 15.0178 2.52546C15.1123 2.35575 15.2487 2.3505 15.3362 2.52196C15.4569 2.75991 15.5567 3.00835 15.6564 3.25505C15.7141 3.39676 15.6459 3.48774 15.5059 3.51224C15.3904 3.53323 15.2715 3.52973 15.1543 3.53848Z" fill="black"/>
</g>
</svg>
