<svg width="37" height="24" viewBox="0 0 37 24" fill="none" xmlns="http://www.w3.org/2000/svg">
<g id="Group 50">
<path id="Vector" d="M24.3344 15.9619C23.2675 15.9619 22.2363 15.9619 21.2052 15.9619C16.6415 15.9619 12.0779 15.9619 7.51937 15.9619C6.57499 15.9619 6.31975 15.6964 6.31975 14.752C6.31975 14.4355 6.31975 14.1191 6.31975 13.7464H9.67357V12.5978H0.888316C0.862793 12.5519 0.837269 12.5111 0.811745 12.4651C1.51109 11.776 2.20534 11.0817 2.92 10.4079C3.00678 10.3262 3.20587 10.3569 3.3539 10.3569C4.31359 10.3569 5.27328 10.3569 6.29934 10.3569V9.23892H10.7966V8.08525H0.888316L0.806641 7.95253C1.24565 7.51352 1.72549 7.10004 2.11856 6.62019C2.62393 5.99742 3.21097 5.73707 4.02262 5.81875C4.7475 5.89022 5.48768 5.83406 6.28913 5.83406V4.72123H9.65825V3.56756H0.893421C0.862793 3.52162 0.837269 3.47568 0.806641 3.42973C1.16397 3.0673 1.56725 2.7406 1.86843 2.34243C2.52183 1.47973 3.33859 1.1326 4.40548 1.30616C4.70155 1.35211 5.00784 1.30616 5.30902 1.31637C6.01857 1.3419 6.66688 1.347 7.22329 0.698701C7.50405 0.371998 8.13194 0.208647 8.60668 0.203542C13.0988 0.157599 17.5859 0.167809 22.073 0.178018C23.3645 0.178018 24.3548 1.13771 24.3599 2.419C24.3752 6.84991 24.3599 11.2808 24.3599 15.7117C24.3599 15.7679 24.3446 15.824 24.3293 15.967L24.3344 15.9619Z" fill="black"/>
<path id="Vector_2" d="M35.6818 17.0953C36.6262 17.2433 36.81 17.4628 36.8151 18.3714C36.8151 18.7849 36.8253 19.2035 36.8151 19.617C36.7947 20.1224 36.519 20.4338 36.0187 20.4848C35.6104 20.5256 35.1969 20.495 34.8038 20.495C34.1198 17.3199 32.4709 15.7782 29.8777 15.8548C27.4785 15.9212 25.8042 17.6057 25.3396 20.4644H17.7948C17.708 19.2546 17.2997 18.1519 16.3145 17.1667H25.5642C25.5642 16.8911 25.5642 16.6716 25.5642 16.4572C25.5642 13.0472 25.5642 9.63214 25.5642 6.22217C25.5642 5.0685 25.9216 4.71628 27.0957 4.71628C28.1728 4.71628 29.2447 4.72649 30.3167 4.71117C30.8885 4.70096 31.3326 4.91026 31.6848 5.35437C32.8232 6.7888 33.9666 8.21302 35.1101 9.63724C35.5134 10.1426 35.7022 10.7143 35.6971 11.3626C35.6869 13.2667 35.6971 15.1657 35.6971 17.1106L35.6818 17.0953ZM32.5832 10.357C32.6139 10.3009 32.6445 10.2447 32.67 10.1886C32.573 10.0405 32.4863 9.88737 32.3791 9.74444C31.9962 9.25949 31.6031 8.77454 31.2152 8.28959C30.4495 7.3265 29.454 6.86707 28.2289 6.91131C28.2289 6.91131 28.1932 6.91131 28.1728 6.91131C27.8461 6.87558 27.7542 7.04404 27.7593 7.34521C27.7695 8.1926 27.7797 9.03999 27.7593 9.88227C27.7491 10.2651 27.9124 10.3621 28.2646 10.357C29.4285 10.3417 30.5975 10.3519 31.7614 10.3519C32.037 10.3519 32.3127 10.3519 32.5883 10.3519L32.5832 10.357Z" fill="black"/>
<path id="Vector_3" d="M13.0731 23.8844C11.2609 23.8844 9.72441 22.3632 9.7091 20.5408C9.69378 18.7031 11.2456 17.141 13.0833 17.1461C14.9057 17.1461 16.4422 18.6776 16.4473 20.4897C16.4525 22.3376 14.921 23.8793 13.0731 23.8844ZM14.3034 20.5204C14.3034 19.8619 13.7469 19.2952 13.0833 19.2901C12.4197 19.285 11.8582 19.8363 11.8531 20.505C11.8531 21.1636 12.4095 21.7353 13.068 21.7404C13.7163 21.7455 14.2983 21.1738 14.3034 20.5204Z" fill="black"/>
<path id="Vector_4" d="M26.6829 20.4643C26.7085 18.647 28.2552 17.1309 30.0725 17.1462C31.9153 17.1615 33.4569 18.7338 33.4212 20.5664C33.3855 22.4194 31.8183 23.9253 29.9755 23.8896C28.1582 23.8488 26.6574 22.2918 26.6829 20.4694V20.4643ZM30.0521 19.2902C29.3884 19.2902 28.8269 19.8415 28.8269 20.5103C28.8269 21.1739 29.3833 21.7354 30.047 21.7405C30.7004 21.7405 31.2772 21.1688 31.2772 20.5154C31.2772 19.8568 30.7157 19.2953 30.0521 19.2902Z" fill="black"/>
<path id="Vector_5" d="M8.39274 20.4232C8.29575 20.4589 8.26001 20.4793 8.22428 20.4793C6.68775 20.5202 6.20791 20.6172 6.31 18.6927C6.32532 18.4477 6.29469 18.2026 6.32021 17.9576C6.36616 17.4829 6.63671 17.1715 7.11145 17.1562C7.96904 17.1255 8.83174 17.1459 9.82206 17.1459C8.92363 18.1312 8.44378 19.1827 8.39274 20.4232Z" fill="black"/>
</g>
</svg>
