<?xml version="1.0" encoding="UTF-8"?>
<svg id="Layer_1" data-name="Layer 1" xmlns="http://www.w3.org/2000/svg" viewBox="0 0 200 200">
  <defs>
    <style>
      .cls-1 {
        fill: #5b2c62;
      }

      .cls-2 {
        fill: #5c2e63;
      }

      .cls-3 {
        fill: #fefefe;
      }
    </style>
  </defs>
  <path class="cls-3" d="M100,199.85c-30.89,0-61.79-.16-92.68,.15-5.56,.06-7.31-.66-7.28-6.9C.35,131.26,.39,69.43,0,7.59-.04,.59,1.96-.02,8.01,0c61.33,.24,122.65,.24,183.98,0,6.04-.02,8.05,.58,8.01,7.59-.39,61.83-.35,123.67-.04,185.51,.03,6.24-1.71,6.96-7.28,6.9-30.89-.31-61.79-.15-92.68-.15Z"/>
  <path class="cls-1" d="M119.09,197.05c-10.03,1.97-10.78-12.69-19.58-12.12-7.86,.52-8.81,12.51-18.63,12.35-13.98-.23-24.49-7.26-27.05-20.86-1.32-7.01-2.82-11.47-11.48-8.06-10.03,3.95-16.23-1.43-21.58-9.6-5.01-7.65-10.04-14.51-2.52-23.45,6.34-7.53,2.98-12.76-5.22-15.06-10.92-3.06-10.21-11.23-10.1-19.73,.11-8.77-1.4-17.7,10.4-20.94,8.49-2.33,10.92-7.85,4.74-15.19-7.58-9-2.06-15.85,2.91-23.41,5.03-7.65,10.93-13.16,20.34-9.6,8.83,3.35,12.35,.18,12.36-8.16,.02-12.34,8.33-15.71,18.06-18.84,9.04-2.91,16.02-1.86,21.58,6.28,4.91,7.19,9.79,5.4,14.04-.77,5.33-7.76,12.3-8.38,20.55-5.57,8.75,2.98,18.02,4.85,18.04,17.2,.01,9.15,3.26,13.73,13.74,9.67,9.86-3.83,15.06,3.5,19.85,10.67,4.4,6.58,9.88,12.92,3.25,21.03-6.67,8.16-5.52,14.27,4.8,17.17,11.33,3.19,9.29,11.96,9.42,20.11,.13,8.33,1.42,16.81-9.74,19.92-9.26,2.58-11.41,8.23-4.97,16.1,7.54,9.23,.9,15.89-3.74,23.37-5.01,8.07-11.39,12.39-20.58,8.89-8.25-3.14-10.38,.11-11.78,7.61-2.61,14.04-12.49,21.38-27.12,20.99Z"/>
  <path class="cls-3" d="M154.87,150.08c-13.12-1.31-22.14,5.73-24.61,19.51-.76,4.22-1.4,8.17-6.29,9.57-5.08,1.45-5.88-3.23-8.27-5.64-9.58-9.67-21.92-9.61-31.56,.16-2.37,2.41-3.13,7.04-8.32,5.4-4.95-1.57-5.36-5.56-6.1-9.71-2.52-14.17-11.74-21.48-26.13-18.76-10.74,2.03-11.42-2.39-8.63-10.14,6.42-17.84,4.46-24.24-10.65-33.85-7.64-4.86-7.23-9.33,.78-13.79,13.7-7.63,16.9-17.49,10.67-31.69-4.06-9.26-3.77-13.92,8.75-11.53,13.15,2.52,22.8-5.36,25.18-18.54,.72-4,.71-8.14,5.72-10,5.24-1.95,6.11,2.44,8.47,4.88,10.06,10.4,22.06,10.34,32.33-.18,2.37-2.43,3.31-6.77,8.55-4.62,4.28,1.76,4.65,5.14,5.38,8.75,3.1,15.42,11.32,21.86,26.91,19.38,9.45-1.51,10.8,2.49,8.54,9.68-6.49,20.61-5.59,23.69,10.62,34.72,6.54,4.45,6.57,8.8-.66,13.13-14.69,8.78-17.59,17.44-11.03,32.65,4.78,11.09,1.06,13.9-9.65,10.62Z"/>
  <path class="cls-1" d="M47.34,100.03c0-30.15,22.17-52.66,51.91-52.73,31.02-.07,53.36,21.95,53.4,52.63,.04,30.69-22.32,52.86-53.24,52.77-29.7-.09-52.08-22.72-52.07-52.67Z"/>
  <path class="cls-3" d="M136.03,100.44c-.17,20.4-16.49,36.05-37.16,35.62-19.65-.4-35.07-16.53-34.91-36.5,.17-20.4,16.51-36.07,37.17-35.63,19.68,.42,35.07,16.51,34.9,36.5Z"/>
  <path class="cls-2" d="M82.96,120.17c12.31-12.48,24.62-24.97,36.93-37.45-1.13-1.15-2.27-2.3-3.4-3.45-12.45,12.35-24.9,24.69-37.34,37.04,1.27,1.29,2.54,2.58,3.81,3.87Z"/>
  <path class="cls-2" d="M119.58,113.78c.23,3.35-1.45,5.82-6.29,5.81-4.42,0-7.2-2.06-7.33-6.29-.12-4.17,2.77-6.98,6.77-7.31,4.26-.34,6.7,2.26,6.84,7.79Z"/>
  <path class="cls-2" d="M94.17,86.63c-.58,4.35-3.36,6.95-7.14,7.29-4.23,.38-6.46-2.4-6.58-6.81-.12-4.5,1.7-6.72,6.39-6.69,4.41,.03,6.64,2.18,7.32,6.21Z"/>
</svg>