<?xml version="1.0" encoding="UTF-8"?>
<svg id="Layer_1" data-name="Layer 1" xmlns="http://www.w3.org/2000/svg" viewBox="0 0 201 200">
  <defs>
    <style>
      .cls-1 {
        fill: #5b2c62;
        stroke: #5b2c62;
        stroke-miterlimit: 10;
        stroke-width: 3px;
      }
    </style>
  </defs>
  <path class="cls-1" d="M8.98,101.1c0-1.02,0-1.84,0-2.67,0-28.81,0-57.62,0-86.43C8.98,4.96,13.89,0,20.92,0,73.98,0,127.03,0,180.09,0c7.04,0,11.98,4.94,11.98,11.97,0,28.75,0,57.51,0,86.26,0,.88,0,1.77,0,2.87,1.68,0,3.17,0,4.67,0,2.67,.02,3.74,1.09,3.75,3.81,.01,3.54,0,7.08,0,10.61,0,4.72-.76,6.55-4.36,10.42,.3,.36,.61,.74,.93,1.11,2.23,2.56,3.41,5.55,3.42,8.92,.03,20.11,.02,40.21,0,60.32,0,2.53-1.15,3.67-3.75,3.68-5,.03-9.99,0-14.99,0-24.25,0-48.51,0-72.76,0-3.34,0-3.9-.4-4.92-3.6-2.02-6.3-4.05-12.6-6.05-18.9-2.08-6.57,1.13-14.08,7.64-16.34,3.72-1.29,4.65-3.1,4.5-6.83-.33-7.96-.1-15.95-.1-23.92,0-.61,0-1.22,0-2.09-.93,0-1.69,0-2.46,0-31.55,0-63.11-.02-94.66,.02-4.79,0-8.6-1.7-10.87-5.97-.86-1.62-1.36-3.6-1.45-5.45-.21-4.09-.08-8.2-.06-12.3,.02-2.37,1.16-3.48,3.54-3.51,1.56-.02,3.11,0,4.88,0Zm128.43-10.64v10.54h48.45c0-.7,0-1.3,0-1.9,0-28.98,0-57.96,0-86.93,0-3.88-2.05-5.96-5.88-5.96-52.94,0-105.89,0-158.83,0-3.88,0-5.96,2.05-5.96,5.89,0,29.03,0,58.07,0,87.1,0,.59,0,1.18,0,1.91h2.42c22.91,0,45.81,0,68.72,0,3.67,0,4.21,.45,4.85,4.14h18.88v-2.13c0-7.13,0-14.26,0-21.4,0-11.19,10.58-17.61,20.5-12.51,.46,.24,1.29,.2,1.75-.06,2.05-1.19,4.2-1.77,6.57-1.76,8.25,.03,16.51,0,24.76,.01,6.22,0,11.09,4.59,11.57,10.85,.45,5.85-3.95,11.17-9.95,12.01-.94,.13-1.9,.19-2.85,.19-8.3,.01-16.6,0-25,0Zm56.88,103.32c0-1.02,0-1.75,0-2.47,0-17.86,0-35.72,0-53.57,0-.67,.04-1.35,0-2.02-.19-2.87-1.58-4.99-4.12-6.31-2.51-1.3-5-1.11-7.34,.44-2.39,1.58-3.44,3.9-3.44,6.74,0,7.19,0,14.38-.01,21.56,0,.72-.03,1.48-.29,2.13-.52,1.34-2.04,2.03-3.5,1.63-1.55-.42-2.28-1.5-2.28-3.11,0-7.36,0-14.71,0-22.07,0-4.63-3.18-8.1-7.41-8.14-4.35-.04-7.5,3.38-7.5,8.16,0,5.78,.04,11.57-.04,17.35-.01,.94-.35,2.02-.91,2.76-.81,1.07-2.11,1.24-3.36,.69-1.4-.61-1.9-1.8-1.89-3.27,0-7.47,.03-14.94,0-22.41-.02-3.75-2.77-6.88-6.34-7.37-4.62-.63-8.52,2.86-8.55,7.74-.04,7.08-.01,14.15-.01,21.23,0,.45,.02,.9,0,1.35-.1,1.76-1.33,3-2.99,3.03-1.65,.03-3.03-1.21-3.06-2.94-.06-3.37-.02-6.74-.03-10.11,0-21.06,0-42.12,0-63.18,0-4.38-3.04-7.83-7.01-8.01-4.57-.2-7.89,3.11-7.9,7.89,0,28.19,0,56.38,0,84.57,0,.45,.03,.9,0,1.35-.15,1.79-1.34,2.97-3.01,3.01-1.71,.04-2.93-1.05-3.17-2.84-.06-.47-.1-.95-.14-1.44-5.1,1.28-7.34,5.38-5.78,10.17,1.71,5.22,3.39,10.45,4.98,15.71,.41,1.34,.99,1.8,2.43,1.8,26.89-.05,53.78-.04,80.68-.04,.6,0,1.21,0,2.04,0ZM84.6,107.43H6.76c0,2.85,.15,5.6-.03,8.33-.29,4.36,2.83,6.52,6.52,6.51,31.6-.06,63.2-.03,94.79-.03,.6,0,1.2,0,1.9,0v-10.77c-.77,0-1.42,0-2.08,0-6.12,0-12.24,0-18.35,0-3.74,0-4.28-.44-4.91-4.04Zm52.74,12.75c.4-.12,.57-.15,.71-.22,5.59-2.8,10.81-2.27,15.7,1.67,.4,.32,1,.58,1.5,.58,11.17,.03,22.34,.06,33.51,0,2.66-.01,5.12-1.72,5.31-4.06,.3-3.54,.08-7.12,.08-10.68h-56.81v12.71Zm-1.15-46.08c.39,3.22,.82,5.95,1.03,8.71,.1,1.27,.7,1.47,1.72,1.46,8.25-.01,16.5,.02,24.75-.04,3.05-.02,5.35-2.45,5.32-5.37-.03-2.94-2.37-5.23-5.43-5.24-8.31-.02-16.62-.03-24.92,.02-.96,0-1.91,.35-2.48,.46Z"/>
  <path class="cls-1" d="M33.46,139.08c5.61,0,11.22,0,16.84,0,7.6,.01,13.92,5.28,15.44,12.74,.18,.89,.76,1.86,1.45,2.45,4.52,3.87,9.12,7.64,13.69,11.44,2.52,2.09,2.58,3.85,.14,6.1-4.58,4.22-9.21,8.39-13.74,12.66-.74,.7-1.35,1.77-1.56,2.77-1.56,7.49-7.93,12.75-15.62,12.76-11,0-22,0-33,0-9.48,0-16.25-6.74-16.26-16.19,0-9.6,0-19.2,0-28.8,0-9.17,6.78-15.93,15.96-15.93,5.56,0,11.11,0,16.67,0Zm41.48,29.84c-.53-.47-.89-.82-1.28-1.14-4.06-3.38-8.1-6.77-12.18-10.11-1.07-.87-1.65-1.84-1.72-3.27-.26-5.26-4.44-9.23-9.7-9.24-11.12-.02-22.24-.03-33.35,0-5.31,.01-9.59,3.91-9.67,9.21-.15,10.11-.16,20.22,0,30.33,.09,5.25,4.34,9.07,9.58,9.07,11.17,.01,22.35,.01,33.52,0,5.04,0,9.24-3.77,9.58-8.77,.11-1.67,.72-2.82,1.92-3.9,4.42-3.98,8.77-8.03,13.3-12.19Z"/>
  <path class="cls-1" d="M62.61,90.46c-10.83,0-21.67,0-32.5,0-3.35,0-4.29-.95-4.29-4.33,0-17.57,0-35.14,0-52.72,0-9.92,6.67-16.57,16.59-16.57,13.7,0,27.39,0,41.09,0,8.97,0,15.9,6.91,15.91,15.9,.02,17.85,0,35.71,0,53.56,0,3.11-1.03,4.15-4.13,4.15-10.89,0-21.78,0-32.67,0Zm-19.94-39.91c0-1.91-.01-3.59,0-5.26,.06-6.59,5.09-11.58,11.69-11.59,5.39,0,10.78,0,16.17,0,7.13,0,12.02,4.91,12.03,12.08,0,1.55,0,3.1,0,4.76,3.94-.17,7.28,.94,10.54,3.11,.04-.81,.1-1.35,.1-1.88,0-6.23,.01-12.47,0-18.7-.01-6.01-4.02-10.01-10.03-10.01-13.76,0-27.51,0-41.27,0-5.77,0-9.86,4.07-9.87,9.83-.01,6.29,0,12.58,0,18.87,0,.54,.05,1.07,.09,1.9,3.25-2.18,6.6-3.27,10.54-3.11Zm50.45,23.17H32.18v10.42h60.95v-10.42Zm-60.9-6.41h60.77c.72-3.97-1.67-8.23-5.56-9.79-1.12-.45-2.38-.73-3.58-.73-14.14-.05-28.27-.05-42.41-.03-5.64,0-10.07,5.03-9.22,10.54Zm44.11-16.84c0-2.1,.11-4.01-.03-5.9-.19-2.6-2.46-4.64-5.1-4.65-5.72-.04-11.44-.03-17.16,0-2.46,.01-4.7,1.73-5.01,4.15-.27,2.07-.05,4.21-.05,6.4h27.35Z"/>
  <path class="cls-1" d="M142.83,16.85c9.43,0,18.85,0,28.28,0,.5,0,1.02-.03,1.51,.04,1.47,.22,2.57,1.43,2.58,2.88,.01,1.49-.64,2.63-2.14,3.04-.74,.2-1.55,.23-2.32,.23-18.74,.01-37.48,0-56.21,0-.22,0-.45,0-.67,0-2.36-.04-3.79-1.23-3.78-3.14,0-1.94,1.38-3.06,3.81-3.07,9.65,0,19.3,0,28.95,0Z"/>
  <path class="cls-1" d="M136.42,50.55c7.46,0,14.92,0,22.38,0,2.47,0,3.73,1.06,3.73,3.09,0,1.99-1.31,3.11-3.76,3.11-14.97,.01-29.95,0-44.92,0-2.34,0-3.8-1.25-3.78-3.14,.01-1.93,1.4-3.06,3.82-3.06,7.51,0,15.03,0,22.54,0Z"/>
  <path class="cls-1" d="M121.59,33.7c2.69,0,5.38-.02,8.07,0,2.12,.02,3.45,1.23,3.44,3.08,0,1.81-1.36,3.09-3.46,3.11-5.32,.04-10.64,.03-15.96,0-2.22-.01-3.62-1.27-3.62-3.13,0-1.87,1.39-3.05,3.63-3.07,2.63-.01,5.26,0,7.9,0Z"/>
  <path class="cls-1" d="M165.92,33.7c2.01,0,4.03-.03,6.04,0,1.92,.04,3.17,1.2,3.25,2.92,.08,1.73-1.22,3.2-3.14,3.24-4.19,.08-8.39,.09-12.59,0-1.99-.05-3.12-1.43-3.03-3.28,.09-1.76,1.26-2.84,3.25-2.87,2.07-.04,4.14,0,6.21,0Z"/>
  <path class="cls-1" d="M144.77,33.71c.78,0,1.57-.06,2.34,.01,1.57,.14,2.7,1.3,2.83,2.82,.13,1.47-.84,2.98-2.39,3.16-1.81,.21-3.68,.24-5.49,.04-1.7-.19-2.57-1.56-2.45-3.24,.11-1.62,1.24-2.69,2.98-2.79,.72-.04,1.45,0,2.18,0h0Z"/>
  <path class="cls-1" d="M27.16,173.32c3.29-3.34,6.7-6.8,10.12-10.27,1.3-1.32,2.59-2.64,3.92-3.93,1.47-1.42,3.39-1.5,4.65-.26,1.27,1.25,1.19,3.18-.26,4.63-5.42,5.44-10.85,10.88-16.29,16.3-1.61,1.6-3.33,1.58-4.98-.04-1.92-1.88-3.83-3.78-5.72-5.7-1.48-1.5-1.58-3.32-.3-4.63,1.26-1.28,3.16-1.22,4.66,.19,1.26,1.19,2.49,2.41,3.73,3.62,.03,.03,.11,.02,.48,.09Z"/>
</svg>