<?xml version="1.0" encoding="UTF-8"?>
<svg id="Layer_1" data-name="Layer 1" xmlns="http://www.w3.org/2000/svg" viewBox="0 0 200 200">
  <defs>
    <style>
      .cls-1 {
        fill: #5c2e63;
      }
    </style>
  </defs>
  <path class="cls-1" d="M24.37,173.82c.94-5.01,1.79-9.62,2.67-14.23,1.07-5.65,2.09-11.32,3.29-16.94,.38-1.77-.71-2.4-1.71-3.24-12.96-10.92-22.33-24.32-26.23-40.96-7-29.87,1.5-55.27,23.81-75.7C45.02,5.51,67.73-1.45,92.98,.25c24.55,1.65,45.41,11.43,61.54,30.31,26.44,30.97,24.44,75.09-4.48,103.73-14.73,14.59-32.53,22.74-53.02,25.07-8.99,1.02-17.94,.75-26.87-.8-1.09-.19-2.35,.14-3.44,.51-13.26,4.61-26.5,9.27-39.74,13.91-.69,.24-1.4,.45-2.6,.83Zm23.31-27.23c1.1-.34,1.87-.54,2.62-.81,5.04-1.77,10.06-3.63,15.14-5.27,1.4-.45,3.07-.56,4.51-.27,21.53,4.25,41.6,.94,59.61-12.01,30.72-22.11,34.44-62.95,8.18-89.56-12.5-12.67-27.93-19.29-45.56-20.51-21.45-1.49-40.4,4.72-56.1,19.76-20.19,19.34-24,48.52-9.65,72.19,5.5,9.07,13.16,15.95,21.99,21.58,1.42,.9,1.83,1.81,1.45,3.47-.83,3.69-1.45,7.43-2.2,11.44Z"/>
  <path class="cls-1" d="M176.75,200c-12.36-4.34-24.31-8.39-36.15-12.76-4.38-1.62-8.59-2.23-13.19-1.35-3.26,.62-6.65,.66-9.99,.71-5.2,.08-9.23-3.88-9.3-8.88-.07-5.02,3.82-8.7,9.1-9.09,5.39-.4,10.76-1.22,16.14-1.76,1.2-.12,2.52-.12,3.64,.25,5.29,1.75,10.52,3.65,15.78,5.49,.14,.05,.29,.05,.77,.12-.62-3.35-1.02-6.65-1.88-9.82-.6-2.2,.18-3.2,1.89-4.28,8.75-5.53,16.1-12.51,21.32-21.59,4.55-7.91,7.04-16.43,7.29-25.59,.04-1.55,.16-3.17,.63-4.63,1.33-4.11,5.68-6.57,9.91-5.82,4.16,.74,7.29,4.34,7.29,8.68,.01,17.44-5.67,32.87-16.67,46.24-3.3,4.01-7.25,7.49-10.99,11.11-.94,.91-1.39,1.59-1.11,3.02,1.86,9.3,3.58,18.64,5.34,27.96,.11,.56,.11,1.14,.18,1.99Z"/>
  <path class="cls-1" d="M44.26,68.92c5.1,0,9.24,4.17,9.2,9.26-.05,5.08-4.3,9.28-9.31,9.2-4.96-.08-9.04-4.21-9.08-9.2-.04-5.1,4.08-9.26,9.19-9.26Z"/>
  <path class="cls-1" d="M85.22,68.93c5.13,.04,9.11,4.16,9.04,9.36-.06,5-4.18,9.1-9.15,9.1-5.03,0-9.2-4.23-9.18-9.32,.02-5.14,4.13-9.19,9.29-9.14Z"/>
  <path class="cls-1" d="M116.8,78.1c0-5.16,4.08-9.21,9.23-9.18,5,.03,9.07,4.1,9.13,9.11,.06,5.02-4.16,9.32-9.17,9.35-5.05,.02-9.19-4.16-9.18-9.29Z"/>
</svg>