<?xml version="1.0" encoding="UTF-8"?>
<svg id="SvgjsSvg1001" xmlns="http://www.w3.org/2000/svg" viewBox="0 0 256 256">
  <defs>
    <style>
      .cls-1 {
        fill: #5b2c62;
      }
    </style>
  </defs>
  <g id="SvgjsG1008">
    <path class="cls-1" d="m208,256c-26.46,0-48-21.54-48-48,0-28.36,42.22-76.19,44.01-78.21,2.02-2.28,5.95-2.28,7.97,0,1.8,2.02,44.02,49.85,44.02,78.21,0,26.46-21.54,48-48,48Zm0-114.49c-13.22,15.78-37.33,48.33-37.33,66.49,0,20.59,16.75,37.33,37.33,37.33s37.33-16.75,37.33-37.33c0-18.15-24.12-50.71-37.33-66.49Zm-122.67-13.51c-23.53,0-42.67-19.14-42.67-42.67s19.14-42.67,42.67-42.67,42.67,19.14,42.67,42.67-19.14,42.67-42.67,42.67Zm0-74.67c-17.64,0-32,14.36-32,32s14.36,32,32,32,32-14.36,32-32-14.36-32-32-32Z"/>
    <path class="cls-1" d="m85.33,234.67c-1.37,0-2.73-.52-3.78-1.56C78.23,229.77,0,150.79,0,85.33,0,38.28,38.28,0,85.33,0s85.33,38.28,85.33,85.33c0,65.46-78.23,144.44-81.56,147.78-1.05,1.03-2.41,1.56-3.78,1.56Zm0-224C44.16,10.67,10.67,44.16,10.67,85.33c0,53.25,59.01,119.63,74.67,136.29,15.66-16.67,74.67-83.09,74.67-136.29,0-41.17-33.49-74.67-74.67-74.67Z"/>
  </g>
</svg>