<?xml version="1.0" encoding="UTF-8"?>
<svg id="Layer_1" data-name="Layer 1" xmlns="http://www.w3.org/2000/svg" viewBox="0 0 200 250">
  <defs>
    <style>
      .cls-1 {
        fill: #5a2b5f;
      }
    </style>
  </defs>
  <path class="cls-1" d="M127.26,59.31h2.87c11.42,0,22.85,0,34.27,0,7.6,0,12.08,5,12.08,13.55,.02,26.47,.02,52.95,0,79.42,0,8.49-4.56,13.54-12.13,13.54-11.42,0-22.85,0-34.27,0h-2.71v11.38h28.5v6.5h-28.45v7.6h43.94v6.55h-44.1c0,1.3,0,2.26,0,3.23,0,9.92,.01,19.83,0,29.75-.02,11.68-6.61,19.14-16.98,19.15-31.11,.02-62.22,.02-93.33,0C6.69,249.97,.01,242.51,.01,231.05,0,160.36,0,89.68,.01,18.99,.01,7.58,6.78,.02,16.96,.02c31.11-.02,62.22-.02,93.33,0,10.19,0,16.93,7.55,16.96,18.96,.03,12.37,0,24.75,0,37.12,0,.97,0,1.95,0,3.21Zm-7.41-.1c0-8.3,0-16.29,0-24.28,0-5.59-1.54-7.28-6.58-7.28-33.05,0-66.11,0-99.16,0-5.18,0-6.66,1.65-6.66,7.45,0,59.95,0,119.9,0,179.85,0,5.76,1.58,7.55,6.62,7.55,33.05,0,66.11,0,99.16,0,4.95,0,6.62-1.82,6.62-7.29,.01-15.56,0-31.11,0-46.67,0-.86-.08-1.73-.12-2.55H58.42v11.02h-5.96V49.72h6.15v9.48h61.23Zm-61.15,100.07h2.52c34.25,0,68.51,0,102.76,0,4.93,0,6.68-1.98,6.68-7.6,0-26.1,0-52.19,0-78.29,0-5.61-1.71-7.52-6.72-7.52-34.17,0-68.34,0-102.52,0h-2.74v93.42Zm-6.14,79.51h22.09v-6.12h-22.09v6.12Z"/>
  <path class="cls-1" d="M179.99,191.5h20.01v6.3h-20.01v-6.3Z"/>
  <path class="cls-1" d="M64.87,131.74v-6.24h93.06v6.24H64.87Z"/>
  <path class="cls-1" d="M157.99,141.45v6.22h-53.94v-6.22h53.94Z"/>
  <path class="cls-1" d="M131.11,99.9c-5.5,.06-9.95-4.76-10.06-10.89-.11-6.19,4.4-11.31,9.95-11.3,5.49,0,9.89,4.92,9.92,11.04,.03,6.16-4.32,11.09-9.81,11.14Z"/>
  <path class="cls-1" d="M142.86,80.4c4.49-3.89,10.18-3.44,13.71,.93,3.52,4.36,3.39,11.14-.3,15.32-3.67,4.16-9.32,4.39-13.36,.54,2.58-8.57,2.58-8.88-.06-16.79Z"/>
  <path class="cls-1" d="M80.31,88.79c0,1.73,.02,3.45,0,5.18-.03,2.3-1.04,3.57-3.12,3.59-3.07,.03-6.15,.02-9.22,0-2.08,0-3.16-1.28-3.2-3.54-.07-3.45-.07-6.9,0-10.35,.04-2.23,1.04-3.57,3.16-3.57,3.07,0,6.15,0,9.22,0,2.1,0,3.13,1.21,3.17,3.51,.03,1.72,0,3.45,0,5.18Z"/>
  <path class="cls-1" d="M64.93,141.43h22.9v6.22h-22.9v-6.22Z"/>
</svg>