<?xml version="1.0" encoding="UTF-8"?>
<svg id="Layer_1" data-name="Layer 1" xmlns="http://www.w3.org/2000/svg" viewBox="0 0 150 200">
  <defs>
    <style>
      .cls-1 {
        fill: #5b2c62;
        stroke: #5b2c62;
        stroke-miterlimit: 10;
      }
    </style>
  </defs>
  <path class="cls-1" d="M34.58,96.33c4.44,.78,8.76,1.02,13.23,.35v1.45c0,27.32,0,54.64-.01,81.96,0,1.61,.29,3.03,1.37,4.15,.81,.84,1.79,1.25,2.89,1.31,.47,.02,.94,.02,1.41,.02,26.03,0,52.06,0,78.09-.02,.89,0,1.84-.11,2.65-.48,1.57-.71,2.4-2.15,2.54-4.04,.03-.38,.02-.76,.02-1.15,0-42.74,0-85.47,0-128.21,0-1.39-.15-2.7-1-3.8-.95-1.24-2.18-1.78-3.64-1.78-11.94,0-23.87,0-35.81,0-2.22,0-4.44-.01-6.66,0-.51,0-.81-.1-.81-.78-.05-4.47-.65-8.85-1.77-13.14-.03-.13-.01-.27-.02-.5,.34,0,.65,0,.95,0,14.81,0,29.62-.01,44.44,0,8.24,.01,15.25,6.21,17.09,15.12,.3,1.47,.44,3.02,.44,4.54,.02,42.98,.02,85.96,.01,128.94,0,9.82-5.89,17.63-14.61,19.42-.98,.2-1.99,.28-2.98,.28-26.75,.01-53.5,.02-80.25,0-9.75,0-17.55-8.6-17.56-19.42-.03-27.74-.01-55.48-.01-83.21,0-.27,0-.54,0-1.03Z"/>
  <path class="cls-1" d="M41.53,90.79c-17.96-.06-33.89-12.43-39.34-31.43C-2.86,41.75,.9,26.11,12.61,13.01,18.93,5.95,26.76,1.95,35.6,.5c19.93-3.26,39.02,9.79,45.43,31,5.32,17.61-.22,37.75-13.54,49.27-7.64,6.61-16.31,9.88-25.96,10.02Zm32.7-45.44c-.02-5.43-1.24-11.1-3.43-15.85C62.42,11.28,42.19,4.29,25.93,14.01,10.23,23.39,4.36,44.65,12.71,62.08c6.65,13.9,21.26,21.75,36.08,18.17,14.65-3.54,25.49-18.32,25.44-34.9Z"/>
  <path class="cls-1" d="M93.33,98.8c-7.87,0-15.74,0-23.61,0-2.21,0-3.92-1.4-4.43-3.54-.7-2.96,1.25-5.89,4.03-6.06,.19-.01,.37,0,.56,0,15.64,0,31.29,0,46.93,0,2.59,0,4.53,1.84,4.71,4.44,.18,2.78-1.75,5.14-4.31,5.15-5.56,.03-11.12,.01-16.67,.01-2.4,0-4.81,0-7.21,0Z"/>
  <path class="cls-1" d="M93.37,127.96c-7.69,0-15.37,0-23.06,0-.65,0-1.32-.02-1.94-.21-2.12-.65-3.34-2.77-3.09-5.25,.22-2.19,2.02-4.01,4.09-4.14,.22-.01,.44-.01,.66-.01,15.59,0,31.18,0,46.78,0,1.16,0,2.23,.26,3.16,1.07,1.43,1.26,1.99,3.34,1.43,5.23-.59,1.96-2.13,3.29-4.01,3.3-4.59,.03-9.19,.02-13.78,.02-3.41,0-6.81,0-10.22,0Z"/>
  <path class="cls-1" d="M93.49,148.74c7.91,0,15.81-.02,23.72,.01,3.13,.01,5.21,3.33,4.12,6.5-.62,1.8-2.2,3.06-3.98,3.09-1.44,.03-2.87,0-4.31,0-14.4,0-28.81,0-43.21,0-2.68,0-4.6-2.07-4.57-4.88,.03-2.66,1.92-4.71,4.43-4.72,5.87-.02,11.75,0,17.62,0,2.06,0,4.12,0,6.19,0Z"/>
  <path class="cls-1" d="M45.96,40.59c.51,0,.88,0,1.24,0,6.25,0,12.49,0,18.74,0,1.16,0,2.23,.2,3.17,1,1.41,1.2,2.01,3.23,1.53,5.12-.51,1.97-2.08,3.35-4,3.5-.28,.02-.56,.02-.84,.02-7.93,0-15.87,0-23.8,0-3.05,0-4.84-1.98-4.84-5.35,0-7.7,0-15.41,0-23.11,0-2.44,1.56-4.46,3.66-4.83,2.11-.37,4.15,.91,4.84,3.14,.21,.67,.29,1.42,.29,2.14,.02,5.66,.01,11.31,.01,16.97,0,.41,0,.83,0,1.41Z"/>
</svg>