<?xml version="1.0" encoding="UTF-8"?>
<svg id="SvgjsSvg1012" xmlns="http://www.w3.org/2000/svg" viewBox="0 0 208 205.76">
  <defs>
    <style>
      .cls-1 {
        fill: #5b2c62;
      }
    </style>
  </defs>
  <g id="SvgjsG1014">
    <g>
      <path class="cls-1" d="m187.36,45.76L138.08,3.84c-5.69-4.87-14.01-5.14-20-.64l-21.36,16-13.44-13.44c-6.24-6.2-16.32-6.2-22.56,0L20.72,46.16C8.91,47.79.09,57.84,0,69.76v112c0,13.25,10.75,24,24,24h160c13.25,0,24-10.75,24-24v-112c.12-12.05-8.71-22.31-20.64-24Zm4.64,96h-16c-8.84,0-16-7.16-16-16s7.16-16,16-16h16v32ZM128,16l34.4,29.76h-39.12l-15.12-15.12,19.84-14.64Zm-56,1.04l28.72,28.72h-57.44l28.72-28.72Zm112,172.72H24c-4.42,0-8-3.58-8-8v-112c0-4.42,3.58-8,8-8h160c4.42,0,8,3.58,8,8v24h-16c-17.67,0-32,14.33-32,32s14.33,32,32,32h16v24c0,4.42-3.58,8-8,8Z"/>
      <path class="cls-1" d="m170.32,120.08c-1.46,1.53-2.29,3.56-2.32,5.68,0,4.42,3.58,8,8,8s8-3.58,8-8c.03-4.42-3.54-8.02-7.95-8.05-2.15-.01-4.21.84-5.73,2.37Z"/>
    </g>
  </g>
</svg>