<?xml version="1.0" encoding="UTF-8"?>
<svg id="Layer_1" data-name="Layer 1" xmlns="http://www.w3.org/2000/svg" viewBox="0 0 200 200">
  <defs>
    <style>
      .cls-1 {
        fill: #5c2e63;
      }
    </style>
  </defs>
  <path class="cls-1" d="M159.39,200c-5.96-2.44-12.59-4-17.74-7.49-13.74-9.31-17.76-27.09-10.34-41.46,7.32-14.19,24.53-21.92,40.72-18.3,17.27,3.87,28.43,17.79,27.97,34.89-.41,15.25-12.86,28.67-29.31,31.62-.72,.13-1.39,.49-2.08,.74h-9.21Zm10.1-39.49c0-3.73-.07-7.01,.02-10.29,.13-4.49-3.44-3.1-5.87-3.21-2.46-.11-5.51-.8-5.27,3.3,.19,3.26,.04,6.54,.04,10.2-2.79,0-5.05,0-7.32,0-7.61,0-7.47,0-7.4,7.09,.03,2.87,1.18,3.85,4.08,3.75,3.46-.12,6.92-.03,10.64-.03,0,3.73,.19,6.89-.05,10.02-.29,3.83,2.3,3.83,5.03,3.65,2.62-.18,6.3,1.18,6.13-3.51-.12-3.26-.02-6.54-.02-10.16,3.87,0,7.21-.15,10.54,.04,4.69,.27,4.1-2.71,4.15-5.47,.05-2.86,.35-5.66-4.22-5.41-3.32,.18-6.66,.04-10.46,.04Z"/>
  <path class="cls-1" d="M120.63,182.59c-23.79,0-47.24,0-70.69,0-12.57,0-25.14,.04-37.71-.02-8.71-.04-12.48-3.55-12.22-11.6,.43-13.16,6.31-23.57,19.33-29,8.03-3.35,16.71-5.43,25.26-7.5,9.63-2.32,19.38-4.14,27.66-10.04,5.5,12.4,15.03,19.57,29.12,20,14.89,.45,24.69-6.88,30.17-19.85,2.58,1.37,4.94,2.63,7.61,4.05-19.68,13.67-26.16,31.42-18.54,53.96Z"/>
  <path class="cls-1" d="M88.78,0c7.1,1.68,13.99,2.28,19.82,4.93,8.74,3.97,17.14,8.86,24.94,14.31,9.36,6.54,12.79,16.19,12.65,26.98-.05,4.03-.35,8.06-.41,12.09-.06,3.58-.98,7.26,3.35,9.84,1.26,.75,1.59,3.68,1.44,5.55-.19,2.38-.79,4.99-2.1,6.98-7.25,10.97-13.77,22.56-22.42,32.48-13.05,14.95-34.31,14.38-48.03-.17-8.56-9.08-16.23-18.82-21.16-30.12-1.53-3.5-2.09-7.46-2.44-11.27-.15-1.58,.93-4.05,2.29-4.82,3.16-1.8,2.92-4.11,2.8-6.93-.28-6.47-.75-13-.12-19.42,1.39-13.98,10.62-22.42,23.78-27.66,6.4-2.55,6.4-2.52,5.37-9-.11-.68,.08-1.41,.24-3.79Zm47.34,69.97c1.11-5.06,2.11-9.61,3.24-14.73-14.28,1.84-26.99-2.37-39.91-5.25-10.02-2.23-19.99-2.58-29.95,.34-2.35,.69-3.58,1.6-3.17,4.22,.7,4.52,1.01,9.09,1.51,13.89-1.33,.11-2.37,.15-3.39,.28-4.56,.59-6.11,2.49-5.36,6.81,.24,1.4,.57,2.93,1.39,4.08,7.62,10.75,14.49,22.12,23.29,31.95,9.36,10.46,25.81,10.54,36.15,.93,10.99-10.22,18.2-23.06,24.8-36.05,2.53-4.98,1.18-6.22-4.8-6.3-1.05-.01-2.11-.1-3.79-.18Z"/>
</svg>