<?xml version="1.0" encoding="UTF-8"?>
<svg id="Layer_1" data-name="Layer 1" xmlns="http://www.w3.org/2000/svg" viewBox="0 0 200 200">
  <defs>
    <style>
      .cls-1 {
        fill: #5c2e63;
      }
    </style>
  </defs>
  <path class="cls-1" d="M181.76,47.31c-.62,4.6-1.23,11.75-2.63,18.73-.98,4.91,.23,8.59,3.4,11.96,3.69,3.92,7.35,7.87,11.01,11.82,8.57,9.27,8.59,10.55,.22,20.37-1.4,1.64-2.7,3.51-4.41,4.69-9.78,6.79-11.32,16.49-9.27,27.6,.73,3.95,1.45,7.93,1.85,11.93,.71,7.2-1.1,9.66-7.95,10.92-4.31,.79-8.68,1.18-13,1.91-8.98,1.53-15.25,6.88-19.29,15.29-1.96,4.09-3.76,8.29-5.95,12.23-3.06,5.5-5.8,6.39-11.34,3.78-3.66-1.72-7.2-3.76-10.72-5.79-9.02-5.22-17.99-5.19-27.03-.09-3.69,2.09-7.37,4.24-11.19,6.03-5.28,2.47-8.04,1.55-10.97-3.69-2.02-3.63-3.65-7.5-5.4-11.29-4.83-10.46-12.65-16.26-23.8-17.19-3.65-.3-7.31-.93-10.87-1.81-5.72-1.42-7.51-4.26-6.66-10.35,.58-4.16,1.35-8.31,2.22-12.42,2.18-10.23-.67-18.81-7.59-26.09-3.09-3.25-6.44-6.25-9.34-9.67-4.03-4.75-4.04-7.84-.09-12.57,2.65-3.16,5.69-5.97,8.61-8.87,8.06-8.01,11.34-17.39,7.87-28.87-.57-1.9-.58-3.97-.99-5.93-2.82-13.31,1.57-14.74,12.29-15.5,14.88-1.06,25.73-7.52,30.65-22.96,.49-1.55,1.31-2.99,2.07-4.43,4.12-7.72,6.74-8.58,14.38-4.68,5.35,2.73,10.74,5.37,15.97,8.33,4.25,2.41,8.2,2.36,12.45,0,5.87-3.26,11.86-6.3,17.87-9.27,5.37-2.65,8.5-1.73,11.44,3.6,2.27,4.11,4.36,8.37,6.08,12.75,3.89,9.9,10.81,14.84,20.96,15.44,4.16,.25,8.31,1.1,12.38,2.08,6.24,1.5,7.14,2.95,6.77,12Zm-14.84,3.42c.2-2.53-2.13-3.14-5.11-3.12-16.39,.11-27.7-7.33-33.03-24.04-2.01-6.31-4.43-7.06-9.75-3.08-12.83,9.59-25.44,9.73-38.28-.02-5.39-4.09-7.27-3.38-9.51,3.26-5.37,15.91-15.95,23.9-32.09,23.93-5.43,.01-7.06,2.17-5.4,7.67,5.02,16.55,1.14,29.82-12.45,40.02-4.1,3.08-4.17,6.26-.09,9.28,13.72,10.14,17.5,23.41,12.57,39.96-1.59,5.34,.2,7.61,5.57,7.62,15.62,.01,26.21,7.31,31.54,22.94,2.67,7.84,4.11,8.23,10.45,3.62,12.36-8.99,24.59-9.06,37.05-.15,6.88,4.92,7.68,4.51,10.63-3.57,5.37-14.72,15.29-22.41,29.59-22.94,8.82-.33,9.3-.94,6.99-10.11-3.69-14.66-.16-26.73,11.45-36.07,6.48-5.21,6.43-7-.22-12.33-9.74-7.8-14.11-17.93-12.26-30.74,.52-3.61,1.37-7.16,2.34-12.11Z"/>
  <path class="cls-1" d="M136.83,68.07c-1.71,2.62-2.73,4.8-4.27,6.43-19.15,20.17-38.37,40.27-57.6,60.37-2.68,2.8-5.65,4.79-9.1,1.36-3.71-3.69-1.68-6.99,1.1-9.92,19.41-20.42,38.79-40.87,58.43-61.05,1.69-1.74,5.24-2.13,7.86-1.97,1.23,.08,2.3,2.96,3.57,4.77Z"/>
  <path class="cls-1" d="M77.27,58c9.22,.15,17.11,8.53,17.02,18.08-.09,9.75-8,17.88-17.24,17.74-9.28-.14-17.4-8.64-17.15-17.94,.26-9.51,8.53-18.02,17.37-17.87Zm.93,11.09c-.81,.02-1.62,.05-2.43,.07-1.44,2.28-3.83,4.44-4.11,6.87-.43,3.76,2.13,6.11,5.94,5.87,3.53-.23,5.81-2.59,4.98-6.16-.57-2.44-2.86-4.44-4.38-6.64Z"/>
  <path class="cls-1" d="M139.87,123.8c-.03,9.63-7.94,17.86-17.1,17.81-9.3-.06-16.92-8.13-16.93-17.93,0-9.88,7.6-17.82,17-17.74,9.33,.07,17.05,8.18,17.03,17.86Zm-10.74-1.46c-2.17-1.51-4.2-3.9-6.54-4.31-3.49-.6-5.41,2.07-5.36,5.79,.05,3.77,2.07,5.82,5.61,5.78,3.54-.04,5.5-2.03,6.29-7.26Z"/>
</svg>