<?xml version="1.0" encoding="UTF-8"?>
<svg id="Layer_1" data-name="Layer 1" xmlns="http://www.w3.org/2000/svg" viewBox="0 0 200 200">
  <defs>
    <style>
      .cls-1 {
        fill: #5c2e63;
      }
    </style>
  </defs>
  <path class="cls-1" d="M0,3.73C2.53-.39,4.09-.87,8.47,1.18c6.32,2.95,12.62,5.99,18.97,8.86,3.96,1.79,6.21,4.84,6.96,9.39,.7,4.29,1.64,8.53,2.37,12.81,.27,1.58,.85,2.13,2.41,2.12,11.2-.08,22.4-.04,33.6-.04,38.48,0,76.96,0,115.44,.02,1.55,0,3.16,.03,4.64,.46,4.95,1.41,7.97,6.76,6.94,12.24-4.5,23.82-9.03,47.63-13.58,71.43-1.18,6.18-4.85,9.15-11.12,9.15-36.79,0-73.57,0-110.36,0-2.54,0-5.08,0-7.62,0-.63,0-1.26,.06-2.08,.1,.96,5.05,1.89,9.92,2.86,15.01h2.53c37.7,0,75.4,0,113.09,0,1.04,0,2.09,.02,3.1,.24,2.29,.5,3.86,2.69,3.83,5.15-.03,2.55-1.74,4.71-4.12,5.11-.83,.14-1.69,.16-2.53,.16-38.09,0-76.18,0-114.27,0-6.88,0-10.18-2.92-11.55-10.13-7.68-40.32-15.38-80.65-23.03-120.98-.3-1.56-.95-2.35-2.3-2.96-6.12-2.77-12.16-5.7-18.28-8.48-1.94-.88-3.5-2.08-4.38-4.18V3.73ZM39.43,45.1c.05,.62,.04,1.11,.13,1.58,4.33,22.71,8.69,45.41,12.97,68.13,.33,1.74,.9,2.21,2.52,2.21,39.78-.05,79.56-.04,119.34-.04h2.07c4.6-24.13,9.14-47.96,13.69-71.88H39.43Z"/>
  <path class="cls-1" d="M66.32,181c0-10.57,7.83-19.02,17.63-18.99,9.65,.03,17.5,8.52,17.52,18.95,.02,10.43-8.01,19.09-17.69,19.04-9.63-.05-17.46-8.57-17.47-19Zm17.57-8.4c-4.26-.01-7.71,3.65-7.75,8.25-.05,4.7,3.4,8.53,7.7,8.55,4.26,.02,7.85-3.88,7.79-8.5-.05-4.58-3.51-8.29-7.74-8.3Z"/>
  <path class="cls-1" d="M145.52,162.01c9.76-.02,17.69,8.51,17.66,19.01-.03,10.38-7.94,18.94-17.54,18.98-9.7,.04-17.63-8.55-17.61-19.06,.03-10.49,7.8-18.9,17.49-18.93Zm-7.67,18.97c0,4.6,3.38,8.33,7.63,8.41,4.26,.08,7.85-3.77,7.84-8.42,0-4.68-3.52-8.42-7.85-8.37-4.24,.05-7.62,3.76-7.62,8.39Z"/>
  <path class="cls-1" d="M114.89,61.91c11.46,0,22.92-.01,34.37,0,2.95,0,4.91,1.54,5.41,4.1,.61,3.19-1.36,6.1-4.4,6.45-.64,.07-1.3,.04-1.95,.04-22.4,0-44.79,0-67.19,0-.39,0-.78,0-1.17,0-3.18-.08-5.38-2.3-5.33-5.4,.04-3.02,2.17-5.17,5.3-5.18,11.65-.03,23.31-.01,34.96-.01Z"/>
  <path class="cls-1" d="M114.66,100.04c-10.21,0-20.43-.02-30.64,.01-1.88,0-3.47-.54-4.61-2.2-2.2-3.21-.37-7.78,3.35-8.35,.45-.07,.91-.05,1.36-.05,20.43,0,40.86,0,61.29,0,3.23,0,5.34,1.92,5.51,4.93,.18,3.21-1.86,5.6-5.02,5.63-6.11,.06-12.23,.02-18.35,.03-4.29,0-8.59,0-12.88,0Z"/>
</svg>