<?xml version="1.0" encoding="UTF-8"?>
<svg id="Layer_1" data-name="Layer 1" xmlns="http://www.w3.org/2000/svg" viewBox="0 0 200 300">
  <defs>
    <style>
      .cls-1 {
        fill: #5c2e63;
      }
    </style>
  </defs>
  <path class="cls-1" d="M8.34,249.83H158.44c0-1.68-.06-3.21,.01-4.74,.14-2.99,1.8-5.02,4.06-5.08,2.27-.06,4.19,1.94,4.21,4.87,.06,10.83,.41,21.69-.14,32.48-.65,12.76-9.7,22.54-20.4,22.56-41.86,.09-83.72,.1-125.59,0-11.7-.03-20.57-11.26-20.58-25.67C-.01,227.8,0,181.35,0,134.9c0-36.04,0-72.07,0-108.11C.01,10.53,8.77,0,22.3,0c40.73,0,81.47,0,122.2,0,13.53,0,22.26,10.53,22.27,26.82,0,15.31,0,30.62,0,45.93,0,.73,.03,1.46-.02,2.19-.18,2.97-1.86,5-4.12,5.02-2.27,.03-4.01-1.98-4.18-4.94-.08-1.45-.03-2.91-.03-4.37,0-14.79,.01-29.58,0-44.37-.01-10.16-5.16-16.27-13.67-16.29-9.2-.01-18.4,0-28.01,0,0,1.62,.02,3.13,0,4.64-.11,8.94-5.4,15.31-12.89,15.34-13.55,.06-27.1,.04-40.65,0-7.92-.02-13.12-6.37-13.17-15.95,0-1.23,0-2.45,0-4.03-3.3,0-6.4,0-9.5,0-6.34,0-12.68-.03-19.02,0-7.82,.04-13.16,6.34-13.16,15.63-.02,73.94,0,147.89,0,221.83,0,.71,0,1.42,0,2.35Zm0,10.27c0,5.22-.06,10.11,.01,15,.13,8.36,5.48,14.84,12.49,14.85,41.69,.06,83.38,.05,125.07,0,6.21,0,11.49-5.07,12.2-12.39,.56-5.71,.11-11.56,.11-17.46H8.35ZM108.4,10.2H58.38c0,1.63-.05,3.07,0,4.51,.13,3.3,1.65,5.25,4.42,5.26,13.7,.06,27.4,.05,41.1,0,2.78-.01,4.33-1.93,4.48-5.21,.06-1.44,.01-2.89,.01-4.57Z"/>
  <path class="cls-1" d="M177.23,199.98c3.45,11.62,1.83,20.24-4.75,26.08-5.93,5.26-14,5.21-19.9-.14-6.52-5.91-8.13-14.58-4.67-25.71h-28.98c3.89,11.11,2.21,20.58-6.59,27.14-6.04,4.5-13.76,3.25-19.13-2.39-5.74-6.02-7.03-14.56-3.63-24.71-8.25-1.29-13.65-6.39-14.46-16.7-.65-8.27,3.1-14.08,11.36-18.46-2.33-11.99-4.67-24.02-7.01-36.05-4.08-20.96-8.16-41.92-12.23-62.88-1.02-5.26-1.91-6.14-6.37-6.14-4.69,0-9.38,.02-14.07,0-3.24-.02-5.16-1.98-5.09-5.12,.07-3.03,1.91-4.85,5.03-4.86,5.21-.03,10.42-.04,15.63,0,6.39,.05,11.12,4.5,12.6,11.94,1.83,9.2,3.59,18.43,5.45,28.05,.99,0,2,0,3.01,0,34.57,0,69.13-.01,103.7,.01,8.99,0,14.38,8.14,12.47,18.76-1.03,5.69-2.16,11.36-3.26,17.03-2.38,12.25-4.78,24.5-7.18,36.75-1.57,8-6.18,12.44-13.06,12.44-28.05,.02-56.1,0-84.16,0-.96,0-1.92-.06-2.86,.06-3.21,.39-5.63,3.53-5.69,7.29-.06,3.88,2.39,7.18,5.7,7.59,.95,.12,1.91,.06,2.86,.06,28.31,0,56.63,0,84.94,0,.69,0,1.39-.03,2.08,.01,2.66,.16,4.42,2.14,4.43,4.97,.01,2.83-1.69,4.77-4.4,5.01-.51,.04-1.03,0-1.79,0Zm-82.22-35.13c.74,.05,1.34,.13,1.94,.13,26.31,0,52.63,.01,78.94,0,3.31,0,4.5-1.21,5.31-5.38,3.37-17.31,6.73-34.63,10.08-51.95,1.11-5.74-.2-7.65-5.17-7.65-33.61,0-67.22,0-100.82,0h-2.9c4.26,21.9,8.43,43.33,12.62,64.86Zm9,55.11c4.55,.14,8.39-4.2,8.54-9.64,.16-5.57-3.57-10.25-8.23-10.32-4.5-.08-8.35,4.41-8.41,9.8-.06,5.47,3.57,10.02,8.11,10.16Zm58.71,0c4.54-.08,8.23-4.6,8.2-10.05-.03-5.57-3.92-10.06-8.58-9.91-4.49,.14-8.18,4.82-8.07,10.21,.12,5.46,3.9,9.83,8.45,9.75Z"/>
  <path class="cls-1" d="M83.13,279.97c-3.82,0-7.64,.03-11.46,0-3.07-.03-4.93-1.95-4.93-4.99,0-3.03,1.86-4.98,4.93-4.99,7.82-.03,15.63-.03,23.45,0,3.06,.01,4.93,1.96,4.93,4.98,0,3.02-1.87,4.96-4.93,4.99-3.99,.04-7.99,0-11.98,0Z"/>
  <path class="cls-1" d="M116.74,132.47c0,5.52,.02,11.04,0,16.56-.02,3.67-1.63,5.92-4.15,5.93-2.52,.01-4.16-2.24-4.17-5.9-.03-11.04-.02-22.08,0-33.12,0-3.68,1.62-5.92,4.14-5.93,2.53-.01,4.15,2.23,4.18,5.9,.03,5.52,0,11.04,0,16.56Z"/>
  <path class="cls-1" d="M141.76,132.77c0,5.42,.02,10.83,0,16.25-.02,3.68-1.62,5.93-4.14,5.95-2.52,.02-4.17-2.23-4.18-5.89-.03-11.04-.02-22.08,0-33.12,0-3.69,1.61-5.92,4.13-5.94,2.53-.02,4.16,2.22,4.19,5.88,.03,5.62,0,11.25,0,16.87Z"/>
  <path class="cls-1" d="M166.77,132.64c0,5.42,.02,10.83,0,16.25-.02,3.84-1.7,6.18-4.29,6.07-2.5-.1-4.02-2.33-4.03-6.07-.02-10.93-.02-21.87,0-32.8,0-3.85,1.69-6.17,4.29-6.07,2.5,.1,4.02,2.33,4.03,6.07,.03,5.52,0,11.04,0,16.56Z"/>
</svg>