<?xml version="1.0" encoding="UTF-8"?>
<svg id="Layer_1" data-name="Layer 1" xmlns="http://www.w3.org/2000/svg" viewBox="0 0 200 200">
  <defs>
    <style>
      .cls-1 {
        fill: #5c2e63;
      }
    </style>
  </defs>
  <path class="cls-1" d="M.18,67.44C-2.42,33.68,23.83,2.84,57.33,.28c41.56-3.18,70.52,20.82,73.71,61.08,2.71,34.15-23.5,64.91-56.92,67.96C31.99,133.18,1.71,105.94,.18,67.44Zm65.04,55.74c33.44,.24,58.6-23.79,58.83-56.22,.26-35.94-23.09-60.26-58.09-60.54C31.96,6.15,7.24,30.37,7.03,64.14c-.21,34.29,23.92,58.78,58.18,59.03Z"/>
  <path class="cls-1" d="M179.48,199.99c-5.25,.16-9.52-1.98-13.1-5.49-10.74-10.56-21.37-21.25-32.14-31.78-1.68-1.64-2.19-2.58-.24-4.46,7.97-7.7,15.84-15.51,23.61-23.42,1.88-1.92,3.02-1.89,4.89,0,10.48,10.58,21.09,21.04,31.63,31.56,5.85,5.85,7.51,12.71,4.18,20.33-3.55,8.1-9.87,12.62-18.82,13.26Z"/>
  <path class="cls-1" d="M104.4,125.39c7.46-5.22,14.05-10.81,19.12-17.9,1.46-2.04,2.33-1.23,3.57,.03,3.15,3.21,6.33,6.4,9.57,9.51,.78,.75,1.69,2.57,2.83,1.57,4.07-3.59,6.17-.3,8.6,2.08q7.25,7.1,.04,14.22c-6.15,6.08-12.35,12.13-18.4,18.31-1.74,1.78-2.92,2.59-4.88,.21-1.97-2.39-4.33-4.46-6.6-6.59-1.36-1.28-2.69-3.13-1.57-4.47,2.78-3.32,.12-4.79-1.7-6.61-3.4-3.4-6.87-6.74-10.58-10.35Z"/>
  <path class="cls-1" d="M65.39,66.52c-9.74,0-19.48,.03-29.22,0-6.78-.02-9.29-2.28-9.32-8.2-.03-6.25,2.19-8.31,9.02-8.34,5.74-.02,11.48-.17,17.21,.06,3.09,.13,4.4-.55,4.14-3.92-.32-4.12-.18-8.29-.05-12.44,.15-4.82,2.94-7.22,8.16-7.27,5.51-.05,8.42,2.39,8.56,7.41,.12,4.32,.15,8.65-.02,12.96-.1,2.48,.71,3.3,3.24,3.24,6.43-.15,12.87-.11,19.3-.03,5.34,.07,7.58,2.32,7.75,7.51,.2,5.92-2.02,8.87-7.47,8.97-10.43,.19-20.87,.06-31.3,.06Z"/>
  <path class="cls-1" d="M66.03,73.03c9.04,0,18.08,.07,27.11-.05,2.43-.03,3.37,.4,3.04,3.11-.7,5.82-.91,11.71-1.56,17.54-.68,6.07-4.56,9.48-10.85,9.53-12.17,.09-24.33,.09-36.5,0-6.46-.05-10.37-3.69-10.97-10-.52-5.5-.68-11.04-1.44-16.5-.44-3.2,.66-3.72,3.52-3.68,9.21,.15,18.42,.06,27.64,.06Zm-8.85,14.69c0,1.8,.08,3.19-.02,4.56-.18,2.48,.83,4.2,3.35,4.27,2.29,.06,3.28-1.66,3.38-3.8,.07-1.55,.24-3.14,0-4.66-.48-2.89,1.87-7.72-3.18-7.88-5.88-.19-2.55,5.13-3.52,7.52Zm-3.31,1.12c0-1.87,.04-3.58-.01-5.29-.07-2.24-1.29-3.57-3.54-3.52-2.27,.05-3.36,1.48-3.4,3.69-.03,1.71-.11,3.43,.01,5.13,.22,3-1.32,7.65,3.54,7.55,4.79-.09,3.04-4.74,3.4-7.56Zm23.2-.88c.71,3.09-1.69,8.23,3.33,8.38,5.56,.17,3.58-5.17,3.63-8.35,.04-2.88,1.75-7.59-3.16-7.77-5.67-.22-2.97,4.91-3.8,7.74Zm-3.19,.28c0-1.38-.07-2.77,.01-4.14,.15-2.5-.82-4.06-3.48-4.05-2.48,.01-3.2,1.72-3.25,3.82-.06,2.59,0,5.18-.03,7.77-.02,2.4,.36,4.87,3.3,4.89,3.27,.02,3.64-2.54,3.45-5.18-.07-1.03-.01-2.07-.01-3.11Z"/>
</svg>