<?xml version="1.0" encoding="UTF-8"?>
<svg id="Layer_1" data-name="Layer 1" xmlns="http://www.w3.org/2000/svg" viewBox="0 0 200 200">
  <defs>
    <style>
      .cls-1 {
        fill: #5c2e63;
      }
    </style>
  </defs>
  <path class="cls-1" d="M150.64,170.87c4.56,1.22,7.67,.7,10.38-4,4.85-8.39,14.74-11.55,23.84-8.73,9.18,2.84,15.18,10.99,15.13,20.55-.05,9.42-6.44,17.92-15.36,20.45-9.41,2.66-19.1-.93-24.1-9.61-1.84-3.19-3.85-4.18-7.23-3.86-2.64,.25-5.33,.07-8,.05-7.17-.07-9.6-2.41-9.62-9.59-.05-21.13-.01-42.26-.03-63.39,0-1.67-.17-3.34-.3-5.6h-13.45v-14.04h13.45c.12-2.61,.29-4.63,.29-6.64,.02-20.56,0-41.12,.02-61.68,0-8.3,2.18-10.43,10.47-10.46,1.52,0,3.06-.15,4.57,.03,4.88,.56,8.14-.54,11-5.44,4.62-7.92,14.95-10.68,23.7-7.76,8.72,2.9,14.64,11.19,14.59,20.43-.05,9.54-6.15,17.61-15.38,20.36-8.87,2.64-18.25-.71-23.6-8.43q-3.59-5.19-10.44-4.47v63.29c4.52,1.49,7.64,.91,10.43-4.01,4.7-8.28,14.72-11.51,23.87-8.79,8.95,2.65,15.18,11.14,15.12,20.61-.06,9.25-6.11,17.54-14.81,20.27-9.09,2.86-18.75-.48-24.16-8.34q-3.56-5.17-10.39-4.71v63.54Z"/>
  <path class="cls-1" d="M.05,71.4c17.68,7.87,34.34,15.25,50.93,22.78,1.1,.5,2.36,2.15,2.37,3.28,.14,19.54,.1,39.08,.1,59.53-6.49-2.86-12.19-5.35-17.87-7.88-9.89-4.41-19.89-8.61-29.58-13.43-2.5-1.24-5.64-4.43-5.7-6.79C-.16,110.11,.05,91.32,.05,71.4Z"/>
  <path class="cls-1" d="M114.29,71.38c0,19.71,.15,38.15-.18,56.58-.04,2.36-1.97,5.88-3.98,6.83-15.93,7.54-32.1,14.6-48.57,21.97-.35-1.17-.71-1.82-.71-2.47-.04-18.45-.09-36.9,.05-55.35,.01-1.58,.93-4.04,2.11-4.58,16.7-7.67,33.51-15.07,51.28-22.98Z"/>
  <path class="cls-1" d="M110.49,65.2c-13.69,6.11-26.88,11.16-39.23,17.76-9.82,5.24-18.16,5.43-28.06,.09-12.33-6.65-25.55-11.65-39.44-17.83,13.63-5.87,26.63-10.66,38.83-16.98,10.05-5.21,18.72-5.4,28.85-.09,12.25,6.42,25.37,11.18,39.04,17.06Z"/>
</svg>