<?xml version="1.0" encoding="UTF-8"?>
<svg id="Layer_1" data-name="Layer 1" xmlns="http://www.w3.org/2000/svg" viewBox="0 0 200 200">
  <defs>
    <style>
      .cls-1 {
        fill: #5c2e63;
      }
    </style>
  </defs>
  <path class="cls-1" d="M40.57,90.07c8.03,2.08,16.07,4.16,24.1,6.24,11.2,2.89,22.39,5.79,33.6,8.64,.97,.25,2.11,.31,3.07,.07,18.95-4.82,37.88-9.69,56.81-14.56,.46-.12,.89-.33,1.82-.69-7-1.74-13.53-3.36-20.05-4.99-4.51-1.12-9.02-2.21-13.52-3.37-2.08-.54-3.16-1.95-2.98-4.1,.17-2.07,1.49-3.15,3.48-3.44,.61-.09,1.29,.1,1.92,.26,15.82,3.89,31.65,7.75,47.44,11.77,1.34,.34,2.83,1.45,3.55,2.62,6.52,10.56,12.9,21.21,19.27,31.86,1.84,3.08,.86,5.45-2.67,6.42-5.41,1.49-10.86,2.85-16.42,4.3,0,1.01,0,1.88,0,2.76,0,13.89,0,27.78,0,41.67,0,3.7-.73,4.59-4.39,5.53-24.14,6.22-48.26,12.47-72.43,18.58-2.01,.51-4.39,.47-6.4-.04-24.08-6.09-48.13-12.32-72.19-18.51-4.05-1.04-4.61-1.75-4.61-5.82,0-13.81,0-27.62,0-41.43,0-.87,0-1.75,0-2.77-4.85-1.26-9.57-2.49-14.29-3.72-.63-.16-1.26-.32-1.89-.49-3.81-1.06-4.79-3.33-2.78-6.69,5.26-8.78,10.49-17.57,15.85-26.29,5.69-9.25,2.51-6.82,13-9.52,13.33-3.43,26.72-6.66,40.08-9.97,.47-.12,.95-.22,1.43-.31,2.5-.5,4.5,.52,5.05,2.56,.6,2.25-.56,4.18-3.17,4.84-10.18,2.59-20.39,5.1-30.58,7.64-.71,.18-1.41,.38-2.11,.57v.4Zm131.57,43.08c-1.08,.26-1.87,.44-2.65,.64-15.7,4.04-31.4,8.09-47.1,12.13-3.66,.94-4.66,.52-6.61-2.71-2.13-3.52-4.25-7.04-6.37-10.56-1.68-2.79-3.36-5.59-5.39-8.96v67.75c.94-.22,1.73-.38,2.5-.58,20.99-5.4,41.96-10.85,62.97-16.17,2.02-.51,2.73-1.21,2.71-3.32-.11-11.89-.05-23.77-.05-35.66,0-.78,0-1.57,0-2.56Zm-144.19-.01c-.06,.69-.13,1.08-.13,1.47,0,12.53,.03,25.06-.05,37.59-.01,1.66,.8,1.96,2.11,2.3,19.26,4.94,38.5,9.91,57.75,14.87,2.73,.7,5.46,1.38,8.26,2.08V123.78c-4.09,6.78-7.86,13.05-11.65,19.3-2.05,3.39-2.99,3.79-6.77,2.81-12.15-3.14-24.29-6.3-36.43-9.44-4.31-1.11-8.62-2.19-13.09-3.32Zm65.78-21.2c-.56-.21-1-.43-1.46-.55-21.61-5.57-43.22-11.12-64.82-16.73-1.41-.37-2.01,.02-2.69,1.17-4.57,7.69-9.22,15.33-13.83,22.99-.28,.46-.48,.96-.78,1.57,.49,.2,.85,.39,1.22,.48,21.68,5.6,43.37,11.18,65.05,16.8,1.36,.35,2.03-.02,2.72-1.19,4.57-7.69,9.21-15.33,13.82-22.99,.28-.47,.49-.98,.76-1.55Zm12.38-.09c.53,.95,.89,1.66,1.3,2.34,4.36,7.25,8.8,14.45,13.06,21.76,1.01,1.73,1.96,2.02,3.87,1.52,17.17-4.5,34.38-8.88,51.57-13.3,4.63-1.19,9.24-2.43,14.11-3.71-5.36-8.9-10.55-17.49-15.78-26.17-22.76,5.87-45.35,11.7-68.13,17.57Z"/>
  <path class="cls-1" d="M100.01,97.42c-1.63,0-3.27,.03-4.9,0-5.91-.14-10.19-4.05-10.6-9.86-.2-2.8-.09-5.62-.03-8.42,.01-.7,.12-1.61,.57-2.04,1.74-1.65,.71-3.03-.32-4.36-.79-1.01-1.73-1.92-2.68-2.79-8.72-7.97-11.14-19.93-6.12-30.38,4.99-10.39,16.31-16.51,27.67-14.95,11.67,1.6,20.91,10.31,22.69,21.82,1.41,9.09-1.37,16.95-8.19,23.36-1,.94-2.06,1.85-2.91,2.91-1.05,1.32-2.11,2.78-.24,4.32,.06,.05,.12,.13,.12,.2,.48,5.7,1.89,11.56-2.19,16.63-1.79,2.23-4.3,3.42-7.24,3.52-1.88,.06-3.75,.01-5.63,.01,0,.01,0,.02,0,.03Zm3.91-22.71c.19,.18,.38,.36,.57,.54,.48-.45,1.23-.82,1.4-1.36,1.22-3.99,3.75-7,6.83-9.78,5.24-4.72,7.07-10.73,5.6-17.52-1.67-7.75-8.32-13.6-15.89-14.35-8.45-.84-16.1,3.4-19.55,10.83-3.36,7.25-1.67,15.6,4.48,21.14,3.02,2.72,5.41,5.75,6.69,9.61,.19,.57,.95,.95,1.44,1.42,.58-6.36,.58-12.3,.59-18.23,0-3.43,1.4-5.24,3.99-5.19,2.51,.04,3.85,1.79,3.85,5.09,0,5.94,0,11.88,0,17.81Zm3.78,8.18h-15.42c0,.98,0,1.83,0,2.69,.02,3.38,.73,4.11,4.09,4.13,2.36,.01,4.71,0,7.07,0,3.54-.01,4.24-.71,4.25-4.22,0-.78,0-1.57,0-2.6Z"/>
  <path class="cls-1" d="M96.08,8.22c0-1.44-.06-2.88,.01-4.32,.12-2.27,1.72-3.86,3.82-3.9,2.1-.04,3.87,1.52,3.95,3.75,.11,3.04,.11,6.08,0,9.12-.08,2.22-1.85,3.82-3.93,3.79-2.08-.03-3.68-1.64-3.86-3.88-.01-.16,0-.32,0-.48,0-1.36,0-2.72,0-4.08,0,0,0,0,0,0Z"/>
  <path class="cls-1" d="M78.43,22.35c-.64,.78-1.27,2.2-2.33,2.67-1.07,.47-3.1,.51-3.79-.16-2.64-2.57-5.14-5.36-7.19-8.39-.61-.89,.02-3.11,.79-4.26,.95-1.43,3.11-1.84,4.33-.6,2.81,2.83,5.25,6.02,7.8,9.09,.23,.27,.19,.76,.4,1.66Z"/>
  <path class="cls-1" d="M135.37,14.1c-.05,2.97-6.88,11.27-8.97,11.3-1.29,.02-3.12-.53-3.74-1.45-.69-1.02-.88-3.15-.23-4.11,1.88-2.78,4.11-5.39,6.57-7.68,.85-.8,2.95-.96,4.16-.53,1.1,.38,1.76,1.95,2.2,2.48Z"/>
</svg>