<svg width="42" height="40" viewBox="0 0 42 40" fill="none" xmlns="http://www.w3.org/2000/svg">
<g id="Group 88">
<path id="Vector" d="M26.7324 36.0206C21.9534 36.0206 17.1732 36.0206 12.3942 36.0206C10.5219 36.0206 9.54044 34.5879 10.201 32.8331C10.8674 31.0641 11.5338 29.2952 12.1838 27.5216C12.3049 27.1913 12.4177 27.0691 12.7715 27.2666C13.3286 27.578 13.941 27.7179 14.5851 27.7167C16.9452 27.712 19.3053 27.7132 21.6666 27.7167C22.1708 27.7167 22.6609 27.6474 23.1287 27.4582C23.4202 27.3406 23.5648 27.3935 23.5812 27.732C23.7199 30.621 26.167 32.2536 28.6047 32.1995C30.805 32.1502 32.5304 31.3204 33.5048 29.26C34.0066 28.1986 33.9291 27.0691 33.8068 25.9384C33.6576 24.5562 33.5318 23.1728 33.3978 21.7894C33.2579 20.3484 33.1204 18.9063 32.9829 17.4641C32.97 17.3325 32.9688 17.2008 32.9535 17.0692C32.9171 16.7601 33.0652 16.6931 33.3543 16.5908C34.016 16.3581 34.3992 16.5274 34.7224 17.1385C34.9222 17.517 35.3595 17.6945 35.7708 17.8179C35.9895 17.8837 36.0788 17.9918 36.0988 18.214C36.2057 19.4093 36.3233 20.6023 36.4349 21.7976C36.6018 23.5889 36.7675 25.3813 36.9321 27.1737C37.0614 28.5877 37.1989 30.0004 37.3082 31.4156C37.3681 32.1913 37.4445 32.2983 38.2038 32.357C39.914 32.4898 41.4196 33.8027 41.8028 35.4917C41.9144 35.9842 41.8909 36.0194 41.3785 36.0206C37.3611 36.023 33.3449 36.0206 29.3275 36.0218C28.4625 36.0218 27.5974 36.0218 26.7324 36.0218V36.0206ZM18.1523 33.6029C18.9868 33.6029 19.8213 33.5982 20.6546 33.6053C21.0354 33.6088 21.2364 33.4278 21.2423 33.0564C21.2517 32.4417 21.274 31.8246 21.2352 31.2134C21.1694 30.1544 20.4571 29.5103 19.3934 29.5056C18.5296 29.5009 17.6657 29.4939 16.803 29.5103C15.8803 29.5268 15.1669 30.2414 15.1457 31.1593C15.1316 31.7741 15.1363 32.3888 15.1434 33.0035C15.1492 33.4995 15.248 33.6006 15.7369 33.6041C16.542 33.61 17.3472 33.6053 18.1523 33.6041V33.6029Z" fill="white"/>
<path id="Vector_2" d="M22.9033 22.9861C22.3321 22.9497 21.762 22.9697 21.1908 22.9238C19.5489 22.7922 18.2348 21.5722 18.0021 19.9184C17.9598 19.6152 17.8904 19.3131 17.9257 19.0017C17.9539 18.7572 18.0538 18.6349 18.3253 18.6655C20.6372 18.9194 22.9492 19.1674 25.2623 19.4142C25.931 19.4859 26.601 19.5505 27.2721 19.6081C28.5991 19.7245 29.4606 20.7941 29.3384 22.1175C29.2385 23.1953 29.2032 24.279 29.135 25.3603C29.0845 26.1784 29.0422 26.9976 28.9705 27.8133C28.8647 29.0098 29.2091 30.0077 30.1764 30.7611C30.4902 31.0056 30.4679 31.0867 30.0812 31.2371C28.565 31.8236 26.5269 31.2265 25.3962 29.8572C24.7604 29.0874 24.3878 28.2188 24.4101 27.1986C24.416 26.9141 24.4912 26.7002 24.7016 26.5028C25.1823 26.0526 25.5161 25.5072 25.6583 24.8561C25.8535 23.964 25.1812 23.0472 24.2667 22.9908C23.8142 22.9626 23.3582 22.9861 22.9045 22.9861H22.9033Z" fill="white"/>
<path id="Vector_3" d="M29.4194 15.7776C28.2323 15.7776 27.0452 15.7846 25.8592 15.7729C25.5689 15.7693 25.4079 15.8634 25.3009 16.1431C25.0224 16.873 24.6204 17.5347 24.1174 18.1365C23.9822 18.2975 23.8459 18.3716 23.6296 18.3492C21.856 18.1612 20.0812 17.9814 18.3052 17.8027C17.9468 17.7663 17.9902 17.5218 18.0267 17.2844C18.1912 16.2148 18.5662 15.2216 19.1068 14.2849C20.1012 12.5606 21.4728 11.1619 22.9385 9.84555C23.364 9.46356 23.8094 9.10625 24.2373 8.72661C24.4324 8.55384 24.5969 8.52798 24.812 8.70311C25.1082 8.94288 25.4443 9.12623 25.7922 9.28608C26.6326 9.6716 27.0205 10.3521 26.9653 11.2842C26.9171 12.0764 26.6091 12.7886 26.3282 13.5115C26.146 13.9793 26.1519 13.9922 26.662 13.9922C28.6836 13.9934 30.7064 13.991 32.728 13.9957C32.9607 13.9957 33.1982 14.0134 33.4238 14.0639C33.8293 14.1556 34.0444 14.4294 34.062 14.8479C34.0797 15.2757 33.8646 15.5742 33.4591 15.7106C33.2593 15.7776 33.0559 15.7776 32.8503 15.7776C31.7078 15.7776 30.5642 15.7776 29.4217 15.7776H29.4194Z" fill="white"/>
<path id="Vector_4" d="M18.1978 26.8693C17.0259 26.8693 15.8529 26.8881 14.6811 26.8634C13.5281 26.8387 12.596 26.338 11.8838 25.433C11.6522 25.1392 11.4865 24.8018 11.5065 24.4234C11.5288 24.0097 11.3266 23.9415 10.9729 23.945C9.75637 23.9591 8.53987 23.9509 7.32338 23.9485C6.92259 23.9485 6.60054 23.851 6.53707 23.3703C6.47713 22.9236 6.51826 22.8555 6.9837 22.8555C9.32854 22.8531 11.6734 22.859 14.0182 22.8484C14.3532 22.8472 14.5283 22.9507 14.4895 23.2939C14.4413 23.7311 14.6447 23.8322 15.0513 23.8298C17.8945 23.8157 20.7377 23.8228 23.5809 23.8228C23.7419 23.8228 23.9041 23.8157 24.064 23.8345C24.6916 23.9074 24.9655 24.3399 24.7257 24.9253C24.299 25.9643 23.4398 26.4838 22.4079 26.767C22.1117 26.8481 21.8049 26.8716 21.4946 26.8705C20.3957 26.8634 19.2967 26.8681 18.1978 26.8669V26.8693Z" fill="white"/>
<path id="Vector_5" d="M33.1554 4.66458C33.0532 4.66458 32.9497 4.66575 32.8475 4.66458C32.2727 4.65635 32.2492 4.6493 32.2539 4.07455C32.2575 3.75133 32.1493 3.63849 31.8226 3.64202C30.6214 3.65612 29.4202 3.64437 28.2178 3.65025C27.7018 3.6526 27.5513 3.81245 27.549 4.34841C27.5455 5.68126 27.549 7.01529 27.5455 8.34814C27.5443 8.83709 27.4749 8.88763 27.0048 8.78302C24.8751 8.30935 23.4717 6.44289 23.5363 4.1721C23.5974 2.06939 25.1089 0.394513 27.2457 0.0642386C29.5953 -0.298946 31.5393 0.897565 32.2363 3.15425C32.3268 3.44691 32.4667 3.55152 32.764 3.54446C33.1437 3.53506 33.5257 3.55387 33.9041 3.5856C34.2074 3.61028 34.3943 3.80069 34.3931 4.10628C34.3919 4.41188 34.2003 4.58935 33.8983 4.62462C33.6514 4.654 33.4023 4.6634 33.1554 4.68221C33.1554 4.67751 33.1554 4.67163 33.1554 4.66693V4.66458Z" fill="white"/>
<path id="Vector_6" d="M11.0172 22.2104C10.0357 22.2104 9.05431 22.1881 8.07407 22.221C7.61568 22.2363 7.50285 22.0706 7.51225 21.6404C7.53693 20.4544 7.51813 19.2685 7.52165 18.0826C7.52518 17.2034 8.04704 16.6404 8.92973 16.6275C10.3202 16.6063 11.7118 16.6075 13.1022 16.6275C13.8498 16.6392 14.381 17.1352 14.4433 17.8781C14.555 19.2074 14.4751 20.5414 14.4856 21.8731C14.488 22.181 14.294 22.2163 14.046 22.214C13.0352 22.2081 12.0256 22.2116 11.0148 22.2116L11.0172 22.2104Z" fill="white"/>
<path id="Vector_7" d="M37.8186 36.8738C38.7565 36.8738 39.6933 36.8715 40.6312 36.8738C41.213 36.8762 41.2647 36.9596 41.092 37.525C40.6594 38.9401 39.3031 39.9815 37.5906 39.9039C36.1472 39.8381 34.8755 38.8837 34.4583 37.4462C34.3125 36.9444 34.356 36.8785 34.8732 36.8762C35.8546 36.8715 36.836 36.875 37.8174 36.875L37.8186 36.8738Z" fill="white"/>
<path id="Vector_8" d="M14.9867 36.8751C15.9669 36.8751 16.946 36.8704 17.9262 36.8775C18.3952 36.881 18.4504 36.9609 18.3376 37.3934C17.9544 38.8556 16.6533 39.8452 15.1677 39.9052C13.4434 39.9745 12.1094 38.932 11.6851 37.4604C11.5241 36.9033 11.5617 36.8645 12.1341 36.8692C13.0849 36.8763 14.0358 36.8716 14.9855 36.8716C14.9855 36.8727 14.9855 36.8751 14.9855 36.8763L14.9867 36.8751Z" fill="white"/>
<path id="Vector_9" d="M37.473 17.0914C37.0499 17.0749 36.6268 17.1149 36.206 17.0256C35.4514 16.8645 34.9777 16.3039 34.9766 15.5399C34.9766 14.7759 35.4502 14.1765 36.2048 14.0613C37.0452 13.9344 37.8973 13.9356 38.7377 14.0613C39.4535 14.1694 39.9377 14.7818 39.9495 15.5152C39.9612 16.2639 39.4699 16.8657 38.7412 17.0232C38.3204 17.1137 37.8961 17.0738 37.4742 17.0902L37.473 17.0914Z" fill="white"/>
<path id="Vector_10" d="M29.9061 4.55875C30.301 4.55875 30.6971 4.5611 31.0921 4.55875C31.3048 4.5564 31.4341 4.63515 31.4129 4.86669C31.2977 6.09376 30.5737 7.66286 29.0317 8.09539C28.4593 8.25641 28.3993 8.20705 28.3981 7.61232C28.397 6.74843 28.4052 5.88455 28.3946 5.02066C28.3911 4.69274 28.4969 4.53171 28.8518 4.55287C29.2021 4.57403 29.5547 4.55757 29.9061 4.55757V4.55992V4.55875Z" fill="white"/>
<path id="Vector_11" d="M2.48959 16.7484C1.90544 16.7484 1.32129 16.7531 0.737134 16.7473C0.256414 16.7414 -0.00804111 16.5333 0.000186376 16.1843C0.00723851 15.8481 0.258764 15.6507 0.715978 15.6483C1.89956 15.6436 3.08197 15.6436 4.26555 15.6483C4.73334 15.6507 4.96489 15.8352 4.97194 16.1843C4.97899 16.5474 4.73452 16.7414 4.24322 16.7473C3.65907 16.7531 3.07492 16.7484 2.49076 16.7484H2.48959Z" fill="white"/>
<path id="Vector_12" d="M3.04537 18.2822C3.49905 18.2822 3.95392 18.2822 4.4076 18.2822C4.73788 18.2822 4.94827 18.4432 4.96942 18.7711C4.99058 19.0967 4.79547 19.32 4.48047 19.3412C3.53079 19.4058 2.57757 19.4058 1.62789 19.3412C1.31642 19.32 1.10133 19.1132 1.12366 18.7841C1.14717 18.435 1.38459 18.281 1.72662 18.281C2.1662 18.281 2.60578 18.281 3.04537 18.281V18.2822Z" fill="white"/>
<path id="Vector_13" d="M3.5903 21.9413C3.31292 21.9413 3.03436 21.9519 2.75698 21.939C2.47254 21.926 2.29036 21.7673 2.25863 21.4806C2.22454 21.1726 2.37616 20.9599 2.67823 20.9105C3.28706 20.8094 3.90295 20.8235 4.51178 20.8976C4.83148 20.9364 5.00308 21.1644 4.96782 21.4876C4.93491 21.7932 4.7351 21.9448 4.42363 21.9448C4.14625 21.9448 3.86769 21.9448 3.5903 21.9448C3.5903 21.9448 3.5903 21.9425 3.5903 21.9413Z" fill="white"/>
<path id="Vector_14" d="M8.50413 31.3757C8.48885 30.5859 9.24461 30.0758 9.91691 30.3708C10.0556 30.4319 10.1355 30.5142 10.0744 30.6752C9.8934 31.1547 9.71593 31.6343 9.53375 32.1126C9.44089 32.3559 9.26459 32.3512 9.06948 32.2537C8.68749 32.0633 8.54527 31.7248 8.50531 31.3745L8.50413 31.3757Z" fill="white"/>
<path id="Vector_15" d="M18.145 32.7614C17.5891 32.7614 17.0331 32.7438 16.4784 32.7673C16.0881 32.7838 15.9518 32.6251 15.9777 32.2513C15.9976 31.9457 15.9706 31.6366 15.9882 31.331C16.0235 30.7046 16.3726 30.3567 16.992 30.3473C17.7807 30.3343 18.5705 30.332 19.3603 30.3473C20.0232 30.3602 20.3323 30.6975 20.3382 31.371C20.3417 31.693 20.3241 32.0151 20.3417 32.336C20.3606 32.6662 20.2113 32.7732 19.8998 32.765C19.3157 32.752 18.7303 32.7614 18.1462 32.7614H18.145Z" fill="white"/>
</g>
</svg>
