<?xml version="1.0" encoding="UTF-8"?>
<svg id="Layer_1" data-name="Layer 1" xmlns="http://www.w3.org/2000/svg" viewBox="0 0 201 201">
  <defs>
    <style>
      .cls-1 {
        fill: #5c2e63;
        stroke: #5c2e63;
        stroke-miterlimit: 10;
      }
    </style>
  </defs>
  <path class="cls-1" d="M81.77,186.24c-2.15,0-3.87-.02-5.59,0-1.54,.02-2.43-.39-2.36-2.12,.11-2.97,.09-5.94,0-8.91-.05-1.67,.73-2.18,2.36-2.08,1.46,.09,2.93,.02,4.61,.02v-11.45h-10.58c0-3.82,0-7.41,0-11,0-5.76-.08-5.55-5.71-7.58-4.77-1.72-9.38-3.86-13.93-6.07-1.57-.76-2.33-.65-3.49,.5-3.58,3.58-7.29,7.04-10.88,10.48-7.21-6.89-14.24-13.6-21.54-20.56,3.61-3.36,7.4-6.97,11.3-10.46,1.35-1.21,1.43-2.02,.58-3.73-2.8-5.72-5.17-11.62-7.9-17.92H.5v-28.75c1.4,0,2.75,0,4.1,0,4.52,0,9.04-.02,13.56,.03,1.38,.01,2.06-.38,2.63-1.73,2.24-5.25,4.66-10.44,7.2-15.57,.6-1.21,.57-1.84-.41-2.72-4.39-3.99-8.73-8.03-13.01-11.99,7.39-6.96,14.5-13.66,21.78-20.51,4.5,4.38,9.28,9.02,13.62,13.24,6.73-2.35,12.98-4.49,19.16-6.78,.57-.21,1.01-1.41,1.02-2.17,.09-5.03,.05-10.06,.05-15.09,0-.89,0-1.77,0-2.82h30.21c0,4.4-.01,8.75,0,13.09,0,2.14-.72,4.81,.35,6.27,1.04,1.41,3.97,1.54,6.05,2.28,2.19,.78,4.39,1.56,6.53,2.47,2.13,.91,4.18,1.98,6.45,3.07,4.73-4.69,9.51-9.44,14.29-14.18,7.5,7.21,14.5,13.94,21.98,21.13-3.87,3.53-7.81,7.33-12.01,10.86-2.05,1.72-1.95,2.9-.71,5.12,2.46,4.42,4.46,9.1,6.3,13.8,.69,1.76,1.47,2.26,3.3,2.23,5.64-.09,11.29-.03,17.22-.03,.05,1.05,.13,1.92,.13,2.8,0,7.09,.04,14.19-.02,21.28-.01,1.57,.29,2.75,1.62,3.88,3.78,3.22,5.66,7.39,6.26,12.16,.73,5.81,1.69,11.59,2.35,17.41,.21,1.86,1,2.33,2.8,2.25,2.25-.11,4.53-.11,6.77,.06,5.79,.46,10.15,4.7,10.4,9.95,.12,2.53-.91,3.7-3.58,3.83-2.06,.1-4.13,.02-6.11,.02v32.93c1.87,0,3.48,.07,5.09-.02,1.62-.1,2.15,.58,2.12,2.03-.06,2.97-.09,5.94,0,8.91,.05,1.62-.59,2.25-2.28,2.14-1.28-.09-2.57-.02-4.18-.02,0,1.62,.04,2.99,0,4.37-.18,5.82-4.29,9.74-10.39,9.86-2.87,.05-5.74,.05-8.61,0-6.01-.11-10.06-3.98-10.2-9.71-.11-4.47-.11-4.5-4.88-4.5-14.6-.01-29.21,0-43.81,0-.85,0-1.7,.09-2.81,.15,0,1.73,.05,3.28,0,4.83-.19,5.03-4.12,8.96-9.38,9.19-3.38,.15-6.78,.15-10.17,.01-5.19-.21-9.1-3.87-9.51-8.83-.14-1.63-.02-3.28-.02-5.33Zm-45.51-40.99c4.05-3.98,8.03-7.88,12.12-11.9,7.36,4.77,15.22,7.93,23.94,9.72v16.35h8.67v-19.16c-2,0-4.07,.08-6.13-.02-2.68-.12-3.7-1.27-3.6-3.82,.21-5.61,5.25-9.98,11.67-10.07,2.57-.04,5.14,0,7.85,0,.13-1.35,.23-2.36,.33-3.43-27.5,2.56-46.55-16.72-48.36-36.72-1.87-20.76,13.07-39.69,34.73-43.48,10.65-1.86,20.8-.2,30.05,5.26,12.87,7.59,19.43,18.87,20.58,33.12,4.68,0,9.1-.05,13.52,.02,3.45,.05,5.41,1.97,5.57,5.26,.05,.96,0,1.93,0,3.02,7.15,.59,14.21-.96,20.82,2.32v-23.06c-4.69,0-9.19,0-13.68,0-5.39,0-5.14-.09-7.1-4.85-2.29-5.56-5.07-10.94-7.98-17.15,4.22-3.83,8.96-8.14,13.5-12.27-6.19-5.92-12.17-11.63-18.25-17.43-.57,.52-1.2,1.07-1.81,1.64-3.7,3.49-7.35,7.02-11.12,10.44-.57,.52-1.96,.94-2.51,.64-6.44-3.52-13.25-6.12-20.83-7.66V2.56h-26.02V21.11c-6.96,2.88-13.43,5.43-19.76,8.24-1.61,.72-2.46,.81-3.73-.47-4.1-4.12-8.36-8.11-12.21-11.82-6.31,5.93-12.38,11.64-18.69,17.58,4.51,4.13,9.18,8.42,13.35,12.25-3.46,7.44-6.7,14.4-10.18,21.88H2.4c0,7.65,.06,14.98-.04,22.31-.03,1.87,.58,2.41,2.52,2.37,5.38-.11,10.76-.04,16.04-.04,.24,.4,.43,.6,.48,.83,1.5,6.99,3.92,13.65,7.93,19.73,.92,1.4,.57,2.28-.62,3.35-3.78,3.38-7.45,6.86-11.09,10.24,6.29,5.98,12.29,11.68,18.64,17.72Zm87.46-55.73c.81-2.72,1.5-4.96,2.12-7.21,.13-.46,.07-.98,.04-1.47-1.56-24.58-25.48-41.45-50.47-35.61-20.35,4.76-33.81,24.28-30.13,43.69,3.85,20.3,23.29,34.22,44.49,31.77,.7-.08,1.72-1.02,1.85-1.68,.79-4.22,1.54-8.45,1.98-12.71,1.12-10.84,11.03-17.11,20.02-16.8,3.46,.12,6.93,.02,10.1,.02Zm-40.52,83.47h30.33c.05-.87,.12-1.6,.13-2.32,.04-3.38,.04-3.4,3.54-3.4,12.08,0,24.15-.01,36.23,0,4.45,0,4.35-.57,4.33,3.89,0,.56,.11,1.11,.18,1.82h30.55v-12.93c-2.13,0-4.11,.02-6.08,0-2.85-.04-5.47,.04-8.09,1.76-3.21,2.1-8.2,.83-10.57-2.06-2.5-3.05-2.42-7.61,.18-10.53,2.63-2.95,7.54-3.99,10.84-1.67,4.44,3.1,9.11,1.11,13.87,1.75,0-2.01,.01-3.57,0-5.13-.05-5.24-3.22-8.32-8.75-8.32-29.36-.02-58.73,0-88.09,.02-5.51,0-8.73,3.11-8.74,8.31-.02,8.82,0,17.64,0,26.46,0,.73,.07,1.45,.12,2.35Zm88.66-39.33c.06-.41,.14-.65,.11-.88-1.1-8.17-2.02-16.36-3.38-24.49-1.03-6.17-5.46-9.43-12.01-9.43-13.99-.02-27.98-.03-41.97,0-6.34,.02-10.85,3.88-11.67,9.83-.6,4.33-1.25,8.65-1.84,12.98-.54,3.96-1.05,7.92-1.59,11.98h39.08c.71-11.13,5.73-16.55,15.07-16.44,8.54,.11,13.5,5.91,13.94,16.44h4.26Zm-95.92,50.29h119.99c0-2.23-.13-4.29,.04-6.32,.17-2.02-.66-2.49-2.68-2.47-10.94,.08-21.88,.03-32.83,.04-.84,0-1.68,.1-2.72,.16,0,1.46,.21,2.73-.08,3.89-.18,.7-1.13,1.75-1.74,1.75-13.46,.1-26.92,.1-40.38,0-.63,0-1.63-1.02-1.79-1.7-.29-1.22-.08-2.55-.08-4.09-12.34,0-24.31-.02-36.27,.06-.49,0-1.37,.8-1.4,1.26-.14,2.44-.07,4.89-.07,7.43Zm103.76-50.26c-1.27-9.22-2.5-18.11-3.7-27.01-1.18-8.75-8.03-15.03-17.29-15.15-15.28-.2-30.56-.2-45.84,0-9.3,.12-16.05,6.32-17.27,15.14-.78,5.63-1.6,11.26-2.37,16.9-.45,3.31-.84,6.64-1.28,10.09h5.26c.11-.52,.21-.91,.26-1.31,1.21-8.32,2.33-16.65,3.64-24.95,.98-6.18,6.24-10.45,12.83-10.47,14.5-.06,29-.06,43.5,0,6.9,.03,12.32,4.53,13.27,10.98,1.14,7.74,2.22,15.49,3.13,23.26,.25,2.12,1.03,2.95,3.23,2.65,.75-.11,1.53-.08,2.63-.13Zm-63.71,45.25h39.68c0-2.53-.13-4.91,.04-7.27,.14-2-.62-2.51-2.66-2.5-11.56,.08-23.12,.04-34.68,.05-.76,0-1.51,.1-2.37,.16v9.56Zm-32.18,7.41c0,1.39,0,2.45,0,3.51,.02,5.5,3.22,8.53,9.01,8.55,1.65,0,3.29,.04,4.94,0,1.72-.05,3.52,.08,5.15-.33,4.88-1.25,6.94-5.72,5.52-11.72h-24.62Zm105.4,.02h-24.66c0,2-.21,3.9,.05,5.74,.49,3.54,3.77,6.19,7.59,6.28,3.13,.07,6.26,.08,9.38,0,3.78-.1,7.11-2.65,7.59-5.98,.28-1.92,.05-3.92,.05-6.04Zm-36.05-52.57c1.65,0,3.3-.09,4.94,.03,1.69,.12,2.35-.59,2.48-2.08,.26-2.97-.82-5.33-3.44-6.99-2.48-1.56-5.74-1.54-8.09,.02-2.66,1.77-3.77,4.19-3.35,7.27,.18,1.31,.86,1.84,2.25,1.79,1.73-.07,3.47-.02,5.21-.02Zm28.21-5.32c-.08,3.16,.11,5.76,3.96,6.53,1.13,.23,2,1.49,3.07,2.18,.66,.42,1.45,.86,2.21,.92,1.9,.13,3.82-.01,5.72,.07,1.83,.08,2.23-.77,2.01-2.3-.52-3.57-3.93-7.04-7.73-7.34-3-.24-6.04-.05-9.25-.05Zm-91-.11c-2.42,0-4.56-.02-6.71,0-1.04,.01-2.1,.02-3.11,.21-3.63,.67-6.94,4.11-7.17,7.57-.04,.63,.68,1.89,.95,1.86,3.42-.31,7.26,1.58,10.15-1.8,.76-.89,2.11-1.53,3.32-1.83,1.57-.38,2.11-1.21,2.21-2.57,.07-.98,.2-1.96,.36-3.44Zm36.46-39h17.9c.85-5.2-.12-6.3-5.33-6.31-2.51,0-5.02,0-7.54,0-4.9,0-6,1.33-5.03,6.31Zm16.84,44.3c-.55-7.38,2.95-11.87,9.14-12.04,6.45-.17,10.04,4.15,9.86,11.95,1.21,.28,2.33,.66,2.62-1.19,.7-4.41-1.6-9.06-5.86-11.55-4.08-2.38-9.57-2.16-13.48,.55-4.14,2.86-5.93,7.53-4.61,12.28h2.34Zm26.96,27.09c3.52-.06,6.43-2.9,6.41-6.23-.02-3.28-3.06-6.14-6.53-6.15-3.61,0-6.62,2.93-6.51,6.37,.1,3.34,3.11,6.07,6.63,6Zm17.83-2.92v-6.43h-9.54v6.43h9.54Z"/>
  <path class="cls-1" d="M85.36,67.78c8.64,.04,15.58,6.66,15.54,14.82-.03,8.12-7.09,14.77-15.66,14.75-8.55-.02-15.54-6.72-15.51-14.87,.03-8.19,7-14.74,15.63-14.7Zm-.13,27.47c7.61-.08,13.66-5.85,13.52-12.9-.14-6.96-6.37-12.72-13.65-12.63-7.23,.1-13.44,6.15-13.31,13,.13,6.87,6.27,12.6,13.43,12.53Z"/>
  <path class="cls-1" d="M122.92,153.22q.91-4.43,5.89-4.31,2.2,.06,2.82,4.07c3.27,.89,3.36,.76,3.8-2.29,.1-.66,1.13-1.22,1.78-1.77,.15-.12,.5-.02,.76-.02q4.99-.08,5.79,4.21c1.84,.29,3.91,.18,5.38,1.03,.7,.4,.22,2.61,.32,4,.16,2.34-1.66,1.86-3.03,1.89-4.81,.1-4.81,.08-5.31-4.39h-3.36q-.95,4.4-4.17,4.4-3.74,0-4.7-4.48h-3.17c-.97,4.83-1.11,4.85-6.55,4.51-2.34-.15-1.99-1.59-2-2.96q-.04-3.26,5.76-3.88Zm10.61,5.52c.85-.99,1.33-1.55,1.81-2.11-.67-.41-1.35-1.15-2.01-1.13-.65,.02-1.28,.8-1.92,1.25,.55,.52,1.11,1.04,2.12,1.99Zm-13.71-.16c1.35-.73,2.39-1.3,3.43-1.87-.73-.44-1.42-1.15-2.2-1.26-1.87-.25-1.79,.93-1.22,3.13Zm23.86-3.09v2.27h3.61c.46-3.44-1.92-2.09-3.61-2.27Zm-14.91-4.99c-1.23,.54-2.29,1.01-3.35,1.48,.59,.47,1.12,1.24,1.78,1.36,1.69,.32,2.47-.4,1.57-2.84Zm10.72,3.75c.87-1.08,1.32-1.64,1.78-2.21-.61-.38-1.24-1.09-1.82-1.05-.69,.05-1.33,.74-2,1.15,.52,.54,1.04,1.08,2.04,2.11Z"/>
  <path class="cls-1" d="M109.27,154.63c-.02,4.51-3.85,8.11-8.62,8.12-4.8,0-8.59-3.54-8.64-8.1-.05-4.66,3.82-8.31,8.74-8.24,4.81,.07,8.54,3.68,8.52,8.22Zm-2.08-.11c-.09-3.29-3.14-6.15-6.56-6.15-3.59,0-6.65,3.01-6.51,6.39,.13,3.33,3.18,6.08,6.64,6,3.47-.09,6.51-3.04,6.43-6.24Z"/>
  <path class="cls-1" d="M174.65,154.6c-.02,2.16-1.85,3.92-4.11,3.97-2.29,.04-4.31-1.93-4.23-4.12,.08-2.12,2.04-3.88,4.27-3.84,2.28,.04,4.08,1.81,4.06,3.99Zm-1.2,0c-1.41-.93-2.21-1.87-2.9-1.8-.72,.08-1.83,1.11-1.85,1.75-.02,.62,1.08,1.69,1.8,1.78,.69,.09,1.51-.84,2.95-1.73Z"/>
  <path class="cls-1" d="M104.77,154.6c-.04,2.17-1.89,3.98-4.09,4-2.26,.02-4.34-2.01-4.26-4.15,.08-2.1,2.03-3.85,4.29-3.84,2.23,0,4.1,1.84,4.06,3.99Zm-1.25-.11c-1.39-.86-2.29-1.84-2.88-1.69-.8,.2-1.36,1.26-2.03,1.95,.71,.56,1.39,1.53,2.14,1.57,.69,.04,1.44-.9,2.77-1.84Z"/>
</svg>