<?xml version="1.0" encoding="UTF-8"?>
<svg id="Layer_1" data-name="Layer 1" xmlns="http://www.w3.org/2000/svg" viewBox="0 0 72 72">
  <defs>
    <style>
      .cls-1 {
        fill: #5b2c62;
      }
    </style>
  </defs>
  <path class="cls-1" d="M71,40.23H1.44c.08,1,.11,1.99,.24,2.97,.66,4.98,2.43,9.6,5.36,13.81,.28,.4,.28,.7,.05,1.11-2.35,4.3-4.67,8.61-7,12.92-.15,.28-.29,.57-.49,.96,1.61-.26,3.1-.51,4.6-.75,5.42-.88,10.83-1.77,16.25-2.64,.33-.05,.73,.05,1.04,.18,4.81,2.09,9.86,3.09,15.15,3.06,15.73-.08,29.75-10.45,33.38-24.78,.54-2.12,.69-4.32,1.02-6.48,.02-.1-.02-.22-.04-.37Zm-22.44,12.27c-1.5,.02-2.76-1.13-2.77-2.52-.01-1.33,1.26-2.54,2.69-2.56,1.48-.02,2.76,1.17,2.76,2.55,0,1.38-1.2,2.52-2.68,2.53Zm-24.55,0c-1.5,.01-2.72-1.08-2.75-2.46-.03-1.41,1.17-2.6,2.67-2.62,1.5-.02,2.74,1.13,2.74,2.54,0,1.4-1.18,2.53-2.66,2.54Zm12.23,0c-1.48,0-2.71-1.14-2.72-2.51,0-1.4,1.27-2.58,2.76-2.56,1.46,.02,2.68,1.19,2.67,2.56-.01,1.39-1.22,2.52-2.71,2.51Z"/>
  <path class="cls-1" d="M1.24,38.83h7.29c-.2-1.32-.45-2.61-.58-3.92-.17-1.78-.2-1.6,1.54-1.43,3.27,.31,6.46,.96,9.31,2.56,1.26,.71,2.38,1.64,3.57,2.47,.19,.13,.39,.33,.59,.33,1.67,.03,3.35,.02,5.06,.02-1.25-3.97-.3-7.26,3.28-9.67,2.81-1.9,6.55-1.89,9.43-.16,1.74,1.05,2.96,2.48,3.62,4.33,.65,1.82,.55,3.63-.16,5.5,1.76,0,3.44,0,5.11-.01,.16,0,.36-.13,.48-.25,3.03-2.81,6.74-4.25,10.91-4.79,1.18-.15,2.35-.31,3.73-.49-.23,1.92-.44,3.69-.65,5.5h7.24c2.04-9.71-1.17-23.44-13.64-32.18C45.28-1.85,28.74-2.23,16.33,5.67,3.27,13.99-.95,27.97,1.24,38.83Zm9.18-15.85c2.75-7.27,12.07-16.06,25.45-16.18,13.44-.12,23.05,8.54,26,16.18H10.42Z"/>
</svg>