<?xml version="1.0" encoding="UTF-8"?>
<svg id="Layer_1" data-name="Layer 1" xmlns="http://www.w3.org/2000/svg" viewBox="0 0 72 72">
  <defs>
    <style>
      .cls-1 {
        fill: #5b2c62;
      }
    </style>
  </defs>
  <path class="cls-1" d="M60.22,38.15c2.37-7.35,4.88-15.1,7.38-22.85,.29,.1,.58,.2,.87,.31,.96,4.73,2.63,9.43-.25,14.48,3.8,.44,3.84,3.07,3.75,6.03-.14,4.31-.03,8.63-.03,13.31-1.86,0-3.58,.25-5.23-.06-2.52-.48-4.06,.2-4.37,3.38-.07,.74-.27,1.74-.73,2.11-.92,.75-2.22,1.79-3.05,1.5-.84-.3-1.84-2.08-1.79-3.15,.09-2.15,.85-4.27,1.44-6.93-5.03,1-9.81,1.85-14.55,2.9-4.2,.93-8.39,2.29-11.74-2.25-.29,.4-.51,.6-.48,.66,1.83,4.47,.16,7.47-2.72,10.54-3.86,4.1-7.3,8.71-10.92,13.1-.26-.2-.53-.39-.79-.59-1.78-10.25-3.68-20.48-5.27-30.77-.81-5.27,.8-8.95,4.21-11.02,3.84-2.33,7.4-1.59,10.72,1.47,3.16,2.91,6.46,5.63,9.48,8.71,1.82,1.86,3.64,2.07,5.84,1.59,4.25-.91,8.51-1.76,12.79-2.45,1.7-.27,3.46-.04,5.44-.04Z"/>
  <path class="cls-1" d="M12.25,72H3.6c-.96-8.48-1.92-16.91-2.86-25.33-.22-1.98-.61-3.97-.53-5.93,.06-1.44,.53-3.04,1.24-4.23,1.59-2.65,1.46-4.42-.71-6.53-.43-.41-.66-1.33-.67-2.03-.06-3.77-.11-7.54,.01-11.31,.09-2.89,1.94-4.92,4.25-4.72,2.42,.2,3.97,1.75,4.05,4.65,.11,3.77,.23,7.56-.04,11.3-.08,1.14-1.45,2.15-2.49,3.07-.48,2-.83,4.06,1.29,5.61,.83,.61,1.4,2.18,1.56,3.41,1.26,9.97,2.4,19.96,3.55,29.94,.07,.63,0,1.29,0,2.11Z"/>
  <path class="cls-1" d="M19.94,1.5c5.62,.1,9.97,5.3,9.87,11.78-.1,6.66-4.63,11.72-10.36,11.59-5.51-.12-10.02-5.49-9.95-11.83,.08-6.54,4.7-11.65,10.44-11.54Z"/>
  <path class="cls-1" d="M33.51,60.16c-.03,2.55,1.85,2.36,3.74,2.28,1.54-.06,3.13,.34,4.61,.01,7.29-1.62,11.22,3.77,15.43,9.53H22.73c3.61-3.97,7.22-7.92,10.78-11.83Z"/>
  <path class="cls-1" d="M45.7,20.11c-4.57-5.5-4.83-13,.02-20.11,.22,1.66,.71,2.81,.4,3.42-2.42,4.81-2.24,9.39,.37,14.01,.37,.66,.16,1.76,.21,2.66-.33,0-.67,0-1,.01Z"/>
  <path class="cls-1" d="M54.29,18.22c-4.75-4.43-4.94-10.7-.59-16.47,.09,1.87,.47,3.08,.12,3.86-1.55,3.49-1.35,6.7,.42,9.99,.34,.64,.05,1.73,.05,2.61Z"/>
  <path class="cls-1" d="M60.9,4.57c.4,.61,1.08,1.16,1.07,1.7-.05,3.36-.25,6.72-.43,10.62-3.33-4.2-3.45-8.4-.64-12.33Z"/>
  <path class="cls-1" d="M68.76,14.05c-1.48-.61-2.99-.73-3.64-1.65-.55-.78-.54-2.92,.02-3.67,.68-.91,2.19-.99,3.62-1.53v6.85Z"/>
</svg>