<?xml version="1.0" encoding="UTF-8"?>
<svg id="Layer_1" data-name="Layer 1" xmlns="http://www.w3.org/2000/svg" viewBox="0 0 72 150">
  <defs>
    <style>
      .cls-1 {
        fill: #5b2c62;
      }
    </style>
  </defs>
  <path class="cls-1" d="M71.99,74.31c0,20.78,0,41.57,0,62.35,0,2.86-.5,5.51-1.87,7.8-1.89,3.17-4.4,4.84-7.54,4.88-.18,0-.35,0-.53,0-17.46,0-34.92,0-52.39,0-4.9,0-8.65-3.95-9.56-10.09-.1-.69-.11-1.41-.11-2.12C0,95.28,0,53.42,0,11.56,0,4.56,4.12-.64,9.61-.65c17.56,0,35.13,0,52.69,0,5.57,0,9.65,5.19,9.69,12.32,.01,2.32,0,4.65,0,6.97,0,18.56,0,37.11,0,55.67Zm-3.83,45.95c.01-.37,.04-.66,.04-.94,0-35.86,0-71.71,0-107.57,0-4.53-2.42-7.56-5.97-7.56-17.49,0-34.98,.04-52.46-.03-3.46-.01-6.01,3.49-6.01,7.66,.05,35.79,.03,71.58,.03,107.37,0,.34,0,.69,0,1.07H68.16ZM3.85,125.19c-.02,.28-.05,.47-.05,.66,0,3.87,0,7.74,0,11.61,0,.48,.04,.97,.13,1.43,.66,3.48,2.85,5.62,5.75,5.62,17.48,0,34.97-.05,52.45,.04,3.24,.02,6.19-3.07,6.09-7.75-.07-3.55-.02-7.1-.02-10.65,0-.31,0-.62,0-.97H3.85Z"/>
  <path class="cls-1" d="M36.03,79.2c8.06,0,16.12,0,24.18,0,1.62,0,2.3,.87,2.3,2.94,0,9.33,0,18.65,0,27.98,0,2.11-.68,2.97-2.35,2.97-16.12,0-32.25,0-48.37,0-1.65,0-2.35-.89-2.35-2.99,0-9.26,0-18.52,0-27.79,0-2.26,.66-3.11,2.4-3.11,8.06,0,16.12,0,24.18,0Zm-11.36,4.87v24.12H58.66v-24.12H24.67Zm-3.9,24.13v-24.08h-7.49v24.08h7.49Z"/>
  <path class="cls-1" d="M36.02,45.31c-8.09,0-16.17,0-24.26,0-1.61,0-2.31-.89-2.31-2.93,0-6.13,0-12.26,0-18.4,0-1.96,.73-2.88,2.28-2.88,16.17,0,32.35,0,48.52,0,1.56,0,2.26,.89,2.27,2.88,0,6.16,0,12.33,0,18.49,0,1.92-.71,2.82-2.23,2.82-8.09,0-16.17,0-24.26,0Zm-22.76-4.91H58.68v-14.37H13.26v14.37Z"/>
  <path class="cls-1" d="M45.5,50.15c4.93,0,9.86,0,14.78,0,1.51,0,2.23,.91,2.23,2.83,0,6.2,0,12.39,0,18.59,0,1.85-.73,2.78-2.2,2.78-9.91,0-19.81,0-29.72,0-1.45,0-2.19-.95-2.2-2.79,0-6.2,0-12.39,0-18.59,0-1.92,.72-2.82,2.24-2.82,4.95,0,9.91,0,14.86,0Zm13.16,19.34v-14.44h-26.42v14.44h26.42Z"/>
  <path class="cls-1" d="M24.61,62.3c0,3.1,0,6.2,0,9.3,0,1.81-.73,2.75-2.14,2.76-3.64,0-7.28,0-10.92,0-1.35,0-2.1-.98-2.1-2.71,0-6.26,0-12.52,0-18.78,0-1.74,.76-2.7,2.11-2.7,3.66,0,7.33,0,10.99,0,1.3,0,2.05,.97,2.06,2.66,0,3.16,0,6.33,0,9.49Zm-3.82-7.23h-7.51v14.39h7.51v-14.39Z"/>
  <path class="cls-1" d="M36.04,13.85c-2.48,0-4.95,.01-7.43,0-1.34-.01-2.15-1.07-2.07-2.62,.06-1.16,.72-2.05,1.63-2.18,.15-.02,.3-.03,.45-.03,4.9,0,9.8,0,14.7,0,1.15,0,1.85,.65,2.06,1.79,.31,1.66-.56,3.02-2,3.03-2.45,.02-4.9,0-7.35,0Z"/>
  <path class="cls-1" d="M49.26,11.45c0-1.35,.78-2.39,1.83-2.42,1.08-.03,1.94,1.02,1.95,2.38,0,1.34-.88,2.47-1.92,2.45-1.02-.02-1.85-1.1-1.86-2.41Z"/>
  <path class="cls-1" d="M30.31,134.87c0-4.04,2.51-7.25,5.67-7.26,3.15,0,5.69,3.22,5.7,7.24,.01,3.97-2.57,7.28-5.69,7.28-3.14,0-5.68-3.25-5.68-7.27Zm3.79,0c0,1.32,.85,2.41,1.87,2.42,1.01,0,1.89-1.09,1.91-2.39,.02-1.35-.85-2.46-1.92-2.45-1.04,.01-1.86,1.07-1.86,2.41Z"/>
  <path class="cls-1" d="M17.03,132.45c1.24,0,2.47,0,3.71,0,1.14,.01,1.97,.99,1.99,2.34,.03,1.37-.83,2.47-1.98,2.48-2.47,.02-4.94,.02-7.41,0-1.18,0-1.98-1.06-1.97-2.47,.02-1.42,.81-2.35,2.03-2.36,1.21,0,2.42,0,3.63,0Z"/>
  <path class="cls-1" d="M54.92,132.45c1.24,0,2.48-.01,3.71,0,1.16,.01,1.96,.97,1.98,2.35,.03,1.38-.81,2.47-1.98,2.48-2.48,.02-4.95,.02-7.43,0-1.13-.01-1.94-1.06-1.94-2.42,0-1.39,.79-2.39,1.94-2.4,1.24-.02,2.48,0,3.71,0Z"/>
  <path class="cls-1" d="M45.46,35.62c-2.45,0-4.9,0-7.34,0-1.26,0-2.11-.96-2.13-2.37-.02-1.46,.84-2.46,2.13-2.47,4.9,0,9.79,0,14.69,0,1.29,0,2.15,1.01,2.13,2.48-.02,1.41-.87,2.36-2.13,2.36-2.45,0-4.9,0-7.34,0Z"/>
</svg>