<?xml version="1.0" encoding="UTF-8"?>
<svg id="Layer_1" data-name="Layer 1" xmlns="http://www.w3.org/2000/svg" viewBox="0 0 72 72">
  <defs>
    <style>
      .cls-1 {
        fill: #5b2c62;
      }
    </style>
  </defs>
  <path class="cls-1" d="M72,52.2c-.09,11-9.67,19.86-21.4,19.8-11.95-.07-21.47-9.11-21.34-20.28,.13-10.87,9.81-19.64,21.65-19.59,11.68,.05,21.18,9.08,21.09,20.07Zm-21.35-16.6c-7.14,0-13.63,4-16.29,10.2-.48,1.12-.4,2.45-.57,3.69,1.32-.21,2.77-.15,3.93-.66,4.01-1.79,8.2-2.6,12.62-2.64,4.79-.05,9.32,.85,13.65,2.79,1.03,.46,2.36,.37,3.55,.53-.12-1.12,0-2.32-.41-3.34-2.59-6.38-9.2-10.57-16.47-10.56Zm-11.51,19.28c-1.64,.14-2.93,.12-4.14,.4-.52,.12-1.25,.9-1.22,1.34,.21,3.62,6.53,10.03,10.43,10.71,1.31,.23,1.96-.16,1.81-1.57-.43-4.04-2.75-7.18-5.42-10.16-.39-.44-1.17-.58-1.47-.72Zm16.19,11.19c-.02,1.27,.74,1.7,2.28,1.08,4.9-1.97,8.16-5.38,9.84-10.07,.16-.45-.13-1.51-.27-1.52-2.09-.14-4.99-.98-6.15-.02-3.23,2.68-5.55,6.2-5.7,10.53Z"/>
  <path class="cls-1" d="M35.3,34.96c-3.55,3.03-6.03,6.36-7.45,10.37-.14,.4-1.02,.83-1.56,.83-7.86,.05-15.73,.03-23.59,.04-1.84,0-2.68-.81-2.69-2.52-.04-5.38,1.32-7.35,6.64-9.46,2.06-.82,4.14-1.6,6.19-2.46,1.97-.83,2.38-1.76,1.54-3.57-.68-1.47-1.53-2.88-2.22-4.35-.3-.64-.56-1.37-.58-2.06-.05-2.19-.1-4.39,.06-6.58,.26-3.52,4.22-6.87,7.89-6.82,4.79,.08,8.83,3.28,9,7.17,.09,1.94,.2,3.88,.16,5.82-.02,.82-.31,1.68-.66,2.44-.67,1.48-1.45,2.91-2.21,4.35-.91,1.73-.29,2.88,1.52,3.6,2.57,1.03,5.14,2.05,7.97,3.18Z"/>
  <path class="cls-1" d="M27.94,29.51c1.67-1.15,2.88-2.23,4.31-2.91,2.37-1.12,4.89-1.96,7.34-2.95,2.48-.99,2.88-1.81,1.88-4.08-.6-1.36-1.43-2.63-2.03-3.98-.37-.83-.66-1.75-.69-2.64-.06-1.81,.1-3.62,.13-5.43C38.95,3.76,42.7,.04,46.5,0c4.92-.05,9.25,3.46,9.31,7.57,.03,1.87,.14,3.74,.02,5.6-.06,.94-.47,1.88-.86,2.77-.71,1.6-1.67,3.12-2.25,4.76-.46,1.33,.48,2.21,1.78,2.72,2.2,.86,4.4,1.73,6.59,2.59,5.12,2.01,6.63,4.41,6.14,9.97-3.26-2.69-6.84-4.63-11.02-5.54-5.93-1.29-11.6-.61-16.92,2.1-1.27,.65-2.22,.66-3.48,.1-2.39-1.06-4.87-1.96-7.88-3.15Z"/>
</svg>