<?xml version="1.0" encoding="UTF-8"?>
<svg id="Layer_1" data-name="Layer 1" xmlns="http://www.w3.org/2000/svg" viewBox="0 0 72 72">
  <defs>
    <style>
      .cls-1 {
        fill: #5b2c62;
        stroke: #5b2c62;
        stroke-miterlimit: 10;
      }
    </style>
  </defs>
  <path class="cls-1" d="M72,30.08v1.35c-1.18,3.12-3.49,3.82-6.32,3.32,.25,1.04,.76,1.54,1.19,2.06,1.82,2.18,2.49,4.69,2.44,7.68-.12,7.8-.08,15.61-.01,23.41,.01,1.69-.3,3.07-1.55,4.09h-5.77c-1.24-.96-1.68-2.28-1.54-3.93,.08-.89-.07-1.81,.03-2.7,.19-1.6-.41-1.95-1.76-1.94-14.58,.05-29.16,.03-43.75,.03-3.41,0-3.45,0-3.4,3.77,.03,1.84,.03,3.6-1.54,4.77H4.25c-1.26-1.01-1.56-2.4-1.55-4.09,.06-8.2,.05-16.4,.01-24.59,0-2.13,.56-3.93,1.76-5.58,.64-.87,1.47-1.64,1.85-3.02-2.92,.57-5.15-.21-6.33-3.28v-1.69c.85-1.2,1.4-2.68,2.96-3.13,2.53-.73,4.38,.08,6.11,2.96,1.02-3.11,2.01-6.17,3.04-9.21,.88-2.6,2.47-3.82,4.96-3.85,1.82-.03,3.64-.04,5.46,0,.87,.02,1.06-.23,.97-1.26-.36-4.39,.89-8.16,3.69-11.32,1.83-2.07,4.16-3.02,6.53-3.94,1.42,0,2.84,0,4.25,0,.11,.1,.2,.26,.33,.3,6.97,2.25,10.11,7.11,9.81,15.3-.03,.88,.33,.91,.88,.91,1.77,0,3.54,0,5.3,0,3.33,0,4.69,1.08,5.86,4.61,.92,2.8,1.85,5.6,2.85,8.67,.84-2.35,2.24-3.29,4.2-3.39,2.47-.12,3.94,1.26,4.79,3.69Zm-45.03,4.75c-4.1,0-8.22,.31-12.29-.09-3.74-.36-6.35,.83-8.22,4.47-.69,1.35-1.33,2.56-1.31,4.18,.06,4.56,.02,9.12,.02,13.69,0,2.62,.95,3.68,3.31,3.7,2.99,.02,5.97,.01,8.96,0,2.28,0,1.98,.19,1.99-2.12,.02-2.73,.79-3.59,3.29-3.6,5.06,0,10.12,0,15.19,0,3.95,0,7.9-.01,11.84,0,1.73,.01,2.67,.91,2.81,2.59,.05,.62,.06,1.24,0,1.86-.08,.94,.23,1.3,1.1,1.29,3.39-.04,6.78,.02,10.17-.03,1.97-.03,2.98-1.19,2.99-3.37,.02-3.38,.03-6.76,0-10.14-.07-7.44,.74-4.97-3.59-11.22-.61-.88-1.24-1.32-2.28-1.24-1.41,.11-2.83,.02-4.25,.02-.83,0-1.4-.41-1.39-1.38,0-.9,.61-1.26,1.33-1.29,1.11-.05,2.23-.05,3.34-.01,.87,.03,1.18-.15,.81-1.23-1.1-3.2-2.09-6.45-3.16-9.66-.47-1.42-1.42-2.12-2.8-2.1-2.13,.02-4.25,.05-6.38-.02-.9-.03-1.31,.39-1.72,1.23-2.35,4.74-6.07,7.26-10.87,7.28-4.81,.02-8.55-2.49-10.9-7.23-.5-1.01-1.04-1.33-2.01-1.29-1.72,.07-3.44,.02-5.16,.02-2.37,0-2.91,.42-3.7,2.84-.9,2.75-1.79,5.49-2.69,8.24q-.62,1.89,1.15,1.89c10.07,0,20.15,0,30.22,0,.95,0,2.01,0,2.01,1.39,0,1.46-1.12,1.31-2.03,1.31-5.26,0-10.53,0-15.79,0ZM46.6,13.6c-.17-6.64-5.04-11.95-10.86-11.84-6.03,.11-10.82,5.68-10.66,12.39,.16,6.62,5.05,11.85,10.92,11.69,6.03-.17,10.76-5.63,10.59-12.24Zm-10.47,44.15c-4.3,0-8.6,.03-12.9-.02-1.01-.01-1.42,.25-1.42,1.48,0,1.26,.32,1.62,1.46,1.62,8.5-.05,17-.04,25.5,0,1.02,0,1.41-.26,1.42-1.48,.01-1.26-.33-1.63-1.46-1.61-4.2,.07-8.4,.03-12.6,.03Zm-30.85,5.11c-.04,.19-.1,.35-.11,.51,0,1.51,.05,3.03-.03,4.54-.06,1.12,.31,1.42,1.28,1.41,2.7,0,2.7,.04,2.7-3.02,0-.11-.01-.23,0-.34,.2-1.65-.05-2.81-1.94-2.64-.61,.06-1.26-.3-1.9-.47Zm61.55,0c-.94,.21-1.77,.56-2.6,.54-1.18-.03-1.52,.5-1.38,1.69,.05,.39,0,.78,0,1.18,0,3.24,0,3.21,2.98,3.04,.67-.04,1.02-.19,1-1.04-.04-1.79-.01-3.58-.01-5.41ZM4.57,32.12c.99,.13,2.02-.07,1.99-1.5-.02-1.23-.94-1.55-1.97-1.54-1.02,0-1.92,.23-1.97,1.52-.05,1.34,.84,1.63,1.95,1.51Zm62.96,0c.98,.12,1.88-.15,1.84-1.5-.03-1.3-.95-1.52-1.95-1.54-1.03-.02-1.94,.29-1.98,1.52-.04,1.44,.99,1.62,2.09,1.51Z"/>
  <path class="cls-1" d="M36.07,42.21c4.35,0,8.7-.01,13.06,0,2.52,.01,3.44,1.36,2.85,4.11-.14,.66-.26,1.32-.43,1.97-.38,1.48-1.25,2.29-2.65,2.29-8.6,0-17.21,.01-25.81,0-1.47,0-2.28-.91-2.71-2.44-1.31-4.77-.39-6.16,3.99-5.97,3.89,.17,7.79,.04,11.69,.04Zm0,2.67c-4.2,0-8.4-.01-12.59,.02-.41,0-1.09-.4-1.2,.51-.17,1.45,.7,2.52,2.04,2.52,7.44,0,14.87,0,22.31,0,.56,0,1.11,0,1.67,0,1.51-.02,1.21-1.49,1.35-2.37,.2-1.22-.85-.64-1.28-.65-4.1-.06-8.19-.04-12.29-.04Z"/>
  <path class="cls-1" d="M59.61,50.55c-2.42-.08-4.4-2.39-4.31-5.05,.09-2.68,2.17-4.82,4.6-4.71,2.45,.11,4.31,2.37,4.21,5.12-.09,2.62-2.13,4.72-4.49,4.65Zm-1.88-4.86c.02,1.19,1.01,2.25,2.06,2.2,1.08-.05,1.97-1.13,1.89-2.36-.08-1.34-.83-2.01-1.96-2.1-1.08-.08-2.01,1.06-1.99,2.26Z"/>
  <path class="cls-1" d="M12.22,40.78c2.42-.04,4.45,2.16,4.48,4.85,.03,2.65-2.03,4.94-4.43,4.92-2.39-.02-4.33-2.15-4.37-4.79-.05-2.74,1.87-4.95,4.33-4.98Zm-1.9,4.9c.01,1.23,.95,2.26,2.03,2.22,1.05-.04,2.01-1.18,1.93-2.35-.09-1.33-.86-2-1.97-2.12-1.05-.11-1.99,1.04-1.98,2.25Z"/>
  <path class="cls-1" d="M61.55,54.91c.02,1.5-1.14,2.81-2.47,2.82-1.3,0-2.5-1.36-2.48-2.82,.02-1.41,1.14-2.67,2.41-2.72,1.32-.06,2.53,1.24,2.55,2.73Z"/>
  <path class="cls-1" d="M15.39,55.11c-.09,1.44-1.28,2.66-2.54,2.61-1.35-.05-2.47-1.43-2.38-2.94,.09-1.47,1.24-2.66,2.53-2.61,1.35,.05,2.49,1.45,2.4,2.93Z"/>
  <path class="cls-1" d="M49.99,34.83c-.35,0-.7,0-1.05,0-.76-.02-1.25-.42-1.26-1.31-.02-.91,.52-1.3,1.24-1.36,.7-.06,1.4-.02,2.1-.02,.87,0,1.53,.4,1.5,1.44-.03,.95-.67,1.28-1.48,1.26-.35-.01-.7,0-1.05,0Z"/>
  <path class="cls-1" d="M35.85,15.2c-.24,.22-.43,.38-.61,.57-.4,.43-.73,.96-1.19,1.29-.7,.52-1.19,2.32-2.21,1.18-.92-1.02,.59-1.6,1.05-2.35,.31-.5,.74-.92,1.17-1.32,.56-.52,.54-.94,0-1.49-.75-.75-1.43-1.58-2.14-2.38-.36-.41-.49-.88-.09-1.32,.4-.44,.83-.31,1.2,.09,.72,.78,1.46,1.55,2.14,2.38,.49,.6,.84,.62,1.33,0,.64-.8,1.34-1.52,2.02-2.27,.39-.43,.84-.73,1.32-.23,.49,.51,.23,1.02-.16,1.45-.35,.4-.71,.79-1.07,1.19q-1.65,1.84,.05,3.74c.39,.44,.79,.87,1.16,1.33,.31,.37,.39,.81,.07,1.21-.38,.46-.81,.4-1.19-.01-.72-.78-1.43-1.58-2.15-2.37-.21-.23-.44-.43-.71-.7Z"/>
</svg>