<?xml version="1.0" encoding="UTF-8"?>
<svg id="Layer_1" data-name="Layer 1" xmlns="http://www.w3.org/2000/svg" viewBox="0 0 200 250">
  <defs>
    <style>
      .cls-1 {
        fill: #5c2e63;
      }
    </style>
  </defs>
  <path class="cls-1" d="M24.61,250c-3.35-1.12-6.96-1.81-10.01-3.45C4.85,241.32,.02,233.13,0,222.48c-.03-24.41,.01-48.82,.04-73.23,.04-35.4,.09-70.79,.12-106.19,.01-11.83,5.19-20.82,16.59-25.83,3.67-1.61,8.02-2.06,12.12-2.49,3.95-.41,7.98-.09,12.1-.09,.07-1.27,.07-2.31,.18-3.34C41.88,4.68,47.19,.03,54.26,.02c30.51-.03,61.01-.03,91.52,0,7.71,0,13.04,5.03,13.25,12.34,.02,.64,0,1.28,0,2.29,2,0,3.84-.08,5.68,.02,4.67,.24,9.48,0,13.99,.96,12.36,2.65,20.99,13.18,21.24,25.27,.12,5.78,.03,11.55,.03,17.33-.05,54.44-.11,108.87-.17,163.31-.01,12.15-5.52,21.08-17.2,26.26-2.28,1.01-4.82,1.48-7.24,2.2H24.61ZM40.73,29.3c-3.46,0-7.03,0-10.61,0-9.47,0-14.58,4.84-14.59,13.84-.06,59.65-.12,119.29-.16,178.94,0,8.23,5.26,13.26,13.85,13.27,47.09,0,94.17,0,141.26,0,1.19,0,2.41-.03,3.56-.26,6.62-1.32,10.37-6.19,10.38-13.46,.06-57.86,.11-115.71,.16-173.57,0-2.36,.06-4.72-.02-7.08-.19-5.1-3.74-10.1-8.93-10.96-5.37-.89-10.94-.67-16.37-.93-.14,.84-.2,1.07-.21,1.31-.39,9.24-5.11,13.56-14.83,13.56-13.84,0-27.69,0-41.53,0-16.07,0-32.13,.01-48.2,0-6.03,0-10.86-3.12-12.58-8.25-.64-1.91-.75-3.97-1.18-6.39Zm15.83-.14h86.9V14.85H56.57v14.32Z"/>
  <path class="cls-1" d="M130.26,180.67c8.79,0,17.58-.01,26.37,0,5.03,0,8.45,2.94,8.5,7.23,.05,4.39-3.4,7.41-8.57,7.41-17.66,.01-35.33,.01-52.99,0-5.13,0-8.69-3.05-8.66-7.36,.02-4.3,3.57-7.28,8.73-7.28,8.87-.01,17.75,0,26.62,0Z"/>
  <path class="cls-1" d="M129.91,97.66c-8.79,0-17.59,.01-26.38,0-5.12,0-8.68-3.08-8.63-7.39,.05-4.22,3.56-7.24,8.52-7.25,17.67-.01,35.34-.01,53.02,0,4.95,0,8.47,3.04,8.51,7.26,.04,4.29-3.55,7.36-8.66,7.37-8.79,.02-17.59,0-26.38,0Z"/>
  <path class="cls-1" d="M129.83,146.49c-8.71,0-17.42,0-26.12,0-5.2,0-8.74-2.92-8.81-7.23-.07-4.38,3.53-7.41,8.86-7.42,17.59,0,35.17-.02,52.76,0,5.89,0,9.66,4.51,8.04,9.49-1.03,3.16-3.96,5.13-7.83,5.14-8.96,.03-17.93,0-26.89,0Z"/>
  <path class="cls-1" d="M51.76,140.24c6.14-5.86,11.7-11.24,17.37-16.52,1.12-1.05,2.52-2.02,3.98-2.52,3.18-1.08,6.72,.23,8.55,2.84,1.94,2.77,1.94,6.38-.55,8.81-7.87,7.68-15.84,15.28-23.91,22.76-2.88,2.67-7.04,2.66-10.01,.07-3.65-3.18-7.18-6.51-10.51-9.99-2.76-2.89-2.37-7.29,.51-9.93,2.8-2.56,7.26-2.79,10.26-.28,1.58,1.32,2.79,3.04,4.32,4.75Z"/>
  <path class="cls-1" d="M52.26,189.29c1.46-1.68,2.5-3.08,3.75-4.29,4.61-4.46,9.23-8.92,13.96-13.27,3.15-2.89,7.9-2.73,10.82,.14,2.88,2.83,3.04,7.2,.02,10.13-7.71,7.49-15.5,14.91-23.38,22.24-3.13,2.92-7.39,2.88-10.62,.02-3.43-3.05-6.77-6.21-9.96-9.49-2.9-2.98-2.67-7.39,.26-10.13,2.92-2.73,7.5-2.81,10.65-.07,1.44,1.26,2.64,2.76,4.48,4.71Z"/>
  <path class="cls-1" d="M52.12,88.02c1.76-1.97,2.94-3.46,4.31-4.79,4.49-4.35,8.99-8.69,13.6-12.92,3.04-2.79,7.74-2.67,10.65,.04,2.95,2.74,3.23,7.22,.26,10.12-7.76,7.56-15.61,15.04-23.54,22.43-3.12,2.91-7.42,2.83-10.61-.04-3.35-3.01-6.61-6.13-9.79-9.31-2.94-2.94-2.87-7.31-.02-10.14,2.92-2.9,7.59-3.04,10.82-.17,1.42,1.26,2.56,2.81,4.32,4.78Z"/>
</svg>