<?xml version="1.0" encoding="UTF-8"?>
<svg id="Layer_1" data-name="Layer 1" xmlns="http://www.w3.org/2000/svg" viewBox="0 0 200 200">
  <defs>
    <style>
      .cls-1 {
        fill: #5c2e63;
      }
    </style>
  </defs>
  <path class="cls-1" d="M0,32.68c1.21-3.29,3.6-4.53,6.89-4.97,11.54-1.55,23.06-3.32,34.58-5.03,4.23-.63,7.22,1.96,7.38,6.42,.45,12.75,.9,25.5,1.36,38.24,.14,3.99-2.2,6.93-5.67,7.06-3.52,.14-6.1-2.55-6.24-6.52-.27-7.42-.52-14.84-.78-22.26-.02-.45-.05-.89-.09-1.77-.69,.84-1.16,1.36-1.57,1.92-13.31,18.21-18.96,38.75-17.19,61.49,3.38,43.22,38.35,74.45,72.13,79.39,30.74,4.49,55.99-6.5,76.44-30.1,11.35-13.1,18.12-28.53,20.21-46.04,2.27-18.97-1.55-36.77-10.19-53.51-9.34-18.09-22.68-31.79-41.3-39.46-11.27-4.65-22.97-6.22-35.03-5-3.93,.4-6.87-1.76-7.21-5.31-.37-3.88,2.06-6.68,6.17-6.96,39.97-2.73,68.72,15.46,87.9,51.07,6.82,12.67,10.81,26.39,11.87,40.94,.04,.53,.21,1.04,.33,1.56v12.56c-.45,3.4-.81,6.81-1.38,10.18-3.44,20.35-12.27,37.88-26.31,52.45-23.86,24.76-52.43,35.32-86.01,29.32C48.32,191.56,11.48,156.65,6.97,110.22c-2.56-26.38,3.8-50.24,19.08-71.52,.24-.34,.44-.72,.79-1.3-1.1,.12-1.94,.19-2.77,.31-5.28,.76-10.55,1.57-15.84,2.29-4.68,.64-6.16-.2-8.23-4.48v-2.84Z"/>
  <path class="cls-1" d="M132.72,91.51c1.78,0,3.32-.02,4.87,0,1.73,.02,2.65,.91,2.64,2.75,0,15.52,0,31.05-.01,46.57,0,2.02-.78,2.81-2.75,2.81-22.26,.01-44.52,.01-66.78,0-1.94,0-2.7-.82-2.71-2.85-.02-15.46-.02-30.91,0-46.37,0-2.11,.77-2.87,2.88-2.91,1.94-.04,3.88,0,6.06,0,0-4.69-.14-9.2,.05-13.69,.13-3.07,.35-6.23,1.15-9.17,3.74-13.62,16.1-21.96,30.08-20.56,12.54,1.26,23.03,12.41,24.31,25.89,.16,1.67,.19,3.37,.21,5.05,.03,4.05,0,8.09,0,12.49Zm-10.86-.09c0-4.95,.02-9.73,0-14.51-.06-10.04-7.49-17.89-16.94-17.94-9.51-.05-16.96,7.6-17.15,17.67-.08,4.45-.02,8.91-.01,13.36,0,.45,.1,.89,.16,1.41h33.95Zm-13.55,42.51c-1.14-5.53-2.24-10.89-3.33-16.19,3.81-1.79,5.49-4.41,5-7.54-.49-3.12-2.76-5.39-5.73-5.74-2.77-.33-5.6,1.52-6.6,4.32-1.18,3.3-.04,5.91,3.97,8.91-.87,5.35-1.75,10.75-2.64,16.24h9.32Z"/>
</svg>