<?xml version="1.0" encoding="UTF-8"?>
<svg id="Layer_1" data-name="Layer 1" xmlns="http://www.w3.org/2000/svg" viewBox="0 0 200 250">
  <defs>
    <style>
      .cls-1 {
        fill: #5c2e63;
      }
    </style>
  </defs>
  <path class="cls-1" d="M.06,250c-.02-10.81-.08-21.62-.04-32.43,.01-3.14,1.87-4.99,5.08-5.24,1.92-.15,3.86-.04,5.79-.11,1.94-.07,3.33,.67,4.46,2.21,2.48,3.37,5.08,6.66,7.64,9.99,2.49-2.38,2.67-3.32,1.23-6.06-.68-1.3-1.39-2.59-2.03-3.91-.64-1.3-.09-2.12,1.31-2.19,2.26-.1,4.54-.11,6.8,0,1.41,.07,1.9,.92,1.26,2.21-.54,1.1-1.12,2.18-1.7,3.26q-1.74,3.31,.75,6.95c2.58-3.27,5.2-6.38,7.57-9.67,1.51-2.09,3.33-2.86,5.94-2.84,8.88,.07,9.69,.77,9.64,9.29-.05,9.51-.13,19.01-.2,28.52H.06Z"/>
  <path class="cls-1" d="M29.33,0c5.12,1.34,9.44,3.71,12.04,8.45,3.26,5.96,2.38,13.04-2.32,18.13-4.56,4.94-12.05,6.58-18.44,4.03-6.25-2.49-10.31-8.66-10.05-15.25,.28-6.89,4.77-12.53,11.63-14.62C22.9,.53,23.58,.25,24.28,0c1.68,0,3.36,0,5.05,0Z"/>
  <path class="cls-1" d="M23.07,134c2.81-2.56,2.01-4.84,.55-7.4-2.76-4.83-2.59-4.99,3.03-4.99,6.15,0,6.33,.1,3.3,5.22-1.62,2.73-1.6,4.9,.69,7.3,2.58-3.28,5.23-6.5,7.7-9.84,1.41-1.9,3.11-2.85,5.53-2.68,1.34,.1,2.69-.05,4.03,.04,3.88,.24,5.79,2.12,5.84,5.9,.07,5.04,.02,10.08,.02,15.12,0,4.72,0,9.43,0,14.15,0,.79,0,1.59,0,2.53H.22c-.06-.66-.17-1.28-.17-1.9C.02,147.62,0,137.78,0,127.94c0-4.3,1.98-5.95,6.44-6.37,5.01-.46,8.75,.79,11.27,5.31,1.41,2.53,3.52,4.7,5.37,7.11Z"/>
  <path class="cls-1" d="M23.16,47.94c1.85-2.23,2.45-4.07,.92-6.69-3.3-5.62-3.12-5.72,3.4-5.72,5.17,0,5.23,.11,2.86,4.62q-2.21,4.2,.26,7.87c2.53-3.21,5-6.32,7.46-9.44,2.49-3.15,10-4.37,13.36-1.98,.98,.7,2.07,2.04,2.08,3.1,.15,11.11,.09,22.22,.09,33.46H.19c-.05-.72-.14-1.42-.14-2.12,0-9.68-.01-19.36,0-29.03,0-4.57,1.87-6.08,6.49-6.52,5.07-.48,8.71,.87,11.23,5.33,1.42,2.52,3.51,4.68,5.39,7.13Z"/>
  <path class="cls-1" d="M137.04,54.72c18.41,0,36.82,0,55.23,0,4.35,0,7.35,2.35,7.63,5.87,.27,3.37-1.93,6.26-5.35,6.94-.98,.19-2,.22-3.01,.22-36.32,.01-72.63,0-108.95,.03-2.54,0-4.9-.33-6.68-2.22-1.71-1.82-2.27-4.02-1.41-6.35,.91-2.48,2.82-4,5.54-4.41,.91-.14,1.85-.08,2.77-.08,18.07,0,36.15,0,54.22,0Z"/>
  <path class="cls-1" d="M137.01,153.84c-18.49,0-36.98,.01-55.48,0-4.56,0-7.54-2.83-7.34-6.85,.14-2.86,2.5-5.47,5.42-5.9,.99-.15,2.01-.15,3.02-.15,36.31,0,72.62,0,108.93-.02,2.52,0,4.9,.22,6.66,2.19,1.73,1.94,2.3,4.2,1.25,6.58-1.14,2.6-3.21,4.14-6.24,4.15-7.23,.03-14.46,.02-21.69,.02-11.52,0-23.03,0-34.55,0Z"/>
  <path class="cls-1" d="M137.32,30.22c18.41,0,36.81-.01,55.22,0,4.6,0,7.56,2.79,7.37,6.81-.14,3.05-2.72,5.69-5.89,5.99-.75,.07-1.51,.07-2.27,.07-36.48,0-72.95-.01-109.43,.03-2.95,0-5.48-.53-7.15-3.15-2.54-3.97,.1-9.27,4.91-9.7,1.5-.13,3.02-.06,4.54-.06,17.57,0,35.13,0,52.7,0Z"/>
  <path class="cls-1" d="M135.01,183.13c17.81,0,35.62-.01,53.44,.02,1.32,0,2.73,.12,3.93,.58,2.75,1.06,4.35,4.04,3.87,6.72-.47,2.69-2.96,4.94-5.86,5.27-.66,.07-1.34,.05-2.01,.05-35.46,0-70.91,0-106.37,0-4.65,0-7.61-2.24-7.81-5.87-.22-3.84,2.64-6.72,6.87-6.76,5.63-.06,11.26-.02,16.89-.02,12.35,0,24.7,0,37.05,0Z"/>
  <path class="cls-1" d="M127.91,207.04c15.47,0,30.94,.02,46.42-.02,2.33,0,4.34,.54,5.86,2.27,3.14,3.56,1.42,8.85-3.26,10.11-.64,.17-1.32,.27-1.99,.27-31.28,.01-62.56,.02-93.84,0-3.84,0-6.67-2.48-6.9-5.77-.27-3.84,2.6-6.79,6.79-6.83,6.39-.06,12.78-.02,19.17-.02,9.25,0,18.5,0,27.75,0Z"/>
  <path class="cls-1" d="M122.7,18.55c-13.79,0-27.57,0-41.36,0-3.09,0-5.36-1.31-6.62-4-1.11-2.36-.85-4.84,1.12-6.53,1.39-1.2,3.4-2.01,5.26-2.36,2.1-.4,4.35-.11,6.54-.11,24.97,0,49.93-.03,74.9,.05,1.85,0,3.87,.41,5.5,1.21,2.52,1.25,3.56,4.19,2.93,6.69-.65,2.55-3.18,4.71-5.9,4.98-.83,.08-1.68,.05-2.52,.05-13.28,0-26.56,0-39.85,0Z"/>
  <path class="cls-1" d="M122.85,91.76c13.78,0,27.57,0,41.35,0,3.03,0,5.12,1.46,6.35,4.01,1.14,2.38,.69,4.74-1.15,6.55-1.05,1.03-2.63,1.6-4.05,2.21-.65,.27-1.49,.15-2.25,.15-26.98,0-53.95,0-80.93,.02-2.46,0-4.69-.39-6.36-2.29-1.72-1.97-2.21-4.23-1.12-6.59,1.19-2.58,3.28-4.05,6.31-4.05,8.99,0,17.98,0,26.98,0,4.96,0,9.92,0,14.88,0Z"/>
  <path class="cls-1" d="M110.8,129.34c-9.75,0-19.49,.02-29.24-.01-4.11-.02-7.12-2.49-7.36-5.91-.26-3.73,2.44-6.79,6.38-7.07,2.01-.14,4.03-.05,6.05-.05,17.73,0,35.46,.02,53.19-.02,2.48,0,4.71,.46,6.35,2.34,1.69,1.93,2.31,4.18,1.18,6.58-1.31,2.78-3.63,4.15-6.81,4.15-8.99,0-17.98,0-26.97,0-.92,0-1.85,0-2.77,0Z"/>
  <path class="cls-1" d="M10.52,192.63c-.01-8.74,7.27-15.85,16.29-15.9,9.08-.05,16.66,7.26,16.56,15.96-.1,8.68-7.56,15.83-16.5,15.8-8.99-.03-16.33-7.16-16.35-15.87Z"/>
  <path class="cls-1" d="M27.77,86.27c9.2,.68,16.3,8.26,15.55,16.58-.81,8.88-8.38,15.66-16.89,15.13-9.95-.63-16.59-8.1-15.78-17.77,.67-8.02,8.71-14.56,17.12-13.94Z"/>
  <path class="cls-1" d="M102.3,230.93c6.89,0,13.77-.01,20.66,0,4.3,.01,7.21,2.48,7.29,6.12,.08,3.73-2.88,6.46-7.24,6.47-13.86,.04-27.72,.04-41.57,0-4.4-.01-7.3-2.65-7.26-6.42,.04-3.76,2.93-6.16,7.46-6.17,6.89-.01,13.77,0,20.66,0Z"/>
</svg>