<?xml version="1.0" encoding="UTF-8"?>
<svg id="Layer_1" data-name="Layer 1" xmlns="http://www.w3.org/2000/svg" viewBox="0 0 200 230">
  <defs>
    <style>
      .cls-1 {
        fill: #5c2e63;
      }
    </style>
  </defs>
  <path class="cls-1" d="M117.27,0c1.41,2.28,3.82,4.46,4.06,6.84,.74,7.36,.73,14.79,.85,22.19,.07,4.46-2.3,7.14-6.05,6.9-4.14-.27-5.75-2.84-5.86-6.7-.19-6.93-.34-13.87-.83-20.79-.26-3.68,.93-6.39,3.95-8.45h3.88Z"/>
  <path class="cls-1" d="M57.97,110.18c14.79-14.36,28.86-28.01,42.92-41.67,4.53-4.41,9.48-8.05,16.05-9.02,15.4-2.28,27.06,10.77,21.88,25.11-1.65,4.57-4.96,8.77-8.24,12.54-4.04,4.65-8.83,8.67-13.54,13.2,7.77,6.45,12.37,13.56,6.93,23.45,8.17,6.79,13.85,14.26,6.63,25.03,1.17,1.24,2.21,2.39,3.3,3.5,6.73,6.78,7.88,14.31,2.88,22.34-2.24,3.6-5.17,6.84-8.08,9.98-3.68,3.97-8.01,7.41-11.45,11.56-14.26,17.22-34.69,20.77-55.24,23.61-7.63,1.06-14.48-2.18-20.06-7.66-11.94-11.76-24-23.41-35.99-35.13-5.86-5.73-8.03-12.15-3.66-18.78,7.99-12.11,8.14-25.92,11-39.15,2.56-11.84,4.01-23.93,7.15-35.61,1.48-5.51,4.91-11.1,8.96-15.27,8.2-8.44,19.81-6.13,24.08,4.79,2.36,6.03,2.53,12.87,3.61,19.36,.38,2.31,.52,4.67,.86,7.82Zm52.58,6.14c-3.87,3.86-7.58,7.57-11.31,11.28-2.04,2.02-4.36,3.02-6.75,.76-2.58-2.43-1.57-4.81,.66-6.95,.69-.66,1.37-1.34,2.05-2.01,9.82-9.6,19.72-19.12,29.4-28.85,2.31-2.32,4.39-5.14,5.63-8.11,1.73-4.12,1.36-8.37-2.21-11.79-3.54-3.39-7.85-3.88-12.08-2-3.01,1.33-5.86,3.37-8.22,5.65-18.27,17.63-36.4,35.4-54.58,53.12-1.03,1-1.96,2.51-3.19,2.8-1.79,.43-4.73,.68-5.49-.28-1.02-1.29-.81-3.87-.39-5.74,.27-1.18,2.18-1.91,2.84-3.11,1.04-1.9,2.41-4.06,2.31-6.04-.38-7.54-1.2-15.07-2.06-22.58-.25-2.15-.89-4.35-1.81-6.32-2.34-4.99-6.24-6.03-9.72-1.88-3.26,3.89-6.24,8.61-7.41,13.42-2.91,11.91-4.47,24.13-7.04,36.13-2.7,12.6-2.2,26.08-10.79,37.16-2.62,3.38-1.61,6.92,1.71,10.09,11.89,11.37,23.63,22.89,35.31,34.45,5.26,5.2,11.45,6.87,18.59,5.28,7.23-1.62,14.53-3.09,21.55-5.35,4.83-1.56,10.04-3.51,13.68-6.77,9.01-8.09,17.61-16.7,25.62-25.74,5.95-6.72,4.72-11.57-2.74-17-3.33,2.92-6.74,5.81-10.02,8.84-2.32,2.14-4.84,3.78-7.5,1.03-2.61-2.69-1.02-5.18,1.35-7.31,3.92-3.52,8.02-6.88,11.69-10.64,6.84-7,6.4-10.95-1.58-16.99-3.9,3.45-7.87,6.89-11.75,10.43-2.28,2.08-4.75,3.13-7.19,.68-2.49-2.5-1.2-4.89,1.06-6.93,3.79-3.43,7.69-6.76,11.33-10.33,7.65-7.49,7.53-10.65-.95-18.39Z"/>
  <path class="cls-1" d="M86.91,48.95c-1.11,1.55-1.93,3.96-3.45,4.5-1.96,.7-5.23,.77-6.64-.38-6.54-5.37-12.74-11.15-18.83-17.01-2.52-2.43-2.41-5.6,.11-8.05,2.51-2.44,5.72-2.45,8.32-.19,6.26,5.46,12.35,11.11,18.38,16.81,.95,.89,1.23,2.45,2.12,4.32Z"/>
  <path class="cls-1" d="M155.04,47.81c-1.51-1.13-3.89-2.07-4.68-3.73-.78-1.66-.81-4.74,.29-5.99,5.64-6.44,11.65-12.58,17.74-18.63,2.34-2.33,5.35-2.16,7.86-.04,2.5,2.12,3.24,5.11,1.03,7.55-5.96,6.58-12.25,12.88-18.49,19.21-.71,.71-1.99,.89-3.74,1.62Z"/>
  <path class="cls-1" d="M176.27,131.05c-1.09,1.47-1.99,3.9-3.66,4.62-1.72,.74-4.88,.61-6.21-.51-6.6-5.53-13.06-11.27-18.94-17.5-1.28-1.36-.95-5.73,.38-7.4,1.1-1.38,5.77-1.99,7.11-.9,6.93,5.61,13.33,11.85,19.82,17.97,.72,.68,.82,1.97,1.49,3.72Z"/>
  <path class="cls-1" d="M182.18,70.86c3.7-.22,7.4-.58,11.1-.61,3.87-.02,6.6,1.66,6.72,5.8,.12,4.13-2.46,5.98-6.36,6.15-7.73,.33-15.46,.62-23.2,.7-3.79,.04-6.69-1.55-6.78-5.74-.08-4.11,2.58-5.95,6.43-6.13,4.02-.19,8.06-.04,12.09-.04,0-.04,0-.09,0-.13Z"/>
</svg>