<?xml version="1.0" encoding="UTF-8"?>
<svg id="Layer_1" data-name="Layer 1" xmlns="http://www.w3.org/2000/svg" viewBox="0 0 200 250">
  <defs>
    <style>
      .cls-1 {
        fill: #5a2b5f;
      }
    </style>
  </defs>
  <path class="cls-1" d="M36.84,87.01c0-7.44-.03-14.59,0-21.75,.15-28.4,17.3-52.89,43.34-61.92,37.99-13.18,78.91,14.08,82.5,55.18,.75,8.53,.34,17.18,.46,25.77,.01,.82,0,1.63,0,2.72,2.54,0,4.93,0,7.31,0,4.24,0,8.48,0,12.72,0,10.06,.02,16.8,6.92,16.81,17.27,.01,28.82,0,57.63,0,86.45,0,13.96,0,27.91,0,41.87,0,10.5-6.71,17.39-16.92,17.39-46.4,0-92.81,0-139.21,0-9.06,0-18.12,.01-27.18,0C6.79,249.98,0,243.01,0,232.81c-.01-42.85,0-85.7,0-128.54,0-10.34,6.75-17.24,16.83-17.25,6.57,0,13.14,0,20.01,0Zm63.16,152.2s0-.05,0-.08c27.48,0,54.95,0,82.43,0,5.37,0,7-1.71,7.01-7.33,0-8.98,.02-17.95,.02-26.93,0-33.57,0-67.14,0-100.71,0-4.17-2.03-6.27-6.06-6.28-19.73-.04-39.46-.07-59.19-.07-17.02,0-34.05,.06-51.07,.08-18.78,.01-37.56,0-56.35,0-4.23,0-6.26,2.03-6.26,6.3,0,42.93,0,85.85,.02,128.78,0,4.04,2.02,6.14,5.92,6.17,4.75,.04,9.5,.08,14.25,.08,23.09,0,46.19,0,69.28,0Zm52.67-152.2c0-4.36,.14-8.5-.03-12.62-.27-6.77,.06-13.69-1.26-20.26-5.94-29.55-32.91-47.79-61.62-42.19-22.46,4.39-39.81,23.62-41.92,47.29-.81,9.05-.31,18.23-.4,27.35,0,.11,.17,.23,.33,.42h104.9Z"/>
  <path class="cls-1" d="M105.26,190.15h-10.38c0-4.2-.31-8.35,.09-12.42,.36-3.64,2.77-6.26,5.74-8.14,2.24-1.41,4.6-2.62,6.91-3.9,6.88-3.78,9.38-9.28,7.74-17.09-1.45-6.91-7.43-12.21-14.27-12.65-8.17-.52-14.97,4.91-16.56,13.25-.17,.89-.3,1.78-.47,2.84h-10.38c.07-6.59,2.13-12.42,6.29-17.33,6.82-8.06,15.57-11.29,25.62-8.94,10.46,2.45,17.4,9.37,19.91,20.28,2.43,10.54-.34,22.38-11.93,28.55-2.14,1.14-4.24,2.37-6.42,3.42-1.44,.69-2.03,1.62-1.95,3.31,.14,2.85,.04,5.72,.04,8.82Z"/>
  <path class="cls-1" d="M105.22,195.81v10.53h-10.32v-10.53h10.32Z"/>
</svg>