<?xml version="1.0" encoding="UTF-8"?>
<svg id="Layer_1" data-name="Layer 1" xmlns="http://www.w3.org/2000/svg" viewBox="0 0 200 200">
  <defs>
    <style>
      .cls-1 {
        fill: #5c2e63;
      }
    </style>
  </defs>
  <path class="cls-1" d="M117,0c1.71,1.22,3.6,2.27,5.1,3.68,19.85,18.64,39.62,37.35,59.47,56,1.97,1.85,2.88,3.83,2.87,6.42-.08,12.63-.03,25.26-.04,37.88,0,3.32-1.65,5.46-4.65,6.2-3.58,.89-7.12-1.26-7.61-4.66-.12-.83-.12-1.69-.12-2.53,0-10.15-.05-20.31,.04-30.46,.01-1.73-.53-2.19-2.39-2.18-13.37,.07-26.74-.2-40.1,.11-11.37,.26-20.4-7.6-20.18-18.61,.25-12.62,.06-25.26,.06-37.88,0-.77,0-1.53,0-2.57-.97,0-1.73,0-2.48,0-28.85,0-57.71,0-86.56,.01-1.05,0-2.13,.05-3.16,.26-2.58,.51-4.45,2.5-4.71,4.92-.08,.78-.07,1.56-.07,2.34,0,54.03,0,108.05,0,162.08,0,.65,0,1.3,.03,1.95,.2,2.98,2.32,5.08,5.56,5.46,1.05,.12,2.12,.12,3.17,.12,45.19,0,90.38,0,135.57,0,.92,0,1.84-.02,2.76,.03,3.17,.18,5.36,1.94,5.9,4.69,.51,2.59-.92,4.99-3.66,6.19-.37,.16-.72,.35-1.08,.53H16.41c-1.6-.46-3.24-.83-4.79-1.41C4.25,195.84,.03,189.61,.02,181.53c0-49.8,0-99.59,0-149.39,0-4.82-.06-9.63,.01-14.45C.16,9.25,5.72,2.58,14.21,.58,14.95,.41,15.68,.2,16.41,0,49.94,0,83.47,0,117,0Zm5.07,19.95c-.14,.76-.24,1.06-.24,1.37,0,10.47-.06,20.94,.02,31.4,.03,4.14,2.59,6.3,7.1,6.3,10.74,.01,21.47,0,32.21,0,.59,0,1.18-.08,2.16-.15-13.82-13.04-27.36-25.82-41.25-38.93Z"/>
  <path class="cls-1" d="M192.54,200c-1.62-1.11-3.4-2.07-4.82-3.37-8.35-7.59-16.63-15.25-24.91-22.91-.55-.5-.95-1.13-1.19-1.42-4.26,1.82-7.95,3.79-11.9,5.02-27.25,8.48-55.24-11.55-53.15-37.93,1.48-18.67,18.03-33.73,37.54-34.74,21.54-1.12,39.91,12.71,43.01,31.79,1.52,9.38-.62,18.12-6.31,26.04-.91,1.26-.74,1.91,.35,2.9,8.85,8.06,17.64,16.16,26.43,24.27,2.95,2.72,3.24,6.14,.66,8.48-.87,.79-2.09,1.26-3.15,1.87h-2.55Zm-55.18-83.85c-15.49-.28-28.26,11.28-28.3,26.23-.04,13.59,11.76,25.2,27.76,25.51,15.4,.3,28.09-11.18,28.46-25.52,.36-14.15-12.19-25.93-27.92-26.21Z"/>
  <path class="cls-1" d="M59.91,47.16c-8.55,0-17.09,.01-25.64-.02-1.12,0-2.28-.08-3.34-.36-2.64-.69-4.4-3.11-4.27-5.64,.13-2.46,2.03-4.62,4.65-5.18,.82-.17,1.68-.23,2.52-.23,17.59-.01,35.18-.02,52.77,0,4.04,0,6.74,1.99,7.04,5.1,.35,3.64-2.44,6.29-6.81,6.32-8.05,.04-16.11,.01-24.16,.01-.92,0-1.84,0-2.75,0Z"/>
  <path class="cls-1" d="M60.16,84.49c-8.69,0-17.38,.02-26.07-.02-1.18,0-2.43-.08-3.53-.43-2.63-.84-4.21-3.36-3.89-5.86,.33-2.64,2.64-4.71,5.63-5.03,.49-.05,.99-.04,1.48-.04,17.59,0,35.18,.01,52.77-.01,2.85,0,5.16,.81,6.49,3.23,1.98,3.61-.66,7.86-5.12,8.09-3.59,.18-7.2,.07-10.8,.07-5.65,0-11.3,0-16.95,0Z"/>
  <path class="cls-1" d="M49.96,121.88c-5.51,0-11.03,.01-16.54,0-3.98-.01-6.71-2.26-6.77-5.54-.06-3.37,2.7-5.76,6.76-5.77,11.1-.02,22.19-.02,33.29,0,3.97,0,6.62,2.31,6.62,5.66,0,3.36-2.63,5.63-6.61,5.65-5.58,.02-11.17,0-16.75,0Z"/>
  <path class="cls-1" d="M50.02,159.34c-5.51,0-11.03,.01-16.54,0-4.07-.01-6.85-2.37-6.84-5.72,.01-3.29,2.72-5.6,6.7-5.6,11.1-.02,22.19-.02,33.29,0,4.05,0,6.65,2.22,6.68,5.57,.03,3.42-2.65,5.73-6.75,5.75-5.51,.02-11.03,0-16.54,0Z"/>
</svg>