<?xml version="1.0" encoding="UTF-8"?>
<svg id="Layer_1" data-name="Layer 1" xmlns="http://www.w3.org/2000/svg" viewBox="0 0 200 200">
  <defs>
    <style>
      .cls-1 {
        fill: #5c2e63;
      }
    </style>
  </defs>
  <path class="cls-1" d="M0,160.89c.68-1.77,1.15-3.67,2.09-5.3,2.17-3.73,5.8-4.96,9.88-5.12,7.1-.28,14.2-.48,21.3-.73,5.4-.19,10.79-.41,16.19-.65,.34-.02,.84-.3,.95-.58,2.51-6.23,4.96-12.49,7.46-18.73,1.34-3.36,2.65-6.74,4.14-10.04,1.08-2.4,.64-4.78,.34-7.2-.78-6.27-1.58-12.55-2.37-18.82-.86-6.82-1.72-13.64-2.56-20.46-.66-5.39-1.6-10.77-1.83-16.18-.59-13.95,13.7-23.22,26.4-18.23,2.78,1.09,4.89,3.13,7.08,5.08,6.99,6.23,14,12.43,21.01,18.63,1.54,1.36,3.08,2.71,4.8,4.23,0-2.37-.02-4.5,0-6.63,.02-2.29-.14-4.62,.19-6.87,.24-1.58,1-3.16,1.83-4.56,2.51-4.23,5.21-8.34,7.75-12.54,1.31-2.17,3.05-3.15,5.65-3.13,12.15,.08,24.29,.02,36.44,.02,6.37,0,12.74,.02,19.11,.01,1.57,0,2.86,.6,3.67,1.9,3.34,5.36,6.63,10.76,9.93,16.14,.21,.34,.35,.72,.52,1.08v57.78c-1.11,2.47-3.12,3.32-5.71,3.32-24.44-.02-48.88,0-73.32-.01-.33,0-.67,.02-1,0-2.32-.2-4.8-1.32-4.88-4.69-.09-3.99-.2-7.99-.14-11.98,.03-1.86-.35-3.14-1.99-4.36-3.23-2.4-6.18-5.18-9.24-7.8-2.15-1.84-4.31-3.67-6.61-5.63,0,.55-.03,.91,0,1.25,.39,3.64,.77,7.28,1.21,10.91,.77,6.46,1.61,12.91,2.34,19.37,.21,1.86,.91,3.27,2.49,4.33,2.24,1.5,4.42,3.11,6.6,4.7,8.72,6.36,17.43,12.74,26.17,19.09,.91,.66,1.41,1.48,1.63,2.53,.97,4.58,1.93,9.17,2.92,13.75,1.82,8.48,3.71,16.95,5.45,25.45,.64,3.12,1.7,6.17,1.25,9.51-.6,4.56-3.58,8.44-7.93,9.75-.7,.21-1.41,.36-2.12,.54h-3.11c-.13-.06-.26-.14-.4-.16-5.04-.89-8.38-3.72-9.66-8.72-.73-2.86-1.24-5.77-1.82-8.66-1.77-8.83-3.56-17.66-5.28-26.51-.31-1.6-1.05-2.75-2.34-3.71-8.23-6.1-16.43-12.24-24.65-18.35-1.77-1.31-3.57-2.57-5.4-3.87-1.42,3.37-2.76,6.6-4.15,9.82-4.25,9.82-8.54,19.63-12.74,29.47-.58,1.36-1.38,1.98-2.8,2.01-3.47,.08-6.94,.21-10.41,.3-.96,.03-1.93-.02-2.88,.03-5.95,.33-11.89,.73-17.84,1-6.8,.31-13.6,.55-20.4,.75-4.75,.14-8.88-1.26-11.54-5.47C.87,166.64,.55,165.02,0,163.56c0-.89,0-1.78,0-2.67ZM124.44,57.67v15.22c0,2.95,.05,2.93,3.05,2.92,9.33-.04,18.65-.1,27.98,0,7.4,.08,12.22,7.61,9.17,14.21-1.94,4.19-5.41,6.17-9.94,6.19-9.63,.05-19.25,.02-28.88,.02-.43,0-.86,0-1.3,0v7.74h66.24V57.67H124.44Zm37.64-15.42v6.11h24.85c-1.11-1.8-2.14-3.49-3.2-5.17-.45-.73-1.13-.95-1.98-.95-4.8,.03-9.61,.01-14.41,.01-1.73,0-3.46,0-5.26,0Zm-9.24,.01c-.47,0-.84,0-1.2,0-5.43,0-10.87,0-16.3-.01q-3.58,0-5.31,3.13c-.54,.98-1.09,1.96-1.66,2.98h24.47v-6.1Z"/>
  <path class="cls-1" d="M91.78,0c1.54,.36,3.1,.64,4.6,1.09,6.7,2.04,13.04,10.04,12.26,18.03-.57,5.9-3.59,10.4-8.49,13.63-9.89,6.52-21.77,2.11-26.39-6.75-4.51-8.67-1.93-19.6,8.66-24.2C84.52,.89,86.88,.58,89.11,0,90,0,90.89,0,91.78,0Z"/>
</svg>