<?xml version="1.0" encoding="UTF-8"?>
<svg id="Layer_1" data-name="Layer 1" xmlns="http://www.w3.org/2000/svg" viewBox="0 0 200 200">
  <defs>
    <style>
      .cls-1 {
        fill: #5c2e63;
      }
    </style>
  </defs>
  <path class="cls-1" d="M28.3,154.03c5.67-4.27,11.17-8.41,17.17-12.93,14.23,21.55,33.11,34.48,58.1,35.61,17.54,.79,33.27-4.72,47.11-16.26,26.97-22.48,35.21-62.43,19.72-95.33-15.42-32.76-50.78-49.13-84.16-38.97-28.98,8.82-53.04,41.92-50.83,70.64h15.06c-9.22,12.51-17.48,23.72-26.36,35.77C15.92,120.86,8.07,109.65,0,98.1c1.18-.5,1.66-.87,2.17-.9q10.18-.6,11.69-11.11C20.87,37.38,57.69,1.87,103.05,.07c45.1-1.79,84.31,30.62,94.63,78.22,9.96,45.89-12.94,94.21-53.73,113.4-40.22,18.93-88.73,4.58-113.48-33.58-.77-1.18-1.34-2.51-2.17-4.08Z"/>
  <path class="cls-1" d="M113.82,93.62c11.69,0,22.56-.03,33.43,.01,5.83,.02,8.51,2.58,8.53,7.91,.02,5.34-2.64,7.95-8.47,8.02-13.27,.16-26.55,.3-39.82,.32-5.52,0-8.31-3.03-8.34-9.06-.07-15.08,.05-30.15-.06-45.23-.04-5.62,2.49-8.43,7.49-8.38,5.07,.05,7.35,3.1,7.28,8.62-.14,12.28-.04,24.57-.04,37.79Z"/>
  <path class="cls-1" d="M54.5,104.13v-8.18h15.21v8.18h-15.21Z"/>
  <path class="cls-1" d="M102.58,138.57h7.73v16.19h-7.73v-16.19Z"/>
  <path class="cls-1" d="M71.96,143.11c-1.69-1.59-3.55-3.34-5.52-5.19,4.17-4.17,7.73-7.73,11.93-11.92,1.2,1.49,2.81,3.51,4.64,5.8-3.7,3.79-7.31,7.48-11.05,11.31Z"/>
  <path class="cls-1" d="M74.79,74.84c-3.13-3.38-6.55-7.08-10.34-11.18,2.02-1.58,4.03-3.15,5.8-4.54,2.71,2.99,6.09,6.7,10.11,11.13-1.4,1.16-3.49,2.88-5.58,4.6Z"/>
  <path class="cls-1" d="M148.27,64.28c-3.5,3.69-6.85,7.21-11.11,11.7-1.38-2.22-2.77-4.45-4.53-7.27,3.16-2.91,6.97-6.42,11.17-10.28,.98,1.28,2.57,3.37,4.47,5.86Z"/>
  <path class="cls-1" d="M130.15,131.57c1.57-2.02,3.05-3.93,4.58-5.9,3.9,4.31,7.26,8.03,11.04,12.2-1.4,1.58-3.08,3.49-4.81,5.44-3.65-3.96-7.12-7.74-10.81-11.74Z"/>
</svg>