<?xml version="1.0" encoding="UTF-8"?>
<svg id="Layer_1" data-name="Layer 1" xmlns="http://www.w3.org/2000/svg" viewBox="0 0 200 200">
  <defs>
    <style>
      .cls-1 {
        fill: #5c2e63;
      }
    </style>
  </defs>
  <path class="cls-1" d="M129.51,77.7h-6.53v25.49c2.43,0,4.97,0,7.52,0,19.06,0,38.13-.07,57.19,.03,8.84,.05,12.15,3.34,12.23,12.14,.12,12.89,.07,25.78,.02,38.67-.04,10.74-2.98,13.56-14.01,13.64-2.64,.02-5.29,0-7.48,0-1.08,3.74-1.28,7.21-2.97,9.64-2.95,4.24-8.2,4.96-11,.9-10.9-15.81-26.71-9.2-41.91-10.64,0,7.83-.23,15,.07,22.15,.3,7.06-2.33,10.32-9.77,10.28-34.37-.19-68.74-.16-103.1-.02C3.04,200.01-.02,197.51,0,190.52,.12,137.08,0,83.64,.22,30.2c.01-3.11,2.25-6.21,3.47-9.31,.09-.23,.38-.37,.57-.56Q23.51,0,51.75,0c19.33,0,38.66,0,58,0,11.8,0,12.27,.45,13.22,12.9,6.79,0,13.68,0,20.56,0,14.77,0,29.54-.08,44.3,.03,8.49,.06,11.98,3.32,12.07,11.47,.16,13.96,.08,27.93,.02,41.89-.03,7.16-3.71,10.95-10.91,11.06-5.37,.09-10.76,.33-16.11-.04-10.5-.72-20.13-.08-26.97,9.81-1.32,1.91-6.86,3.38-8.26,2.27-3.13-2.48-4.88-6.71-8.17-11.71Zm-13.39,115.42c0-7.89,.06-14.86-.04-21.83-.02-1.53-.09-3.88-1.01-4.46-6.56-4.13-5.36-10.56-5.38-16.64-.04-11.27-.06-22.55,.03-33.82,.02-2.37-.34-5.68,1-6.95,8.59-8.12,4.49-18.43,5.33-27.84,.15-1.72-.09-4.43-1.17-5.15-6.12-4.04-5.19-10.09-5.19-15.94,0-10.47,.02-20.94-.01-31.41-.02-5.63-.55-11.2,5.08-15.22,1.39-1,.96-4.55,1.35-6.79H28.8V29.21H7.09V193.11H116.12Zm22.9-108.32c3.25-2.95,5.47-4.43,6.99-6.44,4.63-6.12,10.49-8.22,18.13-7.56,7.46,.65,15.03-.01,22.54,.19,4.59,.13,6.97-1.19,6.89-6.32-.22-13.16,.16-26.33-.33-39.47-.07-2.01-3.47-5.55-5.37-5.59-22.01-.4-44.04-.4-66.05,0-1.93,.03-5.35,3.54-5.43,5.53-.49,13.14-.11,26.31-.33,39.47-.08,5.08,2.17,6.59,6.82,6.38,5.03-.23,10.09-.05,15.51-.05,.2,4.4,.36,8.08,.63,13.86Zm31.52,89.95c.29-5.36,.48-9.03,.72-13.53,5.49,0,10.8-.15,16.11,.05,4.49,.17,6.23-1.72,6.18-6.19-.15-13.16-.15-26.32,0-39.48,.05-4.63-2.02-6.03-6.36-6.01-21.48,.11-42.97,.18-64.45-.04-5.59-.06-6.78,2.46-6.68,7.36,.22,11.28,.06,22.56,.07,33.84,0,10.47,.01,10.4,10.66,10.49,15.36,.13,31.84-3.57,43.75,13.51ZM11.81,22.06h10.11V13.2c-3.17,2.78-6.14,5.38-10.11,8.86Z"/>
  <path class="cls-1" d="M62.03,19.37c23.02,.33,41.59,19.63,41.17,42.81-.42,22.99-19.84,41.5-43,40.98-22.66-.51-40.99-19.58-40.76-42.4,.23-23.06,19.42-41.71,42.59-41.38Zm29.43,59.46c9.19-15.3,5.98-33.72-7.74-44.94-13.8-11.29-33.3-10.71-46.42,1.37-12.63,11.63-15.12,30.38-5.65,43.75,2.58-2.32,5.02-4.81,7.75-6.89,2.7-2.06,5.71-3.71,8.58-5.54-7.93-12.59-7.75-21.73,.38-29.17,6.9-6.32,16.97-6.83,24.43-1.24,9.12,6.84,9.76,16.18,2.3,30.2,5.35,4.07,10.63,8.1,16.37,12.47Zm-55.53,6.14c14.4,15.74,39.21,15.4,50.42-.37-2.7-2.98-5.46-6.02-8.35-9.21-6.17,5.85-11.34,10.74-18.31,17.35-4.74-6.3-9.07-12.05-13.93-18.51-4.34,4.74-7.12,7.77-9.84,10.74Zm38.22-33.16c.13-6.97-5.62-12.93-12.61-13.05-6.99-.13-12.92,5.6-13.05,12.61-.13,6.98,5.61,12.93,12.6,13.06,6.95,.13,12.93-5.64,13.06-12.61Zm-2.21,20.52h-18.98c3.21,3.69,5.79,6.63,8.39,9.61,3.19-2.89,6.09-5.52,10.59-9.61Z"/>
  <path class="cls-1" d="M83.51,110.07v24.77H13.49v-24.77H83.51Zm-63.75,18.36h57.33v-11.94H19.76v11.94Z"/>
  <path class="cls-1" d="M14.25,154.95H95.86c1.77,4.14,1.32,6.34-3.93,6.32-24.7-.1-49.41,.04-74.11-.21-1.85-.02-3.68-2.43-5.52-3.73,.65-.79,1.3-1.59,1.95-2.38Z"/>
  <path class="cls-1" d="M12.34,171.73c1.78-1.35,3.54-3.86,5.33-3.88,24.7-.26,49.4-.26,74.11-.01,1.92,.02,3.81,2.34,5.72,3.59-.39,.9-.79,1.8-1.18,2.69H13.69c-.45-.8-.9-1.59-1.35-2.39Z"/>
  <path class="cls-1" d="M82.59,148.15H13.87c-1.76-4.16-1.28-6.35,3.95-6.32,20.4,.11,40.81-.05,61.21,.22,1.85,.02,3.67,2.43,5.51,3.74l-1.95,2.37Z"/>
  <path class="cls-1" d="M32.87,186.83H13.09c.32-2.12,.47-5.47,.89-5.5,5.56-.46,11.17-.65,16.74-.34,.7,.04,1.23,3.24,2.15,5.85Z"/>
  <path class="cls-1" d="M58.48,186.67h-19.67c.38-2.04,.59-5.37,1.06-5.41,5.57-.45,11.18-.58,16.75-.25,.66,.04,1.13,3.33,1.86,5.66Z"/>
  <path class="cls-1" d="M63.8,180.76h19.84c-.23,2.02-.31,5.4-.67,5.43-5.55,.48-11.16,.72-16.72,.44-.77-.04-1.38-3.17-2.46-5.86Z"/>
  <path class="cls-1" d="M178.4,26.79c1.55,1.86,2.68,3.21,4.08,4.89-12.36,11.24-24.44,22.22-37.37,33.98-3.4-4.39-6.62-8.54-10.14-13.09,.01-.01,1.21-1.32,2.66-2.9,2.62,2.3,4.97,4.37,7.81,6.87,10.82-9.77,21.5-19.41,32.97-29.76Z"/>
  <path class="cls-1" d="M141.75,155.7c-2.57-3.29-3.7-4.73-6.03-7.71,4.94-3.98,9.71-7.83,15.89-12.82-6.03-4.54-10.95-8.25-16.92-12.74,3.01-2.79,4.33-4.01,7.23-6.7,4.19,5.63,7.87,10.57,12.52,16.82,5.11-6.44,8.92-11.24,13.78-17.36,2.3,3.19,3.37,4.66,5.65,7.82-4.98,3.69-9.93,7.36-16.5,12.23,6.7,4.99,11.64,8.66,17.61,13.11-3.05,2.86-4.37,4.09-6.99,6.55-4.49-5.39-8.4-10.09-13.5-16.21-4.48,5.98-8.17,10.91-12.75,17.02Z"/>
</svg>