<?xml version="1.0" encoding="UTF-8"?>
<svg id="Layer_1" data-name="Layer 1" xmlns="http://www.w3.org/2000/svg" viewBox="0 0 200 200">
  <defs>
    <style>
      .cls-1 {
        fill: #5c2e63;
      }
    </style>
  </defs>
  <path class="cls-1" d="M82.79,96.29c-17.5-1.87-31.98-9.8-40.27-26.38-8.48-16.97-6.48-33.66,4.54-49C55.43,9.23,66.82,2.1,81.34,.26c11.1-1.41,20.4,2.97,28.47,9.65,15.01,12.42,23.35,28.43,18.72,47.98-4.59,19.39-17.93,31.78-37.23,37.37-2.47,.72-5.18,.65-8.52,1.03Z"/>
  <path class="cls-1" d="M54.58,107c13.26,0,26.53-.12,39.79,.05,6.89,.09,7.89,1.87,4.9,8.05-2.34,4.84-5.24,9.43-7.43,14.33-6.26,13.97-6.37,28.41-3.05,43.14,1.45,6.45,.66,7.73-6.1,7.76-10.46,.05-20.94-.43-31.37-1.2-13.06-.96-26.13-2.04-39.09-3.8-13.04-1.77-14.13-3.82-10.27-16.26,3.09-9.95,6.39-19.84,9.87-29.66,4.97-14.02,15.31-21.02,29.99-21.99,4.25-.28,8.51-.48,12.76-.72,0,.1,0,.19,0,.29Z"/>
  <path class="cls-1" d="M117.56,194.94c-5.23-6.74-10.11-13.05-15.2-19.62,2.38-2.29,4.65-4.38,6.82-6.58,2.72-2.74,2.12-4.86-1.38-6.29-1.21-.49-2.4-1.25-3.65-1.4-6.3-.74-7.72-4.45-6.99-10.14,.47-3.69,.09-7.48,.09-11.64,3.08-.82,6.04-1.55,8.96-2.4,4.42-1.3,5.04-3.01,2.34-6.62-1.85-2.47-3.88-4.81-5.92-7.33,4.9-6.62,9.63-13.02,14.57-19.69,3.34,2.37,6.32,4.61,9.43,6.65,4.31,2.83,7.94,2.27,8.8-2.45,1.72-9.4,7.33-10.22,15.35-9.89,5.73,.23,8.96,1.95,10.47,7.24,.18,.63,.42,1.24,.68,1.84,2.64,6.26,3.96,6.67,9.72,2.77,2.71-1.83,5.31-3.82,8.48-6.11,4.98,6.63,9.93,13.22,14.96,19.92-2.46,2.29-4.86,4.24-6.93,6.49-3.21,3.48-2.78,5.09,1.63,6.62,3.22,1.11,6.53,1.98,10.19,3.07,0,5.72,.15,11.42-.13,17.11-.05,1.11-1.54,2.56-2.72,3.12-2.34,1.11-5.02,1.5-7.39,2.57-4.21,1.89-4.66,4.15-1.56,7.51,1.75,1.9,3.79,3.54,5.11,4.74-6.03,6.73-12,13.4-18.12,20.25-3.11-2.42-5.4-4.47-7.95-6.13-3.59-2.35-5.63-1.57-6.92,2.6-.87,2.79-1.36,5.69-2.1,8.87h-19.32c-.7-2.8-1.34-5.81-2.22-8.74-1.27-4.26-3.42-5.18-7.37-3.07-3.89,2.08-7.65,4.39-11.71,6.75Zm56.69-46c0-14.52-11.16-25.83-25.67-25.99-14.41-.17-26.24,11.67-26.13,26.15,.11,14.19,11.83,25.79,26.1,25.82,14.29,.04,25.69-11.5,25.69-25.98Z"/>
</svg>