<?xml version="1.0" encoding="UTF-8"?>
<svg id="Layer_1" data-name="Layer 1" xmlns="http://www.w3.org/2000/svg" viewBox="0 0 200 200">
  <defs>
    <style>
      .cls-1 {
        fill: #5c2e63;
      }
    </style>
  </defs>
  <path class="cls-1" d="M200,184.53c-5.36,12.06-12,16.61-22.22,15.24-8.11-1.09-14.78-7.59-15.98-15.75-.36-2.47-.41-5.01-.41-7.51-.03-22.28-.02-44.57-.02-66.85,0-1.96,0-3.92,0-6.16h-23.4c-1.39,4.12-2.83,8.37-4.24,12.64-1.27,3.86-3.57,6.45-7.92,6.36-4.1-.09-6.34-2.53-7.47-6.25-.05-.16-.13-.31-.18-.47q-4.97-13.91-21.19-12.13c0,7.02-.15,14.16,.04,21.29,.24,9.33-1.87,17.95-7.25,25.6-.75,1.07-2.56,1.4-3.89,2.07-.23-.34-.47-.69-.7-1.03-1.83,2.53-3.67,5.06-5.75,7.92,14.57,9.52,19.25,23.27,17.15,40.24H7.3c-1.88-16.74,2.51-30.54,17.28-40.19-1.92-2.68-3.73-5.21-5.68-7.92-.95,.43-1.94,.89-4.22,1.94-2.43-6.81-6.44-13.39-6.86-20.19-1.01-16.16-.33-32.42-.33-49.03h5.97v20.17c2.35-.6,4.11-1.04,6.37-1.62-2.43-10.58,8.27-9.73,13.02-14.68-1.83-1.74-3.48-3.31-5.77-5.48,1.6-1.37,3.05-2.62,4.84-4.15,10.36,10.45,23.25,12.52,37.02,11.73,1.83-.1,3.68-.11,5.51,.04,6.43,.52,9.05,3.73,10,12.58,1.81,.47,3.8,1,5.85,1.54,3.53-26.73-21.84-55.19-56.54-43.75-.61-1.67-1.22-3.36-1.82-5.02,25.23-14.95,57.56,5.24,65.56,41.22,5.68,0,11.49,.17,17.29-.07,3.06-.13,4.4,.95,5.24,3.86,1.5,5.22,3.45,10.3,5.21,15.44,.51,.04,1.01,.08,1.52,.12,1.2-3.49,2.43-6.97,3.6-10.47q2.99-8.88,12.54-8.88c5.98,0,11.96,0,16.06,0,3.81-7.99,6.42-15.21,10.46-21.51,6.29-9.81,9.16-19.96,8.27-31.69-.79-10.33-.31-20.77-.1-31.15,.09-4.53-1.48-6.14-6.11-6.13-48.43,.13-96.87,.08-145.3,.09-6,0-6.38,.41-6.39,6.74-.02,11.53,0,23.06,0,34.91h-6.15c0-13.46-.23-26.82,.14-40.15,.11-4.14,3.24-6.9,7.49-7.65C23.19,.01,25.22,.02,27.22,.01,74.82,0,122.42,0,170.01,0c11.19,0,13.92,2.74,13.92,13.9,0,14.07-.1,28.15,.09,42.22,.04,2.7,.77,5.64,2.03,8.01,4.45,8.39,9.27,16.59,13.94,24.86v95.53ZM77.73,113.81c0-3.52-.24-7.06,.06-10.55,.41-4.77-1.3-6.5-6.22-6.48-7.31,.03-15.05,.56-21.83-1.59-7.61-2.42-13.57-2.33-20.03,2.39-2.34,1.71-3.46,2.93-3.39,5.75,.16,6.7,.13,13.41,.04,20.11-.14,10.09,4.37,17.19,13.24,21.85,1.35,.71,2.48,2.81,2.75,4.42,.67,3.92,.35,8.04,1.24,11.89,.92,3.97,4.09,5.99,8.22,6.07,4.35,.09,7.65-1.97,8.71-6.12,.93-3.66,1.07-7.59,1.08-11.4,.01-2.67,.68-4.08,3.26-5.33,8.63-4.17,12.85-11.33,12.87-20.96,0-3.35,0-6.7,0-10.06Zm12.43,79.54c1.75-12.62-5.94-25.18-17.98-30.09-3.18-1.3-4.88-1.2-6.45,2.41-2.48,5.73-7.51,8.53-13.63,8.58-6.13,.05-10.85-2.9-13.84-8.38-.63-1.15-1.17-2.34-1.71-3.44-14.04,1.57-25.56,17.68-22.31,30.92H90.15Zm86.98-32.11V97.13h-8.84v64.12h8.84Zm16.16-.06v-63.93h-9.07v63.93h9.07Zm-25.08,19.73c.33,7.72,5.62,12.82,12.78,12.66,7.06-.16,12.15-5.47,11.88-12.66h-24.65Zm-80.76-37.67c1.35-5.59,2.46-10.16,3.6-14.87-5.11-.28-7.47,1.26-8.66,5.87-1.62,6.3-6.02,10.95-11.34,14.74-1.37,.98-2.2,2.9-2.85,4.56-.17,.43,1.37,2.21,1.96,2.14,1.75-.22,4.13-.56,4.98-1.77,3.01-4.28,5.5-8.95,8.31-13.69,.79,.59,1.9,1.43,4,3.02Zm-66.87-3.03c2.72,4.61,5.21,9.31,8.22,13.63,.86,1.23,3.23,1.59,4.98,1.86,.55,.08,2.07-1.72,1.89-2.18-.63-1.67-1.45-3.61-2.81-4.6-5.31-3.85-9.64-8.5-11.29-14.87-1.13-4.37-3.57-5.86-8.6-5.77,1.2,4.88,2.35,9.55,3.66,14.9,2.05-1.55,3.21-2.42,3.93-2.98Zm172.75,27.97h-25.19v5.86h25.19v-5.86Zm-24.24-78.13h23.17c-.89-4.3-2.74-6.74-7.38-6.17-2.61,.32-5.33,.34-7.93,0-4.46-.59-6.84,1.29-7.86,6.17Zm-84.73,32.32c4.7-.6,6.48-3.2,6.11-6.91-.31-3.16-2.2-5.37-6.11-5.25v12.16Zm-64.89-.2v-12.28c-3.93,.7-5.99,2.69-5.91,6.34,.08,3.55,1.8,5.85,5.91,5.94Zm156.2-45.09h10.06c-1.88-3.21-3.37-5.76-5.16-8.82-1.81,3.26-3.17,5.71-4.9,8.82Z"/>
  <path class="cls-1" d="M148.1,58c-4.84,0-9.68,.07-14.52-.02-5.16-.09-7.53-2.22-7.6-7.21-.13-10.21-.09-20.43-.02-30.65,.03-4.66,2.63-7.19,7.19-7.24,10.18-.12,20.37-.15,30.55,0,5.03,.07,7.23,2.48,7.27,7.57,.08,10.05,.08,20.1,0,30.14-.04,5.14-2.21,7.27-7.34,7.37-5.17,.1-10.35,.02-15.52,.02Zm16.27-6.57V19.8h-31.45v31.63h31.45Z"/>
  <path class="cls-1" d="M32.8,19.14v-5.88H112.82v5.88H32.8Z"/>
  <path class="cls-1" d="M112.81,26.14v5.89H32.95v-5.89H112.81Z"/>
  <path class="cls-1" d="M112.78,39v5.84h-40.96v-5.84h40.96Z"/>
  <path class="cls-1" d="M20.62,50.41c1.86,1,3.44,1.84,5.06,2.7-1.89,5.24-5.32,8.05-10.58,8.09-5.25,.04-8.74-2.68-10.75-8,1.56-.89,3.09-1.75,4.57-2.59,6.14,5.64,7.09,5.64,11.7-.2Z"/>
  <path class="cls-1" d="M13.05,77.08c-3.65,.87-5.87,.74-7.06-3.39-.73-2.54-3.57-4.47-5.99-7.28,.31-.92,.93-2.72,1.54-4.5,7.59,2.37,11.33,7.39,11.51,15.17Z"/>
  <path class="cls-1" d="M16.61,76.55c.75-7.09,4.34-12.07,11.67-15.06,.73,2.02,1.38,3.8,1.59,4.39-2.51,3.62-4.26,6.72-6.6,9.27-1.35,1.48-3.66,2.07-5.54,3.07-.38-.56-.76-1.12-1.13-1.67Z"/>
  <path class="cls-1" d="M112.76,83.79h-5.78c-.09-1.87-.17-3.62-.27-5.83h6.05v5.83Z"/>
  <path class="cls-1" d="M125.68,77.49v6.19h-5.73v-5.9c1.74-.09,3.47-.18,5.73-.29Z"/>
  <path class="cls-1" d="M138.9,83.7h-6.09v-5.94c1.84-.08,3.59-.16,5.81-.26,.09,2.07,.17,3.83,.28,6.19Z"/>
  <path class="cls-1" d="M45.17,140.14c-2.08-1.07-3.67-1.89-5.24-2.7,4.66-10.58,16-16.37,27.79-14.22v5.96c-9.49-.93-17.39,1.97-22.55,10.96Z"/>
  <path class="cls-1" d="M48.98,99.39c2.14,.53,3.87,.96,5.21,1.28,1.99,4.42-5.28,9.51,2.34,12.67-.9,1.88-1.71,3.58-2.45,5.13-.81-.05-1.17,.03-1.44-.09q-7.72-3.49-5.64-11.63c.58-2.26,1.21-4.5,1.98-7.36Z"/>
  <path class="cls-1" d="M153.33,35.52c2.31,2.45,4.44,4.73,7.16,7.62-1.55,1.32-2.99,2.54-4.7,3.99-2.36-2.23-4.62-4.36-7.21-6.8-2.47,2.28-4.85,4.48-7.47,6.89-1.43-1.34-2.74-2.56-4.47-4.18,2.44-2.58,4.78-5.05,7.6-8.03-2.72-2.23-5.18-4.23-8.2-6.71,2.01-1.76,3.47-3.04,5.14-4.5,2.45,2.32,4.81,4.56,7.82,7.42,1.98-2.67,3.87-5.22,6.02-8.11,2.11,1.88,3.42,3.05,5.32,4.75-2.34,2.56-4.58,5-7.03,7.67Z"/>
</svg>