<?xml version="1.0" encoding="UTF-8"?>
<svg id="Layer_1" data-name="Layer 1" xmlns="http://www.w3.org/2000/svg" viewBox="0 0 200 200">
  <defs>
    <style>
      .cls-1 {
        fill: #5c2e63;
      }
    </style>
  </defs>
  <path class="cls-1" d="M0,198.67c0-21.61,0-43.22,0-64.84,3.44-.78,6.89-1.57,10.61-2.41,0-22.93,.02-46.02-.07-69.11,0-1.14-.75-2.51-1.55-3.39C.84,49.99-.65,37.8,5.22,27.14c4.1-7.45,8.41-14.78,12.2-22.39C19.22,1.11,21.47,.03,25.34,.04,75.03,.16,124.72,.19,174.41,0c4.66-.02,7.11,1.64,9.35,5.55,5.16,8.99,10.79,17.7,16.23,26.52v13.51c-1.52,5.9-3.88,11.37-9.13,14.75-2.47,1.59-3.15,3.38-3.14,6.22,.11,20.25,.06,40.51,.06,60.76,0,1.47,0,2.93,0,4.74,1.86,.09,3.29,.21,4.72,.23,5.93,.07,5.94,.06,5.94,5.91,0,18.75-.08,37.51,.07,56.26,.03,3.9-.8,5.55-5.1,5.54-62.81-.13-125.62-.08-188.43-.14-1.67,0-3.33-.78-5-1.19ZM117.25,117.91c.84,.22,1.68,.48,2.53,.64,7.1,1.35,13.5,3.56,15.27,12.02,.14,.69,1.41,1.62,2.16,1.63,10.44,.11,20.88,.07,31.27,.07,.25-.79,.49-1.2,.49-1.61,.03-21.91,.06-43.82-.02-65.73,0-1.1-.82-2.42-1.65-3.24-2.83-2.78-5.83-5.39-8.79-8.09-4.33,6.59-10.4,11.01-19.05,10.97-8.54-.04-14.59-4.51-19.3-11.49-4.74,7.33-10.81,11.48-19.25,11.49-8.52,0-14.59-4.39-19.23-11.37-10.12,15.12-28.68,15.35-38.32,.73-3.45,2.84-6.68,6.21-10.54,8.44-2.59,1.49-3.51,2.77-3.5,5.72,.12,19.96,.06,39.92,.08,59.88,0,1.31,.15,2.61,.25,4.31,10.31,0,20.32,.07,30.32-.12,.95-.02,2.33-1.54,2.72-2.66,1.45-4.17,3.58-7.72,7.91-9.01,5.06-1.51,10.23-2.59,15.36-3.86-2.87,1.24-5.74,2.47-8.98,3.87,.3,2.5,.8,5.28,.94,8.08,.15,2.81,1.26,3.83,4.1,3.78,8.38-.17,16.76-.06,25.14-.06,4.07,0,8.14,0,12.66,0-.67-5.28,3.59-10.66-2.58-14.39Zm71.07,25.1c-1.61-.11-2.76-.27-3.92-.27-56.74-.01-113.49,.03-170.23-.09-3.73,0-4.39,1.42-4.35,4.75,.15,12.45,.2,24.9-.02,37.34-.07,3.93,1.02,5.09,4.95,5.08,56.3-.13,112.6-.08,168.9-.1,1.54,0,3.08-.18,4.66-.29v-46.43ZM79.49,31.07c.79-8.92,1.53-17.32,2.3-26-9.57,0-18.52-.06-27.47,.09-.95,.02-2.5,1.12-2.71,1.99-1.94,7.88-3.64,15.82-5.45,23.92h33.33Zm42.87-.11h33.27c-2.08-8.02-4-15.67-6.11-23.27-.28-1.01-1.49-2.48-2.3-2.5-8.93-.18-17.86-.11-27.22-.11,.8,8.82,1.56,17.12,2.36,25.88Zm-38.08,.1h33.31c-.86-8.79-1.69-17.3-2.52-25.7h-28.36c-.81,8.6-1.6,16.93-2.43,25.7Zm-75.67,0H41.16c1.95-8.65,3.87-17.12,5.87-25.99-7.78,0-14.98-.08-22.17,.09-1.03,.02-2.45,1-2.99,1.95-4.4,7.73-8.64,15.57-13.25,23.96ZM153.92,5.07c2.17,8.31,4.11,15.95,6.23,23.54,.28,1.02,1.46,2.53,2.24,2.55,10.05,.17,20.1,.11,30.83,.11-5.1-8.6-9.73-16.52-14.52-24.34-.56-.92-2.03-1.76-3.1-1.78-7.04-.16-14.09-.08-21.69-.08Zm7.68,31.46c-1.12,10.46,1.65,17.08,8.47,20.98,6.02,3.44,13.16,2.83,18.6-1.6,5.55-4.52,7.84-12.19,5.72-19.38h-32.79Zm-115.82-.01c-1.38,9.65,1.32,16.74,7.89,20.67,6.16,3.69,12.33,3.47,18.24-.67,6.12-4.29,8.53-11.6,6.65-20H45.78Zm38.56,.06c-1.05,8.36,.3,15.56,7.5,20.31,5.98,3.95,12.3,3.95,18.24-.03,7.15-4.78,8.58-11.95,7.26-20.28h-33Zm-77.12-.06c-1.18,8.75,.35,15.98,7.88,20.71,5.86,3.68,13.1,3.32,18.61-.97,6.42-5.02,7.69-11.87,6.61-19.73H7.22Zm115.78,.03c-1.01,10.65,1.65,17.07,8.45,20.96,6.05,3.46,13.12,2.93,18.56-1.6,6.11-5.08,7.3-11.78,6.13-19.36h-33.14Z"/>
  <path class="cls-1" d="M111.61,116.76c-.91,.72-2.08,1.27-2.69,2.19-4.78,7.2-14.46,7.55-19.78,.71-.89-1.15-2.25-1.92-3.39-2.87,4.99-5.78,4.51-6.91,1-11.36-1.64-2.09-3.28-4.39-4.1-6.87-.64-1.95-.09-4.34,.05-6.52,.11-1.71,.7-3.44,.58-5.12-.55-7.58,2.96-11.94,9.01-16.42,6.24-4.61,10.23-1.5,14.93,1.01,5.73,3.05,7.68,8.19,7.35,14.64-.12,2.34,1.14,4.72,1.26,7.11,.09,1.84-.2,3.96-1.06,5.54-2.25,4.19-4.9,8.16-7.69,12.71,1.36,1.57,2.94,3.41,4.53,5.25Zm.35-28.18c-4.8-1.02-9.49-2.18-14.25-2.98-2.58-.44-5.27-.38-7.9-.37-2.77,.01-4.55,1.03-3.8,4.39,.21,.93,.2,2.68-.2,2.85-4.83,2.02-1.91,4.71-.6,7.06,1.59,2.86,3.35,5.65,5.29,8.28,4.78,6.48,11.74,6.6,16.61,.14,2.41-3.19,4.28-6.8,6.39-10.22,1.62-2.61,1.21-4.4-2.14-4.79,.25-1.75,.45-3.2,.62-4.36Zm-21,22.76c-2.61,5.38-1.75,7.8,3.17,10.15,5.69,2.72,11.63,.45,14.55-5.71-.95-1.16-1.95-2.37-2.92-3.54-5.25,2.97-10.05,2.83-14.8-.9Z"/>
</svg>