<svg width="95" height="70" viewBox="0 0 95 70" fill="none" xmlns="http://www.w3.org/2000/svg">
<g id="Group 107">
<path id="Vector" d="M88.2765 57.7928C89.9684 57.7928 91.5076 57.7822 93.0469 57.7955C94.3493 57.8061 94.8677 58.3474 94.8914 59.6823C94.8993 60.1122 94.8414 60.55 94.9019 60.972C95.3123 63.9203 94.4046 66.4864 92.7732 68.8827C92.2996 69.578 91.7813 70 90.9393 69.9708C90.6761 69.9628 90.413 69.9708 90.1525 69.9708C61.7249 69.9708 33.2973 69.9628 4.86962 69.9973C3.40929 69.9973 2.57783 69.4958 1.79899 68.2379C0.480751 66.1043 -0.232308 63.9176 0.0650194 61.4019C0.146587 60.7172 0.0492321 60.0113 0.0887003 59.3187C0.151849 58.1962 0.735979 57.6336 1.84898 57.6203C3.45402 57.6017 5.0617 57.615 6.81935 57.615C6.81935 57.1373 6.81935 56.7234 6.81935 56.3067C6.81935 40.3499 6.82461 24.393 6.81145 8.4335C6.81145 6.31848 7.20614 4.35738 8.60594 2.70676C10.1005 0.955303 11.9844 0.00526868 14.2867 0.00526868C36.4126 -3.87706e-05 58.5359 -0.0026925 80.6618 0.00526868C84.8375 0.00526868 88.2265 3.29854 88.2475 7.51797C88.3002 18.3425 88.2712 29.1697 88.2738 39.9943C88.2738 45.522 88.2738 51.0523 88.2738 56.5801C88.2738 56.9383 88.2738 57.2966 88.2738 57.7902L88.2765 57.7928ZM9.82946 15.779V57.7132H85.1006V15.779H9.82946ZM28.7821 9.54011C30.9134 9.54011 33.0447 9.54011 35.1759 9.54011C37.0125 9.54011 38.8491 9.55338 40.6857 9.5348C41.6987 9.52419 42.3934 8.87933 42.3907 8.00891C42.3881 7.14379 41.6961 6.54405 40.6647 6.51486C40.4015 6.5069 40.141 6.51486 39.8779 6.51486C32.8605 6.51486 25.8404 6.51486 18.8229 6.51486C18.102 6.51486 17.3784 6.49098 16.6601 6.53344C15.6734 6.59182 15.1261 7.33221 15.3313 8.30612C15.5287 9.2482 16.1865 9.54541 17.0758 9.54276C20.9779 9.53215 24.88 9.53745 28.7847 9.54011H28.7821ZM61.7854 9.54011C63.1694 9.54807 64.0351 8.79706 63.7878 7.75946C63.6115 7.01641 63.1484 6.53078 62.338 6.52547C61.4381 6.52017 60.4382 6.2946 59.9857 7.44366C59.541 8.5715 60.3698 9.53215 61.7854 9.54011ZM77.7043 9.53745C78.6252 9.6038 79.3356 9.30127 79.6119 8.36981C79.8303 7.63739 79.5224 6.93415 78.862 6.759C78.1279 6.56528 77.2596 6.57324 76.5281 6.77492C75.8256 6.96865 75.6519 7.73823 75.8729 8.42554C76.1518 9.288 76.8386 9.61176 77.7043 9.53745ZM69.6554 9.54011C70.8131 9.54011 71.5525 8.95894 71.5683 8.04341C71.5841 7.17298 70.9026 6.55201 69.8974 6.51486C68.4661 6.46178 67.7793 6.89169 67.7135 7.88153C67.6451 8.90587 68.3898 9.54276 69.6554 9.54011Z" fill="#0193FA"/>
<path id="Vector_2" d="M60.8259 27.2775C61.6679 26.9458 62.3467 26.7096 62.994 26.4045C63.1651 26.3248 63.3098 26.0489 63.3466 25.8419C63.4045 25.5155 63.3624 25.1705 63.3624 24.8335C63.3677 23.6127 63.7781 23.1828 64.9622 23.1749C65.9147 23.1696 66.8645 23.159 67.817 23.1802C68.6696 23.1988 69.0932 23.6048 69.1458 24.4619C69.18 25.0298 69.1537 25.6004 69.1537 26.1869C69.9483 26.5159 70.7193 26.837 71.6955 27.2404C71.9796 26.9113 72.3243 26.4575 72.7243 26.0621C73.3926 25.3987 73.9425 25.3881 74.6003 26.0223C75.3634 26.7574 76.108 27.5111 76.8368 28.2753C77.4499 28.9202 77.5052 29.6102 76.7921 30.1542C75.7081 30.9821 75.6923 31.7968 76.2475 32.9671C76.5632 33.6359 76.8474 33.8827 77.521 33.8004C77.8262 33.7632 78.1367 33.7818 78.4445 33.8004C79.2207 33.8402 79.4838 34.2064 79.4523 35.0078C79.4128 36.0959 79.4391 37.1865 79.4233 38.2746C79.4075 39.2538 78.9681 39.6943 78.0104 39.7102C77.4736 39.7182 76.9342 39.7102 76.4369 39.7102C76.1001 40.5515 75.787 41.337 75.4055 42.2923C75.7554 42.6055 76.2211 42.977 76.6316 43.4042C77.2078 44.0066 77.2184 44.5745 76.6474 45.1875C75.8896 45.9996 75.1081 46.7877 74.3004 47.552C73.7241 48.096 73.1637 48.0881 72.5901 47.544C72.1612 47.138 71.7902 46.6683 71.4087 46.249C70.5114 46.6126 69.7326 46.9257 68.9037 47.2628C68.9037 47.8147 68.9116 48.3853 68.9037 48.9532C68.8853 49.8554 68.4801 50.3172 67.6039 50.3464C66.5514 50.3782 65.4937 50.3782 64.4412 50.3464C63.6387 50.3225 63.1756 49.8342 63.1308 49.0116C63.1019 48.4437 63.1256 47.8758 63.1256 47.3238C62.3231 46.9868 61.5732 46.671 60.5259 46.2305C60.2839 46.5436 59.9734 47.0239 59.5813 47.4246C58.8946 48.1226 58.3289 48.1252 57.6448 47.4618C56.8843 46.7267 56.1397 45.973 55.4109 45.2035C54.8241 44.5851 54.8504 43.9801 55.4503 43.3697C55.6845 43.1309 55.9371 42.908 56.1818 42.6771C56.4055 42.4648 56.6265 42.2499 56.858 42.0269C56.5949 41.3423 56.3686 40.6576 56.0634 40.0101C55.9713 39.8164 55.6714 39.6439 55.4477 39.6121C54.9925 39.5484 54.5241 39.6121 54.0611 39.5829C53.298 39.5404 52.8744 39.1211 52.8586 38.3568C52.8375 37.2423 52.8349 36.1251 52.8586 35.0105C52.8744 34.2515 53.3427 33.6942 54.0689 33.8216C55.5503 34.0817 56.2844 33.4634 56.5633 32.0702C56.6081 31.8499 56.7554 31.6509 56.9396 31.2661C56.5397 30.9105 56.0766 30.5443 55.6661 30.125C55.0583 29.504 55.0556 28.9228 55.6582 28.2913C56.387 27.5243 57.1343 26.7707 57.8947 26.0356C58.5604 25.3934 59.1025 25.4067 59.776 26.0409C59.9839 26.2346 60.1918 26.431 60.3733 26.6486C60.5575 26.8662 60.7101 27.1077 60.8312 27.2775H60.8259ZM71.856 36.7275C71.8612 33.4501 69.4142 30.9556 66.1752 30.9397C62.9782 30.9238 60.4181 33.4713 60.4075 36.6717C60.3996 39.8668 62.9572 42.4754 66.1173 42.494C69.3116 42.5126 71.8481 39.9623 71.8533 36.7275H71.856Z" fill="#FF4756"/>
<path id="Vector_3" d="M27.8809 51.4637C24.3683 51.4637 20.8582 51.4637 17.3456 51.4637C15.6721 51.4637 15.1669 50.9861 15.2274 49.2638C15.2879 47.5203 15.2406 45.729 15.6326 44.0519C16.5193 40.2358 20.0425 37.4547 23.9289 37.3433C26.6495 37.2663 29.3781 37.2557 32.0988 37.3433C36.6218 37.4919 40.4739 41.4884 40.5871 46.0422C40.6134 47.1329 40.6055 48.2262 40.6055 49.3195C40.6055 50.9701 40.1266 51.4611 38.5163 51.4637C34.9721 51.4664 31.4278 51.4637 27.8809 51.4637Z" fill="#FF4756"/>
<path id="Vector_4" d="M21.6758 28.3816C21.6679 24.7752 24.3649 22.0472 27.9302 22.0498C31.4771 22.0498 34.2504 24.8442 34.2241 28.3869C34.1978 31.8766 31.4323 34.6762 27.9749 34.7134C24.4728 34.7505 21.6837 31.9482 21.6758 28.3816Z" fill="#FF4756"/>
</g>
</svg>
