<svg width="82" height="92" viewBox="0 0 82 92" fill="none" xmlns="http://www.w3.org/2000/svg">
<g id="Group 106">
<path id="Vector" d="M43.5433 10.6155C44.7854 10.8257 46.0337 11.0104 47.2694 11.2524C58.87 13.5306 68.5725 23.2546 70.8973 34.9171C73.5618 48.2802 67.6129 61.2887 55.7745 67.8132C54.2841 68.6348 53.5325 69.6646 53.7087 71.3525C53.73 71.5605 53.7108 71.7729 53.7108 71.862C46.004 71.4013 38.3184 71.7431 30.6392 71.6688C29.8855 71.6624 29.1296 71.8833 28.2825 72.0149C28.2825 71.6922 28.2655 71.3355 28.2846 70.9809C28.3653 69.5796 27.7475 68.6454 26.5097 67.9851C21.7115 65.4225 17.8539 61.8259 15.0153 57.1847C11.2043 50.9554 9.75639 44.1952 10.7797 36.9553C12.6374 23.8682 22.168 13.8172 35.1847 11.1675C36.3184 10.9361 37.4713 10.7981 38.6135 10.6155C40.2568 10.6155 41.8979 10.6155 43.5412 10.6155H43.5433ZM54.6832 38.588C54.1609 37.2462 53.7342 35.9659 53.1695 34.7493C52.5007 33.3098 52.4476 33.3332 53.5155 32.1994C54.5516 31.0975 54.5813 29.5646 53.5856 28.5667C52.5601 27.5391 51.0081 27.5667 49.902 28.6686C49.5326 29.0381 49.246 29.4903 48.9233 29.9043C48.8744 29.7875 48.8256 29.6729 48.7789 29.5561C47.0592 28.8512 45.3374 28.1463 43.5455 27.4117C43.5455 26.9637 43.5688 26.4075 43.5412 25.8555C43.469 24.4202 42.3417 23.3204 40.9829 23.3332C39.6092 23.3459 38.5222 24.4414 38.4628 25.8916C38.4394 26.4457 38.4585 26.9998 38.4585 27.4606C37.2038 27.9404 36.0191 28.3693 34.8535 28.8512C34.2973 29.0805 33.7495 29.6793 33.2591 29.6177C32.7686 29.5561 32.3652 28.8703 31.9088 28.4733C30.8812 27.5795 29.3972 27.6092 28.4503 28.5328C27.4779 29.4797 27.429 30.9977 28.3526 32.0466C28.6668 32.4033 29.0405 32.709 29.3462 33.072C29.4545 33.1994 29.533 33.467 29.4715 33.6028C28.7454 35.2313 27.9917 36.8449 27.1913 38.5859C26.8792 38.5859 26.3505 38.5731 25.824 38.588C24.3251 38.6326 23.2041 39.7218 23.1998 41.123C23.1956 42.5137 24.3272 43.6241 25.8155 43.6708C26.3632 43.6878 26.911 43.6729 27.2656 43.6729C28.0405 45.5349 28.7539 47.2547 29.5394 49.1401C29.2209 49.4246 28.7517 49.7812 28.3632 50.208C27.4248 51.2377 27.4779 52.7728 28.446 53.7197C29.3908 54.6454 30.8791 54.6836 31.9045 53.7898C32.2633 53.4777 32.5648 53.0976 32.9342 52.7982C33.0744 52.6836 33.3716 52.6178 33.5266 52.6878C35.1338 53.3991 36.7282 54.1422 38.4585 54.9363C38.4585 55.1995 38.4522 55.7006 38.4585 56.2017C38.484 57.7601 39.5498 58.9087 40.9786 58.9257C42.4266 58.9448 43.5221 57.7707 43.5476 56.1698C43.5561 55.673 43.5476 55.1741 43.5476 54.8598C45.3926 54.0934 47.1123 53.3779 49.0315 52.5796C49.2991 52.8853 49.6451 53.3609 50.0697 53.7515C51.1016 54.7006 52.6238 54.656 53.5813 53.6942C54.5389 52.7303 54.5622 51.2292 53.6238 50.1783C53.3775 49.9023 53.1228 49.6263 52.8361 49.3927C52.4412 49.07 52.4349 48.8046 52.6875 48.3333C53.248 47.2908 53.7066 46.191 54.1652 45.0976C54.3541 44.6496 54.4306 44.1528 54.5601 43.6708C55.1609 43.6708 55.6896 43.6878 56.2182 43.6666C57.7001 43.6092 58.8275 42.4755 58.7999 41.0869C58.7744 39.7175 57.6683 38.639 56.2204 38.5837C55.6917 38.5646 55.163 38.5795 54.679 38.5795L54.6832 38.588Z" fill="#0193FA"/>
<path id="Vector_2" d="M81.6927 41.7684C81.1004 43.1909 80.0494 43.8236 78.5038 43.6814C77.8733 43.624 77.2342 43.6814 76.5994 43.6708C75.1324 43.6453 74.0517 42.5412 74.0666 41.0911C74.0793 39.6877 75.1621 38.6177 76.5994 38.5943C77.2342 38.5837 77.8733 38.641 78.5038 38.5837C80.0516 38.4414 81.0982 39.0784 81.6927 40.4966V41.7684Z" fill="#0193FA"/>
<path id="Vector_3" d="M41.0843 76.739C44.3666 76.739 47.6489 76.7368 50.9333 76.739C52.721 76.739 53.7316 77.7453 53.7082 79.5521C53.6827 81.6647 53.8165 83.8069 53.515 85.8855C53.0097 89.3781 49.7762 91.9662 46.2349 91.9853C42.7403 92.0044 39.2457 92.0065 35.7511 91.9853C31.7044 91.9598 28.3266 88.5776 28.2905 84.5394C28.2735 82.7921 28.2778 81.0447 28.2905 79.2995C28.3011 77.809 29.3542 76.7474 30.8403 76.7432C34.2564 76.7326 37.6703 76.739 41.0864 76.739H41.0843Z" fill="#FF4756"/>
<path id="Vector_4" d="M15.7461 18.5327C15.5423 18.4902 15.2196 18.4987 14.9818 18.3586C13.5742 17.5327 12.3747 16.4456 11.6379 14.9934C11.1178 13.97 11.6146 12.7258 12.5615 12.0655C13.5254 11.3946 14.7525 11.4159 15.6379 12.2035C16.3852 12.8702 17.1028 13.5794 17.7631 14.3309C18.4722 15.1356 18.5741 16.0868 18.1091 17.0613C17.6569 18.0082 16.8523 18.4435 15.7461 18.5305V18.5327Z" fill="#0193FA"/>
<path id="Vector_5" d="M38.747 7.96565C38.6329 7.7915 38.3987 7.56931 38.3296 7.30209C37.9183 5.72275 37.8387 4.10588 38.3447 2.55806C38.7005 1.46663 39.9316 0.938161 41.068 1.14082C42.224 1.34798 43.0767 2.23072 43.1458 3.41372C43.2028 4.41357 43.2088 5.42243 43.1442 6.42078C43.0766 7.49119 42.4761 8.23583 41.4583 8.59615C40.4689 8.94596 39.5922 8.68475 38.7485 7.96414L38.747 7.96565Z" fill="#0193FA"/>
<path id="Vector_6" d="M66.3939 18.5453C65.1455 18.4455 64.343 18.0103 63.8886 17.0634C63.4216 16.0888 63.5235 15.1377 64.2305 14.333C64.8907 13.5814 65.6083 12.8701 66.3578 12.2056C67.3365 11.3372 68.8057 11.4115 69.7441 12.3096C70.6571 13.1844 70.846 14.6493 70.0392 15.6196C69.3174 16.488 68.4915 17.2842 67.6338 18.0188C67.2601 18.3394 66.6869 18.4264 66.3939 18.5432V18.5453Z" fill="#0193FA"/>
<path id="Vector_7" d="M14.2388 70.6921C13.0201 70.603 12.2133 70.1783 11.7484 69.2378C11.2664 68.2675 11.3577 67.3121 12.0605 66.5053C12.7356 65.7303 13.4702 65.0021 14.2451 64.3269C15.2069 63.4883 16.6464 63.5753 17.5657 64.4437C18.4913 65.3185 18.7036 66.7771 17.9011 67.7473C17.1644 68.6369 16.3109 69.4416 15.4362 70.1975C15.0838 70.5011 14.5339 70.5775 14.2388 70.6943V70.6921Z" fill="#0193FA"/>
<path id="Vector_8" d="M70.5677 67.8536C70.4679 69.119 70.0433 69.9237 69.1006 70.3886C68.1579 70.8515 67.2195 70.7814 66.4298 70.1126C65.6272 69.4311 64.8799 68.6731 64.1878 67.8791C63.3258 66.8897 63.4468 65.4311 64.3788 64.5033C65.2833 63.603 66.7249 63.4565 67.693 64.2782C68.5146 64.9746 69.2832 65.7538 69.9817 66.5755C70.3193 66.9725 70.436 67.5542 70.5677 67.8557V67.8536Z" fill="#0193FA"/>
<path id="Vector_9" d="M4.09409 43.6708C3.66947 43.6708 3.24697 43.6793 2.82235 43.6708C1.39563 43.6389 0.312853 42.5497 0.308606 41.1442C0.30436 39.7259 1.37015 38.624 2.79475 38.5964C3.66947 38.5794 4.54418 38.5816 5.41678 38.5964C6.84137 38.6198 7.92628 39.7153 7.93052 41.1209C7.93477 42.5349 6.86473 43.6368 5.44225 43.6729C4.99216 43.6835 4.54206 43.6729 4.09196 43.6729L4.09409 43.6708Z" fill="#0193FA"/>
<path id="Vector_10" d="M40.9647 32.4139C45.7459 32.3906 49.7204 36.3524 49.7182 41.1358C49.7161 45.8874 45.7905 49.8259 41.0348 49.8492C36.2578 49.8726 32.277 45.9044 32.2813 41.1252C32.2855 36.3736 36.209 32.4352 40.9647 32.4139Z" fill="#0193FA"/>
</g>
</svg>
