<svg width="67" height="67" viewBox="0 0 67 67" fill="none" xmlns="http://www.w3.org/2000/svg">
<g id="Group 76">
<path id="Vector" d="M36.2319 67C26.9469 67 17.6619 67.0037 8.37499 67C4.31905 66.9981 1.0149 64.3161 0.194433 60.3478C0.0607821 59.6972 0.00880674 59.017 0.00695047 58.3516C-0.000474585 41.7944 -0.00233085 25.239 0.00323794 8.68544C0.00509421 4.22039 2.76907 0.865566 7.0589 0.111195C7.55638 0.0240808 8.07242 0.0352017 8.58104 0.0352017C21.1554 0.0314948 33.7278 0.0908065 46.3022 -1.45844e-05C50.553 -0.0315239 54.906 3.18243 54.8985 8.60018C54.8911 13.6176 54.8985 18.635 54.8985 23.6524C54.8985 24.374 55.2698 24.7348 56.0123 24.7348C58.8839 24.7348 61.7556 24.733 64.6254 24.7348C66.1048 24.7348 66.7601 25.3261 66.8213 26.8015C66.8696 27.9321 66.851 29.0664 66.8269 30.1989C66.8046 31.1572 66.4408 31.9078 65.4198 32.1766C64.9465 32.3008 65.0337 32.6956 65.03 33.0273C65.0096 34.6213 65.0245 36.2191 64.6235 37.7797C63.7863 41.0381 61.9523 43.5848 59.1271 45.4179C58.4756 45.8405 58.4774 45.8294 59.0974 46.2409C62.7598 48.6708 64.7664 52.0497 64.9484 56.4647C64.9799 57.2265 65.0152 57.9883 65.0208 58.7501C65.0226 59.1449 65.1173 59.4007 65.5516 59.5008C66.5429 59.725 66.9457 60.446 66.9717 61.3858C67.0051 62.5868 67.0162 63.7916 66.9717 64.9927C66.9234 66.2975 66.1772 66.9536 64.7831 66.9611C61.4716 66.9759 58.16 66.974 54.8503 66.9759C48.6448 66.9759 42.4393 66.9759 36.2338 66.9759V66.9981L36.2319 67ZM46.2409 45.885C46.1574 45.6385 45.9551 45.6033 45.8047 45.5088C42.8477 43.6367 40.9636 41.0011 40.1208 37.6092C39.7366 36.0597 39.8498 34.486 39.8424 32.9161C39.8405 32.488 39.7329 32.2581 39.2688 32.1358C38.4613 31.9227 38.0455 31.337 38.0307 30.501C38.0103 29.3 38.0195 28.0971 38.0232 26.8941C38.027 25.3242 38.6247 24.7367 40.2211 24.7367C44.0635 24.7348 47.9079 24.7237 51.7503 24.7478C52.3963 24.7515 52.6339 24.5977 52.6302 23.9045C52.6023 18.8648 52.6172 13.8252 52.6135 8.78553C52.6135 8.13681 52.5504 7.48994 52.4 6.86161C51.7392 4.12215 49.4374 2.32426 46.5175 2.3187C38.7156 2.30387 30.9138 2.31314 23.11 2.31314C18.2243 2.31314 13.3405 2.32426 8.45481 2.30758C7.13686 2.30387 5.934 2.61341 4.86108 3.37705C2.9547 4.7338 2.27716 6.65958 2.27716 8.91528C2.28273 25.1444 2.28087 41.3718 2.27902 57.6009C2.27902 58.2015 2.30501 58.8001 2.36998 59.3988C2.69853 62.4163 5.10982 64.6942 8.15038 64.7035C17.7825 64.7313 27.4128 64.7128 37.045 64.7257C37.6167 64.7257 37.8209 64.5293 37.8172 63.9603C37.8116 62.9686 37.7374 61.9733 37.8822 60.9835C37.9676 60.3941 38.2311 59.7936 38.7917 59.6991C39.9352 59.5063 39.8906 58.7631 39.8405 57.9383C39.8201 57.5935 39.8405 57.2451 39.8368 56.8985C39.8108 53.8087 40.8522 51.1119 42.8198 48.7449C43.7888 47.5772 44.9824 46.6839 46.2428 45.885H46.2409ZM52.3963 32.0394C49.2258 32.0394 46.0534 32.0506 42.8829 32.0302C42.3242 32.0265 42.0792 32.184 42.1089 32.7716C42.146 33.5093 42.1089 34.2506 42.1256 34.9902C42.2165 38.7602 43.9447 41.5942 47.0874 43.6126C47.893 44.1298 48.7859 44.4486 49.6917 44.7377C50.2096 44.9027 50.5085 45.2641 50.5233 45.8109C50.5382 46.3632 50.2467 46.7228 49.74 46.9174C49.5451 46.9915 49.3483 47.0583 49.1516 47.1231C46.7254 47.935 44.8877 49.4604 43.5382 51.6271C42.1144 53.9106 42.0272 56.4295 42.1274 58.9929C42.1441 59.4266 42.4541 59.4303 42.7679 59.4303C49.1794 59.4303 55.5909 59.4266 62.0043 59.4377C62.5278 59.4377 62.6986 59.2227 62.6837 58.7316C62.6596 57.992 62.6874 57.2525 62.6633 56.5129C62.5631 53.223 61.1263 50.6188 58.5424 48.6245C57.5623 47.8682 56.4597 47.3419 55.2698 46.9934C54.6925 46.8247 54.2748 46.4967 54.2878 45.822C54.3008 45.1918 54.6814 44.8693 55.2364 44.6932C55.4127 44.6376 55.5891 44.582 55.7636 44.5208C58.5461 43.5329 60.5267 41.6813 61.7983 39.0234C62.745 37.0457 62.6819 34.9476 62.6911 32.842C62.6949 32.1951 62.4684 32.019 61.841 32.0246C58.6927 32.0524 55.5445 32.0376 52.3963 32.0376V32.0394Z" fill="#330949"/>
<path id="Vector_2" d="M15.529 24.542C15.2506 24.542 14.974 24.5475 14.6955 24.542C14.1999 24.5308 13.7618 24.2899 13.7024 23.8284C13.5465 22.6143 12.4309 22.7181 11.7162 22.2826C11.4916 22.1454 11.2856 22.3827 11.0944 22.5013C10.4744 22.8812 9.91008 22.8201 9.39404 22.3104C9.14715 22.0657 8.90027 21.8229 8.65524 21.5764C7.87747 20.7924 7.82735 20.4977 8.36752 19.5134C8.51045 19.2558 8.50117 19.0519 8.3768 18.8036C8.22088 18.494 8.06866 18.1771 7.97214 17.849C7.85891 17.4672 7.63058 17.2689 7.25005 17.2003C7.09227 17.1725 6.91964 17.1428 6.7897 17.0594C5.76875 16.4033 6.16785 15.3672 6.14 14.4664C6.12144 13.8344 6.45 13.3432 7.12939 13.232C7.60645 13.1541 7.85891 12.902 7.98328 12.4535C8.05753 12.1885 8.15962 11.9215 8.30255 11.688C8.5086 11.347 8.47704 11.0764 8.25615 10.739C7.77723 10.005 7.83477 9.64546 8.43249 9.01898C8.65524 8.78544 8.88913 8.55931 9.11745 8.33133C9.96948 7.48429 10.1254 7.45278 11.2187 8.0218C11.4545 8.14599 11.6438 8.13857 11.8684 8.02551C12.1357 7.8902 12.4068 7.74192 12.6945 7.66778C13.1957 7.53804 13.5168 7.2804 13.5669 6.74104C13.5781 6.62983 13.6133 6.5075 13.6746 6.41482C14.3206 5.42877 15.3322 5.81615 16.2158 5.77537C16.8581 5.74571 17.3036 6.09232 17.5003 6.72992C17.7844 7.65296 19.2619 8.27758 20.0917 7.81421C20.6764 7.488 21.1906 7.52692 21.6658 8.00697C21.9257 8.27017 22.193 8.52595 22.4529 8.78915C23.2473 9.58985 23.29 9.83081 22.7424 10.8428C22.6032 11.0986 22.6032 11.3043 22.7294 11.5527C22.8854 11.8622 23.0376 12.1773 23.136 12.5073C23.2492 12.8798 23.4627 13.0596 23.8451 13.1597C24.7398 13.3932 24.918 13.6564 24.9291 14.5832C24.9328 14.8834 24.9291 15.1837 24.9291 15.484C24.9273 16.7276 24.8883 16.7907 23.6836 17.1929C23.4348 17.2763 23.3067 17.4264 23.2195 17.6581C23.0803 18.0251 22.9466 18.3976 22.7647 18.7442C22.6032 19.0519 22.6496 19.2892 22.8241 19.5765C23.2975 20.3586 23.2362 20.7757 22.6088 21.4281C22.3359 21.7117 22.05 21.9823 21.7753 22.2622C21.2686 22.7793 20.6968 22.8998 20.0954 22.4679C19.7186 22.1992 19.3956 22.2158 19.0132 22.4364C18.7348 22.5958 18.4229 22.7015 18.1166 22.8052C17.8493 22.8961 17.7101 23.0684 17.6191 23.3298C17.2256 24.4678 17.1124 24.5438 15.9429 24.5457C15.8037 24.5457 15.6645 24.5457 15.5271 24.5457C15.5271 24.5457 15.5271 24.542 15.5271 24.5401L15.529 24.542ZM11.7181 15.1763C11.7144 17.2893 13.4407 19.0278 15.5494 19.0371C17.6358 19.0464 19.3919 17.2967 19.4123 15.1911C19.4327 13.1004 17.6804 11.3544 15.5624 11.3544C13.4203 11.3544 11.7218 13.0411 11.7181 15.1763Z" fill="#0193FA"/>
<path id="Vector_3" d="M11.6496 36.8919C10.7716 36.8919 9.89361 36.9067 9.0156 36.8863C7.85543 36.8585 7.06838 36.0782 7.04796 34.9124C7.02383 33.5056 7.02939 32.0969 7.04239 30.6901C7.05352 29.4075 7.79603 28.566 9.07128 28.5252C10.8032 28.4696 12.5388 28.477 14.2707 28.5215C15.468 28.553 16.2476 29.2518 16.346 30.4343C16.4759 31.995 16.5038 33.5704 16.3219 35.1311C16.1919 36.2506 15.4216 36.8734 14.2855 36.89C13.4075 36.903 12.5295 36.8919 11.6515 36.8919H11.6496Z" fill="#FF4756"/>
<path id="Vector_4" d="M11.6397 48.8248C10.7598 48.8248 9.87993 48.8414 9.00191 48.8192C7.8733 48.7933 7.0714 48.0185 7.05098 46.8971C7.02314 45.418 7.02685 43.939 7.04912 42.4599C7.06397 41.4367 7.68768 40.6453 8.7012 40.5434C10.6818 40.3469 12.6755 40.3599 14.6561 40.5397C15.6046 40.6249 16.2209 41.2662 16.3175 42.2263C16.4845 43.8815 16.5049 45.5496 16.2989 47.203C16.1801 48.1612 15.3967 48.7766 14.4166 48.8229C14.3702 48.8248 14.3238 48.8248 14.2774 48.8248C13.3975 48.8248 12.5177 48.8248 11.6397 48.8248Z" fill="#FF4756"/>
<path id="Vector_5" d="M11.6773 60.7611C10.7974 60.7611 9.91752 60.7759 9.03765 60.7574C7.86449 60.7333 7.06815 59.9622 7.04959 58.8019C7.0236 57.3469 7.02731 55.8901 7.04773 54.4332C7.06258 53.3527 7.71042 52.6039 8.80376 52.45C10.0679 52.2739 11.345 52.3981 12.6184 52.3833C13.2866 52.3759 13.9605 52.3203 14.6269 52.45C15.5791 52.6335 16.2121 53.1803 16.3142 54.1274C16.4924 55.8048 16.5091 57.4971 16.2975 59.1726C16.1806 60.0975 15.4046 60.724 14.4579 60.7518C13.5335 60.7796 12.6054 60.7574 11.681 60.7574C11.681 60.7574 11.681 60.7592 11.681 60.7611H11.6773Z" fill="#FF4756"/>
<path id="Vector_6" d="M39.0503 10.1533C41.779 10.1533 44.5077 10.1533 47.2364 10.1533C47.6597 10.1533 48.068 10.17 48.3817 10.5203C48.9219 11.1245 48.6806 12.0643 47.888 12.3071C47.5631 12.4053 47.2049 12.4238 46.8615 12.4257C41.6584 12.4331 36.4571 12.4313 31.254 12.4294C31.0238 12.4294 30.7899 12.4238 30.5635 12.3812C29.8841 12.2533 29.5277 11.814 29.5629 11.182C29.5982 10.5555 30.0066 10.1681 30.7268 10.1644C33.5019 10.1515 36.277 10.1589 39.0503 10.1589V10.1552V10.1533Z" fill="#FF9839"/>
<path id="Vector_7" d="M36.2041 15.1968C38.1142 15.1968 40.0243 15.1968 41.9344 15.1968C42.2314 15.1968 42.5173 15.2135 42.7363 15.5638C43.115 16.168 42.946 17.1077 42.391 17.3505C42.1646 17.4488 41.9121 17.4673 41.6727 17.4692C38.0307 17.4766 34.3887 17.4747 30.7448 17.4729C30.5833 17.4729 30.42 17.4673 30.2622 17.4247C29.787 17.2968 29.5364 16.8575 29.5624 16.2255C29.5884 15.599 29.8724 15.2116 30.3773 15.2079C32.3189 15.1949 34.2624 15.2023 36.206 15.2023V15.1986L36.2041 15.1968Z" fill="#FF9839"/>
<path id="Vector_8" d="M28.2287 41.7944C30.7718 41.7944 33.3149 41.7981 35.8598 41.7925C36.3239 41.7925 36.736 41.8778 37.007 42.2948C37.4024 42.9028 37.1425 43.6905 36.4557 43.9518C36.1253 44.0779 35.7763 44.076 35.4292 44.0742C30.6196 44.0742 25.81 44.0742 21.0004 44.0705C20.748 44.0705 20.4881 44.0649 20.2431 44.0093C19.5915 43.8647 19.2203 43.3587 19.2945 42.7619C19.3651 42.2003 19.8106 41.8111 20.4603 41.7981C21.4534 41.7795 22.4483 41.7907 23.4433 41.7907C25.0378 41.7907 26.6342 41.7907 28.2287 41.7907V41.7944Z" fill="#FF9839"/>
<path id="Vector_9" d="M28.285 53.7253C30.8058 53.7253 33.3247 53.729 35.8456 53.7234C36.3375 53.7234 36.7663 53.8179 37.0336 54.2776C37.3862 54.8856 37.1264 55.6232 36.4674 55.8809C36.137 56.0106 35.7899 56.0069 35.4409 56.0069C30.6313 56.0069 25.8236 56.0069 21.014 56.0032C20.717 56.0032 20.407 55.9865 20.1248 55.9068C19.5364 55.7419 19.2283 55.3193 19.3044 54.7132C19.3786 54.1126 19.7666 53.7586 20.3792 53.7382C21.1421 53.7123 21.905 53.7271 22.6679 53.7271C24.5409 53.7271 26.4139 53.7271 28.2868 53.7271L28.285 53.7253Z" fill="#FF9839"/>
<path id="Vector_10" d="M27.4744 29.8541C29.765 29.8541 32.0538 29.8578 34.3444 29.8541C34.9254 29.8541 35.4006 30.0098 35.6122 30.6048C35.8164 31.1812 35.525 31.817 34.9347 32.0023C34.6321 32.0987 34.298 32.1247 33.9787 32.1247C29.6759 32.1321 25.3731 32.1302 21.0703 32.1284C20.8178 32.1284 20.5598 32.1172 20.311 32.0728C19.6279 31.9504 19.2493 31.5 19.2901 30.8902C19.3291 30.2934 19.7802 29.8727 20.4651 29.8634C21.8759 29.8449 23.2866 29.8541 24.6974 29.8541C25.6218 29.8541 26.5481 29.8541 27.4725 29.8541H27.4744Z" fill="#FF9839"/>
<path id="Vector_11" d="M24.2565 35.6334C23.0536 35.6334 21.8508 35.6426 20.6479 35.6297C19.7996 35.6204 19.2817 35.1663 19.2891 34.4768C19.2966 33.791 19.8126 33.3517 20.6739 33.348C23.1038 33.3387 25.5318 33.3387 27.9616 33.348C28.8248 33.3517 29.3427 33.7836 29.3557 34.4675C29.3705 35.1756 28.8359 35.6241 27.9356 35.6297C26.7086 35.6389 25.4835 35.6315 24.2565 35.6315V35.6334Z" fill="#FF9839"/>
<path id="Vector_12" d="M24.2529 47.5643C23.05 47.5643 21.8472 47.5736 20.6443 47.5606C19.7979 47.5514 19.2781 47.0935 19.2892 46.4059C19.3004 45.7405 19.8016 45.2864 20.609 45.2827C23.0853 45.2697 25.5597 45.2697 28.036 45.2827C28.8434 45.2864 29.3446 45.7405 29.3558 46.4059C29.3669 47.0935 28.8471 47.5532 28.0007 47.5606C26.7514 47.5736 25.5022 47.5643 24.2529 47.5643Z" fill="#FF9839"/>
<path id="Vector_13" d="M24.2529 59.4989C23.05 59.4989 21.8453 59.5082 20.6425 59.4952C19.7923 59.486 19.2781 59.03 19.2892 58.3387C19.3004 57.6733 19.8016 57.2191 20.609 57.2136C23.0853 57.2006 25.5616 57.2006 28.0378 57.2136C28.8453 57.2173 29.3465 57.6751 29.3576 58.3387C29.3688 59.03 28.8527 59.4841 28.0025 59.4934C26.7533 59.5064 25.504 59.4971 24.2529 59.4971V59.4989Z" fill="#FF9839"/>
<path id="Vector_14" d="M52.3888 58.12C49.8884 58.12 47.388 58.1237 44.8876 58.12C43.8982 58.1181 43.5994 57.8142 43.5901 56.8448C43.5604 53.034 46.1091 49.5902 49.79 48.4652C51.353 47.9888 51.5293 47.772 51.6407 46.1464C51.6611 45.8462 51.6574 45.5459 51.6556 45.2456C51.6444 44.2503 51.2082 43.6554 50.2318 43.3755C48.0804 42.7583 46.3522 41.5591 45.0751 39.7185C44.7707 39.2811 44.5405 38.8289 44.8171 38.3062C45.0862 37.7983 45.5837 37.7798 46.0849 37.7798C50.2986 37.7835 54.5124 37.7835 58.7261 37.7798C59.231 37.7798 59.721 37.815 59.9902 38.3173C60.2593 38.8159 60.0366 39.2496 59.7526 39.6685C58.6128 41.3552 57.0851 42.5321 55.1528 43.1846C53.6696 43.685 53.3745 44.0946 53.4172 45.6682C53.4302 46.1742 53.4858 46.6821 53.5601 47.1844C53.664 47.9054 54.1912 48.2038 54.8261 48.404C56.8809 49.049 58.5739 50.1982 59.7656 52.0183C60.7253 53.4863 61.2432 55.0895 61.2042 56.8596C61.1838 57.7993 60.896 58.1181 59.9623 58.1218C57.4378 58.1293 54.9152 58.1237 52.3906 58.1237L52.3888 58.12Z" fill="#F6C014"/>
</g>
</svg>
