<svg width="71" height="70" viewBox="0 0 71 70" fill="none" xmlns="http://www.w3.org/2000/svg">
<g id="Group 75">
<path id="Vector" d="M28.6094 49.0178C28.6483 38.2082 36.8509 29.1666 47.602 28.1249C59.163 27.0054 69.4138 35.4338 70.5177 46.9715C70.9889 51.8915 69.8441 56.4143 67.1436 60.5419C66.8828 60.941 66.8594 61.235 67.0502 61.6633C67.9263 63.6356 68.7713 65.6215 69.6066 67.6113C69.8051 68.0863 70.2043 68.7016 69.663 69.0618C69.3476 69.272 68.6856 69.1416 68.2573 68.9683C66.2558 68.1623 64.2738 67.3095 62.3074 66.4217C61.8343 66.2075 61.5247 66.2854 61.1256 66.5482C48.2562 75.0195 30.8659 67.0642 28.8333 51.7747C28.7126 50.8616 28.6814 49.9367 28.6074 49.0178H28.6094ZM47.3002 50.332C46.2995 49.339 45.3299 48.3597 44.3389 47.3999C43.3498 46.442 41.9344 46.4283 41.0076 47.3414C40.075 48.2604 40.0595 49.6934 41.0154 50.6708C42.5282 52.2147 44.0566 53.7431 45.5986 55.2578C46.6168 56.2566 47.9778 56.2858 48.9843 55.2909C52.1092 52.1991 55.2107 49.084 58.3103 45.9669C58.9197 45.3536 59.1124 44.5865 58.8924 43.7474C58.4213 41.9484 56.2777 41.4207 54.9031 42.7758C52.3798 45.266 49.8741 47.7737 47.3022 50.332H47.3002Z" fill="#FF4756"/>
<path id="Vector_2" d="M21.6664 41.9755C17.4785 41.9813 13.6235 40.8443 10.1307 38.5274C9.73544 38.2646 9.4434 38.2373 9.01312 38.4281C7.10704 39.275 5.18734 40.0889 3.26374 40.893C2.72832 41.1169 2.11698 41.6056 1.58546 41.0604C1.08704 40.5503 1.54847 39.9565 1.76458 39.4405C2.58036 37.4955 3.41171 35.5563 4.26643 33.6269C4.44555 33.2239 4.40466 32.9416 4.16324 32.5717C-3.75701 20.481 2.40513 4.41858 16.3824 0.69599C28.2842 -2.47366 40.5267 5.52446 42.3432 17.7494C42.6352 19.7198 42.4464 21.7602 42.4814 23.7694C42.4911 24.2679 42.2108 24.4528 41.763 24.6066C33.5585 27.4356 28.0427 32.9649 25.2294 41.1753C25.0795 41.6133 24.8789 41.8217 24.4292 41.845C23.9444 41.8684 23.4635 41.9463 22.9787 41.9696C22.5426 41.9911 22.1045 41.9735 21.6684 41.9735L21.6664 41.9755ZM28.6872 14.1008C28.6288 13.6199 28.5937 13.1351 28.5061 12.6601C27.8792 9.21395 24.507 6.69458 21.0064 7.04503C17.4493 7.40133 14.6457 10.4503 14.6613 13.9451C14.6652 14.9789 15.2609 15.857 16.1935 16.2016C17.7141 16.7643 19.1957 15.709 19.3223 13.9743C19.4138 12.7263 20.2958 11.7859 21.4639 11.6924C22.6068 11.6009 23.6952 12.3836 23.9249 13.5265C24.1313 14.5506 23.8684 15.4637 23.039 16.1432C22.3459 16.7117 21.6002 17.2199 20.9168 17.7981C19.9083 18.6528 19.2931 19.7237 19.3281 21.0865C19.3554 22.132 20.1089 23.0335 21.1349 23.2846C22.0792 23.5183 23.261 23.1153 23.6017 22.2002C23.9483 21.2656 24.6433 20.7945 25.3598 20.2727C27.4547 18.7502 28.6327 16.737 28.6852 14.0989L28.6872 14.1008ZM21.6197 25.6833C20.362 25.7008 19.3164 26.7717 19.3242 28.0313C19.334 29.291 20.3931 30.3443 21.6528 30.3443C22.9417 30.3443 24.0106 29.2521 23.9833 27.9612C23.9561 26.7035 22.8794 25.6658 21.6197 25.6833Z" fill="#0193FA"/>
</g>
</svg>
