<?xml version="1.0" encoding="UTF-8"?>
<svg id="Layer_1" data-name="Layer 1" xmlns="http://www.w3.org/2000/svg" viewBox="0 0 200 200">
  <defs>
    <style>
      .cls-1 {
        fill: #5c2e63;
      }
    </style>
  </defs>
  <path class="cls-1" d="M8.61,200c-.52-.23-1.03-.49-1.56-.69-4.2-1.6-7-5.39-7.01-9.87-.04-17.71-.06-35.41,0-53.12,.02-5.91,4.79-10.46,10.86-10.51,8.92-.07,17.83-.02,26.75-.02,10.22,0,20.44-.01,30.66,0,7.34,.01,11.74,4.46,11.75,11.83,0,1.56,0,3.12,0,5.31,5.5-5.87,10.64-11.38,15.9-16.99-.49-.55-.9-1.04-1.34-1.5-8.48-9.09-16.97-18.18-25.45-27.26-2.74-2.94-4.76-2.93-7.49,0-5.78,6.18-11.55,12.36-17.33,18.55-.4,.43-.78,.88-1.22,1.26-1.31,1.13-2.89,1.13-4.04,.02-1.11-1.07-1.16-2.71-.13-4.06,.2-.26,.43-.49,.65-.73,6-6.42,11.99-12.85,18.01-19.25,4.85-5.16,10.75-5.18,15.6-.02,8.29,8.82,16.54,17.69,24.8,26.53,.61,.66,1.23,1.32,1.98,2.12,2.44-2.6,4.78-5.09,7.13-7.6,6.58-7.04,13.14-14.09,19.73-21.11,4.76-5.07,10.71-5.07,15.47,0,9.84,10.49,19.66,21,29.45,31.54,.92,.99,1.83,1.42,3.19,1.39,4.42-.09,8.85-.04,13.28-.03,5.95,.01,9.46,2.53,11.42,8.14,.06,.17,.22,.29,.34,.44v11.33c-.96,1.33-2.07,2.42-3.89,1.76-1.79-.65-2.03-2.15-1.99-3.83,.05-2.02,.02-4.03,.01-6.05-.01-4.09-1.84-5.93-5.97-5.93-18.81,0-37.61,0-56.42,0-4.1,0-5.95,1.85-5.95,5.96,0,16.85,0,33.71,0,50.56,0,4.12,1.83,5.96,5.93,5.96,18.81,0,37.61,0,56.42,0,4.22,0,5.98-1.8,5.99-6.09,0-8.92,.02-17.83-.01-26.75,0-1.69,.24-3.21,2.03-3.79,1.78-.59,2.97,.39,3.84,1.87v32.03c-1.39,4.34-4.26,7.2-8.59,8.59h-62.89c-.15-.11-.27-.28-.44-.34-5.61-1.95-8.13-5.47-8.14-11.39,0-5.91,0-11.83,0-17.74v-2.04h-39.87c0,.83,0,1.53,0,2.24,0,6.11,.03,12.22-.01,18.33-.03,4.77-2.69,8.59-7.02,10.25-.53,.2-1.03,.46-1.55,.69H8.61Zm31.37-5.86c9.44,0,18.88,0,28.32,0,4.09,0,5.91-1.85,5.91-5.99,0-16.86,0-33.72,0-50.58,0-4.01-1.86-5.91-5.8-5.91-18.94-.01-37.89-.01-56.83,0-3.84,0-5.7,1.91-5.7,5.8,0,16.93,0,33.85,0,50.78,0,4.1,1.83,5.89,5.99,5.9,9.37,0,18.75,0,28.12,0Zm124.91-68.34c-.38-.51-.51-.72-.68-.9-8.79-9.42-17.58-18.85-26.39-28.25-2.18-2.32-4.39-2.22-6.68,.24-16.71,17.88-33.42,35.76-50.12,53.65-.38,.41-.89,.94-.9,1.43-.08,3.48-.04,6.97-.04,10.39h39.86c0-.87,0-1.58,0-2.3,0-7.68-.02-15.36,0-23.04,.03-6.58,4.6-11.14,11.19-11.2,3.45-.03,6.9,0,10.35,0,7.67,0,15.35,0,23.4,0Z"/>
  <path class="cls-1" d="M73.01,9.77c1.11,.33,1.87,.5,2.58,.79,1.38,.57,2.73,1.22,4.09,1.84,4.67,2.15,4.68,2.17,9.15-.05,.5-.25,.93-.87,1.16-1.42,1.03-2.53,1.98-5.09,2.93-7.64C93.75,1.09,95.34,0,97.69,0c1.5,0,2.99,.02,4.49,0,2.43-.04,4.08,1.05,4.93,3.35,.86,2.31,1.83,4.59,2.6,6.93,.43,1.28,1.23,1.86,2.39,2.51,2.79,1.58,5.29,1.4,7.94-.22,1.37-.84,2.94-1.37,4.42-2.03,2.13-.96,4-.63,5.73,.99q5.92,5.58,2.6,12.93c-.08,.18-.14,.37-.26,.52-2.35,3.06-1.39,6.05,.23,8.99,.27,.49,.89,.89,1.44,1.11,2.47,.99,4.97,1.9,7.47,2.84,2.18,.82,3.37,2.34,3.35,4.73-.01,1.63,0,3.25,0,4.88,0,2.29-1.12,3.8-3.23,4.61-2.49,.95-5.01,1.82-7.44,2.89-.77,.34-1.39,1.17-1.89,1.9-2,2.92-1.54,5.76,.27,8.62,.76,1.2,1.23,2.58,1.76,3.9,.29,.71,.65,1.51,.59,2.23-.31,3.77-3.51,5.44-5.89,7.62-1.56,1.43-3.53,.88-5.32,0-1.22-.6-2.55-1.02-3.72-1.71-2.61-1.55-5.09-2.05-7.93-.34-1.18,.71-2.09,1.25-2.52,2.62-.66,2.1-1.52,4.14-2.31,6.21-.21,.55-.4,1.11-.7,1.6-2.25,3.63-5.9,2.23-9.06,2.4-2.21,.12-3.85-1.01-4.66-3.16-.88-2.31-1.83-4.59-2.6-6.93-.46-1.41-1.34-2.06-2.63-2.77-2.7-1.48-5.05-1.31-7.58,.22-1.44,.87-3.05,1.43-4.6,2.13-2.13,.96-4.01,.63-5.73-.99q-5.92-5.57-2.6-12.93c.08-.18,.14-.37,.26-.52,2.34-3.06,1.39-6.05-.23-8.99-.27-.49-.89-.89-1.43-1.11-2.35-.95-4.73-1.8-7.1-2.71-2.81-1.07-3.68-2.31-3.72-5.25-.02-1.5,0-2.99,0-4.49-.02-2.3,1.12-3.81,3.22-4.62,2.36-.92,4.71-1.87,7.12-2.66,1.22-.4,1.73-1.18,2.37-2.25,1.76-2.94,1.37-5.56-.31-8.31-.81-1.32-1.3-2.83-1.95-4.25-.95-2.08-.61-3.92,.98-5.54,1.19-1.21,2.31-2.49,3.62-3.55,.91-.74,2.08-1.16,2.97-1.63Zm11.08,59.83c.76,.22,1.46,.37,2.12,.63,1.93,.77,3.95,1.4,5.72,2.44,1.2,.7,2.36,1.84,2.97,3.07,1.16,2.31,2,4.8,2.78,7.27,.45,1.41,1.41,1.23,2.45,1.28,1.07,.05,1.81-.11,2.21-1.33,.76-2.35,1.69-4.64,2.58-6.94,1.45-3.73,9.94-7.19,13.61-5.56,2.26,1.01,4.55,1.94,6.74,3.08,1.36,.71,1.86-.25,2.6-.91,.71-.64,1.2-1.2,.64-2.3-1.17-2.32-2.13-4.74-3.25-7.09-.8-1.67-.7-3.21,.1-4.85,.77-1.57,1.43-3.21,2-4.86,.6-1.73,1.67-2.88,3.39-3.5,2.38-.86,4.71-1.88,7.13-2.64,1.28-.4,1.33-1.19,1.29-2.22-.04-1.02,.17-2.01-1.25-2.46-2.47-.79-4.97-1.61-7.27-2.79-1.27-.65-2.38-1.92-3.14-3.17-.96-1.59-1.4-3.49-2.22-5.18-.76-1.59-.8-3.08-.04-4.68,1.11-2.35,2.08-4.77,3.25-7.09,.55-1.09,.11-1.67-.63-2.3-.74-.63-1.2-1.66-2.57-.97-2.37,1.21-4.77,2.44-7.29,3.25-1.35,.44-3.04,.28-4.46-.08-1.81-.45-3.6-1.21-5.19-2.16-1.25-.75-2.56-1.83-3.21-3.09-1.21-2.35-2.04-4.92-2.86-7.45-.43-1.34-1.35-1.13-2.3-1.14-.96,0-1.86-.17-2.28,1.16-.74,2.35-1.75,4.62-2.56,6.95-.67,1.93-1.89,3.16-3.86,3.79-1.6,.51-3.16,1.19-4.67,1.94-1.65,.81-3.22,.84-4.87,.07-2.18-1.02-4.42-1.91-6.55-3.01-1.27-.66-2.03-.38-2.99,.59-.91,.92-1.2,1.61-.54,2.83,.99,1.82,1.63,3.84,2.62,5.66,1.28,2.35,1.26,4.51-.11,6.81-.69,1.16-1.12,2.49-1.52,3.79-.57,1.82-1.69,3.02-3.48,3.66-2.32,.84-4.6,1.82-6.95,2.57-1.31,.41-1.47,1.19-1.43,2.34,.04,1.07-.04,1.98,1.35,2.38,1.87,.54,3.62,1.46,5.48,2.01,2.85,.85,4.78,2.42,5.44,5.47,.25,1.18,.89,2.3,1.47,3.38,.95,1.75,.95,3.43,.08,5.21-1.06,2.16-1.95,4.4-3,6.56-.49,1-.49,1.65,.35,2.54,1.11,1.17,2.02,1.46,3.5,.64,1.92-1.07,4-1.88,6.03-2.76,.83-.35,1.71-.57,2.55-.85Z"/>
  <path class="cls-1" d="M187.92,83.25c0,10.22,0,20.43,0,30.65,0,.59,.04,1.18-.03,1.76-.18,1.65-1.12,2.63-2.78,2.71-1.69,.07-2.66-.91-2.99-2.5-.13-.63-.06-1.3-.06-1.95,0-20.24,0-40.47,0-60.71,0-4.02-1.19-5.2-5.25-5.2-6.83,0-13.66,.06-20.49-.06-1.09-.02-2.49-.59-3.16-1.39-1.42-1.69-.07-4.33,2.22-4.35,8-.08,16.01-.19,24,.07,4.84,.16,8.51,4.62,8.53,9.74,.04,10.41,.01,20.82,.01,31.23Z"/>
  <path class="cls-1" d="M12.1,83.2c0-10.15,0-20.31,0-30.46,0-6.63,3.92-10.57,10.54-10.59,6.9-.02,13.8-.01,20.7,0,2.38,0,3.63,.98,3.68,2.81,.06,1.9-1.29,3.03-3.69,3.04-6.7,.01-13.41,0-20.11,0-4.07,0-5.26,1.18-5.26,5.19,0,20.18,0,40.36,0,60.54,0,.59,.02,1.17,0,1.76-.1,1.94-1.31,3.23-2.97,3.21-1.67-.02-2.86-1.31-2.87-3.27-.03-7.1-.01-14.19-.01-21.29,0-3.65,0-7.29,0-10.94Z"/>
  <path class="cls-1" d="M143.07,162.89c0-4.36-.02-8.71,0-13.07,.03-4.98,3.7-7.16,8.04-4.76,7.83,4.35,15.64,8.76,23.48,13.1,1.89,1.05,3.26,2.38,3.28,4.67,.03,2.38-1.36,3.76-3.32,4.85-7.79,4.31-15.54,8.68-23.31,13-4.47,2.49-8.15,.36-8.17-4.72-.02-4.36,0-8.71,0-13.07Zm5.97,12.32c7.38-4.13,14.53-8.12,22-12.29-7.49-4.19-14.64-8.18-22-12.3v24.59Z"/>
  <path class="cls-1" d="M39.99,179.95c-6.37,0-12.74,0-19.11,0-.71,0-1.45-.01-2.12-.21-1.44-.42-2.09-1.48-1.99-2.96,.09-1.4,.89-2.28,2.25-2.57,.56-.12,1.16-.11,1.75-.11,12.87,0,25.74,0,38.61,0,.52,0,1.05,0,1.55,.09,1.46,.28,2.29,1.19,2.37,2.67,.08,1.48-.64,2.51-2.08,2.9-.68,.18-1.41,.19-2.12,.19-6.37,.01-12.74,0-19.11,0Z"/>
  <path class="cls-1" d="M39.84,151.73c-6.17,0-12.35,0-18.52,0-.65,0-1.3,.02-1.95-.07-1.65-.21-2.59-1.17-2.59-2.85,0-1.69,.96-2.63,2.6-2.87,.57-.08,1.17-.07,1.75-.07,12.61,0,25.22,0,37.83,0,.52,0,1.04-.02,1.56,.04,1.77,.2,2.81,1.28,2.81,2.9,0,1.62-1.04,2.7-2.81,2.88-.58,.06-1.17,.04-1.75,.04-6.3,0-12.61,0-18.91,0Z"/>
  <path class="cls-1" d="M40.05,165.85c-6.43,0-12.87,.03-19.3-.03-.99,0-2.22-.16-2.9-.75-.65-.56-1.11-1.86-.95-2.7,.16-.83,1.1-1.66,1.9-2.16,.59-.36,1.52-.22,2.29-.22,12.61,0,25.22,0,37.83,0,.26,0,.52,0,.78,0,2.38,.06,3.6,1.05,3.61,2.9,0,1.86-1.23,2.93-3.57,2.94-5.72,.03-11.44,.01-17.16,.01-.84,0-1.69,0-2.53,0Z"/>
  <path class="cls-1" d="M100.05,64.95c-10.98,.03-19.91-8.82-19.97-19.77-.05-11.02,8.89-20.07,19.88-20.1,10.89-.04,19.91,8.92,19.97,19.82,.06,11.08-8.81,20.02-19.88,20.04Zm.04-5.86c7.84-.05,14.05-6.36,13.98-14.23-.06-7.67-6.48-13.99-14.15-13.92-7.78,.06-14.05,6.47-13.98,14.29,.07,7.71,6.39,13.91,14.15,13.86Z"/>
</svg>