<?xml version="1.0" encoding="UTF-8"?>
<svg id="Layer_1" data-name="Layer 1" xmlns="http://www.w3.org/2000/svg" viewBox="0 0 200 200">
  <defs>
    <style>
      .cls-1 {
        fill: #5c2e63;
      }
    </style>
  </defs>
  <path class="cls-1" d="M132.58,87.64c3.61-4.07,3.85-4.01,5.99,1.21,.32,.78,.66,1.55,1.06,2.27,2.24,3.97,5.38,4.45,8.53,1.24,1.65-1.68,3.13-3.56,4.79-5.23,1.08-1.08,2.25-2.13,3.53-2.87,3.94-2.26,7.98-.66,9.44,3.95,2.12,6.69,1.94,13.45-.65,19.97-1.51,3.83-4.64,4.88-7.88,2.61-1.73-1.21-3.11-3.04-4.67-4.57-1.73-1.7-3.37-3.56-5.28-4.96-.71-.52-2.37-.31-3.07,.3-.56,.49-.7,2.31-.31,3.15,.55,1.19,1.6,2.36,2.7,2.95,9.67,5.19,16.45,13.24,20.17,24.33,1.09,3.25,3.15,4.64,6.11,4.98,7.2,.83,13.86,3.22,19.07,9,2.49,2.77,4.66,5.94,6.69,9.15,.81,1.28,.83,3.16,1.2,4.77-.24,.09-.48,.17-.71,.26-2.14-2.09-4.26-4.2-6.42-6.26-10.94-10.42-24.46-11.34-36.47-2.5-5.31,3.91-5.24,3.87-7.33-2.79-4.95-15.78-9.95-31.55-15.01-47.29-.9-2.8-2.15-5.48-3.36-8.14-.26-.57-1.1-1.23-1.62-1.18-11.38,1.1-21.81-2.18-31.63-8.23-5.15-3.17-5.52-3.07-6.39,3.32-.41,2.95-.81,5.91-.93,8.88-.16,4.04,1.09,5.95,4.67,6.72,4.71,1.01,9.47,1.82,14.23,2.42,10.5,1.33,16.95,7.68,20.26,18.6,2.79,9.2,6.1,18.21,9.02,27.37,.96,3.02,1.66,6.21,2.01,9.39,.17,1.53-.46,3.41-1.25,4.77-3.88,6.71-13.15,6.93-17.05,.33-1.76-2.97-3.06-6.31-4.3-9.6-2.55-6.77-5.05-13.57-7.31-20.46-1.69-5.15-4.89-7.35-9.73-8-8.92-1.2-17.81-2.67-26.66-4.42-7.95-1.57-12.22-6.37-13.49-15.03-2.73-18.46-1.41-36.55,4.72-54.1,2.88-8.26,7.8-13.97,16.09-15.62,7.67-1.53,15.11,6.11,13.89,14.62-.23,1.59-1.43,2.99-1.91,4.58-.3,.98-.54,2.52-.07,3.17,6.3,8.89,13.93,15.56,24.59,16.7,2.47,.26,4.98,.05,7.43,.45,5.25,.86,6.39,2.33,6.94,8.04,.05,.54,.24,1.07,.39,1.72Z"/>
  <path class="cls-1" d="M45.66,127.68c9.78,0,19.56,0,29.34,0,.93,0,1.87-.01,2.79,.07,4.51,.4,6.69,3.29,6.18,8.24-.11,1.09-.32,2.21-.68,3.23-2.44,6.93-2.15,13.84-.04,20.78,.81,2.66,1.53,5.36,2.26,8.06,1.14,4.26,2.39,5.38,6.49,5.39,14.28,.03,28.56,0,42.85,.04,1.31,0,2.66,.11,3.9,.5,2.62,.81,4.14,3.5,3.75,6.24-.51,3.54-1.85,4.83-5.16,4.83-19.41,.01-38.81,.01-58.22,0-3.32,0-4.41-1.05-4.81-4.76-.76-6.89-1.85-13.63-5.32-19.65-6.81-11.82-18.54-17.08-31.68-14.08-11.56,2.65-20.87,13.52-22.62,26.51-.31,2.27-.28,4.6-.53,6.88-.4,3.61-1.92,5.08-5.25,5.08-2.01,0-4.05-.02-6.03-.35-2.68-.45-3.29-1.55-2.62-4.42,1.9-8.17,3.76-16.35,5.87-24.45,1.46-5.62,1.6-11.07-.35-16.53-.2-.55-.37-1.12-.52-1.69-1.3-4.96,.39-8.21,5.06-8.72,5.71-.62,11.45-.87,17.19-1.03,6.05-.17,12.11-.04,18.16-.04,0-.04,0-.07,0-.11Z"/>
  <path class="cls-1" d="M27.11,122.4c-6.75,0-13.51-.07-20.26,.04-1.97,.03-2.74-.55-2.71-2.87,.11-8.96,.09-17.93,.01-26.89-.02-1.99,.53-2.73,2.39-2.68,4.73,.11,9.47,.11,14.21,0,1.86-.04,2.65,.53,2.61,2.73-.04,2.55,.18,5.11,.5,7.64,.09,.67,.92,1.28,1.52,1.78,.25,.21,.75,.06,1.14,.07q4.19,.09,4.21-4.58c0-1.71,.05-3.42,.02-5.12-.03-1.69,.57-2.5,2.2-2.49,4.97,.05,9.94,.05,14.91-.01,1.5-.02,2.06,.58,2.05,2.25-.04,9.22-.05,18.44,.02,27.66,.01,1.9-.61,2.54-2.31,2.52-6.83-.07-13.66-.03-20.5-.03Z"/>
  <path class="cls-1" d="M25.13,178.26c-.03-11.97,8.46-21.64,19.02-21.66,11.95-.02,20.46,8.99,20.67,21.48,.16,9.59-6.14,21.86-19.59,21.91-13.43,.05-20.56-11.22-20.09-21.73Z"/>
  <path class="cls-1" d="M191.95,177.88c-.25,12.83-8.16,21.48-19.74,21.72-10.74,.22-19.79-9.95-19.75-21.7,.03-12.27,8.71-21.34,20.39-21.3,10.69,.04,19.12,9.42,19.11,21.27Z"/>
  <path class="cls-1" d="M116.36,15.93c-.43,2.3-.71,4.4-1.21,6.44-2.07,8.44-9.37,14.25-16.83,13.48-8.3-.85-14.84-8.06-15.41-17-.48-7.44,4.13-15.05,10.76-17.73,6.82-2.77,14.79-.33,18.95,6.08,1.55,2.39,3.32,3.84,5.95,4.36,2.51,.49,4.96,1.35,7.42,2.11,1.34,.42,2.57,1.13,2.14,3.02-.42,1.84-1.74,2.02-3.15,1.65-2.78-.74-5.55-1.55-8.6-2.41Z"/>
  <path class="cls-1" d="M27.59,83.49c-6.9,0-13.79,.02-20.69,0-2.51,0-2.62-.39-2.76-3.72-.09-2.35,.93-2.6,2.67-2.59,13.72,.05,27.43,.02,41.15,.03,2.34,0,2.73,.68,2.76,4.57,.02,2.33-1.59,1.67-2.68,1.67-6.82,.05-13.64,.03-20.46,.03,0,0,0,.01,0,.02Z"/>
</svg>