<?xml version="1.0" encoding="UTF-8"?>
<svg id="Layer_1" data-name="Layer 1" xmlns="http://www.w3.org/2000/svg" viewBox="0 0 200 200">
  <defs>
    <style>
      .cls-1 {
        fill: #5c2e63;
      }
    </style>
  </defs>
  <path class="cls-1" d="M25.93,183.88c-6.39,0-12.83,0-19.28,0-.87,0-1.75,0-2.62,0-2.89-.03-4.03-1.14-4.03-4.03-.01-13.37,0-26.75,0-40.12,0-19.22,0-38.44,0-57.66,0-3.71,.93-4.63,4.64-4.63,2.55,0,5.11,.01,7.66,.03,.12,0,.24,.08,.48,.16v6.16H6.59v64.51H70.97c0-.66,0-1.37,0-2.07,0-6.45,0-12.9,0-19.36,0-3.19,1.06-4.26,4.2-4.27,4.96-.01,9.93,0,15.16,0,0-.83,0-1.54,0-2.26,0-6.45,0-12.9,0-19.36,0-3.06,1.09-4.19,4.07-4.19,8.06-.01,16.13-.01,24.19,0,2.87,0,3.98,1.15,3.99,4.07,.01,6.45,0,12.9,0,19.36,0,.72,0,1.45,0,2.38,1.03,0,1.88-.02,2.73,0,2.5,.06,3.7,1.22,3.71,3.74,.03,6.85,.01,13.71,.01,20.57,0,.4,0,.8,0,1.35h6.32V83.93h-19.08v-6.41c.65-.03,1.3-.09,1.95-.09,15.79,0,31.59,.03,47.38-.04,2.18,0,3.61,.71,4.85,2.52,9.39,13.76,18.88,27.45,28.25,41.22,.77,1.13,1.24,2.71,1.25,4.08,.08,18.08,.06,36.16,.05,54.24,0,3.42-1.01,4.43-4.44,4.43-6.45,0-12.9,0-19.35,0h-2.14c-3.5,10.88-10.24,16.34-19.78,16.11-7.19-.17-16.07-4.78-18.55-16.01H64.26c-1.11,5.29-3.78,9.65-8.33,12.73-3.44,2.33-7.27,3.39-11.42,3.28-8.86-.23-15.21-5.7-18.57-16.11Zm116-99.95v2.57c0,21.17,0,42.34,0,63.51,0,3.97-.87,4.84-4.84,4.84-42.67,0-85.34,0-128.01,0h-2.52v22.46H26.07c2.2-10.38,10.44-15.62,18.17-15.98,4.37-.2,8.38,.94,11.97,3.46,4.38,3.07,6.96,7.34,8.05,12.55h71.39c3.09-10.04,9.45-15.64,18.14-16.02,4.15-.18,8,.79,11.48,3.06,4.74,3.08,7.52,7.51,8.64,12.93h19.48v-48.27h-2.33c-11.56,0-23.12,0-34.68,0-3.88,0-4.78-.89-4.78-4.69,0-12.77,0-25.54,0-38.31v-2.11h-9.68Zm16.27,.1v38.38h33.56c-.55-.83-.96-1.44-1.37-2.05-7.19-10.46-14.38-20.91-21.57-31.37q-3.73-5.42-10.29-5.07c-.06,0-.12,.04-.33,.1ZM45.18,193.56c7.13-.02,12.9-5.83,12.88-12.97-.02-7.1-5.87-12.87-13.02-12.83-7.03,.04-12.77,5.82-12.78,12.87-.01,7.13,5.8,12.95,12.92,12.93Zm109.58-25.8c-7.11,.02-12.88,5.88-12.82,13.02,.05,7.03,5.84,12.78,12.87,12.78,7.13,0,12.93-5.79,12.93-12.93,0-7.11-5.83-12.9-12.97-12.88Zm-38.71-64.37h-6.43v6.18h-6.47v-6.16h-6.27v19.07h19.17v-19.08Zm-32.26,32.02v-6.26h-6.27v19.14h19.11v-19.08h-6.38v6.21h-6.47Zm19.51,12.85h19.12v-19.11h-6.33v6.2h-6.47v-6.19h-6.33v19.1Z"/>
  <path class="cls-1" d="M38.71,83.88c-3.32,0-6.34,.02-9.36,0-5.88-.05-9.98-4.16-9.99-10.08-.02-21.23-.02-42.47,0-63.7C19.37,4.09,23.5,.01,29.54,.01c23.31-.01,46.63-.01,69.94,0,6.06,0,10.18,4.07,10.18,10.08,.02,21.23,.02,42.47,0,63.7,0,6.01-4.12,10.07-10.18,10.08-10.55,.02-21.1,.03-31.65-.02-1.38,0-2.36,.36-3.34,1.35-6.32,6.41-12.71,12.75-19.08,19.12-.33,.33-.66,.67-1,.99-1.05,.99-2.24,1.48-3.67,.87-1.49-.63-2.04-1.82-2.04-3.38,.01-5.51,0-11.02,0-16.53,0-.73,0-1.45,0-2.41Zm6.45,11.6c5.58-5.6,10.79-10.74,15.89-15.99,1.48-1.53,3.05-2.12,5.16-2.1,11.02,.08,22.03,.05,33.05,.03,2.78,0,3.96-1.15,3.96-3.89,.01-21.03,.01-42.05,0-63.08,0-2.79-1.15-3.98-3.87-3.98-23.24-.01-46.48-.01-69.73,0-2.63,0-3.81,1.19-3.81,3.83-.01,21.09-.01,42.19,0,63.28,0,2.64,1.18,3.82,3.81,3.84,3.76,.03,7.52,0,11.29,.01,3.17,0,4.24,1.07,4.25,4.21,.01,4.42,0,8.83,0,13.84Z"/>
  <path class="cls-1" d="M89.62,44.57c4.43,2.91,4.99,5.39,2.26,9.92-1.08,1.78-2.1,3.59-3.24,5.33-1.83,2.78-4.75,3.68-7.71,2.24-1.14-.55-1.96-.53-2.89,.23-.41,.34-.89,.61-1.38,.81-1.39,.56-2.18,1.31-2.36,3.02-.3,2.91-2.58,4.75-5.54,4.83-2.82,.08-5.64,.08-8.46,0-3.08-.08-5.4-2.1-5.69-5.18-.13-1.37-.64-2.03-1.83-2.47-.68-.26-1.35-.64-1.92-1.09-.9-.72-1.67-.67-2.71-.17-2.98,1.43-5.92,.58-7.73-2.19-1.43-2.19-2.78-4.44-4.06-6.72-1.65-2.93-.95-5.92,1.86-7.71,.98-.63,1.27-1.26,1.25-2.4-.04-2.12,.08-3.96-2.22-5.4-2.1-1.31-2.32-4.22-1.03-6.56,1.36-2.47,2.8-4.89,4.36-7.24,1.73-2.59,4.63-3.4,7.43-2.02,1.21,.6,2.07,.55,3.07-.26,.57-.46,1.25-.8,1.93-1.06,1.06-.4,1.47-1.03,1.6-2.21,.37-3.35,2.6-5.29,5.95-5.35,2.62-.05,5.24-.04,7.86,0,3.35,.05,5.68,2,6.01,5.29,.13,1.3,.65,1.9,1.73,2.33,.62,.25,1.25,.55,1.75,.98,1.06,.91,2.01,.82,3.25,.23,2.64-1.26,5.48-.53,7.13,1.89,1.66,2.43,3.18,4.98,4.57,7.58,1.35,2.53,.71,5.44-1.64,6.96-1.39,.9-1.84,1.86-1.63,3.41,.13,.99,.03,2,.03,3Zm-2.85,5.89c-3.3-1.53-4.13-4.23-3.63-7.54,.07-.46,.08-.95,.02-1.41-.44-3.42-.06-6.49,3.62-8.08-1.22-2.01-2.3-3.77-3.45-5.67-3.12,2.07-5.93,1.45-8.61-.66-.42-.33-.9-.62-1.39-.8-3.22-1.16-5.49-3.07-5.31-6.8h-7.02c.06,3.4-1.63,5.39-4.6,6.48-.75,.27-1.49,.66-2.11,1.15-2.69,2.11-5.51,2.65-8.59,.64-1.16,1.91-2.24,3.68-3.43,5.64,3.29,1.53,4.13,4.23,3.62,7.54-.07,.46-.09,.95-.02,1.41,.46,3.43,.03,6.48-3.61,8.09,1.22,2.01,2.3,3.77,3.45,5.66,3.04-2.04,5.8-1.5,8.45,.54,.47,.37,1.01,.69,1.57,.9,3.2,1.19,5.49,3.09,5.31,6.81h7c-.06-3.31,1.52-5.31,4.42-6.39,.75-.28,1.49-.65,2.12-1.14,2.74-2.11,5.59-2.86,8.75-.73,1.17-1.92,2.25-3.69,3.44-5.65Z"/>
  <path class="cls-1" d="M53.23,41.95c-.02-6.19,5.1-11.31,11.28-11.29,6.25,.02,11.26,5.03,11.29,11.28,.03,6.17-5.09,11.3-11.28,11.29-6.22,0-11.27-5.06-11.29-11.28Zm16.11,0c0-2.65-2.23-4.86-4.87-4.83-2.66,.04-4.83,2.27-4.78,4.93,.05,2.57,2.19,4.69,4.77,4.72,2.65,.03,4.87-2.17,4.88-4.82Z"/>
</svg>