<?xml version="1.0" encoding="UTF-8"?>
<svg id="Layer_1" data-name="Layer 1" xmlns="http://www.w3.org/2000/svg" viewBox="0 0 200 200">
  <defs>
    <style>
      .cls-1 {
        fill: #5c2e63;
      }
    </style>
  </defs>
  <path class="cls-1" d="M23.71,0c.99,.17,2,.28,2.98,.52,7.6,1.8,13.02,8.38,13.16,15.97,.06,3.12,.06,6.23,0,9.35-.12,7.28-5.23,13.72-12.43,15.77-.16,.04-.31,.1-.61,.2,.32,.09,.49,.13,.66,.18,9.2,2.36,14.94,8.01,17.09,17.01,.32,1.35,.42,2.77,.43,4.17,.04,6.72,.02,13.43,.02,20.15,0,1.26-.54,1.78-1.85,1.78-13.81,0-27.63,0-41.44,.01-.86,0-1.36-.42-1.73-1.09,0-7.37,0-14.73,0-22.1,.04-.21,.09-.42,.12-.63,.12-.79,.18-1.59,.37-2.37,2.24-9.04,8.02-14.69,17.31-16.98,.1-.02,.2-.06,.4-.13-.29-.09-.47-.15-.65-.2-7.15-2.02-12.29-8.57-12.37-15.8-.03-2.95-.01-5.9-.01-8.85,0-8,5.73-14.87,13.8-16.55C19.75,.23,20.55,.13,21.34,0c.79,0,1.58,0,2.37,0ZM15.38,11.54c-.49,.65-.95,1.27-1.43,1.88-1.45,1.82-3.19,3.25-5.46,4.01-.32,.11-.35,.3-.35,.57,0,2.53-.03,5.07,.02,7.6,.02,.98,.13,1.97,.35,2.92,1.63,6.89,8.12,11.43,15.38,10.81,6.87-.59,12.52-6.15,12.92-12.81,.15-2.49,.06-5,.07-7.5,0-.08-.04-.15-.07-.25-8,.02-15.11-2.45-21.43-7.22Zm7.13,57.29c.13-.26,.21-.4,.28-.55,1.17-2.41,2.33-4.82,3.51-7.22,.15-.31,.17-.57,.05-.89-1-2.76-1.99-5.53-2.99-8.29-.26-.73-.53-1.46-.83-2.27-.09,.19-.14,.3-.18,.4-1.24,3.44-2.48,6.88-3.7,10.32-.07,.19-.02,.46,.07,.65,.7,1.5,1.43,2.99,2.15,4.48,.53,1.1,1.06,2.19,1.65,3.39Zm10.43-21.54c-2.8-1.7-5.77-2.67-9.09-2.89,1.5,4.17,2.96,8.24,4.47,12.45,1.57-3.25,3.08-6.38,4.62-9.56Zm-11.75-2.85c-.14-.01-.23-.04-.31-.03-3,.27-5.8,1.13-8.4,2.63-.34,.2-.33,.37-.19,.67,1.41,2.9,2.82,5.81,4.22,8.72,.05,.1,.12,.18,.23,.35,1.5-4.16,2.96-8.24,4.44-12.34Z"/>
  <path class="cls-1" d="M200,84c-.37,.82-1.01,1.1-1.93,1.1-13.73-.02-27.46-.01-41.18-.01-1.38,0-1.9-.51-1.9-1.84,0-6.53,0-13.07,0-19.6,0-5.85,1.98-10.98,6.09-15.28,3.19-3.33,7.11-5.46,11.68-6.44,.11-.02,.21-.06,.43-.11-.76-.26-1.43-.45-2.07-.71-6.02-2.48-9.61-6.85-10.77-13.09-.13-.72-.19-1.46-.19-2.19,0-3.32-.1-6.64,.06-9.95,.23-4.81,2.38-8.77,6.14-11.89,2.77-2.3,6-3.59,9.63-3.91,.13-.01,.26-.06,.4-.09,.79,0,1.58,0,2.37,0,.13,.03,.26,.09,.39,.1,2.77,.25,5.34,1.08,7.66,2.57,5.09,3.26,7.8,7.87,8,13.78,.1,2.96,.03,5.93,.02,8.9,0,.8-.02,1.61-.16,2.39-1.25,7.09-5.43,11.72-12.47,13.94-.1,.03-.19,.08-.37,.15,.16,.05,.22,.08,.28,.09,2.25,.45,4.4,1.21,6.38,2.33,5.97,3.37,9.71,8.32,11.09,14.91,.18,.84,.28,1.7,.41,2.56v22.3ZM170.38,11.55c-.08,.06-.11,.08-.13,.11-.13,.18-.25,.36-.38,.53-1.66,2.31-3.59,4.3-6.42,5.27-.15,.05-.3,.31-.31,.47-.02,2.63-.08,5.27,0,7.9,.23,8.06,7.35,14.19,15.65,13.5,7.22-.6,12.97-6.58,13.06-13.58,.03-2.17,0-4.33,0-6.5,0-.15-.02-.29-.03-.49-8.03,.03-15.15-2.44-21.45-7.21Zm7.1,57.26c.1-.17,.15-.24,.19-.31,1.23-2.55,2.46-5.09,3.68-7.64,.08-.17,.06-.42,0-.61-1.21-3.4-2.43-6.79-3.65-10.18-.05-.13-.12-.25-.2-.41-.06,.1-.09,.14-.11,.19-1.26,3.5-2.53,7-3.78,10.5-.06,.17,0,.42,.08,.6,.57,1.21,1.16,2.41,1.74,3.62,.67,1.38,1.34,2.77,2.05,4.24Zm1.46-24.52c-.03,.07-.06,.13-.08,.2,1.46,4.07,2.92,8.14,4.41,12.29,.1-.14,.15-.18,.18-.24,1.44-2.98,2.88-5.96,4.33-8.94,.15-.3,0-.4-.22-.54-1.42-.83-2.91-1.52-4.51-1.92-1.35-.34-2.73-.57-4.1-.85Zm-2.77,.15c-.13-.02-.18-.04-.23-.03-3.06,.25-5.91,1.14-8.55,2.67-.33,.19-.23,.37-.12,.61,.94,1.93,1.87,3.86,2.8,5.79,.52,1.08,1.05,2.16,1.63,3.37,1.51-4.2,2.98-8.28,4.47-12.4Z"/>
  <path class="cls-1" d="M78.66,200c-.92-.37-1.16-1.06-1.16-1.99,.03-6.92-.14-13.84,.08-20.75,.22-7.08,3.54-12.72,9.43-16.91,2.51-1.79,5.33-2.94,8.38-3.56,.06-.01,.12-.04,.32-.11-.28-.09-.44-.14-.6-.19-7.42-2.14-12.45-8.67-12.45-16.16,0-3.08-.07-6.17,.03-9.25,.25-7.2,5.29-13.44,12.4-15.48,10.11-2.91,20.54,3.55,22.08,13.7,.09,.61,.15,1.23,.15,1.84,.01,3.32,.11,6.64-.03,9.95-.22,5.38-2.71,9.66-7.13,12.88-1.58,1.15-3.34,1.96-5.23,2.51-.16,.05-.32,.1-.49,.15-.01,0-.02,.03-.05,.09,.27,.06,.52,.12,.78,.18,8.86,2.01,15.7,9.16,17.05,17.86,.16,1.07,.24,2.16,.25,3.24,.02,6.67,0,13.33,.03,20,0,.94-.24,1.62-1.17,1.99h-42.68Zm14.21-73.57c-.34,.46-.66,.9-.99,1.34-1.55,2.03-3.38,3.73-5.91,4.56-.3,.1-.32,.28-.32,.53,0,1.78,0,3.57,0,5.35,.01,1.25-.04,2.51,.11,3.74,.9,7.48,7.62,12.84,15.33,12.29,7.45-.53,13.26-6.6,13.27-13.85,0-2,0-4,0-6,0-.23,0-.46,0-.74-8.05,.04-15.16-2.44-21.49-7.23Zm7.13,57.27c.09-.15,.13-.21,.16-.27,1.22-2.53,2.46-5.06,3.66-7.6,.1-.21,.09-.53,.01-.75-1.08-3.07-2.19-6.13-3.29-9.2-.15-.43-.31-.85-.51-1.37-.09,.16-.13,.21-.15,.27-1.25,3.47-2.51,6.94-3.74,10.42-.07,.19-.03,.46,.06,.65,.97,2.04,1.95,4.08,2.93,6.11,.27,.55,.54,1.1,.85,1.73Zm10.43-21.52c-2.79-1.7-5.77-2.66-9.1-2.89,1.5,4.16,2.96,8.24,4.48,12.46,1.58-3.27,3.09-6.4,4.62-9.56Zm-11.74-2.89c-3.32,.23-6.3,1.19-9.1,2.89,1.53,3.17,3.04,6.3,4.62,9.56,1.52-4.23,2.99-8.31,4.48-12.45Z"/>
  <path class="cls-1" d="M76.68,92.47c.19-.42,.31-.88,.57-1.25,1.13-1.63,2.29-3.24,3.46-4.85,.2-.27,.26-.49,.09-.81-.29-.55-.52-1.12-.73-1.7-.11-.31-.29-.43-.62-.49-2.03-.34-4.05-.71-6.08-1.07-1.11-.2-1.82-.94-1.83-2.03-.03-2.27-.03-4.53,0-6.8,.02-1.12,.73-1.86,1.87-2.06,2.04-.37,4.09-.72,6.13-1.1,.19-.04,.41-.22,.49-.39,.29-.58,.5-1.2,.79-1.79,.15-.3,.1-.51-.09-.77-1.15-1.6-2.29-3.2-3.44-4.8-.76-1.07-.67-2.09,.28-3.01,1.52-1.48,3.03-2.95,4.55-4.42,1.01-.98,2.02-1.07,3.19-.29,1.65,1.11,3.31,2.21,4.95,3.33,.25,.17,.45,.21,.74,.07,.59-.28,1.19-.52,1.8-.73,.3-.1,.44-.26,.49-.55,.34-1.9,.71-3.8,1.05-5.7,.25-1.37,1.03-2.03,2.47-2.03,2.13,0,4.26,0,6.39,0,1.44,0,2.21,.65,2.47,2.03,.35,1.89,.71,3.77,1.05,5.65,.06,.34,.2,.51,.54,.62,.58,.19,1.16,.42,1.71,.69,.35,.17,.58,.11,.88-.09,1.64-1.13,3.29-2.23,4.95-3.34,1.07-.71,2.11-.62,3.02,.26,1.57,1.52,3.14,3.04,4.7,4.56,.86,.84,.98,1.86,.28,2.86-1.14,1.63-2.3,3.24-3.47,4.84-.22,.31-.28,.54-.09,.9,.28,.53,.51,1.09,.72,1.66,.1,.28,.24,.42,.56,.48,2.03,.34,4.06,.71,6.08,1.07,1.17,.21,1.89,.99,1.9,2.15,.02,2.22,.02,4.43,0,6.65-.01,1.13-.72,1.9-1.88,2.11-2.03,.37-4.05,.73-6.08,1.07-.31,.05-.47,.16-.58,.46-.22,.59-.46,1.18-.75,1.75-.15,.3-.11,.51,.08,.76,1.16,1.59,2.3,3.2,3.44,4.8,.77,1.07,.68,2.09-.27,3.02-1.5,1.46-3.01,2.93-4.52,4.39-1.08,1.04-2.06,1.12-3.31,.28-1.58-1.06-3.17-2.12-4.74-3.2-.34-.24-.62-.31-1.02-.1-.53,.27-1.09,.49-1.66,.67-.33,.11-.45,.28-.5,.59-.35,1.92-.71,3.83-1.06,5.75-.23,1.24-1.04,1.93-2.34,1.94-2.22,0-4.43,0-6.65,0-1.24,0-2.07-.66-2.3-1.87-.37-1.92-.72-3.83-1.06-5.75-.07-.37-.2-.58-.59-.7-.59-.18-1.15-.43-1.71-.69-.28-.13-.48-.13-.74,.06-1.63,1.12-3.27,2.21-4.9,3.31-1.24,.83-2.24,.73-3.31-.31-1.48-1.44-2.96-2.88-4.45-4.31-.5-.48-.84-1.01-.92-1.76Zm23.29-25.41c-5.59,.02-10.09,4.42-10.08,9.86,.01,5.35,4.58,9.77,10.08,9.77,5.65,0,10.17-4.41,10.15-9.9-.01-5.37-4.58-9.74-10.16-9.73Z"/>
  <path class="cls-1" d="M173.66,118.11c1.66,.72,3.27,1.42,4.94,2.15-6.85,14.59-17.11,26.34-30.8,35.31,1.24,2.33,2.47,4.65,3.74,7.05-7.26-.34-14.41-.67-21.67-1,3.93-5.93,7.8-11.78,11.73-17.7,1.24,2.33,2.45,4.6,3.69,6.94,12.6-8.38,22.03-19.27,28.37-32.75Z"/>
  <path class="cls-1" d="M18.64,90.68c4.45,5.56,8.84,11.05,13.29,16.62-2.69,.36-5.28,.7-7.96,1.06,1.9,7.05,4.74,13.68,8.53,19.92,3.79,6.25,8.41,11.88,13.86,16.93-1.25,1.28-2.48,2.53-3.74,3.82-11.91-11.12-19.9-24.41-24.07-39.94-2.66,.35-5.31,.7-8.1,1.07,2.74-6.53,5.45-12.96,8.19-19.48Z"/>
  <path class="cls-1" d="M132.21,1.48c4.19,5.71,8.35,11.37,12.58,17.14-7.22,.67-14.35,1.33-21.59,2,1.13-2.4,2.22-4.72,3.34-7.11-14.58-4.43-29.23-4.89-44.07-1.38-.44-1.7-.87-3.36-1.31-5.08,7.88-1.91,15.85-2.71,23.93-2.44,8.09,.27,15.99,1.66,23.72,4.09,1.13-2.41,2.25-4.78,3.4-7.22Z"/>
  <path class="cls-1" d="M63.37,13.41c1.7-.76,3.36-1.51,5.08-2.28,.72,1.64,1.41,3.22,2.12,4.84-1.58,.71-3.14,1.41-4.75,2.14-.81-1.55-1.61-3.09-2.44-4.69Z"/>
  <path class="cls-1" d="M65.11,158.16c1.59,.73,3.15,1.44,4.74,2.18-.71,1.59-1.41,3.16-2.15,4.82-1.69-.77-3.35-1.53-5.06-2.31,.85-1.6,1.66-3.13,2.48-4.68Z"/>
  <path class="cls-1" d="M56.72,23.3c-1.01-1.44-2.01-2.86-3.05-4.35,1.57-.97,3.11-1.92,4.72-2.91,.93,1.52,1.83,3.01,2.76,4.53-1.47,.91-2.92,1.8-4.43,2.73Z"/>
  <path class="cls-1" d="M181.46,113.3c-.68,1.71-1.33,3.37-2,5.07-1.71-.7-3.35-1.36-5-2.03,.63-1.59,1.24-3.14,1.87-4.75,1.68,.56,3.36,1.12,5.12,1.71Z"/>
  <path class="cls-1" d="M47.79,146.54c1.35,1.11,2.65,2.18,4,3.29-1.11,1.36-2.22,2.71-3.37,4.12-1.42-1.17-2.82-2.32-4.27-3.51,1.23-1.32,2.42-2.59,3.64-3.89Z"/>
  <path class="cls-1" d="M56.05,152.91c1.48,.93,2.92,1.82,4.41,2.75-.92,1.5-1.83,2.98-2.78,4.51-1.58-.98-3.12-1.94-4.71-2.94,1.04-1.46,2.05-2.87,3.08-4.33Z"/>
  <path class="cls-1" d="M179.99,96.64c.18-1.69,.35-3.34,.53-5.06,1.77,.12,3.53,.23,5.4,.36-.19,1.79-.37,3.55-.56,5.39-1.82-.24-3.58-.46-5.37-.69Z"/>
  <path class="cls-1" d="M79.08,7.54c.5,1.74,.97,3.39,1.44,5.06-1.67,.5-3.3,.99-5,1.51-.59-1.63-1.17-3.25-1.79-4.96,1.79-.54,3.53-1.07,5.34-1.61Z"/>
  <path class="cls-1" d="M179.1,101.72c1.78,.35,3.5,.69,5.31,1.05-.43,1.77-.85,3.49-1.28,5.28-1.76-.47-3.46-.92-5.22-1.38,.4-1.65,.79-3.27,1.19-4.94Z"/>
  <path class="cls-1" d="M22.6,35.06c-2.5-.08-4.39-1.09-5.72-3.06-.38-.57-.26-1.17,.25-1.48,.49-.29,1.05-.12,1.45,.43,2.03,2.89,5.9,2.88,7.89,0,.38-.55,.95-.72,1.44-.42,.52,.31,.63,.89,.24,1.48-1.32,1.99-3.22,2.96-5.56,3.05Z"/>
  <path class="cls-1" d="M177.51,35.06c-2.45-.11-4.32-1.09-5.63-3.03-.39-.58-.3-1.19,.2-1.5,.5-.31,1.09-.14,1.49,.44,1.96,2.86,5.96,2.85,7.88,0,.38-.57,.94-.74,1.44-.44,.53,.31,.64,.89,.25,1.48-1.33,2.01-3.25,2.99-5.62,3.07Z"/>
  <path class="cls-1" d="M99.97,149.94c-2.4-.08-4.29-1.08-5.61-3.07-.38-.57-.27-1.15,.23-1.45,.51-.3,1.1-.17,1.45,.4,1.81,2.86,6.08,2.92,7.93-.02,.35-.55,.96-.69,1.46-.37,.47,.3,.58,.88,.23,1.41-1.32,2-3.22,3.02-5.7,3.09Z"/>
</svg>