<?xml version="1.0" encoding="UTF-8"?>
<svg id="Layer_1" data-name="Layer 1" xmlns="http://www.w3.org/2000/svg" viewBox="0 0 200 200">
  <defs>
    <style>
      .cls-1 {
        fill: #5c2e63;
      }
    </style>
  </defs>
  <path class="cls-1" d="M90.18,113.28c17.78,0,34.65,0,51.52,0,8.89,0,17.77,.02,26.66,0,2.81,0,5.06,.72,5.09,4,.02,3.06,1.05,6.65-3.25,7.99-1.18,.37-2.39,.67-3.59,1-8.66,2.39-10.93,9.63-4.44,15.57,4.09,3.74,4.54,7.11,1.53,11.42-.91,1.3-1.55,2.78-2.36,4.16q-4.98,8.48-14.42,6.36c-5.25-1.18-10.95,4.6-9.71,9.85q2.2,9.25-6.04,14.18c-1.52,.91-3.2,1.58-4.64,2.6-4.43,3.16-7.81,2.28-11.47-1.7-5.61-6.11-13.32-4.14-15.07,3.87-1.27,5.84-4.17,8.16-9.98,7.22-1.21-.2-2.48-.03-3.73-.03q-9.98,0-13.27-9.64c-1.45-4.24-9.28-6.38-12.66-3.46q-8.09,6.99-17.45,1.5c-1.22-.72-2.36-1.6-3.63-2.22-4.24-2.08-5.39-5.15-3.69-9.59,1.33-3.48,1.88-6.54-1.66-9.88-3.1-2.92-5.73-3.76-9.28-2.19-5.34,2.36-8.77,.54-11.08-4.47-.74-1.6-1.83-3.03-2.69-4.58q-4.42-7.99,1.91-14.72c3.98-4.23,1.88-12.25-3.71-13.71C-.81,124.21,.04,125.31,.01,114.76c0-1.06,0-2.13,0-3.19,.02-10.19-.78-9.21,8.8-11.73,5.99-1.58,8.09-9.47,3.82-13.98q-6.16-6.49-1.87-14.3c.77-1.4,1.59-2.77,2.43-4.12q4.29-6.9,12.22-4.9c6.77,1.71,12.34-3.78,10.69-10.54q-2-8.18,5.23-12.63c1.21-.74,2.44-1.45,3.68-2.14q7.95-4.4,14.4,1.75c4.57,4.36,12.14,2.24,14-3.81,1.17-3.81,.79-8.62,7.3-8.47,9.3,.21,9.48,.04,9.48,9.44,0,23.56,0,47.13,0,70.69,0,1.91,0,3.81,0,6.46Zm-6.83-49.04c-21.5-1.37-44.42,20.61-46.22,43.68-2.19,27.94,17.05,52.18,43.47,54.79,27.73,2.74,52.16-15.88,55.28-42.68-1.96,0-3.86,0-5.76,0-13.31,0-26.62-.16-39.93,.08-5.01,.09-7.03-1.54-6.92-6.7,.26-11.67,.08-23.35,.08-35.03,0-4.73,0-9.46,0-14.13ZM20.81,158.8c7.71-4.35,13.39-2.56,18.99,4.02,3.42,4.01,5.39,7.11,3.08,11.94-2.14,4.47,.75,6.19,4,8.11,3.17,1.88,5.9,3.19,8.55-.66,3.18-4.64,7.3-5.7,12.36-2.98,1.06,.57,2.38,.82,3.6,.89,4.85,.28,7.37,2.86,7.82,7.58,.43,4.45,2.91,5.63,7.22,5.46,4.06-.16,7.39-.22,7.84-5.35,.4-4.62,2.76-7.41,7.73-7.68,1.56-.08,3.2-.55,4.6-1.24,4.57-2.25,8.2-1.2,11.02,2.85,2.59,3.72,5.3,3.49,8.93,1.21,3.46-2.17,5.84-3.95,4.07-8.65-.89-2.36-1.4-6.35-.08-7.8,5.6-6.18,11.01-14.11,21.47-8.38,.22,.12,.65-.15,1.35-.34,1.71-2.96,3.54-6.15,5.24-9.09-2.21-5.13-10.45-6.98-6.59-14.47,2.44-4.74-.15-12.45,8.18-13.89h-17.17c-.48,2.2-.88,4.11-1.32,6-6.08,26.03-31.13,45.06-57.06,43.34-29.8-1.97-51.63-22.96-54.26-52.16-2.4-26.69,15.96-52.3,42.19-58.86,3.5-.88,8.44-.73,10.11-2.97,1.81-2.44,.62-7.13,.66-10.83,.05-3.68,.01-7.36,.01-11.04-.57-.04-1.14-.07-1.71-.11-.55,.82-1.52,1.61-1.59,2.47-.6,7.17-4.54,10.65-11.61,10.93-.51,.02-1.04,.27-1.5,.51-4.5,2.36-8.17,1.32-11.01-2.74-2.57-3.67-5.19-3.46-8.93-1.3-3.96,2.28-5.81,4.41-3.97,9.13,.85,2.19,1.25,5.97,0,7.32-5.66,6.09-10.98,14.17-21.47,8.43-.22-.12-.66,.14-1.38,.32-1.71,2.96-3.56,6.14-5.71,9.86,7,4.55,9.17,10.06,6.09,18.41-1.89,5.13-3.75,8.22-9.15,9.09-1.57,.25-3.72,1.14-4.32,2.37-2.63,5.38,.24,11.29,6.2,12.54,4.09,.86,5.5,3.07,6.79,6.84,2.77,8.09,3.42,15.15-5.69,19.92,2.28,3.9,4.21,7.2,6.45,11.01Z"/>
  <path class="cls-1" d="M110.01,46.46c0-13.27,.01-26.55,0-39.82,0-3.16,.04-6.61,4.38-6.28,4.09,.3,9.51-2.61,11.44,4.34,.94,3.37,.4,7.63,5.61,9.14,4.75,1.38,8.16,.88,11.01-3.1,2.84-3.96,6.21-4.13,10.1-1.52,1.61,1.08,3.44,1.84,5.11,2.83q8.38,4.97,6.17,14.58c-1.13,4.91,4.58,10.68,9.51,9.61q9.75-2.12,14.8,6.53c.98,1.68,1.69,3.53,2.8,5.12,2.63,3.78,1.86,6.72-1.56,9.61-2.78,2.34-5.22,4.56-3.74,9.35,1.3,4.21,3.18,6.02,7.29,6.91,2.51,.54,6.42,2.22,6.71,3.89,.77,4.56,.16,9.42-.45,14.08-.1,.75-2.98,1.63-4.57,1.64-26.28,.1-52.56,.02-78.84,.13-4.51,.02-5.86-1.99-5.82-6.15,.12-13.63,.05-27.26,.05-40.89Zm52.91,39.97c1.47-26.08-23.43-49.78-45.69-48.66v48.66h45.69ZM118.89,7.04c-.68,.09-1.36,.17-2.04,.26,0,6.38,.15,12.77-.06,19.14-.11,3.26,1.24,4.09,4.28,4.48,23.33,3.06,42.1,20.09,47.41,42.88,.95,4.08,1.42,8.27,2.12,12.48h22.18c1.67-4.51-.24-6.02-4.09-6.99-2.69-.68-6.61-2.02-7.32-4.01-2.84-7.92-6.73-16.54,3.34-22.79,.25-.16,.32-.61,.5-1.01-.45-.91-.89-1.87-1.39-2.81-3.76-7-3.74-6.92-11.54-5.28-1.8,.38-4.42,.72-5.55-.23-3.76-3.19-7.72-6.56-10.16-10.71-1.23-2.09,.36-6.07,1.19-9.06,1.25-4.48-2.56-4.85-4.84-6.29-2.05-1.29-4.53-3.95-6.84-.55-4.14,6.09-9.36,6.63-15.56,3.7-.94-.45-2.05-.75-3.08-.78-3.95-.11-5.5-2.4-6.2-5.97-.44-2.22-1.54-4.31-2.35-6.47Z"/>
  <path class="cls-1" d="M70.48,113.54h5.91v6.14h-5.91v-6.14Z"/>
  <path class="cls-1" d="M89.96,126.86v5.86h-6.31v-5.86h6.31Z"/>
  <path class="cls-1" d="M129.79,73.84v5.84h-6.03v-5.84h6.03Z"/>
</svg>