<?xml version="1.0" encoding="UTF-8"?>
<svg id="Layer_1" data-name="Layer 1" xmlns="http://www.w3.org/2000/svg" viewBox="0 0 200 250">
  <defs>
    <style>
      .cls-1 {
        fill: #5c2e63;
      }
    </style>
  </defs>
  <path class="cls-1" d="M81.56,0c1.76,.96,3.68,1.71,5.24,2.93,2.97,2.32,4.16,5.67,4.5,9.4,.34,3.72,1.97,5.29,5.66,5.48,1.96,.1,3.93-.02,5.88,.17,5.45,.52,9.46,5.12,9.41,10.65-.06,5.6-4.06,10.12-9.5,10.55-2.54,.2-5.09,.13-7.64,.13-12.75,.01-25.5,.02-38.25,0-5.37,0-9.4-2.9-10.75-7.6-1.9-6.59,2.31-13.04,9.02-13.74,1.81-.19,3.66-.08,5.48-.14,3.96-.13,5.55-1.76,6.16-5.75,.32-2.06,.83-4.19,1.74-6.04,1.33-2.71,3.72-4.39,6.56-5.36,.48-.17,.93-.44,1.39-.67,1.7,0,3.4,0,5.1,0Zm-2.68,17.73c2.85,.05,5.32-2.35,5.36-5.2,.04-2.66-2.47-5.29-5.1-5.36-2.88-.08-5.27,2.23-5.39,5.18-.11,2.92,2.18,5.33,5.12,5.38Z"/>
  <path class="cls-1" d="M157.99,146.08c-6.04,.61-11.67,1.17-17.53,1.76V64.24c-1,0-1.77,0-2.53,0-39.24,0-78.49,0-117.73,0q-2.66,0-2.66,2.7c0,45.92,.01,91.84-.04,137.76,0,2,.44,2.58,2.48,2.58,25.25-.08,50.49-.05,75.74-.05h2.22c1.34,6.03,2.61,11.77,3.94,17.71h-1.75c-28.32,0-56.64-.02-84.96,.02-6.01,0-10.85-2.18-13.46-7.8-1.13-2.42-1.62-5.36-1.63-8.06C-.02,158.98,0,108.86,0,58.75c0-6.19,0-12.38,0-18.57,0-5.21,1.67-9.72,5.76-12.96,1.36-1.08,3.26-2.01,4.93-2.05,9.02-.2,18.05-.09,27.08-.08,.25,0,.5,.1,.88,.17,.03,.53,.13,1.05,.07,1.55-1.07,10.26,6.68,19.58,17.52,19.6,15.17,.02,30.35,.15,45.52-.04,10.67-.14,17.99-8.46,17.44-19.29-.03-.58,0-1.16,0-1.62,.18-.16,.22-.25,.27-.25,8.93,.19,17.94-.23,26.78,.78,7.78,.89,11.71,6.67,11.72,14.76,.02,11.71,0,23.43,0,35.14,0,22.63,0,45.25,0,67.88,0,.85,0,1.7,0,2.31Z"/>
  <path class="cls-1" d="M200,203.61c.34,24.94-20.05,46-44.91,46.38-25.17,.39-46.1-20.21-46.27-46.06-.17-25.63,19.89-46.49,45.35-46.71,24.54-.22,45.79,19.91,45.84,46.39Zm-49.93,7.93c-1.04-.83-1.91-1.52-2.77-2.21-3.33-2.68-6.59-5.46-10.02-8-3.13-2.31-7.21-1.55-9.42,1.48-2.37,3.26-2.02,7.28,1.03,9.83,5.76,4.8,11.57,9.54,17.42,14.22,3.18,2.55,7.16,2.28,9.89-.78,6.32-7.08,12.52-14.27,18.76-21.42,3.12-3.58,6.35-7.07,9.31-10.79,2.67-3.35,2.25-7.38-.71-9.96-3.02-2.64-7.17-2.39-10,.81-5.99,6.77-11.87,13.63-17.82,20.44-1.85,2.12-3.74,4.2-5.68,6.37Z"/>
  <path class="cls-1" d="M94.66,125c-8.96,0-17.91,0-26.87,0-3.38,0-4.6-1.25-4.63-4.68,0-.53,0-1.06,0-1.6,.06-3.06,1.33-4.39,4.3-4.44,2.48-.04,4.97,0,7.45,0,15.43,0,30.86,0,46.29,0,1.81,0,3.81-.05,4.57,1.92,.91,2.38,1.17,5.07-.29,7.27-.61,.91-2.33,1.46-3.56,1.48-9.09,.12-18.17,.07-27.26,.06Z"/>
  <path class="cls-1" d="M94.52,92.8c-8.83,0-17.66,0-26.49,0-1.74,0-3.67,.03-4.36-1.92-.85-2.4-1.12-5.04,.35-7.28,.53-.8,2.02-1.32,3.08-1.33,18.45-.08,36.9-.07,55.34-.04,2.57,0,3.67,1.21,3.84,3.8,.38,5.79-.52,6.76-6.25,6.76-8.5,0-17.01,0-25.51,0Z"/>
  <path class="cls-1" d="M85.88,142.83c5.95,0,11.9-.02,17.85,0,3.92,.02,4.99,1.13,5,5.1,0,.6,.02,1.2,0,1.8-.1,2.44-1.19,3.65-3.62,3.78-1.96,.11-3.92,.05-5.88,.05-10.39,0-20.79-.01-31.18,0-1.85,0-3.79-.11-4.44-2.12-.75-2.33-1.15-4.99,.46-7.05,.74-.94,2.48-1.46,3.79-1.5,6.01-.15,12.03-.07,18.04-.07Z"/>
  <path class="cls-1" d="M82.37,185.7c-4.9,0-9.81,.03-14.71-.01-3.29-.03-4.46-1.27-4.49-4.62,0-.86-.05-1.74,.05-2.59,.23-1.95,1.27-3.16,3.26-3.38,.65-.07,1.3-.07,1.96-.07,9.42,0,18.83,0,28.25,0,1.88,0,3.92-.01,4.66,2.09,.79,2.26,1.11,4.86-.35,6.9-.69,.97-2.42,1.57-3.71,1.62-4.96,.18-9.94,.07-14.91,.07h0Z"/>
  <path class="cls-1" d="M40.72,149.89c3.28-3.74,6.39-7.3,9.51-10.85,.52-.59,1.02-1.22,1.61-1.72,1.51-1.27,3.09-1.23,4.4,.04,1.14,1.11,1.35,3,.2,4.35-4.28,5-8.63,9.94-13.02,14.85-1.27,1.42-2.83,1.56-4.38,.33-2.57-2.04-5.17-4.05-7.67-6.18-1.81-1.54-2-3.57-.67-5.07,1.25-1.41,3.1-1.36,4.9,.11,1.62,1.33,3.26,2.64,5.11,4.13Z"/>
  <path class="cls-1" d="M41.21,188.6c-.96-.49-1.72-.75-2.32-1.21-2.49-1.93-4.95-3.9-7.38-5.91-1.9-1.58-2.18-3.6-.81-5.21,1.22-1.44,3.18-1.33,5.03,.23,1.3,1.1,2.68,2.11,3.97,3.22,.79,.67,1.31,.52,1.96-.23,2.82-3.3,5.69-6.57,8.54-9.85,.43-.5,.87-.99,1.35-1.44,1.64-1.54,3.25-1.61,4.66-.23,1.3,1.28,1.29,3.21-.08,4.83-1.23,1.46-2.49,2.89-3.75,4.32-2.74,3.12-5.44,6.26-8.25,9.31-.8,.87-1.92,1.44-2.91,2.16Z"/>
  <path class="cls-1" d="M57.27,77.74c-.33,.64-.61,1.57-1.18,2.23-4.03,4.71-8.1,9.39-12.21,14.04-1.52,1.72-3.23,1.94-5.05,.55-2.61-1.99-5.17-4.06-7.65-6.21-1.62-1.4-1.75-3.35-.54-4.77,1.09-1.29,3.03-1.43,4.62-.23,1.42,1.06,2.8,2.18,4.12,3.37,1,.9,1.57,.88,2.5-.24,3.07-3.7,6.26-7.31,9.49-10.88,1.9-2.09,4.68-1.67,5.57,.72,.14,.37,.18,.77,.33,1.42Z"/>
  <path class="cls-1" d="M40.76,119.5c3.31-3.8,6.42-7.37,9.54-10.94,.43-.49,.86-1,1.35-1.43,1.58-1.39,3.42-1.38,4.71,0,1.16,1.23,1.07,3.17-.24,4.68-2.51,2.88-5.03,5.75-7.54,8.62-1.61,1.83-3.19,3.69-4.83,5.48-1.59,1.74-3.14,1.86-5.01,.4-2.48-1.94-4.93-3.91-7.36-5.92-1.73-1.43-1.99-3.34-.8-4.91,1.18-1.56,2.97-1.65,4.82-.22,1.75,1.36,3.47,2.75,5.36,4.25Z"/>
</svg>