<?xml version="1.0" encoding="UTF-8"?>
<svg id="Layer_1" data-name="Layer 1" xmlns="http://www.w3.org/2000/svg" viewBox="0 0 72 72">
  <defs>
    <style>
      .cls-1 {
        fill: #5a2b5f;
      }
    </style>
  </defs>
  <path class="cls-1" d="M63.56,71.97H1.17c-.48-.72-1.39-1.43-1.39-2.15-.07-22.71-.07-45.43-.03-68.14C-.25,1.11,.22,.54,.47-.03c23.5,0,47,0,70.5,0,.25,.72,.71,1.44,.72,2.15,.04,19.32,.03,38.65,.03,57.97,0,1.43,.03,2.85-.02,4.28-.13,3.94-2.75,6.53-7.36,7.33-.27,.05-.52,.18-.78,.27Zm-61.09-2.35c.85,0,1.54,0,2.23,0,17.62,0,35.24,0,52.86,0,1.76,0,3.53,.05,5.29-.03,3.53-.16,5.64-1.84,6.04-4.76,.09-.63,.11-1.27,.11-1.91,0-19.57,0-39.14,0-58.71v-1.76H2.47V69.62Z"/>
  <path class="cls-1" d="M45.76,10.39c.54,3.04,1.04,5.99,1.61,8.94,.14,.71,.39,1.44,.81,2.06,1.77,2.66,3.61,5.28,5.43,7.91-3.2,2.02-8.67,1.98-12.59-.07-4.27-2.24-6.57-6.65-5.55-10.68,1.09-4.32,4.9-7.4,10.29-8.16Z"/>
  <path class="cls-1" d="M36.06,60.15c7.8,0,15.61,0,23.41,0,.47,0,1.03-.12,1.39,.05,.49,.24,1.06,.67,1.15,1.08,.06,.3-.52,.85-.96,1.03-.48,.2-1.14,.13-1.72,.13-15.49,0-30.98,0-46.48,0-.12,0-.23,0-.35,0-1.07,0-2.36,.06-2.37-1.17-.01-1.27,1.29-1.14,2.35-1.14,7.86,0,15.73,0,23.59,0Z"/>
  <path class="cls-1" d="M36.05,51.6c7.74,0,15.49,0,23.23,0,.47,0,1.03-.13,1.39,.05,.49,.24,1.11,.69,1.13,1.07,.02,.38-.57,.85-1.03,1.15-.27,.17-.79,.09-1.2,.09-15.6,0-31.21,0-46.81,0-.41,0-.94,.1-1.2-.07-.49-.32-1.08-.79-1.14-1.24-.04-.3,.7-.78,1.2-1,.37-.16,.92-.04,1.39-.04,7.68,0,15.37,0,23.05,0Z"/>
  <path class="cls-1" d="M49.11,43.05c3.58,0,7.16,0,10.74,0,1.01,0,1.99,.09,2,1.17,0,1.07-.95,1.2-1.98,1.2-7.1,0-14.21,0-21.31,0-1.04,0-2-.19-2.02-1.18-.02-1.02,.95-1.19,1.99-1.19,3.52,.02,7.04,0,10.57,0Z"/>
  <path class="cls-1" d="M22.15,43.05c3.22,0,6.45,.01,9.67,0,1.05,0,2,.19,1.98,1.2-.02,1.01-.99,1.17-2.02,1.17-6.56-.01-13.13-.01-19.69,0-1.05,0-1.98-.21-1.97-1.21,0-1.03,1-1.16,2.02-1.16,3.34,.01,6.68,0,10.02,0Z"/>
  <path class="cls-1" d="M61.51,21.04c0,3.41-1.81,5.87-4.95,7.92-2.11-2.64-4.15-5.2-6.32-7.92h11.27Z"/>
  <path class="cls-1" d="M20.08,37.74c-2.7,0-5.4-.02-8.1,0-1,0-1.85-.19-1.87-1.13-.02-.93,.83-1.19,1.82-1.19,5.46,0,10.92,0,16.38,0,.98,0,1.82,.24,1.77,1.22-.05,.98-.94,1.1-1.9,1.09-2.7-.01-5.4,0-8.1,0Z"/>
  <path class="cls-1" d="M21.6,26.72h-3.75V15.07h3.75v11.65Z"/>
  <path class="cls-1" d="M11.11,17h4.03v9.54c-.1,.06-.19,.16-.29,.17q-3.75,.36-3.75-2.8c0-2.25,0-4.5,0-6.91Z"/>
  <path class="cls-1" d="M62.09,18.62c-4.33,.26-8.53,.52-13.05,.79-.23-3.64-.46-7.23-.69-10.79,6.62-1.04,12.91,3.52,13.74,9.99Zm-12.87-9.39c.2,3.15,.4,6.2,.6,9.43,3.9-.24,7.59-.46,11.28-.68-.41-5.01-6.15-9.22-11.89-8.74Z"/>
  <path class="cls-1" d="M16.64,8.09c-1.52,0-3.04,0-4.56,0-1.02,0-2-.16-1.98-1.2,.03-.94,.93-1.08,1.91-1.07,3.1,.02,6.2,.01,9.29,0,.98,0,1.94,.2,1.7,1.16-.11,.44-1.03,.99-1.64,1.05-1.56,.15-3.15,.05-4.73,.05,0,0,0,0,0,0Z"/>
  <path class="cls-1" d="M28.25,26.51c-.24,.12-.29,.17-.34,.17q-3.78,.36-3.78-2.79v-3.34h4.12v5.96Z"/>
</svg>