<?xml version="1.0" encoding="UTF-8"?>
<svg id="Layer_1" data-name="Layer 1" xmlns="http://www.w3.org/2000/svg" viewBox="0 0 72 72">
  <defs>
    <style>
      .cls-1 {
        fill: #5b2c62;
      }
    </style>
  </defs>
  <path class="cls-1" d="M12.24,72c-.13-.05-.27-.1-.39-.17-.48-.27-.72-.68-.68-1.21,.03-.52,.08-1.05,.13-1.57,.09-1.05,.18-2.09,.27-3.14,.11-1.33,.23-2.65,.35-3.98,.08-.98,.17-1.97,.25-2.95,.12-1.41,.22-2.82,.37-4.22,.07-.63,.41-1.18,.79-1.7,.91-1.24,2.18-2.03,3.7-2.44,1.34-.36,2.7-.64,4.05-.94,2.51-.57,5.02-1.13,7.53-1.7,.12-.03,.17-.08,.2-.19,.48-1.93,.96-3.85,1.44-5.78,.02-.08-.02-.18-.06-.25-.14-.26-.37-.33-.68-.32-1.21,.02-2.43,0-3.64,0-.86,0-1.44-.54-1.44-1.35,0-.7,0-1.4,0-2.1,0-.16-.05-.2-.21-.2-.38,.01-.76,0-1.14,0-.82,0-1.39-.55-1.39-1.31,0-2.29,0-4.57,0-6.86,0-.77,.59-1.32,1.42-1.32,.48,0,.96,0,1.46,0-.08-.41-.17-.79-.24-1.18-.4-2.19-.41-4.38,.3-6.53,.64-1.96,1.82-3.6,3.5-4.91,1.68-1.31,3.49-2.44,5.51-3.25,1.18-.48,2.41-.76,3.67-.95,1.23-.19,2.46-.27,3.7-.23,2.08,.08,4.09,.45,5.93,1.4,1.86,.96,3.21,2.33,3.89,4.24,.26,.72,.5,1.45,.96,2.09,.22,.31,.47,.61,.71,.9,.76,.94,1.15,2,1.25,3.17,.12,1.43-.18,2.81-.62,4.17-.11,.35-.24,.7-.37,1.08,.25,0,.49,0,.73,0,.95,0,1.51,.52,1.51,1.4,0,2.24,0,4.49,0,6.73,0,.83-.56,1.36-1.45,1.36-1.41,0-2.81,0-4.22,0-.15,0-.23,.04-.29,.17-.67,1.35-1.53,2.6-2.54,3.76-.09,.11-.11,.2-.08,.34,.48,1.89,.96,3.79,1.43,5.69,.04,.15,.11,.21,.27,.24,3.71,.83,7.42,1.66,11.12,2.51,1.63,.38,3.02,1.14,4.03,2.44,.41,.52,.74,1.09,.86,1.74,.09,.49,.1,.99,.15,1.49,.12,1.34,.23,2.69,.35,4.03,.1,1.17,.2,2.34,.3,3.51,.11,1.33,.23,2.65,.34,3.98,.08,.97,.17,1.94,.25,2.91,.05,.62-.33,1.12-.95,1.32-.04,.01-.08,.04-.12,.06H12.24Zm49.89-8.56c0-.09,0-.15-.01-.21-.09-1.08-.19-2.15-.28-3.23-.13-1.49-.25-2.98-.37-4.47-.03-.32-.09-.62-.29-.88-.14-.19-.28-.38-.45-.55-.63-.62-1.42-.96-2.29-1.16-3.72-.84-7.44-1.68-11.16-2.52-.15-.03-.25-.02-.38,.07-2.54,1.87-5.09,3.73-7.64,5.6-.63,.46-1.25,.46-1.88,0-2.55-1.87-5.11-3.74-7.66-5.61-.11-.08-.21-.1-.35-.07-2.97,.67-5.94,1.34-8.91,2.01-.94,.21-1.88,.41-2.8,.67-.94,.26-1.72,.77-2.23,1.58-.1,.16-.21,.34-.23,.51-.12,1.23-.22,2.46-.33,3.7-.09,1.03-.18,2.07-.27,3.1-.04,.47-.08,.94-.12,1.43,.07,0,.12,.01,.17,.01,2.09,0,4.17,0,6.26,0,.13,0,.18-.03,.17-.16,0-.29,0-.58,0-.86,.02-.83,.78-1.43,1.63-1.26,.64,.12,1.08,.64,1.08,1.27,0,2.26,0,4.52,0,6.79,0,.08,0,.16,0,.24h29.02v-.22c0-.72,0-1.44,0-2.16,0-1.53,0-3.06,0-4.59,0-.78,.58-1.36,1.36-1.36,.77,0,1.34,.58,1.35,1.35,0,.25,.01,.5,0,.75-.01,.18,.05,.22,.23,.22,2.05,0,4.09,0,6.14,0,.07,0,.14,0,.23,0Zm-28.28-21.98s-.02,.06-.03,.09c.63,.34,1.25,.72,1.9,1.03,1.41,.66,2.88,.81,4.38,.31,1.75-.59,3.23-1.56,4.4-2.91,1.49-1.73,2.56-3.66,3.07-5.84,.09-.38,.2-.79,.15-1.16-.1-.76-.27-1.51-.45-2.26-.41-1.69-.98-3.32-1.88-4.84-.47-.78-1.01-1.51-1.78-2.05-.47-.33-.98-.57-1.59-.45-.42,.08-.75,.31-1.06,.57-.7,.6-1.44,1.14-2.28,1.57-1.52,.78-3.11,1.02-4.78,.52-.49-.15-.98-.33-1.46-.5-.13-.05-.2-.03-.25,.09-.08,.19-.17,.37-.23,.56-.3,.9-.56,1.81-.89,2.7-.49,1.38-1.11,2.7-2,3.9-.1,.13-.12,.25-.1,.4,.29,1.99,1.05,3.81,2.18,5.51,.12,.17,.23,.24,.46,.24,2.05,0,4.09,0,6.14,0,.83,0,1.46,.65,1.37,1.41-.08,.66-.66,1.13-1.41,1.13-1.19,0-2.37,0-3.56,0-.1,0-.19,0-.29,0Zm-6.08-11.79s.04,0,.06,0c.04-.08,.08-.17,.12-.25,.5-1.08,.88-2.2,1.2-3.33,.21-.73,.45-1.45,.92-2.08,.6-.82,1.43-1.22,2.49-1.04,.52,.09,1.02,.31,1.54,.45,.43,.12,.85,.27,1.29,.32,.9,.1,1.69-.22,2.41-.69,.56-.36,1.07-.78,1.59-1.19,1.55-1.2,3.41-1.39,5.17-.48,1.06,.55,1.85,1.36,2.53,2.27,.96,1.29,1.61,2.71,2.14,4.19,.12,.33,.22,.66,.34,1.02,.04-.07,.07-.11,.08-.16,.24-.6,.49-1.19,.71-1.79,.37-1.04,.66-2.1,.67-3.2,0-.84-.17-1.63-.75-2.3-.81-.91-1.39-1.93-1.81-3.04-.19-.51-.38-1.02-.64-1.49-.56-1-1.48-1.65-2.55-2.14-1.23-.56-2.54-.82-3.89-.91-1.98-.13-3.93,.08-5.82,.64-1.47,.44-2.8,1.16-4.06,1.98-.87,.57-1.73,1.16-2.46,1.88-1.5,1.49-2.17,3.3-2.3,5.32-.09,1.52,.13,3,.54,4.47,.14,.52,.32,1.03,.47,1.54Zm10.54,23.89s.06-.04,.08-.05c2.23-1.63,4.46-3.27,6.7-4.9,.12-.09,.12-.17,.09-.29-.29-1.15-.58-2.31-.87-3.46-.09-.35-.18-.7-.27-1.07-3.82,2.56-7.63,2.56-11.44,0-.02,.06-.03,.08-.04,.11-.37,1.48-.74,2.95-1.12,4.43-.04,.15,0,.22,.13,.31,1.35,.98,2.7,1.97,4.05,2.96,.89,.65,1.79,1.31,2.69,1.97Zm24.05,12.43c-.08,0-.13,0-.18,0-2.15,0-4.3,0-6.46,0-.15,0-.19,.04-.19,.18,0,1.05,0,2.1,0,3.15,0,.05,0,.1,.01,.15h7.11c-.1-1.16-.2-2.3-.3-3.47Zm-41.26,3.47c0-.09,0-.15,0-.21,0-1.02,0-2.04,0-3.06,0-.17-.05-.22-.23-.22-2.13,0-4.25,0-6.38,0-.07,0-.13,0-.21,0-.1,1.17-.2,2.32-.3,3.48h7.12Zm5.54-34.17c0-.05,0-.08,0-.1-.11-.53-.23-1.06-.33-1.6-.05-.26-.02-.53-.11-.78-.24-.62-.52-1.23-.79-1.84-.02-.04-.08-.1-.12-.1-.3,0-.59,0-.91,0v.25c0,1.01,0,2.01,0,3.02,0,.33,0,.66,0,.99,0,.08,0,.16,.13,.16,.71,0,1.41,0,2.14,0Zm25.6-.01v-4.41c-.16,0-.31,0-.45,0-.13,0-.19,.04-.24,.15-.24,.51-.48,1.02-.73,1.52-.22,.44-.43,.87-.44,1.36,0,.07-.02,.15-.03,.22-.08,.38-.16,.77-.25,1.16h2.15Zm-25.1,3.63h1.01c-.18-.35-.34-.68-.52-1.01-.02-.04-.07-.07-.12-.08-.12-.01-.25,0-.38,0v1.09Z"/>
  <path class="cls-1" d="M24.28,0c.17,.07,.35,.13,.5,.22,.41,.25,.61,.63,.61,1.08,0,4.34,0,8.69,0,13.03,0,.76-.6,1.31-1.41,1.31-1.37,0-2.75,0-4.12,0h-.27c0,.09,0,.16,0,.23,0,1.07,0,2.15,0,3.22,0,.73-.52,1.27-1.29,1.32-.22,.01-.47-.04-.67-.13-2.94-1.26-5.88-2.53-8.82-3.8-.61-.26-1.22-.53-1.83-.79-.09-.04-.19-.05-.29-.05-1.73,0-3.47,0-5.2,0-.75,0-1.19-.29-1.45-.95,0-.02-.03-.04-.04-.06,0-4.54,0-9.08,0-13.61,.09-.17,.17-.35,.28-.5C.47,.23,.79,.1,1.12,0c7.72,0,15.44,0,23.16,0ZM2.71,13.09c.09,0,.16,0,.23,0,1.36,0,2.72,0,4.08,0,.26,0,.55,.06,.79,.16,2.96,1.26,5.9,2.54,8.86,3.81,.06,.03,.13,.05,.21,.08,0-.92,0-1.8,0-2.68,0-.85,.57-1.39,1.47-1.39,1.36,0,2.72,0,4.08,0h.23V2.56H2.71V13.09Z"/>
  <path class="cls-1" d="M72,10.84c-.04,.39-.08,.78-.12,1.17-.12,1.4-.23,2.8-.35,4.2-.08,1.03-.17,2.07-.25,3.1-.12,1.41-.23,2.83-.35,4.24-.08,1.02-.17,2.04-.25,3.06-.06,.72-.11,1.43-.17,2.15-.07,.74-.64,1.22-1.43,1.22-1.41,0-2.81,0-4.22,0-.81,0-1.37-.52-1.43-1.28-.11-1.41-.23-2.82-.35-4.22-.1-1.21-.2-2.43-.3-3.64-.11-1.38-.23-2.76-.34-4.15-.09-1.06-.17-2.12-.26-3.18-.08-.99-.17-1.98-.24-2.97-.06-.82,.54-1.4,1.42-1.4,2.39,0,4.77,0,7.16,0,.74,0,1.19,.3,1.43,.95,0,.02,.03,.04,.04,.06v.67Zm-7.24,.86c.43,5.26,.86,10.49,1.29,15.75,.6,0,1.17,0,1.75,0,.04,0,.1-.09,.1-.14,.07-.84,.14-1.68,.21-2.52,.1-1.21,.19-2.42,.29-3.62,.13-1.54,.26-3.08,.38-4.61,.1-1.26,.21-2.53,.31-3.79,.03-.35,.05-.69,.08-1.05h-4.43Z"/>
  <path class="cls-1" d="M7.63,23.96c1.2,0,2.4,0,3.6,0,.91,0,1.5,.63,1.42,1.49-.1,1.03-.17,2.05-.25,3.08-.12,1.42-.24,2.84-.35,4.26-.1,1.21-.19,2.43-.29,3.64-.11,1.38-.23,2.75-.34,4.13-.08,1.01-.17,2.02-.25,3.03-.06,.71-.62,1.21-1.38,1.22-1.43,0-2.87,0-4.3,0-.74,0-1.31-.5-1.37-1.19-.13-1.46-.24-2.91-.36-4.37-.13-1.53-.26-3.06-.38-4.59-.1-1.23-.2-2.45-.3-3.68-.13-1.53-.25-3.06-.38-4.59-.03-.35-.06-.7-.09-1.05-.05-.75,.57-1.36,1.39-1.36,1.21,0,2.43,0,3.64,0Zm-2.21,2.55c.43,5.26,.86,10.49,1.29,15.74h1.85c.43-5.25,.86-10.49,1.29-15.74H5.42Z"/>
  <path class="cls-1" d="M70.51,34.82c0,.71,0,1.41,0,2.12,0,.81-.58,1.35-1.44,1.35-1.4,0-2.8,0-4.2,0-.84,0-1.42-.55-1.42-1.33,0-1.43,0-2.86,0-4.29,0-.77,.59-1.32,1.41-1.32,1.41,0,2.83,0,4.24,0,.82,0,1.41,.55,1.42,1.32,0,.36,0,.72,0,1.09,0,.36,0,.71,0,1.07Zm-2.72,.92v-1.84h-1.61v1.84h1.61Z"/>
  <path class="cls-1" d="M11.16,49.65c0,.71,0,1.42,0,2.14,0,.78-.58,1.32-1.41,1.32-1.41,0-2.83,0-4.24,0-.83,0-1.41-.54-1.41-1.32,0-1.44,0-2.87,0-4.31,0-.77,.59-1.32,1.42-1.32,1.41,0,2.81,0,4.22,0,.84,0,1.42,.54,1.42,1.33,0,.72,0,1.44,0,2.16Zm-4.34-.93v1.86c.5,0,.99,0,1.47,0,.05,0,.09,0,.15-.01v-1.84h-1.62Z"/>
  <path class="cls-1" d="M39.8,65.61c0,.26,0,.52,0,.79-.01,.71-.6,1.26-1.34,1.27-.74,0-1.35-.54-1.37-1.25-.01-.54-.01-1.09,0-1.63,.02-.69,.63-1.25,1.35-1.25,.74,0,1.35,.57,1.36,1.28,0,.26,0,.52,0,.79Z"/>
  <path class="cls-1" d="M39.77,60.37c0,.34,.04,.68,0,1.01-.11,.66-.73,1.1-1.42,1.05-.68-.05-1.24-.59-1.25-1.24-.01-.54-.01-1.09,0-1.63,.02-.7,.64-1.26,1.37-1.25,.73,0,1.33,.57,1.34,1.28,0,.26,0,.52,0,.79,0,0-.02,0-.03,0Z"/>
  <path class="cls-1" d="M12.76,9.08c-.27,0-.55,0-.82,0-.75-.01-1.35-.58-1.34-1.27,0-.69,.59-1.25,1.33-1.26,.55,0,1.11-.01,1.66,0,.77,.01,1.35,.58,1.34,1.29,0,.69-.61,1.24-1.37,1.24-.27,0-.53,0-.8,0Z"/>
  <path class="cls-1" d="M6.82,9.08c-.27,0-.55,0-.82,0-.75-.02-1.33-.56-1.34-1.25,0-.69,.57-1.26,1.31-1.27,.57-.01,1.13-.01,1.7,0,.74,.02,1.33,.59,1.32,1.27,0,.68-.6,1.24-1.34,1.26-.28,0-.56,0-.84,0Z"/>
  <path class="cls-1" d="M18.7,9.08c-.27,0-.55,0-.82,0-.75-.01-1.35-.57-1.35-1.26,0-.68,.59-1.25,1.33-1.27,.57-.01,1.13-.01,1.7,0,.74,.02,1.32,.6,1.31,1.28-.01,.69-.6,1.24-1.34,1.25-.27,0-.55,0-.82,0Z"/>
</svg>