<?xml version="1.0" encoding="UTF-8"?>
<svg id="SvgjsSvg1029" xmlns="http://www.w3.org/2000/svg" viewBox="0 0 188 255.99">
  <defs>
    <style>
      .cls-1 {
        fill: #5b2c62;
      }
    </style>
  </defs>
  <g id="SvgjsG1031">
    <path class="cls-1" d="m94,0C61.2,0,28,9.11,28,24.87c0,3.92,2.2,9.5,12.25,14.48.07.2.17.4.27.59l3.24,22.69c-4.81,17.98.38,37.15,13.61,50.24,2.58-1.33,5.23-2.52,7.94-3.56-11.16-9.5-16.79-23.99-14.97-38.53,6.42,8.7,25.13,13.22,43.66,13.22s37.24-4.51,43.66-13.22c1.82,14.55-3.81,29.04-14.98,38.54,2.7,1.04,5.35,2.24,7.92,3.57,13.24-13.09,18.45-32.28,13.63-50.27l3.24-22.69c.11-.19.2-.39.27-.59,10.05-4.98,12.25-10.56,12.25-14.48,0-15.76-33.2-24.87-66-24.87Zm0,76c-20.63,0-34.59-5.62-37.44-10.31,12.44-1.27,24.94-1.84,37.44-1.69,12.5-.14,25,.42,37.44,1.69-2.84,4.69-16.81,10.31-37.44,10.31Zm42.74-17.5c-6.55-1.46-19-2.5-42.74-2.5s-36.2,1.04-42.74,2.5l-2.79-19.54c4.32-2,19.73-4.96,45.54-4.96s41.22,2.96,45.54,4.96l-2.79,19.54Zm7.23-26.22c-4.42-2.04-9.14-3.35-13.98-3.89-11.92-1.7-23.95-2.5-35.99-2.39-12.04-.11-24.07.69-35.99,2.39-4.84.54-9.56,1.85-13.98,3.89-5.85-2.86-8.03-5.66-8.03-7.41,0-6.52,22.59-16.87,58-16.87s58,10.35,58,16.87c0,1.75-2.18,4.55-8.03,7.41h0Zm44.03,179.72v-52c-.03-22.08-17.92-39.97-40-40h-6.09c3.8,2.86,7.34,6.05,10.58,9.54l.69-1.08c15.45,2.54,26.79,15.88,26.82,31.54v52c0,2.21-1.79,4-4,4h-8.68c-1.21,2.74-2.58,5.41-4.1,8h12.77c6.62,0,11.99-5.38,12-12ZM0,160v52c0,6.62,5.38,11.99,12,12h12.77c-1.52-2.59-2.89-5.26-4.1-8h-8.67c-2.21,0-4-1.79-4-4v-52c.03-15.66,11.37-29,26.82-31.54l.64,1.01c3.22-3.46,6.74-6.63,10.53-9.47h-5.99c-22.08.03-39.97,17.92-40,40Z"/>
    <path class="cls-1" d="m108.2,113.4c-39.03-7.81-76.99,17.5-84.8,56.53-.93,4.63-1.4,9.34-1.4,14.07,0,39.76,32.25,71.99,72.01,71.99,39.76,0,71.99-32.25,71.99-72.01,0-34.29-24.19-63.81-57.8-70.57Zm40.45,103.89c-18.36,30.17-57.71,39.75-87.88,21.38-1.7-1.04-3.35-2.15-4.95-3.34-16.24-12.07-25.82-31.11-25.82-51.34-.02-30.84,21.97-57.3,52.3-62.91,3.86-.74,7.78-1.1,11.7-1.09,4.24,0,8.47.42,12.63,1.25,34.65,6.98,57.08,40.72,50.11,75.37-1.47,7.31-4.21,14.31-8.09,20.68h0Z"/>
    <path class="cls-1" d="m105.08,129.1c-5.29-1.05-10.71-1.34-16.08-.87-1.77.16-3.54.4-5.28.74h-.03s-.02.01-.02.01c-30.38,5.69-50.4,34.94-44.71,65.32,1.25,6.65,3.69,13.02,7.2,18.79,3.74,6.18,8.65,11.56,14.46,15.85h0s0,.01,0,.01h0c24.85,18.42,59.93,13.21,78.36-11.64,1.01-1.36,1.95-2.76,2.83-4.2h0c16.08-26.43,7.69-60.88-18.72-76.96-5.56-3.38-11.66-5.77-18.04-7.06h0Zm-15.79,7.15c.24-.02.48-.04.72-.06,1.2-.1,2.4-.16,3.62-.17.19,0,.38-.01.56-.01.21,0,.43.01.64.02.65.01,1.31.03,1.97.07.3.02.6.04.91.07.58.04,1.16.1,1.74.16l.44.06c-.19.44-.44.86-.73,1.25-.52.69-.8,1.53-.8,2.39v24.47c-.14-.03-.27-.07-.41-.1-2.5-.5-5.08-.52-7.59-.05v-24.32c0-.86-.28-1.7-.8-2.4-.3-.41-.55-.85-.75-1.31.16-.02.31-.05.48-.07h0Zm2.53,35.96c.72-.14,1.45-.21,2.18-.2.8,0,1.6.08,2.38.24,6.5,1.31,10.7,7.65,9.38,14.14-.28,1.37-.79,2.67-1.51,3.86-.8,1.33-1.86,2.48-3.11,3.4-4.26,3.1-10.03,3.09-14.29,0-3.05-2.26-4.85-5.83-4.85-9.63,0-5.79,4.13-10.75,9.82-11.8h0Zm-40.84,33.03c-11.75-23.73-2.04-52.49,21.69-64.23,2.64-1.31,5.39-2.36,8.22-3.17.34,1.19.83,2.34,1.48,3.4v26.5c-5.17,3.7-8.27,9.65-8.35,16l-20.64,20.64c-.82.21-1.62.5-2.39.86Zm11.7,13.57c-.06.42-.17.84-.31,1.25-.12-.11-.26-.2-.38-.31-.16-.14-.32-.3-.48-.44-2.07-1.89-3.96-3.97-5.66-6.2-.13-.17-.27-.34-.4-.51-.1-.13-.18-.27-.27-.41.24-.07.49-.12.74-.15.85-.13,1.64-.52,2.25-1.13l17.98-17.98c.25.5.48,1,.77,1.48,1.12,1.84,2.54,3.49,4.19,4.87l-17.29,17.29c-.61.61-1.01,1.4-1.13,2.25h0Zm31.32,13.2c-8.86.03-17.55-2.43-25.09-7.1.63-1.11,1.11-2.31,1.41-3.55l18.14-18.14c3.62,1.05,7.45,1.05,11.07,0l18.14,18.14c.31,1.24.78,2.44,1.41,3.55-7.54,4.66-16.23,7.12-25.09,7.1Zm38.55-19.43c-.14.18-.28.36-.42.54-.84,1.11-1.73,2.19-2.67,3.22-.95,1.03-1.94,2.02-2.98,2.96-.17.15-.33.31-.49.46-.12.11-.25.2-.37.3-.15-.4-.25-.82-.31-1.24-.12-.85-.52-1.64-1.13-2.25l-17.29-17.3c1.65-1.38,3.07-3.02,4.19-4.86.29-.48.52-.99.77-1.49l17.98,17.98c.61.61,1.4,1.01,2.25,1.13.25.04.49.09.74.15-.09.13-.17.27-.27.4h0Zm4.47-7.34c-.77-.36-1.57-.65-2.39-.86l-20.64-20.64c-.09-6.03-2.89-11.69-7.63-15.42v-27.08c.61-1.01,1.08-2.09,1.41-3.22,25.38,7.58,39.8,34.3,32.22,59.68-.78,2.59-1.77,5.12-2.97,7.54h0Z"/>
  </g>
</svg>