<?xml version="1.0" encoding="UTF-8"?>
<svg id="Layer_1" data-name="Layer 1" xmlns="http://www.w3.org/2000/svg" viewBox="0 0 254 214">
  <defs>
    <style>
      .cls-1 {
        fill: #5b2c62;
      }
    </style>
  </defs>
  <g id="SvgjsG1008">
    <path class="cls-1" d="m224.6,178.2H28.8c-4.4,0-8-3.6-8-8v-73.4c0-4.4,3.6-8,8-8h195.8c4.4,0,8,3.6,8,8v73.6c0,4.2-3.6,7.8-8,7.8Zm0-81.4H28.8v73.6h195.8v-73.6Z"/>
    <path class="cls-1" d="m213.4,96.8H40.2c-1.2,0-2.4-.6-3.2-1.6s-1-2.4-.6-3.6l19-62.4c.6-1.6,2-2.8,3.8-2.8h135.4c1.8,0,3.4,1.2,3.8,2.8l19,62.4c.4,1.2.2,2.6-.6,3.6-1,1-2.2,1.6-3.4,1.6Zm-167.8-8h162.4l-16.6-54.4H62l-16.4,54.4Z"/>
    <path class="cls-1" d="m188.6,94.8h-123.6c-.6,0-1.2-.2-1.6-.8-.4-.4-.4-1-.4-1.6l8.6-45.6c.2-1,1-1.6,2-1.6h106.2c1,0,1.8.6,2,1.6l8.6,45.6c.2.6,0,1.2-.4,1.6s-1,.8-1.4.8Zm-121.2-4h118.6l-8-41.6h-102.6l-8,41.6Zm123.8,62.2c-10.6,0-19-8.6-19-19s8.6-19,19-19,19,8.6,19,19-8.4,19-19,19Zm0-34c-8.2,0-15,6.8-15,15s6.8,15,15,15,15-6.8,15-15-6.6-15-15-15Zm-129,34c-10.4,0-19-8.6-19-19s8.6-19,19-19,19,8.6,19,19-8.4,19-19,19Zm0-34c-8.2,0-15,6.8-15,15s6.8,15,15,15,15-6.8,15-15c.2-8.4-6.6-15-15-15Zm96.8,27.8h-64.6c-1.8,0-3.2-1.4-3.2-3.2v-20.4c0-1.8,1.4-3.2,3.2-3.2h64.6c1.8,0,3.2,1.4,3.2,3.2v20.6c0,1.6-1.4,3-3.2,3Zm-63.6-4h62.8v-18.8h-62.8v18.8Zm-20,71.2h-26.4c-3,0-5.4-2.4-5.4-5.4v-34.4c0-2.2,1.8-4,4-4h29.2c2.2,0,4,1.8,4,4v34.2c0,3.2-2.4,5.6-5.4,5.6Zm-23.8-8h21.2v-27.8h-21.2v27.8Zm152.8,8h-26.4c-3,0-5.4-2.4-5.4-5.4v-34.4c0-2.2,1.8-4,4-4h29.2c2.2,0,4,1.8,4,4v34.2c0,3.2-2.4,5.6-5.4,5.6Zm-23.8-8h21.2v-27.8h-21.2v27.8Zm-22.2-171.6h-63.2c-2.2,0-4-1.8-4-4V4c0-2.2,1.8-4,4-4h63.2c2.2,0,4,1.8,4,4v26.2c0,2.4-1.8,4.2-4,4.2Zm-59.2-8h55.2V8.2h-55.2v18.2Zm123.2,50.6h-14c-2.2,0-4-1.8-4-4s1.8-4,4-4h14c2.2,0,4,1.8,4,4s-1.8,4-4,4Z"/>
    <path class="cls-1" d="m249,87.6h-26.6c-2.2,0-4-1.8-4-4v-21.4c0-2.2,1.8-4,4-4h26.6c2.8,0,5,2.2,5,5v19.2c0,3-2.2,5.2-5,5.2Zm-22.6-8h19.6v-13.4h-19.6v13.4Zm-180.6-2.6h-14c-2.2,0-4-1.8-4-4s1.8-4,4-4h14c2.2,0,4,1.8,4,4s-1.8,4-4,4Z"/>
    <path class="cls-1" d="m31.6,87.6H5c-2.8,0-5-2.2-5-5v-19.2c0-2.8,2.2-5,5-5h26.6c2.2,0,4,1.8,4,4v21.4c0,2-1.8,3.8-4,3.8Zm-23.6-8h19.6v-13.4H8v13.4Z"/>
    <polygon class="cls-1" points="116.6 10.8 106.2 10.8 106.2 13.2 110 13.2 110 23.6 112.8 23.6 112.8 13.2 116.6 13.2 116.6 10.8"/>
    <path class="cls-1" d="m124.4,10.8h-2.8l-5.6,13h3l1.2-2.8h5.4l1.2,2.8h3l-5.4-13h0Zm-3,7.6l1.6-3.8,1.6,3.8h-3.2Z"/>
    <polygon class="cls-1" points="142.2 10.8 138.8 10.8 136.2 14.6 133.8 10.8 130.4 10.8 134.4 17 130 23.6 133.6 23.6 136.2 19.4 139 23.6 142.6 23.6 138.2 17 142.2 10.8"/>
    <polygon class="cls-1" points="147.2 10.8 144.4 10.8 144.4 23.6 147.2 23.6 147.2 10.8"/>
    <polygon class="cls-1" points="142.2 10.8 138.8 10.8 136.2 14.6 133.8 10.8 130.4 10.8 134.4 17 130 23.6 133.6 23.6 136.2 19.4 139 23.6 142.6 23.6 138.2 17 142.2 10.8"/>
  </g>
</svg>