<?xml version="1.0" encoding="UTF-8"?>
<svg id="Layer_1" data-name="Layer 1" xmlns="http://www.w3.org/2000/svg" viewBox="0 0 72 72">
  <defs>
    <style>
      .cls-1 {
        fill: #5b2c62;
      }
    </style>
  </defs>
  <path class="cls-1" d="M72,71.02c-.1,.12-.2,.24-.3,.36-.43,.53-.97,.74-1.62,.54-.64-.2-1.02-.65-1.05-1.34-.02-.61-.02-1.22-.02-1.83,0-2.7,0-5.39,0-8.09-.01-3.2-1.59-5.31-4.63-6.24-2.5-.77-5.01-1.52-7.52-2.28-1.01-.31-1.32-.72-1.34-1.78,0-.56-.02-1.12-.03-1.69,0-.04-.04-.08-.06-.1-.94,.15-1.88,.29-2.89,.44v-2.76c1.15-.46,2.31-.75,3.27-1.34,1.62-1,2.55-2.58,2.63-4.49,.09-2.01,.14-4.04-.1-6.03-.36-3-3.12-5.05-6.22-4.9-2.79,.13-5.42,2.66-5.57,5.5-.1,1.87-.09,3.75,0,5.62,.08,1.59,.85,2.92,2.09,3.92,.63,.51,.88,1.09,.85,1.88-.04,1.29-.01,2.58-.01,3.87,0,1.13-.3,1.54-1.4,1.87-2.51,.76-5.01,1.52-7.53,2.25-2.88,.84-4.57,3.05-4.57,6.07,0,3.3,0,6.61,0,9.91,0,.81-.45,1.4-1.15,1.57-.65,.15-1.37-.16-1.64-.78-.13-.29-.16-.63-.17-.95-.02-1.03,0-2.06,0-3.12-2.06-.49-4.06-.97-6.06-1.44-3.66-.87-7.33-1.75-11-2.6-.42-.1-.94-.06-1.35,.08-1.72,.61-3.41,1.29-5.13,1.91-.41,.15-.52,.36-.51,.76,.02,1.5,.01,3,0,4.5,0,1.01-.61,1.67-1.5,1.67-.87,0-1.45-.63-1.46-1.62-.02-1.43,0-2.85,0-4.26-.76-.19-1.48-.29-2.15-.54C1.53,64.7,.02,62.55,.01,60.05c-.02-5.51-.03-11.02,0-16.52,.02-3.81,2.64-7.25,6.28-8.36,2.19-.66,4.39-1.33,6.59-1.96,.5-.14,.61-.37,.64-.87,.07-1.32-.13-2.42-1.14-3.47-1.27-1.33-1.84-3.1-1.85-4.96,0-2.2-.14-4.43,.2-6.59,.66-4.17,4.56-7.32,8.67-7.33,4.39,0,8.11,2.98,8.87,7.31,.28,1.6,.2,3.27,.2,4.9,0,1.11-.07,2.25-.26,3.34-.29,1.63-1.12,3.02-2.28,4.19-.36,.37-.52,.74-.48,1.24,.05,.67-.17,1.51,.16,1.97,.31,.43,1.17,.47,1.8,.66,1.27,.39,2.55,.77,3.83,1.15,.04,.01,.09,0,.25,0,0-.29,0-.58,0-.87,0-9.77,0-19.55,0-29.32,0-2.09,1.23-3.75,3.21-4.38C34.87,.14,35.01,.06,35.15,0c11.06,0,22.13,0,33.19,0,1.03,.38,2.06,.8,2.69,1.75,.39,.59,.65,1.27,.97,1.9v28.69c-.05,.1-.12,.19-.16,.3-.68,2.16-2.28,3.34-4.56,3.35-.89,0-1.78,0-2.67,0-.96-.01-1.6-.63-1.6-1.49,0-.85,.61-1.44,1.55-1.47,.77-.02,1.55,0,2.32,0,1.66,0,2.13-.47,2.13-2.13,0-8.58,0-17.16,0-25.74,0-1.72-.45-2.17-2.16-2.17-10.08,0-20.16,0-30.24,0-1.68,0-2.14,.45-2.14,2.12,0,10.81,0,21.61,0,32.42,0,.22,.02,.44,.04,.8,.27-.24,.44-.39,.6-.55,1.38-1.37,2.74-2.76,4.14-4.12,.26-.25,.59-.48,.93-.58,.65-.19,1.29,.14,1.61,.71,.34,.6,.26,1.25-.28,1.8-1.23,1.25-2.49,2.48-3.74,3.72,.95,1.59,1.23,3.27,1.21,5.04-.03,2.2,0,4.41,0,6.61,0,.24,.02,.49,.04,.8,1.95-.58,3.81-1.13,5.67-1.69,1.83-.54,1.8-.54,1.84-2.45,.01-.63-.15-1.09-.6-1.55-1.14-1.16-2.03-2.55-2.16-4.17-.2-2.37-.21-4.76-.18-7.14,.02-1.63,.69-3.09,1.63-4.42,2.23-3.16,6.19-4.54,9.87-3.46,3.64,1.07,6.21,4.36,6.36,8.22,.06,1.54,0,3.09,.04,4.64,.05,2.14-.45,4.16-1.91,5.71-1,1.07-1.18,2.17-1.11,3.48,.02,.44,.13,.64,.58,.77,2.22,.65,4.44,1.31,6.64,2.03,3.16,1.03,5.15,3.2,6.02,6.4,.1,.36,.19,.72,.28,1.08v11.81ZM19.55,29.54c.21-.04,.37-.07,.53-.09,3.08-.39,5.29-2.76,5.38-5.85,.05-1.55,.04-3.09,.02-4.64-.05-3.27-2.38-5.69-5.72-5.97-2.81-.24-5.73,2.09-6.13,5.09-.23,1.73-.13,3.51-.15,5.26-.01,1.94,.73,3.56,2.25,4.78,.52,.42,.76,.91,.75,1.57-.02,1.31,0,2.63,0,3.94,0,1.33-.26,1.69-1.52,2.07-2.51,.75-5.02,1.5-7.53,2.25-2.7,.81-4.4,2.91-4.43,5.74-.05,5.41-.05,10.83,0,16.24,.02,2.32,2.05,3.62,4.22,2.8,4.14-1.56,8.3-3.04,12.4-4.71,2.64-1.08,5.29-1.83,8.17-1.51,.59,.06,.76-.16,.75-.74-.03-2.7-.02-5.39,0-8.09,0-1.04,.59-1.68,1.48-1.68,.89,0,1.48,.67,1.48,1.68,0,3.35,0,6.7,0,10.06,0,1.18-.54,1.73-1.71,1.73-1.45,0-2.91,.04-4.36,0-1.83-.07-3.28,.99-4.91,1.6,4.13,.98,8.27,1.96,12.51,2.96,0-1.27,0-2.46,0-3.64-.01-2.54,.87-4.71,2.64-6.53,.19-.19,.34-.52,.34-.78,.02-3.14,.03-6.28,0-9.42,0-.67-.21-1.35-.32-1.97-1.45,.61-2.79,.19-4.17,.34v-4.03c-.31-.11-.57-.21-.84-.29-2.19-.67-4.39-1.33-6.58-2-1.34-.41-1.58-.73-1.58-2.16,0-.5,0-1,0-1.49-1.03,.17-1.96,.32-2.96,.48v-3Z"/>
  <path class="cls-1" d="M64.51,67.3c0,1.01,.01,2.01,0,3.02-.02,1.02-.62,1.67-1.5,1.67-.89,0-1.5-.65-1.51-1.67-.01-2.04-.01-4.07,0-6.11,0-1.04,.65-1.75,1.54-1.73,.86,.02,1.46,.7,1.47,1.72,.01,1.03,0,2.06,0,3.09Z"/>
  <path class="cls-1" d="M40.51,67.22c0-1.03,0-2.06,0-3.09,0-.95,.61-1.63,1.46-1.64,.84-.02,1.49,.65,1.5,1.59,.02,2.1,.02,4.21,0,6.31,0,.98-.62,1.6-1.49,1.59-.86,0-1.46-.65-1.47-1.61-.01-1.05,0-2.1,0-3.16Z"/>
  <path class="cls-1" d="M50.92,15.91c1.71-1.72,3.32-3.33,4.87-4.88,.73,.73,1.42,1.41,2.16,2.15-1.55,1.53-3.18,3.14-4.85,4.79,1.69,1.67,3.31,3.28,4.93,4.9-.75,.72-1.44,1.37-2.15,2.04-1.53-1.55-3.14-3.17-4.77-4.82-1.71,1.72-3.33,3.35-4.9,4.94-.78-.76-1.47-1.43-2.21-2.14,1.62-1.61,3.24-3.22,4.91-4.88-1.67-1.66-3.3-3.27-4.92-4.88,.75-.72,1.44-1.38,2.14-2.06,1.55,1.57,3.16,3.19,4.81,4.85Z"/>
  <path class="cls-1" d="M10.5,54.5c1.35-.38,2.59-.73,3.82-1.08,1.03-.3,2.07-.58,3.1-.9,1.17-.38,2.35-.57,3.59-.52,1.43,.05,2.86,0,4.29,.02,1.05,0,1.68,.58,1.68,1.47,0,.89-.67,1.57-1.67,1.47-4.22-.4-8.21,.61-12.17,1.89-1.16,.37-2.33,.69-3.5,1.01-1.28,.36-2.14-.28-2.14-1.62-.01-2.84,0-5.67,0-8.51,0-1.07,.61-1.74,1.52-1.73,.91,0,1.49,.68,1.49,1.76,0,1.94,0,3.89,0,5.84,0,.25,0,.51,0,.9Z"/>
</svg>