<?xml version="1.0" encoding="UTF-8"?>
<svg id="Layer_1" data-name="Layer 1" xmlns="http://www.w3.org/2000/svg" viewBox="0 0 187.73 256">
  <defs>
    <style>
      .cls-1 {
        fill: #5b2c62;
      }
    </style>
  </defs>
  <path class="cls-1" d="m149.33,204.8H38.4c-2.36,0-4.27,1.91-4.27,4.27s1.91,4.27,4.27,4.27h110.93c2.36,0,4.27-1.91,4.27-4.27s-1.91-4.27-4.27-4.27Zm0-34.13H38.4c-2.36,0-4.27,1.91-4.27,4.27s1.91,4.27,4.27,4.27h110.93c2.36,0,4.27-1.91,4.27-4.27s-1.91-4.27-4.27-4.27Z"/>
  <path class="cls-1" d="m170.67,25.6h-26.39c-1.77-4.95-6.46-8.53-12.01-8.53h-14.26C114.43,7,104.79,0,93.87,0s-20.57,7-24.14,17.07h-14.26c-5.56,0-10.24,3.58-12.01,8.53h-26.39C7.65,25.6,0,33.25,0,42.67v196.27c0,9.41,7.65,17.07,17.07,17.07h153.6c9.41,0,17.07-7.65,17.07-17.07V42.67c0-9.41-7.65-17.07-17.07-17.07Zm-119.47,4.27c0-2.36,1.91-4.27,4.27-4.27h17.49c2.03,0,3.78-1.43,4.18-3.41,1.61-7.91,8.64-13.65,16.73-13.65s15.11,5.74,16.73,13.65c.41,1.99,2.15,3.41,4.18,3.41h17.49c2.36,0,4.27,1.91,4.27,4.27v4.27c0,4.7-3.83,8.53-8.53,8.53H59.73c-4.7,0-8.53-3.83-8.53-8.53v-4.27h0Zm128,209.07c0,4.7-3.83,8.53-8.53,8.53H17.07c-4.7,0-8.53-3.83-8.53-8.53V42.67c0-4.7,3.83-8.53,8.53-8.53h25.6c0,9.41,7.65,17.07,17.07,17.07h68.27c9.41,0,17.07-7.65,17.07-17.07h25.6c4.7,0,8.53,3.83,8.53,8.53v196.27Z"/>
  <path class="cls-1" d="m145.07,85.33c-4.7,0-8.53,3.83-8.53,8.53,0,.98.26,1.89.56,2.78l-32.96,40.23c-.58-.12-1.12-.35-1.73-.35-.73,0-1.38.25-2.07.42l-23.92-24.13c.15-.62.38-1.22.38-1.89,0-4.7-3.83-8.53-8.53-8.53-4.72.01-8.53,3.85-8.52,8.56,0,1.14.23,2.27.68,3.32l-16.81,22.44c-.32-.03-.61-.19-.95-.19-4.7,0-8.53,3.83-8.53,8.53s3.83,8.53,8.53,8.53c4.72-.01,8.53-3.84,8.52-8.56,0-1.13-.23-2.26-.67-3.3l16.83-22.46c.32.03.6.19.92.19.8,0,1.54-.26,2.27-.46l23.76,23.97c-.18.68-.43,1.35-.43,2.09,0,4.7,3.83,8.53,8.53,8.53s8.53-3.83,8.53-8.53c0-.85-.26-1.64-.49-2.42l33.19-40.53c.49.09.92.29,1.43.29,4.7,0,8.53-3.83,8.53-8.53s-3.83-8.53-8.53-8.53h0Z"/>
</svg>