<?xml version="1.0" encoding="UTF-8"?>
<svg id="Layer_1" data-name="Layer 1" xmlns="http://www.w3.org/2000/svg" viewBox="0 0 72 72">
  <defs>
    <style>
      .cls-1 {
        fill: #5b2c62;
      }
    </style>
  </defs>
  <path class="cls-1" d="M0,71.14C0,57.56,0,43.98,0,30.39c.41-.36,.8-.76,1.24-1.07,2.63-1.89,5.26-3.78,7.9-5.64,.42-.3,.58-.6,.58-1.15-.02-6.87-.01-13.73-.01-20.6,0-1.51,.38-1.93,1.79-1.93,16.33,0,32.66,0,48.99,0,1.41,0,1.79,.41,1.79,1.94,0,6.84,0,13.68-.01,20.52,0,.61,.18,.95,.64,1.27,2.73,1.91,5.43,3.86,8.15,5.79,.63,.45,.95,.98,.95,1.86-.03,12.92-.02,25.85-.02,38.77,0,1.42-.38,1.84-1.71,1.84-22.84,0-45.68,0-68.52,0-.72,0-1.33-.17-1.74-.86ZM12.13,2.59c-.02,.23-.04,.43-.04,.62,0,10.63,0,21.25-.01,31.88,0,.48,.16,.71,.53,.92,6.33,3.6,12.66,7.22,18.97,10.85,.37,.21,.62,.18,.95-.07,.78-.59,1.62-1.1,2.39-1.72,.76-.61,1.42-.57,2.17,.02,.75,.6,1.57,1.09,2.33,1.68,.35,.27,.62,.3,1.01,.07,6.3-3.62,12.6-7.22,18.91-10.81,.45-.26,.56-.55,.56-1.06-.01-10.53,0-21.05,0-31.58v-.81H12.13ZM5.17,69.36h61.64c-10.38-7.41-20.59-14.71-30.82-22.01-10.23,7.31-20.45,14.6-30.82,22.01Zm24.65-20.66c-9.2-5.25-18.26-10.44-27.4-15.66v35.23c9.14-6.53,18.2-13,27.4-19.57Zm12.34,0c9.2,6.57,18.26,13.04,27.38,19.55V33.06c-9.13,5.22-18.19,10.4-27.38,15.65ZM5.21,29.56h4.43v-3.17c-1.49,1.07-2.9,2.08-4.43,3.17Zm61.62,.03c-1.61-1.14-3.03-2.16-4.5-3.2v3.2h4.5Zm-57.16,2.67h-3.57c1.3,.74,2.41,1.37,3.57,2.02v-2.02Zm52.67-.02v2.05c1.18-.68,2.27-1.31,3.36-1.93-.01-.04-.03-.08-.04-.11h-3.32Z"/>
  <path class="cls-1" d="M38.92,25.27c-2.34,1.81-4.65,1.78-6.75-.04-1.48-1.28-2.12-3.74-1.51-5.83,.6-2.08,2.45-3.71,4.36-3.84,3.31-.23,5.64,2.18,5.7,5.9,0,.53,0,1.06,.03,1.59,.07,.97,.84,1.73,1.72,1.75,.89,.02,1.72-.78,1.82-1.75,.45-4.56-2.22-8.67-6.36-9.81-4.65-1.27-9.37,2.13-10.1,7.26-.73,5.13,1.98,9.5,6.59,10.55,.68,.16,1.39,.19,2.09,.19,2.79,.02,5.58,0,8.36,.01,.28,0,.56,0,.84,.04,.59,.1,.91,.52,.95,1.13,.05,.62-.23,1.08-.79,1.27-.28,.1-.6,.13-.9,.13-2.88,0-5.76,.02-8.64,0-4.97-.04-8.94-3.06-10.49-7.96-2.12-6.71,1.72-13.91,8.14-15.28,5.9-1.26,11.77,3.21,12.53,9.65,.16,1.34,.14,2.79-.14,4.1-.36,1.72-1.64,2.67-3.22,2.96-1.49,.27-2.76-.28-3.77-1.5-.14-.17-.28-.33-.45-.54Zm-3.38-1.23c1.55,0,2.84-1.38,2.81-3-.04-1.64-1.27-2.93-2.81-2.93-1.53,0-2.77,1.3-2.79,2.93-.02,1.67,1.23,3.01,2.79,3.01Z"/>
</svg>