<?xml version="1.0" encoding="UTF-8"?>
<svg id="SvgjsSvg1001" xmlns="http://www.w3.org/2000/svg" viewBox="0 0 240 240">
  <defs>
    <style>
      .cls-1 {
        fill: #5b2c62;
      }
    </style>
  </defs>
  <path class="cls-1" d="m120,240C53.83,240,0,186.17,0,120S53.83,0,120,0s120,53.83,120,120-53.83,120-120,120Zm0-232C58.24,8,8,58.24,8,120s50.24,112,112,112,112-50.24,112-112S181.76,8,120,8Z"/>
  <path class="cls-1" d="m120,127.3c-5.62,0-10.19-4.58-10.19-10.2s4.57-10.19,10.19-10.19,10.18,4.57,10.18,10.19-4.57,10.2-10.18,10.2Zm0-12.38c-1.21,0-2.19.98-2.19,2.19s.98,2.2,2.19,2.2,2.18-.98,2.18-2.2-.98-2.19-2.18-2.19Zm-20.87,22.1c-.76,0-1.52-.22-2.2-.66-6.54-4.34-10.4-11.57-10.34-19.36.07-7.79,4.07-14.95,10.68-19.16,1.87-1.18,4.34-.64,5.52,1.23,1.18,1.86.64,4.34-1.23,5.52-4.32,2.75-6.94,7.42-6.98,12.49-.04,5.06,2.48,9.78,6.75,12.61,1.84,1.22,2.34,3.7,1.12,5.55-.76,1.16-2.04,1.79-3.33,1.79Z"/>
  <path class="cls-1" d="m85.24,152.91c-.76,0-1.52-.22-2.2-.66-11.96-7.92-19.02-21.13-18.88-35.34.13-14.2,7.43-27.27,19.52-34.97,1.86-1.18,4.34-.63,5.52,1.23,1.18,1.87.64,4.34-1.23,5.52-9.8,6.24-15.71,16.81-15.82,28.29-.11,11.48,5.61,22.17,15.3,28.59,1.84,1.22,2.34,3.7,1.12,5.55-.77,1.16-2.04,1.79-3.34,1.79Z"/>
  <path class="cls-1" d="m71.32,168.83c-.76,0-1.52-.22-2.2-.66-17.35-11.48-27.6-30.67-27.41-51.33.19-20.68,10.78-39.68,28.33-50.82,1.86-1.2,4.34-.63,5.52,1.23s.63,4.34-1.23,5.52c-15.25,9.69-24.46,26.19-24.62,44.14-.16,17.94,8.74,34.61,23.82,44.59,1.84,1.22,2.35,3.7,1.13,5.54-.77,1.16-2.04,1.79-3.34,1.79Zm69.55-31.82c-1.3,0-2.57-.63-3.34-1.79-1.22-1.84-.72-4.32,1.12-5.55,4.27-2.83,6.8-7.55,6.75-12.61-.05-5.07-2.66-9.74-6.98-12.48-1.86-1.19-2.41-3.66-1.23-5.52,1.19-1.86,3.66-2.41,5.52-1.23,6.62,4.21,10.61,11.38,10.68,19.16.07,7.79-3.8,15.02-10.34,19.36-.67.45-1.44.66-2.2.66Z"/>
  <path class="cls-1" d="m154.76,152.91c-1.3,0-2.57-.63-3.34-1.79-1.22-1.84-.72-4.32,1.12-5.55,9.69-6.42,15.41-17.1,15.3-28.58-.1-11.48-6.02-22.06-15.82-28.3-1.86-1.19-2.42-3.66-1.23-5.52,1.18-1.86,3.66-2.41,5.52-1.23,12.1,7.7,19.4,20.76,19.52,34.97.14,14.2-6.92,27.41-18.88,35.33-.68.45-1.45.66-2.21.66Z"/>
  <path class="cls-1" d="m168.68,168.83c-1.3,0-2.57-.63-3.34-1.79-1.22-1.84-.71-4.32,1.13-5.54,15.08-9.98,23.98-26.64,23.82-44.59-.17-17.95-9.37-34.46-24.62-44.14-1.86-1.18-2.42-3.66-1.23-5.52,1.18-1.87,3.66-2.42,5.52-1.23,17.55,11.14,28.14,30.14,28.33,50.82.19,20.66-10.06,39.86-27.41,51.33-.68.45-1.44.66-2.2.66Z"/>
</svg>