<?xml version="1.0" encoding="UTF-8"?>
<svg id="Layer_1" data-name="Layer 1" xmlns="http://www.w3.org/2000/svg" viewBox="0 0 72 100">
  <defs>
    <style>
      .cls-1 {
        fill: #5b2c62;
      }
    </style>
  </defs>
  <path class="cls-1" d="M51.79,18.53c-4.74,2.02-8.14,5.6-10.01,10.93-1.41,4.02-1.53,8.14-.4,12.27,1.28,4.66,3.81,8.24,7.53,10.69,3.72,2.44,7.7,3.04,11.94,2.02,0,.17,0,.32,0,.46,0,4.1-.03,8.19,.01,12.29,.04,4.55,1.18,8.75,3.32,12.6,1.53,2.76,3.07,5.51,4.61,8.27,.54,.97,.17,2.15-.76,2.41-.2,.06-.42,.05-.64,.05-19.21,0-38.42,0-57.62,0-2.77,0-5.55,0-8.32,0-.81,0-1.35-.52-1.45-1.4-.05-.41,.09-.77,.28-1.11,1.5-2.68,2.99-5.38,4.5-8.06,1.83-3.24,2.94-6.77,3.31-10.59,.08-.8,.12-1.62,.12-2.42,0-7.94,.02-15.88,0-23.81,0-3.01,.31-5.98,.88-8.91,.65-3.31,1.69-6.45,3.25-9.34,2.36-4.36,5.6-7.57,9.74-9.6,1.4-.68,2.84-1.2,4.33-1.58,.72-.18,.93-.66,.67-1.43-1.17-3.51-.76-6.73,1.53-9.49C30.38,.66,32.63-.13,35.17,.02c3.25,.19,6.17,2.71,7.11,6.24,.55,2.03,.42,4.04-.29,6.01-.27,.76-.05,1.25,.66,1.43,3.24,.83,6.23,2.3,8.88,4.59,.08,.07,.15,.14,.25,.24ZM14.24,46s0,0-.01,0c0,1.6,0,3.19,0,4.79,0,.48,.18,.8,.5,.94,.55,.24,1.06-.21,1.06-.95,0-2.36,.02-4.72,0-7.08-.02-1.87,.09-3.72,.35-5.56,.37-2.64,.99-5.19,2.08-7.58,1.27-2.79,3.07-5.03,5.48-6.59,1.4-.91,2.91-1.5,4.47-1.91,.48-.13,.73-.59,.63-1.09-.1-.48-.51-.75-.97-.65-.23,.05-.46,.12-.68,.19-4.69,1.37-8.21,4.42-10.4,9.37-1.59,3.6-2.26,7.46-2.49,11.44-.09,1.56-.01,3.12-.01,4.69Zm1.55,21.63c0-.18,0-.51,0-.85,0-.36-.17-.62-.45-.77-.53-.29-1.08,.15-1.12,.86-.07,1.36-.1,2.73-.25,4.08-.46,4.01-1.6,7.77-3.37,11.29-.28,.57-.2,1.09,.22,1.36,.42,.27,.86,.1,1.14-.48,.26-.54,.52-1.07,.76-1.62,1.91-4.31,2.92-8.88,3.07-13.86ZM32.21,7.25c-.03,1.44,1.01,2.65,2.3,2.69,1.23,.03,2.32-1.17,2.35-2.6,.03-1.42-1.01-2.64-2.28-2.67-1.29-.03-2.34,1.11-2.38,2.59Z"/>
  <path class="cls-1" d="M68.51,47.06c-.93-1.1-2.18-1.21-3.38-1.48-1.16-.26-2.32-.5-3.48-.77-.72-.17-.95-.59-.99-1.42-.04-.79,.09-1.42,.64-2.02,.71-.76,1.13-1.77,1.46-2.82,.04-.13,.13-.26,.23-.33,.41-.26,.64-.66,.73-1.18,.13-.75,.3-1.49,.4-2.24,.07-.5,.12-1.02,.08-1.51-.03-.35-.25-.69-.37-1.03-.05-.13-.1-.27-.1-.4,.09-1.51-.08-2.96-.71-4.31-1.15-2.45-3.02-3.69-5.4-3.97-1.88-.22-3.64,.25-5.15,1.59-1.82,1.61-2.57,3.78-2.52,6.36,0,.35,0,.63-.21,.95-.39,.58-.33,1.3-.23,1.98,.13,.9,.32,1.79,.49,2.68,.09,.47,.31,.82,.67,1.07,.1,.07,.19,.2,.22,.33,.34,1.35,.9,2.55,1.83,3.51,.07,.07,.11,.22,.12,.33,.01,.38,0,.76,0,1.15,0,.66-.29,1.1-.86,1.26-1.49,.42-2.99,.83-4.49,1.21-.68,.18-1.32,.45-1.87,.94-4.25-5.58-5.01-15.26,.5-22.06,5.8-7.16,15.38-7.43,21.45-.65,5.9,6.6,5.61,16.71,.95,22.84Z"/>
  <path class="cls-1" d="M46.44,47.98c.36-.16,.69-.36,1.03-.46,1.55-.44,3.11-.84,4.66-1.26,1.05-.28,1.77-.98,1.95-2.21,.1-.72,.07-1.48,.02-2.21-.02-.29-.23-.62-.44-.84-.84-.87-1.34-1.94-1.55-3.19-.08-.47-.21-.84-.69-.91-.06,0-.14-.13-.15-.21-.16-.81-.31-1.63-.46-2.44-.02-.14-.03-.28-.04-.41-.02-.19,.02-.3,.22-.37,.37-.12,.51-.48,.42-.94-.39-2.06,0-3.91,1.2-5.5,.74-.98,1.71-1.56,2.81-1.84,1.57-.39,3.08-.21,4.5,.7,2.07,1.33,2.83,3.98,2.44,6.38-.02,.12-.06,.25-.08,.37-.06,.35,.09,.72,.39,.8,.29,.08,.3,.27,.26,.51-.12,.7-.26,1.4-.38,2.1-.02,.12-.04,.25-.06,.38-.03,.29-.09,.49-.41,.56-.17,.04-.36,.32-.41,.53-.32,1.37-.91,2.54-1.85,3.48-.29,.29-.45,.65-.46,1.09,0,.55-.02,1.11,.02,1.66,.09,1.23,.75,2.16,1.82,2.44,1.33,.34,2.67,.61,4.01,.91,.46,.1,.93,.18,1.37,.35,.38,.15,.73,.41,1.12,.64-6.23,7.04-15.82,6.37-21.27-.12Z"/>
  <path class="cls-1" d="M42.3,92.33c-.39,3.76-3.34,7.66-7.75,7.67-4.5,0-7.42-3.99-7.78-7.67h15.54Z"/>
</svg>