<?xml version="1.0" encoding="UTF-8"?>
<svg id="SvgjsSvg1258" xmlns="http://www.w3.org/2000/svg" viewBox="0 0 200.22 200.23">
  <defs>
    <style>
      .cls-1, .cls-2 {
        fill: #5c2e63;
      }

      .cls-3 {
        fill: none;
      }

      .cls-3, .cls-2 {
        stroke: #5c2e63;
        stroke-miterlimit: 10;
      }
    </style>
  </defs>
  <path class="cls-2" d="m.5,62.47c.17-1.57.37-3.13.5-4.7.2-2.3.35-4.6.54-7.09,1.6.45,3.1.88,4.75,1.35-.29,4.03-.58,8.02-.88,12.13H.5c0-.56,0-1.12,0-1.68Z"/>
  <path class="cls-1" d="m85.6,63.27c-.1,11.93-2.95,23.06-9.88,32.93-4.76,6.78-10.82,11.99-18.89,14.37-10.74,3.17-20.29.52-28.63-6.65-7.93-6.82-12.6-15.68-15.02-25.72-3.49-14.43-2.29-28.44,4.39-41.81,3.41-6.83,8.16-12.58,14.65-16.74,11.35-7.28,24.97-6.47,35.54,2.12,7.8,6.34,12.55,14.65,15.39,24.15,1.69,5.65,2.49,11.45,2.46,17.36ZM51.76,27.27h-4.35c-.07.63-.15,1.21-.19,1.8-.08,1.23-.15,2.47-.21,3.7-.06,1.16-.66,1.94-1.65,2.45-.57.29-1.15.55-1.73.81-3.62,1.68-6.17,4.34-7.48,8.13-1,2.91-1.2,5.91-.94,8.97.39,4.64,2.23,8.44,6.2,11.06,2.86,1.89,5.77,3.73,8.57,5.7,3.18,2.24,4.19,6.51,2.51,10.02-.53,1.12-1.37,1.82-2.61,2.06-2.49.49-4.87-.96-5.67-3.64-.38-1.29-.56-2.65-.76-3.99-.09-.64-.34-.89-1-.89-2.56.02-5.11-.02-7.67.05-.31,0-.86.48-.89.77-.33,4.09.32,7.96,2.9,11.31,2.33,3.01,5.54,4.77,8.99,6.12.72.28.96.61.94,1.37-.05,2.02-.02,4.05-.02,6.08h4.63v-7.16c.79-.24,1.52-.45,2.23-.68,4.09-1.33,6.94-3.97,8.41-8.04,1.04-2.87,1.24-5.85,1.11-8.85-.2-4.4-1.76-8.17-5.41-10.85-3.15-2.31-6.39-4.52-9.53-6.84-3.11-2.3-4.03-6.18-2.4-9.71.58-1.25,1.47-2.1,2.9-2.17,1.46-.07,2.69.48,3.43,1.77.39.68.67,1.45.86,2.21.25,1,.38,2.04.51,3.07.08.67.35.98,1.07.97,2.56-.03,5.11-.04,7.67,0,.83.01,1.05-.36.97-1.09-.19-1.82-.24-3.67-.6-5.46-.77-3.83-2.56-7.02-6.16-8.95-.8-.43-1.54-1-2.26-1.57-1.36-1.09-2.28-2.48-2.37-4.26-.07-1.38-.01-2.76-.01-4.27Z"/>
  <path class="cls-1" d="m150.22,42.3c16.71-6.2,33.22-12.32,50-18.54-4.31,22.34-8.57,44.45-12.9,66.89-3.67-5.36-7.17-10.48-10.82-15.81C129.87,126.09,71.65,154.27,3.28,162.27c.48-.16.96-.34,1.45-.48,20.89-5.89,41.13-13.48,60.49-23.32,23.71-12.06,45.28-27.17,64.54-45.54,11.21-10.69,21.43-22.25,30.81-34.57.6-.79.57-1.27-.01-2.05-3.12-4.14-6.19-8.34-9.27-12.51-.33-.44-.65-.89-1.08-1.49Z"/>
  <path class="cls-1" d="m151.81,200.19c0-.93,0-1.8,0-2.67,0-17.65,0-35.31,0-52.96,0-12.18,0-24.36-.04-36.55,0-2.1.67-3.77,2.19-5.21,6.41-6.06,12.78-12.17,19.17-18.25.14-.13.3-.24.56-.45v116.09h-21.88Z"/>
  <path class="cls-1" d="m121.72,200.19c-.02-.45-.06-.88-.06-1.31,0-20.52,0-41.05,0-61.57,0-2.83.09-5.67.1-8.5,0-1.38.52-2.41,1.7-3.21,6.48-4.39,12.92-8.82,19.38-13.23.16-.11.34-.2.62-.37v88.19h-21.75Z"/>
  <path class="cls-1" d="m113.28,200.12h-21.66c-.05-.74-.15-1.47-.16-2.21-.01-6.55,0-13.1,0-19.65-.01-10.7-.01-21.4-.07-32.1-.01-2.1.71-3.47,2.69-4.44,5.66-2.77,11.22-5.72,16.83-8.59.74-.38,1.5-.72,2.38-1.14v68.13Z"/>
  <path class="cls-1" d="m83.15,200.21h-21.68c-.08-1.26-.21-2.48-.21-3.7-.02-12.89-.01-25.79,0-38.68,0-2.5.39-3.02,2.69-3.87,5.83-2.15,11.65-4.33,17.48-6.49.55-.2,1.11-.38,1.74-.59v53.34Z"/>
  <path class="cls-1" d="m52.91,157.71v42.48h-21.63c-.02-.43-.05-.81-.05-1.2,0-11.54,0-23.08-.02-34.62,0-.91.22-1.28,1.16-1.51,6.65-1.63,13.29-3.34,19.93-5.03.19-.05.38-.07.61-.12Z"/>
  <path class="cls-1" d="m22.72,164.93v35.19c-.4.03-.78.07-1.16.07-6.47,0-12.94-.02-19.41.03-1.09,0-1.33-.34-1.32-1.37.04-9.55.02-19.09.02-28.64,0-2.31.14-2.52,2.39-2.81,6.44-.84,12.89-1.64,19.49-2.48Z"/>
  <path class="cls-2" d="m91.58,61.32h4.86c-.37,5.24-.74,10.38-1.12,15.69-1.48-.43-2.88-.81-4.26-1.27-.22-.07-.44-.56-.43-.84.29-4.49.61-8.98.94-13.58Z"/>
  <path class="cls-2" d="m10.29,25.2c1.28,1.36,2.39,2.51,3.45,3.7.18.2.27.66.16.9-1.48,3.31-2.99,6.59-4.57,10.04-1.52-.87-2.95-1.7-4.52-2.6,1.79-3.93,3.56-7.82,5.48-12.04Z"/>
  <path class="cls-2" d="m77.17,13.05c2.64,3.18,5.14,6.21,7.71,9.3-1.22,1.4-2.42,2.77-3.72,4.25-.79-.95-1.52-1.82-2.25-2.7-1.39-1.69-2.8-3.37-4.14-5.1-.23-.29-.33-.92-.17-1.22.76-1.48,1.64-2.91,2.57-4.53Z"/>
  <path class="cls-2" d="m69.66,119.56c-.68-1.81-1.33-3.44-1.89-5.1-.11-.32,0-.92.25-1.13,2.42-2.08,4.88-4.11,7.41-6.22,1.02,1.65,2,3.24,3.09,5-2.92,2.45-5.83,4.89-8.86,7.44Z"/>
  <path class="cls-2" d="m26.44,7.5c.72,1.82,1.39,3.43,1.98,5.08.11.31.01.9-.22,1.1-2.37,2.13-4.79,4.2-7.33,6.41-1.05-1.64-2.07-3.22-3.15-4.92,2.88-2.54,5.73-5.05,8.72-7.68Z"/>
  <path class="cls-2" d="m87.29,87.6c1.52.97,2.91,1.86,4.38,2.79-1.83,3.9-3.61,7.71-5.33,11.38-1.28-1.15-2.56-2.3-3.82-3.48-.11-.1-.11-.45-.03-.63,1.57-3.33,3.17-6.66,4.8-10.07Z"/>
  <path class="cls-2" d="m90.06,48.61c-1.13-3.74-2.23-7.36-3.28-10.99-.07-.24.12-.69.33-.84,1.19-.87,2.42-1.69,3.73-2.59.14.33.29.59.38.87,1.09,3.58,2.15,7.17,3.29,10.74.26.82.08,1.13-.69,1.38-1.21.4-2.38.89-3.75,1.42Z"/>
  <path class="cls-2" d="m57.81,1.75c3.42,1.41,6.69,2.75,10.02,4.12-.67,1.97-1.3,3.84-1.97,5.84-.62-.23-1.17-.41-1.7-.63-2.13-.88-4.26-1.79-6.4-2.65-.61-.25-.83-.53-.71-1.24.31-1.75.51-3.53.77-5.43Z"/>
  <path class="cls-2" d="m5.6,91.33c-1.25-4.39-2.46-8.59-3.69-12.9,1.58-.5,3.09-.97,4.74-1.49.22.72.43,1.39.62,2.06.8,2.79,1.57,5.6,2.42,8.38.22.74.12,1.17-.55,1.58-1.15.71-2.25,1.5-3.54,2.37Z"/>
  <path class="cls-2" d="m37.86,8.74c-.42-2.14-.81-4.15-1.23-6.26,3.49-.64,6.81-1.26,10.23-1.89v6.39c-2.91.57-5.86,1.14-9,1.75Z"/>
  <path class="cls-2" d="m28.31,120.18c.71-2.02,1.36-3.89,2.05-5.87,2.81,1.27,5.57,2.49,8.29,3.77.23.11.42.65.38.96-.22,1.73-.52,3.45-.83,5.4-3.33-1.44-6.56-2.82-9.89-4.26Z"/>
  <path class="cls-2" d="m49.19,125.9v-6.32c1.86-.32,3.72-.64,5.59-.96.9-.15,1.8-.35,2.71-.41.3-.02.87.29.91.52.36,1.79.62,3.6.95,5.61-3.39.52-6.71,1.03-10.17,1.56Z"/>
  <path class="cls-2" d="m18.81,113.13c-2.39-3.47-4.7-6.84-7.04-10.25,1.18-1.29,2.33-2.55,3.55-3.89.22.25.4.43.54.65,1.75,2.66,3.49,5.33,5.26,7.97.35.53.45.93.09,1.49-.81,1.27-1.55,2.59-2.41,4.03Z"/>
  <path class="cls-3" d="m51.76,27.27c0,1.51-.06,2.89.01,4.27.09,1.78,1.01,3.17,2.37,4.26.71.57,1.45,1.14,2.26,1.57,3.6,1.93,5.4,5.12,6.16,8.95.36,1.79.4,3.64.6,5.46.08.73-.14,1.1-.97,1.09-2.56-.04-5.11-.03-7.67,0-.72,0-.99-.3-1.07-.97-.13-1.03-.26-2.06-.51-3.07-.19-.76-.46-1.53-.86-2.21-.75-1.29-1.97-1.84-3.43-1.77-1.43.07-2.32.92-2.9,2.17-1.63,3.53-.72,7.42,2.4,9.71,3.15,2.32,6.38,4.53,9.53,6.84,3.65,2.68,5.21,6.45,5.41,10.85.13,3-.07,5.98-1.11,8.85-1.47,4.08-4.32,6.71-8.41,8.04-.72.23-1.44.44-2.23.68v7.16h-4.63c0-2.04-.04-4.06.02-6.08.02-.76-.23-1.09-.94-1.37-3.46-1.35-6.66-3.1-8.99-6.12-2.59-3.35-3.23-7.22-2.9-11.31.02-.29.57-.76.89-.77,2.56-.06,5.11-.02,7.67-.05.66,0,.9.25,1,.89.2,1.34.37,2.7.76,3.99.8,2.68,3.18,4.14,5.67,3.64,1.24-.25,2.08-.94,2.61-2.06,1.67-3.51.66-7.78-2.51-10.02-2.8-1.98-5.71-3.81-8.57-5.7-3.96-2.62-5.81-6.43-6.2-11.06-.26-3.06-.06-6.06.94-8.97,1.31-3.8,3.86-6.46,7.48-8.13.58-.27,1.17-.52,1.73-.81.99-.51,1.6-1.3,1.65-2.45.06-1.23.13-2.47.21-3.7.04-.59.12-1.17.19-1.8h4.35Z"/>
</svg>