<?xml version="1.0" encoding="UTF-8"?>
<svg id="Layer_1" data-name="Layer 1" xmlns="http://www.w3.org/2000/svg" viewBox="0 0 200 300">
  <defs>
    <style>
      .cls-1 {
        fill: #5c2e63;
      }
    </style>
  </defs>
  <path class="cls-1" d="M199.93,166.9c0,43.24-.03,86.47,.07,129.71,0,2.84-.82,3.39-3.37,3.39-64.4-.07-128.8-.07-193.2,0-2.46,0-3.43-.39-3.43-3.33C.08,210.61,.07,124.55,.07,38.49c0-4.3,0-4.28,4.24-4.28,16.75,.01,33.5-.03,50.24,.06,2.44,.01,3.14-.9,3.01-3.27-.15-2.79,.07-5.6-.06-8.39-.09-2.02,.6-2.72,2.57-2.68,6.18,.11,12.36-.03,18.54,.1,2.69,.06,3.89-.83,4.21-3.81,.94-8.86,6.74-14.55,15.01-16,7.15-1.25,14.7,3.07,18.18,10.24,.91,1.87,1.23,3.9,1.39,5.98,.19,2.46,1.38,3.63,3.9,3.59,6.18-.11,12.36,.04,18.54-.09,2.11-.05,2.83,.67,2.72,2.84-.13,2.69,.12,5.4-.05,8.08-.16,2.53,.62,3.44,3.17,3.42,16.85-.1,33.7,.03,50.54-.14,3.07-.03,3.78,.87,3.77,3.99-.1,42.93-.07,85.85-.07,128.78Zm-14.35,.19s-.02,0-.02,0c0-36.61-.03-73.21,.06-109.82,0-2.75-.93-3.19-3.27-3.19-54.64,.05-109.28,.04-163.92-.05-2.78,0-3.47,.9-3.46,3.71,.07,73.11,.08,146.22,.01,219.33,0,2.8,.89,3.49,3.45,3.49,54.44-.07,108.88-.08,163.32,0,2.94,0,3.92-.71,3.91-3.96-.11-36.5-.07-73-.07-109.51Z"/>
  <path class="cls-1" d="M42.52,146.47c-1.1,.01-1.68-.59-2.3-1.54-4.09-6.24-8.14-12.52-12.47-18.58-2.91-4.06-4.9-8.56-5.78-13.37-.44-2.39,.69-5.2,1.46-7.7,2.6-8.45,8.19-13.48,16.65-14.65,8.13-1.13,14.72,1.96,19.33,8.98,4.72,7.17,4.96,14.86,.63,22.21-4.16,7.05-8.95,13.69-13.47,20.51-1.34,1.39-1.86,3.64-4.05,4.15Zm-8.38-35.26c0,4.75,3.74,8.72,8.26,8.75,4.6,.04,8.6-4.12,8.52-8.86-.08-4.75-3.79-8.44-8.5-8.45-4.73-.01-8.29,3.65-8.29,8.55Z"/>
  <path class="cls-1" d="M121.76,106.97c.82-1.17,.42-2.08-.65-2.9-2.07-1.59-4.11-3.22-5.88-5.17,2.72-1.16,4.9-.73,6.76,.54,5.06,3.47,10.01,3.97,15.35,.41,1.89-1.26,4.43-1.65,6.53-2.69,2.7-1.34,2.68-2.1,.62-4.1-6.42-6.25-12.79-12.53-19.25-18.87,2.23-1.16,4.18-.39,6.07,.58,1.39,.72,2.78,1.46,4.04,2.35,2.15,1.53,4.29,2.09,6.79,.68,.78-.44,1.87-1.15,2.57,.1,.55,.97-.21,1.52-1.07,1.95-.67,.34-1.28,.96-.34,1.45,2.58,1.36,4.73,3.79,8.38,2.4,2.98-1.14,3.09-.91,2.57,2.05-.14,.81,.04,1.48,.82,1.94,3.05,1.81,6.12,2.96,9.81,1.38,4.13-1.76,8.46-2.72,13.11-1.59-2.03,3.41-5.17,5.41-9.01,6.58-3.12,.95-5.97,2.2-6.92,5.51-.44,1.54-1.53,3.06,.95,4.26,1.23,.6,1,2.05-.63,2.42-3.67,.84-3.49,3.92-4.37,6.36-.31,.85,.31,1.47,1.14,1.7,1.04,.28,1.53,.93,1.47,1.83-.07,.99-.93,1.14-1.85,1.33-1.88,.4-2.97,1.42-3.39,3.39-.53,2.53-1.54,4.98-2.47,7.42-.51,1.32-1.3,2.55-3.04,2.91-.75-.97-.37-2.11-.37-3.18,.06-7.56,.17-15.11,.22-22.67,.02-2.59-1.03-3.36-3.76-2.53-4.43,1.34-8.64,3.32-13.26,4.15-1.31,.23-1.49,1.39-1.84,2.34-.88,2.36-1.79,4.72-2.59,7.11-.56,1.7-1.78,2.82-3.64,4.18,0-2.77,.04-5.13-.02-7.48-.02-1.06,.41-2.29-.88-3.04-1.03-.82-2.08-1.64-1.97-3.11Z"/>
  <path class="cls-1" d="M76.11,224.78c-17.03,0-34.06-.1-51.09,.08-3.92,.04-2.54-2.26-2.83-4.01-.35-2.09,.5-2.61,2.74-2.61,34.06,.07,68.12,.08,102.19,0,2.48,0,3.04,.74,2.85,2.81-.18,1.94,.69,3.88-3.06,3.83-16.93-.22-33.86-.09-50.79-.09Z"/>
  <path class="cls-1" d="M164.48,199.29c-2.3,.06-2.68-1.13-2.52-2.59,.24-2.24-.33-3.25-3.12-3.85-4.91-1.05-7.84-4.47-9.06-9.09-.3-1.13-.04-1.86,1.34-1.88,1.14-.02,2.08-.58,3.13-.86,1.66-.45,2.95-.56,3.36,1.74,.47,2.61,2.92,3.68,5.45,4.06,2.35,.35,4.76,.4,6.48-1.73,1.49-1.84,1.07-3.26-.91-4.38-2.16-1.22-4.61-1.68-7.04-2.1-5.14-.9-9.46-4.34-10.39-8.36-1.15-4.96,2.02-10.46,7.25-11.9,2.46-.68,3.58-1.75,3.2-4.09-.34-2.07,.55-2.74,2.79-2.78,2.32-.04,3.9,.54,3.46,2.81-.5,2.56,1.14,3.38,3.03,4.04,3.2,1.11,5.21,3.31,6.55,6.07,.65,1.34,.84,2.79-1.51,3.04-.88,.09-1.76,.35-2.58,.66-1.67,.65-2.6,.31-3.52-1.3-1.77-3.08-6.13-3.91-8.94-2.03-1.25,.84-1.93,1.88-1.58,3.33,.33,1.34,1.06,2.24,2.65,2.68,4.14,1.17,8.54,1.6,12.23,4.08,5.48,3.68,5.76,12.16,.39,15.97-.87,.62-1.77,1.48-2.76,1.62-3.39,.45-4.47,2.05-4.2,5.21,.18,2.16-2.43,.86-3.16,1.64Z"/>
  <path class="cls-1" d="M164.87,258.1c-2.51,.49-3.57-.37-3.25-2.81,.22-1.69-.67-2.52-2.54-3.12-4.51-1.45-7.93-4.1-9.19-8.74-.43-1.57,.1-2.31,1.62-2.64,1.16-.26,2.34-.46,3.51-.66,1.32-.23,2.09-.03,2.56,1.48,1.21,3.86,6.9,5.82,10.58,3.77,1.31-.73,2.48-1.85,2.19-3.39-.3-1.56-1.65-2.46-3.26-2.97-3.46-1.1-7.17-1.26-10.49-2.98-3.79-1.96-5.77-4.87-5.69-8.74,.08-4.3,2.21-7.88,6.58-9.48,2.91-1.07,4.54-2.25,4.23-5.37-.23-2.33,1.85-1.91,3.39-1.98,1.54-.07,2.94,.09,2.63,2.03-.48,2.94,.97,4.32,3.85,5.31,2.97,1.03,4.97,3.3,6.01,6.2,.48,1.33,.22,2.16-1.37,2.44-1.07,.19-2.17,.36-3.19,.69-1.35,.44-2.04,.2-2.8-1.09-1.72-2.92-4-3.71-7.55-3.05-2.07,.38-3.5,1.52-3.72,3.5-.23,2.02,1.28,3.04,3.13,3.53,2.1,.56,4.25,.95,6.37,1.47,7.03,1.72,10.67,5.98,10.01,11.59-.56,4.77-3.91,7.43-8.24,9.02-1.78,.65-2.17,1.41-2.22,2.96-.07,1.78-.2,3.78-3.13,3.03Z"/>
  <path class="cls-1" d="M75.97,167.08c-16.94,0-33.89-.04-50.83,.05-2.23,.01-3.13-.37-3-2.96,.22-4.24,.05-4.25,4.08-4.25,33.59,0,67.17,.06,100.76-.1,3.12-.01,3.05,1.38,2.97,3.61-.07,2.04,.46,3.8-2.86,3.75-17.04-.22-34.08-.1-51.12-.1Z"/>
  <path class="cls-1" d="M121.76,102.19c-.11,1.63,.94,2.54,1.97,3.45-1.67,2.66-4.61,2.85-7.1,3.77-7.96,2.95-16.05,2.23-24.11,.44-3.06-.68-6.15-.69-9.21-.36-4.91,.52-8.14,4.67-8.47,10.73-.14,2.58-.23,5.2,.03,7.76,1.29,12.79-7.54,19.23-16.63,21.87-4.68,1.36-9.26,.96-13.61-1.4-.85-.46-1.92-.73-2.11-1.98,2.18-.5,2.71-2.75,4.05-4.15,2.87,3.73,6.72,2.41,10.2,1.8,3.57-.62,6.64-2.78,9.33-5.27,1.98-1.83,3.04-4.18,3.01-7.14-.05-4.85-.47-9.72,.46-14.55,1.67-8.68,7.11-13.47,15.61-13.72,4.52-.13,8.88,.93,13.28,1.72,7.28,1.32,14.21-.09,20.95-2.92,.75-.31,1.55-1.2,2.36-.06Z"/>
  <path class="cls-1" d="M64.11,250.8c-13.04,0-26.09-.05-39.13,.05-2.15,.02-3.23-.35-2.77-2.54,.34-1.58-1.26-3.88,2.6-3.86,26.19,.14,52.37,.14,78.56,0,3.82-.02,2.32,2.23,2.64,3.84,.43,2.17-.59,2.58-2.76,2.56-13.04-.1-26.09-.05-39.13-.05Z"/>
  <path class="cls-1" d="M64.07,196.15c-13.04,0-26.08-.06-39.12,.06-2.22,.02-2.89-.51-2.79-2.86,.18-4.28,.03-4.28,4.06-4.28,25.58,0,51.17,0,76.75,.04,.98,0,2.63-.73,2.88,.61,.37,1.97,.55,4.14-.15,6.1-.28,.79-1.45,.32-2.21,.32-13.14,.03-26.28,.02-39.42,.02Z"/>
</svg>