<?xml version="1.0" encoding="UTF-8"?>
<svg id="Layer_1" data-name="Layer 1" xmlns="http://www.w3.org/2000/svg" viewBox="0 0 72 100">
  <defs>
    <style>
      .cls-1 {
        fill: #5b2c62;
      }
    </style>
  </defs>
  <path class="cls-1" d="M49.32,100H3.09C.84,98.93,0,97.12,0,94.41,.06,64.8,.06,35.2,0,5.59,0,2.89,.83,1.06,3.09,0H68.98c2.22,1.12,3.03,2.93,3.02,5.64-.07,22.83-.02,45.66-.08,68.49,0,.91-.51,2.01-1.11,2.68-6.42,7.17-12.9,14.27-19.39,21.37-.63,.69-1.4,1.22-2.1,1.82ZM68.26,4.03c-.53-.04-.83-.08-1.12-.08-20.68,0-41.37,.02-62.05-.04-1.75,0-1.6,1.01-1.6,2.24,0,29.24,.02,58.48-.03,87.73,0,1.72,.38,2.23,2.01,2.22,13.28-.07,26.57-.04,39.85-.04,.58,0,1.15,0,1.83,0,0-5.95-.03-11.61,.01-17.27,.03-3.6,2.32-6.04,5.62-6.07,2.06-.02,4.12,0,6.19,0,3.07,0,6.15,0,9.29,0V4.03Zm-17.48,87.9c4.69-4.93,9.62-10.09,14.56-15.29-4.16,0-8.35,0-12.53,0-1.33,0-2.03,.74-2.03,2.19,0,4.6,0,9.2,0,13.1Z"/>
  <path class="cls-1" d="M36.03,64.41c-7.82,0-15.64,0-23.46,0-2.17,0-2.41-.25-2.42-2.58,0-10.46,0-20.93,0-31.39,0-2.44,.24-2.69,2.51-2.69,15.58,0,31.16,0,46.73,0,2.26,0,2.51,.25,2.51,2.69,0,10.46,0,20.93,0,31.39,0,2.32-.25,2.57-2.42,2.58-7.82,0-15.64,0-23.46,0Zm23.35-2.86c0-6.3,.03-12.41-.07-18.52,0-.35-.98-.98-1.51-.98-14.49-.05-28.98-.03-43.47-.07-1.25,0-1.69,.38-1.67,1.78,.07,4.54,.03,9.08,.03,13.63,0,1.36,0,2.72,0,4.17H59.38ZM12.81,39.07H59.21v-8.46H12.81v8.46Z"/>
  <path class="cls-1" d="M20.84,92.63c-6.05,.18-11.07-5.05-11.17-11.63-.09-6.28,4.67-11.73,10.38-11.88,6.23-.16,11.22,4.78,11.42,11.31,.2,6.57-4.55,12.02-10.63,12.2Zm8.46-11.9c-.02-5.2-3.86-9.33-8.68-9.35-4.93-.02-8.85,4.28-8.8,9.67,.05,5.07,4.05,9.4,8.72,9.43,4.83,.03,8.78-4.37,8.76-9.74Z"/>
  <path class="cls-1" d="M19.49,16.64v-5.35h2.06v11.18c-3.8,.49-2.96-3.94-5.06-5.44v5.38h-2.26V11.42c1.37-.62,2.33-.26,2.97,1.33,.55,1.37,1.25,2.67,1.89,4,.13-.04,.27-.07,.4-.11Z"/>
  <path class="cls-1" d="M40.32,17.17c-.13,4.05-1.72,5.82-4.85,5.38-.12-.02-.24-.01-.36-.04-2.31-.57-3.63-4.28-2.8-7.86,.63-2.74,2.64-4.14,5.02-3.52,2.03,.53,3.1,2.68,2.99,6.04Zm-2.3-.35c-.02-.39,.08-.89-.1-1.16-.48-.74-1.09-1.38-1.64-2.06-.55,.68-1.27,1.28-1.59,2.06-.27,.66-.29,1.64-.02,2.29,.35,.83,1.09,1.45,1.67,2.17,.53-.71,1.12-1.38,1.58-2.14,.17-.29,.07-.77,.1-1.16Z"/>
  <path class="cls-1" d="M58.04,15.43h3.91v2.29h-3.62v2.28h4.03c.04,.84,.07,1.52,.11,2.37h-6.48V11.34h6.33c.04,.64,.07,1.26,.1,1.75-1.23,1.29-3.77-1.02-4.38,2.34Z"/>
  <path class="cls-1" d="M54.04,14.44c-.6,.22-1.21,.45-1.34,.5-1.07-.58-2.13-1.44-2.37-1.22-.65,.58-.96,1.61-1.37,2.48-.1,.21-.09,.55,0,.77,.36,1.03,.75,2.04,1.14,3.05,.79-.48,1.59-.95,2.38-1.43,0-.22,.02-.44,.03-.67,.52,.47,1.56,1.23,1.49,1.37-.53,1.1-1.07,2.48-1.98,3.03-1.86,1.13-4.27,.09-4.88-2.17-.48-1.8-.54-3.85-.32-5.73,.27-2.31,1.63-3.34,3.59-3.38,2.05-.04,2.91,.74,3.64,3.38Z"/>
  <path class="cls-1" d="M31.56,11.43c-.9,3.48-1.74,6.87-2.72,10.22-.12,.42-1,.81-1.52,.81-.52,0-1.36-.41-1.49-.84-.99-3.34-1.84-6.74-2.78-10.29h2.47c.57,2.46,1.13,4.92,1.83,7.97,.56-2.41,1.12-4.26,1.38-6.15,.25-1.84,1.03-2.34,2.82-1.71Z"/>
  <path class="cls-1" d="M44.49,22.46h-2.22V11.33h2.22v11.13Z"/>
  <path class="cls-1" d="M11.78,22.46h-2.05V11.29h2.05v11.17Z"/>
  <path class="cls-1" d="M35.86,54.9c5.7,0,11.4,0,17.09,0,.94,0,2.04-.06,2.1,1.25,.06,1.42-1.05,1.53-2.08,1.53-11.52,0-23.03,0-34.55,0-1.02,0-2.14-.07-2.09-1.51,.04-1.33,1.13-1.27,2.07-1.27,5.82,0,11.64,0,17.46,0Z"/>
  <path class="cls-1" d="M30.79,46.19c4.12,0,8.24,0,12.36,0,.85,0,1.83-.1,1.86,1.25,.02,1.37-.92,1.53-1.89,1.53-8.3,0-16.61,0-24.91,0-1,0-2.02-.28-1.83-1.52,.08-.51,1.2-1.19,1.86-1.2,4.18-.11,8.36-.06,12.54-.06Z"/>
  <path class="cls-1" d="M30.57,33.59c4.17,0,8.35,0,12.52,0,.94,0,1.95-.05,1.93,1.39-.03,1.41-1.03,1.38-1.97,1.38-8.23,0-16.45,0-24.68,0-.97,0-2.01-.05-2.04-1.33-.04-1.44,1.06-1.46,2.09-1.46,4.05,.02,8.11,0,12.16,0Z"/>
  <path class="cls-1" d="M26.46,80.95c-.02,3.55-2.61,6.39-5.85,6.4-3.32,.01-5.93-2.87-5.9-6.54,.03-3.56,2.6-6.38,5.86-6.42,3.29-.04,5.91,2.88,5.89,6.56Zm-5.85,4.04c2.1,0,3.81-1.84,3.84-4.08,.02-2.18-1.75-4.16-3.77-4.21-2.14-.05-3.89,1.87-3.86,4.25,.03,2.34,1.64,4.05,3.8,4.04Z"/>
</svg>