<?xml version="1.0" encoding="UTF-8"?>
<svg id="Layer_1" data-name="Layer 1" xmlns="http://www.w3.org/2000/svg" viewBox="0 0 200 200">
  <defs>
    <style>
      .cls-1 {
        fill: #fbb247;
      }
    </style>
  </defs>
  <path class="cls-1" d="M100.35,122.63c-32.28,0-64.55-.02-96.83,.04-2.1,0-2.93-.1-2.79-3.01,1.78-36.72,18.55-63.16,46.7-81.88,3.85-2.56,3.89-2.46,1.7-6.75-4.23-8.28-8.43-16.58-12.66-24.86-.82-1.61-1.15-3.23-.11-4.83,.87-1.33,2.17-1.44,3.5-1.15,1.45,.32,1.97,1.71,2.6,2.93,4.53,8.91,9.09,17.8,13.55,26.74,.88,1.76,1.48,2.34,3.5,1.46,26.95-11.76,53.99-11.85,81.01-.27,2.11,.9,3.13,.81,4.29-1.56,4.11-8.47,8.46-16.8,12.72-25.18,.4-.79,.81-1.59,1.24-2.36,1.1-2,2.79-2.45,4.52-1.44,1.82,1.07,2.13,2.99,1.15,4.97-2.33,4.7-4.73,9.36-7.1,14.04-2.2,4.32-4.29,8.71-6.65,12.93-1.23,2.19-1.14,3.17,1.1,4.52,17.46,10.57,30.87,25.46,39.67,45.13,5.22,11.68,7.85,24.06,8.52,37,.13,2.59-.35,3.6-3.07,3.59-32.18-.12-64.37-.08-96.55-.08Zm-45.34-57.59c-4.42,0-8.31,4.25-8.32,9.08-.01,4.89,3.77,9.06,8.25,9.11,4.59,.05,8.53-4.23,8.47-9.19-.06-4.85-3.94-9.01-8.39-9Zm90.44,18.19c4.49,.02,8.31-4.03,8.42-8.94,.11-4.91-3.89-9.29-8.44-9.25-4.42,.04-8.3,4.32-8.28,9.13,.03,4.91,3.81,9.04,8.3,9.06Z"/>
  <path class="cls-1" d="M59.66,167.56c-.06,17.69-13.56,32.43-29.72,32.44C13.45,200.01-.15,185.12,0,167.2c.15-18.1,13.57-32.44,30.28-32.36,16.14,.08,29.44,14.89,29.38,32.72Zm-35.09,15.22c.4-.32,.81-.56,1.12-.9,7-7.63,13.98-15.28,21-22.89,.74-.81,.9-1.42,.05-2.22-.63-.59-1.25-1.22-1.76-1.93-1.27-1.8-2.25-1.94-3.83-.12-4.71,5.41-9.73,10.5-14.41,15.94-1.78,2.06-2.82,1.89-4.3-.12-1.04-1.41-2.4-2.52-3.48-3.89-1.08-1.36-1.98-1.6-3.06-.05-.44,.64-.98,1.22-1.56,1.71-1.28,1.1-1.44,1.98-.11,3.34,3.1,3.17,6.04,6.53,9.05,9.81,.39,.42,.81,.81,1.3,1.3Z"/>
  <path class="cls-1" d="M100.27,134.84c16.46,0,29.84,14.53,29.88,32.48,.04,17.84-13.58,32.78-29.78,32.68-16.48-.11-29.86-14.69-29.88-32.56-.02-17.91,13.39-32.59,29.79-32.6Zm-12.77,30.01c-.91,1.15-1.64,2.38-2.63,3.25-1.68,1.48-1.45,2.54,.04,4.04,2.85,2.87,5.62,5.85,8.22,8.99,1.54,1.87,2.44,1.52,3.9-.1,6.32-7.07,12.71-14.07,19.2-20.96,1.59-1.69,1.65-2.82-.07-4.21-.44-.36-.86-.79-1.17-1.28-1.19-1.87-2.1-1.37-3.38,.07-4.95,5.57-10.06,10.98-15.03,16.54-1.19,1.34-1.95,1.41-3.08,0-1.4-1.74-2.97-3.31-4.49-4.94-.38-.41-.81-.75-1.52-1.4Z"/>
</svg>