<?xml version="1.0" encoding="UTF-8"?>
<svg id="Layer_1" data-name="Layer 1" xmlns="http://www.w3.org/2000/svg" viewBox="0 0 200 200">
  <defs>
    <style>
      .cls-1 {
        fill: #fbb247;
      }
    </style>
  </defs>
  <path class="cls-1" d="M155.18,101.54c8.79-8.57,16.02-15.62,23.92-23.31,5.67,10.41,11.11,20.38,16.55,30.36,.54-.1,1.07-.19,1.61-.29v-37.14c.64-.05,1.27-.1,1.91-.14,.27,1.48,.78,2.97,.79,4.45,.05,25.56,.07,51.11,.01,76.67-.02,7.08-2.12,9.13-9.08,9.23-8.89,.12-17.79,.17-26.68,.28-.1,0-.19,.34-.5,.95,2.81,1.75,5.67,3.52,9.67,6-13.76,7.21-26.55,13.91-40.25,21.09-.4-4.31-.69-7.49-1.05-11.39-11.31,0-22.39-.14-33.45,.19-1.28,.04-3.27,2.48-3.55,4.05-.57,3.24-.23,6.64-.2,9.97,.04,4.93-2.4,7.46-7.3,7.46-26.71,.02-53.42,.04-80.13-.02C1.64,199.95-.01,196.25,0,191.1c.05-19.78,.02-39.56,.02-59.34,0-27.56-.01-55.11,0-82.67,0-9.05,1.39-10.42,10.42-10.44,11.1-.03,22.21,0,34.57,0-2.25-2.13-3.67-3.47-5.8-5.49,13.3-6.98,26.07-13.67,39.69-20.82,.47,4.59,.8,7.78,1.16,11.31h25.07c0-5.49,.07-10.74-.02-15.99C105.02,2.37,107.5-.01,112.81,0c26.49,.06,52.97,.05,79.46,0,4.92,0,7.64,2.32,7.67,7.16,.09,18.67,.05,37.33,0,56,0,.91-.58,1.81-2.3,2.55V21.26H108.23l-.16,2.26h23.73c-.01,.78-.03,1.57-.04,2.35h-54.56c-.36-2.51-.76-5.28-1.25-8.77-10.45,5.46-20.42,10.66-31.72,16.56,11.11,5.83,21.1,11.07,31.25,16.39q2.31-9.41,12.21-9.41c12.46,0,24.93-.02,37.39,.02,2.27,0,4.55,.29,6.82,.44,0,.69,0,1.39,0,2.08h-24.04c0,5.65-.15,10.26,.11,14.84,.06,1.12,1.42,2.23,2.32,3.24,.88,.99,2.53,1.68,2.81,2.77,2.17,8.47,5.62,9.53,13.79,2.88,2.6,3.24,5.29,6.6,8.05,10.06-5.9,8.13-4.47,11.77,5.83,13.18-.46,.48-.92,.96-1.38,1.45,3.9,3.7,7.8,7.41,11.7,11.11,.7-.39,1.4-.79,2.1-1.18V53.5c.66-.01,1.32-.03,1.98-.04v48.09ZM27.55,144.09c1.02-.55,2.03-1.1,3.05-1.65v-39.85c.81,.03,1.61,.05,2.42,.08v39.86c.7,.35,1.41,.69,2.11,1.04,4.3-4.74,8.03-10.21,13.01-14.08,10.77-8.37,15.66-18.57,13.3-32.17-.42-2.45,.32-5.11,.53-7.67,.56,.05,1.12,.1,1.68,.15,.12,1.9,.65,3.89,.3,5.7-2.96,15.19,3.18,26.37,14.84,35.56,4.5,3.55,8.24,8.06,12.32,12.13,.53-.26,1.07-.52,1.6-.79v-15.23c.73,0,1.46,0,2.19,0v30.94h10.06v-25.14c-.59,.16-1.17,.31-1.76,.47-1.26-2.29-2.45-4.63-3.81-6.87-.84-1.37-1.91-3.63-2.94-3.66-3.45-.1-6.93,.61-10.39,1.01-.15,.67-.3,1.33-.44,2-2.87-2.97-5.73-5.93-8.53-8.83,6.33-9.37,5.56-11.15-6.31-14.93,0-1.87-.04-3.85,.01-5.83,.06-2.12,.2-4.24,.3-6.22,10.94-1.21,12.2-4.38,6.53-13.75,2.79-3.12,5.53-6.17,8.24-9.19,2.25,1.58,3.93,2.76,5.81,4.08v-11.52c-1.11-.26-1.75-.54-2.39-.54-27.14-.04-54.28,.02-81.42-.17-4.92-.03-5.23,2.47-5.21,6.25,.09,22.66,.04,45.31,.07,67.97,0,1.65,.32,3.3,.61,5.98,4.08-3.82,7.39-6.91,12.11-11.33,2.32,3.04,4.36,5.67,6.35,8.33,1.95,2.6,3.86,5.24,5.78,7.86Zm53.46-67.95c6.02,8.02,3.29,14.57-6.95,17.13v7.25c9.43-1.79,8.16,6.36,11.34,10.59-1.59,1.9-3,3.57-5.03,5.98,1.86,1.73,3.58,3.33,5.39,5.02,2.36-1.83,4.22-3.28,5.93-4.61,5.04,2.81,12.47,2.55,10.87,11.18h7.57c.33-2.64,.6-4.8,.85-6.85,5.43-2.12,10.58-6.91,15.86,.4,2.02-1.98,3.58-3.5,5.07-4.97-6.25-8.43-3.44-15.51,6.49-17.48v-7.11c-2.57-.31-4.73-.57-6.89-.83-1.3-5.3-7.32-10.31,.86-15.45-2.04-2.08-3.7-3.78-5.77-5.9-5.63,8.29-10.54,2.01-15.57,.84-.4-2.61-.73-4.74-1.05-6.82h-7.68c1.63,9.31-6.51,7.94-10.59,11-2.14-1.58-4.02-2.96-6.05-4.46-1.76,1.93-3.22,3.53-4.64,5.08Zm10.11,102.36c-3.57-.18-7.07-.35-10.71-.53-.48-2.5-.87-4.59-1.27-6.65H3.33c-.28,1.21-.54,1.84-.55,2.48-.06,4.66-.1,9.32-.09,13.98,.02,9.11,.4,9.52,9.28,9.53,21.34,.02,42.67,.16,64-.04,17.61-.17,16.66,3.78,15.91-17.63,0-.19-.24-.37-.76-1.12Zm87.6-96.29c-5.69,5.95-10.44,10.89-15.17,15.86q-8.7,9.13-19.61,2.83c-.36-.21-.83-.21-.85-.22-5.75,4.07-19.53,4.43-7.9,15.58-2.96,3.45-5.65,6.59-8.35,9.73-.18-.82-.36-1.65-.55-2.47-3.66-.15-7.39-.72-10.95-.19-1.03,.15-1.6,3.45-2.5,5.61h84.68c.68-18.63-12.98-30.48-18.8-46.72Zm-45.68,65.02c4.89,2.43,8.77,4.42,12.71,6.28,3.78,1.79,7.55,4.69,11.45,4.91,11.52,.66,23.11,.44,34.66,.03,1.84-.07,4.98-2.79,5.12-4.49,.58-6.98,.24-14.04,.24-21.32H107.87c0,7.4-.28,14.28,.2,21.11,.12,1.71,2.56,4.52,4.1,4.65,6.56,.52,13.18,.22,19.95,.22,.31-3.86,.56-6.9,.93-11.39Zm-40.22,11.11c-.85-4.33-.36-8.99-2.45-11.21-8.92-9.48-18.61-18.24-28.82-28.04-6.24,6.44-12.2,14.11-19.63,19.88-10.11,7.85-10.01,17.62-8.38,28.74h28.24v-43.19c.76,0,1.53,.01,2.29,.02v43.18h15.2c.35-3.1,.65-5.84,.98-8.76,3.93-.19,7.42-.36,12.57-.6ZM196.51,17.49c2.24-13.96,1.5-14.84-11.66-14.84-21.37,0-42.75,0-64.12,0q-13.81,0-12.64,13.61c.03,.36,.49,.69,.89,1.24h87.53Zm-61.24,167.87c11.45-5.98,21.36-11.15,32.57-17-11.2-5.85-21.26-11.1-31.8-16.61-.44,3.67-.78,6.45-1.2,9.91h-51.9v13.62c14.63,0,28.82,.25,43-.12,6.38-.17,11.29,.16,9.33,10.2ZM3.03,55.85H91.78v-11.64h-11.82c-.38,3.7-.7,6.84-.99,9.74-10.68-4.43-20.3-10.18-30.65-12.21-10.5-2.06-21.72-.46-32.62-.46-1.56,0-3.14,.18-4.67-.03-6.57-.89-9.05,2.13-8.36,8.41,.21,1.94,.24,3.89,.36,6.19Zm25.99,111.99c3.8-14.76,.26-23.49-12.88-31.83v31.83h12.88Zm-16.45-32.43c-9.94,7.47-13.36,22.38-8.2,32.27H12.57v-32.27ZM95.62,43.99v27.53c3.82-5.48,7.64-9.17,9.16-13.65,1.39-4.09,.29-9.02,.29-13.88h-9.45Z"/>
  <path class="cls-1" d="M191.28,85.06V35.2c.42-.01,.85-.02,1.27-.03v49.86c-.42,.01-.85,.02-1.27,.03Z"/>
  <path class="cls-1" d="M148.29,48.16v-11.86h11.82c2.98,12.36,1.3,14.12-11.82,11.86Zm9.59-9.25h-6.81v7.12c2.5-.17,4.57-.31,6.81-.46v-6.66Z"/>
  <path class="cls-1" d="M37.27,95.94h-11.84v-11.81c12.21-3.09,14.08-1.31,11.84,11.81Zm-9.18-9.18v6.41h6.48q.77-7.44-6.48-6.41Z"/>
  <path class="cls-1" d="M68.83,85.01h-12.11v-12.47h12.11v12.47Zm-2.43-9.87h-6.79c-1.35,7.81-.74,8.36,6.79,6.36v-6.36Z"/>
  <path class="cls-1" d="M106.4,86.85c5.32,.06,9.7,4.58,9.58,9.89-.12,5.31-4.76,9.67-10.04,9.43-5.06-.23-9.26-4.55-9.31-9.57-.05-5.28,4.49-9.81,9.77-9.75Zm7.84,11.08c0-.94,0-1.88,0-2.83-2.62-1.83-5.39-5.26-7.82-5.04-2.42,.23-5.76,3.82-6.42,6.49-.99,4.01,2.28,7.07,6.33,6.36,2.84-.5,5.29-3.25,7.91-4.99Z"/>
  <path class="cls-1" d="M47.56,192.09c-5.01-.78-7.95-3.28-7.78-8.35,.17-5.07,3.12-7.68,8.08-7.58,5.08,.1,7.79,3.3,7.66,8.08-.13,4.85-3.36,7.36-7.96,7.85Zm7.36-8.35c-3.38-2.29-5.71-5-7.23-4.61-2.07,.53-3.53,3.44-5.25,5.33,1.82,1.58,3.6,4.34,5.48,4.41,1.83,.07,3.77-2.61,7.01-5.13Z"/>
  <path class="cls-1" d="M160.3,145.79c-.49,4.77-3.13,7.65-8.13,7.5-5.02-.15-7.8-3.39-7.67-8.15,.13-4.78,3.08-7.81,8.15-7.64,5.04,.17,7.47,3.17,7.66,8.28Zm-7.91-7.85c-2.43,3.41-5.24,5.7-4.87,7.23,.51,2.13,3.39,3.68,5.26,5.49,1.59-1.82,4.3-3.56,4.46-5.49,.14-1.81-2.43-3.83-4.85-7.22Z"/>
</svg>