<?xml version="1.0" encoding="UTF-8"?>
<svg id="Layer_1" data-name="Layer 1" xmlns="http://www.w3.org/2000/svg" viewBox="0 0 200 200">
  <defs>
    <style>
      .cls-1 {
        fill: #fbb247;
      }
    </style>
  </defs>
  <path class="cls-1" d="M162.58,151.18c-2.8,6.08-8.17,9.01-15.72,9.27-2.67,.09-5.34,.14-8.01,.21-5.2,10.14-3.02,20.48-1.09,30.81-2.3,6.67-7.97,9.18-15.57,8.39-6.49-.68-12.77-7.56-12.51-12.54,.36-6.95-.29-13.94,.21-20.88,.37-5.06-1.85-6.25-7.4-6.07-14.99,.46-11.94-1.24-12.24,10.18-.15,5.57,.11,11.15-.07,16.71-.17,5.49-6.46,12.06-12.38,12.62-7.62,.71-13.27-1.73-15.57-8.41,3.17-9.85,1.45-19.81,.88-29.74-.02-.38-1.29-.71-1.97-1.07-9.38,.43-18.09-.57-23.72-8.08,.03-25.62,.27-51.23-.06-76.85-.07-5.89,2.08-7.44,8.83-7.39,35.87,.26,71.75,.26,107.62,0,6.75-.05,8.9,1.51,8.83,7.39-.33,25.15-.09,50.3-.06,75.45Z"/>
  <path class="cls-1" d="M87.9,13.46c11.2-1.09,22.42-2.61,33.49,.71,2.03,5.01,7.11,3.73,11.44,4,0,0,.04,.02,.04,.02,.28,2.27,1.97,2.78,4.3,2.51,13.14,6.8,21.75,16.5,25.99,29.06,.83,2.45,1.46,4.89,1.14,7.45-2.24,2.33-5.1,2.94-8.62,2.93-37.11-.09-74.22-.09-111.33,0-3.51,0-6.38-.59-8.62-2.92,1.5-16.22,11.32-27.97,27.13-36.51,2.33,.27,4.03-.24,4.31-2.51,0,0,.03-.02,.03-.02,5.48-.41,11.15-.4,14.73-4.93,.58-.13,1.17-.25,1.75-.38,1.21,1.26,2.64,1.31,4.23,.59Zm-18.01,18.98c-4.45-.4-5.31,2.15-5.5,4.26-.27,2.86,2,4.82,5.37,5.03,3.08,.19,5.27-1.46,5.5-4.06,.3-3.41-2.48-4.78-5.37-5.24Zm66.07,4c-1.5-1.2-.85-4.41-4.9-4.05-3.64,.32-6.36,1.72-6.31,5.07,.04,2.62,2.18,4.3,5.26,4.28,3.47-.02,5.2-2.05,5.95-5.3Z"/>
  <path class="cls-1" d="M190.42,139.83c-17.28-.04-19.81-2.17-19.82-16.68,0-13.71,0-27.42,0-41.12,0-14.25,2.85-16.59,19.85-16.42,.12,2.9,2.53,2.88,4.98,2.83,0,0-.03-.02-.03-.02,2.6,22.88,2.6,45.75,0,68.63,0,0,.03-.02,.03-.02-2.45-.06-4.85-.06-5.01,2.82Z"/>
  <path class="cls-1" d="M9.59,65.57c17.92,.46,19.82,2.12,19.82,17.37,0,13.43,0,26.87,0,40.3,0,14.42-2.56,16.55-19.82,16.59-.16-2.88-2.56-2.88-5.01-2.82,0,0,.03,.02,.03,.02-2.6-22.88-2.59-45.76-.01-68.64,0,0-.03,.03-.03,.03,2.48,.08,4.88,.05,5.02-2.85Z"/>
  <path class="cls-1" d="M162.58,151.18c-.03-25.15-.27-50.3,.06-75.45,.08-5.89-2.08-7.44-8.83-7.39-35.87,.26-71.75,.26-107.62,0-6.75-.05-8.9,1.5-8.83,7.39,.33,25.61,.09,51.23,.06,76.85-3.56-2.1-2.75-5.34-2.76-8.25-.07-23.97,.12-47.95-.17-71.92-.06-4.93,1.63-6.24,7.35-6.21,38.87,.2,77.74,.18,116.61,.02,5.14-.02,7.14,.85,7.08,5.73-.31,24.2-.11,48.41-.19,72.62,0,2.38,1.13,5.31-2.75,6.61Z"/>
  <path class="cls-1" d="M4.6,68.4c-2.58,22.88-2.59,45.76,.01,68.64C.46,134.32,0,130.46,0,126.42c.02-15.8,.03-31.59,0-47.39,0-4.05,.48-7.9,4.6-10.63Z"/>
  <path class="cls-1" d="M195.4,137.04c2.6-22.88,2.6-45.75,0-68.63,3.88,2.52,4.6,6.1,4.6,9.92,0,16.26,0,32.52,0,48.78,0,3.82-.72,7.4-4.6,9.92Z"/>
  <path class="cls-1" d="M35.72,57.22c2.24,2.33,5.11,2.93,8.62,2.92,37.11-.09,74.22-.09,111.33,0,3.51,0,6.38-.59,8.62-2.93,1.18,2.92,1.16,4.76-3.66,4.75-40.41-.11-80.83-.11-121.24,0-4.81,.01-4.85-1.82-3.67-4.74Z"/>
  <path class="cls-1" d="M81.91,13.25c-3.57,4.53-9.25,4.52-14.73,4.93-1.09-5.62-5.8-9.76-8.35-14.78-.48-.94-2.13-2.02-.54-2.96,1.49-.87,3.11-.37,4.06,1.05,1.35,2.01,3.03,3.92,3.89,6.07,2.8,6.95,7.69,9.27,15.66,5.7Z"/>
  <path class="cls-1" d="M132.82,18.18c-4.33-.27-9.41,1.01-11.44-4,6.48,2.89,8.59-.88,11.37-4.84,2.3-3.28,3.28-10.24,8.08-8.53,3.36,1.2-3.02,6.32-4.43,9.89-1.01,2.55-4.04,4.41-3.58,7.48Z"/>
  <path class="cls-1" d="M61.15,160.66c.69,.36,1.95,.69,1.97,1.07,.58,9.93,2.3,19.89-.88,29.74-2.49-10.21-.63-20.54-1.1-30.81Z"/>
  <path class="cls-1" d="M137.77,191.47c-1.93-10.33-4.1-20.66,1.09-30.81-.46,10.27,1.4,20.59-1.09,30.81Z"/>
  <path class="cls-1" d="M87.9,13.46c-1.59,.72-3.03,.67-4.23-.59,1.42,.14,3.28-1.98,4.23,.59Z"/>
  <path class="cls-1" d="M9.59,65.57c-.14,2.9-2.54,2.93-5.02,2.85,1.09-1.7,2.72-2.7,5.02-2.85Z"/>
  <path class="cls-1" d="M195.43,68.43c-2.44,.05-4.86,.07-4.98-2.83,2.33,.09,3.87,1.18,4.98,2.83Z"/>
  <path class="cls-1" d="M4.58,137.01c2.45-.06,4.85-.06,5.01,2.82-2.35-.06-3.89-1.17-5.01-2.82Z"/>
  <path class="cls-1" d="M190.42,139.83c.16-2.88,2.56-2.88,5.01-2.82-1.12,1.65-2.65,2.76-5.01,2.82Z"/>
  <path class="cls-1" d="M67.15,18.2c-.27,2.27-1.97,2.78-4.31,2.51,.94-1.45,2.56-2.06,4.31-2.51Z"/>
  <path class="cls-1" d="M137.16,20.71c-2.33,.28-4.02-.24-4.3-2.51,1.74,.45,3.37,1.05,4.3,2.51Z"/>
</svg>