<?xml version="1.0" encoding="UTF-8"?>
<svg id="Layer_1" data-name="Layer 1" xmlns="http://www.w3.org/2000/svg" viewBox="0 0 200 200">
  <defs>
    <style>
      .cls-1 {
        fill: #5c2e63;
      }
    </style>
  </defs>
  <path class="cls-1" d="M152.36,3.28H23.08c0,.6,0,1.11,0,1.62,0,5.28,0,10.57,0,15.85,0,2.05-.38,2.42-2.44,2.42-5.15,0-10.29,0-15.44,0-.56,0-1.13,0-1.85,0-.03,.68-.08,1.24-.08,1.79,0,56.72,0,113.45-.03,170.17,0,1.27,.26,1.71,1.63,1.71,48.6-.04,97.2-.03,145.8-.03,.47,0,.94,0,1.55,0v-20.81c-14.2,1.23-26.35-3.14-35.92-13.99-5.85-6.63-9.06-14.49-9.91-23.3-1.68-17.49,8.07-34.3,24.01-41.51,16.17-7.31,35-3.34,47.13,9.88,11.91,12.97,15.08,34.79,3.02,52.07,1.5,1.48,3.05,2.96,4.56,4.48,4.29,4.3,8.58,8.61,12.83,12.94,1.99,2.03,2.56,4.46,1.57,7.15-.95,2.59-2.89,4-5.58,4.3-2.23,.25-4.08-.63-5.65-2.22-5.28-5.34-10.58-10.66-15.86-16-.4-.41-.73-.89-1.04-1.28-2.37,1.33-4.44,2.7-6.68,3.69-2.56,1.13-5.24,2-7.92,2.83-.96,.3-1.29,.64-1.28,1.64,.04,6.87,.02,13.74,.02,20.6,0,2.46-.25,2.71-2.72,2.71-49.93,0-99.87,0-149.8,0-2.79,0-2.99-.21-2.99-3.03C.03,139,.03,81.03,0,23.05c0-1.51,.41-2.6,1.49-3.67C7.6,13.31,13.62,7.16,19.73,1.09c.6-.59,1.64-1.05,2.47-1.05C65.89,0,109.58,0,153.28,0c1.85,0,2.26,.4,2.26,2.3,0,28.82,0,57.64,0,86.45,0,.34,.1,.78-.07,.98-.42,.5-1,1.25-1.46,1.21-.57-.05-1.21-.71-1.57-1.26-.24-.37-.07-1.03-.07-1.55,0-27.62,0-55.24,0-82.85V3.28Zm32.62,131.62c.01-20.99-16.85-38.04-37.68-38.1-20.71-.06-37.83,17.05-37.85,37.81-.02,21.25,16.78,38.33,37.71,38.35,20.93,.02,37.81-16.97,37.83-38.07Zm-11.27,32.01c.26,.16,.78,.36,1.15,.73,5.1,5.11,10.18,10.25,15.27,15.37,.37,.37,.73,.77,1.14,1.09,1.29,1.02,3.12,.95,4.33-.15,1.27-1.14,1.53-3.02,.59-4.44-.23-.36-.54-.67-.84-.98-5.32-5.37-10.64-10.73-15.97-16.09-.26-.26-.55-.5-.67-.61-1.6,1.63-3.14,3.19-4.99,5.08ZM19.81,6.15c-4.54,4.56-9.13,9.16-13.65,13.69h13.65V6.15Z"/>
  <path class="cls-1" d="M34.49,86.09h9.02c0-.65,0-1.21,0-1.77,0-12.53,0-25.07,0-37.6,0-2.23,.38-2.62,2.54-2.62,3.57,0,7.15,0,10.72,0,2.51,0,2.81,.3,2.81,2.78,0,12.44,0,24.87,0,37.31,0,.61,0,1.22,0,1.9h9.02v-1.9c0-14.74,0-29.48,0-44.23,0-2.24,.31-2.56,2.57-2.56,3.57,0,7.15,0,10.72,0,2.48,0,2.73,.24,2.73,2.7,0,14.65,0,29.29,0,43.94v2.14c2.19,0,4.17,0,6.16,0,.47,0,1.09-.14,1.39,.1,.5,.39,1.12,1.06,1.1,1.58-.02,.51-.72,1.09-1.25,1.43-.34,.22-.93,.07-1.4,.07-26.06,0-52.12,0-78.17,0-1.98,0-2.69-.4-2.72-1.52-.04-1.19,.75-1.66,2.75-1.67,1.9,0,3.8,0,5.88,0,.04-.68,.1-1.28,.1-1.88,0-10.28,0-20.55,0-30.83,0-2.35,.33-2.69,2.62-2.69,3.72,0,7.43,0,11.15,0,1.8,0,2.26,.48,2.26,2.32,0,10.37,0,20.75,0,31.12,0,.57,0,1.14,0,1.87Zm46.84,.03V40.69h-9.39v45.43h9.39ZM46.89,47.38v38.68h9.35V47.38h-9.35Zm-15.72,6.75h-9.43v31.96h9.43v-31.96Z"/>
  <path class="cls-1" d="M58.44,156.75c-5.37-5.42-10.61-10.71-15.87-16-9.47,7.65-22.25,5.2-28.72-3.26-6.23-8.14-5.33-19.79,2.15-26.98,7.36-7.08,19.01-7.31,26.84-.52,7.57,6.56,9.66,18.77,2.21,28.24,.22,.27,.43,.57,.69,.83,4.75,4.79,9.5,9.57,14.24,14.38,.55,.56,.97,.86,1.81,.46,1.67-.79,3.44-.76,5.12,.02,.7,.32,1.1,.18,1.59-.34,1.42-1.49,2.85-2.97,4.35-4.37,.79-.73,1-1.33,.6-2.44-1.32-3.61,.7-7.55,4.28-8.64,3.64-1.1,7.49,1.02,8.44,4.64,.99,3.77-1.24,7.61-5.04,8.32-1.25,.23-2.66,0-3.9-.34-.84-.24-1.27-.14-1.83,.44-1.52,1.59-3.12,3.11-4.61,4.72-.29,.32-.45,1.03-.31,1.44,1.1,3.33,.28,6.42-2.27,8.23-2.43,1.73-5.64,1.65-8-.18-2.48-1.93-3.18-5.03-1.88-8.31,.05-.13,.09-.27,.11-.32ZM12.93,125.07c-.06,9.28,7.4,16.94,16.6,17.04,9.24,.1,16.88-7.47,16.99-16.82,.1-9.22-7.45-16.94-16.63-17.01-9.32-.07-16.9,7.44-16.96,16.79Zm54.85,35.01c0-1.9-1.58-3.51-3.45-3.52-1.85,0-3.48,1.62-3.49,3.49,0,1.88,1.59,3.5,3.46,3.5,1.9,0,3.47-1.57,3.47-3.48Zm8.48-15.55c-.02,1.88,1.53,3.48,3.4,3.52,1.85,.04,3.47-1.53,3.52-3.41,.05-1.95-1.54-3.59-3.48-3.58-1.88,.01-3.43,1.57-3.44,3.47Z"/>
  <path class="cls-1" d="M122.77,62.83h11.69c2.95,0,5.91,0,8.86,0,2.17,0,2.63,.49,2.53,2.62-.69,13.75-11.45,24-25.11,23.92-12.32-.08-22.91-9.7-24.18-21.97-1.34-12.94,6.78-24.57,19.08-27.27,1.53-.33,3.1-.5,4.67-.59,1.99-.11,2.46,.39,2.46,2.39,0,6.34,0,12.68,0,19.02v1.89Zm-3.24-19.9c-8.99,.15-19.75,8.34-19.92,21.18-.16,12.38,9.68,22.32,22.04,22.04,13.22-.3,20.67-11.55,20.83-20.12-.56,0-1.11,0-1.66,0-6.29,0-12.57,0-18.86,0-2.06,0-2.43-.37-2.43-2.41,0-6.29,0-12.58,0-18.87,0-.57,0-1.13,0-1.82Z"/>
  <path class="cls-1" d="M158.99,42.66c0-6.48,0-12.96,0-19.43,0-.34-.02-.67,0-1.01,.07-1.01,.6-1.65,1.61-1.65,1.03,0,1.52,.67,1.61,1.66,.03,.33,.01,.67,.01,1.01,0,13.05,0,26.1,0,39.15,0,.43,.11,.99-.11,1.26-.43,.54-1.07,1.28-1.59,1.25-.53-.03-1.08-.83-1.49-1.39-.18-.25-.05-.75-.05-1.13,0-6.57,0-13.15,0-19.72Z"/>
  <path class="cls-1" d="M132.62,60.86c-2,0-4,.02-6,0-1.48-.02-1.96-.51-1.97-2.01-.02-4.03-.01-8.06,0-12.09,0-1.63,.53-2.11,2.17-2.08,7.41,.1,13.92,6.73,13.95,14.21,0,1.35-.53,1.95-1.87,1.97-2.09,.03-4.19,0-6.28,0Zm-4.65-12.67v9.37h9.32c-.44-4.75-4.95-9.27-9.32-9.37Z"/>
  <path class="cls-1" d="M70.57,126.77c-4,0-8,0-12,0-1.47,0-2.28-.58-2.19-1.63,.1-1.3,1-1.57,2.13-1.57,8,.01,16,0,24,0,1.1,0,2.04,.21,2.1,1.57,.05,1.09-.67,1.63-2.18,1.63-3.95,0-7.9,0-11.86,0Z"/>
  <path class="cls-1" d="M160.3,17.29c-.44-.61-1.14-1.17-1.27-1.84-.19-.97,.5-1.61,1.52-1.64,1.03-.03,1.74,.6,1.63,1.55-.08,.67-.77,1.28-1.18,1.91-.23,0-.46,.01-.7,.02Z"/>
  <path class="cls-1" d="M178.13,134.92c-.07,17.44-13.83,31.17-31.18,31.11-16.97-.06-30.71-14.06-30.64-31.22,.07-17.31,13.94-31.16,31.11-31.06,17.03,.1,30.78,14.06,30.71,31.17Zm-3.18,.02c.03-15.37-12.48-28.01-27.72-28-15.2,0-27.66,12.52-27.74,27.85-.08,15.36,12.42,28.03,27.66,28.05,15.31,.02,27.77-12.49,27.8-27.89Z"/>
  <path class="cls-1" d="M27.63,128.57c2.73-2.94,5.4-5.81,8.06-8.68,.42-.46,.83-.92,1.27-1.36,.7-.71,1.52-.89,2.29-.19,.82,.74,.77,1.63,.04,2.42-3.4,3.7-6.82,7.38-10.25,11.05-.74,.79-1.59,.83-2.42,.15-2.15-1.76-4.29-3.52-6.41-5.3-.78-.65-.88-1.51-.25-2.3,.64-.81,1.5-.81,2.28-.18,1.78,1.42,3.53,2.89,5.38,4.4Z"/>
</svg>