<?xml version="1.0" encoding="UTF-8"?>
<svg id="Layer_1" data-name="Layer 1" xmlns="http://www.w3.org/2000/svg" viewBox="0 0 200 230">
  <defs>
    <style>
      .cls-1 {
        fill: #5c2e63;
      }
    </style>
  </defs>
  <path class="cls-1" d="M59.85,133.82c.8,6.89,5.41,10.84,11.05,13.96,6.52,3.61,13.7,5.35,21.16,6.09,11.78,1.16,23.25,.08,34.12-4.67,2.19-.96,4.3-2.18,6.25-3.53,4.16-2.88,7.19-6.52,7.67-11.89,1.8,.22,3.53,.38,5.24,.66,33.4,5.41,57.17,34.27,54.45,66.14-1.05,12.27-7.01,21.26-19.77,25.38-3.55,1.15-7.27,1.95-10.98,2.53-10.14,1.59-20.4,1.52-30.64,1.51-30.18-.03-60.35-.02-90.53-.17-8.05-.04-16.06-.76-23.91-2.66-14.75-3.57-22.66-12.44-23.78-26.77-2.56-32.75,22.24-61.77,56.64-66.29,.95-.13,1.92-.19,3.03-.3Z"/>
  <path class="cls-1" d="M167.53,70.8c0,1.72,0,3.45,0,5.17-.04,6.98-4.37,12.48-11.38,14.62-.95,.29-1.83,.99-2.58,1.66-2.3,2.05-4.55,4.13-6.74,6.28-.81,.79-1.65,1.69-2.03,2.7-3.96,10.42-9.49,19.93-18.29,27.42-11.17,9.52-23.95,13.23-38.65,8.42-8.17-2.67-14.63-7.72-20.02-13.98-7.54-8.76-12.33-18.8-15.05-29.73-.42-1.67-1.13-2.13-2.9-2.11-8.49,.09-15.02-4.3-16.93-11.29-.3-1.1-.45-2.27-.46-3.4-.06-3.79-.08-7.59,0-11.38,.12-6.35,4.03-11.44,10.53-13.76,.94-.34,1.49-.61,1.52-1.75,.51-20.81,11.29-35.54,30.83-44.42,24.19-11,53.76-4.18,69.6,15.55,6.73,8.37,10.15,17.84,10.18,28.36,0,1.19,.28,1.77,1.59,2.2,6.76,2.19,10.75,7.55,10.79,14.27,.01,1.72,0,3.45,0,5.17Zm-30.72,11.21c.11-.95,.21-1.78,.31-2.61,.74-6.18,1.16-12.37,.17-18.56-.5-3.14-1.29-6.21-3.66-8.67-1.2-1.24-2.37-1.71-4.29-.92-8.38,3.44-17.14,5.69-26.28,6.2-11.38,.64-22.11-2.15-32.49-6.23-1.86-.73-2.98-.29-4.14,.88-1.95,1.96-2.84,4.4-3.38,6.95-1.44,6.79-.97,13.61-.17,20.43,.1,.81,.16,1.63,.24,2.53-2.31-.98-4.37-1.85-6.44-2.73-.2,.13-.39,.26-.59,.38,.85,4.2,1.48,8.46,2.6,12.6,3.35,12.32,9.03,23.47,19.67,31.73,10.64,8.26,22.48,10.39,35.3,4.84,7.1-3.07,12.57-8.06,16.92-14.09,2.34-3.24,4.3-6.72,6.43-10.09-.15-.11-.3-.22-.45-.33-.27,.08-.55,.15-.81,.25-6.89,2.76-14.1,4.32-21.52,5.08-2.09,.21-4.19,.21-6.03,1.54-.74,.54-1.95,.66-2.96,.69-3.17,.08-6.34,.08-9.51,.02-4.23-.08-7.39-3.06-7.38-6.86,.01-3.78,3.2-6.73,7.44-6.79,3.11-.05,6.22-.04,9.33,.01,.84,.01,1.86,.03,2.47,.45,2.42,1.69,4.99,.95,7.54,.68,1.21-.13,2.41-.33,3.61-.55,7.74-1.42,15.05-3.83,21.43-8.34,.71-.51,1.7-1.09,1.87-1.79,.71-3,1.16-6.06,1.71-9.09-.16-.11-.33-.22-.49-.33-2.08,.87-4.15,1.75-6.46,2.71ZM56.54,44.18c10.17-15.15,24.03-24.12,43.09-24.26,19.05-.14,33.05,8.63,43.34,23.52-2.42-16.91-19.54-33.38-43.75-33.08-23.85,.3-40.45,16.71-42.68,33.82Z"/>
</svg>