<?xml version="1.0" encoding="UTF-8"?>
<svg id="Layer_1" data-name="Layer 1" xmlns="http://www.w3.org/2000/svg" viewBox="0 0 200 200">
  <defs>
    <style>
      .cls-1 {
        fill: #5c2e63;
      }
    </style>
  </defs>
  <path class="cls-1" d="M138.64,122.51v6.52h-2.26c-18.15,0-36.29,0-54.44,0-5.32,0-7.72-2.42-7.72-7.77,0-37.84,0-75.67,0-113.51,0-5.34,2.4-7.75,7.73-7.75,28.23,0,56.45,0,84.68,0,5.08,0,7.59,2.47,7.59,7.49,0,29.03,0,58.06,0,87.1,0,.66,0,1.31,0,2.07h-6.37V6.58H80.77V122.51h57.86Z"/>
  <path class="cls-1" d="M61.32,159.88c0,11.89,0,23.78,0,35.67,0,3.43-1.01,4.44-4.43,4.45-17.47,0-34.93,0-52.4,0-3.45,0-4.46-1-4.46-4.41C.03,171.68,.04,147.76,0,123.85c0-1.91,.57-3.27,2.07-4.5,8.65-7.04,17.23-14.15,25.84-21.24,2.2-1.81,3.31-1.83,5.5-.03,8.66,7.12,17.31,14.27,25.99,21.36,1.37,1.12,1.95,2.39,1.94,4.16-.05,12.09-.02,24.18-.02,36.28Zm-6.52,33.57c.03-.47,.07-.86,.07-1.24,0-22.23,.01-44.47-.04-66.7,0-.78-.52-1.79-1.13-2.31-6.01-5.06-12.1-10.03-18.16-15.03-1.59-1.31-3.19-2.62-4.8-3.94-.59,.44-1.02,.75-1.43,1.08-7.1,5.85-14.18,11.72-21.32,17.53-1.1,.89-1.53,1.78-1.53,3.2,.05,21.76,.03,43.53,.03,65.29v2.12H54.8Z"/>
  <path class="cls-1" d="M152.17,107.14c1.24,.6,2.33,1.08,3.38,1.63,1.95,1.01,4.98-.71,5.05-2.88,.11-3.91,.54-4.42,4.34-5.26,4.48-.98,8.94-.77,13.38,.27,2.23,.52,2.99,1.59,3.05,4.07,.08,3.46,2.84,5.03,5.88,3.35,2.51-1.39,3.51-1.26,5.49,.81,3.27,3.39,5.62,7.34,6.93,11.87,.69,2.36,.37,3.71-1.87,4.62-2.41,.97-2.5,2.72-2.2,4.67,.09,.61,.86,1.26,1.47,1.62,3.16,1.89,3.47,2.67,2.26,6.22-1.41,4.14-3.65,7.76-6.7,10.88-1.88,1.93-2.95,2.07-5.35,.76-1.94-1.06-4.13-.84-5.51,.75-.37,.42-.38,1.23-.39,1.87-.1,3.58-.62,4.2-4.18,4.99-4.4,.98-8.79,.88-13.18-.13-2.6-.6-3.37-1.54-3.42-4.17-.08-3.45-2.81-4.99-5.9-3.32-2.53,1.37-3.49,1.24-5.49-.83-3.23-3.34-5.54-7.23-6.87-11.68-.78-2.59-.36-3.61,1.99-4.97,1.91-1.1,2.77-2.97,2.02-4.89-.22-.57-1.01-.99-1.62-1.34-2.88-1.67-3.29-2.61-2.26-5.73,1.46-4.41,3.8-8.29,7.14-11.52,.69-.66,1.62-1.07,2.54-1.65Zm-3.24,30.01c1.11,1.84,2.03,3.55,3.16,5.11,.31,.42,1.36,.68,1.89,.5,3.99-1.38,10.82,1.46,12.53,5.33,.11,.25,.29,.5,.28,.75-.13,2.76,1.72,2.84,3.7,2.76,.67-.03,1.34-.02,2.01-.03,1.45-.01,2.23-.36,2.67-2.13,.41-1.63,1.91-3.06,3.14-4.38,.7-.74,1.87-1.03,2.77-1.6,2.2-1.41,4.48-1.59,6.92-.68,.47,.18,1.42,.08,1.64-.24,1.21-1.72,2.25-3.55,3.38-5.38-.7-.43-1.04-.65-1.38-.85-2.95-1.72-3.08-2.04-2.65-5.49,.12-.93,.29-1.94,.04-2.8-.99-3.43,.38-5.54,3.48-6.82,.09-.04,.13-.22,.33-.6-.92-1.52-1.83-3.22-2.96-4.78-.31-.42-1.36-.69-1.89-.51-3.92,1.34-10.65-1.38-12.46-5.14-.14-.3-.37-.63-.36-.93,.13-2.77-1.73-2.83-3.7-2.77-.67,.02-1.34,.02-2.01,.03-1.45,.01-2.26,.34-2.67,2.14-.36,1.58-1.78,3.01-2.98,4.28-.75,.79-1.98,1.1-2.94,1.71-2.21,1.4-4.48,1.59-6.92,.67-.47-.18-1.42-.08-1.64,.24-1.21,1.72-2.25,3.55-3.39,5.4,.84,.48,1.3,.75,1.76,1.01,2.41,1.39,2.68,2.15,2.38,4.92-.17,1.58-.11,3.21,.09,4.79,.24,1.9-.27,3.29-1.98,4.21-.64,.35-1.27,.73-2.25,1.3Z"/>
  <path class="cls-1" d="M96.6,38.71c-2.02,0-4.03,.05-6.05-.01-2.14-.06-3.38-1.27-3.41-3.41-.05-4.17-.05-8.33,0-12.5,.03-2.15,1.26-3.38,3.4-3.41,4.17-.05,8.33-.05,12.5,0,2.15,.03,3.38,1.26,3.41,3.4,.06,4.17,.06,8.33,0,12.5-.03,2.14-1.27,3.36-3.41,3.42-2.15,.06-4.3,.01-6.45,.01Zm-2.98-6.62h6.27v-6.13h-6.27v6.13Z"/>
  <path class="cls-1" d="M87.13,64.54c0-2.08-.04-4.17,.01-6.25,.06-2.16,1.25-3.4,3.39-3.43,4.17-.06,8.33-.05,12.5,0,2.15,.03,3.4,1.25,3.43,3.38,.06,4.17,.06,8.33,0,12.5-.03,2.15-1.26,3.4-3.39,3.43-4.17,.06-8.33,.06-12.5,0-2.23-.03-3.39-1.3-3.44-3.59-.04-2.01,0-4.03,0-6.05Zm12.79,3.11v-6.23h-6.19v6.23h6.19Z"/>
  <path class="cls-1" d="M87.13,99.98c0-2.08-.05-4.17,.01-6.25,.06-2.14,1.27-3.36,3.43-3.39,4.17-.05,8.33-.05,12.5,0,2.14,.03,3.37,1.27,3.39,3.42,.05,4.17,.06,8.33,0,12.5-.03,2.14-1.28,3.37-3.43,3.39-4.17,.05-8.33,.06-12.5,0-2.14-.03-3.34-1.28-3.39-3.43-.06-2.08-.01-4.17-.01-6.25Zm12.86-3.08h-6.27v6.17h6.27v-6.17Z"/>
  <path class="cls-1" d="M161.15,32.22h-48.06v-6.28h48.06v6.28Z"/>
  <path class="cls-1" d="M161.24,61.45v6.18h-48.2v-6.18h48.2Z"/>
  <path class="cls-1" d="M113.02,103.08v-6.2h32.07v6.2h-32.07Z"/>
  <path class="cls-1" d="M33.82,54.99v6.18h-6.27v-6.18h6.27Z"/>
  <path class="cls-1" d="M40.45,61.17v-6.18h6.22v6.18h-6.22Z"/>
  <path class="cls-1" d="M53.33,61.19v-6.22h6.26v6.22h-6.26Z"/>
  <path class="cls-1" d="M33.75,74.11h-6.2v-6.2h6.2v6.2Z"/>
  <path class="cls-1" d="M33.8,87.01h-6.21v-6.25h6.21v6.25Z"/>
  <path class="cls-1" d="M30.7,119.36c6.21,.01,11.27,5.09,11.26,11.31,0,6.21-5.09,11.27-11.31,11.26-6.21-.01-11.27-5.1-11.25-11.31,.01-6.21,5.09-11.27,11.31-11.26Zm-4.85,11.34c.03,2.65,2.29,4.83,4.93,4.77,2.64-.06,4.8-2.35,4.72-4.98-.09-2.56-2.27-4.67-4.83-4.66-2.65,0-4.85,2.23-4.81,4.88Z"/>
  <path class="cls-1" d="M183.89,129.1c-.03,7.11-5.88,12.88-13.02,12.83-7.11-.05-12.85-5.93-12.77-13.07,.07-7.02,5.87-12.73,12.91-12.73,7.12,0,12.91,5.84,12.88,12.97Zm-12.91,6.37c3.5,0,6.42-2.89,6.45-6.39,.03-3.5-2.85-6.45-6.34-6.5-3.61-.05-6.57,2.88-6.55,6.48,.02,3.5,2.93,6.4,6.43,6.41Z"/>
</svg>