<?xml version="1.0" encoding="UTF-8"?>
<svg id="Layer_1" data-name="Layer 1" xmlns="http://www.w3.org/2000/svg" viewBox="0 0 200 200">
  <defs>
    <style>
      .cls-1 {
        fill: #5c2e63;
      }
    </style>
  </defs>
  <path class="cls-1" d="M.1,199.99V123.61H2.32c12.07,0,24.14,.03,36.2-.05,1,0,2.19-.48,2.97-1.12,3.94-3.24,7.84-6.54,11.65-9.94,6.12-5.46,13.19-8.23,21.41-7.99,.4,.01,.8,0,1.19-.02,.13,0,.25-.06,.52-.12v-10.47c-.62,.28-1.19,.52-1.75,.8-7.46,3.72-14.93,7.45-22.39,11.19-3.92,1.96-7.95,2.54-12.08,.78-4.79-2.05-7.61-5.76-8.12-10.91-.51-5.23,1.46-9.65,6.02-12.35,10.26-6.08,20.63-11.95,31.01-17.82,3.7-2.09,7.56-3.92,11.36-5.88-7.16-6.24-10.96-14.45-10.18-24.45,.6-7.59,3.92-13.95,9.6-19.04,11-9.84,27.93-9.38,38.73,.74,10.04,9.41,13.96,29.45-1.75,43.22,5.95,1.27,10.64,4.96,15.78,7.74,4.58,2.48,9.07,5.14,13.87,7.88V0c18.02,11.58,35.7,22.94,53.63,34.46-.77,.53-1.33,.94-1.92,1.32-14.54,9.35-29.08,18.72-43.65,28.03-1.19,.76-1.72,1.51-1.68,2.98,.12,3.78-.02,7.56,.09,11.33,.02,.68,.56,1.58,1.13,1.98,1.58,1.09,3.32,1.92,4.96,2.93,4.83,2.98,7.36,8.35,6.42,13.51-1.05,5.76-5.04,9.74-10.92,10.91-.51,.1-1.01,.22-1.62,.35v6.12h-6.39c0-2.03,.08-4.06-.05-6.09-.04-.64-.48-1.55-1-1.81-7.84-4-15.73-7.92-23.61-11.85-.17-.08-.36-.1-.68-.18v23.16c5.47,.47,9.68,3,11.72,8.27,2.06,5.32,.57,9.99-3.37,14.1,3.23,3.37,4.93,7.23,4.01,11.93-.92,4.68-3.85,7.7-8.07,9.6,4.31,8.24,1.07,15.72-6.42,19.21,1.54,2.76,2.41,5.7,1.87,8.89-1.09,6.42-6.22,10.81-12.79,10.83-11.27,.04-22.55,.01-33.82,.01-23.87,0-47.74,0-71.61,0H.1Zm76.43-38.19v-6.36h2.28c13.86,0,27.71,0,41.57,0,3.15,0,5.48-1.46,6.5-4,1.71-4.27-1.41-8.7-6.23-8.71-13.99-.03-27.98-.01-41.97-.01-.71,0-1.41,0-2.13,0v-6.36h2.31c13.72,0,27.45,.03,41.17-.05,1.46,0,3.07-.36,4.34-1.05,2.51-1.36,3.5-4.37,2.68-7.05-.87-2.88-3.22-4.58-6.46-4.58-13.99-.02-27.98,0-41.97,0-.7,0-1.4,0-2.32,0v-12.63c-7.33-.62-13.52,1.42-18.86,6.22-3.74,3.37-7.61,6.61-11.48,9.83-1,.83-1.43,1.67-1.43,3.01,.04,20.55,.03,41.1,.03,61.65v1.94h1.91c20.29,0,40.58,0,60.87,0,4.36,0,7.28-2.61,7.24-6.43-.04-3.74-2.93-6.29-7.18-6.29-9.61,0-19.23,0-28.84,0-.7,0-1.39,0-2.06,0v-6.36h2.25c11.67,0,23.34,.03,35.01-.04,1.4,0,2.94-.34,4.16-.99,2.51-1.34,3.56-4.35,2.79-7.01-.84-2.89-3.2-4.67-6.39-4.67-11.87-.02-23.74,0-35.61,0-.71,0-1.42,0-2.19,0Zm44.44-82.66c0,2.15,.06,4.07-.02,5.98-.05,1.06,.27,1.66,1.26,2.15,8.78,4.34,17.52,8.78,26.31,13.11,3.91,1.93,7.96,.75,9.82-2.7,1.88-3.48,.6-7.35-3.26-9.57-11.55-6.63-23.06-13.31-34.72-19.74-2.22-1.22-5-1.91-7.54-1.97-9.41-.23-18.83-.07-28.25-.11-2.8-.01-5.35,.68-7.76,2.08-3.2,1.87-6.44,3.69-9.66,5.52-8.4,4.8-16.81,9.56-25.18,14.4-4.67,2.69-5.08,8.74-.85,11.72,2.55,1.8,5.22,1.62,7.9,.28,8.71-4.34,17.41-8.71,26.14-13.02,.99-.49,1.31-1.09,1.27-2.16-.09-1.97-.02-3.94-.02-5.96h6.45v37.95h31.79v-38h6.32ZM6.46,193.52h31.62v-63.39H6.46v63.39ZM98.64,59.96c12.25,.02,22.3-9.98,22.32-22.23,.02-12.25-9.98-22.29-22.23-22.31-12.25-.02-22.3,9.98-22.32,22.22-.02,12.25,9.99,22.29,22.23,22.32Zm54.25-2.69c11.91-7.66,23.54-15.14,35.41-22.77-11.98-7.7-23.59-15.15-35.41-22.75V57.27Z"/>
  <path class="cls-1" d="M50.93,59.97c0,1.94,.02,3.65,0,5.36-.05,3.66-2.23,6.43-5.64,7.22-3.12,.72-6.25-.81-7.9-3.95-1.23-2.34-2.46-4.69-3.54-7.11-.55-1.23-1.29-1.56-2.59-1.55-8.02,.06-16.04,.04-24.06,.03C2.49,59.96,0,57.45,0,52.69c0-10.01,0-20.01,0-30.02,0-4.73,2.51-7.26,7.21-7.26,16.44,0,32.88,0,49.31,0,4.61,0,7.13,2.52,7.14,7.13,.01,10.14,.01,20.28,0,30.42,0,4.45-2.59,6.98-7.08,7-1.78,0-3.57,0-5.65,0Zm6.27-38.05H6.47v31.68h2.23c8.88,0,17.77,.03,26.65-.03,1.24,0,1.89,.38,2.41,1.49,1.59,3.35,3.26,6.66,4.96,9.96,.24,.47,.77,.78,1.16,1.17,.23-.55,.63-1.09,.65-1.65,.08-2.12,.03-4.24,.03-6.36,0-1.49,0-2.99,0-4.63h12.64V21.92Z"/>
  <path class="cls-1" d="M152.8,149.07c0-2.02-.02-3.74,0-5.45,.06-3.56,2.19-6.27,5.53-7.09,3.14-.77,6.32,.72,7.96,3.82,1.27,2.4,2.5,4.82,3.63,7.29,.52,1.14,1.21,1.48,2.44,1.47,5.96-.06,11.93-.04,17.89-.03,4.59,0,7.1,2.53,7.11,7.16,.01,5.9,.02,11.79,0,17.69-.01,4.35-2.59,6.96-6.91,6.96-14.51,.02-29.03,.02-43.54,0-4.21,0-6.82-2.63-6.83-6.83-.02-6.03-.02-12.06,0-18.09,.01-4.29,2.64-6.87,6.97-6.89,1.84-.01,3.69,0,5.75,0Zm-6.23,6.38v18.92h44.31v-18.93h-2.27c-6.7,0-13.39-.04-20.09,.03-1.31,.01-2.02-.34-2.58-1.55-1.57-3.36-3.26-6.66-4.96-9.95-.23-.46-.79-.75-1.19-1.11-.21,.5-.58,.99-.6,1.5-.06,2.32-.03,4.64-.03,6.96,0,1.36,0,2.71,0,4.14h-12.59Z"/>
  <path class="cls-1" d="M50.83,28.25v6.11H12.87v-6.11H50.83Z"/>
  <path class="cls-1" d="M12.83,47.1v-6.12H50.77v6.12H12.83Z"/>
  <path class="cls-1" d="M159.04,168.13h-6.09v-6.19h6.09v6.19Z"/>
  <path class="cls-1" d="M171.79,168.08h-6.12v-6.16h6.12v6.16Z"/>
  <path class="cls-1" d="M178.37,161.89h6.12v6.15h-6.12v-6.15Z"/>
</svg>