<?xml version="1.0" encoding="UTF-8"?>
<svg id="Layer_1" data-name="Layer 1" xmlns="http://www.w3.org/2000/svg" viewBox="0 0 200 250">
  <defs>
    <style>
      .cls-1 {
        fill: #5c2e63;
      }
    </style>
  </defs>
  <path class="cls-1" d="M117.7,238.28c-1.9,8.4-6.09,11.71-14.57,11.71-2.39,0-4.78,0-7.18,0-7.27-.03-11.83-3.66-13.32-10.58-.07-.31-.18-.62-.34-1.13-.82,.5-1.47,.91-2.13,1.29-4.82,2.82-10.92,2.21-15-1.57-1.99-1.85-3.9-3.79-5.83-5.7-6.21-6.14-6.81-10.94-2.14-18.55-8.57-1.49-12.35-6.74-11.93-15.3-1.17,0-2.12,0-3.07,0-12.41,0-24.81,0-37.22,0-3.3,0-5.12-1.3-4.97-4.06,.67-12.82,1.03-25.68,2.36-38.44,2.02-19.34,13.17-32.59,30.49-41.37,11.14-5.65,22.83-9.9,34.76-13.52,1.31-.4,3.27-.08,4.45,.65,18.71,11.54,37.32,11.46,56-.07,1.02-.63,2.61-1.09,3.7-.8,14.55,3.92,28.81,8.58,41.68,16.6,14.37,8.95,22.35,21.93,24.12,38.27,1.38,12.75,1.72,25.62,2.42,38.43,.16,2.97-1.41,4.29-4.68,4.29-12.49,.03-24.99,.02-37.48,.02-.95,0-1.9,0-3.1,0,.4,8.44-3.17,13.73-11.69,15.2-.03,.18-.14,.38-.07,.48,4.52,7.31,3.89,12.26-2.35,18.34-1.63,1.59-3.24,3.21-4.9,4.77-5.15,4.86-10.89,5.41-16.88,1.67-.29-.18-.6-.33-1.13-.63Zm73.94-47.85c.08-.48,.21-.81,.19-1.14-.57-9.96-.89-19.95-1.79-29.88-1.56-17.17-9.97-30.06-25.73-38.19-10.01-5.16-20.58-8.86-31.42-11.88-.87-.24-2.11,.04-2.93,.49-19.97,11.16-39.9,11.12-59.88,.03-.76-.42-1.91-.71-2.68-.47-12.89,4.14-25.64,8.63-37.13,15.92-10.42,6.62-17.32,15.74-19.15,27.84-1.42,9.33-1.93,18.8-2.7,28.22-.24,2.98-.04,5.99-.04,9.21,11.99,0,23.76,.01,35.53-.04,.52,0,1.39-.58,1.49-1.01,1.4-6.19,5.48-9.47,11.85-10.45-.29-.51-.48-.89-.71-1.25-3.74-5.81-3.15-11.48,1.72-16.32,2.24-2.23,4.49-4.44,6.77-6.62,2.69-2.57,5.98-3.9,9.68-3.3,2.61,.42,5.09,1.56,7.74,2.41,.02-.05,.14-.36,.21-.68,1.45-6.8,6-10.48,13.09-10.53,2.57-.02,5.14,0,7.71,0,8.12,.02,12.47,3.5,14.09,11.27,.02,.11,.25,.18,.39,.26,7.84-4.52,12.55-3.89,19.1,2.55,1.75,1.72,3.54,3.41,5.26,5.16,3.29,3.34,4.29,7.36,3.12,11.78-.48,1.8-1.58,3.44-2.42,5.2,.15,.07,.36,.23,.59,.27,5.86,.98,9.47,4.27,11.02,9.92,.18,.64,1.63,1.33,2.5,1.34,10.72,.09,21.44,.06,32.17,.05,.77,0,1.54-.1,2.37-.16Zm-138.21,5.75c0,1.39-.02,2.78,0,4.17,.05,3.68,1.59,5.23,5.33,5.29,2.83,.05,5.67,.03,8.5,0,1.89-.02,3.61,.71,3.88,2.47,.22,1.41-.22,3.3-1.1,4.42-1.77,2.25-4.08,4.08-6.11,6.14-2.27,2.32-2.3,4.55-.05,6.85,2.02,2.07,4.11,4.07,6.2,6.07,2.55,2.44,4.75,2.41,7.35-.08,1.96-1.88,3.92-3.77,5.82-5.71,1.37-1.4,2.97-1.93,4.81-1.25,1.89,.71,2.55,2.3,2.57,4.17,.03,2.78,0,5.55,.03,8.33,.05,3.38,1.58,4.9,5.06,4.97,2.83,.06,5.67,.05,8.5,0,3.51-.05,5.15-1.68,5.2-5.17,.04-2.6,.06-5.21,0-7.81-.05-1.99,.46-3.69,2.46-4.47,1.94-.76,3.58-.14,5.02,1.35,1.95,2.02,3.96,3.97,6.02,5.88,2.28,2.12,4.53,2.11,6.78-.01,2.17-2.04,4.29-4.14,6.39-6.26,2.26-2.28,2.27-4.5,.01-6.84-1.83-1.89-3.7-3.73-5.64-5.52-1.54-1.42-2.49-3-1.7-5.08,.81-2.14,2.65-2.55,4.76-2.5,2.66,.07,5.32,.06,7.97,0,3.45-.09,5.06-1.67,5.11-4.98,.04-2.86,.05-5.73,0-8.59-.06-3.23-1.63-4.8-4.9-4.88-2.83-.06-5.67-.03-8.5-.01-1.92,.01-3.57-.51-4.35-2.35-.81-1.9-.21-3.52,1.29-4.94,2.1-1.99,4.19-4,6.17-6.1,2-2.12,1.96-4.38-.07-6.46-2.08-2.13-4.23-4.19-6.39-6.25-2.39-2.28-4.52-2.34-6.96-.1-2.13,1.96-4.17,4.01-6.22,6.05-1.39,1.39-3.22,2.08-4.77,1.01-1.17-.81-2.15-2.51-2.33-3.92-.36-2.82-.06-5.72-.14-8.58-.09-3.18-1.72-4.75-4.98-4.82-3.01-.06-6.02-.08-9.03,.01-3.15,.09-4.68,1.66-4.74,4.75-.05,2.86-.02,5.73-.04,8.59-.02,1.88-.68,3.77-2.63,4.02-1.52,.19-3.49-.37-4.73-1.29-2.24-1.66-4.03-3.88-6.09-5.79-2.38-2.22-4.6-2.22-6.99,0-2.12,1.97-4.18,4.01-6.18,6.09-2.41,2.51-2.4,4.56,.02,7.04,1.89,1.95,3.87,3.82,5.83,5.7,1.45,1.39,2.21,2.95,1.35,4.91-.81,1.85-2.4,2.41-4.32,2.41-2.92-.01-5.85-.06-8.77,.02-2.98,.08-4.54,1.64-4.67,4.57-.07,1.47-.01,2.95-.02,4.43Z"/>
  <path class="cls-1" d="M153.08,52.35c-.14,28.72-23.96,51.79-53.4,51.7-29.12-.08-52.89-23.56-52.73-52.09C47.1,22.96,70.85-.15,100.34,0c29.31,.15,52.88,23.54,52.74,52.35Zm-53.19,43.76c24.67,.08,44.99-19.59,45.13-43.71,.14-24.45-20.02-44.44-44.89-44.51-24.76-.07-45.04,19.73-45.09,44.02-.05,24.37,19.99,44.12,44.84,44.2Z"/>
  <path class="cls-1" d="M121.75,194.43c.03,11.92-9.54,21.37-21.65,21.41-12.09,.04-21.85-9.41-21.91-21.23-.06-11.75,9.71-21.38,21.73-21.42,12.13-.04,21.8,9.37,21.83,21.24Zm-21.85,13.48c7.63,.03,13.74-5.85,13.79-13.27,.05-7.41-6.03-13.47-13.56-13.51-7.58-.05-13.71,5.86-13.79,13.29-.08,7.38,6.03,13.47,13.56,13.5Z"/>
</svg>