<?xml version="1.0" encoding="UTF-8"?>
<svg id="Layer_1" data-name="Layer 1" xmlns="http://www.w3.org/2000/svg" viewBox="0 0 200 200">
  <defs>
    <style>
      .cls-1 {
        fill: #fbb247;
      }
    </style>
  </defs>
  <path class="cls-1" d="M200,10.57V191.52c-1.84,3.25-3.76,6.42-6.81,8.48H6.88c-3.55-2.83-6.66-5.98-6.66-11.36-.01-.29-.03-.58-.04-.86-.06-1.41-.17-2.81-.17-4.22,0-55.33,0-110.65,0-165.98,0-1.41,.11-2.81,.17-4.22,.5-.58,.55-1.17,.05-1.77C.97,5.47,4.04,1.7,9.5,.36l.39,.15,.36-.23C11.51,.19,12.78,.01,14.04,.01c57.33-.01,114.65-.01,171.98,0,1.27,0,2.53,.18,3.8,.27,0,0,.37,.23,.37,.23l.4-.15c5.29,.96,7.71,5.19,9.42,10.21Zm-135.03-1.82c-1.79,2.27-1.16,5.05-1.04,7.57,.33,6.57-1.17,13.25,.88,19.73,4.9,1.67,5.34,1.35,5.37-4.12,.03-5.9-.3-11.83,.1-17.7,.34-4.84-1.1-6.55-5.31-5.49Zm-23.01,19.83c.11,1.51,.19,3.02,.33,4.53,.12,1.3-.38,3.08,1.09,3.59,1.57,.54,3.31,.5,4.24-1.59,1.7-2.94,.66-6.22,.93-9.34,2.27-.04,4.55-.09,6.82-.13,.27-.06,.53-.12,.8-.18,5.01-3.69,6.45-8.15,4.15-12.85-2.21-4.5-14.99-6-18.36-2.15-1.66,6.04-1.67,12.08,0,18.12ZM14.71,47.33c-.07,.62-.19,1.24-.19,1.87,0,45.22,.03,90.44,.05,135.66,1.47,1.3,3.23,1,4.91,1,53.72,.01,107.43,.01,161.15,0,1.68,0,3.43,.3,4.89-1.04,0-28.56,.03-57.12,0-85.68-.01-17.26-.1-34.52-.15-51.78-1.47-1.34-3.23-.97-4.89-.97-53.62-.02-107.24-.02-160.87,0-1.67,0-3.43-.39-4.9,.94Zm21.96-10.51c3.09,.33,2.99-1.5,2.16-3.78-2.72-7.37-5.52-14.71-8.13-22.12-.72-2.04-1.87-2.41-3.58-2.36-1.52,.04-2.61,.25-3.27,2.15-2.61,7.59-5.38,15.11-8.07,22.66-.36,1-.92,2.2-.01,3.04,.94,.87,2.04,.43,3.14-.1,1.31-.63,2.07-1.69,2.28-3.1,.8-5.32,4.55-3.19,7.3-3.7,3.02-.56,4.27,1.12,5.06,4.03,.44,1.61,.64,3.99,3.13,3.26Zm148.93-12.08c-.01-6.18-1.18-7.52-6.57-7.53-5.32,0-6.83,1.76-6.78,7.98,.04,4.77,2.14,8.08,5.21,8.19,6.06,.21,8.16-2.02,8.15-8.64Zm-54.49,.13c0,5.1,2.4,8.87,5.62,8.83,5.33-.07,7.82-2.8,7.83-8.58,.01-6.23-1.47-7.93-6.9-7.91-5.27,.02-6.55,1.52-6.56,7.67Zm33.99,.24c0-6.45-1.27-7.92-6.79-7.9-5.19,.02-6.66,1.71-6.68,7.66-.01,5.1,2.46,8.87,5.75,8.77,5.49-.17,7.72-2.63,7.72-8.53Z"/>
  <path class="cls-1" d="M14.57,184.86c56.98-.01,113.96-.03,170.94-.04-1.46,1.33-3.21,1.04-4.89,1.04-53.72,.01-107.43,.01-161.15,0-1.68,0-3.43,.3-4.91-1Z"/>
  <path class="cls-1" d="M185.37,47.36c-56.89,0-113.78-.01-170.66-.02,1.48-1.33,3.24-.94,4.9-.94,53.62-.02,107.24-.02,160.87,0,1.67,0,3.43-.38,4.89,.97Z"/>
  <path class="cls-1" d="M64.97,8.75c-.05,9.1-.1,18.2-.16,27.3-2.05-6.47-.55-13.15-.88-19.73-.13-2.52-.75-5.3,1.04-7.57Z"/>
  <path class="cls-1" d="M41.95,10.46c.4,6.04,.39,12.08,0,18.12-1.67-6.04-1.66-12.08,0-18.12Z"/>
  <path class="cls-1" d="M47.62,35.11c.23-3.12-1.32-6.46,.93-9.34-.27,3.12,.77,6.4-.93,9.34Z"/>
  <path class="cls-1" d="M.17,13.36c.02-.59,.03-1.18,.05-1.77,.51,.61,.45,1.2-.05,1.77Z"/>
  <path class="cls-1" d="M9.5,.36c.24-.17,.49-.19,.75-.08,0,0-.36,.23-.36,.23l-.39-.15Z"/>
  <path class="cls-1" d="M189.82,.28c.27-.11,.52-.08,.76,.08,0,0-.4,.15-.4,.15l-.37-.23Z"/>
  <path class="cls-1" d="M55.37,25.64c.25-.16,.51-.22,.8-.18-.27,.06-.53,.12-.8,.18Z"/>
  <path class="cls-1" d="M.21,188.64c-.13-.28-.14-.57-.04-.86,.01,.29,.03,.58,.04,.86Z"/>
  <path class="cls-1" d="M87.77,60.69c.21-2.17-1.23-5.51,.32-6.24,3.16-1.49,6.82-2.01,10.31-2.2,1.88-.1,1.29,2.74,1.95,4.17,1.24,2.72,.19,6.5,3.68,8.25,3.11,1.56,5.4,1.7,7.81-1.52,5.3-7.08,5.32-6.82,12.2-1.63,2.58,1.95,3.13,3.58,1.14,6.24-.53,.71-.85,1.62-1.28,2.44-2.16,4.15-1.58,9.21,1.42,12.3,.86,.89,1.82,.51,2.77,.24,11.36-3.2,8.37-2.07,10.43,8.92,.6,3.21-2.49,3.54-4.59,4.2-3.3,1.03-6.87,1.27-7.13,6.76-.11,2.47,.09,3.85,1.8,5.46,7.15,6.72,7.04,6.75,.98,15.05-1.18,1.61-2.06,1.74-3.5,.68-1.29-.95-2.9-1.46-4.03-2.59-3.23-3.25-5.68-1.03-8.55,.81-2.91,1.87-1.51,4.31-1.29,6.59,.64,6.45-5.28,11.61-10.74,9.33-1.02-.43-1.02-1.36-1.26-2.22-.53-1.95-1.07-3.9-1.55-5.86-.57-2.31-1.04-4.16-3.93-4.52-2.76-.35-4.79-1.09-6.95,1.99-4.91,6.98-5.01,6.64-11.89,1.61-2.7-1.97-3.01-3.62-1.14-6.29,.77-1.1,1.34-2.41,1.85-3.69,.74-1.83,2.66-3.34,.77-5.84-1.85-2.44-2.71-5.27-6.79-4.68-7.67,1.11-7.6,.64-9.12-7.91-.69-3.85,.34-5.41,3.87-5.6,4.85-.26,8.03-4.14,8-9.27-.02-2.72-2.3-3.39-3.69-4.75-4.76-4.68-4.82-4.6-1.22-10.52,3.2-5.27,3.25-5.36,8.17-2.16,3.11,2.02,5.61,3.61,9.37,.42,3.12-2.65,1.14-5.38,1.81-7.95Zm12.26,22.27c-5.94-.03-11.16,5.64-11.2,12.15-.03,5.46,6.05,13.5,10.08,13.34,6.61-.28,12.49-6.64,12.38-13.41-.11-6.64-5.16-12.05-11.26-12.08Z"/>
  <path class="cls-1" d="M77.58,138.5c.93,3.85-.98,5.13-4.55,5.19-1.67,.03-3.5,.04-4.23,2.85-.67,2.61-.54,4.32,1.24,6.24,1.2,1.29,3.68,2.51,2.81,4.64-.95,2.32-2.77,4.45-4.66,6-1.49,1.22-2.51-1.27-3.82-1.93-1.76-.9-2.83-3.06-5.56-1.44-2.59,1.54-2.64,3.52-2.8,6.03-.1,1.58,.83,4.01-1.07,4.56-2.4,.7-5.17,1.16-7.47,.45-1.38-.43-1.33-3.6-1.36-5.54-.04-2.61-1.34-3.29-3.18-4.17-2.12-1.01-3.29-.26-4.73,1.36-3.78,4.27-5.98,3.87-9.41-.98-1.55-2.19,.53-2.99,.94-4.42,.59-2.03,3.24-2.92,2.01-6.07-1.27-3.25-2.89-4.56-6.06-4.08-2.19,.33-4.77,.66-4.39-3.45,.28-2.92-1.63-6.94,3.53-7.04,2.28-.04,4.4-.49,5.46-3.9,1.08-3.49-.94-4.7-2.47-6.18-2.48-2.41-2.47-4.29-.08-6.75,2.01-2.06,3.34-5.39,6.57-1.51,1.41,1.7,3.06,3.21,5.92,1.77,3.08-1.55,2.86-4.08,2.65-6.57-.45-5.57,3.44-3.97,5.94-4.79,3.4-1.13,3.01,1.83,3.65,3.9,.63,2.04-.23,4.56,2.45,5.98,3.33,1.77,5.15-.22,6.8-2.5,2.58-3.55,4.26-1.41,6.48,.5,2.48,2.13,3.22,3.98,.82,6.7-2,2.26-2.9,4.65-.98,7.79,1.14,1.87,1.63,2.91,4.13,2.08,4.46-1.49,5.25-.48,5.4,5.28Zm-20.03,1.76c.03-5.03-3.43-8.99-7.95-9.12-4.58-.13-8.15,3.6-8.31,8.68-.16,5.21,4.43,10.13,9.35,10.01,2.86-.07,6.88-5.64,6.91-9.57Z"/>
  <path class="cls-1" d="M42.56,98.23c-1.88-5.25-3.33-5.74-7.28-1.9-1.72,1.67-2.67,.97-3.77-.46-1.03-1.33-3.6-2.15-1.42-4.65,2.41-2.76,2.4-5.31-.36-7.73-1.32-1.97-3.25-1.09-4.95-1.27-.02-.64-.03-1.28-.05-1.93,.82-1.38,1.64-2.75,2.46-4.13,4.25-1.91,4.89-4.1,1.59-7.68-2.47-2.68-.5-3.88,.6-5.77,1.38-2.37,2.49-1.42,4.01-.2,3.82,3.04,5.8,1.97,6.08-3.31,.11-2.18,.37-3.56,2.78-3.51,2.1,.04,3.62-.17,3.99,3.11,.55,4.89,3.17,5.71,6.48,2.25,1.51-1.58,2.53-2.08,4.13-.2,1.46,1.71,3.14,2.72,1.12,5.61-2.9,4.16-1.82,6.37,2.96,6.87,1.89,.2,3.19,.35,3.06,3.12-.1,2.3,.23,4.17-2.64,4.74-4.31,.86-5.13,3.35-2.2,6.85,2.12,2.54,1.28,3.99-.26,6.26-1.97,2.92-3.22,.68-4.36-.44-2.42-2.4-4.08-.51-5.91,.86-1.57,1.71-.57,4.34-1.77,6.19-1.15,.03-2.31,.06-3.46,.09-.24-.29-.49-.58-.73-.88-.04-.61-.08-1.22-.12-1.83,.12-.23,.25-.46,.37-.69-.13,.2-.26,.41-.39,.61Zm7.42-19.36c.08-3.88-2.64-7.06-6.02-7.01-2.97,.04-5.56,3.01-5.59,6.42-.03,3.51,2.67,6.65,5.83,6.75,3.02,.1,5.71-2.76,5.78-6.16Z"/>
  <path class="cls-1" d="M133.31,173.95c1.11-3.78,2.32-7.94,3.54-12.1,2.86-9.81,5.76-19.61,8.54-29.44,.85-2.99,2.33-4.9,5.21-3.79,2.63,1.01,2.82,3.34,1.98,6.17-4.03,13.49-7.96,27.01-11.84,40.55-.8,2.8-2.17,4.52-4.89,3.75-2.02-.57-2.84-2.4-2.54-5.14Z"/>
  <path class="cls-1" d="M166.39,153.89c-3.9-2.04-7.13-3.81-10.42-5.43-2.29-1.13-4.12-2.69-3.1-5.66,1.04-3.04,3.91-2.79,5.81-1.93,6.13,2.77,12.14,5.88,18.03,9.22,3.05,1.73,2.82,6.05-.35,7.79-6.06,3.33-12.25,6.35-18.38,9.52-2.23,1.15-3.88,.35-4.93-1.9-1.12-2.41-.24-4.35,1.76-5.48,3.58-2.04,7.26-3.86,11.6-6.13Z"/>
  <path class="cls-1" d="M119.8,153.89c4.11,2.14,7.39,3.85,10.67,5.53,2.27,1.17,4.03,2.87,2.89,5.82-1.19,3.09-3.46,3.16-6.03,1.79-5.48-2.91-11-5.7-16.52-8.53-1.87-.96-3.57-2.07-3.52-4.73,.04-2.42,1.58-3.5,3.32-4.39,5.13-2.62,10.27-5.23,15.39-7.89,1.18-.61,2.35-.95,3.66-.91,1.76,.05,3.44,.17,3.92,2.53,.44,2.16-.45,3.73-2.11,4.65-3.53,1.95-7.12,3.76-11.67,6.14Z"/>
  <path class="cls-1" d="M27.21,76.17c-.82,1.38-1.64,2.75-2.46,4.13-.64-2.44-.55-4.36,2.46-4.13Z"/>
  <path class="cls-1" d="M24.8,82.22c1.7,.18,3.62-.71,4.95,1.27-1.68-.26-3.66,.89-4.95-1.27Z"/>
  <path class="cls-1" d="M46.89,100.92c1.2-1.85,.2-4.47,1.77-6.19-.54,2.08,1.84,5.19-1.77,6.19Z"/>
  <path class="cls-1" d="M42.7,100.14c.24,.29,.49,.58,.73,.88-.62,.09-.76-.3-.73-.88Z"/>
  <path class="cls-1" d="M27.23,15.86c1.08,3.02,1.82,5.09,2.66,7.45-1.75,.81-4.25,1.14-4.68,.06-.87-2.18,.79-4.36,2.02-7.51Z"/>
  <path class="cls-1" d="M48.55,13.48c1.43,.01,2.86,.03,4.29,.04,0,0,.36,.25,.36,.25l.41-.11c1.9,.72,2.71,2.19,2.19,4.33-.53,2.13-2,2.86-3.89,2.76-.56-.52-1.1-.49-1.63,.06-.58,0-1.16,0-1.74,0,0-2.44,0-4.88,0-7.33Z"/>
  <path class="cls-1" d="M48.55,13.48c0,2.44,0,4.88,0,7.33-1.78-2.44-1.77-4.88,0-7.33Z"/>
  <path class="cls-1" d="M50.29,20.81c.53-.55,1.07-.59,1.63-.06-.54,.02-1.08,.04-1.63,.06Z"/>
  <path class="cls-1" d="M53.61,13.66l-.41,.11s-.36-.25-.36-.25c.28-.13,.54-.09,.77,.14Z"/>
  <path class="cls-1" d="M42.56,98.23c.13-.2,.26-.41,.39-.61-.12,.23-.25,.46-.37,.69,0,0-.02-.07-.02-.07Z"/>
</svg>