<?xml version="1.0" encoding="UTF-8"?>
<svg id="Layer_1" data-name="Layer 1" xmlns="http://www.w3.org/2000/svg" viewBox="0 0 199.99 200.01">
  <defs>
    <style>
      .cls-1 {
        fill: #fbb247;
      }
    </style>
  </defs>
  <path class="cls-1" d="M27.99,74.69C10.31,68.89,1.49,55.28,4.18,42.02c1.47-7.24,5.81-13.3,12.92-18.08,7.1-4.77,15.42-7.13,25.2-7.27-1.7-1.4-3.1-2.61-4.56-3.76-1.77-1.4-3.64-2.73-5.38-4.16-2.51-2.07-2.4-5.41,.15-7.29,2.73-2,6.81-1.94,9.47,.13,4.95,3.87,9.9,7.73,14.85,11.6,2.07,1.62,4.15,3.23,6.19,4.88,2.86,2.31,2.92,5.3,.05,7.57-6.99,5.52-14.02,11.02-21.08,16.49-2.81,2.18-6.94,2.18-9.57,.1-2.61-2.06-2.54-5.27,.24-7.49,2.73-2.18,5.52-4.32,8.27-6.49,.39-.31,.76-.63,1.39-1.16-3.3-.04-6.12,.39-8.86,1.17-11.4,3.22-18.27,12.62-16.06,21.96,2.22,9.41,12.79,16.27,24.93,16.09,1.61-.02,3.32-.33,4.81-.82,6.55-2.17,13.32-3.59,20.35-4.41,7.86-.92,15.71-.83,23.49,.15,33.46,4.19,57.75,24,64.23,47.29,6.68,24.03-4.9,48.49-30.82,63.21-.5,.28-1,.58-1.81,1.05h54.42c-.71-.64-1.28-1.23-1.94-1.74-2.45-1.9-4.95-3.75-7.38-5.65-2.96-2.32-3.1-5.6-.38-7.68,2.81-2.14,6.8-2.01,9.83,.36,5.3,4.17,10.57,8.36,15.86,12.53,1.45,1.14,3,2.21,4.45,3.36,3.4,2.69,3.4,5.6,.02,8.26-6.77,5.31-13.56,10.61-20.34,15.92-1.82,1.43-3.91,2.19-6.53,1.73-2.51-.44-4.23-1.63-4.95-3.55-.71-1.9-.24-3.66,1.57-5.11,2.86-2.28,5.75-4.52,8.63-6.78,.34-.27,.65-.57,1.27-1.12h-2.55c-52.58,0-105.15,0-157.73,0-2.84,0-5.26-.53-6.81-2.5-2.74-3.48,.38-7.84,5.69-7.91,5.29-.07,10.57-.02,15.86-.02h2.91C13.41,160.89,1.39,145.12,.11,124.99c-1.28-20.15,8.51-36.84,27.88-50.29h0Zm50.63-3.9c-35.64,.09-65.56,22.29-65.44,51.05,.12,29.43,30.52,50.93,65.05,51.07,36.3,.15,65.55-23.19,65.58-51.04,.03-27.63-28.63-50.99-65.19-51.09h0Z"/>
</svg>