<?xml version="1.0" encoding="UTF-8"?>
<svg id="Layer_1" data-name="Layer 1" xmlns="http://www.w3.org/2000/svg" viewBox="0 0 200 150">
  <defs>
    <style>
      .cls-1 {
        fill: #fbb247;
      }
    </style>
  </defs>
  <path class="cls-1" d="M0,12.24C13.2,13.24,25.23,9.44,36.09,.46c.88-.72,2.89-.54,3.93,.15,8.22,5.47,16.61,10.38,26.11,11.95,2.82,.47,5.69,.52,9.1,.82,0,5.3,.25,10.84-.05,16.33-.8,14.82-3.68,28.97-10.76,41.57-6.17,10.98-14.64,18.65-25.04,23.33-1.22,.55-3.03,.19-4.31-.45C16.98,85.25,6.91,68.64,2.91,46.71,1.4,38.43,.94,29.9,0,21.48c0-3.08,0-6.16,0-9.24Zm4.5,5.28c.96,9.84,1.3,19.08,2.85,28.03,3.28,18.97,11.73,33.68,27.25,41.97,2.26,1.2,4.15,1.25,6.41,.03,13.25-7.19,21.77-19.18,26.12-35.32,2.97-11.01,3.8-22.32,2.96-33.96-10.09,.3-18.89-3.56-26.96-9.39-3.87-2.8-6.47-2.88-10.28,.2-8.05,6.52-17.35,8.92-28.36,8.45Z"/>
  <path class="cls-1" d="M82.37,150c-1.54-.66-3.13-1.2-4.62-1.98-8.2-4.29-12.45-14.75-10.21-24.99,2.19-9.99,10.31-16.65,19.38-15.87,8.84,.75,15.68,9.04,16.62,20.11,.81,9.62-5.13,19.3-13.45,21.94-.67,.21-1.32,.53-1.98,.8h-5.73Zm3.06-13.27c3.91-.06,6.99-3.73,6.93-8.27-.06-4.54-3.2-8.17-7.07-8.18-3.83,0-7.14,3.74-7.16,8.11-.03,4.68,3.22,8.39,7.3,8.33Z"/>
  <path class="cls-1" d="M83.13,19.87c.31-2.23,.53-3.88,.77-5.6,.32-.15,.63-.44,.95-.44,13.37-.03,26.74-.14,40.1,.02,5.14,.06,8.96,4.58,9.14,10.72,.21,7.25,.05,14.52,.05,22.65,4.82,0,9.34,.45,13.76-.1,6.91-.86,11.06,2.6,13.51,9.88,1.96,5.83,4.04,11.6,6.24,17.31,.43,1.12,1.53,2.26,2.53,2.63,2.72,1.01,5.58,1.45,8.31,2.4,12.85,4.47,20.63,15.91,21.4,31.53,.21,4.17,.03,8.36,.03,12.86h-8.56c-1.64-9.53-4.86-18.32-13-23.25-4.65-2.81-9.6-3.32-14.63-2.34-10.28,2-17.44,11.95-18.54,25.83h-10.64c-.15,1.37-.34,2.3-.35,3.25-.02,2.4-.95,3.6-3.06,3.59-5.73-.04-11.46,.12-17.18-.14-1.02-.05-1.98-1.76-2.97-2.7,1-1.08,1.96-3.02,3.02-3.09,4.75-.34,9.53-.15,14.9-.15v-4.58c0-30.8,0-61.59,0-92.39,0-6.26-1.39-7.87-6.8-7.87-12.88-.01-25.75,0-39,0Zm75.19,56.75c-.12-.89-.09-1.61-.33-2.19-1.71-4.12-3.29-8.33-5.25-12.28-3.42-6.9-4.63-7.37-11.41-5.55v20.02h16.99Z"/>
  <path class="cls-1" d="M186.42,125.56c-.04,11.76-8.15,21.16-18.26,21.14-10.14-.01-18.36-9.7-18.34-21.61,.02-11.52,8.41-21.21,18.38-21.21,10.16,0,18.26,9.63,18.22,21.68Zm-25.25-.3c0,4.71,3.27,8.53,7.22,8.41,3.71-.11,7.09-4.19,6.99-8.43-.11-4.51-3.27-8.04-7.19-8.04-4.01,0-7.01,3.45-7.02,8.05Z"/>
  <path class="cls-1" d="M18.94,97.52c4.11,1.28,6.01,3.56,5.49,8.44-.43,3.99-.13,8.1-.07,12.15,.06,4.54,1.78,6.55,5.72,6.57,8.35,.05,16.69,.01,25.04,.02,.83,0,1.87-.34,2.46,.11,1.03,.78,1.78,2.06,2.65,3.13-.85,.94-1.69,2.68-2.56,2.69-10.13,.17-20.27,.3-30.4-.05-4.43-.16-8.05-5.16-8.27-10.98-.26-7.23-.06-14.49-.06-22.08Z"/>
  <path class="cls-1" d="M55.87,26.58c-7.64,13.47-15.32,27-22.54,39.73-4.36-6.61-9.23-13.99-14.23-21.57,2.47-3.98,6.62-2.95,13.62,4.24,3.53-5.4,7.33-10.57,10.51-16.24,3.25-5.8,7.27-8.11,12.64-6.15Z"/>
</svg>