<?xml version="1.0" encoding="UTF-8"?>
<svg id="Layer_1" data-name="Layer 1" xmlns="http://www.w3.org/2000/svg" viewBox="0 0 200 200">
  <defs>
    <style>
      .cls-1 {
        fill: #fbb247;
      }
    </style>
  </defs>
  <path class="cls-1" d="M45.7,145.54c-.14-1.04-.15-1.53-.28-1.96-.94-3.15-.06-5.34,1.93-7.52,3.72-4.06,5.59-9.26,4.69-15.54-1.04-7.22-5.48-12.27-11.89-13.15-2.65-.36-4.52-1.26-5.37-4.63-.31-1.21-.84-2.53-1.59-3.34-2.15-2.33-1.35-4.21,.08-6.53,6.03-9.79,13.72-16.65,23.03-20.67,.77-.33,2.11,0,2.73,.67,15.47,16.64,35.22,16.77,51.07,.31,.58-.61,1.81-.9,2.52-.58,9.87,4.45,17.81,12.12,23.97,22.71,.77,1.32,1.06,2.36-.06,3.58-.44,.48-.85,1.15-1.02,1.83-1.15,4.81-3.89,6.2-7.69,7.06-10.27,2.31-14.03,16.47-7.3,26.41,.34,.5,.65,1.09,1.07,1.43,2.95,2.37,3.35,5.58,1.99,9.38-.05-.01-.28,0-.32-.09-2.89-6.83-7.59-10.4-13.6-10.68-5.66-.26-9.37-2.91-10.85-10.01-.44-2.11-1.46-4.12-2.47-5.96-6.11-11.19-18.07-10.82-23.68,.81-1.73,3.59-3.08,7.49-4.43,11.34-.63,1.8-1.54,2.5-3.03,2.69-2.31,.3-4.61,.76-6.9,1.25-5.14,1.09-9.33,3.98-11.83,9.97-.12,.29-.33,.53-.77,1.21Z"/>
  <path class="cls-1" d="M115.32,38.33c-.08,21.27-13.82,38.17-30.96,38.07-16.83-.1-30.42-17.41-30.3-38.62C54.18,16.63,68.04-.16,85.25,0c16.59,.15,30.15,17.43,30.07,38.33Z"/>
  <path class="cls-1" d="M62.17,189.7c.6-4.65,1.25-10.2,2.08-15.71,.28-1.87-.04-3.14-1.13-4.45-2.74-3.32-5.38-6.77-8.04-10.21-2.13-2.77-3.51-5.94-2.5-9.89,1.05-4.1,3.76-5.58,6.88-6.2,3.7-.74,7.42-1.34,11.1-2.23,.85-.21,1.88-1.14,2.28-2.1,1.63-3.89,3.05-7.91,4.56-11.89,.32-.85,.63-1.7,.99-2.51,1.39-3.12,3.31-5.41,6.35-5.38,3.04,.03,4.98,2.32,6.28,5.49,1.26,3.08,2.72,6.11,3.52,9.39,1.34,5.47,4.01,7.98,8.57,8.02,2.3,.02,4.6,.77,6.89,1.22,3.05,.6,5.68,2.09,6.75,6.02,1.07,3.92-.23,7.14-2.37,9.93-2.69,3.52-5.39,7.03-8.19,10.42-1.03,1.25-1.36,2.45-1.1,4.21,.71,4.68,1.29,9.4,1.91,14.1,.12,.92,.19,1.86,.2,2.79,.09,7.31-4.51,11.29-9.85,8.27-3.47-1.96-6.83-4.3-10.08-6.8-1.92-1.49-3.38-1.43-5.27,.04-3.11,2.41-6.35,4.64-9.66,6.61-5.52,3.29-10.3-.64-10.2-9.12Z"/>
  <path class="cls-1" d="M6.52,146.79c.33-2.46,.88-5.48,1.1-8.55,.08-1.18-.35-2.71-.97-3.62-1.4-2.06-3.11-3.79-4.61-5.74-1.65-2.15-2.54-4.66-1.73-7.67,.8-3.01,2.73-4.31,5.06-4.9,.88-.22,1.78-.54,2.66-.49,4.24,.24,6.82-2.21,8.02-7.23,.32-1.32,.93-2.56,1.53-3.74,2.59-5.02,7.41-5.05,9.92,.03,1.29,2.62,2.19,5.54,3.44,8.19,.42,.89,1.34,1.73,2.14,1.96,2.11,.6,4.3,.8,6.44,1.24,2.43,.5,4.44,1.82,5.27,4.95,.82,3.13-.18,5.66-1.9,7.87-.63,.8-1.21,1.72-1.95,2.32-3.56,2.88-4.22,6.78-2.9,11.56,.33,1.22,.42,2.57,.51,3.87,.42,6.07-3.53,9.81-8.05,7.5-2.21-1.13-4.23-2.84-6.44-3.98-.88-.45-2.15-.45-3.03,0-2.14,1.1-4.1,2.75-6.23,3.89-4.45,2.38-8.43-.99-8.27-7.47Z"/>
  <path class="cls-1" d="M169.77,123.63c-.79,1.74-1.41,3.65-2.42,5.17-1.28,1.94-2.77,3.71-4.33,5.29-1.37,1.39-1.61,2.9-1.25,4.92,.45,2.55,.82,5.14,1.06,7.74,.54,6.04-3.44,9.89-7.95,7.63-2.15-1.07-4.22-2.46-6.2-3.95-1.35-1.01-2.41-.92-3.71,.05-1.73,1.3-3.56,2.41-5.38,3.52-2.23,1.36-4.52,1.61-6.6-.35-2.01-1.89-2.42-4.59-2.05-7.56,.1-.83,.08-1.72,.32-2.49,1.63-5.33,.58-9.52-3.23-12.71-.73-.61-1.34-1.5-1.93-2.35-3.35-4.79-1.73-10.9,3.28-12.16,2.2-.55,4.48-.68,6.66-1.33,.93-.28,1.99-1.16,2.5-2.16,1.12-2.2,1.9-4.66,2.86-6.99,1.18-2.83,2.88-4.82,5.62-4.74,2.74,.08,4.31,2.26,5.44,5.09,.9,2.26,1.69,4.61,2.76,6.74,.47,.94,1.46,1.79,2.33,2.04,2.19,.63,4.45,.81,6.66,1.31,3.18,.72,5.18,3.5,5.58,7.27Z"/>
  <path class="cls-1" d="M200,73.2c-.46,.96-1,3.39-2.29,4.59-4.1,3.84-4.96,8.47-3.49,14.36,.74,2.94,.1,5.84-2.02,7.76-2.15,1.95-4.59,1.69-6.53-.17-3.78-3.64-7.21-3.68-11-.01-1.93,1.87-4.41,2.15-6.52,.18-2.04-1.91-2.84-4.8-2.03-7.75,1.66-6.1,.35-10.65-3.68-14.51-1.87-1.79-2.62-4.58-1.83-7.58,.8-3.02,2.75-4.74,5.1-4.7,5,.08,7.74-2.86,9.18-8.63,.75-3.01,2.61-5.08,5.39-5.02,2.66,.06,4.43,2.1,5.15,5.01,1.43,5.76,4.18,8.56,9.18,8.66,3.36,.06,5.33,3.1,5.39,7.82Z"/>
  <path class="cls-1" d="M112.49,174.78c4.42-6.85,10.69-11.36,11.73-21.3,2.2,5.65,5.1,8.97,9.44,10.1,3.39,.88,6.54,.06,9.57-1.82,.94-.58,1.83-1.28,2.79-1.8,1.52-.82,3.41,.67,3.51,2.69,.31,6.09-3.19,11.85-8.06,12.02-9.49,.34-19,.1-28.99,.1Z"/>
  <path class="cls-1" d="M45.14,153.64c1.11,9.71,7.27,14.31,11.68,20.94-.77,.14-1.31,.32-1.85,.32-8.46,.01-16.92,.06-25.38-.02-5.69-.05-9.71-4.93-9.72-11.6,0-2.84,1.84-4.31,3.89-3.1,1.62,.96,3.19,2.11,4.87,2.83,6.35,2.69,12.23-.12,15.58-7.3,.22-.47,.43-.94,.93-2.06Z"/>
</svg>