<?xml version="1.0" encoding="UTF-8"?>
<svg id="Layer_1" data-name="Layer 1" xmlns="http://www.w3.org/2000/svg" viewBox="0 0 200 200">
  <defs>
    <style>
      .cls-1 {
        fill: #fbb247;
      }
    </style>
  </defs>
  <path class="cls-1" d="M200,117.95c-1.75,6.01-3.53,12.01-5.26,18.04-2.26,7.9-5.59,9.99-11.42,7.15-2.88-1.41-6.06-4.41-8.59-3.67-2.28,.67-3.55,6.05-5.84,8.32-4.51,4.46-4.21,9.12-1.5,14.64,.9,1.84,1.54,3.94,2.13,6.01,1.57,5.51,.2,10.26-3.8,12.83-4.29,2.75-8.63,5.38-13.01,7.85-4.51,2.54-8.02,.65-10.23-5.23-.74-1.99-1.45-4-2.16-6-.7-1.99-1.39-4-2.07-5.96-4.75,.33-9.35,.52-13.93,1.09-.81,.1-1.84,1.56-2.21,2.71-1.23,3.74-2.18,7.65-3.3,11.46-1.74,5.92-5.06,8.18-9.49,6.19-4.63-2.07-9.24-4.3-13.76-6.74-4.29-2.31-5.77-7.08-4.27-12.93,.58-2.26,1.12-4.55,1.89-6.7,1.42-3.93,2.46-7.64-2.26-10.26,4.43-2.85,8.06-5.85,12.02-7.48,2.2-.91,5.14-.26,7.4,.89,24.09,12.28,51.1-5.39,57.79-38.01,5.97-29.14-6.36-59.58-28.02-69.17-21.64-9.58-45.68,4.74-53.59,33.15-2.72,9.77-6.7,16.07-13.87,19.37-1.07,.49-2.07,1.29-2.53,.48-1.66-1.84-3.17-4.06-5.03-5.43-2.11-1.56-4.57-2.28-6.83-3.5-4.43-2.38-6.1-6.77-4.59-12.71,1.56-6.13,3.32-12.19,5.17-18.18,1.68-5.41,5.18-7.37,9.49-5.56,1.72,.72,3.37,1.7,5.07,2.52,1.56,.76,3.14,1.46,4.69,2.17,3.13-4.65,6.27-9.12,9.2-13.82,.52-.84,.5-2.81,.16-3.95-1.19-3.95-2.73-7.72-3.96-11.65-1.72-5.54-.44-10.13,3.64-12.78,4.39-2.85,8.85-5.54,13.34-8.1,4.18-2.38,7.65-.67,9.7,4.63,1.29,3.34,2.24,6.94,3.73,10.1,.61,1.28,2.21,2.17,3.44,2.39,1.48,.27,3.13-.86,4.58-.52,6.63,1.55,9.81-2.51,11.08-10.73C133.7,6.3,135.34,2.21,138.76,0c1.29,0,2.58,0,3.88,0,3.08,1.64,6.14,3.37,9.25,4.9,11.44,5.61,12.16,7.26,7.69,22.29-1.39,4.68-.58,6.66,1.97,10.46,5.92,8.81,11.39,8.76,18.43,2.93,4.21-3.49,7.86-1.22,10.13,4.79,1.67,4.42,3.14,8.96,4.7,13.45,3.64,10.44,2.8,13.58-4.91,18.42q-6.69,4.2-6.2,13.74c.05,1.02,.16,2.08,.03,3.07-.83,6.1,.97,9.58,5.66,10.58,1.37,.29,2.62,1.45,3.98,1.92,3.41,1.16,5.59,3.91,6.62,8.33v3.08Z"/>
  <path class="cls-1" d="M0,150.91c1.84-4.43,3.23-9.35,5.6-13.21,7.77-12.68,18.39-15.87,29.69-11.99,10.58,3.63,19.99,2.18,29.33-4.95,5.79-4.42,11.84-8.32,17.99-11.79,6.55-3.7,11-9.89,14.19-18.02,1.84-4.69,3.6-9.45,5.66-13.96,8.13-17.72,22.98-23.03,36.86-13.18,2.47,1.75,4.7,4.08,6.97,7.35-1.27,.22-2.54,.45-3.81,.67-5.69,.99-10.84,3.57-14.39,9.81-3.14,5.53-4.08,11.7-1.81,18.3,2.31,6.74,6.53,10.41,11.84,10.62,4.93,.2,9.9-1.1,15.15-1.78-1.68,7.86-5.16,14.8-10.85,19.68-8.01,6.86-16.87,7.88-25.67,4.32-9.31-3.77-17.61-2.32-25.95,3.96-7.27,5.47-14.86,10.21-22.37,15.08-4.46,2.89-7.83,7.1-10.14,12.88-1.62,4.07-3.35,8.07-4.92,12.18-4.6,11.96-10.95,21.01-21.57,23.13h-6.98c-6.45-2.26-12.63-5.19-17.02-11.1,4.65-2.21,9.69-3.71,14.02-6.9,5.51-4.06,7.98-11.19,6.66-19.56-1.26-7.96-5.43-12.56-11.47-13.82-2.37-.5-4.86-.65-7.24-.27-3.28,.52-6.51,1.68-9.76,2.56Z"/>
</svg>