<?xml version="1.0" encoding="UTF-8"?>
<svg id="Layer_1" data-name="Layer 1" xmlns="http://www.w3.org/2000/svg" viewBox="0 0 200 200">
  <defs>
    <style>
      .cls-1 {
        fill: #fbb247;
      }
    </style>
  </defs>
  <path class="cls-1" d="M186.39-.4H13.11C5.75-.4-.25,5.54-.25,12.85l.1,141.69c0,11.3,9.25,20.5,20.65,20.5h27.04l2.83,3.35c3.21,3.83,8.61,4.95,13.1,2.75l4.85-2.4c4.98,3.35,10.4,5.84,16.18,7.44l1.22,5.08c1.16,4.85,5.46,8.27,10.5,8.27l6.87,.06h.06c4.98,0,9.31-3.35,10.5-8.17l1.32-5.24c5.43-1.5,10.53-3.8,15.29-6.83l4.62,2.43c4.4,2.36,9.83,1.41,13.2-2.3l3.98-4.44h26.94c11.4,0,20.65-9.2,20.65-20.5l.1-141.69c0-7.31-6.01-13.25-13.36-13.25ZM109.96,177.6c-1.8,.38-3.18,1.76-3.63,3.51l-2.02,7.98c-.13,.54-.61,.93-1.16,.93l-6.9-.06c-.55,0-1.03-.38-1.16-.93l-1.89-7.89c-.45-1.76-1.86-3.16-3.66-3.54-2.73-.61-5.39-1.47-7.96-2.55-3.5-1.44-6.84-3.35-9.92-5.68-.83-.64-1.86-.96-2.89-.96-.74,0-1.45,.16-2.12,.48l-7.45,3.67c-.51,.26-1.09,.13-1.48-.32l-4.43-5.24c-.35-.42-.35-1.02-.03-1.47l.03-.06,4.78-6.48c1.09-1.47,1.22-3.45,.39-5.08-1.93-3.61-3.34-7.47-4.24-11.43-.42-1.79-1.77-3.19-3.53-3.61l-8.06-2.01c-.55-.13-.9-.61-.9-1.18l.03-6.83c0-.57,.39-1.05,.93-1.18l7.93-1.88c1.8-.42,3.18-1.82,3.6-3.61,.96-4.28,2.54-8.43,4.69-12.26,.87-1.6,.77-3.58-.26-5.08l-4.72-6.74c-.32-.45-.29-1.05,.1-1.47l4.56-5.14c.39-.42,1-.51,1.48-.26l7.32,3.83c1.61,.86,3.56,.7,5.07-.35,5.14-3.7,10.89-6.29,17.05-7.66,1.8-.38,3.18-1.76,3.63-3.54l1.96-7.98c.13-.54,.61-.93,1.19-.93h6.87c.58,0,1.06,.38,1.19,.93l1.96,7.98c.42,1.79,1.83,3.16,3.63,3.54,6.52,1.44,12.52,4.22,17.85,8.21,1.48,1.12,3.44,1.28,5.07,.48l7.39-3.7c.51-.26,1.12-.13,1.48,.29l4.46,5.24c.35,.42,.39,1.02,.06,1.47l-4.85,6.67c-1.09,1.47-1.22,3.42-.35,5.05,1.89,3.61,3.34,7.44,4.21,11.43,.42,1.76,1.8,3.16,3.56,3.61l8.03,1.95c.55,.13,.93,.61,.93,1.18v6.83c0,.54-.39,1.05-.93,1.18l-8.03,1.95c-1.77,.42-3.15,1.82-3.56,3.61-.93,4.25-2.5,8.37-4.62,12.2-.9,1.6-.8,3.51,.26,5.01l3.98,5.78,.71,1.02c.32,.48,.29,1.09-.1,1.5l-4.59,5.11c-.35,.42-.96,.51-1.48,.26l-7.19-3.83c-1.64-.86-3.6-.73-5.11,.35-2.89,2.11-6.01,3.83-9.25,5.17-2.54,1.09-5.17,1.95-7.9,2.55Zm80.06-23.06c0,6.04-4.95,10.92-11.01,10.92h-23.73c-.22-1.53-.83-3.03-1.77-4.37l-3.05-4.47c1.41-2.94,2.57-6,3.47-9.13l5.2-1.28c4.88-1.18,8.29-5.49,8.29-10.47v-6.83c0-5.01-3.4-9.32-8.25-10.51l-5.23-1.25c-.8-2.81-1.8-5.56-3.02-8.21l3.15-4.31c2.92-4.02,2.73-9.52-.51-13.32l-4.46-5.2c-3.24-3.8-8.64-4.89-13.13-2.65l-4.82,2.4c-4.98-3.35-10.37-5.84-16.15-7.44l-1.28-5.17c-1.19-4.85-5.52-8.24-10.53-8.24h-6.87c-5.04,0-9.34,3.38-10.53,8.24l-1.28,5.17c-5.39,1.53-10.47,3.8-15.16,6.8l-4.75-2.49c-4.43-2.33-9.86-1.34-13.2,2.4l-4.56,5.14c-3.31,3.74-3.63,9.2-.77,13.28l3.05,4.37c-1.45,2.97-2.63,6.04-3.53,9.23l-5.07,1.18c-4.88,1.18-8.32,5.46-8.35,10.44l-.03,6.83c-.03,5.01,3.34,9.32,8.22,10.54l5.23,1.31c.8,2.81,1.8,5.56,3.02,8.21l-3.08,4.18c-1.25,1.69-1.96,3.64-2.09,5.62H20.49c-6.07,0-11.01-4.89-11.01-10.92V42.39H190.02v112.15h0Zm.1-121.73H9.38V12.85c0-2.01,1.67-3.67,3.73-3.67H186.39c2.06,0,3.73,1.66,3.73,3.67v19.96Z"/>
  <path class="cls-1" d="M137.68,16.25c-2.63,0-4.76,2.12-4.76,4.73s2.13,4.73,4.76,4.73,4.76-2.12,4.76-4.73-2.13-4.73-4.76-4.73Z"/>
  <path class="cls-1" d="M155.23,16.25c-2.63,0-4.76,2.12-4.76,4.73s2.13,4.73,4.76,4.73,4.76-2.12,4.76-4.73c0-2.61-2.13-4.73-4.76-4.73Z"/>
  <path class="cls-1" d="M172.78,16.25c-2.63,0-4.76,2.12-4.76,4.73s2.13,4.73,4.76,4.73,4.76-2.12,4.76-4.73-2.13-4.73-4.76-4.73Z"/>
  <path class="cls-1" d="M96.74,16.19H21.96c-2.66,0-4.82,2.14-4.82,4.79s2.15,4.79,4.82,4.79H96.74c2.66,0,4.82-2.14,4.82-4.79s-2.16-4.79-4.82-4.79Z"/>
  <path class="cls-1" d="M99.75,107.95c-13.52,0-24.5,10.92-24.5,24.37s10.98,24.33,24.5,24.33,24.47-10.92,24.47-24.33-10.98-24.37-24.47-24.37Zm0,39.12c-8.19,0-14.87-6.61-14.87-14.75s6.68-14.79,14.87-14.79,14.84,6.64,14.84,14.79-6.65,14.75-14.84,14.75Z"/>
</svg>