<?xml version="1.0" encoding="UTF-8"?>
<svg id="Layer_1" data-name="Layer 1" xmlns="http://www.w3.org/2000/svg" viewBox="0 0 200 200">
  <defs>
    <style>
      .cls-1 {
        fill: #fbb247;
      }
    </style>
  </defs>
  <path class="cls-1" d="M99.44,199.98c-27.15,0-54.31,.02-81.46,0C5.94,199.97,.01,192.75,0,178.06,0,126.11-.01,74.16,.01,22.21,.02,7.13,5.9,0,18.31,0c54.66-.02,109.32-.02,163.98,0,11.68,0,17.67,7.3,17.68,21.6,.03,52.16,.02,104.33,0,156.49,0,14.66-5.97,21.87-18.02,21.88-27.51,.02-55.02,0-82.52,0Zm.82-159.86c-28.76,0-57.53,.1-86.29-.12-3.78-.03-4.62,1.18-4.61,5.69,.15,44.18,.08,88.35,.1,132.53,0,8.22,1.66,10.2,8.52,10.21,54.69,.01,109.38,.01,164.06,0,6.83,0,8.51-2.01,8.51-10.24,.01-44.18-.05-88.35,.1-132.53,.02-4.55-.9-5.68-4.63-5.66-28.59,.21-57.17,.11-85.76,.11Zm-.55-8.17c28.58,0,57.16,.02,85.74-.05,1.64,0,4.45,1.21,4.75-1.08,.64-5.03,1.23-10.41-.42-15.33-1.51-4.5-5.05-3.94-8.27-3.94-42.43,.02-84.85,.01-127.28,.01-12.43,0-24.85-.04-37.28,.02-5.49,.03-7.35,2.31-7.49,8.84-.04,1.73,.16,3.49-.04,5.19-.59,4.92,.75,6.53,5.08,6.49,28.4-.26,56.81-.14,85.21-.14Z"/>
  <path class="cls-1" d="M100.03,172.74c-8.16,0-16.32,.06-24.48-.02-5.63-.06-7.7-2.53-7.72-9.36-.06-19.69-.05-39.38,0-59.07,.02-7.37,1.81-9.78,7.96-9.5,3.95,.18,4.8-1.62,4.56-5.93-.24-4.3-.17-8.67,.18-12.96,1.11-13.79,10.96-23.84,21.48-22.17,11.64,1.86,19.69,14.9,17.64,28.86-.88,5.98-4.86,2.69-7.32,2.87-3.12,.22-1.07-2.04-.74-3.77,1.11-5.77-4.52-15.18-9.6-16.5-5.61-1.46-11.4,3.48-12.19,11.05-.53,5.11-.16,10.37-.26,15.55-.07,3.57,2.03,2.85,3.69,2.85,10.11,.04,20.23,0,30.34,.03,6.88,.02,8.6,2.01,8.62,10.15,.04,19.26,.04,38.52,0,57.77-.02,7.74-1.93,10.09-8.18,10.14-7.98,.06-15.97,.01-23.95,.01Zm0-64.87c-3.76,.33-6.79,2.34-8.36,6.7-1.56,4.34-.96,8.45,1.66,12.04,1.12,1.54,2.31,2.67,2.97,4.98,2.05,7.16,1.59,14.25,.84,21.45-.34,3.28,.48,7.08,2.82,7.4,2.21,.3,3.96-2.9,3.91-6.44-.08-5.62,.1-11.25-.06-16.87-.12-4.4,.12-8.14,3.28-11.45,2.76-2.9,2.67-7.47,1.11-11.45-1.57-4.02-4.46-5.99-8.17-6.36Z"/>
  <path class="cls-1" d="M25.13,21.37c-.21,2.28-1.11,4.1-3.16,4.35-2.1,.26-3.39-1.41-3.62-3.74-.24-2.46,.98-4.1,3.05-4.33,2.09-.23,3.23,1.26,3.73,3.71Z"/>
  <path class="cls-1" d="M33.7,17.59c1.9,.29,3.28,1.55,3.22,4.08-.06,2.45-1.4,4.06-3.4,4.06-2.04,0-3.28-1.68-3.28-4.15,0-2.5,1.28-3.86,3.45-4Z"/>
  <path class="cls-1" d="M45.23,25.82c-2.05-.5-3.17-1.97-3.05-4.47,.12-2.58,1.47-3.87,3.51-3.66,2,.21,3.27,1.7,3.06,4.26-.2,2.46-1.59,3.65-3.52,3.87Z"/>
</svg>