<?xml version="1.0" encoding="UTF-8"?>
<svg id="Layer_1" data-name="Layer 1" xmlns="http://www.w3.org/2000/svg" viewBox="0 0 200 200">
  <defs>
    <style>
      .cls-1 {
        fill: #fbb247;
      }
    </style>
  </defs>
  <path class="cls-1" d="M99.93,146.12c26.16,0,52.32,0,78.48,0,3.1,0,3.1,0,3.1-2.93,0-30.77,0-61.55,0-92.32,0-7.41-4.43-11.75-12.01-11.76-13.61-.02-27.21-.02-40.82-.02-.68,0-1.48,.19-2-.1-.75-.42-1.83-1.21-1.81-1.8,.04-.78,.88-1.69,1.63-2.21,.52-.36,1.45-.18,2.2-.18,13.61-.02,27.21-.04,40.82-.02,10.09,.01,16.49,6.26,16.5,16.07,.02,30.7,.02,61.4,.03,92.1q0,3.17,3.34,3.18c1.2,0,2.42-.11,3.61,.02,2.06,.23,2.51-.65,2.5-2.51-.05-22.29-.03-44.59-.02-66.88,0-13.38,.02-26.75,0-40.13,0-7.77-4.29-11.97-12.24-11.98-15.26-.02-30.52-.01-45.78-.02-.83,0-1.79,.2-2.44-.14-.74-.38-1.64-1.26-1.66-1.94-.02-.67,.85-1.56,1.57-2,.55-.34,1.46-.17,2.21-.17,15.41-.02,30.82-.05,46.23-.05,10.25,0,16.62,6.19,16.62,16.13,.01,39.25,.02,78.5,.02,117.76,0,10.09-6.34,16.26-16.73,16.26-21.8,0-43.6-.02-65.4-.03-3.21,0-3.28,.08-3.02,3.21,.56,6.48,6.27,11.7,12.94,11.7,2.84,0,5.41,.48,7.28,2.73,1.92,2.31,2.26,4.93,1.02,7.62-1.24,2.7-3.51,4.2-6.56,4.26-4.36,.09-8.72,.03-13.08,.03-15.18,0-30.37,.02-45.55-.02-4.46-.01-7.7-3.11-7.74-7.2-.04-4.08,3.16-7.17,7.61-7.35,.45-.02,.9-.01,1.35-.01,6.75-.04,12.16-4.25,13.63-10.6,.1-.43,.18-.86,.23-1.29,.33-2.98,.25-3.07-2.87-3.07-22.4-.01-44.8,0-67.2-.04-7.65-.01-13.57-4.31-15.37-11.14-.37-1.4-.51-2.89-.51-4.34C0,115.21,0,75.52,.02,35.83c0-9.12,6.52-15.41,15.92-15.42,15.94-.02,31.87-.01,47.81-.01,.6,0,1.34-.16,1.77,.12,.73,.47,1.8,1.29,1.73,1.86-.09,.78-.99,1.63-1.76,2.11-.54,.33-1.46,.11-2.21,.11-15.41,0-30.82-.01-46.23-.01-8.42,0-12.68,4.11-12.68,12.23,0,35.45,0,70.9,0,106.35q0,3.03,3.02,3.03c1.65,0,3.33,.13,4.95-.08,.59-.08,1.27-.89,1.54-1.52,.27-.63,.07-1.44,.07-2.17,0-30.48,.03-60.96-.01-91.44,0-5.75,1.87-10.63,7.03-13.6,2.41-1.39,5.46-2.36,8.24-2.41,14.13-.25,28.26-.13,42.39-.13,.6,0,1.35-.1,1.76,.19,.65,.47,1.54,1.27,1.49,1.86-.07,.74-.86,1.59-1.58,2.04-.55,.34-1.46,.15-2.21,.15-13.46,0-26.91,0-40.37,0-7.92,0-12.34,4.25-12.34,11.88,0,30.77,0,61.55,0,92.32q0,2.92,3.09,2.93c26.16,0,52.32,0,78.48,0v-.07Zm-.2,4.39v-.06c-30.73,0-61.46,0-92.19,0-.68,0-1.39-.12-2.01,.06-.44,.13-1.04,.64-1.09,1.03-1.19,9.73,4.35,14.64,12.2,14.62,55.3-.11,110.59-.08,165.89-.1,8.87,0,12.94-3.97,12.93-12.61q0-2.94-3.1-2.95c-30.88,0-61.76,0-92.64,0Zm.48,39.31v-.06c-7.88,0-15.77,0-23.65,0-2.03,0-4.05-.04-6.08,.05-1.78,.09-2.77,1.19-2.82,2.84-.05,1.68,.98,2.71,2.73,2.91,.67,.08,1.35,.04,2.02,.04,10.44,0,20.87,0,31.31,0,8.33,0,16.67,.01,25-.02,2.2,0,3.54-1.16,3.55-2.85,0-1.79-1.44-2.92-3.69-2.92-9.46,0-18.92,0-28.38,0Zm-15.51-4.67h31.28c-4.36-4.24-5.91-9.06-5.72-14.7-6.31,0-12.37-.02-18.43,.05-.42,0-1.18,.75-1.19,1.17-.11,5.14-2.08,9.5-5.93,13.48Z"/>
  <path class="cls-1" d="M99.94,137.38c-15.78,0-31.56,0-47.33,0-6.12,0-8.88-2.72-8.88-8.74,0-6.72,0-13.44,0-20.16,.01-5.74,2.85-8.52,8.68-8.52,31.78-.01,63.56-.02,95.34-.03,5.99,0,8.84,2.75,8.85,8.57,.02,6.87,.03,13.74,0,20.6-.02,5.52-2.94,8.32-8.65,8.32-16,0-32.01,0-48.01,0v-.04Zm0-3.73v-.03c15.78,0,31.56,0,47.34,0,4.32,0,5.37-1,5.37-5.11,0-6.58,0-13.15,0-19.73,0-3.96-1.02-4.98-5.01-4.99-31.71-.02-63.42-.03-95.12-.04-3.74,0-4.88,1.1-4.88,4.67,0,6.72,0,13.44,0,20.17,0,4.01,1.07,5.05,5.2,5.06,15.7,0,31.41,0,47.11,0Z"/>
  <path class="cls-1" d="M122.17,55.03c8.64,0,17.27-.01,25.91,0,5.54,.01,8.49,2.84,8.51,8.23,.03,7.01,.03,14.02,0,21.03-.03,5.39-2.98,8.22-8.53,8.22-17.27,0-34.55,0-51.82-.01-5.74,0-8.59-2.78-8.6-8.33,0-7.01-.02-14.02,0-21.03,.02-5.23,2.96-8.08,8.39-8.09,8.71-.02,17.42,0,26.14,0v-.02Zm-.05,33.64v-.02c8.71,0,17.43,.02,26.14,0,3.15,0,4.37-1.21,4.38-4.26,.03-7.01,.03-14.02,.01-21.03,0-3.3-1.25-4.53-4.6-4.53-17.28-.01-34.55-.02-51.83,0-3.51,0-4.72,1.19-4.73,4.63-.02,6.79-.01,13.58,0,20.38,0,3.76,1.1,4.85,4.94,4.85,8.56,.01,17.13,0,25.69,0Z"/>
  <path class="cls-1" d="M66.69,61.69c1.88-.4,3.55-.9,5.25-1.08,4.65-.49,6.71,1.96,5.25,6.26-.58,1.71-1.49,3.32-2.21,4.88,1.42,1.75,3.03,3.33,4.15,5.19,1.77,2.94,.72,5.29-2.66,6.24-1.49,.42-3.11,.56-4.67,.57-1.37,0-1.94,.43-2.31,1.75-.49,1.74-1.14,3.51-2.12,5.02-1.6,2.44-3.78,2.63-6.11,.73-.91-.74-1.65-1.69-2.36-2.63-.66-.87-1.17-1.84-1.7-2.69-2.25,.35-4.38,.89-6.52,.96-3.56,.12-5.22-1.8-4.38-5.17,.52-2.09,1.59-4.06,2.44-6.14-1.16-1.28-2.54-2.54-3.6-4.02-2.64-3.67-1.34-7.14,3.22-7.36,4.12-.19,5.91-1.58,7.1-5.43,1.44-4.63,5.27-4.91,8.44-1.08,1.03,1.24,1.85,2.64,2.8,4.01Zm1.64,13.58c0-4.81-2.9-8.12-7.15-8.18-1.5-.02-5.8,3.8-5.81,5.16-.02,4.82,2.89,8.15,7.15,8.17,1.52,0,5.81-3.79,5.81-5.15Zm-15.22-10.01c-2.01,.36-4.18,.59-6.25,1.16-1.41,.39-1.72,1.71-.97,2.84,1.15,1.73,2.55,3.3,3.82,4.91,3.17-2.28,4.56-4.86,3.4-8.91Zm11.85-3.11c-1.23-1.51-2.4-3.16-3.8-4.6-.91-.94-2.17-1.06-3.13,.12-1.48,1.81-2.08,3.92-2.28,6.02,3.44,1.66,6.31,1.19,9.21-1.54Zm-8.76,22.19c-1.21-5.21-1.6-5.68-6.08-7.48-.73,1.79-1.59,3.54-2.16,5.38-.54,1.75,.32,2.95,2.22,2.89,1.96-.07,3.91-.49,6.01-.78Zm17.44-13.73c.74-1.87,1.57-3.64,2.13-5.5,.46-1.55-.39-2.75-2.02-2.7-2.08,.06-4.16,.55-6.07,.83,.24,4.02,2.04,6.26,5.96,7.37Zm-3.16,11.62c2.06-.3,3.99-.42,5.84-.89,1.83-.47,2.35-1.89,1.35-3.4-1.07-1.61-2.45-3.02-3.72-4.53-4.2,3.84-3.92,3.24-3.47,8.83Zm-2.2,1.67c-4.8-1.65-5.82-1.49-9.58,1.5,1.29,1.54,2.49,3.18,3.91,4.61,1.08,1.08,2.48,.95,3.21-.41,.98-1.82,1.65-3.79,2.45-5.7Zm-5.45-18.21c1.5,.55,2.45,.91,3.92,1.45-.5-1.26-.8-1.99-1.14-2.85-.9,.45-1.53,.78-2.78,1.4Zm-7.4,2.98c1.04-.82,1.85-1.46,3-2.37-1.29-.22-2.05-.35-3-.5v2.87Zm-3.86,6.59c.9,.54,1.52,.91,2.56,1.53-.22-1.46-.36-2.39-.56-3.76-.82,.91-1.29,1.44-2,2.23Zm6,5.36c-.14,.13-.28,.26-.42,.39,.29,.69,.59,1.38,.94,2.21,.9-.46,1.59-.81,2.67-1.36-1.35-.52-2.27-.88-3.19-1.23Z"/>
  <path class="cls-1" d="M123.05,22.48c.02,12.36-10.31,22.47-23.02,22.51-12.71,.04-23.12-10.02-23.16-22.38C76.83,10.11,87.17,0,100.01,0c12.68,0,23.02,10.08,23.04,22.48ZM99.97,1.11c-12.13,0-21.99,9.51-22.04,21.24-.05,11.87,9.84,21.54,21.98,21.51,12.26-.03,22.06-9.58,22.03-21.46-.02-11.75-9.87-21.29-21.98-21.29Z"/>
  <path class="cls-1" d="M100.11,160.19c-2.32,0-4.64,0-6.97,0-1.54,0-2.74-.5-2.75-2.17,0-1.58,1.15-2.06,2.6-2.06,4.72,0,9.44,0,14.16-.02,1.45,0,2.62,.5,2.64,2.04,.02,1.63-1.15,2.23-2.71,2.22-2.32,0-4.64,0-6.97,0h0Z"/>
  <path class="cls-1" d="M65.38,73.72c.02,1.97-1.5,3.49-3.49,3.51-2.02,.02-3.56-1.46-3.58-3.43-.02-1.91,1.58-3.54,3.5-3.55,1.92-.02,3.56,1.57,3.58,3.47Z"/>
  <path class="cls-1" d="M112.82,8.05c-3.04,1.55-4.06,3.45-2.31,5.87,3.61,5,3.09,9.95,.94,15.16-.57,1.38-.91,2.86-1.48,4.69-.4-.64-.58-.84-.66-1.08-2.17-6.29-4.34-12.58-6.54-18.98,1.02-.31,1.89-.57,2.87-.87-1.06-1.16-10.28-1.37-11.98-.45,.09,.19,.12,.48,.27,.56,1.09,.57,2.65,.29,3.01,2.11,.62,3.1,3.22,5.78,1.57,9.38-1.33,2.9-2.14,6.02-3.77,9.09-2.27-6.57-4.53-13.14-6.73-19.5,1.03-.67,1.81-1.18,2.59-1.68-.96-.17-1.92-.42-2.89-.48-1.23-.08-2.48-.02-3.84-.02,4.83-8.93,20.17-12,28.94-3.79Z"/>
  <path class="cls-1" d="M106.48,40.57c-4.06,1.56-7.9,1.44-12.13,.41,1.92-5.46,3.78-10.73,5.64-16,.19-.03,.38-.07,.58-.1,1.95,5.17,3.9,10.35,5.92,15.69Z"/>
  <path class="cls-1" d="M81.96,14.89c3.16,8.41,6.13,16.32,9.17,24.42-6.91-2.01-14.41-13.55-9.17-24.42Z"/>
  <path class="cls-1" d="M118.02,14.91c4.82,8.63-.5,20.63-7.9,23.65,1.46-4.15,2.88-8.04,4.19-11.96,1.31-3.93,2.51-7.89,3.71-11.69Z"/>
</svg>