<?xml version="1.0" encoding="UTF-8"?>
<svg id="Layer_1" data-name="Layer 1" xmlns="http://www.w3.org/2000/svg" viewBox="0 0 200 200">
  <defs>
    <style>
      .cls-1 {
        fill: #fbb247;
      }
    </style>
  </defs>
  <path class="cls-1" d="M99.99,0c15.57,0,31.13,0,46.7,0,4.89,0,9.08,3.56,9.83,8.51,.09,.58,.12,1.17,.12,1.75,0,18.72,0,37.43,0,56.15,0,5.08-3.37,9.13-8.35,10.04-.5,.09-1.02,.13-1.54,.13-10.91,0-21.81,0-32.72,0q-.74,0-.74,.75c0,1.81,.02,3.63-.01,5.44,0,.5,.14,.62,.63,.62,6.51-.01,13.02-.01,19.53,0,4.7,0,8.8,3.52,9.66,8.14,1.02,5.42-2.64,10.67-8.18,11.61-.47,.08-.95,.12-1.43,.12-22.36,0-44.73,.03-67.09-.01-5.21-.01-9.06-4.13-9.64-8.71-.57-4.49,2.07-8.62,5.74-10.25,1.26-.56,2.59-.89,3.97-.89,6.49-.01,12.99,0,19.48,0q.74,0,.74-.76c0-1.8-.02-3.59,.01-5.39,.01-.56-.16-.67-.69-.67-10.96,.01-21.92,.01-32.88,.01-4.91,0-9.19-3.87-9.7-8.76-.06-.56-.09-1.13-.09-1.7,0-18.84,0-37.68,0-56.52,0-4.37,3.43-8.49,7.83-9.36,.73-.14,1.48-.22,2.22-.22,15.53-.01,31.06,0,46.59,0Zm-.03,56.7c16.47,0,32.95,0,49.42,0,.72,0,.72,0,.72-.68,0-15.3,0-30.6,0-45.9,0-2.14-1.42-3.58-3.52-3.58-31.06,0-62.12,0-93.18,0-2.1,0-3.51,1.42-3.51,3.51,0,15.28,0,30.56,0,45.85q0,.79,.82,.8c16.42,0,32.84,0,49.26,0Zm.03,6.53c-12.29,0-24.58,0-36.88,0-4.2,0-8.4,0-12.59,0-.47,0-.67,.09-.65,.61,.04,.94-.02,1.89,.03,2.83,.02,.45,.1,.93,.29,1.34,.65,1.44,1.83,2.04,3.38,2.04,30.95,0,61.91,0,92.86,0,.11,0,.21,0,.32,0,1.59-.04,2.97-1.08,3.23-2.65,.18-1.09,.1-2.23,.12-3.35,.01-.81,0-.81-.8-.81-16.44,0-32.87,0-49.31,0Zm0,26.69c-9.45,0-18.89,0-28.34,0-1.69,0-3.38-.02-5.07,0-2.53,.04-4.13,2.65-3,4.91,.67,1.35,1.84,1.9,3.32,1.9,22.06,0,44.11,0,66.17,0,.14,0,.28,0,.43,0,1.87-.09,3.32-1.66,3.26-3.53-.07-1.87-1.59-3.27-3.57-3.27-11.06,0-22.13,0-33.19,0Zm-.05-6.54c2.08,0,4.16-.01,6.24,0,.45,0,.58-.15,.58-.58-.02-1.89-.02-3.77,0-5.66,0-.43-.13-.59-.58-.58-4.13,.01-8.26,.01-12.38,0-.45,0-.58,.15-.58,.58,.02,1.87,.02,3.74,0,5.6,0,.48,.13,.65,.63,.64,2.03-.03,4.06-.01,6.08-.01Z"/>
  <path class="cls-1" d="M66.55,158.5c0,10.5,.02,20.99-.01,31.49-.01,4.21-2.04,7.23-5.77,9.1-1.21,.61-2.54,.91-3.91,.91-15.74,0-31.49,0-47.23,0-4.68,0-8.99-3.84-9.51-8.46-.07-.63-.1-1.27-.1-1.91C0,168.53,0,147.43,0,126.33c0-4.31,3.36-8.4,7.69-9.3,.74-.15,1.51-.24,2.27-.24,15.53-.01,31.06,.01,46.59-.02,4.79-.01,9.03,3.41,9.85,8.29,.12,.7,.14,1.41,.14,2.12,0,10.44,0,20.89,0,31.33Zm-6.54,21.58c0-.24,0-.42,0-.59,0-14.07,0-28.14,.01-42.21,0-.56-.19-.68-.7-.68-17.36,.01-34.72,0-52.08,0-.7,0-.7,0-.7,.71,0,14.04,0,28.07,0,42.11v.66H60.01Zm-26.73-49.96c8.57,0,17.14,0,25.72,0,.18,0,.36-.01,.53,0,.37,.02,.49-.14,.49-.5-.02-1.01,.06-2.03-.03-3.04-.06-.61-.25-1.27-.57-1.79-.74-1.21-1.97-1.53-3.32-1.53-15.1,0-30.2,0-45.3,0-.48,0-.96,.03-1.43,.09-1.43,.17-2.77,1.54-2.82,2.92-.04,1.14,0,2.28-.01,3.41,0,.33,.13,.45,.44,.44,.2,0,.39,0,.59,0,8.57,0,17.14,0,25.72,0Zm.05,56.53h-1.71c-8.13,0-16.26,0-24.39,0-.46,0-.73,.04-.7,.62,.05,.98,0,1.96,.01,2.94,.01,1.78,1.47,3.26,3.27,3.26,15.64,0,31.28,0,46.92,0,1.81,0,3.27-1.49,3.28-3.31,0-.91,0-1.81,0-2.72q0-.77-.79-.77c-8.63,0-17.26,0-25.89,0Z"/>
  <path class="cls-1" d="M160.13,160c0-7.88,0-15.76,0-23.65,0-4.28,3.29-8.35,7.57-9.29,.93-.2,1.9-.31,2.85-.32,6.42-.03,12.84-.03,19.27,0,3.09,0,5.72,1.12,7.77,3.48,1.53,1.77,2.38,3.85,2.39,6.19,.03,12.13,.02,24.27,.02,36.4,0,3.49-.04,6.98,.01,10.46,.07,4.66-3.26,9.12-8.48,9.97-.51,.08-1.02,.12-1.54,.12-6.64,0-13.27,.04-19.91,0-5.26-.03-9.24-3.9-9.84-8.55-.07-.56-.1-1.13-.1-1.7,0-7.7,0-15.41,0-23.11h0Zm6.54-5.36c0,6.07,0,12.13-.01,18.2,0,.5,.12,.67,.65,.67,8.5-.02,17-.02,25.51,0,.53,0,.65-.17,.65-.67-.01-12.02,0-24.05-.01-36.07,0-.25,0-.5-.06-.74-.39-1.71-1.7-2.73-3.52-2.74-2.28-.01-4.55,0-6.83,0-4.27,0-8.54,0-12.81,0-2.3,0-3.61,1.81-3.59,3.59,.07,5.92,.03,11.85,.03,17.77Zm0,25.42c0,1.17,0,2.31,0,3.44,0,1.63,1.15,2.99,2.76,3.23,.65,.1,1.31,.1,1.96,.1,6.13,0,12.27,0,18.4,0,1.86,0,3.32-1.01,3.56-2.72,.19-1.32,.04-2.68,.04-4.05h-26.73Z"/>
  <path class="cls-1" d="M29.95,109.9c-.73,.07-1.36-.21-1.95-.6-3.32-2.21-6.63-4.41-9.94-6.63-1.39-.93-1.8-2.79-.97-4.25,.84-1.49,2.59-2.09,4.13-1.4,.34,.15,.66,.35,.97,.56,2.44,1.62,4.89,3.25,7.32,4.89,.33,.23,.57,.22,.9,0,2.51-1.69,5.04-3.34,7.53-5.05,1.72-1.17,3.51-.67,4.48,.45,1.32,1.52,.99,3.74-.75,4.92-2.48,1.67-4.97,3.32-7.45,4.97-.78,.52-1.56,1.05-2.35,1.57-.57,.38-1.19,.64-1.9,.58Z"/>
  <path class="cls-1" d="M176.61,56.7c.04,.76-.31,1.44-.74,2.08-1.64,2.46-3.27,4.92-4.92,7.36-.25,.36-.26,.62,0,.99,1.7,2.52,3.39,5.05,5.07,7.59,.9,1.35,.81,2.98-.19,4.09-1.4,1.56-3.88,1.45-5.09-.29-1.75-2.53-3.43-5.11-5.14-7.67-.52-.78-1.05-1.57-1.57-2.35-.8-1.23-.81-2.48,0-3.7,2.22-3.35,4.45-6.7,6.69-10.03,.79-1.18,2.29-1.67,3.62-1.25,1.4,.44,2.28,1.65,2.27,3.18Z"/>
  <path class="cls-1" d="M136.68,143.44c1.17,.01,2.08,.51,2.71,1.46,2.24,3.33,4.47,6.68,6.68,10.03,.74,1.12,.79,2.34,.06,3.47-2.26,3.45-4.54,6.89-6.86,10.29-.99,1.45-3.01,1.69-4.51,.66-1.34-.92-1.75-2.87-.82-4.32,1.42-2.21,2.9-4.39,4.36-6.58,.05-.07,.1-.15,.15-.22,.32-.51,.88-1.02,.88-1.53,0-.51-.57-1.02-.9-1.53-1.48-2.24-2.99-4.46-4.45-6.71-1.21-1.85-.29-4.25,1.83-4.88,.29-.08,.59-.1,.89-.15Z"/>
  <path class="cls-1" d="M26.69,59.97c0-.92,.01-1.85,0-2.77,0-.35,.09-.51,.48-.5,1.87,.02,3.73,.02,5.6,0,.39,0,.48,.14,.48,.5-.01,1.85-.02,3.7,0,5.54,0,.41-.15,.51-.53,.5-1.83-.02-3.66-.02-5.49,0-.44,0-.54-.15-.53-.56,.02-.91,0-1.81,0-2.72Z"/>
  <path class="cls-1" d="M26.69,86.62c0-.92,.01-1.85,0-2.77,0-.35,.12-.46,.46-.46,1.88,.01,3.77,.01,5.65,0,.32,0,.44,.11,.44,.43-.01,1.9,0,3.8,0,5.7,0,.3-.11,.41-.41,.41-1.9,0-3.8,0-5.7,0-.32,0-.44-.11-.44-.43,.01-.96,0-1.92,0-2.88Z"/>
  <path class="cls-1" d="M26.69,73.26c0-.91,.01-1.81,0-2.72,0-.36,.09-.5,.48-.5,1.87,.02,3.73,.02,5.6,0,.39,0,.48,.15,.47,.51-.01,1.85-.01,3.69,0,5.54,0,.36-.09,.5-.48,.5-1.87-.02-3.73-.02-5.6,0-.39,0-.48-.15-.48-.51,.02-.94,0-1.88,0-2.82Z"/>
  <path class="cls-1" d="M86.61,156.69c0,.92-.01,1.85,0,2.77,0,.36-.09,.51-.48,.51-1.87-.02-3.73-.02-5.6,0-.39,0-.48-.15-.48-.5,.01-1.85,.02-3.7,0-5.54,0-.41,.15-.51,.53-.51,1.83,.02,3.66,.02,5.49,0,.44,0,.54,.15,.53,.56-.02,.91,0,1.81,0,2.72Z"/>
  <path class="cls-1" d="M93.41,156.66c0-.92,.01-1.85,0-2.77,0-.34,.11-.47,.46-.46,1.88,.01,3.77,.01,5.65,0,.32,0,.44,.11,.44,.43-.01,1.9,0,3.8,0,5.7,0,.3-.11,.41-.41,.41-1.9,0-3.8-.01-5.7,0-.37,0-.44-.17-.44-.49,.01-.94,0-1.88,0-2.83Z"/>
  <path class="cls-1" d="M110.03,153.43c.92,0,1.85,.01,2.77,0,.36,0,.5,.09,.5,.48-.02,1.87-.01,3.73,0,5.6,0,.34-.1,.48-.45,.47-1.88-.01-3.77-.01-5.65,0-.36,0-.45-.15-.45-.48,0-1.87,.01-3.73,0-5.6,0-.39,.15-.48,.51-.47,.92,.02,1.85,0,2.77,0Z"/>
  <path class="cls-1" d="M120.1,156.65c0-.92,.01-1.85,0-2.77,0-.35,.12-.46,.47-.46,1.87,.01,3.73,.01,5.6,0,.38,0,.49,.13,.49,.49-.01,1.87-.01,3.73,0,5.6,0,.35-.13,.46-.47,.46-1.87-.01-3.73-.01-5.6,0-.38,0-.49-.13-.49-.5,.02-.94,0-1.88,0-2.82Z"/>
  <path class="cls-1" d="M183.35,69.88c-.91,0-1.81-.01-2.72,0-.38,0-.53-.1-.53-.51,.02-1.83,.02-3.66,0-5.49,0-.39,.15-.49,.5-.49,1.85,.01,3.7,.01,5.55,0,.36,0,.51,.1,.5,.48-.02,1.85-.01,3.7,0,5.55,0,.36-.14,.46-.48,.46-.94-.01-1.88,0-2.83,0Z"/>
  <path class="cls-1" d="M183.38,103.43c.92,0,1.85,.01,2.77,0,.36,0,.51,.11,.5,.49-.01,1.83-.01,3.66,0,5.49,0,.35-.09,.51-.48,.51-1.87-.01-3.73-.01-5.6,0-.33,0-.48-.1-.47-.46,.01-1.85,.02-3.7,0-5.55,0-.39,.15-.49,.5-.48,.92,.01,1.85,0,2.77,0Z"/>
  <path class="cls-1" d="M183.42,96.57c-.94,0-1.88-.01-2.83,0-.36,0-.5-.11-.5-.49,.02-1.83,.02-3.66,0-5.49,0-.41,.16-.51,.53-.51,1.83,.01,3.66,.01,5.49,0,.38,0,.53,.11,.53,.52-.02,1.81-.02,3.63,0,5.44,0,.44-.17,.55-.56,.54-.89-.02-1.78,0-2.67,0Z"/>
  <path class="cls-1" d="M183.39,76.75c.92,0,1.85,.01,2.77,0,.37,0,.49,.13,.49,.5-.01,1.83-.01,3.66,0,5.49,0,.37-.12,.5-.49,.5-1.87-.01-3.73-.01-5.6,0-.35,0-.46-.13-.46-.47,.01-1.85,.01-3.7,0-5.55,0-.35,.12-.47,.46-.47,.94,.01,1.88,0,2.83,0Z"/>
  <path class="cls-1" d="M133.49,49.89c-1.08,0-2.17,0-3.25,0-2.01,0-3.42-1.26-3.49-3.25-.06-1.51,1-2.83,2.5-3.17,.36-.08,.74-.11,1.11-.11,1.94-.01,3.88-.02,5.81,0,.48,0,.6-.15,.6-.61-.02-2.03-.01-4.05,0-6.08,0-1.84,1.42-3.35,3.24-3.32,1.88,.03,3.23,1.33,3.28,3.24,.06,2.35,.11,4.7-.01,7.04-.17,3.41-2.68,5.77-5.52,6.13-1.4,.18-2.83,.03-4.25,.03,0,.03,0,.07,0,.1Z"/>
  <path class="cls-1" d="M56.7,23.09c0-1.03,0-2.06,0-3.09-.02-3.86,3.19-6.7,6.62-6.65,2.17,.03,4.34,0,6.51,0,1.93,0,3.36,1.29,3.41,3.21,.04,1.71-1.17,3.03-2.7,3.21-1.07,.13-2.16,.1-3.24,.12-1.17,.02-2.35,.02-3.52,0-.42,0-.55,.11-.55,.54,.02,2.01,.01,4.02,0,6.03,0,1.96-1.38,3.39-3.27,3.39-1.9,0-3.26-1.41-3.26-3.39,0-1.12,0-2.24,0-3.36Z"/>
  <path class="cls-1" d="M46.67,166.77c0-1.17,0-2.23,0-3.3,.01-2.44,2.41-4.03,4.64-3.03,1.17,.52,1.85,1.47,1.88,2.75,.05,2.38,.04,4.76,0,7.15-.02,1.53-1.45,2.94-3.02,2.96-2.38,.04-4.76,.04-7.14,0-1.55-.03-2.88-1.43-2.99-2.95-.15-1.94,1.32-3.34,2.7-3.46,1.06-.09,2.13-.08,3.19-.11,.23,0,.45,0,.74,0Z"/>
  <path class="cls-1" d="M19.94,143.48c1.16,0,2.31-.03,3.47,0,1.79,.05,3.11,1.46,3.1,3.26,0,1.74-1.35,3.13-3.12,3.19-.99,.03-1.99,.02-2.99,.01-.38,0-.52,.12-.53,.52,0,1.15,.02,2.31-.1,3.46-.16,1.6-1.75,2.83-3.36,2.72-1.69-.12-3.05-1.48-3.06-3.11-.02-2.35-.02-4.69,0-7.04,0-1.53,1.37-2.94,2.91-3,1.22-.04,2.45,0,3.68,0,0,0,0,0,0,0Z"/>
  <path class="cls-1" d="M180.06,146.62c-1.12,0-2.24,0-3.36,0-1.7-.02-3.14-1.34-3.22-2.93-.1-1.87,1.02-3.27,2.82-3.51,.39-.05,.78-.09,1.16-.08,2.15,.02,4.3-.02,6.44,.11,1.69,.1,2.82,1.66,2.73,3.47-.07,1.53-1.48,2.88-3.06,2.94-.04,0-.07,0-.11,0-1.14,0-2.27,0-3.41,0Z"/>
</svg>