<?xml version="1.0" encoding="UTF-8"?>
<svg id="Layer_1" data-name="Layer 1" xmlns="http://www.w3.org/2000/svg" viewBox="0 0 200 200">
  <defs>
    <style>
      .cls-1 {
        fill: #fbb247;
      }
    </style>
  </defs>
  <path class="cls-1" d="M200,200H0V0H200V200Zm-1.94-100.01c0-53.92-43.97-97.99-97.82-98.05C46.11,1.88,1.98,45.83,1.94,99.85c-.04,54.1,43.94,98.19,97.98,98.21,54.07,.02,98.13-44.01,98.13-98.07Z"/>
  <path class="cls-1" d="M99.74,193.56c-51.59-.14-93.47-42.29-93.28-93.88C6.65,48.07,48.84,6.22,100.42,6.46c51.48,.24,93.24,42.27,93.12,93.72-.12,51.61-42.21,93.51-93.8,93.37Zm-20.78-42.38c.51-.96,.77-1.3,.9-1.69,5.7-17.12,11.43-34.24,17.03-51.4,.39-1.18,.16-2.76-.27-3.98-3.05-8.61-6.64-17.05-9.22-25.79-1.71-5.81-4.25-9.12-10.71-8.49-2.33,.23-4.37-.92-4.13-3.75,.24-2.75,2.21-3.4,4.66-3.19,14.17,1.21,28.35,1.21,42.52,0,2.44-.21,4.46,.44,4.61,3.21,.15,2.78-1.88,3.58-4.24,3.8-2.66,.25-5.31,.49-8.38,.77,10.07,29.97,20.04,59.61,30,89.25,.29-.02,.59-.03,.88-.05,4.48-15.68,9.14-31.31,13.35-47.06,1.91-7.13,.99-14.39-1.82-21.2-1.75-4.25-4.22-8.2-6.28-12.32-1.92-3.83-4.22-7.56-5.49-11.6-2.68-8.54,1.92-17.19,9.8-19.32,1.18-.32,2.41-.46,3.79-.72C119.85,3.3,56.99,10.64,30.19,53.85c2.08,0,3.86,.06,5.62-.01,6.87-.29,13.74-.6,20.61-.97,2.41-.13,4.48,.32,4.71,3.11,.23,2.77-1.74,3.66-4.13,3.89-2.72,.27-5.44,.52-8.48,.81,10.17,30.26,20.2,60.08,30.43,90.48Zm48.75,27.98c-8.67-23.74-17.28-47.31-26.23-71.79-8.58,24.96-16.86,49.04-25.13,73.11,13.85,5.25,38.47,4.58,51.36-1.32Zm-64.53-3.75c-13.39-36.68-26.54-72.7-39.83-109.09-17.49,36.16-3.88,87.99,39.83,109.09Zm79.27-2.71c22.62-14.27,36.14-33.68,40.58-59.21,3.03-17.41-1.98-45.9-8.97-51.62,1.02,11.15-.78,21.76-4.4,32.13-8.7,24.93-17.35,49.89-26.02,74.84-.34,.98-.62,1.98-1.2,3.87Z"/>
</svg>