<?xml version="1.0" encoding="UTF-8"?>
<svg id="Layer_1" data-name="Layer 1" xmlns="http://www.w3.org/2000/svg" viewBox="0 0 199.99 150">
  <defs>
    <style>
      .cls-1 {
        fill: #fff;
      }

      .cls-2 {
        fill: #fbb247;
      }
    </style>
  </defs>
  <path class="cls-2" d="M0,143.48c1.17-3.25,3.03-4.3,5.52-4.2,5.12,.19,10.25,.06,15.22,.06-.25-2.86-.69-5.52-.7-8.17-.04-40.99-.03-81.98-.03-122.98,.01-7.12,.72-8.19,5.5-8.19H154.49c4.86,0,5.47,.91,5.47,8.11,0,9.94-.19,19.89,.08,29.81,.14,5.08-.98,7.53-4.85,7.46V23.92H25.74v109.09H155.07v-27.49c1.67-.7,3.07-1.29,4.42-1.86v35.59h13.41c1.07,0,2.23-.37,3.19,.09,1.49,.72,3.41,1.5,4.15,3.18,1.31,2.95-.29,5.43-1.83,7.48H0v-6.52H0Zm90.44,2.86c1.71,0,3.44,.24,5.11-.11,.7-.15,1.28-1.55,1.91-2.38-.62-.89-1.22-2.49-1.87-2.54-3.4-.26-6.82-.25-10.23,0-.66,.05-1.26,1.61-1.89,2.47,.72,.86,1.38,2.26,2.18,2.46,1.55,.39,3.19,.12,4.79,.1h0Z"/>
  <path class="cls-2" d="M145.23,48.71c-4.35,6.29-9.03,7.46-14.4,7.41-29.18-.31-58.36-.15-87.55-.15h-3.98v37.84h45.79c-1.46,7.08-1.92,7.59-6.6,7.59H39.05c-4.41,0-5.04-.91-5.04-7.17V55.59c0-6.06,.56-6.87,4.87-6.87,31.11,0,62.21,0,93.32,0h13.03Z"/>
  <path class="cls-2" d="M158.61,87.5c-2.11-8.11-4.16-16-6.32-24.3,6.38-2.8,13.09-5.75,19.8-8.7,7.13-3.14,14.27-6.28,21.4-9.42,2.55-1.12,4.71-.43,6.02,3.15,1.14,3.12,.21,7.27-2.16,9.15-12.73,10.07-25.5,20.03-38.27,30.01-.26,.2-.61,.13-.47,.1h0Z"/>
  <path class="cls-2" d="M92.06,108.1c4.14-9.82,8.76-19.84,17.06-24.44,1.86-1.03,3.91-1.68,5.9-1.78,6.51-.34,11.28,5.18,11.56,13.01,.34,9.49-4.47,18.22-10.75,18.71-2.92,.23-5.91-.76-8.84-1.48-4.91-1.2-9.79-2.62-14.92-4.02h0Z"/>
  <path class="cls-2" d="M148.53,64.54c3.49,6.78,5.14,14.39,6.07,22.37,.11,.95-.6,2.94-1.11,3.07-6.99,1.89-14,3.53-20.81,5.19-1.16-4.43-2.21-8.41-3.34-12.7,6.11-5.71,12.51-11.69,19.19-17.94h0Z"/>
  <path class="cls-2" d="M135.35,40.06c-1.7,0-3.48,.41-5.08-.16-.96-.34-2.08-2.12-2.29-3.52-.13-.84,1.3-3.09,2.11-3.17,3.49-.37,7.02-.4,10.51,0,.8,.09,1.93,2.31,2.06,3.72,.08,.88-1.32,2.72-2.22,2.99-1.63,.49-3.39,.14-5.09,.13h0Z"/>
  <path class="cls-2" d="M109.92,40.06c-1.6,0-3.28,.43-4.76-.16-.96-.38-2.08-2.11-2.3-3.51-.13-.84,1.28-3.1,2.08-3.19,3.49-.37,7.02-.41,10.51,0,.81,.09,1.95,2.3,2.08,3.7,.09,.89-1.31,2.78-2.2,3.03-1.75,.49-3.6,.14-5.41,.14h0Z"/>
  <path class="cls-2" d="M84.92,40.07c-1.6,0-3.27,.41-4.76-.15-.97-.37-2.32-2.11-2.35-3.31-.03-1.16,1.34-3.35,2.19-3.45,3.38-.41,6.81-.41,10.19,0,.84,.1,2.2,2.31,2.17,3.48-.03,1.18-1.39,2.95-2.35,3.28-1.62,.55-3.38,.15-5.08,.15h-.01Z"/>
  <circle class="cls-1" cx="31" cy="12.06" r="4.95"/>
  <circle class="cls-1" cx="42.75" cy="12.06" r="4.95"/>
  <circle class="cls-1" cx="54.87" cy="12.06" r="4.95"/>
</svg>