<?xml version="1.0" encoding="UTF-8"?>
<svg id="Layer_1" data-name="Layer 1" xmlns="http://www.w3.org/2000/svg" viewBox="0 0 72 72">
  <defs>
    <style>
      .cls-1 {
        fill: #5a2b5f;
      }
    </style>
  </defs>
  <path class="cls-1" d="M53.8,0c.28,.06,.57,.11,.85,.18,1.99,.52,3.06,1.84,3.51,3.6,.21,.84,.32,1.72,.32,2.58,.02,9.62,.01,19.24,.01,28.87,0,.77-.35,1.21-1.15,1.43-.59,.16-1.18,.16-1.77,0-.63-.17-.95-.56-.98-1.15,0-.15,0-.29,0-.44,0-9.3,.01-18.61,.01-27.91,0-.35-.02-.71-.08-1.06-.22-1.31-1.04-1.98-2.47-2.05-.24-.01-.48,0-.72,0-14.71,0-29.43,0-44.14,0-.29,0-.59,0-.88,.03-1.06,.12-1.74,.7-1.99,1.62-.21,.78-.28,1.59-.4,2.38-.03,.19-.02,.39-.02,.59,0,17.44,0,34.89,0,52.33,0,.45,.04,.91,.1,1.35,.11,.74,.63,1.3,1.06,1.91,.58,.83,1.45,1.15,2.47,1.2,.58,.03,1.17,.04,1.76,.04,8.09,0,16.18,0,24.27,0,.63,0,1.14,.16,1.58,.55,.16,.13,.3,.28,.48,.39,.52,.32,.51,.74,.31,1.22-.22,.53-.55,.92-1.21,.98-.19,.01-.37,.01-.56,.01-8.5,0-17-.01-25.5,.02-1,0-1.93-.17-2.83-.48-1.26-.44-2.49-.94-3.54-1.74-1.47-1.13-2.17-2.6-2.22-4.34-.03-1.04-.07-2.08-.07-3.12C0,41.21,0,23.46,0,5.71,0,3,1.97,.7,4.84,.06c.04,0,.07-.04,.1-.06,16.29,0,32.57,0,48.86,0Z"/>
  <path class="cls-1" d="M72,70.15c-.04,.14-.08,.28-.12,.42-.27,1.06-1.25,1.64-2.41,1.35-.43-.11-.88-.32-1.2-.61-1.84-1.65-3.64-3.33-5.46-5-.49-.45-.93-.94-.9-1.69-.15,.09-.23,.13-.31,.19-3.4,2.43-7.24,3.04-11.31,2.06-5-1.2-8.38-4.14-9.79-8.74-1.43-4.7-.08-8.84,3.64-12.28,2.73-2.53,6.09-3.76,10-3.69,6.21,.12,11.86,4.62,12.91,10.25,.7,3.74-.41,7.01-2.86,9.97-.09,.11-.18,.23-.29,.36,.09,.03,.12,.05,.15,.04,.99-.11,1.67,.32,2.33,.96,1.44,1.39,2.93,2.73,4.42,4.08,.55,.5,1.04,1.01,1.19,1.73v.59Zm-27.12-15.44c0,.18-.01,.37,0,.55,.37,4.3,5.12,8.79,11.37,7.21,3.66-.92,6.06-3.84,6.15-7.5,.06-2.35-1.03-4.28-2.82-5.87-2.08-1.86-4.53-2.84-7.5-2.32-4.02,.71-7.22,4.21-7.2,7.92Z"/>
  <path class="cls-1" d="M30.09,21.52c-5.06,0-10.11,0-15.17,0-.99,0-1.52-.38-1.68-1.27-.07-.38-.06-.79,.02-1.16,.18-.79,.71-1.16,1.59-1.16,10.08,0,20.17,0,30.25,0,.84,0,1.4,.3,1.71,1.01,.15,.34,.42,.69,.42,1.04,0,.89-.68,1.48-1.67,1.54-.17,.01-.35,0-.52,0-4.99,0-9.98,0-14.97,0Z"/>
  <path class="cls-1" d="M30.01,36.34c-5.02,0-10.03,0-15.05,0-1.05,0-1.59-.38-1.73-1.35-.06-.4-.02-.83,.09-1.23,.21-.72,.68-1.01,1.49-1.01,9.96,0,19.93,0,29.89,0,.17,0,.35,0,.52,.01,.95,.08,1.52,.6,1.55,1.47,.02,.39,0,.79-.09,1.16-.13,.54-.53,.86-1.15,.91-.2,.02-.4,.02-.6,.02-4.98,0-9.95,0-14.93,0Z"/>
  <path class="cls-1" d="M23.22,51.57c-2.78,0-5.56,0-8.34,0-.94,0-1.48-.38-1.63-1.24-.07-.39-.07-.81,.02-1.2,.17-.79,.71-1.16,1.59-1.16,5.55,0,11.09,0,16.64,0,.04,0,.08,0,.12,0,1.67,.02,2.5,1.17,1.86,2.61-.31,.7-.94,.97-1.72,.97-2.35,0-4.71,0-7.06,0-.49,0-.98,0-1.48,0Z"/>
</svg>