<?xml version="1.0" encoding="UTF-8"?>
<svg id="Layer_1" data-name="Layer 1" xmlns="http://www.w3.org/2000/svg" viewBox="0 0 72 72">
  <defs>
    <style>
      .cls-1 {
        fill: #5a2b5f;
      }
    </style>
  </defs>
  <path class="cls-1" d="M30.81,71.5c-5.12-1.14-9.41-4.06-14.04-6.27-.39-.19-.86-.74-.86-1.12-.05-6.12-.04-12.24-.04-18.49,5.75-.18,11.42-.4,16.36,2.82,2.66,1.73,5.4,2.41,8.52,2.14,1.1-.1,2.3-.04,3.35,.29,2.31,.73,2.83,3.19,.85,4.51-1.4,.93-3.18,1.47-4.88,1.8-1.45,.29-3.03-.08-4.52,.08-.56,.06-1.33,.73-1.46,1.25-.09,.39,.69,1.41,1.09,1.42,3.81,.05,7.74,.38,10.96-2.25,.72-.59,1.4-1.4,1.73-2.24,.52-1.35,1.38-2.12,2.69-2.71,2.64-1.18,5.2-2.54,7.83-3.76,2.56-1.19,5.32-.45,6.51,1.68,1.11,1.98,.51,4.19-1.6,5.67-6.58,4.63-13.5,8.73-20.86,12.05-2.62,1.18-5.37,2.1-8.05,3.14h-3.57Z"/>
  <path class="cls-1" d="M72,35.02c-.64,2.81-1.18,5.65-1.97,8.42-.46,1.64-1.31,3.17-1.94,4.64-1.77-1.19-3.38-2.28-5.12-3.45,4-8.5,3.96-17.15-.94-25.54-3.88-6.64-9.76-10.86-17.35-12.77C30.5,2.75,14.98,11.54,11.46,25.26c.82,.16,1.64,.31,2.45,.5,1.65,.39,2.14,1.66,.94,2.76-2.32,2.13-4.72,4.19-7.15,6.2-1.01,.84-2,.53-2.78-.74C3.27,31.27,1.64,28.55,0,25.83c0-.32,0-.63,0-.95,1.48-2.02,3.51-.23,5.17-.69,.08-.08,.13-.12,.15-.16,.16-.45,.31-.89,.46-1.34C9.11,12.72,15.79,5.72,25.7,1.86c3.05-1.19,6.42-1.6,9.65-2.36,1.84,0,3.68,0,5.51,0,.3,.09,.6,.23,.91,.26,14.36,1.51,26.14,11.77,29.29,25.55,.4,1.74,.63,3.51,.94,5.27v4.44Z"/>
  <path class="cls-1" d="M13,43.88v22.75H.73v-22.75H13Z"/>
  <path class="cls-1" d="M56.17,26.96c-1.28,5.89-2.52,11.59-3.75,17.3-.09,.41-.21,.82-.24,1.24-.16,2.17-1.17,3.64-3.94,4.07-.09-.55-.38-1.23-.27-1.84,.92-4.7,1.92-9.39,2.89-14.07-2.46-1.72-2.49-1.76-2.72-4.35-2.79-.62-5.66-1.26-8.53-1.86-.2-.04-.6,.21-.7,.42-.78,1.68-2.22,2.17-4.04,2.14-.99,4.67-1.97,9.28-2.98,14.04-1.21-.46-2.24-.85-3.36-1.27,1.51-6.92,3.01-13.8,4.55-20.9,7.71,1.69,15.29,3.36,23.1,5.07Z"/>
  <path class="cls-1" d="M22.67,41.93c1.94-8.89,3.83-17.59,5.77-26.51,7.74,1.7,15.38,3.37,23.11,5.06-.24,1.01-.45,1.9-.7,2.94-3.85-.83-7.57-1.64-11.29-2.45-1.58-.35-3.14-.73-4.72-1.07-2.46-.54-3.83,.32-4.35,2.71-1.43,6.53-2.86,13.06-4.32,19.7-1.16-.12-2.27-.24-3.51-.38Z"/>
  <path class="cls-1" d="M40.83,37.82c2.05,.1,3.69,1.02,4.65,2.98,.96,1.95,.71,3.82-.65,5.48-.33,.4-1.05,.68-1.61,.7-1.72,.06-3.45,.04-5.17-.11-.64-.06-1.45-.43-1.81-.92-1.24-1.68-1.3-3.54-.3-5.37,1-1.84,2.62-2.73,4.88-2.76Z"/>
</svg>