<?xml version="1.0" encoding="UTF-8"?>
<svg id="Layer_1" data-name="Layer 1" xmlns="http://www.w3.org/2000/svg" viewBox="0 0 72 72">
  <defs>
    <style>
      .cls-1 {
        fill: #5a2b5f;
      }
    </style>
  </defs>
  <path class="cls-1" d="M42.35-.25c2.93,1.09,4.05,2.96,3.94,5.61-.16,3.89-.04,7.78-.04,11.8h-4.8v-6.98H5.34V61.31H41.31v-7.5h4.74c.05,.22,.18,.5,.18,.78,.01,4.2,.05,8.4,0,12.6-.04,2.73-2.18,4.52-5.48,4.53-11.67,.03-23.34,.03-35.01,0-3.11,0-5.15-1.66-5.43-4.21-.05-.48-.03-.96-.03-1.44,0-20.15,.03-40.31-.04-60.46C.23,2.96,1.12,.95,4.08-.25H42.35ZM26.26,6.02c2.02,0,4.06,.09,6.07-.05,.63-.05,1.18-.73,1.77-1.13-.56-.36-1.11-1.03-1.68-1.04-3.9-.09-7.81-.1-11.71,0-.61,.02-1.2,.75-1.8,1.15,.64,.36,1.25,.97,1.93,1.02,1.79,.14,3.61,.05,5.42,.05Zm.4,60.56c-.01-1.55-1.61-2.82-3.5-2.77-1.79,.05-3.27,1.3-3.27,2.78,0,1.55,1.6,2.81,3.5,2.76,1.81-.05,3.28-1.3,3.27-2.77ZM16.56,4.82c-1.13-.65-1.86-1.39-2.37-1.29-.7,.13-1.22,.9-1.81,1.39,.63,.45,1.21,1.17,1.91,1.27,.52,.07,1.2-.68,2.27-1.36Z"/>
  <path class="cls-1" d="M44.58,49.81c-7.83,0-15.66,0-23.48,0-3.03,0-4.06-.84-4.07-3.32-.02-7.38-.02-14.76,0-22.13,0-2.45,1.09-3.33,4.1-3.33,15.66,0,31.31,0,46.97,0,2.97,0,4.12,.92,4.13,3.36,.03,7.38,.03,14.76,0,22.13,0,2.44-1.12,3.29-4.16,3.29-7.83,0-15.66,0-23.48,0ZM20.23,30.24h48.57v-5.86H20.23v5.86Zm2.83,5.68h43.52v-2.17H23.06v2.17Zm33.2,10.35c2.27,.04,4.02-1.33,4.1-3.18,.08-1.85-1.59-3.34-3.81-3.42-2.32-.08-4.19,1.37-4.21,3.27-.02,1.84,1.69,3.29,3.92,3.33Zm-33.29-5.77c.1,.2,.2,.4,.3,.6,7.87,0,15.73,0,23.6-.03,.34,0,.67-.41,1-.63-.44-.21-.87-.6-1.31-.6-7.37-.04-14.75-.04-22.12,0-.49,0-.98,.43-1.48,.67Zm38.97,5.57c2.3,.46,3.91,.02,4.96-1.46,.9-1.27,.74-2.56-.35-3.69-1.14-1.19-2.63-1.51-4.58-1.02,1.85,2.06,1.91,4.07-.04,6.17Zm-31.37-1.27c2.02,0,4.04,.03,6.06-.03,.45-.01,.88-.36,1.32-.55-.42-.2-.84-.58-1.27-.59-4.11-.04-8.22-.04-12.33,0-.41,0-.8,.41-1.21,.63,.39,.17,.77,.49,1.16,.5,2.09,.05,4.18,.02,6.27,.03Z"/>
</svg>