<?xml version="1.0" encoding="UTF-8"?>
<svg id="Layer_1" data-name="Layer 1" xmlns="http://www.w3.org/2000/svg" viewBox="0 0 200 120">
  <defs>
    <style>
      .cls-1 {
        fill: #5a2b5f;
      }
    </style>
  </defs>
  <path class="cls-1" d="M122.61,92.88c3.01,3.92,2.19,7.36-2.32,10.09,.84,4.71-.02,6.55-3.99,8.45,.13,.61,.32,1.22,.4,1.85,.44,3.44-2.21,6.61-5.88,6.66-7.35,.1-14.7,.04-22.04-.07-1.75-.02-3.53-.33-5.22-.78-1.68-.45-3.27-1.24-5-1.91-1.16,2.32-3.33,2.93-5.92,2.82-1.88-.08-3.77,0-5.66-.02-3.2-.04-5.22-1.99-5.22-5.13-.02-9.09-.02-18.17,0-27.26,0-3.14,2.02-5.07,5.25-5.07,2.08,0,4.17,.05,6.25-.02,1.74-.06,3.27,.32,4.63,1.75,1.53-1.15,3.12-2.2,4.54-3.43,5.16-4.47,9.1-9.72,10.67-16.42,.14-.6,.36-1.17,.55-1.76,1.32-4.27,5.19-5.21,8.41-4.89,2.62,.26,4.35,2.29,4.78,5.23,.46,3.1-.08,6.12-.84,9.1-.62,2.41-1.42,4.78-2.2,7.15-.6,1.83-.07,2.65,1.88,2.66,3.77,.01,7.55,.05,11.32,0,2.86-.03,5.38,.61,6.74,3.29,1.38,2.73,1.05,5.35-1.12,7.7Zm-43.61,7.19c0,3.45,.13,6.91-.05,10.35-.1,1.88,.78,2.92,2.22,3.79,2.59,1.56,5.48,2.09,8.46,2.11,6.88,.05,13.76,.02,20.63,.04,1.07,0,1.95-.33,2.46-1.27,.51-.93,.34-1.83-.24-2.71-1.39-2.12-.46-4.09,2.08-4.44,2.36-.32,3.15-2.17,1.73-4.08-1.42-1.92-.51-4.03,1.89-4.27,1.18-.12,2.04-.59,2.36-1.73,.31-1.12-.12-2-1.06-2.71-1.85-1.39-1.78-3.07,.02-4.58,.57-.48,1.1-1.25,1.22-1.96,.31-1.84-.88-3.05-2.88-3.07-4.05-.04-8.1-.02-12.14-.03-.55,0-1.11,0-1.64-.1-3.19-.63-4.94-3.67-3.98-6.77,.91-2.93,1.86-5.85,2.62-8.82,.56-2.19,.9-4.44,.4-6.72-.31-1.37-.88-1.81-2.29-1.77-2.2,.06-3.07,.7-3.75,2.77-.22,.66-.4,1.32-.58,1.99-.97,3.63-2.54,6.99-4.77,10.06-3.12,4.3-6.92,7.94-11.45,10.8-.92,.58-1.31,1.21-1.29,2.32,.08,3.6,.03,7.21,.03,10.81Zm-3.71,1.23c0-4.29,0-8.58,0-12.87,0-2.2-.11-2.3-2.42-2.32-1.77,0-3.53,0-5.3,0-1.88,0-2.11,.19-2.12,2.05-.01,8.85,0,17.7,.01,26.55,0,1.26,.4,1.62,1.72,1.63,2.04,.01,4.08,0,6.13,0,1.69,0,1.98-.28,1.98-1.94,0-4.37,0-8.74,0-13.1Z"/>
  <path class="cls-1" d="M81.08,19.64c2.83,0,5.66-.05,8.49,.03,1.07,.03,1.46-.34,1.77-1.31,1.71-5.3,3.54-10.56,5.25-15.86,.71-2.21,3.04-2.84,4.57-2.33,1.27,.42,1.93,1.35,2.33,2.55,1.74,5.25,3.52,10.49,5.21,15.75,.31,.97,.78,1.2,1.74,1.19,5.58-.04,11.16-.02,16.75-.02,2.09,0,3.39,.79,3.89,2.34,.52,1.6-.04,2.98-1.69,4.15-4.58,3.25-9.15,6.5-13.74,9.72-.68,.48-.86,.87-.58,1.69,1.79,5.23,3.51,10.49,5.26,15.73,.64,1.93,.27,3.35-1.1,4.32-1.41,.99-2.89,.94-4.55-.27-.85-.62-1.55-1.45-2.41-2.06-.77-.55-1.71-.89-2.49-1.43-2.98-2.06-5.95-4.14-8.87-6.29-.72-.53-1.16-.43-1.82,.04-4.66,3.33-9.32,6.66-14.02,9.93-2.32,1.62-5.32,.43-5.64-2.23-.08-.69,.11-1.45,.33-2.13,1.71-5.22,3.43-10.43,5.2-15.63,.27-.8,.12-1.2-.58-1.68-4.63-3.24-9.22-6.52-13.83-9.79-1.53-1.08-2.1-2.52-1.6-4.09,.48-1.49,1.76-2.33,3.65-2.34,2.83-.01,5.66,0,8.49,0h0Zm45.72,3.82c-.03-.08-.05-.17-.08-.25-.37,0-.74,0-1.11,0-5.7,0-11.4,0-17.1,0-1.87,0-2.2-.25-2.78-2-1.76-5.28-3.51-10.57-5.27-15.85-.11-.33-.26-.65-.47-1.18-.19,.5-.29,.74-.38,.99-1.76,5.28-3.52,10.56-5.27,15.85-.66,2-.91,2.2-3.1,2.2-5.62,0-11.24,0-16.86,0-.37,0-.75,.03-1.45,.06,.61,.44,.97,.71,1.34,.97,4.61,3.27,9.22,6.52,13.82,9.8,1.31,.93,1.44,1.37,.95,2.84-1.24,3.75-2.5,7.5-3.75,11.26-.64,1.92-1.26,3.83-2.01,6.08,.59-.37,.87-.54,1.14-.73,4.64-3.29,9.28-6.58,13.93-9.86,1.41-1,1.88-.99,3.26-.01,3.12,2.21,6.23,4.42,9.34,6.62,1.8,1.28,3.61,2.54,5.72,4.03-.21-.74-.31-1.14-.43-1.52-1.76-5.28-3.53-10.56-5.28-15.85-.51-1.53-.34-1.97,1-2.92,4.61-3.27,9.22-6.53,13.83-9.8,.33-.24,.66-.48,.99-.73Z"/>
  <path class="cls-1" d="M54.97,57.62c-3.53,2.5-7.02,4.97-10.51,7.44-.35,.25-.69,.51-1.05,.75-1.35,.91-2.77,.95-3.95,.12-1.18-.83-1.58-2.14-1.07-3.7,1.34-4.08,2.69-8.17,4.09-12.23,.28-.8,.1-1.22-.58-1.7-3.55-2.47-7.07-4.98-10.59-7.49-1.38-.98-1.87-2.21-1.47-3.57,.42-1.4,1.56-2.24,3.3-2.25,4.36-.03,8.72-.05,13.08,0,.97,.01,1.36-.3,1.64-1.18,1.29-4.02,2.66-8.01,3.98-12.02,.37-1.13,1.01-1.99,2.23-2.32,1.8-.49,3.39,.38,4.02,2.25,1.34,3.97,2.67,7.93,3.94,11.92,.31,.99,.73,1.38,1.87,1.36,4.28-.08,8.57-.06,12.85-.02,2.35,.02,3.9,1.62,3.38,3.65-.21,.84-.91,1.71-1.63,2.25-3.41,2.52-6.89,4.96-10.39,7.37-.73,.5-.92,.92-.62,1.77,1.4,4.03,2.73,8.07,4.07,12.12,.74,2.24-.49,4.3-2.71,4.32-.83,.01-1.78-.36-2.47-.83-3.44-2.35-6.82-4.79-10.22-7.2-.38-.27-.76-.52-1.19-.82Zm-12.57,4.33c.5-.31,.76-.46,1-.63,3.41-2.4,6.82-4.79,10.2-7.22,.96-.69,1.83-.71,2.79,0,1.22,.91,2.47,1.76,3.71,2.64,2.4,1.7,4.81,3.4,7.47,5.27-.19-.65-.29-1.01-.4-1.36-1.26-3.79-2.5-7.58-3.78-11.36-.4-1.19-.15-2.03,.91-2.77,3.36-2.33,6.68-4.71,10.02-7.08,.29-.2,.55-.43,1.06-.84-.55,0-.74,0-.93,0-4.28,0-8.56-.02-12.85,.01-1.26,.01-1.99-.5-2.34-1.65-.38-1.25-.8-2.48-1.22-3.72-.98-2.93-1.96-5.85-3.02-9.03-.22,.56-.36,.87-.46,1.18-1.24,3.71-2.47,7.43-3.7,11.14-.6,1.82-.91,2.05-2.85,2.05-4.09,0-8.17,0-12.26,0-.29,0-.57,.05-1.11,.09,.74,.53,1.27,.91,1.8,1.29,3.05,2.16,6.1,4.32,9.15,6.48,1.31,.93,1.47,1.44,.97,2.95-.54,1.64-1.1,3.27-1.64,4.91-.82,2.46-1.63,4.93-2.53,7.64Z"/>
  <path class="cls-1" d="M145,57.61c-3.8,2.69-7.55,5.35-11.29,8-1.53,1.09-3,1.2-4.23,.3-1.22-.89-1.55-2.21-.98-3.93,1.43-4.3,2.86-8.59,4.34-13.01-1.84-1.32-3.7-2.65-5.57-3.97-1.93-1.38-3.87-2.75-5.81-4.13-1.49-1.05-2-2.3-1.53-3.75,.45-1.41,1.62-2.15,3.49-2.16,4.28-.01,8.57-.04,12.85,.02,.97,.01,1.37-.31,1.65-1.18,1.29-4.02,2.62-8.03,3.98-12.02,.73-2.15,2.82-3.15,4.6-2.04,.78,.48,1.42,1.44,1.73,2.31,1.39,3.9,2.67,7.85,3.93,11.8,.26,.82,.62,1.14,1.55,1.13,4.16-.05,8.33-.02,12.49-.02,2.27,0,3.44,.67,3.94,2.21,.48,1.49-.09,2.67-1.87,3.93-3.34,2.36-6.66,4.75-10.02,7.08-.78,.54-1.01,1.02-.68,1.96,1.41,4.02,2.74,8.07,4.06,12.12,.7,2.16-.6,4.21-2.77,4.2-.83,0-1.78-.38-2.47-.86-3.44-2.35-6.82-4.79-10.22-7.2-.35-.25-.7-.49-1.17-.8Zm12.61,4.43c-.13-.47-.18-.68-.25-.88-1.29-3.9-2.59-7.8-3.89-11.69-.53-1.59-.38-2.07,.98-3.04,2.35-1.67,4.71-3.33,7.06-4.99,1.22-.86,2.43-1.73,3.65-2.6-.46-.23-.83-.23-1.21-.23-3.89,0-7.78,0-11.67,0-2.28,0-2.5-.16-3.19-2.23-1.19-3.61-2.39-7.22-3.59-10.82-.12-.37-.28-.73-.52-1.33-1.45,4.37-2.81,8.44-4.17,12.52-.52,1.57-.91,1.86-2.64,1.86-4.13,0-8.25,0-12.38,.01-.28,0-.57,.05-1.06,.1,.4,.3,.6,.46,.82,.61,3.37,2.39,6.73,4.78,10.1,7.18,1.26,.9,1.43,1.41,.95,2.84-1.27,3.83-2.54,7.65-3.81,11.48-.1,.31-.17,.62-.31,1.14,.46-.3,.72-.46,.97-.63,3.34-2.36,6.67-4.74,10.02-7.09,1.31-.92,1.8-.91,3.07-.02,.77,.54,1.52,1.08,2.29,1.62,2.85,2.02,5.7,4.04,8.78,6.22Z"/>
  <path class="cls-1" d="M169.13,49.07c1.45,0,2.91-.05,4.36,.02,.92,.04,1.38-.21,1.66-1.13,.82-2.72,1.76-5.4,2.67-8.09,.59-1.74,1.53-2.5,2.96-2.46,1.41,.04,2.27,.79,2.83,2.49,.92,2.77,1.85,5.53,2.74,8.31,.21,.66,.53,.89,1.24,.88,3.14-.03,6.29-.04,9.43,0,1.91,.02,3.28,1.41,2.92,3.09-.16,.75-.72,1.56-1.34,2.03-2.42,1.83-4.92,3.56-7.42,5.28-.65,.44-.81,.83-.54,1.6,.97,2.71,1.85,5.45,2.76,8.18,.58,1.75,.3,2.88-.88,3.71-1.13,.79-2.32,.69-3.79-.35-2.35-1.66-4.74-3.29-7.03-5.03-.8-.61-1.29-.49-2,.04-2.32,1.7-4.68,3.36-7.04,5.01-1.49,1.05-2.63,1.12-3.78,.29-1.16-.83-1.43-1.89-.87-3.61,.91-2.77,1.82-5.54,2.79-8.29,.25-.71,.13-1.09-.48-1.51-2.38-1.63-4.72-3.31-7.07-4.97-1.65-1.17-2.13-2.18-1.69-3.54,.45-1.39,1.43-1.95,3.46-1.95,1.37,0,2.75,0,4.12,0h0Zm25.27,3.67c-.72-.03-1.1-.07-1.47-.07-2.36,0-4.71,0-7.07,0-1.6,0-2-.29-2.49-1.74-.68-2.04-1.34-4.08-2.02-6.12-.17-.51-.37-1-.58-1.57-.16,.17-.24,.22-.26,.28-.65,1.93-1.32,3.85-1.94,5.78-1.16,3.62-1,3.38-4.69,3.37-2.18,0-4.36,0-6.86,0,.53,.42,.78,.64,1.05,.83,1.87,1.33,3.75,2.65,5.62,3.99,1.53,1.09,1.66,1.51,1.06,3.31-.63,1.89-1.26,3.78-1.89,5.68-.19,.56-.36,1.12-.64,1.99,2.58-1.82,4.87-3.42,7.14-5.04,.91-.65,1.78-.66,2.7,0,2.06,1.47,4.13,2.93,6.19,4.39,.23,.16,.48,.28,.93,.54-.9-2.71-1.73-5.17-2.55-7.64-.56-1.67-.42-2.1,1-3.12,1.45-1.05,2.92-2.07,4.38-3.11,.71-.51,1.42-1.02,2.39-1.72Z"/>
  <path class="cls-1" d="M7.67,49.07c1.49,0,2.99-.05,4.48,.02,.89,.04,1.31-.21,1.58-1.08,.85-2.75,1.8-5.47,2.71-8.2,.56-1.66,1.47-2.4,2.89-2.39,1.4,.01,2.3,.78,2.86,2.45,.91,2.73,1.86,5.45,2.71,8.2,.25,.82,.65,1.04,1.49,1.03,2.95-.05,5.89-.02,8.84-.02,1.77,0,2.81,.64,3.23,1.95,.4,1.28-.05,2.38-1.42,3.34-2.45,1.73-4.89,3.47-7.38,5.15-.61,.41-.69,.79-.47,1.43,.99,2.91,1.94,5.83,2.92,8.74,.4,1.21,.2,2.28-.81,3.13-1.08,.91-2.4,.91-3.68,.01-2.46-1.72-4.93-3.42-7.33-5.22-.79-.59-1.28-.51-2.02,.03-2.32,1.71-4.69,3.35-7.05,5.01-1.44,1.02-2.66,1.1-3.79,.29-1.12-.8-1.39-1.97-.84-3.63,.89-2.7,1.75-5.41,2.71-8.08,.29-.82,.22-1.27-.55-1.79-2.33-1.56-4.59-3.22-6.88-4.84-.32-.23-.65-.44-.93-.7-.87-.81-1.18-1.79-.79-2.93,.41-1.18,1.29-1.83,2.55-1.87,1.65-.05,3.3-.01,4.95-.01,0,0,0-.01,0-.02Zm20.07,19.36c-.19-.68-.29-1.11-.43-1.53-.71-2.15-1.41-4.3-2.16-6.44-.42-1.18-.17-2.06,.9-2.79,2.06-1.41,4.07-2.88,6.11-4.31,.23-.16,.56-.18,.84-.26-.14-.15-.28-.29-.42-.44-2.75,0-5.5-.03-8.25,.01-1.25,.02-1.97-.5-2.34-1.65-.76-2.38-1.57-4.74-2.37-7.1-.07-.22-.2-.42-.39-.8-.9,2.71-1.74,5.22-2.58,7.73-.51,1.52-.89,1.8-2.56,1.81-2.44,0-4.87,0-7.31,0-.28,0-.56,.06-.9,.1,.12,.18,.15,.26,.21,.3,2,1.43,3.99,2.85,6,4.27,1.8,1.28,1.89,1.53,1.19,3.66-.28,.84-.56,1.68-.83,2.51-.51,1.54-1.02,3.09-1.64,4.97,2.53-1.79,4.74-3.36,6.97-4.92,1.25-.88,1.86-.87,3.08,0,2.22,1.57,4.43,3.14,6.89,4.88Z"/>
</svg>