<?xml version="1.0" encoding="UTF-8"?>
<svg id="Layer_1" data-name="Layer 1" xmlns="http://www.w3.org/2000/svg" viewBox="0 0 72 72">
  <defs>
    <style>
      .cls-1 {
        fill: #5a2b5f;
      }
    </style>
  </defs>
  <path class="cls-1" d="M52.15,25.09c0,13.83-11.67,25.03-26.1,25.06C11.7,50.18-.02,38.9,0,25.05,.02,11.22,11.71,0,26.11,0c14.42,0,26.04,11.2,26.04,25.09Zm-4.9-.02c-.01-11.28-9.31-20.27-21.05-20.35-11.78-.07-21.27,8.98-21.29,20.31-.02,11.29,9.42,20.44,21.15,20.52,11.6,.07,21.19-9.21,21.18-20.48Z"/>
  <path class="cls-1" d="M63.89,72c-1.9-.07-3.85-1.06-5.47-2.91-4.09-4.69-7.73-9.73-12.41-13.94-.72-.64-1.24-1.11-2.35-.56-1.45,.72-2.78,.14-3.7-1.05-.87-1.11-.66-2.31,.17-3.39,3.1-4.05,6.93-7.33,11.43-9.87,1.31-.74,2.65-1.04,3.84,.17,1.09,1.11,1.33,2.49,.39,3.7-.75,.97-.07,1.37,.4,1.94,3.96,4.83,8.84,8.8,13.29,13.17,1.96,1.93,2.89,4.13,2.37,6.83-.65,3.42-3.74,5.9-7.97,5.92Z"/>
  <path class="cls-1" d="M26.28,34.68c-3.28,0-6.56,0-9.84,0-.59,0-1.28,.09-1.51-.64-.2-.63,.26-.91,.76-1.17,.48-.25,.41-.77,.55-1.18,1.32-3.97,3.75-6.93,8.08-8.09,1.14-.31,1.05-.71,.4-1.44-1.03-1.16-1.05-2.37,.16-3.4,.98-.83,2.14-.83,3.08,.05,1.13,1.06,1.15,2.28,.05,3.41-.76,.78-.64,1.1,.44,1.39,4.33,1.15,6.83,4.04,8.11,8.05,.08,.24,.09,.51,.2,.75q1.02,2.3-1.65,2.3c-2.95,0-5.89,0-8.84,0Zm-.4-5.86c0-.71-.06-1.42,.01-2.13,.15-1.49-.52-1.84-1.9-1.4-1.85,.59-3.37,1.6-4.41,3.17-.71,1.07-1.63,2.31-1.08,3.55,.59,1.33,2.16,.66,3.28,.67,4.63,.05,4.07,.46,4.1-3.87Zm2.01-8.35c-.11-.82-.59-1.28-1.44-1.25-.85,.04-1.35,.55-1.29,1.36,.05,.71,.56,1.15,1.32,1.15,.85,0,1.32-.45,1.41-1.27Z"/>
  <path class="cls-1" d="M26.3,35.59c3.68,0,7.36,0,11.04,0,.85,0,1.93-.17,1.95,1.06,.02,1.17-.99,1.18-1.89,1.18-7.56,0-15.12,0-22.68,0-.91,0-1.89-.03-1.85-1.21,.04-1.04,.94-1.05,1.79-1.05,3.88,.01,7.76,0,11.64,0Z"/>
  <path class="cls-1" d="M15.72,14.14c.22,.57-.19,1-.4,1.44-.73,1.56-.34,2.87,.84,4.04,.37,.37,.79,.69,1.19,1.03,2.24,1.95,2.23,2.77-.3,5.02,.64-2.16-.5-3.36-1.85-4.52-3.28-2.81-3.15-4.32,.52-7.01Z"/>
  <path class="cls-1" d="M37.64,25.2c.23-1.97-.93-3.12-2.26-4.23-3.11-2.6-2.99-4.24,.58-6.76-.6,1.87-1.35,3.67,.35,5.22,.68,.62,1.42,1.18,2.07,1.82,1.47,1.45,1.29,2.55-.75,3.95Z"/>
  <path class="cls-1" d="M21.7,12.9c-1.04,1.76-.52,2.86,.48,3.87,.41,.42,.89,.85,.85,1.48-.04,.68-.44,1.32-1.14,1.41-.81,.1-.27-.67-.47-1-.37-.6-.7-1.24-1.14-1.8-1.36-1.74-1.17-2.52,1.42-3.97Z"/>
  <path class="cls-1" d="M30.54,15.81c-.33,1.39,.32,2.34,1.21,3.24,.47,.47,.82,1.04,.29,1.72-.21,.27-.44,.5-.8,.5-.83,0-.2-.52-.26-.79-.18-.73-.74-1.21-1.2-1.75-1.08-1.25-.62-2.14,.77-2.92Z"/>
</svg>