<?xml version="1.0" encoding="UTF-8"?>
<svg id="Layer_1" data-name="Layer 1" xmlns="http://www.w3.org/2000/svg" viewBox="0 0 200 200">
  <defs>
    <style>
      .cls-1 {
        fill: #fff;
      }
    </style>
  </defs>
  <path class="cls-1" d="M160.95,34.9c.06,8.98-1.07,17.42-2.71,25.79-.27,1.38,.09,1.75,1.13,2.12,8.33,2.97,16.41,6.63,23.83,11.88,5.57,3.94,10.67,8.47,14.08,14.97,3.78,7.19,3.56,14.33-.34,21.36-3.54,6.39-8.7,10.86-14.3,14.73-7.14,4.93-14.83,8.53-22.81,11.33-1.23,.43-1.63,.84-1.31,2.42,1.97,9.78,3.09,19.69,2.66,29.74-.34,7.71-1.42,15.23-5.37,21.82-4.22,7.04-10.28,9.5-17.6,8.55-9.54-1.24-17.55-6.45-25.26-12.4-4.17-3.22-8.05-6.85-11.77-10.7-.9-.94-1.38-.76-2.2,.08-6.91,7.12-14.3,13.48-22.74,18.2-5.12,2.87-10.46,5.01-16.22,5.2-6.85,.23-12.31-2.82-16-9.45-3-5.39-4.2-11.42-4.75-17.64-1-11.35,.26-22.51,2.41-33.58,.27-1.38-.13-1.77-1.16-2.13-7.29-2.58-14.36-5.73-21.01-9.99-5.79-3.71-11.16-8.01-15.25-14.06-5.92-8.76-5.69-18.53,.54-27.08,4.28-5.86,9.68-10.11,15.51-13.74,6.35-3.95,13.03-7.06,19.99-9.38,1.33-.44,1.41-1.23,1.16-2.5-1.86-9.37-3.02-18.84-2.71-28.45,.23-7.14,1.12-14.16,4.15-20.62C47.27,2.1,54.3-.76,62.61,.48c9.28,1.39,17.13,6.57,24.65,12.44,4.12,3.21,7.95,6.82,11.65,10.61,.85,.87,1.28,.76,2.05-.05,7.54-7.8,15.65-14.68,25.05-19.46,4.19-2.13,8.55-3.72,13.16-3.98,8.96-.52,15.48,4.44,18.85,14.15,2.35,6.79,3.02,13.87,2.93,20.71Zm-60.76,101.63c5.7,.2,11.46-.3,17.21-.66,.85-.05,1.25-.57,1.67-1.26,6.52-10.65,12.16-21.87,17.14-33.51,.31-.73,.38-1.32,.05-2.09-4.95-11.79-10.81-22.98-17.36-33.73-.42-.69-.87-1-1.62-1.05-2.85-.16-5.7-.49-8.55-.57-8.72-.25-17.44-.18-26.15,.6-.66,.06-1.14,.33-1.53,.98-6.58,10.8-12.34,22.12-17.35,33.93-.25,.59-.34,1.13-.05,1.81,5.05,11.85,10.86,23.2,17.53,33.99,.36,.58,.74,.86,1.39,.9,5.85,.37,11.7,.84,17.64,.65Zm90.79-36.54c-.1-1.04-.23-2.1-.6-3.1-1.57-4.33-4.48-7.4-7.68-10.15-7.83-6.72-16.8-10.83-26.08-14.24-1.09-.4-1.09,.38-1.27,1.06-2.29,8.67-5.07,17.14-8.34,25.41-.25,.63-.29,1.15-.03,1.81,3.29,8.31,6.15,16.81,8.45,25.53,.3,1.14,.67,1.39,1.71,1.01,6.68-2.44,13.17-5.34,19.25-9.31,4.3-2.81,8.37-5.96,11.56-10.35,1.62-2.24,2.83-4.68,3.03-7.66ZM48.1,164.81c-.03,2.89-.01,5.78,.36,8.65,.47,3.6,1.11,7.16,2.62,10.44,2.13,4.64,4.89,6.21,9.57,5.85,2.91-.22,5.7-1.2,8.39-2.46,9.01-4.24,16.56-10.89,23.76-18.13,.74-.74,.47-1.14-.06-1.78-5.37-6.46-10.47-13.18-15.05-20.36-.83-1.3-1.8-1.7-3.09-1.83-1.85-.18-3.68-.48-5.52-.78-5.79-.93-11.55-2.06-17.23-3.66-.83-.23-1.22,.09-1.39,1.03-1.33,7.61-2.49,15.24-2.36,23.04ZM140.3,10.19c-.66,.07-1.33,.11-1.99,.21-4.35,.69-8.32,2.56-12.17,4.86-6.99,4.18-13.13,9.67-18.98,15.6-.55,.56-.74,.94-.12,1.66,5.69,6.64,10.86,13.77,15.72,21.19,.31,.48,.61,.84,1.23,.92,8.13,1.01,16.2,2.51,24.16,4.63,.92,.24,1.14-.08,1.31-1.01,1.73-9.45,2.87-18.95,2.26-28.63-.3-4.66-1.01-9.21-2.88-13.47-1.76-4.01-4.55-6.05-8.57-5.96ZM8.98,100.03c.14,2.01,.73,3.84,1.68,5.55,1.93,3.47,4.61,6.1,7.51,8.47,7.55,6.18,16.07,10.13,24.88,13.37,.85,.31,1.23,.12,1.5-.94,2.18-8.37,4.87-16.53,7.99-24.51,.51-1.29,.55-2.36,.05-3.65-3.2-8.11-5.99-16.41-8.17-24.94-.25-.97-.61-1.09-1.4-.79-4.43,1.65-8.81,3.43-13.04,5.67-6.14,3.26-12.03,6.96-16.79,12.54-2.21,2.59-3.97,5.47-4.21,9.22ZM58.77,10.47c-3.52-.37-6.32,2-8.08,6.27-.74,1.8-1.32,3.67-1.69,5.6-1.15,6.05-1.34,12.16-.93,18.33,.39,5.93,1.2,11.76,2.31,17.56,.17,.9,.41,1.36,1.31,1.11,7.94-2.24,16.02-3.63,24.15-4.7,.52-.07,.87-.26,1.18-.74,4.82-7.45,9.98-14.59,15.66-21.23,.61-.71,.57-1.21-.11-1.83-1.18-1.08-2.29-2.26-3.45-3.36-5.6-5.28-11.48-10.09-18.15-13.56-3.6-1.87-7.31-3.38-12.18-3.45Zm93.3,154.12c-.03-7.52-1.03-15.11-2.44-22.65-.22-1.17-.62-1.48-1.63-1.21-7.73,2.07-15.54,3.63-23.45,4.49-.88,.1-1.45,.6-1.95,1.39-4.67,7.24-9.73,14.13-15.21,20.61-.64,.75-.71,1.24,.03,1.93,1.94,1.81,3.8,3.73,5.78,5.49,6.09,5.45,12.5,10.34,19.93,13.28,2.03,.8,4.11,1.38,6.25,1.58,5.41,.5,8.46-1.75,10.42-7.54,1.87-5.54,2.29-11.32,2.3-17.38ZM111.17,53.59c-3.52-5.11-7.08-9.69-10.81-14.1-.57-.68-.92-.15-1.27,.29-2.18,2.75-4.39,5.49-6.53,8.28-1.3,1.7-2.51,3.51-3.9,5.47,7.62-.36,14.9-.38,22.51,.06Zm-22.42,92.82c3.48,5.15,7.09,9.62,10.72,14.06,.66,.81,.97,.12,1.35-.31,2.68-3.05,5.15-6.31,7.56-9.62,.91-1.25,1.95-2.43,2.7-4.12-7.47,.56-14.74,.45-22.34,0Zm52.66-34.17c-3.43,7.57-7.05,14.6-11.03,21.69,.61,0,.9,.04,1.17,0,4.93-.85,9.82-1.93,14.68-3.2,.93-.24,.64-.82,.46-1.44-.93-3.2-1.81-6.41-2.78-9.59-.74-2.4-1.59-4.76-2.5-7.46Zm-71.72-46.38c-5.49,.91-10.65,2.03-15.79,3.34-.95,.24-.9,.74-.67,1.59,1.33,4.91,2.8,9.76,4.48,14.53,.23,.66,.28,1.46,.98,2.01,3.35-7.3,6.96-14.38,11.01-21.48Zm-11.14,46.55c-2.12,6.03-3.85,11.67-5.37,17.39-.23,.85,.22,.84,.72,.96,3.58,.82,7.15,1.73,10.74,2.47,1.51,.31,3.03,.79,4.9,.68-3.89-7.05-7.66-13.89-11-21.49Zm71.72-46.53c2,3.69,3.93,7.12,5.74,10.62,1.82,3.53,3.53,7.13,5.41,10.93,2.05-5.8,3.76-11.45,5.28-17.17,.27-1.01-.36-.95-.8-1.07-5.09-1.31-10.21-2.45-15.63-3.31Z"/>
  <path class="cls-1" d="M99.92,120.85c-10.39,0-18.59-9.22-18.58-20.87,0-11.54,8.37-20.94,18.63-20.93,10.3,.01,18.62,9.48,18.6,21.14-.02,11.47-8.32,20.67-18.64,20.66Z"/>
</svg>