<?xml version="1.0" encoding="UTF-8"?>
<svg id="Layer_1" data-name="Layer 1" xmlns="http://www.w3.org/2000/svg" viewBox="0 0 200 200">
  <defs>
    <style>
      .cls-1 {
        fill: #5c2e63;
      }
    </style>
  </defs>
  <path class="cls-1" d="M99.58,199.94c-15.3,0-30.61,.08-45.91-.01-16.46-.1-25.5-8.27-25.73-23.05-.01-.81-.12-1.64,0-2.44,1.06-7.37-1.47-12.43-8.47-17.4C6.04,147.49,.02,133.94,0,118.39c-.01-7.13,.07-14.26,.08-21.38,0-5.75,2.95-9.89,8.82-11.77,3.34-1.07,4.45-2.55,4.51-5.65,.14-6.54,4.14-10.77,10.36-13.93,1.96-.99,3.9-3.78,3.96-5.8,.37-12.41,.12-24.84,.24-37.26C28.11,8.7,37.46,.14,52.89,.08c31.28-.12,62.57-.1,93.85,0,15.66,.05,24.98,8.75,25.05,23.03,.05,11.2,.1,22.4-.05,33.6-.04,3.18,.68,5.16,4.43,6.39,6.8,2.24,10.29,7.14,10.45,13.63,.07,3.08,1.06,4.59,4.42,5.73,5.32,1.8,7.86,5.79,8.05,10.99,.25,6.91,.77,13.82,.91,20.73,.37,17.99-7.57,32.43-23.46,43.1-3.47,2.33-5.16,4.58-4.8,8.48,.35,3.84,.11,7.73,.08,11.6-.13,13.5-9.37,22.28-24.28,22.5-15.97,.24-31.96,.05-47.94,.06Zm55.3-41.93c0-16.18-.08-31.82,.06-47.46,.03-3.4-1.03-5.26-4.57-7.1-9.16-4.76-9.06-15.82,.22-20.35,3.77-1.84,4.38-3.92,4.36-7.18-.09-17.32,.04-34.64-.18-51.96-.02-1.88-1.87-3.74-2.87-5.61-.77,1.85-2.17,3.7-2.21,5.57-.23,9.98,.06,19.97-.26,29.95-.07,2.12-1.35,5.27-3.07,5.99-1.72,.72-4.79-.82-7.08-1.75-1.76-.72-3.22-2.05-5.01-3.23-5.08,3.55-9.77,9.43-16.16,2.02-.26-.3-1.68,.34-2.57,.34-18.69,.03-37.38,.09-56.07-.02-1.79-.01-3.58-1.03-5.36-1.59,.1-.9,.2-1.8,.3-2.71,10.53-.09,21.06-.22,31.59-.27,10.92-.05,21.85-.01,32.8-.01v-20.17c-19.83,0-39.18,.07-58.53-.11-1.93-.02-3.84-1.63-5.76-2.5,1.9-.68,3.79-1.95,5.7-1.96,19.5-.15,39-.09,58.65-.09v-9.18H44.84V83.9c10.41,1.81,14.47,7.9,13.02,17.41,26.77,0,52.87,0,78.97,0,1.8,0,3.68-.19,5.37,.22,.98,.24,1.93,1.4,2.34,2.34,.15,.34-1.22,1.57-2.11,1.83-1.24,.37-2.66,.27-4.01,.27-25.67,.01-51.34-.08-77.01,.08-5.51,.04-11.02,.99-16.54,1.53v50.42h110.02ZM33.32,109c-.13,1.49-.4,3.08-.4,4.67-.03,20.79-.1,41.58-.02,62.37,.05,13.15,7.01,19.25,21.78,19.27,29.96,.03,59.92,.03,89.87,0,15.61-.01,22.16-5.92,22.18-20.08,.04-21.4,0-42.8-.04-64.2,0-1.77-.28-3.54-.42-5.24-4.91-1.28-6.52,.08-6.47,4.29,.19,14.88,.1,29.76,.06,44.64-.02,7.39-.83,8.19-8.82,8.2-34.24,.04-68.47,.04-102.71-.02-8.04-.01-8.98-.92-9.01-8.08-.05-13.86-.07-27.72,.04-41.58,.03-3.78-.75-6.13-6.05-4.23Zm132.89-28.22c.2-1,.43-1.6,.43-2.19,.03-18.53,.17-37.07,.01-55.6-.1-12.11-7.15-18.25-20.67-18.27-30.61-.05-61.22-.04-91.84,0-14.21,.02-21.2,6.27-21.26,19.1-.09,18.33,0,36.66,.04,54.99,0,1.6,.26,3.19,.4,4.72,5.14,1.85,6.06-.31,6.04-4.18-.1-19.15-.06-38.29-.03-57.44,.01-7.12,1.22-8.32,8.86-8.32,34.21-.03,68.43-.01,102.64,.04,8.05,.01,9,.91,9.01,8.05,.04,18.13,.08,36.25,0,54.38-.02,3.92,.67,6.55,6.37,4.71ZM27.92,157.43c0-10.65,.01-19.73-.02-28.8,0-.79-.03-1.93-.56-2.31-6.93-4.93-4.32-11.85-4.76-18.13-.24-3.43,1.6-4.69,5.27-4.6,5.39,.13,10.79,.12,16.17-.05,5.16-.16,8.81-2.44,8.74-7.39-.08-4.97-3.83-7.11-8.98-7.16-9.66-.1-19.32-.18-28.98,0-6.62,.12-9.41,2.75-9.51,8.66-.13,8.33-.54,16.7,.11,25,1.1,14.13,8.27,25.4,22.52,34.79Zm143.89-2.69c13.15-8.53,20.72-18.67,22.21-31.55,1.11-9.66,.21-19.53,.02-29.3-.1-5.21-3.47-7.75-9.07-7.81-9-.09-18-.13-27-.05-5.15,.05-8.95,2.17-8.99,7.17-.04,5.32,3.85,7.42,9.33,7.48,4.95,.05,9.93-.24,14.84,.2,1.65,.15,4.53,2.19,4.42,3.15-.74,6.63,4.27,14.54-4.79,19.53-.68,.38-.92,1.8-.92,2.74-.07,8.93-.04,17.85-.04,28.44ZM124.66,55.32c3.99-2.54,6.99-4.46,9.94-6.34,3.14,2.1,5.93,3.96,9.33,6.23V18.76h-19.26V55.32Zm47.65,12.01v13.62h8.7c1.18-8.45-.86-11.6-8.7-13.62Zm-144.88,2.87c-7.86,2.41-9.84,5.79-8.26,13.56h8.26v-13.56Z"/>
  <path class="cls-1" d="M101.41,129.57c-13.26,0-26.53,.09-39.79-.1-1.79-.03-3.56-1.42-5.34-2.18,1.81-.76,3.62-2.17,5.44-2.18,26.08-.15,52.16-.15,78.24-.02,1.89,0,3.78,1.28,5.66,1.97-1.92,.83-3.83,2.34-5.77,2.37-12.81,.21-25.63,.11-38.44,.11v.03Z"/>
  <path class="cls-1" d="M54.34,78.72c2-.35,4-1,6-1,25.83-.07,51.65-.1,77.48,.05,2.02,.01,4.03,1.38,6.05,2.11-2.02,.76-4.03,2.17-6.05,2.18-25.6,.15-51.2,.12-76.81,.05-2.22,0-4.43-.68-6.65-1.04,0-.78-.01-1.57-.02-2.35Z"/>
  <path class="cls-1" d="M115.49,178.49c-.17,7.74-7.17,13.8-15.77,13.62-8.61-.17-15.25-6.46-15.05-14.26,.19-7.62,7.5-14.03,15.76-13.81,8.41,.23,15.23,6.77,15.07,14.44Zm-5.03-.04c.13-5.01-4.41-9.43-9.94-9.68-5.71-.26-10.84,4.22-10.84,9.46,0,5.01,4.68,9.26,10.26,9.32,5.57,.06,10.38-4.1,10.51-9.1Z"/>
</svg>