<?xml version="1.0" encoding="UTF-8"?>
<svg id="Layer_1" data-name="Layer 1" xmlns="http://www.w3.org/2000/svg" viewBox="0 0 200 200">
  <defs>
    <style>
      .cls-1 {
        fill: #5c2e63;
      }
    </style>
  </defs>
  <path class="cls-1" d="M35.39,13.9c13.19,.04,10.49-1.46,14.5,10.3,3.63,10.65,7.08,21.36,10.76,31.99,1.09,3.14,.46,5.15-2.4,6.93-5.25,3.26-10.32,6.8-15.44,10.25-3.6,2.43-3.88,3.3-2.19,7.43,8.6,20.92,21.85,38.49,38.67,53.45,11.88,10.57,25.08,19.11,39.83,25.16,4.31,1.77,5.12,1.52,7.66-2.27,3.57-5.32,7.18-10.6,10.65-15.98,1.45-2.25,3.27-2.78,5.65-1.98,13.39,4.48,26.8,8.91,40.14,13.54,1.19,.41,2.77,2.12,2.76,3.2-.1,7.7,.44,15.61-1.13,23.04-2.67,12.67-14.13,21.31-27.09,21.04-60.98-1.28-107.08-28.4-137.89-80.92C6.26,95.87,.07,70.36,0,43.43-.05,26.51,12.14,14.17,29.1,13.9c2.1-.03,4.2,0,6.29,0Z"/>
  <path class="cls-1" d="M108.37,0c20.96,1.81,40,9.56,56.34,23.55,20.64,17.67,32.39,40.11,35.22,67.17,.54,5.13-2.04,8.77-6.39,9.11-4.41,.35-7.38-2.58-7.91-7.82-3.98-38.78-32.35-69.57-70.63-76.62-2.71-.5-5.46-.73-8.2-1.09-4.12-.54-6.89-3.77-6.6-7.71,.29-3.91,3.57-6.74,8.17-6.61Z"/>
  <path class="cls-1" d="M171.63,91.88c-.14,4.2-2.61,7.44-6.35,7.93-4.09,.53-7.53-2.03-8.14-6.38-2.24-15.81-9.41-28.79-21.96-38.72-8.16-6.46-17.52-10.09-27.74-11.69-5.03-.79-7.71-3.88-7.23-8.1,.47-4.17,3.98-6.51,9.07-6.05,26.01,2.34,51.1,23.3,59.12,49.53,1.35,4.41,2.17,8.98,3.23,13.48Z"/>
  <path class="cls-1" d="M142.47,92.52c0,3.6-2.53,6.64-5.87,7.27-3.52,.66-6.71-1.31-8.09-4.75-1.59-3.96-2.87-8.15-5.14-11.69-4.03-6.29-10.17-9.86-17.46-11.53-3.69-.84-5.75-3.6-5.75-7.09,0-3.31,2.2-6.11,5.55-6.91,.83-.2,1.75-.24,2.6-.12,16.11,2.3,31.39,17.48,34.01,33.73,.07,.43,.13,.87,.16,1.08Z"/>
</svg>