<?xml version="1.0" encoding="UTF-8"?>
<svg id="Layer_1" data-name="Layer 1" xmlns="http://www.w3.org/2000/svg" viewBox="0 0 200 250">
  <defs>
    <style>
      .cls-1 {
        fill: #5c2e63;
      }
    </style>
  </defs>
  <path class="cls-1" d="M148.59,250c-9.94-2.52-19.23-6.17-26.63-13.89-12.94-13.5-16.71-33.93-9.21-51.41,7.33-17.09,24.53-27.96,43.13-27.26,23.51,.88,41.72,18.48,43.94,42.47,2.12,22.88-13.6,44.12-36.26,49.04-1.01,.22-1.97,.69-2.95,1.05h-12.01Zm1.49-38.51c-4.35-3.5-8.14-6.65-12.04-9.66-3.59-2.77-7.2-2.69-10.09,.97-2.94,3.72-1.99,7.35,1.39,10.22,5.45,4.62,11.03,9.08,16.6,13.54,3.74,2.99,7.38,2.85,10.62-.83,9.21-10.48,18.43-20.96,27.52-31.55,2.76-3.21,2.84-6.9-.3-9.93-3.34-3.22-6.91-2.75-10.17,.4-.92,.89-1.7,1.93-2.54,2.9-6.89,7.86-13.78,15.73-20.98,23.95Z"/>
  <path class="cls-1" d="M81.97,0c5.23,2.5,8.83,6.1,9.23,12.47,.23,3.65,2.61,5.4,6.33,5.39,2.51,0,5.13,.09,7.51,.8,4.82,1.44,7.7,6.27,7.09,11.11-.65,5.11-4.27,9.13-9.33,9.2-15.8,.21-31.61,.21-47.41,.02-5.4-.07-9.18-4.23-9.56-9.48-.4-5.55,2.43-9.81,7.71-11.16,1.9-.49,3.96-.56,5.93-.5,4.32,.15,7-1.43,7.26-6.18,.31-5.86,4.22-9,8.69-11.69h6.55Zm-3.19,20.17c2.55-3.59,5.22-5.71,5.02-7.5-.22-2.01-3.04-3.73-4.72-5.58-1.79,1.76-4.7,3.33-5.02,5.33-.28,1.77,2.31,4.03,4.73,7.75Z"/>
  <path class="cls-1" d="M17.73,64.66V207.27H97.79c1.33,6,2.52,11.35,3.89,17.51-2,0-3.73,0-5.46,0-26.38,0-52.76,.02-79.14,0C4.78,224.76,.01,219.84,0,207.2,0,152.41-.02,97.62,.06,42.83c0-3.1,.23-6.39,1.27-9.25,1.88-5.17,5.3-8.6,11.43-8.42,8.34,.25,16.68,.06,25.44,.06,.12,1.59,.21,2.81,.31,4.02,.79,9.88,7.62,17.03,17.37,17.22,15.28,.3,30.57,.31,45.84,.02,10.9-.21,17.14-7.77,17.63-21.66,9.48,.5,19.06,.37,28.43,1.71,6.33,.91,9.81,5.86,9.84,12.25,.15,35.35,.07,70.7,.05,106.06,0,.34-.21,.69-.4,1.26-5.25,.5-10.59,1-16.55,1.56V64.66H17.73Z"/>
  <path class="cls-1" d="M95.08,82.19c8.52,0,17.05,.12,25.57-.05,4-.08,5.49,1.55,5.49,5.56,0,4.04-2.03,5.02-5.46,5.01-17.41-.05-34.82-.05-52.23,0-3.53,0-5.31-1.22-5.22-5.2,.08-3.77,1.52-5.37,5.2-5.34,8.89,.08,17.77,.03,26.66,.03Z"/>
  <path class="cls-1" d="M94.95,124.75c-8.71,0-17.41-.1-26.11,.05-3.76,.07-5.71-.94-5.63-5.28,.08-4.36,2.23-5.19,5.87-5.17,17.05,.09,34.1,.09,51.14,0,3.63-.02,5.83,.71,5.92,5.09,.09,4.74-2.35,5.43-6.17,5.36-8.34-.15-16.68-.05-25.03-.05Z"/>
  <path class="cls-1" d="M85.64,153.43c-5.8,0-11.6-.11-17.39,.04-3.84,.1-5.01-1.73-5.01-5.4,0-3.5,1.27-5.09,4.75-5.08,11.95,.05,23.91,.07,35.86-.01,4.03-.03,4.76,2.28,4.73,5.71-.03,3.56-1.6,4.88-5.02,4.79-5.97-.16-11.95-.04-17.93-.04Z"/>
  <path class="cls-1" d="M82.08,185.64c-4.72,0-9.44-.04-14.16,.02-3.57,.04-4.64-1.87-4.68-5.24-.05-3.41,.99-5.23,4.6-5.2,9.8,.07,19.61,.05,29.41,.01,3.27-.01,4.45,1.65,4.47,4.82,.02,3.2-.74,5.54-4.39,5.57-5.08,.04-10.17,.01-15.25,.01Z"/>
  <path class="cls-1" d="M40.75,119.48c3.46-3.97,6.39-7.77,9.82-11.02,1.2-1.14,3.67-.9,5.56-1.28-.27,1.78,.03,4.01-.92,5.25-3.34,4.37-7.15,8.36-10.71,12.56-2.05,2.42-4.17,2.66-6.59,.62-2.1-1.76-4.52-3.23-6.27-5.29-.9-1.06-.67-3.12-.94-4.73,1.61-.05,3.4-.58,4.77-.03,1.77,.72,3.2,2.31,5.29,3.93Z"/>
  <path class="cls-1" d="M40.78,149.83c3.49-3.98,6.44-7.76,9.88-11.01,1.2-1.13,3.61-.95,5.47-1.36-.24,1.8,.11,4.07-.83,5.3-3.46,4.5-7.4,8.62-11.08,12.95-1.91,2.25-3.79,2.52-6.05,.53-2.05-1.81-4.53-3.24-6.23-5.33-.98-1.2-.79-3.38-1.13-5.12,1.61,.04,3.4-.36,4.78,.23,1.77,.75,3.2,2.3,5.19,3.82Z"/>
  <path class="cls-1" d="M40.73,180.46c3.44-3.93,6.37-7.7,9.78-10.95,1.23-1.17,3.61-1.08,5.46-1.56-.26,1.91,.1,4.29-.9,5.63-3.17,4.23-6.93,8-10.29,12.09-2.39,2.9-4.69,2.97-7.39,.57-1.9-1.69-4.22-3-5.79-4.95-.88-1.1-.63-3.14-.89-4.76,1.6-.03,3.39-.55,4.76,.02,1.76,.73,3.19,2.31,5.27,3.92Z"/>
  <path class="cls-1" d="M40.72,87.66c3.42-3.86,6.52-7.7,10.02-11.11,1.14-1.11,3.35-1.09,5.07-1.58-.15,1.94,.41,4.41-.56,5.71-3.28,4.39-7.15,8.33-10.7,12.52-2.01,2.37-4.03,2.92-6.51,.76-2.07-1.8-4.46-3.27-6.23-5.33-.95-1.1-.88-3.11-1.27-4.71,1.75-.03,3.67-.53,5.2,.05,1.77,.67,3.18,2.3,4.98,3.69Z"/>
</svg>