<?xml version="1.0" encoding="UTF-8"?>
<svg id="Layer_1" data-name="Layer 1" xmlns="http://www.w3.org/2000/svg" viewBox="0 0 200 200">
  <defs>
    <style>
      .cls-1 {
        fill: #5c2e63;
      }
    </style>
  </defs>
  <path class="cls-1" d="M161.12,81.59c0-7.55,.03-14.83-.01-22.12-.03-5-2.23-6.34-7.33-5.39-3.88,.72-8.11-.4-12.01-.68-.23,2.14,.52,6.21-1.18,8.09-1.85,2.05-5.97,2.07-9.61,3.13,1.09,.85,2.35,2.21,3.9,2.96,2.91,1.41,6.7,2.38,5.16,6.6-1.44,3.95-2.86,8.66-8.79,8.11-.91-.08-1.81-.22-3.23-.4,1.85-2.74,3.38-4.99,4.9-7.23-7.73-6.01-10.83-12.27-8.11-16.72,2.62-4.29,6.07-2.62,8.61-1.22,1.36-3.21,1.89-7.84,4.28-9.17,2.63-1.46,6.96,.29,10.55,.33,3.25,.04,6.5-.33,10.4-.56-6.49-17.54-17.48-29.44-33.81-36.47-4.26-1.84-5,.65-4.96,3.88,.12,9.66,.15,9.46-9.54,10.8-1.89,.26-3.75,2.53-5.13,4.26-1.42,1.79-2.22,4.05-3.52,6.55,3.3,0,6.47-.31,9.56,.09,3.32,.43,6.86,.95,9.74,2.47,4.15,2.19,6.01,6.74,4.04,10.72-1.27,2.56-5.4,5.11-8.3,5.17-5.7,.11-11.46-1.41-17.15-2.46-5.36-.98-10.39-.93-14.62,3.13-4.02,3.87-5.85,9.2-3.15,13.55,1.87,3.02,6.96,5.1,10.87,5.59,5.81,.73,11.14,.86,13.65,9.44-9.09-2.19-17.28-3.38-24.84-6.23-6.2-2.35-8.08-9.22-6.48-17.03,1.57-7.65,8.37-14.37,16.11-14.81,4.71-.27,9.5,.84,14.25,1.36,4.47,.49,8.94,1.03,13.63,1.57,.23-5.75-3.46-5.95-6.46-6.2-4.38-.37-8.87,.29-13.2-.32-2.18-.31-5.28-2.08-5.82-3.84-.59-1.91,1.11-4.67,2.16-6.91,1.03-2.19,2.18-4.47,3.84-6.17,2.21-2.28,4.76-4.4,7.55-5.89,1.77-.95,4.23-.62,6.29-.86,.3-3.67,.58-6.99,.93-11.24-4.26-.48-8.88-1-14.27-1.61,.72,7.63-3.31,11.11-9.39,13.22-1.74,.6-2.98,2.5-4.63,3.52-1.41,.87-3.08,1.34-4.63,1.99-.2-1.96-1.31-4.76-.43-5.7,2.39-2.53,5.65-4.25,8.53-6.33,1.54-1.11,3.03-2.29,4.05-4.36-8.15-.34-15.23,2.28-21.63,6.61-.86,.58-.52,3.26-.37,4.93,.95,10.73,0,12.31-9.63,17.44-2.41,1.28-4.32,3.47-6.6,5.04-2.42,1.67-5.07,3.01-7.48,4.69-1.45,1.02-2.64,2.41-5.39,4.99,11.59,1.06,14.21,6.83,13.63,15.59-.17,2.53,2.27,5.9,4.47,7.79,5.73,4.93,7.38,10.2,4.93,17.54-1.7,5.09-1.69,10.74-2.57,17.02,.67,.57,2.15,1.86,3.68,3.11,4.35,3.55,8.21,5.28,14.41,2.2,11.17-5.55,19.77-2.82,28.07,6.07,1.37,1.47,4.89,1.97,7.09,1.48,11.91-2.66,11.87-2.82,16.81-.47-2.38,1.47-4.18,2.94-6.24,3.79-35.12,14.48-75.6-4.36-87.38-40.6C27.62,49.45,49.77,10.36,86.73,1.75c37.29-8.69,74.38,15.99,80.03,53.46,.83,5.47,.81,11.13,.62,16.68-.15,4.6-2.91,7.8-6.27,9.69ZM42.84,58.99c-1.48,17.07,2.97,31.7,14.51,45.45,.83-5.64,.89-10.03,2.22-14.01,1.44-4.3,.71-7.3-2.82-9.85-5.48-3.95-7.95-9.24-7.21-15.97,.49-4.5-1.75-6.13-6.71-5.62Zm6.06-21.61c.27,.18,.55,.36,.82,.54,3.54-2.34,6.96-4.91,10.66-6.96,5.65-3.12,6.2-4.16,3.59-12.01-5.36,6.55-10.22,12.49-15.08,18.43Zm35.05,83.08c-.07,.58-.13,1.16-.2,1.74,6.09,.94,12.19,1.89,18.28,2.83-5.02-7.26-11.35-7.08-18.09-4.58Z"/>
  <path class="cls-1" d="M159.89,130.07c-4.96,6.84-9.63,13.04-13.97,19.46-.8,1.18-.69,3.39-.23,4.89,.94,3.03,2.42,5.9,3.64,8.85,1.76,4.25-.36,13.9-4.32,16.03-1.67,.9-5.48,.07-6.97-1.36-3.4-3.28-5.97-7.41-8.1-10.19-5.19,1.12-9.53,2.06-13.86,3v-12.87c-3.24-1.22-7.87-2.85-12.42-4.7-5.48-2.22-5.53-4.81-1.96-9.44,5.54-7.18,12.77-6.46,20.11-5.23,3.91,.66,6.32-.22,8.59-3.45,3.89-5.53,8.24-10.73,12.97-16.81-9.88-3.05-19.12-5.92-28.37-8.74-4.79-1.46-9.6-2.84-14.39-4.29-3.28-1-7.43-1.87-6.03-6.45,1.25-4.09,1.87-9.47,8.18-9.59,5.42-.1,10.83-.16,16.25-.29,14.04-.34,28.08-.54,42.1-1.21,2.35-.11,5.08-1.78,6.79-3.54,3.48-3.56,6.21-7.83,9.55-11.54,4.26-4.72,9.86-5.31,14.52-1.91,4.66,3.4,5.61,8.89,2.42,14.33-.91,1.55-1.75,3.24-3.02,4.45-7.77,7.37-7.93,15.43-4.44,25.23,4.95,13.88,8.35,28.29,12.38,42.49,1.8,6.34,.14,10.14-5.87,13-5.41,2.57-6.97-2.1-9.16-5.21-8.04-11.4-15.99-22.85-24.4-34.91Zm-18.77,41.88c.6-.03,1.2-.07,1.8-.1,0-2.51,.47-5.14-.12-7.51-.76-3.06-2.2-6-3.67-8.82-1.81-3.45-1.34-6.18,1.09-9.27,5.06-6.44,9.72-13.2,14.55-19.82,4.83-6.63,5.69-6.6,10.49,.3,8.54,12.28,17.11,24.55,25.66,36.82,.62-.09,1.24-.19,1.86-.28,0-2.14,.48-4.41-.08-6.4-4.9-17.48-9.91-34.93-15.07-52.33-1.06-3.58-.81-6.37,1.65-9.34,3.31-4,6.47-8.2,9-12.7,.95-1.69-.06-4.47-.17-6.76-2.22,.59-5.15,.49-6.54,1.9-3.63,3.68-6.8,7.88-9.74,12.15-2.18,3.17-4.78,4.18-8.55,4.23-18.66,.26-37.31,.73-55.96,1.3-1.98,.06-3.93,1.23-5.89,1.89,.17,.6,.34,1.2,.51,1.8,14.92,4.56,29.84,9.09,44.75,13.69,6.13,1.89,6.5,3.08,2.59,8.19-3.65,4.76-7.92,9.14-10.97,14.25-5,8.4-11.33,12-21.24,9.3-2.79-.76-6.21,.81-9.35,1.32,.02,.75,.03,1.49,.05,2.24,3.32,1.22,6.63,2.48,9.97,3.64,4.68,1.62,10.24,2.58,5.83,10.52,5.18-4.54,8.31-3.32,11.1,1.21,1.87,3.03,4.28,5.74,6.44,8.59Z"/>
  <path class="cls-1" d="M20.48,90.05c-2.42,2.86-4.25,5.03-6.08,7.2-1.11-1.07-3.34-2.73-3.14-3.11,1.3-2.45,3.06-4.69,4.93-6.76,.16-.17,2.25,1.39,4.28,2.67Z"/>
  <path class="cls-1" d="M24.85,181.58c-2.07,1.48-3.92,3.21-4.23,2.97-2.24-1.74-4.25-3.81-6.04-6-.14-.17,2.75-3.23,2.92-3.11,2.32,1.63,4.41,3.58,7.34,6.15Z"/>
  <path class="cls-1" d="M8.67,113.86c-2-2.85-3.7-4.28-3.44-5.06,.9-2.63,2.49-5.02,3.81-7.5,1.15,1.06,3.41,2.33,3.26,3.14-.51,2.66-1.89,5.16-3.63,9.42Z"/>
  <path class="cls-1" d="M105.74,172.69c1.4,2.07,3.06,4.07,2.86,4.28-2.08,2.15-4.47,4.01-6.78,5.95-.89-1.11-2.75-2.93-2.53-3.21,1.7-2.26,3.79-4.23,6.45-7.01Z"/>
  <path class="cls-1" d="M97.78,186.55c-3.76,2.04-6.12,3.63-8.72,4.48-.64,.21-2.08-2.05-3.16-3.17,2.35-1.58,4.6-3.39,7.14-4.58,.61-.29,2.19,1.45,4.74,3.27Z"/>
  <path class="cls-1" d="M28.86,184.27c2.87,2.39,5.08,4.22,7.28,6.05-1.09,1.14-2.82,3.42-3.18,3.23-2.48-1.34-4.74-3.13-6.84-5.03-.17-.16,1.43-2.24,2.74-4.25Z"/>
  <path class="cls-1" d="M46.25,200c-2.38-2.35-4.11-4.07-5.85-5.78,1.57-.78,3.36-2.45,4.66-2.13,2.14,.53,3.95,2.35,5.9,3.63-1.26,1.14-2.52,2.29-4.71,4.27Z"/>
  <path class="cls-1" d="M29.5,77.37c-3.1,2.71-5.36,4.69-7.62,6.66-.92-1.1-2.83-2.89-2.62-3.2,1.61-2.31,3.54-4.45,5.67-6.29,.3-.26,2.25,1.36,4.57,2.83Z"/>
  <path class="cls-1" d="M9.64,120.47c-2.28,2.64-3.88,4.5-5.49,6.37-.89-1.5-2.71-3.17-2.46-4.45,.42-2.14,2.16-4.03,3.35-6.02,1.23,1.1,2.46,2.2,4.6,4.1Z"/>
  <path class="cls-1" d="M0,151.25c2.21-1.85,3.48-2.91,4.75-3.98,1.26,2.22,2.91,4.33,3.59,6.71,.25,.89-1.74,2.41-2.7,3.64-1.65-1.86-3.29-3.72-5.64-6.37Z"/>
  <path class="cls-1" d="M9.38,159.97c2.1,3.95,3.72,6.29,4.5,8.88,.23,.75-1.92,2.22-2.98,3.35-1.56-2.34-3.38-4.57-4.53-7.1-.33-.71,1.29-2.3,3.02-5.14Z"/>
  <path class="cls-1" d="M61.63,191.67c2.06,1.77,3.48,2.98,4.9,4.2-1.76,1.14-3.5,3.12-5.3,3.18-1.74,.06-3.55-1.85-5.33-2.9,1.65-1.29,3.3-2.58,5.72-4.48Z"/>
  <path class="cls-1" d="M7.91,137.47c-1.86,2.07-3.13,3.49-4.4,4.91-1.07-1.78-2.97-3.57-2.98-5.35,0-1.74,1.93-3.49,3.02-5.23,1.26,1.64,2.53,3.29,4.36,5.67Z"/>
  <path class="cls-1" d="M75.25,198.15c-1.7-1.78-2.76-2.89-3.82-3.99,2.26-1.51,4.39-3.32,6.85-4.33,.67-.28,2.34,1.84,3.55,2.86-1.99,1.65-3.99,3.31-6.58,5.46Z"/>
</svg>