<?xml version="1.0" encoding="UTF-8"?>
<svg id="Layer_1" data-name="Layer 1" xmlns="http://www.w3.org/2000/svg" viewBox="0 0 200 200">
  <defs>
    <style>
      .cls-1 {
        fill: #5c2e63;
      }
    </style>
  </defs>
  <path class="cls-1" d="M0,61.99c.31-1.83,.61-3.67,.93-5.5,2.33-13.47,8.45-24.17,16.97-32.93C31.31,9.78,47.16,3,64.5,.75c15.58-2.02,30.79-.04,45.46,6.7,14.13,6.49,26.29,16.29,34.26,32.22,7.8,15.57,8.74,31.87,2.3,48.5-5.2,13.42-13.75,23.14-24.27,30.3-20.69,14.09-42.83,17.51-66.02,12.03-1.39-.33-2.44-.11-3.61,.87-12.06,10.12-24.17,20.18-36.26,30.25-.64,.53-1.29,1.05-2.27,1.31,6.06-13.91,12.13-27.83,18.1-41.52-4.24-3.49-8.55-6.6-12.46-10.32C9.87,101.72,2.94,89.99,.6,74.81,.4,73.52,.2,72.22,0,70.93c0-2.98,0-5.96,0-8.94Zm115.8,11.64v-19h-15.65v19h15.65ZM35.98,54.62v18.98h15.53v-18.98h-15.53Zm32.05,18.98h15.59v-18.99h-15.59v18.99Z"/>
  <path class="cls-1" d="M169.48,159.86c5.81,13.3,11.53,26.38,17.54,40.14-1.04-.78-1.61-1.17-2.15-1.61-11.51-9.57-23.03-19.14-34.52-28.74-1.01-.84-1.89-1.24-3.21-.91-16.49,4.16-32.73,2.88-48.65-3.67-9.07-3.73-17.35-9.22-24.53-16.97-.28-.3-.5-.66-.92-1.21,12.16,.15,23.87-1.64,35.25-5.84,17.55-6.48,33-17.06,44.3-34.95,9.5-15.04,13.19-31.93,9.9-50.7-.11-.61-.23-1.22-.32-1.83-.02-.13,.08-.28,.17-.6,9.57,4.54,18.12,10.87,25.2,19.92,5.07,6.48,8.95,13.87,10.91,22.51,3.99,17.61,.06,32.95-9.57,46.51-4.75,6.68-10.49,11.92-16.84,16.21-.79,.53-1.58,1.07-2.57,1.74Z"/>
</svg>