<?xml version="1.0" encoding="UTF-8"?>
<svg id="Layer_1" data-name="Layer 1" xmlns="http://www.w3.org/2000/svg" viewBox="0 0 200 150">
  <defs>
    <style>
      .cls-1 {
        fill: #5c2e63;
      }
    </style>
  </defs>
  <path class="cls-1" d="M88.83,116.35H49.12c-.26,.8-.52,1.59-.78,2.39,2.28,1.05,4.52,2.92,6.84,3.01,9.01,.35,18.05,.13,27.08,.16,2.14,0,4.29,.18,6.69,.29v9.88c-3.12,0-5.93,0-8.73,0-23.12-.02-46.24-.02-69.37-.06-8.37-.01-11.25-2.25-10.82-10.15,.78-14.04,1.93-28.09,3.72-42.03,.54-4.22,3.68-8.13,4.88-10.62-1.98-4.17-5.79-8.32-4.92-11.05,2.47-7.8,10.26-7.26,17.31-7.33,1.64-4.51,3.07-9.03,4.9-13.38,5.73-13.65,14.5-19.38,29.47-19.43,10.99-.04,21.97,0,32.85,0,2.22,4.67,.5,6.07-3.92,6.01-10.13-.12-20.27,.21-30.39-.1-10.89-.33-18.16,4.64-22.18,14.09-3.09,7.27-5.36,14.87-8.29,23.16,11.85,0,22.59,0,33.33,0s21.05,0,32.02,0v55.17Zm-46.83-24.75c-.41-2.21-.3-3.82-.99-4.93-3.15-5.03-23.27-11.17-28.63-8.27-1.87,1.01-3.49,4.56-3.21,6.69,.31,2.33,2.84,6.1,4.62,6.22,9.14,.63,18.36,.29,28.21,.29Zm-15.28,21.23l-1.16,1.13c-1.09,0-2.44-.4-3.22,.08-1.93,1.19-3.6,2.78-5.37,4.22,1.77,1.21,3.45,2.57,5.35,3.54,.86,.44,2.29,.41,3.2,.01,2.31-1,4.46-2.34,6.68-3.54-1.82-1.81-3.65-3.63-5.47-5.44Z"/>
  <path class="cls-1" d="M116.62,9.96c1.72,7.11,3.26,13.44,4.99,20.56-4.13,0-9.28,.16-14.4-.05-4.98-.2-7.18,1.6-7.16,6.74,.13,33.25,.12,66.49,.01,99.74-.02,5,1.97,6.89,7.07,6.87,26.44-.13,52.87-.15,79.31,.02,5.46,.03,7.36-2.02,7.34-7.28-.14-33.03-.13-66.06,0-99.09,.02-4.92-1.69-7.22-6.9-6.99-5.05,.22-10.11,.05-14.81,.05,1.69-6.56,3.35-12.99,5.24-20.32,4.27,0,9.57-.67,14.6,.17,6.2,1.03,8.1,5.96,8.09,11.69-.02,11.66,0,23.32,0,34.97,0,26.12,.02,52.24,0,78.37-.01,11.48-3.2,14.58-14.93,14.59-25.78,0-51.55,.01-77.33-.01-10.4-.01-13.87-3.37-13.88-13.62-.04-37.13-.03-74.26-.02-111.4,0-12.44,2.7-15,15.66-15,2.58,0,5.17,0,7.13,0Z"/>
  <path class="cls-1" d="M147.5,.09c6.37,0,12.75,.15,19.12-.05,4.28-.13,5.79,1.64,5.89,5.73,.44,17.85,.34,25.99-23.55,24.65-4.82-.27-9.68,.13-14.5-.14-7.74-.42-12.91-5.13-13-12.75C121.21-3.76,119.08,.51,137.61,.09c3.3-.07,6.59-.01,9.89,0Zm-6.45,15.22c2.61,1.8,4.32,3.9,5.82,3.76,1.56-.14,2.92-2.44,4.37-3.79-1.55-1.46-2.93-3.74-4.72-4.1-1.22-.25-3.01,2.17-5.47,4.13Z"/>
  <path class="cls-1" d="M5.12,134.54H46.29c2.35,9.02,.38,11.64-8.61,11.66-7.48,.02-14.97,.01-22.45,0-9.64-.02-10.82-1.31-10.12-11.66Z"/>
  <path class="cls-1" d="M141.15,45.57h41.99c1.88,4.08,1.25,6.15-4.12,6.05-11.22-.22-22.45-.2-33.66,0-4.29,.08-5.66-1.41-4.2-6.04Z"/>
  <path class="cls-1" d="M183.47,102.09h-42.29c-1.52-4.36-.17-6.02,4.38-5.95,11.19,.17,22.38,.17,33.57,0,4.14-.06,5.78,1.26,4.35,5.96Z"/>
  <path class="cls-1" d="M141.13,121.95h42.07c1.38,3.56,1.68,6.1-3.66,6.03-11.42-.14-22.85-.16-34.27,.01-4.35,.06-5.52-1.65-4.13-6.04Z"/>
  <path class="cls-1" d="M162.34,70.91c5.93,0,11.87-.18,17.78,.14,1.35,.07,2.59,1.88,3.89,2.89-1.34,.98-2.67,2.79-4.03,2.81-11.86,.22-23.72,.22-35.58,0-1.29-.03-2.55-1.92-3.82-2.95,1.32-.96,2.6-2.69,3.97-2.76,5.91-.31,11.85-.13,17.79-.13Z"/>
  <path class="cls-1" d="M108.86,45.98c1.43-1.49,2.48-2.58,3.78-3.92,2.2,1.71,4.02,3.13,6.45,5.03,2.83-3.18,5.65-6.34,8.78-9.86,1.6,1.32,2.98,2.46,4.7,3.87-4.52,5.27-8.72,10.18-13.22,15.42-3.56-3.57-6.75-6.77-10.5-10.54Z"/>
  <path class="cls-1" d="M132.72,91.82c-4.82,5.66-9.01,10.56-13.15,15.43-3.71-3.49-7-6.6-10.59-9.97,1.34-1.44,2.47-2.66,3.89-4.19,2.13,1.7,4.1,3.28,6.23,4.98,2.83-3.22,5.55-6.3,8.65-9.82,1.52,1.09,2.96,2.13,4.97,3.58Z"/>
  <path class="cls-1" d="M109.39,121.98c1.15-1,2.41-2.1,3.86-3.36,1.89,1.67,3.49,3.07,5.7,5.01,2.93-3.29,5.74-6.44,8.88-9.96,1.6,1.23,3.02,2.33,4.82,3.71-4.49,5.26-8.68,10.17-13.13,15.39-3.46-3.69-6.53-6.97-10.12-10.79Z"/>
  <path class="cls-1" d="M112.85,67.36c2.37,2.08,3.98,3.5,6.1,5.36,2.92-3.27,5.74-6.42,8.9-9.96,1.65,1.28,3.08,2.39,4.78,3.71-4.55,5.33-8.76,10.25-13.31,15.57-3.23-3.58-6.13-6.78-9.59-10.61,.56-.73,1.62-2.11,3.13-4.08Z"/>
</svg>