<?xml version="1.0" encoding="UTF-8"?>
<svg id="Layer_1" data-name="Layer 1" xmlns="http://www.w3.org/2000/svg" viewBox="0 0 200 250">
  <defs>
    <style>
      .cls-1 {
        fill: #5c2e63;
      }
    </style>
  </defs>
  <path class="cls-1" d="M199.12,81.9c0,20.47,2.32,41.16-.58,61.34-3.77,26.29-1.61,52.49-3.16,78.69-.27,4.65-2.06,9.36-3.97,13.81-3.86,9-11.89,14.03-23.66,14.12-23.84,.18-47.68,.19-71.52,.01-10.43-.08-17.97-4.5-23.51-11.65-17.17-22.13-32.5-45.03-43.33-69.77-1.77-4.03-4.1-5.31-9.27-5.35C6.05,163.02,.04,157.83,.03,146.41,0,103.1-.01,59.78,.04,16.47,.05,5.36,6.11,.11,19.59,.08c53.21-.11,106.42-.1,159.63,0,13.95,.03,19.86,5.2,19.89,16.85,.05,21.66,.02,43.31,.02,64.97Zm-117.55,58.17c-45.33-11.9-57.92-42.72-54.98-64.96,3.55-26.88,29.71-49.4,61.38-52.94,35.19-3.94,67.19,10.94,79.87,37.15,13.48,27.86,1.94,54.5-32.57,75.16,4.11,4.4,8.72,6.57,16.07,4.71,3.42-.87,8.06,.24,11.69,1.4,8.24,2.64,16.19,5.87,25.36,9.27,0-45.68-.03-89.67,.04-133.66,.01-5.75-3.67-7.19-9.96-7.18-52.6,.09-105.2,.12-157.79-.04-7.74-.02-10.17,2.64-10.04,8.6,.28,13.55,.09,27.11,.09,40.67,0,29.02,0,58.04,0,87.05,0,3.89-.31,8.47,6.21,8.55,21.4,.28,42.81,.1,64.63,.1v-13.9Zm92.37,14.73c0,6.35,.06,12.2-.02,18.04-.05,3.52,.57,8.21-5.78,7.53-2.13-.23-4.72-4.69-5.11-7.41-.84-5.88-.26-11.88-.5-17.83-.17-4.37-2.69-7.25-8.47-7.39-6.61-.17-6.29,3.59-6.2,7.34,.12,5.37,.03,10.74,.03,16.23h-11.21c0-6.42,.18-12.35-.04-18.26-.34-8.85-5.59-11.61-16.42-8.38,0,4.57,.33,9.33-.1,14.05-.37,4.03,2.62,10.63-5.87,10.44-7.74-.18-4.97-6.49-4.98-10.31-.06-18.8,.36-37.6,.44-56.41,.03-7.15-5.28-11.42-11.25-8.59-3.08,1.46-5.61,5.92-5.66,9.06-.38,22.84-.23,45.7,.14,68.54,.11,6.61-4.12,10.38-10.73,12.29-7.02,2.03-9.35-2.84-12.15-6.83-6.83-9.72-17.71-13.76-30.15-11.14,10.87,25.04,26.25,48.12,44.43,69.94,2.31,2.78,8.3,4.84,12.65,4.93,23.25,.47,46.52,.15,69.78,.25,7.44,.03,12.2-2.83,14.46-8.37,1.56-3.81,3.36-7.8,3.43-11.73,.36-19.03,.32-38.08,.07-57.11-.06-4.88-2.97-8.48-10.8-8.9Zm-53.42-25.64c30.01-8.36,46.82-34.02,39.84-59.29-6.94-25.13-36.41-41.9-68.59-39.03-30.54,2.72-54.86,25.36-54.74,50.97,.11,22.55,21.75,45.71,44.79,47.51,0-5.48,.52-10.98-.21-16.36-.39-2.89-2.09-6.35-4.64-8.24-16.03-11.89-18.19-29.99-4.59-42.64,13.42-12.48,36.6-13.56,51.46-2.4,15.55,11.67,15.75,30.18,.66,43.2-1.81,1.56-3.65,3.82-3.8,5.83-.48,6.62-.18,13.27-.18,20.45Zm-.73-36.03c7.78-9.69,5.84-21.02-4.77-27.86-10.37-6.68-24.88-5.73-33.89,2.24-8.92,7.89-8.82,19.21,.24,27.49,13.01-15.38,26.66-13.57,38.42-1.87Z"/>
</svg>