<?xml version="1.0" encoding="UTF-8"?>
<svg id="Layer_1" data-name="Layer 1" xmlns="http://www.w3.org/2000/svg" viewBox="0 0 200 200">
  <defs>
    <style>
      .cls-1 {
        fill: #5c2e63;
      }
    </style>
  </defs>
  <path class="cls-1" d="M52.69,200c-1.9-1.25-4-2.29-5.65-3.78-5.82-5.29-11.5-10.72-17.19-16.14-.69-.66-1.52-1.62-1.49-2.42,.03-.95,.67-2.31,1.47-2.7,.9-.43,2.44-.26,3.41,.19,1.12,.52,1.94,1.63,2.87,2.51,5.34,5.01,10.66,10.03,16,15.04,2.03,1.91,2.49,1.9,4.56-.03,13.97-13.09,27.87-26.24,41.94-39.24,9.26-8.55,19.88-15.52,30.35-22.68,6.02-4.11,11.68-8.7,17.49-13.08-.08-.18-.16-.35-.24-.53-1.46-.21-2.92-.4-4.37-.64-7.49-1.26-13.99-4.38-19.46-9.35-.99-.9-1.8-1.05-3.08-.72-18.55,4.89-37.96-4.12-45.18-20.92-7.22-16.81,.11-35.99,17.12-44.54,1.76-.88,2.65-1.97,3.16-3.71,.85-2.94,1.98-5.82,2.89-8.75,1.14-3.66-.62-7.41-4.06-8.87-3.5-1.49-7.68-.4-9.57,2.84-7.08,12.21-14.15,24.43-21,36.76-4.12,7.4-5.61,15.57-7.07,23.74-2.07,11.61-5.97,22.59-14.15,31.82-1.9,2.14-4.06,4.09-6.16,6.07-9.13,8.62-18.29,17.22-27.43,25.83-2.05,1.93-2.05,2.38-.05,4.28,4.74,4.47,9.48,8.94,14.22,13.41,.39,.37,.8,.72,1.16,1.12,1.27,1.39,1.32,3.1,.13,4.21-1.34,1.25-3.09,1.27-4.61-.13-3.46-3.18-6.86-6.43-10.28-9.66-1.76-1.66-3.53-3.31-5.28-4.97-4.15-3.92-4.18-8.24-.05-12.12,9.53-8.98,18.88-18.14,28.66-26.88,9.17-8.19,14.15-18.3,16.77-29.64,1.27-5.52,1.85-11.22,3.54-16.62,1.79-5.7,4.07-11.35,6.93-16.64,5.97-11.07,12.44-21.9,18.76-32.8,3.28-5.65,9.51-8.28,15.71-6.77,7.51,1.83,12,8.95,10.01,16.03-.73,2.62-1.7,5.18-2.59,7.86,2.41-.23,4.67-.37,6.9-.7,.65-.1,1.28-.7,1.8-1.18,11.07-10.39,22.09-20.82,33.18-31.19,6.14-5.74,15.14-5.78,20.63,0,1.62,1.7,2.64,3.89,4.28,6.39,1.56-1.65,3.13-3.65,5.05-5.27,4.57-3.84,9.87-4.64,15.4-2.21,5.46,2.39,8.15,6.69,8.12,12.36-.02,3.38-1.41,6.35-3.93,8.78-1.69,1.62-3.48,3.16-5.46,4.95,.77,.29,1.17,.45,1.57,.59,10.02,3.25,13.04,14.55,5.82,21.87-1.69,1.71-3.55,3.27-5.51,5.06,.6,.27,.92,.45,1.27,.56,10.27,3.23,13.34,14.59,5.9,22.05-2.98,2.99-6.18,5.78-9.19,8.75-.77,.76-1.27,1.79-1.73,2.76-1.44,3.01-2.67,6.12-4.23,9.08-1.12,2.13-3.01,2.65-4.75,1.71-1.7-.92-1.91-2.6-.6-4.76,6.85-11.26,6.09-24.21-2.4-33.96-7.85-9.02-18.13-12.37-30.34-10.5-.2,.03-.4,.1-.6,.16-.26,.08-.51,.18-.65,.23,1.38,3.19,2.73,6.38,4.17,9.52,.2,.45,.83,.76,1.32,1.04,1,.57,2.11,.98,3.07,1.61,2.16,1.43,2.73,2.84,1.95,4.4-.78,1.55-2.27,1.97-5,1.29,0,1.4-.03,2.76,0,4.12,.05,1.83,1.54,2.71,3.29,1.97,5.34-2.27,10.98-1.46,14.78,2.14,3.79,3.59,4.59,8.92,2.22,13.95-.29,.61-.2,1.55,.08,2.2,.55,1.31,.55,2.65-.63,3.36-.95,.58-2.56,.94-3.53,.58-1.14-.43-1.83-.29-2.82,.11-4.83,1.97-9.44,1.64-13.65-1.48-2.03-1.5-2.36-3.22-1.06-4.7,1.25-1.43,2.95-1.46,4.92-.03,1.9,1.38,3.94,1.79,6.64,.92-1.56-1.47-3-2.81-4.41-4.17-1.4-1.35-2.78-2.71-4.14-4.04-3.14,.89-5.57,1.98-7.21,4.93-2.82,5.09-7.27,8.96-12.45,12.03-.4,.23-.78,.49-1.34,.85,4.36,3.72,9.32,5.97,14.91,6.99,7.92,1.43,15.39,.26,22.36-3.62,.8-.45,1.95-1.07,2.63-.83,1.08,.37,2.25,1.24,2.76,2.2,.71,1.32-.12,2.64-1.47,3.25-3.48,1.55-7.04,2.94-10.56,4.41-.8,.33-1.7,.62-2.3,1.17-9.56,8.72-19.94,16.47-30.86,23.63-10.01,6.57-19.23,14.02-27.85,22.15-11.77,11.11-23.54,22.22-35.4,33.24-1.67,1.56-3.87,2.62-5.82,3.9h-3.32ZM109.45,42.64c-17.51,0-31.65,13.15-31.71,29.49-.06,16.41,14.12,29.71,31.7,29.71,17.08,0,31.11-13.35,31.14-29.61,.03-16.23-14.02-29.58-31.14-29.58Zm27.3,5.05c7.1-2,13.86-2.24,20.63-.69,1.26,.29,2.02,.08,2.89-.76,4.41-4.22,8.87-8.38,13.32-12.57,4.69-4.41,9.44-8.77,14.05-13.26,4.36-4.24,2.4-10.92-3.57-12.34-3.19-.76-5.77,.33-8.04,2.47-12.58,11.88-25.2,23.73-37.8,35.59-.42,.4-.8,.83-1.48,1.55Zm-19.6-10.83c5.08,2.18,10.03,4.31,15.1,6.48,8.67-8.16,17.52-16.47,26.35-24.81,1.92-1.82,2.75-4.05,2.18-6.6-.63-2.84-2.41-4.77-5.39-5.63-3.08-.89-5.73-.1-7.97,1.99-9.93,9.33-19.85,18.67-29.77,28.01-.28,.26-.52,.57-.51,.56Zm61.03,21.78c3.6-3.4,7.43-6.97,11.18-10.6,3.26-3.16,3.38-7.82,.36-10.7-3.14-2.99-7.99-2.87-11.46,.35-3.93,3.65-7.83,7.34-11.73,11.03-.32,.3-.56,.67-.58,.69,4.07,3.08,8.03,6.07,12.21,9.23Zm3.96,5.17c1.65,5.44,3.21,10.61,4.72,15.6,1.52-1.4,3.45-2.9,5.03-4.67,2.63-2.93,2.4-7.14-.29-9.79-2.56-2.52-6.68-2.91-9.46-1.14Zm-27.83,17.98c2.52,2.41,5.07,4.85,7.57,7.25,.78-2.08,.32-4.14-1.48-5.87-1.83-1.75-4.06-1.89-6.09-1.38Z"/>
  <path class="cls-1" d="M100.41,59.89c2.95,2.73,5.49,5.2,8.21,7.49,.46,.39,1.75,.26,2.47-.03,7.77-3.16,16.11,.61,17.81,8.17,.62,2.75,.15,5.41-1.04,8-.29,.63-.27,1.58,0,2.22,.6,1.38,.58,2.76-.67,3.51-.94,.57-2.55,.82-3.54,.46-1.06-.38-1.7-.28-2.61,.1-4.98,2.05-9.69,1.71-13.97-1.6-1.87-1.45-2.11-3.15-.81-4.57,1.22-1.35,2.96-1.4,4.77-.07,1.94,1.43,4.02,1.94,6.09,1.22-2.82-2.64-5.71-5.35-8.78-8.22-2.52,1.31-5.76,2.1-9.23,1.41-8.14-1.61-12.29-9.63-8.71-16.83,.46-.91,.58-1.55,.1-2.61-.41-.9-.05-2.4,.54-3.32,.73-1.13,2.26-1.42,3.49-.61,1.15,.76,1.97,.35,3.01-.06,4.85-1.91,9.45-1.54,13.62,1.6,1.89,1.42,2.21,3.11,.99,4.57-1.18,1.42-3.05,1.51-4.92,.12-1.95-1.45-4.03-1.78-6.83-.94Zm13.77,12.8c2.71,2.72,5.2,5.22,7.9,7.94,1.16-3.14,.62-5.43-1.31-7-1.88-1.52-3.99-1.68-6.6-.94Zm-18.27-8.27c-.88,2.5-.4,4.7,1.67,6.4,1.82,1.5,3.95,1.85,6.18,.98-2.62-2.46-5.18-4.87-7.85-7.38Z"/>
</svg>