<?xml version="1.0" encoding="UTF-8"?>
<svg id="Layer_1" data-name="Layer 1" xmlns="http://www.w3.org/2000/svg" viewBox="0 0 200 200">
  <defs>
    <style>
      .cls-1 {
        fill: #5c2e63;
      }
    </style>
  </defs>
  <path class="cls-1" d="M158.41,92.36c-5.32-9.6-9.99-17.88-14.53-26.23-3.32-6.11-6.64-12.23-9.67-18.49-6.96-14.41-3.12-30.1,9.65-40.3,12.25-9.78,30.67-9.77,43.04,.02,12.7,10.06,16.79,25.93,9.46,40.29-8.4,16.45-17.38,32.62-26.57,48.65-1.23,2.14-5.14,3.81-7.85,3.87-16.33,.35-32.68,.06-49.01,.22-11.92,.12-20.58,6.99-22.22,17.17-2.12,13.18,6.95,24.21,20.6,24.39,19.6,.25,39.21-.09,58.82,.15,19.58,.24,32.84,16.18,29.23,34.73-2.19,11.27-11.42,20.41-22.82,22.33-3.2,.54-6.5,.68-9.75,.69-42.26,.04-84.53-.09-126.79,.16-5.88,.04-9.02-1.94-11.66-7.04-7.91-15.24-16.59-30.09-24.43-45.36-7.62-14.85-3.84-30.53,9.11-40.87,12.34-9.85,30.53-9.9,43.04-.11,12.96,10.15,16.81,25.82,9.34,40.84-6.2,12.45-13.12,24.54-19.71,36.79-1.11,2.06-2.19,4.14-3.64,6.88,1.99,.24,3.38,.56,4.76,.56,41.17,.03,82.35,.08,123.52-.02,11.09-.02,19.34-6.72,21.19-16.63,1.87-10.03-3.12-19.7-12.55-23.2-3.36-1.25-7.22-1.59-10.86-1.62-19.17-.17-38.35,.17-57.51-.23-13.93-.29-25.01-9.78-27.6-22.55-2.66-13.1,3.13-26.04,15.16-31.62,4.75-2.2,10.43-3.15,15.72-3.31,14.35-.44,28.72-.15,44.53-.15Zm5.9-5.18c.72-.06,1.43-.12,2.15-.18,7.72-14.56,15.62-29.04,23.11-43.72,4.24-8.31,2.78-16.52-2.39-24.03-7.39-10.75-21.93-14.38-33.68-8.6-10.92,5.37-18.23,19.3-13.62,29.32,7.4,16.08,16.21,31.51,24.43,47.21ZM33.57,186.47c.72-.04,1.43-.07,2.15-.11,7.81-14.76,15.87-29.39,23.34-44.32,4.04-8.06,2.41-16.13-2.61-23.43-7.54-10.97-22.44-14.55-34.22-8.34-10.94,5.76-17.62,19.49-12.88,29.59,7.44,15.84,16.09,31.1,24.22,46.61Z"/>
  <path class="cls-1" d="M165.43,53.17c-10.31,0-19.05-8.83-18.99-19.19,.06-10.12,8.57-18.62,18.75-18.74,10.31-.12,19.45,8.7,19.5,18.84,.05,10.07-9.05,19.1-19.26,19.1Zm11.16-18.92c.09-5.55-4.96-10.68-10.75-10.92-6.12-.26-11.29,4.71-11.28,10.83,.01,5.79,4.85,10.86,10.53,11.02,5.75,.17,11.41-5.21,11.5-10.93Z"/>
  <path class="cls-1" d="M34.52,152.46c-10.34-.07-18.92-8.9-18.79-19.33,.13-10.14,8.74-18.6,18.88-18.56,10.42,.05,19.37,8.84,19.32,18.98-.05,10.11-9.15,18.97-19.41,18.91Zm11.35-19.15c-.06-5.59-5.37-10.64-11.18-10.64-5.99,0-10.84,4.79-10.87,10.72-.02,6.19,5.15,11.27,11.26,11.04,5.59-.21,10.85-5.63,10.79-11.12Z"/>
</svg>