<?xml version="1.0" encoding="UTF-8"?>
<svg id="Layer_1" data-name="Layer 1" xmlns="http://www.w3.org/2000/svg" viewBox="0 0 200 100">
  <defs>
    <style>
      .cls-1 {
        fill: #5c2e63;
      }
    </style>
  </defs>
  <path class="cls-1" d="M12.82,10.48c8.82,.05,14.95,12.9,11.92,25.26-2.53,10.3-6.58,19.38-10.65,28.42-.7,1.56-1.65,1.94-2.46,.17C7.39,54.98,3.31,45.52,.64,34.81-1.92,24.55,3.46,10.56,12.82,10.48Zm.05,7.96c-4.11-.04-7.59,5.1-7.59,11.2,0,6.11,3.5,11.37,7.54,11.32,4.01-.05,7.39-5.06,7.49-11.09,.09-6.1-3.35-11.39-7.43-11.43Z"/>
  <path class="cls-1" d="M187.16,0c8.72-.24,15.33,13.35,11.94,25.68-2.74,9.96-6.55,18.96-10.53,27.84-.79,1.76-1.75,2.05-2.59,.18-4.15-9.2-8.34-18.4-10.78-28.99C172.39,12.56,178.55,0,187.16,0Zm.2,7.98c-4.2-.08-7.58,4.82-7.64,11.06-.06,6.03,3.23,11.16,7.27,11.34,4.2,.19,7.76-4.97,7.75-11.25-.01-6.09-3.32-11.07-7.38-11.15Z"/>
  <path class="cls-1" d="M189.43,65.12c-.24,2.01-.98,3.22-2.33,3.11-1.37-.1-2.11-1.47-2.02-3.44,.08-1.83,.88-2.95,2.16-2.92,1.39,.04,2.02,1.35,2.19,3.24Z"/>
  <path class="cls-1" d="M15.14,76.07c-.12,1.91-.91,3.03-2.25,2.91-1.23-.1-1.96-1.23-1.97-3.17,0-2.13,.85-3.22,2.14-3.23,1.35,0,2.06,1.28,2.08,3.49Z"/>
  <path class="cls-1" d="M112.4,74.39c.64,.52,1.42,.95,1.73,2.14,.13,.51-.18,1.07-.55,.93-.77-.29-1.47-.91-1.77-2.09-.12-.46,.1-.96,.59-.98Z"/>
  <path class="cls-1" d="M78.21,58.46c-.52,.01-1.24,.1-1.21-.7,.04-1.38,.94-1.11,1.57-1.16,.43-.04,1.1-.13,1.04,.89-.08,1.36-.93,.73-1.39,.97Z"/>
  <path class="cls-1" d="M83.56,56.67c.46,.34,1.34-.31,1.39,1.05,.04,.97-.59,.96-1.05,.86-.56-.12-1.41,.23-1.53-.87-.12-1.1,.64-1,1.19-1.04Z"/>
  <path class="cls-1" d="M175.35,83.44c-.59-.09-.92-.5-.74-1,.38-1.08,1.01-1.91,1.84-2.16,.38-.11,.71,.48,.56,.96-.36,1.14-1.11,1.68-1.66,2.2Z"/>
  <path class="cls-1" d="M34.04,80.24c-.46,1.13-1.28,1.26-2.06,1.43-.38,.08-.73-.27-.58-.87,.34-1.37,1.29-1.22,2.02-1.53,.33-.14,.6,.29,.62,.97Z"/>
  <path class="cls-1" d="M67.51,60.87c-.55,.21-1.17,.26-1.15-.64,.04-1.32,.96-1.14,1.56-1.37,.4-.16,1.06-.43,1.05,.69-.01,1.52-1,.92-1.46,1.33Z"/>
  <path class="cls-1" d="M108.09,69.84c.6,.55,1.47,.86,1.68,2.21,.08,.53-.3,1-.66,.74-.7-.51-1.59-.79-1.77-2.21-.08-.66,.27-.84,.75-.74Z"/>
  <path class="cls-1" d="M179.52,78.24c-.58,.13-.87-.36-.79-.8,.22-1.22,.86-2.01,1.61-2.5,.4-.26,.66,.29,.62,.82-.11,1.37-1.01,1.73-1.44,2.48Z"/>
  <path class="cls-1" d="M73.23,57.37c.46,.06,1.13-.27,1.02,.88-.12,1.2-.95,.9-1.49,1.11-.45,.17-1.14,.16-1.11-.76,.05-1.5,1.04-.87,1.58-1.23Z"/>
  <path class="cls-1" d="M58.74,64.4c-.4,1.13-1.24,1.2-1.98,1.48-.36,.14-.72-.31-.6-.85,.29-1.38,1.24-1.31,1.96-1.64,.28-.13,.63,.23,.63,1Z"/>
  <path class="cls-1" d="M53.78,67.19c-.39,1.24-1.23,1.4-1.98,1.75-.4,.19-.76-.25-.67-.74,.26-1.38,1.19-1.45,1.92-1.84,.35-.19,.6,.26,.73,.83Z"/>
  <path class="cls-1" d="M48.83,70.39c-.35,1.23-1.18,1.44-1.91,1.82-.36,.19-.76-.2-.7-.72,.17-1.48,1.13-1.45,1.84-1.83,.35-.19,.64,.08,.77,.73Z"/>
  <path class="cls-1" d="M18.3,81.31c0,.85-.16,1.28-.58,1.09-.75-.34-1.59-.57-1.86-1.91-.12-.58,.16-1,.56-.85,.77,.29,1.44,.87,1.88,1.67Z"/>
  <path class="cls-1" d="M22.37,84.25c-.53-.27-1.39,.24-1.51-.93-.11-1.17,.64-1.1,1.14-.93,.54,.18,1.4-.28,1.52,.87,.13,1.2-.66,.9-1.15,.99Z"/>
  <path class="cls-1" d="M122.8,85.9c.03,.95-.28,1.27-.62,1.11-.76-.37-1.52-.89-1.76-2.17-.11-.56,.15-1.03,.58-.84,.79,.35,1.37,1.16,1.81,1.9Z"/>
  <path class="cls-1" d="M127.33,90.4c.05,.82-.28,1.05-.62,.95-.79-.24-1.55-.7-1.84-1.96-.12-.52,.21-1.03,.59-.86,.76,.34,1.46,.89,1.87,1.88Z"/>
  <path class="cls-1" d="M168.19,90.29c-.34,1.17-1.15,1.47-1.89,1.85-.38,.2-.76-.23-.68-.74,.2-1.41,1.13-1.56,1.85-1.96,.33-.18,.66,.09,.72,.85Z"/>
  <path class="cls-1" d="M151.38,99.53c-.46-.1-1.17,.06-1.01-.94,.19-1.2,1.08-.89,1.69-1.1,.44-.15,1.09-.06,.96,.92-.18,1.33-1.1,.72-1.63,1.11Z"/>
  <path class="cls-1" d="M88.66,57.52c.68,.3,1.62-.01,1.62,1.41,0,.98-.68,.75-1.14,.61-.55-.17-1.36,.15-1.44-1.16-.08-1.24,.64-.63,.96-.86Z"/>
  <path class="cls-1" d="M93.83,59.35c.55,.53,1.56,.13,1.66,1.61,.05,.74-.45,.98-.86,.7-.62-.42-1.61-.11-1.73-1.56-.07-.81,.52-.69,.93-.76Z"/>
  <path class="cls-1" d="M37.19,78.84c-.48,.1-.85-.26-.79-.73,.18-1.49,1.17-1.42,1.87-1.86,.36-.23,.79,.26,.72,.71-.2,1.45-1.2,1.36-1.8,1.88Z"/>
  <path class="cls-1" d="M118.45,81.25c-.07,.93-.39,1.22-.71,.99-.71-.5-1.52-.98-1.71-2.29-.06-.42,.3-.96,.69-.73,.74,.45,1.36,1.17,1.73,2.02Z"/>
  <path class="cls-1" d="M163.31,94.03c-.38,1.06-1.21,1.18-1.95,1.48-.35,.14-.72-.29-.59-.84,.32-1.29,1.18-1.45,1.94-1.66,.32-.09,.66,.16,.59,1.02Z"/>
  <path class="cls-1" d="M141.07,99.51c-.44-.41-1.37,.24-1.39-1.16-.02-1.02,.63-1.02,1.06-.81,.57,.28,1.58-.15,1.56,1.32-.01,.79-.72,.72-1.23,.65Z"/>
  <path class="cls-1" d="M146.29,100c-.49-.12-1.27,.32-1.27-.84,0-1.28,.83-.98,1.38-1.03,.52-.04,1.26-.15,1.27,.89,0,1.37-.88,.76-1.38,.98Z"/>
  <path class="cls-1" d="M63.85,61.75c-.43,1.15-1.25,1.23-2.02,1.41-.38,.09-.74-.21-.63-.8,.29-1.45,1.27-1.21,1.98-1.57,.38-.19,.58,.32,.67,.95Z"/>
  <path class="cls-1" d="M98.64,62.04c.63,.49,1.59,.46,1.83,1.89,.08,.5-.18,1.09-.59,.81-.69-.46-1.65-.44-1.9-1.84-.1-.54,.2-.9,.67-.87Z"/>
  <path class="cls-1" d="M102.77,66.68c-.03-.7,.18-1.19,.55-1.06,.78,.27,1.57,.73,1.93,1.92,.17,.57-.21,1.07-.54,.96-.78-.27-1.51-.79-1.94-1.82Z"/>
  <path class="cls-1" d="M43.94,73.81c-.37,1.21-1.19,1.43-1.95,1.71-.35,.13-.78-.22-.65-.77,.3-1.29,1.16-1.51,1.92-1.82,.35-.14,.63,.19,.69,.88Z"/>
  <path class="cls-1" d="M158.32,96.48c-.22,1.22-.99,1.19-1.59,1.44-.41,.18-1.11,.37-1.09-.64,.04-1.55,1.12-1.06,1.72-1.52,.41-.32,.77,.04,.96,.72Z"/>
  <path class="cls-1" d="M184.23,69.2c.42,.13,.76,.41,.56,1.01-.36,1.09-.83,2.14-1.67,2.44-.34,.12-.67-.44-.51-1,.33-1.11,.9-1.96,1.62-2.45Z"/>
  <path class="cls-1" d="M28.88,82.28c-.06,1.32-.84,1.1-1.35,1.37-.49,.26-1.21,.53-1.32-.56-.13-1.35,.8-1.02,1.3-1.29,.48-.27,1.05-.55,1.36,.48Z"/>
  <path class="cls-1" d="M130.14,92.43c.63,.54,1.6,.47,1.92,1.8,.14,.6-.26,.97-.61,.85-.77-.26-1.64-.45-1.96-1.77-.15-.61,.23-.83,.65-.89Z"/>
  <path class="cls-1" d="M172.71,85.99c-.32,1.17-1.07,1.65-1.79,2.1-.38,.23-.72-.24-.65-.76,.19-1.34,1.04-1.7,1.75-2.16,.33-.22,.63,.14,.69,.82Z"/>
  <path class="cls-1" d="M135.27,95.55c.58,.49,1.62,.09,1.82,1.65,.07,.55-.37,.91-.7,.73-.7-.39-1.7-.15-1.92-1.65-.08-.58,.35-.73,.8-.73Z"/>
</svg>