<?xml version="1.0" encoding="UTF-8"?>
<svg id="Layer_1" data-name="Layer 1" xmlns="http://www.w3.org/2000/svg" viewBox="0 0 200 230">
  <defs>
    <style>
      .cls-1 {
        fill: #fbb247;
      }
    </style>
  </defs>
  <path class="cls-1" d="M7.95,127.21H47.07c3.43,0,4.8,1.32,4.82,4.61,0,1.64,.04,3.3-.02,4.94-.09,2.27-1.63,3.77-3.79,3.79-2.27,.02-3.82-1.47-3.96-3.81-.03-.57-.05-1.15-.09-1.93H4.97c-3.63,0-4.97-1.3-4.97-4.79V60.24c0-3.94,1.18-5.11,5.29-5.11,10.72-.01,21.44,0,32.15,0h2.03c0-1.1,.07-2.09,0-3.07-.62-7.17,4.76-11.9,11.53-11.27,1.17,.11,2.36,.01,3.54,.01,.13-.2,.27-.39,.4-.59-1.1-.92-2.26-1.77-3.3-2.76-4.68-4.46-4.74-10.15-.16-14.65,3.85-3.78,7.71-7.54,11.6-11.29,4.35-4.2,10.23-4.17,14.6,0,1.12,1.07,2.21,2.17,3.68,3.62v-4.83C81.37,4.04,85.49,0,91.89,0,97.41,0,102.94,0,108.46,0c5.88,.01,10.11,4.1,10.19,9.85,.02,1.59,0,3.17,0,5.19,1.38-1.31,2.48-2.37,3.58-3.43,4.52-4.32,10.32-4.33,14.83,.02,3.84,3.71,7.67,7.44,11.48,11.18,4.53,4.45,4.49,10.15-.07,14.56-1.04,1.01-2.1,2-3.05,3.41h5.09c3.82,.02,6.85,1.58,8.63,4.84,.81,1.48,1.08,3.31,1.34,5.01,.21,1.39,.04,2.84,.04,4.47h2.06c10.83,0,21.65,0,32.48,.01,3.62,0,4.93,1.3,4.93,4.82v70.25c0,3.2-1.41,4.6-4.67,4.6h-39.33c-.05,.84-.08,1.56-.15,2.29-.2,2.04-1.73,3.41-3.8,3.45-2.05,.03-3.75-1.33-3.87-3.35-.13-2.17-.14-4.37-.02-6.54s1.78-3.45,4.31-3.45c7.44-.01,14.87,0,22.31,0h17.29V62.81h-31.54v4.1c-.03,6.12-4.12,10.1-10.38,10.12h-4.68c-.13,.2-.26,.38-.4,.57,1.18,.99,2.43,1.92,3.52,2.99,4.42,4.31,4.43,9.99,.05,14.32-3.88,3.83-7.79,7.62-11.71,11.41-4.42,4.25-10.33,4.19-14.68-.16-1.05-1.06-2-2.21-3-3.32-.26,.11-.52,.24-.77,.36,0,2.09,.19,4.2-.04,6.27-.52,4.71-4.37,8.23-9.22,8.35-6.11,.14-12.24,.14-18.35,0-5.33-.11-9.37-4.28-9.52-9.52-.05-1.69,0-3.38,0-5.53-1.4,1.36-2.51,2.41-3.6,3.48-4.36,4.25-10.32,4.29-14.72,.02-3.92-3.78-7.83-7.59-11.71-11.41-4.32-4.24-4.31-9.95,.02-14.2,1.11-1.09,2.32-2.09,3.48-3.13-.08-.17-.15-.33-.23-.51h-4.46c-6.61,0-10.62-3.9-10.64-10.33v-3.9H7.95V127.21ZM100,23.52c-20.02,0-36.34,15.84-36.39,35.31-.05,19.54,16.31,35.48,36.39,35.47,20.03,0,36.42-15.9,36.4-35.3-.02-19.6-16.31-35.48-36.39-35.48h0Zm-22.63,72.36c-6.49-3.85-11.44-8.78-15.34-14.86-1.94,1.9-3.73,3.61-5.47,5.37-.85,.85-.87,1.9-.03,2.73,4.1,4.06,8.24,8.07,12.4,12.07,.86,.83,1.9,.91,2.79,.09,1.86-1.7,3.66-3.48,5.66-5.4h-.01Zm60.56-14.84c-3.87,6.17-8.94,11.04-15.32,14.9,1.96,1.86,3.72,3.53,5.49,5.19,1,.93,2.07,.95,3.05,.01,4.11-3.97,8.21-7.96,12.28-11.96,.85-.84,.9-1.86,.07-2.73-1.76-1.81-3.61-3.52-5.57-5.43h0ZM77.28,21.99c-1.97-1.92-3.77-3.75-5.67-5.48-.83-.76-1.87-.64-2.67,.13-4.15,4-8.32,7.99-12.35,12.11-.47,.48-.55,2.02-.12,2.52,1.67,1.93,3.62,3.64,5.6,5.57,3.88-6.17,8.91-11.03,15.21-14.83Zm60.93,14.64c1.7-1.68,3.48-3.39,5.21-5.15,.9-.91,.89-1.97,0-2.85-4.07-4-8.14-8.01-12.32-11.91-.5-.46-2.03-.67-2.45-.3-2,1.75-3.78,3.74-5.51,5.5,2.69,2.18,5.58,4.22,8.07,6.65s4.59,5.24,7.02,8.07h-.01Zm-49.03,64.04c0,2.68-.03,5.06,.01,7.44,.02,1.24,.73,2.07,2.02,2.07,5.84,.05,11.68,.03,17.52,0,1.21,0,2-.71,2.04-1.87,.08-2.48,.02-4.97,.02-7.63-7.24,1.64-14.33,1.67-21.61,0Zm53.71-31.27c2.81,0,5.37,.03,7.93-.02,1.16-.02,1.84-.8,1.85-1.87,.05-5.69,.05-11.38,.02-17.09,0-1.06-.63-1.91-1.79-1.94-2.61-.07-5.22-.02-8-.02,1.72,7,1.71,13.86,0,20.94h-.01ZM110.81,17.16c0-2.69,.05-5.12-.02-7.55-.04-1.23-.83-1.97-2.12-1.98-5.78-.02-11.57-.02-17.35,0-1.29,0-2.08,.75-2.11,1.98-.07,2.43-.02,4.86-.02,7.51,7.22-1.59,14.3-1.66,21.62,.03h0Zm-53.69,31.29c-2.8,0-5.36-.05-7.92,.02-1.24,.03-1.9,.89-1.9,2.01-.04,5.65-.03,11.28,0,16.93,0,1.07,.61,1.92,1.76,1.95,2.61,.08,5.22,.02,8.02,.02-1.66-6.99-1.74-13.84,.03-20.94h.01Z"/>
  <path class="cls-1" d="M10.52,222.37c2.07-13.81,9.48-23.62,22.16-29.69-14.65-10.46-14.07-29.62-3.28-39.79,10.52-9.92,27.24-9.76,37.53,.32,10.51,10.3,10.85,29.02-3.64,39.46,1.04,.54,2.06,1.02,3.03,1.59,10.61,6.05,16.95,14.97,18.87,26.8,.16,.99,.44,1.35,1.51,1.33,8.86-.03,17.72-.03,26.58,0,.88,0,1.34-.14,1.51-1.16,2.07-12.85,9.16-22.19,21.06-28.07,.24-.11,.48-.25,.93-.48-8.38-6.35-12.36-14.55-11.07-24.8,.85-6.8,4.21-12.38,9.7-16.66,10.99-8.57,26.83-7.22,36.23,2.71,9.34,9.87,10.28,28.16-4.32,38.77,12.68,6.08,20.09,15.88,22.15,29.69,2.17,0,4.34-.06,6.51,.01,2.95,.09,4.77,2.67,3.71,5.2-.58,1.39-1.67,2.21-3.23,2.37-.6,.06-1.2,.02-1.8,.02H5.35c-.49,0-.99,.01-1.48,0-2.21-.1-3.85-1.71-3.86-3.78,0-2.05,1.62-3.73,3.84-3.79,2.18-.07,4.37-.01,6.67-.01v-.03Zm66.81-.1c-.87-11.1-11.83-25.22-29.67-25.03-17.51,.18-28.17,14.19-28.97,25.03h58.64Zm104.03,0c-1.09-11.9-12.74-25.62-30.37-25.03-17.71,.59-27.72,15.05-28.27,25.03h58.64ZM47.97,189.61c10.23,.03,18.83-8.26,18.8-18.13-.03-10.15-8.34-18.32-18.71-18.37-10.22-.06-18.7,8.12-18.79,18.13-.09,10.03,8.38,18.35,18.71,18.39h-.01Zm103.68-.02c10.06,.37,18.72-7.7,19.1-17.82,.37-9.87-7.9-18.34-18.22-18.67-10.26-.33-18.83,7.59-19.26,17.82-.41,9.89,7.86,18.28,18.38,18.67h0Z"/>
  <path class="cls-1" d="M99.99,154.59c4.26,0,8.53-.01,12.79,0,2.63,0,4.3,1.49,4.31,3.78,.01,2.27-1.67,3.81-4.3,3.81-8.53,.02-17.05,.02-25.58,0-2.63,0-4.32-1.54-4.31-3.79,0-2.3,1.67-3.78,4.3-3.79,4.26-.01,8.53,0,12.79,0h0Z"/>
  <path class="cls-1" d="M100,142.11c4.21,0,8.42-.01,12.62,0,2.77,0,4.47,1.47,4.47,3.79s-1.7,3.81-4.47,3.81c-8.42,.01-16.83,.01-25.25,0-2.77,0-4.48-1.49-4.47-3.81,0-2.32,1.7-3.78,4.47-3.79,4.21-.01,8.42,0,12.62,0h0Z"/>
  <path class="cls-1" d="M100.13,137.25h-9.51c-2.74,0-4.44-1.49-4.44-3.84s1.69-3.76,4.33-3.76c6.34-.01,12.68-.02,19.02,0,2.61,0,4.3,1.55,4.28,3.82-.03,2.28-1.71,3.76-4.34,3.78-3.11,.01-6.23,0-9.34,0Z"/>
  <path class="cls-1" d="M99.63,77.79c-10.97-.32-19.3-8.91-18.99-19.59,.29-10.18,9.36-18.49,19.82-18.16,10.87,.34,19.21,8.95,18.92,19.52-.28,10.21-9.3,18.53-19.75,18.24h0Zm11.92-18.67c.12-6.21-4.99-11.37-11.38-11.48-6.28-.1-11.58,4.86-11.71,10.99-.14,6.24,4.92,11.41,11.3,11.54,6.38,.14,11.68-4.83,11.8-11.06h-.01Z"/>
</svg>