<?xml version="1.0" encoding="UTF-8"?>
<svg id="Layer_1" data-name="Layer 1" xmlns="http://www.w3.org/2000/svg" viewBox="0 0 200 250">
  <defs>
    <style>
      .cls-1 {
        fill: #fbb247;
      }
    </style>
  </defs>
  <path class="cls-1" d="M26.86,171.36c1.59-3.94,3.15-7.69,4.61-11.49,2.43-6.3,4.48-12.76,7.23-18.9,7.96-17.79,29.42-34.26,54.97-27.15,3.09,.86,5.11,3.41,5.06,6.37-.05,3.12-2.19,5.7-5.4,6.36-2.84,.57-5.68,1.16-8.54,1.57-4.81,.7-7.37,4.25-9.33,8.1-1.75,3.45,1.18,7.84,5.09,8.09,15.61,1.02,31.22,2.27,46.86,2.77,4.87,.15,9.82-1.74,14.7-2.86,9.94-2.29,19.85-4.71,29.78-7.05,3.53-.82,6.54,.71,7.73,3.85,1.17,3.1-.09,6.35-3.27,8.07-9.92,5.37-19.71,11.01-29.86,15.9-4.04,1.95-8.85,2.29-13.34,3.19-14.61,2.91-29.24,5.7-43.85,8.6-7.63,1.51-14.24,5.11-19.89,10.54-.88,.85-1.57,1.56-3.06,.92-12.86-5.51-25.76-10.91-38.65-16.35-.23-.1-.42-.26-.85-.54h.01Z"/>
  <path class="cls-1" d="M66.17,104.8c-5.7,2.91-11.21,5.72-16.99,8.67-.78-3.04-1.71-6.2-2.37-9.4-.31-1.5-.86-2.06-2.35-1.95-1.61,.11-3.23,0-4.85,.04-1.83,.02-3.59,.11-4.37-2.21-.14-.41-1.28-.61-1.98-.67-1.98-.17-2.9-1.22-2.85-3.22,.02-.86,0-1.74,0-2.6,.01-4.46,.18-4.65,4.62-5.02,.59-2.49,2.37-2.97,4.65-2.87,2.11,.1,4.81,.7,6.19-.35,1.33-1.02,1.12-3.96,1.91-5.92,2.44-6.05,5.03-12.05,7.9-18.86-1.18-1.1-3.21-2.71-4.86-4.66-.73-.86-.7-2.39-1.02-3.61-.17-.66-.18-1.5-.59-1.94-1.67-1.77-1.47-3.35,.19-4.95,.62-.6,1.2-1.24,1.81-1.84,2.78-2.79,3.4-2.8,6.29-.11,5.61-1.84,6.54,4.39,10.48,6.07,1.56-.97,3.29-2.45,5.29-3.26,5.26-2.15,10.61-4.12,15.99-5.95,1.42-.47,2.25-.81,2.1-2.51-.14-1.64,0-3.3-.02-4.95-.03-1.89,.02-3.66,2.21-4.47,.39-.15,.68-1.1,.68-1.69,.02-2.35,1.18-3.29,3.37-3.21,1.19,.04,2.39,.06,3.57,0,2.29-.12,3.59,.76,3.57,3.25,0,.5,.08,1.35,.32,1.44,3.75,1.32,2.38,4.56,2.48,7.11,.16,4.42,.04,4.45,4.22,5.44,7.05,1.66,13.47,4.75,19.83,9.37,1.66-1.86,3.3-3.72,4.94-5.56,1.09-1.22,2.21-2.06,4.02-1.32,.52,.21,1.51-.32,2.07-.8,1.52-1.29,2.88-1.3,4.27,.12,.9,.92,1.78,1.87,2.71,2.76,1.75,1.66,2.02,3.32,.13,5.1-.33,.31-.77,1.01-.64,1.26,1.45,2.8-.65,4.15-2.17,5.71-1.32,1.35-2.71,2.62-3.94,3.81,2.12,4.16,4.37,7.94,6.02,11.97,1.62,3.97,2.63,8.2,4,12.6h6.12c.6,0,1.26-.17,1.78,.04,2.55,1.01,5.35,2.51,6.92,4.21,1.41,1.52,1.37,6.16,.07,8.12-1.44,2.17-4.94,3.17-7.72,4.09-1.77,.59-3.89-.04-5.83,.19-.73,.09-1.87,.89-1.99,1.52-1.59,8.12-4.69,15.57-9.92,23.06,2.26,1.77,4.58,3.6,6.89,5.42-.18,.31-.36,.64-.54,.95-2.19,.54-4.37,1.15-6.57,1.6-5.56,1.12-11.14,3.06-16.72,3.06-10.14,0-20.29-1.15-30.47-2,3.83-1.07,7.01-3.02,9.52-6.15,.46-.57,1.46-.8,2.25-.99,18.05-4.22,29.86-21.47,27.22-39.81-2.7-18.75-18.88-31.92-37.47-30.52-20.84,1.57-35.96,22.73-31.05,43.46,.26,1.07,.49,2.16,.67,2.99v-.05Z"/>
  <path class="cls-1" d="M71.41,203.2c-2.95,7.02-5.55,13.52-8.49,19.86-.37,.8-2.58,1.17-3.83,1-3.64-.51-5.17,.24-6.3,3.87-2.05,6.61-4.11,13.24-6.01,19.9-.65,2.27-1.57,2.6-3.67,1.72-13.62-5.65-27.27-11.21-40.95-16.7-2.16-.86-2.66-1.79-1.67-4.04,2.84-6.5,5.46-13.09,8.16-19.65,1.53-3.72,.84-5.62-2.65-7.36-2.66-1.32-3.27-2.82-2.13-5.7,2.1-5.31,4.25-10.6,6.42-15.87,1.12-2.72,2.8-3.42,5.51-2.29,17.45,7.34,34.9,14.66,52.3,22.11,1.27,.55,2.16,2.02,3.31,3.16v-.03Zm-50.5-11.07c-.03-2.59-2.01-4.6-4.53-4.61-2.5,0-4.57,2.04-4.6,4.56-.04,2.62,2.14,4.85,4.68,4.79,2.47-.06,4.48-2.2,4.45-4.74Z"/>
  <path class="cls-1" d="M160.06,76.5c-1.9-4.11-1.84-4.05,1.15-6.97,6.28-6.15,8.47-13.64,5.82-22.1-2.71-8.66-8.93-13.19-17.7-14.84-4.82-.91-9.1,.34-13.45,1.6-2.12,.61-3.97,2.19-6.01,3.37-3.89-1.56-8.07-3.2-12.22-4.92-.44-.19-1-.81-1-1.25-.09-6.02-4.19-10.01-6.89-14.86,1.8-2.97,2.01-1.99,5.27-1.77,4.02,.26,5.36,3.37,7.42,4.75,6.33-2.67,12.32-5.21,18.71-7.91v-3.76c0-1.62-.34-3.4,1.7-4.17,.18-.07,.3-.39,.4-.6,.49-.99,.81-2.7,1.49-2.85,1.68-.4,3.52-.11,5.29-.04,.27,0,.73,.36,.77,.61,.52,2.9,3.72,4.89,2.69,8.35-.28,.95-.04,2.05-.04,2.5,6.28,2.64,12.2,5.12,18.12,7.6-.02,.25-.04,.51-.07,.76,1.03-1,2.05-2,3.08-3,1.21-1.16,2.21-2.81,4.31-1.84,.13,.06,.4,.05,.48-.04,2.92-3.2,4.35-.09,6.11,1.51,1.28,1.16,1.55,2.45,.2,3.8-.18,.17-.51,.44-.47,.57,1.11,4.26-3.24,5.17-4.34,7.5,2.58,6.32,5.07,12.42,7.74,18.96h3.38c1.75,.01,3.69-.44,4.52,1.89,.05,.12,.24,.22,.39,.29,.96,.41,2.58,.62,2.76,1.26,.46,1.61,.32,3.41,.31,5.12,0,.45-.37,1.27-.64,1.3-2.85,.31-4.51,3.8-7.88,2.86-2.65-.74-3.72,.51-4.53,3.4-1.46,5.17-3.84,10.09-5.84,15.11-.34,.1-.68,.2-1.02,.31,1.13,.91,2.32,1.76,3.37,2.76,1.19,1.15,2.85,2.19,1.76,4.35-.08,.16,.1,.47,.18,.71,.36,.97,1.31,2.35,.98,2.85-1.01,1.54-2.37,2.96-3.87,4.01-1.2,.84-4.73-1.67-4.86-3.22-.39-4.86-2.88-8.12-7.1-10.31-3.38-1.75-6.39-4.41-10.47-3.7v.04Z"/>
  <path class="cls-1" d="M103.05,77.42c0,1.65,.02,3.3,0,4.95-.04,2.65-.44,5.35,2.3,7.17,.66,.44,1.15,1.66,1.14,2.52-.05,2.81,1.71,4.31,3.54,5.89,2.67,2.29,5.26,4.67,7.87,7.04,2.19,1.99,2.57,4.15,1.07,5.84s-3.56,1.54-5.82-.46c-3.08-2.74-6.08-5.57-9.25-8.2-.79-.66-2.08-1.05-3.11-1-3.61,.21-6.44-1.2-7.8-4.19-1.37-3.02-.64-6.06,1.86-8.8,.65-.71,1.08-1.91,1.11-2.9,.11-5.21,.03-10.42,.08-15.64,.03-2.69,1.36-4.19,3.51-4.21,2.02-.02,3.4,1.35,3.47,3.66,.08,2.77,.02,5.56,.02,8.34h0Z"/>
</svg>