<?xml version="1.0" encoding="UTF-8"?>
<svg id="Layer_1" data-name="Layer 1" xmlns="http://www.w3.org/2000/svg" viewBox="0 0 200 200">
  <defs>
    <style>
      .cls-1 {
        fill: #5c2e63;
      }
    </style>
  </defs>
  <path class="cls-1" d="M2.26,200C.5,199.05,0,197.67,0,195.88c.07-12.24,.03-24.48,.04-36.72,0-.58-.07-1.19,.08-1.75,.41-1.49,1.49-2.39,3.32-2.37,1.83,.03,2.88,.96,3.23,2.46,.15,.63,.06,1.3,.06,1.95,0,11.46,0,22.91,0,34.52H23.27c0-.7,0-1.45,0-2.2,0-13.48,0-26.95,0-40.43,0-.65-.08-1.32,.06-1.95,.34-1.6,1.42-2.59,3.36-2.55,1.92,.04,2.98,1.02,3.24,2.65,.09,.58,.03,1.17,.03,1.76,0,13.48,0,26.95,0,40.43,0,.71,0,1.43,0,2.29h28.3c.36-2.84,.75-5.73,1.1-8.62,1.75-14.43,3.51-28.85,5.21-43.28,.1-.84-.14-1.81-.57-2.56-1.16-2.03-2.51-3.97-3.95-6.2-2.8,1.49-5.5,2.93-8.19,4.36-.83,.44-1.63,.92-2.48,1.31-2.71,1.24-5.22,.01-5.25-2.67-.07-5.08-.02-10.16-.02-15.23,0-1.75,0-3.51,0-5.48-.73,.15-1.29,.22-1.81,.38-8.3,2.47-16.6,4.93-24.88,7.44-6.9,2.09-10.65,6.75-10.69,13.16-.01,2.6,.01,5.21,0,7.81-.02,2.31-1.21,3.63-3.28,3.66-2.08,.03-3.42-1.3-3.39-3.55,.05-3.83-.24-7.73,.39-11.49,1.26-7.46,6.34-12.5,14.44-15,11.69-3.61,23.44-7.1,35.21-10.52,1.77-.52,2.26-1.22,2.19-2.76-.14-2.79,0-5.6-.07-8.4-.01-.58-.25-1.35-.71-1.69-9.04-6.58-12.73-15.28-13.23-25.27-.02-.38-.07-.77-.13-1.46-1.06,0-2.06,.02-3.06,0-7.47-.19-12.68-4.76-12.85-11.29-.05-1.95-.04-3.91,0-5.86,.09-4.67,2.59-8.03,7.33-10.14,.39-.18,.78-.37,1.24-.59,0-4.16-.02-8.33,0-12.49C30.86,11.87,44.39,.05,62.31,.01c8.93-.02,17.86-.02,26.79,0,17.77,.04,31.4,11.9,31.48,27.41,.02,3.84,.04,7.68-.02,11.52-.01,1.06,.26,1.72,1.41,2.33,3.99,2.11,5.99,5.33,6.14,9.39,.07,2.02,.06,4.04,0,6.05-.15,6.18-5.29,10.82-12.35,11.17-1.11,.06-2.23,0-3.43,0-.37,2.58-.58,5.09-1.1,7.55-1.57,7.46-5.3,13.88-12,18.88-.62,.46-1.06,1.4-1.1,2.13-.12,2.86,.03,5.73-.09,8.59-.06,1.34,.46,1.93,1.9,2.35,11.05,3.24,22.07,6.58,33.12,9.84,3.76,1.11,7.33,2.47,10.33,4.85,.52,.41,1.64,.52,2.39,.38,23.61-4.49,46.45,7.25,53.13,27.39,.37,1.12,.68,2.26,.94,3.41,.45,1.94-.51,3.43-2.38,3.81-2.04,.41-3.66-.54-4.14-2.6-1.59-6.82-5.1-12.73-10.78-17.62-11-9.47-27.52-12.16-41.74-6.81-14.23,5.35-23.32,17.64-23.04,31.2,.33,16.51,14.87,30.81,33.05,32.5,20.27,1.88,37.71-8.72,42.19-25.66,.13-.51,.23-1.02,.39-1.52,.54-1.74,2.2-2.73,3.98-2.37,1.91,.39,2.96,1.88,2.54,3.76-1.44,6.43-4.39,12.27-9.14,17.36-7.58,8.12-17.31,12.94-29.21,14.34-.42,.05-.83,.22-1.24,.34H2.26ZM37.26,35.67c.22,.04,.43,.08,.65,.12,.33-.26,.66-.52,.98-.78,9.56-7.67,20.36-8.09,30.73-1.2,1.97,1.31,2.54,2.95,1.53,4.35-1.05,1.46-2.79,1.67-5.12,.66-2.39-1.04-4.76-2.15-7.22-3.04-4.74-1.71-9.04-.7-12.89,2.03-.53,.38-.96,1.18-.96,1.79,0,11.26-.09,22.52,.18,33.77,.13,5.47,2.71,10.28,7.29,14.04,8.55,7.02,18.86,8.82,30.04,6.88,13.83-2.4,22.57-10.86,22.83-22.14,.26-11.12,.09-22.26,.04-33.38,0-.58-.48-1.37-1.02-1.7-4.05-2.4-8.32-3.01-12.82-.93-2.3,1.06-4.58,2.16-6.93,3.13-1.76,.72-3.39,.42-4.46-1.09-1.06-1.49-.52-2.82,.97-3.76,10.3-6.55,19.88-7.68,30.09-.3,.82,.59,1.64,1.18,2.7,1.95,0-3.5,.08-6.62-.01-9.73-.34-10.9-10.7-20.15-23.15-20.39-10.04-.19-20.09-.18-30.12,0-10.83,.2-20.66,7.45-22.49,16.78-.83,4.23-.59,8.63-.83,12.95Zm94.82,158.4c-14.4-8.91-21.9-20.59-20.84-35.77,1.06-15.2,10.2-26.01,25.44-33.68-10.05-3.04-20.1-6.08-30.43-9.2v2.45c0,5.86-.01,11.71,0,17.57,0,1.48-.09,2.89-1.81,3.7-1.71,.81-3.12,.13-4.56-.65-3.14-1.7-6.31-3.37-9.44-5.03-4.04,4.36-4.96,7.02-4.41,11.43,1.45,11.63,2.81,23.28,4.21,34.91,.57,4.76,1.18,9.51,1.77,14.29h40.06Zm-60.88-51.02c-2.06,17.04-4.11,33.99-6.16,50.95h20.21c-2.07-17.07-4.12-33.99-6.18-50.95h-7.86Zm-12.26-44.44c0,2.81-.03,5.41,.03,8,.01,.44,.31,1.03,.7,1.3,5.12,3.43,10.28,6.81,15.47,10.23,5.18-3.41,10.23-6.72,15.26-10.05,.39-.26,.88-.68,.89-1.03,.07-2.75,.04-5.51,.04-8.43-10.95,3.21-21.51,3.22-32.4-.01Zm22.15,22.96c6.27,3.35,12.19,6.51,18.45,9.85,0-5.76,0-11.13,0-16.51,0-1.65-3.27-3.25-4.84-2.26-4.49,2.85-8.89,5.82-13.61,8.92Zm-11.91,0c-4.7-3.1-8.99-6.1-13.52-8.78-.86-.51-2.75,.13-4.05,.51-.44,.13-.77,1.12-.78,1.72-.06,4.87-.04,9.74-.03,14.61,0,.47,.11,.95,.19,1.65,6.12-3.27,11.99-6.41,18.19-9.72Zm15.3,8.69c-2.91-1.56-5.67-3.07-8.48-4.5-.41-.21-1.19-.27-1.58-.07-2.87,1.46-5.68,3-8.63,4.58,1.36,2.12,2.58,4.12,3.93,6.04,.28,.39,1.03,.73,1.57,.75,2.59,.08,5.19,.07,7.78,0,.49-.01,1.17-.31,1.41-.67,1.37-1.98,2.63-4.02,4-6.14ZM38.07,45.64c-4.96-.91-9.7,.81-9.2,6.58,.09,1.03,.01,2.07,.01,3.11,.02,5.28,3.07,7.47,9.18,6.5v-16.19Zm74.1,16.42c.77,0,1.35,0,1.93,0,5.02,.01,7.31-2,7.33-6.44,0-1.17,0-2.34,0-3.51,0-5.2-3.31-7.52-9.26-6.44v16.38Z"/>
  <path class="cls-1" d="M151.14,159.21c4.59-5.35,8.81-10.54,13.39-15.47,1.51-1.62,3.73-3.06,5.96-3.78,4.14-1.33,8.66,.31,11.15,3.45,2.56,3.21,2.56,7.25-.22,10.57-4.84,5.76-9.78,11.45-14.68,17.17-2,2.34-3.97,4.71-6.03,7.01-4.07,4.54-10.89,5.01-15.63,1-4.7-3.98-9.32-8.03-13.87-12.14-4.06-3.66-4.01-9.1-.04-12.64,4.01-3.59,10.33-3.66,14.61-.09,1.82,1.51,3.47,3.18,5.36,4.92Zm26.14-11.07c-1.02-.87-1.86-1.97-3.03-2.5-1.69-.76-3.14,.07-4.22,1.32-5,5.82-9.99,11.66-15,17.48-2.2,2.56-3.99,2.66-6.58,.42-2.38-2.06-4.69-4.18-7.12-6.19-1.98-1.64-4.45-1.49-5.78,.28-1.23,1.65-.64,3.07,.84,4.37,4.32,3.76,8.62,7.55,12.95,11.31,2.27,1.97,4.39,1.89,6.37-.4,6.73-7.78,13.41-15.59,20.07-23.42,.55-.65,.84-1.47,1.5-2.67Z"/>
  <path class="cls-1" d="M75.2,83.64c-6.41,.02-12.01-4.68-11.7-10.02,.05-.94,.83-2.18,1.71-2.66,.79-.44,2.39-.33,3.27,.1,.8,.39,1.38,1.5,1.58,2.37,.62,2.77,2.28,4.31,5,4.34,2.78,.03,4.51-1.4,5.1-4.22,.46-2.18,1.78-3.23,3.77-3.01,2,.22,3.04,1.57,2.85,3.74-.45,5.27-5.49,9.34-11.59,9.36Z"/>
  <path class="cls-1" d="M86.2,55.46c0-.65-.07-1.31,.01-1.95,.2-1.64,1.24-2.62,3.15-2.74,1.81-.11,3.31,.99,3.46,2.66,.13,1.42,.15,2.87,0,4.28-.18,1.64-1.39,2.57-3.25,2.68-1.75,.1-3.19-1.13-3.35-2.79-.07-.71-.01-1.43-.01-2.14Z"/>
  <path class="cls-1" d="M63.95,55.63c0,.71,.06,1.43-.01,2.14-.17,1.6-1.32,2.5-3.05,2.6-1.75,.1-3.14-.7-3.37-2.25-.24-1.65-.24-3.37-.02-5.03,.21-1.54,1.5-2.38,3.31-2.3,1.91,.08,2.98,1.05,3.15,2.71,.07,.71,.01,1.43,.01,2.14,0,0,0,0-.01,0Z"/>
</svg>