<?xml version="1.0" encoding="UTF-8"?>
<svg id="Layer_1" data-name="Layer 1" xmlns="http://www.w3.org/2000/svg" viewBox="0 0 200 200">
  <defs>
    <style>
      .cls-1 {
        fill: #5c2e63;
      }
    </style>
  </defs>
  <path class="cls-1" d="M190.2,103.87c-1.45-2.82-2.54-5.14-3.8-7.31-1.31-2.26-2.63-4.59-4.24-6.47-1.73-2.01-2.35-4.13-2.34-7.12,.11-21.73,.07-43.46,.08-65.19,0-4.12-.32-4.53-3.58-4.53-46.73,0-93.46,0-140.19,0-7.55,0-15.1-.02-22.65-.03-2.7,0-3.19,.59-3.19,4.05,0,40.81,0,81.62,.02,122.43,0,4.11,.35,4.55,3.6,4.55,28.7,.01,57.41,0,86.11,.02,4.44,0,3.3-.87,4.54,4.21,2.02,8.29,5.17,15.8,9.92,21.99,2.06,2.69,2.63,5.48,2.2,9.1h-43.32c.29-7.32,.57-14.63,.87-22.24-.96,0-1.72,0-2.48,0-19.46,0-38.92,.04-58.38-.02-8.5-.02-13.35-6.23-13.35-17C0,99.17,0,58.03,0,16.89,0,6.53,5.19,0,13.34,0c54.48,0,108.95,.01,163.43,.02,6.58,0,11.34,4.14,12.9,11.35,.36,1.66,.52,3.43,.52,5.16,.03,28.37,.01,56.74,0,85.1,0,.54,0,1.07,0,2.24Z"/>
  <path class="cls-1" d="M182.67,161.37c4.77,5.78,9.72,11.65,14.56,17.67,3.47,4.32,3.67,10.04,.68,14.23-3.15,4.41-8.02,4.33-11.57-.23-4.31-5.54-8.59-11.1-12.87-16.67-.45-.59-.79-1.32-1.24-2.08-11.18,9.12-22.9,11.63-35.35,6.95-10.17-3.82-17.99-11.79-23.44-23.32-9.8-20.73-7.41-47.5,6.87-64.98,14.42-17.66,36.12-19.39,52.87-4.37,13.46,12.07,24.63,41.98,9.5,72.8Zm-33.92,6.4c15.88,.04,28.88-16.37,28.97-36.54,.09-20.4-13.01-37.21-28.94-37.14-15.79,.07-28.86,16.7-28.87,36.76-.01,20.38,12.88,36.89,28.84,36.92Z"/>
  <path class="cls-1" d="M117.98,86.07c-2.73,4.28-5.29,8.42-8,12.39-.43,.64-1.52,.76-2.3,.76-12.55,.05-25.1,.04-37.66,.05-14.7,0-29.4-.01-44.1,.02-1.96,0-3.79-.35-5.12-2.36-1.32-1.99-1.77-4.28-.88-6.71,1-2.7,2.71-4.15,5.11-4.15,6.24,0,12.49,0,18.73,0,24.19,0,48.39,0,72.58,0h1.62Z"/>
  <path class="cls-1" d="M103.8,115.66c-.52,4.48-1.01,8.71-1.53,13.13-1.06,0-2.02,0-2.99,0-24.41,0-48.82,0-73.22-.04-1.21,0-2.51-.18-3.59-.79-2.18-1.22-3.27-4.16-2.88-6.95,.39-2.76,2.23-5.04,4.58-5.31,1.94-.22,3.9-.16,5.85-.16,24.08,0,48.16,.01,72.25,.02,.45,0,.9,.05,1.54,.09Z"/>
  <path class="cls-1" d="M94.97,199.99c-9.43,0-18.87,0-28.3,0-4.91,0-7.47-5.12-5.16-10.66,.52-1.26,1.87-2.38,2.99-2.7,1.74-.5,3.61-.33,5.43-.34,17.44-.02,34.87-.01,52.31,0,.65,0,1.3,0,1.95,.03,3.56,.15,5,2.07,5.02,6.68,.03,5-1.45,6.99-5.36,7-9.63,.03-19.26,.01-28.89,0Z"/>
  <path class="cls-1" d="M74.28,50.28c0-5.14-.01-10.28,0-15.42,.01-3.65,.85-4.74,3.74-4.73,3.64,.01,7.29-.02,10.93,.23,7.23,.49,11.01,8.47,8.21,16.97-.21,.65-.17,1.78,.15,2.32,4.88,8.4,1.32,19.36-6.87,20.44-4.32,.57-8.7,.43-13.06,.44-2.16,0-3.09-1.4-3.11-4.32-.04-5.31-.01-10.61-.01-15.92,0,0,.01,0,.02,0Zm8.9,9.41c2.05,0,3.99,.16,5.9-.1,.57-.08,1.49-1.38,1.45-2.03-.06-.84-.8-1.91-1.46-2.31-.78-.46-1.78-.37-2.68-.41-3.6-.17-3.66-.06-3.2,4.84Zm-.15-15.55c1.91,0,3.6,.11,5.28-.08,.43-.05,1.1-1.03,1.09-1.58,0-.54-.69-1.5-1.13-1.54-1.72-.18-3.45-.07-5.24-.07v3.27Z"/>
  <path class="cls-1" d="M135.76,42.79c-9.24,0-18.48,0-27.72,0-3.4,0-5.71-2.57-5.77-6.39-.06-3.85,2.16-6.67,5.54-6.68,18.8-.04,37.61-.03,56.41,.02,3.06,0,5.29,2.88,5.3,6.49,0,3.71-2.29,6.55-5.46,6.56-9.43,.04-18.87,.01-28.3,.01h0Z"/>
  <path class="cls-1" d="M136.12,57.51c9.24,0,18.48-.03,27.72,.02,3.16,.02,5.39,2.38,5.67,5.76,.34,4.1-2.08,7.3-5.64,7.32-7.94,.05-15.88,.03-23.82,.04-10.67,0-21.35,.02-32.02-.02-3.42-.01-5.72-2.66-5.77-6.43-.05-3.27,1.84-6.13,4.39-6.56,.9-.15,1.82-.16,2.73-.16,8.92-.01,17.83,0,26.75,0v.04Z"/>
  <path class="cls-1" d="M41.79,49.2c.13-6.53,2.03-13.17,7.6-17.17,8.29-5.95,21.73-1.75,22.82,16.18,.51,8.44-1.31,15.96-7.53,20.35-9.87,6.96-22.9-.48-22.89-19.36Zm21.69,1.53c-.07-1.33-.09-2.16-.17-2.98-.43-4.75-2.9-7.75-6.36-7.76-3.39-.01-5.78,2.84-6.18,7.62-.17,2.03-.18,4.14,.05,6.16,.48,4.13,2.85,6.76,5.93,6.89,3.19,.13,5.51-2.11,6.33-6.26,.27-1.35,.31-2.77,.4-3.67Z"/>
  <path class="cls-1" d="M39.75,46.52c-.3,5.36-.25,10.8-1.01,16.05-.83,5.76-4.86,8.83-9.87,8.51-4.85-.31-8.16-3.96-8.91-9.85-.12-.98-.17-1.98-.21-2.97-.02-.49,.02-1,.12-1.47,.43-2.04,2.5-3.16,5.49-2.98,1.64,.1,2.39,1.36,2.72,3.27,.23,1.29-.32,3.5,1.53,3.25,1.7-.23,1.13-2.33,1.15-3.64,.07-7.13,.04-14.26,.04-21.39,0-4.42,.59-5.15,4.13-5.16,.52,0,1.04-.02,1.56,.02,2.05,.17,2.92,1.26,2.94,3.93,.04,4.14,.01,8.29,.01,12.44,.1,0,.19,.02,.29,.02Z"/>
</svg>