<?xml version="1.0" encoding="UTF-8"?>
<svg id="Layer_1" data-name="Layer 1" xmlns="http://www.w3.org/2000/svg" viewBox="0 0 72 72">
  <defs>
    <style>
      .cls-1 {
        fill: #5a2b5f;
      }
    </style>
  </defs>
  <path class="cls-1" d="M65.34,60.09c.58,.47,1.21,.96,1.8,1.47,1.14,.99,1.14,2.25,.02,3.24-1.11,.99-2.23,1.96-3.35,2.94-1.15,1-2.58,.99-3.76-.02-.51-.44-1.03-.88-1.53-1.34-.25-.23-.46-.24-.79-.11-.8,.32-1.62,.62-2.45,.86-.41,.12-.53,.3-.52,.66,.03,.65,.02,1.3,0,1.95-.03,1.31-1.05,2.22-2.56,2.24-1.63,.02-3.25,.02-4.88,0-1.55-.02-2.54-.93-2.55-2.3,0-.79,0-1.58,0-2.32-1.08-.4-2.08-.78-3.09-1.12-.17-.06-.49,.02-.64,.13-.55,.43-1.06,.92-1.59,1.37-1.12,.96-2.55,.99-3.66,.04-1.18-1.01-2.35-2.03-3.49-3.07-1.02-.93-.99-2.18,.03-3.11,.48-.44,.97-.88,1.49-1.29,.29-.23,.33-.42,.14-.73-.33-.53-.66-1.09-.85-1.67-.2-.59-.57-.7-1.21-.7-10.02,.02-20.03,.01-30.05,.01-1.52,0-1.86-.29-1.86-1.6,0-5.8-.02-11.6,0-17.4,.02-4.08,1.47-7.73,4.63-10.77,2.85-2.74,6.4-4.19,10.68-4.14,.79,0,1.58,0,2.37,0,1.04,0,1.35,.22,1.61,1.1,.53,1.8,1.55,3.31,3.35,4.34,2.89,1.66,6.53,.98,8.54-1.66,.64-.84,1.01-1.86,1.41-2.82,.21-.51,.49-.93,1.12-.94,2.46-.03,4.93-.18,7.32,.52,4.21,1.24,7.1,3.75,9.02,7.19,.28,.49,.52,1,.71,1.52,.14,.38,.36,.5,.8,.49,.48-.02,.98,0,1.45,.1,1.05,.24,1.72,1.08,1.75,2.11,.02,.69-.02,1.38,.03,2.07,.01,.18,.23,.42,.42,.49,.84,.34,1.7,.64,2.58,.92,.2,.06,.54,0,.7-.12,.57-.44,1.09-.95,1.64-1.41,1.1-.92,2.53-.92,3.61,0,1.16,1,2.31,2,3.45,3.02,1.08,.97,1.05,2.24-.04,3.21-.49,.43-1.01,.84-1.47,1.3-.13,.13-.18,.44-.11,.61,.34,.8,.72,1.59,1.14,2.35,.1,.18,.41,.36,.64,.38,.72,.05,1.44,0,2.16,.03,1.45,.05,2.43,.92,2.45,2.19,.02,1.44,.02,2.89,0,4.33-.02,1.29-1.04,2.18-2.51,2.2-.72,.01-1.44-.02-2.16,.02-.2,.01-.47,.16-.55,.31-.25,.46-.41,.95-.64,1.42-.22,.45-.47,.88-.78,1.44Zm-17.1-27c-.01-.14,0-.2-.03-.25-1.95-4.79-7.16-7.72-12.96-7.28-.19,.01-.42,.2-.51,.36-.42,.7-.72,1.46-1.2,2.13-2.8,3.93-8.25,5-12.46,2.46-1.84-1.11-3.06-2.64-3.85-4.45-.09-.2-.35-.48-.55-.49-4.42-.3-8.08,.99-10.85,4.06-2.35,2.61-3.34,5.63-3.34,8.93,.01,5.29,0,10.58,0,15.87,0,.2,.02,.39,.04,.58h6.7c0-.29,0-.53,0-.77,0-4.8,0-9.6,0-14.41,0-.24,0-.49,.06-.73,.14-.54,.67-.85,1.3-.8,.63,.06,1.02,.37,1.12,.92,.04,.24,.02,.49,.02,.73,0,4.76,0,9.52,0,14.28,0,.25,0,.51,0,.77h15.83c0-.22,0-.4,0-.58,0-1.34-.02-2.69,0-4.03,.02-1.35,1-2.2,2.53-2.23,.28,0,.56,0,.84,0q1.67,0,2.27-1.33c.28-.61,.89-1.28,.76-1.81-.13-.55-.98-.97-1.52-1.45-1.21-1.09-1.22-2.3,0-3.38,1.05-.92,2.11-1.83,3.16-2.75,1.3-1.15,2.71-1.15,4,0,.49,.44,.97,.88,1.48,1.28,.13,.1,.42,.14,.59,.09,.89-.29,1.76-.64,2.65-.92,.39-.12,.48-.3,.46-.63-.02-.67-.03-1.34,0-2.01,.03-1.25,1.04-2.13,2.48-2.18,.32,0,.63,0,.96,0Zm21.21,21.62v-4.37c-1.09,0-2.15,0-3.21,0-1.03,0-1.29-.23-1.65-1.08-.51-1.2-1.07-2.38-1.71-3.52-.46-.83-.49-1.18,.27-1.83,.77-.66,1.56-1.32,2.26-1.91-1.23-1.1-2.36-2.11-3.52-3.16-.79,.69-1.59,1.39-2.4,2.09-.71,.61-1.08,.61-1.99,.24-1.19-.49-2.4-.97-3.65-1.33-1.45-.42-1.57-.48-1.57-1.82,0-.91,0-1.81,0-2.71h-4.99c0,1.09,0,2.12,0,3.16,0,.63-.34,1.01-1.01,1.23-1.51,.51-3.01,1.04-4.5,1.59-.58,.21-1.08,.18-1.54-.2-.29-.24-.56-.49-.84-.73-.6-.52-1.2-1.04-1.71-1.49-1.24,1.04-2.41,2.02-3.6,3.02,.8,.7,1.55,1.36,2.31,2.02,.74,.65,.74,1.01,.28,1.84-.63,1.13-1.2,2.28-1.69,3.46-.39,.91-.63,1.14-1.74,1.15-1.04,0-2.08,0-3.15,0v4.35c1.14,0,2.23,0,3.32,0,.9,0,1.19,.28,1.51,1,.56,1.26,1.19,2.51,1.84,3.74,.35,.65,.34,1.07-.24,1.6-.34,.31-.69,.6-1.04,.91-.47,.41-.93,.83-1.28,1.14,1.19,1.09,2.31,2.1,3.45,3.13,.81-.7,1.61-1.41,2.42-2.11,.68-.59,1.07-.6,1.93-.24,1.06,.45,2.13,.94,3.25,1.22,2.13,.53,2.05,.63,2.03,2.45,0,.74,0,1.48,0,2.2h5c0-1.07,0-2.09,0-3.1,0-.8,.3-1.06,1.13-1.32,1.39-.44,2.77-.92,4.12-1.45,.88-.35,1.28-.35,1.98,.28,.79,.71,1.57,1.44,2.29,2.1,1.27-1.08,2.43-2.07,3.64-3.1-.78-.68-1.55-1.35-2.31-2.02-.73-.64-.71-.97-.27-1.78,.64-1.17,1.22-2.36,1.74-3.58,.34-.79,.63-1.06,1.6-1.06,1.06,0,2.13,0,3.25,0Z"/>
  <path class="cls-1" d="M25.97,23.34c-7.39,0-13.33-5.23-13.32-11.69C12.67,5.23,18.65,0,25.98,0c7.34,0,13.35,5.28,13.33,11.71-.03,6.43-5.99,11.63-13.33,11.62Zm-.03-2.18c5.96,.01,10.82-4.21,10.87-9.45,.04-5.18-4.86-9.5-10.8-9.52-5.95-.02-10.85,4.26-10.86,9.46,0,5.24,4.82,9.49,10.79,9.5Z"/>
  <path class="cls-1" d="M60.84,52.54c.02,5.32-4.93,9.68-11.02,9.7-6.12,.02-11.09-4.3-11.13-9.67-.04-5.3,4.94-9.71,10.99-9.72,6.18-.02,11.13,4.29,11.15,9.7Zm-2.5,.02c.01-4.13-3.83-7.52-8.53-7.53-4.72,0-8.6,3.35-8.61,7.46-.01,4.13,3.81,7.54,8.5,7.56,4.76,.02,8.63-3.33,8.64-7.49Z"/>
</svg>