<?xml version="1.0" encoding="UTF-8"?>
<svg id="Layer_1" data-name="Layer 1" xmlns="http://www.w3.org/2000/svg" viewBox="0 0 200 200">
  <defs>
    <style>
      .cls-1 {
        fill: #5c2e63;
      }
    </style>
  </defs>
  <path class="cls-1" d="M200,182.87c-7.73,6.43-13.55,11.27-20.61,17.13-17.65-22.1-43.94-38.02-58.49-66.82-20.63,15.29-44.2,21.09-69.75,12.93-17.36-5.55-30.73-16.74-40.28-32.56C-8.28,81.8-1.62,41.56,26.88,17.13c26.93-23.07,67.33-22.65,94.27,.09,25.38,21.43,39.3,64.24,11.81,103.06,11.16,10.2,22.15,20.09,32.96,30.18,11.12,10.38,22.05,20.95,34.08,32.4ZM24.19,74.7c-.08,28.79,22.18,51.81,49.97,51.69,27.5-.12,51.02-24.27,50.6-51.97-.42-27.85-22.58-49.96-50.15-50.06-29.55-.1-50.34,20.66-50.42,50.34Z"/>
</svg>