<?xml version="1.0" encoding="UTF-8"?>
<svg id="Layer_1" data-name="Layer 1" xmlns="http://www.w3.org/2000/svg" viewBox="0 0 200 200">
  <defs>
    <style>
      .cls-1 {
        fill: #5c2e63;
      }
    </style>
  </defs>
  <path class="cls-1" d="M96.46,200c-3.19-1.01-6.55-1.67-9.56-3.08-12.23-5.74-18.75-18.23-16.96-31.98,1.6-12.3,11.73-22.75,24.46-25.2,.51-.1,1.01-.25,1.59-.39v-8.97c-.83,0-1.59,0-2.35,0-21.08,0-42.17,0-63.25-.01-.97,0-1.96-.06-2.89-.28-1.74-.41-2.9-2.01-2.87-3.71,.03-1.77,1.38-3.4,3.17-3.7,.83-.14,1.69-.12,2.53-.12,21.08,0,42.17,0,63.25,0h2.39v-13.86c-17.49-1.83-31.41-9.72-41.26-24.31-7.26-10.75-10.16-22.76-8.79-35.63C49.04,19.48,74.08-.93,101.73,.03c28.82,1,50.6,23.71,52.47,50.49,2.04,29.26-19.49,55.45-50.16,58.16v13.89h2.33c21.15,0,42.3,0,63.45,0,3.62,0,5.46,1.28,5.51,3.82,.05,2.59-1.91,4-5.57,4-21.08,0-42.17,0-63.25,0h-2.48v8.97c1.2,.28,2.51,.54,3.8,.89,13.71,3.69,23.28,16.67,22.52,30.54-.81,14.8-11.39,26.62-25.8,28.84-.36,.06-.7,.25-1.05,.38h-7.03Zm3.6-99.01c25.88-.23,46.74-21.29,46.45-46.9-.29-25.82-21.3-46.6-46.82-46.32-25.76,.28-46.56,21.36-46.25,46.88,.31,25.75,21.24,46.55,46.62,46.33Zm-.01,91.19c12.42-.04,22.61-10.32,22.53-22.72-.09-12.35-10.25-22.47-22.58-22.49-12.38-.03-22.65,10.26-22.62,22.65,.03,12.42,10.26,22.6,22.68,22.56Z"/>
  <path class="cls-1" d="M0,166.4c.24-1.07,.49-2.14,.72-3.21,3-14.12,15.82-24.51,30.73-23.97,16.36,.6,28.23,13.66,29.25,28.16,1.11,15.78-10.15,29.98-25.81,32.26-.44,.06-.86,.24-1.29,.37h-6.64c-.29-.12-.56-.3-.86-.35-12.04-2.06-20.14-8.9-24.42-20.28C.9,177.34,.54,175.16,0,173.04c0-2.21,0-4.43,0-6.64Zm30.38,25.78c12.42,.01,22.65-10.22,22.62-22.63-.03-12.34-10.11-22.46-22.49-22.58-12.35-.12-22.66,10.13-22.69,22.55-.03,12.44,10.13,22.65,22.57,22.66Z"/>
  <path class="cls-1" d="M166.36,200c-3.28-.99-6.73-1.6-9.79-3.04-12.78-5.96-19.43-19.44-16.78-33.43,2.48-13.12,13.87-23.15,27.51-24.22,16.45-1.29,30.65,10.7,32.53,27.46,1.75,15.65-9.85,30.44-25.76,32.85-.36,.06-.71,.25-1.06,.37h-6.64Zm3.09-7.82c12.43,.05,22.65-10.11,22.68-22.55,.03-12.42-10.17-22.65-22.59-22.66-12.32,0-22.45,10.06-22.6,22.48-.15,12.33,10.1,22.68,22.51,22.73Z"/>
  <path class="cls-1" d="M10.46,126.42c.02-2.18,1.64-3.78,3.84-3.78,2.16,0,3.87,1.65,3.9,3.77,.03,2.15-1.84,4.02-3.98,3.96-2.12-.06-3.78-1.79-3.76-3.94Z"/>
  <path class="cls-1" d="M189.48,126.57c-.05,2.13-1.81,3.84-3.9,3.8-2.07-.04-3.83-1.84-3.83-3.92,0-2.2,1.78-3.88,4.04-3.82,2.18,.06,3.74,1.73,3.69,3.93Z"/>
  <path class="cls-1" d="M139.31,54.39c-.02,21.64-17.86,39.42-39.45,39.33-21.59-.1-39.25-17.81-39.23-39.35,.02-21.66,17.83-39.39,39.45-39.27,21.68,.12,39.25,17.72,39.23,39.29Zm-7.82-.26c-.41-17.71-14.73-31.65-32.07-31.2-17.39,.45-31.38,14.77-30.97,31.71,.42,17.71,14.69,31.61,32.07,31.26,17.24-.35,31.36-14.84,30.97-31.77Z"/>
  <path class="cls-1" d="M91.68,167.86c1.01,.39,2.67,.94,4.24,1.67,1.22,.57,2.05,.49,3.03-.56,2.25-2.42,4.61-4.75,7.01-7.04,2.18-2.07,4.94-1.85,6.33,.43,1.07,1.75,.75,3.42-.6,4.81-3.39,3.49-6.85,6.92-10.32,10.34-1.16,1.15-2.66,1.46-4.15,.91-2.67-.99-5.32-2.05-7.9-3.25-1.89-.88-2.63-2.74-2.13-4.53,.47-1.68,2.02-2.81,4.48-2.76Z"/>
  <path class="cls-1" d="M28.66,178.98c-3.32-1.5-6.7-2.81-9.86-4.54-1.55-.85-1.68-2.74-.94-4.37,.75-1.63,2.14-2.54,3.94-2.14,1.63,.36,3.22,.97,4.74,1.68,1.14,.53,1.84,.38,2.69-.52,2.28-2.4,4.66-4.71,7.01-7.04,1.28-1.28,2.77-1.97,4.58-1.28,2.72,1.04,3.33,4.24,1.15,6.55-2.45,2.6-5.03,5.07-7.55,7.6-.92,.92-1.77,1.93-2.8,2.69-.79,.59-1.81,.85-2.96,1.36Z"/>
  <path class="cls-1" d="M161.22,167.86c1.19,.46,2.97,1.06,4.68,1.83,1,.45,1.64,.28,2.39-.49,2.45-2.52,4.93-5.01,7.46-7.45,1.33-1.29,2.94-1.69,4.65-.76,1.61,.87,2.34,2.31,1.92,4.08-.21,.89-.77,1.81-1.41,2.48-3.12,3.23-6.34,6.37-9.5,9.56-1.55,1.57-3.31,1.93-5.33,1.07-2.45-1.04-4.96-1.96-7.35-3.12-1.8-.88-2.47-2.7-1.94-4.43,.52-1.72,2.03-2.82,4.43-2.76Z"/>
  <path class="cls-1" d="M96.15,46.55c0-2.21-.06-4.42,.02-6.63,.1-2.68,1.75-4.43,3.99-4.38,2.28,.05,3.76,1.77,3.79,4.53,.04,3.19,.08,6.38-.02,9.56-.05,1.41,.37,2.23,1.65,2.9,3.16,1.66,6.24,3.48,9.34,5.25,.56,.32,1.12,.66,1.61,1.08,1.57,1.35,1.88,3.39,.81,5.08-.98,1.56-3.05,2.29-4.8,1.34-4.91-2.65-9.81-5.35-14.55-8.29-.98-.61-1.59-2.34-1.76-3.63-.28-2.24-.08-4.54-.08-6.82Z"/>
</svg>