<?xml version="1.0" encoding="UTF-8"?>
<svg id="Layer_1" data-name="Layer 1" xmlns="http://www.w3.org/2000/svg" viewBox="0 0 72 72">
  <defs>
    <style>
      .cls-1 {
        fill: #5a2b5f;
      }
    </style>
  </defs>
  <path class="cls-1" d="M47.38,0c1.12,0,2.25,0,3.37,0,1.52,1.68,3.03,3.36,4.7,5.2C57.2,3.33,58.76,1.66,60.31,0c.75,0,1.5,0,2.25,0,1.3,1.71,1.08,3.21-.59,4.55-1.28,1.03-2.52,2.1-3.72,3.11,2.46,3.12,6.1,4.67,5.19,8.82-.04,.2,.24,.49,.41,.71,2.38,3.09,4.76,6.17,7.15,9.25v39.93c-1.73,3.18-3.95,5.63-7.95,5.62-10.21-.02-20.43,.05-30.64-.04-4.2-.03-6.89-2.61-7.72-6.76-.2-1.01-.75-2.1-1.46-2.83-6.38-6.48-12.86-12.84-19.23-19.32-1.81-1.84-3.34-3.94-4.99-5.92,0-1.31,0-2.62,0-3.94,1.3-1.79,2.41-3.78,3.95-5.34,7.53-7.67,15.12-15.28,22.82-22.77,1.16-1.13,2.93-1.93,4.54-2.24,5.66-1.09,11.37-1.91,17.06-2.83Zm4.98,8.31c-1.95-2.92-4.01-4.34-7.61-3.45-4.16,1.02-8.52,1.19-12.76,1.94-1.37,.24-2.89,.89-3.87,1.85-7.7,7.54-15.29,15.18-22.89,22.81-2.64,2.65-2.65,4.27-.04,6.88,6.61,6.64,13.24,13.26,19.87,19.87,2.83,2.82,4.27,2.83,7.07,.04,7.63-7.61,15.27-15.2,22.82-22.89,.9-.92,1.57-2.33,1.79-3.61,.76-4.33,.99-8.77,1.98-13.04,.82-3.55-.49-5.66-3.14-7.26-1.04,.81-2.04,1.59-3,2.33,.44,.63,.57,.89,.76,1.08,1.04,1.09,1.91,2.3,.52,3.62-1.4,1.33-2.55,.36-3.6-.7-1.32-1.33-2.64-2.66-3.97-3.98-1.12-1.12-2.71-2.31-1.31-4,1.63-1.96,2.94-.16,4.24,.82,.11,.09,.35,.01,.52,.01,.89-.79,1.78-1.58,2.63-2.32Zm10,14.31c-.55,3.78-.85,7.11-1.57,10.35-.38,1.71-1.16,3.59-2.36,4.83-6.5,6.74-13.13,13.37-19.85,19.89-2.87,2.79-6.08,5.24-9.41,8.08,.51,1.79,2.51,2.03,4.68,2.03,9.27,0,18.55,.02,27.82-.01,4.15-.01,5.1-1,5.1-5.21,.02-10.3-.17-20.61,.1-30.91,.1-3.86-1.9-6.16-4.51-9.05Z"/>
  <path class="cls-1" d="M37.78,17.94c-.4,1.26-.59,1.89-.79,2.51-2.9,8.69-5.8,17.38-8.7,26.07-.12,.35-.24,.71-.36,1.06-.47,1.42-1.23,2.97-2.87,2.06-.77-.43-1.33-2.44-1.02-3.43,2.11-6.88,4.48-13.68,6.76-20.51,.89-2.66,1.64-5.38,2.74-7.95,.34-.79,1.65-1.65,2.45-1.6,.72,.05,1.36,1.31,1.81,1.79Z"/>
  <path class="cls-1" d="M12.42,33.06c-.06-3.49,2.59-6.32,6.04-6.46,3.52-.14,6.47,2.75,6.46,6.33,0,3.46-2.77,6.28-6.2,6.32-3.41,.04-6.25-2.74-6.31-6.2Zm9.23-.41c-1.51-.81-2.42-1.69-3.23-1.6-.68,.07-1.23,1.29-1.84,2,.78,.63,1.51,1.65,2.36,1.75,.63,.07,1.4-1.05,2.71-2.15Z"/>
  <path class="cls-1" d="M48.85,32.92c0,3.36-2.89,6.3-6.25,6.35-3.44,.05-6.49-3.03-6.41-6.47,.08-3.37,3.04-6.24,6.39-6.2,3.38,.04,6.26,2.95,6.26,6.32Zm-3.97,.54c0-.34,0-.68,0-1.02-.82-.51-1.67-1.44-2.47-1.4-.66,.03-1.75,1.19-1.76,1.87-.01,.66,1.07,1.84,1.73,1.89,.8,.06,1.66-.85,2.49-1.34Z"/>
</svg>