<?xml version="1.0" encoding="UTF-8"?>
<svg id="Layer_1" data-name="Layer 1" xmlns="http://www.w3.org/2000/svg" viewBox="0 0 72 72">
  <defs>
    <style>
      .cls-1 {
        fill: #5a2b5f;
      }
    </style>
  </defs>
  <path class="cls-1" d="M27.1,49.88c-4.03,0-8.29,0-12.56,0-2.99,0-5.99,0-8.98,0-4.01-.01-5.53-1.15-5.55-4.2-.02-3.52,0-7.04,0-10.56,0-10.24,0-20.48,0-30.72C.01,1.05,1.38,0,5.78,0,15.28,0,24.77,0,34.27,0c4.2,0,5.54,.99,5.54,4.09,.01,10.18,0,20.35,0,30.53,0,.76,0,1.52,0,2.03,2.53,.4,4.82,.76,6.76,1.07,2.35,0,4.45,.03,6.55-.02,.6-.01,1.27-.15,1.78-.38,2.68-1.18,6.05-.87,7.3,1.22,3.15,5.28,7.2,10.32,8.49,16.14,.25,1.12-.03,2.3,.14,3.43,.31,1.99,.84,3.96,1.13,5.94,.09,.64-.28,1.31-.44,1.97-.79-.32-1.95-.51-2.29-1-.75-1.12-1.72-2.45-1.51-3.58,1.28-6.75-2.5-12.49-6.05-18.3-.64-1.05-1.03-2.22-1.93-3.11-.51-.51-1.81-.59-2.75-.86-.21,.68-.76,1.43-.54,2.03,.44,1.22,1.47,2.32,1.91,3.54,.2,.55-.41,1.26-.66,1.9-.71-.34-1.71-.55-2.06-1.03-1.03-1.39-1.8-2.89-2.67-4.35-.61-1.03-1.26-2.14-3.16-1.48-1.76,.61-1.14,1.63-.55,2.61,.88,1.45,1.84,2.89,2.52,4.4,.23,.52-.27,1.22-.43,1.84-.79-.32-1.96-.5-2.29-.99-1.54-2.28-2.72-4.69-4.31-6.94-.46-.65-1.99-1.42-2.76-1.28-1.77,.32-1.44,1.46-.82,2.5,1.33,2.21,2.72,4.41,3.86,6.68,.3,.59-.24,1.42-.39,2.14-.8-.42-1.97-.7-2.33-1.27-2.84-4.57-5.53-9.2-8.26-13.81-.38-.64-.61-1.41-1.23-1.87-.67-.5-1.72-.7-2.61-1.04-.31,.75-1.15,1.65-.86,2.22,1.35,2.68,3.01,5.28,4.57,7.9,1.56,2.63,3.2,5.23,4.61,7.9,.31,.58-.21,1.41-.35,2.12-.81-.4-1.77-.71-2.41-1.23-.73-.6-1.01-1.55-1.82-2.03-.53-.32-1.73-.23-2.48-.02-.32,.09-.56,1.03-.35,1.43,2.55,4.79,5.36,9.42,12,11.96,2.19,.84,4.36,1.87,6.1,3.15,1.7,1.25,2.92,2.89,4.17,4.45,.22,.27-.29,1.2-.76,1.36-.46,.16-1.74-.14-1.88-.44-1.72-3.8-6.47-5.17-10.38-7.06-4.73-2.29-8.07-5.24-10.14-9.11-.95-1.77-2.02-3.5-3.16-5.47Zm9.73-16.26c0-8.35-.05-16.33,.04-24.32,.02-1.88-.96-2.44-3.34-2.43-8.98,.06-17.95,.02-26.93,.03-3.18,0-3.34,.13-3.34,2.49,0,10.36,.05,20.73-.05,31.09-.02,1.85,.77,2.5,3.21,2.47,7.18-.07,14.36-.02,21.54-.03,.72,0,1.44-.12,2.2-.19q-1.26-3.16-5.24-3.16c-3.31,0-6.61,0-9.92,0v-2.32h11.77c-.14-2.2-1.46-2.94-4.15-2.76-2.52,.17-5.07,.04-7.62,.04v-2.24c2.27,0,4.39,0,6.51,0,2.42,0,4.68,.08,6.88-1.32,1.06-.67,3.7-.3,5.42,.1,1.07,.25,1.76,1.43,3.01,2.54Zm-.21-29.04c.57-1.85-.44-2.36-2.53-2.35-9.38,.04-18.77,.05-28.15,0-2.32-.01-3.1,.63-2.42,2.35H36.61ZM3.53,45.24c-.77,1.93,.34,2.43,2.5,2.42,6.9-.04,13.8,.04,20.7-.05,1.95-.02,3.9-.45,5.85-.69,.06-.26,.12-.53,.18-.79-.83-.3-1.64-.83-2.48-.85-3.57-.1-7.15-.04-10.73-.04-5.35,0-10.69,0-16.01,0Z"/>
  <path class="cls-1" d="M21.09,23.38c-3.5,0-7.01,.05-10.5-.04-.77-.02-1.51-.53-2.26-.82,.5-.47,1.04-.93,1.5-1.42,.4-.43,.87-.88,1.02-1.37,.9-2.91,3.18-4.85,6.92-5.91,.78-.22,1.54-.68,2.05-1.17,1.07-1.06,1.93-1.04,3.01-.03,.53,.49,1.22,.98,1.98,1.19,3.75,1.04,6.03,2.98,6.96,5.89,.17,.53,.79,.99,1.21,1.48,.38,.44,.77,.87,1.16,1.3-.68,.3-1.34,.85-2.03,.87-3.67,.09-7.34,.04-11.02,.04Zm-7.12-2.47h14.74c-.5-3.24-3.6-5.29-7.58-5.23-3.88,.07-6.8,2.15-7.16,5.23Z"/>
  <path class="cls-1" d="M33.17,27.4v2.01H16.17v-2.01h17Z"/>
  <path class="cls-1" d="M12.73,29.45h-3.7c-.05-.65-.1-1.25-.17-2.01h3.7c.05,.6,.1,1.2,.17,2.01Z"/>
  <path class="cls-1" d="M12.57,34.47h-3.52c-.06-.65-.11-1.26-.18-2.02h3.7v2.02Z"/>
  <path class="cls-1" d="M9.01,39.45v-2.04h3.5v2.04h-3.5Z"/>
</svg>