<?xml version="1.0" encoding="UTF-8"?>
<svg id="Layer_1" data-name="Layer 1" xmlns="http://www.w3.org/2000/svg" viewBox="0 0 72 72">
  <defs>
    <style>
      .cls-1 {
        fill: #5a2b5f;
        stroke: #5a2b5f;
        stroke-miterlimit: 10;
      }
    </style>
  </defs>
  <path class="cls-1" d="M44.13,55.89c.95,1.8,.93,4.69-.87,6.07,.23,1.01,.27,2.04-.02,3.06-.28,.99-.77,1.62-1.34,1.94,.03,.76,.12,1.45,.07,2.11-.14,1.76-1.01,3.05-2.12,3.07-2.59,.04-5.18,.06-7.77-.03-1.66-.06-2.26-.41-3.8-1.71-.45,1.57-1.3,1.85-2.26,1.77-.64-.05-1.27,0-1.91-.01-1.16-.02-1.89-1.18-1.9-3.05,0-5.47,0-10.95,0-16.42,0-1.84,.74-3,1.87-3,.71,0,1.42,.03,2.12-.01,.68-.04,1.3,.1,1.78,1.01,1.38-1.42,2.53-3.16,3.51-5.2,.93-1.93,1.59-4.06,1.95-6.44,.18-1.18,.34-2.42,.98-3.21,.85-1.06,1.81-1.39,2.83-.73,.77,.5,1.05,1.61,1.17,2.84,.18,1.88-.02,3.72-.3,5.53-.23,1.47-.52,2.91-.8,4.35-.19,.97,.01,1.48,.63,1.49,1.41,.01,2.83,.02,4.24,0,1.02,0,1.89,.47,2.35,2.07,.46,1.61,.33,3.13-.43,4.52Zm-15.7,4.3c0,2.07,.05,4.15-.02,6.21-.04,1.16,.29,1.79,.83,2.32,.94,.93,1.98,1.23,3.05,1.24,2.46,.03,4.92,.01,7.39,.02,.38,0,.7-.18,.89-.74,.2-.58,.13-1.13-.09-1.68-.49-1.22-.14-2.51,.75-2.59,.73-.07,1.17-1.47,.66-2.48-.57-1.13-.21-2.41,.69-2.57,.41-.07,.7-.36,.82-1.01,.12-.67-.03-1.21-.37-1.63-.67-.85-.65-1.86-.01-2.75,.21-.29,.4-.74,.45-1.17,.12-1.13-.32-1.86-1.07-1.87-1.47-.02-2.94,0-4.41-.02-1.52,0-2.37-1.94-1.91-4.3,.33-1.69,.64-3.38,.9-5.1,.2-1.32,.33-2.67,.15-4.03-.07-.53-.19-1.06-.6-1.08-.73-.04-1.36,.16-1.57,1.63-.06,.4-.12,.8-.21,1.19-.29,1.29-.52,2.64-.91,3.85-1.13,3.57-2.8,6.39-4.85,8.6-.4,.43-.56,.89-.55,1.67,.03,2.09,.01,4.19,.01,6.28Zm-1.34,.75c0-.14,0-.28,0-.41,0-2.57,0-5.15,0-7.72,0-.52-.09-.94-.46-.94-.88-.02-1.75-.04-2.63,.02-.15,.01-.33,.4-.43,.67-.07,.22-.04,.54-.04,.81,0,5.19,0,10.39,.02,15.58,0,.82,.13,1.02,.63,1.03,.71,0,1.41,0,2.12,0,.71,0,.79-.13,.79-1.25,0-2.6,0-5.2,0-7.79Z"/>
  <path class="cls-1" d="M29.17,11.95c1.05,0,2.09-.02,3.14,.01,.31,0,.44-.16,.53-.64,.62-3.2,1.28-6.38,1.9-9.58,.27-1.42,1.08-1.78,1.66-1.48,.44,.23,.69,.76,.83,1.45,.63,3.17,1.28,6.33,1.89,9.51,.11,.56,.26,.74,.62,.73,2.01-.03,4.02-.02,6.03-.02,.76,0,1.22,.46,1.41,1.39,.19,.97-.01,1.8-.63,2.54-1.62,1.92-3.24,3.85-4.88,5.75-.3,.34-.34,.64-.23,1.19,.64,3.09,1.25,6.2,1.87,9.31,.23,1.17,.11,2.01-.39,2.6-.52,.61-1.05,.57-1.67-.19-.26-.32-.47-.77-.73-1.08-.21-.25-.48-.35-.69-.6-1.19-1.38-2.36-2.77-3.53-4.18-.22-.27-.37-.25-.58,0-1.68,2-3.36,3.99-5.05,5.96-.86,1.01-1.95,.34-2.07-1.28-.03-.43,.04-.91,.13-1.34,.61-3.13,1.24-6.26,1.87-9.38,.09-.42,.05-.64-.18-.91-1.67-1.95-3.32-3.92-4.98-5.88-.59-.69-.8-1.52-.62-2.49,.17-.93,.64-1.41,1.39-1.42,.99,0,1.98,0,2.97,0h0Zm12.83,20.78c-.07-.44-.11-.68-.15-.91-.63-3.17-1.27-6.34-1.9-9.51-.18-.92-.12-1.19,.36-1.76,1.66-1.96,3.32-3.92,4.98-5.88,.12-.15,.24-.31,.36-.46-2.23-.13-4.41-.13-6.58-.13-.68,0-.79-.15-1-1.2-.63-3.17-1.26-6.34-1.9-9.51-.04-.2-.09-.39-.17-.72-.06,.26-.08,.37-.1,.47-.65,3.23-1.3,6.47-1.94,9.7-.22,1.1-.34,1.26-1.06,1.26-2.04,0-4.08,0-6.11,0-.13,0-.27,0-.4,0,.1,.3,.23,.46,.36,.62,1.64,1.93,3.28,3.86,4.91,5.79,.56,.66,.59,.86,.38,1.92-.39,1.95-.78,3.89-1.16,5.84-.28,1.41-.56,2.82-.88,4.44,.21-.22,.32-.32,.41-.43,1.67-1.97,3.34-3.95,5.01-5.92,.51-.6,.68-.6,1.17-.01,1.12,1.32,2.24,2.65,3.36,3.97,.65,.77,1.3,1.53,2.06,2.42Z"/>
  <path class="cls-1" d="M19.79,34.73c-1.28,1.51-2.52,2.98-3.77,4.45-.11,.14-.23,.28-.34,.41-.53,.62-1.05,.66-1.49,.13-.43-.52-.56-1.3-.36-2.29,.46-2.34,.92-4.69,1.41-7.01,.14-.66,.08-1-.27-1.4-1.24-1.4-2.45-2.88-3.68-4.33-.52-.62-.7-1.35-.55-2.19,.16-.86,.57-1.33,1.24-1.34,1.56-.01,3.11-.02,4.67,0,.32,0,.47-.15,.57-.66,.47-2.43,.97-4.85,1.45-7.28,.13-.68,.37-1.19,.81-1.38,.65-.28,1.21,.24,1.44,1.38,.47,2.34,.95,4.67,1.39,7.02,.13,.73,.34,.94,.79,.93,1.47-.05,2.94-.04,4.41,0,.31,0,.67,.12,.92,.39,.65,.71,.61,2.23-.07,3.04-1.27,1.53-2.56,3.04-3.85,4.53-.27,.31-.31,.58-.21,1.07,.49,2.37,.96,4.76,1.44,7.14,.21,1.07,.09,1.87-.37,2.4-.45,.51-.94,.45-1.49-.19-1.35-1.59-2.7-3.19-4.08-4.82Zm-4.55,2.65c.17-.19,.24-.26,.3-.34,1.25-1.47,2.5-2.93,3.74-4.41,.35-.41,.66-.42,1,0,.63,.77,1.28,1.52,1.92,2.28,.67,.79,1.34,1.57,2.1,2.46-.07-.39-.1-.6-.14-.82-.45-2.27-.9-4.55-1.36-6.82-.15-.72-.05-1.22,.34-1.66,1.21-1.4,2.41-2.83,3.61-4.25,.1-.12,.19-.26,.36-.49-1.71,0-3.29,0-4.88,0-.6,0-.74-.16-.93-1.07-.23-1.16-.46-2.32-.69-3.48-.26-1.31-.53-2.62-.82-4.09-.07,.32-.11,.47-.14,.62-.45,2.25-.9,4.5-1.35,6.75-.23,1.14-.32,1.27-1.05,1.27-1.19,0-2.38,0-3.57,0-.37,0-.75,0-1.23,0,.15,.21,.22,.32,.29,.4,1.15,1.37,2.31,2.74,3.47,4.1,.71,.83,.74,.97,.47,2.29-.47,2.36-.94,4.71-1.46,7.27Z"/>
  <path class="cls-1" d="M47.81,29.56c-1.38-1.64-2.73-3.24-4.08-4.83-.56-.66-.74-1.41-.56-2.3,.17-.84,.58-1.26,1.27-1.26,1.56,0,3.11-.02,4.67,0,.29,0,.42-.15,.51-.6,.47-2.43,.96-4.86,1.45-7.28,.25-1.24,.87-1.78,1.54-1.39,.43,.25,.63,.81,.76,1.47,.47,2.36,.95,4.72,1.4,7.09,.1,.52,.23,.72,.59,.71,1.53-.04,3.06-.02,4.58,0,.71,0,1.13,.42,1.31,1.29,.18,.89-.01,1.63-.61,2.33-1.21,1.43-2.42,2.88-3.64,4.29-.3,.35-.38,.64-.26,1.23,.5,2.39,.97,4.8,1.45,7.2,.15,.76,.1,1.46-.25,2.04-.42,.7-1.02,.73-1.58,.07-1.27-1.49-2.54-2.99-3.81-4.5-.24-.28-.39-.34-.65-.03-1.23,1.5-2.49,2.96-3.73,4.43-.56,.67-1.07,.75-1.52,.23-.47-.54-.58-1.35-.35-2.47,.51-2.55,1.02-5.11,1.54-7.71Zm11.63-6.08c0-.05-.02-.1-.03-.16-.17,0-.33,0-.5,0-1.44,0-2.89-.02-4.33,0-.47,0-.73-.31-.86-1.04-.2-1.12-.44-2.23-.66-3.35-.27-1.37-.55-2.73-.86-4.26-.07,.31-.11,.44-.14,.58-.46,2.32-.92,4.63-1.39,6.95-.18,.91-.33,1.1-.92,1.1-1.51,0-3.03,0-4.54,0-.08,0-.17,.04-.33,.08,1.36,1.61,2.65,3.13,3.94,4.66,.45,.53,.5,.84,.33,1.71-.46,2.32-.92,4.64-1.38,6.95-.03,.15-.05,.32-.08,.6,.16-.18,.26-.28,.35-.39,1.2-1.42,2.4-2.84,3.61-4.25,.47-.55,.64-.54,1.1,0,.7,.82,1.39,1.65,2.09,2.48,.6,.71,1.2,1.41,1.89,2.21-.05-.29-.07-.42-.1-.54-.45-2.25-.9-4.5-1.35-6.75-.26-1.29-.22-1.45,.45-2.24,1.24-1.45,2.47-2.91,3.7-4.37Z"/>
  <path class="cls-1" d="M65.05,40.34c-1,1.18-1.96,2.35-2.95,3.45-.24,.27-.58,.46-.86,.43-.65-.08-1.01-1.11-.81-2.2,.33-1.73,.67-3.46,1.04-5.17,.11-.49,.04-.72-.21-1-.87-.99-1.72-2.01-2.58-3.03-.53-.62-.69-1.26-.53-2.05,.16-.8,.51-1.15,1.17-1.15,1.07,0,2.15-.01,3.22,0,.27,0,.39-.13,.48-.56,.31-1.67,.65-3.33,.99-4.98,.21-1.03,.52-1.46,1.03-1.46,.52,0,.85,.46,1.06,1.51,.32,1.59,.66,3.18,.95,4.79,.1,.59,.28,.72,.62,.71,1.1-.03,2.21-.02,3.31,0,.49,.01,.82,.43,.96,1.12,.14,.68,.02,1.34-.35,1.84-.12,.16-.25,.31-.37,.46-.79,.93-1.57,1.88-2.37,2.78-.27,.3-.31,.57-.2,1.07,.36,1.65,.69,3.31,.99,4.98,.08,.43,.09,.98,0,1.39-.23,1.02-.97,1.29-1.56,.61-1-1.15-1.99-2.34-3.02-3.55Zm-4.79-8.57s-.03,.09-.04,.13c.1,.12,.19,.26,.29,.37,.71,.84,1.41,1.69,2.13,2.51,.37,.42,.46,.94,.32,1.61-.28,1.39-.56,2.79-.84,4.19-.03,.16-.05,.32-.08,.61,.88-1.04,1.69-1.98,2.5-2.95,.36-.43,.69-.42,1.04,0,.72,.88,1.46,1.73,2.19,2.59,.08,.09,.17,.16,.33,.31-.33-1.66-.63-3.19-.94-4.71-.15-.71-.07-1.23,.32-1.67,.71-.8,1.4-1.64,2.09-2.47,.11-.13,.21-.26,.31-.38-.04-.09-.05-.13-.06-.13-.95-.01-1.89-.02-2.84-.03-.68,0-.79-.14-1-1.19-.29-1.48-.59-2.96-.92-4.63-.09,.41-.14,.63-.19,.86-.26,1.29-.51,2.58-.77,3.86-.18,.91-.32,1.09-.92,1.09-.97,0-1.95,0-2.92,0Z"/>
  <path class="cls-1" d="M2.78,29.61c.55,0,1.1-.02,1.66,.01,.27,.02,.4-.14,.48-.56,.32-1.67,.66-3.33,.99-4.99,.2-1.01,.52-1.46,1.03-1.46,.51,0,.84,.46,1.04,1.44,.32,1.62,.66,3.23,.96,4.85,.1,.51,.23,.73,.58,.71,1.06-.05,2.12-.02,3.18-.02,.6,0,.98,.39,1.13,1.14,.15,.77,0,1.44-.49,2.01-.88,1.04-1.76,2.08-2.66,3.09-.21,.24-.27,.45-.19,.85,.36,1.74,.7,3.49,1.05,5.24,.15,.72,.08,1.37-.28,1.88-.4,.57-.88,.56-1.36,0-.88-1.04-1.77-2.06-2.64-3.13-.24-.29-.4-.33-.66-.02-.84,1.04-1.71,2.04-2.57,3.05-.52,.62-.95,.68-1.37,.2-.41-.47-.51-1.18-.32-2.17,.33-1.68,.67-3.37,1.01-5.05,.08-.36,.05-.57-.15-.8-.89-1.02-1.78-2.05-2.64-3.13-.24-.3-.47-.76-.56-1.23-.18-.98,.31-1.92,.97-1.96,.59-.03,1.19,0,1.78,0h0Zm1.14,11.41l.07,.1c.79-.93,1.58-1.86,2.37-2.79,.49-.58,.68-.57,1.18,.01,.79,.93,1.57,1.85,2.44,2.88-.07-.41-.11-.67-.16-.93-.26-1.29-.51-2.58-.78-3.86-.15-.71-.05-1.23,.33-1.67,.73-.83,1.44-1.7,2.16-2.55,.08-.1,.15-.22,.31-.44-1.05,0-1.99,0-2.93,0-.73,0-.81-.1-1.04-1.2-.06-.28-.11-.57-.17-.85-.24-1.19-.48-2.38-.72-3.57-.38,1.45-.67,2.9-.96,4.35-.24,1.18-.31,1.27-1.09,1.27-.83,0-1.67,0-2.5,0-.1,0-.2,.04-.39,.08,.87,1.02,1.64,1.93,2.42,2.85,.5,.59,.56,.87,.37,1.82-.3,1.51-.6,3.01-.9,4.51Z"/>
</svg>