<?xml version="1.0" encoding="UTF-8"?>
<svg id="Layer_1" data-name="Layer 1" xmlns="http://www.w3.org/2000/svg" viewBox="0 0 200 200">
  <defs>
    <style>
      .cls-1 {
        fill: #fbb247;
      }
    </style>
  </defs>
  <path class="cls-1" d="M100.56,.11c29.74,0,59.48,0,89.21,0,6.94,0,10.65,4.6,10.65,13.21,0,57.76,0,115.52,0,173.28,0,8.62-3.72,13.35-10.59,13.36-59.4,.02-118.79,.03-178.19,.02-7.57,0-11.15-4.5-11.15-13.9,0-57.36,.06-114.73-.07-172.09C.41,5.9,4.39-.08,11.59-.01c29.66,.29,59.32,.12,88.97,.12Zm-.21,36.07c-30.77,0-61.55,.02-92.32-.05-1.96,0-2.72,.36-2.72,3.17,.08,48.9,.06,97.79,.06,146.69,0,5.9,1.59,7.86,6.34,7.86,59.23,0,118.47,0,177.7,0,4.57,0,6.13-1.99,6.13-7.77,0-48.8-.02-97.59,.05-146.39,0-2.92-.66-3.59-2.93-3.58-30.77,.1-61.55,.06-92.32,.06Zm-.09-6.06c30.85,0,61.7-.02,92.54,.05,1.99,0,2.83-.39,2.7-3.2-.21-4.56-.05-9.16-.06-13.74-.02-5.12-1.54-7.01-5.65-7.01-59.54,0-119.09,0-178.63,0-4.08,0-5.75,2.08-5.79,7.27-.03,4.48,.14,8.97-.06,13.44-.12,2.72,.58,3.25,2.65,3.24,30.77-.09,61.54-.06,92.3-.06Z"/>
  <path class="cls-1" d="M148.92,72.68c-.86,8.27-1.73,16.54-2.57,24.81-1.06,10.44-2.08,20.89-3.13,31.33-.67,6.7-1.37,13.39-2,20.09-.13,1.33-.57,2.16-1.5,2.8-12.93,8.92-25.85,17.85-38.75,26.83-1.25,.87-2.26,.9-3.52,.01-12.52-8.8-25.05-17.6-37.64-26.24-1.42-.98-1.85-2.06-2.02-3.9-1.64-17.85-3.37-35.69-5.04-53.54-.69-7.4-1.27-14.81-1.95-22.21-.12-1.34,.22-2,1.22-2.44,12.52-5.47,25.2-10.43,37.47-16.68,6.89-3.5,12.85-3.56,19.71-.12,10.67,5.35,21.72,9.51,32.61,14.17,1.8,.77,3.59,1.63,5.44,2.18,1.37,.41,1.93,1.18,1.67,2.9Zm-50.26,53.76c4.68,.6,9.37,.07,14.05,.08,1.57,0,2.55,.27,3.23,2.43,1.83,5.81,3.97,11.46,5.97,17.18,.31,.89,.4,2.05,1.44,2.06,3.6,.03,7.21,.01,11.04,.01-4.15-11.07-8.18-21.83-12.21-32.58-3.63-9.69-7.27-19.37-10.9-29.05-3.87-10.31-7.75-20.63-11.62-30.94-.12-.32-.1-.83-.54-.75-.09,.02-.15,.3-.22,.46-11.15,30.85-22.29,61.71-33.46,92.63,4.04,0,7.7-.04,11.36,.03,1.02,.02,1.35-.64,1.67-1.65,1.88-5.89,3.9-11.71,5.66-17.66,.58-1.95,1.41-2.22,2.82-2.2,3.9,.07,7.81-.03,11.71-.05Z"/>
  <path class="cls-1" d="M99.11,114.49c-2.53-.07-5.07-.3-7.59-.15-2.1,.13-2.19-.65-1.45-2.81,3.08-8.97,6.05-18.01,9.06-27.02,1.93,3.28,2.96,7.13,4.4,10.72,2.16,5.38,4.18,10.84,6.31,16.23,.83,2.1,.82,3.13-1.47,2.99-3.08-.19-6.18,0-9.27,.04Z"/>
</svg>