<?xml version="1.0" encoding="UTF-8"?>
<svg id="Layer_1" data-name="Layer 1" xmlns="http://www.w3.org/2000/svg" viewBox="0 0 200 320">
  <defs>
    <style>
      .cls-1 {
        fill: #fbb247;
      }
    </style>
  </defs>
  <path class="cls-1" d="M100.02,0h82.17c2.64,0,3.52,.81,4.12,3.72,4.41,21.43,8.84,42.86,13.23,64.29,.29,1.4,.43,2.87,.44,4.31,.03,5.47,0,10.94-.07,16.42-.1,8.44-5.06,15.91-12.13,18.14-1.35,.43-1.67,1.06-1.67,2.58,.04,36.5,.04,72.99,.04,109.49,0,25.54,.02,51.07,0,76.61,0,11.2-6.07,20.52-15.26,23.47-1.96,.63-4.07,.93-6.11,.93-43.13,.05-86.25,.05-129.38,.03-12.27,0-21.39-10.59-21.4-24.78-.01-18.61,.04-37.23,.04-55.85,0-43.41-.04-86.83-.04-130.25,0-1.23-.24-1.8-1.36-2.15C5.21,104.61,.38,97.31,.27,88.5c-.03-2.09,.05-4.2-.11-6.28-.8-10.06,1.49-19.59,3.51-29.19C7.11,36.65,10.46,20.23,13.84,3.84c.63-3.08,1.41-3.84,4.17-3.84H100.02Zm66.01,239.19V103.67c-9.21,6.54-17.35,5.22-24.55-4.01-3.55,5.15-8.06,8.03-13.81,8.01s-10.22-2.98-13.78-8.14c-3.57,5.25-8.07,8.14-13.82,8.14s-10.31-2.94-13.83-8.14c-6.23,9.83-19.78,11.85-27.66,.23-7.18,9.16-15.31,10.43-24.47,3.9V239.19H166.03Zm-145.73,24.98c-.04,.33-.09,.54-.09,.77,0,10.54-.1,21.08,.08,31.61,.04,2.4,.73,4.98,1.7,7.14,3.04,6.74,8.2,9.29,14.62,9.21,9.93-.13,19.85-.12,29.78-.13,16.33-.02,32.67-.01,49,0,8.2,0,16.4,.07,24.6,.09,8.18,0,16.35-.15,24.53,0,8.53,.16,15.42-7.38,15.44-17.24,0-9.83,0-19.67,0-29.51v-1.92H20.3ZM172.44,103.87c-.02,.32-.07,.77-.07,1.22,0,21.17-.04,42.35-.03,63.52,0,24.44,.03,48.87,.04,73.31,0,3.18-1.09,4.46-3.85,4.46H31.59c-2.72,0-3.79-1.31-3.79-4.51V105.5c0-.61-.04-1.21-.06-1.64-2.49,1.3-4.9,2.56-7.45,3.88v149.03H179.92V107.79c-2.62-1.38-5.03-2.62-7.48-3.91ZM91.23,7.22c-.59,19.94-1.17,39.78-1.76,59.65h21.21c-.59-19.96-1.18-39.75-1.77-59.65h-17.68Zm23.93-.01c.59,20.02,1.17,39.83,1.75,59.71h21.18c-1.75-19.98-3.48-39.84-5.22-59.71h-17.71Zm-30.16,.22c-.26-.16-.34-.26-.43-.26-5.44-.02-10.88-.06-16.33,0-.35,0-.95,.78-1.01,1.26-.49,4.55-.9,9.12-1.3,13.69-.98,11.21-1.95,22.42-2.92,33.63-.32,3.68-.63,7.36-.95,11.17h21.17c.59-19.9,1.17-39.74,1.76-59.5h.01Zm80.53,59.51c-2.94-20.05-5.86-39.88-8.76-59.66h-17.67c1.77,19.97,3.53,39.78,5.29,59.66h21.14ZM61.05,7.37c-.27-.11-.41-.21-.55-.21-5.39-.01-10.79-.04-16.18,.03-.37,0-.97,.75-1.05,1.23-1.05,6.68-2.03,13.37-3.02,20.05-1.51,10.25-3.01,20.5-4.51,30.75-.37,2.54-.72,5.09-1.1,7.81,6.91,0,13.56,.02,20.2-.05,.35,0,.94-.76,1-1.23,.29-2.24,.44-4.5,.64-6.76,1.18-13.34,2.37-26.7,3.55-40.04,.34-3.86,.67-7.72,1.01-11.57h0Zm-23.94,0c-.3-.13-.44-.23-.57-.23-5.34-.01-10.69-.04-16.03,.04-.41,0-1.08,.77-1.19,1.29-3.95,18.91-7.86,37.83-11.76,56.76-.11,.53-.16,1.08-.25,1.7H28.3c2.95-19.9,5.88-39.73,8.81-59.56h0Zm155.7,59.66c-.08-.71-.1-1.17-.19-1.62-3.9-18.94-7.82-37.88-11.7-56.82-.23-1.11-.63-1.49-1.63-1.48-5.04,.05-10.09,.02-15.13,.03-.33,0-.66,.1-1.06,.15,.04,.38,.05,.67,.09,.95,1.16,7.89,2.33,15.79,3.49,23.69,1.63,11.11,3.28,22.23,4.88,33.35,.19,1.33,.62,1.83,1.84,1.78,2.72-.12,5.45-.03,8.17-.03h11.24ZM6.37,74.28c0,4.98-.11,9.75,.06,14.5,.06,1.73,.55,3.55,1.23,5.11,2.27,5.21,7.18,7.66,12.08,6.26,4.71-1.33,8.02-6.28,8.05-12.04,.01-3.49,0-6.98,0-10.46v-3.36H6.37Zm83.03-.01c0,5.02-.18,9.85,.05,14.65,.26,5.67,3.31,9.79,8.07,11.23,6.59,2.01,12.57-3.62,13.07-9.89,.41-5.18,.1-10.44,.1-15.66,0-.09-.11-.18-.21-.32h-21.08Zm48.84,.04h-21.26v4.67c0,2.97,.05,5.94-.02,8.91-.06,2.55,.61,4.8,1.77,6.91,2.41,4.35,6.82,6.49,11.26,5.45,4.04-.94,7.84-4.96,8.16-9.63,.37-5.35,.09-10.78,.09-16.31Zm-76.56-.04c0,3.64-.03,7.18,0,10.71,.03,1.97-.03,3.99,.32,5.9,1.05,5.87,5.91,10.06,10.93,9.63,5.48-.46,9.82-5.17,10.14-11.27,.19-3.58,.08-7.2,.1-10.79v-4.16h-21.5Zm83.01-.03c0,5.02-.2,9.86,.05,14.66,.35,6.81,5.3,11.86,10.97,11.62,5.92-.26,10.39-5.71,10.39-12.68v-13.59h-21.41Zm-89.42,.04h-21.1c-.05,.34-.11,.57-.11,.79,0,4.53-.07,9.08,.03,13.61,.14,6.5,4.79,11.68,10.47,11.83,5.49,.15,10.4-4.7,10.76-11.07,.27-4.86,.1-9.76,.11-14.65,0-.16-.1-.32-.17-.52h0Zm117.26-.04c-.07,.32-.14,.49-.14,.65,0,4.48-.04,8.96,0,13.44,.05,6.23,4.02,11.31,9.41,12.1,5.22,.76,10.38-3.02,11.48-9.03,.64-3.52,.41-7.26,.52-10.91,.06-2.06,0-4.12,0-6.24,0,0-21.28,0-21.28,0Z"/>
  <path class="cls-1" d="M75.72,186.23c-.5,3.62,.89,5.57,3.86,5.57h46.91c2.81,0,4.32,1.22,4.37,3.52,.05,2.4-1.48,3.71-4.37,3.71h-46.61c-6.52,0-10.62-4.71-10.61-12.19,.01-10.18,.06-20.35,.07-30.53,0-6.63-.05-13.27-.08-19.9,0-.34-.03-.67-.07-1.24-2.51,0-4.97,.13-7.41-.06-.97-.07-2.23-.54-2.75-1.35-.56-.86-.68-2.4-.5-3.53,.23-1.41,1.36-2.22,2.6-2.24,3.78-.07,7.57-.12,11.35,0,2.03,.06,3.05,1.65,3.05,4.32v46.76h1.8c12.06,0,24.11-.02,36.17,.03,1.17,0,1.82-.47,2.45-1.53,3.59-6.05,7.22-12.06,10.84-18.09,1.66-2.77,3.34-5.54,5-8.3,.28-.46,.53-.94,.95-1.71h-46.48c-.6,0-1.22,.03-1.81-.11-1.56-.36-2.55-1.86-2.5-3.64,.05-1.74,1.17-3.18,2.71-3.43,.4-.06,.81-.04,1.21-.04h52.21c2.53,0,4.01,1.53,3.76,3.96-.07,.71-.37,1.46-.73,2.06-7.22,12.05-14.46,24.07-21.69,36.12-.83,1.38-1.94,1.85-3.37,1.85-12.86-.03-25.72-.01-38.59-.01h-1.74Z"/>
  <path class="cls-1" d="M114.97,208.19c0,3.43-2.43,6.19-5.4,6.14-2.89-.05-5.24-2.83-5.23-6.18,.01-3.41,2.49-6.22,5.41-6.15,2.91,.07,5.22,2.82,5.21,6.19h.01Zm-4.13-.1c-.58-.42-.96-.91-1.23-.83-.3,.09-.64,.64-.69,1.03-.03,.23,.49,.8,.73,.78,.33-.04,.63-.49,1.18-.98h.01Z"/>
  <path class="cls-1" d="M85.2,208.19c0-3.45,2.43-6.25,5.35-6.19,2.88,.06,5.31,2.89,5.28,6.15-.03,3.41-2.48,6.23-5.4,6.18-2.93-.05-5.24-2.76-5.24-6.13h.01Zm5.19-1.44c-.34,.73-.69,1.14-.67,1.53,.02,.3,.57,.85,.76,.79,.33-.12,.77-.6,.79-.95,.02-.34-.44-.71-.88-1.37Z"/>
  <path class="cls-1" d="M82.18,288.84c-.09-11.37,7.82-20.57,17.82-20.71,9.76-.14,17.89,9.06,17.99,20.36,.1,11.47-7.8,20.9-17.61,21-10.08,.11-18.11-8.99-18.2-20.65Zm17.87,13.42c6.44,0,11.67-5.95,11.73-13.35,.06-7.42-5.26-13.62-11.69-13.61-6.45,0-11.78,6.17-11.74,13.57,.04,7.39,5.29,13.41,11.7,13.41h0Z"/>
</svg>