<?xml version="1.0" encoding="UTF-8"?>
<svg id="Layer_1" data-name="Layer 1" xmlns="http://www.w3.org/2000/svg" viewBox="0 0 200 200">
  <defs>
    <style>
      .cls-1 {
        fill: #fbb247;
      }
    </style>
  </defs>
  <path class="cls-1" d="M142.15,160.28H56.08c0-23.92,0-47.17,0-70.41,0-25.14,.16-50.28-.08-75.42-.1-10.28,2.7-14.77,10.39-14.65,22.22,.35,44.45,.23,66.68,.05,5.97-.05,10.07,2.25,10.06,11.59-.03,48.79-.08,97.59-.16,146.38,0,.64-.42,1.29-.82,2.45Zm-11.16-143.43h-62.55v20.06h62.55V16.85Zm-.03,35.68h-62.53v20.31h62.53v-20.31Zm.06,72.41h-62.65v19.97h62.65v-19.97Zm-62.79-16.41h62.78v-19.55h-62.78v19.55Z"/>
  <path class="cls-1" d="M183.04,50.21V31.88h-35.8v-13.9c13.43,0,26.73-.43,39.99,.44,2.13,.14,5.79,6.05,5.82,9.35,.4,41.7,.26,83.4,.26,126.04h-46.14v-11.87h35.64v-18.17h-35.61v-12.71h35.7v-17.74h-35.71v-13.04h35.79v-17.82h-35.88v-12.26h35.94Z"/>
  <path class="cls-1" d="M51.98,79.99v12.72H16.24v17.9H51.64v13.11H16.14v17.45H51.79v12.98H6.4c-.24-3.33-.62-6.17-.62-9-.04-37.68,.12-75.36-.13-113.03-.07-10.38,2.53-14.78,10.3-14.39,11.73,.58,23.48,.15,35.84,.15v13.43H16.31v18.38H51.91c.17,4.41,.3,7.58,.47,12H16.37v18.29H51.98Z"/>
  <path class="cls-1" d="M99.56,165.46c14.16,0,28.33,.18,42.49-.07,6.14-.11,8.94,3.41,8.56,11.9-.15,3.31-.15,6.65,0,9.96,.38,8.77-2.16,12.64-8.88,12.56-28.06-.31-56.12-.31-84.18,0-6.62,.07-9.38-3.56-9.02-12.43,.13-3.31,.13-6.65,0-9.96-.35-8.42,2.42-12.11,8.55-12.03,14.16,.2,28.33,.06,42.49,.07Z"/>
  <path class="cls-1" d="M49.87,158.14c-1.94,9.76-3.67,18.43-5.8,29.12-12.61,0-26.6,0-40.6-.01-.26,0-.71-.14-.74-.32C1.69,179.83,.04,172.73,0,165.61c-.02-2.46,3.91-7.04,6.12-7.14,14.88-.64,29.77-.33,43.76-.33Z"/>
  <path class="cls-1" d="M147.6,158.18c15.67,0,31.09-.26,46.49,.35,1.86,.07,4.5,4.5,5.19,7.59,.9,4.04,.97,9.12,0,13.08-.8,3.25-3.6,7.78-5.63,7.89-13.04,.71-26.12,.36-40.58,.36,0-5.88,.63-11.05-.19-15.76-.73-4.25-3.04-7.99-5.29-13.51Z"/>
</svg>