<?xml version="1.0" encoding="UTF-8"?>
<svg id="Layer_1" data-name="Layer 1" xmlns="http://www.w3.org/2000/svg" viewBox="0 0 200 200">
  <defs>
    <style>
      .cls-1 {
        fill: #f8c03d;
      }
    </style>
  </defs>
  <path class="cls-1" d="M145.3,1.02c3.85,0,7.69-.08,11.54,.02,3.52,.1,6.13,4.15,6.33,9.58,.18,4.95-2.19,9.59-5.45,10.39-1.52,.37-3.08,.48-4.62,.56-.94,.05-1.28,.54-1.32,2.04-.22,6.89-.27,7,4.11,8.38,11.5,3.62,21.2,12.25,29.38,25.08,7.87,12.36,12.3,27.44,14.11,44.4,1.53,14.37,1.22,28.6-1.99,42.47-2.27,9.81-5.68,18.58-10.07,26.43-6.89,12.34-15.12,21.64-25.28,26.56-5.35,2.59-10.84,3.92-16.42,3.98-5.64,.07-8.92-8.24-6.2-15.47,1.41-3.75,3.75-4.99,6.43-5.06,8.3-.21,16.02-3.53,22.77-11.12,10.25-11.53,17.21-26.62,18.25-46.49,1.49-28.44-7.67-59.55-30.1-69.26-3.78-1.64-7.6-2.54-11.52-2.71-4.1-.17-6.71-4.35-6.76-10.72-.04-5.32-.06-10.65,.02-15.97,.03-2.02-.42-2.66-1.68-2.58-1.49,.09-2.98,0-4.45-.52-3.64-1.3-5.65-5.59-5.29-11.32,.32-5.05,2.89-8.58,6.52-8.67,3.9-.1,7.81-.02,11.71-.02,0,0,0,0,0,0Z"/>
  <path class="cls-1" d="M59.78,50.34c-17.45,0-34.9,0-52.36,0-4.46,0-7.39-4.61-7.15-11.14,.16-4.53,2.48-8.47,5.39-9.04,1.19-.23,2.4-.37,3.6-.37,33.18-.02,66.37-.01,99.55-.02,1.55,0,3.09,.05,4.64,.3,3.78,.61,6.05,4.21,6.06,9.86,.01,5.91-2.31,9.84-6.16,10.36-.68,.09-1.38,.05-2.07,.05-17.17,0-34.33,0-51.5,0Z"/>
  <path class="cls-1" d="M70.21,80.22c14.13,0,28.25,.15,42.38-.09,4.56-.08,7.03,5.17,7.1,10.44,.07,5.56-3.04,9.88-7.12,9.88-27.05,.03-54.09,0-81.14,0-1.49,0-2.99,.07-4.48-.03-3.59-.24-6.44-4.84-6.38-10.18,.07-5.85,2.76-10.02,6.57-10.02,14.36-.02,28.71,0,43.07,0Z"/>
  <path class="cls-1" d="M85.38,130.29c9.07,0,18.14-.04,27.21,.02,3.98,.02,6.44,3.32,7.03,9.17,.52,5.16-2.28,10.69-5.66,11.06-1.88,.21-3.78,.35-5.67,.35-15.5,.03-31,.02-46.5,0-1.54,0-3.09-.14-4.63-.33-3.83-.48-6.08-4.6-5.96-10.85,.1-5.24,2.85-9.33,6.46-9.35,9.24-.05,18.48-.02,27.73-.02v-.05Z"/>
  <path class="cls-1" d="M138.47,96.85c0-6.65,0-13.31,0-19.96,.01-6.64,2.54-10.9,6.48-10.97,3.98-.07,6.74,4.29,6.78,10.93,.05,7.98,0,15.97,.01,23.95,0,3.2,.06,3.28,2.01,2.44,3.48-1.49,6.94-3.09,10.43-4.5,2.58-1.04,5.05-.73,6.96,2.61,1.78,3.12,2.24,6.74,1.35,10.66-.76,3.37-2.46,5.31-4.59,6.27-6.88,3.11-13.75,6.24-20.67,9.15-5.07,2.13-8.75-2.46-8.76-10.62,0-6.65,0-13.31,0-19.96Z"/>
  <path class="cls-1" d="M98.16,180.4c4.88,0,9.76-.08,14.63,.03,2.85,.06,5.17,1.93,6.32,6.12,1.05,3.79,.66,7.47-1.02,10.73-1.5,2.9-3.61,3.65-5.84,3.66-9.41,.05-18.82,.05-28.23,0-2.36-.01-4.59-.87-6.12-3.95-1.66-3.34-1.69-7.02-.63-10.78,1.16-4.09,3.41-5.68,6.09-5.76,4.93-.15,9.87-.04,14.8-.05Z"/>
</svg>