<?xml version="1.0" encoding="UTF-8"?>
<svg id="Layer_1" data-name="Layer 1" xmlns="http://www.w3.org/2000/svg" viewBox="0 0 200 350">
  <defs>
    <style>
      .cls-1 {
        fill: #fcfcfd;
      }

      .cls-2 {
        fill: #f7f8f8;
      }

      .cls-3 {
        letter-spacing: 0em;
      }

      .cls-4 {
        letter-spacing: 0em;
      }

      .cls-5 {
        letter-spacing: -.04em;
      }

      .cls-6 {
        font-family: MyriadPro-Regular, 'Myriad Pro';
        font-size: 14.98px;
      }

      .cls-6, .cls-7 {
        fill: #fbb247;
      }

      .cls-8 {
        fill: #ecedee;
      }

      .cls-9 {
        fill: #fdfdfd;
      }

      .cls-10 {
        letter-spacing: 0em;
      }

      .cls-11 {
        letter-spacing: -.02em;
      }

      .cls-12 {
        fill: #fbfbfb;
      }

      .cls-13 {
        fill: #eaeced;
      }

      .cls-14 {
        letter-spacing: -.01em;
      }

      .cls-15 {
        fill: #f8f8f8;
      }

      .cls-16 {
        fill: #fefefe;
      }
    </style>
  </defs>
  <path class="cls-7" d="M200,175.06c0,48.93,0,97.86,0,146.8,0,6.21-1.61,12.01-5.91,17.09-6.31,7.45-15.02,10.97-25.52,10.99-45.76,.07-91.52,.07-137.27,0-15.2-.02-27.16-8.35-30.51-21.07-.63-2.4-.75-4.94-.75-7.42C0,223.68,0,125.9,0,28.12,.01,14.03,8.4,4.24,23.45,.52,25.15,.1,26.85,.02,28.58,.02c47.58,0,95.17-.06,142.75,.02,14.23,.02,27.22,11,28.3,23.27,.33,3.82,.36,7.62,.36,11.44,.02,46.77,.01,93.54,.01,140.32Z"/>
  <path class="cls-16" d="M188.54,195.52c0,42.53-.18,85.06,.13,127.58,.07,9.62-8.52,17.15-19.86,17.08-45.94-.28-91.88-.27-137.82,0-11.07,.06-19.67-7.39-19.65-17,.2-85.55,.13-171.11,.05-256.66,0-2.52,.71-3.18,3.65-3.18,56.61,.08,113.22,.06,169.83,.06q3.66,0,3.66,3.3c0,42.94,0,85.89,0,128.83Z"/>
  <path class="cls-16" d="M99.9,62.98c-28.35,0-56.71-.03-85.06,.05-2.7,0-3.6-.48-3.57-2.97,.16-11.38,.05-22.76,.08-34.14,.02-9.85,7.59-16.34,19.04-16.36,5.38-.01,10.76,.03,16.15-.02,2.18-.02,3.29,.58,3.54,2.66,.77,6.18,5.1,9.43,12.32,9.43,24.89,.01,49.79,.01,74.68,0,7.08,0,11.38-3.28,12.13-9.3,.24-1.91,1.13-2.82,3.46-2.8,6.15,.07,12.3-.06,18.45,.06,9.53,.19,17.25,7.04,17.29,15.31,.06,11.79-.06,23.59,.08,35.38,.03,2.25-.76,2.75-3.24,2.74-28.45-.07-56.9-.05-85.35-.05Z"/>
  <path class="cls-16" d="M99.72,14.04c-3.25,0-6.5,0-9.75,0-1.12,0-2.21-.12-2.3-1.34-.09-1.22,1.04-1.58,2.09-1.59,6.6-.06,13.19-.07,19.79,0,1.08,.01,2.59,.29,2.53,1.52-.05,1.15-1.36,1.42-2.61,1.42-3.25-.01-6.5,0-9.75,0Z"/>
  <path class="cls-7" d="M59.86,90.37c21.42,1.93,35.14,23.03,23.59,40.89-.71,1.09-1.61,1.42-3.02,1.42-16.43-.04-32.87-.03-49.3-.01-1.21,0-2.2-.07-2.89-1.15-5.49-8.62-6.02-17.47-.94-26.25,5.02-8.68,13.28-13.75,24.57-14.9,2.67,.34,5.33,.32,8,.01Z"/>
  <path class="cls-7" d="M30.58,183.57c.14-.84,.69-1.34,1.64-1.51,15.75-.01,31.51-.11,47.26,.06,1.6,.6,1.8,1.81,1.8,3.1,0,7.13,0,14.27,0,21.4,0,1.74-.54,3.14-2.93,3.29-.61-.33-1.3-.22-1.96-.22-13.68,0-27.37,0-41.05,0-.66,0-1.35-.11-1.96,.23-1.66,.09-2.57-.62-2.85-2,.55-4.05,.2-8.11,.22-12.17,.01-4.06,.27-8.13-.17-12.18Z"/>
  <path class="cls-7" d="M139.43,180.53c0-4.32,.06-8.63-.04-12.95-.03-1.34,.44-1.7,1.95-1.59,12.52,.93,22.12,5.95,28,15.57,5.92,9.7,5.37,19.45-.9,28.99-.81,1.24-1.47,1.12-2.66,.4-8.28-4.97-16.58-9.9-24.92-14.79-1.09-.64-1.47-1.33-1.46-2.44,.07-4.4,.03-8.8,.03-13.2Z"/>
  <path class="cls-7" d="M135.48,185.97c0,3.07,.09,6.14-.04,9.21-.06,1.42,.53,2.22,1.88,3,6.06,3.51,12.01,7.16,18.07,10.67,1.35,.78,1.36,1.18,.18,2.12-7.06,5.62-18.25,6.88-27.18,2.97-8.99-3.94-14.24-12.38-13.07-21.01,1.18-8.66,8.45-15.9,17.89-17.91,1.66-.35,2.42-.32,2.32,1.48-.17,3.15-.05,6.31-.05,9.46Z"/>
  <path class="cls-7" d="M128.29,303.4c-.95,.04-1.34-.49-1.8-.89-3.47-2.99-6.89-6.02-10.42-8.96-1.21-1.01-1.19-1.76,.07-2.62,.3-.2,.54-.47,.82-.7,1.45-1.21,2.74-3.18,4.38-3.43,1.81-.27,2.89,2.08,4.43,3.15,.55,.38,1.08,1.24,1.88,.49,.79-.74-.26-1.14-.71-1.6-.5-.5-1.08-.95-1.62-1.42-2.58-2.23-2.39-3.22,.65-5.02,1.17-.69,1.53,.1,2.11,.53,.66,.48,1.22,1.05,1.86,1.55,.41,.32,.89,.31,1.25-.07,.27-.29,.22-.62-.07-.89-.39-.37-.75-.77-1.21-1.06-1.82-1.15-1.69-2.06-.09-3.48,1.74-1.54,2.7-1.37,4.26,.1,1.06,.99,2.58,3.28,3.68,2.31,1.34-1.18-1.43-2.18-2.43-3.19-1.81-1.82-1.27-4.29,1.39-4.97,1.41-.36,1.76,1.03,2.67,1.53,.66,.36,1.15,1.49,2.07,.71,.94-.8-.29-1.28-.81-1.77-2.11-1.99-1.81-3.35,.98-4.84,.81-.43,1.21-.15,1.71,.28,1.09,.94,2.16,1.89,3.28,2.8,.5,.41,1.03,1.28,1.85,.49,.77-.74-.25-1.17-.72-1.61-.91-.85-1.84-1.71-2.86-2.46-1.19-.87-1.02-1.5,.05-2.38,2.51-2.05,4.97-4.16,7.33-6.34,1.17-1.08,2-1.21,3.26-.07,3.39,3.06,6.87,6.03,10.39,8.99,1.05,.89,1.14,1.51,.05,2.45-12.18,10.48-24.33,21-36.5,31.5-.4,.34-.87,.63-1.2,.87Z"/>
  <path class="cls-7" d="M137.23,86.34c2.71-1.15,5.59-.43,8.39-.49,6.04-.13,6.05-.04,6.05,5.21,0,11.27,.02,22.54-.03,33.82,0,.92,.56,2.01-.63,2.76-3.62-.43-7.27-.22-10.9-.13-2.25,.05-2.68-.61-2.67-2.41,.09-12.1,.05-24.21,.04-36.31,0-.82,.22-1.66-.25-2.45Z"/>
  <path class="cls-7" d="M73.19,281.24c-.31,.78-1.09,.52-1.69,.52-9.26,.02-18.51,.02-27.77,0-.6,0-1.39,.25-1.69-.53,.63-3.53,.21-7.09,.23-10.63,.01-1.6,.47-2.13,2.41-2.11,8.62,.09,17.24,.1,25.86,0,2-.02,2.36,.59,2.38,2.14,.05,3.54-.45,7.09,.26,10.62Z"/>
  <path class="cls-7" d="M114.16,127.61c-.83-.45-.59-1.17-.59-1.8-.01-7.05,.06-14.11-.05-21.16-.03-1.89,.73-2.55,2.84-2.36,3.85,.35,7.78-.62,11.59,.5,.02,6.61,.02,13.22,.02,19.83,0,4.83,0,4.8-5.49,4.84-2.77,.02-5.56-.22-8.32,.15Z"/>
  <path class="cls-7" d="M160.88,127.63c-.16-.09-.44-.17-.45-.27-.39-5.11-.33-10.23-.02-15.35,0-.09,.29-.17,.45-.26,3.72,.54,7.46,.22,11.19,.2,1.96-.01,2.45,.54,2.39,2.14-.12,3.73-.15,7.48,0,11.21,.08,1.83-.72,2.19-2.64,2.18-3.64-.02-7.29-.28-10.92,.15Z"/>
  <path class="cls-7" d="M65.62,285.2c-.58,4.01-1.17,8.01-1.72,12.02-.14,1.06-.83,1.36-1.94,1.35-2.87-.02-5.73-.04-8.6,.01-1.35,.02-1.86-.52-2.01-1.6-.59-4.26-1.22-8.51-1.84-12.76,1.67-.91,3.53-.43,5.3-.48,2.76-.08,5.52,0,8.28-.03,1.3-.02,2.22,.31,2.53,1.48Z"/>
  <path class="cls-7" d="M33.11,274.2c.77,0,1.25-.02,1.72,0,.67,.03,1.49,.05,1.4,.84-.06,.56-.79,.62-1.38,.64-.48,.02-.97,.06-1.43,0-1.05-.14-2.9,.49-2.9-.75,0-1.37,1.91-.36,2.58-.74Z"/>
  <path class="cls-7" d="M82.04,275.69c-.67,0-1.15,.03-1.63,0-.63-.05-1.5,0-1.42-.81,.06-.56,.75-.66,1.35-.67,.48,0,.97-.06,1.43,0,1.04,.16,2.89-.52,2.9,.73,.02,1.33-1.85,.5-2.65,.76Z"/>
  <path class="cls-7" d="M42.74,261.3c0,.59-.42,1.03-1.04,.66-1.39-.84-2.74-1.78-3.48-3.16-.15-.28,.28-.76,.63-.65,1.7,.51,2.58,1.86,3.78,2.89,.06,.05,.07,.15,.11,.26Z"/>
  <path class="cls-7" d="M73.44,262.1c-.83-.09-1.18-.45-.83-1.02,.26-.42,.69-.81,1.14-1.1,.95-.61,1.36-1.91,2.89-1.74,.42,.05,.6,.46,.36,.77-.97,1.24-2.2,2.26-3.56,3.09Z"/>
  <path class="cls-9" d="M59.85,117.47c.05,1.49-.79,2.56-2.21,3.26-1.48,.73-3.02,.58-4.31-.33-.88-.62-1.62-1.41-2.33-2.2-4.31-4.78-8.6-9.57-12.86-14.38-.49-.55-1.38-1.19-.56-1.95,.87-.81,1.55,.02,2.19,.45,5.93,3.95,11.85,7.92,17.78,11.89,1.24,.83,2.34,1.75,2.31,3.26Z"/>
  <path class="cls-13" d="M77.5,116.59c.67,.04,1.45,.02,2.18,.16,.6,.12,1.02,.56,.67,1.11-.84,1.35-2.65,.45-3.85,1.18-.67,.41-1.4-.11-1.82-.75-.24-.37-.53-.74-.19-1.12,.78-.89,1.93-.41,3.01-.58Z"/>
  <path class="cls-8" d="M37.21,117.75c-.98,1.38-2.86,.82-4.26,1.29-1.05,.36-1.98-.83-1.77-1.42,.68-1.92,2.69-.71,4.1-.97,.81-.15,1.74-.02,1.93,1.09Z"/>
  <path class="cls-8" d="M73.51,103.07c.04,.65-3.15,3.46-3.91,3.42-.67-.04-1.22-.51-.97-.96,.78-1.44,2.08-2.54,3.71-3.25,.51-.22,1.08,.19,1.17,.79Z"/>
  <path class="cls-8" d="M56.8,98.66c0,.87,.06,1.45-.02,2.01-.08,.54-.52,.91-1.17,.85-.49-.05-.84-.4-.9-.84-.07-.57-.16-1.16-.05-1.72,.17-.94-.72-2.59,1.08-2.59,1.82,0,.8,1.67,1.06,2.29Z"/>
  <path class="cls-12" d="M47.4,199.51c1.34-3.48,2.58-6.33,3.5-9.25,.69-2.22,2.57-1.55,4.15-1.56,1.94-.02,1.3,1.34,1.31,2.21,.06,3.49,0,6.97,.04,10.46,.01,1.05-.14,1.7-1.67,1.7-1.48,0-1.75-.55-1.72-1.65,.06-2.62,.02-5.24-.42-7.93-1.02,2.63-2.08,5.25-3.03,7.9-.38,1.06-.81,1.69-2.32,1.69-1.58,0-1.89-.78-2.24-1.78-.83-2.44-1.71-4.87-3.13-7.27,0,2.4,0,4.8,0,7.2,0,.92,.18,1.79-1.5,1.83-1.78,.04-1.76-.8-1.75-1.88,.03-3.49-.01-6.97,.03-10.46,0-.82-.47-2.08,1.24-2.01,1.45,.06,3.36-.83,4.07,1.27,1.02,3,2.15,5.97,3.44,9.53Z"/>
  <path class="cls-1" d="M69.18,195.46c.11,.12,.21,.32,.35,.35,1.35,.31,3.45-.6,3.97,.57,.64,1.43-1.5,2.28-2.5,3.3-3.66,3.72-3.71,3.69-7.38,.09-.19-.19-.45-.34-.59-.54-.66-.97-2.57-1.56-2.12-2.74,.45-1.2,2.2-.5,3.37-.58,.99-.08,1.35-.41,1.32-1.24-.04-1.16-.01-2.32,0-3.49q.01-2.8,3.51-2.16c.51,2.15,.42,4.29,.07,6.45Z"/>
  <path class="cls-15" d="M157.47,272.06c-1.47-.16-2.47-.83-2.55-2.18-.08-1.36,.85-2.23,2.36-2.31,1.67-.09,2.75,.8,2.76,2.24,.01,1.32-1.05,2.03-2.58,2.26Z"/>
  <path class="cls-2" d="M57.2,277.25c-2.48,0-4.97,0-7.45,0-.74,0-1.74,.08-1.73-.83,0-.72,.9-.73,1.57-.73,5.35,0,10.7,0,16.05,0,.66,0,1.55-.04,1.57,.71,.03,.95-.97,.84-1.7,.85-2.77,.02-5.54,0-8.31,0Z"/>
  <text class="cls-6" transform="translate(44.22 49.21) scale(1.16 1)"><tspan class="cls-14" x="0" y="0">C</tspan><tspan x="8.51" y="0">us</tspan><tspan class="cls-3" x="22.69" y="0">t</tspan><tspan class="cls-4" x="27.56" y="0">om</tspan><tspan class="cls-5" x="48.28" y="0"> </tspan><tspan class="cls-11" x="50.91" y="0">W</tspan><tspan class="cls-10" x="63.35" y="0">idget</tspan></text>
</svg>