<?xml version="1.0" encoding="UTF-8"?>
<svg id="Layer_1" data-name="Layer 1" xmlns="http://www.w3.org/2000/svg" viewBox="0 0 200.01 200.03">
  <defs>
    <style>
      .cls-1 {
        fill: #fbb247;
      }
    </style>
  </defs>
  <path class="cls-1" d="M113.29,35.5c-25.5,0-51-.22-76.5,.18-5.37,.08-7.27-1.4-7.16-9.55C29.93,4.2,32.56,.01,48.21,.01,93.36,.01,138.52-.02,183.67,.02c12.34,0,20.31,18.7,14.28,33.5-1.49,3.66-4.36,1.88-6.57,1.89-26.03,.13-52.06,.08-78.09,.08h0ZM45.15,23.54c2.32-.86,3.76-2.89,3.43-6.25-.32-3.34-1.95-5.1-4.44-4.57-2.17,.46-3.13,2.69-3.04,5.46,.11,3.38,1.6,5.21,4.05,5.36ZM181.63,12.59c-2.44,.13-3.88,2.39-3.76,5.55,.11,3.07,1.62,5.57,4.15,5.29,2.03-.22,3.34-2.15,3.45-5.06,.12-3.47-1.21-5.41-3.83-5.78h0Zm-23.02,11.06c1.99-.7,3.81-2.31,3.84-5.63,.03-3.32-1.52-5.41-4.02-5.33-2.08,.06-3.45,1.69-3.61,4.69-.19,3.48,1.23,5.34,3.78,6.26h.01Zm11.96-.13c2.25-.97,3.65-2.93,3.35-6.38-.26-2.96-1.74-4.54-3.8-4.46-2.45,.09-4.01,2.14-3.82,5.58,.19,3.28,1.8,5.09,4.27,5.26Z"/>
  <path class="cls-1" d="M13.35,108.83c-6.32-9.91-.26-14.55,4.38-20.16,2.46-2.97,4.43-4.24,7.63-1.63,5.34,4.35,9.53,1.49,10.8-6.48,1.17-7.33,4.46-7.15,8.28-6.82,4.19,.36,8.7-2.11,10.66,7.15,1.73,8.16,6.96,12.35,12.99,7.48,4.14-3.35,6.01-.09,7.83,3.35,2.25,4.24,8.15,6.04,5.18,14.13-3.38,9.18-1.89,15.85,5.57,18.43,4.13,1.42,4.93,5.1,4.27,9.9-.76,5.53,2.74,13.48-3.78,15.94-8.21,3.1-10.39,8.96-5.7,19.33,3.4,7.52-2.57,9.16-4.64,12.99-1.93,3.55-3.85,7.53-8.45,4.34-8.62-5.98-10.25-5.11-13.52,7.91-1.77,7.06-5.23,5.15-8.31,4.97-3.56-.22-7.8,2.64-9.9-5.34-3.3-12.57-6.51-14.37-15.46-8.65-4.11,2.63-6.06,.45-7.74-3.58-1.99-4.78-8.15-6.71-4.67-15.44,4.57-11.47,3.9-13.75-4.52-19-2.89-1.8-5.17-4.94-3.88-8.04,2.37-5.65-3.21-16.11,5.45-17.62,5.41-.95,5.97-7.24,7.52-13.13v-.03Zm58.96,27.62c.02-20.9-12-37.93-26.69-37.82-14.57,.11-26.51,16.51-26.69,36.66-.19,21.01,11.54,38.06,26.3,38.24,15.01,.18,27.07-16.33,27.09-37.09h-.01Z"/>
  <path class="cls-1" d="M29.83,81.68c0-13.05-.02-25.85,.02-38.65,0-2.14,.84-3.39,2.45-3.41,1.33-.02,2.66-.07,3.99-.07,52.1,0,104.19,.12,156.29-.17,5.53-.03,7.13,1.84,7.06,9.78-.31,38.64-.27,77.29,0,115.93,.05,7.21-1.2,9.42-6.52,9.37-33.76-.33-67.51-.15-101.27-.21-2.05,0-4.37,1.12-6.07-1.35-.66-.95-1.09-2.57-1.12-3.9-.05-2.13,1.34-1.78,2.32-1.81,1.86-.06,3.72,0,5.58,0,31.9,0,63.79-.2,95.69,.2,5.69,.07,7.05-2.25,6.99-9.93-.3-33.44-.28-66.89-.02-100.33,.06-7.38-.97-10.23-6.85-10.19-49.17,.33-98.35,.29-147.52,.02-5.45-.03-7.77,1.87-7.17,9.87,.44,5.88,.09,11.88,.08,17.82,0,2.95,.23,6.13-3.91,7.03h0Z"/>
  <path class="cls-1" d="M177.68,107.84c-.63,1.16-1.16,2.45-1.89,3.45-5.31,7.24-10.66,14.4-15.99,21.61-1.39,1.89-2.62,3.64-4.52,.68-1.78-2.76-.89-4.5,.67-6.41,1.19-1.46,2.28-3.1,3.42-4.64,7.36-9.95,7.39-20.17,.1-30.68-1.47-2.12-3.02-4.14-4.43-6.34-1.36-2.13-.69-3.96,.62-5.68,1.29-1.7,2.46-.97,3.41,.39,5.75,8.18,11.45,16.44,17.14,24.7,.54,.78,.91,1.79,1.48,2.92h0Z"/>
  <path class="cls-1" d="M151.77,76.98c-.06,.27-.27,1.35-.56,2.38-5.38,19.26-10.74,38.53-16.2,57.75-.68,2.4-.75,6.58-4.03,4.77-2.92-1.61-1.85-4.56-1.07-7.36,5.49-19.59,10.96-39.19,16.45-58.78,.65-2.31,.96-5.46,3.69-3.73,1.25,.79,2.28,1.89,1.72,4.98h0Z"/>
  <path class="cls-1" d="M124.66,135.9c-1.08-1.26-1.91-2.1-2.64-3.09-5.34-7.15-10.62-14.4-16.01-21.47-1.99-2.6-1.84-4.52,.05-7.15,5.42-7.56,10.67-15.37,16.01-23.05,1.26-1.81,2.41-4.14,4.46-1.01,1.73,2.63,1.09,4.37-.41,6.49-3.91,5.51-7.59,11.34-11.64,16.63-2.51,3.28-2.64,5.51,0,8.75,3.97,4.87,7.63,10.22,11.45,15.33,1.18,1.57,2.46,3.07,1.03,5.49-.62,1.05-1.41,1.91-2.29,3.09h0Z"/>
</svg>