<?xml version="1.0" encoding="UTF-8"?>
<svg id="Layer_1" data-name="Layer 1" xmlns="http://www.w3.org/2000/svg" viewBox="0 0 200 270">
  <defs>
    <style>
      .cls-1 {
        fill: #fbb247;
      }
    </style>
  </defs>
  <path class="cls-1" d="M135.06,192.37c.02,18.77,.33,37.56-.04,56.32-.26,13.35-8.82,21.13-22.01,21.13-29.81,0-59.63-.4-89.44,.16C8.27,270.3-.06,258.94,0,245.94,.32,171.67,.17,97.41,.19,23.16,.19,8.52,8.63,0,22.96,0c29.93,.02,59.87,0,89.8,0,13.77,0,22.39,8.78,22.45,22.86,.03,9.02,0,18.05,0,27.07-3.07,.25-6.15,.49-9.2-.16,.03-1.71-.07-3.43,.11-5.12,.31-2.8-.87-3.49-3.5-3.48-36.4,.07-72.8,.07-109.19,0-2.88,0-4.15,.35-4.14,3.86,.13,56.09,.11,112.19,.02,168.29,0,3.07,.86,3.83,3.8,3.8,17.24-.14,34.48-.07,51.73-.07,19.4,0,38.8-.05,58.19,.06,2.62,.02,3.33-.95,3.16-3.4-.17-2.43-.08-4.88-.1-7.32,2.71,0,4.37-.9,4.41-4.12,.03-2.37,.89-4.72,1.09-7.09,.2-2.39,1.31-3.18,3.49-2.79h-.02Zm-67.47,61.93c6.52,.06,12.03-5.46,11.97-12.02-.05-6.4-5.4-11.83-11.76-11.94-6.54-.12-11.84,5.27-11.87,12.05-.03,6.43,5.28,11.85,11.65,11.92h.01Zm0-238.97c-5.25,0-10.51,.02-15.76,0-1.83,0-3.44,.22-3.49,2.58-.05,2.51,1.54,2.91,3.58,2.9,10.51-.04,21.01-.04,31.52,0,1.84,0,3.45-.18,3.49-2.56,.04-2.47-1.51-2.96-3.58-2.93-5.25,.05-10.51,.02-15.76,.02h0Z"/>
  <path class="cls-1" d="M135.06,192.37c-2.18-.39-3.29,.41-3.49,2.79-.2,2.39-1.06,4.73-1.09,7.09-.04,3.22-1.69,4.13-4.41,4.12-3.82-.11-7.65-.44-11.46-.24-2.96,.15-4.04-1.04-4.32-3.84-.29-2.9-.92-5.77-1.36-8.66-.19-1.26-.58-2.21-1.87-2.84-6.77-3.31-8.18-2.98-12.64,3.27-.28,.4-.57,.78-.82,1.21-1.75,3.02-3.84,3.48-6.71,1.33-2.01-1.5-4.35-2.55-6.51-3.84-6.03-3.63-6.26-3.74-3.38-10.4,2.06-4.75,2.82-8.64-1.84-12.41-1.89-1.53-3.13-2.09-5.28-1.07-2.38,1.13-4.94,1.84-7.34,2.92-1.64,.74-2.58,.44-3.46-1.18-2.24-4.17-4.54-8.31-6.99-12.35-1.16-1.91-.69-3.04,.92-4.25,2.4-1.81,4.62-3.89,7.06-5.63,1.94-1.39,2.45-2.84,1.83-5.25-1.64-6.38-1.52-6.42-8.09-7.43-1.65-.25-3.33-.69-4.97-.6-1.79,.09-1.98-.8-1.98-2.18,0-5.12,.03-10.24-.06-15.35-.03-1.85,.71-2.58,2.47-2.79,3.33-.4,6.63-.95,9.94-1.48,1.3-.21,2.9-.35,2.82-2.14-.07-1.49,.68-2.48,1.26-3.65,1.21-2.42,1.33-4.49-1.34-6.2-2.11-1.36-3.92-3.2-5.94-4.71-1.67-1.25-1.88-2.52-.78-4.35,2.26-3.74,4.41-7.53,6.47-11.39,1.12-2.1,2.42-2.73,4.65-1.71,2.73,1.24,5.56,2.23,8.35,3.35,1.12,.45,2.15,.89,3.4,.15,5.08-3.01,6.21-6.14,4.11-11.77-2.68-7.2-2.72-7.27,4.09-10.98,3.23-1.76,6.53-5.73,9.63-4.78,2.97,.92,4.91,5.32,7.31,8.17,.68,.81,1.14,2.25,2.32,2.05,2.94-.49,6.01-.86,8.67-2.09,1.98-.92,1.33-3.69,1.62-5.68,1.05-7.25,1.02-7.25,8.01-7.52,.71-.03,1.42-.18,2.13-.27,3.06,.66,6.13,.41,9.2,.16,1.77,3.17,1.76,6.77,2.16,10.22,.37,3.2,1.42,5.27,4.77,5.72,1.05,.14,2.08,.59,3.05,1.04,1.8,.86,3.11,.52,4.3-1.18,1.6-2.28,3.46-4.36,5.1-6.61,1.07-1.46,2.14-1.64,3.66-.72,3.91,2.36,7.84,4.69,11.83,6.9,1.95,1.09,2.43,2.35,1.49,4.45-1.29,2.88-2.31,5.89-3.52,8.8-1.6,3.83,2.15,4.92,3.55,7.19,1.06,1.72,2.56,2.23,4.55,1.25,1.36-.68,2.95-.85,4.39-1.38,4.17-1.52,7.32-.36,9.43,3.5,1.52,2.76,3.02,5.54,4.7,8.21,1.17,1.86,1.22,3.16-.74,4.55-2.43,1.75-4.53,4-6.98,5.7-2.19,1.52-2.12,3.2-1.85,5.63,.5,4.52,2.18,6.55,6.98,7.07,7.99,.87,7.95,1.31,7.94,9.53,0,2.8-.1,5.61-.02,8.41,.05,1.84-.74,2.64-2.45,2.88-2.96,.42-5.9,1.06-8.87,1.4-2.39,.27-4.07,1.02-4.41,3.77-.16,1.31-.69,2.59-1.23,3.81-.72,1.63-.27,2.75,1.04,3.8,2.27,1.79,4.44,3.71,6.72,5.49,1.52,1.19,2.13,2.31,.95,4.25-2.34,3.83-4.58,7.72-6.6,11.73-1.16,2.31-2.47,2.49-4.58,1.5-2.61-1.22-5.39-2.04-7.98-3.29-2.01-.96-3.34-.77-5,.9-4.92,5-5.01,4.91-2.53,11.55,.38,1.03,.68,2.1,1.17,3.06,1.08,2.12,.75,3.51-1.48,4.69-3.92,2.08-7.73,4.39-11.51,6.74-1.66,1.04-2.8,.86-3.95-.71-1.28-1.76-2.7-3.42-4.07-5.1-2.63-3.21-6.01-4-10.14-2.33h0Zm-11.77-18.95c24.74-.04,44.26-20.14,44.22-45.55-.04-25.62-19.78-45.7-45.37-45.23-22.33,.41-42.59,18.59-42.77,45.32-.16,25.17,19.61,45.49,43.91,45.46h0Z"/>
  <path class="cls-1" d="M150.36,128.12c-.02,15.05-12.27,27.41-27.1,27.34-14.83-.06-26.74-12.38-26.71-27.64,.02-15.01,11.8-27.17,26.29-27.15,15.7,.02,27.55,11.84,27.53,27.45h-.01Z"/>
</svg>