<?xml version="1.0" encoding="UTF-8"?>
<svg id="Layer_1" data-name="Layer 1" xmlns="http://www.w3.org/2000/svg" viewBox="0 0 200.49 200.49">
  <defs>
    <style>
      .cls-1 {
        fill: #fdfefe;
      }

      .cls-2 {
        fill: #fdfdfe;
      }

      .cls-3 {
        fill: #fbb247;
      }

      .cls-4 {
        fill: #fcfcfe;
      }

      .cls-5 {
        fill: #fafbfe;
      }

      .cls-6 {
        fill: #fcfdfe;
      }

      .cls-7 {
        fill: #fbfcfe;
      }

      .cls-8 {
        fill: #fefefe;
      }
    </style>
  </defs>
  <path class="cls-3" d="M199.3,44.3c1.18,13.29,.86,26.58,.68,39.88-.65,12.05-.65,24.1,0,36.16,.02,11.46,.92,22.94-.75,34.36-1.31,1.62-.7,3.34-.3,5.06h.01c-2.3,22.43-16.76,36.86-39.4,39.3-1.37-.36-2.77-1.07-4.03,.26-3.22,1.13-6.54,.98-9.86,.77-1.89-.7-3.86-.35-5.79-.36-26.02-.03-52.03-.03-78.05,0-1.93,0-3.89-.34-5.79,.35-7.51,.51-14.92-.4-22.19-2.05-17.41-3.96-30.87-18.88-32.12-37.29C-.8,123.76,.65,86.71,.8,49.68c0-.67,.37-1.34,.56-2.01,1.4-2.32,.59-4.77,.39-7.18C5.46,15.96,21.29,1.92,46.8,1.06c35.74-1.2,71.49-.96,107.22-.02,26.93,.71,42.89,16.47,45.28,43.26Z"/>
  <path class="cls-3" d="M56.02,200.09c1.32-1.31,3-.87,4.55-.87,26.84-.02,53.68-.02,80.52,0,1.55,0,3.23-.44,4.55,.87H56.02Z"/>
  <path class="cls-3" d="M199.99,120.33c-2.06-7.1-.67-14.36-.79-21.53-.08-4.85-1.22-9.85,.79-14.62v36.16h0Z"/>
  <path class="cls-3" d="M1.76,40.49c1.4,2.39,.91,4.91,.48,7.41,0,.05-.31,.11-.45,.07-.16-.04-.28-.19-.42-.3,.13-2.39,.26-4.79,.39-7.18Z"/>
  <path class="cls-3" d="M198.94,159.75c-1.42-1.65-1.07-3.5-.58-5.35,0-.06,.33-.09,.47-.04,.15,.05,.27,.21,.4,.33-.1,1.69-.2,3.37-.3,5.06h.01Z"/>
  <path class="cls-3" d="M155.5,199.32c1.2-2.26,2.62-1.21,4.03-.26-1.34,.09-2.69,.17-4.03,.26Z"/>
  <path class="cls-2" d="M61.55,70.34c1.76-5.97,5.05-10.47,11.51-11.92,16.73-.59,33.47-.66,50.2,.03,7.65,2.36,11.29,7.54,10.99,15.52-.04,1.03-.29,2.15,.67,2.98,1.11,.23,2.4-.1,3.22,1.05,.2,.3,.41,.6,.61,.91,1.86,4.17,1.3,8.4,.33,12.65-6.2,4.27-6.74,7.78-2.16,13.95,1.36,4.9,.96,9.82,.15,14.74-1.27,2.02-3.14,3.63-2.95,6.46,.56,8.08-3.5,13.22-10.87,16.04-7.77,1.11-15.59,.33-23.38,.48-7.65,.14-15.3,.03-22.95,.03-1.65-.06-3.41,.62-4.89-.68-5.53-2.18-8.82-6.33-10.5-11.89-.99-.8-.72-1.92-.72-2.94,0-18.15,0-36.31,0-54.46,0-1.02-.26-2.15,.74-2.93v-.02Z"/>
  <path class="cls-8" d="M110.28,26.7c6.14,1.14,8.28,5.08,7.96,10.97-.11,2.05-.5,4.23,.65,6.19,.96,.9,.65,1.92,.28,2.95-.14,3.25,4.44,6.21,2.37,8.6-2.22,2.56-6.7,.86-10.17,.91-11.01,.14-22.02-.03-33.03,.1-3.62,.04-5.2-.59-2.8-4.3,1.65-2.56,2.45-5.46,2.63-8.51-.21-3.54-.96-7.09,.42-10.57,.98-3.79,3.84-5.38,7.34-6.22,8.11-1.3,16.23-1.03,24.34-.11h.01Z"/>
  <path class="cls-1" d="M75.23,144.66c14.16-.02,28.33,.04,42.49-.13,4.36-.05,5.63,1.01,3.11,5.03-.9,1.43-1.15,3.27-1.69,4.92,.41,1.01,.72,2-.29,2.87-1.32,3.04-.39,6.28-.86,9.42-.7,4.67-3.1,7.05-7.97,6.99-7.61-.1-15.22-.16-22.83,.02-4.26,.1-6.91-1.8-8.53-5.52-1.51-3.11-.71-6.31-.42-9.5,.38-5.01-2.78-8.98-3.95-13.54-.02-.76,.3-.94,.95-.55h0Z"/>
  <path class="cls-3" d="M61.55,70.34c0,20.11,0,40.23,0,60.34-1.52,.92-1.27-.34-1.27-1.09,0-18.86,0-37.72,0-56.57,0-1.1,.19-2.11,1.29-2.68h-.01Z"/>
  <path class="cls-3" d="M123.27,58.45c-16.73,0-33.46-.02-50.2-.03,.94-1.05,2.19-.98,3.43-.98h43.36c1.24,0,2.49-.03,3.42,1.01h0Z"/>
  <path class="cls-3" d="M76.28,142.88c15.66-.05,31.32-.1,46.99-.14-1.05,1.33-2.54,1.03-3.93,1.03-14.35-.02-28.7-.05-43.04-.08-.37-.17-.5-.35-.38-.53s.24-.28,.36-.28Z"/>
  <path class="cls-3" d="M110.28,26.7c-8.11,.04-16.23,.08-24.34,.11,1.97-2.38,4.64-1.14,6.98-1.22,5.67-.18,11.36-.05,17.04-.03,.14,0,.39,.14,.4,.23,.02,.3-.04,.6-.07,.9h-.01Z"/>
  <path class="cls-3" d="M137.08,120.24c-.05-4.91-.1-9.83-.15-14.74,2.67,4.76,.86,9.84,1.04,14.78,0,.06-.27,.19-.41,.18-.16-.01-.32-.14-.48-.22Z"/>
  <path class="cls-3" d="M139.08,91.54c-.11-4.21-.22-8.43-.33-12.65,2.77,4.15,2.2,8.38,.33,12.65Z"/>
  <path class="cls-3" d="M119.18,46.81c-.09-.98-.19-1.97-.28-2.95v-7.65c.95,3.56,2.02,7.13,.28,10.6Z"/>
  <path class="cls-3" d="M118.85,157.34c.1-.96,.19-1.91,.29-2.87,1.97,3.47,.36,7.06,.06,10.62-.12-2.58-.23-5.17-.35-7.75Z"/>
  <path class="cls-3" d="M78.6,33.04c-.14,3.52-.28,7.05-.42,10.57-1.13-3.57-1.74-7.13,.42-10.57Z"/>
  <path class="cls-3" d="M138.14,77.99c-1.03-.47-2.46,.26-3.22-1.05v-5.28c1,2.24,1.28,4.66,3.22,6.33Z"/>
  <path class="cls-3" d="M78.23,158.75c.14,3.17,.28,6.33,.42,9.5-2.31-3.07-1.64-6.27-.42-9.5Z"/>
  <path class="cls-3" d="M76.28,142.88c0,.27,0,.54,.02,.81-.35,.32-.71,.64-1.06,.97-.32,.18-.64,.37-.95,.55-.75-.88-1.49-1.76-2.24-2.64,1.41,.1,2.83,.21,4.24,.31h-.01Z"/>
  <path class="cls-3" d="M128.4,71.39c-.62,19.5-.49,39-.07,58.5-1.27,4.06-3.9,6.35-8.3,6.33-14.93-.72-29.86-.69-44.8-.02-6.05-.6-8.02-4.69-8.07-9.94-.11-12.77,0-25.55,.02-38.32,0-4.07-.12-8.14-.06-12.22,.12-7.85,3.53-11.45,11.42-11.47,13.69-.05,27.37,.16,41.06,.31,4.61,.05,7.75,2.14,8.8,6.83Z"/>
  <path class="cls-3" d="M128.33,129.9c-1.29-19.5-1.4-39,.07-58.5,.53,19.5,.73,39-.07,58.5Z"/>
  <path class="cls-3" d="M75.23,136.2c1.12-1.22,2.61-.92,4-.92,12.27,0,24.53,0,36.8,0,1.39,0,2.88-.3,3.99,.94-14.93,0-29.86,0-44.8-.02h.01Z"/>
  <path class="cls-2" d="M88.98,97.92c1-3.36,3.32-5.43,6.54-6.59,1.77-.36,3.54-.47,5.3,.08,2.54,1.34,4.71,3.08,6.15,5.62,2.17,2.01,1.85,4.12,.23,6.27-1.39,1.56-2.57,3.41-4.22,4.63-4.95,3.66-9.95,1.94-14-4.55-1.36-1.82-1.36-3.64,0-5.46Z"/>
  <path class="cls-6" d="M113.8,83.96c-.05,4.18-3.58,7.33-8.15,7.27-3.4-.04-6.98-3.71-6.94-7.13,.03-3.76,4.25-7.58,8.19-7.42,3.89,.15,6.95,3.38,6.9,7.28Z"/>
  <path class="cls-5" d="M122.69,103.22c-5.02,6.13-8.6,6.16-13.66,.11-2.06-2.69-1.83-5.14,.77-7.34,5.94-4.46,8.62-4.05,13.25,2.05,.87,1.8,1.57,3.58-.37,5.18h.01Z"/>
  <path class="cls-4" d="M82.75,115.05c1.63-2.33,3.41-4.84,6.48-4.73,3.64,.14,6.59,1.74,7.66,5.78,1.07,4.06-1.16,6.46-4.14,8.1-2.7,1.49-5.52,.56-7.79-1.51-.76-.69-1.33-1.6-1.99-2.41-1.44-1.69-.98-3.46-.23-5.24h.01Z"/>
  <path class="cls-6" d="M109.34,110.54c3.2,1.74,5.39,4.2,4.65,8.06-.7,3.68-3.02,5.9-6.95,6.05-4.61,.18-7.04-3.07-7.67-6.65-.51-2.91,.76-6.4,4.68-7.38,1.75-.63,3.51-.49,5.28-.09h0Z"/>
  <path class="cls-7" d="M87.08,103.39c-2.43,3.71-5.62,5.47-9.93,3.41-3-1.44-4.49-4.04-3.96-7.41,.52-3.31,2.61-5.47,5.89-6.06,3.83-.7,6.47,1.09,8,4.6,1.17,1.82,1.16,3.64,0,5.47h0Z"/>
  <path class="cls-2" d="M89.39,91.09c-3.93-.12-6.92-3.32-6.83-7.31,.1-4.34,3.32-7.49,7.53-7.05,4.35,.46,6.65,2.93,6.48,7.45-.15,3.77-3.5,7.02-7.18,6.91Z"/>
  <path class="cls-3" d="M87.08,103.39v-5.47h1.91v5.46h-1.91Z"/>
  <path class="cls-3" d="M109.8,95.98c-1.13,2.36-1.87,4.75-.77,7.34-.61,0-1.22-.02-1.83-.03-.08-2.09-.15-4.18-.23-6.27,.94-.35,1.89-.7,2.83-1.05h0Z"/>
  <path class="cls-3" d="M122.69,103.22c.12-1.73,.25-3.45,.37-5.18,1.83,1.87,2.16,3.62-.37,5.18Z"/>
  <path class="cls-3" d="M109.34,110.54c-1.76,.03-3.52,.06-5.28,.09,1.74-1.43,3.5-1.39,5.28-.09Z"/>
  <path class="cls-3" d="M82.75,115.05c.08,1.75,.15,3.49,.23,5.24-2.09-1.66-1.83-3.42-.23-5.24Z"/>
  <path class="cls-3" d="M100.82,91.41c-1.77-.03-3.53-.05-5.3-.08,1.79-1.31,3.55-1.32,5.3,.08Z"/>
</svg>