<?xml version="1.0" encoding="UTF-8"?>
<svg id="Layer_1" data-name="Layer 1" xmlns="http://www.w3.org/2000/svg" viewBox="0 0 200 200">
  <defs>
    <style>
      .cls-1 {
        fill: #fbb247;
      }
    </style>
  </defs>
  <path class="cls-1" d="M200,114.39v7.98c-.15,.97-.34,1.93-.43,2.92-.48,5.39-1.45,10.65-4.02,15.47-4.36,8.15-11.66,9.67-18.35,3.43-3.62-3.38-6.77-7.35-9.77-11.33-4.09-5.42-7.89-11.07-11.71-16.69-1.89-2.76-4.46-4.14-7.62-4.67-12.94-2.12-25.96-.98-38.96-1.08-.06,0-.11,.05-.36,.16-.04,.82-.11,1.73-.11,2.64-.01,23.94,0,47.86-.01,71.8,0,1.6,.05,3.19-.07,4.79-.32,4.47-2.61,7.64-6.62,9.25-1.76,.71-3.81,.88-5.73,.88-25.39,.05-50.77,.04-76.16,.04-2.86,0-5.73,.04-8.59-.02-5.85-.11-9.53-3.02-11.11-8.7-.07-.24-.25-.45-.38-.67V9.47C2.04,2.07,7.13-.05,14.22,0c27.21,.19,54.43,.07,81.64,.08,1.1,0,2.22,.04,3.31,.17,5.35,.64,9.23,4.75,9.42,10.2,.16,4.38,.05,8.77,.06,13.16,0,1.89-.83,3.22-2.65,3.68-2.33,.58-4.28-1.12-4.33-3.82-.07-3.65-.02-7.31-.02-10.97,0-4.11-1.04-5.18-5.07-5.18H12.21c-.53,0-1.05-.01-1.57,.02-1.86,.13-3.02,1.17-3.36,3.02-.18,.97-.18,1.99-.18,2.98-.01,30.59-.01,61.18-.01,91.77v82.38c0,4.07,1.15,5.22,5.12,5.22,28.25,0,56.51,.01,84.76,0,3.5,0,4.68-1.21,4.68-4.79V110.65c-3.58-.49-3.79-.32-3.79,2.88v44.29c0,3.99-1.12,5.12-5,5.13-25.65,0-51.3,0-76.95-.01-3.79,0-4.9-1.14-4.9-4.97V16.12c0-3.74,1.13-4.92,4.74-4.92H93.1c3.52,0,4.73,1.2,4.75,4.76,.03,4.52,.01,9.05,.01,13.57,0,3.77,1.8,6.04,5.41,6.8,8.88,1.88,17.84,1.94,26.81,1,4.52-.46,9.08-1.11,13.12-3.47,6.37-3.75,13.12-4.7,20.33-3.62,8.19,1.23,14.34,5.23,18.04,12.9,.92,1.9,2.03,3.76,2.66,5.75,2.77,8.77,5.57,17.54,8.04,26.39,2.74,9.82,5.5,19.66,6.7,29.85,.36,3.08,.69,6.17,1.03,9.26Zm-6.67,4.17c-.75-6.41-.88-12.14-2.16-17.58-3.22-13.79-6.87-27.5-10.54-41.19-1.51-5.63-3.49-11.18-6.93-15.92-1.35-1.86-3.13-3.85-5.14-4.69-7.14-2.96-14.35-3.32-21.45,.61-2.43,1.34-5.1,2.39-7.79,3.05-10.17,2.5-20.5,2.61-30.84,1.5-5.44-.57-10.87-1.44-15.73-4.26-4.96-2.87-10.18-3.64-15.8-2.78-5.91,.9-10.37,3.67-12.96,9.27-1.06,2.27-2.35,4.49-3.05,6.89-3.63,12.45-7.18,24.93-10.61,37.44-2.49,9.12-3.86,18.45-3.82,27.93,.03,6,.48,11.98,3.04,17.52,2.49,5.36,5.21,5.97,9.11,1.65,3.51-3.9,6.67-8.15,9.8-12.38,3.49-4.72,6.75-9.61,10.15-14.4,2.44-3.44,5.76-5.58,9.83-6.32,3.51-.64,7.06-1.48,10.6-1.49,15.16-.05,30.32,0,45.47,.38,7.79,.19,14.21,3.33,18.66,10.44,4.06,6.48,8.66,12.62,13.22,18.76,1.88,2.52,4.16,4.76,6.47,6.88,1.79,1.63,3.47,1.47,4.91-.46,1.35-1.82,2.7-3.9,3.17-6.07,1.11-5.09,1.7-10.3,2.39-14.77h0ZM90.73,20.72c.07-1.74-.45-2.26-2.18-2.25-22.78,.05-45.56,.05-68.34,0-1.76-.01-2.17,.59-2.17,2.29,.04,44.2,.04,88.41,0,132.62-.01,1.74,.48,2.25,2.2,2.24,22.78-.05,45.56-.05,68.34,.01,1.78,0,2.15-.59,2.15-2.28-.07-13.1-.04-26.19-.04-39.29v-2.05c-3.01,.11-4.99,1.58-6.55,3.77-4.89,6.88-9.58,13.93-14.71,20.61-2.7,3.52-5.88,6.8-9.34,9.52-4.61,3.63-9.8,2.99-13.59-1.55-2.02-2.4-3.66-5.39-4.64-8.4-3.35-10.34-2.93-21-1.36-31.57,2.59-17.39,7.64-34.17,12.85-50.88,1.08-3.46,2.72-6.74,4.23-10.05,4.12-9.07,11.58-13.01,20.91-13.56,3.97-.25,7.99,.34,12.2,.55,0-2.98-.09-6.36,.04-9.73Z"/>
  <path class="cls-1" d="M157.52,55.76c8.95,.06,15.99,7.38,15.96,16.58-.04,9.19-7.3,16.51-16.33,16.45-8.9-.07-16.11-7.64-16.01-16.83,.09-9.02,7.42-16.26,16.38-16.19h0Z"/>
  <path class="cls-1" d="M96.08,66.92c4.88,.05,4.82,.02,4.84,4.93,0,1.6-.38,2.24-2.07,2.16-2.83-.14-5.67-.04-8.74-.04,0,3.14-.07,6.05,.03,8.94,.05,1.58-.33,2.23-2.04,2.21-4.89-.04-4.89,.03-4.89-5.06v-6.1h-10.86c0-2.1-.08-4.01,.07-5.89,.03-.41,.88-1.05,1.37-1.08,2.53-.11,5.07-.1,7.6-.03,1.37,.03,1.86-.52,1.83-1.87-.05-2.53,.03-5.06-.03-7.57-.03-1.28,.42-1.7,1.7-1.73,5.22-.12,5.2-.16,5.23,5.05,.01,1.92-.59,4.64,.38,5.54,1.11,1.03,3.65,.53,5.58,.55Z"/>
  <path class="cls-1" d="M57.7,166.82c5.95,.1,10.7,5.1,10.63,11.19-.06,5.94-4.94,10.86-10.76,10.86-5.91-.01-10.71-4.98-10.68-11.09,.03-6.1,4.92-11.05,10.81-10.95Zm3.39,11.11c.05-2.1-1.45-3.68-3.47-3.7-2-.01-3.62,1.6-3.62,3.6s1.52,3.53,3.43,3.6c2.05,.08,3.61-1.41,3.66-3.5h0Z"/>
</svg>