<?xml version="1.0" encoding="UTF-8"?>
<svg id="Layer_1" data-name="Layer 1" xmlns="http://www.w3.org/2000/svg" viewBox="0 0 170.06 199.96">
  <defs>
    <style>
      .cls-1 {
        fill: #fff;
      }

      .cls-2 {
        fill: #fbb247;
      }
    </style>
  </defs>
  <path class="cls-2" d="M28.8,198.37c0-.3-.21-.34-.33-.43-3.5-2.51-5.23-5.97-5.25-10.33-.02-2.98-.02-5.96,0-8.93,0-.57-.13-.76-.72-.76-3.04,.03-6.09,.02-9.13,0-3.16,0-5.32-2.23-5.32-5.48v-24.78c0-3.3,2.12-5.52,5.34-5.54,3-.02,5.99-.02,8.99,0,.66,0,.85-.16,.85-.86-.02-13.24-.02-26.48-.02-39.72V47.8c0-.64-.32-.95-.96-.94-2.42,.05-3.36-.54-3.96-2.95-.4-1.61-1.05-2.67-2.72-3.12-.79-.21-1.37-.37-2.06,.15-.51,.38-1.09,.66-1.65,.96-1.25,.69-2.64,.55-3.67-.41-.87-.81-1.7-1.65-2.51-2.51-.96-1.02-1.13-2.45-.5-3.76,.38-.79,.78-1.56,1.2-2.32,.17-.32,.18-.58,.02-.91-.3-.6-.6-1.21-.8-1.85-.19-.6-.54-.87-1.12-1-.71-.15-1.41-.37-2.11-.59-1.44-.45-2.27-1.55-2.32-3.1-.05-1.11-.05-2.24-.05-3.37,0-1.47,.79-2.59,2.13-3.09,.07-.03,.14-.05,.21-.07,.92-.31,2.05-.39,2.71-1.01,.63-.59,.76-1.74,1.15-2.63,.13-.3,.08-.51-.06-.76-.42-.73-.84-1.47-1.24-2.21-.77-1.44-.63-2.8,.45-4.01,.72-.81,1.47-1.6,2.23-2.38,1.01-1.05,2.4-1.29,3.7-.66,.09,.04,.17,.1,.26,.14,.84,.44,1.68,1.2,2.53,1.23,.86,.03,1.73-.71,2.61-1.06,.31-.12,.39-.34,.46-.61,.23-.84,.45-1.69,.7-2.53C18.29,.93,19.43,.06,20.98,.03c1-.02,2-.03,3-.03,1.59,0,2.74,.84,3.24,2.4,.21,.67,.47,1.33,.58,2.01,.13,.75,.62,.99,1.2,1.32,1.44,.84,2.73,.73,3.99-.32,.26-.22,.58-.37,.89-.52,1.23-.63,2.59-.45,3.6,.51,.82,.78,1.62,1.59,2.4,2.42,1.06,1.11,1.24,2.45,.55,3.86-.37,.76-.75,1.52-1.16,2.26-.19,.34-.19,.63,0,.98,.26,.48,.54,.98,.65,1.5,.2,.93,.76,1.29,1.6,1.43,.53,.09,1.03,.28,1.55,.43,1.64,.48,2.47,1.57,2.53,3.32,.03,.72,.38,1.08,1.07,1.08H111.64c5.24,0,9.59,3.07,11.34,7.99,.52,1.48,.7,3.01,.7,4.57,0,6.08,.01,12.16-.02,18.24,0,.68,.17,.87,.84,.87,14.03-.02,28.06-.02,42.09-.02,1.77,0,2.98,.86,3.37,2.39,.08,.33,.1,.69,.1,1.04v10.81c0,2.14-1.28,3.45-3.38,3.45h-34.13c-2.73,0-5.46,.01-8.18-.01-.52,0-.71,.11-.71,.69,.02,10.14,.02,20.27,0,30.41,0,.58,.17,.73,.7,.68,.58-.05,1.17-.03,1.75-.03,1.78,.01,3.19,1.05,3.75,2.79,.4,1.26,.78,2.53,1.14,3.8,.11,.38,.3,.59,.65,.72,1.05,.41,2.09,.82,3.12,1.27,.42,.18,.75,.19,1.15-.06,1-.62,2.02-1.21,3.04-1.79,1.8-1.03,3.53-.8,5.02,.66,1,.99,2,1.98,2.99,2.98,1.32,1.34,1.61,3.18,.76,4.9-.56,1.14-1.14,2.27-1.74,3.38-.18,.33-.17,.58,0,.9,.57,1.08,1.05,2.2,1.41,3.37,.12,.38,.31,.57,.69,.67,1.2,.32,2.4,.67,3.59,1.02,1.77,.53,2.87,1.96,2.93,3.85,.05,1.53,.07,3.05,.07,4.58,0,1.84-1.08,3.33-2.78,3.89-1.16,.38-2.32,.76-3.49,1.11-.41,.12-.66,.31-.78,.76-.3,1.11-.75,2.17-1.24,3.2-.2,.43-.21,.76,.03,1.18,.63,1.07,1.22,2.16,1.81,3.26,.86,1.61,.64,3.48-.57,4.8-1,1.09-2.02,2.17-3.05,3.24-1.34,1.39-3.13,1.67-4.83,.77-1.08-.57-2.16-1.16-3.22-1.76-.33-.19-.6-.19-.94,0-1.03,.58-2.1,1.05-3.21,1.43-.39,.13-.59,.32-.7,.75-.29,1.19-.63,2.36-.95,3.54-.55,1.96-1.9,3.06-3.89,3.12-.85,.03-1.71,.06-2.56,.02-.53-.02-.65,.18-.65,.69,.02,2.28,0,4.55,0,6.83,0,4.55-.02,9.11,0,13.66,.02,4.57-1.73,8.18-5.45,10.75-.06,.04-.11,.1-.2,.18,.25,.2,.51,.11,.75,.11h23.53c.5,0,.79,.28,.81,.78s-.3,.77-.77,.83c-.22,.03-.44,0-.66,0H6.7c-.37,0-.73,.02-1.09-.02-.48-.06-.76-.36-.72-.87,.03-.47,.31-.71,.77-.73H28.8v.04Zm32.65-3.46c-1.12-.07-2.24-.06-3.36,0-.27,0-.53-.03-.8-.03-7.15,0-14.3-.03-21.46,0-2.14,0-4.04-.49-5.64-1.98-1.54-1.69-2.07-3.69-2-5.99,.09-2.75,0-5.5,.03-8.25,0-.6-.17-.78-.74-.74-.68,.05-1.36,.05-2.04,0-.54-.04-.64,.19-.64,.69,.02,3.18-.07,6.36,.03,9.53,.11,3.51,1.56,6.35,4.44,8.34,1.6,1.17,3.38,1.79,5.35,1.79,.25,.16,.52,.09,.78,.09h21.32c1.29,0,2.58-.03,3.87-.04h.43c.29,0,.58,.04,.87,.04h49.76c5.93,0,10.41-4.62,10.41-10.69V77.17c0-1.5-.03-3-.02-4.5,0-.45-.11-.63-.58-.61-.73,.03-1.46,.04-2.19,0-.48-.02-.63,.15-.63,.64,.02,1.35,0,2.7,0,4.05v111.18c0,2.59-1.13,4.56-3.24,5.94-1.26,.82-2.67,1.02-4.13,1.02h-41.28c-.27,0-.53,.02-.8,.04-2.58-.06-5.17-.06-7.75,0v-.02ZM110.27,24.36c-1.08-.07-2.15-.06-3.23,0-.15-.01-.29-.03-.44-.03h-27.69c-.17,0-.34,.02-.51,.04-.29-.01-.58-.04-.87-.04H35.14c-5.87,0-10.35,4.62-10.35,10.67v101.89c0,1.53,.01,3.05,0,4.58,0,.44,.08,.75,.6,.67,.79,.13,1.58,.13,2.37,0,.75-.09,.42-.7,.42-1.05,.02-35.2,.02-70.41,.02-105.61,0-.48,0-.95,.03-1.42,.25-3.36,3.13-6.2,6.41-6.23,4.6-.04,9.21,0,13.81-.02,.66,0,.96,.27,1.03,.96,.25,2.8,2.06,4.47,4.81,4.47h18.05c1.24,0,2.48-.02,3.72-.03,.22,0,.44,.03,.65,.03h20.28c2.55,0,4.44-1.8,4.62-4.42,.04-.63,.28-.98,.9-1.03,2.32,.07,4.64,.05,6.96,0h.07l.04-.05c.95,.2,1.91,.07,2.86,.07,1.54,.18,2.89,.81,4.08,1.83,1.59,1.64,2.21,3.62,2.14,5.93-.09,2.93-.02,5.85-.02,8.78,0,3.08,.03,6.16-.01,9.23,0,.68,.19,.87,.82,.81,.65-.06,1.32-.04,1.97,0,.45,.02,.64-.09,.64-.61-.02-6.43,.06-12.86-.04-19.29-.05-3.42-1.52-6.21-4.3-8.18-.19-.15-.38-.31-.58-.44-2.12-1.36-4.45-1.66-6.88-1.46v-.05Zm-77.18-1.56c.94-.15,1.88-.13,2.82-.14,2.03,0,4.06-.02,6.09-.03,.53,.02,1.07,.04,1.6,.05,.2,0,.41,.01,.42-.28,.04-1.19-.05-2.19-1.37-2.55-.94-.26-1.87-.55-2.82-.78-.56-.14-.88-.45-1.05-1.01-.32-1.05-.71-2.08-1.28-3.02-.28-.46-.19-.89,.05-1.34,.49-.92,.96-1.85,1.43-2.79,.4-.81,.33-1.32-.29-1.96-.72-.75-1.45-1.48-2.19-2.21-.69-.68-1.29-.75-2.12-.28-.87,.5-1.75,.99-2.6,1.53-.44,.28-.85,.29-1.31,.09-.97-.41-1.93-.83-2.92-1.18-.6-.21-.9-.6-1.05-1.21-.25-.96-.55-1.92-.86-2.87-.26-.8-.76-1.17-1.58-1.18-1.02,0-2.05,0-3.07,.02-.91,.02-1.41,.45-1.67,1.37-.28,1.01-.59,2.01-.84,3.03-.12,.46-.35,.73-.79,.88-1.07,.36-2.09,.82-3.07,1.39-.39,.23-.74,.25-1.16,0-.93-.55-1.88-1.05-2.83-1.56-.65-.35-1.31-.3-1.83,.21-.81,.79-1.58,1.63-2.34,2.47-.55,.6-.59,1.29-.19,2.01,.52,.93,1.03,1.87,1.57,2.8,.24,.41,.26,.77,.04,1.19-.51,1-.94,2.04-1.23,3.12-.15,.55-.45,.83-.97,.98-.98,.28-1.95,.61-2.92,.95-.81,.28-1.13,.75-1.14,1.62,0,1.03,0,2.05,.02,3.08,0,1.03,.35,1.51,1.31,1.8,.93,.29,1.87,.55,2.81,.8,.54,.14,.9,.41,1.06,1,.29,1.03,.73,2.02,1.24,2.96,.25,.46,.24,.89,0,1.35-.49,.92-.96,1.85-1.43,2.79-.36,.72-.3,1.41,.26,1.99,.72,.75,1.44,1.5,2.19,2.21,.76,.72,1.26,.77,2.18,.26,.9-.5,1.79-1.01,2.68-1.54,.4-.24,.76-.25,1.17-.02,.98,.56,2.04,.95,3.11,1.27,.42,.12,.66,.36,.78,.79,.3,1.05,.63,2.1,.96,3.15,.19,.61,.54,1.07,1.19,1.18,1.88,.32,2.07,.15,2.04-1.78,0-.1-.02-.2-.03-.3,0-2.93,.01-5.86,.02-8.8,.12-.66,.38-1.38,.14-1.96-.11-.25-.98-.16-1.5-.22-.05,0-.1,0-.15-.02-4.47-.59-7.71-4.92-7.1-9.48,.54-4.04,3.77-7.2,7.63-7.46,4.01-.27,7.49,2.29,8.63,6.29,.17,.58-.07,1.49,.44,1.68,.5,.18,1.2-.23,1.82-.38v.04Zm90.63,126.95c0,3.88,0,7.76-.01,11.64,0,.85,0,1.7-.03,2.55-.02,.43,.14,.57,.54,.56,.83-.03,1.65-.03,2.48-.05,1.4-.03,2.14-.61,2.53-2.02,.37-1.35,.74-2.69,1.09-4.05,.14-.56,.43-.89,.99-1.07,1.43-.44,2.78-1.06,4.08-1.81,.48-.28,.89-.28,1.37,0,1.26,.71,2.53,1.39,3.81,2.07,1.04,.55,2.08,.38,2.88-.45,.99-1.03,1.97-2.08,2.94-3.13,.87-.94,.98-1.93,.36-3.09-.66-1.23-1.31-2.46-2.02-3.65-.33-.56-.35-1.04-.06-1.61,.66-1.31,1.21-2.68,1.58-4.11,.15-.6,.48-.93,1.06-1.1,1.31-.39,2.61-.81,3.9-1.24,1.31-.43,1.89-1.26,1.87-2.68-.02-1.35-.05-2.7-.09-4.05-.04-1.4-.61-2.15-1.94-2.54s-2.66-.79-4.01-1.14c-.54-.14-.82-.44-.98-.97-.43-1.46-1.01-2.87-1.76-4.19-.3-.53-.27-.96,0-1.47,.65-1.23,1.28-2.47,1.91-3.72,.62-1.23,.48-2.25-.46-3.2-.96-.96-1.92-1.92-2.88-2.87-.97-.96-1.96-1.08-3.12-.4-1.16,.68-2.34,1.34-3.48,2.05-.54,.34-1.02,.35-1.58,.11-1.32-.57-2.66-1.12-4-1.63-.58-.22-.92-.56-1.09-1.18-.38-1.37-.79-2.73-1.22-4.09-.34-1.08-1.12-1.73-2.12-1.77-.68-.03-1.36,.03-2.04,0-.44-.02-.53,.19-.52,.58,.02,.85,.02,1.7,.02,2.55-.14,.17-.09,.38-.09,.57v11.3c0,.19-.05,.4,.1,.57,0,.87,0,1.75-.03,2.62-.01,.42,.11,.55,.53,.55,.67,0,1.36,.05,2.02,.16,7.28,1.23,11.25,9.92,7.51,16.47-2.11,3.7-5.33,5.55-9.47,5.73-.48,.02-.63,.14-.61,.63,.05,.85,.03,1.7,.04,2.55v.02Zm-31.13,4.96c-15,0-30.01,0-45.01,0-.29,0-.58,.03-.87,.04-1.02-.02-2.04,0-3.06-.07-.67-.05-.8,.2-.8,.84,.02,5.65,.02,11.31,0,16.96,0,3.12-2.21,5.4-5.24,5.43-1.07,0-2.14,.03-3.21,.04h-.88c-1.07-.07-2.14-.07-3.21,0h-.3c-.13-.03-.23-.03-.21,.16,0,1.6,0,3.2-.01,4.8-.07,1.2-.07,2.39,0,3.59,0,.25,.01,.5,.02,.75-.14,1.33,.09,2.56,.91,3.63,.95,1.57,2.42,2.18,4.13,2.33,.32,0,.63,.04,.95,.04H111.64c3.43,0,5.75-2.65,5.43-6.15,0-.15,0-.3,.01-.45,.01-.3,.04-.6,.04-.9V76.89c0-.3-.03-.6-.04-.9,0-1.07-.02-2.15,.04-3.22,.03-.6-.16-.75-.73-.75-3.77,.03-7.54,.02-11.31,.02-2.08-.79-2.65-1.64-2.65-3.99v-10.28c0-2.1,1.29-3.42,3.33-3.43,1.31,0,2.63-.03,3.94-.04,2.43,.04,4.87,.08,7.3-.02,.03,0,.05-.02,.08-.03l-.03-.04c.13-1.31,.05-2.61,.04-3.92,.01-2.52,.04-5.05,.04-7.57,0-2.32-.02-4.65-.04-6.97,0-.15-.01-.3-.02-.45,.13-1.41-.17-2.69-1.08-3.8-.7-1.03-1.67-1.66-2.84-1.93-1.43-.33-2.89-.15-4.34-.13-1.08-.07-2.15-.06-3.23,0-.66-.01-1.31-.01-1.97-.04-.33-.01-.44,.12-.53,.45-.92,3.36-3.04,5-6.45,5h-18.16c-1,0-1.99,.02-2.99,.03-.29,0-.58-.03-.87-.03h-20.07c-3.48,0-5.56-1.59-6.52-5.01-.09-.34-.23-.43-.54-.43-4.31,.01-8.61-.05-12.92,.04-2.81,.05-5.06,2.85-4.76,5.71l-.02,.45c-.01,.25-.04,.5-.04,.75v100.45c0,.3,.03,.6,.04,.9,0,1.25,0,2.5-.03,3.75-.02,.52,.14,.69,.65,.68,2.21-.03,4.43,0,6.64-.02,1.17,0,2.27,.17,3.31,.73,.11,.17,.27,.26,.45,.31,.34,.34,.68,.69,1.02,1.03,.08,.26,.23,.48,.42,.67,0,.04,0,.06,.04,.07,0,.1,.05,.16,.15,.15,.1,0,.2,0,.29,0,1.27,.12,2.54,.11,3.81,0,.29,0,.58,.03,.87,.03h24.19c1.39,0,2.78-.02,4.16-.02,.67,.14,1.35,.06,2.02,.06,2.01-.02,4.02,.08,6.02-.05,.32,0,.63,0,.95,0,.12,.05,.24,.09,.36,.14,.46,.55,.47,1.05-.14,1.48-.05,0-.09,.02-.14,.04-12.37,0-24.75,0-37.12,0-.34,0-.68,.03-1.02,.05-1.16-.14-2.33-.02-3.49-.06-.27,0-.38,.08-.38,.39,.02,1.82,.02,3.65,.02,5.47,0,.32,.05,.53,.43,.51,1.14-.05,2.28,.08,3.42-.07,.24,.02,.48,.05,.72,.05h26.16c6.33,0,12.67,0,19,.02,.05,.02,.09,.03,.14,.05,.56,.49,.53,.99,0,1.48-.05,.02-.09,.03-.14,.05l.02-.02Zm-51.31,5.36h0v-12.46c0-2.38-1.44-3.85-3.74-3.85H13.56c-2.56,0-3.96,1.44-3.97,4.09,0,8.11,.04,16.22-.03,24.33-.02,2.15,1.34,4.19,4.02,4.16,7.99-.08,15.98-.07,23.97,0,2.04,.02,3.79-1.69,3.74-3.87-.09-4.13-.03-8.26-.03-12.39h0ZM127.27,55.97h-21.33c-1.38,0-1.95,.59-1.95,2.01v10.43c0,1.4,.59,2,1.96,2,14.27,0,28.54,0,42.81,.02,.63,0,.76-.2,.75-.8-.02-4.25,0-8.51,.03-12.76,0-.71-.15-.92-.87-.92-7.13,.03-14.27,.02-21.4,.02Zm31.88,14.45h7.45c1.25,0,1.85-.61,1.85-1.87v-10.73c0-1.24-.57-1.85-1.78-1.86-4.97,0-9.93,0-14.9,0-.53,0-.72,.14-.72,.71,.02,4.35,.02,8.7,0,13.06,0,.57,.17,.72,.71,.71,2.46-.03,4.92-.01,7.38-.01h0Zm-35.5,64.94v7.58c0,1.41,.69,2.02,2.06,1.83,4.72-.68,8.17-5.18,7.82-10.17-.34-4.85-4.44-8.77-9.15-8.77-.55,0-.75,.14-.74,.75,.03,2.93,.01,5.85,0,8.78ZM16.12,23.66c-.03,4.05,3.41,7.36,7.19,6.93,.44-.05,.72-.18,.92-.66,1-2.39,2.61-4.26,4.8-5.58,.4-.24,.51-.52,.48-.97-.21-3.77-3.25-6.64-6.94-6.55-3.53,.09-6.42,3.14-6.45,6.82h0Z"/>
  <path class="cls-1" d="M41.28,160.07c0,4.13-.06,8.26,.03,12.39,.05,2.18-1.7,3.89-3.74,3.87-7.99-.06-15.98-.08-23.97,0-2.68,.03-4.04-2.01-4.02-4.16,.06-8.11,.02-16.22,.03-24.33,0-2.64,1.4-4.09,3.97-4.09h23.97c2.3,0,3.73,1.47,3.74,3.85v12.46h0Zm-15.78-8.12h11.61c.56,0,1.04-.14,1.09-.83,.04-.57-.36-.9-1.08-.9H14.13c-.95,0-1.47,.35-1.44,.91,.03,.54,.53,.82,1.43,.82h11.38Zm-.03,5.91h11.68c.52,0,1-.05,1.04-.74,.03-.57-.35-.9-1.08-.9H13.9c-.58,0-1.13,.1-1.15,.83-.03,.79,.54,.81,1.12,.81h11.6Zm-6.83,5.99h4.89c.58,0,1.11-.06,1.09-.85-.02-.73-.51-.8-1.06-.8H13.86c-.54,0-1.06,.03-1.11,.76-.04,.61,.32,.88,1.16,.88h4.73Zm-.31,4.36h-4.67c-.52,0-.93,.18-.92,.81,.02,.59,.4,.82,.93,.82h9.27c.56,0,1.02-.21,1-.83-.01-.59-.43-.82-1.02-.81-1.53,.02-3.07,0-4.6,0h.01Zm11.77-5.99h-2.19c-.55,0-.96,.18-.95,.86,.01,.65,.45,.77,.95,.78,1.46,0,2.92,0,4.38,0,.53,0,.94-.22,.92-.81,0-.57-.37-.83-.92-.83h-2.19Z"/>
  <path class="cls-2" d="M123.7,161.39c0-3.88,0-7.76,.01-11.64,1.9-.08,3.75-.34,5.55-1.04,2.93-1.14,5.18-3.12,6.83-5.81,1.81-2.93,2.46-6.15,1.96-9.59-.63-4.35-2.8-7.69-6.38-10.05-2.41-1.59-5.1-2.26-7.96-2.23-.15-.17-.1-.38-.1-.57v-11.3c0-.19-.05-.4,.09-.57h.88c1.06,0,1.03,0,1.34,1.09,.39,1.36,.85,2.7,1.23,4.06,.16,.56,.46,.89,.98,1.1,2.39,.96,4.78,1.94,7.16,2.93,.25,.1,.43,.11,.67-.03,1.47-.88,2.95-1.72,4.41-2.6,.4-.24,.68-.27,1.01,.11,.49,.56,1.01,1.09,1.55,1.59,.4,.36,.36,.67,.11,1.1-.87,1.52-1.54,3.16-2.45,4.66-.16,.27-.07,.55,.09,.84,.46,.79,.88,1.6,1.3,2.41,.75,1.46,1.23,3.03,1.65,4.62,.12,.47,.35,.73,.86,.86,1.6,.39,3.18,.89,4.78,1.31,.52,.14,.79,.37,.74,.98-.05,.65-.04,1.3,0,1.95,.04,.55-.18,.8-.68,.97-1.45,.49-2.94,.85-4.34,1.49-.48,.22-1.12,.3-1.26,.99-.51,2.57-1.56,4.92-2.79,7.19-.15,.27-.09,.43,.04,.67,.9,1.59,1.75,3.21,2.67,4.78,.23,.4,.18,.61-.11,.89-.49,.48-1.01,.95-1.43,1.5-.44,.56-.84,.48-1.37,.17-1.39-.8-2.82-1.55-4.22-2.34-.39-.22-.72-.22-1.09,.02-.45,.29-.9,.59-1.37,.85-1.71,.96-3.52,1.64-5.41,2.14-.31,.08-.61,.14-.72,.61-.44,1.81-.95,3.6-1.43,5.4-.06,.24-.12,.41-.41,.42-.8,.02-1.6,.07-2.39,.1v-.03Z"/>
  <path class="cls-2" d="M42,22.63c.09-.53-.1-.83-.63-.97-1.11-.29-2.19-.67-3.3-.92-.49-.11-.74-.35-.85-.79-.46-1.8-1.17-3.49-2.15-5.06-.19-.3-.19-.48,0-.8,.56-.99,1.05-2.03,1.58-3.04,.3-.57,.3-1.01-.24-1.49-1.26-1.14-.95-1.41-2.5-.34-.7,.48-1.49,.84-2.23,1.26-.25,.14-.48,.15-.76,.04-1.75-.72-3.51-1.43-5.27-2.13-.43-.17-.62-.48-.73-.94-.28-1.06-.64-2.09-.94-3.15-.12-.44-.36-.57-.79-.58-1.92-.03-1.93-.04-2.42,1.9-.18,.72-.47,1.41-.58,2.16-.05,.37-.28,.65-.7,.78-1.68,.52-3.31,1.18-4.8,2.14-.43,.28-.8,.23-1.22-.01-1.02-.58-2.06-1.11-3.09-1.67-.26-.14-.45-.18-.71,.05-1.57,1.39-1.6,1.6-.48,3.37,.21,.33,.33,.74,.58,1.03,.81,.96,.65,1.86,.03,2.84-.74,1.16-1.12,2.48-1.42,3.83-.13,.58-.35,.96-1,1.1-.97,.21-1.91,.56-2.86,.86-.57,.18-.87,.48-.85,1.18,.05,1.68,0,1.69,1.56,2.19,.86,.27,1.73,.49,2.59,.75,.23,.07,.47,.12,.53,.43,.37,1.85,1.13,3.55,2.07,5.15,.31,.53,.2,.89-.06,1.36-.54,.98-1.02,1.98-1.55,2.96-.2,.37-.16,.63,.15,.92,.45,.42,.81,1.07,1.33,1.26,.56,.2,1.02-.51,1.57-.76,.69-.31,1.35-.69,1.99-1.1,.51-.32,.97-.29,1.43,.03,1.35,.95,2.9,1.38,4.44,1.82,.51,.15,.82,.37,.96,.96,.28,1.16,.67,2.29,1,3.44,.08,.3,.25,.4,.53,.4,.32,0,.63,.02,.95,.03,0,.1,.02,.2,.03,.3,.03,1.93-.16,2.1-2.04,1.78-.65-.11-1-.58-1.19-1.18-.33-1.05-.65-2.09-.96-3.15-.12-.43-.36-.67-.78-.79-1.08-.32-2.13-.71-3.11-1.27-.41-.23-.77-.22-1.17,.02-.88,.53-1.78,1.04-2.68,1.54-.92,.51-1.42,.46-2.18-.26-.75-.71-1.47-1.46-2.19-2.21-.57-.59-.63-1.27-.26-1.99,.47-.93,.94-1.86,1.43-2.79,.24-.46,.26-.88,0-1.35-.51-.94-.95-1.92-1.24-2.96-.17-.58-.53-.85-1.06-1-.94-.25-1.88-.51-2.81-.8-.96-.3-1.3-.77-1.31-1.8,0-1.03-.03-2.05-.02-3.08,0-.87,.33-1.34,1.14-1.62,.97-.33,1.94-.66,2.92-.95,.52-.15,.83-.43,.97-.98,.29-1.09,.71-2.13,1.23-3.12,.22-.42,.2-.78-.04-1.19-.54-.92-1.05-1.86-1.57-2.8-.39-.71-.35-1.4,.19-2.01,.76-.84,1.53-1.68,2.34-2.47,.52-.51,1.18-.56,1.83-.21,.95,.51,1.91,1.01,2.83,1.56,.42,.25,.77,.23,1.16,0,.97-.58,2-1.03,3.07-1.39,.44-.15,.67-.42,.79-.88,.26-1.02,.56-2.02,.84-3.03,.26-.93,.76-1.35,1.67-1.37,1.02-.02,2.05-.03,3.07-.02,.82,0,1.33,.38,1.58,1.18,.31,.95,.61,1.9,.86,2.87,.16,.61,.46,1,1.05,1.21,.99,.35,1.95,.77,2.92,1.18,.46,.2,.87,.19,1.31-.09,.85-.54,1.73-1.03,2.6-1.53,.83-.48,1.42-.4,2.12,.28,.74,.73,1.47,1.46,2.19,2.21,.62,.64,.69,1.15,.29,1.96-.46,.94-.93,1.87-1.43,2.79-.24,.45-.33,.88-.05,1.34,.57,.94,.96,1.97,1.28,3.02,.17,.56,.49,.87,1.05,1.01,.95,.23,1.88,.52,2.82,.78,1.31,.36,1.4,1.35,1.37,2.55,0,.29-.23,.28-.42,.28-.53-.01-1.07-.03-1.6-.05h.01Z"/>
  <path class="cls-2" d="M159.16,70.43c-2.46,0-4.92-.01-7.38,.01-.54,0-.71-.14-.71-.71,.02-4.35,.02-8.7,0-13.06,0-.57,.19-.71,.72-.71,4.97,.02,9.93,0,14.9,0,1.2,0,1.78,.61,1.78,1.86v10.73c0,1.26-.6,1.86-1.85,1.87h-7.46Zm4.32-7.82c0-2.55-2.1-4.62-4.52-4.43-2.58,.21-4.38,2.49-3.99,5.06,.45,2.96,3.42,4.6,6.08,3.3,.49-.24,.77-.2,1.1,.21,.38,.45,.82,.86,1.23,1.28,.36,.36,.78,.49,1.17,.11,.41-.4,.32-.85-.06-1.25-.43-.45-.84-.91-1.29-1.32-.35-.31-.43-.58-.17-1.01,.35-.59,.46-1.26,.46-1.94h-.01Z"/>
  <path class="cls-2" d="M23.18,34.35c-2.5,.09-4.72-.66-6.71-2.23-2.26-1.79-3.56-4.16-3.92-7.01-.33-2.62,.2-5.09,1.69-7.32,1.87-2.81,4.48-4.32,7.71-4.66,2.19-.23,4.27,.28,6.19,1.51,1.57,1,2.8,2.3,3.72,3.92,.74,1.31,1.18,2.72,1.23,4.25-.61,.15-1.32,.56-1.82,.38-.51-.19-.28-1.1-.44-1.68-1.14-4-4.62-6.56-8.63-6.29-3.86,.26-7.09,3.42-7.63,7.46-.61,4.56,2.63,8.89,7.1,9.48,.05,0,.1,0,.15,.02,.52,.06,1.4-.03,1.5,.22,.24,.57-.01,1.3-.14,1.96h0Z"/>
  <path class="cls-2" d="M25.4,142.12c-.3-1.03-.29-2.11-.11-3.11,.19-1.06,1.21-.3,1.83-.49,.42-.12,.68,.09,.67,.6-.03,1-.01,1.99-.02,2.99-.79,.13-1.58,.13-2.37,0h0Z"/>
  <path class="cls-2" d="M93.47,79.74c-.23,3.04-.87,5.97-2.23,8.72-1.16,2.34-2.75,4.33-4.6,6.12-1.28,1.24-2.36,2.71-3.99,3.79,2.08,.69,3.96,1.43,5.73,2.42,8.95,4.99,14.47,12.62,16.6,22.85,.4,1.94,.57,3.91,.6,5.89,.02,1.07-.19,1.31-1.2,1.31H42.49c-1.02,0-1.23-.23-1.22-1.29,.22-14.13,8.95-26.37,22.01-30.87,.25-.08,.49-.17,.88-.31-1.99-1.35-3.36-3.18-4.94-4.79-3.69-3.76-5.61-8.37-5.8-13.7-.15-4.32-.24-8.65-.26-12.98-.05-7.57,3.91-13.24,10.88-15.66,.43-.15,.47-.38,.48-.76,.09-3.8,2.33-7.05,5.75-8.36,3.47-1.34,7.24-.4,9.74,2.43,1.48,1.68,2.24,3.67,2.29,5.93,.01,.44,.12,.63,.56,.78,6.88,2.32,11.03,8.47,10.81,15.87-.1,3.35-.12,6.7-.18,10.05-.08,.85-.08,1.7-.04,2.54l.02,.02Zm-20.08,49.43h17.9c3.99,0,7.99,0,11.98,0,.61,0,.77-.21,.7-.78-.12-1.06-.17-2.13-.34-3.19-.59-3.84-1.78-7.47-3.7-10.83-4.01-7.03-9.81-11.79-17.35-14.31-.81-.27-.84-.25-.81,.65,.09,2.8-.88,5.11-2.91,6.99-3.29,3.07-8.99,2.64-11.79-.9-1.44-1.81-2.12-3.85-2.01-6.18,.03-.57-.06-.83-.72-.61-8.04,2.69-14.08,7.85-18.06,15.52-2.07,3.99-3.09,8.28-3.42,12.77-.05,.71,.17,.87,.84,.87,9.89-.02,19.78,0,29.67,0h.02Zm9.4-64.13c-.32,.1-.46,.35-.63,.55-2.66,2.91-5.72,5.28-9.12,7.19-4.21,2.36-8.69,3.88-13.44,4.58-.7,.1-.97,.34-.95,1.12,.06,2.02,0,4.05,.02,6.08,.06,9.09,7.62,16.02,16.41,15.05,7.23-.8,12.97-7.19,13.07-14.64,.06-4.05,0-8.1,.02-12.16,0-.42-.13-.68-.47-.92-1.11-.79-2.03-1.79-2.83-2.9-.88-1.21-1.5-2.56-2.09-3.93v-.02Zm-16.12,36.11c-.02,4.47,3.98,7.76,8.19,6.85,2.99-.65,5.54-3.48,5.35-7.31-.04-.85,0-.85-.75-.56-3.88,1.55-7.77,1.59-11.69,.14-1.17-.43-1.17-.44-1.11,.87h.01Z"/>
  <path class="cls-2" d="M85.27,138.83c-2.58-.07-5.17-.07-7.75,0-.12,0-.24-.03-.36-.03H41.86s-.09,0-.14-.02c-.39-.14-.64-.49-.54-.85,.12-.42,.45-.74,.97-.74h62.35c.44-.02,.84,.04,1.02,.53,.17,.46-.07,.76-.38,1.04-.05,0-.09,.03-.14,.04h-19.37c-.12,0-.24,.02-.36,.03h0Z"/>
  <path class="cls-2" d="M25.49,151.94H14.1c-.91,0-1.4-.29-1.43-.82-.03-.56,.49-.9,1.44-.91h22.99c.72,0,1.12,.33,1.08,.9-.05,.69-.53,.83-1.09,.83h-11.6Z"/>
  <path class="cls-2" d="M25.46,157.85H13.85c-.57,0-1.14-.03-1.12-.81,.03-.73,.58-.83,1.15-.83h23.21c.73,0,1.11,.32,1.08,.9-.04,.7-.52,.74-1.04,.74h-11.67Z"/>
  <path class="cls-2" d="M18.64,163.84h-4.74c-.84,0-1.2-.27-1.16-.88,.05-.73,.57-.76,1.11-.76h9.7c.56,0,1.05,.07,1.06,.8,.02,.79-.51,.85-1.09,.85h-4.88Z"/>
  <path class="cls-2" d="M18.33,168.19c1.53,0,3.07,.02,4.6,0,.58,0,1,.22,1.02,.81,.02,.61-.45,.83-1,.83H13.68c-.53,0-.91-.23-.93-.82-.02-.62,.39-.8,.92-.81h4.66Z"/>
  <path class="cls-2" d="M30.09,162.2h2.19c.55,0,.91,.26,.92,.83,0,.6-.39,.81-.92,.81h-4.38c-.49,0-.94-.13-.95-.78-.01-.67,.4-.85,.95-.86h2.19Z"/>
  <path class="cls-2" d="M81.47,27.76c.45,.18,.77,.47,.65,1.02-.12,.54-.53,.64-1.01,.64-1.34,0-2.67,.02-4.01,.03-3.65-.01-7.3-.02-10.96-.04-.24,0-.49,.02-.73-.02-.44-.08-.7-.37-.68-.83,.02-.43,.27-.69,.68-.76,.21-.04,.44-.02,.66-.02h10.81c.27,0,.53-.02,.8-.04h.29c1.17,.07,2.34,.06,3.5,0v.02Z"/>
  <path class="cls-2" d="M85.55,27.79h.51c.52,.02,.83,.29,.83,.83,0,.5-.31,.77-.78,.8-.43,.02-.87,.02-1.31,0-.47-.02-.8-.29-.8-.79,0-.53,.31-.82,.82-.84,.24,0,.48,0,.73,0Z"/>
  <path class="cls-1" d="M163.48,62.61c0,.69-.11,1.36-.46,1.94-.26,.43-.18,.7,.17,1.01,.46,.41,.87,.87,1.29,1.32,.38,.4,.46,.86,.06,1.25-.38,.37-.81,.25-1.17-.11-.42-.42-.85-.82-1.23-1.28-.34-.4-.62-.45-1.1-.21-2.66,1.3-5.63-.34-6.08-3.3-.39-2.57,1.41-4.85,3.99-5.06,2.41-.19,4.52,1.88,4.52,4.43h.01Zm-4.29,2.76c1.52,.01,2.7-1.17,2.72-2.72,.02-1.57-1.17-2.84-2.69-2.86-1.45-.02-2.72,1.25-2.74,2.75-.03,1.56,1.18,2.82,2.71,2.83Z"/>
  <path class="cls-2" d="M73.39,129.18c-9.89,0-19.78,0-29.67,0-.66,0-.89-.16-.84-.87,.32-4.49,1.35-8.79,3.42-12.77,3.98-7.67,10.01-12.83,18.06-15.52,.66-.22,.75,.03,.72,.61-.11,2.32,.57,4.36,2.01,6.18,2.81,3.54,8.5,3.98,11.79,.9,2.02-1.89,2.99-4.2,2.91-6.99-.03-.9,0-.92,.81-.65,7.54,2.52,13.34,7.28,17.35,14.31,1.92,3.36,3.11,6.99,3.7,10.83,.16,1.05,.21,2.13,.34,3.19,.07,.57-.09,.78-.7,.78-3.99-.03-7.99,0-11.98,0h-17.92Z"/>
  <path class="cls-2" d="M82.78,65.05c.58,1.37,1.21,2.72,2.09,3.93,.81,1.11,1.72,2.11,2.83,2.9,.34,.24,.47,.5,.47,.92-.01,4.05,.04,8.11-.02,12.16-.11,7.46-5.84,13.85-13.07,14.64-8.79,.97-16.35-5.96-16.41-15.05,0-2.03,.04-4.05-.02-6.08-.02-.78,.25-1.02,.95-1.12,4.74-.7,9.23-2.21,13.44-4.58,3.4-1.91,6.46-4.28,9.12-7.19,.18-.19,.31-.45,.63-.55v.02Z"/>
  <path class="cls-2" d="M66.65,101.16c-.06-1.32-.07-1.31,1.11-.87,3.91,1.45,7.81,1.41,11.69-.14,.74-.3,.71-.29,.75,.56,.19,3.83-2.37,6.66-5.35,7.31-4.21,.91-8.2-2.38-8.19-6.85h-.01Z"/>
  <path class="cls-2" d="M159.18,65.36c-1.54-.01-2.74-1.27-2.71-2.83,.03-1.5,1.29-2.76,2.74-2.75,1.51,.02,2.71,1.29,2.69,2.86-.02,1.55-1.2,2.73-2.72,2.72Z"/>
</svg>