<?xml version="1.0" encoding="UTF-8"?>
<svg id="Layer_1" data-name="Layer 1" xmlns="http://www.w3.org/2000/svg" viewBox="0 0 200.01 199.98">
  <defs>
    <style>
      .cls-1 {
        fill: #fbb247;
      }
    </style>
  </defs>
  <path class="cls-1" d="M137.03,113.38c.1,9.15-5.05,15.08-9.19,12.29-.91-.61-2.59-.13-3.24,1.04-1.28,2.28-4.12,2.55-3.2,8.13,1.13,6.81,.33,8.82-3.49,11.88-4.06,3.25-4.88,2.71-7.67-3.06-.68-1.41-2.4-2.26-3.45-1.86-1.68,.64-4.03-.94-4.74,4.32-.94,6.94-1.99,7.67-6.69,6.97-3.77-.57-4.95-2.16-5.19-9.15-.2-5.93-3.05-4.71-4.76-6.29-.76-.7-2.41,.18-3.2,1.33-2.81,4.09-4.07,4.37-7.15,.5-3.75-4.7-4.25-6.8-2.59-13.07,.7-2.63,.84-4.71-.56-6.46-1.52-1.91-1.6-7.12-4.74-5.43-3.73,2.01-4.91,.52-6.64-6.31-1.78-7.03-1.65-9.33,1.69-12.97,1.94-2.12,1.49-4.63,1.12-7.24-.41-2.92,.27-6.67-2.52-7.78-3.69-1.46-4.25-3.66-3.9-10.93,.36-7.47,1.2-9.63,5.01-10.02,3.43-.35,2.69-5.66,3.91-8.62,1.1-2.66-.01-4.08-.91-5.79-2.45-4.65-2.43-7.12-.03-13.05,2.39-5.91,3.75-6.57,7-4.36,.98,.67,2.76,.77,3.31-.28,1.35-2.59,4.51-2.89,3.48-8.97-1.1-6.43-.15-8.67,3.72-11.7,3.85-3.02,5.12-2.67,7.3,3.34,1.03,2.83,2.14,2.7,3.52,1.9,1.7-.99,4.01,.72,4.79-4.33,1.05-6.84,2.3-7.95,6.36-7.22,4.28,.77,5.23,2.1,5.64,9.61,.31,5.74,3.18,4.41,4.89,6.08,.67,.65,2.21-.21,2.93-1.28,2.91-4.31,4.29-4.48,7.67-.13,3.41,4.38,3.88,6.55,2.08,12.85-.84,2.94-.36,4.72,.79,6.39,1.37,2,1.54,6.71,4.5,5.22,3.93-1.99,4.99-.64,6.82,6.64,1.7,6.75,1.37,8.28-1.89,13.04-.75,1.09-1.27,3.95-1.03,5.61,.42,3.02-.63,7.25,2.18,8.76,4.18,2.25,4.71,4.09,4.24,12.05-.41,6.95-1.24,8.64-5.46,9.36-3.25,.55-2.32,5.79-3.37,8.74-.36,1.02,.14,3.4,.58,4.85,.67,2.25,1.63,4.23,2.1,5.41h-.02ZM60.44,64.43c.56,4.24-2.36,9.1,1.46,10.3,3.53,1.11,4.56,4.58,4.53,10.16,0,1.4,.06,2.91,.36,4.18,1.11,4.78,.46,8.18-2.27,10.24-2.02,1.53-1.69,3.98-1,6.94,.75,3.2,1.79,3.84,3.5,2.48,2.45-1.96,4.37-1.16,5.63,3.46,.42,1.56,1.08,3.09,1.84,4.15,2.57,3.59,3.03,7.53,.98,12.21-1.14,2.61-.29,4.11,.95,5.51,1.14,1.3,2.3,3.76,3.52,.63,2.08-5.32,4.46-5.48,7.34-2.18,.9,1.03,2.02,1.65,3.08,1.96,2.35,.68,3.23,3.11,2.98,7.05-.25,3.92,.67,5.59,2.9,6.14,2.56,.64,2.84-2.31,3.12-5.26,.34-3.67,1.2-5.76,3.51-5.57,1.18,.1,2.45-.17,3.54-.9,3.1-2.09,5.34-1.03,6.75,4.61,.84,3.38,2.23,1.87,3.53,.87,1.26-.97,2.47-1.92,1.61-5.01-1.53-5.53-.42-9.27,2.49-11.96,.78-.72,1.52-1.81,2.07-3.03,1.73-3.83,3.61-4.61,5.88-1.52,1.65,2.24,2.76,1.15,3.93-1.61,1.27-2.98,.91-4.83-.5-7.13-.89-1.44-2.17-3.97-1.96-5.38,.82-5.4,1.79-11.02,3.52-15.57,.73-1.92,3.5-1.41,5.34-2.04,.17-.06,.31-.4,.47-.61,.9-7.79,.94-8.26-1.59-9.05-3.02-.94-4.22-3.74-4.15-8.89,.02-1.4,0-2.95-.29-4.2-1.31-5.48-.66-9.43,2.54-11.87,1.94-1.48,1.1-3.94,.54-6.22-.53-2.15-1-4.46-2.79-2.97-3.05,2.54-4.83,.54-6.86-4.16-2.57-5.93-5.31-10.84-1.26-18.12-1.56-2.06-2.8-3.7-4.47-5.9-2.25,7.81-5.14,6.91-9.21,4.51-4.35-2.57-5.89-6.56-5.38-14.11-2.37,.15-5.19-3.59-5.67,3.36-.37,5.46-2.13,6.99-4.83,6.96-.79,0-1.65,0-2.36,.52-3.07,2.26-5.36,1.28-6.72-4.47-.81-3.43-2.14-2.13-3.46-1.07-1.35,1.08-2.66,2.11-1.71,5.4,1.56,5.41,.39,8.94-2.41,11.51-.61,.56-1.2,1.38-1.62,2.33-2.05,4.63-4.33,5.68-7.1,1.87-1.48-2.04-2.29-.18-3.08,1.87-.78,2.04-2.03,4.09-.28,6.24,2.86,3.5,2.64,7.3,1.38,12.62-1.59,6.72-2.37,14.01-8.33,10.7v.02Z"/>
  <path class="cls-1" d="M99.74,199.97H7.74c-6.33,0-9.51-8.3-6.72-18.45,.72-2.63,2.89-4.32,4.58-5.71,.99-.81,2.36-.16,3.56-.16H191.96c6.58,0,9.25,6.08,7.55,17.44-.59,3.95-2.13,6.34-4.47,6.77-.99,.18-2,.09-2.99,.09H99.75v.02Zm.02-3.31h92.63c4.57,0,5.47-1.62,5.39-9.58-.07-6.55-1.02-7.99-5.38-7.99-61.36,0-122.71-.02-184.07-.02-1,0-2.15-.46-2.95,.27-1.12,1.03-2.53,2.68-2.86,4.58-1.46,8.61,.43,12.72,5.5,12.72H99.77v.02Z"/>
  <path class="cls-1" d="M92.14,40.75c.54,2.37,.93,4.09,1.32,5.81-.98,.24-1.95,.63-2.93,.69-.79,.04-1.59-.58-2.37-.46-4.32,.64-4.74-2.11-2.95-8.98,.46-1.76,.85-3.69,1.55-5.12,.7-1.42,1.74-2.3,2.64-3.42,.39,1.82,.79,3.65,1.03,4.79,4.26-.4,9.03-2.11,13.59-1.05,16.15,3.77,25.74,35.08,19.07,61.36-.42,1.67-1.94,4.02-2.57,3.7-2.11-1.09-.88-3.9-.41-6.04,3.51-15.92,2.14-30.46-4.6-42.6-6.28-11.32-14.04-14.06-22.6-9.28-.36,.2-.7,.54-.78,.6h0Z"/>
  <path class="cls-1" d="M108.2,113.58c-.67-3.1-1.08-4.97-1.48-6.84,1.08-.17,2.15-.45,3.23-.48,.79-.03,1.59,.29,2.38,.4,4.07,.57,4.39,1.44,2.8,7.97-.51,2.1-1,4.33-1.79,6.08-.66,1.46-1.75,2.32-2.64,3.45-.39-1.82-.78-3.64-1.26-5.93-4.4,2.67-9.3,3.84-14.44,2.08-15.47-5.31-24.52-36.27-17.79-61.62,.41-1.53,1.79-2.24,2.72-3.33,.07,1.86,.5,3.96,.17,5.55-5.58,26.35,2.88,51.82,18.35,54.28,3.27,.52,6.64-1.04,9.77-1.61h-.02Z"/>
  <path class="cls-1" d="M100.12,100.87c-7.52,.03-13.7-10.98-13.66-24.35,.04-13.1,6.18-23.93,13.57-23.92,7.42,0,13.62,10.74,13.69,23.73,.08,13.28-6.14,24.5-13.6,24.53h0Zm-.24-5.99c5.82,.19,10.35-7.46,10.49-17.7,.14-10.22-4.28-18.54-9.95-18.74-5.97-.21-10.57,7.61-10.62,18.06-.05,10.36,4.24,18.19,10.08,18.38Z"/>
  <path class="cls-1" d="M69.78,193.63c-20.67,0-41.34,0-62,0-3.47,0-4.76-3.16-3.58-9.05,.21-1.06,1.02-2.05,1.67-2.44,.72-.43,1.58-.16,2.38-.16,41.14,0,82.27,.02,123.41-.06,2.51,0,4.24,.32,4.13,6.12-.08,4.51-1,5.69-3.4,5.68-20.87-.12-41.73-.07-62.6-.08h-.01Z"/>
</svg>