<?xml version="1.0" encoding="UTF-8"?>
<svg id="Layer_1" data-name="Layer 1" xmlns="http://www.w3.org/2000/svg" viewBox="0 0 200.01 198.32">
  <defs>
    <style>
      .cls-1 {
        fill: #fbb247;
      }
    </style>
  </defs>
  <path class="cls-1" d="M151.33,110.94c.14,8.95-7,14.75-12.75,12.03-1.26-.6-3.59-.13-4.49,1.02-1.78,2.23-5.71,2.5-4.44,7.95,1.57,6.66,.46,8.63-4.84,11.62-5.63,3.18-6.77,2.65-10.64-2.99-.94-1.38-3.33-2.21-4.79-1.82-2.33,.63-5.59-.92-6.57,4.23-1.3,6.79-2.76,7.5-9.28,6.82-5.23-.56-6.87-2.11-7.2-8.95-.28-5.8-4.23-4.61-6.6-6.15-1.05-.68-3.34,.18-4.44,1.3-3.9,4-5.65,4.28-9.92,.49-5.2-4.6-5.9-6.65-3.59-12.79,.97-2.57,1.17-4.61-.78-6.32-2.11-1.87-2.22-6.97-6.57-5.31-5.17,1.97-6.81,.51-9.21-6.17-2.47-6.88-2.29-9.13,2.34-12.69,2.69-2.07,2.07-4.53,1.55-7.08-.57-2.86,.37-6.53-3.5-7.61-5.12-1.43-5.9-3.58-5.41-10.69,.5-7.31,1.66-9.42,6.95-9.8,4.76-.34,3.73-5.54,5.42-8.43,1.53-2.6-.01-3.99-1.26-5.67-3.4-4.55-3.37-6.97-.04-12.77,3.32-5.78,5.2-6.43,9.71-4.27,1.36,.66,3.83,.75,4.59-.27,1.87-2.53,6.26-2.83,4.83-8.78-1.53-6.29-.21-8.48,5.16-11.45,5.34-2.95,7.1-2.61,10.13,3.27,1.43,2.77,2.97,2.64,4.88,1.86,2.36-.97,5.56,.7,6.64-4.24,1.46-6.69,3.19-7.78,8.82-7.06,5.94,.75,7.25,2.05,7.82,9.4,.43,5.62,4.41,4.31,6.78,5.95,.93,.64,3.07-.21,4.06-1.25,4.04-4.22,5.95-4.38,10.64-.13,4.73,4.29,5.38,6.41,2.89,12.57-1.17,2.88-.5,4.62,1.1,6.25,1.9,1.96,2.14,6.57,6.24,5.11,5.45-1.95,6.92-.63,9.46,6.5,2.36,6.6,1.9,8.1-2.62,12.76-1.04,1.07-1.76,3.86-1.43,5.49,.58,2.95-.87,7.09,3.02,8.57,5.8,2.2,6.53,4,5.88,11.79-.57,6.8-1.72,8.45-7.57,9.16-4.51,.54-3.22,5.67-4.67,8.55-.5,1,.19,3.33,.8,4.75,.93,2.2,2.26,4.14,2.91,5.29h-.03ZM45.09,63.04c.78,4.15-3.27,8.9,2.03,10.08,4.9,1.09,6.33,4.48,6.28,9.94,0,1.37,.08,2.85,.5,4.09,1.54,4.68,.64,8-3.15,10.02-2.8,1.5-2.34,3.89-1.39,6.79,1.04,3.13,2.48,3.76,4.85,2.43,3.4-1.92,6.06-1.13,7.81,3.39,.58,1.53,1.5,3.02,2.55,4.06,3.56,3.51,4.2,7.37,1.36,11.95-1.58,2.55-.4,4.02,1.32,5.39,1.58,1.27,3.19,3.68,4.88,.62,2.89-5.21,6.19-5.36,10.18-2.13,1.25,1.01,2.8,1.61,4.27,1.92,3.26,.67,4.48,3.04,4.13,6.9-.35,3.84,.93,5.47,4.02,6.01,3.55,.63,3.94-2.26,4.33-5.15,.47-3.59,1.66-5.64,4.87-5.45,1.64,.1,3.4-.17,4.91-.88,4.3-2.04,7.41-1.01,9.36,4.51,1.17,3.31,3.09,1.83,4.9,.85,1.75-.95,3.43-1.88,2.23-4.9-2.12-5.41-.58-9.07,3.45-11.7,1.08-.7,2.11-1.77,2.87-2.96,2.4-3.75,5.01-4.51,8.16-1.49,2.29,2.19,3.83,1.13,5.45-1.58,1.76-2.92,1.26-4.73-.69-6.98-1.23-1.41-3.01-3.88-2.72-5.26,1.14-5.28,2.48-10.78,4.88-15.23,1.01-1.88,4.85-1.38,7.41-2,.24-.06,.43-.39,.65-.6,1.25-7.62,1.3-8.08-2.21-8.85-4.19-.92-5.85-3.66-5.76-8.7,.03-1.37,0-2.89-.4-4.11-1.82-5.36-.92-9.23,3.52-11.61,2.69-1.45,1.53-3.86,.75-6.09-.74-2.1-1.39-4.36-3.87-2.91-4.23,2.49-6.7,.53-9.52-4.07-3.56-5.8-7.37-10.61-1.75-17.73-2.16-2.02-3.88-3.62-6.2-5.77-3.12,7.64-7.13,6.76-12.78,4.41-6.03-2.51-8.17-6.42-7.46-13.81-3.29,.15-7.2-3.51-7.86,3.29-.51,5.34-2.95,6.84-6.7,6.81-1.1,0-2.29,0-3.27,.51-4.26,2.21-7.43,1.25-9.32-4.37-1.12-3.36-2.97-2.08-4.8-1.05-1.87,1.06-3.69,2.06-2.37,5.28,2.16,5.29,.54,8.75-3.34,11.26-.85,.55-1.66,1.35-2.25,2.28-2.84,4.53-6.01,5.56-9.85,1.83-2.05-2-3.18-.18-4.27,1.83-1.08,2-2.82,4-.39,6.11,3.97,3.42,3.66,7.14,1.91,12.35-2.21,6.58-3.29,13.71-11.55,10.47v.02h.01Z"/>
  <path class="cls-1" d="M99.74,198.32H7.74c-6.33,0-9.51-8.3-6.72-18.45,.72-2.63,2.89-4.32,4.58-5.71,.99-.81,2.36-.16,3.56-.16H191.96c6.58,0,9.25,6.08,7.55,17.44-.59,3.95-2.13,6.34-4.47,6.77-.99,.18-2,.09-2.99,.09H99.75v.02h-.01Zm.02-3.31h92.63c4.57,0,5.47-1.62,5.39-9.58-.07-6.55-1.02-7.99-5.38-7.99-61.36,0-122.71-.02-184.07-.02-1,0-2.15-.46-2.95,.27-1.12,1.03-2.53,2.68-2.86,4.58-1.46,8.61,.43,12.72,5.5,12.72H99.77v.02h-.01Z"/>
  <path class="cls-1" d="M89.06,39.1c.75,2.37,1.29,4.09,1.83,5.81-1.36,.24-2.7,.63-4.06,.69-1.1,.04-2.21-.58-3.29-.46-5.99,.64-6.57-2.11-4.09-8.98,.64-1.76,1.18-3.69,2.15-5.12,.97-1.42,2.41-2.3,3.66-3.42,.54,1.82,1.1,3.65,1.43,4.79,5.91-.4,12.53-2.11,18.85-1.05,22.4,3.77,35.7,35.08,26.45,61.36-.58,1.67-2.69,4.02-3.56,3.7-2.93-1.09-1.22-3.9-.57-6.04,4.87-15.92,2.97-30.46-6.38-42.6-8.71-11.32-19.48-14.06-31.35-9.28-.5,.2-.97,.54-1.08,.6h.01Z"/>
  <path class="cls-1" d="M111.34,111.93c-.93-3.1-1.5-4.97-2.05-6.84,1.5-.17,2.98-.45,4.48-.48,1.1-.03,2.21,.29,3.3,.4,5.65,.57,6.09,1.44,3.88,7.97-.71,2.1-1.39,4.33-2.48,6.08-.92,1.46-2.43,2.32-3.66,3.45-.54-1.82-1.08-3.64-1.75-5.93-6.1,2.67-12.9,3.84-20.03,2.08-21.46-5.31-34.01-36.27-24.68-61.62,.57-1.53,2.48-2.24,3.77-3.33,.1,1.86,.69,3.96,.24,5.55-7.74,26.35,3.99,51.82,25.45,54.28,4.54,.52,9.21-1.04,13.55-1.61,0,0-.03,0-.03,0Z"/>
  <path class="cls-1" d="M100.13,99.22c-10.43,.03-19-10.98-18.95-24.35,.06-13.1,8.57-23.93,18.82-23.92,10.29,0,18.89,10.74,18.99,23.73,.11,13.28-8.52,24.5-18.86,24.53h0Zm-.33-5.98c8.07,.19,14.36-7.46,14.55-17.7,.19-10.22-5.94-18.54-13.8-18.74-8.28-.21-14.66,7.61-14.73,18.06-.07,10.36,5.88,18.19,13.98,18.38Z"/>
  <path class="cls-1" d="M69.78,191.98H7.78c-3.47,0-4.76-3.16-3.58-9.05,.21-1.06,1.02-2.05,1.67-2.44,.72-.43,1.58-.16,2.38-.16,41.14,0,82.27,.02,123.41-.06,2.51,0,4.24,.32,4.13,6.12-.08,4.51-1,5.69-3.4,5.68-20.87-.12-41.73-.07-62.6-.08h-.01Z"/>
</svg>