<svg width="48" height="42" viewBox="0 0 48 42" fill="none" xmlns="http://www.w3.org/2000/svg">
<g id="Group 101">
<path id="Vector" d="M24.0716 36.5421C19.7111 36.5421 15.3498 36.5421 10.9892 36.5421C10.6548 36.5421 10.4874 36.7078 10.4869 37.0394C10.4869 37.7196 10.4869 38.3991 10.4869 39.0793C10.4848 40.5819 9.54224 41.7425 8.04393 41.9001C6.7883 42.0324 5.51087 42.0373 4.25454 41.891C2.88637 41.732 1.88749 40.5875 1.88187 39.213C1.86428 35.2273 1.83192 31.241 1.89734 27.2568C1.9304 25.2217 2.38834 23.2381 3.1382 21.3346C3.29928 20.9266 3.30069 20.9273 2.86878 20.8246C1.61878 20.5277 0.809836 19.5493 0.706431 18.1642C0.667743 17.6514 0.667743 17.1344 0.728238 16.6195C0.899875 15.1591 2.08656 14.3256 3.51735 14.6759C4.09768 14.818 4.6773 14.9678 5.24568 15.1493C5.54393 15.2443 5.67688 15.1816 5.79436 14.8897C6.48935 13.1614 7.20474 11.4408 7.91028 9.71598C8.68194 7.83078 10.8401 6.36131 12.8765 6.3388C13.1811 6.33529 13.4878 6.3184 13.7903 6.34302C14.1392 6.37186 14.2602 6.25791 14.2545 5.89283C14.2341 4.56826 14.2454 3.2437 14.2468 1.91914C14.2461 0.734559 14.9678 0.00228615 16.1461 0.00158272C21.4563 -0.000527574 26.7665 -0.000527574 32.0767 0.00158272C33.2535 0.00158272 33.9788 0.736669 33.9802 1.91703C33.9816 3.25355 33.9907 4.59007 33.9738 5.92589C33.9696 6.2572 34.0822 6.3585 34.3987 6.34091C35.5263 6.27901 36.623 6.3993 37.6387 6.94657C38.8873 7.61905 39.8348 8.55813 40.368 9.90239C41.0335 11.5794 41.7397 13.2409 42.4136 14.915C42.5191 15.1767 42.6401 15.2513 42.9095 15.1683C43.4357 15.0065 43.9689 14.8679 44.5007 14.7251C46.2044 14.2693 47.4544 15.1753 47.5276 16.9311C47.5487 17.4333 47.5501 17.9377 47.4945 18.4414C47.3609 19.652 46.3901 20.6881 45.1858 20.8464C44.9066 20.883 44.8953 20.9589 44.9882 21.1918C45.8597 23.3816 46.3071 25.6522 46.2987 28.0151C46.286 31.6842 46.2621 35.354 46.3113 39.0224C46.331 40.5207 45.2006 41.981 43.3576 41.9522C42.4432 41.9381 41.5287 41.9522 40.6149 41.9486C38.9112 41.9423 37.7175 40.7655 37.6887 39.0575C37.6774 38.4012 37.6866 37.7449 37.6866 37.0879C37.6866 36.724 37.5093 36.5421 37.1548 36.5421C32.7942 36.5421 28.4329 36.5421 24.0723 36.5421H24.0716ZM24.1159 20.9118C27.5614 20.9118 31.0075 20.9118 34.4529 20.9118C36.1052 20.9118 37.7583 20.9209 39.41 20.9055C40.3434 20.897 40.757 20.2668 40.4426 19.3847C40.4152 19.3073 40.3835 19.232 40.3526 19.156C39.1926 16.3268 38.0333 13.4976 36.872 10.6691C36.3929 9.50284 35.2815 8.76002 34.009 8.76002C27.3989 8.75861 20.7894 8.75861 14.1793 8.76002C12.9089 8.76002 11.8017 9.50565 11.3219 10.6734C10.6811 12.2336 10.0375 13.7931 9.39663 15.354C8.84936 16.687 8.29506 18.0172 7.76326 19.3565C7.41014 20.2457 7.83994 20.8801 8.78605 20.9097C8.92674 20.9139 9.06742 20.9125 9.20811 20.9125C14.1772 20.9125 19.1462 20.9125 24.1159 20.9125V20.9118ZM11.2748 31.3915C12.3996 31.3915 13.5244 31.3965 14.6492 31.3894C15.2274 31.3859 15.5116 31.0989 15.5151 30.5193C15.5221 29.488 15.5221 28.4575 15.5151 27.4263C15.5116 26.8213 15.233 26.5386 14.6323 26.5371C12.3947 26.5322 10.1563 26.5322 7.91872 26.5371C7.29478 26.5386 7.02466 26.8157 7.02114 27.4453C7.01551 28.4413 7.01692 29.4374 7.02044 30.4328C7.02255 31.1376 7.27156 31.3894 7.97077 31.3915C9.07235 31.3951 10.1732 31.3922 11.2748 31.3915ZM36.8445 26.5343C35.7317 26.5343 34.6189 26.5294 33.5054 26.5364C32.9025 26.54 32.6254 26.8192 32.6218 27.4242C32.6155 28.4554 32.6148 29.4859 32.6218 30.5172C32.6261 31.1235 32.899 31.3894 33.5124 31.3908C35.738 31.3951 37.9644 31.3943 40.1901 31.3908C40.8386 31.3901 41.1137 31.113 41.1158 30.4721C41.1193 29.4761 41.1186 28.4807 41.1158 27.4847C41.1137 26.8192 40.8407 26.5386 40.1823 26.5357C39.0695 26.5308 37.9567 26.5343 36.8431 26.5343H36.8445ZM24.2081 6.3374C24.6695 6.3374 24.685 6.32051 24.5282 5.92448C24.1033 4.84753 23.6714 3.77339 23.2472 2.69713C23.1811 2.52972 23.0946 2.39466 22.8941 2.42842C22.5403 2.48821 22.1484 2.26452 21.8298 2.57263C21.8143 2.5881 21.808 2.61343 21.7995 2.63523C21.3353 3.78464 20.8717 4.93405 20.406 6.08275C20.3287 6.27409 20.406 6.32614 20.591 6.33951C21.1158 6.37679 21.1559 6.37468 21.3107 5.85414C21.4225 5.4778 21.6265 5.31249 22.0218 5.34626C22.3123 5.37088 22.6064 5.35048 22.899 5.35118C23.5215 5.35118 23.5328 5.34837 23.7115 5.93714C23.798 6.22203 23.9197 6.40774 24.2081 6.3374ZM25.4447 6.27831C26.1116 6.43095 26.2234 6.38734 26.5456 5.87383C26.7011 5.62552 26.8467 5.37088 27.0099 5.12749C27.1928 4.85597 27.3658 4.85526 27.5529 5.12749C27.7253 5.37791 27.8807 5.641 28.0418 5.89986C28.3386 6.37749 28.4962 6.43658 29.1124 6.26916C28.7614 5.82952 28.4195 5.40253 28.0784 4.97555C27.7393 4.55068 27.7379 4.54575 28.0376 4.09204C28.3907 3.55813 28.7452 3.02493 29.1075 2.47907C28.3745 2.32221 28.257 2.36793 27.9215 2.91872C27.8301 3.06855 27.7393 3.21978 27.6472 3.36891C27.3602 3.83458 27.2244 3.8388 26.936 3.38931C26.8284 3.22189 26.7025 3.06081 26.6251 2.88003C26.4563 2.48118 26.165 2.37426 25.7563 2.41646C25.5144 2.44179 25.4595 2.48681 25.6044 2.69924C25.928 3.17336 26.2298 3.66295 26.5646 4.12932C26.7749 4.42265 26.7827 4.65408 26.5315 4.93546C26.1531 5.35962 25.8133 5.81826 25.4447 6.2776V6.27831ZM18.3443 2.42491C17.7583 2.42491 17.1731 2.42631 16.5871 2.4242C16.4197 2.4242 16.3191 2.47555 16.3254 2.66618C16.3311 2.84415 16.438 2.87581 16.5829 2.8751C16.8403 2.8737 17.0985 2.8737 17.356 2.87581C17.7977 2.87932 17.8652 2.94263 17.8674 3.38579C17.8709 4.25242 17.8828 5.11975 17.8624 5.98568C17.854 6.35146 18.0636 6.33528 18.3126 6.34021C18.5757 6.34513 18.76 6.32825 18.7509 5.97513C18.7298 5.12046 18.7431 4.26508 18.7445 3.40971C18.7452 2.91379 18.7853 2.87651 19.2932 2.8744C19.5275 2.8737 19.7617 2.8737 19.9959 2.87299C20.1423 2.87299 20.2815 2.87581 20.29 2.66689C20.2984 2.44601 20.1655 2.42209 19.9952 2.4228C19.4445 2.42491 18.8944 2.4235 18.3436 2.4235L18.3443 2.42491ZM31.3465 4.3917C31.3465 3.85287 31.3317 3.31334 31.3521 2.77522C31.3648 2.44953 31.1974 2.40732 30.9392 2.42209C30.7078 2.43475 30.4616 2.37285 30.4658 2.75411C30.4792 3.84373 30.4792 4.93335 30.4658 6.02296C30.4616 6.38382 30.6916 6.33388 30.9125 6.3388C31.1467 6.34443 31.3613 6.35498 31.35 6.00889C31.3332 5.47077 31.3458 4.93123 31.3458 4.39241L31.3465 4.3917Z" fill="black"/>
<path id="Vector_2" d="M22.5012 4.9445C21.6831 4.93324 21.6346 4.85727 21.9758 4.10953C22.0771 3.88654 22.1671 3.65792 22.2853 3.44408C22.4274 3.18803 22.6271 3.17677 22.7552 3.42931C22.9388 3.79228 23.0921 4.17213 23.2434 4.55058C23.3214 4.74613 23.2124 4.87134 23.0225 4.9044C22.8515 4.93465 22.675 4.93254 22.5012 4.9445Z" fill="black"/>
</g>
</svg>
