<svg width="47" height="46" viewBox="0 0 47 46" fill="none" xmlns="http://www.w3.org/2000/svg">
<g id="Group 102">
<path id="Vector" d="M12.6051 24.7417C12.7246 22.5237 12.8159 20.5359 12.9416 18.55C13.3063 12.8043 13.7072 7.06114 14.0381 1.31357C14.0931 0.359703 14.3759 -0.00182611 15.361 0.00255227C22.1944 0.0325755 29.0272 0.0344519 35.86 5.03364e-05C36.8013 -0.00495353 37.1041 0.362831 37.1579 1.22975C37.4143 5.3617 37.7027 9.49239 37.9822 13.6231C38.1317 15.826 38.2631 18.0309 38.452 20.2301C38.5133 20.9419 38.2994 21.3791 37.7045 21.7894C36.2109 22.8196 34.7529 23.9035 33.3205 25.0169C32.7088 25.4923 32.1609 25.6211 31.374 25.4372C27.309 24.489 23.219 23.6477 19.1502 22.7145C16.8371 22.1841 14.8687 22.7495 13.1437 24.3214C13.0392 24.4164 12.921 24.4959 12.6045 24.7417H12.6051ZM19.2478 8.79873C19.2478 9.62687 19.2346 10.455 19.2503 11.2832C19.3122 14.6614 22.0155 17.3866 25.4332 17.5261C28.6625 17.6581 31.6154 15.1217 31.8744 11.8423C32.0258 9.92147 31.9782 7.98122 31.9332 6.0516C31.9251 5.69758 31.4991 5.35356 31.2658 5.00517C31.0456 5.35982 30.6528 5.70696 30.6359 6.07099C30.564 7.60531 30.6122 9.14525 30.6028 10.6833C30.5834 13.8614 28.498 16.1125 25.5908 16.1063C22.7142 16.1 20.6795 13.9164 20.6445 10.7784C20.6263 9.16214 20.6757 7.54338 20.6019 5.92964C20.5875 5.61252 20.1478 5.31479 19.9045 5.00767C19.685 5.32479 19.3078 5.62753 19.2765 5.96216C19.1902 6.90039 19.2465 7.85237 19.2478 8.79873Z" fill="black"/>
<path id="Vector_2" d="M15.5726 38.9672C12.8161 36.4365 10.2373 34.069 7.61523 31.6622C9.99895 29.381 12.2926 27.1543 14.6244 24.967C15.826 23.8399 17.3077 23.7041 18.842 24.0432C23.111 24.9876 27.3686 25.9859 31.6469 26.8847C32.2099 27.0029 32.993 26.8428 33.4627 26.5119C36.0441 24.6949 38.5642 22.7916 41.0961 20.9045C42.2064 20.077 43.3917 19.8612 44.6476 20.4723C46.3808 21.3154 46.9175 23.4433 45.6265 24.8456C41.8304 28.9707 37.9731 33.0407 34.1007 37.0951C33.0218 38.2247 31.5932 38.515 30.0607 38.3411C26.8069 37.9727 23.5482 37.648 20.3007 37.2321C18.4542 36.9957 16.7248 36.925 15.5726 38.9659V38.9672Z" fill="black"/>
<path id="Vector_3" d="M4.86065 31.4468C5.26971 31.6845 5.72256 31.8546 6.0572 32.1561C8.99134 34.7969 11.9124 37.4514 14.8177 40.1235C15.7316 40.9641 15.7378 41.7623 14.8634 42.683C13.9671 43.6274 13.0351 44.5388 12.1031 45.4482C11.3544 46.1788 10.5088 46.1688 9.77069 45.507C6.8034 42.845 3.863 40.1523 0.931358 37.4514C0.152631 36.734 0.0156496 35.8477 0.747466 35.0408C1.7276 33.9606 2.78529 32.9492 3.84361 31.944C4.08317 31.717 4.46159 31.6357 4.86002 31.4474L4.86065 31.4468Z" fill="black"/>
</g>
</svg>
