<svg width="46" height="45" viewBox="0 0 46 45" fill="none" xmlns="http://www.w3.org/2000/svg">
<g id="Group 93">
<path id="Vector" d="M16.1665 32.7803C15.1702 31.7772 14.1882 30.7883 13.1919 29.7851C13.6188 29.2373 14.0672 28.6468 14.5297 28.0777C14.6863 27.8856 14.7077 27.7291 14.608 27.5014C14.2878 26.7615 13.9818 26.0216 13.69 25.2746C13.5833 25.0043 13.4267 24.8833 13.1349 24.8549C12.4304 24.7908 11.7259 24.6841 11 24.5987V20.3941C11.7188 20.3017 12.4446 20.1949 13.1705 20.1238C13.4338 20.0953 13.569 20.0028 13.6687 19.7538C13.9604 19.0068 14.2736 18.2598 14.5938 17.527C14.7005 17.278 14.7005 17.1002 14.5155 16.8796C14.0529 16.3247 13.6188 15.7413 13.199 15.2006C14.1882 14.2046 15.1702 13.2157 16.1736 12.2055C16.7358 12.6394 17.3265 13.0876 17.8958 13.5501C18.088 13.7066 18.2445 13.7351 18.4722 13.6355C19.2195 13.3082 19.9738 12.9952 20.7424 12.6964C21.0128 12.5896 21.0982 12.4331 21.1267 12.1628C21.1978 11.4585 21.2975 10.7541 21.3829 10.0213C21.5181 10.0142 21.6319 10 21.7529 10C22.92 10 24.0871 10 25.2542 10C25.5033 10 25.61 10.0569 25.6314 10.3273C25.6883 10.9818 25.7737 11.6363 25.8804 12.2837C25.9018 12.4189 26.0299 12.5968 26.158 12.6537C26.955 13.0094 27.7592 13.3438 28.5705 13.6568C28.6985 13.7066 28.912 13.6568 29.0259 13.5785C29.6308 13.1374 30.2143 12.6608 30.7908 12.2197C31.7942 13.2228 32.7763 14.2046 33.7797 15.2077C33.3385 15.7769 32.883 16.3745 32.4133 16.9579C32.2781 17.1215 32.2568 17.2567 32.3422 17.463C32.6695 18.2242 32.9898 18.9926 33.2958 19.7681C33.3883 20.0028 33.5093 20.1238 33.7868 20.1451C34.4273 20.1949 35.0677 20.3017 35.7082 20.3728C35.9004 20.3941 36 20.4511 36 20.6645C35.9929 21.938 36 23.2114 35.9929 24.492C35.9929 24.5276 35.9715 24.5632 35.9502 24.6272C35.2741 24.7126 34.5981 24.8122 33.922 24.8762C33.5733 24.9047 33.3812 25.0256 33.2531 25.3742C32.9898 26.107 32.6837 26.8184 32.3635 27.5299C32.2639 27.7575 32.2781 27.9141 32.4347 28.1061C32.8972 28.6753 33.3456 29.2658 33.7726 29.8207C32.762 30.8238 31.7728 31.8056 30.7765 32.8017C30.2286 32.3748 29.645 31.9052 29.033 31.4641C28.912 31.3788 28.6843 31.3432 28.542 31.393C27.7521 31.6918 26.9835 32.0404 26.1936 32.3463C25.9516 32.4388 25.8804 32.5811 25.8591 32.823C25.7879 33.5415 25.6812 34.2601 25.5887 35H21.39C21.3046 34.3241 21.1978 33.6411 21.1409 32.9511C21.1124 32.6024 20.9843 32.4104 20.6428 32.2823C19.9169 32.012 19.1981 31.706 18.4865 31.393C18.2588 31.2934 18.1022 31.3076 17.91 31.4641C17.3407 31.9266 16.7501 32.3748 16.1879 32.8088L16.1665 32.7803ZM23.468 27.8429C26.4213 27.8429 28.8338 25.4525 28.8409 22.5071C28.848 19.5475 26.4355 17.1215 23.4751 17.1144C20.5147 17.1144 18.1093 19.5262 18.1093 22.5C18.1093 25.4525 20.5075 27.8429 23.468 27.8429Z" fill="black"/>
<path id="Vector_2" d="M28.7554 37.5885C29.0009 38.2372 29.2218 38.813 29.459 39.4536C34.5153 37.775 38.2544 34.6369 40.5207 29.8852C42.7952 25.1334 42.8607 20.2681 40.9543 15.338C42.0916 14.892 43.2125 14.4622 44.3906 14C46.657 19.887 46.567 25.6929 43.8834 31.3772C41.1998 37.0777 36.7326 40.8645 30.719 42.8998C30.8417 43.2485 30.9563 43.581 31.079 43.9053C31.2017 44.2378 31.3245 44.5621 31.4799 45C29.2872 44.3675 27.1682 43.7594 25 43.135C26.26 41.2699 27.4791 39.4536 28.7472 37.5804L28.7554 37.5885Z" fill="black"/>
<path id="Vector_3" d="M1.96362 17.9867C1.21596 17.8498 0.534038 17.729 0 17.6323C0.698357 16.8831 1.42136 16.0694 2.19366 15.296C2.96596 14.5226 3.77934 13.7976 4.62559 13C5.62793 14.9818 6.60563 16.9314 7.6162 18.9454C6.92606 18.8326 6.30986 18.7279 5.62793 18.6151C4.55164 23.7469 5.42253 28.4919 8.44601 32.7859C11.4695 37.0878 15.7007 39.5691 21 40.407C20.8192 41.5832 20.6467 42.7513 20.4495 44C14.1397 43.0091 9.09507 40.0525 5.4554 34.9369C1.82394 29.8293 0.739437 24.1497 1.96362 17.9867Z" fill="black"/>
<path id="Vector_4" d="M37.9576 5.83126C38.4307 5.25229 38.8874 4.6985 39.4013 4.06919C39.9396 6.3431 40.4617 8.52471 41 10.7818C38.7651 10.6308 36.5873 10.4882 34.2871 10.3287C34.7357 9.77494 35.1354 9.28827 35.5677 8.74287C31.5873 5.10965 26.9788 3.40631 21.7015 3.85102C16.4323 4.29574 12.1664 6.76264 8.83034 11C7.87602 10.2113 6.93801 9.4477 6 8.68413C12.5334 -0.587719 27.5253 -3.77623 37.9576 5.83126Z" fill="black"/>
<path id="Vector_5" d="M23.4968 25C22.1133 25 21 23.8882 21 22.5064C21 21.1247 22.1197 20 23.4968 20C24.8739 20 26 21.1311 26 22.5C26 23.8753 24.8803 24.9936 23.4968 24.9936V25Z" fill="black"/>
</g>
</svg>
