<?xml version="1.0" encoding="UTF-8"?>
<svg id="Layer_1" data-name="Layer 1" xmlns="http://www.w3.org/2000/svg" viewBox="0 0 200 200">
  <defs>
    <style>
      .cls-1 {
        fill: #5a2b5f;
      }
    </style>
  </defs>
  <path class="cls-1" d="M0,32.67c1.21-3.29,3.6-4.53,6.89-4.97,11.54-1.55,23.06-3.32,34.59-5.03,4.23-.63,7.23,1.95,7.38,6.42,.45,12.74,.9,25.49,1.36,38.23,.14,3.99-2.2,6.93-5.67,7.06-3.59,.14-6.11-2.58-6.25-6.72-.25-7.48-.52-14.97-.79-22.45-.01-.31-.05-.63-.11-1.33-.66,.8-1.13,1.32-1.54,1.88-13.32,18.21-18.97,38.73-17.19,61.46,3.38,43.2,38.35,74.43,72.14,79.36,30.74,4.49,56-6.49,76.46-30.09,11.35-13.09,18.12-28.52,20.22-46.02,2.27-18.96-1.55-36.76-10.19-53.49-9.34-18.09-22.68-31.78-41.3-39.45-11.27-4.65-22.98-6.22-35.04-5-3.93,.4-6.88-1.75-7.22-5.29-.37-3.88,2.06-6.69,6.16-6.97,39.97-2.74,68.76,15.43,87.91,51.05,8.04,14.96,12.25,31.18,12.18,48.4-.11,28.27-10.46,52.05-29.93,71.63-15.01,15.09-32.81,24.65-53.59,27.64-24.24,3.5-46.61-2.11-66.73-16.48-21.36-15.26-35.86-35.72-41.19-62.33-5.96-29.77,.08-56.99,17.49-81.48,.19-.27,.39-.54,.57-.81,.03-.05,.02-.12,.08-.51-2.8,.38-5.52,.74-8.23,1.13-3.42,.49-6.82,1.03-10.24,1.48-4.69,.62-6.16-.2-8.23-4.48v-2.83Z"/>
  <path class="cls-1" d="M76.92,91.47c0-4.99-.01-9.64,0-14.29,.06-14.64,9.39-26.23,23.29-28.95,15.2-2.98,30.91,9.12,32.18,25.09,.47,5.89,.08,11.86,.08,18.15,1.87,0,3.4-.03,4.92,0,2.08,.05,2.84,.81,2.84,2.94,.01,15.45,.02,30.9,0,46.35,0,2.02-.78,2.82-2.74,2.82-22.26,.01-44.53,.01-66.79,0-1.95,0-2.72-.81-2.72-2.84-.02-15.45-.02-30.9,0-46.35,0-2.12,.77-2.88,2.86-2.92,1.94-.04,3.88,0,6.07,0Zm44.95-.09c0-4.14,.07-8.05-.02-11.95-.06-2.41-.04-4.9-.59-7.22-2.03-8.57-9.8-14.05-18.36-13.2-8.19,.82-14.79,8.11-15.09,16.86-.16,4.78-.05,9.58-.04,14.37,0,.37,.14,.75,.22,1.14h33.88Zm-16.89,26.28c.57-.26,.98-.43,1.38-.64,2.71-1.4,4.13-4.27,3.57-7.16-.61-3.1-2.99-5.29-5.95-5.47-2.82-.17-5.49,1.76-6.39,4.63-.93,2.94,.11,6.08,2.81,7.65,1.2,.7,1.21,1.44,1.01,2.59-.84,4.82-1.61,9.65-2.42,14.56h9.33c-1.14-5.51-2.23-10.82-3.34-16.17Z"/>
</svg>