<?xml version="1.0" encoding="UTF-8"?>
<svg id="Layer_1" data-name="Layer 1" xmlns="http://www.w3.org/2000/svg" viewBox="0 0 200 200">
  <defs>
    <style>
      .cls-1 {
        fill: #5a2b5f;
      }
    </style>
  </defs>
  <path class="cls-1" d="M0,65.88c.73-1.24,1.45-2.48,2.18-3.72,6.92,1.61,10.74,6.51,11.37,14.8-3.54,1.18-5.78,.94-7.27-3.49C5.49,71.17,2.17,69.73,0,67.89c0-.67,0-1.34,0-2.01Z"/>
  <path class="cls-1" d="M7.68,199.75c-1.72-16.93,2.65-30.66,17.25-40.18-1.91-2.68-3.71-5.21-5.67-7.95-.93,.43-1.92,.89-2.96,1.38-5.62-7.21-8.71-15.45-8.86-24.58-.22-14.07-.08-28.15-.06-42.23,0-.63,.27-1.27,.45-2.05h5.99v20.37c2.34-.6,4.09-1.04,6.34-1.61-2.42-10.58,8.22-9.74,12.96-14.68-1.81-1.73-3.46-3.3-5.75-5.5,1.6-1.36,3.06-2.59,4.86-4.12,10.27,10.41,23.1,12.49,36.8,11.71,2.15-.12,4.34-.15,6.47,.14,5.74,.78,8.06,3.99,8.97,12.47,1.79,.48,3.78,1,5.82,1.54,3.52-26.72-21.72-55.21-56.26-43.76-.61-1.67-1.22-3.36-1.82-5.02,25.09-14.95,57.23,5.21,65.24,41.22,5.65,0,11.44,.17,17.21-.07,3.05-.13,4.37,.96,5.21,3.87,1.49,5.21,3.43,10.3,5.18,15.43,.52,.04,1.05,.09,1.57,.13,1.38-4.13,3.11-8.19,4.05-12.42,1.2-5.37,3.61-7.69,9.49-7.1,6.71,.68,13.54,.16,20.74,.16-.85-9.06,4.29-15.45,8.38-21.96,5.99-9.54,8.8-19.38,7.97-30.76-.77-10.5-.31-21.11-.1-31.66,.09-4.56-1.51-6.12-6.1-6.11-48.2,.13-96.39,.14-144.59,0-4.8-.01-6.51,1.53-6.41,6.36,.23,11.69,.07,23.39,.07,35.4h-6.12c0-13.51-.23-26.86,.14-40.2,.11-4.14,3.25-6.89,7.49-7.62C23.58,.01,25.6,.02,27.59,.01,74.96,0,122.32,0,169.69,0c11.1,0,13.81,2.76,13.81,13.95,0,14.24-.08,28.49,.08,42.73,.03,2.38,.5,5.21,1.83,7.04,12.28,16.88,15.61,35.64,14.34,56.3-1.24,20.2-.18,40.54-.33,60.82-.07,9.75-6.95,17.6-16.04,18.93-9.55,1.4-18.34-3.74-21.15-12.78-.92-2.97-1.12-6.26-1.13-9.41-.09-22.62-.05-45.25-.05-67.87,0-1.97,0-3.93,0-6.19h-23.28c-1.37,4.08-2.82,8.33-4.21,12.59-1.26,3.86-3.52,6.48-7.85,6.4-4.07-.07-6.33-2.48-7.46-6.21-.05-.16-.13-.31-.18-.47q-4.93-13.84-21.1-12.21c0,6.52-.18,13.16,.04,19.78,.33,9.82-1.48,19.02-7.2,27.13-.76,1.07-2.52,1.42-3.82,2.1-.25-.35-.5-.7-.75-1.05-1.83,2.53-3.65,5.05-5.73,7.93,14.48,9.51,19.16,23.25,17.07,40.24H7.68ZM77.81,114.02c0-3.86-.18-7.72,.05-11.56,.25-4.13-1.37-5.57-5.49-5.63-7.45-.1-15.3,.57-22.23-1.57-7.53-2.33-13.52-2.71-19.93,2.27-2.15,1.67-3.66,2.65-3.57,5.63,.22,6.87,.12,13.74,.06,20.61-.08,9.89,4.43,16.81,12.99,21.47,1.44,.79,2.6,3.05,2.91,4.81,.6,3.43,.11,7.06,.81,10.46,.95,4.59,4.09,7.24,8.91,7.19,4.54-.05,7.69-2.43,8.59-6.9,.71-3.56,.37-7.34,1.05-10.91,.33-1.74,1.53-3.94,2.99-4.74,8.54-4.72,12.94-11.74,12.87-21.58-.02-3.18,0-6.37,0-9.55Zm12.67,79.4c.78-15.96-9.94-30.18-22.85-30.86-8.03,16.03-19.93,15.94-31.37-.24-14.16,2.78-24.45,17.44-21.7,31.1H90.48Zm86.2-32.23V97.19h-8.9v64.01h8.9Zm16.15-63.96h-9.07v63.87h9.07v-63.87Zm-24.98,83.71c.35,7.93,5.88,13.09,13.22,12.66,6.78-.4,11.58-5.66,11.31-12.66h-24.53Zm-76.79-52.21c-.56-.51-1.12-1.02-1.68-1.52-2.05,1.63-5.22,2.87-5.95,4.97-2.52,7.24-6.62,12.86-12.83,17.26-1.31,.93-1.31,3.73-1.91,5.67,2.04-.17,5.12,.44,5.94-.66,2.83-3.78,4.88-8.15,7.23-12.31,.39-.7,.75-1.42,1.15-2.18,1.34,.93,2.49,1.73,4.41,3.07,1.32-5.19,2.48-9.75,3.63-14.31Zm-70.11,11.53c2.78,4.75,5.17,9.32,8.08,13.5,.87,1.25,3.19,1.7,4.93,2.01,.57,.1,2.16-1.64,2.01-2.09-.58-1.68-1.34-3.69-2.68-4.66-5.44-3.94-9.9-8.71-11.43-15.3-1.09-4.69-3.96-5.17-8.58-5.58,1.3,5.22,2.43,9.78,3.73,15.02,1.97-1.44,3.13-2.29,3.95-2.9Zm171.72,33.89v-5.94h-24.88v5.94h24.88Zm-.93-84.08c-.92-4.98-3.36-6.75-7.76-6.18-2.59,.34-5.3,.33-7.9,0-4.64-.58-6.52,1.83-7.32,6.18h22.97Zm-107.27,32.33c4.23-.48,6.11-2.81,6.06-6.28-.05-3.45-1.97-5.73-6.06-6.09v12.38Zm-64.54-12.47c-4.47,.82-6.37,3.18-5.93,6.99,.36,3.17,2.02,5.44,5.93,5.13v-12.13Zm165.26-32.75c-1.78-3.22-3.23-5.84-5.01-9.04-1.84,3.37-3.27,6.02-4.92,9.04h9.93Z"/>
  <path class="cls-1" d="M148.26,58.01c-4.98,0-9.97,.07-14.95-.02-5.08-.1-7.43-2.27-7.49-7.28-.13-10.22-.1-20.43,0-30.65,.04-4.67,2.7-7.13,7.22-7.17,10.13-.11,20.27-.15,30.4,0,4.95,.08,7.12,2.52,7.16,7.65,.07,10.05,.09,20.1,0,30.15-.05,5.1-2.23,7.2-7.38,7.3-4.98,.1-9.97,.02-14.95,.02Zm15.83-38.27h-31.42v31.59h31.42V19.74Z"/>
  <path class="cls-1" d="M33.1,19.14v-5.88H112.73v5.88H33.1Z"/>
  <path class="cls-1" d="M112.73,26.15v5.87H33.26v-5.87H112.73Z"/>
  <path class="cls-1" d="M113.01,44.87h-41.22c-.1-1.81-.19-3.55-.31-5.73h41.21c.09,1.6,.19,3.34,.32,5.73Z"/>
  <path class="cls-1" d="M26.05,53.08c-1.9,5.28-5.31,8.09-10.54,8.14-5.22,.04-8.7-2.68-10.7-8,1.56-.89,3.08-1.75,4.54-2.59,6.13,5.63,7.07,5.64,11.58-.13,1.64,.83,3.36,1.69,5.12,2.58Z"/>
  <path class="cls-1" d="M16.78,78.57c.96-9.1,4.53-14.09,11.83-17.06,.73,2.02,1.37,3.8,1.54,4.28-2.55,3.87-4.28,7.17-6.67,9.85-1.23,1.38-3.65,1.67-6.7,2.93Z"/>
  <path class="cls-1" d="M107.06,77.82h5.57v5.9c-1.71,.08-3.45,.16-5.57,.26v-6.16Z"/>
  <path class="cls-1" d="M119.78,84.01v-6.14h5.77c.08,1.78,.16,3.54,.26,5.83-1.95,.1-3.68,.19-6.02,.31Z"/>
  <path class="cls-1" d="M138.46,77.88v5.67h-5.84v-5.67h5.84Z"/>
  <path class="cls-1" d="M45.16,139.98c-1.67-.85-3.39-1.71-5.1-2.58,5.29-10.69,15.23-15.83,27.67-14.34v5.55q-15.8,2.82-22.57,11.36Z"/>
  <path class="cls-1" d="M49.16,99.43c2.08,.48,3.8,.87,5.98,1.37-.77,3.58-1.47,6.79-2.2,10.17,1.23,.88,2.42,1.72,3.73,2.65-.87,1.69-1.69,3.3-2.65,5.16-1.38-.57-2.54-1.16-3.75-1.54-4.11-1.29-5.37-3.64-3.68-7.88,1.21-3.05,1.69-6.4,2.57-9.93Z"/>
  <path class="cls-1" d="M147.34,39.34c-2.07,3.06-3.85,5.68-5.77,8.52-2.15-2.04-3.45-3.27-5.1-4.84,2.35-2.49,4.58-4.86,7.09-7.52-2.34-2.48-4.56-4.84-7.11-7.55,1.58-1.32,3.08-2.57,4.75-3.97,2.25,2.14,4.6,4.39,7.08,6.76,2.43-2.34,4.69-4.51,7.67-7.38,1.2,1.63,2.34,3.18,4.1,5.57-2.32,1.62-4.91,3.41-7.97,5.55,3.18,3.39,5.39,5.74,7.83,8.33-1.34,1.47-2.52,2.77-4.15,4.56-2.47-2.36-4.8-4.59-8.4-8.03Z"/>
</svg>