<?xml version="1.0" encoding="UTF-8"?>
<svg id="Layer_1" data-name="Layer 1" xmlns="http://www.w3.org/2000/svg" viewBox="0 0 200 200">
  <defs>
    <style>
      .cls-1 {
        fill: #5a2b5f;
      }
    </style>
  </defs>
  <path class="cls-1" d="M176.69,47.07c.8-.22,2.93-.49,4.74-1.38,3.25-1.6,5.76-1.03,7.16,2.22,3.78,8.82,7.39,17.71,10.97,26.61,1.2,2.97-.1,4.97-2.97,6.04-8.97,3.35-11.5,10.88-11.54,19.27-.04,8.57,2.45,16.26,11.65,19.67,2.91,1.08,4.01,3.2,2.83,6.12-3.6,8.89-7.22,17.78-11,26.6-1.29,3-3.64,3.63-6.76,2.25-8.7-3.84-15.75-.17-21.7,5.78-5.84,5.84-9.36,12.81-5.72,21.32,1.42,3.33,.86,5.74-2.38,7.12-8.67,3.71-17.4,7.28-26.15,10.81-3.38,1.36-5.25-.09-6.6-3.42-3.45-8.55-10.93-10.99-19.16-11.01-8.22-.02-15.76,2.35-19.25,10.87-1.47,3.58-3.48,4.9-7,3.48-8.45-3.41-16.9-6.85-25.28-10.42-3.53-1.5-4.41-3.84-2.78-7.74,3.54-8.48-.2-15.43-6.07-21.24-5.75-5.69-12.6-9.19-20.9-5.78-3.5,1.44-6.01,1.18-7.51-2.32-3.7-8.68-7.26-17.42-10.78-26.16-1.27-3.15,0-5.17,3.12-6.37,8.91-3.43,11.33-11.04,11.32-19.41,0-8.38-2.5-15.95-11.42-19.34-3.19-1.21-4.26-3.33-3-6.42,3.54-8.74,7.1-17.48,10.8-26.16,1.38-3.24,3.78-3.81,7.11-2.39,8.5,3.63,15.47,.11,21.32-5.72,5.97-5.95,9.61-13,5.8-21.7-1.37-3.12-.78-5.48,2.23-6.77,8.81-3.78,17.7-7.41,26.6-10.99,3.2-1.29,5.08,.18,6.3,3.25,3.51,8.82,11.08,11.28,19.49,11.23,8.21-.05,15.69-2.47,19.1-11.09,1.33-3.37,3.34-4.65,6.68-3.3,8.74,3.54,17.47,7.13,26.14,10.83,2.73,1.16,3.66,3.27,2.64,6.3-4.66,13.74,6.29,29.22,21.98,29.39ZM16.47,54.34c-2.25,5.55-4.71,11.26-6.8,17.11-.35,.98,.56,3.01,1.51,3.78,15.85,12.66,15.93,37.04,.21,49.44-1.08,.85-1.9,3.31-1.48,4.58,1.55,4.71,3.47,9.33,5.69,13.76,.6,1.19,2.88,2.38,4.23,2.22,12.49-1.48,21.85,3.75,29.18,13.3,5.57,7.25,7.29,15.53,4.99,24.9,5.87,2.39,11.29,4.8,16.87,6.7,1.22,.42,3.66-.52,4.53-1.62,10.59-13.6,33.67-16.32,45.28-3.61,6.07,6.64,10.52,5.35,16.57,2.32,1.43-.72,2.88-1.43,4.38-2,3.02-1.15,4.17-2.66,3.67-6.41-2.21-16.68,13.22-34.62,30-33.46,7.82,.54,10.08-2.65,12.06-8.4,.89-2.58,2.23-5.06,2.7-7.7,.25-1.43-.41-3.74-1.49-4.59-15.73-12.36-15.64-36.81,.22-49.44,.95-.76,1.86-2.79,1.51-3.77-2.09-5.85-4.55-11.56-6.8-17.11-24.12,2.55-39.21-11.82-38.13-35.32,.05-1.12-1.19-2.87-2.27-3.39-4.48-2.13-9.16-3.86-13.72-5.83-2.35-1.02-3.62-.27-5.12,1.76-10.26,13.84-34.15,16.15-45.51,3.08-5.54-6.38-9.5-4.71-14.93-2.31-2.35,1.04-4.88,1.85-6.91,3.33-1.17,.85-2.27,2.93-2.11,4.31,.71,6.12-.23,11.83-3.06,17.27-6.74,12.95-18.56,18.85-35.26,17.11Z"/>
  <path class="cls-1" d="M40.62,99.54c.38-32.67,27.16-59.14,59.58-58.9,32.91,.25,59.41,27.05,59.15,59.8-.26,32.71-27.39,59.33-60.06,58.93-32.5-.4-59.06-27.49-58.68-59.83Zm43.98,8.19c-11-12.54-11.63-26.11-1.97-36.03,8.97-9.22,23.43-9.87,33.14-1.47,4.68,4.05,7.49,9.17,8.25,15.32,1.08,8.75-2.29,15.89-8.78,22.14,11.56,5.1,19.41,13.32,23.93,24.82,17.85-18.78,15.57-51.63-4.45-70.27-20.68-19.26-53.32-17.85-72.66,3.22-20.21,22.02-14.97,53.33-1.2,66.85,4.51-11.48,12.48-19.63,23.73-24.57Zm15.14,43.56c11.12,.1,21.11-3.27,30.25-9.57,2.28-1.57,2.64-3.06,1.86-5.6-4.11-13.34-17.33-23.18-31.6-23.32-14.34-.14-27.93,9.81-32.13,23.3-.8,2.57-.39,4.03,1.87,5.59,8.99,6.2,18.81,9.59,29.76,9.59Zm-.28-46.48c8.87,.31,16.53-6.85,16.79-15.7,.26-8.93-6.7-16.35-15.73-16.78-8.76-.41-16.49,6.83-16.77,15.71-.28,8.92,6.77,16.45,15.71,16.76Z"/>
</svg>