<?xml version="1.0" encoding="UTF-8"?>
<svg id="Layer_1" data-name="Layer 1" xmlns="http://www.w3.org/2000/svg" viewBox="0 0 200 250">
  <defs>
    <style>
      .cls-1 {
        fill: #5a2b5f;
      }
    </style>
  </defs>
  <path class="cls-1" d="M39.46,11.49C40.26,2.82,43.5,0,52.21,0c31.94,0,63.89,0,95.83,0,8.45,0,11.79,2.97,12.47,11.49,1.01,0,2.05,0,3.1,0,6.61,0,13.21-.04,19.82,.01,9.82,.08,16.56,6.59,16.57,16.02,.01,68.74,.01,137.48,0,206.21,0,9.85-6.66,16.27-16.86,16.27-55.41,0-110.82,0-166.22,0-10.21,0-16.9-6.41-16.9-16.23C0,165.02,0,96.29,0,27.55c0-9.45,6.72-15.98,16.53-16.05,7.58-.06,15.16-.01,22.92-.01Zm2.11,16.87c-6.09,0-11.99,0-17.88,0-6.53,0-8.79,2.1-8.8,8.32-.01,62.82-.01,125.64,0,188.47,0,5.65,2.38,7.93,8.23,8.03,.89,.01,1.77,.02,2.66,.02,49.49,0,98.98,0,148.47,0,1.48,0,2.96,.02,4.43-.07,3.35-.21,5.69-2.23,6.26-5.44,.2-1.11,.17-2.27,.17-3.41,0-62.26,0-124.51,0-186.77,0-1.14,.05-2.3-.11-3.42-.41-2.94-2.59-5.48-5.48-5.56-6.96-.21-13.93-.07-21.1-.07-.54,4.85-1.06,9.47-1.56,14.1-.66,6.14-4.33,9.39-10.75,9.4-30.76,.01-61.52,.01-92.27,0-6.41,0-10.06-3.28-10.71-9.43-.49-4.62-1.02-9.24-1.56-14.15ZM99.98,4.64c-16.46,0-32.92-.01-49.38,0-4.48,0-6.46,2.21-6,6.49,1.1,10.22,2.19,20.44,3.28,30.67,.43,4.03,2.07,5.52,6.31,5.53,30.56,.01,61.11,.01,91.67,0,4.19,0,5.84-1.52,6.27-5.57,1.07-10.03,2.13-20.07,3.23-30.1,.55-5.01-1.29-7.01-6.58-7.01-16.26,0-32.53,0-48.79,0ZM41.03,23.74c-.15-1.86-.36-3.36-.38-4.85-.03-2.16-.96-2.85-3.26-2.79-6.5,.17-13.02,.05-19.52,.07-8.89,.01-13.08,4.04-13.08,12.57,0,67.9,0,135.8,0,203.7,0,9,4.04,12.94,13.27,12.94,54.54,0,109.07,0,163.61,0,9.54,0,13.55-3.83,13.55-12.96,0-66.85,0-133.7,0-200.55,0-1.81,.07-3.62-.03-5.43-.27-5.02-3.91-9.65-8.94-9.91-8.73-.44-17.49-.12-26.54-.12-.24,2.35-.47,4.66-.75,7.34,5.95,0,11.54,0,17.14,0,9.59,0,13.75,3.98,13.75,13.15,0,62.56,0,125.13,0,187.69,0,9.25-4.31,13.29-13.98,13.29-50.59-.02-101.18-.02-151.77,0-9.65,0-13.95-4.05-13.94-13.33,.02-34.56,.07-69.12,.07-103.68,0-28.38-.03-56.75-.09-85.13-.01-4.33,1.38-8.02,5.32-10.16,2.04-1.11,4.62-1.66,6.99-1.75,6.08-.24,12.18-.08,18.59-.08Z"/>
  <path class="cls-1" d="M101.18,136.6c-20.48-.18-36.83-16.13-36.63-35.73,.2-19.58,16.75-35.38,36.92-35.25,20.44,.13,36.81,16.15,36.59,35.81-.22,19.64-16.69,35.35-36.88,35.17Zm8.3-10.34v-17.46h17.6v-15.49h-17.78v-17.14h-15.96c0,4.79-.18,9.36,.07,13.91,.15,2.84-.88,3.54-3.66,3.41-4.69-.21-9.41-.06-14.46-.06,0,4.39,.14,8.47-.05,12.52-.11,2.42,.75,3.09,3.18,3.01,4.88-.17,9.77-.05,14.93-.05,0,1.36,0,2.29,0,3.22,0,4-.05,7.99,.07,11.99,.02,.72,.79,2.03,1.24,2.05,4.79,.15,9.59,.09,14.82,.09Z"/>
  <path class="cls-1" d="M101.48,173.84c19.52,0,39.04,0,58.56,0,1.28,0,2.66-.17,3.8,.23,.8,.28,1.79,1.4,1.78,2.14-.01,.74-1.02,1.7-1.83,2.13-.69,.37-1.73,.16-2.62,.16-40.03,0-80.05,0-120.08,0-.79,0-1.76,.22-2.32-.13-.8-.51-1.8-1.47-1.8-2.23,0-.75,1.03-1.72,1.85-2.16,.69-.37,1.73-.13,2.62-.13,20.01,0,40.03,0,60.04,0h0Z"/>
  <path class="cls-1" d="M101.19,158.62c-19.91,0-39.83,0-59.74,0-.79,0-1.74,.25-2.33-.09-.89-.51-2.11-1.43-2.12-2.19-.02-.74,1.2-1.68,2.08-2.2,.58-.34,1.54-.09,2.33-.09,39.93,0,79.85,0,119.78,.02,1.86,0,4.5-.64,4.52,2.22,.02,2.82-2.57,2.32-4.47,2.32-20.01,.02-40.02,.01-60.04,.01Z"/>
  <path class="cls-1" d="M101.17,193.72c19.91,0,39.83,0,59.74,0,.89,0,1.93-.24,2.62,.12,.89,.47,2.06,1.44,2.06,2.19,0,.75-1.19,1.71-2.08,2.17-.69,.36-1.73,.13-2.62,.13-39.73,0-79.46,0-119.19,0-.3,0-.59,0-.89,0-1.83,.02-3.93,.06-3.93-2.33,0-2.4,2.12-2.29,3.94-2.29,20.11,0,40.22,0,60.33,0Z"/>
  <path class="cls-1" d="M101.49,218.17c-20.01,0-40.02,0-60.04,0-.79,0-1.74,.25-2.33-.08-.9-.5-2.15-1.42-2.14-2.15,0-.78,1.18-1.76,2.08-2.25,.68-.37,1.73-.12,2.62-.12,39.83,0,79.66,0,119.48,0,.39,0,.79,0,1.18,0,1.72-.03,3.33,.26,3.37,2.3,.04,2.09-1.59,2.31-3.31,2.31-8.38-.01-16.76,0-25.14,0-11.93,0-23.86,0-35.79,0Z"/>
</svg>