<?xml version="1.0" encoding="UTF-8"?>
<svg id="Layer_1" data-name="Layer 1" xmlns="http://www.w3.org/2000/svg" viewBox="0 0 200 200">
  <defs>
    <style>
      .cls-1 {
        fill: #5a2b5f;
      }
    </style>
  </defs>
  <path class="cls-1" d="M86.24,0c15.67,.17,28.21,5.65,36.08,18.95,3.8,6.42,5.61,13.43,6.49,20.69,.22,1.82,.34,3.64,.46,5.47,.14,2.11-.35,4.24,1.77,5.99,.89,.74,1.13,2.39,1.3,3.67,.98,7.41-.25,14.42-4.5,20.84-.12,.19-.23,.4-.4,.54-4.56,3.55-5.84,8.95-8.56,13.53-5.62,9.49-13.47,16.5-24.52,20.07-8.41,2.72-16.2,.99-23.69-2.92-10.36-5.41-16.53-14.06-21.15-23.98-.81-1.74-2.05-3.37-3.38-4.81-4.09-4.44-6.07-9.69-6.57-15.4-.27-3.09,.09-6.27,.49-9.37,.16-1.18,1.3-2.23,1.88-3.39,.36-.73,.71-1.56,.72-2.36,.09-6.69,.97-13.28,3.08-19.68C51.75,9.61,66-.17,86.24,0Z"/>
  <path class="cls-1" d="M162.72,135.36c-19.56,4.72-30.06,16.23-31.8,35.2-.68,0-1.5,0-2.32,0-41.36,0-82.72,0-124.08,0-3.63,0-4.6-.91-4.52-4.26,.14-5.48,.27-10.97,.46-16.45,.24-6.75,3.23-11.89,9.82-15.01,7.27-3.45,14.45-7.07,21.74-10.48,6.75-3.15,13.44-6.33,19.25-10.97,2.52-2.01,3.57-1.85,6.15,.04,7.63,5.59,16.05,9.44,25.83,10.09,11.77,.78,21.87-3.25,31.03-9.85,3.04-2.19,3.89-2.39,6.71-.14,9.5,7.62,21.29,11.3,31.97,16.89,3.15,1.65,6.34,3.21,9.76,4.93Z"/>
  <path class="cls-1" d="M137.68,170.52c.13-16.37,14.1-29.39,31.4-29.25,17.26,.14,31.07,13.42,30.92,29.74-.15,16.24-14.24,29.13-31.67,28.99-17.04-.14-30.77-13.35-30.64-29.48Zm41.76,14.34c1.26-1.15,2.75-2.13,3.64-3.47,.42-.64-.04-2.09-.55-2.94-1.51-2.5-1.21-3.56,1.78-4.05,2.53-.42,2.92-1.83,2.93-3.91,0-2.12-.73-3.22-3.04-3.59-2.93-.47-3.4-1.58-1.63-3.91,1.51-1.98,.71-3.23-.83-4.71-1.57-1.51-2.94-1.82-4.85-.55-2.4,1.61-3.6,1.15-4.11-1.64-.41-2.22-1.66-2.79-3.86-2.8-2.25,0-3.68,.45-4.11,2.81-.5,2.77-1.71,3.25-4.08,1.63-1.94-1.33-3.27-.89-4.84,.56-1.58,1.47-2.36,2.71-.84,4.7,1.77,2.31,1.24,3.46-1.8,3.94-2.43,.38-2.88,1.72-2.89,3.72,0,2.01,.51,3.33,2.89,3.73,3.02,.51,3.4,1.53,1.8,3.97-1.46,2.23-1.3,2.52,1.2,4.98,1.52,1.49,2.83,1.32,4.47,.24,2.37-1.57,3.31-1.07,4.16,1.57,.34,1.04,1.3,2.57,2.14,2.67,4.08,.49,5.49,.3,5.9-3.2,.23-1.93,1.71-2.36,3.52-1.34,.85,.48,1.73,.92,2.99,1.59Z"/>
  <path class="cls-1" d="M175.94,170.92c-.12,3.65-3.41,6.59-7.29,6.51-3.85-.08-7.08-3.21-7.02-6.81,.07-3.81,3.3-6.75,7.34-6.68,4.05,.07,7.08,3.11,6.96,6.98Z"/>
</svg>