<?xml version="1.0" encoding="UTF-8"?>
<svg id="Layer_1" data-name="Layer 1" xmlns="http://www.w3.org/2000/svg" viewBox="0 0 200 200">
  <defs>
    <style>
      .cls-1 {
        fill: #5a2b5f;
      }
    </style>
  </defs>
  <path class="cls-1" d="M162.88,39.25c0,9.13-.25,17.17,.17,25.19,.11,2.08,1.84,4.47,3.66,6.06,6.88,6.01,14.11,11.74,21.18,17.6,8.01,6.64,12.03,14.56,11.99,24.02-.13,26.98-.22,53.95,.11,80.93,.07,5.64-2.39,7.02-8.72,6.94-18.47-.26-36.95-.29-55.41,0-6.65,.11-8.68-1.84-8.56-7.18,.33-14.79-.07-29.59,.18-44.38,.1-5.58-2.26-7.55-9.23-7.48-26.38,.3-52.78-.07-79.16,.26-7.79,.1-10.48-1.61-10.38-8.39,.45-28.49,.19-57,.19-85.5,0-2.36,0-4.72,0-8.06-7.05,0-13.54-.22-20,.06C2.68,39.6-.27,38.01,.02,32.37,.47,23.68,.33,14.96,.08,6.27-.04,1.94,1.51-.01,7.21,0c59.11,.11,118.22,.1,177.33,.03,4.94,0,7.21,1.25,7.08,5.63-.27,9.13-.34,18.28,.03,27.41,.21,5.09-2.56,6.42-8.07,6.24-6.53-.22-13.08-.05-20.69-.05Zm-62.73,82.26c.45-.58,.89-1.15,1.34-1.73-3.79-2.92-7.75-5.71-11.34-8.79-5.34-4.59-8.68-9.93-6.95-16.55,1.69-6.45,6.35-10.89,13.99-13.05,8.28-2.33,15.67-.91,21.94,4.02,6.32,4.97,12.42,10.12,20.18,16.48,0-32.23-.06-62.23,.06-92.22,.02-4.46-3.33-4.06-6.86-4.06-24.55,.02-49.1,0-73.65,.03-1.98,0-3.95,.43-6.3,.71,0,32.28-.06,64.03,.17,95.79,.01,1.59,2.25,3.33,3.82,4.72,4.53,3.99,9.17,7.88,13.93,11.68,1.51,1.2,3.45,2.77,5.27,2.84,8.12,.31,16.27,.13,24.4,.13Zm64.85-44.48l-2.13,.55c0,8.18,.24,16.37-.06,24.54-.41,11.12-1.66,22.29,12.18,29.45,1.17,.6,1,2.96,1.46,4.5-2.07-.19-4.26-.08-6.16-.66-1.35-.41-2.32-1.72-3.44-2.64-16.77-13.85-33.34-27.86-50.48-41.4-3.45-2.72-9.24-5.25-13.57-4.88-4.3,.37-10.29,3.92-11.59,7.15-1.42,3.52,.13,9.4,3.15,12.29,9.61,9.2,20.29,17.68,30.97,26.07,6.4,5.03,9.38,10.77,9.06,17.98-.26,5.97-.05,11.96-.05,17.94h58.2c.3-1.22,.67-2.04,.67-2.87,.02-18.05,.61-36.12-.36-54.13-.31-5.67-3.59-11.91-7.69-16.58-5.64-6.42-13.35-11.61-20.17-17.33ZM36.3,6.04V134.83H117.92c-4.24-6.06-9.68-8.19-17.42-7.75-9.18,.52-18.45-.03-27.67,.18-4.96,.12-6.98-1.2-8.82-5.34-1.68-3.79-6.08-8.47-10.35-9.39-7.34-1.59-7.96-4.63-7.93-9.68,.19-29.56,.1-59.11,.1-88.67,0-2.56,0-5.13,0-8.13h-9.53ZM192.83,174.47h-57.75v19.44h57.75v-19.44Zm-37.47-60.31V5.69c-3.31,.12-6.02,.22-9.34,.34,0,3.02,0,5.38,0,7.73,0,28.9,.21,57.81-.16,86.71-.08,6.17,2.35,10.29,9.5,13.68ZM7.36,5.87v27.12H28.3V5.87H7.36Zm176.92-.23c-6.37,0-11.86-.2-17.29,.14-1.44,.09-3.87,1.81-3.91,2.84-.32,8.12-.18,16.26-.18,24.43h21.38V5.64Z"/>
  <path class="cls-1" d="M95.52,65.26c-15.28-.11-27.4-10.37-27.31-23.1,.09-12.57,12.69-22.66,28.05-22.48,15.31,.18,27.65,10.58,27.4,23.1-.25,12.58-12.79,22.6-28.14,22.49Zm21.24-22.89c-.08-9.66-9.62-17.25-21.41-17.04-11.32,.2-20.45,7.91-20.41,17.25,.04,9.23,9.47,17.02,20.66,17.07,11.76,.05,21.25-7.69,21.17-17.27Z"/>
</svg>