<?xml version="1.0" encoding="UTF-8"?>
<svg id="Layer_1" data-name="Layer 1" xmlns="http://www.w3.org/2000/svg" viewBox="0 0 200 200">
  <defs>
    <style>
      .cls-1 {
        fill: #5a2b5f;
      }
    </style>
  </defs>
  <path class="cls-1" d="M168.03,0c3.41,1.39,4.55,3.96,4.49,7.57-.15,8.27-.04,16.54-.05,24.8,0,4.81-2.22,7-7.07,7.01-8.6,0-17.19,.03-25.79,0-3.74-.02-6.32-2.36-6.41-5.68-.09-3.36,2.36-5.95,5.81-6.01,3.64-.06,7.27-.01,11.11-.37-.54-.38-1.06-.78-1.61-1.13-16.78-10.88-35.16-15.73-55.11-14.14C57.08,14.93,27.02,38.62,15.9,73.18c-6.37,19.8-5.54,39.48,1.85,58.89,.35,.91,.78,1.81,.97,2.75,.6,3.01-1.1,5.88-3.93,6.78-2.96,.95-6.04-.54-7.3-3.62-2.71-6.64-4.77-13.48-5.94-20.57C.95,113.71,.51,109.98,0,106.25c0-4.04,0-8.07,0-12.11,.11-.63,.24-1.25,.33-1.88,.79-5.07,1.24-10.22,2.41-15.2C12.01,37.82,43.18,8.51,82.99,1.48,86.56,.85,90.18,.49,93.78,0c4.04,0,8.08,0,12.11,0,.57,.11,1.13,.27,1.71,.31,14.6,1.06,28.32,5.12,41.06,12.31,4.05,2.28,7.89,4.92,11.97,7.49,.04-.66,.1-1.28,.1-1.9,0-3.57,.12-7.15-.03-10.72C160.57,3.89,161.84,1.32,165.29,0h2.74Z"/>
  <path class="cls-1" d="M39.33,179.58c0,4.08,0,7.83,0,11.58,0,1.04,.05,2.09-.04,3.12-.26,3.38-2.82,5.79-5.99,5.71-3.21-.08-5.62-2.55-5.67-6-.07-4.62-.02-9.24-.02-13.87,0-4.36-.03-8.72,.01-13.09,.04-4.06,2.38-6.4,6.48-6.42,8.79-.03,17.58-.03,26.37,0,3.84,.02,6.41,2.43,6.42,5.87,0,3.47-2.55,5.81-6.39,5.83-3.42,.02-6.85,0-10.27,0-.07,.16-.13,.32-.2,.48,2.69,1.62,5.31,3.37,8.08,4.84,52.41,27.83,115.66-1.74,128.28-59.16,3.82-17.38,2.23-34.38-4.16-50.99-.62-1.61-.9-3.57-.64-5.26,.36-2.38,2.71-3.97,5.09-4.09,2.74-.14,5.02,1.14,5.9,3.87,1.99,6.17,4.33,12.32,5.5,18.66,5.98,32.53-1.89,61.51-23.88,86.23-16.71,18.78-37.89,29.58-62.94,32.34-25.66,2.82-49.04-3.42-70.05-18.44-.51-.36-1.04-.69-1.86-1.24Z"/>
  <path class="cls-1" d="M102.84,85.02c4.08,.55,6.02,2.32,5.94,5.2-.09,2.86-1.99,4.46-6.03,4.84,0,2.61,.01,5.26,0,7.91-.02,3.48-1.89,5.74-4.73,5.76-2.82,.02-5-2.49-5.03-5.82-.02-2.59,0-5.17,0-7.97-.85,0-1.54,0-2.24,0-5.4,0-10.81,.05-16.21-.02-3.76-.05-6.14-3.76-4.31-7.01,5.96-10.59,12.02-21.13,18.21-31.59,2.05-3.47,5.62-4.78,8.83-3.88,3.23,.91,5.49,4.12,5.53,8.12,.06,7.42,.03,14.84,.04,22.26,0,.71,0,1.41,0,2.21Zm-19.96,0h10.04v-17.64c-3.5,6.16-6.71,11.78-10.04,17.64Z"/>
  <path class="cls-1" d="M50.18,98.9c4.8,0,9.22-.02,13.64,0,2.76,.02,4.72,1.46,5.27,3.76,.69,2.89-1.35,5.87-4.36,5.91-8,.11-16.01,.13-24-.04-3.97-.08-6.09-4.16-4.16-7.66,.78-1.41,1.82-2.69,2.78-4,4.44-6.1,8.97-12.13,13.31-18.3,1.63-2.32,3.06-4.84,4.2-7.44,1.61-3.68-.25-7.53-3.94-8.83-3.62-1.27-7.5,.65-8.78,4.35-.13,.37-.23,.75-.35,1.11-.89,2.65-3.24,4.07-5.74,3.46-2.68-.65-4.25-2.9-3.65-5.76,1.35-6.5,5.36-10.83,11.67-12.63,6.39-1.83,12.19-.27,16.74,4.66,4.42,4.79,5.8,10.49,3.32,16.62-1.4,3.46-3.31,6.77-5.36,9.9-3.04,4.61-6.41,9-9.64,13.49-.25,.35-.48,.72-.92,1.39Z"/>
  <path class="cls-1" d="M160.45,101c-3.3,0-6.28,.02-9.26,0-3.25-.03-6.51,.03-9.76-.19-2.15-.14-3.66-1.87-3.97-3.96-.32-2.22,.7-4.27,2.71-5.11,.75-.32,1.63-.48,2.46-.48,8.33-.03,16.67-.06,25,0,4.2,.03,6.36,3.37,4.66,7.25-6.7,15.3-13.43,30.58-20.18,45.86-1.34,3.03-3.97,4.2-6.62,3.07-2.68-1.14-3.61-3.98-2.25-7.08,5.42-12.38,10.87-24.75,16.3-37.13,.28-.63,.52-1.28,.9-2.22Z"/>
  <path class="cls-1" d="M105.95,139.99c-3.65,.05-5.84-3.35-4.41-7.02,3.09-7.92,6.27-15.82,9.41-23.72,4.96-12.49,9.94-24.98,14.89-37.48,.7-1.77,1.65-3.28,3.61-3.77,1.83-.46,3.52-.09,4.83,1.33,1.47,1.6,1.68,3.45,.89,5.44-2.59,6.52-5.18,13.03-7.78,19.55-5.49,13.82-11,27.63-16.47,41.46-.92,2.34-2.18,4.15-4.98,4.21Z"/>
</svg>