<?xml version="1.0" encoding="UTF-8"?>
<svg id="Layer_1" data-name="Layer 1" xmlns="http://www.w3.org/2000/svg" viewBox="0 0 199.39 200">
  <defs>
    <style>
      .cls-1 {
        fill: #5a2b5f;
      }
    </style>
  </defs>
  <path class="cls-1" d="M94.51,0c4.31,1.15,8.73,2,12.91,3.52,9.58,3.49,18.28,8.54,26.14,15.13,8.23,6.89,12.17,15.59,12.06,26.2-.06,6.18-.25,12.36-.44,18.54-.03,1.09,.25,1.66,1.28,2.26,3.76,2.15,4.59,6.04,3.09,10.17-1.66,4.58-3.97,8.74-6.53,12.8-2.62,4.16-5.24,8.32-7.96,12.42-1.75,2.64-3.57,5.24-5.55,7.7-3.71,4.63-7.81,8.86-13.28,11.45-8.67,4.11-17.5,4.5-26.47,1.03-5.01-1.94-9.19-5.11-12.61-9.18-3.91-4.67-7.79-9.39-11.31-14.35-2.95-4.15-5.31-8.71-8.06-13.01-2.47-3.87-3.76-8.09-3.87-12.63-.08-3.27,1.03-6.02,4.4-7.29,1-.38,1.24-.99,1.21-2.08-.22-6.7-.39-13.4-.44-20.1-.04-5.29,1.02-10.41,3.83-14.94,4.22-6.81,10.21-11.66,17.53-14.82,2.55-1.1,5.28-1.8,7.84-2.89,.58-.25,1.1-1.42,1.06-2.14-.08-1.47-.66-2.91-.83-4.39-.12-1.11,.08-2.26,.14-3.39,1.95,0,3.91,0,5.86,0Zm-26.62,68.2c-1.11,0-2.07,.02-3.02,0-4.65-.1-7.1,2.5-5.7,6.9,1.24,3.91,3.04,7.76,5.22,11.24,3.14,5.03,6.93,9.65,10.29,14.54,3.95,5.76,8.11,11.32,14.48,14.61,9.7,5.01,19.09,4.24,28.2-1.76,4.62-3.05,7.79-7.42,10.84-11.77,4.43-6.3,8.33-12.97,12.45-19.49,.21-.33,.43-.65,.61-1,1.09-2.16,2.46-4.23,3.2-6.51,1.46-4.47,.54-5.54-4.1-5.5-1.58,.01-3.16,0-4.92,0,1.15-5.16,2.2-9.87,3.29-14.74-.48,0-.73-.03-.98,0-7.06,.94-14.03,.23-20.92-1.25-7.24-1.55-14.4-3.45-21.66-4.88-9.27-1.83-18.48-1.59-27.49,1.67-1.22,.44-1.69,.9-1.5,2.35,.68,5.14,1.15,10.31,1.71,15.58Z"/>
  <path class="cls-1" d="M159.36,200c-2.88-.71-5.89-1.12-8.62-2.21-3.4-1.36-6.88-2.87-9.81-5.02-15.9-11.72-17.85-32.71-7.42-46.58,9.13-12.15,21.93-16.69,36.9-13.88,10.89,2.04,19.22,7.94,24.69,17.84,5.36,9.68,5.65,19.65,1.07,29.33-5.41,11.46-14.94,18.11-27.55,20.13-.5,.08-.97,.26-1.46,.4h-7.81Zm9.31-28.97c.91,0,1.55,0,2.19,0,3.25,0,6.51-.03,9.76,.01,1.8,.02,2.64-.74,2.57-2.58-.07-1.82-.05-3.65,0-5.47,.05-1.71-.66-2.52-2.43-2.48-2.8,.06-5.6,.01-8.4,.01-1.2,0-2.41,0-3.7,0,0-3.9,.01-7.47,0-11.05-.01-2.21-.45-2.66-2.6-2.68-1.89-.02-3.77-.02-5.66,0-2.26,.02-2.61,.38-2.62,2.63-.01,3.63,0,7.26,0,11-.82,.04-1.45,.1-2.08,.11-3.32,0-6.64,.05-9.96-.01-1.72-.03-2.54,.63-2.49,2.4,.06,1.89,.06,3.78,0,5.66-.06,1.76,.75,2.48,2.46,2.47,3.12-.03,6.25,0,9.37,0,.87,0,1.75,0,2.7,0,0,4.06,.02,7.77,0,11.48-.01,1.56,.71,2.27,2.25,2.26,1.89-.02,3.77,0,5.66,0,2.52,0,2.98-.45,2.99-2.92,.01-3.51,0-7.01,0-10.8Z"/>
  <path class="cls-1" d="M120.14,182.45h-1.95c-35.61,0-71.22,0-106.84,0-.84,0-1.7,.02-2.53-.11C3.08,181.43,.1,178.07,0,172.25c-.08-4.94,.77-9.8,2.83-14.25,3.42-7.39,8.82-12.88,16.34-16.43,8.69-4.11,18.05-5.66,27.23-7.99,6.28-1.6,12.51-3.44,18.64-5.51,2.4-.81,4.5-2.54,6.93-3.97,.39,.63,.99,1.43,1.41,2.31,5.3,11.32,14.6,16.84,26.67,17.65,10.37,.7,19.4-2.61,25.84-11.23,2.02-2.7,3.6-5.74,5.32-8.51,2.3,1.21,4.92,2.6,7.48,3.94-19.1,13.51-26.54,31.06-18.54,54.19Z"/>
</svg>