<?xml version="1.0" encoding="UTF-8"?>
<svg id="Layer_1" data-name="Layer 1" xmlns="http://www.w3.org/2000/svg" viewBox="0 0 200 200">
  <defs>
    <style>
      .cls-1 {
        fill: #5c2e63;
      }
    </style>
  </defs>
  <path class="cls-1" d="M159.26,7.92H27.18c0,2.4,0,4.58,0,6.76,0,42.59-.17,85.19,.08,127.78,.1,17.52-3.68,33.61-14,47.89-.25,.35-.34,.82-.74,1.84,7.85,0,15.37,0,22.88,0,19.79,0,39.58,0,59.36,.02,1.11,0,2.48-.34,3.26,.19,1.29,.88,3.01,2.32,3.04,3.56,.03,1.24-1.59,2.85-2.87,3.69-.91,.6-2.46,.26-3.72,.26-29.44,0-58.89,.04-88.33-.13-2.05-.01-4.09-1.52-6.13-2.34,.77-1.94,1.07-4.3,2.37-5.76,11.72-13.09,17.24-28.44,17.22-46.01-.05-45.79-.02-91.59-.01-137.38C19.58,.25,19.82,0,27.91,0c44.17,0,88.33,0,132.5,.02,5.73,0,6.65,.89,6.65,6.63,0,23.86,0,47.72,0,71.58,0,1.12,.36,2.54-.17,3.29-.99,1.39-2.53,3.31-3.82,3.29-1.2-.02-3.26-2.18-3.39-3.55-.44-4.76-.23-9.59-.23-14.39,0-18.41,.01-36.83,0-55.24,0-1.09-.11-2.19-.19-3.7Z"/>
  <path class="cls-1" d="M111.78,136.84c2.29,1.08,5.16,1.55,5.6,2.86,.52,1.54-.63,4.13-1.8,5.7-1.89,2.53-4.38,4.6-6.63,6.86-2.42,2.43-4.7,2.11-6.97-.28-2.19-2.31-4.81-4.3-6.58-6.89-1.09-1.61-1.96-4.75-1.14-6.04,1.82-2.85,4.34-1.41,6.33,.63,.43,.44,.95,.8,1.74,1.46,.49-1.57,.93-2.85,1.29-4.15,6.96-25.19,31.94-40.77,56.92-35.49,26.02,5.5,42.71,29.64,38.94,56.3-3.57,25.21-26.52,43.8-52.04,41.96-10.9-.78-20.58-4.87-28.82-12.2-2.2-1.96-5.38-4.08-2.34-7.44,2.81-3.11,5.03-.33,7.19,1.55,18.43,16.05,45.64,13.44,60.28-5.78,14.5-19.03,10.25-46.58-9.29-60.2-22.9-15.97-55.01-4.8-62.66,21.16Z"/>
  <path class="cls-1" d="M93.16,82.14c-13.75,0-27.49-.01-41.24,0-2.83,0-5.89-.15-5.87-3.85,.02-3.65,3.02-3.86,5.89-3.86,27.49,.03,54.99-.04,82.48,.14,2,.01,4.73,1.16,5.82,2.71,1.61,2.29-.98,4.82-4.89,4.84-14.06,.05-28.13,.02-42.19,.02Z"/>
  <path class="cls-1" d="M93.43,56.06c-13.59,0-27.18,0-40.76,0-1.1,0-2.44,.32-3.26-.18-1.33-.82-3.36-2.34-3.23-3.3,.21-1.48,1.75-3.3,3.17-3.92,1.61-.7,3.72-.27,5.62-.27,24.96-.01,49.93-.01,74.89-.01,1.9,0,3.98-.48,5.64,.15,1.89,.72,4.56,2.21,4.85,3.77,.56,2.93-2.07,3.78-4.74,3.78-8.22-.02-16.43,.02-24.65,.03-5.85,0-11.69,0-17.54,0,0-.01,0-.02,0-.03Z"/>
  <path class="cls-1" d="M147.19,135.53c0-4.64-.31-9.32,.18-13.9,.17-1.63,2.32-3.04,3.57-4.55,1.28,1.51,3.58,2.96,3.66,4.53,.39,7.66-.02,15.36,.31,23.03,.1,2.26,1.21,4.84,2.65,6.61,2.8,3.45,6.42,6.22,9.14,9.71,1.01,1.3,.44,3.86,.59,5.84-1.95-.18-4.53,.37-5.74-.69-4.42-3.85-8.52-8.12-12.46-12.5-1.13-1.25-1.72-3.37-1.83-5.13-.26-4.3-.08-8.64-.08-12.96Z"/>
  <path class="cls-1" d="M74.22,108.24c-7.59,0-15.18-.01-22.77,.01-2.77,0-5.4-.57-5.43-3.89-.03-3.42,2.67-3.81,5.41-3.8,15.34,.02,30.67,.02,46.01,0,2.56,0,5.04,.4,5.17,3.56,.14,3.41-2.36,4.12-5.16,4.12-7.75,0-15.49,0-23.24,0Z"/>
  <path class="cls-1" d="M65.05,126.62c4.74,0,9.49,.04,14.23-.02,2.64-.03,5.33,.71,4.93,3.63-.21,1.54-2.97,3.81-4.66,3.87-9.63,.37-19.29,.35-28.92,0-1.61-.06-4.2-2.14-4.47-3.63-.53-2.94,1.95-3.89,4.66-3.87,4.74,.04,9.49,.01,14.23,0Z"/>
</svg>