<?xml version="1.0" encoding="UTF-8"?>
<svg id="SvgjsSvg1001" xmlns="http://www.w3.org/2000/svg" viewBox="0 0 179.2 248">
  <defs>
    <style>
      .cls-1 {
        fill: #5c2e63;
      }
    </style>
  </defs>
  <g id="SvgjsG1008">
    <path class="cls-1" d="M168,248H11.2c-6.4,0-11.2-5.2-11.2-11.2V44.8c0-6.4,5.2-11.2,11.2-11.2H56.4v7.2H11.2c-2,0-4,1.6-4,4V236.8c0,2,1.6,4,4,4H167.6c2,0,4-1.6,4-4V44.8c0-2-1.6-4-4-4h-48.8v-7.2h49.2c6,0,11.2,5.2,11.2,11.2V236.8c0,6-5.2,11.2-11.2,11.2Z"/>
    <path class="cls-1" d="M153.6,233.2H30c-6.4,0-11.2-5.2-11.2-11.2V59.2c0-6.4,5.2-11.2,11.2-11.2h123.6c6,0,11.2,5.2,11.2,11.2V222c0,6.4-5.2,11.2-11.2,11.2ZM30,55.6c-2,0-4,1.6-4,4V222.4c0,2,1.6,4,4,4h123.6c2,0,4-1.6,4-4V59.6c0-2-1.6-4-4-4,0,.4-123.6,.4-123.6,0Z"/>
    <path class="cls-1" d="M126.4,55.6H52.8V29.6c0-8,6.4-14.8,14.8-14.8h4c1.2-8.4,9.2-14.8,18-14.8s16.8,6.4,18.4,14.8h4c8,0,14.8,6.4,14.8,14.8v26h-.4Zm-66.4-7.6h58.4V29.6c0-4-3.2-7.2-7.2-7.2h-10.8v-4c0-6.4-5.2-11.2-11.2-11.2s-11.2,5.2-11.2,11.2v4h-10.8c-4,0-7.2,3.2-7.2,7.2v18.4h0Zm-5.6,50h-15.2c-3.6,0-6.4-2.8-6.4-6.4v-17.2c0-3.6,2.8-6.4,6.4-6.4h15.2c3.6,0,6.4,2.8,6.4,6.4v17.6c-.4,3.2-2.8,6-6.4,6Zm-13.6-7.2h12v-14.4h-12v14.4Zm99.6-3.6H76.4c-2,0-4-1.6-4-4,0-2,1.6-4,4-4h64c2,0,4,1.6,4,4s-2,4-4,4Zm-86,46.8h-15.2c-3.6,0-6.4-2.8-6.4-6v-17.2c0-3.6,2.8-6.4,6.4-6.4h15.2c3.6,0,6.4,2.8,6.4,6.4v17.2c-.4,3.2-2.8,6-6.4,6Zm-13.6-7.2h12v-14.4h-12v14.4Zm99.6-3.6H76.4c-2,0-4-1.6-4-4s1.6-4,4-4h64c2,0,4,1.6,4,4s-2,4-4,4Zm-86,46.8h-15.2c-3.6,0-6.4-2.8-6.4-6v-17.2c0-3.6,2.8-6,6.4-6h15.2c3.6,0,6.4,2.8,6.4,6v17.2c-.4,3.6-2.8,6-6.4,6Zm-13.6-7.6h12v-14.4h-12v14.4Zm99.6-3.6H76.4c-2,0-4-1.6-4-4,0-2,1.6-4,4-4h64c2,0,4,1.6,4,4s-2,4-4,4Zm-86,46.8h-15.2c-3.6,0-6.4-2.8-6.4-6v-17.2c0-3.6,2.8-6,6.4-6h15.2c3.6,0,6.4,2.8,6.4,6v17.2c-.4,3.6-2.8,6-6.4,6Zm-13.6-7.2h12v-14.4h-12v14.4Zm99.6-3.6H76.4c-2,0-4-1.6-4-4s1.6-4,4-4h64c2,0,4,1.6,4,4s-2,4-4,4Z"/>
  </g>
</svg>