<?xml version="1.0" encoding="UTF-8"?>
<svg id="Layer_1" data-name="Layer 1" xmlns="http://www.w3.org/2000/svg" viewBox="0 0 200 150">
  <defs>
    <style>
      .cls-1 {
        fill: #5c2e63;
      }
    </style>
  </defs>
  <path class="cls-1" d="M200,142.34v7.66c-66.67,0-133.33,0-200,0v-7.66c1.47-2.96,3.67-4.04,6.44-3.94,2.74,.1,5.47,.02,7.92,.02-.43-2.5-1.06-4.5-1.07-6.51-.06-41.75-.02-83.5-.09-125.25,0-3.05,.79-5.17,2.88-6.66H183.22c2.18,2.01,2.45,4.77,2.45,7.89-.05,40.9-.02,81.8-.07,122.7,0,2.52-.56,5.03-.9,7.83,2.84,0,5.86,.08,8.87-.02,2.77-.09,4.97,.98,6.44,3.94Zm-101.8-8.99v-62.5H18.46v62.5H98.2Zm82.78-67.02V5.5H108.18c1.47,7.06-1.93,8.09-6.33,7.32v53.51h79.13Zm0,4.49H101.78v62.48h79.21v-62.48Zm-82.8-4.57V13.05q-5.79-.61-6.84-7.49H18.43v60.69H98.18Z"/>
  <path class="cls-1" d="M34.43,124.53c-.43-6.4,1.2-9.23,6.2-10.57,1.92-.52,3.99-.53,5.78-1.42,1.77-.89,3.26-2.6,4.86-3.94-2.18-3.52-4.09-6.14-5.5-9.12-.59-1.24-.35-3.32-.04-4.88,.83-4.16,.8-8.04-1.53-11.52,4.79-7.86,10.12-10.73,14.16-7.66,8.75,6.65,10.01,10.37,7.17,18.61,0,1.88,.36,3.9-.1,5.6-.51,1.87-1.59,3.66-2.75,5.1-2.46,3.06-.72,4.99,1.22,6.35,1.66,1.17,3.68,1.68,5.59,2.17,5.99,1.53,7.32,3.27,7.87,11.28H34.43Zm29.1-29.21c-.14,.11-.28,.22-.42,.33-.09-2.25,.26-4.72-.4-6.68-.5-1.49-2.29-3.29-3.49-3.28-2.1,.02-4.28,1.07-6.25,2.17-1.48,.83-3,2.14-3.88,3.75-.8,1.46,0,4.26-2.57,4.2,.14,1.16,.08,2.42,.46,3.44,.48,1.29,1.47,2.29,1.98,3.56,2.62,6.52,8.25,7.67,12.11,2.24,1.49-2.1,2.68-4.56,3.73-7.03,.21-.5-.81-1.78-1.27-2.71Zm-14.73,18.45c5.59,3.63,9.46,3.36,14.19-.79-.97-1.49-1.93-2.97-2.36-3.63-3.26,.18-5.9,.32-9.1,.5-.54,.78-1.57,2.25-2.74,3.92Z"/>
  <path class="cls-1" d="M133.63,34.3c-.38-1.58-.99-3.13-1.09-4.73-.21-3.47-.15-6.95-.2-10.43l-1.29-.48c2.15-2.1,4.17-4.43,6.47-6.23,2.59-2.03,5.28-1.88,7.73,.74,.59,.63,1.3,1.18,2.03,1.53,3.31,1.57,4.81,4.83,4.39,8.73-.64,5.94-.29,12.45-5.89,17.74,3.86,1.76,6.74,3.28,9.71,4.39,5.1,1.91,6.48,3.77,7.16,10.82h-41.62c-.14-5.83,1.53-8.78,5.92-10.42,1.67-.62,3.37-1.08,5.03-1.73,4.05-1.58,4.48-2.86,2.64-7.48-.35-.87-.73-1.72-1.09-2.59,.62,.52,1.51,.88,1.81,1.61,2.48,5.96,5.59,7.39,10.43,4.65-2.74,5.2-5.89,2.04-8.89,.45-2.08,3.38,.05,4.75,1.81,5.97,3.28,2.28,6.45,.96,8.86-3.56-.58-.91-1.18-1.87-1.79-2.82,1.42-2.51,2.87-5,4.25-7.54,.24-.43,.36-1.52,.28-1.56-3.04-1.61-.91-5.15-1.92-7.54-.99-2.35-1.75-4.34-4.35-2.37-.92,.69-2.23,.93-3.34,.87-4.61-.24-4.51,5.61-7.03,8.06-.52,.51-.03,2.58,0,3.93Z"/>
  <path class="cls-1" d="M125.5,106.19c3.79-1.41,4.79-4.67,5.23-8.32,.52-4.34,.62-8.78,1.43-13.03,1.1-5.78,5.17-9.22,9.74-8.9,4.89,.34,8.62,4.64,9.29,10.75,.37,3.37,.31,6.9,1.15,10.07,.95,3.53,2.71,6.74,4.27,10.47-.11,.09-1.01,.8-2.11,1.67,4.88,2.74,8.28,6.59,7.99,13.99h-41.54c-.44-7.14,2.93-11.04,7.58-13.94-.96-.87-1.76-1.6-3.02-2.76Zm14.04-1.16c-2.51,1.67-5.02,3.34-7.48,4.97,5.86,8.01,14.12,8,19.22,.08-2.4-1.7-4.83-3.43-7.27-5.15,2.64-2.98,4.99-5.95,5.59-10.75,.69-5.54-4.06-7.16-4.39-10.39-3.51,2.21-7.05,4.43-10.81,6.8-.9,5.8,.55,10.91,5.14,14.44Z"/>
  <path class="cls-1" d="M74.1,56.81c-2.88-.55-5.89,1.71-8-1.96-1.43,3.12-19.05,3.04-20.88-.21-1.96,4.46-5.17,1.25-7.98,2.34,.53-7.38,.64-14.38,8.67-16.17-2.22-.79-3.59-1.28-5.57-1.98,4.31-2.49,5.12-6.58,5.21-11.18,.04-2.12,.34-4.23,.59-6.33,.75-6.35,4.77-10.5,9.86-10.25,4.98,.25,8.73,4.93,9.12,11.28,.15,2.39,.07,4.94,.75,7.12,1.02,3.28,2.61,6.3,4.1,9.77-.84,.28-2.37,.78-4.79,1.57,7.85,1.64,8.76,8.17,8.93,15.99Zm-15.66-18.73c1.65-3.35,3.61-6.54,4.84-10.1,.79-2.28,1.26-5.31-2.25-6.07-1.27-.27-2.32-2.15-3.59-3.42-.75,.66-1.66,1.54-2.63,2.29-.98,.76-1.99,1.48-3.04,2.05-4.7,2.55-5.3,4.37-2.52,9.85,1.12,2.21,2.97,3.87,4.49,5.77-1.11,.27-2.22,.54-3.65,.89,3.68,4.81,7.37,4.77,11.01,0-.99-.47-1.82-.87-2.65-1.26Z"/>
</svg>