<?xml version="1.0" encoding="UTF-8"?>
<svg id="Layer_1" data-name="Layer 1" xmlns="http://www.w3.org/2000/svg" viewBox="0 0 200 200">
  <defs>
    <style>
      .cls-1 {
        fill: #5c2e63;
      }
    </style>
  </defs>
  <path class="cls-1" d="M77.23,139.88c5.22,2.01,10.12,3.8,14.94,5.79,2.94,1.21,5.9,2.48,8.57,4.15,5.16,3.22,8.05,8.05,8.18,14.02,.23,10.94,.13,21.88,.1,32.83,0,2.3-1.3,3.32-3.89,3.32-7.35,.01-14.71,0-22.06,0-26.08,0-52.16,0-78.25,0-3.85,0-4.77-.92-4.77-4.76,0-9.27,.15-18.55-.04-27.82-.21-10.05,4.45-16.76,13.82-20.49,5.17-2.06,10.38-4.01,15.57-6.01,.75-.29,1.5-.6,2.5-1-4.97-7.71-6.27-15.87-3.22-24.48,1.98-5.59,5.58-10.05,10.6-13.35,10.15-6.69,23.72-5.97,33.06,1.78,5.37,4.45,8.6,10.14,9.53,16.96,.92,6.79-.6,13.12-4.62,19.06Zm4.07,53.53c0-.84,0-1.55,0-2.27,0-4.54-.04-9.07,.02-13.61,.04-2.86,2.58-4.59,4.78-3.14,.92,.61,1.63,2.15,1.68,3.29,.18,4.66,.04,9.34,.11,14,.01,.61,.61,1.72,.96,1.73,4.47,.12,8.95,.08,13.66,.08,0-1.02,0-1.81,0-2.59,0-8-.12-16.01,.04-24.01,.13-6.68-2.83-11.24-9.09-13.73-6.62-2.63-13.27-5.16-19.94-7.67-.56-.21-1.53-.1-1.99,.26-9.89,7.59-24,7.52-33.79,.08-.46-.35-1.31-.64-1.78-.46-7.46,2.88-14.98,5.64-22.3,8.86-4.76,2.09-6.96,6.16-6.96,11.32,.02,8.67,0,17.34,0,26.02,0,.58,.08,1.16,.12,1.76h14.41c0-5.26-.01-10.32,0-15.39,0-2.6,1.13-3.94,3.24-3.96,2.14-.02,3.31,1.29,3.33,3.88,.03,4.4,0,8.81,.02,13.21,0,.77,.08,1.54,.12,2.34h53.32Zm-26.78-48.44c11.55,.02,20.98-9.15,21.01-20.42,.03-11.28-9.38-20.56-20.87-20.58-11.54-.02-20.96,9.16-20.98,20.44-.02,11.35,9.29,20.54,20.83,20.56Z"/>
  <path class="cls-1" d="M117.58,40.35C117.58,18.03,135.98,0,158.76,0c22.73,0,41.23,18.12,41.22,40.36,0,22.26-18.5,40.35-41.23,40.35-22.75,0-41.16-18.05-41.16-40.37Zm75.73,.04c0-18.71-15.46-33.93-34.48-33.93-19.06,0-34.66,15.17-34.72,33.77-.06,18.67,15.59,34.06,34.65,34.08,18.98,.01,34.55-15.26,34.55-33.91Z"/>
  <path class="cls-1" d="M168.16,139.94c5.1,1.95,10.12,3.8,15.08,5.8,2.63,1.06,5.27,2.21,7.7,3.65,6.05,3.57,8.9,9.07,8.98,15.87,.12,10.34,.07,20.68,.05,31.03,0,2.52-1.25,3.69-3.79,3.69-8.31,.02-16.62,.02-24.92,0-2.47,0-3.8-1.16-3.81-3.2-.01-2.03,1.29-3.21,3.79-3.23,6.47-.04,12.94-.02,19.41-.02,.8,0,1.61,0,2.66,0,0-.95,0-1.67,0-2.38,0-8.27-.1-16.55,.03-24.82,.1-6.03-2.51-10.36-8.09-12.69-7.45-3.1-15.02-5.92-22.55-8.82-4-1.55-4.52-3.53-1.67-6.69,6.25-6.93,7.11-16.77,2.13-24.5-5.05-7.85-14.56-11.4-23.62-8.83-.33,.09-.64,.22-.97,.3-2.19,.56-3.93-.22-4.49-1.99-.55-1.77,.41-3.5,2.5-4.16,6.45-2.05,12.88-1.96,19.18,.55,15.65,6.24,21.92,24.45,13.38,38.74-.31,.51-.59,1.03-.99,1.72Z"/>
  <path class="cls-1" d="M122.57,139.93c5.23,2,10.28,3.79,15.21,5.86,3.11,1.3,6.22,2.75,9.02,4.59,4.77,3.13,7.31,7.83,7.43,13.38,.24,11,.12,22.01,.1,33.01,0,2.01-1.27,3.2-3.38,3.21-8.58,.04-17.15,.03-25.73,0-2.01,0-3.44-1.46-3.4-3.24,.04-1.81,1.36-3.12,3.5-3.15,6.06-.07,12.12-.04,18.17-.05,1.35,0,2.69,0,4.34,0,0-1.02,0-1.79,0-2.56,0-8.07-.1-16.14,.03-24.21,.11-6.61-2.88-11.11-9.03-13.57-7.18-2.87-14.42-5.58-21.63-8.36-4.16-1.6-4.61-3.5-1.62-6.81,6.07-6.71,6.97-16.56,2.2-24.17-4.91-7.84-14.35-11.56-23.3-9.18-.59,.16-1.17,.36-1.76,.5-1.97,.45-3.59-.34-4.11-1.99-.58-1.82,.2-3.45,2.17-4.14,5.14-1.78,10.4-2.03,15.68-.74,18.12,4.44,26.55,24.44,16.98,40.18-.24,.39-.47,.79-.86,1.45Z"/>
  <path class="cls-1" d="M53.97,32.26c-16.4,0-32.8,0-49.2,0-.68,0-1.38,.06-2.03-.08-1.67-.37-2.61-1.5-2.59-3.14,.01-1.63,.88-2.8,2.61-3.1,.73-.13,1.49-.1,2.24-.1,32.73,0,65.47,0,98.2,0,.68,0,1.37-.02,2.04,.09,1.73,.28,2.59,1.39,2.7,3.03,.11,1.6-1.09,3-2.72,3.25-.6,.09-1.22,.04-1.83,.04-16.47,0-32.94,0-49.41,0Z"/>
  <path class="cls-1" d="M53.85,53.09c-16.27,0-32.55,0-48.82,0-.68,0-1.37,.06-2.04-.04-1.79-.28-2.83-1.39-2.85-3.13-.01-1.72,.93-2.9,2.77-3.18,.67-.1,1.36-.08,2.04-.08,32.48,0,64.96,0,97.43,0,.82,0,1.65-.04,2.45,.08,1.81,.28,2.79,1.44,2.75,3.18-.04,1.73-1.07,2.84-2.86,3.12-.6,.09-1.22,.03-1.84,.03-16.34,0-32.68,0-49.02,0Z"/>
  <path class="cls-1" d="M65.93,11.43c-15.58,0-31.17,0-46.75,0-.68,0-1.37,.05-2.04-.06-1.62-.25-2.84-1.68-2.72-3.25,.13-1.63,.97-2.76,2.71-3.03,.6-.09,1.22-.08,1.83-.08,31.24,0,62.47,0,93.71-.01,.27,0,.54,0,.82,0,2.62,.05,4.04,1.19,4.04,3.22,0,2.04-1.44,3.21-4.03,3.21-12.59,0-25.18,0-37.77,0-3.27,0-6.53,0-9.8,0Z"/>
  <path class="cls-1" d="M65.26,73.9c-15.45,0-30.89,0-46.34,0-.54,0-1.1,.04-1.63-.04-1.81-.26-2.75-1.39-2.88-3.11-.12-1.58,1.1-2.94,2.77-3.18,.67-.1,1.36-.08,2.04-.08,30.76,0,61.51,0,92.27,0,.68,0,1.37-.03,2.04,.08,1.82,.28,2.74,1.42,2.74,3.18,0,1.8-1.07,2.81-2.83,3.12-.53,.09-1.09,.03-1.63,.03-15.51,0-31.03,0-46.54,0Z"/>
  <path class="cls-1" d="M162.14,37.17c3.45,0,6.76-.03,10.07,.01,2.38,.03,3.76,1.57,3.39,3.72-.31,1.77-1.48,2.64-3.28,2.65-4.49,.02-8.97,.04-13.46-.01-2.11-.03-3.33-1.15-3.35-3.22-.06-6.99-.06-13.98,0-20.98,.02-2.07,1.41-3.35,3.28-3.33,1.92,.02,3.22,1.41,3.24,3.59,.03,5.13,.01,10.26,.02,15.38,0,.65,.06,1.29,.1,2.19Z"/>
</svg>