<svg width="324" height="295" xmlns="http://www.w3.org/2000/svg" xmlns:xlink="http://www.w3.org/1999/xlink"><defs><path d="M159.5 260.047445c68.269299 0 123.6125-55.314075 123.6125-123.547445 0-68.2333699-55.343201-123.5474453-123.6125-123.5474453-68.2692986 0-123.6125 55.3140754-123.6125 123.5474453 0 68.23337 55.3432014 123.547445 123.6125 123.547445z" id="a"/><mask id="b" x="0" y="0" width="247.225" height="247.094891" fill="#fff"><use xlink:href="#a"/></mask></defs><g fill="none" fill-rule="evenodd"><g transform="translate(2 11)"><ellipse stroke="#4385F4" stroke-width="8" fill="#FFF" cx="159.5" cy="136.5" rx="132.571875" ry="132.5"/><use stroke="#4385F4" mask="url(#b)" stroke-width="6" fill="#FFF" stroke-dasharray="3" xlink:href="#a"/><g fill="#4385F4" fill-rule="nonzero"><path d="M108.5295442 123.6717422c-.4820237.3255401-.8383021.5642696-1.0897927.7161884-.9011747.5642697-1.7604344.9983233-2.5568214 1.3455663-1.1526653.477459-2.1795854.7161884-3.1017176.7161884-3.1645904 0-5.7842844-.9766206-7.9009971-2.9515646-2.1167128-1.9749441-3.1645904-4.4490497-3.1645904-7.4440197 0-2.8864566.9430898-5.382265 2.850227-7.5091277 1.9071373-2.1268628 4.212468-3.1685915 6.9369498-3.1685915 1.1317078 0 2.3472458.1953242 3.6046989.6076751 1.6346891.5208644 2.9550149 1.3021609 4.0028925 2.322187l-1.8233071 2.040052c-.7754294-.7595939-1.7813918-1.3238636-2.9550147-1.6711065-.8802173-.2604322-1.8442647-.3906483-2.9130998-.3906483-1.9071373 0-3.5208688.7812966-4.7992794 2.322187-1.2784107 1.562593-1.9280948 3.4073209-1.9280948 5.577589 0 2.1485654.7335143 3.9064826 2.200543 5.3171568 1.4670286 1.4106744 3.3322507 2.1268629 5.5956663 2.1268629.9430899 0 1.9071373-.3038376 2.8921423-.88981.8173445-.6293778 1.2364955-.9332153 1.257453-.954918v-4.4490496h-6.1196052l.8802172-2.7779432h8.1315302v9.1151262zM127.014105 118.2460718c0 2.1485654-.7544718 4.014996-2.2634155 5.577589-1.5089437 1.5625931-3.3741659 2.3655923-5.5956664 2.3655923-2.0538402 0-3.8561896-.7812965-5.4070485-2.3221869-1.5508589-1.5408903-2.3053307-3.4073209-2.3053307-5.5992917 0-2.1702681.7335144-4.0366987 2.200543-5.6426971 1.4670286-1.6059984 3.2693781-2.387295 5.3860909-2.387295 2.3472458 0 4.254383.7595939 5.7423692 2.3004843 1.4879862 1.497485 2.242458 3.4073209 2.242458 5.7078051zm-2.8711845.0434054c0-1.4540796-.4820238-2.6911325-1.4460712-3.6894558-.9640473-1.020026-2.1586278-1.5191877-3.5837413-1.5191877-1.3412833 0-2.4729912.5208643-3.4160811 1.562593-.9430897 1.0417287-1.404156 2.2353762-1.404156 3.5809424 0 1.4106743.4820238 2.6043218 1.4251136 3.6026451.9430899.9983233 2.1167128 1.5191877 3.5418264 1.5191877 1.3203256 0 2.4520335-.4991617 3.4160808-1.4974851.985005-.9983232 1.4670288-2.1919708 1.4670288-3.5592396zM145.2471754 118.2460718c0 2.1485654-.754472 4.014996-2.2634157 5.577589-1.5089437 1.5625931-3.3741659 2.3655923-5.5956664 2.3655923-2.0538401 0-3.8561896-.7812965-5.4070483-2.3221869-1.5508589-1.5408903-2.3053309-3.4073209-2.3053309-5.5992917 0-2.1702681.7335144-4.0366987 2.200543-5.6426971 1.4670287-1.6059984 3.2693781-2.387295 5.3860909-2.387295 2.3472458 0 4.2543831.7595939 5.7423693 2.3004843 1.4879861 1.497485 2.2424581 3.4073209 2.2424581 5.7078051zm-2.8711847.0434054c0-1.4540796-.4820238-2.6911325-1.4460711-3.6894558-.9640474-1.020026-2.1586279-1.5191877-3.5837414-1.5191877-1.3412833 0-2.4729911.5208643-3.4160809 1.562593-.9430899 1.0417287-1.404156 2.2353762-1.404156 3.5809424 0 1.4106743.4820237 2.6043218 1.4251135 3.6026451.9430898.9983233 2.1167127 1.5191877 3.5418262 1.5191877 1.3203259 0 2.4520336-.4991617 3.4160811-1.4974851.9850048-.9983232 1.4670286-2.1919708 1.4670286-3.5592396zM162.1180047 125.7551995l-2.6406516.4123509v-2.582619l-.5658539.6510804c-.5029812.477459-1.0688352.8681073-1.6766041 1.1719448-.8802172.412351-1.8442647.6293777-2.8711847.6293777-2.0538401 0-3.8142744-.7595938-5.239388-2.3004841-1.4251136-1.5408904-2.1376702-3.3639156-2.1376702-5.4907784 0-2.1919708.7125566-4.080104 2.1167126-5.6426971 1.404156-1.562593 3.1226754-2.3438896 5.1765154-2.3438896 1.173623 0 2.200543.1953242 3.0598027.5859724.6077689.2821349 1.1317077.6510805 1.5718163 1.1068368.1467029.195324.2934058.4123509.4401086.607675v-6.7712365l2.8083119-.412351-.041915 20.3788177zm-2.4729911-7.3138036c0-1.5191876-.5029813-2.7996458-1.5299014-3.8413745-1.02692-1.0634314-2.1795853-1.5842958-3.4999112-1.5842958-1.4670285 0-2.6406515.4991617-3.5418262 1.497485-.8383021.954918-1.2784108 2.1268628-1.2784108 3.4941317 0 1.5408903.4401087 2.8213486 1.3203259 3.8196719s1.9909674 1.497485 3.3532083 1.497485c1.3412833 0 2.5149063-.4557563 3.5627839-1.3889716 1.0688351-.9549179 1.6137315-2.1268628 1.6137315-3.4941317zM176.9349939 108.6100813h-7.8590819v5.4039677h6.0986475v2.7779432h-6.0986475v8.9415047l-3.0598027.4557562v-20.3788176h10.3111157zM183.2432171 107.0257856l-1.8861797 2.4089976-1.8023494-2.4089976 1.9071371-2.387295 1.781392 2.387295zm-.5658539 18.7294139l-2.808312.3906482v-15.0833634l2.808312-.4340536v15.1267688zM195.356682 110.476512l-1.320326 3.0817807c-.146702-.0217027-.33532-.0434054-.523938-.0434054-.272449 0-.544897.0217027-.817345.065108-.272448.0434054-.565854.1519188-.880217.3038376-.586812.2604322-1.089793.8247019-1.5299014 1.6711064-.4820237.954918-.7335144 1.9966467-.7335144 3.1034835v7.0750741l-2.8083119.4557562v-15.1267688l2.5987365-.477459v3.1468888c.3353208-.542567.6915992-1.085134 1.02692-1.6494038.4820232-.5642697 1.0478772-.9766206 1.6766042-1.2153501.335321-.1302161.94309-.2387295 1.865222-.3255402.880217-.065108 1.383199-.1085134 1.446071-.065108zM216.272319 125.7551995l-2.808312.4123509v-10.3521789c0-.954918-.209575-1.6494038-.628727-2.0834574-.41915-.4340536-1.047877-.6510804-1.865222-.6510804-.985005 0-1.739476.412351-2.242458 1.2370528-.335321.5642697-.523938 1.1719448-.523938 1.7796199v9.6359905l-2.808312.5208642v-10.3738815c0-.9115127-.209576-1.6059985-.607769-2.0834574-.419151-.477459-.964048-.7161885-1.676605-.7161885h-.272448c-.985005 0-1.697562.412351-2.13767 1.2587555-.335321.6293777-.502981 1.4323769-.502981 2.4089976v8.9849101l-2.9131.5208642v-15.1918768l2.619694-.4557563v1.9315387c.293406-.4557564.586811-.824702.85926-1.0851341.754471-.7161885 1.634689-1.0634314 2.619694-1.0634314 1.11075 0 1.928094.1736215 2.493948.542567.482024.3038376.94309.9115127 1.404156 1.7796199.964048-1.5408904 2.326289-2.3221869 4.128637-2.3221869 1.718521 0 2.996931.542567 3.835233 1.6494038.691599.9115126 1.02692 2.2570788 1.02692 4.014996v9.7010985zM229.098341 121.1759338c0 1.3889716-.482023 2.5392137-1.446071 3.4290236-.964048.9115126-2.179586 1.3455663-3.646614 1.3455663-1.11075 0-2.095756-.2604322-2.996931-.7812966-.901174-.5208643-1.571816-1.1068368-2.011924-1.8013225l1.97001-1.7796198c.146703.2170267.272448.3906481.398193.5208642.733514.7595939 1.613731 1.1502422 2.640652 1.1502422.712556 0 1.27841-.1953241 1.676604-.5642697.419151-.3689456.607769-.88981.607769-1.5625931 0-.7595938-.482024-1.2804582-1.446071-1.5625931-1.907137-.5859723-2.934058-.9115125-3.08076-.9766206-.880218-.4557563-1.508944-.9332153-1.907137-1.4757824-.44011-.6293777-.670642-1.4540796-.670642-2.517511 0-1.3021608.482024-2.3872949 1.425114-3.2554021.943089-.8681073 2.074797-1.2804582 3.374166-1.2804582.985004 0 1.907137.2170268 2.745438.6727831.838302.4557563 1.446072.9332153 1.80235 1.497485l-1.676605 1.844728c-.314363-.3038376-.58681-.5425671-.817344-.6944859-.670641-.477459-1.320326-.7161885-1.928094-.7161885-.586812 0-1.068836.1302161-1.446072.3906483-.440108.3255402-.670641.8029992-.670641 1.432377 0 .607675.209576 1.0634313.649684 1.3455662.377236.2387295 1.173623.4991617 2.431075.7812965 1.257454.3038376 2.221501.8247019 2.913101 1.5625931.775429.7812965 1.11075 1.7579171 1.11075 2.99497z"/></g><path d="M183.425 41.8467153h-34.218777c-12.37038 2.942365-12.634348 13.1905402-12.634348 13.1905402v34.6342773h13.162283V58.1390365c0-2.6804672 2.630652-3.1541606 2.630652-3.1541606H183.425V41.8467153zM156.183639 58.793437s-2.664889-.2630818-2.664889 2.0933149v10.4665746h17.583246v3.1411063s.052521 1.5694192-1.598477 1.5694192H153.51875v13.6076808h19.181722s11.61636-1.7780703 11.721403-13.6076808V58.793437h-28.238236z" fill="#4385F4"/><path fill="#3876DF" d="M0 162.405109h35.8875v55.795621H0l11.5192342-26.199758zM319 162.405109h-35.8875v55.795621H319l-11.519234-26.199758z"/><path fill="#2354A6" d="M17.94375 143.474453l17.94375 18.839005v55.795621l-17.94375-18.839006zM301.05625 143.474453l-17.94375 18.839005v55.795621l17.94375-18.839006z"/><path fill="#4385F4" d="M17.94375 143.474453h283.1125v55.7956204H17.94375z"/><path d="M119.77325 227.879606c-.466669-.261335-.795666-.559998-.987-.896s-.287-.625332-.287-.868c0-.084001.032666-.156333.098-.217s.14-.091.224-.091h.616c.084 0 .154.021.21.063.056.042.102666.118999.14.231.261335.74667.853995 1.12 1.778 1.12.700004 0 1.217998-.149332 1.554-.448.336002-.298668.504-.825996.504-1.582v-.966c-.541336.69067-1.297328 1.036-2.268 1.036-.989338 0-1.728998-.31733-2.219-.952-.490002-.63467-.749-1.437329-.777-2.408l-.014-.392.014-.378c.028-.961338.286998-1.761664.777-2.401.490002-.639337 1.229662-.959 2.219-.959.980005 0 1.745331.35933 2.296 1.078v-.602c0-.093334.030333-.172667.091-.238.060667-.065334.137666-.098.231-.098h.602c.093334 0 .170333.032666.231.098.060667.065333.091.144666.091.238v6.79c0 2.156011-1.087322 3.234-3.262 3.234-.774671 0-1.395331-.130666-1.862-.392zm3.311-4.347c.331335-.424669.511-.935664.539-1.533.009333-.084001.014-.247332.014-.49 0-.233335-.004667-.392-.014-.476-.028-.597336-.207665-1.108331-.539-1.533-.331335-.424669-.823663-.637-1.477-.637-.672003 0-1.159665.212331-1.463.637-.303335.424669-.469.972996-.497 1.645l-.014.364.014.378c.028.672003.193665 1.220331.497 1.645.303335.424669.790997.637 1.463.637.653337 0 1.145665-.212331 1.477-.637zm4.508.931c-.555336-.57867-.851666-1.348662-.889-2.31l-.014-.602.014-.602c.037334-.961338.338331-1.731331.903-2.31.564669-.57867 1.350995-.868 2.359-.868s1.794331.28933 2.359.868c.564669.578669.865666 1.348662.903 2.31.018667.205334.028.405999.028.602 0 .196001-.009333.396665-.028.602-.037334.961338-.333664 1.73133-.889 2.31-.555336.578669-1.346328.868-2.373.868-1.026672 0-1.817664-.289331-2.373-.868zm3.794-.749c.350002-.378002.539-.921663.567-1.631.009333-.093334.014-.270666.014-.532 0-.261335-.004667-.438666-.014-.532-.028-.709337-.216998-1.252998-.567-1.631-.350002-.378002-.823664-.567-1.421-.567-.597336 0-1.070998.188998-1.421.567-.350002.378002-.539.921663-.567 1.631l-.014.532.014.532c.028.709337.216998 1.252998.567 1.631.350002.378002.823664.567 1.421.567.597336 0 1.070998-.188998 1.421-.567zm4.214.749c-.555336-.57867-.851666-1.348662-.889-2.31l-.014-.602.014-.602c.037334-.961338.338331-1.731331.903-2.31.564669-.57867 1.350995-.868 2.359-.868s1.794331.28933 2.359.868c.564669.578669.865666 1.348662.903 2.31.018667.205334.028.405999.028.602 0 .196001-.009333.396665-.028.602-.037334.961338-.333664 1.73133-.889 2.31-.555336.578669-1.346328.868-2.373.868-1.026672 0-1.817664-.289331-2.373-.868zm3.794-.749c.350002-.378002.539-.921663.567-1.631.009333-.093334.014-.270666.014-.532 0-.261335-.004667-.438666-.014-.532-.028-.709337-.216998-1.252998-.567-1.631-.350002-.378002-.823664-.567-1.421-.567-.597336 0-1.070998.188998-1.421.567-.350002.378002-.539.921663-.567 1.631l-.014.532.014.532c.028.709337.216998 1.252998.567 1.631.350002.378002.823664.567 1.421.567.597336 0 1.070998-.188998 1.421-.567zm4.088.665c-.490002-.63467-.753666-1.437329-.791-2.408l-.014-.42.014-.42c.037334-.961338.303331-1.761664.798-2.401.494669-.639337 1.227328-.959 2.198-.959s1.726664.34533 2.268 1.036v-3.234c0-.093334.030333-.170333.091-.231s.137666-.091.231-.091h.63c.093334 0 .170333.030333.231.091s.091.137666.091.231v9.296c0 .093334-.030333.170333-.091.231s-.137666.091-.231.091h-.602c-.093334 0-.168-.030333-.224-.091-.056-.060667-.084-.137666-.084-.231v-.602c-.532003.709337-1.301995 1.064-2.31 1.064-.980005 0-1.714998-.31733-2.205-.952zm3.941-.791c.326668-.434002.504-.949664.532-1.547.009333-.102667.014-.279999.014-.532 0-.261335-.004667-.443333-.014-.546-.018667-.569336-.198332-1.061665-.539-1.477-.340668-.415336-.82833-.623-1.463-.623-.672003 0-1.161998.209998-1.47.63-.308002.420002-.476.970663-.504 1.652l-.014.406c0 1.792009.66266 2.688 1.988 2.688.653337 0 1.143332-.216998 1.47-.651zm4.739 1.512c-.060667-.060667-.091-.137666-.091-.231v-5.88h-1.204c-.093334 0-.170333-.028-.231-.084-.060667-.056-.091-.130666-.091-.224v-.448c0-.093334.030333-.170333.091-.231s.137666-.091.231-.091h1.204v-.7c0-.756004.184331-1.341665.553-1.757.368669-.415336.972996-.623 1.813-.623h2.1c.093334 0 .168.030333.224.091.056.060667.084.137666.084.231v.448c0 .093334-.028.168-.084.224-.056.056-.130666.084-.224.084h-2.072c-.429335 0-.727999.111999-.896.336-.168001.224001-.252.569331-.252 1.036v.63h3.22c.093334 0 .168.030333.224.091.056.060667.084.137666.084.231v6.636c0 .093334-.028.170333-.084.231-.056.060667-.130666.091-.224.091h-.616c-.093334 0-.170333-.030333-.231-.091s-.091-.137666-.091-.231v-5.88h-2.282v5.88c0 .093334-.030333.170333-.091.231s-.137666.091-.231.091h-.602c-.093334 0-.170333-.030333-.231-.091zm6.874 0c-.060667-.060667-.091-.137666-.091-.231v-6.622c0-.093334.030333-.172667.091-.238.060667-.065334.137666-.098.231-.098h.588c.102667 0 .184333.030333.245.091s.091.142333.091.245v.616c.382669-.63467 1.031329-.952 1.946-.952h.546c.102667 0 .182.028.238.084.056.056.084.135333.084.238v.518c0 .093334-.028.170333-.084.231-.056.060667-.135333.091-.238.091h-.798c-.513336 0-.916999.149332-1.211.448-.294001.298668-.441.704664-.441 1.218v4.13c0 .093334-.032666.170333-.098.231s-.144666.091-.238.091h-.63c-.093334 0-.170333-.030333-.231-.091zm5.264 0c-.060667-.060667-.091-.137666-.091-.231v-6.636c0-.093334.030333-.170333.091-.231s.137666-.091.231-.091h.588c.093334 0 .168.030333.224.091.056.060667.084.137666.084.231v.476c.504003-.625337 1.185329-.938 2.044-.938 1.026672 0 1.754665.429329 2.184 1.288.224001-.392002.543665-.704666.959-.938.415335-.233335.879664-.35 1.393-.35.765337 0 1.390664.261331 1.876.784s.728 1.278662.728 2.268v4.046c0 .093334-.030333.170333-.091.231s-.137666.091-.231.091h-.602c-.093334 0-.170333-.030333-.231-.091s-.091-.137666-.091-.231v-3.92c0-.746671-.153998-1.280999-.462-1.603-.308002-.322002-.713997-.483-1.218-.483-.448002 0-.832998.165665-1.155.497s-.483.860996-.483 1.589v3.92c0 .093334-.030333.170333-.091.231s-.137666.091-.231.091h-.616c-.093334 0-.170333-.030333-.231-.091s-.091-.137666-.091-.231v-3.92c0-.737337-.160998-1.269332-.483-1.596-.322002-.326668-.720998-.49-1.197-.49-.448002 0-.832998.163332-1.155.49-.322002.326668-.483.853996-.483 1.582v3.934c0 .093334-.030333.170333-.091.231s-.137666.091-.231.091h-.616c-.093334 0-.170333-.030333-.231-.091zm13.202-.084c-.443336-.210001-.772332-.450332-.987-.721-.214668-.270668-.322-.494666-.322-.672 0-.093334.032666-.165667.098-.217.065334-.051334.135333-.077.21-.077h.588c.056 0 .100333.009333.133.028.032667.018667.077.060666.133.126.214668.261334.454999.466666.721.616.266001.149334.622998.224 1.071.224.504003 0 .907665-.093333 1.211-.28.303335-.186668.455-.457332.455-.812 0-.233335-.065333-.419999-.196-.56-.130667-.140001-.347665-.266-.651-.378-.303335-.112001-.753664-.233333-1.351-.364-.812004-.177334-1.385998-.433998-1.722-.77-.336002-.336002-.504-.769998-.504-1.302 0-.345335.102666-.678999.308-1.001.205334-.322002.510998-.583332.917-.784.406002-.200668.888997-.301 1.449-.301.588003 0 1.089665.097999 1.505.294.415335.196001.727999.424665.938.686.210001.261334.315.480666.315.658 0 .084-.030333.154-.091.21-.060667.056-.133.084-.217.084h-.532c-.130667 0-.224-.051333-.28-.154-.158667-.177334-.291666-.315-.399-.413-.107334-.098001-.263666-.182-.469-.252-.205334-.070001-.461998-.105-.77-.105-.457336 0-.807332.095666-1.05.287-.242668.191334-.364.445665-.364.763 0 .196001.051333.361666.154.497.102667.135334.298665.261333.588.378.289335.116667.718664.235666 1.288.357.886671.186667 1.514331.452665 1.883.798.368669.345335.553.788664.553 1.33 0 .401335-.114332.765332-.343 1.092-.228668.326668-.569331.583332-1.022.77-.452669.186667-.991664.28-1.617.28-.644003 0-1.187664-.104999-1.631-.315zm6.244.084c-.060667-.060667-.091-.137666-.091-.231v-.966c0-.093334.030333-.172667.091-.238.060667-.065334.137666-.098.231-.098h.966c.093334 0 .170333.032666.231.098.060667.065333.091.144666.091.238v.966c0 .093334-.030333.170333-.091.231s-.137666.091-.231.091h-.966c-.093334 0-.170333-.030333-.231-.091zm4.081-.616c-.560003-.56467-.854-1.355662-.882-2.373l-.014-.56.014-.56c.028-1.017339.321997-1.808331.882-2.373.560003-.56467 1.339328-.847 2.338-.847.672003 0 1.238998.118999 1.701.357s.807332.534331 1.036.889c.228668.354668.352333.709331.371 1.064.009333.084-.021.158666-.091.224-.07.065333-.147.098-.231.098h-.616c-.093334 0-.163333-.021-.21-.063-.046667-.042-.093333-.119-.14-.231-.168001-.457336-.398999-.781666-.693-.973-.294001-.191334-.664998-.287-1.113-.287-.588003 0-1.054665.181998-1.4.546-.345335.364002-.532.919329-.56 1.666l-.014.49.014.49c.028.74667.214665 1.301998.56 1.666.345335.364002.811997.546 1.4.546.457336 0 .830665-.095666 1.12-.287.289335-.191334.517999-.515665.686-.973.046667-.112001.093333-.189.14-.231.046667-.042.116666-.063.21-.063h.616c.084 0 .161.032666.231.098.07.065333.100333.139999.091.224-.018667.345335-.142332.695331-.371 1.05-.228668.354668-.573998.653332-1.036.896s-1.028997.364-1.701.364c-.998672 0-1.777997-.282331-2.338-.847zm7.707-.021c-.555336-.57867-.851666-1.348662-.889-2.31l-.014-.602.014-.602c.037334-.961338.338331-1.731331.903-2.31.564669-.57867 1.350995-.868 2.359-.868s1.794331.28933 2.359.868c.564669.578669.865666 1.348662.903 2.31.018667.205334.028.405999.028.602 0 .196001-.009333.396665-.028.602-.037334.961338-.333664 1.73133-.889 2.31-.555336.578669-1.346328.868-2.373.868-1.026672 0-1.817664-.289331-2.373-.868zm3.794-.749c.350002-.378002.539-.921663.567-1.631.009333-.093334.014-.270666.014-.532 0-.261335-.004667-.438666-.014-.532-.028-.709337-.216998-1.252998-.567-1.631-.350002-.378002-.823664-.567-1.421-.567-.597336 0-1.070998.188998-1.421.567-.350002.378002-.539.921663-.567 1.631l-.014.532.014.532c.028.709337.216998 1.252998.567 1.631.350002.378002.823664.567 1.421.567.597336 0 1.070998-.188998 1.421-.567z" fill="#4A4A4A"/></g><path d="M99.9580078 178h-2.5068359v-9.911133h-3.5029297v-2.066894h9.5209958v2.066894h-3.5112302V178zm10.3012692-12.185547c3.544434 0 5.777344 2.382324 5.777344 6.200684 0 3.810058-2.23291 6.192383-5.777344 6.192383-3.552734 0-5.777343-2.382325-5.777343-6.192383 0-3.81836 2.224609-6.200684 5.777343-6.200684zm0 2.091797c-1.958984 0-3.220703 1.59375-3.220703 4.108887 0 2.506836 1.253418 4.092285 3.220703 4.092285 1.958985 0 3.212403-1.585449 3.212403-4.092285 0-2.515137-1.253418-4.108887-3.212403-4.108887zm7.387696-1.884277h4.99707c2.457031 0 4.150391 1.635254 4.150391 4.100586 0 2.457031-1.751465 4.100586-4.274903 4.100586h-2.365722V178h-2.506836v-11.978027zm2.506836 1.983886v4.258301h1.817871c1.436035 0 2.274414-.763672 2.274414-2.133301 0-1.361328-.830078-2.125-2.266114-2.125h-1.826171zm24.454101-1.983886V178H142.375v-8.084961h-.066406l-3.253906 7.96875h-1.577149l-3.253906-7.96875h-.066406V178h-2.232911v-11.978027h2.905274l3.40332 8.491699h.066406l3.403321-8.491699h2.905273zm7.395996-.20752c3.544434 0 5.777344 2.382324 5.777344 6.200684 0 3.810058-2.23291 6.192383-5.777344 6.192383-3.552734 0-5.777344-2.382325-5.777344-6.192383 0-3.81836 2.22461-6.200684 5.777344-6.200684zm0 2.091797c-1.958984 0-3.220703 1.59375-3.220703 4.108887 0 2.506836 1.253418 4.092285 3.220703 4.092285 1.958985 0 3.212403-1.585449 3.212403-4.092285 0-2.515137-1.253418-4.108887-3.212403-4.108887zM164.770508 178h-5.378906v-11.978027h5.287597c2.249512 0 3.660645 1.153808 3.660645 2.988281 0 1.311523-.979492 2.407226-2.249512 2.598144v.066407c1.626953.124511 2.822266 1.311523 2.822266 2.896972 0 2.108399-1.58545 3.428223-4.14209 3.428223zm-2.87207-10.110352v3.112793h1.875976c1.336426 0 2.100098-.589355 2.100098-1.60205 0-.962891-.672364-1.510743-1.842774-1.510743h-2.1333zm0 8.242676h2.23291c1.444336 0 2.224609-.614258 2.224609-1.759765 0-1.120606-.805176-1.718262-2.282715-1.718262h-2.174804v3.478027zM172.847168 178h-2.506836v-11.978027h2.506836V178zm9.736816-2.075195V178h-7.744629v-11.978027h2.506836v9.902832h5.237793zm9.421387 0V178h-7.935547v-11.978027h7.935547v2.066894h-5.428711v2.888672h5.121582v1.925781h-5.121582v3.021485h5.428711zM205.311523 178l-.913085-2.905273h-4.208497L199.276855 178h-2.573242l4.158692-11.978027h2.946777L207.976074 178h-2.664551zm-3.046386-9.687012l-1.535645 4.905762h3.129395l-1.535645-4.905762h-.058105zm6.931152-2.291015h4.99707c2.457032 0 4.150391 1.635254 4.150391 4.100586 0 2.457031-1.751465 4.100586-4.274902 4.100586h-2.365723V178h-2.506836v-11.978027zm2.506836 1.983886v4.258301h1.817871c1.436035 0 2.274414-.763672 2.274414-2.133301 0-1.361328-.830078-2.125-2.266113-2.125h-1.826172zm8.118164-1.983886h4.99707c2.457032 0 4.150391 1.635254 4.150391 4.100586 0 2.457031-1.751465 4.100586-4.274902 4.100586h-2.365723V178h-2.506836v-11.978027zm2.506836 1.983886v4.258301h1.817871c1.436035 0 2.274414-.763672 2.274414-2.133301 0-1.361328-.830078-2.125-2.266113-2.125h-1.826172zM56.7399902 186.021973h4.6152344c3.5942383 0 5.7109375 2.141601 5.7109375 5.943359S64.9494629 198 61.3552246 198h-4.6152344v-11.978027zm2.506836 2.066894v7.835938h1.8095703c2.2412109 0 3.453125-1.361328 3.453125-3.951172 0-2.506836-1.2451172-3.884766-3.453125-3.884766h-1.8095703zm17.3652343 7.835938V198h-7.9355468v-11.978027h7.9355468v2.066894h-5.4287109v2.888672h5.121582v1.925781h-5.121582v3.021485h5.4287109zM84.7053223 198h-3.0214844l-4.0258789-11.978027h2.805664l2.7392579 9.396484h.0581054l2.7392578-9.396484h2.7309571L84.7053223 198zm13.1816406-2.075195V198H89.951416v-11.978027h7.9355469v2.066894H92.458252v2.888672h5.121582v1.925781h-5.121582v3.021485h5.4287109zm9.5541991 0V198h-7.7446288v-11.978027h2.5068358v9.902832h5.237793zm6.889649-10.110352c3.544433 0 5.777343 2.382324 5.777343 6.200684 0 3.810058-2.23291 6.192383-5.777343 6.192383-3.552735 0-5.777344-2.382325-5.777344-6.192383 0-3.81836 2.224609-6.200684 5.777344-6.200684zm0 2.091797c-1.958985 0-3.220704 1.59375-3.220704 4.108887 0 2.506836 1.253418 4.092285 3.220704 4.092285 1.958984 0 3.212402-1.585449 3.212402-4.092285 0-2.515137-1.253418-4.108887-3.212402-4.108887zm7.387695-1.884277h4.99707c2.457031 0 4.150391 1.635254 4.150391 4.100586 0 2.457031-1.751465 4.100586-4.274903 4.100586h-2.365722V198h-2.506836v-11.978027zm2.506836 1.983886v4.258301h1.817871c1.436035 0 2.274414-.763672 2.274414-2.133301 0-1.361328-.830078-2.125-2.266113-2.125h-1.826172zm20.801758-1.983886V198h-2.232911v-8.084961h-.066406l-3.253906 7.96875h-1.577148l-3.253907-7.96875h-.066406V198h-2.23291v-11.978027h2.905273l3.403321 8.491699h.066406l3.40332-8.491699h2.905274zm9.927734 9.902832V198h-7.935547v-11.978027h7.935547v2.066894h-5.428711v2.888672h5.121582v1.925781h-5.121582v3.021485h5.428711zM159.16333 198h-2.398926v-11.978027h2.091797l5.594727 7.802734h.066406v-7.802734h2.398926V198h-2.075196l-5.603027-7.844238h-.074707V198zm15.157227 0h-2.506836v-9.911133h-3.50293v-2.066894h9.520996v2.066894h-3.51123V198zm13.845703.20752c-3.486328 0-5.669434-2.33252-5.669434-6.200684 0-3.859863 2.199707-6.192383 5.669434-6.192383 2.880371 0 5.071777 1.826172 5.262695 4.507324h-2.44043c-.232421-1.469238-1.361328-2.432129-2.822265-2.432129-1.892578 0-3.112793 1.58545-3.112793 4.108887 0 2.556641 1.203613 4.133789 3.121094 4.133789 1.485839 0 2.55664-.871582 2.822265-2.291015h2.44043c-.282227 2.672851-2.33252 4.366211-5.270996 4.366211zm12.21875-12.393067c3.544433 0 5.777344 2.382324 5.777344 6.200684 0 3.810058-2.232911 6.192383-5.777344 6.192383-3.552735 0-5.777344-2.382325-5.777344-6.192383 0-3.81836 2.224609-6.200684 5.777344-6.200684zm0 2.091797c-1.958985 0-3.220703 1.59375-3.220703 4.108887 0 2.506836 1.253418 4.092285 3.220703 4.092285 1.958984 0 3.212402-1.585449 3.212402-4.092285 0-2.515137-1.253418-4.108887-3.212402-4.108887zm20.071289-1.884277V198h-2.23291v-8.084961h-.066407l-3.253906 7.96875h-1.577148l-3.253907-7.96875h-.066406V198h-2.23291v-11.978027h2.905274l3.40332 8.491699h.066406l3.40332-8.491699h2.905274zm1.992187 0h4.997071c2.457031 0 4.15039 1.635254 4.15039 4.100586 0 2.457031-1.751465 4.100586-4.274902 4.100586h-2.365723V198h-2.506836v-11.978027zm2.506836 1.983886v4.258301h1.817871c1.436036 0 2.274414-.763672 2.274414-2.133301 0-1.361328-.830078-2.125-2.266113-2.125h-1.826172zM240.917725 198l-.913086-2.905273h-4.208496L234.883057 198h-2.573243l4.158692-11.978027h2.946777L243.582275 198h-2.66455zm-3.046387-9.687012l-1.535645 4.905762h3.129395l-1.535645-4.905762h-.058105zM247.201416 198h-2.398926v-11.978027h2.091797l5.594727 7.802734h.066406v-7.802734h2.398926V198h-2.075196l-5.603027-7.844238h-.074707V198zm15.655273 0h-2.506835v-4.474121l-4.166993-7.503906h2.730957l2.681153 5.113281h.058105l2.689453-5.113281h2.689453l-4.175293 7.503906V198z" fill="#FFF"/></g></svg>