<svg width="56" height="32" viewBox="0 0 56 32" fill="none" xmlns="http://www.w3.org/2000/svg">
<g id="Group 100">
<path id="Vector" d="M4.9724 10.4695C10.1965 10.4695 15.278 10.2996 20.3383 10.5362C23.1658 10.6667 25.0771 9.87487 26.2086 7.27191C26.421 6.78348 26.7972 6.36785 27.2856 5.63672V31.7998C26.8488 31.824 26.3664 31.8696 25.8871 31.8696C19.5041 31.8756 13.118 31.8422 6.73501 31.8969C5.38499 31.909 4.86015 31.548 4.87532 30.1191C4.93903 24.0364 4.89959 17.9537 4.90566 11.8741C4.90566 11.4797 4.94206 11.0823 4.97543 10.4695H4.9724Z" fill="black"/>
<path id="Vector_2" d="M51.1308 10.4695C51.1308 11.0884 51.1308 11.5768 51.1308 12.0653C51.1308 18.0448 51.0944 24.0243 51.1551 30.0038C51.1702 31.4357 50.7455 31.9211 49.265 31.906C42.9336 31.8332 36.6022 31.8756 30.2707 31.8726C29.7823 31.8726 29.2939 31.8271 28.7266 31.7998V5.55786C29.4365 6.65911 30.0129 7.39025 30.4133 8.20632C31.2719 9.95073 32.5582 10.5696 34.5301 10.515C39.4509 10.3815 44.3777 10.4725 49.3015 10.4725H51.1278L51.1308 10.4695Z" fill="black"/>
<path id="Vector_3" d="M28.0229 2.09629C26.6578 4.20778 25.4018 6.07353 24.2368 7.9939C23.709 8.86458 23.0992 9.22863 22.0556 9.22257C15.266 9.18009 8.47346 9.2074 1.68393 9.18313C1.16819 9.18313 0.652456 8.94346 0.136719 8.81301C0.288406 8.32154 0.349081 7.77243 0.609984 7.34771C1.82652 5.38184 3.16137 3.48878 4.32026 1.49257C4.93308 0.439861 5.66118 0.09098 6.85951 0.0940137C18.7821 0.133452 30.7017 0.118284 42.6244 0.118284C44.8876 0.118284 47.1538 0.169857 49.4139 0.0970475C50.4575 0.0636762 51.0582 0.442895 51.5891 1.31965C52.8906 3.46754 54.28 5.56386 55.6543 7.66625C56.3157 8.67649 56.0123 9.18919 54.8686 9.19223C47.7271 9.2074 40.5827 9.22257 33.4412 9.15582C32.9346 9.14976 32.2823 8.62188 31.9577 8.15165C30.6441 6.25556 29.4336 4.28969 28.0229 2.09629Z" fill="black"/>
</g>
</svg>
