<svg width="55" height="29" viewBox="0 0 55 29" fill="none" xmlns="http://www.w3.org/2000/svg">
<g id="Layer_1" clip-path="url(#clip0_989_130)">
<path id="Vector" d="M8.51728 16.2665C9.0963 16.2665 9.66137 16.2665 10.2264 16.2665C11.2868 16.2665 12.3542 16.2739 13.4145 16.2665C14.0424 16.2591 14.4958 15.6997 14.3493 15.133C14.2238 14.6398 13.8959 14.4926 13.4355 14.4926C10.8682 14.5074 8.30102 14.4926 5.7338 14.4926C4.19207 14.4926 2.65034 14.4926 1.11558 14.4926C0.362157 14.4926 -0.0145551 14.1982 -0.00060276 13.6241C0.0133495 13.0426 0.452847 12.6599 1.14349 12.6599C6.86393 12.6599 12.5844 12.6599 18.3048 12.6599C18.4862 12.6599 18.6746 12.6599 18.8559 12.6599C19.435 12.6305 19.8187 12.2477 19.8187 11.6957C19.8187 11.1437 19.5187 10.8787 18.849 10.8787C14.0982 10.8787 9.35442 10.8787 4.60366 10.8787C4.43623 10.8787 4.27578 10.886 4.10835 10.8713C3.58514 10.8198 3.30609 10.5254 3.29912 10.0396C3.29912 9.56853 3.627 9.13426 4.08045 9.06802C4.26183 9.03858 4.44321 9.0533 4.63156 9.0533C8.25916 9.0533 11.8937 9.0533 15.5213 9.0533C15.9748 9.0533 16.3585 8.94289 16.5887 8.50127C16.8677 7.97132 16.6026 7.37513 16.0306 7.25C15.8213 7.20584 15.5911 7.22056 15.3748 7.22056C11.1403 7.22056 6.90579 7.22056 2.67126 7.22056C1.93877 7.22056 1.56903 6.94822 1.56206 6.41091C1.55508 5.8368 2.01551 5.43934 2.69219 5.43934C7.73595 5.43934 12.7727 5.43934 17.8165 5.43934C18.0537 5.43934 18.2979 5.43198 18.5141 5.34365C18.9536 5.17437 19.2048 4.79898 19.121 4.30584C19.0303 3.79061 18.6606 3.6066 18.1862 3.61396C15.8213 3.61396 13.4564 3.61396 11.0915 3.61396C9.40325 3.61396 7.71502 3.61396 6.03377 3.61396C5.35011 3.61396 5.01525 3.33426 5.02223 2.77487C5.02223 2.2302 5.4408 1.82538 6.0547 1.81802C7.24762 1.8033 8.43357 1.81802 9.61952 1.81802C9.6544 1.7297 9.68928 1.67817 9.69625 1.62665C9.89856 0.471066 10.4357 0 11.538 0C18.1374 0 24.7368 0 31.3363 0C34.2314 0 37.1265 0 40.0286 0C41.1866 0 41.668 0.522589 41.5912 1.75178C41.5005 3.17233 41.375 4.59289 41.2494 6.1165C41.4726 6.1165 41.661 6.1165 41.8563 6.1165C43.5446 6.1165 45.2328 6.1165 46.914 6.1165C48.0023 6.1165 48.9022 6.55076 49.6347 7.39721C51.1067 9.09746 52.5717 10.7977 54.0506 12.4906C54.7134 13.2561 55.0692 14.1688 54.9994 15.1845C54.818 17.8048 54.5948 20.4178 54.3436 23.0307C54.246 24.0612 53.2275 24.6279 52.0903 24.3409C52.1462 23.0602 51.8811 21.8604 51.1486 20.8079C49.4673 18.4157 46.2583 17.9815 43.7817 19.8289C42.4005 20.852 41.5215 22.2431 41.2703 24.017C41.2006 24.4881 40.9425 24.4365 40.6495 24.4365C37.0009 24.4365 33.3524 24.4365 29.7039 24.4365C27.9598 24.4365 26.2228 24.4365 24.4787 24.4365C24.2834 24.4365 24.0811 24.4365 23.8509 24.4365C23.802 23.8845 23.816 23.3619 23.7113 22.8614C22.9579 19.1518 19.0583 17.5251 15.8632 19.586C14.2796 20.6091 13.289 22.0739 12.982 24.0244C12.9332 24.3335 12.8216 24.4439 12.5216 24.4365C11.4752 24.4218 10.4287 24.4513 9.3893 24.4292C8.38474 24.4071 7.88245 23.7299 7.98012 22.67C8.1615 20.7122 8.308 18.747 8.47543 16.7817C8.48938 16.6345 8.50333 16.4799 8.53123 16.2591L8.51728 16.2665ZM52.3903 12.9617C50.9532 11.3129 49.6278 9.73782 48.2325 8.24365C47.9116 7.89772 47.3326 7.73579 46.8513 7.6769C46.0769 7.58122 45.2816 7.65482 44.4933 7.65482C43.8585 7.65482 43.2237 7.65482 42.5749 7.65482C42.4284 9.47284 42.2819 11.2025 42.1423 12.969H52.3973L52.3903 12.9617Z" fill="black"/>
<path id="Vector_2" d="M46.2383 28.9999C43.9989 28.9999 42.2549 27.1671 42.2549 24.8265C42.2549 22.1547 44.4593 19.8435 46.9987 19.8362C49.2589 19.8362 51.0239 21.6836 51.01 24.0463C50.996 26.7182 48.7985 28.9999 46.2313 28.9999H46.2383ZM46.3987 26.6814C47.6684 26.7034 48.7706 25.5847 48.7776 24.2524C48.7776 23.0895 47.9544 22.1842 46.8591 22.1621C45.6244 22.1326 44.4803 23.2956 44.4663 24.5984C44.4524 25.7319 45.3104 26.6593 46.3987 26.6814Z" fill="black"/>
<path id="Vector_3" d="M17.9779 29C15.6967 29 13.9666 27.1746 13.9806 24.7898C13.9945 22.1253 16.2059 19.8215 18.7522 19.8363C20.9916 19.851 22.7287 21.6764 22.7217 24.0243C22.7217 26.7035 20.5242 29 17.9779 29ZM20.4893 24.2157C20.4823 23.0307 19.6173 22.1474 18.4871 22.1621C17.2663 22.1842 16.1711 23.3619 16.185 24.6352C16.199 25.7982 17.0849 26.6888 18.2081 26.6741C19.4499 26.6593 20.4963 25.5258 20.4823 24.2083L20.4893 24.2157Z" fill="black"/>
</g>
<defs>
<clipPath id="clip0_989_130">
<rect width="55" height="29" fill="white"/>
</clipPath>
</defs>
</svg>
