<svg width="35" height="40" viewBox="0 0 35 40" fill="none" xmlns="http://www.w3.org/2000/svg">
<path id="Vector" d="M15.8594 36.6507H23.3578C22.9256 36.0868 22.5287 36.2372 22.1941 36.2355C16.4497 36.2257 10.7053 36.1587 4.96255 36.2617C2.70582 36.3026 0.719829 34.5879 0.743371 32.2079C0.83586 22.7846 0.780367 13.3596 0.782048 3.93631C0.782048 1.49099 2.29719 0.00352202 4.79103 0.00188745C10.7591 0.00025287 16.7271 -0.00138171 22.6952 0.00188745C25.0041 0.00188745 26.4301 1.36839 26.4335 3.60449C26.4419 9.18821 26.4469 14.7719 26.4234 20.354C26.42 21.0928 26.5142 21.5293 27.4441 21.5096C28.3589 21.49 28.8129 22.1422 29.0618 22.9285C30.2911 26.804 31.5254 30.6796 32.7462 34.5568C33.239 36.1195 33.693 37.6919 34.1857 39.253C34.3471 39.7646 34.2698 40.0032 33.6493 40C29.642 39.9853 25.6364 39.9934 21.6291 39.9869C21.439 39.9869 21.2238 39.9624 21.0624 39.8757C19.3084 38.9244 17.5629 37.9567 15.814 36.994C15.8292 36.8796 15.8443 36.7635 15.8611 36.6491L15.8594 36.6507ZM3.53149 18.0476C3.53149 22.1864 3.53149 26.3251 3.53149 30.4638C3.53149 30.9101 3.47096 31.3122 4.18901 31.3089C10.5186 31.2877 16.8499 31.2926 23.1795 31.3024C23.6319 31.3024 23.8438 31.201 23.8387 30.7172C23.8185 28.9747 23.8185 27.2323 23.8387 25.4898C23.8454 24.9488 23.6167 24.769 23.0853 24.787C22.3303 24.8131 21.5736 24.8033 20.8168 24.7886C19.818 24.7706 19.0696 24.0972 19.0276 23.1998C18.9872 22.3237 19.7944 21.5227 20.7933 21.4835C21.4643 21.4573 22.142 21.4312 22.8096 21.4835C23.6403 21.5505 23.8488 21.2072 23.8454 20.4439C23.8169 15.5156 23.8118 10.5874 23.8488 5.65916C23.8555 4.8435 23.5629 4.66533 22.7827 4.6686C16.7322 4.69476 10.6817 4.68331 4.63127 4.68331C3.53654 4.68331 3.53318 4.68658 3.53318 5.78829C3.53149 9.87309 3.53318 13.9563 3.53318 18.0411L3.53149 18.0476Z" fill="black"/>
</svg>
