<?xml version="1.0" encoding="UTF-8"?>
<svg id="Layer_1" data-name="Layer 1" xmlns="http://www.w3.org/2000/svg" viewBox="0 0 200 200">
  <defs>
    <style>
      .cls-1 {
        fill: #fbb247;
      }
    </style>
  </defs>
  <path class="cls-1" d="M88.51,170.26c-4.63,0-9.08,0-13.52,0-21.54,0-43.07,0-64.61,0-5.35,0-10.29-4.5-10.36-9.57-.06-4.17,.07-8.34,.07-12.51,0-4.29-.06-8.59-.09-12.88-.01-1.97,0-3.95,0-5.92,0-21.87,0-43.74,0-65.62,0-4.47,0-8.94,0-13.42,0-5.68,4.78-10.22,10.85-10.23,18.12-.01,36.23,.02,54.35,.02,13.39,0,26.78-.02,40.17-.03,3.12,0,6.24,0,9.5,0,0-2.23,0-4.33,0-6.43,0-8.7,.01-17.39,0-26.09,0-4.19,3.45-7.57,7.93-7.58,8.8-.03,17.6,0,26.4,0,13.3,0,26.59,0,39.89,0,.98,0,1.96,0,2.95,0,4.51,.09,7.94,3.37,7.95,7.6,0,8.74,0,17.48,0,26.22,0,25.39,0,50.77,0,76.16,0,16.51,0,33.03,0,49.54,0,4.91-2.58,8.59-7.15,10.13-1.12,.38-2.37,.58-3.56,.58-25.28,.03-50.56,.02-75.84,.02-.6,0-1.21,0-1.95,0,.9,3.83,1.77,7.54,2.65,11.25,.42,1.75,.93,3.49,1.24,5.26,.16,.94,.62,1.09,1.49,1.08,4.07-.03,8.15-.02,12.22-.02,2.29,0,3,.68,3.01,2.84,0,2.11,0,4.22,0,6.32,0,2.28-.76,2.99-3.18,2.99-8.47,0-16.95,0-25.42,0-10.72,0-21.44,0-32.16,0-2.8,0-3.44-.61-3.43-3.26,0-1.98,0-3.95,0-5.93,0-2.42,.62-2.98,3.26-2.97,3.98,0,7.96-.02,11.94,.02,.89,0,1.28-.19,1.49-1.1,1.23-5.44,2.57-10.86,3.91-16.49Zm97.21-45.5c-.82,0-1.42,0-2.02,0-20.13,0-40.26,0-60.39,0-5.11,0-8.43-3.13-8.43-7.9,0-20.73,0-41.46,0-62.18,0-.55,0-1.1,0-1.72h-1.74c-11.79,0-23.59,0-35.38,0-18.82,0-37.64,.06-56.46-.05-3.9-.02-7.19,2.47-7.11,6.71,.18,9.96,.05,19.93,.05,29.9,0,20.55,0,41.1,.03,61.66,0,.94,.12,1.96,.51,2.81,1.34,2.92,4.03,3.62,7.14,3.62,41.9-.01,83.79,0,125.69,0,10.35,0,20.69-.04,31.04,0,4.65,.02,7.2-3.04,7.13-6.59-.16-8.25-.05-16.51-.06-24.77,0-.43,0-.87,0-1.47Zm4.54,.19c0,.73,0,1.42,0,2.12,0,7.99-.16,15.99,.05,23.98,.17,6.09-5.09,10.79-11.45,10.78-36.19-.09-72.38-.04-108.57-.05-16.53,0-33.05,.03-49.58-.03-6.6-.02-11.01-4.33-11.01-10.52,0-5.71,0-11.41,0-17.12,0-25.12-.02-50.24,0-75.37,0-3.22,1.43-5.79,4.1-7.84,2.33-1.78,4.98-2.22,7.86-2.22,30.43,.01,60.86,0,91.29,0,.59,0,1.19,0,1.85,0v-4.32c-1.02,0-1.99,0-2.96,0-27.53,0-55.06,.02-82.59,.03-6.08,0-12.16-.02-18.25,0-3.61,.01-6.54,2.62-6.54,5.77,0,3.64,.05,7.28,.06,10.92,0,24.72,0,49.45,0,74.17,0,8.21-.01,16.42,0,24.63,0,3.59,2.73,6.12,6.56,6.12,29.49,0,58.99,.02,88.48,.02,28.09,0,56.18,0,84.27,0,1.5,0,3-.01,4.49-.01,4.56,0,7.14-2.39,7.15-6.67,.01-11.38,0-22.75,0-34.13,0-.34-.03-.69-.05-.96-1.69,.22-3.33,.43-5.18,.67ZM119.39,62.47c0,18.09,0,36.19,0,54.28,0,2.45,1.29,3.73,3.8,3.74,22.61,0,45.22,.01,67.83,0,3.27,0,4.46-1.16,4.46-4.22,0-35.88,0-71.77,0-107.65,0-.31,.01-.62-.01-.92-.18-2.2-1.57-3.44-3.92-3.46-2.29-.02-4.59,0-6.88,0-20.23,0-40.45,0-60.68,0-3.39,0-4.61,1.1-4.61,4.22,0,18.01,0,36.01,0,54.02Zm-8.44,125.32c-1.34-5.7-2.62-11.22-3.97-16.71-.08-.33-.71-.77-1.09-.78-3.93-.06-7.86-.02-11.79-.05-.76,0-1.02,.24-1.18,.94-.7,3.22-1.49,6.42-2.24,9.62-.54,2.29-1.08,4.58-1.65,6.97h21.93Zm16.54,4.4h-54.93v3.44h54.93v-3.44Z"/>
  <path class="cls-1" d="M91.92,78.22c-3.98,0-7.95,.01-11.93,0-1.73,0-2.87-1.02-2.67-2.36,.19-1.21,1.02-1.9,2.3-1.91,6.04-.03,12.07-.01,18.11,0,1.03,0,1.8,.49,2.15,1.42,.39,1.05-.11,1.84-.89,2.57-5.57,5.2-11.12,10.43-16.68,15.64-7.28,6.83-14.56,13.65-21.85,20.47-.39,.37-.82,.75-1.32,.95-1.09,.45-2.07,.11-2.68-.8-.69-1.02-.46-1.99,.45-2.85,3.42-3.19,6.82-6.39,10.23-9.58,8.17-7.66,16.35-15.33,24.53-22.98,.12-.11,.35-.13,.52-.18l-.28-.38Z"/>
  <path class="cls-1" d="M74.14,121.76c4.26,0,8.28,.02,12.29,0,1.23,0,2.07,.43,2.44,1.56,.47,1.44-.64,2.67-2.49,2.68-4.49,.02-8.99,0-13.48,0-1.36,0-2.71-.02-4.07,0-1.09,.02-1.94-.35-2.38-1.29-.47-1.01-.08-1.86,.72-2.61,7.02-6.57,14.03-13.15,21.04-19.73,5.82-5.46,11.64-10.93,17.47-16.38,.42-.4,.87-.86,1.41-1.05,.98-.34,1.99-.21,2.64,.66,.67,.88,.67,1.85-.09,2.67-.82,.9-1.75,1.7-2.64,2.54-10.82,10.14-21.63,20.29-32.45,30.43-.09,.09-.16,.2-.42,.52Z"/>
  <path class="cls-1" d="M18.5,67.52c0-1.67-.02-3.34,0-5,.04-3.19,2.57-5.57,5.95-5.58,3.74-.01,7.49,.07,11.23-.03,1.9-.05,2.74,1.16,2.75,2.18,.01,1.25-1.07,2.05-2.7,2.06-3.46,.01-6.92,0-10.38,0-1.93,0-2.32,.37-2.32,2.13,0,3.2,0,6.41,0,9.61,0,1.55-.84,2.47-2.23,2.48-1.37,.01-2.26-.93-2.27-2.46-.02-1.8,0-3.6,0-5.4Z"/>
  <path class="cls-1" d="M121.61,62.22c0-13.74,0-27.49,0-41.23,0-5.96,4.17-9.87,10.55-9.88,16.85,0,33.7,0,50.55,0,6.32,0,10.54,3.97,10.54,9.93,0,27.45,0,54.89,0,82.34,0,4.28-1.72,7.61-5.97,9.46-1.14,.5-2.52,.72-3.8,.72-17.32,.05-34.64-.05-51.96,.08-4.88,.04-9.87-3.69-9.9-9.27-.07-12.3-.02-24.59-.02-36.89,0-1.76,0-3.51,0-5.27Zm4.51,.06h0c0,6.5,0,13,0,19.5,0,7.38-.01,14.76,0,22.14,0,3.34,2.25,5.45,5.75,5.45,17.13,0,34.27,0,51.4,.01,1.97,0,3.56-.69,4.41-2.28,.61-1.13,.99-2.49,1-3.75,.08-9.35,.04-18.71,.04-28.06,0-17.96,0-35.93,0-53.89,0-4.05-2.09-6.01-6.34-6.01-16.76,0-33.52,0-50.28,0-3.79,0-5.98,2.08-5.98,5.66,0,13.75,0,27.49,0,41.24Z"/>
  <path class="cls-1" d="M157.58,118.19c-2.05,0-4.11,0-6.16,0-1.15,0-2.06-.32-2.18-1.54-.09-.99,.81-1.67,2.19-1.68,4.01-.02,8.03-.02,12.04,0,1.33,0,2.09,.64,2.11,1.64,.01,1-.7,1.57-2.11,1.59-1.96,.03-3.92,0-5.88,0h0Z"/>
  <path class="cls-1" d="M180.05,23.97c-2.17,0-4.17,.02-6.17,0-1.47-.02-2.4-.83-2.41-2.03-.01-1.3,.9-2.15,2.43-2.16,2.76-.02,5.52-.02,8.28,0,1.56,.01,2.37,.81,2.38,2.31,.02,2.94,.01,5.88,0,8.82,0,1.44-.9,2.32-2.25,2.31-1.38-.01-2.24-.88-2.25-2.32-.02-2.23,0-4.47,0-6.93Z"/>
  <path class="cls-1" d="M160.23,59.72c.02,1.46-1.29,2.72-2.81,2.71-1.55,0-2.86-1.25-2.84-2.69,.02-1.43,1.23-2.57,2.74-2.59,1.62-.03,2.89,1.1,2.9,2.57Z"/>
  <path class="cls-1" d="M142.46,57.15c1.54,0,2.73,1.12,2.75,2.57,.02,1.49-1.23,2.71-2.78,2.72-1.56,0-2.83-1.19-2.84-2.68-.01-1.47,1.25-2.62,2.87-2.61Z"/>
  <path class="cls-1" d="M169.66,59.56c0-1.37,1.25-2.42,2.89-2.42,1.45,0,2.72,1.24,2.69,2.64-.03,1.48-1.31,2.68-2.85,2.66-1.6-.02-2.72-1.21-2.73-2.88Z"/>
</svg>