<?xml version="1.0" encoding="UTF-8"?>
<svg id="Layer_1" data-name="Layer 1" xmlns="http://www.w3.org/2000/svg" viewBox="0 0 200.01 250">
  <defs>
    <style>
      .cls-1 {
        fill: #fbb247;
      }
    </style>
  </defs>
  <path class="cls-1" d="M0,12.47c1.13-2.26,2.03-4.63,3.44-6.75C6.28,1.46,10.87,0,16.31,0c31.41,.02,62.83-.02,94.24,.04,10.24,.02,16.42,6.27,16.53,16.74,.14,14.32,.04,28.63,.04,42.95,0,15.44,.03,30.87-.04,46.32-.01,2.09,.83,5.49-2.44,5.52-3.77,.03-2.71-3.52-2.71-5.67-.08-28.77-.05-57.54-.07-86.31,0-2.1,.06-4.26-.47-6.28-1.2-4.62-4.51-8.12-10.43-7.91-4.94,.17-9.89,.15-14.83-.02-2.78-.1-3.58,.82-3.47,3.15,.17,3.63,.02,7.17-2.77,10.34-1.95,2.22-4.23,3.28-7.22,3.3-13.23,.04-26.47,.15-39.7-.02-6.38-.08-10.11-4.41-10.39-11.27-.15-3.63-2.3-5.45-6.47-5.45-2.87,0-5.76,.19-8.61-.03-7.76-.62-11.24,3.8-12.27,9.6-.22,1.23-.15,2.52-.15,3.78,0,70.74-.01,141.47,0,212.21,0,3.63,.23,7.12,3.07,10.28,2.04,2.28,4.37,3.11,7.32,3.12,32.05,.02,64.1-.06,96.16,.1,5.49,.02,10.21-5.07,10.2-10.57,0-6.87-.13-13.76,.13-20.62,.08-2.19-1.7-6.09,2.54-6.08,4.2,0,2.46,3.88,2.54,6.08,.24,6.45,.19,12.91,.05,19.37-.21,9.89-5.55,17.62-19.42,17.35-28.85-.57-57.72-.26-86.58-.13-11.45,.05-15.73,.05-21.08-12.51V12.47h0ZM63.16,5.42c-7.02,0-14.03-.02-21.05,.02-1.23,0-3.01-.52-3.57,.54-1.25,2.34-.95,5.01-.11,7.36,.68,1.88,2.08,3.45,5.14,3.41,12.75-.16,25.51-.14,38.27,0,2.31,.02,3.49-.94,4.5-2.33,1.87-2.56,1.65-5.59,.68-8.12-.7-1.81-3.71-.81-5.68-.84-6.06-.1-12.12-.04-18.18-.03Z"/>
  <path class="cls-1" d="M200,170.81c-.96,.47-1.91,1.36-2.88,1.37-3.17,.02-5.04,.72-5.89,3.9-.67,2.51-.8,4.22,.99,6.44,1.67,2.07,1.71,4.58-.57,6.92-3.36,3.45-6.35,7.17-9.51,10.77-2.56,2.91-4.97,2.95-7.93,.32-.75-.66-1.4-2.92-2.47-1.59-1.56,1.92-5.28,1.12-5.64,4.39-.72,6.55-.93,6.53-8.27,6.54-3.19,0-6.4-.19-9.56,.04-4.57,.33-6.79-1.71-6.37-5.32,.51-4.41-4.66-3.41-6.32-5.72-.38-.53-1.21,1.28-1.89,1.95-2.66,2.64-5.14,2.53-7.53-.11-3.22-3.56-6.1-7.37-9.56-10.73-2.85-2.77-2.14-5.35-.51-8.03,2.36-3.88,.18-8.71-4.49-9.4-2.19-.32-3.43-1.29-3.63-3.26-.66-6.57-.51-13.16-.09-19.74,.13-2.11,1.31-3.37,3.96-3.25,1.55,.07,3.67,.36,3.73-1.61,.07-2.53,4.01-4.72,.48-7.64-2.98-2.47-2.67-5.26,.18-8.08,3.43-3.41,6.43-7.14,9.65-10.72,2.08-2.31,4.49-2.52,6.94-.51,1.02,.83,1.55,3.31,3.29,1.65,1.71-1.62,5.21-1.26,5.51-4.44,.61-6.5,.78-6.48,8.13-6.49,3.19,0,6.4,.22,9.56-.05,4.56-.38,6.82,1.33,6.3,5.22-.57,4.2,3.99,3.96,6.05,5.82,1.01,.91,1.51-.83,2.19-1.51,2.65-2.64,5.65-2.54,8,.17,3.04,3.5,5.81,7.23,9.23,10.42,3.11,2.88,2.57,5.37,.43,8.19-2.52,3.31-.35,8.47,3.98,9.05,2.36,.32,3.47,1.61,4.52,3.16v21.88Zm-70.11-48.28c-3.09,1.94-4.57,4.8-7.04,6.95-2.08,1.81-3.58,3.71-.99,6.21,1.54,1.48,1.43,3.29,.71,5.14-1.03,2.63-2.01,5.27-2.9,7.95-.39,1.18-1.29,2.47-2.35,2.4-5.88-.42-4.5,3.2-4.56,6.02-.05,2.38,.07,4.77-.03,7.15-.08,1.89,.08,3.3,2.96,3.06,2.45-.21,3.63,.99,4.15,3.16,.52,2.17,1.59,4.23,2.51,6.32,1.16,2.62,1.63,5.15-.95,7.35-1.54,1.31-.92,2.48,.16,3.63,2.68,2.87,5.4,5.72,8.2,8.67,2.02-1.25,2.91-4.88,6.16-3.39,3.83,1.75,9.56,2.28,10.48,6.54,.81,3.73,2.32,4.56,6.04,4.18,2.05-.21,4.14-.02,6.21-.05,.93,0,2.28,.02,2.11-1.1-.66-4.53,3.17-5.53,6.57-7.39,6.06-3.32,6.18-3.55,10.82,.65,2.38-2.53,4.72-5.1,7.14-7.61,1.59-1.65,2.91-2.96,.61-5.25-2.05-2.04,.94-13.88,3.45-15.53,.37-.24,.87-.53,1.29-.51,4.91,.32,4.54-2.56,4.39-5.42-.12-2.38-.16-4.77,0-7.15,.16-2.2-.4-3.37-3.3-3.29-2.33,.07-3.66-1.27-4.2-3.33-.53-2.02-1.06-4.12-2.11-5.96-1.53-2.68-1.61-5.31,.64-7.37,1.84-1.68,.77-2.88-.16-3.93-2.63-3-5.53-5.82-8.53-8.92-1.99,4.08-4.94,4.47-8.59,2.38-3.9-2.23-9.82-3.07-8.25-9.17,.14-.56-.32-1.17-1.04-1.17-3.98-.04-7.96-.07-11.94,.03-.96,.02-1.16,.98-1.02,1.64,1.27,5.85-4.22,6.88-8.19,8.99-3.69,1.96-6.61,1.43-8.47-1.87v.02Z"/>
  <path class="cls-1" d="M46.64,85.66c5.89,0,11.79-.1,17.68,.03,4.01,.09,7.29,.27,9.06-4.25,2.55-6.49,14.38-6.22,16.77,.08,1.65,4.34,4.73,4.36,8.62,4.15,2.06-.11,4.14,0,6.21-.02,2.09-.02,3.35,.67,3.29,2.68-.06,2.06-1.47,2.58-3.49,2.52-1.11-.03-2.25,.12-3.34-.02-5.74-.79-9.66,.4-12.54,5.62-3.1,5.61-13.23,3.97-16.36-2.65-1.29-2.73-2.82-2.99-5.54-2.97-13.54,.08-27.08,.07-40.62,0-2.16,0-5.29,.94-5.39-2.45-.11-3.77,3.32-2.64,5.58-2.67,6.69-.12,13.38-.04,20.07-.04Zm35.78-3.47c-3.58-.02-6.68,3.02-6.28,6.26,.36,2.92,1.24,5.97,5.66,5.94,4.45-.04,5.32-3.05,5.38-6.05,.05-3-.69-5.92-4.76-6.15Z"/>
  <path class="cls-1" d="M70.84,121.98c-8.77,0-17.53,.02-26.3-.02-1.83,0-2.94,.18-3.87,2.02-3.04,5.97-7.16,7.84-12.79,6.37-4.76-1.25-8.38-6.99-7.56-12.22,1.22-7.8,7.52-11.9,14.1-9.76,3.18,1.03,4.83,3.3,5.75,5.66,.96,2.44,2.41,2.76,4.88,2.75,17.22-.07,34.43-.06,51.65,0,2.03,0,4.86-.78,4.99,2.38,.14,3.36-2.72,2.83-5.03,2.84-8.61,.02-17.22,0-25.82,0v-.02Zm-39.31,3.35c3.44-.03,5.6-2.38,5.56-6.07-.03-2.91-3.09-6.22-5.72-6.18-2.69,.04-5.52,3.3-5.49,6.32,.04,3.73,2.16,5.97,5.64,5.93h0Z"/>
  <path class="cls-1" d="M37.99,147.25c2.55,0,5.09-.05,7.64,0,4.22,.1,7.12-.03,10.1-4.3,4.58-6.57,11.52-6.36,16.66,1.49,1.42,2.17,2.73,2.97,5.41,2.84,3.81-.18,7.64,.03,11.45-.07,2.49-.07,3.47,1.32,3.66,3.02,.26,2.27-1.84,2.2-3.63,2.21-2.39,.02-4.79,.18-7.15-.03-5.01-.43-8.58,.21-10.94,5.13-2.39,5-12.87,4.37-15.75-.7-1.93-3.38-4.31-4.76-8.75-4.51-6.97,.39-13.99,.15-20.99,.07-1.89-.02-4.73,.72-4.65-2.13,.07-2.57,2.24-3.22,5-3.09,3.97,.18,7.95,.04,11.93,.04h0Zm25.61-2.58c-4.3,.21-5.64,2.61-5.49,5.7,.13,2.81,1.17,5.28,5.23,5.32,3.66,.04,5.63-2.02,5.57-5.87-.05-3.21-1.88-4.88-5.31-5.15Z"/>
  <path class="cls-1" d="M172.51,158.54c.21,9.12-3.93,15.73-12.11,20.36-5.07,2.87-15.42,.43-19.6-4.49-8.1-9.54-8.41-21.86,.63-30.71,8.76-8.57,20.27-6.98,27.87,3.71,2.45,3.43,3.64,7.44,3.21,11.13Zm-4.97,.17c.16-1.65-.14-3.75-1.09-5.67-1.93-3.92-4.47-7.48-9.78-8.22-4.37-.61-8.81-.37-11.89,2.82-6.51,6.74-6.79,15.71-.5,22.62,2.66,2.93,6.91,5.16,11.06,4.31,7.81-1.59,12.19-7.78,12.19-15.86h0Z"/>
</svg>