<?xml version="1.0" encoding="UTF-8"?>
<svg id="Layer_1" data-name="Layer 1" xmlns="http://www.w3.org/2000/svg" viewBox="0 0 230 200">
  <defs>
    <style>
      .cls-1 {
        fill: #fbb247;
      }
    </style>
  </defs>
  <path class="cls-1" d="M230,160c-.31,1.77-.61,3.54-.94,5.44h-9.38c-7.06-27.57-15.5-36.84-31.06-34.25-11.95,1.99-20.93,15.73-22.06,34.31h-11.95c-1.11,6.05-3.87,9.07-8.27,9.07-5.06,0-10.13,.25-15.18-.17-1.33-.11-2.58-2.27-3.86-3.49,1.26-1.46,2.47-4.05,3.81-4.17,5.42-.48,10.87-.2,16.54-.2,.08-2.36,.2-4.16,.2-5.96V38.42c0-8.38-1.56-10.55-7.68-10.56-13.41-.02-26.82,0-40.23,0h-4.61c.36-2.93,.66-5.26,1-8.1h20.54c8.07,0,16.15-.04,24.22,.01,8.58,.06,12.72,5.69,12.81,17.42,.07,8.33,.07,16.65,.13,24.98,0,.33,.23,.65,.76,2.03,5.98,0,12.39,.19,18.77-.07,4.35-.18,7.44,2.08,9.25,7.32,3.15,9.18,6.35,18.35,9.14,27.73,.83,2.79,1.6,3.98,3.82,4.5,3.88,.91,7.77,2.17,11.47,4.02,13.77,6.88,20.7,20.8,22.07,40.24,.15,2.18,.48,4.34,.72,6.51v5.56h0Zm-47.61-57c-2.56-6.93-4.53-12.94-6.92-18.62-4.06-9.63-5.07-10.08-13.28-8.07v26.69h20.21Z"/>
  <path class="cls-1" d="M43.54,0c12.88,11.37,26.53,19.66,42.79,19,.74,38.42-2.88,74.57-28.24,98.24-15.36,14.33-13.65,13.91-29.27,.36C12.96,103.85,5.68,82.27,2.47,57.97,1.25,48.74,.8,39.33,0,30v-12.22c3.39-.02,6.81,.29,10.17-.12,12.13-1.48,23.24-6.57,32.54-17.66h.83ZM5.26,26.1c1,11.77,1.4,24.01,3.19,35.86,3.8,25.09,13.51,44.52,31.31,55.45,2.61,1.6,4.8,1.53,7.35-.09,19.49-12.34,29.28-34.08,32.42-61.88,1.09-9.71,1.02-19.67,1.48-29.41-3.68-.38-6.29-.41-8.83-.97-9.31-2.05-17.73-7.25-25.69-13.89-2.22-1.86-3.69-1.91-6.12,.08-4.98,4.08-10.22,8.01-15.76,10.33-5.77,2.43-12.01,2.9-19.37,4.52h.01Z"/>
  <path class="cls-1" d="M94.46,200c-1.77-.87-3.59-1.59-5.3-2.62-9.41-5.68-14.27-19.51-11.71-33.05,2.51-13.22,11.82-22.02,22.22-21,10.13,1,17.99,11.95,19.06,26.6,.93,12.73-5.88,25.52-15.43,29.02-.77,.28-1.52,.7-2.28,1.05h-6.55Zm3.56-17.55c4.47-.11,7.99-5,7.9-11.01-.09-6.01-3.7-10.77-8.15-10.75-4.39,.03-8.16,5.01-8.16,10.8,0,6.2,3.74,11.06,8.43,10.95h-.01Z"/>
  <path class="cls-1" d="M213.78,167.62c-.02,15.58-9.3,28.01-20.9,28.02-11.63,0-21.07-12.77-21.08-28.54,0-15.23,9.6-28.06,21.05-28.11,11.64-.05,20.96,12.7,20.93,28.63h0Zm-20.82-11c-4.61-.04-8.1,4.46-8.15,10.52-.06,6.25,3.65,11.33,8.19,11.26,4.25-.07,8.17-5.37,8.11-11.02-.06-5.95-3.67-10.72-8.14-10.76Z"/>
  <path class="cls-1" d="M21.82,130.56c4.84,1.64,6.73,5.03,6.19,11.33-.44,5.11-.12,10.34-.08,15.52,.05,6.45,1.94,9.08,6.67,9.11,9.98,.06,19.96-.07,29.95,.12,1.44,.03,3.61,.88,4.13,2.26,1.13,2.96,.11,5.6-2.64,5.61-11.49,.07-22.98,.23-34.45-.14-5-.16-9.36-6.28-9.66-13.63-.39-9.9-.09-19.85-.09-30.18Z"/>
  <path class="cls-1" d="M64.1,36.69c-8.77,17.84-17.57,35.73-25.89,52.62-4.99-8.74-10.56-18.49-16.3-28.54,2.73-5.29,7.76-3.86,15.57,5.64,4.38-7.72,9.11-15.13,13.04-23.23,3.69-7.59,8.46-7.96,13.57-6.48h0Z"/>
</svg>