<?xml version="1.0" encoding="UTF-8"?>
<svg id="Layer_1" data-name="Layer 1" xmlns="http://www.w3.org/2000/svg" viewBox="0 0 200 250">
  <defs>
    <style>
      .cls-1 {
        fill: #fbb247;
      }
    </style>
  </defs>
  <path class="cls-1" d="M129.04,249.59c-1.16,.14-2.33,.39-3.49,.39-35.37,.02-70.75,.02-106.12,0-1.16,0-2.33-.27-3.49-.41-.86-1.73-1.92-1.71-3.13-.43-.68-.27-1.37-.54-2.05-.81-.46-1.02-1.22-1.29-2.18-1.07-.29-1.04-1.01-1.36-1.92-1.34-3.34-2.38-5.08-5.88-5.95-10.02,1.15-1.3,1.21-2.46-.36-3.43-.11-1.65-.33-3.29-.33-4.94C0,159.12,0,90.7,0,22.29c0-1.47,.18-2.93,.27-4.4,2.25-1.65,1.05-4.04,1.1-6.16-.04-.24,.02-.44,.18-.6,.84-.54,1.15-1.36,1.03-2.39C5.47,2.82,10.03,.01,16.11,.01c37.06,0,74.13-.04,111.19,.03,9.13,.02,15.38,5.74,16.8,14.93,.39,2.52,.36,5.53-2.6,5.23-2.47-.25-6.75,3.17-7.38-3.06-.48-4.77-3.69-5.68-7.34-5.69-11.96-.02-23.92,0-35.88,0-23.25,0-46.5,0-69.75,0-10.13,0-11.09,1.1-11.11,12.43-.1,56.98-.2,113.95-.35,170.93-.01,5.53-.33,11.05-.61,16.57-.16,3.21,.83,4.66,4.01,4.65,39.09-.08,78.17-.09,117.26,.01,3.59,0,3.81-2.2,3.58-4.97-.55-6.71,4.06-3.39,6.52-3.99,3.03-.73,4.48,.43,4.31,4.31-.33,7.36,.01,14.75-.26,22.12-.23,6.07-2.63,10.95-7.83,13.77-.49,.27-.98,.55-1.46,.82-.21,.17-.44,.23-.69,.2-1.88,.15-4.03-1.08-5.47,1.3Zm-56.57-22.49c-19.2,0-38.4,.12-57.59-.1-3.8-.04-4.63,1.45-4.26,5.12,.61,5.96,4.52,6.05,8.54,6.06,35.87,0,71.74,0,107.61,0,.84,0,1.69,.03,2.52-.09,4.47-.61,4.99-4.08,4.94-8.09-.06-4.69-3.3-2.81-5.18-2.82-18.86-.14-37.72-.08-56.58-.08Z"/>
  <path class="cls-1" d="M173.84,180.48c.17,.17,.22,.37,.14,.61-.31,1.08-.14,2.01,.67,2.77,1.18,9.17,.66,18.38,.41,27.57-.87,.32-1.39,.96-1.49,1.98-3.89,1.34-5.42,.08-5.13-4.64,.36-5.88,.12-11.8,.05-17.7-.1-8.14-3.15-14.78-9.44-19.07-5.55-3.78-11.54-6.8-17.27-10.27-2.14-1.3-2.97-.6-3.28,1.84-.58,4.56-1.27,9.1-1.88,13.65-.52,3.86-2.61,5.46-5.65,3.49-10.72-6.94-21.16-6.36-31.73,.36-3.29,2.09-4.57-.62-5.12-3.64-.98-5.41-1.82-10.86-2.85-17.11-7.21,4.89-15.21,7.43-21.69,13.09-4.72,4.12-7.28,9.53-7.21,16.3,.06,6.09-.07,12.18,.05,18.26,.06,3.13-.72,4.69-3.95,4.82-3.57,.14-3.18-2.26-3.18-4.64-.01-6.27-.1-12.54,0-18.81,.19-11.33,5.1-19.63,14.01-25.13,4.1-2.52,8.3-4.89,12.55-7.09,5.66-2.93,11.16-6.11,15.46-11.21,2.55-3.03,5.01-3.25,7.76-.42,1.1,1.13,2.35,2.09,3.54,3.12,6.43,5.6,9.54,5.26,14.94-1.51,1.17-1.46,1.26-2.82,.54-4.52-.77-1.82-1.99-1-3-.69-12.36,3.81-20.63-3.07-26.86-13.29-7.57-12.44-8.97-26.69-6.04-40.93,2.36-11.43,9.75-19.08,20.31-21.51,18.49-4.25,34.13,9.02,34.87,29.9,.52,14.78-2.27,28.18-11.88,39.18-1.39,1.59-1.25,3.17-.57,5.06,1.86,5.16,4.81,9.24,9.38,11.79,6.74,3.76,13.53,7.4,20.19,11.32,6.08,3.58,10.99,8.47,13.14,16-.11,.13-.32,.33-.3,.37,.14,.25,.34,.46,.52,.68ZM95.09,90.99c2.57-.44,4.21-1.84,5.52-3.48,2.83-3.53,5.29-3.85,8.21-.02,2.63,3.45,6.26,4.78,10.39,4.56,2.18-.12,4.38-.09,6.57,.04,2.1,.12,3.61,1.21,3.51,3.75-.09,2.24-1.02,3.94-3.37,3.96-4.7,.04-9.44,.61-14.01-1.23-2.1-.85-11.96-.71-14.03,.15-.47,.19-.97,.3-1.45,.47-1.45,.5-2.08,1.35-1.99,3.23,.46,9.82,2.66,18.92,8.83,26.4,2.69,3.27,5.87,5.71,10.02,6.34,6.97,1.07,11.73-3.03,15.67-8.37,7.46-10.1,9.15-21.8,7.36-34.4-1.6-11.27-9.49-19.16-19.99-19.63-10.26-.45-18.86,6.77-21.25,18.23Zm37.26,66.87c-.07-1.84,.09-3.99-1.55-4.99-1.63-.99-2.71,.88-3.9,1.79-1.52,1.16-2.96,2.44-4.43,3.67-6.23,5.19-6.08,4.96-12.45,.14-2.77-2.1-5.11-7.18-9.08-4.91-4.38,2.5-1.11,7.29-1.05,11.09,0,.37,.05,.74,.1,1.1,.9,6.82,.85,6.66,6.8,4.18,4.07-1.7,7.72-4.88,12.84-2.38,11.5,5.62,12.87,4.4,12.72-9.68Z"/>
  <path class="cls-1" d="M59.4,135.62c1.1-.93,1.93-1.33,2.34-2.02,5.13-8.79,13.19-7.33,20.85-7.16,2.17,.05,4.29,.87,4.09,3.73-.17,2.48-1.37,4.68-4.21,4.04-9.18-2.07-15.4,2.86-20.61,10.26-.31,.43-.67,.85-1.07,1.17-2.04,1.6-3.02,5.55-6.45,4.06-3.48-1.51-2.6-5.17-2.65-8.18-.12-7.07-.06-7.07-6.93-6.85-10.24,.33-14.12-3.78-14.12-14.99,0-13.83-.02-27.66,0-41.48,.02-9.11,3.31-12.91,11.5-12.97,13.14-.1,26.28-.05,39.42-.01,2.32,0,5.16-.36,5.08,3.54-.08,4.14-2.69,3.39-5.4,3.35-12.8-.21-25.6-.05-38.41-.12-3.73-.02-5.09,2.03-5.08,5.82,.03,14.38,.03,28.76,0,43.14,0,3.97,1.72,5.69,5.32,5.48,2.52-.15,5.05-.03,7.58-.03q7.72,.01,8.75,9.23Z"/>
  <path class="cls-1" d="M154.72,26.49c11.28,0,22.57-.02,33.85,0,8.21,.02,11.4,3.42,11.41,12.16,.02,15.11,.05,30.23-.02,45.34-.03,6.51-3.19,10.89-8.37,12.08-2.19,.51-4.18,.36-4.82-2.43-.54-2.37-.02-4.6,2.53-5.11,3.25-.65,3.78-2.93,3.76-6.02-.07-14.01-.12-28.02,.02-42.03,.04-4.5-1.52-6.19-5.67-6.16-22.23,.14-44.46,.13-66.69,0-3.97-.02-5.52,1.78-5.46,5.9,.06,4.24-.02,8.48,0,12.72,.01,2.26-.59,4.3-2.86,4.38-2.37,.08-3.61-1.76-3.62-4.32-.03-5.9-.23-11.81,.12-17.68,.31-5.34,4.62-8.79,10.47-8.82,11.79-.06,23.58-.02,35.37-.02Z"/>
  <path class="cls-1" d="M171.82,97.72c1.21-2.2,.57-4.04,.75-5.78,.2-1.89,.98-3.14,2.76-3.31,2.01-.19,3.36,1.05,3.43,3.13,.17,5.32,.36,10.67,0,15.96-.25,3.68-3.46,4.53-6.36,1.72-3.01-2.92-5.85-6.07-8.56-9.33-2.39-2.87-4.94-4.79-8.71-4.42-2.41,.24-4.57-.83-4.35-3.93,.21-3.06,2.77-1.69,4.31-2.38,8.3-3.73,11.87,3.74,16.72,8.34Z"/>
  <path class="cls-1" d="M61.49,88.42c-4.54,0-9.09-.12-13.63,.05-2.59,.1-3.6-.84-3.57-3.78,.03-2.82,.84-3.9,3.52-3.86,9.42,.14,18.84,.09,28.26,.04,2.13-.01,3.76,.41,3.49,3.27-.21,2.28-.71,4.32-3.44,4.29-4.88-.05-9.76-.01-14.64-.01Z"/>
  <path class="cls-1" d="M62.89,104.21c-4.7,0-9.4-.14-14.09,.05-2.73,.11-3.88-.66-3.85-3.94,.02-2.99,.6-4.14,3.57-4.07,9.22,.21,18.45,.15,27.68,.03,2.59-.04,3.93,.37,3.93,3.78,0,3.52-1.2,4.37-4.15,4.21-4.35-.23-8.72-.06-13.08-.06Z"/>
  <path class="cls-1" d="M146.77,202.78c0-1.84,.14-3.71-.03-5.53-.31-3.27,1.08-4.02,3.83-4.07,3.03-.05,3.7,1.35,3.55,4.32-.2,3.68-.18,7.38,0,11.06,.14,2.92-.47,4.21-3.54,4.27-3.29,.05-4.14-1.29-3.84-4.52,.17-1.83,.03-3.69,.03-5.53Z"/>
  <path class="cls-1" d="M83.4,202.38c0,2.03-.05,4.05,.01,6.08,.1,3.15-.9,4.45-4.11,4.43-3.8-.02-2.81-2.64-2.87-4.79-.08-2.95-.15-5.91,.02-8.84,.15-2.5-1.5-5.98,3.35-5.98,4.48,0,3.76,2.9,3.74,5.79,0,1.11,0,2.21,0,3.32-.05,0-.1,0-.15,0Z"/>
  <path class="cls-1" d="M168.9,65.12c-2.39,.31-3.67-.64-3.7-3.57-.03-2.77,1.42-4.17,3.5-4.17,1.93,0,3.78,.9,3.75,3.88-.03,2.74-.89,4.15-3.55,3.87Z"/>
  <path class="cls-1" d="M139.62,57.18c2.76-.07,4.25,.85,4.3,3.69,.04,2.42-.25,4.34-3.13,4.3-2.36-.03-3.79-.69-3.66-3.7,.1-2.28-.17-4.57,2.49-4.29Z"/>
  <path class="cls-1" d="M48.17,119.61c-2.65,.35-3.69-.88-3.85-3.64-.21-3.61,1.97-2.93,3.9-3.03,2.06-.11,3.56,.18,3.42,3.1-.13,2.67-.95,4.14-3.47,3.58Z"/>
  <path class="cls-1" d="M115.18,200.56c-2.83,.55-3.56-1.06-3.55-4.04,0-2.97,1.49-3.04,3.51-3.14,2.86-.14,3.83,1.21,3.75,4.23-.08,2.86-1.43,3.37-3.71,2.96Z"/>
  <path class="cls-1" d="M62.72,119.64c-2.07,.19-3.55-.12-3.67-3.06-.12-2.99,.95-3.93,3.5-3.65,1.75,.19,3.83-.57,3.71,2.77-.09,2.67-.88,4.25-3.55,3.93Z"/>
  <path class="cls-1" d="M154.14,57.7c2.16-.3,3.65,.19,3.59,3.06-.05,2.6-1.27,3.44-3.47,3.56-2.09,.11-3.04-.5-2.93-3.01,.1-2.2,0-4.2,2.81-3.62Z"/>
  <path class="cls-1" d="M1.38,11.73c-.05,2.12,1.15,4.51-1.1,6.16-.38-2.21-.03-4.27,1.1-6.16Z"/>
  <path class="cls-1" d="M128.7,237.44c1.42-2.15,3.55-1.04,5.41-1.17-1.62,1.23-3.47,1.41-5.41,1.17Z"/>
  <path class="cls-1" d="M1.52,221.99c1.54,.87,1.49,1.92,.35,3.09-.34-1.01-.84-1.99-.35-3.09Z"/>
  <path class="cls-1" d="M13.84,237.03c1.19-1.15,2.24-1.17,3.1,.39-1.11,.47-2.09-.03-3.1-.39Z"/>
  <path class="cls-1" d="M172.7,204.79c.1-.92,.62-1.49,1.48-1.78,.64,1.53-.53,1.57-1.48,1.78Z"/>
  <path class="cls-1" d="M2.58,8.74c.12,1.03-.19,1.85-1.03,2.39-.05-1,.22-1.84,1.03-2.39Z"/>
  <path class="cls-1" d="M173.77,178.12c-.8-.68-.97-1.52-.66-2.5,.76,.69,.79,1.57,.66,2.5Z"/>
  <path class="cls-1" d="M7.75,234.13c.9-.01,1.61,.28,1.9,1.22-.84-.08-1.51-.42-1.9-1.22Z"/>
  <path class="cls-1" d="M9.65,235.33c.95-.19,1.71,.05,2.16,.97-.85-.03-1.67-.13-2.16-.97Z"/>
  <path class="cls-1" d="M172.97,175.07c-.18-.2-.37-.39-.51-.62-.02-.03,.19-.22,.3-.33,.07,.32,.14,.63,.21,.95Z"/>
  <path class="cls-1" d="M134.79,236.09c.48-.25,.96-.5,1.45-.74-.48,.25-.96,.5-1.45,.74Z"/>
</svg>