<?xml version="1.0" encoding="UTF-8"?>
<svg id="Layer_1" data-name="Layer 1" xmlns="http://www.w3.org/2000/svg" viewBox="0 0 200 200">
  <defs>
    <style>
      .cls-1 {
        fill: #fbb247;
      }
    </style>
  </defs>
  <path class="cls-1" d="M69.55,112.17c2.38-.06,5.2-.33,7.96-1.05,1.54-.41,2.75-.04,3.9,1.16,3.44,3.58,6.97,7.07,10.5,10.56,.95,.94,1.36,1.89,1.14,3.28-.26,1.7-.27,3.45-.29,5.18-.01,1.11-.37,1.73-1.52,2.02-3.62,.91-7.21,1.88-10.81,2.88-1.16,.32-1.87-.07-2.49-1.06-1.33-2.13-2.78-4.17-4.11-6.3-.64-1.02-1.45-1.41-2.63-1.37-2.17,.06-4.35,.06-6.52,0-1.07-.03-1.78,.39-2.35,1.26-1.32,2.06-2.72,4.08-4.02,6.16-.77,1.24-1.76,1.6-3.12,1.22-3.38-.92-6.76-1.88-10.16-2.72-1.25-.31-1.75-.98-1.82-2.21-.13-2.4-.39-4.78-.47-7.18-.05-1.43-.54-2.4-1.85-3.08-1.83-.95-3.59-2.03-5.35-3.1-.9-.54-1.72-.58-2.67-.09-2.23,1.15-4.5,2.21-6.73,3.35-1.2,.61-2.16,.51-3.14-.51-2.4-2.49-4.86-4.92-7.33-7.34-1.03-1.01-1.18-2.01-.49-3.29,1.11-2.06,2.06-4.2,3.16-6.27,.61-1.15,.61-2.14-.11-3.27-1.08-1.69-2.02-3.47-2.99-5.23-.58-1.05-1.34-1.63-2.64-1.67-2.56-.08-5.11-.38-7.67-.53-1.2-.07-1.75-.63-2.04-1.78-.88-3.52-1.83-7.02-2.8-10.51-.32-1.13-.09-1.89,.93-2.54,2.12-1.34,4.16-2.8,6.27-4.15,1.06-.67,1.48-1.54,1.44-2.78-.07-2.06-.09-4.13-.02-6.19,.04-1.33-.49-2.19-1.59-2.88-1.98-1.25-3.87-2.64-5.86-3.87-1.18-.73-1.53-1.52-1.12-2.91,.96-3.26,1.82-6.56,2.59-9.87,.37-1.58,1.13-2.22,2.76-2.25,2.39-.04,4.78-.37,7.17-.48,1.14-.05,1.9-.48,2.39-1.49,.89-1.8,1.85-3.55,3.04-5.18,.9-1.24,.77-2.61,.07-3.96-1.08-2.08-2.09-4.19-3.18-6.26-.52-.99-.38-1.76,.42-2.54,2.62-2.58,5.23-5.18,7.8-7.82,.89-.92,1.73-.99,2.83-.41,2.17,1.14,4.4,2.17,6.57,3.3,1.16,.6,2.16,.55,3.27-.17,1.63-1.06,3.33-2.03,5.05-2.94,1.23-.65,1.76-1.56,1.81-2.93,.09-2.45,.33-4.9,.45-7.35,.06-1.25,.64-1.89,1.85-2.19,3.4-.84,6.8-1.71,10.17-2.68,1.35-.39,2.22-.07,2.96,1.1,1.27,2.03,2.66,3.99,3.94,6.01,.7,1.11,1.67,1.63,2.93,1.54,2.06-.14,4.12-.14,6.18-.02,1.15,.07,1.99-.43,2.63-1.43,1.31-2.08,2.74-4.07,4.04-6.16,.71-1.14,1.54-1.42,2.81-1.06,3.43,.97,6.88,1.87,10.33,2.75,1.2,.31,1.76,.98,1.81,2.23,.1,2.4,.33,4.79,.44,7.19,.06,1.36,.57,2.3,1.82,2.93,.99,.49,1.94,1.11,2.82,1.78,2.65,2.02,5.3,2.01,8.03,.17,1.11-.74,2.18-1.55,3.42-2.07,1.57-.66,2.99-.52,4.09,.8,2.07,2.49,4.42,4.72,6.67,7.03,1.11,1.14,1.23,2.3,.5,3.64-.86,1.56-1.68,3.15-2.59,4.68-1.18,1.99-1.21,3.85,.27,5.73,.75,.96,1.4,2.03,1.91,3.14,.87,1.91,2.35,2.72,4.35,2.82,2.11,.11,4.22,.3,6.34,.36,1.25,.03,1.89,.49,2.2,1.76,.85,3.52,1.8,7.02,2.78,10.51,.32,1.14,.1,1.92-.91,2.56-2.11,1.35-4.16,2.81-6.29,4.13-1.02,.63-1.46,1.43-1.44,2.61,.04,2.18,.04,4.35-.01,6.53-.03,1.12,.36,1.89,1.32,2.5,2.16,1.38,4.25,2.87,6.41,4.26,1,.65,1.24,1.43,.92,2.56-.98,3.49-1.92,6.99-2.82,10.5-.29,1.14-.8,1.72-2.05,1.73-1.78,.02-3.56,.17-5.33,.34-1.21,.12-2.12-.23-2.98-1.1-3.64-3.7-7.31-7.35-11.01-11-.93-.92-1.16-1.89-.88-3.18,2.3-10.64,1.15-20.81-3.95-30.52-8.04-15.32-24.75-24.66-41.97-23.33-20.96,1.62-37.56,17-40.43,37.93-3.3,24.02,13,45.78,36.76,49.58,2.59,.42,5.2,.64,8.29,.47Z"/>
  <path class="cls-1" d="M98.14,67.63c-.1,3.33-.33,6.62-1.49,9.75-.48,1.29-.21,2.21,.73,3.14,6.09,6.05,12.16,12.13,18.23,18.2,7.68,7.69,15.36,15.39,23.02,23.1,6.28,6.33,12.55,12.67,19.05,18.78,.86,.81,1.65,1.04,2.84,.68,24.13-7.24,40.74,11.91,39.4,30.88-.11,1.54-.39,2.98-2.13,3.63-1.71,.64-2.77-.34-3.8-1.37-4.73-4.73-9.47-9.45-14.14-14.25-1.57-1.61-3.21-2.17-5.41-1.5-3.19,.98-6.42,1.82-9.66,2.63-1.87,.47-2.96,1.49-3.42,3.42-.79,3.3-1.7,6.58-2.66,9.84-.58,1.97-.21,3.57,1.26,5.02,4.68,4.62,9.32,9.29,13.98,13.94,.39,.39,.78,.8,1.15,1.21,.86,.95,1.14,2.04,.65,3.25-.49,1.21-1.47,1.77-2.74,1.88-10.1,.85-18.74-2.35-25.49-9.9-7.48-8.36-9.27-18.18-6.32-28.89,.47-1.71,.12-2.82-1.08-4-10.24-10.03-20.46-20.07-30.64-30.16-5.03-4.98-9.95-10.08-14.93-15.11-2.88-2.91-5.78-5.8-8.66-8.7-1.72-1.73-3.49-3.41-5.15-5.19-1.12-1.21-2.25-1.46-3.87-.99-16.72,4.87-33.03-4.16-37.87-20.87-1.04-3.6-1.11-7.26-.88-10.95,.08-1.32,.7-2.33,2-2.83,1.48-.56,2.59,.1,3.59,1.1,4.73,4.74,9.5,9.44,14.14,14.25,1.75,1.81,3.53,2.43,5.97,1.64,3.02-.97,6.11-1.72,9.19-2.46,2.01-.48,3.15-1.6,3.63-3.64,.74-3.14,1.57-6.27,2.54-9.36,.7-2.23,.26-3.94-1.42-5.58-4.79-4.67-9.49-9.44-14.21-14.18-1-1-1.94-2.01-1.46-3.64,.53-1.79,1.92-2.18,3.49-2.29,5.51-.41,10.83,.46,15.74,2.97,10.8,5.51,16.67,14.25,16.81,26.56Z"/>
  <path class="cls-1" d="M170.61,185.23c-.71,.05-1.14-.36-1.58-.82-2.28-2.37-4.56-4.74-6.87-7.08-.62-.63-.78-1.25-.53-2.11,.95-3.2,1.87-6.42,2.74-9.64,.24-.88,.71-1.3,1.55-1.51,3.18-.79,6.37-1.6,9.54-2.43,1.03-.27,1.78-.05,2.52,.75,2.13,2.28,4.31,4.51,6.52,6.72,.75,.75,1.03,1.47,.71,2.53-.93,3.09-1.77,6.22-2.66,9.32-.16,.58-.24,1.27-.96,1.45-3.66,.95-7.32,1.88-10.98,2.82Zm2.85-7.42c2.52,0,4.44-1.9,4.47-4.41,.03-2.52-2.08-4.68-4.5-4.62-2.47,.05-4.58,2.22-4.53,4.66,.05,2.46,2.03,4.36,4.56,4.37Z"/>
</svg>