<?xml version="1.0" encoding="UTF-8"?>
<svg id="Layer_1" data-name="Layer 1" xmlns="http://www.w3.org/2000/svg" viewBox="0 0 200 200">
  <defs>
    <style>
      .cls-1 {
        fill: #fbb247;
      }
    </style>
  </defs>
  <path class="cls-1" d="M200,0c-.96,.88-1.87,1.82-2.9,2.65-52.3,42.2-104.61,84.39-156.91,126.58-.52,.42-1.06,.81-1.31,1-12.62-10.16-25.19-20.29-38.88-31.31,1.22-.64,3.14-1.33,4.54-2.45C43.15,65.42,81.71,34.33,120.26,3.24,121.55,2.21,122.73,1.08,123.96,0,149.31,0,174.65,0,200,0Z"/>
  <path class="cls-1" d="M123.96,200c-12.89-10.52-25.74-21.05-38.67-31.54-9.06-7.35-18.2-14.62-27.57-22.14,1.19-1.08,2.17-2.07,3.28-2.97,20-16.11,39.98-32.24,60.1-48.25,1.64-1.31,4.24-2.58,6.41-2.6,23.13-.19,46.25-.12,69.38-.1,.65,0,1.31,.12,2.35,.22-22.12,17.84-43.87,35.37-66.89,53.93,2.45,1.37,4.48,2.17,5.99,3.39,19.39,15.56,38.72,31.17,58.04,46.78,1.28,1.03,2.42,2.19,3.62,3.28H123.96Z"/>
</svg>