<?xml version="1.0" encoding="UTF-8"?>
<svg id="Layer_1" data-name="Layer 1" xmlns="http://www.w3.org/2000/svg" viewBox="0 0 200 200">
  <defs>
    <style>
      .cls-1 {
        fill: #fff;
      }
    </style>
  </defs>
  <path class="cls-1" d="M11.46,200c-.36-.13-.72-.28-1.09-.38-6.63-1.71-10.98-7.9-10.16-14.48,.84-6.74,6.29-11.73,13.17-11.75,19.91-.06,39.81-.03,59.72-.03,6.57,0,13.14,0,19.71,0h2.3c-.15-2.31-.27-4.37-.42-6.67h-2.61c-24.33,0-48.66-.11-72.99,.06-7.59,.05-12.72-3.31-15.84-9.86-4.43-9.32-4.37-18.79,.43-27.98,3.14-6.01,8.13-9.06,15.18-9.01,23.35,.14,46.71,.05,70.06,.05h2.58c-.16-2.25-.31-4.35-.48-6.66h-2.4c-24.53,0-49.05,0-73.58,0-4.13,0-5-.93-4.84-5.12,.65-16.67,12.21-30.81,28.05-34.13,2.46-.52,5.03-.65,7.55-.66,13.34-.06,26.67-.03,40.01-.03,.77,0,1.53,0,2.5,0-.46-6.74-.9-13.27-1.36-20.03-1.19,0-2.22,.05-3.24,0-2.42-.13-3.58-1.29-3.6-3.69-.04-4.17-.03-8.33,0-12.5,.02-2.59,1.22-3.8,3.86-3.83,4.42-.05,8.85-.01,13.27-.01,10.08,0,20.17,0,30.25,0,.77,0,1.54,0,2.57,0,0-.86,0-1.56,0-2.25,0-6.84-.02-13.67,0-20.51C130.11,4.45,134.29,.02,140,0c5.77-.02,10.02,4.47,10.03,10.64,.02,6.77,0,13.54,0,20.31,0,.7,0,1.41,0,2.34,.93,0,1.68,0,2.44,0,14.25,0,28.49,.03,42.74-.03,2.05,0,3.68,.48,4.78,2.28v15.63c-1.13,1.78-2.8,2.43-4.82,2.16-1.64-.22-2.1,.49-2.15,2.06-.22,6.57-.54,13.14-.84,19.71-.82,18.4-1.64,36.81-2.48,55.21-.99,21.72-2.01,43.44-2.95,65.16-.09,2-.63,3.53-2.38,4.54H11.46ZM186.5,53.48H93.66c.45,6.67,.89,13.19,1.33,19.6,.31,.15,.42,.24,.53,.26,.32,.04,.65,.05,.97,.08,14.47,1.2,24.66,8.45,30.46,21.74,.73,1.66,1.52,1.88,3.05,1.64,17.78-2.74,35.56-5.45,53.36-8.11,1.23-.18,1.65-.67,1.68-1.85,.06-2.73,.22-5.46,.34-8.19,.37-8.31,.74-16.62,1.12-25.17Zm-6.34,139.78c.98-21.57,1.95-42.92,2.94-64.48-14.85,2.25-29.39,4.45-43.99,6.66,.1,.55,.15,.8,.19,1.05,1.39,7.45,.88,14.66-2.86,21.4-3.22,5.79-7.97,9.05-14.87,8.85-5.98-.17-11.97-.04-17.95-.04h-2.23c.16,2.37,.31,4.47,.46,6.67,1.03,0,1.81,0,2.58,0,7.55,0,15.09-.1,22.63,.04,9.38,.18,15.45,9.6,11.93,18.31-.2,.49-.39,.99-.61,1.54h41.78Zm-57.04-86.69c-.03-.67-.02-1.19-.09-1.7-1.87-14.01-14.03-24.77-28.22-24.83-16.33-.07-32.66-.03-48.98-.01-9.08,0-16.53,3.61-22.35,10.52-3.86,4.58-5.99,9.92-6.48,16.02H123.12Zm-53.07,73.46c-10.02,0-20.04,0-30.05,0-8.85,0-17.69-.03-26.54,.02-3.61,.02-6.38,2.64-6.65,6.11-.27,3.42,2.18,6.53,5.65,7.09,.76,.12,1.56,.09,2.34,.09,36.88,0,73.77,0,110.65,0,.59,0,1.17,.02,1.76-.03,3.61-.32,6.21-3.22,6.13-6.83-.08-3.81-2.93-6.45-7.07-6.45-18.73-.02-37.47,0-56.2,0Zm28.16-60.06c.85,0,1.55,0,2.25,0,7.09,0,14.18,.1,21.26-.03,6.11-.11,10.66,2.49,13.84,7.54,.87,1.38,1.77,1.53,3.18,1.31,14.19-2.2,28.37-4.38,42.58-6.45,1.76-.26,2.2-.93,2.25-2.57,.17-5.66,.51-11.31,.72-16.96,.09-2.45,.02-4.9,.02-7.55-18.22,2.77-36.48,5.54-54.73,8.31,.17,1.95,.38,3.63,.46,5.32,.14,3.15-1.08,4.42-4.22,4.43-8.65,0-17.3,0-25.94,0-.68,0-1.36,0-2.15,0,.17,2.33,.32,4.33,.49,6.66Zm33.07,13.66c-1.97-5.03-4.77-6.99-9.78-6.99-34.09,0-68.18,.08-102.26-.08-5.24-.02-8.9,2.54-10.6,7.67,2.22,3.02,4.25,5.76,6.27,8.52,.54,.73,.99,1.54,1.57,2.23,1.87,2.22,4.09,2.29,5.94,.07,1.08-1.29,1.88-2.81,2.87-4.17,1.14-1.57,2.23-3.22,3.58-4.61,2.37-2.45,5.34-3.32,8.74-2.75,3.19,.54,5.37,2.5,7.15,5,1.36,1.91,2.52,3.95,3.9,5.84,2.26,3.1,4.62,3.1,6.92,.07,.59-.78,1.08-1.62,1.63-2.43,.91-1.35,1.73-2.76,2.74-4.03,4.89-6.23,12.13-6.26,16.99-.05,1.24,1.58,2.27,3.33,3.37,5.02,3.3,5.06,5.63,5.05,8.94,.05,1.54-2.32,3.03-4.74,4.95-6.74,3.83-3.99,9.91-3.95,13.81-.03,1.45,1.46,2.57,3.26,3.8,4.93,1.04,1.41,1.91,2.97,3.06,4.27,1.5,1.68,3.61,1.68,5.12,.01,1.04-1.15,1.99-2.43,2.7-3.81,1.89-3.69,4.64-6.39,8.61-7.99ZM7.2,143.24c-.25,5.24,.77,10.08,4.3,14.1,1.64,1.87,3.72,2.72,6.22,2.7,4.42-.04,8.84-.01,13.27-.01,30.31,0,60.61-.02,90.92,.02,2.86,0,5.26-.78,7.06-3.03,3.93-4.92,4.75-10.61,3.88-16.86-1.25,.91-2.35,1.93-3.25,3.1-1.77,2.32-3.19,4.95-5.17,7.05-3.92,4.15-10.12,4.06-14.09-.04-1.34-1.39-2.4-3.06-3.54-4.64-.95-1.32-1.73-2.76-2.77-4-1.85-2.22-4.05-2.17-5.93,.05-.71,.84-1.27,1.8-1.9,2.71-1.1,1.61-2.07,3.33-3.33,4.81-4.8,5.66-11.73,5.56-16.37-.23-1.38-1.72-2.51-3.64-3.72-5.48-3.09-4.71-5.54-4.73-8.6-.07-1.14,1.74-2.2,3.55-3.47,5.19-4.92,6.35-12.17,6.37-17.12,.06-.92-1.17-1.77-2.42-2.51-3.72-3.93-6.86-6.89-6.38-10.52-.06-.74,1.29-1.58,2.55-2.49,3.73-4.87,6.31-12.24,6.34-17.14,.05-1.35-1.73-2.51-3.63-3.75-5.45ZM86.88,46.55h106.34v-6.48H86.88v6.48Zm56.5-13.31v-1.51c0-6.96,0-13.93,0-20.89,0-2.58-1.3-4.17-3.34-4.17-2.06,0-3.3,1.55-3.3,4.18,0,6.9,0,13.8,0,20.7,0,.56,.07,1.12,.12,1.7h6.53Z"/>
  <path class="cls-1" d="M38.54,86.69c3.31,0,4.94,1.11,4.9,3.35-.03,2.22-1.67,3.3-4.99,3.3-.58,0-1.17,.03-1.75-.02-1.96-.18-3.33-1.66-3.24-3.46,.08-1.75,1.44-3.04,3.33-3.16,.58-.03,1.17,0,1.75,0Z"/>
  <path class="cls-1" d="M85.16,93.27c-.78,0-1.57,.11-2.33-.02-1.72-.3-2.82-1.79-2.7-3.51,.11-1.64,1.3-2.88,3-3.02,1.1-.09,2.2-.06,3.31-.03,2.2,.06,3.55,1.31,3.57,3.26,.02,1.95-1.33,3.26-3.49,3.38-.45,.02-.91,0-1.36,0,0-.02,0-.04,0-.07Z"/>
  <path class="cls-1" d="M108.53,93.35c.45,0,.91-.02,1.36,0,2.05,.1,3.4,1.35,3.46,3.2,.06,1.93-1.32,3.33-3.44,3.43-1.04,.05-2.08,.05-3.11,0-2.03-.11-3.35-1.44-3.35-3.31,0-1.87,1.31-3.2,3.33-3.32,.58-.03,1.17,0,1.75,0Z"/>
  <path class="cls-1" d="M61.79,99.98c-.65,0-1.3,.06-1.95-.01-1.83-.2-3.14-1.68-3.07-3.42,.06-1.67,1.35-3.04,3.11-3.18,1.1-.08,2.21-.06,3.31-.02,2.11,.07,3.58,1.46,3.57,3.33-.01,1.87-1.48,3.22-3.6,3.31-.45,.02-.91,0-1.36,0,0,0,0-.01,0-.02Z"/>
</svg>