<?xml version="1.0" encoding="UTF-8"?>
<svg id="Layer_1" data-name="Layer 1" xmlns="http://www.w3.org/2000/svg" viewBox="0 0 200 200">
  <defs>
    <style>
      .cls-1 {
        fill: #fff;
      }
    </style>
  </defs>
  <path class="cls-1" d="M91.06,0c3.41,.79,6.93,1.32,10.22,2.42,15.04,5.04,25.27,18.06,25.92,32.78,.24,5.42,.14,10.82-1.71,16.04-2.3,6.46-6.78,11.52-12.37,15.8-2.61,2-5.23,4.09-8.19,5.57-2.68,1.34-3.49,2.99-3.17,5.59,.21,1.73,.04,3.49,.04,5.34,4.5,.71,8.84,1.23,13.09,2.11,2.88,.6,5.63,1.74,8.45,2.58,2.65,.79,4.36,2.18,3.88,5.17,3.58,0,6.97,0,10.36,0,3.83,0,7.66,.01,11.5,0,5.11-.02,7.86-2.29,8.26-7.07,.56-6.62,.97-13.25,1.44-19.88,.14-2.01,.29-4.02,.45-6.21h-6.48c0,1.71,.01,3.51,0,5.3-.03,3.31-1.28,4.46-4.87,4.47-4.19,.01-8.37,.02-12.56,0-3.01-.02-4.35-1.15-4.38-3.88-.06-6.32-.06-12.64,0-18.95,.03-2.61,1.4-3.77,4.26-3.79,4.4-.04,8.8-.04,13.2,0,2.9,.02,4.25,1.27,4.33,3.98,.06,1.93,.01,3.87,.01,5.91h6.91c.12-1.11,.24-2.13,.33-3.16,.17-1.97,1.29-3.26,3.44-3.33,3.75-.13,7.52-.13,11.27,.03,1.07,.05,2.11,.83,3.27,1.33-.09,.08,.07,0,.08-.08,.53-4.13,1.22-4.69,5.77-4.69,3.9,0,7.81-.02,11.71,0,3.04,.02,4.43,1.24,4.45,4.06,.05,6.19,.06,12.38,0,18.56-.03,2.81-1.42,3.98-4.5,4-4.19,.02-8.38,.11-12.56-.05-1.55-.06-3.06-.73-4.78-1.17v1.47c0,10.03,0,20.06,0,30.09,0,8.54-4.19,13.23-13.36,15.03-11.92,2.34-23.83,4.69-35.76,7.02-1.14,.22-1.74,.57-1.98,1.79-.69,3.56-2.97,6.08-6.54,7.68-.72,.32-1.4,1.08-1.68,1.77-3.81,9.45-3.87,18.98-.25,28.47,.73,1.91,1.82,3.82,3.18,5.4,7.73,8.95,12.1,19.04,12.72,30.46,.03,.64,0,1.28,0,2.03h-6.63c-.98-4.52-1.66-8.96-2.93-13.26-1.75-5.92-5.25-11.07-9.54-15.74-.43-.47-1.27-.9-1.92-.9-14.48-.05-28.95-.03-43.43-.02-.2,0-.4,.08-.9,.18v9.67c0,6.56-.32,6.86-7.39,6.86-3.19,0-6.39,.01-9.58,0-2.7-.01-3.47-.43-5.14-3.08-.89,3-1.81,5.54-2.37,8.15-.56,2.6-.76,5.27-1.14,8.08h-6.96c-.13-8.13,2.21-15.72,6.06-23.12H21.88c0,1.97,.03,3.84,0,5.7-.07,3.06-1.37,4.24-4.7,4.26-4.19,.02-8.37,.03-12.56,0-3.17-.02-4.56-1.26-4.58-4.18-.05-6.12-.05-12.25,0-18.37,.02-2.92,1.36-4.09,4.6-4.12,4.26-.03,8.52-.04,12.77,0,3.12,.03,4.37,1.17,4.46,4.03,.06,1.88,.01,3.76,.01,5.77h6.56c-.75-4.02-1.72-8.06-2.22-12.14-2.35-19.17,.75-37.39,11.79-54.09,2.16-3.27,4.86-6.24,7.26-9.38,.88-1.15,1.48-2.48,2.4-3.6,.65-.79,1.49-1.61,2.45-2,5.26-2.11,10.61-3.92,16.49-4.06,2-.05,3.98-.77,6.14-1.21,0-2.73,.19-5.47-.11-8.17-.09-.86-1.46-1.6-2.32-2.48-5.04,4.29-10.3,7.53-16.22,9.88-6.6,2.61-13.51,3.87-20.67,4.02-2.89,.06-4.24-1.29-4.25-4.2-.03-8.21-.02-16.41,0-24.62,.01-8.6-.19-17.2,.12-25.79,.56-15.34,15.55-26.92,32.15-25.16,.97,.1,2.19-.03,2.98-.5,5.49-3.31,11.44-5.42,17.97-6.12C82.73,.26,83.06,.1,83.39,0c2.56,0,5.11,0,7.67,0ZM54.6,37.15c-.26,7.58,.71,14.71,6.61,20.16,4.21,3.89,8.87,7.5,13.83,10.55,6.91,4.24,14.66,4.59,22.07,1.2,4.25-1.95,8.08-4.79,11.81-7.57,6.69-4.98,10.63-11.39,10.99-19.47,.05-1.09-.11-1.74-1.31-2.27-6.62-2.96-13.18-6.04-19.79-9.01-.75-.34-1.77-.42-2.6-.29-7.75,1.19-15.5,2.44-23.24,3.69-6.06,.98-12.12,1.99-18.37,3.01Zm7.22,54.79c-2.04,.59-3.75,1.13-5.5,1.56-1.38,.34-1.83,1.02-1.82,2.37,.08,8.4,.04,16.79,.04,25.19,0,3.08,.98,4.34,4.21,5.19,1.01,.27,2.09,.41,3.15,.41,16.95,.02,33.9,.04,50.85-.03,1.57,0,3.33-.34,4.66-1.06,1.12-.61,2.44-1.98,2.46-3.03,.19-9.11,.13-18.23,.08-27.34,0-.46-.42-1.17-.83-1.32-2.01-.72-4.08-1.29-6.07-1.89-.19,.33-.25,.39-.25,.45-.02,1.89-.03,3.77-.06,5.66-.04,2.71-.95,3.75-3.82,4.33-6.43,1.29-12.86,2.62-19.32,3.8-1.48,.27-3.12,.28-4.6,0-6.46-1.19-12.88-2.51-19.32-3.8-2.92-.58-3.8-1.55-3.86-4.29-.04-1.94,0-3.88,0-6.2Zm1.49,41.49c2.71,8.98,2.64,17.76,.04,26.6,2.28,.1,4.55-.05,5.33,2.08,.47,1.28,1.22,1.3,2.33,1.3,12.76-.02,25.53-.01,38.29-.01,.56,0,1.12-.05,1.94-.09-3.41-9.97-3.51-19.88-.13-29.88H63.31Zm-7.83-103.4c.51,0,.86,.05,1.19,0,13.04-2.11,26.09-4.19,39.12-6.37,2.08-.35,3.85-.09,5.71,.79,5.91,2.79,11.88,5.47,17.9,8.23-.59-10.14-10.82-24.32-29.5-25.93-15.81-1.36-31.55,9.13-34.42,23.29Zm8.62,38.99c-9.5-6.63-15.78-14.72-16.64-25.93-.82-10.69,1.06-20.57,8.23-29.42-1.59,.15-3.06,.33-4.42,.79-9.47,3.2-14.77,10.13-14.81,19.58-.07,14.64-.02,29.29-.01,43.93,0,.57,.08,1.13,.14,1.88,10.51-.82,19.52-4.39,27.52-10.83Zm63.25,31.03v15.75c.67-.08,1.24-.11,1.79-.22,11.57-2.28,23.13-4.57,34.7-6.86,4.96-.98,6.99-3.24,6.99-7.87,.01-15.11,0-30.22,0-45.33,0-.68-.07-1.37-.1-2.01-3.73-.31-3.7-.31-3.92,2.83-.71,10-1.46,20.01-2.16,30.01-.32,4.58-2.05,8.47-6.26,11.22-2.77,1.81-5.88,2.49-9.22,2.48-7.22-.01-14.44,0-21.8,0Zm-80.13,3.18c-6.13,7.56-10.04,15.92-12.37,24.93-2.34,9.03-2.56,18.19-1.56,27.36,.48,4.36,1.75,8.65,2.79,12.95,.15,.61,.98,1.45,1.59,1.52,1.71,.21,3.46,.07,5.22,.07-1.65-13.19-.8-26,1.79-38.73,.6-2.92,2.26-5.73,2.43-8.65,.38-6.47,.12-12.97,.12-19.46Zm47.29-26.03c-2.58,.22-4.9,.57-7.21,.57-2.38,0-4.76-.36-7.3-.57,0,2.11,0,4.25,0,6.38,0,5.99-.26,6.24-6.7,6.68-4.25,.29-4.19,.29-4.24,4.22-.01,1.34,.34,1.92,1.89,2.19,4.93,.87,9.82,1.96,14.74,2.88,1.01,.19,2.13,.19,3.14,0,4.23-.78,8.44-1.66,12.66-2.51,4.24-.85,4.29-.86,3.93-4.84-.05-.54-.79-1.33-1.36-1.46-1.71-.37-3.49-.47-5.24-.67-3.25-.37-4.28-1.41-4.31-4.44-.02-2.79,0-5.58,0-8.44Zm-42.37,53.75c-2.04,9.75-3.01,19.42-2.76,29.16,1.65,0,3.13-.09,4.59,.03,1.36,.11,1.82-.48,2.16-1.56,2.56-8.16,2.47-16.27-.22-24.41-.6-1.8-1.72-2.7-3.77-3.22ZM145.29,63.25v-13.12h-6.99v13.12h6.99Zm40.28-13.12v13.12h6.99v-13.12h-6.99ZM54.74,166.87v13.13h6.89v-13.13h-6.89Zm-47.3,13.03h7.04v-12.96H7.43v12.96Z"/>
</svg>