<?xml version="1.0" encoding="UTF-8"?>
<svg id="Layer_1" data-name="Layer 1" xmlns="http://www.w3.org/2000/svg" viewBox="0 0 200 200">
  <defs>
    <style>
      .cls-1 {
        fill: #fff;
      }
    </style>
  </defs>
  <path class="cls-1" d="M0,18.73c0-1.3,0-2.6,0-3.91,.12-.5,.27-.99,.37-1.49C2.32,3.96,11.98-2.01,20.95,.62c12.89,3.78,16.56,19.03,6.78,28.34-.84,.8-.87,1.37-.41,2.32,2.61,5.38,5.16,10.79,7.74,16.19,.27,.57,.58,1.13,.8,1.56,21.38-6.1,37.76,.39,49.73,18.9,12.04-5.1,24.17-10.24,36.46-15.45-2.48-7.72-2.68-15.4-.5-23.11-3.72-1.37-7.18-2.65-10.68-3.94-.27,.34-.48,.58-.67,.84-7.01,9.24-19.58,9.41-26.79,.35-4.05-5.09-4.43-12.45-.96-18.53C85.55,2.68,92.33-.68,98.49,.16c9.12,1.23,15.12,8.38,14.8,17.56-.02,.56,.18,1.49,.53,1.63,3.29,1.31,6.64,2.49,9.93,3.7C134.83,1.55,157.47-4.34,175.43,3.06c18.07,7.45,28.06,27.58,23.45,46.61-4.3,17.71-23.84,35.28-49.29,29.03-5.38,14.93-10.77,29.88-16.23,45.02,5.94,2.78,10.81,6.71,14.88,11.79,6.09-3.95,12.08-7.84,18.08-11.73,.27-.18,.7-.3,.79-.54,.22-.59,.53-1.32,.36-1.86-3.05-9.81,3.9-20.1,14.09-21.24,6.29-.7,13,2.56,16.14,8.13,3.43,6.09,2.97,13.38-1.16,18.49-6.16,7.63-16.21,8.71-23.89,2.5-.85-.69-1.43-.84-2.35-.16-1.57,1.15-3.25,2.16-4.89,3.22-4.46,2.9-8.93,5.8-13.45,8.74,.4,.89,.74,1.65,1.09,2.41,9.67,20.9-.73,46.04-22.39,53.91-3.2,1.16-6.61,1.76-9.93,2.62h-7.81c-.36-.12-.72-.29-1.09-.34-10.77-1.39-19.67-6.27-26.3-14.83-2.82-3.65-4.87-7.9-7.44-12.16,.28,0,.01-.05-.23,0-4.49,1.05-9,2.06-13.46,3.23-.51,.13-1.04,1.16-1.11,1.82-.96,9.98-9.14,16.58-19.07,15.32-10.7-1.35-17.38-13.44-12.72-23.16,2.91-6.07,7.78-9.51,14.58-9.78,6.56-.26,11.52,2.67,14.89,8.24,.64,1.05,1.19,1.24,2.33,.93,2.57-.71,5.18-1.23,7.78-1.85,2-.48,3.98-.99,6.05-1.5-.84-6.17-.4-12.03,1.37-17.77,1.79-5.79,4.9-10.84,8.9-15.41-4.44-4.87-8.72-9.58-13.05-14.34-12.74,9.07-26.3,10.62-40.8,4.75-1.82,3.26-3.54,6.45-5.39,9.58-.63,1.06-.4,1.7,.38,2.53,.93,.99,1.76,2.09,2.47,3.24,4.4,7.16,2.27,16.65-4.84,21.81-6.58,4.76-16.53,3.58-21.84-2.49-2.39-2.73-3.62-5.92-4.35-9.39,0-1.17,0-2.34,0-3.52,.11-.42,.25-.84,.34-1.27,1.07-5.22,3.91-9.12,8.6-11.65,4.03-2.17,8.27-2.44,12.74-1.18,2.04-3.68,4.04-7.28,6.03-10.87-23.49-15.78-24.1-52.53,2.12-67.96-3.05-6.4-6.1-12.82-9.12-19.14-7.23,1.26-13.14-.61-17.31-6.38C1.79,24.23,1.1,21.33,0,18.73ZM127.09,121.42c5.48-15.2,10.87-30.14,16.28-45.13-8.26-3.93-14.39-9.84-18.68-17.57-.38,.11-.57,.14-.74,.22-11.55,4.89-23.08,9.8-34.65,14.63-1.34,.56-1.1,1.26-.83,2.27,2.93,10.82,1.71,21.14-3.95,30.84-1.49,2.55-3.36,4.88-5.1,7.38,4.3,4.72,8.62,9.46,12.96,14.22,10.59-7.7,22.05-10.01,34.72-6.85Zm14.71,60.29c12.38-13.75,10.4-35.85-3.99-47.48-15.02-12.14-36.54-9.36-48.03,6.2-10.6,14.36-6.55,33.08,1.54,40.61,1.81-2.47,3.39-5.22,5.56-7.38,2.2-2.2,4.99-3.81,7.51-5.67-7.08-8.2-4.76-18.23,.87-23.41,6.56-6.04,16.01-6.06,22.67-.09,5.47,4.9,8.27,15.03,.7,23.83,6.11,2.69,10.51,7.09,13.18,13.41Zm43.36-120.17c10.71-11.55,11.8-32.2-1.96-45.44-13.9-13.39-35.44-12.49-48.22,2-12.41,14.06-9.49,33.76,0,43.37,2.6-6.13,7.01-10.48,13.07-13.17-7.33-8.62-4.91-18.33,.33-23.48,5.73-5.64,15.02-6.37,21.31-1.72,3.42,2.54,5.72,5.85,6.6,10.04,1.21,5.72-.43,10.73-4.3,15.17,6.28,2.72,10.56,7.15,13.19,13.24Zm-110.08,46.74c10.67-11.37,11.89-32.13-1.81-45.44-13.91-13.5-35.66-12.57-48.5,2.13-12.2,13.97-9.27,33.7,.14,43.13,2.56-6.11,6.93-10.44,12.98-13.1-7.72-9.4-4.32-19.02,.47-23.59,5.79-5.53,14.65-6.27,21.01-1.78,3.42,2.42,5.73,5.65,6.7,9.75,1.38,5.85-.19,11.01-4.16,15.6,6.3,2.76,10.58,7.19,13.17,13.3Zm-5.57,5.16c-2.03-7.68-7.15-12.55-14.42-13.24-3.66-.35-7.46-.4-11.09,.14-6.78,1.01-11.12,5.19-13.28,11.69-.34,1.03-.21,1.6,.71,2.26,10.95,7.82,27.36,7.51,38.07-.85Zm46.93,59.98c-1.31,0-2.81-.07-4.3,.01-6.65,.36-12.73,5.25-14.65,11.62-.41,1.37-.12,2.07,1.05,2.85,11.05,7.32,25.93,7.21,36.71-.42,.44-.31,.76-1.31,.62-1.86-.9-3.58-2.92-6.47-5.81-8.76-3.97-3.16-8.58-3.82-13.63-3.44Zm43.75-119.95c-1.69,0-3.38-.09-5.07,.02-6.51,.41-12.69,5.63-14.36,11.97-.27,1.04-.06,1.61,.85,2.24,10.69,7.42,26.4,7.39,36.95-.07,.84-.59,1.04-1.12,.77-2.07-1.04-3.63-3.08-6.55-6.04-8.86-3.88-3.02-8.38-3.62-13.1-3.24Zm-63.51-26.88c5.48,0,9.95-4.42,9.99-9.89,.04-5.44-4.42-9.98-9.86-10.06-5.49-.08-10.09,4.5-10.07,10.03,.01,5.48,4.46,9.91,9.95,9.92Zm73.32,10.01c-.02-5.46-4.5-9.95-9.94-9.96-5.41-.01-9.96,4.52-9.99,9.95-.04,5.53,4.53,10.06,10.08,10,5.52-.06,9.88-4.48,9.86-9.99ZM16.7,136.7c-5.46-.01-9.97,4.43-10.03,9.88-.06,5.49,4.55,10.09,10.06,10.06,5.47-.04,9.9-4.51,9.89-9.99,0-5.49-4.44-9.93-9.92-9.95Zm20.01,39.98c0,5.44,4.5,9.96,9.92,10,5.4,.03,9.97-4.49,10.02-9.92,.05-5.55-4.47-10.06-10.04-10.03-5.5,.03-9.91,4.46-9.9,9.96ZM26.62,16.63c0-5.45-4.48-9.95-9.93-9.98-5.4-.02-9.98,4.5-10.03,9.92-.05,5.5,4.52,10.06,10.07,10.03,5.49-.03,9.89-4.47,9.88-9.97ZM183.36,126.61c5.46,0,9.96-4.44,10.01-9.89,.05-5.4-4.46-9.98-9.88-10.06-5.5-.08-10.08,4.49-10.06,10.03,.02,5.49,4.44,9.91,9.94,9.92Zm-66.75,20.09c-5.48,0-9.94,4.46-9.96,9.93-.02,5.46,4.4,9.95,9.88,10.03,5.48,.09,10.08-4.52,10.06-10.05-.03-5.47-4.51-9.92-9.98-9.91Zm-56.72-63.42c-.03-5.51-4.44-9.9-9.94-9.91-5.46,0-9.96,4.45-10.01,9.9-.06,5.43,4.65,10.11,10.1,10.05,5.46-.06,9.89-4.57,9.86-10.04Z"/>
</svg>