<?xml version="1.0" encoding="UTF-8"?>
<svg id="Layer_1" data-name="Layer 1" xmlns="http://www.w3.org/2000/svg" viewBox="0 0 200 200">
  <defs>
    <style>
      .cls-1 {
        fill: #fff;
      }
    </style>
  </defs>
  <path class="cls-1" d="M106.31,0c3.52,.5,7.07,.83,10.55,1.52,38.51,7.66,65.21,29.4,77.84,66.03,18.87,54.73-14.46,112.96-71.59,126.44-18.85,4.45-37.53,3.39-55.88-2.84-1.28-.44-2.31-.39-3.55,.16-9.64,4.24-19.56,7.55-30.16,8.48-6.14,.54-12.19,.14-17.91-2.29-9.93-4.23-14.41-12.21-15.27-22.4-.95-11.23,2.01-21.81,6.11-32.12,7.42-18.64,18.41-35.22,30.83-50.94,2.84-3.59,5.81-7.09,8.86-10.8,1.75,1.46,3.38,2.83,5.18,4.32-1.86,2.23-3.66,4.36-5.43,6.52-12.71,15.58-23.97,32.06-31.9,50.56-3.82,8.9-6.88,18.04-7.01,27.84-.04,2.65,.14,5.36,.72,7.94,1.89,8.47,7.86,13.49,16.71,14.57,8.21,1,16.05-.64,23.81-2.98,2.77-.83,5.47-1.86,8.68-2.95-8.58-4.15-16.12-8.98-22.93-14.86-6.84-5.92-12.79-12.59-17.85-20.31,1.86-1.2,3.65-2.36,5.56-3.59,15.7,22.62,37.16,36.41,64.59,40.64,20.51,3.16,40.07-.34,58.32-10.1,37.24-19.92,50.68-58.44,48.23-85.43-4,0-8.02-.1-12.03,.04-2.35,.08-3.79-.82-4.92-2.82-3.55-6.31-7.27-12.54-10.85-18.84-.69-1.22-1.44-1.76-2.92-1.73-4.36,.11-8.73-.03-13.1,.1-.81,.02-1.86,.6-2.35,1.25-1.66,2.18-3.14,4.5-4.66,6.79-.87,1.31-2.04,1.93-3.65,1.91-4.17-.04-8.34,0-12.51-.02-2.62-.02-3.89-1.24-3.91-3.87-.04-7.35-.04-14.71,0-22.06,.01-2.81,1.28-4.05,4.15-4.06,5.56-.04,11.12,.03,16.67-.06,.87-.01,1.93-.44,2.56-1.03,3.67-3.47,7.16-7.14,10.9-10.54,1-.91,2.61-1.49,4-1.61,2.74-.25,5.51-.07,8.88-.07-15.82-16.55-34.66-26.15-56.87-29.38-.17,.2-.31,.29-.32,.39q-.46,5.06-5.63,6.32c-2.76,.67-5.53,1.29-8.26,2.04-1.12,.31-2.23,.81-3.21,1.41-2.46,1.52-4.91,3.08-7.26,4.76-1.77,1.26-3.39,1.34-5.33,.35-5.51-2.81-11.08-5.52-16.67-8.19-.73-.35-1.85-.53-2.54-.23-19.02,8.23-33.73,21.2-44.05,38.96-.09,.16-.15,.35-.11,.26,2.46,3.98,4.82,7.81,7.17,11.64,1.23,2,2.46,4.01,3.67,6.03,1.3,2.18,1.14,3.37-.7,5.2-2.42,2.41-4.82,4.83-7.32,7.16-1,.93-1.37,1.92-1.34,3.25,.09,3.12,.06,6.25,.02,9.37-.04,2.79-1.19,3.9-4,3.92-3.1,.02-6.19,0-9.5,0,.09,8.81,1.56,17.21,4.17,25.66-2.07,.66-4.12,1.31-6.59,2.09-.98-4.16-2.15-8.13-2.84-12.19-4.89-28.98,1.8-55.23,20.19-78.31C37.85,17.06,59.2,5.22,84.99,1.14c2.86-.45,5.74-.76,8.61-1.14,4.24,0,8.47,0,12.71,0Zm22.47,73.43c2.2,0,4.31-.08,6.4,.03,1.33,.07,2.18-.31,2.89-1.47,1.29-2.12,2.82-4.09,4.12-6.2,1.08-1.76,2.57-2.42,4.62-2.4,5.95,.06,11.91,.07,17.86,0,2.32-.03,3.78,.85,4.91,2.87,3.61,6.43,7.36,12.79,11.1,19.14,.32,.55,.96,1.27,1.48,1.29,3.36,.12,6.72,.06,10.22,.06-2.2-15.73-7.84-29.84-17.24-42.47-.37-.5-1.33-.78-2.02-.8-3.64-.08-7.28-.11-10.91,.01-.93,.03-2.06,.48-2.73,1.11-3.59,3.37-7.1,6.83-10.54,10.34-1.3,1.32-2.71,1.87-4.57,1.83-4.5-.09-9-.03-13.5-.02-.69,0-1.39,.07-2.1,.11v16.58ZM13.54,93.3c0-3.09,.04-6.01-.01-8.92-.03-1.6,.5-2.86,1.69-3.98,2.57-2.42,5.06-4.93,7.64-7.47-2.56-4.19-5.05-8.25-7.68-12.55-4.85,10.69-7.65,21.47-8.23,32.92h6.59ZM72.99,10.63c3.58,1.77,6.78,3.29,9.92,4.93,1.15,.6,2.02,.57,3.03-.25,4.84-3.94,10.46-6.19,16.63-7.17,.45-.07,.91-.19,1.34-.35,.37-.14,.7-.37,1.05-.56-10.82-1.05-21.29,.24-31.97,3.4Z"/>
  <path class="cls-1" d="M65.35,54.55c-8.56-3.74-16.71-7.3-24.86-10.86-3.87-1.69-4.29-3.88-1.32-6.81,1.73-1.7,3.52-3.35,5.17-5.13,1.43-1.53,2.95-1.87,4.98-1.26,9.72,2.93,19.48,5.75,29.21,8.68,1.31,.4,2.17,.26,3.14-.74,2.45-2.55,4.98-5.04,7.57-7.46,5.1-4.77,11.23-7.23,18.24-7.49,3.03-.12,4.42,1.28,4.28,4.26-.33,7.24-2.93,13.55-8.14,18.74-2.33,2.31-4.66,4.62-7.07,6.85-.95,.88-1.14,1.67-.76,2.91,2.94,9.58,5.73,19.2,8.72,28.76,.76,2.42,.26,4.11-1.7,5.64-1.92,1.49-3.69,3.17-5.53,4.75-2.6,2.22-4.89,1.75-6.26-1.36-3.35-7.57-6.65-15.15-9.98-22.73-.25-.58-.54-1.14-1.09-2.27-1.69,1.83-3.18,3.37-4.56,5.01-.29,.35-.29,1.08-.17,1.58,.73,3.1,1.49,6.2,2.34,9.27,.54,1.95,.22,3.53-1.33,4.94-1.94,1.77-3.74,3.69-5.64,5.5-2.24,2.13-4.43,1.87-6.04-.73-2.78-4.5-5.45-9.07-8.32-13.52-.77-1.2-1.93-2.3-3.15-3.06-4.41-2.75-8.93-5.32-13.4-7.98-2.98-1.77-3.23-3.83-.75-6.29,1.91-1.9,3.85-3.76,5.75-5.67,1.12-1.12,2.39-1.51,3.96-1.11,3.33,.84,6.65,1.68,10.01,2.38,.67,.14,1.66-.13,2.19-.57,1.51-1.24,2.86-2.67,4.5-4.24Zm39.32-24.03c-.49,.07-.8,.1-1.1,.16-4.11,.93-7.55,2.99-10.52,5.92-9.57,9.45-19.2,18.86-28.75,28.33-1.57,1.56-3.15,2.13-5.33,1.48-2.72-.8-5.57-1.2-8.24-2.11-2.19-.74-3.33,.11-4.43,1.88,3.65,2.16,7.22,4.37,10.89,6.4,2.04,1.13,3.52,2.61,4.66,4.61,2.07,3.6,4.31,7.12,6.47,10.67,1.96-1.12,2.63-2.45,1.88-4.59-.85-2.45-1.24-5.06-2.02-7.54-.73-2.33-.19-4.02,1.6-5.75,9.61-9.23,19.11-18.57,28.67-27.86,3.28-3.19,5.42-6.94,6.22-11.62Zm-14.92,29.04c-1.31,1.44-2.24,2.62-3.33,3.62-.87,.8-.95,1.46-.47,2.52,3.13,7,6.17,14.03,9.25,21.05,.14,.33,.37,.62,.53,.9,1.84-.79,2.03-1.99,1.42-3.67-.89-2.44-1.55-4.95-2.3-7.44-1.64-5.44-3.27-10.89-5.11-16.98Zm-43.03-20.44c7.69,3.36,15.21,6.67,22.75,9.92,.42,.18,1.2,.05,1.55-.25,1.3-1.08,2.49-2.29,3.89-3.62-.78-.29-1.25-.49-1.73-.63-7.65-2.25-15.31-4.44-22.92-6.79-1.65-.51-2.63-.2-3.55,1.38Z"/>
  <path class="cls-1" d="M128.67,126.72c-3.11,0-6,0-8.9,0-3.56-.02-4.65-1.07-4.65-4.53,0-8.13-.01-16.27,0-24.4,0-3.22,1.18-4.39,4.4-4.39,10.65,0,21.3,.03,31.95-.03,2.12-.01,3.46,.79,4.38,2.65,2.63,5.32,5.38,10.57,8.01,15.89,.54,1.09,1.19,1.51,2.42,1.47,2.84-.08,5.69,0,8.53-.03,1.72-.02,3.36,.14,4.26,1.86,.85,1.62,.14,2.98-.79,4.34-3.77,5.5-7.54,11-11.18,16.58-.69,1.06-1.07,2.48-1.13,3.76-.16,3.12,.08,6.25-.12,9.36-.08,1.24-.61,2.72-1.46,3.6-4.05,4.2-8.21,8.31-12.49,12.28-.95,.88-2.52,1.48-3.84,1.52-5.02,.17-10.05,.08-15.08,.07-3.1-.01-4.3-1.19-4.31-4.29-.02-11.06,0-22.12,0-33.19,0-.77,0-1.53,0-2.53Zm41.13-6.68c-2.52,0-4.49-.06-6.46,.02-2.04,.08-3.32-.77-4.21-2.57-2.6-5.26-5.34-10.45-7.92-15.71-.63-1.28-1.32-1.79-2.82-1.77-8.13,.08-16.27,.04-24.4,.04-.64,0-1.27,.07-1.94,.1v19.89c2.93,0,5.7,0,8.47,0,3.99,0,4.93,.92,4.93,4.82,0,10.93,0,21.86,0,32.79v2.41c4,0,7.7,.04,11.39-.04,.56-.01,1.21-.46,1.65-.88,3.26-3.14,6.51-6.3,9.66-9.54,.56-.57,.92-1.55,.96-2.36,.12-2.6,.17-5.21,0-7.8-.16-2.53,.53-4.64,2.03-6.71,2.9-4.02,5.59-8.17,8.65-12.69Z"/>
  <path class="cls-1" d="M64.33,140.09c-4.28,0-8.24,.01-12.2,0-3.6-.01-4.65-1.03-4.66-4.5,0-7.09-.01-14.18,0-21.27,0-3.15,1.08-4.21,4.28-4.22,5.09-.01,10.19-.1,15.27,.07,1.24,.04,2.7,.67,3.63,1.5,2.61,2.29,4.95,4.88,7.52,7.23,.68,.62,1.8,1.08,2.73,1.1,5.35,.1,10.71,.04,16.07,.05,3.56,0,4.6,1.04,4.61,4.55,0,4.88-.05,9.76,.03,14.64,.03,1.73-.6,2.96-1.96,4.01-4.52,3.5-8.98,7.08-13.51,10.56-1.03,.79-1.56,1.6-1.49,2.93,.11,1.95,0,3.9,.04,5.85,.04,1.7-.6,2.95-2.02,3.97-4.11,2.95-8.17,5.97-12.22,9.01-1.31,.98-2.66,1.49-4.22,.74-1.58-.76-1.91-2.19-1.91-3.78,.01-9.95,0-19.91,0-29.86,0-.77,0-1.53,0-2.57Zm30.49-13.37c-.98,0-1.7,0-2.41,0-4.49,0-8.99-.04-13.48,.02-1.71,.02-3.02-.51-4.21-1.74-2.41-2.5-4.92-4.9-7.42-7.32-.4-.39-.95-.87-1.44-.88-3.81-.07-7.62-.04-11.49-.04v16.64c4.02,0,7.91,0,11.8,0,4.04,0,4.93,.87,4.93,4.77,0,8.71,0,17.42,0,26.14,0,.66,.06,1.32,.09,2.13q6.69-3.94,6.69-11.06c0-.39,.02-.78,0-1.17-.08-1.69,.59-2.93,1.98-4,4.64-3.56,9.21-7.19,13.77-10.85,.54-.43,1.11-1.2,1.13-1.83,.11-3.5,.05-7.01,.05-10.82Z"/>
</svg>