<svg width="40" height="40" viewBox="0 0 40 40" fill="none" xmlns="http://www.w3.org/2000/svg">
<g id="Group 104">
<path id="Vector" d="M19.6504 24.2794C21.2904 22.6294 22.9204 21.0094 24.5604 19.3594C24.6504 19.4394 24.7604 19.5394 24.8604 19.6394C26.3304 21.1094 27.8104 22.5794 29.2704 24.0594C29.4504 24.2394 29.6004 24.2694 29.8404 24.2094C34.2204 23.0494 38.5204 25.7594 39.3404 30.2194C39.6104 31.7094 39.4304 33.1694 38.8204 34.5594C38.5304 35.2094 38.1804 35.2794 37.6904 34.7794C36.2004 33.2894 34.7104 31.7994 33.2204 30.3094C32.5404 29.6394 31.5204 29.5294 30.8004 30.0394C29.8704 30.6994 29.7604 31.9894 30.5904 32.8494C31.5304 33.8094 32.4904 34.7594 33.4404 35.7094C34.0004 36.2694 34.5604 36.8194 35.1104 37.3794C35.5904 37.8594 35.5204 38.2294 34.9004 38.4894C31.2204 40.0394 27.2404 38.7394 25.2404 35.2894C24.2304 33.5394 23.9904 31.6394 24.4904 29.6694C24.5704 29.3494 24.5404 29.1394 24.2904 28.8894C22.7404 27.3694 21.2104 25.8194 19.6604 24.2694L19.6504 24.2794Z" fill="white"/>
<path id="Vector_2" d="M19.6601 14.4196C18.0001 16.0696 16.3701 17.6896 14.7101 19.3396C13.7801 18.3996 12.8701 17.4996 11.9701 16.5996C11.4601 16.0896 10.9401 15.5896 10.4501 15.0696C10.2701 14.8796 10.1101 14.8596 9.88014 14.9296C5.54014 16.1096 1.20014 13.3596 0.390136 8.90965C0.120136 7.39965 0.310136 5.93965 0.930136 4.52965C1.19014 3.92965 1.56014 3.85965 2.02014 4.31965C3.51014 5.80965 5.00014 7.29965 6.49014 8.78965C7.18014 9.46965 8.18014 9.59965 8.91014 9.11965C9.87014 8.47965 10.0001 7.14965 9.15014 6.28965C8.23014 5.33965 7.29014 4.41965 6.36014 3.48965C5.81014 2.93965 5.26014 2.38965 4.72014 1.84965C4.11014 1.23965 4.18014 0.909646 4.99014 0.579646C8.60014 -0.880354 12.6201 0.489646 14.5201 3.87965C15.5001 5.62965 15.7401 7.50965 15.2501 9.46965C15.1601 9.80965 15.2201 10.0296 15.4701 10.2796C16.8601 11.6396 18.2301 13.0196 19.6601 14.4396V14.4196Z" fill="white"/>
<path id="Vector_3" d="M34.9605 15.3295C34.0605 14.6595 33.2105 13.9995 32.3405 13.3795C31.9905 13.1295 31.6005 13.0395 31.1505 13.1695C30.6205 13.3195 30.1805 13.0295 29.7905 12.6895C29.6605 12.5795 29.5605 12.4195 29.4405 12.2695C25.5605 16.1495 21.7305 19.9895 17.9405 23.7795C17.0105 22.8395 16.1205 21.9495 15.2305 21.0695C19.0105 17.2795 22.8405 13.4495 26.6405 9.6495C26.4505 9.3495 26.2405 9.1195 26.1605 8.8695C26.0905 8.6295 26.0505 8.2795 26.1805 8.0995C27.1405 6.6895 26.4505 4.9295 25.4705 3.8995C24.4605 2.8395 23.2005 2.1895 21.8205 1.7695C21.0305 1.5295 20.2205 1.3695 19.4105 1.1695C19.2305 1.1295 19.0705 1.0495 18.7905 0.939498C19.0205 0.799498 19.1405 0.699498 19.2805 0.639498C20.6105 0.0994976 21.9805 0.0794976 23.3705 0.339498C25.8705 0.809498 28.0105 2.0595 30.0105 3.5695C31.4205 4.6395 32.8105 5.7495 33.9105 7.1395C34.5905 7.9995 35.1805 8.9395 35.7105 9.8995C35.9505 10.3395 35.9605 10.8995 36.0805 11.4095C36.1105 11.5395 36.1005 11.6895 36.1705 11.7995C36.4405 12.2795 36.7405 12.7495 37.1205 13.3695C37.3205 13.0995 37.4305 12.8895 37.5905 12.7395C38.1205 12.2495 38.8605 12.2695 39.3505 12.7595C39.8205 13.2395 39.8605 14.0195 39.3705 14.5295C38.3905 15.5495 37.3805 16.5395 36.3705 17.5295C35.8305 18.0495 35.0805 18.0295 34.5805 17.5195C34.0905 17.0195 34.1005 16.2695 34.6005 15.7295C34.7005 15.6195 34.8005 15.5195 34.9705 15.3395L34.9605 15.3295Z" fill="white"/>
<path id="Vector_4" d="M4.47008 38.9996C4.22008 38.8496 3.94008 38.7396 3.73008 38.5496C2.61008 37.4596 1.51008 36.3496 0.410079 35.2396C-0.159921 34.6696 -0.139921 34.0996 0.470079 33.5496C2.62008 31.6096 4.78008 29.6796 6.93008 27.7496C8.93008 25.9496 10.9401 24.1596 12.9401 22.3596C13.6801 21.6896 14.2901 21.6996 14.9901 22.3996C15.5401 22.9496 16.0901 23.4896 16.6301 24.0396C17.2001 24.6196 17.2201 25.2696 16.6701 25.8796C12.9401 30.0396 9.22008 34.1996 5.49008 38.3596C5.22008 38.6596 4.95008 38.9496 4.46008 38.9896L4.47008 38.9996Z" fill="white"/>
</g>
</svg>
