<svg width="37" height="42" viewBox="0 0 37 42" fill="none" xmlns="http://www.w3.org/2000/svg">
<g id="Group 105">
<path id="Vector" d="M0.225586 11.1529C0.328945 9.67699 0.412001 8.37946 0.514745 7.08317C0.562118 6.48947 0.909109 6.12156 1.50835 6.04896C4.01665 5.74504 6.37791 4.91632 8.72133 4.02977C11.6308 2.92912 14.4528 1.63036 17.2466 0.267008C17.999 -0.100285 18.7312 -0.0830587 19.4848 0.284235C22.7111 1.85677 25.9767 3.33948 29.3611 4.54533C31.0081 5.13227 32.6779 5.64106 34.403 5.94683C34.6847 5.99667 34.9727 6.01143 35.2538 6.0625C35.7922 6.16093 36.1398 6.49193 36.1718 7.02841C36.2634 8.58187 36.4031 10.139 36.3723 11.6913C36.3403 13.305 36.1994 14.9243 35.986 16.5251C35.5947 19.4635 34.8103 22.3077 33.6942 25.0572C32.3081 28.4717 30.4243 31.5854 28.0329 34.3884C25.6064 37.232 22.7905 39.6296 19.6288 41.6149C18.781 42.1471 17.8624 42.12 17.011 41.5811C14.1907 39.7963 11.6394 37.6848 9.39255 35.2122C6.12443 31.6162 3.73856 27.504 2.20848 22.8928C1.45051 20.6072 0.888191 18.2742 0.629178 15.8785C0.453222 14.2506 0.348632 12.6153 0.226201 11.1511L0.225586 11.1529ZM2.14819 7.71132C2.09835 8.60033 2.02206 9.47765 2.00545 10.3556C1.96792 12.3563 2.11189 14.346 2.40289 16.3264C2.88093 19.5724 3.77486 22.6953 5.14006 25.6792C7.89507 31.6998 12.1746 36.3854 17.6883 39.9907C18.1565 40.2965 18.5441 40.302 19.008 39.9919C20.5861 38.938 22.102 37.8066 23.5189 36.5417C27.158 33.2927 29.9678 29.4419 31.8768 24.9514C34.0338 19.8763 34.913 14.5693 34.6411 9.06791C34.6183 8.6114 34.5629 8.15613 34.5236 7.70947C32.6859 7.40739 30.5387 6.81431 28.6678 6.13263C25.3221 4.91386 22.0774 3.46376 18.8843 1.89491C18.4894 1.70111 18.1719 1.71711 17.7892 1.90537C15.0933 3.23304 12.3586 4.47581 9.55312 5.55678C7.16602 6.47655 4.75 7.29911 2.14757 7.7107L2.14819 7.71132Z" fill="white"/>
<path id="Vector_2" d="M32.4476 10.135C32.431 9.89198 32.4568 9.57759 32.3196 9.43117C32.1849 9.28721 31.868 9.30935 31.6293 9.26875C30.0525 8.99928 28.5316 8.52924 27.0311 7.98907C24.297 7.00408 21.6515 5.81053 19.0447 4.53023C18.5624 4.29337 18.1219 4.29706 17.642 4.53454C16.7259 4.98796 15.8031 5.43031 14.8685 5.84314C11.5303 7.31723 8.19389 8.80302 4.53757 9.34442C4.45328 9.35673 4.33146 9.48531 4.32223 9.57021C4.24902 10.2211 4.17027 10.8733 4.14751 11.5273C4.06937 13.7655 4.22441 15.9889 4.62493 18.1952C5.18479 21.2769 6.18024 24.206 7.68325 26.9561C10.05 31.2861 13.3871 34.7006 17.5202 37.3621C18.0696 37.7159 18.6215 37.7337 19.1592 37.3701C19.8962 36.8711 20.6351 36.3722 21.3432 35.8332C24.0847 33.7458 26.3955 31.2571 28.2123 28.3237C31.179 23.5341 32.5171 18.2874 32.5811 12.3437C32.5509 11.8324 32.5054 10.984 32.4476 10.1356V10.135ZM24.5615 17.7528C21.8311 20.4758 19.105 23.2031 16.3808 25.9317C16.2547 26.0578 16.1759 26.0843 16.0326 25.9397C14.7437 24.6428 13.4486 23.352 12.1486 22.0662C11.9991 21.9185 11.988 21.8299 12.1431 21.6786C12.6279 21.2049 13.0979 20.7158 13.6098 20.1971C14.4557 21.0763 15.2746 21.9278 16.1052 22.7916C16.2504 22.6765 16.323 22.6304 16.3826 22.5713C18.5249 20.4303 20.6659 18.2881 22.8069 16.1458C22.9783 15.9744 23.149 15.9715 23.3188 16.1372C23.734 16.5451 24.1432 16.9592 24.5652 17.3591C24.7215 17.5067 24.7104 17.6051 24.5621 17.7528H24.5615Z" fill="white"/>
</g>
</svg>
