<svg width="42" height="43" viewBox="0 0 42 43" fill="none" xmlns="http://www.w3.org/2000/svg">
<path d="M0.339948 42.6196C4.20483 35.885 8.76984 29.6974 14.0694 23.9108C9.36272 19.1565 4.70868 14.4556 0 9.70132C0.279243 9.38052 0.483616 9.11731 0.716318 8.88288C3.4359 6.12119 6.1575 3.36361 8.87911 0.603968C8.94993 0.531996 9.01063 0.414783 9.09562 0.392163C9.38093 0.314021 9.67434 0.268781 9.96572 0.211203C9.91311 0.503207 9.95965 0.893916 9.78968 1.07282C8.45822 2.48143 7.08629 3.84891 5.7265 5.22873C5.44118 5.51868 5.17206 5.83124 4.86246 6.09446C4.3485 6.53041 4.54073 6.82447 5.09517 7.14115C6.61684 5.58242 8.15672 4.00519 9.6966 2.42796C9.88681 2.23261 10.0487 1.98584 10.2753 1.86041C10.5849 1.68767 10.9451 1.60953 11.283 1.49026C11.1859 1.83573 11.1879 2.27168 10.9754 2.50816C10.0871 3.4911 9.13609 4.41647 8.20326 5.35828C7.39184 6.17877 6.57434 6.99309 5.71436 7.85265C5.94503 8.07473 6.12715 8.24541 6.37402 8.48395C8.03328 6.78951 9.64601 5.14031 11.2608 3.49316C11.451 3.29986 11.6169 3.05721 11.8435 2.92971C12.0358 2.82073 12.3008 2.84335 12.5335 2.80839C12.5295 3.07777 12.6347 3.43764 12.5032 3.59803C12.0297 4.17587 11.4813 4.6879 10.9532 5.21845C9.6622 6.51601 8.36514 7.80946 7.01951 9.15844C7.25424 9.41137 7.42421 9.59644 7.59621 9.78152C9.28988 8.0809 10.9431 6.42348 12.5983 4.76399C12.7905 4.57069 12.9565 4.31982 13.1892 4.21289C13.3915 4.12035 13.6667 4.19232 13.9115 4.19232C13.8832 4.43086 13.9399 4.75165 13.8104 4.89354C13.0536 5.72226 12.2604 6.51601 11.4672 7.30771C10.4352 8.33795 9.38903 9.35791 8.30039 10.4313C8.53714 10.711 8.69699 10.9022 8.87911 11.1182C9.05313 10.9763 9.19477 10.8837 9.31011 10.7665C10.935 9.12142 12.5437 7.46194 14.1908 5.83947C14.4194 5.61532 14.8302 5.58448 15.158 5.46521C15.0589 5.81068 15.0629 6.25897 14.8444 6.48517C13.1264 8.26598 11.366 10.0057 9.57317 11.8029C9.84634 12.062 10.0305 12.2368 10.3219 12.5165C12.0074 10.7665 13.6525 9.05562 15.3017 7.34678C15.4899 7.15143 15.6679 6.90878 15.9006 6.80596C16.0686 6.73193 16.3822 6.78334 16.5138 6.90878C16.6028 6.99309 16.5643 7.3694 16.4531 7.49484C15.8642 8.15288 15.2349 8.77595 14.6177 9.40726C13.5473 10.5012 12.487 11.6035 11.3984 12.6769C10.9856 13.082 10.9026 13.3884 11.6311 13.7565C13.2114 12.1319 14.8221 10.4437 16.4794 8.80474C16.8132 8.47367 17.6388 8.05828 17.7056 8.13643C18.2965 8.84998 17.4668 9.11937 17.1289 9.471C15.5303 11.1387 13.8852 12.7591 12.2664 14.3878C12.5619 15.161 12.8816 15.0993 13.3632 14.5975C14.8484 13.0552 16.3701 11.5479 17.8776 10.0283C18.0213 9.88433 18.1427 9.66842 18.3147 9.61289C18.5818 9.52653 18.8833 9.54915 19.1686 9.52653C19.1018 9.78563 19.114 10.1229 18.9541 10.2915C17.3292 11.9839 15.6882 13.6598 14.0249 15.3131C13.5675 15.7676 13.5412 16.0781 14.209 16.44C15.7873 14.8175 17.3737 13.1869 18.9602 11.5562C19.1504 11.3608 19.3102 11.1058 19.5389 10.9886C19.7918 10.8611 20.1075 10.859 20.3969 10.8035C20.3402 11.0976 20.3827 11.4883 20.2107 11.6693C18.7113 13.2465 17.1775 14.7888 15.6437 16.3331C15.3826 16.5942 15.0751 16.8081 14.7432 17.0816C15.0305 17.3859 15.2025 17.571 15.4008 17.7828C17.0176 16.148 18.5939 14.5543 20.1682 12.9627C20.3584 12.7694 20.5203 12.5185 20.7489 12.3972C21.0302 12.2471 21.3641 12.2039 21.6777 12.1134C21.6049 12.4322 21.6352 12.8476 21.445 13.0552C20.4313 14.1554 19.3709 15.2103 18.3127 16.2673C17.6166 16.9623 16.8982 17.6327 16.194 18.3113C16.8153 18.9035 17.3454 19.4094 17.8311 19.8721C20.2309 17.4291 22.7461 14.8669 25.2006 12.3684C24.4196 11.8461 23.4361 11.3731 22.6814 10.6514C20.2937 8.37085 20.2168 4.4761 22.4183 2.04754C24.6664 -0.434495 28.4099 -0.695653 30.8786 1.45942C33.4565 3.71113 33.93 7.53802 31.7062 10.0859C29.5188 12.5946 27.0967 14.8916 24.7676 17.2749C23.1549 18.9241 21.53 20.5589 19.9092 22.1999C19.9658 22.2739 20.0225 22.3459 20.0792 22.4199C20.322 22.2184 20.585 22.0374 20.8076 21.8133C24.3386 18.2311 27.8534 14.6304 31.3966 11.0585C33.9361 8.49835 37.6978 8.45105 40.1826 10.9022C41.9208 12.6152 42.4712 15.2679 41.5768 17.6245C40.731 19.8536 38.5233 21.4781 36.2469 21.546C33.584 21.6262 31.35 20.269 30.3019 17.9247C30.1643 17.6163 30.0631 17.2934 29.972 17.0528C27.4872 19.5904 24.978 22.1526 22.3779 24.8074C22.4912 24.9287 22.7279 25.196 22.9788 25.451C27.2383 29.7981 31.4856 34.1535 35.7714 38.4739C36.3724 39.0785 36.3966 39.461 35.7775 40.0388C34.7677 40.9827 33.8228 41.9965 32.8312 43C28.0133 38.1017 23.2965 33.3084 18.4948 28.4286C12.9585 33.917 7.18544 38.9634 0.346018 42.6216L0.339948 42.6196ZM26.9469 9.62112C28.7964 9.61084 30.2513 8.10969 30.2432 6.22195C30.2371 4.34038 28.762 2.83923 26.9186 2.83307C25.0509 2.82895 23.5333 4.3959 23.5616 6.30009C23.5899 8.1755 25.0752 9.63346 26.9449 9.62112H26.9469ZM39.1729 15.3851C39.1931 13.4377 37.7119 11.8893 35.8382 11.8996C34.0575 11.9099 32.4852 13.5097 32.4832 15.3131C32.4832 17.1824 33.9604 18.6815 35.8159 18.6897C37.7079 18.6979 39.1547 17.2749 39.1749 15.383L39.1729 15.3851ZM14.9961 23.1006C14.7412 22.8106 14.5955 22.6297 14.4356 22.4652C10.2692 18.227 6.10287 13.9929 1.93446 9.75684C1.81508 9.63551 1.70783 9.4854 1.56416 9.41548C1.43871 9.35379 1.27076 9.38875 1.12102 9.38052C1.11697 9.55532 1.05627 9.7589 1.12102 9.90078C1.20196 10.0756 1.3861 10.2031 1.52774 10.3491C5.62532 14.5112 9.72088 18.6732 13.8185 22.8353C13.9844 23.0039 14.1362 23.2301 14.3385 23.3062C14.4801 23.3597 14.6987 23.2013 14.9941 23.1006H14.9961ZM18.9096 27.9906C23.2257 32.383 27.4609 36.6993 31.7122 40.9992C31.8944 41.1822 32.2384 41.2007 32.5055 41.2953C32.4104 41.0444 32.382 40.7257 32.2121 40.5529C27.9668 36.2037 23.7073 31.8689 19.4215 27.5012C19.2313 27.6822 19.0897 27.8179 18.9096 27.9927V27.9906ZM23.0922 9.60672C23.2176 9.85966 23.2864 10.1784 23.4786 10.3573C25.4394 12.1936 28.6689 12.0826 30.6256 10.1311C32.5945 8.16933 32.7604 4.79072 30.9615 2.79399C30.7794 2.59247 30.4577 2.5205 30.2007 2.38889C31.9106 6.11708 31.9126 7.88555 30.1137 9.64168C28.3735 11.3402 26.435 11.2991 23.0922 9.60467V9.60672ZM32.3072 18.556C32.2121 18.6259 32.119 18.6979 32.0239 18.7678C32.1817 19.0413 32.2808 19.3827 32.5055 19.576C34.4723 21.2786 37.6512 21.1347 39.5068 19.284C41.508 17.2893 41.7387 14.1431 40.0045 12.0435C39.8123 11.8111 39.4461 11.7248 39.1607 11.5706C39.2619 11.8584 39.3044 12.1895 39.4744 12.426C40.9111 14.4351 40.7977 16.8883 39.1628 18.5992C37.5237 20.3163 34.9923 20.5034 33.0053 19.0557C32.7726 18.8871 32.5378 18.7205 32.3051 18.554L32.3072 18.556ZM15.8824 25.7142C15.4757 26.2365 15.0589 26.5409 15.0872 26.7917C15.1256 27.1187 15.5162 27.4045 15.7549 27.7068C16.0322 27.4683 16.5077 27.2524 16.536 26.985C16.5704 26.6725 16.2163 26.3167 15.8824 25.7142Z" fill="white"/>
</svg>
