<?xml version="1.0" encoding="UTF-8"?>
<svg id="SvgjsSvg1140" xmlns="http://www.w3.org/2000/svg" viewBox="0 0 240 239.98">
  <defs>
    <style>
      .cls-1 {
        fill: #5c2e63;
      }
    </style>
  </defs>
  <g id="SvgjsG1142">
    <path class="cls-1" d="M220,39.98h-68.88c-5.52-15.6-15.51-29.23-28.72-39.2-1.43-1.04-3.37-1.04-4.8,0-13.21,9.97-23.2,23.6-28.72,39.2H20C8.95,39.98,0,48.93,0,59.98v120c0,11.05,8.95,20,20,20h54.08l-12.8,32h-17.28c-2.21,0-4,1.79-4,4s1.79,4,4,4H196c2.21,0,4-1.79,4-4s-1.79-4-4-4h-17.28l-12.8-32h54.08c11.05,0,20-8.95,20-20V59.98c0-11.05-8.95-20-20-20Zm0,8c6.63,0,12,5.37,12,12v112.8c-3.08-2.69-6.63-4.77-10.48-6.16-1.49-13.75-13.84-23.69-27.59-22.2-6.3,.68-12.11,3.73-16.25,8.52-7.11-.92-14.29,1.2-19.76,5.84-9.16-.57-17.78,4.37-21.92,12.56v-11.36h8c1.32,.02,2.56-.65,3.28-1.76,.8-1.09,.95-2.53,.4-3.76l-7.36-18.48h11.68c2.21,0,4-1.79,4-4v-8h28c2.21,.03,4.02-1.74,4.05-3.95,0-.81-.23-1.61-.69-2.29l-31.36-46.96v-2.8c-.02-6.74-.85-13.46-2.48-20h66.48Zm-118.08,104l6.4-16h23.36l6.4,16h-36.16Zm54.08-66.8l20.56,30.8h-20.56v-30.8Zm-64-17.2c.06-22.85,10.33-44.48,28-58.96,17.67,14.48,27.94,36.11,28,58.96v60h-56v-60Zm-8,48h-20.56l20.56-30.8v30.8ZM20,47.98H86.48c-1.63,6.54-2.46,13.26-2.48,20v2.8l-31.36,46.96c-1.24,1.83-.76,4.32,1.07,5.55,.67,.46,1.47,.7,2.29,.69h28v8c0,2.21,1.79,4,4,4h11.68l-7.36,18.48c-.55,1.23-.4,2.67,.4,3.76,.72,1.11,1.96,1.78,3.28,1.76h8v11.36c-3.93-7.78-11.92-12.67-20.64-12.64h-1.28c-5.47-4.64-12.65-6.76-19.76-5.84-8.98-10.46-24.74-11.66-35.2-2.69-4.82,4.14-7.89,9.97-8.56,16.29-3.88,1.44-7.46,3.58-10.56,6.32V59.98c0-6.63,5.37-12,12-12ZM170.08,231.98H69.92l12.8-32h74.56l12.8,32Zm49.92-40H20c-5.04-.05-9.52-3.24-11.2-8,3.37-5.25,8.55-9.06,14.56-10.72,1.84-.52,3.07-2.25,2.96-4.16,.32-9.41,8.2-16.77,17.61-16.45,5.38,.18,10.36,2.9,13.43,7.33,.96,1.29,2.58,1.92,4.16,1.6,5.9-1.46,12.14,.3,16.4,4.64,1.05,.86,2.41,1.26,3.76,1.12,8.03-.92,15.37,4.6,16.72,12.56,.35,1.94,2.03,3.35,4,3.36,1.5,.04,3,.2,4.48,.48,1.21,.32,2.5,.08,3.52-.64,1-.76,1.59-1.94,1.6-3.2v-19.92h16v19.52c.01,1.26,.6,2.44,1.6,3.2,1.02,.72,2.31,.96,3.52,.64,1.4-.27,2.82-.43,4.24-.48,2.07,.15,3.91-1.31,4.24-3.36,1.18-7.39,7.56-12.82,15.04-12.8h2.08c1.24,.2,2.49-.22,3.36-1.12,4.18-4.2,10.22-5.95,16-4.64,1.58,.32,3.2-.31,4.16-1.6,3.25-4.73,8.66-7.5,14.4-7.36,9.46,.04,17.08,7.74,17.04,17.2h0c-.09,1.87,1.15,3.54,2.96,4,6.02,1.68,11.21,5.52,14.56,10.8-1.68,4.76-6.16,7.95-11.2,8Z"/>
    <path class="cls-1" d="M120,63.98c-11.05,0-20,8.95-20,20s8.95,20,20,20,20-8.95,20-20-8.95-20-20-20Zm0,32c-6.63,0-12-5.37-12-12s5.37-12,12-12,12,5.37,12,12-5.37,12-12,12Z"/>
  </g>
</svg>