<?xml version="1.0" encoding="UTF-8"?>
<svg id="Layer_1" data-name="Layer 1" xmlns="http://www.w3.org/2000/svg" viewBox="0 0 72 72">
  <defs>
    <style>
      .cls-1 {
        fill: #5a2b5f;
      }
    </style>
  </defs>
  <path class="cls-1" d="M71.87,2.11c.04-.09,.08-.17,.13-.25V.97c-.22-.41-.57-.68-1.05-.83h-.68c-.16,.08-.32,.15-.48,.23-5.47,3.13-10.93,6.26-16.4,9.38-.15,.08-.34,.14-.51,.14-4.42,0-8.84,0-13.26,.01-.25,0-.35-.07-.42-.28-.74-2.07-2.89-3.48-5.29-3.49-2.43,0-4.59,1.38-5.34,3.46-.09,.26-.22,.31-.49,.31-1.57-.03-3.13,.01-4.68,.32-8.27,1.61-13.55,9.12-11.61,16.52,1.63,6.26,7.78,10.65,14.93,10.65,3.83,0,7.65,0,11.48,0,.18,0,.28,.01,.35,.21,.71,2.09,2.88,3.55,5.3,3.56,2.45,.01,4.64-1.39,5.38-3.49,.08-.21,.17-.28,.42-.28,1.28,.01,2.56,0,3.85,0,3.63,.03,6.93,1.01,9.73,3.09,4.69,3.48,6.67,7.99,5.76,13.42-.91,5.48-5.69,10.12-11.66,11.46-.45,.1-.92,.18-1.38,.27-.05-.12-.08-.19-.12-.27-.81-1.99-2.87-3.3-5.21-3.32-2.35-.02-4.46,1.27-5.3,3.24q-.22,.52-.84,.52c-9.3,0-18.6,0-27.91,0h-.45c.16-.16,.26-.25,.35-.35,1.56-1.56,3.29-2.96,4.98-4.39,3.49-2.96,4.85-6.62,3.91-10.85-1.35-6.05-7.72-9.97-14.54-9.05-5.14,.69-9.45,4.34-10.51,8.91-.12,.54-.2,1.08-.3,1.63v1.72c.1,.54,.17,1.08,.3,1.6,.58,2.37,1.82,4.42,3.84,6.01,2.67,2.11,5.05,4.45,7.47,6.78,.4,.38,.84,.56,1.43,.56,10.59,0,21.19,0,31.78,0,.18,0,.31,0,.38,.21,.25,.71,.63,1.32,1.12,1.83,.74,.77,1.69,1.24,2.36,1.45,.23,.07,.47,.13,.69,.17,.87,.16,1.65,.13,2.1,.07,.25-.03,.4-.07,.4-.08,0,0-.02,0-.08-.01,.02,0,.04,0,.06-.01,2.08-.5,3.44-1.68,4.08-3.52,.07-.22,.19-.29,.41-.32,4.08-.59,7.57-2.24,10.44-4.91,2.89-2.69,4.6-5.91,5.14-9.62,.01-.09,.05-.18,.07-.26v-3.49c-.1-.51-.18-1.01-.3-1.52-.89-3.95-3.07-7.21-6.53-9.75-3.42-2.51-7.37-3.75-11.78-3.76-1.26,0-2.52,0-3.78,0-.21,0-.3-.06-.36-.24-.78-2.15-2.9-3.54-5.38-3.53-2.43,0-4.53,1.41-5.31,3.54-.05,.15-.1,.23-.31,.23-4.05-.01-8.1,.05-12.15-.04-5.23-.12-9.86-3.44-11.33-7.96-2.03-6.25,2.17-12.67,9.24-14.11,1.42-.29,2.85-.25,4.29-.26,.22,0,.21,.14,.25,.25,.7,1.79,2.07,2.94,4.12,3.38,2.78,.59,5.66-.88,6.54-3.33,.08-.23,.18-.31,.46-.31,4.4,0,8.8,0,13.2,.01,.19,0,.41,.06,.57,.15,5.46,3.12,10.91,6.25,16.37,9.37,.84,.48,1.62,.26,2.2-.59v-.89c-.38-.9-.76-1.8-1.14-2.71-.87-2.11-1.74-4.23-2.62-6.34-.08-.19-.08-.36,0-.55,1.21-2.93,2.42-5.87,3.63-8.81ZM12.94,65.1s-.07,.06-.12,.1c-.75-.72-1.47-1.45-2.24-2.14-1.48-1.31-2.96-2.63-4.5-3.89-4.18-3.44-4.31-9.41-.26-12.98,5.43-4.78,14.53-2.66,16.58,3.91,1.06,3.4,.16,6.47-2.68,8.9-2.32,1.99-4.61,3.99-6.78,6.1Zm37.63,4.47c-1.55,0-2.77-1.12-2.76-2.53,.01-1.34,1.27-2.45,2.77-2.44,1.52,.01,2.75,1.13,2.73,2.5-.01,1.36-1.24,2.47-2.74,2.47Zm-6.63-35.93c1.51,.02,2.72,1.14,2.71,2.52-.02,1.35-1.26,2.44-2.77,2.44-1.53,0-2.76-1.14-2.74-2.52,.02-1.37,1.27-2.45,2.8-2.44Zm-10.03-19.97c-1.53,.01-2.77-1.08-2.78-2.45-.01-1.38,1.2-2.49,2.72-2.5,1.55-.01,2.77,1.08,2.78,2.48,0,1.35-1.21,2.46-2.72,2.47Zm22.32-2.48c3.86-2.21,7.68-4.4,11.5-6.59,.02,.02,.04,.03,.05,.05-.57,1.39-1.14,2.78-1.71,4.17-.24,.6-.48,1.2-.74,1.79-.17,.38-.17,.75,0,1.13,.79,1.91,1.57,3.82,2.36,5.73,.04,.09,.07,.17,.13,.35-3.9-2.23-7.72-4.42-11.58-6.63Z"/>
  <path class="cls-1" d="M12.82,46.16c3.92,0,7.11,2.86,7.12,6.38,0,3.56-3.18,6.42-7.13,6.42-3.9,0-7.09-2.86-7.1-6.37,0-3.57,3.16-6.43,7.11-6.43Zm-4.27,6.39c0,2.12,1.91,3.84,4.25,3.85,2.35,0,4.27-1.72,4.28-3.83,.01-2.1-1.93-3.85-4.26-3.85-2.35,0-4.27,1.72-4.28,3.83Z"/>
</svg>