<?xml version="1.0" encoding="UTF-8"?>
<svg id="SvgjsSvg1039" xmlns="http://www.w3.org/2000/svg" viewBox="0 0 252.06 252.06">
  <defs>
    <style>
      .cls-1 {
        fill: none;
        stroke: #5c2e63;
        stroke-linecap: round;
        stroke-linejoin: round;
        stroke-width: 7.88px;
      }
    </style>
  </defs>
  <g id="SvgjsG1041">
    <line class="cls-1" x1="3.94" y1="248.12" x2="248.12" y2="248.12"/>
    <circle class="cls-1" cx="165.81" cy="11.82" r="7.88"/>
    <circle class="cls-1" cx="207.56" cy="38.2" r="7.09"/>
    <path class="cls-1" d="M165.81,20.09h0c-14.18,63.41-21.27,145.33-22.06,228.04h43.72c0-82.71-7.48-165.02-21.66-228.04Zm-79.56,0c-14.18,63.41-21.27,145.33-22.06,228.04h43.72c-.39-82.71-7.88-165.02-21.66-228.04h0Z"/>
    <path class="cls-1" d="M176.05,75.22c-2.76-19.69-6.3-38.2-9.85-55.14h0c-3.94,16.94-7.09,35.84-9.85,55.14h19.69Zm-79.95,0c-2.76-19.69-6.3-38.2-9.85-55.14h0c-3.94,16.94-7.09,35.84-9.85,55.14h19.69Z"/>
    <circle class="cls-1" cx="86.25" cy="11.82" r="7.88"/>
    <path class="cls-1" d="M207.56,45.29h0c-12.6,56.32-18.9,129.18-19.3,202.83h38.99c-.79-73.65-7.48-146.51-19.69-202.83Zm-163.05,0c-12.21,56.32-18.9,129.18-19.3,202.83h38.99c-.39-73.65-7.09-146.51-19.69-202.83h0Z"/>
    <path class="cls-1" d="M217.01,101.61c-2.76-20.09-5.91-38.99-9.85-56.32h0c-3.94,17.33-7.09,36.23-9.85,56.32h19.69Zm-162.66,0c-2.76-20.09-5.91-38.99-9.85-56.32h0c-3.94,17.33-7.09,36.23-9.85,56.32h19.69Z"/>
    <circle class="cls-1" cx="44.5" cy="38.2" r="7.09"/>
    <polyline class="cls-1" points="104.37 153.21 126.03 89.8 147.3 153.21"/>
    <ellipse class="cls-1" cx="126.03" cy="161.48" rx="7.09" ry="11.82"/>
  </g>
</svg>