<?xml version="1.0" encoding="UTF-8"?>
<svg id="SvgjsSvg1001" xmlns="http://www.w3.org/2000/svg" viewBox="0 0 294.43 232.01">
  <defs>
    <style>
      .cls-1 {
        fill: #5c2e63;
      }
    </style>
  </defs>
  <path class="cls-1" d="M146.54,196.89c-25.16,0-50.32,.11-75.48-.1-4.48-.04-5.76,1.28-5.54,5.63,.35,6.65,.16,13.32,.06,19.99-.09,6.12-2.94,9.53-7.82,9.61-4.94,.08-8.02-3.22-8.19-9.29-.19-6.83-.35-13.68,.05-20.49,.27-4.65-1.56-5.52-5.76-5.44-12.32,.25-24.66,.13-36.99,.06-5-.03-7.88-3.16-6.56-6.96,1.12-3.24,3.77-3.78,6.84-3.8,6.79-.05,6.79-.12,6.79-7.03,0-4.83-.09-9.67,.03-14.49,.08-2.94-1.11-3.96-3.91-3.3-.65,.15-1.31,.24-1.98,.28-3.75,.23-7.4-.22-7.92-4.8-.54-4.75,2.89-5.64,6.76-5.96,20.52-1.7,34.33-12.18,41.25-31.66,1.49-4.2,1.27-8.52,1.37-12.84,.13-6.19,3.33-10.09,8.09-10.05,4.79,.04,8.33,3.99,7.87,10.11-.67,8.81,4.34,14.43,10.1,19.59,12.7,11.38,28.22,16.85,44.62,19.85,26.31,4.82,52.1,2.92,76.86-7.79,11.33-4.9,21.35-11.64,27.69-22.74,1.78-3.11,2.48-6.41,2.52-10.02,.07-5.49,3.5-9.07,8.03-8.99,4.67,.08,7.93,3.58,7.65,9.13-1.05,20.95,16.5,43.42,40.77,45.12,1.33,.09,2.64,.36,3.97,.47,3.32,.26,5.33,1.83,5.28,5.34-.05,3.56-2.43,4.74-5.49,5.33-2.56,.49-6.07-2.02-7.44,.47-1.29,2.34-.56,5.82-.6,8.8-.06,3.83,.11,7.67-.05,11.49-.12,2.82,.97,3.97,3.78,3.76,1.82-.14,3.66-.03,5.5,0,3.62,.07,5.79,2.09,5.76,5.54-.03,3.3-2.44,5.05-5.67,5.13-5.16,.14-10.33,.06-15.49,.06-8.66,0-17.33,.13-25.99-.07-3.23-.07-4.4,.84-4.3,4.18,.21,7.32,.1,14.66,.05,21.99-.04,5.68-2.96,9.02-7.72,9.03-4.78,0-7.9-3.26-8.04-8.91-.17-7.16-.24-14.33,.02-21.49,.14-3.72-1-4.83-4.76-4.81-25.33,.16-50.65,.08-75.98,.08Zm81.17-66.58c-3.66,3.06-6.67,5.57-9.68,8.08-.83,.7-1.09,1.62-1.09,2.67,0,14.15-.05,28.31,.03,42.46,.03,4.35,3.56,2.48,5.62,2.61,1.99,.13,5.1,1.28,5.1-2.69,.01-17.42,0-34.84,0-53.13Zm-177.82,8.66c-3.97,4.76-7.21,8.33-11.21,11.08-2.04,1.4-2.49,3.27-2.46,5.6,.09,6.98,.03,13.97,.03,20.96q0,10.3,10.31,9.56c.17-.01,.33-.02,.5,0,2.2,.16,2.86-1,2.85-3.04-.04-14.27-.02-28.54-.02-44.15Zm193.12,.5c0,13.21,0,25.12,0,37.02,0,10.51,0,10.41,10.55,9.8,2.68-.16,3.36-1.18,3.34-3.63-.09-9.29-.05-18.59-.02-27.89,0-1.58-.26-2.96-1.64-3.92-4.23-2.96-7.64-6.81-12.23-11.38Zm-177.28-7.13c-.2,.64-.46,1.08-.46,1.52-.03,16.29,.04,32.59-.1,48.88-.04,4.63,3.14,3.19,5.51,3.41,2.52,.23,4.45,.1,4.39-3.49-.19-11.14-.63-22.31,.12-33.4,.54-7.98-1.86-13.4-9.46-16.92Zm15.58,32.55c0,6,.13,12-.05,17.99-.11,3.78,2.36,3.23,4.67,3.3,2.35,.08,4.22,.03,4.13-3.28-.18-6.99-.05-13.99-.05-20.99,0-4,.06-8-.04-11.99-.05-1.95-5.31-6.17-7.21-5.6-2.79,.83-1.31,3.37-1.38,5.08-.22,5.15-.08,10.32-.07,15.49Zm128.78,.11c0-5.97,.03-11.95-.03-17.92-.01-1.02,.54-2.49-1.18-2.8-2.19-.4-7.01,3.87-7.02,6.32-.05,10.62,.09,21.24-.09,31.86-.05,3.32,1.49,3.74,4.23,3.76,2.79,.01,4.29-.52,4.17-3.8-.22-5.8-.06-11.61-.07-17.42Zm53.06,5.46c0,4.16,.11,8.33-.03,12.49-.15,4.31,2.96,3.06,5.2,3.19,2.32,.13,4.74,.49,4.61-3.29-.2-5.65-.45-11.36,.08-16.97,.48-5.06-1.25-7.55-6.08-8.88-2.84-.78-3.97-.85-3.81,2.47,.17,3.66,.04,7.32,.04,10.99Zm-233.2,.63c0-1.99,0-3.98,0-5.97,0-1.99,.05-3.99-.03-5.97-.04-.91,.42-2.06-.77-2.62-2.03-.94-8.84,3.52-8.86,5.9-.06,6.8-.03,13.61-.02,20.41,0,1.48-.1,2.87,1.99,3.38,5.5,1.34,7.66-.16,7.68-5.67,.01-3.15,0-6.31,0-9.46Zm66.83-3.05c0,4.99,.1,9.98-.04,14.97-.08,2.84,1.44,3.45,3.74,3.18,1.74-.2,4.44,1.05,4.47-2.28,.07-9.65,.24-19.3-.1-28.94-.12-3.49-4.01-3.09-6.3-3.51-2.72-.5-1.69,2.24-1.73,3.61-.15,4.32-.05,8.65-.04,12.97Zm98.35,.96c0-4.49,.12-8.99-.07-13.47-.06-1.48,1.16-4.48-1.68-4.05-2.46,.37-6.48-.13-6.45,4.5,.05,8.98,.12,17.97-.04,26.94-.06,3.26,1.74,3.34,4.11,3.32,2.32-.02,4.3,.03,4.17-3.28-.18-4.65-.05-9.31-.04-13.97Zm-83.37,1.33c0,3.83,.16,7.67-.05,11.49-.17,3.11,.66,4.48,4.1,4.45,3.2-.03,4.4-.87,4.3-4.23-.23-7.15-.39-14.34,.04-21.47,.31-5.21-3.4-4.71-6.21-4.93-3.96-.32-1.91,3.06-2.08,4.71-.34,3.29-.1,6.65-.1,9.98Zm68.38,.27c0-3.65,.2-7.31-.1-10.93-.12-1.45,1.69-4.71-2.14-4.07-2.58,.43-6.28-.4-6.09,4.52,.28,7.28,.2,14.58,0,21.87-.08,3.18,.85,4.35,4.18,4.34,3.28,0,4.39-1.07,4.2-4.3-.23-3.8-.05-7.62-.05-11.43Zm-45.08,2.05h-.02c0-3.82-.12-7.64,.03-11.45,.16-3.9-2.66-2.88-4.77-3.18-2.61-.38-3.53,.7-3.49,3.3,.12,6.8,.21,13.61-.04,20.41-.13,3.52,1.05,4.47,4.51,4.53,3.8,.06,3.9-1.91,3.8-4.65-.11-2.98-.03-5.97-.03-8.96Zm30.01-.28c0-3.65-.09-7.31,.03-10.95,.08-2.45-.56-3.79-3.34-3.46-2.4,.28-5.07-.43-4.94,3.63,.23,6.96,.21,13.95,0,20.91-.11,3.38,1.56,3.66,4.25,3.72,2.91,.06,4.29-.7,4.06-3.89-.24-3.3-.05-6.64-.06-9.96Zm-14.97,.44c0-3.48-.15-6.97,.05-10.44,.17-3.01-1.26-3.66-3.88-3.58-2.46,.08-4.6-.11-4.48,3.49,.2,6.29,.18,12.6,0,18.89-.09,3.27,.23,5.18,4.41,5.14,4.14-.04,4.04-2.21,3.94-5.05-.1-2.81-.02-5.63-.03-8.45Z"/>
  <path class="cls-1" d="M121.92,104.69c-16.32-.25-12.99,2.26-17.26-13.23-.93-3.37-1.77-6.76-2.6-10.15-.59-2.42-.05-4.46,2.66-4.99,1.89-.36,3.65-.33,3.44-3.05-.18-2.42,.39-4.72-2.68-6.23-9.61-4.72-16-12.3-18.72-22.77-4.56-17.54,4.53-35.53,21.16-41.9,16.82-6.45,35.68,.72,43.9,16.68,8.33,16.17,3.33,36.1-12.09,45.72-4.07,2.54-4.1,5.49-3.92,9.17,.05,1.04,.21,2.05,1.51,2.21,5.11,.64,4.32,4.07,3.52,7.46-1.27,5.34-2.8,10.63-3.83,16.02-.75,3.9-2.83,5.31-6.6,5.1-2.82-.16-5.66-.03-8.5-.03Zm7.97-67.75c-.6-7.48-.93-14.99-4.87-21.66-2.46-4.17-4.66-4.17-7.38-.18-6.19,9.09-6.25,33.43-.11,42.79,2.78,4.24,5.04,4.18,7.63-.28,3.72-6.39,4.05-13.57,4.72-20.66Zm-18.96-26.48c-10.1,2.97-17.71,13.8-17.6,24.98,.09,8.82,5.7,20.98,15.54,23.56-5.37-16.36-5.66-32.51,2.06-48.54Zm23.37,47.79c9.03-4.66,14.46-15.25,13.53-25.4-.88-9.68-7.54-18.96-15.55-21.32,6.89,15.21,6.16,30.63,2.02,46.72Zm-12.99,24.74c-2.98,0-5.96,.08-8.94-.03-2.1-.07-2.83,.38-2.48,2.79,1.78,12.16,1.74,12.21,13.96,12.2,1.32,0,2.65,0,3.97-.02,1-.02,2.23-.01,2.55-1.1,1.24-4.1,3.51-8.53,2.34-12.43-.94-3.12-5.52-.92-8.44-1.4-.97-.16-1.98-.03-2.97-.01Zm-2.48-9.89c-.02-1.36,.01-2.74-1.9-2.86-2.03-.12-1.98,1.31-1.96,2.66,.03,1.44-.32,3.21,2.05,3.1,1.97-.09,1.75-1.59,1.8-2.9Zm10.2-.24c-.13-1.24,.28-2.84-1.83-2.78-2.23,.06-2.08,1.69-2.08,3.19,0,1.36-.03,2.77,1.92,2.79,2.39,.02,1.85-1.8,1.99-3.19Z"/>
  <path class="cls-1" d="M202.12,80.82c-7.25,0-10.2-3.44-10.12-12.84,.02-2.39-.42-3.85-2.01-5.56-6.58-7.07-6.51-16.82-.06-23.36,6.2-6.28,16.56-6.76,23.13-1.06,7.08,6.14,8.35,16.65,2.01,23.66-3.34,3.7-2.39,8.01-3.65,11.95-2.27,7.1-1.96,7.2-9.31,7.2Zm.42-19.67c5.45-.08,10.1-4.75,10.2-10.23,.1-5.38-5.12-10.5-10.64-10.44-5.31,.06-10.01,4.92-10.06,10.4-.05,5.79,4.62,10.36,10.5,10.27Zm-.29,14.04c1.9,.21,3.64-.03,3.76-2.57,.15-3.1-2.25-2.29-3.84-2.25-1.4,.04-3.74-1.02-3.87,1.62-.12,2.4,1.37,3.58,3.94,3.2Z"/>
</svg>