<?xml version="1.0" encoding="UTF-8"?>
<svg id="SvgjsSvg1057" xmlns="http://www.w3.org/2000/svg" viewBox="0 0 256 256.01">
  <defs>
    <style>
      .cls-1 {
        fill: #5c2e63;
      }
    </style>
  </defs>
  <g id="SvgjsG1059">
    <path class="cls-1" d="M252,240c-5.24-.1-10.36,1.53-14.57,4.64-6.09,4.48-14.39,4.48-20.48,0-8.73-6.18-20.41-6.18-29.14,0-6.09,4.48-14.38,4.48-20.46,0-8.73-6.18-20.41-6.18-29.14,0-6.08,4.48-14.37,4.48-20.45,0-8.73-6.19-20.41-6.19-29.13,0-6.08,4.48-14.38,4.48-20.46,0-4.21-3.11-9.33-4.74-14.57-4.64-5.23-.1-10.35,1.53-14.57,4.64-2.92,2.26-6.53,3.45-10.23,3.36-3.69,.08-7.31-1.1-10.23-3.36-4.21-3.11-9.33-4.74-14.57-4.64-2.21,0-4,1.79-4,4s1.79,4,4,4c3.69-.08,7.31,1.1,10.23,3.36,4.21,3.11,9.33,4.74,14.57,4.64,5.23,.1,10.35-1.53,14.57-4.64,2.92-2.26,6.53-3.45,10.23-3.36,3.69-.08,7.31,1.1,10.23,3.36,4.21,3.11,9.33,4.74,14.57,4.64,5.23,.1,10.35-1.53,14.57-4.64,6.08-4.48,14.37-4.48,20.46,0,8.72,6.19,20.4,6.19,29.13,0,6.09-4.48,14.38-4.48,20.46,0,8.73,6.18,20.41,6.18,29.14,0,6.09-4.48,14.38-4.48,20.47,0,8.73,6.18,20.42,6.18,29.15,0,2.93-2.26,6.54-3.45,10.24-3.36,2.21,0,4-1.79,4-4s-1.79-4-4-4Z"/>
    <path class="cls-1" d="M252,224c-5.24-.1-10.36,1.53-14.57,4.64-6.09,4.48-14.39,4.48-20.48,0-8.73-6.18-20.41-6.18-29.14,0-6.09,4.48-14.38,4.48-20.46,0-8.73-6.18-20.41-6.18-29.14,0-6.08,4.48-14.37,4.48-20.45,0-8.73-6.19-20.41-6.19-29.13,0-6.08,4.48-14.38,4.48-20.46,0-4.21-3.11-9.33-4.74-14.57-4.64-5.23-.1-10.35,1.53-14.57,4.64-2.92,2.26-6.53,3.45-10.23,3.36-3.69,.08-7.31-1.1-10.23-3.36-4.21-3.11-9.33-4.74-14.57-4.64-2.21,0-4,1.79-4,4s1.79,4,4,4c3.69-.08,7.31,1.1,10.23,3.36,4.21,3.11,9.33,4.74,14.57,4.64,5.23,.1,10.35-1.53,14.57-4.64,2.92-2.26,6.53-3.45,10.23-3.36,3.69-.08,7.31,1.1,10.23,3.36,4.21,3.11,9.33,4.74,14.57,4.64,5.23,.1,10.35-1.53,14.57-4.64,6.08-4.48,14.37-4.48,20.46,0,8.72,6.19,20.4,6.19,29.13,0,6.09-4.48,14.38-4.48,20.46,0,8.73,6.18,20.41,6.18,29.14,0,6.09-4.48,14.38-4.48,20.47,0,8.73,6.18,20.42,6.18,29.15,0,2.93-2.26,6.54-3.45,10.24-3.36,2.21,0,4-1.79,4-4s-1.79-4-4-4ZM211.2,36h3.15c2.21,0,4-1.79,4-4s-1.79-4-4-4h-3.06c-1.83-.01-3.3-1.5-3.29-3.33,.03-1.86,1.56-3.34,3.41-3.32,.05,0,.11,0,.16,0,2.2,.19,4.14-1.44,4.33-3.65,.02-.29,.02-.58-.02-.87-.27-1.79,.96-3.46,2.74-3.73,.17-.03,.34-.04,.51-.04,.52,0,1.03,.13,1.49,.37,1.93,1,4.31,.27,5.35-1.64,1.9-3.52,6.3-4.84,9.83-2.93,2.25,1.21,3.69,3.52,3.8,6.07,.11,2.09,1.81,3.75,3.9,3.8,2.5,.08,4.49,2.13,4.49,4.63,.02,2.51-1.97,4.56-4.48,4.62-.07,0-.13,0-.2,.01h-4.6c-2.21,0-4,1.79-4,4s1.79,4,4,4h4.91c.16,0,.32,0,.48-.03,6.7-.35,11.94-5.9,11.89-12.61-.03-5.54-3.63-10.42-8.92-12.07-2.18-8.13-10.54-12.95-18.67-10.77-2.92,.78-5.54,2.42-7.53,4.69-.58-.09-1.16-.14-1.74-.14-5.24,.01-9.79,3.62-10.99,8.72-6.01,1.76-9.45,8.05-7.69,14.06,1.4,4.78,5.76,8.09,10.74,8.15Zm-97.2-12h16c2.21,0,4-1.79,4-4s-1.79-4-4-4h-16c-2.21,0-4,1.79-4,4s1.79,4,4,4Zm0,16h16c2.21,0,4-1.79,4-4s-1.79-4-4-4h-16c-2.21,0-4,1.79-4,4s1.79,4,4,4Zm0,16h16c2.21,0,4-1.79,4-4s-1.79-4-4-4h-16c-2.21,0-4,1.79-4,4s1.79,4,4,4Zm0,16h16c2.21,0,4-1.79,4-4s-1.79-4-4-4h-16c-2.21,0-4,1.79-4,4s1.79,4,4,4Zm0,16h16c2.21,0,4-1.79,4-4s-1.79-4-4-4h-16c-2.21,0-4,1.79-4,4s1.79,4,4,4Zm-60,32h32c2.21,0,4-1.79,4-4s-1.79-4-4-4H54c-2.21,0-4,1.79-4,4s1.79,4,4,4Zm0,16h32c2.21,0,4-1.79,4-4s-1.79-4-4-4H54c-2.21,0-4,1.79-4,4s1.79,4,4,4Zm32,8H54c-1.54,0-2.94,.89-3.6,2.28,1.44,1.76,2.67,3.68,3.67,5.72h31.92c2.21,0,4-1.79,4-4s-1.79-4-4-4Z"/>
    <path class="cls-1" d="M252,147h-4v-25.48c0-.89-.29-1.75-.83-2.45l-19.17-24.8v-20.28c0-2.21-1.79-4-4-4s-4,1.79-4,4v19.01l-19.22,26.14c-.5,.69-.78,1.52-.78,2.37v25.48h-8v-27c0-2.21-1.79-4-4-4h-2v-11.45c5.58-6.31,5.29-15.86-.66-21.82l-1.35-26.93c-.11-2.13-1.86-3.8-4-3.8h-2V30c0-2.21-1.79-4-4-4s-4,1.79-4,4v22h-2c-2.13,0-3.89,1.67-4,3.8l-1.35,26.93c-5.95,5.96-6.24,15.51-.66,21.82v11.45h-2c-2.21,0-4,1.79-4,4v16h-6V8c0-4.42-3.58-7.99-8-8h-40c-4.42,0-7.99,3.58-8,8V88h8V8h40V208h-32V100c0-2.21-1.79-4-4-4h-20v-12c0-4.42-3.58-7.99-8-8h-4v-12c0-2.21-1.79-4-4-4s-4,1.79-4,4v12h-4c-4.42,0-7.99,3.58-8,8v12h-20c-2.21,0-4,1.79-4,4v38.44c2.63-.59,5.37-.59,8,0v-34.44H102v104H38v-14.76c6.97-2.6,12-11.87,12-23.24,0-13.46-7.03-24-16-24s-16,10.54-16,24c0,11.37,5.03,20.64,12,23.24v14.76H8V56h30v32h8V56c0-4.42-3.58-7.99-8-8H8c-4.42,0-7.99,3.58-8,8V212c0,2.21,1.79,4,4,4H252c2.21,0,4-1.79,4-4v-61c0-2.21-1.79-4-4-4ZM176.2,60l.92,18.31c-2.05-.41-4.17-.41-6.22,0l.92-18.31h4.39Zm-10.2,34c0-4.42,3.58-8,8-8s8,3.58,8,8-3.58,8-8,8c-4.42,0-7.99-3.58-8-8Zm4,15.47c2.62,.7,5.38,.7,8,0v4.53h-8v-4.53Zm-108-13.47v-12h16v12h-16Zm-28,58c3.78,0,8,6.84,8,16s-4.22,16-8,16-8-6.84-8-16,4.22-16,8-16Zm189.37-52.06c.16,.03,.32,.04,.48,.05l12.38,16.02h-24.66l11.81-16.06Zm-19.37,53.06c2.21,0,4-1.79,4-4v-25h32v25c0,2.21,1.79,4,4,4h4v53h-14v-28c0-2.21-1.79-4-4-4h-20c-2.21,0-4,1.79-4,4v28h-14v-53h12Zm-54-11h6v64h-6v-64Zm14,64V124h20v84h-20Zm50,0v-24h12v24h-12Z"/>
    <path class="cls-1" d="M130,96h-12.7c.46,1.28,.69,2.64,.7,4v4h12c2.21,0,4-1.79,4-4s-1.79-4-4-4Zm0,16h-12v8h12c2.21,0,4-1.79,4-4s-1.79-4-4-4Zm0,16h-12v8h12c2.21,0,4-1.79,4-4s-1.79-4-4-4Zm0,16h-12v8h12c2.21,0,4-1.79,4-4s-1.79-4-4-4Zm0,16h-12v8h12c2.21,0,4-1.79,4-4s-1.79-4-4-4Zm0,16h-12v8h12c2.21,0,4-1.79,4-4s-1.79-4-4-4Zm0,16h-12v8h12c2.21,0,4-1.79,4-4s-1.79-4-4-4Zm-44-32h-29.11c.59,2.63,.94,5.31,1.04,8h28.07c2.21,0,4-1.79,4-4s-1.79-4-4-4Zm0,16h-28.4c-.35,2.72-.98,5.4-1.87,8h30.27c2.21,0,4-1.79,4-4s-1.79-4-4-4Zm-32,24h32c2.21,0,4-1.79,4-4s-1.79-4-4-4H54c-2.21,0-4,1.79-4,4s1.79,4,4,4Z"/>
  </g>
</svg>