<?xml version="1.0" encoding="UTF-8"?>
<svg id="SvgjsSvg1011" xmlns="http://www.w3.org/2000/svg" viewBox="0 0 213.92 235.66">
  <defs>
    <style>
      .cls-1 {
        fill: #5c2e63;
      }
    </style>
  </defs>
  <g id="SvgjsG1013">
    <path class="cls-1" d="M106.96,201.18c-52.05,0-94.24-42.19-94.24-94.24S54.91,12.7,106.96,12.7s94.24,42.19,94.24,94.24h0c-.06,52.02-42.22,94.18-94.24,94.24Zm0-184.46c-49.84,0-90.24,40.4-90.24,90.24s40.4,90.24,90.24,90.24,90.24-40.4,90.24-90.24h0c-.06-49.82-40.42-90.18-90.24-90.24Zm0,172.46c-45.42,0-82.24-36.82-82.24-82.24,0-45.42,36.82-82.24,82.24-82.24,45.42,0,82.24,36.82,82.24,82.24h0c-.04,45.4-36.84,82.2-82.24,82.24Zm0-160.48c-43.21,0-78.24,35.03-78.24,78.24s35.03,78.24,78.24,78.24,78.24-35.03,78.24-78.24h0c-.06-43.18-35.06-78.18-78.24-78.22v-.02Z"/>
    <path class="cls-1" d="M106.96,16.72c-4.62,0-8.36-3.74-8.36-8.36S102.34,0,106.96,0c4.62,0,8.36,3.74,8.36,8.36h0c-.01,4.61-3.75,8.35-8.36,8.36Zm0-12.74c-2.41,0-4.36,1.95-4.36,4.36s1.95,4.36,4.36,4.36,4.36-1.95,4.36-4.36c-.01-2.4-1.96-4.35-4.36-4.36Zm69.72,41.62c-4.62,.05-8.4-3.64-8.46-8.26-.03-2.26,.86-4.43,2.46-6.02h0c3.27-3.26,8.56-3.25,11.82,.02s3.25,8.56-.02,11.82c-1.54,1.54-3.63,2.41-5.8,2.44Zm-3.08-11.46c-1.7,1.71-1.69,4.47,.01,6.17,1.71,1.7,4.47,1.69,6.17-.01,1.69-1.7,1.69-4.45,0-6.15-1.71-1.7-4.47-1.7-6.18,0ZM37.24,185.02c-4.62,.05-8.4-3.64-8.46-8.26-.03-2.26,.86-4.43,2.46-6.02h0c3.27-3.26,8.56-3.25,11.82,.02,3.26,3.27,3.25,8.56-.02,11.82-1.54,1.54-3.63,2.41-5.8,2.44Zm-3.08-11.44c-1.7,1.71-1.69,4.47,.01,6.17,1.71,1.7,4.47,1.69,6.17-.01,1.69-1.7,1.69-4.45,0-6.15-1.73-1.65-4.45-1.65-6.18,0Zm171.4-58.26c-4.62,0-8.36-3.74-8.36-8.36s3.74-8.36,8.36-8.36,8.36,3.74,8.36,8.36c-.01,4.61-3.75,8.35-8.36,8.36Zm0-12.74c-2.41,0-4.36,1.95-4.36,4.36s1.95,4.36,4.36,4.36,4.36-1.95,4.36-4.36c-.01-2.4-1.96-4.35-4.36-4.36ZM8.36,115.32c-4.62,0-8.36-3.74-8.36-8.36s3.74-8.36,8.36-8.36,8.36,3.74,8.36,8.36h0c-.01,4.61-3.75,8.35-8.36,8.36Zm0-12.74c-2.41,0-4.36,1.95-4.36,4.36,0,2.41,1.95,4.36,4.36,4.36s4.36-1.95,4.36-4.36h0c-.01-2.4-1.96-4.35-4.36-4.36Zm168.32,82.46c-4.62-.05-8.32-3.84-8.26-8.46,.05-4.62,3.84-8.32,8.46-8.26,2.18,.03,4.26,.9,5.8,2.44h0c3.27,3.26,3.28,8.55,.02,11.82-1.59,1.6-3.76,2.48-6.02,2.46Zm0-12.74c-2.41,0-4.36,1.95-4.37,4.35,0,2.41,1.95,4.36,4.35,4.37s4.36-1.95,4.37-4.35c0-1.16-.46-2.27-1.27-3.09h0c-.82-.82-1.92-1.28-3.08-1.28ZM37.24,45.6c-4.62-.05-8.32-3.84-8.26-8.46,.05-4.62,3.84-8.32,8.46-8.26,2.18,.03,4.26,.9,5.8,2.44h0c3.27,3.26,3.28,8.55,.02,11.82-1.59,1.6-3.76,2.48-6.02,2.46Zm0-12.72c-2.41,0-4.36,1.95-4.37,4.35,0,2.41,1.95,4.36,4.35,4.37,2.41,0,4.36-1.95,4.37-4.35,0-1.16-.46-2.27-1.27-3.09-.81-.83-1.92-1.29-3.08-1.3v.02Zm107.42-8.66c-4.62,0-8.35-3.76-8.34-8.37,0-1.1,.22-2.19,.64-3.21h0c1.77-4.27,6.66-6.29,10.92-4.52,4.27,1.77,6.29,6.66,4.52,10.92-1.29,3.12-4.34,5.16-7.73,5.16l-.02,.02Zm-4-10c-.91,2.23,.17,4.77,2.4,5.68,2.23,.91,4.77-.17,5.68-2.4,.91-2.23-.17-4.77-2.4-5.68-2.23-.91-4.77,.14-5.7,2.36l.02,.04ZM69.24,206.42c-4.62,0-8.36-3.75-8.36-8.36,0-1.1,.22-2.18,.64-3.2h0c1.77-4.27,6.66-6.29,10.92-4.52,4.27,1.77,6.29,6.66,4.52,10.92-1.29,3.12-4.34,5.16-7.73,5.16Zm0-12.74c-1.75,.02-3.33,1.08-4,2.7h0c-.92,2.23,.15,4.77,2.37,5.69s4.77-.15,5.69-2.37c.92-2.23-.15-4.77-2.37-5.69-.54-.22-1.11-.33-1.69-.33Zm-5.88,2h0ZM198.06,77.56c-4.62-.09-8.28-3.91-8.19-8.53,.07-3.24,2-6.16,4.97-7.47h0c4.22-1.87,9.16,.03,11.03,4.25s-.03,9.16-4.25,11.03c-1.12,.5-2.34,.74-3.56,.72Zm0-12.74c-.57,0-1.13,.12-1.66,.34h0c-2.22,.93-3.26,3.49-2.33,5.71,.93,2.22,3.49,3.26,5.71,2.33s3.26-3.49,2.33-5.71c-.68-1.63-2.28-2.68-4.05-2.67Zm-2.44-1.52h0ZM15.88,153.06c-4.63,0-8.39-3.74-8.39-8.37,0-4.63,3.74-8.39,8.37-8.39,4.63,0,8.39,3.74,8.39,8.37,0,3.39-2.04,6.45-5.17,7.75-1.01,.42-2.1,.64-3.2,.64Zm0-12.74c-.58,0-1.15,.12-1.68,.34h0c-2.21,.93-3.25,3.47-2.32,5.68,.93,2.21,3.47,3.25,5.68,2.32,2.21-.93,3.25-3.47,2.32-5.68-.68-1.61-2.26-2.66-4-2.66Zm-2.44-1.52h0Zm184.6,14.22c-4.62,.09-8.43-3.57-8.53-8.19-.09-4.62,3.57-8.43,8.19-8.53,1.22-.02,2.44,.22,3.56,.72h0c4.22,1.87,6.12,6.81,4.25,11.03-1.32,2.97-4.23,4.9-7.47,4.97Zm0-12.74c-2.42-.02-4.39,1.93-4.41,4.35-.02,2.42,1.93,4.39,4.35,4.41,2.42,.02,4.39-1.93,4.41-4.35,.01-1.78-1.05-3.39-2.69-4.07h0c-.52-.21-1.08-.32-1.64-.32l-.02-.02ZM15.86,77.6c-4.62-.02-8.34-3.78-8.32-8.4,.02-4.62,3.78-8.34,8.4-8.32,1.07,0,2.13,.22,3.12,.62h0c4.26,1.8,6.26,6.72,4.46,10.98-1.3,3.08-4.31,5.1-7.66,5.12Zm0-12.74c-2.41-.02-4.37,1.92-4.39,4.33-.02,2.41,1.92,4.37,4.33,4.39,2.41,.02,4.37-1.92,4.39-4.33,.01-1.77-1.04-3.36-2.67-4.05h0c-.53-.22-1.09-.34-1.66-.34ZM144.72,206.4c-4.62,0-8.36-3.75-8.35-8.37s3.75-8.36,8.37-8.35c3.37,0,6.41,2.03,7.71,5.14h0c1.78,4.26-.23,9.16-4.49,10.93-1.02,.43-2.12,.65-3.23,.65Zm0-12.74c-2.41-.02-4.37,1.92-4.39,4.33s1.92,4.37,4.33,4.39,4.37-1.92,4.39-4.33c0-.58-.11-1.16-.33-1.69-.67-1.63-2.26-2.7-4.02-2.7h.02ZM69.22,24.22c-4.62-.09-8.28-3.91-8.19-8.53,.07-3.24,2-6.16,4.97-7.47,4.22-1.87,9.16,.03,11.03,4.25,1.87,4.22-.03,9.16-4.25,11.03-1.12,.5-2.34,.74-3.56,.72Zm0-12.74c-2.42-.02-4.4,1.92-4.42,4.33-.02,2.42,1.92,4.4,4.33,4.42,2.42,.02,4.4-1.92,4.42-4.33,0-.59-.11-1.18-.33-1.72h0c-.67-1.62-2.25-2.68-4-2.7Zm37.74,104.82c-5.16,0-9.34-4.18-9.34-9.34s4.18-9.34,9.34-9.34,9.34,4.18,9.34,9.34h0c-.01,5.15-4.19,9.33-9.34,9.34Zm0-14.7c-2.95,0-5.34,2.39-5.34,5.34s2.39,5.34,5.34,5.34,5.34-2.39,5.34-5.34h0c-.01-2.94-2.4-5.33-5.34-5.34Z"/>
    <path class="cls-1" d="M106.96,16.72c-4.62,0-8.36-3.74-8.36-8.36S102.34,0,106.96,0c4.62,0,8.36,3.74,8.36,8.36h0c-.01,4.61-3.75,8.35-8.36,8.36Zm0-12.74c-2.41,0-4.36,1.95-4.36,4.36s1.95,4.36,4.36,4.36,4.36-1.95,4.36-4.36c-.01-2.4-1.96-4.35-4.36-4.36Zm69.72,41.62c-4.62,.05-8.4-3.64-8.46-8.26-.03-2.26,.86-4.43,2.46-6.02h0c3.27-3.26,8.56-3.25,11.82,.02s3.25,8.56-.02,11.82c-1.54,1.54-3.63,2.41-5.8,2.44Zm-3.08-11.46c-1.7,1.71-1.69,4.47,.01,6.17,1.71,1.7,4.47,1.69,6.17-.01,1.69-1.7,1.69-4.45,0-6.15-1.71-1.7-4.47-1.7-6.18,0ZM37.24,185.02c-4.62,.05-8.4-3.64-8.46-8.26-.03-2.26,.86-4.43,2.46-6.02h0c3.27-3.26,8.56-3.25,11.82,.02,3.26,3.27,3.25,8.56-.02,11.82-1.54,1.54-3.63,2.41-5.8,2.44Zm-3.08-11.44c-1.7,1.71-1.69,4.47,.01,6.17,1.71,1.7,4.47,1.69,6.17-.01,1.69-1.7,1.69-4.45,0-6.15-1.73-1.65-4.45-1.65-6.18,0Zm171.4-58.26c-4.62,0-8.36-3.74-8.36-8.36s3.74-8.36,8.36-8.36,8.36,3.74,8.36,8.36c-.01,4.61-3.75,8.35-8.36,8.36Zm0-12.74c-2.41,0-4.36,1.95-4.36,4.36s1.95,4.36,4.36,4.36,4.36-1.95,4.36-4.36c-.01-2.4-1.96-4.35-4.36-4.36ZM8.36,115.32c-4.62,0-8.36-3.74-8.36-8.36s3.74-8.36,8.36-8.36,8.36,3.74,8.36,8.36h0c-.01,4.61-3.75,8.35-8.36,8.36Zm0-12.74c-2.41,0-4.36,1.95-4.36,4.36,0,2.41,1.95,4.36,4.36,4.36s4.36-1.95,4.36-4.36h0c-.01-2.4-1.96-4.35-4.36-4.36Zm168.32,82.46c-4.62-.05-8.32-3.84-8.26-8.46,.05-4.62,3.84-8.32,8.46-8.26,2.18,.03,4.26,.9,5.8,2.44h0c3.27,3.26,3.28,8.55,.02,11.82-1.59,1.6-3.76,2.48-6.02,2.46Zm0-12.74c-2.41,0-4.36,1.95-4.37,4.35,0,2.41,1.95,4.36,4.35,4.37s4.36-1.95,4.37-4.35c0-1.16-.46-2.27-1.27-3.09h0c-.82-.82-1.92-1.28-3.08-1.28ZM37.24,45.6c-4.62-.05-8.32-3.84-8.26-8.46,.05-4.62,3.84-8.32,8.46-8.26,2.18,.03,4.26,.9,5.8,2.44h0c3.27,3.26,3.28,8.55,.02,11.82-1.59,1.6-3.76,2.48-6.02,2.46Zm0-12.72c-2.41,0-4.36,1.95-4.37,4.35,0,2.41,1.95,4.36,4.35,4.37,2.41,0,4.36-1.95,4.37-4.35,0-1.16-.46-2.27-1.27-3.09-.81-.83-1.92-1.29-3.08-1.3v.02Zm107.42-8.66c-4.62,0-8.35-3.76-8.34-8.37,0-1.1,.22-2.19,.64-3.21h0c1.77-4.27,6.66-6.29,10.92-4.52,4.27,1.77,6.29,6.66,4.52,10.92-1.29,3.12-4.34,5.16-7.73,5.16l-.02,.02Zm-4-10c-.91,2.23,.17,4.77,2.4,5.68,2.23,.91,4.77-.17,5.68-2.4,.91-2.23-.17-4.77-2.4-5.68-2.23-.91-4.77,.14-5.7,2.36l.02,.04ZM69.24,206.42c-4.62,0-8.36-3.75-8.36-8.36,0-1.1,.22-2.18,.64-3.2h0c1.77-4.27,6.66-6.29,10.92-4.52,4.27,1.77,6.29,6.66,4.52,10.92-1.29,3.12-4.34,5.16-7.73,5.16Zm0-12.74c-1.75,.02-3.33,1.08-4,2.7h0c-.92,2.23,.15,4.77,2.37,5.69s4.77-.15,5.69-2.37c.92-2.23-.15-4.77-2.37-5.69-.54-.22-1.11-.33-1.69-.33Zm-5.88,2h0ZM198.06,77.56c-4.62-.09-8.28-3.91-8.19-8.53,.07-3.24,2-6.16,4.97-7.47h0c4.22-1.87,9.16,.03,11.03,4.25s-.03,9.16-4.25,11.03c-1.12,.5-2.34,.74-3.56,.72Zm0-12.74c-.57,0-1.13,.12-1.66,.34h0c-2.22,.93-3.26,3.49-2.33,5.71,.93,2.22,3.49,3.26,5.71,2.33s3.26-3.49,2.33-5.71c-.68-1.63-2.28-2.68-4.05-2.67Zm-2.44-1.52h0ZM15.88,153.06c-4.63,0-8.39-3.74-8.39-8.37,0-4.63,3.74-8.39,8.37-8.39,4.63,0,8.39,3.74,8.39,8.37,0,3.39-2.04,6.45-5.17,7.75-1.01,.42-2.1,.64-3.2,.64Zm0-12.74c-.58,0-1.15,.12-1.68,.34h0c-2.21,.93-3.25,3.47-2.32,5.68,.93,2.21,3.47,3.25,5.68,2.32,2.21-.93,3.25-3.47,2.32-5.68-.68-1.61-2.26-2.66-4-2.66Zm-2.44-1.52h0Zm184.6,14.22c-4.62,.09-8.43-3.57-8.53-8.19-.09-4.62,3.57-8.43,8.19-8.53,1.22-.02,2.44,.22,3.56,.72h0c4.22,1.87,6.12,6.81,4.25,11.03-1.32,2.97-4.23,4.9-7.47,4.97Zm0-12.74c-2.42-.02-4.39,1.93-4.41,4.35-.02,2.42,1.93,4.39,4.35,4.41,2.42,.02,4.39-1.93,4.41-4.35,.01-1.78-1.05-3.39-2.69-4.07h0c-.52-.21-1.08-.32-1.64-.32l-.02-.02ZM15.86,77.6c-4.62-.02-8.34-3.78-8.32-8.4,.02-4.62,3.78-8.34,8.4-8.32,1.07,0,2.13,.22,3.12,.62h0c4.26,1.8,6.26,6.72,4.46,10.98-1.3,3.08-4.31,5.1-7.66,5.12Zm0-12.74c-2.41-.02-4.37,1.92-4.39,4.33-.02,2.41,1.92,4.37,4.33,4.39,2.41,.02,4.37-1.92,4.39-4.33,.01-1.77-1.04-3.36-2.67-4.05h0c-.53-.22-1.09-.34-1.66-.34ZM144.72,206.4c-4.62,0-8.36-3.75-8.35-8.37s3.75-8.36,8.37-8.35c3.37,0,6.41,2.03,7.71,5.14h0c1.78,4.26-.23,9.16-4.49,10.93-1.02,.43-2.12,.65-3.23,.65Zm0-12.74c-2.41-.02-4.37,1.92-4.39,4.33s1.92,4.37,4.33,4.39,4.37-1.92,4.39-4.33c0-.58-.11-1.16-.33-1.69-.67-1.63-2.26-2.7-4.02-2.7h.02ZM69.22,24.22c-4.62-.09-8.28-3.91-8.19-8.53,.07-3.24,2-6.16,4.97-7.47,4.22-1.87,9.16,.03,11.03,4.25,1.87,4.22-.03,9.16-4.25,11.03-1.12,.5-2.34,.74-3.56,.72Zm0-12.74c-2.42-.02-4.4,1.92-4.42,4.33-.02,2.42,1.92,4.4,4.33,4.42,2.42,.02,4.4-1.92,4.42-4.33,0-.59-.11-1.18-.33-1.72h0c-.67-1.62-2.25-2.68-4-2.7Z"/>
    <path class="cls-1" d="M106.96,201.18c-52.05,0-94.24-42.19-94.24-94.24S54.91,12.7,106.96,12.7s94.24,42.19,94.24,94.24h0c-.06,52.02-42.22,94.18-94.24,94.24Zm0-184.46c-49.84,0-90.24,40.4-90.24,90.24s40.4,90.24,90.24,90.24,90.24-40.4,90.24-90.24h0c-.06-49.82-40.42-90.18-90.24-90.24Z"/>
    <path class="cls-1" d="M106.96,189.18c-45.42,0-82.24-36.82-82.24-82.24,0-45.42,36.82-82.24,82.24-82.24,45.42,0,82.24,36.82,82.24,82.24h0c-.04,45.4-36.84,82.2-82.24,82.24Zm0-160.48c-43.21,0-78.24,35.03-78.24,78.24s35.03,78.24,78.24,78.24,78.24-35.03,78.24-78.24h0c-.06-43.18-35.06-78.18-78.24-78.22v-.02Z"/>
    <path class="cls-1" d="M106.96,116.3c-5.16,0-9.34-4.18-9.34-9.34s4.18-9.34,9.34-9.34,9.34,4.18,9.34,9.34h0c-.01,5.15-4.19,9.33-9.34,9.34Zm0-14.7c-2.95,0-5.34,2.39-5.34,5.34s2.39,5.34,5.34,5.34,5.34-2.39,5.34-5.34h0c-.01-2.94-2.4-5.33-5.34-5.34Z"/>
    <path class="cls-1" d="M123.6,223.02c-1,.01-1.85-.71-2-1.7l-14.64-94.06-14.68,94c-.17,1.1-1.21,1.86-2.31,1.69s-1.86-1.21-1.69-2.31l16.68-106.66c0-1.1,.9-2,2-2s2,.9,2,2l16.66,106.72c.17,1.09-.57,2.11-1.66,2.28l-.36,.04ZM113.26,28.84c-.75,0-1.44-.42-1.78-1.08l-4.52-8.7-4.52,8.76c-.55,.96-1.78,1.29-2.74,.74-.96-.55-1.29-1.78-.74-2.74h0l6.22-12c.5-.98,1.71-1.37,2.69-.87,.37,.19,.68,.49,.87,.87l6.22,12c.51,.98,.12,2.19-.86,2.7-.29,.15-.6,.22-.92,.22l.08,.1Zm54.8,27.92c-1.1,.05-2.04-.8-2.09-1.91-.01-.24,.02-.47,.09-.69l2.96-9.36-9.28,3.02c-1.05,.33-2.18-.26-2.51-1.31-.33-1.05,.26-2.18,1.31-2.51l13.04-4.18c1.06-.33,2.17,.27,2.5,1.32,.12,.38,.12,.79,0,1.18l-4.12,13.04c-.26,.83-1.03,1.4-1.9,1.4ZM41.74,174.16c-1.1,.05-2.04-.8-2.09-1.91-.01-.24,.02-.47,.09-.69l4.12-13.02c.33-1.05,1.46-1.64,2.51-1.31,1.05,.33,1.64,1.46,1.31,2.51l-2.96,9.36,9.36-2.96c1.05-.33,2.18,.26,2.51,1.31,.33,1.05-.26,2.18-1.31,2.51l-13.02,4.12c-.17,.05-.34,.08-.52,.08Zm145.32-58.9c-1.1,0-2-.89-2.01-1.99,0-.75,.42-1.44,1.09-1.79l8.7-4.52-8.7-4.52c-1.01-.44-1.48-1.61-1.04-2.63,.44-1.01,1.61-1.48,2.63-1.04,.09,.04,.17,.08,.26,.13l12.12,6.3c.98,.51,1.35,1.72,.84,2.7-.19,.36-.48,.65-.84,.84l-12.12,6.3c-.28,.15-.6,.22-.92,.22Zm-160.2,0c-.32,0-.64-.07-.92-.22l-12.12-6.3c-.98-.51-1.35-1.72-.84-2.7,.19-.36,.48-.65,.84-.84l12.12-6.3c.94-.58,2.17-.28,2.75,.66,.58,.94,.28,2.17-.66,2.75-.08,.05-.17,.09-.26,.13l-8.7,4.52,8.7,4.52c.98,.5,1.37,1.71,.87,2.69-.34,.67-1.03,1.09-1.79,1.09h0Zm145.32,58.9c-.2,.03-.4,.03-.6,0l-13.02-4.12c-1.05-.33-1.64-1.46-1.31-2.51,.33-1.05,1.46-1.64,2.51-1.31l9.36,2.96-2.96-9.36c-.33-1.05,.26-2.18,1.31-2.51,1.05-.33,2.18,.26,2.51,1.31l4.12,13.02c.33,1.05-.25,2.18-1.31,2.51-.22,.07-.46,.1-.69,.09l.08-.08ZM45.86,56.76c-.91,.04-1.73-.53-2-1.4l-4.12-13.02c-.36-1.04,.2-2.18,1.24-2.54,.44-.15,.92-.14,1.36,.02l13.02,4.12c1.05,.33,1.64,1.46,1.31,2.51-.33,1.05-1.46,1.64-2.51,1.31l-9.36-2.96,2.96,9.36c.33,1.05-.25,2.18-1.31,2.51-.22,.07-.46,.1-.69,.09h.1Zm97.58-19.4c-1.04,0-1.91-.79-2-1.82l-.84-9.72-7.52,6.32c-.85,.71-2.11,.6-2.82-.24-.71-.84-.6-2.11,.24-2.82l10.46-8.88c.85-.71,2.11-.6,2.82,.24,.27,.32,.43,.71,.46,1.12l1.18,13.62c.09,1.1-.72,2.06-1.82,2.16l-.16,.02ZM71.66,194.16c-1.04,0-1.91-.79-2-1.82l-1.18-13.62c-.09-1.1,.73-2.08,1.83-2.17s2.08,.73,2.17,1.83l.86,9.78,7.5-6.34c.84-.71,2.11-.6,2.82,.24,.71,.85,.6,2.11-.24,2.82h0l-10.46,8.8c-.36,.31-.82,.48-1.3,.48Zm111.72-110.04c-1.1,0-1.99-.91-1.98-2.02,0-.46,.17-.91,.46-1.26l6.32-7.52-9.78-.86c-1.1-.09-1.92-1.07-1.83-2.17s1.07-1.92,2.17-1.83l13.62,1.18c1.1,.09,1.92,1.06,1.82,2.16-.04,.41-.2,.8-.46,1.12l-8.76,10.48c-.39,.47-.97,.73-1.58,.72ZM35.36,145.42h-.18l-13.62-1.18c-1.1-.09-1.92-1.06-1.82-2.16,.04-.41,.2-.8,.46-1.12l8.76-10.48c.71-.85,1.98-.95,2.82-.24,.84,.71,.95,1.98,.24,2.82h0l-6.26,7.52,9.78,.86c1.1,.05,1.96,.99,1.91,2.09s-.99,1.96-2.09,1.91v-.02Zm143.2,.02c-1.1,.05-2.04-.81-2.09-1.91s.81-2.04,1.91-2.09l9.78-.86-6.32-7.52c-.71-.86-.58-2.13,.28-2.84s2.13-.58,2.84,.28l8.78,10.46c.71,.85,.6,2.11-.24,2.82-.32,.27-.71,.43-1.12,.46l-13.62,1.18-.2,.02ZM30.54,84.1c-.59,0-1.16-.26-1.54-.72l-8.78-10.46c-.71-.85-.6-2.11,.24-2.82,.32-.27,.71-.43,1.12-.46l13.62-1.18c1.1-.09,2.08,.73,2.17,1.83,.09,1.1-.73,2.08-1.83,2.17l-9.78,.86,6.32,7.52c.71,.85,.59,2.11-.26,2.82-.35,.3-.8,.46-1.26,.46l-.02-.02Zm111.7,110.06c-.47,0-.92-.16-1.28-.46l-10.46-8.78c-.86-.71-.97-1.98-.26-2.84s1.98-.97,2.84-.26l7.52,6.32,.86-9.78c.09-1.1,1.07-1.92,2.17-1.83s1.92,1.07,1.83,2.17l-1.18,13.62c-.09,1.03-.96,1.82-2,1.82l-.04,.02ZM70.48,37.34h-.18c-1.1-.1-1.91-1.06-1.82-2.16l1.18-13.62c.09-1.1,1.05-1.92,2.15-1.84,.43,.03,.83,.2,1.15,.48l10.46,8.78c.84,.71,.95,1.98,.24,2.82-.71,.84-1.98,.95-2.82,.24l-7.5-6.22-.86,9.78c-.13,1-.99,1.75-2,1.74Z"/>
    <path class="cls-1" d="M170.96,235.66H42.96c-1.1,0-2-.9-2-2v-12.64c0-1.1,.9-2,2-2H170.96c1.1,0,2,.9,2,2v12.64c0,1.1-.9,2-2,2Zm-126-4h124v-8.64H44.96v8.64Z"/>
  </g>
</svg>