<?xml version="1.0" encoding="UTF-8"?>
<svg id="SvgjsSvg1054" xmlns="http://www.w3.org/2000/svg" viewBox="0 0 255.92 243.44">
  <defs>
    <style>
      .cls-1 {
        fill: #5c2e63;
      }
    </style>
  </defs>
  <g id="SvgjsG1008">
    <path class="cls-1" d="M253.96,109.28h-4V54.44c.02-1.08-.84-1.98-1.92-2-.01,0-.03,0-.04,0h-10.08V25c.06-5.49-3.81-10.24-9.2-11.28V5.72c0-1.1-.9-2-2-2s-2,.9-2,2V13.72c-2.27,.43-4.35,1.54-5.96,3.2-2.09,2.14-3.27,5.01-3.28,8v27.44h-10c-1.08,0-1.96,.88-1.96,1.96,0,.01,0,.03,0,.04v54.92h-8v-17.12c0-1.1-.9-2-2-2h-4c-1.08-32.48-27.16-58.56-59.64-59.64v-11.4c5.13-1.81,7.82-7.43,6.01-12.55-1.38-3.92-5.09-6.55-9.25-6.57-1.1,0-2,.9-2,2s.9,2,2,2c3.31,0,6,2.69,6,6s-2.69,6-6,6c-2.27,.02-4.34-1.3-5.28-3.36-.47-.98-1.66-1.39-2.64-.92-.98,.47-1.39,1.66-.92,2.64,1.51,3.11,4.55,5.19,8,5.48v10.68c-32.43,1.14-58.43,27.21-59.48,59.64h-4c-1.1,0-2,.9-2,2v17.12h-8V54.44c.02-1.08-.84-1.98-1.92-2-.01,0-.03,0-.04,0h-10.08V25c-.03-2.99-1.2-5.85-3.28-8-1.61-1.67-3.69-2.82-5.96-3.28V5.72c0-1.1-.9-2-2-2s-2,.9-2,2V13.72c-5.36,1.07-9.21,5.81-9.16,11.28v27.44H7.92c-1.08,0-1.96,.88-1.96,1.96,0,.01,0,.03,0,.04v54.84H1.96C.88,109.28,0,110.16,0,111.24c0,.01,0,.03,0,.04V241.48c0,1.08,.88,1.96,1.96,1.96H253.96c1.08,0,1.96-.88,1.96-1.96h0V111.28c.02-1.08-.84-1.98-1.92-2-.01,0-.03,0-.04,0Zm-26.6,59.2v-11.36c.3-3.97,3.75-6.94,7.72-6.64,3.55,.27,6.38,3.09,6.64,6.64v11.36h-14.36Zm7.2-22.48c-6.13,.02-11.1,4.99-11.12,11.12v11.36h-22.68v-11.36c.37-6.13-4.3-11.4-10.43-11.77-6.13-.37-11.4,4.3-11.77,10.43-.03,.44-.03,.89,0,1.33v11.36H77.28v-11.36c.37-6.13-4.3-11.4-10.43-11.77-6.13-.37-11.4,4.3-11.77,10.43-.03,.44-.03,.89,0,1.33v11.36h-22.68v-11.36c.37-6.13-4.3-11.4-10.43-11.77-6.13-.37-11.4,4.3-11.77,10.43-.03,.44-.03,.89,0,1.33v11.36H3.92v-37.92H251.92v37.92h-6.28v-11.36c0-6.13-4.95-11.1-11.08-11.12h0Zm-90.96,93.48h-31.36v-23.04c0-8.66,7.03-15.68,15.69-15.67,8.65,0,15.66,7.02,15.67,15.67v23.04Zm-15.68-42.64c-10.82,.02-19.58,8.78-19.6,19.6v23.04h-13.88v-67.08h66.96v67.08h-13.88v-23.04c-.02-10.82-8.78-19.58-19.6-19.6Zm-37.4-24.44v67.08H43.48v-67.08h47.04Zm-17.16-4h-14.36v-11.28c.3-3.97,3.75-6.94,7.72-6.64,3.55,.27,6.38,3.09,6.64,6.64v11.28Zm92,4h47v67.08h-47.04l.04-67.08Zm31.52-4h-14.4v-11.28c.3-3.97,3.75-6.94,7.72-6.64,3.55,.27,6.38,3.09,6.64,6.64l.04,11.28Zm-182.72,0v-11.28c.3-3.97,3.75-6.94,7.72-6.64,3.55,.27,6.38,3.09,6.64,6.64v11.36l-14.36-.08ZM221.6,19.68c1.37-1.29,3.2-1.99,5.08-1.96h0c4.05,.09,7.27,3.43,7.2,7.48v6.92h-14.4v-7.12c.03-1.97,.78-3.87,2.12-5.32Zm-2.12,16.36h14.52v16.4h-14.52v-16.4Zm-12,20.36h38.6v52.88h-8v-18.32c-.37-6.17-5.67-10.88-11.85-10.51-5.66,.34-10.17,4.85-10.51,10.51v18.32h-8l-.24-52.88Zm12,52.88v-18.32c-.3-3.99,2.69-7.46,6.68-7.76,3.99-.3,7.46,2.69,7.76,6.68,.03,.36,.03,.72,0,1.08v18.32h-14.44Zm-33.96-19.12h-15.32c-.4-22.72-7.6-40.32-21.04-51.68,21.34,8.44,35.64,28.74,36.4,51.68h-.04ZM116.4,35.52c1.8-.36,3.64-.64,5.48-.84-8.6,9.96-9.24,32-9.68,55.48h-24.28c.56-26,10.36-44.88,28.48-54.64Zm11.52-.84c8.8,6.44,9.6,29.44,10.36,51.76v3.72h-22.16c.48-24.44,1.2-49.2,11.8-55.48Zm14.44,55.48v-4c-.72-21.56-1.44-42.04-8.84-51.68,1.4,0,2.8,.36,4.2,.6h0c18.28,9.68,28,28.64,28.6,54.76l-23.96,.32Zm-38.76-50.36c-12.48,11.4-19.12,28.52-19.68,50.36h-13.68c.77-21.72,13.65-41.18,33.36-50.36Zm-39.36,54.32h127.36v15.16H64.24v-15.16ZM29.04,17.72h0c1.89,.01,3.71,.77,5.04,2.12,1.41,1.43,2.19,3.35,2.2,5.36v6.92h-14.44v-7.12c.02-3.98,3.22-7.21,7.2-7.28Zm-7.2,18.52h14.52v16.4h-14.52v-16.4Zm-12,20.36H48.44v52.68h-8v-18.32c0-6.16-5-11.16-11.16-11.16-6.16,0-11.16,5-11.16,11.16h0v18.32H10.12l-.28-52.68Zm12,52.88v-18.52c0-4,3.24-7.24,7.24-7.24s7.24,3.24,7.24,7.24v18.32l-14.48,.2Zm39.4,4c.61,.42,1.43,.42,2.04,0H192.56c.61,.42,1.43,.42,2.04,0h57.32v13.36H3.92v-13.6l57.32,.24ZM3.92,172.4H39.52v67.08H3.92v-67.08Zm212.4,67.08v-67.08h35.6v67.08h-35.6Z"/>
  </g>
</svg>