<?xml version="1.0" encoding="UTF-8"?>
<svg id="Layer_1" data-name="Layer 1" xmlns="http://www.w3.org/2000/svg" viewBox="0 0 140.69 241.16">
  <defs>
    <style>
      .cls-1 {
        fill: #5c2e63;
      }
    </style>
  </defs>
  <path class="cls-1" d="M138.83,223.72h-11.58v-5.73c0-1.02-.83-1.86-1.86-1.86h-10.85c-4.93-16.28-10.14-34.1-12-51.16-.66-5.83-3.7-58.16-3.04-63.83,.45-3.69,.96-7.88-1.78-10.74-3.19-3.34-8.61-3.82-13.02-3.86,0-.44-.33,.27-1.71-4.8-.22-.76-.43-1.54-.69-2.3,5.49-2.54,8.9-7.55,9.63-13.56,1.75-.15,1.48-.48,15.21-7.57,1-.54,1.5-1.65,1.21-2.73-.33-1.24-1.61-2.02-2.93-1.74l-14.58,3.06c-.13-.32-.28-.63-.45-.93v-.02l9.7-9.78c.8-.82,.91-2.08,.26-2.99-.7-1.04-2.1-1.35-3.23-.76-13.85,7.48-12.82,6.88-13.06,7.09,.14-1,.01-.71-1.78-14.75-.13-1.04-.96-1.87-2.04-2.06-1.32-.22-2.58,.59-2.86,1.86l-3.01,13.43h-.06c-.32-.97-.18-.44-7.62-12.69-.52-.83-1.54-1.3-2.5-1.13-.67,.11-1.24,.48-1.61,1.04-.35,.54-.48,1.21-.32,1.84l3.1,12.84c-.26-.19-.52-.35-.82-.48l-14.77-7.12c-.93-.45-1.98-.33-2.73,.28-.52,.45-.82,1.08-.82,1.74,0,.7,.33,1.39,.91,1.87l12.26,10.04c-11.6,.28-13.71-1.09-14.93,1.13-2.45-7.64-5.62-17.01-8.16-24.43h.15c1.04,0,1.86-.82,1.86-1.86v-6.23c0-1.04-.82-1.86-1.86-1.86h-.52c1.52-3.1,1.65-6.83,1.11-9.76-.56-3.01-2.96-5.18-6.33-3.49-.44-.98-.53-5.46-5.34-9.31-.58-.46-1.37-.54-2.02-.2-.67,.35-1.04,1.04-.98,1.78,.55,7.42-10.27,7.85-7.36,18.22,.28,.98,.67,1.91,1.19,2.76-.19,.06-2.88-.44-2.88,1.86v6.23c0,1.04,.83,1.86,1.86,1.86h.74c0,.06,0,.11,.02,.17,.85,4.19,6.78,5.75,8.26,7.83,.19,.24,.24,.78,.28,1.32,.52,5.16,3.39,16.64,5.6,24.39-6.03,9.89,1.64,17.46,1.98,18.46,.23,.67-.28,9.48-.52,13.34l-.2,.28c-.41,.56-.45,1.28-.17,1.86-.42,1.67-4.15,4.39,1.08,8.81,1.77,1.44,1.64,1.45,.8,2.8-1.77,2.88-1.66,4.46,.89,7.61,.41,.5,1.09,1.34,1.09,1.65-.22,.44-2.75,1.84-2.75,3.17-.02,.02-.02,.04-.02,.06-.98,3.29,3.09,5.34,4.25,6.34,4.56,3.61,.64,11.49-.7,17.42-.98,4.16-.99,5.46-5.29,45.34-.11,1.06,.68,2.02,1.8,2.06,.74,.02,1.5-.06,2.24-.24-.58,6.83-1.22,13.73-1.91,20.57h-14.71c-1.02,0-1.86,.83-1.86,1.86v5.73H1.86c-1.04,0-1.86,.83-1.86,1.86v13.73c0,1.02,.82,1.86,1.86,1.86H138.83c1.02,0,1.86-.83,1.86-1.86v-13.73c0-1.02-.83-1.86-1.86-1.86h0Zm-88.8-7.61l13.56-43.98,3.83-2.43v27.43c0,1.02,.83,1.85,1.86,1.85,.37,0,.73-.11,1.04-.32l16.88-11.46,17.4,7.61h0c1.91,7.33,4.01,14.45,6.07,21.24-6.32-.44-34.22,.02-60.62,.06h0Zm29.91-54.59c.49-.31,.8-.84,.85-1.42l1.95-26.3c1.07,.14,1.02-.26,6.43-2.74v52.79c0,.07,.03,.13,.04,.2l-1.47-.64c-.58-.26-1.26-.19-1.79,.17l-14.83,10.07v-26.45l8.82-5.67h0Zm.68-74.98c-3.98,.05-8.75,.17-12.24-1.56,.52-1.6,1.09-3.19,1.73-4.77,3.04,.99,6.11,1.06,8.72,.43,.6,1.97,1.06,4.06,1.8,5.9Zm-12.3-11.2h-.02c-3.77-2.34-5.82-6.1-6.25-10.35-1.95-17.98,28.42-17.68,26.3-.07-.96,10.37-11.72,15.56-20.03,10.43h0Zm28.83-15.98l-5.05,2.67s-.04,.02-.06,.02c-.04-.54-.09-1.06-.19-1.58l5.29-1.11Zm-5.84-9.57l-3.06,3.08c-.3-.33-.61-.65-.95-.93l4.01-2.15Zm-11.8-7.7l.85,6.4c-.7-.15-1.43-.28-2.19-.35l1.34-6.05Zm-9.09,6.4c-.5,.09-1,.2-1.47,.35l-1.13-4.6s2.6,4.25,2.6,4.25Zm-12.13,2l4.23,2.04c-.28,.26-.52,.54-.76,.82,0,0-3.47-2.86-3.47-2.86Zm.33,9.42c-.07,.35-.13,.7-.17,1.06l-3.36-1.09,3.52,.04Zm-.28,4.93c.43,5.65,3.19,10.83,8.37,13.84-.52,1.3-1,2.62-1.45,3.93-4.23-4.47-5.11-9.77-19.11-20.02-.2-.63-.41-1.3-.61-1.98,.19,.15-.69-.18,12.8,4.23ZM17.05,29.2v-2.52h17.57v2.52H17.05Zm3.19-16.58c1.34-1.34,3.97-2.89,5.27-6.6,1.94,3.16,1.35,9.41,6.99,6.99,.17-.07,.39-.19,.41-.2,.85,.49,1.6,6.91-1.41,10.17h-10.41c-3.18-2.53-3.8-7.34-.85-10.35Zm6.99,26.14c-1.76-2.5-6.18-3.99-7.4-5.84h12.58c13.06,38.19,13.55,39.8,11.22,42.24-.87,.91-2.47,1.6-3.78,1.63-3.6,.14-5.67-9-6.86-13.62-7.48-27.1-3.4-21.2-5.75-24.41Zm7.94,60.96c4.11-6.65,8.15-9.12,5.62-11.02-2.33-1.66-3.73,2.5-5.23,4.1l.28-5.44c4.4-.04,15.9-2.64,13.63-6.31-1.96-3.01-3.97,2.62-13.97,2.62h-.02c-.85-2.41-5.02-4.91-3.67-11.35,2.7,9.01,7.98,8.07,8.16,8.18,2.3-.07,4.79-1.17,6.33-2.78,2.58-2.7,2.43-5.9,1.6-9.13,10.74,8.71,12.22,15.56,17.29,18.87,8.74,5.79,24.42-.12,29.87,5.51,1.52,1.6,1.13,4.71,.78,7.74-.71,6.06,2.35,58.62,3.02,64.69,.93,8.35,2.58,16.71,4.58,24.88h0s-11.33-4.95-11.33-4.95c.48-.34,.76-.88,.77-1.47-.33-57.74,.79-56.28-.87-57.32-1.5-.94-2.44,.5-8.98,3.38l3.79-36.66c0-.18,.05-.51-.07-.76-.15-.77-1.28-1.51-2.17-1.24-.02-.02-.02,0-.02,0-.2,0-.7,.34-.89,.46h-.04l-45.13,28.33c-.39-1.02-1.09-1.91-1.67-2.6-1.6-1.97-1.46-1.95-.61-3.32,1.28-2.1,1.05-2.58,1.13-2.84l8.18-15.6c1.15-2.16-2.13-3.89-3.28-1.73l-6.9,13.17c-.24-.2-.46-.41-.69-.59-3.01-2.55-.14-1.87,.52-6.81h0Zm.85,26.23l43.53-27.31c-11.08,13.12-23.81,25.41-37.26,39.25v-.03s0-.02,0-.02c.82-8.61-4.9-10.58-6.27-11.89Zm4.6,19h0c13.58-14.23,28.95-28.76,41.66-43.79l-2.6,25.18-23.74,18.72c-.8,.63-.94,1.8-.31,2.61,.63,.8,1.8,.94,2.61,.31l20.94-16.51-2.04,27.45-42.04,27.03c2.27-17.64,2.42-30.25,5.51-40.99h0Zm-5.08,46.17c-.32,.24-.67,.45-1.06,.61l.11-1.05,24.19-15.55-12.64,41.02h-9.75c.78-7.79,1.5-15.68,2.15-23.41,.12-1.59-1.68-2.64-3.01-1.61h0Zm-15.73,28.74H123.55v3.88H19.81v-3.88Zm117.17,17.6H3.71v-10.02H136.98v10.02Z"/>
</svg>