<?xml version="1.0" encoding="UTF-8"?>
<svg id="SvgjsSvg1054" xmlns="http://www.w3.org/2000/svg" viewBox="0 0 240 156">
  <defs>
    <style>
      .cls-1 {
        fill: #5c2e63;
      }
    </style>
  </defs>
  <g id="SvgjsG1056">
    <path class="cls-1" d="M220,64c-11.6,0-22.8,4.8-30.8,12.8-3.2-2-6.8-4-10-5.6l8.4-17.2c.8-1.2,.4-2.8,0-4-.8-1.2-2-2-3.2-2l-24.8-1.2c-6.8-.4-13.2,0-19.6,1.6-9.2-14.4-22-26.4-36.8-34.8C87.2,4.4,69.6,0,52,0c-1.2,0-2.4,.8-3.2,1.6-.8,1.2-.8,2.4-.4,3.6l12,34c-6-2.4-12-3.6-18.4-3.6H24c-1.6,0-2.8,.8-3.6,2-.8,1.2-.8,2.8,0,4l12.8,24.4c-3.6-.4-7.2-.8-10.8,0l-14.8,2c-1.6,0-2.8,1.2-3.2,2.4s-.4,2.8,.4,4l23.2,29.6h-8v8H224v-8h-10l-2-2.8,19.2-30.8c.8-1.2,.8-2.8,0-4-.4-1.6-1.6-2.4-3.2-2.4h-8Zm-61.2-9.2l18.8,.8-6,12.4c-7.6-2.8-15.6-4-23.6-4-1.6,0-2.8,.8-3.6,2s-.8,2.8,0,4l20.4,34H90.8l-2-5.2,1.2-2.4c9.2-20,27.2-34.8,48.8-39.6,6.4-2,13.2-2.4,20-2h0Zm-76.4,49.2h-14l9.6-11.6,4.4,11.6ZM98.8,20.4c13.2,7.2,24.4,17.6,32.8,30-20,6-36.4,19.6-46.4,38L57.6,8.4c14.4,.8,28.8,4.8,41.2,12Zm-57.2,23.6c8,0,15.6,2,22,6l11.6,33.2-14.4,17.6L30.8,44h10.8Zm-18,30c5.2-.8,10,0,14.8,2l7.2,13.6-9.6,12-20.4-26.4,8-1.2h0Zm26,23.2l3.6,6.8h-9.2l5.6-6.8Zm124.8,6.8l-18.8-31.6c18.4,2,35.2,12,46,27.2l2.8,4.4h-30Zm32.8-10c-3.2-4.8-7.2-8.8-11.6-12.4,6.8-6,15.2-9.6,24.4-9.6h.8l-13.6,22h0ZM16,148c4.4,0,8,3.6,8,8h8c0-4.4,3.6-8,8-8s8,3.6,8,8h8c0-7.2-4.8-13.2-11.2-15.2,1.2-2.8,4-4.8,7.2-4.8,4.4,0,8,3.6,8,8h8c0-8.8-7.2-16-16-16-7.6,0-14,5.2-15.6,12.4-3.2,.8-6.4,2.4-8.4,5.2-2.8-3.6-7.2-5.6-12-5.6-8.8,0-16,7.2-16,16H8c0-4.4,3.6-8,8-8h0Z"/>
    <path class="cls-1" d="M84,140h8c0-4.4,3.6-8,8-8,3.2,0,6,2,7.2,4.8-6.4,2-11.2,8-11.2,15.2h8c0-4.4,3.6-8,8-8s8,3.6,8,8h8c0-7.6-5.2-14-12.4-15.6-.8-3.2-2.4-6.4-5.2-8.4h103.2c-3.2,2.8-5.6,7.2-5.6,12h8c0-4.4,3.6-8,8-8s8,3.6,8,8h8c0-8.8-7.2-16-16-16v-4H20v8H89.6c-3.6,2.8-5.6,7.2-5.6,12Z"/>
    <path class="cls-1" d="M164.4,140.4c-7.2,1.6-12.4,8-12.4,15.6h8c0-4.4,3.6-8,8-8s8,3.6,8,8h8c0-4.4,3.6-8,8-8s8,3.6,8,8h8c0-7.6-5.2-14-12.4-15.6-1.6-7.2-8-12.4-15.6-12.4s-14,5.2-15.6,12.4Zm15.6-4.4c3.2,0,6,2,7.2,4.8-2.8,.8-5.2,2.4-7.2,4.8-2-2.4-4.4-4-7.2-4.8,1.2-2.8,4-4.8,7.2-4.8Z"/>
  </g>
</svg>