<?xml version="1.0" encoding="UTF-8"?>
<svg id="SvgjsSvg1001" xmlns="http://www.w3.org/2000/svg" viewBox="0 0 248 248.01">
  <defs>
    <style>
      .cls-1 {
        fill: #5c2e63;
      }
    </style>
  </defs>
  <g id="SvgjsG1008">
    <path class="cls-1" d="M244,224.01h-32v-60c0-2.21-1.79-4-4-4h-48c-2.21,0-4,1.79-4,4v28h-6.11l-5.65-96.02c6.52-.13,11.75-5.45,11.76-11.98v-4h4c2.21,0,4-1.79,4-4v-24c0-2.21-1.79-4-4-4h-4v-4c0-6.63-5.37-12-12-12h-5.23L127.75,2.6c-.77-2.07-3.08-3.12-5.15-2.35-1.09,.41-1.95,1.26-2.35,2.35l-11.02,29.41h-5.23c-6.63,0-12,5.37-12,12v4h-4c-2.21,0-4,1.79-4,4v24c0,2.21,1.79,4,4,4h4v4c.01,6.53,5.24,11.85,11.76,11.98l-5.65,96.02h-6.11v-28c0-2.21-1.79-4-4-4H40c-2.21,0-4,1.79-4,4v60H4c-2.21,0-4,1.79-4,4v16c0,2.21,1.79,4,4,4H244c2.21,0,4-1.79,4-4v-16c0-2.21-1.79-4-4-4Zm-80-56h40v56h-32v-28c0-2.21-1.79-4-4-4h-4v-24Zm0,56h-24v-24h24v24Zm-28-32c-2.21,0-4,1.79-4,4v28h-4V96.01h8.23l5.65,96h-5.88ZM124,15.4l6.23,16.61h-12.46l6.23-16.61Zm-24,28.61c0-2.21,1.79-4,4-4h40c2.21,0,4,1.79,4,4v4h-48v-4Zm-8,12h64v16H92v-16Zm8,28v-4h48v4c0,2.21-1.79,4-4,4h-40c-2.21,0-4-1.79-4-4Zm11.77,12h8.23V224.01h-4v-28c0-2.21-1.79-4-4-4h-5.88l5.65-96Zm-3.77,128h-24v-24h24v24Zm-64-56h40v24h-4c-2.21,0-4,1.79-4,4v28H44s0-56,0-56Zm196,72H8v-8H240v8Z"/>
    <rect class="cls-1" x="172" y="176.01" width="24" height="8"/>
    <rect class="cls-1" x="180" y="192.01" width="16" height="8"/>
    <rect class="cls-1" x="180" y="208.01" width="16" height="8"/>
    <rect class="cls-1" x="52" y="176.01" width="24" height="8"/>
    <rect class="cls-1" x="52" y="192.01" width="16" height="8"/>
    <rect class="cls-1" x="52" y="208.01" width="16" height="8"/>
    <rect class="cls-1" x="92" y="208.01" width="8" height="8"/>
    <rect class="cls-1" x="148" y="208.01" width="8" height="8"/>
  </g>
</svg>