<svg width="53" height="36" viewBox="0 0 53 36" fill="none" xmlns="http://www.w3.org/2000/svg">
<path d="M6.93632 29.6873C6.37449 29.6873 5.85173 29.6903 5.33046 29.6873C4.58537 29.6813 4.27141 29.3733 4.26991 28.6313C4.2654 26.6634 4.2669 24.6955 4.26991 22.7276C4.26991 21.993 4.41863 21.7962 5.1517 21.5484V4.52839C4.99247 4.51788 4.83173 4.49685 4.6725 4.49535C3.69757 4.49234 2.72264 4.49685 1.74771 4.49234C0.974071 4.48934 0.670626 4.18289 0.672128 3.39573C0.672128 2.98413 0.63908 2.56201 0.715692 2.16242C0.956045 0.894562 2.05716 0.00225331 3.35657 0.00225331C16.5534 -0.000751102 29.7503 -0.000751102 42.9456 0.00225331C44.4869 0.00225331 45.6436 1.16346 45.6601 2.69721C45.6797 4.42024 45.6061 4.49535 43.8755 4.49535C41.0454 4.49535 38.2167 4.49535 35.3415 4.49535C35.3926 4.6666 35.4241 4.8063 35.4752 4.9385C36.9038 8.53477 38.3384 12.128 39.758 15.7273C39.8902 16.0638 40.0419 16.1975 40.4295 16.2231C44.9331 16.522 48.8328 18.218 52.1076 21.3335C52.2563 21.4748 52.393 21.631 52.5372 21.7782C52.8422 22.0847 52.9623 22.4407 52.7851 22.8508C52.6063 23.2624 52.2668 23.3976 51.8312 23.3946C50.0315 23.3856 48.2319 23.3901 46.4323 23.3901C46.246 23.3901 46.0597 23.3901 45.8734 23.3901C47.5409 23.8137 48.9304 24.6414 49.9279 26.0565C50.9239 27.4716 51.3024 29.0564 50.9884 30.7479C50.3876 33.9791 47.7482 36.0972 44.541 35.9966C41.1986 35.8929 38.9528 33.599 38.4135 29.7158H19.6119C19.3355 34.1489 15.7768 36.1633 12.9106 35.9891C10.1781 35.8223 7.11959 33.7102 6.93482 29.6858L6.93632 29.6873ZM9.66432 15.2556H20.4231V4.52389H6.99941V7.19781C7.49965 7.19781 7.96533 7.19781 8.43101 7.19781C9.40444 7.19781 9.66432 7.45469 9.66432 8.4206C9.66432 10.6859 9.66432 12.9513 9.66432 15.2556ZM33.967 21.5709C33.967 20.6275 33.994 19.7472 33.955 18.8684C33.9369 18.4523 33.8618 18.0122 33.6981 17.6321C32.8253 15.6071 31.9495 13.5822 31.0076 11.5888C30.5405 10.6003 30.3001 9.61486 30.3512 8.51675C30.4128 7.19481 30.3662 5.86836 30.3662 4.5299H22.3024V8.95839C22.3775 8.97642 22.4135 8.99144 22.4481 8.99144C22.9348 8.99445 23.423 8.99294 23.9097 8.99895C24.6488 9.00646 24.9583 9.31592 24.9598 10.064C24.9643 11.6008 24.9598 13.136 24.9598 14.6728C24.9598 14.8711 24.9598 15.0679 24.9598 15.2962C25.8611 15.2962 26.6828 15.2917 27.506 15.2962C28.2466 15.3007 28.556 15.6117 28.559 16.3598C28.5635 17.8965 28.559 19.4318 28.559 20.9685C28.559 21.1668 28.559 21.3636 28.559 21.5694H33.9625L33.967 21.5709ZM20.4426 17.1319H7.00843V21.5649H20.4411V17.1319H20.4426ZM44.7543 25.1927C42.2817 25.2122 40.2612 27.2477 40.2657 29.7158C40.2702 32.1659 42.3508 34.2164 44.8024 34.1879C47.2735 34.1579 49.2955 32.0953 49.2639 29.6392C49.2324 27.1997 47.1789 25.1747 44.7558 25.1942L44.7543 25.1927ZM8.766 29.6783C8.75549 32.1089 10.7775 34.1624 13.2095 34.1909C15.6867 34.2195 17.7642 32.1584 17.7642 29.6738C17.7642 27.2477 15.7272 25.2062 13.2906 25.1912C10.8315 25.1777 8.77502 27.2147 8.7645 29.6783H8.766ZM26.7429 17.1319H22.3099V21.5649H26.7429V17.1319ZM7.00542 9.01397V15.2676H7.83614V9.01397H7.00542ZM22.3024 10.8166V15.2707H23.1376V10.8166H22.3024ZM43.6697 23.4321H40.2882V25.2273C41.2962 24.3034 42.3898 23.7055 43.6697 23.4321Z" fill="white"/>
<path d="M44.7885 26.6408C46.51 26.6513 47.826 27.9958 47.8109 29.7279C47.7974 31.4178 46.459 32.7443 44.766 32.7428C43.0475 32.7428 41.7075 31.3983 41.709 29.6783C41.7105 27.9673 43.067 26.6288 44.787 26.6408H44.7885Z" fill="white"/>
<path d="M13.2503 32.7383C11.5288 32.7323 10.2054 31.3893 10.2159 29.6603C10.2264 27.9718 11.5634 26.6409 13.2533 26.6364C14.9719 26.6319 16.3148 27.9703 16.3193 29.6918C16.3223 31.4059 14.9749 32.7443 13.2503 32.7383Z" fill="white"/>
</svg>
