<?xml version="1.0" encoding="UTF-8"?>
<svg id="Layer_1" data-name="Layer 1" xmlns="http://www.w3.org/2000/svg" viewBox="0 0 200 200">
  <defs>
    <style>
      .cls-1 {
        fill: #fbb247;
      }
    </style>
  </defs>
  <path class="cls-1" d="M122.78,107.22c.5,0,.83,0,1.16,0,10.83,0,21.65,0,32.48,0,5.65,0,10.55,3.29,12.61,8.45,2.06,5.17,.87,10.98-3.09,14.95-.14,.14-.33,.22-.59,.38,4.18,2.99,6.44,6.87,6.34,11.91-.1,5.04-2.48,8.85-6.7,11.58,3.91,4.2,5.29,9.07,3.39,14.54-1.9,5.45-5.97,8.33-11.63,9.11,.41,.73,.83,1.37,1.15,2.06,4.43,9.23-1.91,19.7-12.06,19.76-13.12,.08-26.24,.01-39.36,.02-5.43,0-10.74-.72-15.81-2.77-7.38-2.98-12.96-8.11-17.12-14.89-3.85-6.26-6.04-13.14-7.31-20.37-.97-5.5-.94-11.05-.78-16.59,.11-3.84,.33-7.69,.71-11.52,.69-6.86,3.8-12.66,8.16-17.78,5.86-6.86,11.85-13.61,17.82-20.38,4.32-4.91,8.62-9.84,13.08-14.62,3.98-4.27,5.49-9.32,5.4-15.04-.05-2.97,.19-5.92,1.2-8.75,1.08-3,2.88-5.28,6.11-6.02,2.45-.56,4.74,.08,6.89,1.23,3.98,2.15,6.78,5.47,8.95,9.42,2.02,3.67,2.4,7.67,2.57,11.74,.38,8.74-2.23,16.61-6.79,23.88-1.91,3.05-4.11,5.92-6.18,8.86-.16,.22-.32,.44-.6,.83Zm13.93,27.26c-1.08,0-2.15,0-3.23,0-6.18,0-12.35,0-18.53,0-1.13,0-2.07-.35-2.65-1.38-1.07-1.87,.24-4.07,2.47-4.09,3.48-.04,6.97-.03,10.46-.03,10.46,0,20.91,0,31.37,0,5.03,0,8.76-4.49,7.95-9.52-.65-3.99-4.08-6.83-8.29-6.83-13.04,0-26.07,0-39.11,0-1.28,0-2.21-.47-2.72-1.65-.5-1.16-.12-2.14,.63-3.09,2.74-3.44,5.58-6.81,8.12-10.39,5.87-8.29,9.01-17.4,7.5-27.78-.79-5.45-3.61-9.56-8.24-12.31-3.13-1.86-5.18-.92-5.87,2.71-.46,2.43-.6,4.96-.64,7.45-.08,6.5-2.18,12.11-6.55,16.91-5.51,6.06-10.95,12.19-16.37,18.34-4.92,5.59-9.84,11.2-14.63,16.9-4.19,4.99-6.74,10.77-7.11,17.37-.27,4.79-.41,9.58-.48,14.38-.13,8.26,1.55,16.16,4.98,23.65,2.25,4.91,5.32,9.22,9.52,12.62,5.82,4.73,12.58,6.72,19.92,6.75,13.52,.07,27.03,.02,40.55,.02,4.59,0,8.21-3.63,8.23-8.21,.02-4.52-3.65-8.15-8.27-8.15-10.2,0-20.4,0-30.6,0-.25,0-.51,.01-.76-.01-1.27-.12-2.29-1.14-2.42-2.39-.14-1.4,.62-2.61,1.93-2.96,.49-.13,1.01-.17,1.51-.17,13.49,0,26.98,.03,40.46,.03,4.87,0,8.7-4.61,7.88-9.45-.69-4.05-3.95-6.86-8.05-6.87-13.49-.01-26.98,0-40.46,0-.28,0-.57,.02-.85-.01-1.23-.12-2.25-1.1-2.41-2.31-.18-1.31,.47-2.54,1.68-2.96,.52-.18,1.11-.2,1.67-.2,14.22,0,28.45,.02,42.67,.02,4.7,0,8.44-3.68,8.39-8.24-.04-4.6-3.69-8.14-8.39-8.14-7.08,0-14.17,0-21.25,0Z"/>
  <path class="cls-1" d="M64.86,118.18c-.85,1.67-1.67,3.27-2.53,4.97-.26-.12-.54-.23-.8-.37-9.85-5.18-18.83-11.6-26.81-19.42-13.18-12.91-22.77-28.15-28.7-45.74C2.4,46.95,.39,35.97,.05,24.69c-.11-3.61,0-7.24,.1-10.85,.09-3.1,2.03-4.65,5.07-4.3,13.95,1.6,27.71,.62,41.28-3.05,5.79-1.56,11.41-3.6,16.86-6.11,1.1-.51,2.05-.51,3.15,0,13.64,6.21,27.92,9.52,42.88,9.86,5.19,.12,10.36-.13,15.52-.73,.2-.02,.39-.04,.59-.05,2.82-.11,3.94,.81,4.16,3.65,.48,6.26,.43,12.53-.31,18.76-.54,4.56-1.38,9.08-2.09,13.62-.04,.28-.14,.54-.2,.77-1.76-.55-3.46-1.08-5.29-1.65,1.81-8.29,2.72-16.75,2.6-25.55-.36,.32-.56,.49-.75,.68-18.58,18.84-37.15,37.68-55.73,56.52-1.59,1.61-3.22,1.61-4.82,0-11.24-11.4-22.49-22.8-33.73-34.2-1.36-1.37-1.47-3.22-.29-4.45,1.21-1.26,3.07-1.18,4.45,.22,10.2,10.34,20.4,20.69,30.6,31.04,.44,.45,.84,.93,1.15,1.26,17.95-18.2,35.8-36.31,53.5-54.26-1.21,0-2.67-.04-4.13,0-7.85,.22-15.62-.44-23.34-1.82-8.86-1.59-17.39-4.26-25.63-7.89-.52-.23-.93-.22-1.44,0-10.86,4.81-22.18,7.84-33.96,9.1-7.83,.84-15.66,.89-23.5,.1-.33-.03-.67-.03-1.16-.06-.84,21.59,3.87,41.75,14.59,60.37,10.72,18.6,25.7,32.68,44.66,42.52Z"/>
  <path class="cls-1" d="M177.81,11.19c.64,.03,1.06,.61,1.31,1.42,.96,3.19,1.92,6.37,2.88,9.56,.48,1.59,1,3.17,1.44,4.78,.17,.61,.49,.87,1.06,1.04,4.58,1.4,9.15,2.84,13.72,4.26,.19,.06,.38,.12,.57,.18,.75,.25,1.22,.76,1.21,1.58,0,.82-.49,1.3-1.25,1.54-3.22,1-6.44,2.02-9.66,3.02-1.52,.47-3.02,.98-4.55,1.4-.66,.18-.95,.55-1.15,1.19-1.4,4.7-2.83,9.39-4.26,14.08-.34,1.13-.8,1.55-1.65,1.54-.98,0-1.35-.67-1.6-1.5-1.42-4.72-2.86-9.44-4.27-14.17-.18-.61-.47-.94-1.09-1.13-4.64-1.41-9.26-2.86-13.88-4.32-.47-.15-.98-.39-1.29-.75-.76-.88-.25-2.11,1.01-2.51,3.51-1.11,7.04-2.19,10.56-3.29,1.16-.36,2.31-.77,3.49-1.08,.68-.18,1.02-.52,1.23-1.21,1.4-4.73,2.84-9.45,4.28-14.17,.32-1.05,.8-1.47,1.9-1.46Z"/>
  <path class="cls-1" d="M163.18,99.31c-.74-.02-1.04-.49-1.23-1.12-1.01-3.35-2.05-6.69-3.02-10.05-.2-.7-.55-1.02-1.22-1.22-3.26-.98-6.49-2.02-9.74-3.02-.64-.2-1.22-.45-1.24-1.21-.02-.81,.58-1.1,1.24-1.3,3.3-1.02,6.6-2.06,9.91-3.06,.55-.17,.84-.44,1-1,.95-3.25,1.94-6.48,2.92-9.72,.07-.22,.13-.44,.2-.66,.19-.57,.54-.94,1.17-.93,.63,.02,.96,.41,1.13,.98,.69,2.28,1.38,4.56,2.07,6.83,.37,1.21,.7,2.43,1.13,3.61,.12,.33,.49,.71,.82,.81,3.4,1.1,6.81,2.15,10.22,3.2,.6,.19,1.04,.54,1.04,1.2,0,.66-.44,1.03-1.05,1.18-.16,.04-.32,.1-.49,.15-3.16,.99-6.32,2-9.5,2.96-.64,.19-.97,.5-1.16,1.16-.98,3.36-2.02,6.7-3.03,10.05-.19,.63-.48,1.1-1.17,1.15Z"/>
  <path class="cls-1" d="M160.03,53.53c-.58,.39-.9,.71-1.28,.83-2.1,.69-4.21,1.35-6.33,1.97-.53,.16-.78,.43-.93,.96-.63,2.15-1.27,4.29-1.97,6.41-.12,.36-.55,.61-.84,.91-.27-.29-.67-.54-.78-.88-.7-2.15-1.36-4.32-1.99-6.5-.15-.5-.4-.75-.89-.89-2.09-.62-4.18-1.26-6.25-1.96-.38-.13-.86-.52-.95-.88-.15-.62,.47-.74,.93-.88,1.97-.62,3.94-1.26,5.93-1.82,.73-.21,1.13-.55,1.33-1.32,.56-2.05,1.22-4.06,1.83-6.1,.15-.48,.31-1.07,.9-.93,.33,.08,.68,.56,.8,.93,.7,2.12,1.35,4.26,1.97,6.41,.15,.52,.42,.74,.9,.89,2.14,.65,4.28,1.31,6.41,2,.35,.12,.64,.44,1.21,.84Z"/>
</svg>