<?xml version="1.0" encoding="UTF-8"?>
<svg id="Layer_1" data-name="Layer 1" xmlns="http://www.w3.org/2000/svg" viewBox="0 0 200 150">
  <defs>
    <style>
      .cls-1 {
        fill: #fbb247;
      }
    </style>
  </defs>
  <path class="cls-1" d="M0,94.18c7.4-15.45,13.09-31.72,19.8-47.5,3.43-8.07,6.6-16.27,10.02-24.76-.88-.13-1.46-.28-2.03-.28-2.36,.02-4.01-.94-3.77-3.7,.21-2.5,2.03-2.91,4.03-2.9,6.67,.03,13.33,0,20,0,5.33,0,10.67,.01,16,0,6.39-.03,12.84,.89,18.46-4,3.34-2.91,8.57-.9,12-4.31,1.05-1.04,2.59-1.42,2.48-3.54-.1-2.13,1.18-3.26,3.18-3.18,1.75,.07,2.77,1.15,2.87,3.02,.22,4.09,3.26,5.05,6.05,5.73,4.73,1.16,9.47,2.14,13.35,5.5,1.5,1.3,3.17,.85,4.77,.85,14.67,.04,29.33,.02,44,.02,1,0,2,0,3,.01,1.98,.03,3.24,1.22,3.36,3.19,.12,2.01-1.06,3.58-3.05,3.34-5.38-.67-3.66,2.29-2.49,5.14,8.82,21.63,17.62,43.27,26.43,64.91,.46,1.14,1.01,2.25,1.37,3.43,.56,1.84-.3,3.16-1.75,3.94-1.57,.85-3.04,.27-3.92-1.23-.87-1.49-1.42-3.2-2.08-4.83-8.99-22.13-17.97-44.27-26.98-66.4-.65-1.6-.94-3.42-2.37-4.69-1.72,1.12-1.91,3.19-2.58,4.85-9.11,22.47-18.14,44.97-27.19,67.46-.33,.82-.63,1.64-.99,2.44-.97,2.14-2.42,3.67-4.73,2.43-1.91-1.03-2.21-2.94-1.31-5.03,.55-1.29,1.04-2.61,1.56-3.91,9.16-22.61,18.31-45.22,27.53-67.98-1.24-1.15-2.6-.65-3.8-.65-14.67-.04-29.33,.06-44-.1-3.09-.03-4.24,.57-4.22,4.27,.15,33.29,.12,66.58,.03,99.88,0,2.95,.45,4.41,3.57,4.93,6.45,1.09,11.91,4.6,16.1,9.91,1.85,2.35,3.76,2.97,6.42,2.92,8-.13,16-.03,24-.06,2.39,0,5.15-.22,5.32,3.19,.18,3.55-2.57,3.48-4.98,3.48-35.17,0-70.33,0-105.5-.02-2.34,0-5.14,.28-4.97-3.45,.17-3.59,2.97-3.18,5.28-3.19,7.83-.02,15.67-.09,23.5,.04,2.2,.04,3.69-.6,5.09-2.46,4.06-5.42,9.12-9.43,15.7-10.49,3.4-.55,2.63-3.02,2.63-5.18,.02-28.31,.02-56.62,.02-84.93,0-5.16-.11-10.33,.05-15.49,.08-2.47-.46-3.39-2.99-3.37-15.64,.13-31.28,.07-47.51,.07,5.31,13.09,10.42,25.74,15.58,38.37,4.18,10.24,8.48,20.44,12.55,30.73,1.05,2.66,4.03,6.21-.08,8.27-4.31,2.17-4.67-2.69-5.74-5.29-9.08-22.09-18.03-44.24-27.03-66.37-.72-1.78-1.5-3.52-2.28-5.34-2.08,.79-2.07,2.83-2.67,4.31-9.35,22.93-18.61,45.91-27.93,68.86-2.11,5.18-3.07,5.43-7.16,2.31v-3.2H0Z"/>
  <path class="cls-1" d="M164.12,116.67c-8.16,0-16.33,.02-24.49,0-1.97,0-4.47,.36-4.53-2.7-.06-3.16,2.08-3.98,4.79-3.94,6.33,.1,12.66,.08,18.99,0,1.13-.02,2.79,.79,3.04-1.55,.18-1.67-.38-2.6-1.85-3.22-4.05-1.69-4.98-5.32-5.01-9.5,0-1.72,.4-2.65,2.24-2.59,1.55,.05,2.55,.36,2.53,2.33,0,1.74-.27,3.59,1.03,5.06,1.32,1.49,3,1.54,4.63,1.02,1.81-.58,2.43-2.2,2.56-4.13,.28-4.21-2.18-6.98-4.56-9.68-2.76-3.12-5.53-6.18-6.79-10.38-1.42-4.72-.73-8.97,3.28-11.74,1.65-1.14,2.43-2.14,2.31-4.12-.07-1.12,.63-1.53,1.57-1.56,.97-.03,1.69,.43,1.58,1.51-.25,2.5,1.14,3.19,3.02,4.06,3.99,1.83,4.47,5.75,4.49,9.85,0,1.79-.94,2.02-2.23,1.99-1.22-.02-2.42-.06-2.33-1.9v-.53c-.07-2.54-.11-5.15-2.98-6.07-1.61-.51-3.14,.1-3.87,1.64-1.21,2.56-.9,5.29,.61,7.58,1.82,2.74,3.92,5.29,6,7.82,6.73,8.18,6.43,13.13-1.44,20.02-1,.87-.97,1.76-.86,2.76,.21,1.92,1.7,1.33,2.73,1.33,6.66,.05,13.33,.11,19.99-.02,2.7-.05,4.92,.66,4.93,3.78,0,3.4-2.77,2.86-4.87,2.86-8.16,.02-16.33,0-24.49,0h-.02Z"/>
  <path class="cls-1" d="M37.55,116.67c-8.32,0-16.64,.02-24.96-.02-1.95,0-4.45,.4-4.53-2.68-.08-3.19,2.05-3.98,4.75-3.94,6.32,.1,12.65,.08,18.97-.02,1.09-.02,2.8,1,3.18-1.33,.3-1.87-.41-2.86-2.05-3.6-3.58-1.6-4.39-5.02-4.57-8.74-.08-1.68-.07-3.14,2.22-3.19,2.08-.05,2.58,.88,2.45,2.84-.16,2.43,.15,4.77,2.72,5.6,1.61,.52,3.4,.58,4.56-1.12,1.53-2.25,1.27-4.83,.32-7.12-1.44-3.46-4.31-5.81-6.54-8.67-3.15-4.03-5.81-8.26-4.28-14,.58-2.17,1.47-4.14,3.39-4.98,1.94-.85,3.13-1.81,2.79-4.24-.16-1.12,.52-1.51,1.5-1.52,.96,0,1.74,.33,1.54,1.45-.52,2.91,1.5,3.34,3.24,4.42,3.26,2.03,3.8,5.54,3.75,9.26-.02,1.45-.28,2.34-1.9,2.3-1.51-.04-2.59-.25-2.57-2.28,0-1.22-.19-2.49-.51-3.67-.54-1.97-1.96-2.87-3.81-2.65-1.84,.22-2.95,1.42-3.2,3.48-.37,3.06,.75,5.58,2.49,7.84,2.32,3.01,4.97,5.77,7.07,8.95,4.14,6.29,3.22,12.22-2.49,16.5-1.29,.97-2.03,1.79-1.59,3.35,.47,1.64,1.9,1.12,2.97,1.13,6.49,.04,12.98,.11,19.47-.02,2.8-.06,4.82,1.04,4.72,4.03-.1,2.89-2.63,2.62-4.63,2.62h-24.46v.02h-.01Z"/>
</svg>