<?xml version="1.0" encoding="UTF-8"?>
<svg id="Layer_1" data-name="Layer 1" xmlns="http://www.w3.org/2000/svg" viewBox="0 0 200 170">
  <defs>
    <style>
      .cls-1 {
        fill: #fbb247;
      }
    </style>
  </defs>
  <path class="cls-1" d="M200,110.29c-4.13,3.52-4.96,3.25-7.12-2.77-9.32-25.9-18.6-51.82-27.91-77.72-.64-1.79-1.37-3.53-2.45-6.27-1.76,4.76-3.15,8.4-4.46,12.08-8.39,23.53-16.75,47.06-25.13,70.6-.59,1.66-1.03,3.57-2.02,4.79-.77,.95-2.65,1.8-3.38,1.29-1.03-.72-2.02-2.73-2-4.17,.03-1.9,1-3.8,1.66-5.64,8.54-23.89,17.1-47.77,25.64-71.66,.71-1.99,1.31-4.04,2.09-6.43h-51.76c-.1,1.83-.29,3.56-.29,5.3-.02,37.19,.03,74.38-.07,111.56-.01,3.94,.73,5.44,4.18,7.03,5.59,2.58,10.49,7.34,15.76,11.01,1.87,1.3,3.94,2.95,5.96,3.03,8.17,.35,16.37-.09,24.54,.32,1.75,.09,3.41,2.49,5.12,3.83-1.65,1.17-3.3,3.35-4.96,3.36-35.23,.2-70.47,.15-105.7,.14-2.33,0-5.36,.24-4.83-3.88,.19-1.47,3.02-3.38,4.69-3.46,7.67-.37,15.37,.08,23.03-.32,2.16-.11,4.76-1.49,6.27-3.35,4.33-5.3,9-9.46,15.09-11.32,1.23-.37,2.9-2.75,2.91-4.22,.15-39.01,.1-78.01,.07-117.02,0-.55-.24-1.11-.43-1.95H44.67c.79,2.43,1.45,4.66,2.23,6.82,8.46,23.49,16.95,46.96,25.42,70.45,.67,1.85,1.74,3.71,1.77,5.59,.03,1.63-.83,3.84-1.91,4.75-.63,.54-2.7-.6-3.64-1.63-.91-.99-1.23-2.81-1.76-4.29-9.03-25.17-18.05-50.35-27.08-75.51-.72-2.01-1.52-3.99-2.72-7.12-1.05,2.73-1.76,4.45-2.38,6.2-9,25.19-17.99,50.38-26.99,75.57-.59,1.67-.93,3.7-1.94,4.85-1.01,1.15-3.11,2.33-4.01,1.78-1-.61-1.93-3.44-1.59-4.84,.99-4.04,2.63-7.84,4.02-11.72C12.46,72.05,20.83,48.74,29.43,24.8c-1.34-.26-2.6-.08-3.32-.75-1.04-.98-2.39-2.67-2.28-3.88,.11-1.22,1.72-2.56,2.91-3.21,.97-.54,2.3-.14,3.47-.14,10.52,0,21.04,.04,31.56-.02,7.22-.04,14.56,1.29,21.05-4.68,1.94-1.79,5.29-1.18,7.58-2.64,2.37-1.5,4.26-4.14,6.33-6.32C97.75,2.07,98.67,.03,99.68,0s2.79,1.7,2.99,2.95c.72,4.62,3.47,5.7,6.55,6.93,4.38,1.75,8.62,4.05,12.98,5.88,1.66,.7,3.5,1.1,5.26,1.11,14.53,.09,29.06,.05,43.58,.05,1,0,2.19-.39,2.96,.12,1.3,.86,2.34,2.3,3.48,3.49-1.04,1.28-1.94,2.89-3.18,3.75-.89,.62-2.25,.26-3.79,.35,.37,1.62,.55,2.96,.98,4.17,8.94,25,17.9,49.98,26.9,74.95,.38,1.05,1.06,1.93,1.6,2.89v3.66Z"/>
  <path class="cls-1" d="M164.36,131.71c9.03,0,16.19,.03,23.35-.02,2.59-.02,5.57-.25,5.59,4.71,.02,5.68-3.45,4-5.68,4.01-15.7,.12-31.39,.19-47.09-.1-1.88-.03-5.28-2.15-5.34-3.54-.23-5.32,2.95-5.11,5.71-5.09,6.83,.05,13.65,.02,21.36,.02-1.1-8.63-10.93-11.19-6.2-22.22,2.15-1.08,3.79-.45,3.67,4.51-.11,4.71,1.58,7.35,4.95,6.52,3.62-.89,3.94-5.31,3.01-8.87-1.01-3.85-3.16-7.11-4.82-10.61-2.13-4.48-4.78-8.64-6.26-13.52-1.72-5.69-.41-10.98,3.07-15.25,1.55-1.91,2.48-4.85,3.7-7.32,1.29,2.21,2.27,5.47,3.91,6.44,5.33,3.16,5.62,9.04,5.49,15.46-.5,.57-.99,1.14-1.49,1.72-1-1.67-2.6-3.15-2.89-5.03-.62-4.13-1.32-7.99-4.91-6.72-3.56,1.26-3.32,6.1-2.26,9.41,1.35,4.21,3.81,7.68,5.69,11.57,1.87,3.87,4.2,7.57,5.26,11.88,1.57,6.35,.47,12.11-4.13,15.79-1.17,.94-1.87,3.07-3.7,6.25h0Z"/>
  <path class="cls-1" d="M45.51,86.79c-3.09,1.51-4.26,.46-4.39-3.16-.13-3.56-1.32-6.8-4.9-5.56-3.46,1.2-3.33,5.24-2.14,8.04,1.65,3.87,4.5,6.96,6.37,10.72,2,4.03,4.39,8.31,4.83,12.75,.3,2.97-2.46,6.41-3.94,9.59-.65,1.4-1.51,2.66-2.27,3.98,1.3,.52,2.6,1.45,3.92,1.48,6,.16,12.03-.23,18.01,.26,1.83,.14,4.88,2.23,5.05,3.78,.44,4.2-2.79,3.47-5,3.47-16.02,.04-32.04,.06-48.06-.02-2.14,0-5.32,1.05-5.26-3.35,.05-4.19,2.96-4.11,5.56-4.09,6.99,.04,13.98,.02,22.62,.02-1.66-2.75-2.63-4.17-3.44-5.71-1.53-2.92-3.44-5.71-4.31-8.9-.96-3.53,.61-5.36,4.09-4.11,.11,1.22,.3,2.57,.36,3.93,.15,3.7,1.66,5.7,4.76,5.35,3.43-.39,4.16-3.73,3.33-6.66-.99-3.48-2.99-6.55-4.67-9.71-2.14-4.03-5.43-7.68-6.27-12.04-.69-3.59,1.24-8.09,2.46-11.98,.66-2.11,2.25-3.8,3.46-5.64,.36-.54,1-1.39,1.31-1.28,.62,.23,1.18,.94,1.63,1.6,1.04,1.5,1.76,3.5,3.03,4.56,3.72,3.1,4.16,7.46,3.86,12.67h0Z"/>
</svg>