<?xml version="1.0" encoding="UTF-8"?>
<svg id="Layer_1" data-name="Layer 1" xmlns="http://www.w3.org/2000/svg" viewBox="0 0 200 200">
  <defs>
    <style>
      .cls-1 {
        fill: #f8c03d;
      }
    </style>
  </defs>
  <path class="cls-1" d="M56.97,146.2c.46-.09,.65-.13,.84-.17,4.04-.84,6.41,.88,8.7,5.55,14.97,30.57,43.67,45.98,71.7,39.07,28.16-6.94,50.27-34.45,54.46-69.58,4.2-35.25-6.04-63.5-29.65-84.26-.74-.65-1.55-1.19-2.26-1.89-1.24-1.24-1.54-3.43-.68-4.96,.97-1.74,2.34-2.36,3.91-1.45,1.17,.68,2.24,1.63,3.3,2.55,25.4,21.68,37.48,59.13,30.97,96.03-6.49,36.82-30.6,65.14-60.97,71.6-32.18,6.85-65.09-13.89-79.5-50.12-.28-.7-.5-1.44-.83-2.38Z"/>
  <path class="cls-1" d="M119.96,40.09c-23.46,4.09-39,19.54-47.17,46.26-1.83-.75-3.66-1.5-5.71-2.33,.15-.62,.3-1.44,.53-2.23,8.22-28.58,30.08-48.34,54.69-49.45,2.49-.11,3.8,1.29,3.92,4.35,.07,1.8,.01,3.6,.01,6.07,4.74-5.1,9.04-9.71,13.56-14.56-4.45-5.15-8.77-10.16-13.55-15.69,0,2.15,0,3.62,0,5.1-.02,3.7-.88,4.92-3.92,5.08-6.21,.33-12.32,1.46-18.2,3.91-22.36,9.31-37.27,27.83-44.7,55.41-.53,1.97-1.22,2.7-2.83,2.48-1.16-.16-2.34-.04-3.51-.06-.19,0-.38-.1-.57-.15,4.98-28.64,27.7-65.28,67.46-69.29,0-2.73,0-5.5,0-8.28,0-.96-.23-2.05,.06-2.86,.48-1.37,1.08-3.12,2.03-3.66,.84-.48,2.56,0,3.31,.84,7.11,7.99,14.12,16.13,21.12,24.28,1.64,1.91,1.57,4.19-.15,6.07-6.93,7.52-13.87,15.05-20.91,22.4-.82,.85-2.42,1.14-3.53,.86-1.48-.38-1.92-2.19-1.92-4.01,0-3.35,0-6.7,0-10.55Z"/>
  <path class="cls-1" d="M31.97,111.37c9.23,0,18.47,0,27.7,0,.58,0,1.19-.05,1.75,.1,1.68,.46,2.62,1.8,2.56,3.92-.06,2-1.02,3.24-2.62,3.62-.5,.12-1.04,.07-1.56,.07-18.47,0-36.93,0-55.4,0-.58,0-1.18,.05-1.75-.07C.94,118.65,0,117.32,0,115.2c0-2.02,.93-3.3,2.52-3.71,.69-.18,1.42-.12,2.14-.12,9.1,0,18.21,0,27.31,0Z"/>
  <path class="cls-1" d="M112.45,107.6c-.02-8.72,5.51-15.34,12.89-15.44,6.27-.08,12.05,7.06,12.09,14.97,.05,8.81-5.41,15.77-12.4,15.81-6.95,.04-12.57-6.8-12.59-15.34Zm6.27-.07c.02,4.24,2.76,7.65,6.17,7.69,3.47,.04,6.36-3.53,6.3-7.79-.05-4.15-2.96-7.65-6.28-7.56-3.47,.09-6.22,3.49-6.2,7.66Z"/>
  <path class="cls-1" d="M141.65,96.55c-1.29-2.02-2.48-3.89-3.78-5.92,.38-.43,.77-.93,1.21-1.35,7.98-7.57,15.96-15.14,23.95-22.7,1.82-1.72,3.49-1.79,4.73-.27,1.45,1.78,1.18,4.36-.73,6.18-6.37,6.08-12.76,12.13-19.15,18.18-2.05,1.94-4.11,3.87-6.24,5.87Z"/>
  <path class="cls-1" d="M52.89,138.34c-4.48,0-8.97,0-13.45,0-2.46,0-3.88-1.39-3.92-3.77-.04-2.39,1.4-3.93,3.8-3.93,9.03-.02,18.06-.02,27.1,0,2.43,0,3.85,1.51,3.84,3.91-.02,2.39-1.44,3.8-3.91,3.8-4.48,.01-8.97,0-13.45,0Z"/>
  <path class="cls-1" d="M52.86,92.14c4.68,0,9.36-.13,14.03,.1,1.03,.05,2.36,1.08,2.92,2.15,.45,.87,.29,2.79-.23,3.71-.52,.92-1.82,1.64-2.78,1.65-9.28,.13-18.57,.11-27.85,.08-2.11,0-3.47-1.62-3.44-3.88,.02-2.25,1.37-3.78,3.51-3.8,4.61-.04,9.22-.01,13.83-.01Z"/>
  <path class="cls-1" d="M23.32,99.82c-1.1,0-2.21,.09-3.3-.02-1.69-.17-2.92-1.84-2.85-3.83,.08-2.11,1.02-3.57,2.71-3.73,2.32-.21,4.66-.18,6.99-.02,1.69,.12,2.83,1.93,2.76,3.93-.07,2-1.27,3.52-3.01,3.66-1.1,.09-2.2,.02-3.3,.02,0,0,0,0,0,0Z"/>
  <path class="cls-1" d="M181.08,111.36c-1.1,0-2.21,.11-3.3-.03-1.72-.22-2.68-1.51-2.82-3.62-.13-2.03,1.02-3.82,2.73-3.94,2.33-.17,4.67-.18,7,0,1.71,.14,2.64,1.6,2.72,3.71,.08,2.02-1.11,3.67-2.83,3.85-1.16,.12-2.33,.02-3.5,.02Z"/>
  <path class="cls-1" d="M23.39,138.32c-1.1,0-2.21,.08-3.3-.02-1.7-.16-2.91-1.79-2.93-3.76-.02-2,1.14-3.73,2.85-3.84,2.26-.15,4.54-.15,6.8,0,1.72,.11,2.86,1.85,2.84,3.85-.03,2-1.21,3.58-2.94,3.75-1.09,.1-2.2,.02-3.3,.02Z"/>
  <path class="cls-1" d="M128.05,176.82c0,1.36,.07,2.72-.02,4.07-.14,2.19-1.36,3.58-3.03,3.61-1.76,.03-3.07-1.41-3.15-3.71-.09-2.63-.09-5.27,0-7.9,.08-2.31,1.38-3.76,3.13-3.73,1.74,.03,2.95,1.49,3.06,3.83,.06,1.27,.01,2.55,.01,3.83h-.01Z"/>
  <path class="cls-1" d="M91.99,149.02c.06,3.35-5.86,10.39-7.9,9.89-.94-.23-2.11-1.18-2.49-2.2-.38-1.01-.27-2.9,.29-3.71,1.58-2.3,3.39-4.43,5.34-6.25,.69-.64,2.19-.61,3.05-.14,.85,.47,1.36,1.88,1.71,2.41Z"/>
  <path class="cls-1" d="M168.78,155.47c-.55,.93-1,2.43-1.83,2.88-.91,.5-2.49,.57-3.22-.09-1.96-1.79-3.73-3.96-5.36-6.21-1.07-1.48-.83-3.33,.28-4.79,1.05-1.38,2.52-1.82,3.7-.68,2.02,1.97,3.83,4.27,5.67,6.52,.37,.46,.44,1.3,.77,2.38Z"/>
</svg>