<?xml version="1.0" encoding="UTF-8"?>
<svg id="Layer_1" data-name="Layer 1" xmlns="http://www.w3.org/2000/svg" viewBox="0 0 200 200">
  <defs>
    <style>
      .cls-1 {
        fill: #fbb247;
      }
    </style>
  </defs>
  <path class="cls-1" d="M99.57,80.02h12.18c0-1.61,0-3.2,0-4.79,0-18.91-.14-37.83,.09-56.74,.06-4.76-1.38-6.06-5.1-5.66-2.64,.29-5.33,.06-8,.06-3.96,0-7.61-.64-10.45,4.65-2.57,4.78-8.96,4.09-12.22-.11-3.44-4.44-3.13-11.22,.69-14.98,3.85-3.79,9.89-3.18,12.54,1.95,1.61,3.12,3.43,3.68,6.13,3.58,5.05-.18,10.11-.07,15.16-.05,5.17,.02,5.34,.21,5.35,6.5,.01,19.74,0,39.47,0,59.21,0,1.96,0,3.92,0,6.3h9.44c0-6.95,0-13.96,0-20.97q0-6.41,5.64-6.42c8.98,0,17.97-.03,26.95,.03,2.04,.01,3.52-.2,4.73-2.79,2.11-4.53,6.26-6.17,10.1-4.61,3.86,1.57,5.88,4.96,6.14,9.66,.25,4.47-2.41,8.6-6.27,9.95-4.18,1.46-7.32-.31-9.89-4.28-.82-1.26-2.22-2.81-3.38-2.83-9.67-.23-19.35-.13-29.42-.13v22.81c5.26,0,10.53,0,15.81,0,3.79,0,7.58,0,11.37,0,5.21,.01,5.31,.15,5.35,6.47,.02,3.45,.07,6.9,.13,10.35,0,.29,.22,.57,.6,1.47,4.33,0,8.93,.14,13.51-.12,.92-.05,1.98-1.45,2.63-2.51,2.66-4.39,6.15-6.11,10.16-4.77,3.58,1.19,6.46,5.57,6.34,10-.13,4.8-2.3,8.05-6.12,9.61-3.95,1.61-7.33-.05-10.2-4.48-.69-1.07-1.76-2.49-2.71-2.55-4.59-.27-9.19-.12-14.35-.12,0,2.6,0,4.68,0,6.76,0,27.63,0,55.26,0,82.9,0,6.51-.02,6.53-5.69,6.53-32.28,0-64.57-.07-96.85,.11-4.19,.02-5.26-1.68-5.21-6.29,.18-17.1-.02-34.21,.14-51.31,.04-3.96-.82-5.77-4.43-5.41-2.93,.29-5.89,.09-8.84,.05-3.85-.06-7.28-.4-9.99,4.57-2.59,4.76-8.97,4.26-12.27,.18-3.54-4.38-3.35-11.07,.43-14.98,3.74-3.87,9.93-3.45,12.54,1.63,1.74,3.38,3.78,3.72,6.55,3.66,5.15-.12,10.3-.03,15.91-.03,0-8.42,.12-16.28-.15-24.11-.03-.99-2.15-2.65-3.33-2.69-7.71-.25-15.44-.03-23.16-.16-12.62-.21-22.46-10.26-24.52-24.87-1.89-13.44,4.99-26.9,16.18-31.62q7.02-2.97,11.16-10.56c7.53-13.83,23.39-16.97,34.58-6.7,1.79,1.65,3.03,2.26,5.46,1.15,7.42-3.4,14.73,1.87,16.59,11.22,.28,1.41,1.3,3.35,2.33,3.73,13.43,4.85,17.42,17.51,9.73,31.33-.13,.23-.06,.61-.11,1.26Zm-44.74,20.03c0-5.2,.15-9.94-.05-14.65-.17-3.89,1.13-5.18,4.41-5.12,9.53,.18,19.07,.08,28.61,.06,8.64-.02,14.41-9.48,11.58-18.96-1.73-5.8-7.95-11.3-11.93-9.51-5.23,2.36-4.72-.53-4.08-4.65,.63-3.99-.81-7.13-3.7-9.19-2.66-1.89-5.44-2.28-8.46,.19,.6,1.58,1.21,3.03,1.71,4.53,2.58,7.76,2.5,15.46-.9,22.84-.57,1.25-2.22,1.82-3.37,2.71-.15-1.56-.34-3.11-.41-4.67-.02-.43,.37-.87,.53-1.32,3.11-9.08,2.25-17.54-3.56-24.68-5.72-7.03-12.82-9.36-20.76-6.02-7.9,3.33-12.07,10.28-12.85,20.03-.1,1.3,.23,2.7-.07,3.92-.27,1.1-1.12,2-1.71,2.99-.76-.78-1.77-1.39-2.21-2.37-.56-1.22-.64-2.73-.92-4.05-11.43,1.51-19.11,11.44-19.05,24.19,.06,12.35,8.27,23.09,18.74,23.63,9.23,.47,18.49,.1,28.47,.1Zm4.54-14.45v108.96h98.53V85.6H59.37Zm105.64-31.5c.02,.77,.04,1.54,.05,2.31,1.76,1.3,3.73,3.88,5.24,3.55,1.7-.37,3.91-3.16,4.23-5.25,.47-3.05-1.89-5.4-4.5-4.79-1.84,.43-3.36,2.71-5.02,4.17ZM24.45,140.59c.65,.01,1.29,.03,1.94,.04,1.27-1.98,3.26-3.79,3.62-5.98,.52-3.18-1.66-5.11-4.32-5.27-2.81-.17-4.78,1.94-4.43,5.06,.25,2.17,2.07,4.1,3.19,6.14Zm157.48-40.47c0,.79,.01,1.57,.02,2.36,1.74,1.3,3.67,3.88,5.18,3.58,1.71-.34,3.98-3.05,4.32-5.11,.5-3.04-1.8-5.42-4.44-4.85-1.84,.4-3.4,2.62-5.08,4.03ZM83.17,4.31c-.66,.03-1.31,.05-1.97,.08-1.08,2.06-2.83,4.02-3.09,6.22-.38,3.23,1.69,5.1,4.46,4.95,2.73-.16,4.73-2.22,4.18-5.36-.38-2.16-2.34-3.94-3.59-5.88Z"/>
  <path class="cls-1" d="M200,155.37c-.18,13.61-3.76,24.89-11.16,34.32-.9,1.15-2.68,1.35-4.05,1.99,.36-1.78,.25-4.02,1.14-5.27,13.12-18.34,13.2-42.3,.06-60.68-.27-.38-.72-.69-.8-1.11-.26-1.41-.38-2.85-.56-4.29,1.19,.35,2.78,.23,3.5,1.11,6.25,7.66,9.99,16.85,11.35,27.36,.31,2.43,.39,4.89,.51,6.57Z"/>
  <path class="cls-1" d="M192.13,156.55c-.07,10.18-3.12,19.34-9.12,27.07-.84,1.08-2.51,1.27-3.8,1.88,.2-1.68-.09-3.82,.68-4.97,10.81-16.06,10.81-32.68,0-49.12-.77-1.18-.5-3.31-.71-4.99,1.27,.64,2.92,.88,3.76,1.98,6.04,7.89,9.15,17.2,9.17,28.17Z"/>
  <path class="cls-1" d="M182.61,156.27c-.19,7.63-2.3,14.3-6.75,19.75-.72,.88-2.3,.8-3.48,1.17,.11-1.43-.22-3.21,.39-4.25,7.52-12.82,7.55-21.49,.16-33.79-.67-1.11-.32-3.05-.45-4.6,1.19,.51,2.74,.62,3.5,1.6,4.42,5.7,6.58,12.51,6.64,20.12Z"/>
  <path class="cls-1" d="M37.76,171.14c0,3.81,.19,7.63-.1,11.42-.1,1.32-1.41,2.53-2.17,3.8-.88-1.31-2.49-2.6-2.53-3.94-.25-7.61-.24-15.23,0-22.84,.04-1.39,1.54-2.74,2.36-4.11,.82,1.42,2.2,2.79,2.34,4.27,.34,3.78,.11,7.61,.11,11.41Z"/>
  <path class="cls-1" d="M26.86,174.48c0,3,.18,6.01-.1,8.98-.1,1.01-1.38,1.91-2.12,2.85-.89-.97-2.51-1.91-2.55-2.92-.24-6.15-.21-12.32-.02-18.48,.03-.97,1.36-1.9,2.08-2.85,.89,.97,2.42,1.88,2.54,2.94,.34,3.13,.12,6.31,.12,9.48,.02,0,.04,0,.06,0Z"/>
  <path class="cls-1" d="M11.11,177.16c0-1.98-.26-4,.1-5.91,.19-1.04,1.42-1.88,2.18-2.81,.83,.87,2.32,1.69,2.38,2.61,.27,4.27,.29,8.57,.06,12.83-.05,.88-1.57,1.67-2.42,2.5-.77-.93-2.02-1.78-2.2-2.81-.35-2.08-.1-4.27-.11-6.41Z"/>
  <path class="cls-1" d="M5.1,180.83c0,.83,.29,1.82-.06,2.46-.63,1.15-1.64,2.08-2.49,3.1-.78-1.1-1.89-2.11-2.24-3.34-.39-1.38-.42-3.07,0-4.43,.4-1.31,1.58-2.38,2.42-3.55,.79,1.09,1.72,2.11,2.3,3.3,.32,.67,.06,1.63,.06,2.46,0,0,.01,0,.02,0Z"/>
  <path class="cls-1" d="M14.18,88.13c-6.38,0-12.48-6.47-11.95-11.9,.1-1.03,1.28-1.96,1.97-2.94,.89,.78,2.41,1.45,2.58,2.37,.83,4.47,3.09,7.07,7.69,7.69,.83,.11,2.24,2.12,2.02,2.65-.47,1.08-1.86,1.76-2.3,2.12Z"/>
  <path class="cls-1" d="M108.13,189.97c-12.2,0-24.4,.04-36.6,0-5.92-.02-8.39-2.97-8.47-9.91-.04-3.61-.05-7.23,0-10.84,.09-6.47,2.37-9.23,7.94-9.5,2.8-.14,5.61-.05,8.41-.05,21.45,0,42.91-.02,64.36,0,7.48,0,9.84,2.78,9.89,11.46,.02,2.96,.03,5.92-.02,8.87-.12,6.9-2.66,9.93-8.51,9.95-12.34,.05-24.68,.02-37.02,.02Zm-.14-4.97c10.09,0,20.18,.04,30.28-.01,12.41-.07,11.07,1.88,11.13-13.22,.03-6.58-.43-7.09-5.91-7.1-21.45-.02-42.89-.1-64.34-.01-13.96,.05-11.69-1.67-11.88,13.81-.08,6.17,.27,6.52,5.4,6.53,11.77,.02,23.55,0,35.32,0Z"/>
  <path class="cls-1" d="M108.18,125.71c-12.2,0-24.4,.02-36.6-.02-5.94-.02-8.42-2.94-8.51-9.85-.04-3.61-.05-7.23,0-10.84,.08-6.65,2.51-9.55,8.3-9.61,9.81-.09,19.63-.02,29.44-.02,14.3,0,28.6-.02,42.9,.01,7.65,.01,9.92,2.76,9.94,11.89,0,2.46,.01,4.93,0,7.39-.05,8.19-2.39,11.02-9.3,11.05-12.06,.04-24.12,.01-36.17,0Zm-.17-4.97c10.09,0,20.19,.06,30.28-.01,12.32-.09,11.06,1.92,11.1-13.27,.02-6.6-.37-7.05-5.92-7.06-21.45-.02-42.89-.09-64.34-.01-13.51,.05-11.77-2.02-11.86,13.83-.04,6.17,.29,6.51,5.42,6.51,11.77,.02,23.55,0,35.32,0Z"/>
  <path class="cls-1" d="M108.14,127.52c12.2,0,24.4-.04,36.6,0,6.11,.02,8.73,3.03,8.9,10.11,.08,3.45,.06,6.9,0,10.35-.11,6.8-2.7,9.85-8.62,9.87-18.23,.06-36.46,.02-54.69,.02-6.31,0-12.62,.06-18.93-.02-5.69-.07-8.24-3.05-8.34-9.6-.06-3.78-.05-7.56,0-11.34,.09-6.32,2.58-9.33,8.04-9.37,12.34-.09,24.68-.03,37.02-.03Zm-.03,5.08v-.02c-9.81,0-19.62-.08-29.42,.02-12.79,.13-11.38-2.21-11.43,13.28-.02,6.71,.24,7,5.88,7,21.44,0,42.88,.07,64.31-.04,13.67-.07,11.69,2.17,11.98-14.24,.08-4.47-1.34-6.13-5.17-6.07-12.05,.18-24.1,.07-36.15,.07Z"/>
  <path class="cls-1" d="M144.78,175.41c-.35,3.24-2.02,5.54-5.33,5.8-3.12,.24-5.66-2.67-5.59-6.43,.07-3.93,2-6.06,5.22-6.39,2.95-.3,5.65,2.94,5.7,7.02Z"/>
  <path class="cls-1" d="M144.76,111.35c-.38,3.22-2.2,5.4-5.44,5.63-3.04,.22-5.63-2.93-5.46-6.63,.18-3.87,2.1-6.02,5.37-6.21,3.01-.18,5.56,3.04,5.53,7.22Zm-1.8-.95c-1.75-1.3-2.8-2.68-3.87-2.69-.8-.01-2.37,1.89-2.25,2.65,.19,1.21,1.48,2.99,2.35,3.03,1,.05,2.06-1.54,3.77-2.99Z"/>
  <path class="cls-1" d="M138.7,136.32c3.51-.08,6.13,2.83,6.04,6.49-.1,3.93-2.17,5.97-5.31,6.36-2.95,.37-5.64-2.86-5.56-6.53,.09-3.9,1.95-5.96,4.83-6.32Z"/>
</svg>