<?xml version="1.0" encoding="UTF-8"?>
<svg id="Layer_1" data-name="Layer 1" xmlns="http://www.w3.org/2000/svg" viewBox="0 0 72 72">
  <defs>
    <style>
      .cls-1 {
        fill: #5a2b5f;
      }
    </style>
  </defs>
  <path class="cls-1" d="M20.65,26.52c0,6.87,0,13.7,0,20.54H-.21c0-6.86,0-13.69,0-20.54,6.96,0,13.91,0,20.86,0Zm-8.36,6.14c-.12-.04-.24-.08-.36-.11q-.85-.23-.85-1.12c0-.19,0-.38,0-.57-.02-.56-.38-.94-.85-.94-.5,0-.86,.39-.87,.97,0,.48,0,.95,0,1.44-3.21,.67-5.13,2.64-5.78,5.92-.13,.01-.25,.02-.37,.03-.6,.07-.96,.56-.78,1.15,.37,1.22,.77,2.42,1.18,3.62,.16,.48,.55,.59,1.01,.59,2.54,0,5.08,0,7.62,0,1.21,0,2.42,0,3.62,0,.61,0,.84-.17,1.04-.75,.33-.99,.65-1.99,.97-2.99,.37-1.15,.17-1.49-1.01-1.67-.52-2.75-2-4.63-4.56-5.58Z"/>
  <path class="cls-1" d="M54.36,36.04c0,.3,0,.54,0,.78,0,5.62,0,11.25,0,16.87,0,3.04-1.97,5.06-4.93,5.06-3.38,0-6.75,0-10.13,0-.18,0-.37,0-.59,0v5.94c.15,.01,.31,.03,.47,.03,4.52,0,9.04,0,13.57,0,.32,0,.54-.1,.74-.36,2.99-3.78,6-7.54,8.99-11.33,.18-.22,.3-.56,.3-.85,.02-3.52,0-7.04,.02-10.56,0-.37-.11-.62-.36-.87-1.45-1.48-2.89-2.97-4.34-4.45-.11-.12-.28-.25-.42-.25-1.08-.02-2.16-.01-3.31-.01Z"/>
  <path class="cls-1" d="M36.92,64.72c.01-.21,.03-.35,.03-.49,0-1.88,.01-3.76,0-5.64-.04-5.03-3.36-8.94-8.17-9.63-.37-.05-.74-.06-1.11-.06-3.45,0-6.91,0-10.36,0-2.74,0-4.75,2.07-4.76,4.89,0,1.07,0,2.13,0,3.2,0,.17,0,.34,0,.57h.6c4.18,0,8.36,0,12.54,0,2.08,0,3.58,.94,4.51,2.86,.64,1.33,1.28,2.65,1.94,3.97,.07,.14,.25,.33,.38,.33,1.45,.02,2.91,.01,4.41,.01Z"/>
  <path class="cls-1" d="M38.07,34.52v-2.06c-.73,0-1.44,0-2.15,0-.47,0-.78-.2-.99-.64-1.12-2.31-2.24-4.61-3.36-6.92-.27-.56-.12-1.07,.34-1.3,.48-.24,.92-.04,1.21,.52,.04,.07,.07,.14,.11,.21,.95,1.97,1.91,3.93,2.86,5.9,.15,.31,.31,.44,.66,.44,2.25-.02,4.49,0,6.74-.01,.12,0,.24-.01,.39-.02v-4.34c-.18,0-.34-.02-.51-.02-1.22,0-2.45-.01-3.67,0-.33,0-.49-.1-.63-.41-.72-1.67-1.47-3.33-2.21-5-.83-1.87-2.14-2.65-4.12-2.43-4.35,.48-7.42,3.98-7.43,8.49,0,2.33,0,4.65,0,6.98,0,.19,0,.38,0,.61h12.75Z"/>
  <path class="cls-1" d="M25.34,36.34c-.02,1.34,.36,2.49,1.09,3.5,1.17,1.63,2.76,2.47,4.74,2.47,3.27,0,6.54,0,9.81,0,.18,0,.36,0,.6,0v8.09h5.79c0-.07,.02-.21,.02-.35,0-3.73,0-7.46,0-11.19,0-1.53-.95-2.52-2.44-2.52-4.77,0-9.54,0-14.31,.01-1.55,0-3.09-.01-4.64-.02-.2,0-.4,0-.66,0Z"/>
  <path class="cls-1" d="M40.43,6.17c-.2-.67-.32-1.28-.54-1.84-1.95-4.85-8.13-5.97-11.78-2.14-1.45,1.51-2.18,3.33-2.19,5.46,0,1.26,.01,2.52,0,3.77,0,.32,.1,.53,.33,.74,1.55,1.4,3.08,2.81,4.63,4.21,.15,.13,.38,.24,.57,.24,1.87,.02,3.75,.04,5.62,0,1.91-.04,3.42-1.67,3.38-3.59,0-.08-.02-.16-.03-.26-1.74-.51-3.48-1.03-5.22-1.54-1-.29-2-.58-2.99-.88-.56-.17-.75-.44-.76-1.04,0-.68,0-1.37,0-2.05,0-.75,.32-1.08,1.05-1.08,2.43,0,4.86,0,7.29,0,.18,0,.36,0,.67,0Z"/>
  <path class="cls-1" d="M52.04,27.58c-1.1,0-2.2,0-3.3-.02-.16,0-.39-.07-.46-.19-.61-.99-1.51-1.19-2.59-1.07v4.33c1.04,.15,1.94-.04,2.56-1.01,.07-.1,.2-.23,.31-.23,1.14-.02,2.28-.01,3.48-.01,0,.79,0,1.54,0,2.28,0,1.6,.96,2.6,2.51,2.6,1.47,0,2.94,0,4.41,0,2.48-.01,4.47-1.88,4.68-4.39,.21-2.43-1.44-4.64-3.83-5.1-.44-.08-.89-.07-1.34-.07-1.27,0-2.54,0-3.81,0-1.71,0-2.6,.9-2.63,2.66,0,.08,0,.16-.01,.24,1.14,0,2.28-.02,3.43-.02,.56,0,.94,.39,.94,.89,0,.51-.39,.88-.95,.89-.83,.01-1.67,0-2.5,0-.29,0-.58,0-.9,0v-1.78Z"/>
  <path class="cls-1" d="M57.96,61.56c-.76,.95-1.52,1.91-2.27,2.88-.08,.1-.07,.3-.05,.45,.48,3.36,3.06,6.12,6.38,6.84,3.29,.71,6.75-.82,8.52-3.74,3.31-5.49-.32-12.55-6.59-12.83-.6-.03-1.07,.08-1.42,.64-.33,.53-.77,.99-1.27,1.63,.23,.18,.45,.39,.7,.54,.12,.07,.32,.09,.46,.05,2.27-.51,4.51,.37,5.79,2.31,1.3,1.96,1.29,4.43,0,6.43-1.42,2.18-4.26,3.04-6.63,2.03-2.41-1.03-3.8-3.65-3.32-6.24,.06-.34,.28-.73-.28-.98Z"/>
  <path class="cls-1" d="M20.65,24.67v-3.83H-.2v3.83c6.94,0,13.87,0,20.85,0Z"/>
  <path class="cls-1" d="M28.74,61.47c-.3,.22-.5,.39-.4,.82,.72,3.08-1.24,6.19-4.25,6.8-3.09,.62-6.06-1.49-6.53-4.65-.27-1.8,.22-3.37,1.39-4.72,.08-.09,.16-.19,.28-.33-.17-.02-.28-.04-.39-.04-.6,0-1.21,0-1.81,0q-1.14,0-1.57,1.07c-1.72,4.34,.45,9.37,4.72,10.97,4.35,1.62,9.13-.74,10.52-5.22,.07-.24,.05-.57-.06-.79-.53-1.17-1.11-2.31-1.67-3.47-.07-.14-.15-.27-.23-.42Z"/>
  <path class="cls-1" d="M22.43,44.11v2.94c.12,.01,.24,.04,.36,.04,4.2,0,8.4,0,12.59,0,.63,0,1.12-.26,1.4-.84,.28-.57,.2-1.12-.19-1.61-.33-.42-.77-.54-1.28-.54-2.85,0-5.7,0-8.55,0-1.27,0-2.54,0-3.81,0-.17,0-.33,0-.52,0Z"/>
  <path class="cls-1" d="M11.06,8.27c-3.08,1.19-6.12,2.36-9.26,3.57,.78,.3,1.44,.56,2.1,.82,1.68,.65,3.36,1.3,5.04,1.93,.31,.12,.42,.28,.41,.62-.02,1.24,0,2.48,0,3.76h1.71c0-3.55,0-7.1,0-10.7Z"/>
  <path class="cls-1" d="M41.61,52.17v4.74h8.05c.52-3.19-1.61-4.87-3.75-4.76-1.25,.07-2.51,.01-3.76,.01h-.53Z"/>
  <path class="cls-1" d="M55.81,22.87h1.74c0-.38,0-.74,0-1.11,0-1,0-2.01,0-3.01-.02-2.08-1.5-3.6-3.53-3.62-.39,0-.77-.01-1.16,0-.55,.02-1.05,.4-1.07,.94-.04,.76-.07,1.54,.08,2.28,.34,1.66,1.7,2.74,3.35,2.73,.51,0,.65,.16,.6,.65-.03,.36,0,.73,0,1.14Z"/>
  <path class="cls-1" d="M64.54,42.16v9.25c1.88-.04,3.74-2.3,3.76-4.55,.03-2.32-1.79-4.61-3.76-4.71Z"/>
  <path class="cls-1" d="M12.01,48.92H6.74c0,.21,0,.39,0,.58,0,1.07,0,2.14,0,3.2,.01,1.47,.97,2.45,2.4,2.46,.53,0,1.05,0,1.62,0,.03-1.1,.03-2.18,.11-3.25,.08-1.08,.53-2.04,1.14-2.99Z"/>
  <path class="cls-1" d="M63.63,59.76c.61,.6,1.22,1.2,1.82,1.81,.49,.49,.77,1.08,.81,1.77,.07,1.13-.54,2.15-1.52,2.62-.96,.46-2.1,.27-2.88-.51-.63-.63-1.23-1.3-1.87-1.98-.27,.97,.48,2.48,1.54,3.24,1.34,.95,3.1,.91,4.43-.11,1.26-.97,1.79-2.72,1.3-4.27-.51-1.61-1.9-2.67-3.62-2.57Z"/>
  <path class="cls-1" d="M23,59.68c-1.91-.15-3.71,1.62-3.78,3.65-.08,2.25,1.61,4.08,3.78,4.08,2.05,0,3.82-1.81,3.73-3.87-.12,.09-.21,.15-.29,.23-.53,.54-1.05,1.09-1.58,1.62-1.07,1.08-2.68,1.09-3.71,.03-1.03-1.06-1.02-2.72,.02-3.82,.5-.53,1.01-1.04,1.51-1.56,.1-.11,.2-.23,.32-.36Z"/>
  <path class="cls-1" d="M40.4,10.89v-2.89h-7.17q-.15,.75,.54,.95c2.05,.6,4.11,1.21,6.16,1.81,.14,.04,.29,.08,.47,.12Z"/>
  <path class="cls-1" d="M60.2,58.74c-.38,.48-.73,.92-1.09,1.37,1.33,1.37,2.62,2.71,3.93,4.04,.36,.36,.88,.34,1.22,0,.32-.32,.38-.86,.05-1.21-1.34-1.4-2.71-2.78-4.11-4.21Z"/>
  <path class="cls-1" d="M27.68,60c-.52-.45-1.06-.63-1.64-.64-.14,0-.32,.11-.43,.22-1.06,1.07-2.11,2.15-3.15,3.23-.43,.45-.46,.98-.09,1.35,.35,.36,.9,.34,1.32-.08,1.32-1.34,2.63-2.69,3.98-4.08Z"/>
  <path class="cls-1" d="M15.02,38.25c-.09-2.09-2.36-4.1-4.66-4.15-2.44-.06-4.76,1.88-4.95,4.15H15.02Z"/>
  <path class="cls-1" d="M4.47,40.1c.18,.56,.33,1.06,.51,1.55,.04,.1,.23,.21,.35,.21,3.25,.01,6.5,.01,9.76,0,.13,0,.33-.09,.36-.19,.19-.5,.34-1.01,.52-1.57H4.47Z"/>
</svg>