<?xml version="1.0" encoding="UTF-8"?>
<svg id="Layer_1" data-name="Layer 1" xmlns="http://www.w3.org/2000/svg" viewBox="0 0 72 72">
  <defs>
    <style>
      .cls-1 {
        fill: #5a2b5f;
      }
    </style>
  </defs>
  <path class="cls-1" d="M68.15,37.2c-3.35-.52-4.84-1.58-4.73-4.72,.29-8.2,.03-16.42,.14-24.64,.03-2.36-.87-3.3-3.55-3.35-7.99-.12-7.98-.19-9.52,6.95-.23,1.09-.44,2.18-.73,3.25-.84,3.14-3.19,5-6.76,5.06-5.87,.09-11.73,.09-17.6,0-3.87-.06-6.22-1.97-7.04-5.44-.62-2.61-1.33-5.22-1.77-7.86-.26-1.53-1.02-1.97-2.65-1.96-10.71,.09-9.19-.91-9.22,7.96-.06,17.35-.02,34.7-.02,52.05,0,3.67,.24,3.88,4.4,3.88,7.41,0,14.83,.23,22.23-.09,3.77-.16,6.26,.9,8.12,3.95-.39,.07-.73,.19-1.08,.19-10.4,.01-20.79,.04-31.19,0-4.12-.02-6.72-2.22-7.09-5.92-.16-1.56-.06-3.13-.06-4.7,0-17.63,0-35.25,0-52.88C.03,2.71,2.54,.48,9.52,.48c16.98,0,33.97-.01,50.95,0,4.83,0,7.56,2.04,7.63,6.24,.17,10.05,.05,20.1,.05,30.47ZM21.08,4.71c.61,3.13,.99,5.96,1.8,8.69,.26,.87,1.67,2.06,2.6,2.09,5.74,.19,11.49,.18,17.24,.02,.91-.03,2.35-.98,2.59-1.75,.9-2.89,1.41-5.88,2.11-9.05H21.08Z"/>
  <path class="cls-1" d="M53.61,54.17c-.9-1.96-1.54-3.88-2.63-5.58-1.22-1.91-2.89-3.58-4.24-5.42-.3-.4-.07-1.12-.08-1.69,.62,.14,1.52,.09,1.82,.45,2.21,2.65,5.64,5.19,6.15,8.13,1.15,6.57,6.92,10.13,10.29,15.18,.31,.47,.77,.87,1.09,1.34,1.04,1.52,1.12,3.05-.64,4.13-1.76,1.07-3.35,.52-4.49-.99-2.82-3.74-5.51-7.55-8.45-11.21-.88-1.1-2.39-1.79-3.63-2.65-.64-.44-1.51-.7-1.98-1.25-2.05-2.42-4.03-4.89-5.93-7.4-.32-.42-.16-1.14-.22-1.72,.68,.19,1.62,.19,1.99,.6,1.49,1.64,2.88,3.36,4.15,5.14,1.35,1.91,2.94,3.32,6.8,2.94Zm1.66,2.86c-.19,.16-.37,.31-.56,.47,3.02,3.99,6.03,7.98,9.05,11.96,.44-.28,.88-.56,1.32-.84-2.97-4.05-6.58-7.7-9.81-11.59Z"/>
  <path class="cls-1" d="M57.17,51.9c-.05-4.23,3.27-8.88,7.35-10.34,4.09-1.46,7.61,.72,7.47,4.63-.16,4.57-5.98,10.17-11.03,10.57-.34,.03-.96-.15-1.02-.34-.11-.38-.1-1.06,.17-1.22,.83-.5,1.76-.88,2.71-1.19,3.83-1.27,6.05-3.79,6.67-7.29,.17-.99-.42-2.48-1.25-3.09-.65-.47-2.4-.26-3.34,.2-3.48,1.69-5.39,4.42-5.66,8-.04,.55,.13,1.14-.03,1.65-.18,.54-.65,1-.99,1.49-.35-.47-.82-.9-1-1.42-.17-.5-.04-1.09-.04-1.64Z"/>
  <path class="cls-1" d="M33.71,35.48v2.87H13.51v-2.87h20.2Z"/>
  <path class="cls-1" d="M52.98,60.56c0,3.39-4.68,4.89-5,8.15,.3,.18,.6,.37,.9,.55,.97-1.14,1.94-2.28,2.9-3.43,.55-.66,.98-1.42,1.62-2,.35-.33,1.01-.39,1.53-.57,.13,.48,.55,1.13,.34,1.42-1.41,2.01-2.8,4.08-4.55,5.84-.57,.57-2.51,.72-3.28,.29-.92-.52-2.04-2.27-1.71-2.79,1.81-2.83,4.04-5.44,6.13-8.12,.38,.22,.76,.44,1.14,.66Z"/>
  <path class="cls-1" d="M13.45,32.96v-2.99h12.44c.62,1.92,.5,3.15-2.36,3.02-3.25-.14-6.52-.03-10.08-.03Z"/>
  <path class="cls-1" d="M50.72,52.1c-.71-.27-1.67-.37-2.08-.84-1.74-2.04-3.37-4.16-4.92-6.32-.28-.39,0-1.11,.03-1.68,.55,.11,1.36,.05,1.6,.35,2.06,2.57,4.01,5.21,5.99,7.83-.21,.22-.42,.44-.63,.66Z"/>
</svg>