<?xml version="1.0" encoding="UTF-8"?>
<svg id="Layer_1" data-name="Layer 1" xmlns="http://www.w3.org/2000/svg" viewBox="0 0 72 72">
  <defs>
    <style>
      .cls-1 {
        fill: #5a2b5f;
      }
    </style>
  </defs>
  <path class="cls-1" d="M65.05,39.57c-.64-.49-1.45-1.16-2.3-1.75-2.44-1.67-4.62-.62-5.28,2.81-.42,2.21-.49,4.4-2.9,4.3-2.14-.08-2.32-1.97-2.69-4.09-.66-3.79-2.78-4.87-5.44-2.94-1.47,1.06-2.69,2.63-4.43,.28-1.61-2.18-.41-3.58,.37-5.28,1.65-3.61,.82-6.14-2.45-7.13-1.51-.46-2.83-.76-3-3.23-.17-2.57,1.21-2.38,2.55-3.04,3.98-1.96,4.47-4.05,2.28-9.07-.84-1.93-.52-3.08,.6-4.42,1.13-1.36,2.1-1.04,3.25-.08,3.62,3.04,5.33,2.2,6.44-3.28,.39-1.9,.97-3.08,2.64-3.08,1.64,0,2.23,1.02,2.63,3.01,1.15,5.75,2.44,6.46,6.17,3.6,1.4-1.08,2.51-1.59,3.84,.18,1.21,1.61,.83,2.91,.08,4.54-2.19,4.8-1.68,6.6,2.73,8.06,1.75,.58,1.51,1.81,1.74,3.31,.31,1.96-.34,2.81-1.65,3.41-4.5,2.05-4.61,2.42-2.75,8.37,.87,2.79-.26,5.67-2.42,5.52Zm-4.21-17.33c0-4.42-2.77-7.85-6.27-7.79-3.44,.06-6.17,3.69-6.08,8.06,.07,3.38,3.52,8.55,5.58,8.38,3.68-.3,6.78-4.26,6.77-8.66Z"/>
  <path class="cls-1" d="M29.31,48.09c-3.89,0-7.78-.14-11.66,.06-1.97,.1-2.72-.81-3.19-3.2-1.47-7.51-3.39-14.89-4.68-22.45-.82-4.8-2.28-7.73-6.38-8.29-1.11-.15-3.97,.27-3.37-2.52,.43-1.95,2.51,.2,3.86,.32,4.8,.41,6.92,3.84,7.73,9.92,.91,6.84,2.81,13.46,4.16,20.22,.48,2.39,1.12,3.63,3.36,3.56,6.8-.22,13.61-.1,20.41-.06,1.54,0,2.99,.08,3.02-2.67,0-.69,.34-1.1,.95-.96,.75,.17,.92,.7,.81,1.64-.29,2.54-.4,4.81-3.35,4.53-3.87-.37-7.77-.09-11.66-.09Z"/>
  <path class="cls-1" d="M21.95,8.48c.07-4.95,2.57-8.14,6.28-8.01,5.24,.18,7.91,3.14,7.77,8.57-.13,4.86-3.24,8.64-7.09,8.61-4.1-.03-7.04-3.91-6.96-9.17Zm10.84-2.19c.24-1.23,.01-1.73-.5-1.96-.9-.42-1.28,.44-1.7,1.2-1.25,2.21-2.05,6.33-4.9,1.88-.27-.42-.99-.4-1.21,.32-.65,2.13,.88,3.01,1.69,4.15,.69,.97,1.41,3.58,2.63,1.98,1.73-2.26,2.83-5.29,3.98-7.56Z"/>
  <path class="cls-1" d="M24.15,20.11c3.15,0,6.29-.02,9.44,.02,.65,0,1.6-.26,1.47,1.24-.08,.94-.69,1.18-1.33,1.18-6.29,0-12.59,.02-18.88,0-.76,0-1.54-.29-1.46-1.51,.1-1.42,1.06-.9,1.68-.91,3.03-.05,6.05-.02,9.08-.02Z"/>
  <path class="cls-1" d="M29.15,51.18c5.2-1.34,9.4,2.23,13.99,3.98,1.8,.69,1.5,2.49,1.48,4.15,0,.71-.33,1.18-.88,1.18-.32,0-.93-.26-.93-.42-.12-4.5-3.34-3.75-5.27-4.92-2.69-1.62-5.58-2.68-8.39-3.98Z"/>
  <path class="cls-1" d="M15.36,29.28c8.3,0,16.52,0,24.74,.01,.48,0,.97,.14,.99,.97,.02,.82-.41,1.07-.92,1.05-8.21-.31-16.43,.83-24.62-.59-.03,0-.04-.28-.19-1.45Z"/>
  <path class="cls-1" d="M10.76,71.57c-1.91-.31-3.17-1.72-3.17-4.21,0-2.74,1.35-4.4,3.49-4.24,1.92,.14,3.12,1.68,3,4.33-.12,2.57-1.26,3.92-3.32,4.11Z"/>
  <path class="cls-1" d="M47.06,67.06c-.35,2.8-1.4,4.53-3.56,4.41-1.95-.1-3.12-1.67-3.12-4.16,0-2.74,1.34-4.29,3.43-4.23,1.96,.06,2.88,1.83,3.24,3.97Z"/>
  <path class="cls-1" d="M40.2,39.76c-7.37,0-14.58,0-21.8-.01-.61,0-1.25-.18-1.26-1.22,0-.85,.55-.89,1.01-.88,6.9,0,13.81,.02,20.71,.07,.7,0,.92,.87,1.34,2.04Z"/>
  <path class="cls-1" d="M19.67,50.67c-2.32,1.98-4.12,3.46-5.87,5.03-.67,.6-1.38,1.28-1.83,2.13-.48,.92,.31,3.54-1.55,2.44-1.17-.7-.93-3.34-.15-4.09,2.58-2.48,4.85-6.08,9.39-5.52Z"/>
</svg>