<?xml version="1.0" encoding="UTF-8"?>
<svg id="Layer_1" data-name="Layer 1" xmlns="http://www.w3.org/2000/svg" viewBox="0 0 72 72">
  <defs>
    <style>
      .cls-1 {
        fill: #5a2b5f;
      }
    </style>
  </defs>
  <path class="cls-1" d="M12,34.74c0-.35,0-.6,0-.85,0-8.75,0-17.5,0-26.25,0-3.34,1.93-5.27,5.27-5.27,1,0,1.99,0,3.07,0,.19-.96-.29-2.45,1.35-2.35,1.37,.08,.98,1.36,1.11,2.29h7.13C30.15,1.41,29.66-.04,31.24,0c1.44,.04,1.03,1.37,1.19,2.3h7.13c.17-.94-.27-2.37,1.32-2.3,1.38,.06,1.02,1.32,1.13,2.28h7.14c.2-.88-.28-2.38,1.36-2.28,1.36,.08,.98,1.36,1.13,2.35,1.02,0,2.04,0,3.06,0,3.34,0,5.28,1.93,5.28,5.26,0,8.78,0,17.56,0,26.34,0,.25,0,.5,0,.84,.95,0,1.83,0,2.7,0,1.86,0,3.72-.01,5.57,0,2.22,.02,3.73,1.51,3.73,3.72,.01,7.09,.02,14.18,0,21.28,0,2.33-1.49,3.79-3.83,3.79-6.32,0-12.63,.02-18.95,0-.8,0-1.42,.23-2.03,.71-2.78,2.2-5.59,4.36-8.38,6.54-1.99,1.56-3.6,1.57-5.58,.03-2.8-2.18-5.6-4.34-8.38-6.54-.66-.53-1.34-.75-2.19-.74-6.2,.03-12.4,.02-18.61,.01-2.63,0-4.04-1.39-4.04-4C0,52.63,0,45.68,0,38.74c0-2.5,1.44-3.94,3.94-3.94,2.43,0,4.86,0,7.29,0,.22,0,.45-.03,.78-.06Zm23.97,2.41h0c-10.59,0-21.18,0-31.77,0-1.52,0-1.85,.33-1.85,1.86,0,6.75,0,13.49,0,20.24,0,1.7,.28,1.97,2,1.97,6.23,0,12.46,0,18.69-.02,1.14,0,2.11,.34,3,1.05,2.83,2.23,5.68,4.43,8.51,6.64,1.3,1.02,1.58,1.01,2.91-.02,2.82-2.19,5.65-4.37,8.45-6.59,.94-.75,1.96-1.08,3.16-1.08,6.26,.03,12.51,.02,18.77,.02,1.44,0,1.79-.34,1.79-1.74,0-6.86,0-13.72,0-20.58,0-1.36-.38-1.74-1.71-1.74-3.26,0-6.51,0-9.77,0-7.39,0-14.78,0-22.17,0Zm-21.58-2.41H57.57V11.99H14.4v22.76Zm-.02-25.25H57.61c0-.92,.05-1.77-.01-2.62-.08-1.04-.85-1.97-1.87-2.07-1.35-.12-2.71-.03-4.11-.03-.11,.96,.27,2.26-1.17,2.3-1.57,.04-1.08-1.41-1.29-2.28h-7.12c-.18,1.89-.41,2.37-1.23,2.31-1.51-.11-1.08-1.39-1.25-2.32h-7.14c-.12,.94,.27,2.25-1.16,2.3-1.59,.06-1.09-1.4-1.31-2.29h-7.12c-.15,.92,.26,2.2-1.12,2.29-1.65,.1-1.15-1.4-1.37-2.35-1.3,0-2.53-.04-3.75,.01-1.16,.05-2.11,.98-2.19,2.14-.06,.85-.01,1.7-.01,2.61Z"/>
  <path class="cls-1" d="M35.91,58.78c-8.09,0-16.18,0-24.27,0-.34,0-.69,.02-1.03-.03-.62-.09-.96-.51-.99-1.12-.03-.62,.32-1.03,.92-1.18,.27-.07,.57-.04,.85-.04,16.35,0,32.7,0,49.05,0,.31,0,.64-.03,.94,.03,.64,.12,1.03,.54,.99,1.2-.03,.64-.41,1.06-1.08,1.12-.34,.03-.69,.02-1.03,.02-8.12,0-16.23,0-24.35,0Z"/>
  <path class="cls-1" d="M47.66,51.76c.09-.54,.18-1.28,.33-2,.13-.59,.02-1.04-.45-1.45-.47-.41-.9-.88-1.32-1.35-1.15-1.29-.6-2.96,1.07-3.33,.08-.02,.17-.06,.25-.05,1.89,.12,2.88-.89,3.41-2.6,.26-.85,.9-1.38,1.86-1.37,.91,0,1.56,.5,1.8,1.33,.52,1.83,1.65,2.69,3.56,2.68,.83,0,1.44,.5,1.71,1.33,.25,.79,.08,1.55-.55,2.02-1.61,1.21-2.07,2.69-1.44,4.6,.26,.79-.04,1.54-.74,2.04-.74,.53-1.57,.52-2.24-.02-1.46-1.17-2.77-1.02-4.28,0-1.43,.96-3.02-.01-2.98-1.84Zm9.44-5.93c-2.37,.14-3.68-.96-4.32-3.19-.54,2.36-2.03,3.24-4.27,3.09,.22,.32,1.75,5.05,1.79,5.38,.5-.27,.99-.48,1.43-.78,.73-.49,1.41-.48,2.14,0,.45,.29,.96,.51,1.44,.75,.1-.01,.21-.02,.31-.04-1.14-2.22-.34-3.83,1.48-5.23Z"/>
  <path class="cls-1" d="M14.04,51.77c.1-.65,.28-1.43,.33-2.23,.02-.37-.14-.82-.37-1.12-.43-.56-1-1.02-1.46-1.56-1.05-1.25-.5-3.09,1.1-3.18,2.08-.12,3.26-1.02,3.84-2.97,.22-.74,.9-1.09,1.68-1.11,.79-.02,1.36,.37,1.72,1.06,.19,.35,.4,.7,.51,1.08,.34,1.21,1.14,1.7,2.37,1.75,1.04,.04,2.09,.21,2.49,1.42,.42,1.24-.34,2.04-1.16,2.71-1.03,.84-1.36,1.8-.95,3.05,.11,.35,.15,.73,.18,1.1,.12,1.68-1.33,2.67-2.83,1.93-.54-.26-1.08-.53-1.58-.86-.52-.35-.97-.32-1.48,.01-.52,.34-1.08,.64-1.65,.9-1.39,.64-2.79-.31-2.74-1.99Zm5.15-9.11c-.59,2.3-2.01,3.25-4.25,3.05,.45,.8,1.68,4.71,1.7,5.31,0,0,5.09-.01,5.12-.01-.09-.96-.45-2-.18-2.84,.28-.86,1.18-1.52,1.99-2.47-2.38,.23-3.79-.74-4.37-3.03Z"/>
  <path class="cls-1" d="M30.85,51.77c.09-.58,.28-1.34,.31-2.1,.02-.43-.15-.93-.39-1.28-.37-.53-.91-.95-1.35-1.44-1.15-1.3-.61-3.18,1.09-3.28,2.01-.13,3.18-.96,3.74-2.86,.23-.78,.89-1.19,1.71-1.2,.86-.02,1.54,.41,1.78,1.22,.56,1.84,1.65,2.85,3.67,2.8,.78-.02,1.38,.51,1.64,1.3,.27,.79,.11,1.56-.52,2.03-1.61,1.21-2.1,2.67-1.46,4.6,.27,.81-.03,1.59-.79,2.1-.73,.48-1.52,.47-2.17-.05-1.46-1.16-2.77-1.05-4.29-.01-1.43,.97-3.02,.02-2.99-1.81Zm2.52-.61c1.81-1.53,3.48-1.4,5.11,.03,.05-.17,1.67-5.32,1.67-5.33-.9-.21-1.98-.19-2.66-.7-.7-.52-1.01-1.55-1.65-2.64-.41,2.49-1.89,3.36-4.18,3.33,1.96,1.35,2.54,3.03,1.71,5.3Z"/>
  <path class="cls-1" d="M29.25,28.3c.35-1.43-.04-2.62-1.13-3.62-.44-.4-.79-.9-1.15-1.38-1.09-1.45-.52-3.23,1.2-3.75,.74-.22,1.48-.46,2.24-.57,1.11-.17,1.85-.73,2.38-1.7,.35-.65,.8-1.25,1.24-1.85,1.06-1.41,3.04-1.51,3.87,.02,1.32,2.43,3.19,3.71,5.9,4.15,1.77,.29,2.31,2.26,1.21,3.71-.43,.57-.85,1.17-1.37,1.65-.88,.82-1.13,1.78-.95,2.93,.1,.62,.1,1.25,.11,1.88,.03,1.95-1.49,3.03-3.34,2.38-.94-.33-1.87-.73-2.82-1.01-.4-.12-.9-.12-1.3,0-.9,.26-1.78,.62-2.66,.94-2.1,.76-3.58-.32-3.5-2.57,.01-.4,.05-.8,.07-1.2Zm-.52-6.45c.89,1.05,1.71,1.92,2.43,2.88,.3,.4,.49,.96,.52,1.45,.07,1.24,.02,2.49,.02,3.81,1.04-.39,2.14-.77,3.2-1.23,.73-.31,1.39-.34,2.13-.03,1.09,.45,2.23,.81,3.46,1.25-.07-1.25-.1-2.36-.21-3.46-.08-.8,.13-1.42,.68-2.02,.77-.83,1.45-1.75,2.26-2.74-1.03-.26-1.92-.57-2.83-.69-1.31-.16-2.17-.81-2.8-1.94-.45-.8-1.02-1.53-1.6-2.38-.78,1.15-1.4,2.18-2.15,3.11-.34,.43-.88,.8-1.4,.98-1.15,.4-2.35,.66-3.71,1.02Z"/>
</svg>