<?xml version="1.0" encoding="UTF-8"?>
<svg id="Layer_1" data-name="Layer 1" xmlns="http://www.w3.org/2000/svg" viewBox="0 0 72 72">
  <defs>
    <style>
      .cls-1 {
        fill: #5a2b5f;
      }
    </style>
  </defs>
  <path class="cls-1" d="M56.04,57c-.34,2.96-1.23,3.86-4.33,4.4,.08,.13,.15,.26,.24,.37,1.29,1.55,1.12,3.25-.5,4.6-.76,.64-1.56,1.25-2.37,1.85-1.8,1.35-3.89,1.5-6.01,.44-.1-.05-.21-.1-.41-.19-.06,.2-.11,.35-.15,.51-.48,1.71-2.2,2.83-4.42,2.87-1.12,.02-2.23,0-3.35,0-2.53-.01-4.19-1.08-4.71-3.04-.02-.09-.06-.18-.12-.33-.32,.15-.58,.28-.85,.4-1.64,.74-3.8,.61-5.17-.38-1.05-.76-2.08-1.56-3.04-2.39-1.45-1.26-1.43-2.83,.02-4.69-3.08-.43-4.45-1.93-4.3-4.41-.42,0-.76,0-1.1,0-4.43,0-8.87,0-13.3,0-1.48,0-1.97-.37-1.9-1.54,.22-3.39,.35-6.79,.75-10.18,.63-5.43,4.12-9.44,10.24-12.07,4.25-1.83,8.76-3.11,13.34-4.29,.77-.2,1.34,.04,1.95,.35,5.28,2.64,10.84,3.02,16.62,1.19,1.08-.34,2.06-.9,3.11-1.31,.43-.17,1-.36,1.41-.27,5.24,1.12,10.37,2.47,15.01,4.78,5.17,2.58,8.05,6.31,8.69,11.02,.5,3.67,.62,7.38,.87,11.07,.06,.86-.5,1.24-1.67,1.24-4.5,0-8.99,0-13.49,0-.34,0-.69,0-1.08,0Zm-35.14-5.57c-.1-.14-.17-.25-.25-.36-1.36-1.7-1.14-3.32,.68-4.76,.76-.6,1.54-1.2,2.3-1.8,1.07-.84,2.37-1.21,3.84-.99,.84,.12,1.64,.46,2.5,.71,.03-.09,.08-.23,.11-.37,.45-1.7,2.1-2.82,4.29-2.88,1.31-.04,2.62-.04,3.92,0,2.1,.07,3.74,1.18,4.21,2.78,.05,.18,.1,.36,.16,.56,2.94-1.33,4.61-1.16,6.96,.7,.63,.5,1.28,.98,1.89,1.49,1.5,1.23,1.71,2.97,.56,4.42-.12,.15-.23,.31-.38,.5,2.26,.29,3.68,1.2,4.24,2.9,.06,.18,.53,.39,.8,.39,3.96,.03,7.91,.02,11.87,.02,.22,0,.43-.03,.67-.05,.03-.13,.08-.23,.07-.32-.21-2.89-.33-5.79-.66-8.68-.57-4.95-3.65-8.64-9.33-10.96-3.58-1.47-7.35-2.52-11.23-3.38-.31-.07-.76,0-1.06,.14-7.19,3.21-14.36,3.21-21.56,.01-.27-.12-.69-.21-.96-.14-4.64,1.19-9.23,2.48-13.37,4.58-3.75,1.9-6.24,4.53-6.9,8.01-.51,2.69-.7,5.41-.97,8.13-.09,.86-.01,1.73-.01,2.66,4.31,0,8.55,0,12.78-.01,.19,0,.5-.16,.54-.29,.5-1.78,1.97-2.73,4.26-3.01Zm32.17,5.04c0-.42,.01-.85,0-1.27-.03-.97-.59-1.41-1.83-1.43-1.02-.01-2.04,0-3.06,0-.7,0-1.27-.18-1.53-.72-.25-.52-.05-.97,.47-1.36,.71-.54,1.41-1.08,2.1-1.64,.9-.73,.9-1.36,0-2.08-.71-.57-1.43-1.14-2.16-1.69-.9-.69-1.66-.7-2.58-.01-.76,.57-1.44,1.22-2.26,1.72-.41,.25-1.19,.41-1.61,.27-.42-.14-.8-.69-.87-1.09-.13-.81-.02-1.65-.05-2.47-.03-.93-.6-1.39-1.76-1.41-1.08-.02-2.17-.02-3.25,0-1.18,.02-1.72,.48-1.74,1.42-.01,.77,0,1.55,0,2.32,0,.56-.19,1.05-.92,1.28-.71,.22-1.3,0-1.81-.4-.69-.55-1.38-1.11-2.1-1.64-.87-.65-1.67-.66-2.52-.03-.76,.57-1.5,1.15-2.22,1.75-.9,.75-.89,1.34,.02,2.08,.71,.57,1.52,1.08,2.13,1.71,.31,.32,.53,.92,.36,1.26-.17,.33-.87,.64-1.38,.7-1,.11-2.03,.03-3.05,.04-1.33,.01-1.88,.43-1.9,1.44-.02,.82-.02,1.65,0,2.47,.02,.91,.61,1.37,1.79,1.4,.92,.02,1.85,.02,2.77,0,.77-.02,1.49,.04,1.84,.69,.34,.64-.06,1.09-.63,1.52-.7,.51-1.37,1.04-2.03,1.59-.77,.64-.77,1.28,0,1.92,.75,.62,1.52,1.21,2.29,1.8,.84,.64,1.67,.64,2.51,0,.71-.54,1.42-1.08,2.09-1.64,.53-.44,1.15-.66,1.88-.41,.71,.24,.88,.75,.87,1.31,0,.75,0,1.5,0,2.25,.02,.99,.55,1.43,1.79,1.46,1.05,.02,2.1,.02,3.16,0,1.2-.02,1.79-.5,1.81-1.46,.02-.8-.09-1.61,.04-2.4,.07-.41,.41-.9,.83-1.13,.55-.3,1.22-.12,1.72,.29,.76,.61,1.52,1.22,2.31,1.8,.78,.57,1.6,.56,2.37-.02,.78-.59,1.54-1.19,2.3-1.8,.85-.69,.85-1.32-.02-2.02-.71-.58-1.43-1.14-2.16-1.7-.51-.39-.77-.91-.38-1.35,.29-.33,.92-.6,1.44-.66,1.04-.1,2.1-.01,3.15-.04,1.18-.03,1.75-.5,1.77-1.41,.01-.4,0-.8,0-1.2Z"/>
  <path class="cls-1" d="M55.4,14.92c-.05,8.27-8.62,14.92-19.22,14.89-10.48-.02-19.04-6.78-18.99-15C17.25,6.46,25.79-.19,36.41-.15c10.55,.04,19.04,6.78,18.99,15.07Zm-19.15,12.6c8.88,.02,16.2-5.64,16.24-12.59,.05-7.04-7.21-12.8-16.16-12.82-8.91-.02-16.21,5.68-16.23,12.68-.02,7.02,7.2,12.71,16.14,12.73Z"/>
  <path class="cls-1" d="M44.12,55.9c-.02,3.42-3.51,6.13-7.87,6.1-4.35-.02-7.85-2.79-7.81-6.17,.04-3.4,3.58-6.13,7.9-6.11,4.37,.03,7.8,2.75,7.78,6.18Zm-7.79,3.82c2.73-.01,4.91-1.74,4.89-3.88-.02-2.13-2.24-3.85-4.95-3.83-2.73,.02-4.91,1.75-4.9,3.88,.01,2.13,2.24,3.84,4.96,3.83Z"/>
</svg>