<svg width="44" height="43" viewBox="0 0 44 43" fill="none" xmlns="http://www.w3.org/2000/svg">
<g id="Group 86">
<path id="Vector" d="M41.7369 35.1658C41.7299 35.7464 41.7312 36.3269 41.7446 36.9069C41.7516 37.2092 41.6519 37.3072 41.3438 37.3059C38.9254 37.2958 36.5076 37.3009 34.0892 37.3002C30.7228 37.3002 27.357 37.3002 23.9905 37.299C23.5481 37.299 23.5469 37.2971 23.5469 36.8664C23.5469 26.3276 23.5469 15.7894 23.5469 5.25059C23.5469 4.83192 23.5481 4.83002 23.9707 4.83002C29.7447 4.83002 35.518 4.83002 41.292 4.83002C41.7369 4.83002 41.7388 4.83129 41.7388 5.2664C41.7388 13.1705 41.7388 27.5747 41.7388 35.4782C41.7388 35.5079 41.7388 35.5345 41.7388 35.5604H43.9981C44.0025 35.4668 43.9981 35.372 43.9981 35.2777C43.9981 26.9202 44 12.0619 43.9968 3.70367C43.9961 1.60084 42.4018 0.00901212 40.2794 0.00584998C35.176 -0.00173918 30.0733 -0.00237161 24.9699 0.0064824C22.8897 0.010277 21.2915 1.61222 21.2915 3.67268C21.2896 15.2664 21.2896 26.8594 21.2915 38.4532C21.2915 40.5301 22.8954 42.12 24.9999 42.1225C30.0816 42.1282 35.1639 42.1276 40.2455 42.1225C42.4069 42.1206 43.9929 40.5376 43.9974 38.3937C44 37.3167 43.9981 36.2403 43.9981 35.1632H41.7376L41.7369 35.1658ZM29.5957 2.40086C29.6136 2.20228 29.7236 2.06188 29.9326 2.03785C30.1647 2.01128 30.3993 1.98915 30.632 1.99105C32.1311 2.00243 33.6309 1.95247 35.13 2.02267C35.4963 2.03974 35.6702 2.15485 35.6778 2.41098C35.6868 2.69304 35.4931 2.84546 35.1057 2.84736C34.2759 2.85052 33.4461 2.84862 32.6163 2.84862C31.8185 2.84862 31.0207 2.85052 30.2229 2.84736C30.1071 2.84736 29.985 2.84483 29.877 2.81004C29.6859 2.74933 29.5772 2.60577 29.5957 2.40149V2.40086Z" fill="black"/>
<path id="Vector_2" d="M32.1376 29.0629C32.2079 29.147 32.2706 29.2387 32.3837 29.3917L32.633 29.7168C32.6631 29.6864 32.8542 29.4417 32.9316 29.3494C33.3222 28.8712 33.7025 28.3957 34.0925 27.9289C35.4094 26.3542 36.7244 24.7782 37.9646 23.1427C40.9398 19.2223 38.8494 13.6076 34.042 12.6121C30.1443 11.8051 26.4045 14.462 25.9737 18.3761C25.7691 20.2329 26.3182 21.8848 27.4747 23.3647C28.9859 25.2986 30.563 27.1795 32.1376 29.0629ZM32.6292 16.2707C34.2165 16.2663 35.4932 17.528 35.4913 19.1015C35.49 20.6585 34.2159 21.936 32.665 21.9354C31.0681 21.9354 29.7857 20.6743 29.7684 19.0882C29.7518 17.5754 31.0726 16.2751 32.6286 16.2707H32.6292Z" fill="black"/>
<path id="Vector_3" d="M13.3862 34.3512C11.4581 34.3512 9.52942 34.3575 7.60135 34.3448C7.28171 34.3429 7.16408 34.4296 7.18326 34.7547C7.20883 35.1961 7.19541 35.6394 7.1871 36.0821C7.17431 36.7506 6.7428 37.2376 6.07283 37.3438C5.92644 37.3672 5.7762 37.3767 5.62789 37.3767C4.27518 37.3792 2.92182 37.3799 1.5691 37.3773C0.511096 37.3754 0.00286831 36.8676 0.00222903 35.8171C0.00222903 32.4551 -0.00160665 29.0931 0.00414687 25.7312C0.00734327 24.0426 0.0898104 22.3597 0.506621 20.7122C0.813475 19.5005 1.34727 18.4165 2.36437 17.619C2.41807 17.5766 2.51524 17.5431 2.48839 17.4552C2.46537 17.3787 2.37076 17.3761 2.30108 17.3559C2.04601 17.2806 1.79029 17.2085 1.53522 17.1333C1.14079 17.0169 0.786625 16.831 0.495753 16.5382C-0.235583 15.8026 -0.13138 14.6908 0.725255 14.0957C1.17914 13.7808 1.69568 13.672 2.23779 13.6663C2.95123 13.6587 3.66594 13.6511 4.37874 13.6707C4.68687 13.6789 4.86012 13.5841 4.98989 13.2976C5.45656 12.2648 6.01146 11.2833 6.80608 10.4523C7.96957 9.23486 9.39964 8.5961 11.0758 8.39372C12.8313 8.18186 14.5874 8.01869 16.3556 7.95102C17.3139 7.91434 18.2722 7.92256 19.2305 7.89916C19.5373 7.89158 19.6486 8.00288 19.6396 8.30265C19.6236 8.79721 19.63 9.29304 19.6371 9.78823C19.6403 10.0165 19.5584 10.0886 19.3168 10.0931C16.954 10.1373 14.588 10.1348 12.24 10.4535C11.7337 10.5225 11.2267 10.5864 10.7242 10.6768C9.31845 10.9291 8.36721 11.8038 7.6608 12.963C6.94992 14.1305 6.44745 15.3991 5.94306 16.6646C5.84397 16.9132 5.93922 16.9587 6.16553 16.941C7.2587 16.855 8.35186 16.7778 9.44823 16.7361C10.4372 16.6988 11.4249 16.6109 12.4138 16.5837C13.936 16.542 15.4581 16.4812 16.9821 16.4882C17.7378 16.492 18.494 16.4705 19.2497 16.4465C19.5431 16.437 19.6403 16.554 19.639 16.8373C19.6307 18.5234 19.632 20.21 19.639 21.8961C19.6403 22.1522 19.5597 22.2332 19.288 22.237C17.1905 22.2661 15.0956 22.3571 13.0097 22.5981C12.713 22.6322 12.417 22.674 12.139 22.7878C11.6397 22.9927 11.4198 23.3279 11.4799 23.8554C11.5789 24.7199 11.8692 25.5389 12.1664 26.3497C12.3243 26.781 12.7444 26.9467 13.1656 27.063C13.7544 27.225 14.3637 27.2502 14.9671 27.3059C16.3883 27.4368 17.8132 27.5152 19.2407 27.5039C19.5565 27.5013 19.6486 27.6291 19.6396 27.9187C19.6249 28.3924 19.6224 28.8674 19.6409 29.3411C19.6524 29.6427 19.5431 29.7452 19.2356 29.7433C17.755 29.7313 16.2738 29.7376 14.7932 29.7382C14.1233 29.7382 13.913 29.9431 13.9085 30.6015C13.9066 30.8652 13.9021 31.1289 13.911 31.392C13.9283 31.8891 14.1687 32.1225 14.6705 32.1238C16.1728 32.1269 17.6745 32.1244 19.1768 32.125C19.63 32.125 19.6358 32.1307 19.6364 32.5886C19.6377 33.0205 19.6377 33.4531 19.6364 33.8851C19.6352 34.3341 19.6192 34.3518 19.173 34.3518C17.2449 34.3524 15.3162 34.3518 13.3881 34.3518L13.3862 34.3512ZM2.37588 23.3886C2.33304 24.0868 2.47305 24.7218 3.0273 25.2214C3.54704 25.69 4.17737 25.9076 4.85053 25.9797C6.37265 26.1416 7.89925 26.2624 9.42266 26.411C9.74038 26.442 9.66111 26.2757 9.6138 26.1093C9.38494 25.3093 9.12667 24.5169 8.93297 23.7086C8.74055 22.9042 8.2304 22.452 7.45623 22.268C6.03959 21.9315 4.61719 21.6172 3.19863 21.2877C2.99214 21.2396 2.8841 21.3174 2.7978 21.4951C2.50821 22.0934 2.32921 22.7138 2.37651 23.388L2.37588 23.3886Z" fill="black"/>
</g>
</svg>
