<svg width="46" height="33" viewBox="0 0 46 33" fill="none" xmlns="http://www.w3.org/2000/svg">
<g id="Group 87">
<path id="Vector" d="M42.5381 7.71041C42.0255 7.84177 41.5129 7.97064 41.0054 8.12183C40.7453 8.19866 40.6294 8.12926 40.5263 7.88638C39.8772 6.33488 39.1972 4.79329 38.5558 3.23931C38.0432 1.99266 37.1288 1.12273 35.9259 0.498166C35.4236 0.23793 34.9032 0.0817883 34.3675 0H11.3419C9.61354 0.292455 7.93151 1.53167 7.27725 3.06582C6.59722 4.66441 5.90689 6.26053 5.23717 7.86159C5.12384 8.13174 4.99504 8.19123 4.70912 8.102C4.16047 7.93347 3.60151 7.79468 3.04255 7.66332C1.66447 7.33864 0.520791 8.11192 0.355936 9.46514C0.296692 9.94348 0.299268 10.4218 0.33533 10.8977C0.435788 12.1815 1.2137 13.0886 2.41919 13.3637C2.83648 13.4579 2.83391 13.4579 2.67935 13.8371C1.95554 15.6017 1.51507 17.4407 1.48416 19.3293C1.42234 23.0247 1.45325 26.72 1.4687 30.4153C1.47386 31.6893 2.43722 32.75 3.75606 32.8987C4.96671 33.035 6.19797 33.0301 7.40862 32.9062C8.85367 32.7599 9.76037 31.6843 9.76295 30.2914C9.76295 29.6619 9.76295 29.0299 9.76295 28.4004C9.76295 28.0931 9.92436 27.9394 10.2472 27.9394C14.4484 27.9394 18.6522 27.9394 22.8534 27.9394C27.0546 27.9394 31.2584 27.9394 35.4596 27.9394C35.8014 27.9394 35.9722 28.1079 35.9722 28.445C35.9722 29.0547 35.9645 29.6619 35.9722 30.2716C36.0006 31.8553 37.1494 32.9458 38.7928 32.9533C39.6737 32.9557 40.5547 32.9433 41.4356 32.9557C43.2129 32.983 44.3025 31.6273 44.2819 30.2394C44.2356 26.839 44.2587 23.4361 44.269 20.0332C44.2768 17.8422 43.8466 15.7381 43.0069 13.7057C42.9167 13.4901 42.927 13.4207 43.1975 13.386C44.3566 13.2398 45.2942 12.2782 45.423 11.1554C45.4771 10.6895 45.4745 10.2211 45.4539 9.75512C45.3818 8.12679 44.1789 7.2866 42.5381 7.71041ZM14.6055 22.3555C14.603 22.8933 14.3274 23.1585 13.771 23.1634C12.6865 23.1709 11.6021 23.1634 10.5202 23.1634C9.45899 23.1634 8.39774 23.1659 7.33649 23.1634C6.66419 23.1634 6.42207 22.928 6.42207 22.2737C6.41949 21.3492 6.41691 20.4273 6.42207 19.5028C6.42464 18.9204 6.6848 18.6626 7.28755 18.6601C9.44354 18.6552 11.5995 18.6552 13.7581 18.6601C14.3377 18.6601 14.6055 18.9228 14.6081 19.4855C14.6133 20.4421 14.6133 21.3963 14.6081 22.353L14.6055 22.3555ZM8.52911 13.448C8.39259 13.448 8.25865 13.448 8.12213 13.448C7.21028 13.4207 6.79556 12.8333 7.13558 12.008C7.64817 10.7663 8.18137 9.53206 8.70942 8.2978C9.32763 6.85039 9.94583 5.40547 10.564 3.95806C11.0251 2.87498 12.0941 2.1835 13.3176 2.1835C19.6877 2.1835 26.0578 2.1835 32.4253 2.1835C33.6514 2.1835 34.7229 2.8725 35.184 3.9531C36.3019 6.57529 37.4199 9.19995 38.5378 11.8221C38.5687 11.8915 38.5996 11.9634 38.6254 12.0353C38.9293 12.8532 38.53 13.4381 37.6311 13.4455C36.0392 13.4604 34.4473 13.4505 32.8529 13.4505C29.5326 13.4505 26.2123 13.4505 22.8921 13.4505C18.1035 13.4505 13.315 13.4505 8.52654 13.4505L8.52911 13.448ZM39.277 22.3133C39.277 22.9082 39.0092 23.1634 38.3858 23.1659C36.2401 23.1684 34.097 23.1684 31.9513 23.1659C31.3589 23.1659 31.0987 22.9181 31.0936 22.3555C31.0858 21.3988 31.0858 20.4446 31.0936 19.4879C31.0961 18.9278 31.364 18.6676 31.9462 18.6651C33.0177 18.6601 34.0919 18.6651 35.1634 18.6651C36.235 18.6651 37.3091 18.6626 38.3806 18.6651C39.0143 18.6676 39.2796 18.9278 39.2796 19.5449C39.2822 20.4694 39.2822 21.3914 39.2796 22.3158L39.277 22.3133Z" fill="black"/>
</g>
</svg>
