<svg width="50" height="40" viewBox="0 0 50 40" fill="none" xmlns="http://www.w3.org/2000/svg">
<g id="Group 98">
<path id="Vector" d="M22.4973 22.9123C22.1258 24.4077 21.777 25.813 21.4282 27.2182C21.2386 27.9847 21.049 28.7511 20.8671 29.5176C20.5334 30.9529 21.3523 32.3131 22.7551 32.6512C24.1579 32.9969 25.5228 32.1628 25.8944 30.7275C26.3645 28.9014 26.8119 27.0679 27.2668 25.2343C27.3047 25.0765 27.3502 24.9262 27.4033 24.7534H35.1528C35.0845 25.2118 34.895 25.4222 34.3642 25.4147C32.7036 25.3771 31.043 25.3997 29.39 25.3997C29.1776 25.7979 29.4127 25.813 29.6933 25.813C31.1643 25.813 32.6277 25.813 34.0988 25.813C34.258 25.813 34.4173 25.813 34.6523 25.813C34.5689 26.0158 34.5158 26.1661 34.4552 26.3014C33.0145 29.2471 31.5586 32.1853 30.1255 35.1385C29.9814 35.4391 29.8146 35.5593 29.4658 35.5593C26.6905 35.5443 23.9229 35.5443 21.1476 35.5593C19.6235 35.5593 18.4406 34.9882 17.6368 33.6732C17.5459 33.5229 17.2425 33.4177 17.0378 33.4177C13.3223 33.4027 9.59924 33.4102 5.88374 33.4102H5.27712V31.8547H16.598C15.3241 29.6529 14.1033 27.5488 12.8522 25.3921C12.6854 25.6476 12.5413 25.8505 12.4124 26.0609C11.366 27.7141 10.3044 29.3673 9.28076 31.0281C9.08362 31.3512 8.86372 31.4714 8.49975 31.4414C8.14337 31.4113 7.78698 31.4414 7.33202 31.4414C7.45335 31.2385 7.53676 31.0957 7.62016 30.9529C9.02295 28.7361 10.4257 26.5193 11.821 24.3025C12.0939 23.8667 12.0333 23.6939 11.5252 23.6187C9.2656 23.3031 7.00597 23.0025 4.74634 22.717C4.59469 22.6944 4.38237 22.8222 4.25347 22.9349C3.1009 23.9569 1.95592 24.9864 0.757865 26.0609C0.575881 25.8731 0.409063 25.6927 0.211914 25.4823C1.3114 24.4904 2.38055 23.521 3.46487 22.5667C3.85917 22.221 4.07907 21.8904 4.11698 21.2967C4.18522 20.2372 4.89799 19.4932 6.05814 19.6134C7.58225 19.7713 9.11395 19.8614 10.6381 19.9666C11.7603 20.0418 12.7309 20.5377 13.6939 21.0487C13.7849 21.1013 13.8607 21.199 13.9213 21.2892C14.6493 22.3863 15.726 22.8447 16.9999 22.8748C18.6302 22.9123 20.2604 22.8898 21.8907 22.8973C22.0651 22.8973 22.2471 22.8973 22.5049 22.8973L22.4973 22.9123Z" fill="black"/>
<path id="Vector_2" d="M20.701 10.2428C20.2915 9.92718 19.8821 9.61157 19.4726 9.30347C18.6082 8.6497 17.5693 8.75491 16.9551 9.53642C16.3485 10.3179 16.5002 11.3099 17.3343 11.9711C18.1456 12.6174 18.9721 13.2561 19.7986 13.8873C20.0034 14.0452 20.0716 14.1804 20.0261 14.4509C19.8745 15.4729 19.7683 16.5024 19.6546 17.5244C19.6318 17.7423 19.6546 17.9678 19.6546 18.2533C19.8441 18.2533 20.0185 18.2533 20.1929 18.2533C21.9673 18.2533 23.7492 18.2533 25.5235 18.2533C27.26 18.2533 28.2002 19.4406 27.7832 21.1013C27.0097 24.2124 26.2363 27.3309 25.4705 30.4419C25.1975 31.5466 24.4316 32.2229 23.408 32.2529C22.4753 32.2755 21.6033 31.6818 21.3683 30.7575C21.2697 30.3818 21.2697 29.946 21.3607 29.5702C21.8839 27.3384 22.4526 25.1216 22.9985 22.8973C23.0289 22.7771 23.044 22.6493 23.0743 22.4615C22.8545 22.4539 22.6725 22.4389 22.4829 22.4314C20.7086 22.4239 18.9266 22.4464 17.1523 22.3938C15.0292 22.3262 13.8993 21.199 13.6643 19.0949C13.3306 16.1117 13.596 13.2035 14.6273 10.3705C15.1884 8.83005 16.0983 7.68032 17.8044 7.34968C19.1162 7.09419 20.1323 7.66529 20.5645 8.92023C20.701 9.32601 20.7541 9.76186 20.8375 10.1827C20.792 10.2052 20.7465 10.2202 20.701 10.2428Z" fill="black"/>
<path id="Vector_3" d="M40.8481 25.7677C44.4575 24.7833 48.2791 26.7822 49.5606 30.2765C50.8572 33.8158 49.1815 37.8211 45.7389 39.339C42.2888 40.8645 38.2018 39.6546 36.2909 36.2505C34.5014 33.0568 35.472 28.8337 38.4823 26.8648C38.8539 27.6539 39.2254 28.4279 39.5742 29.2169C39.6121 29.3071 39.4984 29.5025 39.4074 29.6077C38.2094 30.9227 37.7999 32.4482 38.3458 34.1389C38.8918 35.7997 40.0823 36.8292 41.8187 37.2049C44.2679 37.7384 46.7474 36.0326 47.2024 33.5303C47.6346 31.1181 45.9209 28.6909 43.5096 28.3152C43.1912 28.2626 42.8499 28.1949 42.5391 28.24C42.0917 28.3076 41.9097 28.1123 41.758 27.744C41.4851 27.0903 41.1666 26.4591 40.8481 25.7752V25.7677Z" fill="black"/>
<path id="Vector_4" d="M27.4951 24.3326C27.7226 23.3858 27.9046 22.5216 28.1548 21.6725C28.4884 20.5302 28.5567 19.4481 27.6013 18.4788C29.9595 17.8175 32.2949 17.577 34.7517 17.4868C34.2892 16.6527 34.0769 15.781 33.4096 15.1649C33.3186 14.744 33.2276 14.3232 33.129 13.8648C33.22 13.8423 33.3717 13.7897 33.5233 13.7521C34.3119 13.5417 34.4863 13.6244 34.8275 14.3307C36.4426 17.7649 38.0578 21.199 39.6729 24.6332C40.9316 27.3084 42.1827 29.9836 43.4414 32.6587C43.5021 32.7865 43.5552 32.9218 43.631 33.0871C43.214 33.2824 42.8197 33.4628 42.3799 33.6732C42.2965 33.5079 42.213 33.3576 42.1448 33.2073C40.7344 30.209 39.3241 27.2182 37.9213 24.2199C37.7696 23.8968 37.6255 23.7916 37.2616 23.9118C36.1545 24.28 35.0095 24.3552 33.8418 24.3326C31.9386 24.295 30.0277 24.3251 28.1169 24.3251H27.5027L27.4951 24.3326Z" fill="black"/>
<path id="Vector_5" d="M14.5129 33.8084C14.2475 36.6414 11.6921 39.3091 8.78796 39.8576C5.50467 40.4738 2.32754 38.9709 0.81859 36.0778C-0.690358 33.1922 -0.0837458 29.743 2.33512 27.4586C4.56442 25.3545 7.93112 25.0239 10.168 26.1361C9.72062 26.8499 9.28841 27.5638 8.81829 28.2552C8.75763 28.3453 8.5074 28.3604 8.36333 28.3303C5.83072 27.7968 3.4346 29.2922 2.85832 31.7645C2.31995 34.0789 3.72275 36.431 6.03545 37.0998C8.31783 37.7611 10.7822 36.5437 11.5784 34.3194C11.7224 33.9136 11.8893 33.7633 12.3291 33.7934C13.0418 33.8385 13.7546 33.8009 14.5053 33.8009L14.5129 33.8084Z" fill="black"/>
<path id="Vector_6" d="M16.9775 10.5358C17.0003 10.0023 17.2581 9.61906 17.7282 9.3786C18.2287 9.1231 18.714 9.19073 19.1538 9.52137C19.9575 10.1301 20.7461 10.7538 21.5423 11.37C22.437 12.0688 23.3318 12.7677 24.2417 13.4515C24.3858 13.5642 24.6209 13.6318 24.8104 13.6093C26.7364 13.4214 28.6624 13.196 30.5884 13.0081C31.3846 12.933 32.5068 13.6243 32.8556 14.3382C33.1058 14.8567 33.0073 15.4504 32.5978 15.8561C32.1883 16.2619 31.5211 16.4498 31.0813 16.0966C30.4822 15.6082 29.868 15.7735 29.2387 15.8411C27.6236 16.014 26.0085 16.2319 24.3858 16.3596C23.9915 16.3897 23.491 16.2544 23.1726 16.014C21.2996 14.6162 19.4722 13.1659 17.6221 11.7307C17.2353 11.4301 16.9548 11.0694 16.9851 10.5434L16.9775 10.5358Z" fill="black"/>
<path id="Vector_7" d="M22.5056 7.48491C20.3976 7.45485 18.7294 5.76408 18.7522 3.69006C18.7825 1.60101 20.5114 -0.0296493 22.6572 0.000408926C24.6742 0.0304672 26.3652 1.75882 26.3348 3.77272C26.3045 5.85425 24.5908 7.51497 22.498 7.48491H22.5056Z" fill="black"/>
<path id="Vector_8" d="M41.6519 19.2151C41.5078 19.8463 41.4168 20.47 41.2197 21.0562C41.0453 21.5747 40.7117 21.6949 40.1733 21.5897C38.9676 21.3567 38.0956 20.3047 38.1563 19.155C38.2245 17.9376 39.18 16.9532 40.3325 16.8706C40.7723 16.833 41.0908 16.9983 41.2121 17.3891C41.3941 17.9827 41.5078 18.5914 41.6595 19.2151H41.6519Z" fill="black"/>
<path id="Vector_9" d="M10.6836 29.5402C11.1234 28.8489 11.6011 28.0974 12.1015 27.3009C13.3754 28.4281 14.1564 29.7657 14.4901 31.4339C13.5953 31.4339 12.7385 31.4339 11.8817 31.4264C11.7907 31.4264 11.6693 31.3062 11.6163 31.2085C11.313 30.6825 11.0248 30.1489 10.6836 29.5402Z" fill="black"/>
</g>
</svg>
