<?xml version="1.0" encoding="UTF-8"?>
<svg id="Layer_1" data-name="Layer 1" xmlns="http://www.w3.org/2000/svg" viewBox="0 0 200 200">
  <defs>
    <style>
      .cls-1 {
        fill: #f6f6f6;
      }

      .cls-2 {
        fill: #3c2619;
      }

      .cls-3 {
        fill: #efac76;
      }

      .cls-4 {
        fill: #d9d9d9;
      }

      .cls-5 {
        fill: #7b8dc7;
      }

      .cls-6 {
        fill: #ea6147;
      }
    </style>
  </defs>
  <path class="cls-5" d="M138.22,21.74c5.13,2.12,10.19,4.36,14.91,7.2,22.71,13.62,37.51,32.51,44.1,56.82,1.49,5.48,2.24,11.06,2.6,16.71,.67,10.36-.69,20.48-3.66,30.45-.06,.19-.05,.4-.08,.61-3,8.36-6.66,16.44-11.89,23.85-5.66,8.03-12.48,15.08-20.37,21.3-5.56,4.38-11.88,7.65-17.96,11.27-.47,.28-.94,.2-1.43,.19,.43-9.52,.94-19.04,1.27-28.57,.36-10.55,.56-21.1,.83-31.66,.05-1.91,.04-1.91,1.85-1.07,7.19,3.34,14.38,6.68,21.58,10.01,4.91,2.27,10.75,.79,13.63-3.47,2.11-3.12,1.87-6.34,.51-9.67-6.04-14.77-12.01-29.57-18-44.36-3.02-7.44-6.03-14.89-9.04-22.33-.24-.59-.4-1.2-1.32-.84-1.12-4.06-2.25-8.13-3.37-12.19,.79-2.91,1.57-5.82,2.38-8.72,.92-3.28-.91-6.6-4.38-7.72-1.29-.42-2.64-.75-3.99-.95-3.79-.57-7.1,.82-8.19,3.95-1.54,4.42-2.94,8.92-3.68,13.54-.99,1.5-2.09,2.96-2.96,4.52-1.25,2.24-2.16,4.57-.28,6.95-.88,3.04-1.89,6.05-2.59,9.12-.74,3.3,.97,6.18,4.22,7.22,2.64,.85,5.33,1.67,8.21,1.06,1.6,3.84,3.2,7.69,4.97,11.93-7.32-2.87-14.37-4.96-21.43-6.99-.54-.23-1.07-.48-1.62-.68-3.25-1.15-6.28-2.78-9.62-3.73-.06-.16-.12-.33-.18-.49-.04-2.79,.26-5.6-.15-8.38,.51-.29,.78-.79,1.3-1.1,2.98-1.77,5.62-3.93,7.94-6.39,3.64-3.85,6.43-8.13,7.05-13.35,.14-1.16,.51-1.69,1.8-1.89,2.19-.34,3.96-1.99,4.15-3.84,.24-2.27,.61-4.56,.39-6.85-.16-1.61-.5-3.24-2.46-3.96,.6-2.09,1.18-4.18,1.83-6.25,.2-.65-.03-1.45,.73-1.92,.9-.12,1.56,.53,2.39,.65Z"/>
  <path class="cls-5" d="M4.61,135.67c-1.18-4.13-2.45-8.23-3.16-12.46-1.14-6.75-1.72-13.51-1.33-20.37,.53-9.33,2.44-18.36,5.89-27.11,4.56-11.59,11.4-21.89,20.42-30.99,11.02-11.12,24.2-19.19,39.48-24.39,.56-.19,1.16-.3,1.74-.45,.59,2.26,.78,4.6,1.56,6.82-2.09,1.45-3.12,3.32-2.87,5.8,.1,.95-.08,1.92-.18,2.88-.29,2.98,.68,5.9,4.53,6.81,.92,.22,1.02,.77,1.02,1.49-.02,1.85,.44,3.63,1.05,5.37,1.72,4.89,4.82,8.98,8.75,12.55,1.37,1.24,2.79,2.43,4.19,3.65-.09,1.5-.15,3,.03,4.49-.06,1.86-.13,3.72-.19,5.58-.2,.11-.41,.22-.61,.33-.23,.1-.45,.19-.68,.29-.47-.01-.81,.22-1.11,.52-.27,.05-.56,.06-.8,.16-7.3,3.31-15.18,5.17-22.77,7.75-5.49,1.87-10.91,3.89-15.26,7.72-2.16,1.91-3.85,4.19-5.71,6.33-11.05,12.7-22.07,25.43-33.1,38.14-.7,.03-.55-.66-.9-.92Z"/>
  <path class="cls-2" d="M69.22,26.71c-.78-2.22-.97-4.56-1.56-6.82-.12-1.57-.21-3.14-.36-4.71-.45-4.54-.09-9.04,.68-13.54C68.18,.4,68.59,0,70.02,0c21.31,.05,42.61,.03,63.92,.03,.55,0,1.1,0,1.65-.01,.29,.22,.27,.53,.33,.83,1.09,5.61,.94,11.22,.16,16.84-.15,1.11-.83,2.22-.25,3.39-.76,.47-.52,1.27-.73,1.92-.65,2.07-1.23,4.17-1.83,6.25-1.04,1.91-2.08,3.81-3.16,5.79,0-2.7,0-5.25,0-7.79,0-.86,.18-1.71-.09-2.58-1.8-5.66-3.59-11.33-5.34-17.01-.21-.66-.47-.92-1.26-.81-2.77,.38-5.55,.83-8.34,1-5.36,.34-10.7,1.05-16.1,.43-6.01-.69-12-1.47-17.9-2.76-1.06-.23-1.49-.04-1.88,.95-2,5.12-4.09,10.22-6.19,15.3-.44,1.07-.64,2.13-.66,3.27-.05,2.64-.19,5.28-.29,7.92-.09,0-.19,0-.28,0-.85-2.09-1.7-4.18-2.55-6.27Z"/>
  <path class="cls-4" d="M135.83,21.09c-.58-1.17,.09-2.28,.25-3.39,.78-5.63,.93-11.24-.16-16.84-.06-.3-.04-.61-.33-.83,3.15,.01,3.29,.26,3.63,3.41,.63,5.95,.27,11.84-.99,17.7-.04,.2-.01,.41-.01,.61-.83-.11-1.48-.77-2.39-.65Z"/>
  <path class="cls-1" d="M44.98,184.68c-3.33-1.7-6.22-3.97-9.17-6.16-2.95-2.19-5.59-4.7-8.19-7.24-8.13-7.94-14.61-16.88-19.27-26.94-.89-1.91-1.85-3.79-2.68-5.72-.26-.61-.66-1.32-.16-2.03,11.03-12.72,22.06-25.44,33.1-38.14,1.86-2.14,3.54-4.42,5.71-6.33,4.34-3.83,9.77-5.86,15.26-7.72,7.59-2.58,15.47-4.44,22.77-7.75,.24-.11,.53-.11,.8-.16,.53,.12,1.03,.18,1.1-.52,.23-.1,.45-.19,.68-.29,.4,.9,1.08,1.56,1.84,2.25,1.29,1.19,3.12,1.87,4.13,3.21,1.68,2.23,4.29,3.5,6.17,5.52,.73,.78,.82,1.12,.05,1.79-1.39,1.22-2.75,2.48-4.07,3.77-.63,.62-1.09,1.35,.43,1.52,.99,2.51,2.57,3.68,5.81,3.54,2.92-.13,5.19-.35,6.12-3.25,.68-.08,1.2,.2,1.57,.67,.84,1.09,1.51,.72,2.32-.08,2.39-2.38,4.83-4.72,7.28-7.06,2.68-2.55,5.39-5.08,8.08-7.62,7.07,2.03,14.12,4.12,21.43,6.99-1.77-4.24-3.37-8.08-4.97-11.93-1.37-3.45-2.74-6.91-4.11-10.37,6.25-2.14,12.49-4.28,18.74-6.42,.92-.37,1.08,.24,1.32,.84,3,7.45,6.02,14.89,9.04,22.33,5.99,14.79,11.97,29.59,18,44.36,1.36,3.34,1.6,6.55-.51,9.67-2.88,4.26-8.72,5.74-13.63,3.47-7.2-3.33-14.38-6.68-21.58-10.01-1.81-.84-1.8-.84-1.85,1.07-.27,10.55-.46,21.11-.83,31.66-.33,9.53-.84,19.05-1.27,28.57-3.22,1.92-6.82,3.06-10.37,4.26-7.34,2.5-14.9,4.13-22.68,4.93-1.85,.19-3.69,.43-5.53,.58-.55,.05-1.28,.22-1.44-.61,2.22-1.63,2.46-3.78,2.34-6.25-.42-8.66-.67-17.33-.95-25.99-.62-18.96-1.21-37.92-1.82-56.89-.11-3.47-.3-6.93-.33-10.4-.01-1.22-.48-1.57-1.74-1.5-1.65,.09-3.31,.09-4.96,0-1.14-.06-1.5,.27-1.52,1.35-.1,4.38-.33,8.77-.47,13.15-.9,26.71-1.77,53.42-2.74,80.12-.09,2.51,.05,4.73,2.31,6.41-1.62,.72-3.37,.42-4.99,.26-7.78-.81-15.44-2.24-22.78-4.83-2.27-.8-4.71-1.3-6.67-2.77,.72-1.2,1.46-2.4,1.8-3.75,.51-2.03,.28-3.87-1.82-5.1-1.1-.64-1.19-1.13,0-1.81,.78-.45,1.04-1.27,1.01-2.14-.03-.89-.5-1.48-1.23-2.04-1.81-1.37-4.08-1.92-6.07-2.97-.3-7.17-.67-14.35-.9-21.52-.23-7.18-.31-14.37-.48-21.55-.05-2-.18-3.99-.29-6.19-.64,.47-1.09,.76-1.49,1.09-7.61,6.27-15.22,12.54-22.83,18.82-1.8,1.49-1.78,1.49-.22,3.12,7.09,7.4,14.19,14.79,21.22,22.23,1.18,1.25,2.7,2.27,3.38,3.9-1.34,2.03-2.64,4.07-4.02,6.07-1.05,1.52-1.73,3.26-3.19,4.53Z"/>
  <path class="cls-3" d="M69.22,26.71c.85,2.09,1.7,4.18,2.55,6.27,.09,0,.19,0,.28,0,.1-2.64,.24-5.28,.29-7.92,.02-1.14,.22-2.2,.66-3.27,2.1-5.09,4.19-10.18,6.19-15.3,.39-.99,.82-1.19,1.88-.95,5.9,1.29,11.89,2.07,17.9,2.76,5.4,.62,10.75-.08,16.1-.43,2.79-.18,5.57-.62,8.34-1,.79-.11,1.05,.15,1.26,.81,1.76,5.68,3.54,11.34,5.34,17.01,.27,.86,.09,1.72,.09,2.58,0,2.55,0,5.09,0,7.79,1.08-1.98,2.12-3.88,3.16-5.79,1.95,.71,2.3,2.35,2.46,3.96,.22,2.29-.15,4.57-.39,6.85-.2,1.85-1.96,3.5-4.15,3.84-1.29,.2-1.67,.72-1.8,1.89-.61,5.21-3.4,9.49-7.05,13.35-2.33,2.46-4.96,4.62-7.94,6.39-.52,.31-.79,.81-1.3,1.1-1.33,.6-2.66,1.22-4,1.81-5.85,2.54-11.67,2.89-17.55-.05-1.98-.99-3.85-2.14-5.83-3.13-1.4-1.21-2.82-2.4-4.19-3.65-3.93-3.58-7.02-7.67-8.75-12.55-.61-1.73-1.07-3.52-1.05-5.37,0-.72-.09-1.27-1.02-1.49-3.85-.91-4.82-3.83-4.53-6.81,.09-.96,.27-1.94,.18-2.88-.25-2.48,.78-4.35,2.87-5.8Zm39.47,26.9c-5.8-.31-11.59-.67-17.4-.61-1.36-.17-1.88,.12-1.49,1.57,.58,2.19,1.75,3.92,3.68,5.25,5.82,4.04,14.82,1.98,16.85-4.41,.6-1.89,.61-1.91-1.63-1.81Zm-25.4-24.65c0,2.66,2.07,4.8,4.64,4.79,2.51-.01,4.62-2.26,4.57-4.9-.04-2.35-2.16-4.29-4.67-4.26-2.52,.03-4.54,1.98-4.54,4.37Zm35.81,.89c.04-2.44-1.85-4.34-4.42-4.41-2.61-.08-4.73,1.79-4.83,4.25-.1,2.53,1.91,4.47,4.67,4.53,2.68,.06,4.53-1.71,4.58-4.37Z"/>
  <path class="cls-3" d="M155.76,58.19c-6.25,2.14-12.49,4.28-18.74,6.42-1.91-2.35-3.82-4.69-5.73-7.04-1.88-2.38-.97-4.71,.28-6.95,.87-1.56,1.97-3.02,2.96-4.52,2.22-2.12,4.58-4.04,8.04-4.01,3.86,.02,7.49,.59,9.82,3.92,1.12,4.06,2.25,8.13,3.37,12.19Z"/>
  <path class="cls-3" d="M85.55,75.33c.06-1.86,.13-3.72,.19-5.57,3.11,.6,6.21,1.21,9.32,1.8,6.06,1.16,12.12,2.3,18.18,3.45,.06,.16,.12,.33,.18,.49-4.21,3.57-8.42,7.14-12.63,10.72-.48,.41-1.01,.8-1.17,1.44-.09,.04-.18,.04-.26,0-.21-.74-.86-1.17-1.41-1.65-4.12-3.57-8.26-7.12-12.39-10.68Z"/>
  <path class="cls-2" d="M152.38,46c-2.33-3.33-5.96-3.89-9.82-3.92-3.46-.02-5.81,1.9-8.04,4.01,.74-4.63,2.14-9.12,3.68-13.54,1.09-3.13,4.4-4.52,8.19-3.95,1.35,.2,2.7,.53,3.99,.95,3.47,1.12,5.3,4.45,4.38,7.72-.81,2.9-1.59,5.82-2.38,8.72Z"/>
  <path class="cls-4" d="M99.62,87.66c.16-.64,.69-1.03,1.18-1.44,4.2-3.58,8.42-7.14,12.63-10.72,3.34,.95,6.37,2.58,9.62,3.73,.55,.2,1.08,.45,1.62,.68-2.7,2.54-5.4,5.07-8.08,7.62-2.45,2.33-4.89,4.68-7.28,7.06-.81,.81-1.48,1.17-2.32,.08-.37-.48-.89-.75-1.57-.67,.06-.48-.06-.87-.44-1.23-1.8-1.69-3.57-3.41-5.35-5.12Z"/>
  <path class="cls-2" d="M131.28,57.57c1.91,2.35,3.82,4.69,5.73,7.04,1.37,3.46,2.74,6.91,4.11,10.37-2.88,.61-5.58-.21-8.21-1.06-3.25-1.04-4.97-3.92-4.22-7.22,.69-3.07,1.71-6.08,2.59-9.12Z"/>
  <path class="cls-6" d="M113.24,75.01c-6.06-1.15-12.12-2.3-18.18-3.45-3.11-.59-6.22-1.2-9.32-1.8-.18-1.5-.12-3-.03-4.49,1.98,.98,3.85,2.13,5.83,3.13,5.88,2.94,11.69,2.59,17.55,.05,1.34-.58,2.67-1.2,4-1.81,.41,2.79,.12,5.59,.15,8.38Z"/>
  <path class="cls-4" d="M85.55,75.33c4.13,3.56,8.27,7.11,12.39,10.68,.55,.48,1.2,.91,1.41,1.65-.73,.68-1.51,1.33-2.19,2.05-1.24,1.33-2.86,2.36-3.68,4.01-1.53-.17-1.06-.9-.43-1.52,1.31-1.29,2.68-2.55,4.07-3.77,.77-.67,.68-1.01-.05-1.79-1.88-2.01-4.48-3.28-6.17-5.52-1.01-1.34-2.83-2.01-4.13-3.21-.75-.69-1.43-1.35-1.84-2.25,.21-.11,.41-.22,.61-.33Z"/>
  <path class="cls-4" d="M84.26,75.95c-.07,.71-.57,.65-1.1,.52,.3-.31,.63-.54,1.1-.52Z"/>
  <path class="cls-6" d="M94.55,199.32c-2.27-1.68-2.41-3.9-2.31-6.41,.97-26.71,1.84-53.41,2.74-80.12,.15-4.38,.37-8.76,.47-13.15,.02-1.08,.38-1.4,1.52-1.35,1.65,.08,3.31,.09,4.96,0,1.26-.07,1.72,.28,1.74,1.5,.04,3.47,.22,6.93,.33,10.4,.61,18.96,1.2,37.92,1.82,56.89,.28,8.67,.52,17.33,.95,25.99,.12,2.47-.12,4.62-2.34,6.25-.58,.49-1.24,.71-2.06,.68-1.91-.06-3.82-.05-5.73-.02-.81,.01-1.49-.2-2.1-.66Z"/>
  <path class="cls-3" d="M44.98,184.68c1.46-1.27,2.14-3.02,3.19-4.53,1.38-2,2.68-4.04,4.02-6.07,.54,.04,1.07,.07,1.61,.1,1.99,1.05,4.25,1.6,6.07,2.97,.73,.55,1.2,1.15,1.23,2.04,.03,.88-.23,1.7-1.01,2.14-1.19,.68-1.1,1.17,0,1.81,2.1,1.23,2.33,3.07,1.82,5.1-.34,1.35-1.09,2.54-1.8,3.75-.88,.17-1.57-.25-2.33-.55-4.26-1.68-8.14-3.99-12.17-6.06-.26-.14-.42-.46-.62-.69Z"/>
  <path class="cls-5" d="M53.8,174.18c-.54-.03-1.07-.07-1.61-.1-.68-1.63-2.2-2.65-3.38-3.9-7.03-7.45-14.13-14.83-21.22-22.23-1.56-1.63-1.59-1.63,.22-3.12,7.6-6.28,15.21-12.55,22.83-18.82,.4-.33,.85-.62,1.49-1.09,.11,2.2,.24,4.19,.29,6.19,.17,7.18,.26,14.37,.48,21.55,.23,7.18,.59,14.35,.9,21.52Z"/>
  <path class="cls-6" d="M93.49,93.72c.83-1.65,2.44-2.68,3.68-4.01,.68-.73,1.46-1.37,2.19-2.05,.09,.05,.18,.05,.26,0,1.78,1.71,3.55,3.42,5.35,5.12,.39,.36,.51,.76,.44,1.23-.94,2.9-3.21,3.12-6.12,3.25-3.23,.15-4.82-1.03-5.81-3.54Z"/>
  <path class="cls-6" d="M108.69,53.61c2.24-.11,2.22-.08,1.63,1.81-2.02,6.39-11.03,8.45-16.85,4.41-1.92-1.33-3.09-3.06-3.68-5.25-.39-1.46,.14-1.75,1.49-1.57-.02,.56-.04,1.12-.06,1.67-.03,1,.54,1.55,1.57,1.59,4.77,.16,9.54,.29,14.31,.42,1.02,.03,1.5-.52,1.58-1.4,.05-.55,0-1.12,0-1.67Z"/>
  <path class="cls-2" d="M83.29,28.96c0-2.4,2.02-4.34,4.54-4.37,2.51-.03,4.64,1.91,4.67,4.26,.04,2.64-2.06,4.89-4.57,4.9-2.57,.01-4.64-2.12-4.64-4.79Zm7.31-1.37c-.01-.66-.41-1.01-1.11-1.02-.71,0-1.14,.39-1.14,1.02,0,.63,.43,1.04,1.12,1.04,.67,0,1.11-.34,1.13-1.03Z"/>
  <path class="cls-2" d="M119.1,29.85c-.05,2.65-1.9,4.42-4.58,4.37-2.76-.06-4.77-2-4.67-4.53,.1-2.45,2.22-4.33,4.83-4.25,2.56,.08,4.46,1.97,4.42,4.41Zm-1.78-1.37c-.07-.63-.45-1.07-1.11-1.1-.74-.03-1.23,.36-1.21,1.11,.01,.68,.44,1,1.14,1.01,.73,.01,1.05-.42,1.19-1.02Z"/>
  <path class="cls-1" d="M108.69,53.61c0,.56,.05,1.12,0,1.67-.07,.88-.56,1.43-1.58,1.4-4.77-.13-9.54-.26-14.31-.42-1.03-.04-1.6-.59-1.57-1.59,.02-.56,.04-1.12,.06-1.67,5.81-.06,11.6,.3,17.4,.61Z"/>
  <path class="cls-1" d="M90.6,27.59c-.02,.69-.45,1.03-1.13,1.03-.69,0-1.13-.41-1.12-1.04,0-.63,.44-1.02,1.14-1.02,.69,0,1.09,.36,1.11,1.02Z"/>
  <path class="cls-4" d="M117.32,28.48c-.14,.6-.46,1.03-1.19,1.02-.7,0-1.13-.33-1.14-1.01-.01-.75,.47-1.14,1.21-1.11,.66,.03,1.05,.47,1.11,1.1Z"/>
</svg>