<?xml version="1.0" encoding="UTF-8"?>
<svg id="Layer_1" data-name="Layer 1" xmlns="http://www.w3.org/2000/svg" xmlns:xlink="http://www.w3.org/1999/xlink" viewBox="0 0 200 200">
  <defs>
    <style>
      .cls-1 {
        fill: #0e1823;
      }

      .cls-2 {
        fill: #87301c;
      }

      .cls-3 {
        fill: #151727;
      }

      .cls-4 {
        fill: #ebb69e;
      }

      .cls-5 {
        fill: #a12a23;
      }

      .cls-6 {
        fill: #95351f;
      }

      .cls-7 {
        fill: #d83834;
      }

      .cls-8 {
        fill: #1b3d55;
      }

      .cls-9 {
        fill: #c39986;
      }

      .cls-10 {
        clip-path: url(#clippath);
      }

      .cls-11 {
        fill: none;
      }

      .cls-12 {
        fill: #ecb79f;
      }

      .cls-13 {
        fill: #bdbcbf;
      }

      .cls-14 {
        fill: #e8b49d;
      }

      .cls-15 {
        fill: #0a2331;
      }
    </style>
    <clipPath id="clippath">
      <rect class="cls-11" width="200" height="200"/>
    </clipPath>
  </defs>
  <g class="cls-10">
    <g>
      <path class="cls-3" d="M198.63,199.25c.48,.54-.04,1.68,1.18,1.78,0,5.14-.07,10.27,.04,15.41,.03,1.47-.15,2.23-1.91,1.87-.6-.12-1.26-.02-1.89-.02-64.09,0-128.18-.03-192.26,.09-3.33,0-4.07-.7-3.85-3.76,.33-4.51,.09-9.06,.09-13.59,.36-.6,.71-1.2,1.07-1.8,.97,2.63,3.13,2.75,5.65,2.75,26.62-.07,53.24-.04,79.85-.04h14.27c30.72,0,61.44-.02,92.16,.04,2.49,0,4.72,.04,5.61-2.73Zm-165.85,10.04c-1.92-.85-2.71,.82-4.01,1.44,1.81,.12,2.08,2.56,3.97,2.18,.21-.03,.42-.06,.63-.09,4.12,1.29-.35-3.71,2.62-3.26-.75-.99-1.72-.33-2.6-.33-.21-.02-.42,0-.62,.06Zm-11.18,4.06c2.18-.16,3.04-1.09,3.5-2.77,.66-2.43-1.42-1.25-2.19-1.61-1.82-.85-2.61,.19-2.77,1.81-.13,1.32,.28,2.37,1.46,2.58Zm-4.74-4.35c-1.91,.67-3.51-.3-5.12-.23-1.67,.07-1.84,4.1-.16,4.25,2.55,.23,2.95-3.12,5.28-4.02Zm137.69,3.75c.05-.32,.1-.65,.16-.97-3.32-.49-6.63-1-9.95-1.44-.77-.1-1.08,.51-1.08,1.17,0,.94,.6,1.25,1.53,1.25,3.11-.02,6.23,0,9.34,0Zm9.61-1.49c-2.81-.06-5.24-1.19-7.85-.62-.11,.03-.19,1.42,.05,1.54,2.32,1.14,4.73,.96,7.11,.08,.12-.04,.17-.24,.69-1Zm-133.8-2.59c-.09-.09-.18-.26-.28-.26-.1,0-.21,.15-.31,.23,.14,.1,.28,.19,.43,.29,.05-.09,.11-.17,.16-.26Z"/>
      <path class="cls-12" d="M80.94,127.48c-1.76-2.47-4.79-3.37-7.05-5.25-7.57-6.32-10.12-14.69-11.12-23.77,3.13,.12,1.48-1.95,1.48-3.13,.01-5.03-2.04-9.98-.67-15.06,3.1,7.87,9,11.08,18.32,9.95,7.92-.95,13.7-6.53,14.13-14.13,.15-2.72,.97-4.59,3.79-4.65,3.12-.07,4.66,1.61,4.84,4.84,.38,6.87,4.66,11.11,11.28,12.99,8.02,2.28,14.98,.61,20.13-6.11-.24,2.82-.7,5.65-.66,8.47,.04,2.8-1.7,5.71,.44,8.4-.07,9.43-3.7,17.25-11.59,23.09-2.96,2.19-6.46,3.94-5.46,8.48,.37,1.65-1,2.38-2.3,3.03-5.6,2.77-11.21,5.55-16.81,8.33-.16,.14-.34,.19-.55,.14-1.41-2.74-5.01-2.56-6.87-4.7,6.9-1.46,14.01-2.45,19.26-7.74-5.14,1.42-10.19,3.1-15.64,2.07-5.28-1-9.91-3.69-14.98-5.24Z"/>
      <path class="cls-15" d="M198.63,199.25c-.88,2.77-3.12,2.73-5.61,2.73-30.72-.06-61.44-.04-92.16-.04,0-.6,0-1.21,0-1.81h0c5.5-.2,11.08,1.14,15.51-4.18,9-10.81,18.6-21.16,27.99-31.68,2.12-2.37,2.71-4.64,.15-7.08-2.46-2.35-1.5-3.88,1.37-4.93,.88-.32,1.7-.79,2.55-1.19,6.61,3.11,13.82,4.56,20.88,6.18,13.07,3.01,21.51,9.79,24.06,22.85,1.26,6.47,3.47,12.77,5.25,19.14Z"/>
      <path class="cls-15" d="M86.59,201.94c-26.62,0-53.24-.02-79.85,.04-2.52,0-4.68-.11-5.65-2.75,2.29-8.42,4.29-16.92,6.97-25.23,2.38-7.36,8.1-12.21,15.57-14.71,7.4-2.47,15.04-4.3,22.79-5.58,2.02,.25,4.06-.12,6.08,.61,5.56,2.02,5.71,2.17,1.64,6.31-1.66,1.69-1.64,2.68-.04,4.47,10.91,12.21,21.68,24.54,32.49,36.83Z"/>
      <path class="cls-2" d="M55.32,22.91c-3.83-3.39-5-7.63-4.58-13.08,2.29,2.43,3.52,4.94,6.21,6.69-.09-3.53-2.68-6.51-1.42-10.29,1.15,1.43,2.06,2.77,3.2,3.91,1.16,1.16,2.06,2.72,4.01,2.91-.78-2.2,3.43-3.1,1.51-5.82-.94-1.34-.95-3.28-1.48-5.34,3.17,.95,4.46,3.48,6.8,4.66,7.14,3.62,14.74,4.24,22.56,3.3,6.43-.76,12.77-1.93,19.32-.63,8.11,1.61,14.22,5.5,17.85,12.69,.6,1.19,.88,2.34,2.5,2.98,7.51,2.96,11.54,8.34,12.25,16.19,.84,9.37,1,18.7-.35,28.02-2.55-.74-5.1-1.48-7.65-2.22-.93-3.45-3.63-6.22-3.52-10.15,.25-8.63-4.15-15.01-12.41-18.03-14.54-5.32-29.34-4.94-43.91,.21-4.74,1.68-8.15,5.09-8.31,10.08-.21,6.73-3.19,12.5-5.79,18.46-1.77,1.03-3.79,.92-5.73,1.14-1.86-10.87-3.89-21.73-2.12-32.81,.16-1.01,.45-1.82-.88-2.65-7.05-4.42-8.18-6.91-7.38-15.66,2.94,2.22,5.05,5.25,8.78,5.94,.4,.06,1.09,.27,1.16,.14,.34-.57-.25-.57-.62-.68Zm55.06-3.52c-.13-.07-.27-.14-.4-.21,.13,.07,.27,.14,.4,.21-.22,1.15-.37,3.83-1.97,1.82-3.07-3.86-7.56-2.97-11.31-4.36-1.23-.46-2.7-1.62-4-.7-1.76,1.25,.4,2.73,.16,4.14h0c-4.49-2.57-9.78-.98-14.52-2.61-2.81-.96-3.87,.94-3.56,3.51,0,0,0,0,0,0-.89-.28-1.77-.71-2.69-.81-2.1-.22-5.89-3.98-5.16,2.21,.17,1.46-1.34,1.12-2.51,.95-1.83-.26-7.72,3.95-7.21,5.32,1.06,2.86-.46,5.35-.55,8.02-.1,3.07,.45,6,1.66,8.81,.33,.77,1.11,1.66,2.2,1.36,1.23-.34,1-1.49,.71-2.28-.58-1.61-.78-3.22-.75-4.9,.04-2.11-.53-4.71,3.3-2.69,1.08,.57,2.44,.35,1.93-1.34-1.78-5.98,1.68-4.21,4.81-3.04,1.37,.51,3.38,1.85,3.21-1.04-.3-5.07,2.41-4.68,5.93-3.4,1.48,.54,3.01,.93,4.51,1.42,2,.64,3.29,.65,2.17-1.94-.33-.76-1.23-1.49-.3-2.73,5,1.14,10.13,2.3,15.41,3.5-.86-5.24-.78-5.14,4.52-3.79,3.95,1.01,7.2,3.99,11.6,3.63,.32,.63,.64,.62,.95,0,.74,.21,1.48,.42,2.22,.62,1.26,.34,2.58,1.93,3.76,.63,.98-1.08-.05-2.7-.76-3.65-2.27-3.05-5.38-5.23-9.03-6.67-.13-.07-.27-.14-.4-.21,.13,.07,.26,.14,.4,.21-1.59,3.96-3.17-1.24-4.76,0Zm17.37,13.3c.11-.25,.37-.56,.3-.74-.07-.18-.49-.23-.75-.34-.11,.25-.37,.56-.3,.74,.08,.18,.49,.24,.75,.35Z"/>
      <path class="cls-1" d="M86.59,201.94c-10.81-12.29-21.58-24.62-32.49-36.83-1.6-1.79-1.62-2.78,.04-4.47,4.07-4.14,3.92-4.29-1.64-6.31-2.02-.73-4.06-.36-6.08-.61,6.4-1.73,12.8-3.46,19.21-5.19,.33,.25,.65,.51,.97,.76,.26,.37,.52,.74,.78,1.11,0,0-.09-.06-.09-.06,7.73,12.21,15.46,24.42,23.22,36.61,.18,.28,.84,.27,1.28,.39,2.04,3.12,4.09,6.23,6.12,9.36,1.02,1.57,1.93,1.75,2.94-.03,2.29-4.05,4.62-8.08,6.93-12.12,6.49-9.61,12.22-19.64,17.94-29.67,1.29-.92,1.76-2.25,1.98-3.7q4.91-6.11,13.24-3.88c2.57,.69,5.2,1.19,7.71,2.03,1.65,.55,.59,1.23-.22,1.74-.85,.4-1.67,.87-2.55,1.19-2.88,1.05-3.84,2.58-1.37,4.93,2.56,2.44,1.97,4.71-.15,7.08-9.39,10.51-18.99,20.86-27.99,31.68-4.43,5.33-10.01,3.98-15.51,4.18-.14-.07-.27-.14-.41-.2,.13,.07,.27,.14,.4,.21,0,.6,0,1.21,0,1.81-4.76,0-9.52,0-14.27,0Z"/>
      <path class="cls-8" d="M56.38,68.61c1.94-.23,3.96-.12,5.73-1.14,10.46-1.66,20.92-2.86,31.37,.05,3.38,.94,6.93,1.46,10.28,.52,10.69-3.01,21.43-3.08,32.28-1.14,2.55,.74,5.1,1.48,7.65,2.22,2.42,.39,1.67,2.35,2.03,3.75,.11,2.86-1.67,3.85-4.32,3.99-4.89-.29-4.23,3.69-5.34,6.31-5.15,6.72-12.11,8.39-20.13,6.11-6.63-1.88-10.9-6.12-11.28-12.99-.18-3.24-1.73-4.92-4.84-4.84-2.82,.07-3.64,1.93-3.79,4.65-.42,7.61-6.21,13.18-14.13,14.13-9.33,1.12-15.23-2.08-18.32-9.95-1.19-2.24-2.42-4.45-5.6-4.38-1.08-.32-1.79-.98-2.01-2.06,.14-1.74,.27-3.48,.41-5.22Zm65.19-1.11c-2.82,.32-6.27,.67-9.7,1.13-2.84,.38-4.27,1.7-4.39,4.76-.4,10.61,9.36,17.4,19.83,13.58,5.54-2.02,9.15-8.63,7.66-15.5-1-4.59-5.94-2.44-9-3.58-1.13-.42-2.49-.25-4.41-.4Zm-42.22,.49c-3.58,.22-7.38,.09-11.07,1.17-1.18,.34-2.27,.35-2.69,1.97-1.96,7.47,2.75,15.32,10.28,16.8,8.46,1.66,16.24-3.47,17.21-11.35,.67-5.44-.75-7.27-6.46-8.02-2.34-.31-4.72-.37-7.28-.56Z"/>
      <path class="cls-5" d="M88.22,156.52c3.78-3.25,5.68-7.98,9.63-11.09-.56,7.28,2.43,13.39,6.86,19.03-.29,.41-.59,.81-.88,1.21-2.87-.31-5.87,.55-8.62-.87-2.24-2.14-4.47-4.27-6.71-6.41-.1-.62-.19-1.25-.29-1.87Z"/>
      <path class="cls-9" d="M80.94,127.48c5.07,1.56,9.7,4.25,14.98,5.24,5.45,1.03,10.5-.65,15.64-2.07-5.25,5.3-12.36,6.28-19.26,7.74-3.55-.85-6.41-3.03-9.63-4.52-3.1-1.44-1.42-4.19-1.73-6.39Z"/>
      <path class="cls-7" d="M104.71,164.45c-4.44-5.64-7.42-11.75-6.87-19.03,.44-.78,.88-1.56,1.32-2.34,.21,.05,.39,0,.55-.14,3.6,4.82,7.21,9.65,10.81,14.47-.08,.58-.16,1.16-.25,1.74-1.86,1.77-3.71,3.53-5.57,5.3Z"/>
      <path class="cls-4" d="M55.97,73.82c.22,1.08,.92,1.74,2.01,2.06,.45,6.39,2.7,12.54,2.76,18.98-3.07,.16-4.44-1.88-5.72-4.02-2.26-3.74-2.92-7.94-3.55-12.11-.47-3.1,1.04-4.92,4.51-4.92Z"/>
      <path class="cls-2" d="M60.73,94.87c-.06-6.44-2.31-12.59-2.76-18.98,3.18-.06,4.41,2.14,5.6,4.38-1.38,5.09,.68,10.04,.67,15.06,0,1.17,1.64,3.24-1.48,3.13,0,0,0,0,0,0-.29-.32-.58-.63-.88-.95-.38-.88-.76-1.76-1.14-2.64Z"/>
      <path class="cls-2" d="M136.07,83.16c1.11-2.62,.45-6.6,5.34-6.31-.76,5.11-1.52,10.21-2.28,15.32-1.55,2.11-.43,4.98-2.19,7.03-.35,.28-.71,.56-1.06,.84,0,0-.02,0-.02,0-2.14-2.69-.4-5.61-.44-8.4-.04-2.82,.42-5.64,.66-8.47Z"/>
      <path class="cls-14" d="M139.13,92.16c.76-5.11,1.52-10.21,2.28-15.32,2.65-.13,4.43-1.13,4.32-3.99,2.24,6.38-1.2,16.45-6.6,19.3Z"/>
      <path class="cls-13" d="M66.6,149.29c-.32-.25-.65-.51-.97-.76-.97-3.42,1.24-1.4,2.04-.98,6.61,3.5,13.16,7.09,19.73,10.66,.12,.12,.24,.23,.35,.35-.37,1.33-1.04,1.72-2.37,.87-1.83-1.17-3.64-2.44-5.64-3.28-4.23-1.78-7.34-5.76-12.45-5.81,0,0,.09,.06,.09,.06-.05-.5,.87-1.64-.78-1.11Z"/>
      <path class="cls-13" d="M110.28,159.16c.08-.58,.16-1.16,.24-1.74,1.63,1.15,2.94,.62,4.69-.19,4.2-1.94,7.64-5.36,12.5-6.04-.21,1.45-.69,2.77-1.98,3.7-3.45-1.52-4.94,1.91-7.46,2.75-2.61,.86-4.71,3.92-7.99,1.52Z"/>
      <path class="cls-13" d="M88.22,156.52c.1,.62,.19,1.25,.29,1.87-.24,.11-.49,.17-.75,.17-.11-.12-.23-.24-.35-.35,.08-.65,0-1.37,.81-1.69Z"/>
      <path class="cls-12" d="M61.88,97.5c.29,.32,.58,.63,.88,.95-.29-.32-.58-.63-.88-.95Z"/>
      <path class="cls-12" d="M135.88,100.04c.35-.28,.71-.56,1.06-.84-.11,.56-.34,.98-1.06,.84Z"/>
      <path class="cls-4" d="M136.05,66.89c-10.85-1.94-21.59-1.87-32.28,1.14-3.35,.94-6.9,.42-10.28-.52-10.46-2.91-20.91-1.71-31.37-.05,2.6-5.96,5.58-11.73,5.79-18.46,.16-4.99,3.57-8.41,8.31-10.08,14.57-5.15,29.38-5.53,43.91-.21,8.26,3.02,12.66,9.4,12.41,18.03-.11,3.92,2.58,6.7,3.52,10.15Z"/>
      <path class="cls-6" d="M117.99,28.46c-4.39,.36-7.64-2.63-11.6-3.63-5.3-1.35-5.38-1.45-4.52,3.79-5.28-1.2-10.41-2.36-15.41-3.5-.93,1.23-.03,1.96,.3,2.73,1.12,2.59-.17,2.58-2.17,1.94-1.5-.48-3.03-.88-4.51-1.42-3.52-1.28-6.23-1.66-5.93,3.4,.17,2.89-1.84,1.55-3.21,1.04-3.13-1.17-6.59-2.94-4.81,3.04,.5,1.69-.86,1.91-1.93,1.34-3.83-2.02-3.26,.58-3.3,2.69-.03,1.68,.17,3.29,.75,4.9,.29,.79,.52,1.93-.71,2.28-1.09,.3-1.87-.59-2.2-1.36-1.22-2.8-1.76-5.73-1.66-8.81,.09-2.66,1.61-5.16,.55-8.02-.51-1.37,5.38-5.58,7.21-5.32,1.17,.17,2.68,.51,2.51-.95-.73-6.19,3.06-2.43,5.16-2.21,.92,.1,1.79,.53,2.69,.81,.13,.07,.27,.14,.4,.21-.13-.07-.26-.14-.4-.21-.32-2.58,.74-4.48,3.56-3.51,4.74,1.63,10.03,.04,14.52,2.61,.13,.07,.27,.14,.4,.21-.13-.07-.27-.14-.4-.21,.24-1.41-1.92-2.89-.16-4.14,1.3-.92,2.77,.24,4,.7,3.75,1.39,8.25,.5,11.31,4.36,1.59,2.01,1.75-.67,1.97-1.82h0c1.59-1.24,3.17,3.96,4.76,0h0c3.65,1.44,6.75,3.62,9.03,6.67,.71,.96,1.74,2.58,.76,3.65-1.18,1.31-2.5-.28-3.76-.63-.74-.2-1.48-.41-2.22-.62h0c-.32-.62-.63-.62-.95,0h0Z"/>
      <path class="cls-6" d="M127.75,32.68c-.27-.11-.68-.16-.75-.35-.08-.18,.19-.49,.3-.74,.26,.11,.68,.16,.75,.34,.08,.18-.18,.49-.3,.75Z"/>
      <path class="cls-6" d="M110.38,19.38c-.13-.07-.27-.14-.4-.21,.13,.07,.27,.14,.4,.21,0,0,0,0,0,0Z"/>
      <path class="cls-6" d="M115.14,19.38c-.13-.07-.26-.14-.4-.21,.13,.07,.27,.14,.4,.21,0,0,0,0,0,0Z"/>
      <path class="cls-6" d="M118.94,28.46c-.32,.62-.63,.63-.95,0,0,0,0,0,0,0,.32,0,.63,0,.95,0h0Z"/>
      <path class="cls-7" d="M91.8,187.35c-1.65-4.97,1.14-9.43,1.85-14.12,.43-2.82,1.63-5.51,1.56-8.42,2.75,1.42,5.75,.56,8.62,.87,1.32,6.3,2.64,12.59,3.96,18.89-2.31,4.04-4.65,8.07-6.93,12.12-1,1.78-1.92,1.6-2.94,.03-2.03-3.13-4.08-6.24-6.12-9.36Z"/>
      <path class="cls-15" d="M100.86,200.13c-.13-.07-.27-.14-.4-.21,.14,.07,.27,.14,.41,.2,0,0,0,0,0,0Z"/>
      <path class="cls-14" d="M121.57,67.49c1.91,.15,3.28-.02,4.41,.4,3.05,1.14,8-1.01,9,3.58,1.49,6.86-2.13,13.48-7.66,15.5-10.47,3.81-20.24-2.98-19.83-13.58,.12-3.06,1.55-4.38,4.39-4.76,3.43-.46,6.88-.81,9.7-1.13Z"/>
      <path class="cls-14" d="M79.35,67.99c2.56,.19,4.93,.25,7.28,.56,5.7,.75,7.12,2.58,6.46,8.02-.97,7.88-8.75,13.01-17.21,11.35-7.53-1.48-12.24-9.32-10.28-16.8,.42-1.61,1.51-1.62,2.69-1.97,3.68-1.07,7.49-.94,11.07-1.17Z"/>
      <path class="cls-2" d="M93.26,20.29c.13,.07,.27,.14,.4,.21-.13-.07-.27-.14-.4-.21,0,0,0,0,0,0Z"/>
      <path class="cls-2" d="M75.18,21.2c.13,.07,.26,.14,.4,.21-.13-.07-.27-.14-.4-.21,0,0,0,0,0,0Z"/>
      <path class="cls-2" d="M118.94,28.47c-.32,0-.63,0-.95,0,.32-.62,.64-.62,.95,0Z"/>
    </g>
  </g>
</svg>