<?xml version="1.0" encoding="UTF-8"?>
<svg id="Layer_1" data-name="Layer 1" xmlns="http://www.w3.org/2000/svg" viewBox="0 0 200 200">
  <defs>
    <style>
      .cls-1 {
        fill: #e26249;
      }

      .cls-2 {
        fill: #747575;
      }

      .cls-3 {
        fill: #555;
      }

      .cls-4 {
        fill: #5ba557;
      }

      .cls-5 {
        fill: #fbfaf9;
      }

      .cls-6 {
        fill: #c2543e;
      }

      .cls-7 {
        fill: #e26046;
      }

      .cls-8 {
        fill: #51b6e1;
      }

      .cls-9 {
        fill: #fdd25b;
      }

      .cls-10 {
        fill: #e8bf8a;
      }

      .cls-11 {
        fill: #747474;
      }

      .cls-12 {
        fill: #d1ad7e;
      }

      .cls-13 {
        fill: #737474;
      }

      .cls-14 {
        fill: #d5d7d8;
      }
    </style>
  </defs>
  <path class="cls-8" d="M179.08,79.13c7.24,.36,13.18,3.2,17.33,9.27,8.44,12.35,1.22,29.45-13.49,32.05-.39,.07-.77,.24-1.15,.37-2.84,.02-5.69,.12-8.44-.8-.38-.14-.76-.29-1.14-.43-10.16-3.72-15.78-14.15-13.16-24.63,1.65-6.6,5.86-11.14,11.89-14.08,2.62-1.05,5.35-1.61,8.16-1.75Z"/>
  <path class="cls-9" d="M79.4,24.14c-1.38-11.9,5.51-19.69,12.8-22.58,14.48-5.75,29.29,5.13,28.56,20.92-.03,.61-.05,1.21-.07,1.82-.73,2.63-1.58,5.22-2.92,7.62-.35,.41-.7,.82-1.04,1.24-5.61,7.15-12.9,9.74-21.72,7.83-5.49-1.18-9.49-4.64-12.74-9.06-1.32-2.46-2.32-5.04-2.87-7.79Z"/>
  <path class="cls-7" d="M119.95,185.74c-1.45,2.97-2.92,5.89-5.33,8.27-10.36,10.23-27.81,6.89-33.66-6.48-.27-.61-.58-1.19-.88-1.79-.61-2.89-.99-5.8-.86-8.76,.14-.52,.29-1.04,.4-1.57,1.61-7.8,6.15-13.22,13.64-15.79,7.39-2.54,14.28-1.17,20.33,3.88,4.2,3.51,6.26,8.21,7.22,13.47,.13,2.96-.25,5.87-.86,8.75Z"/>
  <path class="cls-4" d="M18.27,120.8c-5.02-1.03-9.54-3.01-12.95-7C.14,107.73-1.33,100.8,1.23,93.31c2.54-7.42,7.92-11.95,15.6-13.62,1.32-.29,2.68-.36,4.02-.53,2.82,.09,5.54,.64,8.17,1.67,.54,.29,1.08,.57,1.61,.86,8.52,4.62,12.84,14.34,10.3,23.63-2.05,7.5-7,12.32-14.35,14.74-2.72,.81-5.51,.8-8.31,.74Z"/>
  <path class="cls-13" d="M119.95,185.74c.61-2.89,.99-5.79,.86-8.75,21.6-6.52,37.25-20.04,47.11-40.26,2.58-5.29,4.59-10.82,5.4-16.71,2.75,.91,5.6,.81,8.44,.8-3.51,17.47-11.7,32.4-24.62,44.63-10.58,10.02-22.97,16.89-37.2,20.29Z"/>
  <path class="cls-13" d="M18.27,120.8c2.8,.06,5.59,.08,8.31-.74,6.81,28.91,24.44,47.8,52.64,56.92-.13,2.96,.25,5.87,.86,8.76-12.62-3.01-23.86-8.8-33.71-17.18-14.87-12.65-24.25-28.59-28.1-47.76Z"/>
  <path class="cls-13" d="M117.76,31.92c1.34-2.4,2.19-4.99,2.92-7.62,9.7,2.22,18.51,6.45,26.64,12.09,14.57,10.12,24.86,23.59,31.03,40.21,.3,.82,.49,1.68,.73,2.53-2.82,.14-5.54,.7-8.16,1.75-.13-.52-.21-1.06-.39-1.56-3.45-9.54-8.65-18.03-15.55-25.45-10.23-10.98-22.68-18.24-37.21-21.95Z"/>
  <path class="cls-13" d="M29.02,80.83c-2.62-1.04-5.35-1.59-8.17-1.67,6.08-18.49,17.32-33.05,33.46-43.86,7.71-5.17,16.14-8.76,25.09-11.16,.54,2.75,1.55,5.33,2.87,7.8-16.1,4.11-29.53,12.5-40.14,25.29-5.84,7.03-10.32,14.86-13.11,23.61Z"/>
  <path class="cls-10" d="M119.13,74.37c.93-.03,1.71,.24,2.26,1.05,1.79,2.61-.27,8.31-3.36,9.17-.65,.18-1.22,.19-1.5,1.02-1.01,3.02-2.7,5.69-4.46,8.32-.44,.42-.91,.81-1.31,1.26-6.01,6.65-15.28,6.83-21.33,.19-.4-.44-.8-.93-1.44-1.07-1.73-2.86-3.69-5.61-4.71-8.86-.13-.43-.43-.61-.84-.78-3.06-1.26-4.81-4.22-4.4-7.48,.2-1.62,.92-2.82,2.78-2.86,.92,.61,1.84,1.21,2.94,1.93-.07-3.27-.23-6.34,1.3-9.15,.7-1.29,1.38-1.86,3-.99,4.97,2.65,10.26,4.11,15.98,3.8,3.67-.19,6.95-1.57,10.24-2.99,1.33,2.73,1.65,5.61,1.32,8.59-.05,.45-.36,.98,.22,1.21,.56,.23,.79-.35,1.07-.71,.59-.76,1.39-1.24,2.22-1.67Z"/>
  <path class="cls-3" d="M87.43,142.32c-7.93,.03-15.86,.09-23.79,.06-2.42-.01-4.37-1.73-4.52-4.39-.44-7.48-.41-14.97,3.48-21.75,3.05-5.31,7.54-8.96,13.34-10.97,.8,1.88,2.5,2.98,3.82,4.4,1.15,1.23,1.55,2.5,.48,3.99-.43,.6-.75,1.28-1.17,1.9-.97,1.45-1.22,2.86-.42,4.56,1.28,2.75,2.38,5.59,3.46,8.43,1.75,4.6,3.91,9.04,5.31,13.77Z"/>
  <path class="cls-3" d="M124.1,105.26c8.78,3.23,14.19,9.44,16.16,18.56,.93,4.32,.92,8.75,.79,13.16-.1,3.49-2.06,5.44-5.47,5.44-7.66,0-15.32-.05-22.98-.08,.19-.64,.32-1.31,.57-1.92,2.51-6.12,4.94-12.27,7.6-18.32,1.3-2.94,1.35-5.46-.71-8.08-1.59-2.03-1.37-2.89,.55-4.68,1.31-1.23,2.99-2.13,3.48-4.06Z"/>
  <path class="cls-11" d="M114.3,66.95c-3.29,1.42-6.57,2.79-10.24,2.99-5.72,.3-11.01-1.15-15.98-3.8-1.63-.87-2.3-.3-3,.99-1.53,2.81-1.37,5.87-1.3,9.15-1.09-.72-2.02-1.32-2.94-1.93-.5-3.69-.8-7.38,.62-10.95,.28-.7,0-1.14-.29-1.67-.55-1.01-1.01-2.03-.68-3.26,.73,.09,.8,.91,1.36,1.13,.21,.19,.43,.38,.64,.56,0,0,.13,.05,.13,.05l-.15-.03c.16-.38,.01-.68-.27-.93-.48-1.76-1-3.53,.05-5.31q1.95,4.08,5.62,1.37c9.23-6.81,19.11-6.15,27.3,1.85,1.25,1.22,2.31,2.64,3.56,3.88,.92,.91,.75,1.6-.11,2.34-1.44,1.2-2.88,2.39-4.32,3.59Z"/>
  <path class="cls-2" d="M124.1,105.26c-.49,1.93-2.17,2.83-3.48,4.06-1.92,1.79-2.14,2.65-.55,4.68,2.06,2.63,2.01,5.14,.71,8.08-2.66,6.05-5.09,12.2-7.6,18.32-.25,.62-.38,1.28-.57,1.92-2.46,.67-4.97,.19-7.45,.39,.09-.11,.19-.22,.28-.34,.93,.17,1.12-.49,1.31-1.16,2.14-7.72,4.27-15.44,5.75-23.32,.19-.79,.41-1.57,.57-2.37,.88-4.64,1.75-9.29,2.62-13.94,2.8,1.22,5.61,2.44,8.41,3.66Z"/>
  <path class="cls-2" d="M87.43,142.32c-1.4-4.73-3.56-9.17-5.31-13.77-1.08-2.84-2.18-5.68-3.46-8.43-.79-1.7-.55-3.11,.42-4.56,.41-.62,.73-1.3,1.17-1.9,1.07-1.5,.66-2.76-.48-3.99-1.33-1.42-3.02-2.53-3.82-4.4,1.56-1.21,3.54-1.46,5.28-2.24,1.16-.52,2.2-1.2,3.3-1.8,.79,5.6,1.64,11.19,3.04,16.68,1.51,7.95,3.61,15.75,5.83,23.52,.11,.38,.15,.82,.63,.95,.08,.12,.16,.23,.24,.35-2.29,.08-4.59,.21-6.84-.4Z"/>
  <path class="cls-12" d="M88,94.31c.64,.14,1.03,.63,1.44,1.07,6.05,6.64,15.32,6.45,21.33-.19,.41-.45,.87-.84,1.31-1.26,.1,2.63,1,4.91,2.9,6.77-.23,.14-.51,.23-.67,.43-3.5,4.31-8.01,7.33-12.8,9.99-.45,.25-1.03,.41-1.11,1.06-.25,0-.5,0-.74,0-.16-.79-.89-.94-1.46-1.26-2.59-1.44-5.04-3.08-7.41-4.86-2.11-1.58-3.71-3.68-5.71-5.36,1.82-1.74,2.64-3.95,2.95-6.4Z"/>
  <path class="cls-1" d="M94.27,142.72c-.08-.12-.16-.23-.24-.35,.95-6.91,1.9-13.82,2.85-20.73,1.68,1.7,3.63,1.41,5.63,.75,.98,6.67,1.95,13.33,2.93,20-.09,.11-.19,.22-.28,.34-3.63,0-7.26,0-10.89,0Z"/>
  <path class="cls-5" d="M100.39,112.18c.09-.65,.66-.81,1.12-1.06,4.79-2.66,9.3-5.68,12.8-9.99,.16-.2,.45-.29,.67-.43,.24,.3,.47,.6,.71,.9-.87,4.65-1.74,9.29-2.62,13.94-.15,.8-.37,1.58-.57,2.37-1.86,1.51-3.49,1.32-4.91-.63-.07-.1-.23-.13-.35-.2-1.64-2.54-4.3-3.65-6.85-4.91Z"/>
  <path class="cls-5" d="M85.06,100.71c2,1.68,3.6,3.78,5.71,5.36,2.37,1.77,4.82,3.41,7.41,4.86,.57,.32,1.3,.46,1.46,1.26-2.51,1.27-5.18,2.33-6.79,4.87-1.57,1.51-3.16,2.86-5.29,.85-1.41-5.49-2.25-11.08-3.04-16.68,.18-.17,.36-.35,.54-.52Z"/>
  <path class="cls-3" d="M114.3,66.95c1.44-1.2,2.88-2.39,4.32-3.59,.92,3.63,.99,7.31,.51,11.01-.83,.44-1.63,.91-2.22,1.67-.27,.35-.51,.93-1.07,.71-.57-.23-.27-.76-.22-1.21,.33-2.98,0-5.86-1.32-8.59Z"/>
  <path class="cls-14" d="M107.24,117.08c.12,.06,.28,.1,.35,.2,1.42,1.94,3.05,2.14,4.91,.63-1.48,7.88-3.61,15.6-5.75,23.32-.19,.67-.38,1.33-1.31,1.16-.98-6.66-1.95-13.33-2.93-19.99,1.58-1.77,3.15-3.54,4.73-5.31Z"/>
  <path class="cls-14" d="M87.56,117.9c2.13,2.01,3.72,.66,5.29-.85,1.34,1.53,2.68,3.06,4.02,4.59-.95,6.91-1.9,13.82-2.85,20.73-.49-.13-.53-.57-.63-.95-2.22-7.77-4.32-15.57-5.83-23.52Z"/>
  <path class="cls-6" d="M96.88,121.64c-1.34-1.53-2.68-3.06-4.02-4.59,1.6-2.54,4.27-3.6,6.79-4.87,.25,0,.5,0,.75,0,2.55,1.26,5.21,2.37,6.85,4.91-1.58,1.77-3.15,3.54-4.73,5.31-2,.66-3.95,.95-5.63-.75Z"/>
</svg>