<?xml version="1.0" encoding="UTF-8"?>
<svg id="Layer_1" data-name="Layer 1" xmlns="http://www.w3.org/2000/svg" viewBox="0 0 200 200">
  <defs>
    <style>
      .cls-1 {
        fill: #dce7ec;
      }

      .cls-2 {
        fill: #3f425a;
      }

      .cls-3 {
        fill: #f6cbaf;
      }

      .cls-4 {
        fill: #f2f0ec;
      }

      .cls-5 {
        fill: #6bb9e7;
      }

      .cls-6 {
        fill: #2ea1cf;
      }

      .cls-7 {
        fill: #42445b;
      }

      .cls-8 {
        fill: #c0d6de;
      }

      .cls-9 {
        fill: #fcdf53;
      }

      .cls-10 {
        fill: #2c3150;
      }

      .cls-11 {
        fill: #eab599;
      }

      .cls-12 {
        fill: #dd3232;
      }

      .cls-13 {
        fill: #f05251;
      }

      .cls-14 {
        fill: #424a55;
      }

      .cls-15 {
        fill: #e7c833;
      }
    </style>
  </defs>
  <path class="cls-1" d="M0,109.22v-18.45c.49-.37,.5-.36,.55-.94,.47-5.29,1.44-10.49,2.83-15.61,5.6-20.62,16.68-37.72,33.07-51.4,10.01-8.36,21.32-14.36,33.71-18.3,6.4-2.03,12.97-3.39,19.68-3.99,.32-.03,1.02,.32,.94-.53h18.16c.46,.48,.46,.48,1.01,.53,7.87,.72,15.53,2.42,22.99,5.05,7.15,2.52,14.01,5.67,20.34,9.89-.67,.4-1.4,.34-2.13,.34-12.3,0-24.59,0-36.89,0-1.99,0-2.09,.09-2.09,2.05,0,7.42,0,14.83,0,22.25-3.67-6.44-8.59-11.62-15.19-15.11-5.87-3.1-12.1-4.66-18.76-4.25-5.41-.03-10.82-.06-16.22-.08-16.06-.05-29.18,9.66-34.69,23.25-1.55,3.82-2.25,7.83-2.64,11.91,0,.17,0,.33,0,.5,.21,5.82,.14,11.64,0,17.46,0,.36,0,.72,0,1.07,.07,.22,.14,.44,.21,.67,0,2.84-.04,5.69,0,8.53,.01,.84-.22,1.29-1.12,1.23-1.94-.11-3.85-.17-5.76,.5-4.39,1.53-8.03,6.01-8.34,10.16-.49,6.65,3.14,10.96,7.3,12.78,2.14,.94,4.4,1.51,6.77,.84,.9,.04,1.72-.24,2.54-.57,1.89-.77,1.84-.74,2.69,1.12,3.69,8.02,9.29,14.41,16.63,19.29,3.34,2.22,7,3.78,10.71,5.23-2.14,1.82-4.71,2.95-7.05,4.45-.23-1.18-.79-1.27-1.83-.76-2.65,1.31-5.31,2.61-8.06,3.7-1.51,.6-2.38,1.23-1.59,2.93-4.42,2.73-7.81,6.5-10.65,10.79-1.66,2.52-2.76,5.32-4.03,8.04-.24-.24-.49-.46-.7-.72-5.79-7.18-10.56-14.97-14.21-23.45-4.06-9.42-6.62-19.22-7.64-29.43-.03-.32,.32-1.02-.53-.94Z"/>
  <path class="cls-1" d="M200,91.07v18.16c-.5,.37-.5,.37-.55,.94-.66,7.19-2.19,14.2-4.44,21.05-3.57,10.84-8.79,20.8-15.85,29.79-.37-1.53-.24-3.07-.21-4.62,5.29-2.2,9.59-9,9.64-15.24,.62-7.21-4.25-14.9-11.13-17.55-.37-1.19-.22-2.41-.28-3.62-.21-4.41-.4-8.82-.61-13.36-3.93,1.3-7.71,2.53-11.48,3.79-8.38,2.8-16.76,5.61-25.14,8.42-6.56,.25-13.11,.48-19.67,.75-3.01,.13-6.01,.35-9.02,.54-3,.39-5.47,3.06-5.55,6.02-.03,1.02-.02,2.05-.03,3.07-1.01,.07-2.02,.17-3.03,.21-3.05,.12-4.84,1.67-5.39,4.71-.05,.09-.05,.18-.01,.28,0,.39,0,.79,0,1.18,.04,1.36,.07,2.72,.11,4.08-1.14-.55-2.32-1.02-3.4-1.66-1.12-.66-1.82-.66-2.03,.8-2.53-1.05-4.78-2.56-7.02-4.11,2.9-1.23,5.83-2.4,8.57-3.97,6.45-3.69,11.62-8.7,15.71-14.9,1.59-2.4,2.61-5.09,4.15-7.51,1.33,.5,2.58,1.3,4.08,1.26,.32,.29,.72,.24,1.11,.25,3.95,.04,7.3-1.26,10.01-4.21,4.82-5.24,3.77-14.22-2.12-18.22-2.76-1.87-5.76-2.47-9.02-2.11-.29,0-.57,0-.86,0,0-2.85,0-5.69,0-8.54,1.61,0,3.22,0,4.83,0,9.65,0,19.31,0,28.96-.01,1.07,0,1.58,.12,1,1.38-1.03,2.25-1.92,4.57-2.88,6.86-.99,2.38-1.98,4.76-2.98,7.13-.11,.26-.32,.55-.08,.81,.27,.29,.54,0,.79-.1,.23-.09,.44-.21,.65-.33,8.3-4.78,16.6-9.56,24.9-14.33,1.33-.76,2.61-1.5,4.32-1.46,5.31,.13,10.63,.02,15.94,.07,1.18,.01,1.62-.29,1.59-1.54-.07-3.41-.02-6.82-.01-10.24,.06,.07,.16,.13,.19,.21,2.9,7.97,4.88,16.14,5.69,24.59,.04,.46-.2,1.11,.55,1.3Z"/>
  <path class="cls-5" d="M90.19,200c.17-.66-.4-.5-.67-.53-1.24-.16-2.48-.27-3.73-.4,.68-.31,1.38-.46,1.73-1.34,1.76-4.42,3.6-8.81,5.41-13.21,1.61-3.91,3.2-7.82,4.83-11.72,.47-1.12,.27-1.63-1.04-1.51-.77,.07-1.56-.02-2.33,.02-.95,.05-1.39-.1-.86-1.19,.53-1.09,.84-2.28,1.29-3.4,1.51-3.73,2.71-7.58,4.45-11.22,1.05,.97,2.23,1.73,3.71,1.75,1.3,.01,2.61-.09,3.92-.13,.14,1.25,.12,2.53,.45,3.73,.94,3.44,3.48,4.91,6.85,5.22,.55,2.54,1.04,5.09,1.81,7.57,.13,.61,.26,1.23,.4,1.83,1.14,4.8,2.27,9.6,3.41,14.4,0,2.7,0,5.39,0,8.09-2.86,.9-5.83,1.08-8.77,1.48-.45,.06-1.12-.24-1.25,.57h-16.69c-.09-.07-.18-.13-.27-.2,0,.07-.02,.13-.02,.2h-2.64Z"/>
  <path class="cls-4" d="M153.26,15.47c.71,.2,1.44,.23,2.17,.22,12.1,0,24.21,.02,36.31-.04,1.37,0,1.79,.27,1.79,1.73-.06,14.98-.04,29.96-.03,44.95,0,.88,.05,1.76,.07,2.63,0,3.41-.06,6.83,.01,10.24,.03,1.25-.41,1.55-1.59,1.54-5.31-.06-10.63,.06-15.94-.07-1.72-.04-2.99,.7-4.32,1.46-8.31,4.76-16.6,9.55-24.9,14.33-.21,.12-.42,.24-.65,.33-.25,.1-.52,.38-.79,.1-.24-.26-.03-.54,.08-.81,.99-2.38,1.99-4.75,2.98-7.13,.95-2.29,1.84-4.61,2.88-6.86,.58-1.26,.07-1.38-1-1.38-9.65,.02-19.31,.01-28.96,.01-1.61,0-3.22,0-4.83,0-1.05,0-2.1-.04-3.15,0-.84,.03-1.26-.3-1.23-1.16,.04-.34,.11-.67,.11-1.01,0-11,0-22,0-33,0-.48-.07-.97-.11-1.45,0-7.42,0-14.83,0-22.25,0-1.96,.1-2.05,2.09-2.05,12.3,0,24.59,0,36.89,0,.73,0,1.47,.06,2.13-.34Zm13,26.15c-2.82,0-5.21,2.4-5.21,5.23,0,2.83,2.36,5.22,5.19,5.26,2.85,.04,5.35-2.46,5.3-5.31-.04-2.83-2.44-5.18-5.28-5.18Zm-33.03,5.29c.02,2.84,2.4,5.21,5.24,5.19,2.8-.01,5.22-2.42,5.24-5.23,.03-2.83-2.51-5.32-5.35-5.26-2.86,.06-5.15,2.43-5.13,5.29Zm24.34,.01c.03-2.88-2.24-5.24-5.1-5.3-2.89-.06-5.32,2.34-5.31,5.25,0,2.85,2.37,5.23,5.18,5.24,2.84,.01,5.2-2.33,5.23-5.19Z"/>
  <path class="cls-2" d="M112.16,40.11c.04,.48,.11,.97,.11,1.45,0,11,0,22,0,33,0,.34-.07,.67-.11,1.01-1.02,0-2.05-.08-3.07,0-.99,.08-1.25-.3-1.24-1.24,.04-3.75-.07-7.51,.06-11.26,.05-1.39-.55-1.68-1.69-1.89-6.1-1.09-12.2-2.25-18.29-3.38-8.57-1.6-17.15-3.19-25.72-4.8-5.38-1.01-10.78-1.86-16.12-3.09,.77-.79,.61-1.9,.93-2.84,4.61-13.53,13.68-22.18,27.71-25.49,1.16-.27,2.4-.21,3.48-.83,6.67-.4,12.89,1.15,18.76,4.25,6.6,3.48,11.52,8.67,15.19,15.11Z"/>
  <path class="cls-11" d="M23.74,85.28c.9,.07,1.13-.38,1.12-1.23-.03-2.84,0-5.69,0-8.53,2.29,0,4.59-.1,6.87,.02,1.32,.07,1.61-.36,1.6-1.63-.06-8.29,0-16.58-.06-24.87,0-1.25,.36-1.45,1.5-1.21,3.53,.73,7.07,1.36,10.61,2.03-.13,.31-.22,.65-.39,.94-4.01,6.77-5.84,14.16-6.03,21.95-.14,5.94-.06,11.9-.02,17.84,.02,3.16,.32,6.3,.97,9.39,2.08,9.85,6.77,18.19,14.28,24.99,5.84,5.29,12.59,8.69,20.17,10.61,2.16,.55,4.28,.68,6.44,0,.96-.3,1.94-.66,2.99-.6,0,1.46-.01,2.92-.02,4.38-4.79,1.88-9.79,2.73-14.9,2.9-4.02,.14-4.16,.24-2.33,4.01,1.63,3.37,4.36,5.5,7.79,6.82-1.05,.32-2.21,.25-3.19,.85-.39-.24-.77-.15-1.15,.03-.5-.47-1.15-.45-1.76-.57-5.41-1.13-8.87-4.37-10.43-9.66-.76-2.58-.35-5.23-.41-7.85-.02-.84-.23-1.3-1.12-1.3-3.72-1.44-7.38-3.01-10.72-5.23-7.33-4.88-12.94-11.27-16.63-19.29-.85-1.86-.8-1.89-2.69-1.12-.82,.33-1.64,.61-2.54,.57-.39-2.15-.84-4.28-1.12-6.44-.11-.82-.3-1.11-1.16-1.29-1.44-.29-2.82-.82-3.47-2.37-1.25-2.96,.32-5.82,3.5-6.33,.42-.07,1,.08,1.03-.54,.14-2.49,.99-4.85,1.24-7.31Z"/>
  <path class="cls-10" d="M45.4,49.87c-3.54-.67-7.08-1.3-10.61-2.03-1.14-.24-1.51-.04-1.5,1.21,.05,8.29,0,16.58,.06,24.87,0,1.27-.28,1.69-1.6,1.63-2.29-.11-4.58-.02-6.87-.02-.07-.22-.14-.44-.21-.67,.15-.36,.15-.72,0-1.08,.14-5.82,.21-11.64,0-17.45,.12-.17,.12-.34,0-.5,.39-4.08,1.09-8.09,2.64-11.91,5.5-13.59,18.63-23.29,34.69-23.25,5.41,.02,10.82,.05,16.22,.08-1.07,.62-2.32,.56-3.48,.83-14.02,3.31-23.09,11.96-27.71,25.49-.32,.94-.16,2.05-.93,2.84-.23-.01-.46-.03-.69-.04Z"/>
  <path class="cls-6" d="M64.63,193.53c-5.68-1.92-11.01-4.56-16.05-7.8-.58-1.49-1.13-2.99-1.74-4.47-1.17-2.88-2.34-5.77-3.58-8.62-.48-1.11-.27-1.47,.94-1.36,.87,.08,1.75-.02,2.63,.02,.93,.05,1.19-.14,.8-1.14-2.39-6.11-4.67-12.27-7.07-18.37-.9-2.3-1.56-4.69-2.8-6.85-.79-1.7,.08-2.33,1.59-2.93,2.74-1.09,5.41-2.39,8.06-3.7,1.05-.52,1.6-.42,1.83,.76,2.15,7.53,4.3,15.06,6.45,22.59,1.05,3.78,2.08,7.58,3.16,11.35,1.63,5.69,3.29,11.36,4.94,17.04,.28,1.16,.56,2.32,.83,3.48Z"/>
  <path class="cls-5" d="M37.77,144.94c1.24,2.16,1.9,4.56,2.8,6.85,2.4,6.11,4.68,12.26,7.07,18.37,.39,1,.12,1.19-.8,1.14-.87-.04-1.76,.06-2.63-.02-1.21-.11-1.42,.25-.94,1.36,1.24,2.85,2.41,5.74,3.58,8.62,.6,1.48,1.16,2.98,1.74,4.47-4-2.1-7.59-4.82-11.11-7.62-5.15-4.1-9.79-8.72-14.06-13.72-.15-.17-.22-.41-.33-.62,1.27-2.72,2.37-5.52,4.03-8.04,2.84-4.29,6.23-8.06,10.65-10.79Z"/>
  <path class="cls-3" d="M23.74,85.28c-.25,2.46-1.1,4.82-1.24,7.31-.03,.62-.62,.47-1.03,.54-3.18,.51-4.75,3.36-3.5,6.33,.65,1.54,2.04,2.08,3.47,2.37,.85,.17,1.05,.47,1.16,1.29,.29,2.16,.74,4.3,1.12,6.44-2.38,.68-4.63,.1-6.77-.84-4.16-1.81-7.8-6.13-7.3-12.78,.31-4.15,3.95-8.63,8.34-10.16,1.91-.67,3.82-.61,5.76-.5Z"/>
  <path class="cls-8" d="M55.7,161.66c-2.15-7.53-4.3-15.06-6.45-22.59,2.34-1.5,4.91-2.63,7.05-4.45,.88,0,1.1,.46,1.12,1.3,.06,2.62-.35,5.26,.41,7.85,1.56,5.29,5.02,8.53,10.43,9.66,.61,.13,1.26,.11,1.76,.57-1.93,1.23-4.14,2-5.89,3.53-1.36,.28-2.42,1.18-3.63,1.75-1.61,.76-2.98,2.02-4.79,2.38Z"/>
  <path class="cls-3" d="M24.66,73.78c.14,.36,.15,.72,0,1.08,0-.36,0-.72,0-1.08Z"/>
  <path class="cls-3" d="M24.65,55.83c.13,.17,.13,.33,0,.5,0-.17,0-.34,0-.5Z"/>
  <path class="cls-3" d="M45.4,49.87c.23,.01,.46,.03,.69,.04,5.33,1.23,10.74,2.08,16.12,3.09,8.57,1.61,17.14,3.2,25.72,4.8,6.1,1.14,12.19,2.29,18.29,3.38,1.15,.21,1.74,.5,1.69,1.89-.12,3.75-.02,7.5-.06,11.26,0,.94,.26,1.32,1.24,1.24,1.02-.08,2.05,0,3.07,0-.03,.86,.39,1.19,1.23,1.16,1.05-.04,2.1,0,3.15,0,0,2.85,0,5.69,0,8.54,.09,5.68-.04,11.34-1.44,16.9-.52,2.07-1.59,3.97-1.76,6.14-1.53,2.42-2.56,5.11-4.15,7.52-4.09,6.19-9.26,11.2-15.71,14.9-2.74,1.57-5.67,2.74-8.57,3.97-.4-.02-.76,.1-1.1,.31-1.05-.06-2.02,.3-2.99,.6-2.16,.68-4.28,.54-6.44,0-7.58-1.92-14.33-5.32-20.17-10.61-7.51-6.8-12.19-15.14-14.28-24.99-.65-3.09-.95-6.23-.97-9.39-.04-5.95-.13-11.9,.02-17.84,.19-7.79,2.02-15.18,6.03-21.95,.17-.29,.26-.62,.39-.94Zm25.38,63.75c.94,.18,1.97-.23,3.03-.34,2.84-.28,5.47-1.33,7.97-2.66,1-.53,1.4-1.5,.9-2.62-.51-1.16-1.51-1.26-2.59-1-.32,.08-.62,.29-.93,.43-2.95,1.36-6.07,2.19-9.3,2.02-2.91-.16-5.72-.9-8.33-2.35-1.16-.65-2.41-.15-2.96,.99-.54,1.12-.1,2.06,.89,2.58,3.49,1.83,7.22,2.79,11.31,2.96Zm-15.19-32.55c-2.83,.02-5.13,2.28-5.16,5.09-.03,2.83,2.35,5.21,5.21,5.22,2.88,0,5.26-2.37,5.23-5.19-.03-2.88-2.37-5.14-5.28-5.12Zm35.2,5.16c0-2.91-2.28-5.17-5.2-5.16-2.89,0-5.11,2.18-5.14,5.05-.04,2.92,2.22,5.24,5.11,5.26,2.9,.01,5.23-2.28,5.24-5.15Zm-19.76,13.91c1.8,0,3.6,.03,5.4-.01,1.39-.03,2.44-.93,2.6-2.11,.14-1.04-.73-1.98-2.11-2.35-1.49-.4-3-.19-4.5-.18-2.38,.01-4.77-.27-7.13,.15-1.73,.31-2.19,1-2.03,2.58,.12,1.14,1.08,1.9,2.51,1.92,1.75,.02,3.5,0,5.26,0Z"/>
  <path class="cls-13" d="M139.94,118.82c8.38-2.81,16.76-5.62,25.14-8.42,3.77-1.26,7.55-2.49,11.48-3.79,.21,4.54,.4,8.95,.61,13.36,.06,1.21-.08,2.44,.28,3.62,.04,1.89,.06,3.79,.13,5.68,.24,6.12,.49,12.24,.74,18.35-1.19,.66-2.37-.08-3.56-.07-4.95,.05-9.88-.34-14.82-.51-5.52-.2-11.06-.25-16.57-.65-1.46-.11-2.23,.26-1.99,1.85-.07-.43-.2-.85-.21-1.28-.25-9.39-.73-18.77-1.23-28.15Z"/>
  <path class="cls-9" d="M139.94,118.82c.5,9.38,.98,18.76,1.23,28.15,.01,.43,.14,.85,.21,1.28,.1,3.29,.2,6.58,.29,9.87-2.97,.61-6,.24-9,.52-3.81,.36-7.67,.26-11.5,.37-.34,0-.68,.04-1.01,.11-3.32,.64-7.2-2.25-7.41-5.6-.3-4.6-.59-9.2-.61-13.81,0-.53-.13-1.06-.16-1.59-.11-1.93-.35-3.86,.12-5.77,.49,1.31,1.43,1.85,2.84,1.77,2.87-.17,5.74-.27,8.61-.4,1.85-.08,3.7-.11,5.54-.27,1.46-.13,2.24-1.11,2.16-2.44-.07-1.27-1.01-2.17-2.32-2.12-4.72,.2-9.44,.44-14.16,.66-1.2,.06-2.19,.45-2.67,1.65-.57,.56-.55,.12-.53-.31,.18-3.6-.42-7.17-.31-10.77,3.01-.18,6.01-.41,9.02-.54,6.55-.28,13.11-.51,19.67-.75Zm-17.79,31.94c0-.1,0-.19,0-.29,2.44,0,4.87,.05,7.31-.02,1.65-.04,2.63-1.02,2.6-2.37-.03-1.35-1.1-2.3-2.7-2.24-4.68,.18-9.36,.38-14.03,.62-1.59,.08-2.63,1.15-2.52,2.45,.11,1.37,1.16,2.23,2.77,2.17,2.19-.08,4.38-.21,6.58-.32Zm-.28-8.49c0-.1,0-.2,0-.3,2.48,0,4.97,.06,7.45-.02,1.43-.05,2.37-1.09,2.36-2.31,0-1.29-1.06-2.33-2.52-2.28-4.78,.17-9.55,.38-14.32,.63-1.55,.08-2.47,1.08-2.4,2.4,.07,1.39,1.1,2.27,2.71,2.21,2.24-.08,4.48-.21,6.72-.32Z"/>
  <path class="cls-12" d="M141.68,158.12c-.1-3.29-.2-6.58-.29-9.87-.23-1.59,.53-1.95,1.99-1.85,5.52,.4,11.05,.45,16.57,.65,4.94,.18,9.88,.56,14.82,.51,1.19-.01,2.37,.73,3.56,.07,.05,.01,.1,.03,.15,.04,.15,2.9,.31,5.81,.46,8.71-.04,1.54-.16,3.09,.21,4.62-2.7,3.76-5.72,7.24-9.19,10.31-7.01-1.82-14.07-3.44-21.16-4.96-2.27-.55-4.53-1.1-6.8-1.64,.1-2.21-.16-4.39-.34-6.58Z"/>
  <path class="cls-6" d="M99.27,155.49c-1.74,3.64-2.95,7.49-4.45,11.22-.45,1.13-.77,2.31-1.29,3.4-.53,1.1-.08,1.24,.86,1.19,.78-.04,1.56,.05,2.33-.02,1.31-.12,1.51,.38,1.04,1.51-1.63,3.9-3.22,7.81-4.83,11.72-1.81,4.4-3.66,8.79-5.41,13.21-.35,.88-1.05,1.03-1.73,1.34-3.49-.45-6.94-1.12-10.34-2.03,.63-2.36,1.27-4.72,1.9-7.08,.93-3.16,1.9-6.3,2.79-9.47,1.72-6.07,3.39-12.14,5.09-18.22,2.23-7.83,4.46-15.65,6.68-23.48,.21-1.46,.91-1.46,2.03-.8,1.08,.64,2.27,1.11,3.4,1.66,.16,3.78,.33,7.57,.48,11.35,.07,1.63,.35,3.18,1.43,4.48Z"/>
  <path class="cls-15" d="M141.68,158.12c.17,2.19,.44,4.38,.34,6.58-3.18,.16-6.36,.33-9.54,.49-6.1,.16-12.19,.36-18.27,.85-3.38-.31-5.91-1.78-6.85-5.22-.33-1.19-.31-2.48-.45-3.73,.13-3.28-.31-6.54-.35-9.81-.29-6.03-.57-12.06-.86-18.09,.01-1.02,0-2.05,.03-3.07,.08-2.97,2.55-5.63,5.55-6.02-.11,3.6,.49,7.17,.31,10.77-.02,.44-.04,.87,.53,.31,0,.38,0,.77,0,1.15-.47,1.91-.23,3.84-.12,5.77,.03,.53,.16,1.06,.16,1.59,.02,4.61,.31,9.21,.61,13.81,.22,3.35,4.09,6.24,7.41,5.6,.33-.06,.67-.1,1.01-.11,3.84-.11,7.69-.01,11.5-.37,3-.28,6.03,.09,9-.52Z"/>
  <path class="cls-3" d="M117.4,85.28c3.26-.37,6.26,.24,9.02,2.11,5.89,3.99,6.94,12.98,2.12,18.22-2.71,2.95-6.07,4.26-10.01,4.21-.39,0-.79,.04-1.11-.25,.42-2.23,1.12-4.41,1.18-6.7,.02-.67,.28-.88,.94-.98,2.9-.45,4.09-1.93,4.04-4.84-.03-2.03-1.65-3.6-4.08-3.92-.48-.06-.89-.12-.88-.71,.05-2.46-.88-4.74-1.21-7.14Z"/>
  <path class="cls-8" d="M91.93,138.79c-2.23,7.83-4.46,15.65-6.68,23.48-.14-.73-.78-.95-1.31-1.25-2.28-1.27-4.58-2.52-6.87-3.77-1.97-1.09-3.94-2.19-5.91-3.28,.98-.6,2.14-.53,3.19-.85,3.67-.94,6.23-3.26,7.98-6.51,1.21-2.24,1.94-4.62,1.46-7.22,0-1.46,.01-2.92,.02-4.38,.33-.22,.69-.34,1.1-.31,2.24,1.54,4.49,3.06,7.02,4.11Z"/>
  <path class="cls-9" d="M178.49,147.68c-.05-.01-.1-.03-.15-.04-.25-6.12-.51-12.24-.74-18.35-.07-1.89-.09-3.79-.13-5.68,6.88,2.65,11.76,10.34,11.13,17.55-.48,.71-.76,1.52-1.4,2.16-2.42,2.44-5.53,3.45-8.71,4.37Z"/>
  <path class="cls-2" d="M105.68,129.2c.29,6.03,.57,12.06,.86,18.09-.63,0-1.24,.04-1.87,.18-3.02,.65-6.12-1.65-6.6-4.63-.32-1.99-.18-3.97-.27-5.95-.02-.49,.24-1.13-.54-1.31,0-.39,0-.79,0-1.18,.03-.03,.1-.06,.1-.08-.02-.07-.05-.13-.08-.2,.55-3.04,2.34-4.59,5.39-4.71,1.01-.04,2.02-.14,3.03-.21Z"/>
  <path class="cls-11" d="M117.4,85.28c.33,2.39,1.26,4.68,1.21,7.14-.01,.59,.4,.65,.88,.71,2.43,.32,4.05,1.88,4.08,3.92,.05,2.91-1.15,4.39-4.04,4.84-.66,.1-.93,.31-.94,.98-.05,2.29-.76,4.47-1.18,6.7-1.5,.04-2.74-.76-4.08-1.26,.17-2.16,1.24-4.07,1.76-6.14,1.4-5.56,1.54-11.22,1.44-16.9,.29,0,.57,0,.86,.01Z"/>
  <path class="cls-10" d="M97.25,135.58c.78,.19,.52,.83,.54,1.31,.08,1.98-.05,3.96,.27,5.95,.48,2.98,3.58,5.27,6.6,4.63,.63-.14,1.24-.17,1.87-.18,.05,3.27,.49,6.53,.35,9.81-1.31,.05-2.61,.15-3.92,.13-1.48-.01-2.65-.78-3.71-1.75-1.07-1.3-1.36-2.85-1.43-4.48-.15-3.79-.32-7.57-.48-11.35-.04-1.36-.07-2.72-.11-4.08Z"/>
  <path class="cls-15" d="M178.49,147.68c3.17-.92,6.28-1.93,8.71-4.37,.64-.64,.92-1.45,1.4-2.16-.05,6.24-4.35,13.04-9.64,15.24-.15-2.9-.31-5.81-.46-8.71Z"/>
  <path class="cls-10" d="M97.26,134.12c.03,.07,.07,.13,.08,.2,0,.02-.06,.05-.1,.08-.04-.09-.04-.19,.01-.28Z"/>
  <path class="cls-13" d="M119.82,189.85c-1.14-4.8-2.28-9.6-3.41-14.4-.14-.61-.27-1.22-.4-1.83,.72-.08,1.44-.21,2.17-.24,5.3-.22,10.6-.41,15.9-.61,.7,2.76,1.39,5.51,2.09,8.27,.67,3.77,1.6,7.48,2.54,11.18-5.45,2.34-11.05,4.18-16.87,5.37-.67-2.58-1.35-5.16-2.02-7.74Z"/>
  <path class="cls-1" d="M138.71,192.22c-.94-3.71-1.87-7.42-2.54-11.18,6.56-1.03,12.16-7.54,12.64-14.68,7.08,1.52,14.14,3.14,21.16,4.96-4.26,4.44-9.06,8.23-14.15,11.66-5.39,3.64-11.11,6.71-17.11,9.24Z"/>
  <path class="cls-1" d="M119.82,189.85c.67,2.58,1.35,5.16,2.02,7.74-.67,.12-1.35,.23-2.02,.35,0-2.7,0-5.39,0-8.09Z"/>
  <path class="cls-13" d="M71.15,153.97c1.97,1.09,3.94,2.19,5.91,3.28-1.5,2.95-3.44,5.64-5.13,8.48-.37,.62-.51,1.16-.32,1.91,1.94,7.43,3.84,14.88,5.75,22.32-.63,2.36-1.27,4.72-1.9,7.08-3.68-.96-7.38-1.86-10.83-3.51-.28-1.16-.56-2.32-.83-3.48,1.96-7.53,3.91-15.07,5.87-22.6,.14-.54,.07-1.04-.25-1.53-1.78-2.79-3.54-5.59-5.3-8.39,1.75-1.53,3.95-2.3,5.89-3.53,.38-.18,.76-.27,1.15-.03Z"/>
  <path class="cls-12" d="M134.08,172.77c-5.3,.2-10.6,.4-15.9,.61-.72,.03-1.44,.16-2.17,.24-.77-2.48-1.26-5.03-1.81-7.57,6.08-.5,12.18-.69,18.27-.85,.49,2.53,1.32,4.99,1.61,7.57Z"/>
  <path class="cls-7" d="M166.27,41.62c2.83,0,5.23,2.35,5.28,5.18,.05,2.85-2.45,5.35-5.3,5.31-2.83-.04-5.19-2.43-5.19-5.26,0-2.83,2.39-5.22,5.21-5.23Z"/>
  <path class="cls-7" d="M133.23,46.91c-.02-2.87,2.27-5.23,5.13-5.29,2.84-.06,5.38,2.43,5.35,5.26-.03,2.81-2.44,5.22-5.24,5.23-2.84,.01-5.22-2.35-5.24-5.19Z"/>
  <path class="cls-7" d="M157.58,46.93c-.03,2.86-2.39,5.2-5.23,5.19-2.82-.01-5.17-2.4-5.18-5.24,0-2.91,2.42-5.31,5.31-5.25,2.86,.06,5.13,2.42,5.1,5.3Z"/>
  <path class="cls-3" d="M83.79,139.38c.48,2.6-.26,4.98-1.46,7.22-1.75,3.25-4.32,5.57-7.98,6.51-3.43-1.32-6.16-3.45-7.79-6.82-1.82-3.77-1.69-3.87,2.33-4.01,5.1-.18,10.11-1.02,14.9-2.9Z"/>
  <path class="cls-1" d="M64.12,157.53c1.77,2.8,3.52,5.6,5.3,8.39,.32,.49,.39,.99,.25,1.53-1.95,7.53-3.91,15.07-5.87,22.6-1.65-5.68-3.32-11.35-4.94-17.04-1.08-3.78-2.11-7.57-3.16-11.35,1.81-.36,3.17-1.62,4.79-2.38,1.22-.57,2.27-1.47,3.63-1.75Z"/>
  <path class="cls-11" d="M70.77,113.62c-4.09-.16-7.83-1.13-11.31-2.96-1-.52-1.43-1.46-.89-2.58,.55-1.14,1.8-1.63,2.96-.99,2.6,1.45,5.42,2.19,8.33,2.35,3.23,.17,6.35-.66,9.3-2.02,.31-.14,.6-.35,.93-.43,1.08-.25,2.08-.15,2.59,1,.5,1.12,.09,2.09-.9,2.62-2.5,1.33-5.13,2.38-7.97,2.66-1.06,.11-2.09,.52-3.03,.34Z"/>
  <path class="cls-7" d="M55.58,81.07c2.91-.02,5.25,2.24,5.28,5.12,.03,2.83-2.35,5.2-5.23,5.19-2.86,0-5.24-2.38-5.21-5.22,.03-2.81,2.33-5.08,5.16-5.09Zm1.92,2.03c-1.26,.02-2.19,.99-2.16,2.25,.03,1.23,1.05,2.21,2.27,2.18,1.22-.03,2.18-1.05,2.16-2.29-.02-1.28-.96-2.16-2.27-2.14Z"/>
  <path class="cls-7" d="M90.78,86.23c0,2.87-2.34,5.17-5.24,5.15-2.89-.01-5.15-2.34-5.11-5.26,.04-2.87,2.25-5.05,5.14-5.05,2.92,0,5.21,2.26,5.2,5.16Zm-.82-.94c0-1.3-.9-2.19-2.21-2.19-1.25,0-2.24,.98-2.23,2.2,0,1.21,1.03,2.23,2.24,2.22,1.24,0,2.2-.99,2.2-2.24Z"/>
  <path class="cls-11" d="M71.02,100.15c-1.75,0-3.51,.02-5.26,0-1.43-.02-2.39-.78-2.51-1.92-.17-1.59,.29-2.27,2.03-2.58,2.36-.42,4.75-.14,7.13-.15,1.5,0,3.01-.22,4.5,.18,1.38,.38,2.26,1.32,2.11,2.35-.16,1.18-1.21,2.08-2.6,2.11-1.8,.04-3.6,.01-5.4,.01Z"/>
  <path class="cls-10" d="M122.15,150.76c-2.19,.11-4.38,.24-6.58,.32-1.61,.06-2.65-.79-2.77-2.17-.11-1.3,.93-2.37,2.52-2.45,4.68-.24,9.35-.44,14.03-.62,1.59-.06,2.66,.89,2.7,2.24,.03,1.35-.95,2.33-2.6,2.37-2.43,.06-4.87,.02-7.31,.02,0,.1,0,.19,0,.29Z"/>
  <path class="cls-10" d="M121.87,142.27c-2.24,.11-4.48,.24-6.72,.32-1.6,.06-2.64-.82-2.71-2.21-.07-1.32,.85-2.32,2.4-2.4,4.77-.25,9.55-.46,14.32-.63,1.46-.05,2.51,.99,2.52,2.28,0,1.22-.93,2.26-2.36,2.31-2.48,.08-4.97,.02-7.45,.02,0,.1,0,.2,0,.3Z"/>
  <path class="cls-10" d="M112.1,132.35c0-.38,0-.77,0-1.15,.49-1.2,1.47-1.6,2.67-1.65,4.72-.22,9.44-.46,14.16-.66,1.31-.06,2.24,.85,2.32,2.12,.08,1.34-.7,2.31-2.16,2.44-1.84,.16-3.7,.19-5.54,.27-2.87,.13-5.74,.23-8.61,.4-1.41,.08-2.34-.45-2.84-1.77Z"/>
  <path class="cls-14" d="M134.08,172.77c-.29-2.58-1.12-5.04-1.61-7.57,3.18-.16,6.36-.33,9.54-.49,2.27,.55,4.53,1.1,6.8,1.64-.48,7.14-6.08,13.65-12.64,14.68-.7-2.76-1.39-5.51-2.09-8.27Z"/>
  <path class="cls-1" d="M77.36,189.96c-1.91-7.44-3.81-14.89-5.75-22.32-.19-.74-.05-1.29,.32-1.91,1.69-2.84,3.64-5.52,5.13-8.48,2.29,1.25,4.59,2.5,6.87,3.77,.53,.3,1.17,.52,1.31,1.25-1.69,6.07-3.37,12.15-5.09,18.22-.9,3.17-1.86,6.31-2.79,9.47Z"/>
  <path class="cls-4" d="M57.5,83.1c1.3-.02,2.24,.86,2.27,2.14,.02,1.25-.94,2.27-2.16,2.29-1.22,.03-2.24-.96-2.27-2.18-.03-1.26,.9-2.23,2.16-2.25Z"/>
  <path class="cls-4" d="M89.96,85.29c0,1.25-.96,2.23-2.2,2.24-1.21,0-2.24-1.01-2.24-2.22,0-1.22,.98-2.2,2.23-2.2,1.31,0,2.2,.89,2.21,2.19Z"/>
</svg>