<?xml version="1.0" encoding="UTF-8"?>
<svg id="Layer_1" data-name="Layer 1" xmlns="http://www.w3.org/2000/svg" viewBox="0 0 200 200">
  <defs>
    <style>
      .cls-1 {
        fill: #56caf5;
      }

      .cls-2 {
        fill: #0d599d;
      }
    </style>
  </defs>
  <path class="cls-1" d="M200,0c-.24,1.16-1.46,1.74-2.37,2.48-51.83,41.83-103.69,83.63-155.44,125.53-2.98,2.42-4.54,2.25-7.36-.1-10.02-8.34-20.31-16.47-30.55-24.64-1.24-.99-2.15-2.45-4.29-2.47v-1.6c2.13-.02,3.05-1.48,4.28-2.47,6.4-5.2,12.66-10.52,19.09-15.7C55.53,55.11,87.72,29.21,119.88,3.29c1.26-1.02,2.87-1.83,3.5-3.29h76.62Z"/>
  <path class="cls-2" d="M134.34,146.36c21.36,17.24,42.72,34.48,64.07,51.73,.68,.55,1.57,1,1.59,1.91H123.38c-3.66-4.55-9.08-7.77-13.62-11.66-4.38-3.76-9.03-7.31-13.56-10.95,.25-.48,.34-1.08,.76-1.42,12.47-9.86,24.41-20.15,37.37-29.61Z"/>
  <path class="cls-1" d="M134.34,146.36c-12.96,9.46-24.9,19.75-37.37,29.61-.42,.33-.51,.94-.76,1.42-12.21-9.75-24.36-19.55-36.68-29.2-2.62-2.05-1.04-3.05,.69-4.44,11.62-9.3,23.22-18.61,34.77-27.96,8.63-6.99,17.2-14.02,25.75-21.08,2.06-1.7,4.21-2.71,7.36-2.7,22.85,.09,45.7,.04,68.56,.06,.93,0,1.98-.27,2.89,.48-.05,1.65-1.89,2.34-3.08,3.3-19.51,15.76-39.07,31.47-58.6,47.22-1.27,1.02-2.35,2.19-3.52,3.3Z"/>
</svg>