<?xml version="1.0" encoding="UTF-8"?>
<svg id="Layer_1" data-name="Layer 1" xmlns="http://www.w3.org/2000/svg" viewBox="0 0 200 200">
  <defs>
    <style>
      .cls-1 {
        fill: #fac8a3;
      }

      .cls-2 {
        fill: #f48520;
      }

      .cls-3 {
        fill: #7db455;
      }

      .cls-4 {
        fill: #070604;
      }

      .cls-5 {
        fill: #d7d7d4;
      }
    </style>
  </defs>
  <path class="cls-4" d="M119.98,199.21c-2.14,.01-4.85,.82-6.25-.19-1.33-.96-.4-3.86-.5-5.9-.15-3.24-.39-6.5-.19-9.73,.17-2.76-1.2-4.62-2.81-6.85-2.15,7.29-4.3,14.28-6.24,21.32-.53,1.94-1.25,2.64-3.16,1.77-.49-.22-1.06-.27-1.59-.4-2.2-.42-2.54-1.6-1.74-3.59,.82-2.04,1.33-4.19,1.95-6.31,1.61-5.47,3.2-10.94,4.79-16.39-.28-.11-.4-.2-.52-.2-3.75-.01-7.49-.02-11.24-.02-5.8,0-5.78,0-6.53,5.69-.1,.77,.08,.86,.79,.99,2.49,.45,3.24,1.41,3.25,3.94,.01,3.94-.07,7.88,.03,11.82,.05,1.87-.64,3.17-2.22,4.08-18.12,.02-36.23,.05-54.35,.05-2.66,0-3.95-1.95-3.26-4.74,1.64-6.61,3.22-13.24,5-19.82,.48-1.76,.13-2.06-1.58-2.03-6.73,.08-13.47,.05-20.2,.03-7.6-.02-13.41-5.8-13.41-13.38-.02-19.85-.01-39.71,0-59.56,0-7.6,5.8-13.4,13.38-13.41,31.03-.01,62.06,.01,93.09-.03,3.07,0,5.73,1.07,8.75,2.82-2-4.33-3.69-8.21-4.87-12.29-.18-.62-.51-.9-1.22-.73-.74,.17-1.51,.25-2.27,.25-2.19,.01-3.53-1.23-3.53-3.42-.01-10.93-.26-21.87,.08-32.79,.58-18.49,15.75-35.7,34.22-39.3,23.65-4.61,45.66,9.41,51.3,32.69,.36,1.47,.66,2.98,.72,4.49,.14,3.73,.94,7.14,2.74,10.54,1.86,3.52,1.53,7.62-.79,10.86-2.05,2.86-2.63,5.96-3.24,9.17-1.99,10.42-6.08,19.99-11.79,28.91-.95,1.48-2.13,2.2-3.94,2.14-2.63-.09-5.28,.01-7.91-.04-1-.02-1.41,.15-1.44,1.32-.13,5.34-.18,5.26,5.1,5.36,5.19,.1,10.42-.52,15.58,.39,8.91,1.57,15.97,9.83,15.99,18.86,.06,19.23,.06,38.46,0,57.69-.03,8.6-7.5,15.99-16.13,16.02-15.62,.05-31.24,.07-46.86-.03-3.12-.02-6.23,.07-9.35,0-2.03-1.12-1.95-3.3-2.7-5.1-2.32-5.55-.92-10.05,2.47-14.87,7.05-10,13.44-20.46,20.18-30.68,3.35-5.08,9.63-6.36,14.6-3.15,4.78,3.09,5.84,9.03,2.52,14.2-1.64,2.56-3.27,5.13-4.99,7.65-.65,.95-.51,1.36,.52,1.82,1.71,.75,3.35,1.66,5.04,2.46,.91,.43,1.72,1.08,2.89,.91,2.6-.38,5.22-.74,7.84-.87,1.42-.07,1.91-.78,2.24-1.92,2.12-7.44,1.13-14.36-3.59-20.6-.93-1.23-1.37-2.44-1.36-3.98,.05-10.03,.04-20.06,0-30.09,0-.7,.7-2.09-.88-2.01-1.3,.07-3.12-.99-3.68,1.41-.58,2.48-1.3,4.93-2.1,7.35-2.85,8.7-10.82,14.43-19.98,14.43-9.15,0-17.14-5.75-19.98-14.42-.79-2.42-1.52-4.87-2.1-7.35-.56-2.4-2.37-1.35-3.67-1.42-1.58-.09-.88,1.3-.88,2.01-.05,14.8-.04,29.61-.03,44.41,0,3.02-1.03,5.62-2.67,8.13-.7,1.07-2.66,1.45-2.07,3.21,.43,1.3,1.12,2.52,1.77,3.73,.39,.73,.87,1.42,1.41,2.05,.91,1.05,1.27,2.23,1.28,3.61,.06,6.36,.18,12.72,.27,19.09Zm.42-115.75c-.07-.09-.13-.18-.2-.27-.02,.09-.04,.17-.07,.26,.1-.01,.2-.02,.29-.03,.23,2.56,2.11,4.4,2.94,6.67,1,2.74,2.99,3.26,5.53,2.9,.37-.05,.87,.17,1.03-.4,.15-.55-.11-.94-.57-1.21-3.48-2.09-6.26-4.96-8.97-7.92Zm-60.49,9.54h0c-15.2,0-30.4-.01-45.6,0-4.92,0-7.64,2.67-7.64,7.49,0,19.36,0,38.73,0,58.09,0,4.85,2.7,7.5,7.64,7.5,7.01,0,14.02-.07,21.03,.04,1.62,.02,2.23-.44,2.6-1.99,1.72-7.16,3.55-14.29,5.37-21.43,.64-2.52,1.52-3.18,4.07-3.19,8.4-.01,16.8-.01,25.19,0,3.1,0,4.42,1.5,4.04,4.57-.83,6.71-1.6,13.44-2.58,20.13-.24,1.65,.05,1.92,1.62,1.91,9.99-.07,19.99-.03,29.98-.04,5.08,0,7.7-2.6,7.7-7.65,0-19.3,0-38.59,0-57.89,0-4.85-2.71-7.53-7.61-7.53-15.27,0-30.54,0-45.8,0Zm50.08-39.7c0,5.13,0,9.35,0,13.57,0,2.42,.02,2.46,2.36,1.86,16.58-4.28,28.02-14.34,33.85-30.4,2.65-7.32,4.76-14.83,7.09-22.26,.5-1.6,1.43-2.7,3.2-2.76,1.87-.07,2.93,.99,3.48,2.68,.56,1.7,1.14,3.4,1.7,5.1,1.97,5.91,5.29,10.94,10.11,14.91,2.6,2.14,5.18,4.15,9.02,4,2.24-.08,2.34-.8,2.04-2.44-.05-.27-.11-.54-.16-.81-3.56-19.78-22.26-32.33-41.08-29.79-14.74,1.99-27.94,13.98-30.83,28.65-1.22,6.19-.57,12.41-.8,17.7Zm46.85-26.06c-.83,2.67-1.62,5.02-2.28,7.4-4.78,17.28-14.89,30.13-31.48,37.56-1.31,.59-.69,1.19-.38,1.88,4.9,10.99,16.79,17.23,28.82,15.15,10.66-1.85,19.93-11.16,21.35-21.61,.97-7.15,.23-14.36,.44-21.54,.02-.63-.23-.99-.77-1.32-6.9-4.14-12-9.92-15.7-17.51ZM37.69,192.61c7.75,0,15.3,0,22.86,0,3.22,0,3.17,0,3.57-3.24,1.7-13.9,3.38-27.81,5.19-41.7,.2-1.5-.25-1.53-1.4-1.53-5.48,.04-10.97,.11-16.45-.03-1.72-.04-2.32,.48-2.71,2.1-2.23,9.23-4.58,18.43-6.89,27.64-1.38,5.53-2.75,11.06-4.17,16.76Zm125.01,.03c6.8,0,13.6,.03,20.41,0,5.02-.03,8.86-3.15,9.96-8.03,.54-2.39,.13-4.83,.26-7.24,.04-.74-.24-.93-.97-.84-6.47,.76-12.95,1.39-19.4,2.28-4.19,.58-8.16,.8-11.92-1.77-1.97-1.35-4.32-2.14-6.44-3.29-1.17-.64-2.3-.75-3.58-.46-3.1,.68-6.19,1.43-9.33,1.86-1.54,.21-1.73,.86-1.72,2.14,.05,4.56,.07,9.13-.01,13.69-.03,1.35,.35,1.72,1.71,1.71,7.01-.07,14.02-.03,21.03-.03Zm-26.04-97.73c0,3.63-.04,7.14,.01,10.66,.04,3.33-1.31,5.73-4.48,6.94-.83,.31-1.09,.65-.8,1.51,.66,2.02,1.18,4.1,1.89,6.1,2.02,5.65,7.41,9.4,13.36,9.4,6,0,11.35-3.69,13.39-9.34,.7-1.94,1.13-3.97,1.81-5.92,.35-1.01,.19-1.4-.86-1.81-2.96-1.16-4.35-3.45-4.33-6.62,.02-3.18-.06-6.36,.01-9.53,.03-1.2-.35-1.42-1.43-1.1-3.49,1.04-7.07,1.28-10.69,1.12-2.63-.12-5.17-.8-7.89-1.41Zm48.35,75.73c2.31-.28,4.42-.67,6.54-.74,1.46-.05,1.79-.51,1.79-1.93-.06-13.76-.02-27.52-.04-41.27-.01-7.11-4.49-12.36-11.45-13.65-1.41-.26-1.91-.03-1.9,1.55,.08,7.88,.13,15.76,0,23.64-.07,3.91-.09,7.69,2.73,10.83,.13,.15,.18,.37,.27,.55,3.37,6.67,4,13.63,2.07,21.02Zm-3.33-103.11c.14-.61,.15-1.05-.7-1.11-1.26-.08-1.26,.78-1.37,1.6-.74,5.51-2.87,10.45-6.16,14.92-2.45,3.32-5.47,6.02-8.93,8.25-.49,.32-1.32,.46-1.14,1.27,.23,1.04,1.15,.5,1.72,.51q6.64,.1,9.72-5.85c.44-.86,.88-1.71,1.29-2.59,2.53-5.45,4.46-11.1,5.58-17Zm-104.77,125.06c1.73,0,3.47-.01,5.2,0,.68,0,1.09-.02,1.2-.94,.62-5.45,.51-5.61-4.84-5.61-.56,0-1.11-.02-1.67,0-1.79,.09-4.16-.76-5.21,.32-1,1.03-.56,3.39-.93,5.13-.23,1.09,.24,1.12,1.04,1.11,1.73-.03,3.47,0,5.2,0ZM180,52.98c0,1.93,.03,3.86-.01,5.79-.02,.85,.27,1.04,1.09,.9,2.96-.48,5.45-3.31,5.54-6.38,.09-3.1-2.36-6.07-5.43-6.68-.91-.18-1.24,.01-1.21,.98,.06,1.79,.02,3.59,.02,5.38Zm-60.01,44.55c0,2.95,.04,5.28-.02,7.6-.02,.9,.24,1.2,1.16,1.17,1.86-.07,3.73-.02,5.6-.02q3.25,0,3.25-3.17c0-3.47,0-3.42-3.58-3.48-2.14-.04-4.5,.66-6.41-2.09Zm-47.84,81.82c2.07,0,3.94,0,5.8,0,.61,0,1.06-.1,1.19-.83,.33-1.89,.71-3.78,1.09-5.82-2.14,0-4.15,.04-6.15-.02-.86-.02-1.18,.2-1.24,1.12-.12,1.78-.43,3.55-.69,5.54Z"/>
  <path class="cls-3" d="M119.98,199.21c-.1-6.36-.21-12.72-.27-19.09-.01-1.38-.37-2.56-1.28-3.61-.54-.62-1.02-1.32-1.41-2.05-.65-1.21-1.33-2.44-1.77-3.73-.59-1.76,1.37-2.15,2.07-3.21,1.65-2.5,2.67-5.11,2.67-8.13-.01-14.8-.02-29.61,.03-44.41,0-.7-.7-2.09,.88-2.01,1.3,.07,3.12-.98,3.67,1.42,.58,2.48,1.31,4.93,2.1,7.35,2.84,8.68,10.83,14.43,19.98,14.42,9.16,0,17.12-5.73,19.98-14.43,.79-2.42,1.52-4.87,2.1-7.35,.56-2.4,2.37-1.34,3.68-1.41,1.58-.08,.87,1.31,.88,2.01,.05,10.03,.06,20.06,0,30.09,0,1.54,.43,2.76,1.36,3.98,4.72,6.24,5.71,13.16,3.59,20.6-.33,1.14-.82,1.85-2.24,1.92-2.62,.13-5.24,.49-7.84,.87-1.18,.17-1.98-.48-2.89-.91-1.69-.8-3.33-1.71-5.04-2.46-1.03-.45-1.17-.87-.52-1.82,1.72-2.51,3.35-5.08,4.99-7.65,3.31-5.18,2.25-11.11-2.52-14.2-4.96-3.21-11.25-1.93-14.6,3.15-6.74,10.22-13.13,20.67-20.18,30.68-3.4,4.83-4.8,9.32-2.47,14.87,.76,1.81,.67,3.98,2.7,5.1-2.55,0-5.09,0-7.64-.01Z"/>
  <path class="cls-1" d="M87.81,199.22c1.57-.91,2.26-2.2,2.22-4.08-.1-3.94-.02-7.88-.03-11.82,0-2.52-.76-3.49-3.25-3.94-.71-.13-.89-.22-.79-.99,.75-5.69,.72-5.69,6.53-5.69,3.75,0,7.49,0,11.24,.02,.12,0,.25,.09,.52,.2-1.59,5.46-3.18,10.93-4.79,16.39-.62,2.11-1.14,4.27-1.95,6.31-.8,1.99-.46,3.17,1.74,3.59-3.81,0-7.62,0-11.43,0Z"/>
  <path class="cls-5" d="M59.91,93c15.27,0,30.54,0,45.8,0,4.9,0,7.61,2.68,7.61,7.53,0,19.3,0,38.59,0,57.89,0,5.05-2.62,7.64-7.7,7.65-9.99,0-19.99-.03-29.98,.04-1.58,.01-1.87-.26-1.62-1.91,.99-6.69,1.75-13.41,2.58-20.13,.38-3.07-.94-4.57-4.04-4.57-8.4,0-16.8,0-25.19,0-2.55,0-3.43,.67-4.07,3.19-1.82,7.14-3.65,14.27-5.37,21.43-.37,1.55-.98,2.01-2.6,1.99-7.01-.11-14.02-.04-21.03-.04-4.93,0-7.63-2.65-7.64-7.5,0-19.36,0-38.73,0-58.09,0-4.82,2.73-7.49,7.64-7.49,15.2,0,30.4,0,45.6,0h0Zm-40.02,13.29h1.66c5.47,0,5.45,0,5.14-5.48-.05-.89-.25-1.19-1.17-1.17-2.35,.06-4.71,.02-7.06,.02-5.48,0-5.45,0-5.14,5.48,.05,.89,.25,1.2,1.17,1.17,1.8-.07,3.6-.02,5.4-.02Zm19.95,0h1.66c5.48,0,5.46,0,5.18-5.43-.04-.82-.14-1.23-1.12-1.22-3.74,.05-7.47,.02-11.21,.02-.48,0-1.02-.08-1,.67,.04,1.92-.38,4.03,.31,5.67,.38,.9,2.67,.18,4.1,.28,.69,.05,1.38,0,2.08,0Zm20.08,0h1.66c5.29,0,5.25,0,5.11-5.3-.03-1.13-.37-1.38-1.42-1.35-2.28,.07-4.57,.02-6.85,.02-5.29,0-5.25,0-5.11,5.3,.03,1.13,.37,1.39,1.42,1.35,1.73-.08,3.46-.02,5.19-.02Zm20.06,0h1.66q5.15,0,5.02-5.16c0-.14-.02-.28,0-.41,.1-.79-.21-1.08-1.04-1.07-3.74,.04-7.47,.03-11.21,0-.78,0-1.02,.21-1.1,1.03-.52,5.61-.54,5.61,5.01,5.61h1.66Zm19.88,0h0c.55,0,1.11,0,1.66,0,5.32,0,5.27,0,5.18-5.25-.02-1.26-.47-1.46-1.56-1.42-2.21,.07-4.43,.03-6.65,.03-5.32,0-5.29,0-5.18,5.24,.02,1.03,.2,1.48,1.35,1.42,1.73-.1,3.46-.03,5.19-.03Z"/>
  <path class="cls-2" d="M109.99,53.3c.23-5.29-.42-11.52,.8-17.7,2.88-14.67,16.09-26.66,30.83-28.65,18.82-2.54,37.52,10,41.08,29.79,.05,.27,.11,.54,.16,.81,.31,1.64,.2,2.35-2.04,2.44-3.84,.15-6.42-1.86-9.02-4-4.82-3.97-8.14-8.99-10.11-14.91-.57-1.7-1.14-3.4-1.7-5.1-.55-1.69-1.61-2.75-3.48-2.68-1.77,.07-2.7,1.16-3.2,2.76-2.34,7.43-4.44,14.94-7.09,22.26-5.83,16.07-17.28,26.13-33.85,30.4-2.35,.61-2.36,.56-2.36-1.86,0-4.22,0-8.44,0-13.57Z"/>
  <path class="cls-1" d="M156.84,27.24c3.7,7.6,8.8,13.37,15.7,17.51,.54,.33,.79,.69,.77,1.32-.21,7.18,.53,14.39-.44,21.54-1.42,10.45-10.69,19.76-21.35,21.61-12.03,2.08-23.92-4.16-28.82-15.15-.31-.69-.93-1.29,.38-1.88,16.59-7.42,26.7-20.27,31.48-37.56,.66-2.38,1.46-4.73,2.28-7.4Zm-16.28,39.19c-.77,0-1.12,0-1.47,0q-2.82,0-2.06,2.7c1.24,4.36,5.15,7.29,9.7,7.27,4.6-.02,8.35-3.06,9.64-7.62,.48-1.71,.36-2.61-1.72-2.36-.89,.11-1.81,.09-2.7,0-1.23-.13-1.9,.18-2.44,1.45-.99,2.3-4.36,2.71-5.34,.54-.96-2.14-2.33-2.07-3.62-1.97Zm26.09-14.94c0-2.76-2.22-4.98-4.99-4.98-2.77,0-5.02,2.22-5.01,4.97,0,2.75,2.24,4.99,5,5,2.76,0,5-2.22,5.01-4.98Z"/>
  <path class="cls-5" d="M37.69,192.61c1.42-5.7,2.79-11.23,4.17-16.76,2.31-9.21,4.66-18.41,6.89-27.64,.39-1.62,.99-2.14,2.71-2.1,5.48,.14,10.96,.07,16.45,.03,1.16,0,1.6,.03,1.4,1.53-1.81,13.89-3.5,27.79-5.19,41.7-.39,3.23-.35,3.24-3.57,3.24-7.56,0-15.11,0-22.86,0Z"/>
  <path class="cls-1" d="M162.7,192.64c-7.01,0-14.02-.04-21.03,.03-1.36,.01-1.74-.36-1.71-1.71,.09-4.56,.07-9.13,.01-13.69-.02-1.28,.18-1.93,1.72-2.14,3.13-.43,6.23-1.18,9.33-1.86,1.28-.28,2.41-.17,3.58,.46,2.12,1.15,4.47,1.94,6.44,3.29,3.75,2.57,7.72,2.35,11.92,1.77,6.45-.89,12.93-1.51,19.4-2.28,.73-.09,1.01,.11,.97,.84-.13,2.41,.28,4.84-.26,7.24-1.1,4.88-4.93,8-9.96,8.03-6.8,.04-13.6,0-20.41,.01Z"/>
  <path class="cls-1" d="M136.66,94.91c2.72,.61,5.26,1.29,7.89,1.41,3.62,.16,7.2-.08,10.69-1.12,1.07-.32,1.45-.1,1.43,1.1-.07,3.18,0,6.36-.01,9.53-.02,3.18,1.37,5.46,4.33,6.62,1.05,.41,1.21,.8,.86,1.81-.67,1.95-1.11,3.98-1.81,5.92-2.04,5.65-7.39,9.34-13.39,9.34-5.95,0-11.34-3.75-13.36-9.4-.72-2-1.23-4.08-1.89-6.1-.28-.86-.03-1.2,.8-1.51,3.17-1.2,4.52-3.61,4.48-6.94-.05-3.52-.01-7.03-.01-10.66Z"/>
  <path class="cls-1" d="M185.01,170.64c1.93-7.38,1.31-14.35-2.07-21.02-.09-.18-.14-.4-.27-.55-2.82-3.14-2.79-6.92-2.73-10.83,.14-7.88,.08-15.76,0-23.64-.02-1.58,.48-1.81,1.9-1.55,6.97,1.29,11.44,6.54,11.45,13.65,.02,13.76-.02,27.52,.04,41.27,0,1.42-.33,1.87-1.79,1.93-2.12,.08-4.24,.47-6.54,.74Z"/>
  <path class="cls-2" d="M181.68,67.53c-1.11,5.9-3.05,11.55-5.58,17-.4,.87-.84,1.73-1.29,2.59q-3.08,5.93-9.72,5.85c-.58,0-1.49,.53-1.72-.51-.18-.8,.65-.95,1.14-1.27,3.46-2.23,6.48-4.93,8.93-8.25,3.29-4.47,5.42-9.41,6.16-14.92,.11-.82,.11-1.69,1.37-1.6,.86,.06,.84,.5,.7,1.11Z"/>
  <path class="cls-5" d="M76.91,192.59c-1.73,0-3.47-.02-5.2,0-.8,.01-1.27-.02-1.04-1.11,.37-1.74-.07-4.1,.93-5.13,1.05-1.08,3.42-.23,5.21-.32,.55-.03,1.11,0,1.67,0,5.35,0,5.46,.16,4.84,5.61-.11,.92-.52,.95-1.2,.94-1.73-.02-3.47,0-5.2,0Z"/>
  <path class="cls-1" d="M180,52.98c0-1.79,.04-3.59-.02-5.38-.03-.96,.3-1.16,1.21-.98,3.07,.61,5.52,3.58,5.43,6.68-.09,3.06-2.59,5.89-5.54,6.38-.82,.13-1.11-.05-1.09-.9,.05-1.93,.01-3.86,.01-5.79Z"/>
  <path class="cls-2" d="M120.4,83.46c2.7,2.96,5.48,5.84,8.97,7.92,.45,.27,.72,.66,.57,1.21-.16,.57-.66,.35-1.03,.4-2.54,.36-4.53-.16-5.53-2.9-.83-2.28-2.71-4.12-2.94-6.67l-.03,.04Z"/>
  <path class="cls-2" d="M120.43,83.42c-.1,.01-.2,.02-.29,.03,.02-.09,.04-.17,.07-.26,.07,.09,.13,.18,.2,.27,0,0,.03-.04,.03-.04Z"/>
  <path class="cls-4" d="M19.89,106.28c-1.8,0-3.6-.05-5.4,.02-.92,.03-1.12-.28-1.17-1.17-.31-5.48-.34-5.48,5.14-5.48,2.35,0,4.71,.04,7.06-.02,.92-.02,1.12,.28,1.17,1.17,.31,5.48,.33,5.48-5.14,5.48-.55,0-1.11,0-1.66,0Z"/>
  <path class="cls-4" d="M39.84,106.28c-.69,0-1.39,.04-2.08,0-1.43-.1-3.73,.62-4.1-.28-.69-1.65-.27-3.76-.31-5.67-.02-.74,.52-.67,1-.67,3.74,0,7.47,.03,11.21-.02,.98-.01,1.08,.4,1.12,1.22,.28,5.43,.3,5.43-5.18,5.43h-1.66Z"/>
  <path class="cls-4" d="M59.92,106.28c-1.73,0-3.46-.06-5.19,.02-1.05,.05-1.39-.22-1.42-1.35-.13-5.3-.18-5.3,5.11-5.3,2.28,0,4.57,.05,6.85-.02,1.05-.03,1.39,.22,1.42,1.35,.13,5.3,.18,5.3-5.11,5.3-.55,0-1.11,0-1.66,0Z"/>
  <path class="cls-4" d="M79.98,106.28h-1.66c-5.54,0-5.52,0-5.01-5.61,.07-.82,.32-1.04,1.1-1.03,3.74,.03,7.47,.03,11.21,0,.82,0,1.14,.28,1.04,1.07-.02,.14,0,.28,0,.41q.13,5.16-5.02,5.16h-1.66Z"/>
  <path class="cls-4" d="M99.85,106.28c-1.73,0-3.47-.07-5.19,.03-1.15,.07-1.33-.39-1.35-1.42-.12-5.24-.15-5.24,5.18-5.24,2.22,0,4.43,.05,6.65-.03,1.09-.04,1.54,.16,1.56,1.42,.08,5.25,.14,5.25-5.18,5.25h-1.66Z"/>
  <path class="cls-4" d="M140.56,66.43c1.28-.1,2.66-.17,3.62,1.97,.98,2.17,4.34,1.76,5.34-.54,.55-1.27,1.22-1.58,2.44-1.45,.89,.09,1.81,.11,2.7,0,2.08-.25,2.21,.65,1.72,2.36-1.29,4.56-5.04,7.6-9.64,7.62-4.55,.02-8.46-2.91-9.7-7.27q-.76-2.7,2.06-2.7c.35,0,.69,0,1.47,0Z"/>
  <path class="cls-4" d="M166.66,51.49c0,2.76-2.24,4.99-5.01,4.98-2.76,0-5-2.25-5-5,0-2.74,2.25-4.97,5.01-4.97,2.77,0,4.99,2.23,4.99,4.98Z"/>
</svg>