<?xml version="1.0" encoding="UTF-8"?>
<svg id="Layer_1" data-name="Layer 1" xmlns="http://www.w3.org/2000/svg" viewBox="0 0 200 200">
  <defs>
    <style>
      .cls-1 {
        fill: #6fcded;
      }
    </style>
  </defs>
  <path class="cls-1" d="M144.47,0c.32,0,.64,0,.96,0,.27,.61,.27,.62,.61,.73,5.73,2.01,9.65,6.31,12.2,12.29,2.53,5.93,3.33,12.29,3.47,18.76,.22,9.85-1.22,19.49-3.29,29.02-.28,1.29,.02,1.66,1,1.96,4.45,1.37,8.8,3.08,13.04,5.11,8.12,3.89,15.76,8.58,21.77,16.1,7.7,9.65,7.69,22.4,0,32.04-5.44,6.82-12.27,11.32-19.59,15.03-4.93,2.5-10.02,4.53-15.22,6.18-.7,.22-1.38,.33-1.08,1.62,1.38,5.94,2.32,11.98,2.92,18.09,.74,7.65,.81,15.28-.8,22.79-1.99,9.25-6.03,16.65-14.73,19.6-.22,.08-.73,.14-.28,.65h-10.24l-.3-.27c0,.09-.01,.18-.02,.27h-.96c-.28-.61-.28-.61-.61-.7-4.2-1.13-8.12-3.05-11.89-5.39-7.54-4.7-14.15-10.77-20.36-17.42-.86-.93-1.29-.92-2.13,0-1.9,2.09-3.88,4.1-5.92,6-7.97,7.41-16.32,14.1-26.63,16.87-.23,.06-.74,.12-.3,.64h-.96c.1-.21,0-.3-.17-.32-.22-.03-.41,.04-.47,.32h-8.64c-.1-.08-.2-.17-.3-.25,0,.08-.01,.17-.02,.25h-.96c-.26-.6-.26-.61-.59-.73-5.78-2.05-9.72-6.38-12.27-12.44-2.47-5.89-3.27-12.19-3.42-18.6-.23-9.85,1.22-19.49,3.28-29.02,.31-1.44-.13-1.72-1.12-2.03-4.96-1.54-9.8-3.47-14.49-5.83-7.57-3.8-14.66-8.38-20.28-15.46-7.59-9.56-7.55-22.36,.1-31.91,5.27-6.58,11.82-11.01,18.87-14.66,5.15-2.67,10.48-4.83,15.95-6.55,.68-.21,1.38-.32,1.08-1.62-1.37-5.94-2.32-11.98-2.92-18.09-.75-7.71-.82-15.4,.83-22.97,2-9.17,6.07-16.5,14.69-19.43,.23-.08,.72-.14,.3-.65C54.88,0,55.2,0,55.52,0c.02,.08,.02,.23,.05,.24,.16,.04,.29,0,.27-.24h8.64c.06,.28,.25,.34,.47,.32,.17-.02,.27-.11,.17-.32h.96c-.33,.64,.18,.61,.47,.68,4.87,1.22,9.32,3.58,13.59,6.4,6.92,4.57,13.08,10.26,18.86,16.48,.79,.85,1.22,.87,2.01,0,1.95-2.12,3.97-4.18,6.06-6.12,7.94-7.4,16.28-14.02,26.54-16.81,.22-.06,.74-.1,.32-.64C134.24,0,134.56,0,134.88,0c0,.09,.01,.18,.02,.26,.1-.09,.2-.18,.3-.26,2.99,0,5.97,0,8.96,0-.02,.23,.1,.29,.27,.24,.03,0,.04-.16,.05-.24Zm-44.35,63.89c-5.76-.05-11.51,.09-17.25,.63-.84,.08-1.32,.44-1.78,1.21-6.31,10.55-11.94,21.54-16.95,32.94-.41,.94-.42,1.69,0,2.64,5.01,11.39,10.63,22.39,16.95,32.94,.46,.76,.91,1.18,1.77,1.21,2.02,.07,4.04,.28,6.06,.38,9.43,.47,18.86,.43,28.28-.39,.78-.07,1.23-.41,1.65-1.12,6.33-10.61,12.02-21.63,17.02-33.1,.39-.89,.4-1.57,0-2.47-5-11.47-10.69-22.49-17.02-33.1-.42-.7-.86-1.06-1.65-1.13-5.69-.53-11.39-.7-17.09-.64Zm91.27,35.91c-.11-1.61-.4-3.29-1.06-4.89-1.36-3.28-3.47-5.86-5.92-8.1-8.18-7.51-17.89-11.43-27.8-14.89-.87-.3-1.02,.27-1.19,.9-2.46,8.99-5.59,17.7-9.05,26.26-.26,.66-.27,1.17,0,1.84,3.46,8.56,6.58,17.26,9.04,26.26,.25,.93,.58,1.08,1.48,.78,5.14-1.71,10.18-3.69,15.04-6.23,5.66-2.96,11.06-6.38,15.35-11.62,2.36-2.88,4.04-6.13,4.11-10.3ZM46.92,165.98c-.02,6.48,.85,12.15,2.48,16.28,2.39,6.03,6.19,8.57,12,8.13,2.2-.17,4.32-.72,6.34-1.59,10-4.27,18.04-11.75,25.69-19.86,.65-.68,.16-1-.18-1.42-5.65-6.85-10.78-14.17-15.61-21.76-.43-.67-.87-1.02-1.66-1.1-3.07-.34-6.13-.79-9.18-1.24-5.21-.77-10.38-1.84-15.52-3.09-.69-.17-1.02-.21-1.22,.73-1.77,8.19-2.96,16.48-3.14,24.92Zm-.01-132.27c.19,8.5,1.35,16.55,2.98,24.53,.33,1.59,.92,1.61,2.02,1.32,7.93-2.06,15.99-3.26,24.08-4.22,.79-.09,1.23-.43,1.66-1.11,4.84-7.58,9.95-14.92,15.63-21.74,.57-.69,.57-1.06-.07-1.68-1.73-1.68-3.35-3.51-5.09-5.18-5.84-5.6-11.99-10.68-19.18-13.92-2.32-1.04-4.7-1.86-7.21-2.07-6.54-.53-10.69,2.54-12.89,9.55-1.5,4.79-1.83,9.78-1.93,14.51ZM8.61,99.99c.06,2.6,.78,4.93,2.02,7.07,2.09,3.63,4.95,6.38,8.09,8.78,7.54,5.74,15.96,9.27,24.62,12.18,1.02,.34,1.07-.32,1.25-.97,2.48-8.92,5.55-17.58,9.01-26.07,.3-.73,.28-1.3-.01-2.01-3.47-8.49-6.53-17.15-9-26.08-.24-.86-.48-1.18-1.44-.86-5.24,1.73-10.38,3.76-15.33,6.36-5.6,2.94-10.95,6.37-15.18,11.59-2.31,2.84-3.96,6.05-4.03,10.01Zm144.48,66.27c-.23-8.56-1.31-16.67-3.06-24.69-.28-1.3-.67-1.43-1.67-1.18-7.93,2.03-15.98,3.29-24.06,4.23-1.03,.12-1.6,.57-2.16,1.45-4.75,7.43-9.77,14.62-15.33,21.31-.71,.85-.57,1.23,.11,1.94,2.8,2.95,5.64,5.83,8.68,8.46,5.91,5.12,12.07,9.74,19.41,11.93,8.37,2.49,13.9-.9,16.49-10.14,1.24-4.43,1.48-9.01,1.58-13.32Zm0-132.98c-.08-1.39-.11-3.55-.33-5.68-.42-4.28-1.19-8.48-3.26-12.21-1.96-3.52-4.75-5.5-8.49-5.79-3.48-.27-6.76,.65-9.92,2.1-9.47,4.35-17.16,11.57-24.52,19.32-.63,.66-.22,.99,.14,1.43,5.67,6.9,10.86,14.25,15.7,21.9,.39,.62,.84,.91,1.56,.99,3.07,.34,6.13,.77,9.18,1.22,5.21,.76,10.38,1.83,15.52,3.07,.76,.18,1.06,.15,1.28-.86,1.77-8.14,2.92-16.36,3.14-25.5Zm-41.5,21.01c-3.11-4.63-6.16-8.84-9.38-12.9q-2.2-2.78-4.39-.04c-3.24,4.09-6.34,8.31-9.39,12.92,7.79-.17,15.33-.19,23.16,0Zm-23.15,91.43c3.53,5.35,7.21,10.19,10.97,14.97,.65,.83,.95,.29,1.34-.22,2.01-2.63,4.06-5.22,6.04-7.89,1.61-2.18,3.13-4.43,4.84-6.87-7.87,.21-15.41,.18-23.19,.02Zm-17.8-11.6c-4.28-7.48-7.99-14.9-11.67-22.6-2.41,6.45-4.48,12.67-6.27,19.12,5.82,1.53,11.66,2.63,17.94,3.48Zm-.09-68.09c-2.18-.06-4.05,.43-5.93,.78-3.66,.68-7.3,1.48-10.94,2.25-.54,.11-1.03,.2-.74,1.22,1.77,6.06,3.72,12.04,6.05,18.2,3.65-7.75,7.39-15.11,11.56-22.45Zm58.83,68.1c1.51-.21,2.72-.33,3.92-.57,4.34-.84,8.68-1.71,13.01-2.6,.52-.11,1.07-.19,.77-1.21-1.77-6.07-3.72-12.06-6.06-18.23-3.66,7.77-7.4,15.15-11.65,22.61Zm11.65-45.65c2.34-6.18,4.3-12.17,6.05-18.25,.35-1.21-.42-1.12-.94-1.24-2.75-.63-5.51-1.31-8.28-1.78-2.73-.46-5.45-1.17-8.4-1.22,4.18,7.35,7.92,14.72,11.58,22.48Z"/>
  <path class="cls-1" d="M99.92,80.03c9.91-.03,17.9,8.84,17.94,19.93,.04,11.03-7.98,20.01-17.87,20.01-9.88,0-17.91-9.01-17.86-20.02,.05-11,7.99-19.88,17.79-19.91Z"/>
</svg>