<?xml version="1.0" encoding="UTF-8"?>
<svg id="Layer_1" data-name="Layer 1" xmlns="http://www.w3.org/2000/svg" viewBox="0 0 200 200">
  <defs>
    <style>
      .cls-1 {
        fill: #deedf3;
      }

      .cls-2 {
        fill: #56b0e1;
      }

      .cls-3 {
        fill: #f08872;
      }

      .cls-4 {
        fill: #2d2d2c;
      }

      .cls-5 {
        fill: #fde163;
      }

      .cls-6 {
        fill: #f9b184;
      }

      .cls-7 {
        fill: #89ca91;
      }

      .cls-8 {
        fill: #f1726a;
      }

      .cls-9 {
        fill: #2f7598;
      }

      .cls-10 {
        fill: #ee3526;
      }

      .cls-11 {
        fill: #1e201e;
      }

      .cls-12 {
        fill: #eac1a5;
      }
    </style>
  </defs>
  <path class="cls-4" d="M34.96,37.32c.21-1.02-.16-2.12,.21-3.12,.12,.03,.11-.06,.1-.17,.02-.22,.04-.44,.06-.66,.2-.4,.23-.86,.3-1.32,0-.08,.01-.17,.02-.25,.05-.03,.06-.07,.03-.13,.36-2.19,1.21-4.12,1.82-6.18,.21-.74,.8-1.28,1.1-2.03,.03-.05,.07-.11,.1-.16,.51-.97,1.02-1.94,1.53-2.91,.23-.07,.29-.34,.37-.58,.05-.08,.09-.16,.14-.23l.19-.23c.41-1.19,1.28-1.78,1.91-2.68,.25-.08,.37-.34,.51-.59,2.13-2.4,4.32-4.69,6.84-6.33,.12-.04,.27-.02,.33-.23,.11-.04,.22-.09,.33-.13,.05-.04,.1-.08,.15-.12,2.61-1.93,5.46-2.89,8.34-3.73,1.24-.36,2.5-.47,3.75-.74,.13,.03,.26,.03,.35-.12,.43-.02,.85-.05,1.28-.07,.29,.02,.57,.03,.84-.15,2.86-.12,5.71,.08,8.55,.46,.08,.04,.16,.07,.24,.11,1.91,.43,3.85,.67,5.73,1.35,.1,.04,.21-.02,.32-.03,0,0,.01-.02,.01-.02,1.57,.8,3.22,1.24,4.83,1.87,.27,.2,.54,.42,.87,.4,.17,.23,.38,.31,.65,.37-.02-.58-.17-1.03-.37-1.47-.04-.08-.08-.15-.12-.23,0-.06,0-.1-.04-.14h0c0-.09,0-.17,0-.26-.04-.06-.07-.11-.11-.17-.18-.39-.36-.79-.54-1.18-.04-.07-.08-.14-.11-.2-.85-1.83-1.97-3.41-3-5.29,1.77-.06,3.43-.09,5.06,.35,.3,.08,.59,.07,.88,.1,.11,.05,.22,.1,.33,.16,.39,.06,.75,.36,1.15,.29,.1,.05,.2,.1,.31,.15,3.33,1.33,6.25,3.6,8.72,6.88,.04,.05,.08,.1,.11,.16,0,0,.03,.04,.03,.04,.04,.05,.08,.11,.12,.16,.07,.1,.13,.19,.2,.29,.11,.27,.24,.53,.46,.66h0c.06,.07,.11,.15,.17,.22,1.35,2.36,2.56,4.84,3.48,7.57,.71,2.1,1.15,4.26,1.29,6.58,.16,2.73,.21,5.45,.14,8.17-.05,1.81-.29,3.59-.54,5.36-.33,2.37-.98,4.6-1.67,6.84-.51,1.68-1.3,3.07-2.02,4.55-.14,.28-.06,.6-.22,.83-1.08,.75-1.88,1.92-2.61,3.2-1.18,2.06-2.82,3.17-4.66,3.87-.88,.33-1.71,.9-2.65,.9-.06,0-.11,.22-.17,.33-.56,.39-1.2,.4-1.8,.57-4.25,1.2-8.45,1.01-12.61-.73-1.44-.6-2.8-1.47-4.18-2.27-.49-.47-1.06-.68-1.64-.87-.12-.22-.3-.2-.47-.24-.12-.22-.32-.17-.48-.24-.17-.11-.33-.24-.51-.32-3.27-1.32-6.6-2.09-10.01-1.53-2.57,.42-5.03,1.34-7.12,3.54-.4,.47-.88,.83-1.19,1.42-.66,.91-1.22,1.91-1.66,3.04-.81,1.26-1.66,2.44-2.59,3.55-.65,.77-1.76,1.09-1.81,2.64-.4-.43-.76-.38-1.22-.07-.81,.54-1.69,.92-2.53,1.4-.37,.21-.56,.12-.63-.41-.06-.49-.21-.97-.17-1.49,.02-.32,.05-.68-.3-.75-.02-.14-.04-.27-.06-.41,.52-.97,.02-1.96-.03-2.91-.1-2.24-.13-4.46,0-6.7,.04-.74,.5-1.51,.04-2.27,.1-.56,.2-1.12,.3-1.69-1.39-.12-2.24-1.33-3.02-2.69-.08-.24-.12-.53-.36-.59-.3-.46-.52-.95-.53-1.59-.04-.13-.09-.26-.13-.39,0-.18,0-.38-.14-.49-.11-.51-.23-1.02-.34-1.53-.27-.92-.1-1.91-.23-2.86,0-1.16,.01-2.33,.02-3.49Z"/>
  <path class="cls-4" d="M49.38,199.94c-2.15,.01-4.29,.04-6.44,.04-13.94,0-27.88,0-41.82,0-.3,0-.6-.02-.89-.04-.06-.07-.11-.13-.17-.2-.02-.07-.03-.14-.05-.21l.08-.23c.42-.41,.65-.88,.28-1.55,.03-.07,.06-.15,.09-.22,.03-.07,.06-.14,.1-.21,.54-3.64,1.41-7.16,2.12-10.74,.23-.7,.41-1.42,.48-2.18,.25-.76,.43-1.56,.52-2.39,.16-.19,.14-.44,.12-.68,.17-.8,.33-1.61,.5-2.41,.19-.4,.24-.86,.32-1.32,.52-2.48,1.12-4.94,1.53-7.45,.2-1.22,.58-2.35,.84-3.53,.19-.88,.92-1.49,1.26-2.37,.23-.24,.47-.47,.54-.89,.09-.11,.17-.21,.26-.32,.33-.41,.67-.81,1-1.22,1.32-1.57,2.98-2.24,4.57-3.1,1.92-1.04,3.82-2.14,5.73-3.2,1.04-.57,2.09-1.12,3.13-1.67,.13,.08,.2-.01,.26-.15,1.1-.34,2.06-1.14,3.11-1.64,.05-.04,.11-.08,.16-.12,.33-.18,.66-.36,.99-.54,.1-.04,.19-.09,.29-.13,1.26-.68,2.52-1.36,3.79-2.03,.06-.05,.11-.09,.17-.14,.05-.02,.11-.04,.16-.06,.1,.03,.15-.04,.18-.16,.24-.1,.47-.2,.71-.3,.12,.07,.18-.06,.24-.16h0c.16,.02,.29-.03,.37-.22,2.16-1.16,4.35-2.21,6.46-3.52,1.99-1.24,4.09-2.06,6.07-3.29,.26-.14,.52-.29,.79-.43,.33-.16,.62-.47,1-.46,.13,.36,.33,.07,.49,.1,.25,.05,.37,.26,.12,.49-.95,.84-1.38,2.28-2.18,3.31-.48,.62-1.07,1.13-1.44,1.89-.81,1.68-1.9,3.05-2.9,4.5-1.6,2.34-3.13,4.77-4.76,7.08-.84,1.2-.78,1.3,.26,1.91,1.35,.79,2.78,1.31,4.17,1.96,2.34,1.1,4.76,1.9,7.1,3.03,.49,.24,.55,.51,.19,.98-1.2,1.56-2.4,3.12-3.61,4.67-1.17,1.5-2.35,2.97-3.5,4.49-.32,.41-.38,.85-.03,1.42,1.95,3.15,3.89,6.33,5.79,9.53,2.23,3.74,4.45,7.5,6.61,11.32,.44,.79,1.12,1.53,1.03,2.73-1.8,0-3.59,0-5.39,0-.27-.66-.54-.66-.81,0Z"/>
  <path class="cls-11" d="M39.44,64.94c.35,.07,.32,.43,.3,.75-.04,.52,.11,.99,.17,1.49,.07,.53,.26,.63,.63,.41,.84-.48,1.71-.86,2.53-1.4,.46-.31,.83-.37,1.22,.07,0,.14,0,.29,0,.43-.47,.29-.37,.68-.11,1.11-.02,.29-.03,.58-.05,.87-.47,.3-.35,.7-.1,1.11-.02,.29-.04,.57-.05,.86-.76,.67-.31,1.45-.11,2.21l-.05,.86c-.18,.05-.3,.16-.31,.43-.06,1.77,.01,3.54-.1,5.31-.02,.33-.13,1.08,.39,1.28,.01,.44,.03,.87,.04,1.31-.21,.76-.45,1.52,.12,2.2,.01,.22,.02,.43,.03,.65-.21,.48-.4,.97,.13,1.32,.02,.21,.04,.43,.06,.64-.29,.31-.26,.54,.1,.68,.01,.22,.03,.43,.04,.65-.25,.81,.14,3.98,.57,4.58,.01,.02,.05,.01,.08,.02,.16,.26,.16,.57,.16,.88-.24,.26-.12,.37,.1,.44,.34,1.3,.68,2.6,1.02,3.89,.97,3.6,2.28,6.95,4.08,9.94,.94,1.63,1.89,3.26,3.26,4.27,1.07,.78,2.28,.6,2.97-.33,.59-.11,.98-.61,1.28-1.25,.72-1.58,1.44-3.16,2.14-4.75,1.07-2.43,2.44-4.47,4.31-5.8,3.37-2.4,6.98-2.04,10.57-1.4,1.92,.34,3.52,1.79,5.03,3.36,.65,1.1,1.3,2.2,1.95,3.3,.29,.88,.71,1.65,1.14,2.42,.41,.89,.8,1.8,1.25,2.66,1.34,2.59,3.67,2.88,5.38,.69,.45-.57,.84-1.22,1.26-1.83,.47-.7,.97-1.35,1.3-2.19,.16-.07,.14-.27,.17-.43,.22-.12,.31-.36,.33-.66,.18-.06,.15-.26,.17-.43,.05-.07,.11-.15,.16-.22,.25-.13,.34-.46,.46-.73,2.23-5.09,3.43-10.65,3.9-16.46,.53-6.49,.35-12.99-.41-19.47-.22-1.83-.66-3.11-1.99-3.72-1.57-1.76-2.81-3.91-3.91-6.22-.18-.39-.3-.86-.68-1.03,.06-.12,.11-.33,.17-.33,.94,0,1.77-.56,2.65-.9,1.84-.7,3.47-1.8,4.66-3.87,.74-1.28,1.53-2.45,2.61-3.2,.42,1.26,.57,2.63,.87,3.94-.04,.32-.04,.63,.14,.89,.29,2.77,.53,5.55,.52,8.36,0,1.52-.26,3.02-.19,4.54-.02,.07-.04,.15-.06,.22-.15,.36-.08,.75-.09,1.13-.11,.11-.13,.25-.11,.42-.23,1.54-.47,3.07-.7,4.61-.23,.23-.15,.58-.18,.89-.13,.11-.14,.29-.15,.48-.03,6.18,.16,12.37-.34,18.53-.21,.27-.17,.6-.13,.93-.34,2.19-.67,4.38-1.01,6.58l-.09,.21c-.45,2.3-1.03,4.53-1.7,6.73-.49,1.6-.96,3.2-1.58,4.72-.92,2.24-1.88,4.44-2.98,6.52-.08,.14-.11,.32-.17,.48-.03,.06-.07,.12-.1,.18-.13,.22-.26,.44-.4,.66-.2,.14-.26,.41-.35,.65-.35,.14-.27,.73-.56,.93-.12,.17-.24,.35-.37,.52-.04,.02-.05,.05-.04,.1-.05,.07-.1,.15-.14,.22v.02c-.14,.21-.27,.42-.39,.62-1.96,2.91-4.23,5.32-6.68,7.44-.16-.01-.27,.09-.34,.28-1.65,1.08-3.28,2.21-5.05,2.94-3.16,1.31-6.35,2.16-9.68,1.63-2.57-.41-5.01-1.47-7.43-2.65h0c-.08-.18-.21-.21-.35-.21,0,0-.06-.01-.06-.01-.95-.64-1.9-1.27-2.86-1.91-.56-.45-.97-1.18-1.62-1.45-.92-.84-1.84-1.71-2.69-2.63-1.24-1.35-2.27-3.06-3.36-4.66-.38-.56-.69-1.21-1.02-1.83-.4-.77-.6-1.74-1.27-2.24-.49-1.27-.83-2.65-1.61-3.71-.09-.12-.06-.41-.08-.62-.1-.22-.19-.44-.29-.66-.63-1.1-.79-2.48-1.2-3.71-.79-2.38-1.19-4.93-1.87-7.36-.19-.68-.16-1.4-.24-2.1-.03-.08-.06-.16-.09-.25,0,0,0,.01,0,.01-.02-.14-.03-.28-.05-.42-.02-.15-.03-.3-.05-.45-.03-.08-.05-.16-.08-.24-.01-.44,.02-.89-.18-1.28,0-.38,.08-.77-.12-1.11l-.07-.86c-.06-.58-.12-1.16-.17-1.74-.04-.62-.09-1.23-.12-1.85-.21-3.78-.18-7.58-.12-11.37,.03-2.25-.17-4.42-.72-6.53-.11-.63-.22-1.26-.34-1.89-.48-1.8-.49-3.72-.81-5.57,.05-.52-.24-1-.11-1.54Zm27.4,53.27c.06,.09,.12,.17,.18,.26,.04,.06,.08,.12,.13,.18,1.14,2.15,2.8,2.89,4.67,2.09,1.47-.63,2.24-2.28,3.08-3.82h-.01c.64-1.01,1.25-2.05,1.63-3.3h0c.53-.77,.86-1.72,1.09-2.7,.4-1.7-.05-3.39-1.09-4.35h0c-.4-.63-.96-.9-1.54-1.09-1.2-.39-2.44-.25-3.65-.28-1.71-.04-3.45-.21-5.12,.33-2.06,.66-3.33,3.01-2.43,5.95,.63,2.04,1.39,4.02,2.51,5.69-.02,.04-.02,.08,.01,.11,.13,.37,.29,.73,.56,.96h0Z"/>
  <path class="cls-4" d="M128.72,197.12c.01,.22,.02,.43,.04,.65-.26,.31-.1,.39,.13,.45,.01,.14,.02,.29,.03,.43-.26,.31-.1,.39,.13,.44,.01,.14,.03,.29,.04,.43-.21,0-.33,.13-.34,.42-5.72,0-11.43,0-17.15,0-.04-.11-.07-.29-.13-.31-.17-.05-.18,.15-.2,.31-5.17,0-10.34,0-15.52,0,.01-.36-.04-.75,.04-1.09,.5-2.24,1.19-4.39,1.81-6.57,.72-2.55,1.38-5.15,2.14-7.69,.72-2.39,1.24-4.9,2.01-7.28,.16-.48,.4-1.17-.14-1.56-.71-.51-1.16-1.4-1.78-2-3.08-3-5.95-6.34-8.82-9.5,1.39-1.66,3.16-2.4,4.68-3.77,1.8-1.63,3.73-3.01,5.62-4.47,.55-.42,.48-.61,.02-1.12-1.46-1.62-3.08-2.95-4.56-4.52-2.09-2.22-4.36-4.12-6.43-6.38-.48-.53-.88-1.17-1.51-1.54-.43-.25-.88-.65-1.32-.94-.25-.16-.53-.25-.47-.61,.06-.4,.39,.02,.57-.13,.21-.08,.32,.17,.47,.26,.11,.06,.22,.13,.33,.19h0c.07,.2,.21,.21,.35,.21,.2-.06,.31,.18,.47,.26,.11,.06,.22,.12,.33,.19,.21-.07,.32,.17,.48,.25,.06,.13,.11,.09,.16-.01,1.36,.76,2.7,1.59,4.11,2.22,.85,.38,1.64,1.08,2.5,1.52,2.24,1.15,4.36,2.65,6.63,3.69,.18,.24,.4,.36,.64,.41,2.8,1.6,5.61,3.18,8.4,4.82,2.56,1.5,5.33,2.44,7.5,5.02,.33,.39,.66,.78,.99,1.17,0,.08,.04,.12,.1,.12v.06s.04,.02,.04,.02c.04,.07,.08,.14,.12,.22,1.31,2.07,2.13,4.54,2.51,7.11,.39,2.62,1,5.17,1.3,7.82l.12,.38c.12,.75,.25,1.5,.37,2.26,.04,.13,.08,.26,.12,.39,0,.27-.04,.55,.14,.76,0,0-.02,.07-.02,.07l.05,.05c.03,1.18,.47,2.24,.56,3.4-.08,.16,.01,.26,.08,.36,.55,3.17,1.09,6.33,1.64,9.5,.17,1,.42,1.98,.48,3.01-.25,.33-.22,.56,.14,.66Z"/>
  <path class="cls-11" d="M55.58,199.94c.09-1.2-.59-1.94-1.03-2.73-2.16-3.82-4.38-7.57-6.61-11.32-1.91-3.2-3.84-6.38-5.79-9.53-.35-.57-.29-1.01,.03-1.42,1.15-1.51,2.34-2.99,3.5-4.49,1.21-1.55,2.41-3.11,3.61-4.67,.36-.47,.3-.74-.19-.98-2.34-1.14-4.76-1.93-7.1-3.03-1.39-.66-2.82-1.17-4.17-1.96-1.05-.61-1.11-.71-.26-1.91,1.63-2.31,3.16-4.74,4.76-7.08,.99-1.45,2.09-2.81,2.9-4.5,.37-.76,.96-1.27,1.44-1.89,.8-1.03,1.23-2.47,2.18-3.31,.26-.23,.13-.44-.12-.49-.16-.03-.36,.26-.49-.1,.27-.17,.57-.3,.81-.52,.59-.52,.98-.4,1.18,.55,.97,3.54,1.92,7.08,3.07,10.53-.02,.33,.1,.6,.22,.87,.1,.29,.2,.59,.29,.88,.35,1.98,1.02,3.8,1.56,5.69,1.97,7,4,13.96,6.01,20.93,1.53,5.29,3.07,10.57,4.61,15.85,.3,1.04,.61,2.08,.91,3.12,.02,.35,.13,.63,.3,.88,.05,.4,.13,.7-.37,.69-3.74-.05-7.48-.04-11.22-.06Z"/>
  <path class="cls-11" d="M87.61,140.77c-.18,.15-.51-.27-.57,.13-.06,.37,.22,.45,.47,.61,.44,.29,.9,.7,1.32,.94,.63,.37,1.03,1.01,1.51,1.54,2.07,2.26,4.34,4.16,6.43,6.38,1.49,1.58,3.1,2.91,4.56,4.52,.46,.51,.53,.7-.02,1.12-1.89,1.45-3.82,2.84-5.62,4.47-1.51,1.37-3.28,2.11-4.68,3.77,2.87,3.17,5.74,6.5,8.82,9.5,.61,.6,1.07,1.49,1.78,2,.54,.39,.29,1.08,.14,1.56-.78,2.38-1.3,4.89-2.01,7.28-.76,2.54-1.42,5.14-2.14,7.69-.62,2.18-1.31,4.33-1.81,6.57-.08,.34-.03,.72-.04,1.09-4.08,.01-8.16,.01-12.24,.05-.44,0-.43-.19-.41-.7,.26-5.79,.48-11.58,.73-17.37,.24-5.46,.5-10.92,.76-16.38,.13-2.8,.3-5.6,.37-8.41,.12-5,.4-9.98,.64-14.96,.03-.66,.03-1.31,.04-1.97,0-.37,.02-.73,.39-.41,.5,.42,1.12,.46,1.59,.98Z"/>
  <path class="cls-8" d="M154.9,19.57c.1-.02,.2-.04,.29-.06,.33,0,.68,.1,.99-.17,.33-.02,.66-.04,.98-.06,.54,0,1.08,0,1.62,0l.66,.05c1.11,.35,2.25,.56,3.28,1.28,.02,.13,.08,.19,.18,.17h.02c.05,.38,.27,.27,.45,.26h.01c.1,.47,.35,.51,.65,.43,0,0,0,.01,0,.01,.04,.21,.16,.25,.29,.27,.07,.04,.14,.09,.21,.13,0,0,0,0,0,0,.03,.66,.36,.76,.76,.75,.07,.05,.14,.09,.21,.14,0,0,0,.01,0,.01,.01,.13,.06,.2,.16,.13,0,0,.06,.03,.06,.03,.1,.83,.63,1.03,1.09,1.33v.03c.03,.35,.2,.48,.44,.47,0,0,.02,.03,.02,.03,0,.32,.1,.54,.34,.6h0c.05,.08,.1,.16,.15,.23h0c-.01,.19,0,.37,.18,.4,0,0,0,.02,0,.02,0,.13,.04,.2,.14,.2,0,0,.02,.02,.02,.02,0,.14,.05,.2,.15,.2,0,0,.02,0,.02,0-.07,.36,.03,.58,.29,.68,0,0,0,.02,0,.02-.03,.33-.06,.66,.31,.64l.02,.02c.01,.48,.15,.93,.31,1.34,.94,2.44,1.25,5.05,1.31,7.76,.03,1.17-.28,2.3-.15,3.47,0,.13,.02,.26,.02,.38-.02,.14-.04,.28-.06,.42-.5,2.16-1.3,4.13-2.18,6.03,0,0-.01,.03-.01,.04-.9,1.27-1.83,2.49-2.84,3.6,0,0-.01,.01-.01,.01-1.71,1.5-3.59,2.41-5.56,3.04-1.3,.06-2.61,.12-3.91-.03-.14-.2-.32-.14-.49-.11-.11-.02-.22-.05-.33-.07-.08-.15-.2-.2-.33-.16-.11-.02-.21-.04-.32-.06-.76-.37-1.52-.74-2.28-1.11,0,0,0,0,0,0-.63-.64-1.31-1.18-2.04-1.62,0,0-.03-.02-.03-.02-.07-.26-.2-.43-.4-.51,0,0-.01-.02-.01-.02-.05-.06-.1-.11-.15-.17,0,0-.04-.04-.04-.04-.08-.27-.24-.41-.44-.48-.05-.07-.11-.14-.16-.21-.06-.07-.11-.15-.17-.22,0,0,0,0,0,0-.03-.26-.14-.4-.32-.45-.05-.07-.09-.14-.14-.22-.15-.4-.38-.71-.66-.95,0-.06,0-.1-.05-.13-.48-1.42-1.37-2.55-1.64-4.13,.08-.45-.02-.87-.14-1.27-.58-1.96-.71-4.01-.63-6.07,.04-1.08,.21-2.15,.12-3.24h0c.38-.71,.71-1.45,.54-2.39,0-.14,.02-.28,.03-.42,.04,0,.08-.02,.12-.04,.33-.03,.32-.34,.29-.66v-.02c.35-.15,.38-.47,.3-.88v-.03c.12,0,.16-.07,.14-.22v-.04c.35-.1,.36-.45,.37-.81h0c.16-.07,.19-.24,.18-.43,0,0,0,0,0,0,.58-.13,.69-.75,.79-1.38,.18-.33,.36-.67,.54-1,0,0,0,0,0,0,.49-.44,.9-.97,1.28-1.57,0,0,0,0,0,0,1.44-1.24,2.95-2.31,4.58-3.05,.11-.03,.22-.05,.33-.08,.06-.04,.12-.09,.18-.13Z"/>
  <path class="cls-11" d="M155.86,53.95c1.3,.15,2.61,.09,3.91,.03,.01,.15,.02,.29,.03,.44,0,4.53,0,9.06,0,13.59-.02,.14,0,.24,.13,.2,3.45,.01,6.9,.03,10.35,.04,3.18,0,6.36,0,9.54,0,2.15,0,4.31-.11,6.42,.64,.05,.04,.1,.09,.15,.13,.1,.03,.21,.07,.31,.1,.03,.12,.08,.19,.19,.15,.06,.02,.11,.03,.17,.05,.05,.05,.1,.1,.15,.15,1.15,.57,2.03,1.65,2.93,2.71,.16,.22,.32,.43,.48,.65,1.45,2.49,2.34,5.26,2.34,8.47,0,3.24,.02,6.49,.03,9.73,0,.29,0,.57,0,.86,0,.15,0,.29,0,.44-.05,.69-.4,.4-.67,.37-1.1-.33-2.2-.1-3.3,0,0-.06,0-.11-.04-.15,0-3.8,.05-7.6,0-11.4-.02-1.48-.43-2.87-1.01-4.15-.07-.34-.24-.56-.46-.73-.57-1.19-1.51-1.62-2.41-2.14-.03-.12-.08-.2-.18-.16-1.19-.51-2.41-.2-3.61-.26-.08-.03-.15-.09-.23-.09-6.96-.01-13.92-.02-20.88-.03-.19,0-.4-.06-.4,.33,0,5.33,0,10.67,0,16,0,.15,0,.3,0,.44v.88c0,.14,0,.29,0,.43,0,.15,0,.29,0,.44,0,.19,0,.39-.01,.58-1.31-.17-2.62-.28-3.93,.03-.01-.13-.02-.26-.03-.4v-.43c0-.29,0-.59,0-.88v-1.09c0-.15,0-.29,0-.44,.01-5.29,.09-10.57-.04-15.85-.15-.21-.35-.14-.54-.14-7.46,0-14.93,0-22.39,.02-.26,0-.54-.12-.79,.12-.64,.06-1.27,.17-1.86,.57-.11-.04-.14,.05-.17,.16-2.17,1.27-3.34,3.56-3.42,6.66-.07,2.95-.15,5.92,.06,8.88,.05,.76-.1,1.61-.06,2.43-.02,.14-.03,.27-.05,.41-1.33-.32-2.67-.25-4-.02,0-.2-.02-.41-.03-.61,.01-2.21,.05-4.41-.05-6.62-.06-1.29,.12-2.66,.06-3.97-.09-2.15,.44-4.01,1.06-5.91,1.33-4.12,3.87-6.08,6.91-7.14,.64-.22,1.34-.22,2.02-.22,4.43-.02,8.86,0,13.3-.01,3.15,0,6.31-.02,9.46,0,.4,0,.56-.08,.56-.69-.03-4.46-.03-8.91-.04-13.37,.01-.08,.03-.17,.04-.25Z"/>
  <path class="cls-10" d="M79.23,184.09c.02,.1,.04,.2,.05,.3,.14,1.72,.45,3.4,.72,5.08,.04,.35,.07,.7,.11,1.06,.31,2.43,.62,4.87,1.09,7.26,.02,.14,.03,.28,.05,.41-.1,.6,.12,1.16,.13,1.75,0,0-.01,.02-.01,.02-4.02,0-8.04,0-12.06,0,0,0,0-.01,0-.01,.14-2.53,.31-5.07,.43-7.6,.08-1.92,.34-3.83,.21-5.76,.08-.35,.15-.69,.1-1.06,.1-.44,.09-.89,.05-1.35,.02-.36,.05-.71,.07-1.07,.14-.44,.1-.89,.07-1.34,.03-.58,.06-1.16,.09-1.74,.16-1.68,.31-3.37,.27-5.07,.02-.21,.04-.42,.06-.63,.17-2.01,.33-4.02,.29-6.04,.18-.16,.03-.3-.02-.45-.51-1.43-1.12-2.78-1.81-4.07-.26-.5-.3-1.24-.84-1.45l-.02-.03-.15-1.4s0,0,0,0c.38-.12,.65-.36,.6-.97,0-.07,.04-.12,.08-.15,.55-.23,.83-.77,.95-1.5h0c.51-.65,1.29-1.02,1.32-2.19,0,0-.01,.02-.01,.02,.06-.08,.12-.17,.18-.25l-.03,.02c.35-.24,.69-.48,.67-1.11h0c.22-.03,.34-.17,.3-.48v.05c.12-.03,.18-.12,.19-.26h-.04c.13,.02,.19-.05,.17-.23h-.02c.32,.02,.41-.36,.52-.6,.41-.87,.89-1.18,1.55-.48l.02,.03c-.02,.15,.03,.23,.14,.26v-.03c-.03,.33,.04,.59,.31,.68,.59,.71,.89,1.77,1.6,2.32,.04,.05,.07,.1,.11,.14,.73,1.31,1.48,2.58,2.32,3.75v-.06s0,.06,0,.06c.07,.43,.34,.65,.54,.94,.27,.37,.3,.73,.1,1.15-.04,.09-.07,.18-.11,.26-.25,.3-.37,.69-.46,1.11l-.04,.03s0,.06,0,.06c-.67,1.63-1.35,3.27-2.01,4.91-.06,.14-.05,.35-.03,.52,.66,4.67,1.33,9.34,2,14.01,.04,.28,.07,.57,.11,.85,.03,.11,.05,.23,.08,.34Z"/>
  <path class="cls-2" d="M155.85,92.73c1.31-.31,2.62-.2,3.93-.03,.1,.04,.2,.07,.3,.11,.13,.21,.32,.17,.5,.2,4.9,2.42,6.84,8.43,6.07,13.99-.92,6.6-6.06,11.05-10.92,9.46-1.32-.43-2.44-1.39-3.6-2.24,0,0,0,0,0,0-.82-1.17-1.61-2.38-2.31-3.69,0,0,0,0,0,0-.14-.51-.29-1.02-.43-1.53-1.12-4.01-.75-7.77,1.01-11.32,1.31-2.65,3.22-4.12,5.45-4.94Z"/>
  <path class="cls-7" d="M122.57,92.73c1.33-.23,2.67-.3,4,.02,1.37,.6,2.71,1.26,3.81,2.56,2.25,2.64,3.27,6,3.28,9.97,0,.22-.01,.44-.02,.65-.05,.17-.12,.33-.14,.5-.52,4.74-3.18,8.67-6.59,9.89-2.14,.77-4.18,.36-6.18-.73-.12-.21-.3-.25-.48-.27-.66-.65-1.31-1.3-1.97-1.95,0,0,0,0,0,0-.25-.42-.48-.87-.75-1.26-.99-1.46-1.35-3.33-1.86-5.1-.03-.44-.06-.87-.09-1.31,0-.15-.02-.3-.03-.45,.03-.95,.07-1.9,.1-2.85,.47-2.12,1.09-4.15,2.13-5.9,.26-.09,.43-.31,.5-.66,1.26-1.44,2.68-2.49,4.27-3.12Z"/>
  <path class="cls-3" d="M60.58,132.87s.06,.01,.06,.01c.07,.21,.21,.22,.35,.21,0,0,0,0,0,0,.13,.71,.61,.76,1.01,.91,1.48,.56,2.96,1.11,4.47,1.57,2.55,.77,5.09,.77,7.65,.18,2.54-.58,4.98-1.61,7.32-3.04,.61-.37,.79-.09,.83,.66-.17,.43-.46,.76-.53,1.27-.06,.13-.13,.27-.19,.4-1.16,2.29-2.27,4.62-3.26,7.04,0,0,0,0,0,0-.05,.08-.1,.15-.15,.23-.03,.04-.05,.09-.03,.14-.49,.73-.85,1.57-1.14,2.47,0,0,0,0,0,0-.04,.08-.09,.16-.13,.24-.07,.13-.13,.26-.2,.39-.13,.23-.26,.46-.38,.7-.71,1.5-1.43,3.01-2.13,4.52-.24,.51-.39,.6-.77,.09-1.29-1.72-2.63-3.37-3.99-5-1.11-1.33-2.09-2.86-3.32-4.01,0,0,0,0,0,0-.78-1.23-1.63-2.37-2.62-3.3-.05-.07-.09-.14-.14-.21-.75-1.13-1.56-2.19-2.47-3.1,0-.07-.04-.13-.08-.17-.03-.05-.07-.1-.1-.14,0,0-.04-.04-.03-.04-.38-.51-.77-1.01-1.15-1.52-.02-.19-.13-.24-.25-.26l-.03-.03c-.03-.64,.24-.75,.59-.51,.26,.18,.5,.38,.81,.31Z"/>
  <path class="cls-3" d="M35.16,84.22c0-.51,0-1.02,.01-1.53,.54-3.66,1.85-6.58,4.43-8.28,.09-.03,.19-.06,.28-.09,.37,0,.59,.08,.76,.68,.36,1.27,.57,2.54,.59,3.9,.05,4.29-.18,8.59,.14,12.88,.04,.6,.13,1.24-.14,1.81-.12-.04-.25-.09-.37-.13-.01-.13-.04-.16-.1-.03-.11-.04-.21-.07-.32-.11-.11-.32-.31-.34-.53-.28-.93-.4-1.68-1.18-2.37-2.06-1.44-1.84-2.12-4.17-2.37-6.77Z"/>
  <path class="cls-1" d="M67.18,163.14c-.59,1.67-1.2,3.33-1.78,5-.28,.82-.51,1.67-.8,2.48-.21,.58-.44,.77-.77,.03-1.27-2.88-2.57-5.73-3.86-8.59-1.22-2.7-2.43-5.39-3.65-8.08-.73-1.63-1.37-3.33-2.21-4.87-.25-1.15-.87-2.01-1.33-3-.17-.37-.36-.72-.15-1.17,.79,.66,1.14,1.83,1.67,2.77,1.71,3.04,3.32,6.17,5.01,9.23,1.39,2.53,2.8,5.06,4.09,7.68,.24,.48,.55,.86,.75,1.41,.29,.8,.57,.06,.77-.22,.71-1.02,1.4-2.07,2.1-3.12,0,.18,.03,.35,.16,.44Z"/>
  <path class="cls-1" d="M79.57,162.27c.04-.09,.07-.18,.11-.26,.21,.08,.38-.07,.56-.18,.73,1.36,1.7,2.42,2.55,3.62,.52,.73,.02,.82-.19,.93-.37,.2-.72,0-1.02-.42-.6-.88-1.23-1.73-1.84-2.59-.15-.34-.16-.72-.18-1.1Z"/>
  <path class="cls-9" d="M132.07,73.63c.25-.23,.53-.12,.79-.12,7.46-.01,14.93-.02,22.39-.02,.18,0,.38-.07,.54,.14-7.91,0-15.81,0-23.71,0Z"/>
  <path class="cls-12" d="M41.66,93.67c-.15-.02-.3-.05-.45-.07,.27-.57,.19-1.22,.14-1.81-.32-4.29-.08-8.59-.14-12.88-.02-1.36-.23-2.63-.59-3.9-.17-.6-.39-.68-.76-.68,.01-.06,.02-.12,.03-.19,.26-.07,.53-.14,.79-.21,.55,2.12,.75,4.28,.72,6.53-.05,3.79-.08,7.58,.12,11.37,.03,.62,.08,1.23,.12,1.85Z"/>
  <path class="cls-11" d="M39.39,52.64c.47,.76,0,1.53-.04,2.27-.13,2.24-.11,4.46,0,6.7,.04,.95,.55,1.94,.03,2.91-.04,0-.08-.02-.12-.03-.19-2.55-.44-5.1-.33-7.68,.18-.17,.09-.41,.09-.63,.17-1.17-.07-2.42,.38-3.54Z"/>
  <path class="cls-3" d="M170.68,34.07c.06,2.14,.25,4.28-.27,6.38-.13-1.17,.18-2.3,.15-3.47-.06-2.71-.38-5.32-1.31-7.76-.16-.42-.29-.86-.31-1.34,.09,.09,.18,.18,.27,.27,0,0,0,0,0,0,.07,.49,.26,.91,.46,1.31,.08,.21,.16,.42,.24,.63-.01,.18,0,.34,.12,.46,.02,.14,.04,.29,.06,.43-.02,.18,0,.33,.13,.43,.01,.07,.03,.14,.04,.21-.02,.17-.02,.34,.11,.46,.02,.14,.05,.28,.07,.42-.02,.17-.01,.33,.1,.45,.02,.15,.04,.3,.06,.44-.02,.24-.06,.48,.1,.67v.02Z"/>
  <path class="cls-4" d="M70.95,168.3c-.19-.44-.35-.91-.64-1.25-.06-.14-.13-.27-.19-.41-.03-.09-.06-.17-.09-.26,0,0-.03-.05-.03-.05-.12-.57-.35-1.04-.68-1.44,0,0-.01-.02-.01-.02-.08-.57-.38-.97-.62-1.41-.05-.12-.1-.25-.14-.37-.08-.25-.17-.5-.25-.75,.54,.21,.57,.96,.84,1.45,.69,1.29,1.3,2.64,1.81,4.07,.05,.14,.2,.28,.02,.45Z"/>
  <path class="cls-3" d="M145.86,43.28c-.45-.79-.45-1.82-.78-2.67-.02-.15-.03-.3-.05-.44,.01-.3,.06-.61-.1-.88-.02-.37-.04-.73-.06-1.1,0-1.02,0-2.04,0-3.06,.02-.36,.04-.73,.07-1.09,.14-.27,.11-.58,.1-.88,.02-.15,.04-.3,.06-.44,.04,0,.09-.02,.13-.03,.09,1.09-.08,2.16-.12,3.24-.08,2.07,.05,4.12,.63,6.07,.12,.4,.22,.82,.14,1.27Z"/>
  <path class="cls-4" d="M69.02,159.26c.25-.33,.49-.65,.74-.98-.12,.73-.4,1.27-.95,1.5,.03-.1,.07-.2,.1-.3,.04-.07,.08-.15,.11-.22Z"/>
  <path class="cls-1" d="M52.48,144.51c-.64-.27-.89-.92-.97-1.75,.46,.45,.77,1.04,.97,1.75Z"/>
  <path class="cls-3" d="M166.83,24.3c-.46-.3-.99-.5-1.09-1.33,.11,.04,.22,.09,.33,.13,.25,.4,.5,.8,.76,1.2Z"/>
  <path class="cls-11" d="M.36,197.76c.36,.67,.13,1.14-.28,1.55,.09-.52,.19-1.03,.28-1.55Z"/>
  <path class="cls-3" d="M147.37,26.18c.2-.26,.4-.52,.61-.78-.1,.63-.21,1.25-.79,1.38,.02-.13,.04-.27,.05-.4,.04-.07,.09-.13,.13-.2Z"/>
  <path class="cls-11" d="M49.38,199.94c.27-.66,.54-.66,.81,0-.27,0-.54,0-.81,0Z"/>
  <path class="cls-3" d="M165.31,22.65c-.4,.02-.73-.09-.76-.75,.04-.02,.09-.04,.13-.04,.05,.03,.1,.06,.15,.09,.16,.15,.33,.31,.49,.46,0,.06,.01,.12,.02,.18l-.04,.06Z"/>
  <path class="cls-11" d="M128.74,199.94c0-.29,.14-.42,.34-.42,.1,.06,.18,.18,.12,.31-.11,.27-.3,.11-.46,.11Z"/>
  <path class="cls-3" d="M163.39,21.06c.21,.08,.42,.16,.63,.24,.01,.06,.02,.12,.02,.18-.3,.09-.55,.04-.65-.42Z"/>
  <path class="cls-11" d="M128.72,197.12c-.36-.1-.39-.32-.14-.66,.15,.18,.18,.41,.14,.66Z"/>
  <path class="cls-1" d="M51.5,142.74c-.34,0-.33-.32-.31-.64,.21,.11,.32,.33,.31,.64Z"/>
  <path class="cls-11" d="M128.88,198.21c-.23-.05-.39-.14-.13-.45,.15,.09,.15,.26,.13,.45Z"/>
  <path class="cls-3" d="M145.89,29.62c.1-.14,.2-.28,.31-.42,.03,.32,.04,.63-.29,.66,0-.08-.01-.16-.02-.23Z"/>
  <path class="cls-3" d="M168.58,26.81c.01,.13,.02,.26,.03,.39-.26-.1-.36-.32-.29-.68,.05,0,.1,.02,.15,.05,.04,.08,.08,.16,.11,.24h0Z"/>
  <path class="cls-11" d="M129.05,199.09c-.23-.05-.39-.14-.13-.44,.14,.1,.16,.26,.13,.44Z"/>
  <path class="cls-11" d="M111.27,199.94c.02-.16,.03-.36,.2-.31,.06,.02,.09,.2,.13,.31-.11,0-.22,0-.32,0Z"/>
  <path class="cls-3" d="M167.57,25.06c.02,.13,.05,.25,.07,.38-.25-.07-.35-.28-.34-.6,.09,.08,.18,.15,.27,.23Z"/>
  <path class="cls-3" d="M166.83,24.33c.09,.03,.19,.05,.28,.08,.05,.13,.11,.26,.16,.39-.24,0-.41-.12-.44-.47Z"/>
  <path class="cls-3" d="M167.79,25.68s.09,0,.14,.02c.01,.13,.03,.25,.04,.38-.18-.03-.2-.2-.18-.4Z"/>
  <path class="cls-11" d="M88.41,141.22c-.11-.06-.22-.13-.33-.19,.15-.05,.24,.06,.33,.19Z"/>
  <path class="cls-3" d="M164.34,21.77c-.13-.02-.26-.06-.29-.27,.1,.01,.2,.02,.3,.04,0,.06,.02,.11,.03,.17l-.04,.07Z"/>
  <path class="cls-11" d="M88.75,141.43c-.14,0-.27-.01-.35-.21,.14,0,.28-.01,.35,.21Z"/>
  <path class="cls-11" d="M89.56,141.87c-.11-.06-.22-.12-.33-.19,.14-.05,.25,.03,.33,.19Z"/>
  <path class="cls-1" d="M51.17,142.08c-.05-.07-.1-.15-.15-.22,.05,.07,.1,.15,.15,.22Z"/>
  <path class="cls-11" d="M90.21,142.11c-.05,.11-.1,.14-.16,.01,.05,0,.11,0,.16-.01Z"/>
  <path class="cls-11" d="M.55,197.33c-.03,.07-.06,.14-.1,.21,.03-.07,.06-.14,.1-.21Z"/>
  <path class="cls-11" d="M.05,199.97c0-.08,0-.15,0-.23,.06,.07,.11,.13,.17,.2-.06,0-.11,.02-.17,.03Z"/>
  <path class="cls-3" d="M168.3,26.51c-.1,0-.15-.07-.15-.2,.05,.07,.1,.13,.15,.2Z"/>
  <path class="cls-3" d="M168.13,26.29c-.1,0-.15-.06-.14-.2,.05,.07,.1,.13,.14,.2Z"/>
  <path class="cls-3" d="M165.69,22.94c-.1,.06-.15,0-.16-.13,.06,.04,.11,.09,.16,.13Z"/>
  <path class="cls-3" d="M165.52,22.79c-.07-.05-.14-.09-.21-.14,0,0,.04-.06,.04-.06,0,0,.07,0,.07,0h.07c.02,.06,.03,.12,.03,.19Z"/>
  <path class="cls-3" d="M164.54,21.9c-.07-.04-.14-.09-.21-.13,0,0,.04-.07,.04-.07,.04,0,.09,0,.13-.02,.01,.07,.02,.14,.04,.22Z"/>
  <path class="cls-12" d="M90.37,57.67c.38,.16,.49,.64,.68,1.03,1.1,2.3,2.33,4.45,3.91,6.22,0,0-.03,.04-.03,.04-.31,.02-.63-.01-.85-.3-.65-.84-1.37-1.73-1.81-2.68-.54-1.17-1.42-2.07-1.7-3.47-.06-.28-.23-.4-.45-.28-1.28,.67-2.61,.86-3.98,.82-.3,0-.75,.11-.73,.63,.02,.43,.44,.47,.74,.43,1.57-.19,2.53,1.3,3.62,2.41,.54,.55,.33,1.57,.62,2.3,.05,.12-1.55,.95-1.74,.92-1.15-.15-2.03-1.18-3.07-1.69-.97-.48-1.78-.5-2.72-.03-.68,.34-1.21,.92-1.79,1.43-.74,.65-1.39,.52-1.78-.32,.77,.49,1.37,.1,1.99-.56,1.09-1.16,2.33-1.58,3.74-1.24,1.18,.29,2.17,1.06,3.18,1.83,.58,.44,1.28,.21,1.56-.52,.27-.72,.19-1.39-.31-1.94-.61-.67-1.31-1.13-2.02-1.57-2.76-1.67-6.01-1.04-8.03,1.54-.54,.68-.62,1.38-.26,2.21-.28,.1-.47,.05-.52-.41-.08-.7,.53-2.72,1-2.96,.89-.46,1.62-1.37,2.62-1.52,.22-.03,.54,.05,.81-.41-.43-.12-.76-.3-1.09-.3-2.1,.03-4.11-.62-6.13-1.35-1.34-.48-2.52-1.47-3.83-2-.25-.1-.22-.37-.25-.61l.04-.05c1.38,.8,2.74,1.67,4.18,2.27,4.16,1.73,8.36,1.93,12.61,.73,.6-.17,1.24-.18,1.8-.57Z"/>
  <path class="cls-12" d="M43.97,70.63c.02-.29,.04-.57,.05-.86,.15-.35,.13-.73,.1-1.11,.02-.29,.03-.58,.05-.87,.17-.34,.14-.73,.11-1.11,0-.14,0-.29,0-.43,.04-1.55,1.15-1.86,1.81-2.64,.93-1.11,1.78-2.3,2.59-3.55,0,0,.05,.06,.05,.06-.04,.39,.12,1.01-.12,1.14-.85,.48-1.18,1.64-1.89,2.3-.93,.87-1.92,1.77-2.08,3.52-.25,2.69-.42,5.38-.49,8.09-.16,5.37,.15,10.7,.99,15.96,.22,1.39,.77,2.68,.94,4.1,.32,2.71,1.1,5.15,2.31,7.34,.61,1.1,.75,2.54,1.47,3.56,.34,.47,.61,1.03,.51,1.75l-.03,.04c-1.8-2.99-3.11-6.34-4.08-9.94-.35-1.29-.68-2.6-1.02-3.89,.03-.17,0-.33-.1-.44,0-.31,0-.62-.16-.88-.09-1.57-.4-3.08-.65-4.6-.01-.22-.03-.43-.04-.65,.02-.24,.05-.48-.1-.68-.02-.21-.04-.43-.06-.64,.02-.45,.06-.91-.13-1.32-.01-.22-.02-.43-.03-.65,.03-.74,.04-1.48-.12-2.2-.01-.44-.03-.87-.04-1.31,0-2.34,0-4.68,.01-7.02,.02-.29,.03-.58,.05-.86,.18-.72,.13-1.47,.11-2.21Z"/>
  <path class="cls-12" d="M51.54,55.6c2.09-2.2,4.55-3.12,7.12-3.54,3.42-.57,6.75,.2,10.01,1.53,.18,.07,.34,.21,.51,.32,0,0-.05,.08-.05,.08-.3,0-.58-.05-.88-.14-1.6-.49-3.15-1.23-4.84-1.24-1.02,0-2.05-.1-3.08-.14-2.96-.11-5.59,1.01-8.07,3-.19,.16-.37,.28-.6,.27-.05-.05-.09-.1-.14-.14Z"/>
  <path class="cls-12" d="M48.68,60.06c.44-1.13,1-2.13,1.66-3.04,0,0,.03,.04,.03,.04-.02,1.53-.82,2.31-1.64,3.07l-.05-.06Z"/>
  <path class="cls-12" d="M70.14,54.38c.57,.19,1.14,.4,1.64,.87,0,0-.04,.05-.04,.05-.57-.22-1.43,.56-1.63-.88l.03-.05Z"/>
  <path class="cls-12" d="M50.34,57.02c.32-.6,.8-.95,1.19-1.42,.05,.05,.09,.1,.14,.14-.27,.74-.53,1.48-1.31,1.32l-.03-.04Z"/>
  <path class="cls-12" d="M69.67,54.14c.17,.04,.35,.02,.47,.24,0,0-.03,.05-.03,.05-.18-.01-.37,.04-.48-.23l.04-.06Z"/>
  <path class="cls-12" d="M69.19,53.9c.16,.07,.36,.02,.48,.24,0,0-.04,.06-.04,.06-.18,0-.37,.05-.49-.22l.05-.08Z"/>
  <path class="cls-6" d="M67.14,118.65c-.04-.06-.08-.12-.13-.18-.06-.09-.12-.17-.18-.26,0,0,0,.01,0,.01-.1-.4,.56-1.61-.56-.96-.03-.03-.03-.07-.01-.11,.19-.47,.02-.93-.17-1.21-.98-1.47-1.57-3.21-2.03-5.05-.12-.5-.4-.91-.29-1.53,.3-1.78,1.62-3.57,2.97-3.61,2.57-.08,5.14-.38,7.71-.04,.2,.03,.36,.11,.52,.26,.46,.43,.99,.55,1.53,.6,0,0,0-.01,0-.01-.09,.67,.29,1.06,.52,1.52,.57,1.14,.6,2.33,0,3.4-.38,.68-.47,1.39-.53,2.15,0,0,0-.01,0-.01-.99,.71-1.42,1.92-1.63,3.32,0,0,.01-.01,.01-.01-.4-.07-.56,.38-.78,.67-.45,.56-.81,1.22-1.2,1.84-1.14,1.8-3.72,1.65-4.91-.12-.23-.35-.42-.79-.85-.65Zm6.37-6.87l-.02,.02c.12,0,.18-.09,.16-.26h-.02c.23,0,.24-.18,.19-.41v.02c.2-.03,.2-.22,.19-.43v.02c.1-.04,.14-.13,.14-.28h-.02c.68,0,.75-.58,.68-1.29l-.02,.02c.49-.26,.43-.55,.03-.86v-.09c-.02-.34,.11-.82-.39-.64v-.04c.01-.55-.29-.54-.56-.54-2.16,0-4.33,0-6.49,0-.24,0-.61-.08-.46,.55h-.01c-.24-.07-.23,.15-.23,.36h.01c-.61,.13-.31,.76-.34,1.19-.03,.33,.09,.57,.39,.39l.02,.09c-.15,.86,.11,1.38,.74,1.58h0c0,.2,.01,.39,.21,.42v-.02c.01,.75-.08,1.6,.79,1.58h.07s.07,0,.07,0c.18,1.19,.77,2.07,1.37,2.86,.35,.46,.95,.5,1.34-.21,.45-.81,.9-1.62,1.35-2.43,.31,.15,.13-.14,.14-.27v.02c.21-.02,.22-.22,.18-.44h-.01c.39,.06,.38-.28,.35-.64v.02c.1-.03,.15-.12,.15-.27Z"/>
  <path class="cls-3" d="M100.65,74.37c.78-.22,1.28,.64,1.94,.91,1.55,1.77,2.69,3.86,3.07,6.61,.78,5.7-2.36,10.9-5.49,11.48,.49-6.16,.31-12.35,.34-18.53,0-.19,.02-.36,.15-.48Z"/>
  <path class="cls-12" d="M79.9,102.01c-1.51-1.57-3.1-3.02-5.03-3.36-3.59-.63-7.2-1-10.57,1.4-1.87,1.33-3.24,3.38-4.31,5.8-.7,1.59-1.42,3.18-2.14,4.75-.29,.64-.69,1.14-1.28,1.25,0,0-.02-.03-.02-.03,.83-1.03,1.38-2.36,1.91-3.65,.48-1.15,1.04-2.3,1.6-3.31,.55-.99,.28-3.03,1.78-2.99,.04,0,.07-.1,.11-.15,.8-.97,1.58-1.89,2.64-2.48,1.52-.85,3.07-1.44,4.68-1.39,2.14,.07,4.32-.58,6.44,.55,.52,.28,1.21,.03,1.64,.72,.32,.51,.75,.64,1.16,.91,.61,.4,1.48,.57,1.42,1.91l-.03,.04Z"/>
  <path class="cls-12" d="M94.95,64.92c1.33,.6,1.78,1.88,1.99,3.72,.76,6.48,.94,12.98,.41,19.47-.47,5.81-1.67,11.37-3.9,16.46-.12,.28-.21,.6-.46,.73l-.03-.04c.04-.35-.01-.69,.15-1.04,.7-1.52,1.37-3.08,1.84-4.74,.38-1.33,.72-2.69,1.02-4.07,.5-2.3,.78-4.65,1.04-6.99,.39-3.41,.49-6.87,.34-10.32-.08-1.88-.02-3.78-.32-5.63-.16-.97-.26-1.96-.5-2.92-.15-.6-.28-1.5-.15-2.29,.08-.5,0-1-.5-.99-.67,0-.88-.55-.96-1.3l.03-.04Z"/>
  <path class="cls-12" d="M76.51,106.56c-.54-.05-1.07-.17-1.53-.6-.16-.15-.33-.23-.52-.26-2.57-.34-5.14-.04-7.71,.04-1.35,.04-2.67,1.83-2.97,3.61-.1,.62,.17,1.03,.29,1.53,.46,1.84,1.04,3.58,2.03,5.05,.19,.28,.36,.75,.17,1.21-1.12-1.67-1.88-3.65-2.51-5.69-.9-2.93,.37-5.28,2.43-5.95,1.67-.54,3.41-.37,5.12-.33,1.22,.03,2.45-.11,3.65,.28,.58,.19,1.14,.45,1.54,1.1Z"/>
  <path class="cls-6" d="M83.14,131.18c-.08,.89-.57,1.48-.89,2.2-.04-.75-.22-1.03-.83-.66-2.34,1.42-4.78,2.46-7.32,3.04-2.56,.58-5.1,.59-7.65-.18-1.51-.45-2.98-1.01-4.47-1.57-.39-.15-.88-.2-1.01-.91,2.42,1.18,4.85,2.24,7.43,2.65,3.33,.53,6.53-.32,9.68-1.63,1.77-.73,3.4-1.86,5.05-2.94Z"/>
  <path class="cls-12" d="M90.87,109.24c-.42,.61-.82,1.26-1.26,1.83-1.71,2.2-4.04,1.9-5.38-.69-.45-.86-.83-1.77-1.25-2.66,0,0,.04-.06,.04-.06,.5,.42,1.05,1.03,1.17,1.64,.32,1.57,1.34,1.95,2.15,2.54,1.06,.77,2.92-.3,3.49-1.8,.24-.62,.51-.89,1-.85,0,0,.03,.03,.03,.03Z"/>
  <path class="cls-12" d="M67.14,118.65c.43-.13,.62,.31,.85,.65,1.18,1.77,3.77,1.93,4.91,.12,.39-.62,.75-1.28,1.2-1.84,.23-.29,.38-.74,.78-.67-.84,1.54-1.6,3.19-3.08,3.82-1.86,.8-3.53,.06-4.67-2.09Z"/>
  <path class="cls-12" d="M56.57,111.86c-.69,.93-1.91,1.11-2.97,.33-1.38-1.01-2.32-2.64-3.26-4.27,0,0,.03-.04,.03-.04,.56,.04,.89,.46,1.21,1.07,.72,1.37,1.45,2.64,2.81,3.14,.83,.3,1.44-.31,2.16-.26l.02,.03Z"/>
  <path class="cls-12" d="M76.49,113.62c.07-.77,.15-1.47,.53-2.15,.59-1.06,.57-2.25,0-3.4-.23-.46-.61-.85-.52-1.52,1.03,.96,1.48,2.65,1.09,4.35-.23,.99-.56,1.93-1.09,2.71Z"/>
  <path class="cls-4" d="M43.81,73.7c0,2.34,0,4.68-.01,7.02-.52-.2-.41-.95-.39-1.28,.11-1.77,.04-3.54,.1-5.31,0-.26,.13-.38,.31-.43Z"/>
  <path class="cls-12" d="M81.85,105.3c-.65-1.1-1.3-2.2-1.95-3.3,0,0,.03-.04,.03-.04,1.22,.43,1.82,1.43,1.96,3.29l-.04,.05Z"/>
  <path class="cls-6" d="M59.18,133.07c-.5-.69-1.19-1.14-1.46-2.11,.95,.64,1.9,1.27,2.86,1.91-.31,.07-.54-.13-.81-.31-.35-.24-.62-.14-.59,.51Z"/>
  <path class="cls-4" d="M44.33,88.16c.25,1.53,.56,3.04,.65,4.6-.03,0-.06,0-.08-.02-.43-.6-.82-3.77-.57-4.58Z"/>
  <path class="cls-12" d="M74.87,116.92c.21-1.4,.64-2.6,1.63-3.32-.38,1.25-.99,2.29-1.63,3.32Z"/>
  <path class="cls-12" d="M92.18,107.04c-.33,.84-.84,1.5-1.3,2.19,0,0-.03-.03-.03-.03,.1-1.1,.55-1.81,1.31-2.19l.03,.03Z"/>
  <path class="cls-12" d="M82.99,107.72c-.43-.76-.85-1.53-1.14-2.42,0,0,.04-.05,.04-.05,.65,.57,1.04,1.37,1.14,2.41l-.04,.06Z"/>
  <path class="cls-4" d="M43.97,70.63c.01,.74,.06,1.48-.11,2.21-.2-.76-.64-1.54,.11-2.21Z"/>
  <path class="cls-4" d="M43.84,82.03c.16,.72,.15,1.46,.12,2.2-.57-.68-.34-1.44-.12-2.2Z"/>
  <path class="cls-12" d="M66.29,117.26c1.11-.65,.45,.55,.56,.96-.27-.23-.42-.58-.56-.96Z"/>
  <path class="cls-4" d="M44,84.88c.18,.42,.15,.87,.13,1.32-.53-.36-.33-.84-.13-1.32Z"/>
  <path class="cls-4" d="M44.29,66.69c.03,.38,.06,.76-.11,1.11-.26-.42-.36-.82,.11-1.11Z"/>
  <path class="cls-4" d="M44.13,68.66c.03,.38,.06,.76-.1,1.11-.26-.42-.38-.81,.1-1.11Z"/>
  <path class="cls-4" d="M44.19,86.84c.14,.2,.12,.44,.1,.68-.36-.14-.39-.37-.1-.68Z"/>
  <path class="cls-12" d="M92.67,105.95c-.02,.3-.11,.54-.33,.66,0,0-.03-.03-.03-.03,0-.31,0-.63,.33-.66l.03,.04Z"/>
  <path class="cls-4" d="M45.13,93.65c.11,.12,.13,.27,.1,.44-.22-.07-.34-.19-.1-.44Z"/>
  <path class="cls-12" d="M92.84,105.52c-.01,.17,0,.37-.17,.43,0,0-.03-.04-.03-.04,0-.18,.03-.34,.17-.43l.03,.03Z"/>
  <path class="cls-12" d="M92.35,106.61c-.02,.17,0,.36-.17,.43,0,0-.03-.03-.03-.03,0-.18,.03-.34,.16-.43l.03,.03Z"/>
  <path class="cls-6" d="M60.98,133.1c-.14,0-.28,0-.35-.21,.14,0,.27,.03,.35,.21Z"/>
  <path class="cls-12" d="M66.84,118.21c.06,.09,.12,.17,.18,.26-.06-.09-.12-.17-.18-.26Z"/>
  <path class="cls-12" d="M93,105.29c-.05,.07-.11,.15-.16,.22,0,0-.03-.03-.03-.03,.05-.07,.11-.15,.16-.22l.03,.04Z"/>
  <path class="cls-3" d="M145.22,32.69c0-.86,.28-1.62,.54-2.39,.17,.94-.15,1.67-.54,2.39Z"/>
  <path class="cls-3" d="M146.2,29.18c0-.36,.05-.68,.3-.88,.08,.4,.04,.73-.3,.88Z"/>
  <path class="cls-3" d="M146.64,28.02c.02-.35,.14-.62,.36-.81-.01,.36-.03,.71-.36,.81Z"/>
  <path class="cls-3" d="M168.87,27.5c.02,.12,.04,.24,.06,.36-.37,.01-.34-.31-.31-.64,.08,.09,.17,.19,.25,.28Z"/>
  <path class="cls-3" d="M162.93,20.79c.18,0,.35,.03,.45,.26-.18,.01-.39,.12-.45-.26Z"/>
  <path class="cls-3" d="M147.01,27.2c0-.19,.03-.34,.18-.42,0,.19-.02,.35-.18,.42Z"/>
  <path class="cls-3" d="M167.64,25.45c.05,.07,.1,.15,.15,.22-.05-.08-.1-.15-.15-.22Z"/>
  <path class="cls-3" d="M146.51,28.27c.04-.07,.08-.14,.12-.22,.03,.14-.02,.21-.12,.22Z"/>
  <path class="cls-3" d="M162.73,20.62c.06,.06,.12,.12,.18,.18-.1,.02-.16-.05-.18-.18Z"/>
  <path class="cls-5" d="M192.32,92.7c-.09,.18-.05,.24,.11,.25,2.36,0,4.04,1.75,5.46,3.99,1.49,2.36,2.25,5.12,2.09,8.28-.2,4.14-1.56,7.41-4.16,9.59-2.36,1.98-4.92,2.48-7.65,1.3-4.14-1.79-6.71-7.83-5.97-13.29,.53-3.94,1.96-6.76,4.45-8.79,.75-.61,1.67-.6,2.37-1.32,1.1-.11,2.2-.34,3.3,0Z"/>
  <path class="cls-4" d="M72.48,153.83c.12-.28,.25-.56,.37-.84,.31-.45,.63-.9,.99-1.4,.24,.39,.48,.78,.72,1.17-.67-.7-1.14-.39-1.55,.48-.12,.24-.21,.63-.52,.6Z"/>
  <path class="cls-4" d="M69.76,158.27c.37-.8,.84-1.49,1.32-2.18-.03,1.17-.8,1.54-1.32,2.18Z"/>
  <path class="cls-4" d="M68.27,162.31c-.21-.44-.75-.81-.15-1.4,.05,.47,.1,.94,.15,1.4Z"/>
  <path class="cls-4" d="M68.3,160.48c.14-.18,.28-.37,.42-.55,.05,.61-.22,.85-.6,.97,.06-.14,.12-.28,.18-.42Z"/>
  <path class="cls-4" d="M71.22,155.88c.12-.48,.4-.79,.67-1.11,.02,.64-.32,.87-.67,1.11Z"/>
  <path class="cls-4" d="M74.71,153.02c.18,.17,.35,.34,.31,.68-.27-.09-.33-.35-.31-.68Z"/>
  <path class="cls-4" d="M71.88,154.77c.1-.16,.2-.32,.3-.49,.04,.31-.08,.45-.3,.49Z"/>
  <path class="cls-4" d="M74.58,152.79c.05,.09,.09,.17,.14,.26-.11-.03-.15-.11-.14-.26Z"/>
  <path class="cls-4" d="M72.33,154.09c.06-.08,.11-.16,.17-.25,.02,.18-.04,.25-.17,.25Z"/>
  <path class="cls-4" d="M72.19,154.34c0-.16,.07-.24,.19-.26-.01,.15-.08,.24-.19,.26Z"/>
  <path class="cls-4" d="M71.07,156.11c.06-.08,.12-.17,.18-.25-.06,.08-.12,.17-.18,.25Z"/>
  <path class="cls-6" d="M59.46,133.36c-.12-.02-.21-.1-.25-.26,.12,.02,.23,.07,.25,.26Z"/>
  <path class="cls-12" d="M40.42,93.33c-.21,.03-.39-.07-.53-.28,.22-.06,.42-.03,.53,.28Z"/>
  <path class="cls-12" d="M40.84,93.46s-.07,0-.1-.03c.06-.13,.09-.1,.1,.03Z"/>
  <path class="cls-6" d="M92.97,105.26c-.05,.07-.11,.15-.16,.22-.14,.09-.16,.25-.17,.43-.32,.04-.32,.35-.33,.66-.14,.09-.15,.26-.16,.43-.76,.38-1.21,1.1-1.31,2.19-.49-.04-.76,.22-1,.85-.57,1.5-2.43,2.57-3.49,1.8-.81-.58-1.83-.97-2.15-2.54-.12-.62-.67-1.23-1.17-1.64-.11-1.04-.49-1.84-1.14-2.41-.14-1.86-.74-2.86-1.96-3.29,.07-1.35-.8-1.51-1.42-1.91-.41-.27-.85-.4-1.16-.91-.43-.69-1.12-.45-1.64-.72-2.12-1.13-4.29-.48-6.44-.55-1.61-.05-3.16,.54-4.68,1.39-1.06,.59-1.83,1.51-2.64,2.48-.04,.05-.07,.15-.11,.15-1.5-.04-1.23,2-1.78,2.99-.56,1.01-1.12,2.15-1.6,3.31-.53,1.28-1.08,2.62-1.91,3.65-.72-.04-1.33,.57-2.16,.26-1.36-.5-2.09-1.77-2.81-3.14-.32-.61-.65-1.04-1.21-1.07,.1-.73-.17-1.28-.51-1.75-.73-1.02-.87-2.46-1.47-3.56-1.21-2.2-1.99-4.63-2.31-7.34-.17-1.42-.72-2.71-.94-4.1-.84-5.26-1.14-10.58-.99-15.96,.08-2.71,.24-5.4,.49-8.09,.16-1.75,1.15-2.65,2.08-3.52,.72-.66,1.05-1.83,1.89-2.3,.24-.13,.08-.75,.12-1.14,.82-.76,1.62-1.54,1.64-3.07,.77,.16,1.04-.58,1.31-1.32,.22,0,.4-.12,.6-.27,2.48-1.99,5.11-3.11,8.07-3,1.02,.04,2.05,.13,3.08,.14,1.68,.01,3.24,.76,4.84,1.24,.3,.09,.58,.14,.88,.14,.11,.27,.31,.22,.49,.22,.11,.27,.31,.21,.48,.23,.2,1.44,1.07,.66,1.63,.88,.03,.24,0,.51,.25,.61,1.32,.53,2.49,1.51,3.83,2,2.02,.73,4.02,1.38,6.13,1.35,.33,0,.66,.18,1.09,.3-.27,.46-.59,.38-.81,.41-.99,.15-1.73,1.06-2.62,1.52-.47,.24-1.08,2.26-1,2.96,.05,.46,.24,.51,.52,.41h0c0,.16,.06,.25,.16,.28v-.02c.38,.84,1.04,.97,1.78,.32,.58-.51,1.11-1.08,1.79-1.43,.94-.48,1.76-.45,2.72,.03,1.04,.52,1.93,1.55,3.07,1.69,.19,.03,1.79-.8,1.74-.92-.29-.74-.08-1.76-.62-2.3-1.09-1.1-2.05-2.59-3.62-2.41-.3,.03-.72,0-.74-.43-.03-.52,.42-.64,.73-.63,1.37,.04,2.7-.15,3.98-.82,.22-.12,.4,0,.45,.28,.28,1.4,1.16,2.3,1.7,3.47,.44,.95,1.15,1.85,1.81,2.68,.22,.28,.54,.32,.85,.3,.08,.75,.29,1.31,.96,1.3,.5,0,.58,.49,.5,.99-.12,.79,0,1.69,.15,2.29,.25,.97,.35,1.95,.5,2.92,.3,1.85,.24,3.75,.32,5.63,.15,3.45,.05,6.92-.34,10.32-.27,2.34-.54,4.69-1.04,6.99-.3,1.38-.64,2.74-1.02,4.07-.47,1.66-1.14,3.22-1.84,4.74-.16,.35-.11,.69-.15,1.04Zm-4.23-22.78c.5,.08,.73-.2,.65-.88,.19-.91,.46-1.82-.16-2.64-.03-1.65-1.12-3.43-2.28-3.73-.02-.25,0-.56-.24-.61-.74-.17-1.51-.54-2.22-.41-1.67,.29-3.2,.92-4.26,3.03-.65,1.29-.65,2.63-.72,3.98-.03,.44,.16,1.43,.91,1.26,1.22,.6,1.92,.03,2.11-1.74,.15-1.42,1.3-2.71,2.33-2.65,.22,.01,.5,.02,.61,.24,.51,1.06,1.44,1.8,1.47,3.22,.02,.82,.32,.99,.83,.92,.32,.35,.65,.33,.98,0Zm-36.92-20.4c-.71,.2-1.25,1.1-1.07,1.99,.1,.49-.12,1.23,.33,1.45,.47,.23,1,.22,1.5,.29,.34,.05,.39-.27,.4-.63,.05-.08,.1-.15,.15-.23,.4,.08,.74-.15,1.07-.41,1.41-1.14,2.81-1.18,4.28-.12,.45,.33,.93,.78,1.5,.76-.03,.31-.08,.51,.24,.74,.84,.59,1.39-.13,1.81-.76,.45-.68,.53-1.61,.08-2.52-.37-.74-.87-1.05-1.47-1.33-.93-.44-1.78-1.32-2.72-1.51-1.28-.26-2.64-.19-3.89,.44-.37,.19-1.07-.02-1.08,.98-.46,.1-1.06-.11-1.15,.87Zm7.47,19.59v.07s.04,0,.04,0c-.07,.12-.14,.26-.06,.39,.44,.67,1.78,.47,2.18-.26,.38-.68,.21-1.4,.15-2.09-.04-.51,.31-1.01,.12-1.41-.34-.75-.74-1.5-1.23-2.07-.78-.9-1.41-2.2-2.56-2.35-1.25-.16-2.48,0-3.65,.75-.95,.61-1.99,1.41-2.34,2.61-.36,1.2-.72,2.68-.29,4.13,.12,.4,.08,.97,.48,1,.63,.04,1.39,.39,1.88-.2,.35-.43,.48-1.29,.57-1.99,.22-1.69,1.34-2.68,2.58-2.22,.96,.36,1.49,1.2,1.59,2.97,.03,.49,.15,.74,.54,.67Z"/>
  <path class="cls-11" d="M79.13,64.86c-.36-.83-.27-1.52,.26-2.21,2.01-2.58,5.27-3.21,8.03-1.54,.72,.43,1.41,.9,2.02,1.57,.5,.55,.58,1.23,.31,1.94-.28,.73-.98,.96-1.56,.52-1.01-.76-2-1.54-3.18-1.83-1.41-.34-2.65,.08-3.74,1.24-.62,.66-1.22,1.05-1.99,.56,0,0,0,.02,0,.02-.05-.09-.11-.18-.16-.27h0Z"/>
  <path class="cls-11" d="M74.83,108.24s0,.09,0,.09c-.01,.29-.02,.58-.03,.86,0,0,.02-.02,.02-.02-.23,.43-.45,.87-.68,1.3,0,0,.02-.01,.02-.01-.05,.09-.1,.19-.15,.28,0,0,.01-.02,.01-.02-.13,.09-.18,.25-.2,.43,0,0,0-.02,0-.02-.06,.14-.13,.28-.19,.42,0,0,.02-.01,.02-.01-.05,.09-.11,.17-.16,.26,0,0,.02-.02,.02-.02-.05,.09-.1,.18-.16,.27,0,0,.01-.02,.01-.02-.19,.15-.3,.37-.35,.65,0,0,.01-.01,.01-.01-.06,.15-.13,.29-.19,.44,0,0,0-.02,.01-.02-.05,0-.08,.03-.11,.08-.44-.85-.86-1.72-1.33-2.55-.42-.75-1.16-.79-1.57-.03-.44,.81-.94,1.59-1.19,2.56h-.07s-.07,0-.07,0c-.21-.58-.45-1.13-.8-1.58,0,0,.01,.02,.01,.02-.03-.18-.07-.35-.21-.43,0,0,0,.01,0,.01-.11-.64-.43-1.11-.74-1.58,0,0-.02-.09-.02-.09-.22-.52-.25-1.05-.05-1.59,0,0-.01,.01-.01,.01,.08-.13,.15-.25,.23-.37,0,0,.01,.01,.01,.01,.35-.19,.72-.27,1.11-.27,1.76,.01,3.53,0,5.29-.01,.39,0,.75,.07,1.11,.27,0,0,0,.04,0,.04,.13,.21,.25,.43,.38,.64Z"/>
  <path class="cls-8" d="M68.65,113.14c.25-.98,.75-1.75,1.19-2.56,.41-.76,1.15-.72,1.57,.03,.46,.83,.89,1.7,1.33,2.55,0,.06-.01,.13-.03,.19-.45,.81-.9,1.62-1.35,2.43-.39,.7-.99,.67-1.34,.21-.6-.79-1.19-1.67-1.37-2.86Z"/>
  <path class="cls-12" d="M74.45,107.56c-.35-.2-.72-.28-1.11-.27-1.76,.02-3.53,.03-5.29,.01-.39,0-.75,.08-1.11,.27-.14-.63,.22-.55,.46-.55,2.16-.01,4.33,0,6.49,0,.27,0,.57,0,.55,.54Z"/>
  <path class="cls-12" d="M67.71,111.57c.35,.45,.59,1,.8,1.58-.86,.02-.77-.83-.8-1.58Z"/>
  <path class="cls-12" d="M66.78,109.6c.31,.47,.63,.94,.74,1.58-.63-.2-.89-.71-.74-1.58Z"/>
  <path class="cls-12" d="M74.15,110.47c.23-.43,.45-.87,.68-1.3,.07,.71,0,1.29-.68,1.3Z"/>
  <path class="cls-12" d="M66.72,107.92c-.2,.54-.17,1.07,.05,1.59-.3,.18-.42-.05-.39-.39,.03-.43-.27-1.06,.34-1.21Z"/>
  <path class="cls-12" d="M74.81,109.19c.01-.29,.02-.58,.03-.86,.4,.31,.46,.61-.03,.86Z"/>
  <path class="cls-12" d="M74.83,108.24c-.13-.21-.25-.43-.38-.64,.5-.18,.37,.31,.38,.64Z"/>
  <path class="cls-12" d="M73.01,112.69c.05-.28,.16-.51,.35-.65,.03,.36,.04,.7-.35,.65Z"/>
  <path class="cls-12" d="M66.93,107.56c-.08,.12-.15,.25-.23,.37,0-.21-.02-.43,.23-.37Z"/>
  <path class="cls-12" d="M72.7,113.36c.01-.06,.02-.13,.03-.19,.03-.05,.06-.08,.11-.08,0,.12,.17,.42-.14,.27Z"/>
  <path class="cls-12" d="M72.83,113.11c.06-.15,.13-.29,.19-.44,.03,.22,.02,.41-.19,.44Z"/>
  <path class="cls-12" d="M67.51,111.17c.14,.08,.18,.25,.21,.43-.2-.03-.22-.22-.21-.43Z"/>
  <path class="cls-12" d="M73.82,111.15c.02-.19,.07-.34,.2-.43,.01,.21,0,.4-.2,.43Z"/>
  <path class="cls-12" d="M73.64,111.56c.06-.14,.13-.28,.19-.42,.05,.23,.04,.42-.19,.42Z"/>
  <path class="cls-12" d="M73.49,111.8c.05-.08,.11-.17,.16-.26,.02,.17-.04,.25-.16,.26Z"/>
  <path class="cls-12" d="M74.01,110.74c.05-.09,.1-.18,.15-.28,0,.14-.05,.24-.15,.28Z"/>
  <path class="cls-12" d="M73.36,112.05c.05-.09,.1-.18,.16-.27,0,.15-.05,.24-.16,.27Z"/>
  <path class="cls-12" d="M59.29,81.66c-.38,.07-.51-.18-.54-.67-.1-1.77-.63-2.61-1.59-2.97-1.24-.46-2.37,.52-2.58,2.22-.09,.7-.22,1.57-.57,1.99-.49,.59-1.24,.24-1.88,.2-.41-.03-.36-.6-.48-1-.43-1.45-.07-2.93,.29-4.13,.36-1.2,1.39-2,2.34-2.61,1.16-.75,2.39-.9,3.65-.75,1.15,.15,1.78,1.45,2.56,2.35,.49,.57,.89,1.32,1.23,2.07,.19,.4-.16,.89-.12,1.41,.06,.69,.23,1.41-.15,2.09-.4,.72-1.74,.93-2.18,.26-.09-.13-.01-.27,.06-.39,.93,.82,1.87,.45,1.96-.81,.06-.84,.04-1.69-.23-2.47-1.05-3-2.73-4.35-5.12-4.04-2.07,.26-3.82,2.74-4.1,5.66-.04,.42-.1,.89,.1,1.28,.28,.57,.63,1.05,1.2,.88,.64-.19,.93-.76,.97-1.64,.08-1.66,.97-2.95,2.09-3.15,1.18-.21,2.52,.79,2.73,2.37,.08,.62,.02,1.33,.36,1.87Z"/>
  <path class="cls-12" d="M52.97,61.2c0-1,.71-.79,1.08-.98,1.25-.63,2.61-.7,3.89-.44,.94,.19,1.79,1.07,2.72,1.51,.59,.28,1.09,.6,1.47,1.33,.46,.91,.37,1.84-.08,2.52-.42,.63-.97,1.35-1.81,.76-.32-.22-.27-.43-.24-.74l.02-.03c.13,0,.25,.12,.36,.16,.63,.21,1.21,.06,1.54-.75,.32-.8,.07-1.43-.44-1.97-.41-.43-.84-.81-1.3-1.1-2.37-1.48-4.76-1.85-7.18-.23l-.02-.03Z"/>
  <path class="cls-12" d="M80.41,82.47c-.75,.17-.94-.82-.91-1.26,.08-1.35,.07-2.68,.72-3.98,1.06-2.11,2.6-2.74,4.26-3.03,.72-.13,1.48,.25,2.22,.41,.25,.06,.22,.36,.24,.61l-.03,.05c-3-1.64-5.45-.09-6.59,3.04-.49,1.33-.8,2.79,.1,4.13v.02Z"/>
  <path class="cls-12" d="M87.76,82.47c-.51,.07-.81-.1-.83-.92-.03-1.42-.96-2.16-1.47-3.22-.11-.23-.38-.23-.61-.24-1.03-.07-2.18,1.22-2.33,2.65-.19,1.77-.89,2.34-2.11,1.74,0,0,.01-.02,.01-.02,1.39,.07,1.55-.11,1.78-2.07,.18-1.52,1.31-2.76,2.47-2.73,1.23,.04,2.36,1.34,2.41,2.92,.03,.81,.29,1.36,.68,1.87v.02Z"/>
  <path class="cls-12" d="M59.99,65.16c-.58,.03-1.05-.43-1.5-.76-1.47-1.06-2.87-1.01-4.28,.12-.33,.26-.67,.49-1.07,.41l-.02-.03c2.06-2.77,5.44-1.75,6.89,.22l-.02,.03Z"/>
  <path class="cls-12" d="M52.98,65.17c0,.36-.06,.68-.4,.63-.51-.07-1.04-.06-1.5-.29-.45-.22-.23-.96-.33-1.45-.18-.89,.36-1.79,1.07-1.99l.03,.03c-.06,.12-.09,.28-.17,.36-.61,.6-.71,1.44-.38,2.22,.37,.9,1.02,.8,1.64,.41l.05,.06Z"/>
  <path class="cls-12" d="M86.94,75.23c1.17,.3,2.26,2.08,2.28,3.73l-.02,.02c-.5-1.54-1.27-2.76-2.3-3.7l.03-.05Z"/>
  <path class="cls-12" d="M89.23,78.96c.62,.82,.35,1.73,.16,2.64l-.03-.03c.11-.88-.05-1.73-.15-2.58l.02-.02Z"/>
  <path class="cls-12" d="M51.82,62.08c.09-.98,.68-.78,1.15-.87,0,0,.02,.03,.02,.03-.39,.26-.69,.74-1.14,.88l-.03-.03Z"/>
  <path class="cls-12" d="M89.39,81.6c.08,.69-.15,.97-.65,.88v-.02c.2-.3,.41-.6,.62-.9l.03,.03Z"/>
  <path class="cls-12" d="M88.73,82.48c-.33,.32-.65,.34-.98,0,0,0,.01-.02,.01-.02,.32,0,.64,0,.96,.01v.02Z"/>
  <path class="cls-12" d="M79.12,64.88c.05,.09,.11,.18,.16,.27-.11-.03-.16-.12-.16-.27Z"/>
  <path class="cls-12" d="M53.14,64.94c-.05,.08-.1,.15-.15,.23,0,0-.05-.06-.05-.06,.06-.06,.12-.13,.18-.19l.02,.03Z"/>
  <path class="cls-11" d="M59.29,81.66c-.34-.54-.27-1.25-.36-1.87-.21-1.58-1.55-2.58-2.73-2.37-1.12,.2-2.01,1.49-2.09,3.15-.04,.88-.33,1.45-.97,1.64-.57,.17-.92-.31-1.2-.88-.19-.4-.14-.86-.1-1.28,.28-2.92,2.03-5.39,4.1-5.66,2.39-.3,4.07,1.04,5.12,4.04,.27,.78,.29,1.64,.23,2.47-.09,1.26-1.03,1.64-1.96,.81,0,0-.05,0-.05,0v-.07Z"/>
  <path class="cls-11" d="M53.12,64.91c-.06,.06-.12,.13-.18,.19-.62,.39-1.27,.49-1.64-.41-.33-.79-.23-1.63,.38-2.22,.08-.08,.12-.24,.17-.36,.45-.14,.75-.62,1.14-.88,2.42-1.62,4.82-1.25,7.18,.23,.47,.29,.89,.67,1.3,1.1,.51,.54,.76,1.17,.44,1.97-.33,.82-.91,.96-1.54,.75-.11-.04-.23-.16-.36-.16-1.45-1.97-4.83-2.99-6.89-.22Z"/>
  <path class="cls-11" d="M88.72,82.46c-.32,0-.64,0-.96-.01-.4-.51-.66-1.06-.68-1.87-.05-1.58-1.19-2.89-2.41-2.92-1.17-.04-2.29,1.21-2.47,2.73-.23,1.96-.39,2.14-1.78,2.07-.89-1.34-.58-2.8-.1-4.13,1.14-3.13,3.59-4.68,6.59-3.04,1.03,.94,1.8,2.17,2.3,3.7,.1,.85,.26,1.7,.15,2.58-.21,.3-.42,.6-.63,.9Z"/>
</svg>