<?xml version="1.0" encoding="UTF-8"?>
<svg id="Layer_1" data-name="Layer 1" xmlns="http://www.w3.org/2000/svg" viewBox="0 0 704.27 704.83">
  <defs>
    <style>
      .cls-1 {
        fill: #5c2e63;
      }
    </style>
  </defs>
  <path class="cls-1" d="M352.21,0c197.01,1.09,328.31,152.84,348.05,297.51,16.03,117.44-15.87,219.88-99.16,304.25-67.87,68.74-151.83,102.8-248.55,103.07C158.05,705.38-.07,547.35,0,352.66,.07,157.24,157.79,.45,352.21,0Zm-93.91,414.21c1.59,.19,2.24,.34,2.89,.34,63.35-.07,126.7-.17,190.05-.16,4.75,0,3.33-1.73,1.84-4.23-15.7-26.15-31.39-52.31-46.96-78.53-1.65-2.79-3.52-3.82-6.76-3.8-28.1,.2-56.2,.27-84.3,.23-3.24,0-5.1,1.07-6.76,3.84-9.65,16.1-19.48,32.08-29.24,48.12-6.8,11.17-13.57,22.36-20.76,34.21Zm56.12-116.53c-.33-1.86-1.94-2.28-3.12-3.05-13.08-8.53-26.29-16.88-39.21-25.64-3.81-2.58-5.46-2.24-7.8,1.75-33.34,56.75-66.81,113.41-100.36,170.03-1.66,2.8-1.46,4.14,1.2,5.93,12.83,8.62,25.61,17.33,38.27,26.2,2.87,2.01,4.1,1.76,5.96-1.34,14.53-24.36,29.28-48.58,43.95-72.86,19.85-32.83,39.69-65.66,59.53-98.5,.51-.84,1.05-1.67,1.58-2.52Zm9.2-174.25c0,.83-.15,1.7,.02,2.49,3.38,15.28,8.22,30.14,14.47,44.42,8.33,19.02,17.3,37.76,26.24,56.5,9.79,20.53,19.56,41.07,29.9,61.33,6.86,13.44,14.7,26.39,22.13,39.55,9.48,16.8,19.37,33.34,29.91,49.5,1.97,3.02,3.49,3.57,6.69,1.58,8.46-5.26,17.06-10.34,25.84-15.06,3.58-1.92,3.73-3.5,1.95-6.87-15.64-29.5-30.58-59.39-46.74-88.6-25.83-46.7-49.78-94.57-83.14-136.71-4.76-6.02-9.97-11.31-16.89-14.74-6.18-3.07-10.42-.37-10.38,6.61Zm205.04,204.67v.18c-14.63,0-29.27,.11-43.9-.07-4.31-.05-5.26,.84-3.24,4.95,12.71,25.84,25.29,51.74,37.81,77.68,1.25,2.58,2.73,3.66,5.69,3.63,15.96-.18,31.92-.26,47.89-.13,3.72,.03,4.83-1.08,4.8-4.82-.19-25.44-.24-50.88-.13-76.32,.02-3.85-.98-5.23-5.02-5.16-14.63,.22-29.26,.09-43.9,.09Zm-312.91,.08c-28.74,0-56.01,.03-83.28-.05-2.95,0-4.11,.82-4.09,3.95,.16,26.45,.22,52.9,.21,79.34,0,2.86,.99,3.7,3.78,3.66,9.15-.14,18.3-.25,27.44,.05,3.38,.11,5.08-1.28,6.64-3.9,12.48-20.95,25.05-41.85,37.54-62.79,3.79-6.36,7.44-12.8,11.77-20.27Zm327.47,216.11c5.6,.16,10.5-1.15,14.82-3.65,10.14-5.86,19.42-19,10.37-33.17-7.94-12.43-14.83-25.55-22.87-37.96-7.84-12.09-16.12-23.85-25.42-34.88-1.74-2.07-3.26-2.88-5.85-1.3-7.1,4.32-14.27,8.53-21.52,12.6-2.57,1.44-2.95,3.14-2.06,5.73,3.9,11.35,6.71,23.04,11.11,34.24,5.77,14.67,11.76,29.3,20.1,42.66,4.9,7.85,10.31,16.38,21.32,15.73ZM344.43,247.02c-.12-1.74-1.32-2.26-2.22-2.86-13.55-8.97-27.15-17.87-40.68-26.87-1.89-1.26-3.14-1.41-4.43,.67-8.05,12.96-16.14,25.88-24.22,38.82-1.07,1.72-1.43,3.17,.72,4.56,13.77,8.93,27.51,17.9,41.17,27,2.54,1.69,3.74,1.5,5.34-1.19,7.55-12.68,15.33-25.24,23.02-37.84,.51-.83,.97-1.69,1.31-2.29Zm-205.83,289.71c1.05-.12,1.45-.04,1.66-.2,19.33-15.59,37.95-32.06,57.84-46.96,2.28-1.71,2.77-3.59-.26-5.65-12.5-8.49-24.86-17.17-37.26-25.8-4.39-3.05-4.54-3.1-5.52,2.4-2.59,14.61-7.07,28.77-10.06,43.28-2.24,10.82-5.09,21.52-6.4,32.93Zm373.8-116.5c-.17-.43-.37-1.06-.67-1.65-7.9-15.74-15.83-31.46-23.69-47.23-1.29-2.58-2.64-2.18-4.72-.93-8.4,5.04-16.89,9.92-25.36,14.85-5.27,3.07-5.42,3.38-2.19,8.68,5.92,9.73,11.95,19.39,17.89,29.1,2.77,4.53,5.46,9.12,8.16,13.7,.92,1.57,1.74,2.71,3.86,1.35,8.23-5.31,16.53-10.5,24.83-15.7,.82-.51,1.94-.64,1.89-2.17Zm-187.81-224.87c-9.77-.16-18.65,5.68-21.7,12.6-.87,1.98-.08,3.29,1.3,4.29,2.52,1.83,5.18,3.47,7.8,5.16,10.48,6.77,20.96,13.55,31.48,20.27,1.24,.79,2.5,2.35,4.25,.56,3.88-3.96,6.57-18.76,3.73-23.84-6.33-11.32-16.05-17.79-26.86-19.04Z"/>
</svg>