<?xml version="1.0" encoding="UTF-8"?>
<svg id="Layer_1" data-name="Layer 1" xmlns="http://www.w3.org/2000/svg" viewBox="0 0 383.25 312.19">
  <defs>
    <style>
      .cls-1 {
        fill: #5c2e63;
      }
    </style>
  </defs>
  <path class="cls-1" d="M383.25,274.31c-.28,.67-.61,1.32-.83,2.01-5.01,15.81-23.72,20.8-35.78,9.34-7.87-7.47-15.33-15.37-23.14-22.9-1.26-1.22-3.41-2.15-5.15-2.16-32.43-.16-64.87-.16-97.3-.18-1.09,0-2.19,.11-3.78,.19,1.53,5.68,2.89,11.07,4.53,16.37,.23,.73,1.89,1.35,2.93,1.43,3.23,.24,6.49,0,9.72,.28,13.8,1.19,24.27,14.25,22.57,28.02-.44,3.57-2.33,5.3-6.38,5.4-5.24,.13-10.48,.05-15.72,.04-43.29-.03-86.57-.06-129.86-.1-7.69,0-9.3-1.7-8.82-9.28,.85-13.56,10.32-23.2,23.84-24.27,.62-.05,1.24-.08,1.87-.13,3.06-.2,7,.67,8.95-.91,1.99-1.62,2.07-5.63,2.91-8.61,.73-2.6,1.36-5.24,2.19-8.45-4.88,0-9.32,0-13.76,0-3.62,0-7.24,.09-10.85-.09-3.17-.16-5.06-1.96-5.27-5.21-.2-3.15,1.72-5.34,5.09-5.78,1.48-.19,2.99-.14,4.48-.14,63,.03,125.99,.06,188.99,.09,1.46,0,2.91,0,5.21,0-5.84-5.91-11.02-11.22-16.32-16.39-.4-.39-1.8-.06-2.59,.27-5.32,2.23-9.07,1.59-13.29-2.5-2.78-2.69-5.6-5.35-8.17-8.24-1.71-1.93-3-2.03-5.36-.83-35.04,17.75-70.49,18.56-106.19,2.04-11.64-5.39-21.98-12.76-31.05-21.83-1.91-1.91-3.8-2.75-6.53-2.74-26.32,.1-52.64,.06-78.96,.05-1.61,0-3.27,.02-4.84-.31-2.97-.62-4.51-2.69-4.35-5.66,.15-2.78,1.76-4.63,4.61-5.08,1.34-.21,2.73-.16,4.1-.17,22.83,0,45.66,0,68.48,0h4.74c-3.16-5.13-5.85-9.79-8.9-14.21-.52-.76-2.5-.73-3.8-.73-20.08-.04-40.17-.02-60.25-.04-1.61,0-3.27,0-4.83-.35-2.78-.64-4.25-2.63-4.17-5.44,.08-2.8,1.63-4.69,4.44-5.22,1.33-.25,2.73-.2,4.1-.2,18.09-.01,36.18,0,54.26,0h4.54c-1.69-5.28-3.26-10.19-4.92-15.39-1.29,0-2.64,0-4,0-16.97,0-33.93,.01-50.9,0-5.28,0-7.2-1.88-7.21-7.23-.05-13.97-.05-27.94,0-41.91,.02-5.09,1.99-6.98,7.06-6.98,17.09-.02,34.18-.06,51.27,.04,2.59,.02,3.86-.52,4.66-3.32,1.9-6.67,4.37-13.17,6.71-20.03H11.46V249.19h4.3c22.2,0,44.41,0,66.61,0,5.94,0,8.78,1.93,8.65,5.82-.13,3.74-2.77,5.4-8.63,5.4-23.33,0-46.65,0-69.98,0C3.03,260.41,0,257.42,0,248.18,0,180.19,0,112.21,0,44.22c0-8.79,3.19-12.08,11.84-12.1,11.85-.04,23.7-.01,35.55,0,1,0,2,.01,2.98,.17,3.15,.49,4.99,2.38,4.94,5.56-.05,3.17-1.92,5.08-5.1,5.39-1.85,.18-3.74,.1-5.61,.1-10.96,0-21.92,0-33.13,0v11.77c1.24,.07,2.54,.2,3.85,.2,30.06,.04,60.13,.04,90.19,.17,2.7,.01,4.34-.76,5.71-3.09,1.69-2.86,3.81-5.47,6.29-8.95-1.94,0-3.22,0-4.5,0-11.23,0-22.45,0-33.68,0-1.25,0-2.5,.02-3.73-.15-3.25-.45-5.45-2.85-5.16-5.77,.31-3.14,2.13-4.96,5.33-5.23,1.12-.09,2.24-.06,3.37-.06,15.22,0,30.44,.08,45.65-.1,2-.02,4.41-.95,5.91-2.28,44.95-39.89,112.36-39.75,157.15,.33,1.32,1.18,3.49,1.95,5.27,1.97,16.09,.15,32.18,.08,48.28,.09,8.81,0,11.92,3.15,11.92,11.95,0,61.12,.02,122.25-.06,183.37,0,2.86,.83,4.86,2.87,6.81,5.23,4.99,10.18,10.29,15.41,15.28,4.98,4.75,9.6,9.69,11.72,16.44v8.23Zm-41.36-54.71V66.89h-26.48c.59,1.48,1.13,2.59,1.49,3.75,2.65,8.54,5.55,17.03,7.81,25.68,1.51,5.77-.25,8.9-4.11,9.5-3.69,.57-5.94-1.87-6.9-7.51C303.76,40.03,245.22,.69,187.37,13.41c-56.39,12.4-92.14,64.47-83.38,121.43,9.23,60.01,69.69,100.67,128.74,86.59,45.29-10.8,77.9-48.16,82.37-94.39,.42-4.37,2.63-6.62,6.22-6.32,3.53,.29,5.41,2.92,4.93,7.37-.45,4.21-1.06,8.41-1.84,12.57-2.32,12.34-6.79,23.92-13.06,35.26,2.9,2.82,5.64,5.71,8.62,8.32,5.63,4.94,7.85,10.49,3.68,17.07,6.12,6.14,12.01,12.05,18.23,18.29Zm-40.66,4.57c.31,.37,.73,.98,1.24,1.5,17.08,17.09,34.16,34.17,51.25,51.25,.61,.61,1.26,1.21,1.96,1.73,3.94,2.87,9.53,2.52,13.07-.79,3.6-3.36,4.33-8.8,1.62-12.96-.81-1.24-1.87-2.32-2.92-3.38-16.54-16.57-33.1-33.12-49.66-49.67-.75-.75-1.61-1.41-2.29-2-4.85,4.87-9.49,9.53-14.26,14.32ZM44.11,101.62v33.21h47.76v-33.21H44.11Zm64.03,199.05H245.22c-1.69-7.39-6.68-10.94-15.29-10.95-35.28-.05-70.55-.08-105.83-.09-1.74,0-3.5,.09-5.21,.36-5.44,.87-9.63,5.02-10.75,10.68Zm102.25-22.53c-1.53-5.54-2.83-10.58-4.38-15.56-.27-.88-1.56-2.06-2.38-2.06-17.93-.12-35.86-.12-53.79-.01-.86,0-2.22,1.08-2.48,1.93-1.58,5.09-2.92,10.25-4.42,15.7h67.44Zm75.48-55.55c9.5-9.45,18.83-18.75,27.64-27.52-2.85-2.89-5.77-5.84-8.04-8.15-9.06,9.05-18.35,18.33-27.53,27.49,2.25,2.32,5.07,5.23,7.94,8.18Zm55.96-167.17v-11.6h-41.02c1.44,1.94,2.83,3.3,3.58,4.95,2.64,5.82,7.01,7.25,13.15,6.8,8.02-.59,16.12-.14,24.29-.14Z"/>
  <path class="cls-1" d="M62.51,214.1c7.6,0,15.19-.03,22.79,.01,4.57,.02,6.95,1.9,7.05,5.39,.1,3.64-2.38,5.79-7.08,5.81-15.32,.05-30.63,.07-45.95,0-5.67-.03-9.01-4.36-6.23-8.2,1.15-1.59,3.85-2.77,5.89-2.86,7.83-.33,15.68-.13,23.53-.13Z"/>
  <path class="cls-1" d="M208.78,22c54.63,.15,98.5,46.48,95.31,100.98-3.1,52.87-48.23,93.13-101.01,89.7-7.88-.51-15.69-2.62-23.43-4.44-4.91-1.16-6.76-4.19-5.62-7.59,1.2-3.56,4.13-4.51,8.98-3.04,27.64,8.35,53.33,4.27,76.55-12.9,27.3-20.19,39.29-55.09,30.83-88.18-8.25-32.27-35.57-56.88-68.72-61.89-52.93-8.01-100.02,34.89-96.49,88.27,1.65,24.91,12.58,45.32,32.15,60.97,4.48,3.58,5.63,6.61,3.43,9.6-2.36,3.19-5.72,3.13-10.33-.74-30.57-25.64-43.08-58.32-33.76-97.11,9.34-38.89,35.19-62.62,74.36-71.34,5.8-1.29,11.84-1.54,17.77-2.27Z"/>
  <path class="cls-1" d="M255.52,143.49c-14.35-.09-25.83-11.76-25.71-26.11,.12-14.08,11.81-25.64,25.91-25.64,14.28,0,25.87,11.68,25.83,26.03-.04,14.41-11.59,25.81-26.03,25.72Zm14.8-25.94c-.05-8.13-6.74-14.71-14.82-14.58-7.94,.13-14.42,6.68-14.46,14.62-.04,8.13,6.52,14.68,14.69,14.68,8.23,0,14.64-6.48,14.59-14.71Z"/>
  <path class="cls-1" d="M157.61,143.49c-6.67-.03-12.44-2.32-17.21-6.98-2.67-2.61-2.9-5.98-.73-8.32,2.27-2.44,5.39-2.52,8.27,.1,3.36,3.05,7.22,4.68,11.62,3.69,1.77-.4,3.85-2.07,4.52-3.69,.36-.87-1.64-3.45-3.11-4.22-3.63-1.88-7.61-3.06-11.38-4.69-6.45-2.79-9.55-7.27-9.26-13.07,.32-6.35,4.61-11.81,10.96-13.67,7.68-2.24,14.55-.2,20.75,4.44,2.69,2.01,3.04,5.11,1.3,7.62-1.71,2.46-4.69,3-7.62,1.52-2.21-1.11-4.41-2.42-6.77-2.96-1.68-.38-3.69,.12-5.39,.71-.83,.29-1.74,1.66-1.75,2.56-.02,.78,1.02,1.9,1.86,2.31,2.46,1.18,5.06,2.08,7.61,3.08,.93,.37,1.86,.71,2.78,1.09,8.66,3.6,12.87,10.1,11.33,17.5-1.63,7.81-8.82,13.07-17.77,12.99Z"/>
  <path class="cls-1" d="M200.57,103.13v8.89c3.05,0,5.99-.06,8.93,.01,4.01,.1,6.56,2.36,6.53,5.67-.02,3.35-2.48,5.43-6.6,5.53-2.62,.06-5.23,.06-7.85,.1-.22,0-.44,.18-.91,.39v8.43c3.33,0,6.66-.05,9.98,.01,4.13,.07,6.52,2.14,6.56,5.56,.03,3.46-2.32,5.59-6.43,5.64-5.11,.06-10.22,.07-15.33,0-4.18-.07-6.2-2.03-6.22-6.22-.07-12.96-.07-25.93,0-38.89,.02-4.23,1.97-6.19,6.2-6.28,5.23-.12,10.47-.12,15.7,0,3.91,.09,6.09,2.27,6.07,5.64-.03,3.38-2.18,5.38-6.17,5.51-3.34,.1-6.69,.02-10.45,.02Z"/>
</svg>