<?xml version="1.0" encoding="UTF-8"?>
<svg id="Layer_1" data-name="Layer 1" xmlns="http://www.w3.org/2000/svg" viewBox="0 0 799.41 813.79">
  <defs>
    <style>
      .cls-1 {
        fill: #5c2e63;
      }
    </style>
  </defs>
  <path class="cls-1" d="M187.73,565.24c13.4,17.01,26.17,33.22,38.94,49.42,8.25,10.47,16.54,20.91,24.76,31.41,4.93,6.3,4.63,9.99-1.83,14.67-9.98,7.23-20.06,14.34-30.4,21.05-8.23,5.34-17.32,8.56-27.39,7.8-10.17-.76-18.38-5.18-24.91-13.06-25.33-30.52-50.8-60.91-76.03-91.51-2.91-3.53-5.66-4.71-10.1-3.85-9.83,1.89-19.73,3.13-29.72,.61-15.47-3.9-27.61-12.55-35.88-26.03C.19,531.38-3.98,504.98,3.93,477.53c6.72-23.33,22.71-37.6,47.06-41.34,29.62-4.55,59.28-8.85,88.96-12.99,28.91-4.04,57.51-9.16,84.84-19.97,31.35-12.39,54.44-33.44,68.86-64.02,3.54-7.5,7.02-15.25,11.94-21.84,11.97-16.05,34.38-15.79,46.14,.28,2.74,3.74,4.74,8.58,5.43,13.17,7.02,46.6,13.69,93.24,20.47,139.88,6.08,41.85,12.2,83.7,18.22,125.56,1.61,11.16-2.93,19.93-11.61,26.51-8.84,6.7-18.78,7.82-28.74,3.03-4.53-2.18-8.56-5.72-12.28-9.22-4.72-4.44-8.92-9.44-13.31-14.23-22.85-24.91-51.68-36.78-84.94-39.09-18.83-1.31-37.55-.24-57.25,1.99Zm20.18-18.17c3.23-.18,5.73-.55,8.2-.41,16.27,.92,32.69,.84,48.75,3.16,32.46,4.7,58.84,21.12,80.62,45.33,4.23,4.7,8.51,9.4,13.18,13.64,4.1,3.72,9.16,5.03,14.29,1.98,5-2.97,7.45-7.49,6.61-13.47-.72-5.11-1.44-10.22-2.2-15.33-12.23-82.67-24.49-165.34-36.64-248.03-.9-6.11-4.25-9.57-9.8-11.27-5.02-1.53-9.88,.31-13.33,5.45-2.39,3.57-4.33,7.5-6.07,11.44-14.8,33.37-37.36,59.39-71.2,74.37-11.53,5.11-23.61,9-35.51,13.23-4.48,1.6-9.17,2.6-14,3.95,5.72,38.79,11.37,77.1,17.1,115.95Zm-33.12-112.33c-40.22,5.79-79.71,11.71-119.28,17.05-18.25,2.46-30.88,11.48-36.17,29.08-7.28,24.18-3.74,47.32,10.27,68.27,9.29,13.9,22.93,19.86,39.78,17.32,31.94-4.81,63.86-9.7,95.79-14.53,8.67-1.31,17.35-2.52,26.33-3.83-5.6-37.99-11.13-75.49-16.72-113.36Zm59.75,216.39c-21.48-27.19-42.27-53.6-63.27-79.84-1.09-1.36-4.05-2-5.99-1.77-11.72,1.41-23.4,3.16-35.09,4.83-7.83,1.12-15.66,2.3-24.12,3.55,1.37,1.83,2.2,3.05,3.14,4.17,22.97,27.44,45.94,54.88,68.92,82.31,8.11,9.68,16.4,11.9,27.26,5.79,9.94-5.6,19.18-12.45,29.15-19.03Z"/>
  <path class="cls-1" d="M799.41,620.03c-.54,1.77-1.13,4.73-2.3,7.44-24.96,57.93-49.97,115.83-74.99,173.73-5.19,12.01-14.19,15.47-26.39,10.21-57.62-24.84-115.23-49.68-172.84-74.54-11.89-5.13-15.61-14.44-10.46-26.39,24.84-57.61,49.71-115.22,74.6-172.81,5.12-11.86,14.59-15.63,26.43-10.53,57.77,24.91,115.5,49.9,173.3,74.73,7.67,3.3,12.05,8.58,12.66,18.15Zm-273.2,100.09c60.25,26.01,119.78,51.71,179.57,77.52,.87-1.8,1.57-3.09,2.15-4.44,24.51-56.68,48.96-113.39,73.58-170.02,1.81-4.17,.79-5.55-3.14-7.23-56.29-24.15-112.54-48.42-168.7-72.86-4.53-1.97-6.36-1.62-8.42,3.19-19.09,44.7-38.47,89.27-57.77,133.88-5.67,13.11-11.34,26.22-17.28,39.96Z"/>
  <path class="cls-1" d="M796.05,165.84c-.32,1.33-.76,3.96-1.57,6.47-19.05,59.4-38.13,118.8-57.24,178.19-4.33,13.47-12.73,17.77-26.14,13.46-59.71-19.19-119.41-38.39-179.12-57.6-11.78-3.79-16.38-12.68-12.57-24.55,19.25-60.04,38.54-120.07,57.86-180.08,3.83-11.89,12.69-16.47,24.54-12.67,60.2,19.29,120.39,38.62,180.57,57.97,8.88,2.85,13.7,9.15,13.66,18.82Zm-16.37-2.27c-2.02-.75-3.38-1.31-4.78-1.76-58.77-18.83-117.56-37.6-176.29-56.55-4.37-1.41-5.7-.08-6.95,3.86-18.61,58.32-37.3,116.61-56.19,174.84-1.6,4.92-.49,6.57,4.2,8.07,58.34,18.53,116.62,37.25,174.92,55.91,1.67,.53,3.38,.93,5.37,1.48,19.96-62.12,39.74-123.69,59.72-185.84Z"/>
  <path class="cls-1" d="M363.67,201.87c.1,1.66,.19,3.33,.31,4.99,.92,12.71-5.73,20.44-18.32,21.17-17.63,1.02-35.26,2.01-52.9,2.98-45.25,2.48-90.5,4.94-135.76,7.42-12.75,.7-19.92-5.37-20.68-18.09-2.34-39.42-4.52-78.84-6.76-118.27-1.32-23.29-2.74-46.57-3.91-69.87-.72-14.27,5.45-20.97,19.77-21.77,56.56-3.17,113.12-6.29,169.68-9.42,6.32-.35,12.64-.85,18.97-1,11.31-.27,18.73,6.49,19.37,17.71,3.46,61.38,6.86,122.77,10.27,184.15-.02,0-.03,0-.05,0Zm-26.59-185.35c-2.76,0-4.74-.1-6.71,.02-14.14,.81-28.27,1.71-42.4,2.51-47.23,2.67-94.46,5.37-141.7,7.89-4.05,.22-4.48,1.76-4.23,5.24,.99,13.96,1.71,27.93,2.49,41.9,2.46,44.41,4.9,88.82,7.37,133.22,.27,4.92,.73,9.84,1.14,15.24,65.16-3.66,129.77-7.29,195-10.95-3.67-65.35-7.3-129.98-10.95-195.06Z"/>
  <path class="cls-1" d="M535.5,460.23c-.18,39.13-13.3,73.26-39.81,102.16-2.56,2.79-5.61,5.09-9.1,3.07-2.41-1.4-4.95-4.39-5.32-6.97-.34-2.39,1.58-5.68,3.44-7.73,15.53-17.16,26-36.9,31.41-59.4,13.68-56.91-11.78-117.82-61.89-147.91-1.42-.86-2.98-1.6-4.17-2.72-3.18-3.01-3.82-6.7-1.51-10.4,2.18-3.49,5.61-4.7,9.55-3.23,2.16,.81,4.19,2.04,6.14,3.29,41.28,26.51,64.53,64.31,70.5,112.88,.3,2.48,.64,4.96,.74,7.45,.13,3.16,.03,6.33,.03,9.49Z"/>
  <path class="cls-1" d="M467.11,457.85c-.42,25.04-10.78,47.22-27.49,66.79-3.64,4.26-8.2,4.71-11.84,1.61-3.83-3.26-4.07-7.82-.26-12.36,9.87-11.76,17.56-24.71,21.01-39.77,6.98-30.46-3.33-55.28-25.67-75.82-4.63-4.25-10.02-7.67-15.07-11.47-4.15-3.12-5.08-7.23-2.55-11.32,2.45-3.96,6.94-5.16,11.3-2.5,28.42,17.33,50.61,46.64,50.57,84.84Z"/>
  <path class="cls-1" d="M55.36,494.12c-5-.05-8.6-3.18-8.99-7.44-.41-4.46,2.09-7.89,7.07-8.67,17.43-2.74,34.89-5.26,52.34-7.86,2.3-.34,4.6-.83,6.92-.95,4.74-.24,8.39,2.63,8.99,6.84,.67,4.66-1.92,8.4-7.02,9.19-17.59,2.75-35.22,5.31-52.84,7.93-2.3,.34-4.61,.67-6.49,.95Z"/>
  <path class="cls-1" d="M62.67,533.38c-6.37,.16-10.07-2.72-10.61-7.17-.54-4.39,2.48-8.18,7.52-8.93,19.42-2.92,38.86-5.79,58.3-8.55,4.85-.69,8.88,2.32,9.64,6.67,.75,4.28-1.75,8.44-6.46,9.19-19.89,3.17-39.82,6.03-58.39,8.8Z"/>
  <path class="cls-1" d="M628.15,611.8c1.83,.54,5.29,1.18,8.44,2.54,22.31,9.57,44.58,19.23,66.82,28.96,13.06,5.71,17.41,16.8,11.8,29.88-4.79,11.15-9.63,22.28-14.53,33.38-5.73,13-16.79,17.35-29.86,11.72-22.44-9.68-44.87-19.4-67.27-29.18-12.43-5.43-16.87-16.7-11.55-29.18,4.96-11.62,10.01-23.2,15.1-34.77,3.7-8.4,10.13-12.92,21.05-13.34Zm44.53,62.43c-8.62-10.63-16.43-20.25-24.63-30.37-4.9,11.38-9.52,22.1-14.47,33.6,13.33-1.1,25.69-2.12,39.11-3.23Z"/>
  <path class="cls-1" d="M723.26,204.35c-3.7,2.79-7.4,5.57-11.38,8.58h9.28c.18,.45,.37,.89,.55,1.34-2.84,1.53-5.54,3.57-8.57,4.46-3.16,.92-4.48,2.67-5.52,5.58-10.69,29.96-37.39,47.6-69.19,45.87-16.82-.92-35.86-10.48-46.06-23.56,11.49,3.65,22.44,5.18,34.14,.45-8.68-5-14.22-11.49-14.56-21.74,2.75,.73,5.2,1.39,7.65,2.04-7.45-7.83-12.3-15.98-8.26-27.37,2.36,1.59,4.44,2.99,6.52,4.39-4.86-11.62-4.69-21.88,5.45-31.18,2.88,9.26,7.4,17.21,14.67,22.97,6.97,5.52,14.61,10.2,22.6,15.69,1.06-3.01,1.59-4.67,2.22-6.29,6.75-17.39,30.32-21.31,41.45-6.46,3.49,4.65,7.18,5.22,11.95,4.79,2.11-.19,4.2-.54,6.3-.82,.25,.43,.5,.85,.75,1.28Z"/>
  <path class="cls-1" d="M294.18,185.11c-9,.48-17.42,.92-26.45,1.4-1.28-22.31-2.53-44.17-3.8-66.49-6.24,.3-12.01,.58-18.59,.9-.48-7.49-.94-14.83-1.44-22.6,6.3-.51,12.2-.99,18.01-1.46,.51-7.05,.47-13.89,1.58-20.54,2.83-17.06,16.12-28.98,32.75-28.33,4.46,.17,8.95-.53,14.02-.88,.44,7.18,.87,14.08,1.32,21.34-7.73,1.57-16.56,1.51-20.2,9.78-2.17,4.92-2.25,10.75-3.39,16.76h18.37c.49,7.29,.98,14.5,1.52,22.4-5.81,.4-11.19,.77-17.28,1.19,1.19,22.02,2.37,43.88,3.6,66.52Z"/>
</svg>