<?xml version="1.0" encoding="UTF-8"?>
<svg id="Layer_1" data-name="Layer 1" xmlns="http://www.w3.org/2000/svg" viewBox="0 0 200.01 199.99">
  <defs>
    <style>
      .cls-1 {
        fill: #fbb247;
      }
    </style>
  </defs>
  <path class="cls-1" d="M80.46,189.81c.27-2.5,.65-6.01,1.04-9.51,.29-2.58,.59-5.16,.91-7.73,.11-.86-.04-1.48-.48-2.11-2.68-3.88-5.37-7.76-7.98-11.74-1.56-2.37-2.46-5.2-1.96-8.56,.56-3.76,2.71-6.24,5.85-6.92,3.53-.76,7.07-1.5,10.59-2.33,.38-.09,.85-.65,1.02-1.17,1.52-4.49,2.97-9.03,4.48-13.52,.46-1.38,.97-2.79,1.65-3.94,2.68-4.55,6.84-4.26,9.18,.66,.84,1.76,1.43,3.76,2.08,5.69,1.24,3.7,2.46,7.42,3.65,11.15,.25,.78,.58,1.09,1.16,1.2,3.53,.73,7.07,1.48,10.59,2.28,3.11,.71,5.2,3.19,5.75,6.91,.5,3.37-.44,6.16-1.97,8.57-1.56,2.45-3.21,4.78-4.82,7.15-1.05,1.54-2.07,3.1-3.16,4.58-.46,.63-.57,1.28-.47,2.12,.62,5.34,1.31,10.67,1.81,16.03,.17,1.85,.14,3.88-.21,5.67-.88,4.54-3.96,6.83-7.19,5.15-2.24-1.17-4.31-3.02-6.43-4.62-1.64-1.24-3.26-2.53-4.86-3.87-.52-.43-.91-.41-1.43,0-3.09,2.49-6.19,4.95-9.3,7.38-1.83,1.43-3.76,2.13-5.81,1.14-2.4-1.16-3.72-4.3-3.71-9.68l.02,.02Zm32.76,.78c.02-.35,.04-.49,.02-.62-.78-6.87-1.55-13.74-2.36-20.6-.1-.8,0-1.28,.39-1.83,3.02-4.39,6.03-8.8,9.04-13.2,.42-.61,.82-1.25,1.35-2.06-4.93-1.08-9.64-2.1-14.35-3.18-.37-.08-.82-.55-.99-1.02-.99-2.84-1.9-5.73-2.85-8.6-1.13-3.44-2.26-6.88-3.47-10.55-.19,.54-.31,.85-.41,1.17-1.96,5.96-3.9,11.92-5.88,17.86-.16,.47-.52,1.03-.84,1.11-3.04,.73-6.1,1.36-9.15,2.03-1.74,.38-3.48,.78-5.36,1.2,.28,.46,.42,.71,.57,.94,3.21,4.77,6.41,9.56,9.66,14.27,.57,.83,.53,1.64,.43,2.54-.41,3.69-.85,7.37-1.27,11.05-.36,3.11-.7,6.21-1.07,9.49,.34-.23,.55-.35,.75-.5,3.47-2.75,7.01-5.35,10.39-8.31,1.61-1.41,2.79-1.32,4.37,.05,3.56,3.07,7.26,5.82,11.02,8.79v-.03Z"/>
  <path class="cls-1" d="M100.07,0c14.46,0,26.39,17.08,26.51,37.56,.13,21.25-11.56,38.41-26.02,38.83-15.23,.44-27.46-17.46-27.13-39.03C73.75,16.65,85.48,.07,100.07,0Zm20.23,38.29c0-16.05-9.07-29.19-20.13-29.31-11.46-.13-20.44,13.33-20.48,29.02-.04,16.21,9.06,29.37,20.25,29.38,11.19,0,20.34-13.08,20.35-29.1h.01Z"/>
  <path class="cls-1" d="M139.89,147.89c.41-3.55,.76-6.97,1.22-10.35,.14-1.06,0-1.73-.54-2.45-1.54-2.08-3.09-4.16-4.55-6.35-2.86-4.29-1.97-10.07,1.84-12.03,.72-.37,1.51-.52,2.28-.69,1.73-.39,3.46-.8,5.2-1.07,.63-.1,.88-.51,1.12-1.23,.89-2.65,1.79-5.28,2.72-7.9,.89-2.5,2.17-4.37,4.2-4.68,2.23-.34,3.85,1.24,4.89,3.91,1.11,2.84,2.06,5.82,3.06,8.76,.23,.68,.48,1.03,1.07,1.13,2.13,.36,4.24,.86,6.36,1.33,2.98,.67,4.87,3.76,4.64,7.6-.12,2.05-.82,3.72-1.82,5.14-1.48,2.1-2.96,4.21-4.48,6.25-.46,.62-.55,1.21-.46,2.09,.4,3.63,.94,7.27,1.06,10.93,.14,4.51-2.75,7.61-5.81,6.54-.9-.32-1.77-.91-2.61-1.5-1.54-1.09-3.07-2.23-4.57-3.45-.62-.51-1.09-.44-1.7,.03-1.85,1.46-3.72,2.89-5.62,4.21-2.84,1.97-5.74,.73-6.91-2.95-.33-1.03-.42-2.22-.61-3.27h.02Zm2.75-23.27c1.56,2.44,3.14,4.99,4.78,7.46,.43,.65,.58,1.2,.45,2.08-.35,2.52-.63,5.05-.93,7.59-.1,.85-.16,1.71-.26,2.77,2.34-1.75,4.46-3.39,6.61-4.92,.33-.24,.89-.23,1.22,0,1.95,1.38,3.87,2.87,5.8,4.32,.23,.17,.48,.3,.84,.52-.36-3.08-.56-5.97-1.06-8.76-.39-2.12,.05-3.39,1.11-4.79,1.47-1.94,2.76-4.18,4.07-6.23-2.08-.43-4.35-.91-6.63-1.36-.66-.13-1.16-.31-1.49-1.38-.99-3.12-2.12-6.15-3.26-9.42-1.1,3.2-2.17,6.18-3.15,9.21-.35,1.08-.82,1.47-1.61,1.61-2.28,.39-4.55,.91-6.49,1.31h0Z"/>
  <path class="cls-1" d="M32.22,146.71c.29-2.48,.64-5.85,1.1-9.19,.14-1.06,0-1.73-.54-2.44-1.43-1.91-2.82-3.88-4.21-5.84-1.04-1.47-1.83-3.18-1.97-5.33-.25-3.91,1.67-7,4.7-7.66,2.09-.45,4.17-.95,6.26-1.31,.62-.11,.88-.52,1.12-1.24,.89-2.65,1.79-5.29,2.72-7.91,.93-2.59,2.26-4.5,4.4-4.68,2.38-.21,3.91,1.72,4.95,4.54,.99,2.68,1.9,5.42,2.81,8.16,.23,.7,.5,1.02,1.07,1.12,2.09,.37,4.18,.87,6.26,1.31,3,.64,4.88,3.6,4.73,7.5-.09,2.11-.82,3.81-1.85,5.26-1.51,2.13-3.04,4.22-4.52,6.4-.26,.39-.45,1.14-.4,1.67,.31,2.95,.7,5.89,1.06,8.83,.54,4.42-.92,8.07-3.6,8.96-1.35,.45-2.65,.04-3.87-.86-1.85-1.36-3.7-2.72-5.53-4.15-.57-.45-1.01-.5-1.61-.02-1.82,1.45-3.63,2.94-5.54,4.09-1.1,.66-2.4,1.08-3.56,.93-2.51-.34-3.99-3.27-3.99-8.14h0Zm13.88-34.27c-1.11,3.24-2.18,6.18-3.13,9.19-.36,1.15-.87,1.53-1.68,1.67-2.27,.4-4.52,.92-6.69,1.37,1.14,1.74,2.13,3.65,3.39,5.07,1.77,2,2.61,4.18,1.71,7.35-.12,.42-.12,.91-.17,1.37-.22,1.95-.45,3.9-.7,6.06,2.24-1.68,4.33-3.18,6.37-4.8,.65-.52,1.13-.53,1.78,0,2.06,1.63,4.16,3.15,6.41,4.83-.41-3.38-.77-6.5-1.19-9.6-.19-1.38-.05-2.35,.73-3.41,1.61-2.21,3.06-4.68,4.49-6.91-2.01-.41-4.28-.92-6.56-1.33-.78-.14-1.26-.54-1.6-1.62-.98-3.03-2.04-6.01-3.16-9.24h0Z"/>
  <path class="cls-1" d="M170.45,93.11c.26-2.27,.62-5.25,.91-8.26,.05-.58-.11-1.38-.38-1.81-1.18-1.87-2.45-3.62-3.66-5.45-2.15-3.26-2.3-7.4-.37-10.15,.99-1.42,2.26-1.96,3.6-2.25,1.44-.31,2.89-.65,4.34-.9,.66-.11,1.02-.54,1.29-1.41,.74-2.39,1.49-4.77,2.33-7.09,.92-2.52,2.32-4.18,4.41-4.1,2.04,.07,3.37,1.79,4.24,4.27,.82,2.33,1.53,4.75,2.37,7.06,.2,.55,.71,1.07,1.13,1.2,1.46,.42,2.95,.64,4.43,.98,2.25,.52,4.13,1.78,4.76,5.3,.48,2.66-.18,4.89-1.41,6.81-1.23,1.93-2.51,3.8-3.81,5.64-.42,.6-.53,1.14-.43,1.97,.35,2.85,.76,5.7,.91,8.57,.3,6.04-3.21,9.36-7,6.71-1.63-1.14-3.19-2.52-4.81-3.72-.27-.2-.74-.19-1.02,.01-1.71,1.25-3.36,2.66-5.08,3.88-1.41,1-2.9,1.09-4.32,.01-1.81-1.37-2.48-3.69-2.44-7.27h.01Zm3.21-19.47c-.08,.17-.16,.34-.25,.5,1.37,1.84,2.72,3.72,4.12,5.51,.57,.73,.64,1.5,.52,2.49-.33,2.61-.61,5.23-.94,8.05,1.62-1.27,3.15-2.37,4.61-3.65,.77-.67,1.36-.69,2.13-.02,1.46,1.28,2.99,2.41,4.61,3.69-.2-1.68-.35-3.15-.54-4.6-.43-3.22,.16-6,1.77-8.33,.79-1.14,1.55-2.31,2.43-3.61-2.06-.45-3.92-.8-5.76-1.29-.39-.11-.87-.6-1.06-1.1-.86-2.38-1.64-4.83-2.52-7.47-.88,2.64-1.65,5.09-2.52,7.47-.18,.51-.66,1-1.06,1.11-1.84,.49-3.7,.84-5.56,1.25h.02Z"/>
  <path class="cls-1" d="M4.85,93.14c.25-2.23,.56-5.23,.94-8.21,.1-.83,.02-1.38-.41-1.98-1.24-1.73-2.43-3.52-3.62-5.31-1.32-2-2.11-4.29-1.61-7.12,.61-3.44,2.42-4.77,4.65-5.29,1.47-.34,2.95-.66,4.43-.92,.64-.11,1.05-.45,1.32-1.35,.7-2.31,1.45-4.6,2.23-6.85,.85-2.43,2.11-4.2,4.1-4.39,2.17-.21,3.65,1.45,4.61,4.08,.86,2.36,1.62,4.79,2.37,7.22,.26,.84,.64,1.16,1.24,1.28,1.74,.35,3.48,.69,5.2,1.16,3.8,1.03,5.36,6.67,2.97,11.03-1.26,2.3-2.78,4.33-4.24,6.39-.45,.64-.61,1.19-.5,2.07,.33,2.57,.64,5.15,.9,7.73,.42,4.1-.98,7.47-3.4,8.29-1.15,.39-2.27,.16-3.31-.62-1.67-1.25-3.31-2.6-4.99-3.82-.3-.22-.8-.2-1.1,.01-1.39,1.01-2.72,2.2-4.12,3.18-.86,.6-1.8,1.18-2.74,1.33-2.89,.45-4.99-2.67-4.93-7.89v-.02Zm21.7-19.43c-1.91-.44-3.56-.96-5.24-1.16-1.04-.12-1.53-.75-1.91-2.05-.64-2.2-1.4-4.34-2.18-6.7-.88,2.66-1.71,5.03-2.46,7.45-.25,.8-.59,1.09-1.16,1.2-1.85,.35-3.69,.79-5.73,1.23,1.41,2.07,2.67,4,4,5.81,.63,.86,.74,1.71,.58,2.86-.34,2.53-.59,5.09-.91,7.85,1.51-1.2,2.92-2.18,4.22-3.39,1.03-.96,1.87-.96,2.91,0,1.31,1.22,2.73,2.2,4.21,3.37-.3-2.7-.49-5.16-.87-7.56-.23-1.47,.01-2.44,.75-3.44,1.27-1.71,2.45-3.54,3.79-5.49v.02Z"/>
  <path class="cls-1" d="M124.03,174.77c.26-.49,.41-.82,.59-1.09,1.61-2.38,3.2-4.78,4.86-7.09,.3-.42,.85-.64,1.28-.64,5.49-.04,10.99-.03,16.48-.03,2.05,0,2.33-.36,2.74-3.24,.04-.25,.22-.53,.38-.66,.97-.76,1.94-1.53,2.94-2.18,.33-.21,.82-.22,1.15-.02,1.88,1.23,2.07,1.92,1.7,5.36-.57,5.27-3.82,9.6-7.51,9.65-8.03,.12-16.06,.08-24.08,.1-.09,0-.19-.05-.53-.15h0Z"/>
  <path class="cls-1" d="M76.05,174.82c-.52,.06-.73,.11-.95,.11-7.7,0-15.41,.04-23.11,0-3.79-.03-6.97-3.44-7.9-8.51-.28-1.51-.25-3.14-.31-4.71,0-.28,.19-.66,.37-.84,.4-.39,.83-.79,1.29-.97,.42-.16,.93-.19,1.33,.02,.67,.34,1.27,.95,1.91,1.38,.8,.54,1.48,1.02,1.46,2.66-.02,1.2,.94,1.96,2.07,1.97,2.21,.02,4.42,0,6.63,0,3.45,0,6.89,.03,10.34-.02,.68,0,1.14,.3,1.6,1,1.47,2.24,2.99,4.42,4.49,6.63,.21,.32,.4,.67,.78,1.3v-.02Z"/>
  <path class="cls-1" d="M145.76,96.68c-1.3,3.23-2.43,6.03-3.62,8.98-2.68-6.78-6.08-12.7-10.51-17.32-4.42-4.61-9.33-7.66-14.73-9.62,.2-.27,.32-.46,.45-.61,1.7-1.87,3.39-3.77,5.12-5.59,.27-.29,.77-.46,1.08-.31,6.76,3.44,12.72,8.7,17.59,16.34,1.7,2.68,3.21,5.61,4.64,8.13h-.02Z"/>
  <path class="cls-1" d="M82.58,78.38c-14.04,6.62-18.12,10.88-25.05,26.2-1.19-2.7-2.39-5.42-3.77-8.57,1.39-2.45,2.88-5.38,4.58-8.04,4.9-7.66,10.92-12.86,17.75-16.16,.32-.15,.83-.03,1.1,.26,1.83,2.07,3.62,4.22,5.4,6.31h-.01Z"/>
</svg>