<?xml version="1.0" encoding="UTF-8"?>
<svg id="Layer_1" data-name="Layer 1" xmlns="http://www.w3.org/2000/svg" viewBox="0 0 200 200">
  <defs>
    <style>
      .cls-1 {
        fill: #fbb247;
      }
    </style>
  </defs>
  <path class="cls-1" d="M200,146.94H105.41c-.96,13.86-5.75,25.81-14.71,35.72-8.91,9.85-19.85,15.42-32.61,17-21.98,2.72-44.15-10.89-53.41-32.71-9.48-22.33-3.83-47.28,10.16-62.03,1.18,1.51,2.37,3.02,3.67,4.67-9.83,11.41-14.29,25.43-12.15,41.49,1.69,12.65,7.36,23.13,16.64,31.24,18.73,16.36,45.77,14.88,62.88-3.32,16.95-18.04,18.32-46.76,3.23-66.62-15.55-20.46-44.54-25.3-65.91-7.48-1.17-1.53-2.34-3.06-3.64-4.76,10.18-8.52,21.59-12.73,34.42-12.43,12.75,.3,23.91,5.15,33.89,14.2v-23.49h29.24v62.13h8.78V59.73h29.34v80.83h8.78V41.02h29.2V112.45h-5.61V47.31h-17.55v93.26h17.36v-9.15h5.9v9.28h6.69v6.24Zm-50.74-6.37V65.97h-17.28v74.6h17.28Zm-38.07,.04v-55.88h-17.45c0,7.72-.02,15.26,.04,22.81,0,.74,.41,1.58,.85,2.2,4.25,5.98,7.37,12.56,9.07,19.83,.84,3.6,1.3,7.3,1.94,11.04h5.54Z"/>
  <path class="cls-1" d="M52.64,187.41c-22.71-.06-41.02-19.69-40.93-43.86,.09-23.91,18.49-43.39,41-43.41,22.65-.02,41.1,19.67,41.03,43.79-.06,24.04-18.5,43.54-41.1,43.48Zm-2.85-80.7c-17.32,.82-31.49,17.53-31.88,34h5.37v6.32h-5.49c1.45,20.77,18.94,33.84,32.1,33.71v-5.63h5.85v5.85c15.94-.47,31.45-17.06,31.85-34.08h-5.47v-6.24h5.48c-1.05-19.08-17.13-33.64-31.96-33.84v5.58h-5.86v-5.68Z"/>
  <path class="cls-1" d="M60.94,63.7c-.8-1.91-1.54-3.66-2.39-5.69C93.3,41.76,128,25.54,163.08,9.13c-2.81-1.2-5.28-2.25-7.9-3.36,.7-1.91,1.35-3.7,2.1-5.77,5.74,2.37,11.39,4.71,17.28,7.14-2.25,6.16-4.45,12.18-6.72,18.39-1.83-.76-3.55-1.47-5.44-2.25,.98-2.72,1.92-5.32,3.04-8.44-35.07,16.39-69.69,32.58-104.49,48.85Z"/>
  <path class="cls-1" d="M181.47,59.56h-5.54v-6.05h5.54v6.05Z"/>
  <path class="cls-1" d="M175.92,65.94h5.62v5.98h-5.62v-5.98Z"/>
  <path class="cls-1" d="M187.57,124.96v-5.95h5.65v5.95h-5.65Z"/>
  <path class="cls-1" d="M52.75,139.51c5.67-6.05,11.09-11.83,16.58-17.7,1.34,1.47,2.63,2.88,3.79,4.14-6.83,7.3-13.65,14.59-20.35,21.75-4.7-4.97-9.48-10.04-14.18-15.02,1.19-1.26,2.51-2.65,3.94-4.17,3.25,3.49,6.62,7.12,10.23,10.99Z"/>
</svg>