<?xml version="1.0" encoding="UTF-8"?>
<svg id="Layer_1" data-name="Layer 1" xmlns="http://www.w3.org/2000/svg" viewBox="0 0 200 200">
  <defs>
    <style>
      .cls-1 {
        fill: #fbb247;
      }
    </style>
  </defs>
  <path class="cls-1" d="M200.59,120.03c-.74,4.83-1.36,10.38-2.53,15.81-.5,2.34-1.91,4.61-3.34,6.58-1.59,2.2-3.45,2.38-5.43,.57-2.49-2.28-4.92-4.71-6.93-7.43-4.9-6.62-9.84-13.24-14.2-20.24-4.79-7.68-11.7-11.01-20.06-11.21-16.27-.4-32.55-.45-48.83-.4-3.73,.01-7.47,.91-11.18,1.58-4.53,.82-8.17,3.23-10.87,7.07-3.59,5.12-7.06,10.33-10.76,15.37-3.27,4.46-6.56,8.95-10.24,13.06-4.47,5-7.54,4.3-10.25-1.97-2.54-5.89-3.04-12.2-3.06-18.52-.02-10.23,1.44-20.29,4.12-30.13,3.65-13.43,7.46-26.83,11.34-40.2,.77-2.65,2.17-5.11,3.34-7.63,2.83-6.14,7.75-9.03,14.16-9.98,5.98-.89,11.5,.03,16.76,3.07,5.22,3.02,11.06,3.95,16.89,4.57,11.04,1.17,22.07,1.07,32.92-1.61,2.95-.73,5.89-1.87,8.56-3.34,7.64-4.22,15.37-3.82,23.04-.6,2.16,.91,4.05,3.06,5.5,5.08,3.69,5.13,5.81,11.12,7.44,17.2,3.92,14.7,7.81,29.41,11.25,44.22,1.38,5.95,1.54,12.19,2.35,19.1Zm-41.9-67.73c-9.62-.06-17.47,7.78-17.55,17.51-.08,9.91,7.67,18.06,17.24,18.11,9.69,.05,17.47-7.86,17.49-17.79,.02-9.91-7.56-17.78-17.18-17.84Zm-72.35,19.65h6.31q5.57,0,5.26-5.78c0-.07,0-.14,0-.21,.08-1.22-.53-1.62-1.65-1.6-2.51,.04-5.03-.08-7.54,.04-1.77,.09-2.61-.4-2.4-2.38,.15-1.34,.03-2.72,.03-4.08,0-5.81,0-5.76-5.67-5.61-1.43,.04-1.79,.62-1.76,1.93,.06,2.15,.01,4.3,.01,6.44q0,3.66-3.47,3.66c-2.23,0-4.47-.06-6.7,.06-.51,.03-1.38,.63-1.41,1.01-.14,2.11-.07,4.23-.07,6.56h11.64v6.39c0,5.74,0,5.69,5.52,5.6,1.47-.02,1.95-.52,1.91-2.01-.08-3.22-.02-6.43-.02-10.02Z"/>
  <path class="cls-1" d="M90.26,112.99c.04,.86,.11,1.5,.11,2.13,0,14.2-.02,28.4,.04,42.6,0,1.76-.46,2.32-2.22,2.32-24.53-.05-49.06-.04-73.6-.04-.62,0-1.24-.07-2.06-.12-.05-.94-.14-1.77-.14-2.61,0-47.48,0-94.95-.05-142.43,0-2.16,.54-2.79,2.68-2.78,24.25,.08,48.5,.08,72.76,0,2.19,0,2.73,.68,2.63,2.8-.16,3.5-.04,7-.04,10.54-2.87-.41-5.53-.93-8.21-1.13-5.39-.41-10.59,.7-15.6,2.63-5.04,1.94-8.53,5.84-10.84,10.6-2.58,5.3-5.15,10.73-6.73,16.4-4.19,15.01-8.25,30.08-11.58,45.3-2.66,12.16-3.3,24.62-.26,36.89,.89,3.6,2.45,7.23,4.49,10.29,4.26,6.4,10.62,7.25,16.73,2.71,5.06-3.76,8.72-8.86,12.35-13.96,4.24-5.97,8.37-12.01,12.57-18.01,1.66-2.36,3.78-3.97,6.97-4.13Z"/>
  <path class="cls-1" d="M105.83,21.84v10.01c-2.43-.67-4.7-1.19-6.87-2-.48-.18-.84-1.37-.84-2.11-.07-5.95-.03-11.91-.04-17.86,0-4.47-1.15-5.66-5.45-5.66-27.47,0-54.95,0-82.42,0-4.25,0-5.4,1.17-5.4,5.44,0,50.93,0,101.86,0,152.79,0,4.3,1.15,5.47,5.38,5.47,27.47,0,54.95,0,82.42,0,4.29,0,5.47-1.2,5.47-5.64,0-16,0-31.99,0-47.99,0-.84,0-1.69,0-2.7,1.38-.14,2.54-.25,3.94-.39,.05,.94,.12,1.7,.12,2.46,0,27.12,0,54.23,0,81.35,0,3.71-1.3,5.05-4.92,5.05-30.48,0-60.96,0-91.44,0-3.85,0-5.17-1.33-5.17-5.3-.02-10.83,0-21.66,0-32.5,0-51.86,0-103.73,0-155.59,0-1.07-.01-2.16,.17-3.21C1.13,1.36,2.4,.2,4.51,.08c.56-.03,1.12-.02,1.68-.02,30.13,0,60.26,0,90.39,0,4.49,0,5.56,1.1,5.56,5.69,0,3.51,.07,7.03-.02,10.54-.07,2.82,.65,4.98,3.71,5.55ZM62.96,184.03c.01-6.54-5.23-11.94-11.56-11.91-6.3,.02-11.41,5.26-11.46,11.75-.06,6.6,5.03,11.97,11.41,12.03,6.32,.06,11.61-5.34,11.62-11.86Z"/>
  <path class="cls-1" d="M55.18,183.98c0,2.26-1.62,3.93-3.81,3.9-2.14-.02-3.85-1.81-3.8-3.97,.05-2.09,1.7-3.75,3.77-3.8,2.18-.05,3.84,1.61,3.85,3.87Z"/>
</svg>