<?xml version="1.0" encoding="UTF-8"?>
<svg id="Layer_1" data-name="Layer 1" xmlns="http://www.w3.org/2000/svg" viewBox="0 0 200 200">
  <defs>
    <style>
      .cls-1 {
        fill: #fbb247;
      }
    </style>
  </defs>
  <path class="cls-1" d="M95.34,188.52c-26.56,0-53.11,0-79.67,0-4.59,0-4.94-.36-4.94-5.05,0-52.65-.01-105.31-.02-157.96,0-5.2,0-5.14-4.88-4.02-3.05,.69-4.3-2.06-5.64-3.94-.53-.74,.12-3.09,.95-4.03C4.8,9.37,8.75,5.52,12.54,1.5c1.84-1.95,3.49-2.03,5.37-.03,3.79,4.02,7.65,7.96,11.51,11.91,1.28,1.32,2.29,2.8,.82,4.47-1.55,1.76-2.72,4.53-5.82,3.56-4.07-1.27-4.5-1.03-4.51,3.42-.05,26.04-.07,52.08-.09,78.12-.01,23.52,0,47.03,0,70.55,0,5.2,.32,5.51,5.2,5.51,49.79,0,99.59,0,149.38,0,1.11,0,2.23,.1,3.32-.06,2.23-.32,3.29-1.63,2.06-3.82-2.19-3.88,1.29-5.09,3.04-6.87,1.89-1.92,3.39-.07,4.73,1.31,3.6,3.72,7.13,7.52,10.81,11.17,2.13,2.11,2.26,3.88,.05,6.05-3.78,3.7-7.41,7.56-11.07,11.38-1.33,1.39-2.85,2.75-4.53,1.07-1.73-1.73-4.86-2.92-3.18-6.61,1.22-2.69,.53-3.82-2.27-4.06-.99-.09-1.99-.03-2.99-.03-26.34,0-52.67,0-79.01,0Z"/>
  <path class="cls-1" d="M183.79,151.44c-49.14-3.82-90.27-24.35-122.88-62.78-10.66-12.56-19.21-26.6-26.07-41.74-1.78-3.92-1.17-5.27,2.52-6.93,2.68-1.2,4.31-.52,5.55,2.26,6.16,13.81,13.86,26.64,23.39,38.22,28.14,34.19,63.68,54.33,106.71,60.1,5.25,.7,10.57,.91,15.87,1.28,3.47,.24,4.22,1.17,4.25,5.03,.02,3.15-1.24,4.73-4.37,4.56-1.65-.08-3.31-.02-4.97-.02Z"/>
  <path class="cls-1" d="M173.31,45.42c3.14,.21,5.52,2.11,5.47,4.37-.09,3.68-2.47,6.94-4.89,6.7-3.15-.31-5.35-2.25-5.27-4.63,.11-3.47,2.39-6.59,4.69-6.44Z"/>
  <path class="cls-1" d="M57.11,163.95c-2.43-.05-3.81-2.17-3.77-5.81,.03-2.6,2.79-4.48,6.44-4.4,2.27,.05,4.28,3.04,4.11,6.12-.13,2.42-3.02,4.17-6.78,4.09Z"/>
  <path class="cls-1" d="M147.88,92.83c1.52,1.85,3.59,3.48,4.4,5.63,.8,2.09-3.66,7.07-5.35,6.19-2.04-1.06-4.08-2.99-5.07-5.08-.86-1.81,3.27-6.08,6.02-6.74Z"/>
  <path class="cls-1" d="M74.4,158.55c-2.2-.02-4.31-3.1-4.17-6.09,.1-2.1,3.37-4.37,6.36-4.42,2.13-.04,4.49,3.12,4.42,5.91-.05,2.14-3.61,4.62-6.61,4.59Z"/>
  <path class="cls-1" d="M171.66,66.81c0,2.66-2.82,6.72-4.71,6.79-2.34,.1-5.81-2.75-5.74-4.73,.09-2.81,2.91-6.55,4.91-6.53,2.54,.04,5.54,2.45,5.54,4.46Z"/>
  <path class="cls-1" d="M91.1,151.09c-2.16,.09-4.55-2.91-4.58-5.74-.02-2.09,3.22-4.78,5.95-4.93,2.02-.11,4.67,2.99,4.81,5.65,.12,2.14-3.29,4.91-6.18,5.03Z"/>
  <path class="cls-1" d="M163.63,83.81c-1.91,1.96-3.53,4.49-5.81,5.7-1.85,.99-5.57-2.62-5.57-4.7,0-2.43,3.21-6.4,5.16-6.37,2.23,.03,5.47,2.75,6.21,5.37Z"/>
  <path class="cls-1" d="M140.56,112.64c-.06,2.08-3.78,5.94-5.76,5.98-2.04,.04-5.23-3.38-5.14-5.51,.09-2.15,3.91-5.87,5.9-5.75,2.07,.13,5.05,3.28,4.99,5.28Z"/>
  <path class="cls-1" d="M45.82,160.92c.15,2.45-.81,4.3-3.85,4.34-3.12,.04-4.55-1.24-4.51-4.06,.06-3.91,1.14-5.42,3.93-5.51,3.21-.1,4.4,1.2,4.44,5.23Z"/>
</svg>