<?xml version="1.0" encoding="UTF-8"?>
<svg id="Layer_1" data-name="Layer 1" xmlns="http://www.w3.org/2000/svg" viewBox="0 0 200 200">
  <defs>
    <style>
      .cls-1 {
        fill: #fbb247;
      }
    </style>
  </defs>
  <path class="cls-1" d="M158.01,200c.14-1.15-.57-1.88-1.01-2.72-4.93-9.47-9.88-18.92-14.85-28.36-1.05-2-2.07-4.01-2.71-6.25-2.56-8.98,.47-15.38,7.74-17.4,4.99-1.39,7.59-.94,10.73,5.39,7.49,15.14,15.09,30.21,22.63,45.32,.65,1.31,1.21,2.68,1.81,4.02h-24.34Z"/>
  <path class="cls-1" d="M166.71,147.86c6.16,0,11.86-.08,17.55,.05,1.84,.04,2.27-.66,2.27-2.77-.05-40.67-.06-81.34,0-122.01,0-2.3-.49-2.86-2.42-2.85-57.99,.07-115.98,.07-173.97,0-2.04,0-2.36,.75-2.35,2.93,.05,40.67,.05,81.34,0,122.01,0,2.01,.26,2.73,2.19,2.73,38.66-.09,77.32-.08,115.98-.09,.66,0,5.99,4.45,6.19,5.18,.65,2.36-.71,4.72-2.71,4.72-40.9-.02-81.8-.04-122.71-.06-4.18,0-7.24-3.64-7.24-8.53,.02-47.42,.04-94.83,.05-142.25C-.44,1.41,.81-.01,5.48,0,22.13,.05,38.79,.08,55.44,.06c2.62,0,4.65,.62,4.86,4.28,.06,1.12,.64,1.3,1.41,1.26,.6-.02,1.21,0,1.81,0,43.23,0,86.46,0,129.7,0,3.71,0,6.97,3.64,7.18,8.02,.07,1.43,.07,2.86,.07,4.29,0,42,0,84,.03,126,0,2.59-.38,5.08-.73,7.59-.43,3.01-3.67,6.05-6.42,6.06-6.99,.02-13.98-.07-20.97-.1-.92,0-1.64-.16-2.1-1.31-1.07-2.65-2.24-5.23-3.57-8.3Z"/>
  <path class="cls-1" d="M79.71,132.19c-5.98,0-11.97,.17-17.95-.08-2.84-.12-5.68-.14-8.51-.16-8.62-.06-17.25-.08-25.87,.03-1.79,.02-2.51-.29-2.5-2.75,.08-29.72,.06-59.43,.04-89.15,0-1.51-.12-2.64,1.79-2.64,17.41,.07,34.83-.04,52.24,.52,.22,0,.45,.15,1.27,.45-13,11.97-20.69,27.04-20.34,46.51,.34,19.07,7.91,34.18,20.16,46.31-.11,.32-.22,.64-.32,.96Z"/>
  <path class="cls-1" d="M112.89,135.64c-12.93-.44-25.52-6.69-35.03-20.44-14.38-20.77-12.06-51.02,5.12-68.59,18.39-18.81,45.48-18.74,63.73,.16,22.76,23.57,17.75,66.05-9.75,82.58-6.96,4.18-14.36,6.25-24.07,6.29Zm1.4-10.45c17.76,.73,34.89-17.15,34.91-40.33,.03-21.81-15.54-40.18-33.63-40.74-19.14-.59-36.24,17.28-36.28,40.45-.04,23.58,17.07,41.07,35,40.62Z"/>
  <path class="cls-1" d="M148.32,37.79c7.99,0,15.97,.01,23.96-.01,1.05,0,1.29,.61,1.28,1.7-.03,3.97-.04,7.95,0,11.92,.01,1.27-.31,1.84-1.46,1.82-3.61-.05-7.23-.03-10.84-.02-.85,0-1.5-.43-1.95-1.24-2.73-4.93-6.62-8.49-10.33-12.27-.31-.31-.55-.71-.83-1.07,.05-.28,.11-.55,.16-.83Z"/>
  <path class="cls-1" d="M155.83,123.96c1.01-3.23,3.21-4.8,3.82-7.55,.18-.81,.86-.44,1.33-.44,3.45,0,6.9,.09,10.35-.02,1.4-.04,1.7,.54,1.73,2.1,.12,5.91,.17,5.91-4.7,5.91h-12.53Z"/>
  <path class="cls-1" d="M133.69,141.36c-.1-1.13,.3-2.26,1.31-3.12,.84-.71,1.61-1.53,2.38-2.34,4.9-5.17,4.3-3.32,8.89-.09,.81,.57,.7,1.06,.24,1.91-2.35,4.33-6.5,5.08-10.06,6.84-.96,.47-2.93-.45-2.76-3.19Z"/>
  <path class="cls-1" d="M162.66,109.86c.92-2.5,1.7-4.52,2.4-6.58,.33-.97,.77-1.5,1.7-1.41,.77,.07,1.55,.01,2.32,.01,4.5,0,4.39,0,4.52,5.17,.06,2.29-.46,3-2.41,2.85-2.73-.21-5.49-.05-8.53-.05Z"/>
  <path class="cls-1" d="M173.54,92.2c-.28,1,.64,2.99-.55,3.35-1.69,.51-3.58,.19-5.37,0-.63-.07-.31-1.02-.26-1.57,.13-1.32,.48-2.63,.47-3.93-.03-1.95,.71-2.33,2.2-2.31,3.51,.04,3.51-.05,3.51,4.46Z"/>
  <path class="cls-1" d="M173.6,78.45c-.31,1.24,.56,3.12-.56,3.6-1.28,.56-2.86,.17-4.31,.12-.53-.02-.61-.61-.65-1.12-.06-.81-.09-1.62-.14-2.42-.26-4.39-.25-4.15,3.4-4.41,3.39-.24,1.83,2.59,2.26,4.23Z"/>
  <path class="cls-1" d="M119.12,73.66c-.04-6.42,3.48-10.96,8.55-11.02,4.99-.06,8.6,4.38,8.59,10.61,0,6.35-3.62,10.83-8.73,10.85-4.93,.01-8.37-4.26-8.41-10.43Zm12.92-.59c.15-1.02-.21-2.09-.54-3.13-.65-2.05-1.82-3.53-3.79-3.53-2.06,0-3.3,1.45-3.96,3.68-.71,2.41-.66,4.83,.17,7.16,.69,1.94,2,3.07,3.81,3.07,1.73,0,2.89-1.16,3.58-2.97,.49-1.3,.84-2.67,.74-4.28Z"/>
  <path class="cls-1" d="M105.3,73.36c0-2.86,.05-5.72-.02-8.57-.04-1.53,.31-2.23,1.73-2.17,2.5,.11,5,.08,7.5,.01,1.17-.03,1.73,.34,1.71,1.88-.02,1.43-.42,2.06-1.66,1.97-.94-.07-1.9,.08-2.84-.03-1.67-.2-2.43,.26-2.46,2.59-.03,2.53,1.18,2.22,2.47,2.2,.86-.01,1.73,.06,2.59-.02,1.21-.11,1.68,.43,1.67,1.91-.01,1.47-.48,2.04-1.69,1.93-.77-.07-1.57,.13-2.32-.04-2.6-.57-2.79,1.17-2.67,3.52,.07,1.34,.49,1.79,1.57,1.74,1.38-.06,2.76,.05,4.14-.03,1.22-.07,1.65,.5,1.66,1.95,.01,1.49-.46,1.94-1.67,1.91-2.67-.07-5.35-.1-8.02,0-1.45,.06-1.74-.7-1.71-2.2,.07-2.86,.02-5.72,.02-8.57Z"/>
  <path class="cls-1" d="M98.65,62.68c.28,.06,1.28,.31,2.3,.5,1.41,.27,1.25,1.35,.99,2.53-.24,1.1-.56,1.78-1.74,1.28-1.3-.55-2.67-.79-4.05-.14-.6,.28-1.1,.61-1.24,1.39-.18,.97,.31,1.59,.95,1.96,1.39,.79,2.84,1.46,4.24,2.23,1.99,1.09,3.14,2.91,2.97,5.55-.18,2.71-1.51,4.53-3.66,5.38-2.25,.89-4.54,1.01-6.87,.23-1.18-.39-2.03-.62-1.6-2.61,.43-1.99,1.19-1.67,2.39-1.27,1.31,.45,2.66,.88,4.06,.24,.77-.35,1.45-.73,1.56-1.8,.1-1.06-.43-1.73-1.18-2.14-.78-.42-1.58-.8-2.38-1.17-3.32-1.54-4.81-3.73-4.46-6.55,.41-3.24,2.51-5.22,5.95-5.61,.34-.04,.69,0,1.79,0Z"/>
  <path class="cls-1" d="M125.91,95.05c0-1.36,.03-2.38,0-3.39-.04-1.05,.35-1.45,1.22-1.43,.76,.02,1.37,.08,1.36,1.26-.02,3.87,0,7.75,0,11.62,0,.68-.32,1.51-.81,1.13-1.55-1.18-3.01,.25-4.43-.03-2.22-.45-3.02-2.52-3-4.99,.02-2.63,1.64-4.61,3.67-4.6,.58,0,1.17,.24,2.01,.42Zm0,4.2c.08-1.17-.16-2.48-1.47-2.52-1.28-.04-1.63,1.26-1.63,2.6,0,1.34,.29,2.54,1.67,2.5,1.27-.03,1.43-1.19,1.43-2.58Z"/>
  <path class="cls-1" d="M134.34,94.75c4.4-1.11,2.71,3.91,4.41,5.55,.33-1.42,.77-2.84,.98-4.31,.23-1.62,1.17-1.68,2.09-1.38,1.33,.43,.36,1.5,.18,2.17-.67,2.41-1.4,4.79-2.22,7.14-.45,1.3-.98,2.64-2.03,3.46-.65,.51-1.41,1.69-2.19,.64-.76-1.01-.37-1.99,.7-2.66,1.14-.72,1.04-1.84,.57-3.13-.88-2.41-1.64-4.88-2.5-7.47Z"/>
  <path class="cls-1" d="M110.89,99.37c0-.92,.03-1.84,0-2.76-.08-1.93,.59-2.88,2-1.53,.78,.74,1.04,.09,1.51-.1,2.21-.87,3.8,.13,4.14,2.84,.21,1.7,.07,3.46,.11,5.2,.03,1.13-.52,1.32-1.32,1.32-.83,0-1.29-.3-1.27-1.39,.03-1.43,.01-2.86-.03-4.29-.03-.92-.4-1.63-1.24-1.62-.8,.01-1.25,.66-1.29,1.59-.05,1.33-.06,2.66-.03,3.98,.02,1.06-.15,1.74-1.25,1.73-1.01,0-1.4-.44-1.35-1.62,.05-1.12,.01-2.25,0-3.37Z"/>
  <path class="cls-1" d="M103.88,100.65c1.42,1.72,2.53,1.54,3.63,1.39,.56-.08,1.04,.02,1.18,.8,.11,.61-.21,.87-.64,1.12-1.56,.93-4.63,.14-5.72-1.51-1.17-1.77-.94-4.71,.54-6.44,1.13-1.32,2.46-1.86,4.01-1.2,1.56,.67,2.17,2.2,2.41,4.01,.17,1.28-.2,1.91-1.38,1.84-1.18-.07-2.36-.02-4.04-.02Zm1.77-1.88c.47-.2,1.37,.37,1.26-.85-.08-.87-.66-1.41-1.42-1.4-.65,0-1.16,.49-1.24,1.24-.14,1.4,.85,.82,1.4,1.01Z"/>
  <path class="cls-1" d="M88.82,90.26c.48,.05,1.11-.24,1.27,.59,.13,.71,.08,1.37-.68,1.7-1.46,.63-2.32,1.33-.05,2.18,.39,.15,.43,1.15,.13,1.32-2.58,1.41-.99,4.07-1.35,6.12-.19,1.08,.11,2.23-1.4,2.18-1.36-.05-1.15-1.05-1.23-2.06-.17-2.21,.41-4.44-.87-6.64-.76-1.31,2.54-5.33,4.18-5.4Z"/>
  <path class="cls-1" d="M133.15,97.41c0,1.73-.02,3.45,0,5.18,.01,1.01-.08,1.77-1.21,1.76-.96,0-1.41-.32-1.39-1.55,.04-3.66,.04-7.31,0-10.97-.01-1.16,.33-1.61,1.34-1.62,1.08,0,1.28,.64,1.26,1.71-.03,1.83,0,3.66,0,5.49Z"/>
  <path class="cls-1" d="M92.6,94.6c.78,1.68,1.84,.52,2.92,.04,.36-.16,.66,.17,.7,.64,.06,.6,.2,1.49-.34,1.64-2.55,.7-2.05,3.04-2.1,5.12-.03,1.03,.34,2.3-1.25,2.33-1.54,.03-1.33-1.14-1.33-2.24,0-2.04,.02-4.07,0-6.11-.01-.96,.18-1.61,1.39-1.42Z"/>
  <path class="cls-1" d="M100,99.48c0,1.22-.01,2.43,0,3.65,.02,1.2-.66,1.2-1.39,1.2-.68,0-1.18-.18-1.18-1.14,0-2.43,.02-4.87-.01-7.3-.01-1.08,.44-1.37,1.27-1.37,.78,0,1.34,.18,1.32,1.31-.03,1.22,0,2.43,0,3.65Z"/>
  <path class="cls-1" d="M98.61,90.27c.78,.23,1.37,.68,1.3,1.65-.06,.8-.61,1.29-1.26,1.29-.8,0-1.27-.6-1.22-1.59,.05-.87,.6-1.16,1.17-1.35Z"/>
</svg>