<?xml version="1.0" encoding="UTF-8"?>
<svg id="Layer_1" data-name="Layer 1" xmlns="http://www.w3.org/2000/svg" viewBox="0 0 200 200">
  <defs>
    <style>
      .cls-1 {
        fill: #fff;
      }
    </style>
  </defs>
  <path class="cls-1" d="M24.81,144.18c-5.95-6.68-7.51-14.24-3.24-22.35,3.59-6.82,9.63-9.59,17.42-9.26,0-.91,0-1.79,0-2.68,0-22.46-.06-44.92,.02-67.39,.06-15.47,6.41-27.58,19-36.07C64.19,2.27,71.06,.1,78.47,.06,91.07-.02,103.67,0,116.27,0c2.91,0,3.82,.94,3.83,3.96,.02,11.05,0,22.11,0,33.16,0,.84,0,1.69,0,2.89h2.3c11.09,0,22.17,0,33.26,0,4.86,0,5.21,.35,5.21,5.26,0,21.54,0,43.08,0,64.62,0,.83,0,1.66,0,2.51,17.16-1.36,26.52,19.39,14.37,31.88,13.62,4.27,18.72,14.25,17.62,28.49,1.36,0,2.51-.03,3.65,0,2.39,.07,3.45,1.1,3.46,3.49,.03,6.73,.03,13.46,0,20.19,0,2.45-1.02,3.45-3.4,3.51-.34,0-.69,0-1.03,0-63.69,0-127.39,0-191.08,0-.28,0-.55,0-.83,0-2.65-.04-3.62-1.01-3.63-3.7-.02-6.52-.01-13.04,0-19.56,0-2.94,.98-3.92,3.86-3.95,.96-.01,1.92,0,3.19,0,0-1.41,0-2.73,0-4.04,0-12.54,5.74-20.54,17.36-24.2,.11-.03,.19-.17,.39-.37ZM114.19,6.08c-.65-.05-1.18-.13-1.72-.13-10.88,0-21.76-.01-32.64,.01-1.58,0-3.18,.02-4.74,.27-17.86,2.79-30.24,17.39-30.31,35.94-.08,23.45-.01,46.91-.05,70.36,0,1.28,.37,2.01,1.44,2.71,9.47,6.17,11.24,18.9,3.9,27.63-.37,.44-.7,.92-1.15,1.52,7.3,1.81,12.4,6.1,15.86,12.93,1.71-5.42,4.38-9.79,8.3-13.33,3.91-3.52,8.5-5.56,13.69-6.59-10.98-10.25-8.95-23.62-3.58-30.57,3.21-4.15,7.29-6.89,12.32-7.99,6.89-1.51,13.03,.4,18.67,5.07V6.08Zm-1.13,131.28c11.17,2.3,18.45,8.91,22.2,19.93,3.45-6.96,8.68-11.09,15.82-12.95-.46-.58-.75-.95-1.05-1.31-7.5-8.83-5.8-21.5,3.78-27.77,1.12-.73,1.36-1.54,1.36-2.77-.03-21.47-.02-42.94-.02-64.42,0-.62-.07-1.24-.11-1.98h-34.89v2.61c0,19.77,.07,39.54-.08,59.31-.02,2.97,.25,5.79,.75,8.69,.39,2.26,.31,4.68,0,6.97-.74,5.48-3.47,9.91-7.77,13.68Zm81.05,41.53H5.96v15.08H194.11v-15.08Zm-124.64-6.29h60.8c0-3.15,.14-6.13-.03-9.09-.62-10.79-8.64-19.52-19.09-20.17-7.34-.45-14.74-.43-22.08-.02-9.58,.54-17.3,7.72-18.98,17.44-.66,3.79-.44,7.75-.62,11.83Zm-8.55,.09c0-2.52,.16-4.79-.03-7.03-.78-9.1-7.57-15.6-16.45-15.77-4.61-.09-9.22,.11-13.83-.04-10.74-.35-19.86,8.31-17.47,22.84H60.91Zm126.17-.01c0-2.58,.2-5-.04-7.37-.82-8.15-6.63-14.43-14.55-15.19-5.19-.5-10.45-.25-15.67-.23-1.77,0-3.61,.1-5.31,.57-8.82,2.42-13.98,10.37-12.26,22.21h47.83Zm-71.75-52.46c.03-8.76-6.77-15.87-15.24-15.91-8.48-.05-15.39,7-15.42,15.73-.03,8.81,6.68,15.81,15.23,15.88,8.5,.07,15.39-6.95,15.43-15.69Zm-66.55,10.5c0-6.81-5.3-12.25-11.93-12.26-6.61,0-11.91,5.64-11.85,12.6,.06,6.41,5.4,11.88,11.64,11.91,6.81,.03,12.15-5.36,12.15-12.25Zm102.4,.17c-.03,6.54,5.3,12.07,11.64,12.07,6.73,0,12.01-5.27,12.09-12.07,.08-6.94-5.24-12.47-11.95-12.43-6.57,.04-11.75,5.51-11.78,12.43Z"/>
  <path class="cls-1" d="M61.14,56.62c1.1,0,2.2-.04,3.3,0,1.72,.08,2.7,1.14,2.79,2.81,.08,1.6-.82,2.86-2.38,2.98-2.53,.19-5.1,.21-7.62-.03-1.51-.14-2.39-1.39-2.27-3.05,.12-1.63,1.06-2.59,2.66-2.7,1.16-.08,2.34-.02,3.51-.02h0Z"/>
  <path class="cls-1" d="M61.25,74.5c1.03,0,2.07-.06,3.1,0,1.73,.11,3,1.35,2.91,2.94-.1,1.82-1.13,2.89-2.9,2.96-2.2,.08-4.41,.09-6.61,0-1.73-.08-2.89-1.42-2.78-3.05,.12-1.74,1.09-2.72,2.77-2.83,1.17-.08,2.34-.01,3.51-.02Z"/>
  <path class="cls-1" d="M60.94,116.19c-1.1,0-2.21,.08-3.3-.02-1.67-.16-2.66-1.17-2.67-2.92-.01-1.76,1.03-2.83,2.66-2.93,2.26-.15,4.55-.11,6.81-.02,1.71,.07,2.95,1.47,2.8,3.05-.16,1.68-1.1,2.74-2.8,2.84-1.17,.07-2.34,.01-3.51,.01,0,0,0,0,0,0Z"/>
  <path class="cls-1" d="M61.2,38.74c1.17,0,2.35-.08,3.51,.02,1.62,.14,2.49,1.26,2.54,2.83,.05,1.49-.76,2.76-2.24,2.87-2.6,.19-5.23,.22-7.82,0-1.54-.13-2.35-1.43-2.21-3.08,.13-1.53,1-2.49,2.51-2.62,1.23-.11,2.47-.02,3.71-.02Z"/>
  <path class="cls-1" d="M98.06,80.4c-1.17,0-2.35,.11-3.51-.03-1.66-.19-2.65-1.27-2.6-3,.05-1.71,1.02-2.8,2.73-2.86,2.27-.08,4.54-.1,6.81,0,1.68,.08,2.65,1.12,2.68,2.88,.03,1.78-.98,2.77-2.61,2.98-1.15,.14-2.34,.03-3.51,.03h0Z"/>
  <path class="cls-1" d="M98.09,56.62c1.1,0,2.2-.04,3.3,0,1.59,.07,2.59,.92,2.77,2.57,.19,1.76-.69,3.06-2.3,3.21-2.52,.23-5.09,.2-7.61,0-1.55-.13-2.4-1.41-2.29-3.02,.1-1.6,1.01-2.63,2.63-2.73,1.16-.08,2.34-.02,3.51-.02h0Z"/>
  <path class="cls-1" d="M79.27,80.42c-1.03,0-2.07,.08-3.09-.02-1.74-.16-2.82-1.42-2.71-3.1,.12-1.76,1.11-2.73,2.79-2.79,2.2-.07,4.4-.08,6.6,0,1.79,.07,2.89,1.28,2.82,2.97-.08,1.87-1.15,2.82-2.9,2.93-1.16,.07-2.34,.01-3.51,.01,0,0,0,0,0,0Z"/>
  <path class="cls-1" d="M61.02,98.31c-1.1,0-2.21,.08-3.3-.02-1.66-.15-2.65-1.11-2.75-2.87-.09-1.65,1.06-2.95,2.8-3.02,2.2-.09,4.41-.09,6.61,0,1.72,.06,2.99,1.38,2.88,2.97-.13,1.81-1.14,2.84-2.93,2.93-1.1,.06-2.2,.01-3.3,.01,0,0,0,0,0,0Z"/>
  <path class="cls-1" d="M98.18,38.74c1.17,0,2.34-.08,3.5,.02,1.5,.14,2.37,1.08,2.49,2.62,.13,1.65-.66,2.94-2.2,3.07-2.59,.22-5.22,.21-7.8,0-1.57-.13-2.34-1.46-2.2-3.08,.13-1.5,.99-2.5,2.51-2.62,1.23-.09,2.47-.02,3.71-.02Z"/>
  <path class="cls-1" d="M98.05,20.86c1.24,0,2.48-.1,3.71,.02,1.5,.15,2.33,1.13,2.42,2.68,.09,1.54-.61,2.82-2.08,2.94-2.65,.22-5.34,.21-8,.02-1.49-.11-2.22-1.41-2.14-2.91,.08-1.6,.97-2.64,2.6-2.76,1.16-.08,2.33-.02,3.5-.02,0,0,0,.01,0,.02Z"/>
  <path class="cls-1" d="M79.38,62.53c-1.03,0-2.07,.08-3.09-.02-1.72-.17-2.85-1.11-2.82-3,.03-1.87,1.08-2.86,2.87-2.9,2.13-.05,4.26-.04,6.39,0,1.8,.03,2.88,1,2.93,2.85,.05,1.86-1.04,2.88-2.78,3.04-1.16,.11-2.33,.02-3.5,.02Z"/>
  <path class="cls-1" d="M79.59,44.63c-1.1,0-2.21,.08-3.3-.02-1.73-.16-2.85-1.1-2.82-2.99,.03-1.87,1.09-2.85,2.88-2.89,2.2-.05,4.4-.06,6.59,.02,1.71,.06,2.68,1.1,2.73,2.83,.05,1.75-.93,2.8-2.58,3-1.15,.14-2.33,.03-3.5,.03,0,0,0,.02,0,.03Z"/>
  <path class="cls-1" d="M79.44,26.71c-1.1,0-2.21,.1-3.29-.03-1.73-.21-2.77-1.24-2.68-3.12,.09-1.77,1.13-2.69,2.81-2.74,2.2-.06,4.4-.06,6.59,0,1.69,.05,2.71,1.03,2.79,2.77,.08,1.86-.98,2.9-2.72,3.09-1.15,.12-2.33,.02-3.5,.02Z"/>
  <path class="cls-1" d="M137.59,62.27c-1.51,0-3.02,.03-4.53,0-1.76-.05-2.88-.95-2.95-2.82-.07-1.88,1.02-2.98,2.73-3.05,3.22-.13,6.45-.12,9.67,0,1.64,.07,2.67,1.17,2.65,2.92-.02,1.84-1.05,2.86-2.84,2.93-1.58,.06-3.15,.01-4.73,.01,0,0,0,0,0,0Z"/>
  <path class="cls-1" d="M137.54,80.22c-1.58,0-3.16,.1-4.73-.02-1.75-.14-2.78-1.19-2.7-3.07,.07-1.77,1.12-2.72,2.78-2.76,3.15-.07,6.31-.06,9.46,0,1.67,.03,2.73,.99,2.8,2.75,.08,1.85-.92,2.95-2.68,3.08-1.64,.12-3.29,.03-4.93,.03Z"/>
  <path class="cls-1" d="M139.48,92.33c.96,0,1.92-.04,2.88,.01,1.69,.1,2.68,1.04,2.76,2.79,.08,1.76-.89,2.9-2.51,3.04-2.11,.18-4.25,.19-6.36-.01-1.62-.15-2.56-1.32-2.45-3.08,.11-1.75,1.12-2.66,2.81-2.74,.96-.05,1.92,0,2.88,0Z"/>
</svg>