<?xml version="1.0" encoding="UTF-8"?>
<svg id="Layer_1" data-name="Layer 1" xmlns="http://www.w3.org/2000/svg" viewBox="0 0 200 170">
  <defs>
    <style>
      .cls-1 {
        fill: #f8c03d;
      }
    </style>
  </defs>
  <path class="cls-1" d="M56.97,124.27c.46-.08,.65-.11,.84-.14,4.04-.72,6.41,.75,8.7,4.72,14.97,25.98,43.67,39.08,71.7,33.21,28.16-5.9,50.27-29.28,54.46-59.14,4.2-29.97-6.04-53.98-29.65-71.62-.74-.55-1.55-1.01-2.26-1.61-1.24-1.05-1.54-2.92-.68-4.22,.97-1.48,2.34-2.01,3.91-1.23,1.17,.58,2.24,1.39,3.3,2.16,25.4,18.42,37.48,50.26,30.97,81.63-6.49,31.3-30.6,55.37-60.97,60.86-32.18,5.82-65.09-11.81-79.5-42.6-.28-.6-.5-1.22-.83-2.03Z"/>
  <path class="cls-1" d="M119.96,34.07c-23.46,3.48-39,16.61-47.17,39.32-1.83-.64-3.66-1.27-5.71-1.98,.15-.53,.3-1.22,.53-1.89,8.22-24.29,30.08-41.09,54.69-42.03,2.49-.1,3.8,1.1,3.92,3.7,.07,1.53,.01,3.06,.01,5.16,4.74-4.33,9.04-8.25,13.56-12.38-4.45-4.38-8.77-8.64-13.55-13.34,0,1.83,0,3.08,0,4.33-.02,3.15-.88,4.18-3.92,4.32-6.21,.28-12.32,1.24-18.2,3.32-22.36,7.91-37.27,23.66-44.7,47.1-.53,1.68-1.22,2.29-2.83,2.11-1.16-.13-2.34-.03-3.51-.05-.19,0-.38-.08-.57-.12,4.98-24.34,27.7-55.49,67.46-58.9,0-2.32,0-4.68,0-7.03,0-.82-.23-1.74,.06-2.43,.48-1.16,1.08-2.65,2.03-3.11,.84-.41,2.56,0,3.31,.72,7.11,6.79,14.12,13.71,21.12,20.64,1.64,1.63,1.57,3.56-.15,5.16-6.93,6.4-13.87,12.79-20.91,19.04-.82,.73-2.42,.97-3.53,.73-1.48-.32-1.92-1.86-1.92-3.41,0-2.85,0-5.69,0-8.96Z"/>
  <path class="cls-1" d="M31.97,94.67c9.23,0,18.47,0,27.7,0,.58,0,1.19-.04,1.75,.09,1.68,.39,2.62,1.53,2.56,3.33-.06,1.7-1.02,2.75-2.62,3.08-.5,.1-1.04,.06-1.56,.06-18.47,0-36.93,0-55.4,0-.58,0-1.18,.04-1.75-.06C.94,100.85,0,99.72,0,97.92c0-1.71,.93-2.8,2.52-3.15,.69-.15,1.42-.1,2.14-.1,9.1,0,18.21,0,27.31,0Z"/>
  <path class="cls-1" d="M112.45,91.46c-.02-7.41,5.51-13.04,12.89-13.12,6.27-.07,12.05,6,12.09,12.72,.05,7.49-5.41,13.4-12.4,13.44-6.95,.04-12.57-5.78-12.59-13.04Zm6.27-.06c.02,3.61,2.76,6.5,6.17,6.53,3.47,.03,6.36-3,6.3-6.62-.05-3.53-2.96-6.5-6.28-6.43-3.47,.08-6.22,2.97-6.2,6.51Z"/>
  <path class="cls-1" d="M141.65,82.07c-1.29-1.72-2.48-3.31-3.78-5.03,.38-.37,.77-.79,1.21-1.15,7.98-6.44,15.96-12.87,23.95-19.29,1.82-1.47,3.49-1.52,4.73-.23,1.45,1.51,1.18,3.7-.73,5.26-6.37,5.17-12.76,10.31-19.15,15.46-2.05,1.65-4.11,3.29-6.24,4.99Z"/>
  <path class="cls-1" d="M52.89,117.59c-4.48,0-8.97,0-13.45,0-2.46,0-3.88-1.19-3.92-3.21-.04-2.03,1.4-3.34,3.8-3.34,9.03-.02,18.06-.02,27.1,0,2.43,0,3.85,1.28,3.84,3.32-.02,2.03-1.44,3.23-3.91,3.23-4.48,.01-8.97,0-13.45,0Z"/>
  <path class="cls-1" d="M52.86,78.32c4.68,0,9.36-.11,14.03,.08,1.03,.04,2.36,.91,2.92,1.83,.45,.74,.29,2.37-.23,3.15-.52,.78-1.82,1.39-2.78,1.4-9.28,.11-18.57,.09-27.85,.07-2.11,0-3.47-1.38-3.44-3.3,.02-1.92,1.37-3.21,3.51-3.23,4.61-.04,9.22-.01,13.83-.01Z"/>
  <path class="cls-1" d="M23.32,84.85c-1.1,0-2.21,.08-3.3-.02-1.69-.15-2.92-1.56-2.85-3.26,.08-1.79,1.02-3.04,2.71-3.17,2.32-.18,4.66-.15,6.99-.02,1.69,.1,2.83,1.64,2.76,3.34-.07,1.7-1.27,2.99-3.01,3.11-1.1,.07-2.2,.01-3.3,.01,0,0,0,0,0,0Z"/>
  <path class="cls-1" d="M181.08,94.66c-1.1,0-2.21,.1-3.3-.02-1.72-.19-2.68-1.29-2.82-3.08-.13-1.73,1.02-3.24,2.73-3.35,2.33-.14,4.67-.16,7,0,1.71,.12,2.64,1.36,2.72,3.15,.08,1.72-1.11,3.12-2.83,3.27-1.16,.1-2.33,.02-3.5,.02Z"/>
  <path class="cls-1" d="M23.39,117.57c-1.1,0-2.21,.07-3.3-.02-1.7-.14-2.91-1.52-2.93-3.19-.02-1.7,1.14-3.17,2.85-3.27,2.26-.12,4.54-.13,6.8,0,1.72,.1,2.86,1.57,2.84,3.28-.03,1.7-1.21,3.04-2.94,3.18-1.09,.09-2.2,.02-3.3,.02Z"/>
  <path class="cls-1" d="M128.05,150.3c0,1.15,.07,2.31-.02,3.46-.14,1.86-1.36,3.04-3.03,3.07-1.76,.03-3.07-1.2-3.15-3.15-.09-2.24-.09-4.48,0-6.72,.08-1.96,1.38-3.19,3.13-3.17,1.74,.02,2.95,1.27,3.06,3.26,.06,1.08,.01,2.17,.01,3.26h-.01Z"/>
  <path class="cls-1" d="M91.99,126.67c.06,2.85-5.86,8.83-7.9,8.4-.94-.2-2.11-1.01-2.49-1.87-.38-.86-.27-2.46,.29-3.16,1.58-1.96,3.39-3.76,5.34-5.31,.69-.55,2.19-.52,3.05-.12,.85,.4,1.36,1.6,1.71,2.05Z"/>
  <path class="cls-1" d="M168.78,132.15c-.55,.79-1,2.06-1.83,2.45-.91,.43-2.49,.49-3.22-.08-1.96-1.52-3.73-3.36-5.36-5.28-1.07-1.26-.83-2.83,.28-4.07,1.05-1.17,2.52-1.55,3.7-.57,2.02,1.67,3.83,3.63,5.67,5.54,.37,.39,.44,1.1,.77,2.02Z"/>
</svg>