<?xml version="1.0" encoding="UTF-8"?>
<svg id="Layer_1" data-name="Layer 1" xmlns="http://www.w3.org/2000/svg" viewBox="0 0 200 200">
  <defs>
    <style>
      .cls-1 {
        fill: #fbb247;
      }
    </style>
  </defs>
  <path class="cls-1" d="M0,172.83c0-47.89,0-95.78,0-143.66,.04-.48,.1-.96,.12-1.44,.18-4.5,1.08-8.82,3.36-12.8C8.21,6.62,15.32,1.57,25.15,.29,26.11,.17,27.07,.1,28.03,0c24.94,0,49.89,0,74.83,0,.3,.03,.6,.08,.91,.1,2.61,.16,5.18,.58,7.65,1.43,8.85,3.06,14.62,9.06,17.75,17.52,.21,.58,.46,.74,1.09,.74,13.64-.02,27.28-.03,40.92,0,1.88,0,3.8,.11,5.62,.5,10.87,2.31,17.96,8.79,21.68,18.8,1.31,3.52,1.5,7.24,1.51,10.95,.03,10.33,.04,20.66-.02,30.99-.01,2.05-.22,4.14-.61,6.15-2.3,11.85-12.05,20.78-24.39,22.45-.55,.07-.96,.27-1.36,.63-10.32,9.27-20.64,18.53-30.96,27.8-.48,.43-.99,.71-1.65,.45-.66-.25-.85-.78-.87-1.42-.04-1.27-.09-2.53-.14-3.8-.29-7.67-.58-15.34-.87-23,0-.13-.04-.26-.05-.38h-8.27v.75c0,20.26,0,40.52,0,60.79,0,5.53-1.43,10.7-4.48,15.38-4.93,7.56-12.01,11.96-21.22,12.96-2.42,.26-4.88,.18-7.32,.18-23,.01-46,.02-69.01-.02-1.89,0-3.82-.18-5.67-.55-12.94-2.55-21.19-12.74-22.76-23.91-.12-.89-.22-1.79-.32-2.68ZM115.12,19.78c-.13-.21-.18-.32-.25-.42-3.02-4-7.03-6.3-12.21-6.43-2.94-.08-5.89-.02-8.84-.02-21.74,0-43.49,0-65.23,0-6.95,0-13.15,4.63-14.93,11.12-.55,2-.63,4.04-.63,6.1,0,47.09,0,94.18,0,141.26,0,.93,.08,1.88,.22,2.8,1,6.2,6.27,12.91,15.55,12.91,24.33,0,48.66,0,73-.02,1.37,0,2.77-.15,4.11-.46,6.99-1.58,11.98-7.99,11.87-15.1-.03-2.29,0-4.58,0-6.88,0-18.06,0-36.11,0-54.17,0-.18-.02-.37-.03-.57-.19-.01-.33-.02-.47-.02-4.82,0-9.63,.04-14.45,0-2.17-.02-4.37-.01-6.5-.36-9.71-1.6-16.63-6.89-21.09-15.3-2.21-4.18-2.97-8.68-2.98-13.31-.03-10.02-.02-20.04-.02-30.05,0-1.46,.03-2.92,.12-4.37,.24-3.99,1.1-7.85,3.09-11.4,5.52-9.87,14.01-15.14,25.72-15.29,4.4-.06,8.81,0,13.21,0,.21,0,.42,0,.74,0Zm37.05,92.34c.25-.21,.4-.33,.54-.46,5.04-4.53,10.09-9.05,15.1-13.6,.85-.77,1.73-1.13,2.9-1.06,1.84,.1,3.66-.11,5.42-.67,6.46-2.06,10.84-7.99,10.84-14.74,0-11.04,0-22.08,0-33.12,0-.95-.08-1.91-.21-2.85-1.09-7.37-7.65-12.93-15.37-12.93-23.57-.02-47.15-.02-70.72,0-7.58,0-14.18,5.61-15.15,12.87-.27,2.06-.28,4.15-.29,6.23-.03,9.67-.01,19.34-.01,29.01,0,.61,.01,1.22,.05,1.82,.45,7.69,7.04,14.44,15.62,14.41,16.3-.06,32.59-.02,48.89-.02,.2,0,.4,0,.59,0,.66,.05,1.14,.47,1.24,1.1,.04,.27,.05,.55,.06,.83,.12,3.31,.24,6.63,.37,9.94,.04,1.04,.08,2.07,.13,3.23Z"/>
  <path class="cls-1" d="M80.04,160.8c.02,7.62-4.34,13.67-10.68,15.68-7.96,2.53-16.49-1.6-19.36-9.36-3.17-8.58,1.77-17.92,10.72-20.27,6.81-1.78,14.22,1.49,17.56,7.76,1.18,2.22,1.76,4.58,1.76,6.19Zm-25.75,1.02c.03,.42,.03,.84,.08,1.25,.07,.51,.17,1.03,.3,1.53,1.33,4.91,6.48,8.21,11.43,7.35,6.12-1.07,9.98-7.02,8.34-12.87-1.5-5.37-6.8-8.52-12.25-7.3-4.58,1.03-7.89,5.24-7.91,10.04Z"/>
  <path class="cls-1" d="M125.53,70.86c-.16,.19-.27,.32-.37,.46-1.79,2.37-3.59,4.73-5.35,7.13-.85,1.17-1.93,1.68-3.41,1.53-.84-.08-1.69-.01-2.53-.05-.42-.02-.87-.06-1.26-.21-1.01-.39-1.42-1.48-.95-2.42,.15-.29,.35-.57,.55-.83,2.79-3.71,5.58-7.41,8.39-11.1,.27-.35,.28-.58,0-.93-2.52-3.25-5.01-6.52-7.51-9.79-.11-.14-.24-.28-.48-.38,0,.2,0,.4,0,.6,0,4.31,0,8.61-.02,12.92-.01,1.73-.3,3.42-.87,5.07-1.48,4.32-4.6,6.75-9.2,7.47-2.12,.33-4.23,.25-6.31-.25-4.71-1.11-7.9-4.5-8.62-9.27-.24-1.59-.32-3.21-.33-4.82-.05-4.31-.02-8.61-.01-12.92,0-.38,.03-.77,.13-1.13,.22-.8,.76-1.34,1.62-1.38,1.32-.06,2.66-.08,3.98-.02,.99,.05,1.55,.64,1.69,1.6,.06,.43,.09,.86,.09,1.3-.02,4.46-.09,8.92-.07,13.38,0,1.19,.13,2.41,.44,3.55,.88,3.2,4.94,4.54,7.77,2.64,.96-.65,1.49-1.58,1.8-2.64,.53-1.83,.52-3.7,.5-5.58-.04-3.84-.09-7.67-.1-11.51,0-2.25,.59-2.81,2.9-2.83,.9,0,1.8-.02,2.69,.09,.54,.07,1.04,.36,1.68,.59,.57-.66,1.53-.65,2.49-.64,.74,0,1.47,.02,2.21-.05,1.36-.12,2.35,.42,3.12,1.47,1.63,2.24,3.28,4.47,4.93,6.71,.11,.15,.23,.3,.39,.49,.14-.19,.26-.33,.37-.48,1.51-2.09,3.02-4.19,4.53-6.28,.27-.37,.55-.73,.86-1.06,.52-.55,1.18-.85,1.96-.85,1.22,0,2.44,0,3.66,.05,1.32,.05,2.12,.65,2.12,1.69,0,.53-.21,1.15-.52,1.59-1.48,2.03-3.03,4.01-4.56,6-1.21,1.58-2.4,3.17-3.62,4.73-.23,.3-.24,.49,0,.8,2.47,3.24,4.93,6.5,7.38,9.76,.5,.66,1,1.32,1.43,2.02,.82,1.33,.03,2.75-1.57,2.83-1.27,.07-2.55,.07-3.82,.07-1.16,0-1.92-.65-2.55-1.51-1.74-2.36-3.49-4.72-5.23-7.07-.11-.15-.23-.3-.4-.52Z"/>
  <path class="cls-1" d="M148.42,60.61c0-2.46,0-4.93,0-7.39,0-.17,.01-.35,.02-.52,.09-1.53,.79-2.19,2.37-2.23,.99-.02,1.98-.02,2.96,0,1.35,.03,2.04,.69,2.13,1.99,.04,.54,.03,1.08,.03,1.61-.01,4.55-.04,9.1-.03,13.64,0,.76,.14,1.52,.3,2.27,.76,3.4,3.47,4.06,5.92,3.73,1.8-.24,2.99-1.25,3.61-2.9,.57-1.53,.66-3.12,.65-4.72-.02-4.32-.09-8.64-.1-12.97,0-2.06,.64-2.66,2.78-2.69,.93-.01,1.87,.02,2.8,.07,1.02,.05,1.63,.57,1.82,1.54,.07,.34,.1,.69,.1,1.03,0,4.64,0,9.27,0,13.91,0,1.97-.24,3.92-.88,5.8-1.47,4.34-4.58,6.8-9.21,7.53-2.38,.37-4.74,.26-7.04-.43-4.5-1.36-7.06-4.42-7.84-8.81-.36-2.04-.33-4.14-.42-6.22-.06-1.4-.01-2.81-.01-4.22Z"/>
  <path class="cls-1" d="M175.5,65.22c0-4.06,0-8.12,0-12.19,0-.28,.02-.56,.06-.83,.16-1,.78-1.63,1.82-1.68,1.27-.06,2.55-.05,3.82,0,.9,.04,1.48,.6,1.65,1.47,.09,.47,.12,.97,.12,1.45,0,7.19,0,14.37,0,21.56,0,.99,.07,1.98,.01,2.97-.06,1.19-.71,1.81-1.93,1.9-1.02,.08-2.05,.12-3.07,.11-1.72-.03-2.44-.7-2.45-2.37-.03-4.13,0-8.26,0-12.39,0,0-.02,0-.02,0Z"/>
</svg>