<?xml version="1.0" encoding="UTF-8"?>
<svg id="Layer_1" data-name="Layer 1" xmlns="http://www.w3.org/2000/svg" viewBox="0 0 200 200">
  <defs>
    <style>
      .cls-1 {
        fill: #fbb247;
      }
    </style>
  </defs>
  <path class="cls-1" d="M200,130.51c-.9,1.85-2.28,2.34-4.08,2.32-7.16-.09-14.32-.04-21.48-.04-4.13,0-4.74-.69-4.84-5.4-.33-16.24-4.67-30.96-12.76-44.24-.26-.43-.54-.85-.81-1.26-.12-.18-.25-.34-.57-.75-.45,.66-.88,1.26-1.27,1.88-2.57,4.05-5.1,8.13-7.71,12.15-1.19,1.83-2.88,2.12-4.26,.92-1.32-1.15-1.51-2.95-.49-4.78,.28-.5,.59-.98,.9-1.47,6.58-10.41,13.16-20.81,19.74-31.22,.38-.6,.75-1.22,.89-2.18-14.61,12.2-29.21,24.39-43.86,36.62,5.39,11.97,4.11,22.84-3.76,32.78,2.49,.6,4.26,.4,5.84-2.35,3.58-6.24,7.57-12.17,11.39-18.22,.27-.42,.53-.86,.84-1.24,1.13-1.39,2.43-1.69,3.85-.65,1.32,.96,1.71,2.91,.8,4.55-1.05,1.89-2.25,3.67-3.39,5.48-3.08,4.89-6.17,9.77-9.33,14.77,.74,.54,1.33,.96,1.91,1.42,5.22,4.11,8.24,9.74,8.43,17.06,.17,6.8,.08,13.62,.05,20.43-.01,2.63-1.08,3.83-3.38,3.83-21.75,.02-43.49,.02-65.24,0-2.41,0-3.44-1.19-3.45-3.97-.03-6.51-.1-13.02,.02-19.53,.22-11.92,7.98-20.87,18.33-21.33,.62-.03,1.25,0,2.35,0-5.4-6.35-7.92-13.49-7.21-21.86,.57-6.65,3.09-12.28,7.43-16.8,7.71-8.03,20.59-9.86,30.74,.44,8.73-7.29,17.5-14.61,26.55-22.16-1.63-1.31-3.06-2.53-4.55-3.63-41.23-30.25-95.88-3.86-105.84,51.18-.88,4.87-1.04,9.93-1.38,14.92-.25,3.66-.98,4.62-4.16,4.62-7.49,0-14.97,0-22.46,0-2.81,0-3.85-1.12-3.77-4.27C.94,88.65,15.7,57.29,43.96,34.27c1.92-1.57,3.57-1.38,4.63,.32,1.12,1.79,.61,3.55-1.37,5.28-3.92,3.41-7.81,6.89-11.61,10.26,4.6,5.31,8.9,10.26,13.09,15.1,3.8-3.16,7.55-6.64,11.61-9.57,10.6-7.66,22.21-11.94,34.74-12.73,1.61-.1,2.08-.71,2.05-2.53-.09-5.61-.03-11.22-.04-16.84,0-.65-.07-1.31-.14-2.51-4.69,.66-9.27,1.12-13.8,1.98-7.93,1.5-15.5,4.4-22.81,8.26-.85,.45-2.05,1.02-2.73,.66-.97-.53-1.97-1.74-2.28-2.9-.41-1.57,.55-2.89,1.89-3.47,5.71-2.46,11.31-5.51,17.2-7.16,34.07-9.5,64.69-1.41,91.53,24.72,1.15,1.12,1.92,1.38,3.1,.19,1.17-1.18,2.49-2.14,3.96-3.38-.73-.78-1.35-1.5-2.01-2.17-19.74-19.94-42.77-30.23-69.02-31.04-.59-.02-1.17,0-1.76-.05-1.93-.14-3.04-1.32-3.08-3.25C97.08,1.45,98.29-.01,100.26,0c2.93,.02,5.86,.11,8.78,.39,23.99,2.36,45.26,12.35,63.67,30.22,2.19,2.12,4.27,4.38,6.34,6.66,1.83,2.01,1.91,3.34,.44,5.69-1.85,2.97-3.73,5.92-5.44,8.62,3.57,5.61,7.26,10.85,10.42,16.49,8.92,15.96,13.93,33.49,15.19,52.42,.04,.65,.22,1.29,.34,1.94v8.08Zm-69.84,33.56c0-5.7,.1-11.29-.02-16.87-.18-7.9-5.39-14.19-12.27-14.31-11.91-.22-23.82-.19-35.73,0-6.02,.09-11.4,5.18-12,11.88-.57,6.34-.12,12.8-.12,19.25h10.47c0-1.67-.01-3.17,0-4.66,.03-2.67,1.06-4.15,2.89-4.18,1.85-.03,2.93,1.45,2.96,4.08,.02,1.61,0,3.22,0,4.8h27.32c0-1.69-.01-3.24,0-4.8,.03-2.62,1.11-4.11,2.96-4.08,1.83,.03,2.87,1.51,2.9,4.18,.02,1.55,0,3.1,0,4.73h10.65ZM31.26,55.51C15.33,75.44,6.89,98.85,5.89,125.9H24.49c.96-21.27,7.63-39.7,19.92-55.27-4.4-5.06-8.68-9.97-13.15-15.12Zm138.97,2.13c-3.39,5.35-6.63,10.58-9.99,15.7-.93,1.42-1.02,2.31-.02,3.81,6.85,10.3,11.49,21.82,13.67,34.56,.8,4.66,1.24,9.4,1.86,14.14h18.29c-.5-24.37-9.09-49.93-23.8-68.21ZM103.07,21.3c-.06,.86-.14,1.44-.14,2.01,0,5.76,.06,11.51-.04,17.27-.03,1.86,.63,2.23,2.04,2.31,8.99,.55,17.66,2.85,25.75,7.33,5.7,3.16,11.09,7.08,16.97,10.89,4.62-3.86,9.73-8.13,14.96-12.51-17.22-17.17-36.91-26.23-59.53-27.31Zm-3.16,104.75c9.26,.03,16.82-8.54,16.87-19.13,.05-10.69-7.54-19.48-16.82-19.47-9.2,.01-16.76,8.71-16.77,19.29-.01,10.63,7.48,19.28,16.71,19.31Z"/>
  <path class="cls-1" d="M200,144.88c-1.05,1.64-2.47,2.14-4.22,2.12-7.29-.07-14.57-.02-21.86-.03-.65,0-1.31-.01-1.94-.17-1.56-.4-2.36-1.66-2.26-3.41,.09-1.75,.98-2.91,2.59-3.08,.9-.09,1.82-.06,2.73-.06,6.83,0,13.66,.05,20.49-.04,1.79-.02,3.3,.35,4.46,1.98v2.69Z"/>
  <path class="cls-1" d="M69.93,185.72v7.39h60.14v-7.7c-.87,0-1.63,0-2.39,0-12.17,0-24.33,0-36.5,0-.71,0-1.62,.25-2.1-.14-.91-.75-2.12-1.83-2.21-2.88-.09-1.06,.9-2.42,1.7-3.3,.45-.49,1.48-.39,2.25-.39,13.66-.02,27.33-.02,40.99-.01,3.4,0,4.22,.97,4.23,4.93,0,3.81,0,7.63,0,11.44,0,4.04-.82,4.95-4.42,4.95-13.14,0-26.29,0-39.43,0-8,0-16.01,0-24.01,0-3.4,0-4.23-.97-4.23-4.93,0-4.11-.03-8.23,0-12.34,.02-2.8,1.01-3.98,3.43-4.04,2.67-.06,5.34-.06,8,0,2.14,.04,3.45,1.36,3.47,3.34,.03,2.06-1.32,3.33-3.59,3.38-1.63,.03-3.25,.04-4.88,.07-.12,0-.23,.12-.47,.25Z"/>
  <path class="cls-1" d="M15.12,140.24c3.84,0,7.68-.02,11.52,0,2.33,.02,3.64,1.23,3.66,3.29,.02,2.06-1.33,3.41-3.6,3.42-7.68,.03-15.36,.03-23.04,0-2.31,0-3.63-1.28-3.65-3.35-.02-2.08,1.29-3.35,3.59-3.36,3.84-.03,7.68,0,11.52,0Z"/>
  <path class="cls-1" d="M184.9,154.75c1.43,0,2.86-.06,4.28,.02,1.69,.09,2.87,1.45,2.92,3.22,.05,1.74-1.11,3.36-2.75,3.43-3.05,.12-6.1,.13-9.15-.02-1.64-.08-2.71-1.72-2.57-3.54,.15-1.92,1.14-2.92,2.78-3.1,.13-.01,.26-.01,.39-.01,1.36,0,2.73,0,4.09,0h0Z"/>
  <path class="cls-1" d="M15.14,161.47c-1.43,0-2.86,.07-4.28-.02-1.78-.11-3.01-1.59-2.98-3.41,.03-1.84,1.27-3.23,3.08-3.27,2.79-.06,5.58-.06,8.37,0,1.86,.04,3.01,1.35,3.04,3.27,.03,1.9-1.13,3.3-2.94,3.42-1.42,.09-2.85,.02-4.28,.02Z"/>
</svg>