<?xml version="1.0" encoding="UTF-8"?>
<svg id="Layer_1" data-name="Layer 1" xmlns="http://www.w3.org/2000/svg" viewBox="0 0 200 202">
  <defs>
    <style>
      .cls-1 {
        fill: #fbb247;
      }
    </style>
  </defs>
  <path class="cls-1" d="M0,199.61V69.82c.91-2.02,2.54-2.51,4.62-2.5,8.79,.07,17.58,.03,26.37,.03,.7,0,1.4,0,2.33,0,0-1,0-1.77,0-2.53,0-18.6,.07-37.2-.05-55.8-.03-4.15,1.11-7.28,5.03-9.02H121.55c3.84,1.49,5.45,4.32,5.19,8.45-.17,2.72-.03,5.47-.03,8.41,3.18,0,6.09-.01,9.01,0,5.13,.03,7.69,2.6,7.71,7.74,0,2.94,0,5.88,0,9.03,2.98,0,5.76,0,8.54,0,5.6,.01,8.13,2.55,8.14,8.17,.01,7.69,0,15.38,0,23.07,0,.76,0,1.52,0,2.48,1.97,0,3.65,0,5.33,0,5.52,.02,8.02,2.52,8.03,8.05,0,7.23,0,14.46,0,21.69v3.9h2.09c5.67,0,11.33-.02,17,0,5.82,.02,8.82,4.25,6.86,9.79-10.1,28.61-20.22,57.22-30.35,85.82-1.39,3.92-3.51,5.37-7.66,5.37-52.29,0-104.57,0-156.86,.03-2.02,0-3.54-.58-4.52-2.39Zm8.11-4.41H162.48c10.3-29.1,20.59-58.18,30.96-87.49h-2c-50.15,0-100.3,.01-150.45-.05-1.67,0-2.19,.64-2.69,2.05-7.77,22.07-15.59,44.13-23.39,66.19-2.25,6.35-4.48,12.71-6.8,19.29Zm124.31-94.3h20.88V40.5H73.54v60.36h20.63c-16.58-15.19-11.41-36.29-1.31-45.54,12.62-11.56,30.66-10.39,41.66,.63,11.59,11.61,12.58,31.87-2.11,44.95Zm-82.39,0v-2.28c0-24.52,0-49.03,0-73.55,0-.98-.02-1.99,.19-2.94,.75-3.43,3.35-5.26,7.44-5.26,19.99-.01,39.98,0,59.98,0,.76,0,1.51,0,2.24,0V6.88H40.12V100.9h9.91Zm16.7,0c0-1.26,0-2.37,0-3.47,0-18.67,0-37.34,0-56.01,0-3.83,1.5-6.41,4.42-7.31,1.22-.38,2.56-.46,3.85-.46,19.73-.03,39.47-.02,59.2-.02,.81,0,1.62,0,2.42,0v-9.92H56.79V100.9h9.94ZM7.03,90.85c-.08,.03-.16,.06-.24,.09v87.15l.25,.04c8.15-23.04,16.3-46.09,24.51-69.28-.64,0-.9-.04-1.15,0-2.95,.49-5.91,.97-8.85,1.49-5.18,.91-7.65-.52-9.45-5.5-1.68-4.67-3.38-9.33-5.06-13.99Zm122.81,3.02c9.39-8.76,9.03-24.51-.56-33.69-9.59-9.19-25.43-8.15-33.9,2.3-8.73,10.76-5.54,25.24,1.49,31.16,2.14-5.94,1.63-5.43,6.81-10.19-4.86-7.77-4.6-14.6,.75-19.32,5.13-4.54,12.35-4.69,17.5-.36,5.78,4.86,6.18,11.27,1.13,19.84,3.65,2.38,5.99,5.72,6.79,10.27ZM8.33,74.15c.02,.34,0,.48,.03,.59,3.34,9.3,6.71,18.59,9.99,27.91,.48,1.37,1.31,1.17,2.28,1,3.65-.62,7.29-1.34,10.96-1.82,1.47-.2,1.76-.81,1.75-2.15-.05-7.94-.02-15.88-.03-23.83,0-.56-.09-1.12-.14-1.7H8.33Zm105.12,27.28c2.98-.78,5.92-1.5,8.83-2.35,.47-.14,1.06-.83,1.1-1.3,.3-3.5-.65-6.51-3.82-8.41-3.71-2.23-7.61-2.71-11.49-.64-3.34,1.78-4.88,4.82-4.63,8.63,.04,.65,.68,1.63,1.24,1.8,2.83,.86,5.73,1.51,8.76,2.27Zm53.2-.56v-26.63h-6.39v26.63h6.39Zm-53.14-33.49c-3.74-.05-6.78,2.92-6.79,6.65-.01,3.61,2.94,6.66,6.55,6.76,3.63,.11,6.73-2.97,6.74-6.71,.01-3.71-2.83-6.65-6.5-6.7Z"/>
  <path class="cls-1" d="M80.08,140.95c0,2.32-.05,4.62,.01,6.91,.06,2.26,1.29,3.5,3.54,3.6,1.56,.07,3.12,.02,4.69,.02,13.48,0,26.96,0,40.44,0,3.51,0,4.58-1.07,4.61-4.53,0-.26-.03-.53,0-.79,.39-3.22-.13-5.43-3.69-7.11-5.3-2.49-7.43-9.37-5.69-15.15,1.68-5.58,7.31-9.66,13.03-9.45,6.15,.23,11.38,4.53,12.65,10.41,1.45,6.74-1.85,13-8.26,15.53-1,.39-1.43,.86-1.39,1.98,.08,2.03,.08,4.08-.04,6.11-.33,5.68-4.38,9.63-10.04,9.7-6.05,.08-12.11,.02-18.17,.02-9.12,0-18.23,0-27.35,0-6.99,0-10.99-4.06-11.02-11.14,0-.13-.02-.26,0-.39,.46-3.5-.11-5.9-3.93-7.74-5.32-2.56-7.33-9.7-5.37-15.41,1.98-5.78,7.73-9.59,13.65-9.04,6.19,.57,11.15,5.21,12.1,11.29,.94,6.05-2.35,12.08-7.88,14.43-.59,.25-1.2,.48-1.89,.76Zm.22-7.71c2.4-1.31,3.56-4.13,2.86-6.99-.72-2.98-3.56-5.18-6.6-5.1-3.02,.07-5.58,2.18-6.3,5.19-.69,2.87,.49,5.66,2.93,6.93,.71-4.14,1.48-5.31,3.5-5.32,2.03,0,2.84,1.18,3.61,5.29Zm52.92,.06c.42-3.89,1.24-5.32,3.31-5.3,3.45,.03,3.53,2.75,3.62,5.36,2.68-1.64,3.72-4.3,2.97-7.17-.75-2.85-3.33-4.92-6.26-5.01-2.87-.09-5.69,2.05-6.53,4.95-.77,2.65,.37,5.59,2.89,7.18Z"/>
</svg>