<?xml version="1.0" encoding="UTF-8"?>
<svg id="Layer_1" data-name="Layer 1" xmlns="http://www.w3.org/2000/svg" viewBox="0 0 200 200">
  <defs>
    <style>
      .cls-1 {
        fill: #fbb247;
      }
    </style>
  </defs>
  <path class="cls-1" d="M-.41,172.17c4.31-11.06,11.45-19.09,22.03-21.05,0-9.29-.82-17.93,.38-26.28,.53-3.68,4.63-7.49,8.04-9.99,7.27-5.34,16.92-4.55,24.1,1.02,9.06,7.02,10.71,18.4,4.96,34.17,23.14,10.5,30.32,26.74,22.23,50.26H-.41v-28.13Zm25.95,19.88h31.51c0-3.49-.43-6.64,.15-9.59,.38-1.91,2.25-3.52,3.45-5.27,1.38,1.83,3.49,3.49,3.98,5.53,.69,2.88,.17,6.05,.17,9.24h10.24c0-4.13,.04-7.73,0-11.34-.19-14.25-7.98-22.02-22.42-22.21-8.36-.11-16.73-.26-25.08,.07-10.85,.44-18.78,7.38-19.82,17.45-.55,5.32-.1,10.75-.1,16.28h10.09c0-3.06-.53-6,.16-8.62,.61-2.32,2.56-4.29,3.92-6.42,1.25,2.24,2.99,4.36,3.61,6.76,.62,2.41,.14,5.11,.14,8.12Zm29.06-56.96c.05-9.49-5.34-15.92-13.34-15.93-7.75,0-13.21,6.19-13.35,15.14-.15,9.89,4.68,15.92,12.94,16.14,8.41,.22,13.7-5.68,13.75-15.34Z"/>
  <path class="cls-1" d="M119.07,200.3c-2.19-11.74-4.78-23.46,1.65-34.85,4.52-8.02,11.42-12.61,20.79-14.68-4.85-13.51-7.18-26.68,6.76-36.21,7.71-5.27,17.69-4.09,24.75,2.06,8.24,7.17,9.62,18.76,3.71,33.73,9.92,2.7,19.6,7.52,21.7,17.82,2.11,10.34,.69,21.39,.82,32.13H119.07Zm16.67-8.1c0-4.13-.4-7.55,.17-10.8,.27-1.57,2.36-2.83,3.63-4.23,1.26,1.41,3.29,2.66,3.62,4.26,.71,3.43,.54,7.03,.74,10.68h30.62c.21-3.92,.03-7.58,.77-11.04,.32-1.51,2.54-2.63,3.89-3.92,1.13,1.27,2.99,2.41,3.24,3.83,.62,3.52,.49,7.16,.68,11.02h9.83c0-4.83,.15-9.21-.03-13.57-.49-11.54-8.14-19.44-19.86-19.93-9.39-.39-18.83-.39-28.21,.03-10.11,.46-17.81,7.07-19.05,16.47-.73,5.55-.13,11.27-.13,17.19h10.1Zm36.76-56.36c.26-9.99-5.11-16.69-13.37-16.68-7.48,.01-13,5.98-13.31,14.39-.38,10.38,4.46,16.68,12.97,16.89,8.14,.19,13.48-5.48,13.72-14.6Z"/>
  <path class="cls-1" d="M66.43,81.11h8.08c0-3.64-.45-7.04,.18-10.24,.35-1.78,2.51-3.21,3.86-4.8,1.21,1.49,2.93,2.79,3.52,4.49,1.54,4.4,3.04,8.91,3.59,13.5,.19,1.54-2.41,4.77-3.95,4.91-6.23,.56-12.56,.46-18.81,.03-1.46-.1-3.97-2.5-3.94-3.8,.2-9.29-.34-18.88,1.84-27.77,2.53-10.37,11.6-15.42,21.67-18.02-5.92-16.23-3.95-28.5,5.43-35.15,7.79-5.53,18.04-5.23,25.53,.75,8.75,6.98,10.41,19.47,4.38,33.92,3.71,1.68,7.68,2.98,11.11,5.14,9.19,5.79,13.08,14.49,12.94,25.15-.3,23.72,3.04,19.65-20.46,20.04-1.55,.03-3.65,.28-4.52-.57-1.21-1.17-2.31-3.42-2.04-4.97,.74-4.32,1.97-8.62,3.51-12.73,.69-1.85,2.58-3.26,3.92-4.87,1.23,1.7,3.15,3.27,3.53,5.14,.6,2.96,.16,6.13,.16,9.2,6.01,2.17,8.01,.68,8.13-5.18,.43-20.87-6.27-28-27.04-28.01-6.02,0-12.04-.07-18.06,.02-14.56,.22-22.13,7.67-22.55,22.17-.1,3.61-.02,7.23-.02,11.66ZM113.48,23.69c-.03-9.58-5.43-15.76-13.59-15.57-7.88,.19-12.89,6.12-12.97,15.39-.09,9.84,4.88,15.83,13.18,15.88,8.32,.05,13.41-5.92,13.38-15.7Z"/>
  <path class="cls-1" d="M100.25,131.68c-5.56,4.64-10.38,9.03-15.64,12.82-1.63,1.18-4.45,.72-6.73,1.01,.49-2.19,.97-4.37,1.49-6.55,.05-.21,.35-.39,.57-.51,13.18-7.73,19.18-18.77,16.55-34.2-.28-1.66,2.32-3.8,3.58-5.71,1.34,1.84,4.08,3.93,3.8,5.49-2.87,15.86,3.79,26.77,16.91,34.96,1.41,.88,1.27,4.21,1.85,6.4-2.27-.21-5.12,.38-6.71-.77-5.26-3.8-10.07-8.22-15.69-12.93Z"/>
  <path class="cls-1" d="M100.11,186.27c-2.45-2.24-4.12-3.78-5.8-5.32,2.11-1.34,4.17-3.62,6.34-3.73,1.73-.09,3.6,2.46,5.41,3.85-1.72,1.5-3.43,3.01-5.95,5.21Z"/>
  <path class="cls-1" d="M51.86,42.47c-3.85,2.7-6.35,4.73-9.16,6.12-.43,.21-3.54-3.55-3.38-3.73,2.11-2.42,4.43-4.75,7.09-6.51,.48-.32,2.73,2.01,5.45,4.12Z"/>
  <path class="cls-1" d="M163.42,45.71c-3.32,1.51-5.8,3.32-6.46,2.81-2.47-1.9-4.35-4.57-6.45-6.95,1.46-1.09,3.67-3.42,4.26-3.07,2.7,1.61,4.94,3.97,8.66,7.21Z"/>
  <path class="cls-1" d="M27.54,82.84c-2.51,3.16-4.29,5.41-6.08,7.65-1.34-1.57-4.03-3.46-3.75-4.66,.63-2.64,2.75-4.93,4.26-7.36,1.59,1.24,3.17,2.48,5.57,4.36Z"/>
  <path class="cls-1" d="M186.16,88.56c-2.27,.66-5.26,2.53-6.64,1.71-2.24-1.32-4.05-4.23-4.8-6.83-.36-1.25,2.12-3.31,3.31-5,1.92,2.05,3.83,4.1,5.75,6.14,.8,1.32,1.59,2.65,2.39,3.97Z"/>
  <path class="cls-1" d="M36.58,60.08c-3.04,3.23-5.09,5.62-7.47,7.6-.21,.18-3.96-2.96-3.77-3.32,1.49-2.76,3.42-5.35,5.62-7.6,.28-.29,2.91,1.69,5.62,3.33Z"/>
  <path class="cls-1" d="M169.16,54.07c2.76,4.4,4.8,6.9,5.85,9.77,.31,.84-2.18,2.7-3.39,4.09-2.02-2.39-4.39-4.58-5.84-7.27-.47-.88,1.48-3.04,3.37-6.58Z"/>
  <path class="cls-1" d="M60.88,35.15c-.94-1.53-3.01-3.92-2.61-4.45,1.39-1.82,3.5-3.35,5.65-4.17,.6-.23,3.39,2.55,3.26,3.73-.27,2.34-1.88,4.52-2.94,6.77-1.12-.63-2.23-1.26-3.35-1.88Z"/>
  <path class="cls-1" d="M138.04,36.28c-2.22-2.9-3.94-4.6-4.79-6.65-.2-.48,3.09-3.38,3.79-3.05,2.03,.93,3.87,2.75,5.06,4.66,.31,.49-2.07,2.63-4.06,5.04Z"/>
  <path class="cls-1" d="M19.9,114.08c-1.81-3.88-3.5-5.8-3.26-7.44,.25-1.68,2.38-3.1,3.68-4.63,1.24,1.69,3.28,3.28,3.48,5.08,.17,1.56-1.75,3.35-3.9,6.99Z"/>
  <path class="cls-1" d="M179.67,114.1c-1.7-3.96-3.36-5.96-3.03-7.54,.36-1.71,2.58-3.03,3.99-4.51,1.12,1.7,3.04,3.37,3.12,5.12,.08,1.61-1.83,3.31-4.08,6.94Z"/>
</svg>