<?xml version="1.0" encoding="UTF-8"?>
<svg id="Layer_1" data-name="Layer 1" xmlns="http://www.w3.org/2000/svg" viewBox="0 0 200 200">
  <defs>
    <style>
      .cls-1 {
        fill: #fbb247;
      }
    </style>
  </defs>
  <path class="cls-1" d="M118.74,66.77c-.81-1.69-1.86-3.9-2.92-6.09-1.2-2.46-1.41-4.92-.1-7.16,2.84-4.84,5.79-9.51,8.83-14.03,1.32-1.96,2.8-1.65,4.26,.14,1.34,1.65,2.58,4.36,4.03,4.68,1.4,.3,2.99-1.92,4.53-2.91,1.4-.9,2.82-1.74,4.26-2.38,.98-.43,1.45-1.17,1.52-2.81,.1-2.18,.34-4.34,.51-6.51,.19-2.49,1.1-4.23,2.64-4.67,4.41-1.26,8.84-1.23,13.25,.02,1.43,.4,2.39,2.23,2.56,4.55,.18,2.39,.3,4.8,.59,7.16,.09,.72,.57,1.59,1.01,1.9,2.75,1.95,5.52,3.79,8.32,5.56,.4,.25,1.06,.17,1.4-.2,1.2-1.33,2.31-2.86,3.46-4.3,1.53-1.91,3.06-2.15,4.48-.03,2.94,4.36,5.8,8.87,8.54,13.54,1.46,2.5,1.27,4.93-.09,7.69-.96,1.95-2.41,3.84-2.62,6-.19,1.95,1.05,4.22,1.59,6.39,.66,2.63,1.35,5.27,1.84,7.98,.27,1.48,.75,1.98,1.62,2.11,1.36,.21,2.73,.49,4.08,.82,1.58,.39,2.6,2.05,2.9,4.57,.84,6.82,.77,13.65-.01,20.46-.29,2.52-1.49,4.12-3.15,4.4-1.41,.24-2.83,.47-4.21,.91-.42,.13-.92,.81-1.09,1.44-1.24,4.45-2.41,8.95-3.56,13.46-.14,.54-.12,1.43,.07,1.89,.82,1.93,1.73,3.77,2.63,5.61,1.25,2.56,1.46,5.05,.12,7.33-2.84,4.83-5.81,9.48-8.83,14.04-1.18,1.78-2.92,1.46-4.28-.23-1.19-1.48-2.35-3.03-3.58-4.41-.31-.35-.92-.39-1.29-.15-2.8,1.77-5.58,3.59-8.34,5.52-.44,.31-.91,1.18-1,1.91-.29,2.36-.41,4.77-.59,7.15-.2,2.48-1.29,4.3-2.8,4.73-4.28,1.22-8.55,1.27-12.83,0-1.55-.46-2.62-2.24-2.82-4.72-.17-2.17-.43-4.33-.5-6.51-.06-1.64-.51-2.27-1.45-2.83-2.61-1.54-5.18-3.24-7.7-5.12-.81-.61-1.33-.52-1.95,.3-.99,1.3-2.01,2.54-2.99,3.85-1.49,1.99-3.23,2.39-4.61,.34-3.03-4.53-5.96-9.24-8.81-14.06-1.15-1.94-1.01-4.44,0-6.63,.89-1.94,1.88-3.78,2.71-5.78,.25-.6,.28-1.74,.11-2.44-1.09-4.39-2.24-8.75-3.45-13.06-.19-.69-.71-1.45-1.16-1.61-1.24-.46-2.53-.67-3.8-.88-2.1-.35-3.22-1.97-3.6-5.24-.76-6.61-.71-13.21,.06-19.81,.29-2.49,1.25-4.04,2.82-4.4,1.45-.33,2.92-.45,4.35-.92,.5-.17,1.12-.96,1.32-1.72,1.26-4.75,2.41-9.56,3.71-14.81Zm-5.96,36.27c2.08,.85,3.86,1.48,5.6,2.3,1.53,.72,2.41,2.46,2.74,4.99,.7,5.41,1.93,10.54,3.87,15.08,1.43,3.34,1.27,6.37,.07,9.56-.75,1.98-1.55,3.9-2.29,5.75,1.32,2.18,2.58,4.25,3.74,6.17,1.55-1.55,2.95-3.05,4.41-4.38,1.64-1.49,3.23-1.41,4.88,.33,2.96,3.11,6.21,5.26,9.7,6.41,1.86,.61,3.02,2.33,3.5,5.18,.46,2.72,.83,5.48,1.26,8.35h5.21c.6-3.45,1.07-6.62,1.71-9.71,.39-1.88,1.26-3.05,2.56-3.53,3.85-1.44,7.49-3.75,10.82-7.24,1.12-1.18,2.35-1.3,3.52-.31,1.76,1.5,3.46,3.17,5.32,4.9,1.18-1.86,2.47-3.9,3.65-5.78-1.08-3.08-2.22-5.76-2.97-8.69-.37-1.44-.41-3.71,.07-4.97,2.15-5.68,3.79-11.63,4.74-18.08,.27-1.87,.98-3.17,2.11-3.73,1.91-.94,3.84-1.75,5.98-2.72v-8.23c-1.99-.8-3.77-1.4-5.51-2.24-1.56-.76-2.45-2.55-2.81-5.16-.74-5.54-2.05-10.75-4.02-15.46-1.09-2.62-1.21-5.15-.3-7.8,.83-2.42,1.77-4.73,2.69-7.15-1.26-2.02-2.53-4.06-3.73-5.98-1.63,1.57-3.12,3.1-4.67,4.48-1.53,1.36-3.01,1.2-4.52-.38-2.93-3.06-6.12-5.35-9.56-6.42-2.28-.71-3.41-2.81-3.92-6.12-.38-2.45-.68-4.93-1.04-7.55h-5.25c-.59,3.44-1.08,6.61-1.69,9.72-.42,2.11-1.45,3.21-2.82,3.7-3.41,1.22-6.72,3.03-9.61,6.18-2.09,2.27-4,2.12-6,.16-1.24-1.21-2.42-2.57-3.64-3.87-1.37,2-2.7,3.95-3.91,5.72,1.1,2.96,2.05,5.36,2.89,7.86,.81,2.44,.71,4.82-.29,7.21-2,4.77-3.36,10.03-4.12,15.63-.37,2.7-1.27,4.53-2.9,5.29-1.75,.81-3.53,1.42-5.44,2.18v8.34Z"/>
  <path class="cls-1" d="M156.11,15.71h-6.25v-5.06H21.08V139.52h1.75c27.59,0,55.18,.02,82.78-.05,1.33,0,2.13,.48,2.79,2.45,.87,2.6,2.03,4.94,3.16,7.64-1.34,0-2.51,0-3.68,0-24.11-.01-48.21-.03-72.32-.04-5.68,0-11.37,.03-17.05,.04-2.65,0-3.82-1.89-3.82-6.16,0-45.61,0-91.22,0-136.82,0-4.31,1.13-6.08,3.85-6.08,28.42,.01,56.83,.03,85.25,.04,16.09,0,32.17-.03,48.26-.04,3.08,0,4.07,1.6,4.07,6.58,0,2.84,0,5.67,0,8.63Z"/>
  <path class="cls-1" d="M170.91,177.2c-.63,9.3-3.34,16.2-8.48,20.5-2.56,2.14-5.33,2.8-8.23,2.8-36.35-.06-72.69-.06-109.04-.06-9.85,0-19.71,.04-29.56,.02-7.38-.01-13.75-7.65-15.27-19.09-.66-4.99-.47-10.3-.44-15.47,.01-2.75,1.53-4.38,3.51-4.38,7.56,0,15.13,0,22.69,0,11.73,0,23.47-.03,35.2,.05,1.11,0,2.34,.27,3.3,1.06,5.06,4.12,10.34,5.62,16.02,5.13,5.62-.49,11.27-.05,16.91-.15,1.25-.02,2.53-.42,3.74-.98,1.75-.82,3.51-1.72,5.15-2.98,3.83-2.94,7.89-1.93,11.89-2.11,.21,0,.46,.14,.63,.35,2.71,3.19,5.4,6.4,8.18,9.7-2.47,0-4.92,0-7.37,0-8.92,0-8.91,.04-17.18,4.93-1.21,.72-2.56,1.12-3.85,1.13-8.11,.1-16.23-.02-24.34,.1-2.15,.03-4.21-.31-6.09-1.93-4.27-3.69-8.82-4.42-13.62-4.34-15.72,.27-31.44,.1-47.16,.1h-1.17c-1.18,10.67,3.04,18.83,9.64,18.83,22.96,.02,45.93,0,68.89,0s46.84,0,70.26,0c4.13,0,7.04-3.07,8.81-8.99,.16-.55,.42-1.27,.73-1.42,2.03-.99,4.09-1.84,6.28-2.8Z"/>
  <path class="cls-1" d="M131.09,23.36c-6.58,5.05-12.03,11.45-16.7,19.57-.36,.62-1.1,.97-1.67,.97-17,.05-34.01,.04-51.01,.04-10.17,0-20.35,0-30.52,0-.54,0-1.08,0-1.67,0V23.36h101.57Z"/>
  <path class="cls-1" d="M62.39,97.09H29.54V54.58H62.39v42.5Z"/>
  <path class="cls-1" d="M104.03,127.68c-4.95,0-9.76,0-14.57,0-19.16,0-38.31,0-57.47,.01-1.08,0-2.08-.05-2.21-2.27-.09-1.46,.31-2.41,1.26-2.59,.5-.09,1.01-.06,1.51-.06,22.82,0,45.64,.03,68.47-.07,1.57,0,2.39,.62,2.63,3.06,.05,.56,.21,1.1,.38,1.92Z"/>
  <path class="cls-1" d="M101.02,107.38c.17,1.76,.32,3.25,.49,4.95-3.87,0-7.67,0-11.47,0-19.34,0-38.68,0-58.03,0-1.59,0-2.38-.77-2.18-2.47,.1-.89,.78-1.63,1.22-2.4,.07-.12,.26-.07,.4-.07,9.26,.02,18.52,.05,27.78,.06,3.16,0,6.32-.06,9.47-.06,10.04,0,20.08,0,30.12,0,.68,0,1.36,0,2.19,0Z"/>
  <path class="cls-1" d="M85.94,62.25c-4.49,0-8.98-.01-13.47,.01-.94,0-1.76-.22-2.09-1.85-.33-1.6,.39-3.1,1.61-3.26,.73-.1,1.47-.02,2.2-.02,8.34,0,16.68,0,25.02,.03,.57,0,1.3,.08,1.67,.62,.39,.57,.75,2.01,.55,2.59-.28,.85-1.06,1.77-1.64,1.81-3.02,.16-6.05,.05-9.07,.04-1.59,0-3.19,0-4.78,0,0,.01,0,.03,0,.04Z"/>
  <path class="cls-1" d="M85.92,73.29c4.62,0,9.24,0,13.86,0,1.02,0,1.72,.75,1.77,2.38,.05,1.65-.59,2.52-1.62,2.6-.46,.04-.91,.04-1.37,.04-8.64,0-17.27,0-25.91-.01-.23,0-.46,0-.69-.02-1.04-.06-1.67-.98-1.64-2.59,.03-1.64,.71-2.42,1.75-2.41,3.02,.02,6.04,.03,9.06,.03,1.6,0,3.19,0,4.79,0,0-.01,0-.02,0-.04Z"/>
  <path class="cls-1" d="M85.64,94.33c-4.49,0-8.98-.04-13.46,.03-1.05,.02-1.77-.6-1.85-2.19-.09-1.76,.68-2.63,1.74-2.67,1.78-.06,3.57-.04,5.35-.04,7.28,0,14.57,0,21.85,0,1.73,0,2.31,1.21,1.67,3.81-.14,.57-.92,1.04-1.41,1.04-4.63,.08-9.25,.05-13.88,.05v-.03Z"/>
  <path class="cls-1" d="M152.92,125.19c-9.07,.11-16.54-11.69-16.58-26.18-.04-14.44,7.41-26.64,16.43-26.51,8.9,.13,16.52,11.13,16.7,26.19,.17,14.49-7.33,26.38-16.54,26.5Zm9.74-26.51c.32-8.41-5-15.36-8.86-15.4-6.26-.07-10.69,6.46-10.68,15.62,.01,8.57,4.41,15.6,9.77,15.62,5.41,.01,9.78-7.08,9.77-15.83Z"/>
</svg>