<?xml version="1.0" encoding="UTF-8"?>
<svg id="Layer_1" data-name="Layer 1" xmlns="http://www.w3.org/2000/svg" viewBox="0 0 200.01 230">
  <defs>
    <style>
      .cls-1 {
        fill: #fbb247;
      }
    </style>
  </defs>
  <path class="cls-1" d="M134.64,229.43c4.5-3.46,9.01-6.41,12.86-10,16.86-15.75,17.71-39.44,2.42-58.54-8.91-11.14-20.9-18.53-32.94-25.94-8.13-5-16.26-10.06-23.84-15.79-6.23-4.71-10.53-10.94-8.94-20.79-7.62,6.47-11.58,13.3-12.29,21.73-.92,10.92,5.58,18.73,12.13,26.61,3,3.61,5.85,7.7,7.32,12.05,2.1,6.19,.32,12.12-5.57,15.89-5.78,3.7-12.05,3.71-18.07,.29-5.57-3.17-8.26-9.4-7.18-16,.24-1.49,.54-2.98,1.02-5.65-14.19,10.22-23.99,21.89-25.43,38.33-1.51,17.27,8.61,28.81,22.01,38.39-7.31-.68-22.16-7.77-30.89-14.75C2.82,195.73-5.76,166.43,3.85,135.84c6.71-21.33,19.65-38.9,35.52-54.51,10.56-10.38,21.89-20.03,32.91-29.97,8.19-7.38,15.75-15.23,20.94-24.97,4.24-7.97,6.48-16.2,3.03-26.4,11.13,8.95,18.63,18.73,22.7,30.84,3.4,10.13,2.51,20.17-.36,30.38-2.13,7.56-4.13,15.42-4.23,23.17-.19,13.59,13.71,22.61,25.73,17.56,6.25-2.62,9.83-7.13,9.93-14.39,1.23,.51,2.37,.86,3.39,1.43,19.89,11.05,35.84,25.64,43.15,47.31,9.31,27.59-.54,55.51-25.92,75.1-11.31,8.73-26.19,16.21-35.98,18.02h-.02Z"/>
</svg>