<?xml version="1.0" encoding="UTF-8"?>
<svg id="Layer_1" data-name="Layer 1" xmlns="http://www.w3.org/2000/svg" viewBox="0 0 200 200">
  <defs>
    <style>
      .cls-1 {
        fill: #fbb247;
      }
    </style>
  </defs>
  <path class="cls-1" d="M66.06,198.98c10.15-6.84,8.56-17.47,9.72-28.12-2.17,0-3.98,0-5.78,0-18.27,0-36.54,.02-54.82,0-10.16-.01-15.04-5.09-15.16-15.72-.05-4.75,0-9.5,0-14.51H199.55c0,6.78,.57,13.37-.16,19.8-.73,6.47-6.43,10.39-13.57,10.41-18.44,.06-36.89,.02-55.33,.02-1.85,0-3.69,0-6.1,0,.78,10.55-.51,21.07,9.51,28.17-.37,.33-.74,.65-1.11,.98H67.19c-.38-.34-.76-.68-1.13-1.02Z"/>
  <path class="cls-1" d="M200,137.64H.27c-.09-1.99-.26-3.88-.26-5.76C0,91.93,0,51.99,0,12.04,.01,2.49,2.4,0,11.56,0c58.96,0,117.91,0,176.87,0,9.14,0,11.56,2.51,11.56,12.05,.01,39.95,0,79.89,0,119.84,0,1.76,0,3.51,0,5.75ZM7.49,7.46v122.61H192.67c.08-1.99,.22-3.74,.22-5.48,.01-36.92-.08-73.83,.12-110.75,.03-5.16-1.38-6.51-6.28-6.49-57.76,.18-115.52,.11-173.28,.11H7.49Z"/>
  <path class="cls-1" d="M84.98,35.15c1.49-1.42,2.82-3.11,4.51-4.2,2.34-1.5,4.39-1.11,5.93,1.71,1.91,3.48,4.14,3.05,5.47-.42,1.2-3.13,3.07-3.14,5.71-2.62,2.74,.54,4.26,1.59,4.24,4.82-.02,3.68,1.82,5.05,4.9,2.74,2.63-1.97,4.25-.8,6.15,1.15,1.98,2.03,2.71,3.76,.92,6.45-2.1,3.15-.95,5.22,2.69,5.05,3.18-.15,4,1.54,4.64,4.33,.65,2.85,.44,4.66-2.45,5.95-3.39,1.51-3.4,3.9-.33,5.86,2.4,1.54,2.7,3.22,1.69,5.8-.96,2.44-1.66,4.61-4.95,4.06-3.61-.61-5.53,.85-3.62,4.78,1.3,2.68,.52,4.21-1.6,5.79-2.22,1.66-4.02,3.03-6.62,.37-2.66-2.71-4.76-1.68-5.14,2.1-.33,3.31-2.13,3.95-4.86,4.08-2.67,.13-4.55-.2-5.32-3.44-.87-3.67-3.06-4.34-5.35-1.21-1.92,2.63-3.69,2.34-6.11,.93-2.37-1.38-3.75-2.78-2.85-5.89,1.25-4.3-.94-4.58-4.39-4.29-1.6,.13-4.06-1.28-4.84-2.74-.8-1.51-.79-4.61,.21-5.81,2.68-3.23,2.76-4.83-1.27-6.66-1.41-.64-2.8-3.38-2.69-5.05,.11-1.71,1.78-4.26,3.27-4.75,3.92-1.26,4.7-2.62,2.29-6.37-.84-1.31-.49-4.43,.5-5.77,1.02-1.37,3.82-2.6,5.25-2.09,3.84,1.39,5.05,.2,4.02-4.67Zm14.89,9.21c-8.85,.1-15.8,7.49-15.75,16.75,.05,9.14,7.24,16.63,15.98,16.63,8.88,0,16.34-7.95,16.08-17.13-.26-9.21-7.42-16.34-16.3-16.24Z"/>
  <path class="cls-1" d="M139.91,43.78c2.15-.47,3.98-.87,5.82-1.28,.05,2.02,.42,4.11,.09,6.06-.69,4.02-1.66,8.01-2.72,11.94-.28,1.02-1.22,2.42-2.02,2.56-.83,.14-2.2-.82-2.76-1.69-2.46-3.85-4.77-7.81-7.02-11.8-2.45-4.33-1.89-5.25,3.05-5.32-3.36-12.35-20.09-25.81-38.38-23.73-14.31,1.63-24.78,9.23-31.65,22.43-.73,1.41-2.48,2.24-3.76,3.34-.05-1.87-.79-4.12-.05-5.55,8.03-15.72,20.58-24.56,37.77-24.98,17.61-.42,30.71,8.01,39.53,23.82,.85,1.53,1.57,3.13,2.1,4.19Z"/>
  <path class="cls-1" d="M60.1,78.51c-2.2,.45-4.04,.83-5.88,1.2-.03-2.03-.37-4.12-.04-6.09,.65-3.85,1.56-7.67,2.59-11.43,.33-1.22,1.36-2.23,2.07-3.34,1.03,.78,2.38,1.33,3.04,2.37,2.38,3.69,4.58,7.51,6.77,11.34,2.48,4.33,2.07,5.03-3.51,5.65,6.34,13.16,16.16,21.24,29.99,23.12,15.75,2.15,28.44-3.86,37.75-17.38,.89-1.3,1.38-2.94,2.41-4.07,1.3-1.43,2.96-2.51,4.46-3.75-.13,1.91,.29,4.11-.48,5.68-6.31,12.83-16.36,20.88-29.85,23.81-19.5,4.25-38.39-5.36-47.66-23.85-.62-1.24-1.27-2.47-1.67-3.25Z"/>
  <path class="cls-1" d="M99.81,122.25c-10.74,0-21.48-.03-32.22,.02-3.97,.02-7.54-.84-7.42-5.84,.11-4.6,3.46-5.46,7.27-5.45,21.65,.05,43.3,.05,64.96,0,4.01,0,7.5,.88,7.42,5.84-.08,4.67-3.53,5.46-7.28,5.45-10.91-.04-21.82-.01-32.73-.01Zm-37.4-5.51l-.05-.1c1.69,1.04,3.38,2.98,5.08,3,21.7,.22,43.39,.23,65.09,.04,1.71-.01,3.4-1.93,5.1-2.96-1.63-1.14-3.25-3.25-4.9-3.26-21.87-.24-43.73-.25-65.6-.04-1.58,.01-3.15,2.17-4.72,3.33Z"/>
  <path class="cls-1" d="M62.41,116.74c2.14-.78,4.27-2.2,6.41-2.23,15.01-.2,30.03-.12,45.05-.09,2.28,0,5.18-.6,4.11,4.2-6.38,0-12.82,0-19.27,0-10.07,0-20.14,.11-30.2-.09-2.05-.04-4.07-1.21-6.13-1.88-.02-.02,.03,.08,.03,.08Z"/>
</svg>