<?xml version="1.0" encoding="UTF-8"?>
<svg id="Layer_1" data-name="Layer 1" xmlns="http://www.w3.org/2000/svg" viewBox="0 0 200 200">
  <defs>
    <style>
      .cls-1 {
        fill: #fbb247;
      }
    </style>
  </defs>
  <path class="cls-1" d="M161.88,0c5.42,4.02,7.38,10.85,6.89,20.22-.33,6.27-.06,12.62-.06,19.36h-6.16c0-6.63,0-13.54,0-20.45,0-8.27-.57-9.2-5.71-9.2-48.33,0-96.66,0-144.99,0-5.03,0-5.64,.95-5.64,8.79,0,36.33,0,72.66,0,108.99,0,2.16,0,4.31,0,7.35,1.36,0,2.56,0,3.76,0,39.37,0,78.75,.17,118.12-.23,4.97-.05,8.02,1.91,9.44,10.05H6.23c0,5.35-.07,10.13,.03,14.9,.07,3.34,1.3,5.13,3.41,5.25,.62,.04,1.25,.02,1.87,.02,48.33,0,96.66,0,144.99,0,3.7,0,7.41,0,11.18,0-1.21,6.61-4.25,9.85-9.09,9.86-18.85,.03-37.71,.01-56.56,.02-1.56,0-3.11,0-4.95,0v15.15c2.54,0,5.12-.34,7.65,.13,1.48,.27,3.59,1.3,4.08,2.98,.46,1.6-.82,4.49-1.33,6.81H61.25c-.51-2.31-1.79-5.18-1.34-6.78,.48-1.68,2.58-2.75,4.05-3.02,2.53-.48,5.11-.13,7.71-.13v-15.13c-1.37,0-2.5,0-3.62,0-18.49,0-36.98-.27-55.47,.15-5.83,.13-10.08-2.46-12.58-11.08V11C1.52,6.09,3.73,2.31,6.88,0H161.88ZM90.5,175.26h-12.19v14.42h12.19v-14.42Z"/>
  <path class="cls-1" d="M200,110c-1.79,2.59-3.72,5-5.32,7.87-.73,1.3-1.44,3.88-1.11,5.24,1.78,7.47-.5,12.34-3.55,17.19-2.83,4.5-5.87,6.91-9.8,4.3-1.86-1.24-2.94-.19-3.68,2.57-1.63,6.03-4.67,7.81-8.58,7.86-4.3,.05-8.19-.56-10.12-7.91-.82-3.13-2.1-3.54-4-2.33-3.54,2.25-6.43,.24-9.04-3.84-3-4.69-5.9-9.43-4.05-16.88,.93-3.73,.1-5.5-1.91-7-4.08-3.04-4.45-8.83-4.47-15.16-.02-6.17,.87-11.31,4.59-14.06,2.13-1.57,2.65-3.48,1.77-7.07-1.77-7.24,1.04-11.88,3.94-16.5,2.57-4.09,5.42-6.37,8.98-4.13,2.2,1.38,3.42,.66,4.38-2.83,1.74-6.3,5.19-7.32,9.09-7.32,3.88,0,7.39,.86,9.16,7.15,1.04,3.69,2.32,4.34,4.65,3,1.36-.79,3.12-.77,4.54-.18,5.75,2.42,9.34,12.86,8.03,22.06-.22,1.54,.56,3.83,1.28,5.24,1.6,3.1,3.46,5.85,5.22,8.74v14Zm-45.83-37.03c-1.55-2-2.8-5.43-5.62-1.17-2.91,4.41-1.85,7.14,.25,10.03-1.05,3.92-2.16,7.33-2.87,10.95-.5,2.55-1.01,4.11-2.91,3.86-2.82-.37-2.42,3.01-2.41,5.82,0,2.79-.42,5.85,2.38,6.07,.9,.07,2.2,1.07,2.56,2.24,1.23,3.98,2.12,8.22,3.2,12.61-.52,.92-1.2,1.95-1.75,3.14-1.6,3.49,.75,4.58,1.67,6.37,.85,1.67,2.09,4.57,3.47,1.82,1.89-3.73,3.42-2.1,5.29-.46,1.26,1.1,2.81,1.44,4.02,2.64,.85,.84,1.92,2.56,1.93,3.9,.03,4.29,1.63,4.34,3.54,4.28,1.99-.07,4.14,.63,4.01-4.47-.03-1.14,.56-2.94,1.16-3.38,2.62-1.91,5.35-3.44,8.08-5.12q3.27,4.36,5.2,1.44,3.02-4.58,.27-10.51c.99-3.72,2.15-7.28,2.86-11.06,.46-2.46,.97-3.82,2.67-3.58,3.03,.42,2.6-3.09,2.61-6.05,.01-2.85,.29-5.86-2.52-5.84-.82,0-2.08-.9-2.39-1.95-1.22-4.16-2.15-8.55-3.39-13.68,.44-.51,1.23-1.14,1.78-2.12,1.66-2.96-.17-4.51-1.2-6.06-1.07-1.61-2.15-5.46-3.93-2.25-1.83,3.29-3.22,2.18-5.04,.48-1.24-1.16-2.65-2.04-4.05-2.54-1.58-.57-2.38-1.62-2.21-4.36,.27-4.44-1.7-4.14-3.52-4.07-1.84,.06-3.92-.7-3.9,4.15,0,1.28-.63,3.2-1.3,3.72-2.51,1.93-5.15,3.39-7.96,5.17Z"/>
  <path class="cls-1" d="M44.79,72.63c7.23,7.72,14.23,15.2,21.23,22.68,.87,.92,2.08,1.55,2.51,2.85,.69,2.08,1.55,5.06,1.09,6.83-.8,3.07-2.85,2.99-4.54,1.2-9.11-9.66-18.22-19.33-27.27-29.12-2.52-2.73-2.46-6.42,.12-9.21,8.88-9.61,17.81-19.1,26.73-28.62,1.72-1.83,3.61-2.69,4.94,.5,1.4,3.33,.31,5.88-1.59,7.89-6.95,7.35-13.86,14.76-20.79,22.17-.75,.8-1.47,1.7-2.45,2.84Z"/>
  <path class="cls-1" d="M124.1,72.5c-7.71-8.22-14.97-15.97-22.23-23.73-.78-.83-1.9-1.48-2.2-2.65-.49-1.92-1-4.8-.45-6.15,.55-1.34,2.43-1.75,3.71-1.67,.9,.06,1.77,1.6,2.63,2.52,8.14,8.67,16.3,17.32,24.42,26.02,3.72,3.98,3.74,7.29,.02,11.28-8.47,9.09-16.97,18.08-25.46,27.14-1.86,1.98-3.87,3.6-5.44-.13-1.54-3.68,.04-6.07,1.95-8.09,7.54-7.98,15.05-16.03,23.04-24.55Z"/>
  <path class="cls-1" d="M74.85,110.79c.31-1.99,.46-2.95,.62-3.91,3.96-23.75,7.91-47.51,11.9-71.25,.26-1.54,.65-3.58,1.37-4.22,.93-.81,2.85-1.24,3.3-.4,.86,1.59,1.57,4.42,1.29,6.35-1.34,9.38-3.03,18.64-4.58,27.94-2.5,14.92-5,29.83-7.47,44.76-.52,3.14-1.62,5.44-3.68,4.57-1.13-.48-1.98-2.7-2.76-3.86Z"/>
  <path class="cls-1" d="M84.1,159.91c-3.84,0-7.68-.02-11.52,.01-2.19,.02-3.76-1.41-3.7-5.13,.05-3.45,1.61-4.74,3.64-4.73,7.89,.02,15.77,.04,23.66,.04,2.17,0,3.76,1.31,3.68,5.11-.07,3.46-1.56,4.73-3.62,4.71-4.05-.05-8.09-.01-12.14-.01Z"/>
  <path class="cls-1" d="M29.33,153.07c-1.7,2.14-2.7,4.33-3.58,4.22-.93-.12-2.23-2.27-2.44-3.86-.14-1.04,1.29-3.65,2.11-3.76,.98-.13,2.05,1.66,3.91,3.39Z"/>
  <path class="cls-1" d="M18.85,153.4c-1.77,1.97-2.85,4.08-3.71,3.88-.94-.23-2.17-2.46-2.34-4.07-.11-1.05,1.43-3.51,2.28-3.57,.96-.06,1.98,1.85,3.77,3.76Z"/>
  <path class="cls-1" d="M167.18,82.63c6.91-.08,12.48,8.86,12.44,19.98-.03,10.91-5.46,19.66-12.26,19.77-6.98,.11-12.53-8.58-12.6-19.74-.07-11.09,5.42-19.93,12.42-20.01Zm.19,9.86c-3.53-.08-6.47,4.45-6.47,9.96,0,5.35,2.74,9.85,6.1,10.06,3.46,.21,6.41-4.36,6.44-9.97,.03-5.36-2.76-9.97-6.08-10.05Z"/>
</svg>