<?xml version="1.0" encoding="UTF-8"?>
<svg id="Layer_1" data-name="Layer 1" xmlns="http://www.w3.org/2000/svg" viewBox="0 0 72 47.69">
  <defs>
    <style>
      .cls-1 {
        fill: #5c2e63;
      }
    </style>
  </defs>
  <path class="cls-1" d="m41.56,32.8c.12.58.17,1.6.17,3.06v11.41h-3.15v-11.29c0-1.28-.12-2.24-.37-2.87-.24-.64-.68-1.14-1.3-1.52-.62-.38-1.35-.57-2.19-.57-1.34,0-2.5.43-3.47,1.28-.97.85-1.46,2.46-1.46,4.84v10.14h-3.15v-18.56h2.83v2.64c1.36-2.04,3.33-3.06,5.91-3.06,1.12,0,2.15.2,3.08.6.94.4,1.64.93,2.11,1.58.47.65.79,1.43.98,2.32Zm30.44,14.59c-.89.19-1.68.28-2.38.28-1.14,0-2.03-.18-2.66-.54-.63-.36-1.07-.84-1.33-1.42-.26-.59-.38-1.83-.38-3.71v-11.21h-6.83s.03.03.05.05c1.57,1.69,2.36,4.07,2.36,7.13,0,.19,0,.47-.02.84h-13.84c.12,2.04.69,3.6,1.73,4.68,1.04,1.08,2.33,1.63,3.88,1.63,1.15,0,2.14-.3,2.95-.91.82-.61,1.46-1.57,1.94-2.9l3.25.4c-.51,1.9-1.46,3.37-2.85,4.42-1.39,1.05-3.16,1.57-5.31,1.57-2.71,0-4.87-.84-6.46-2.51-1.59-1.67-2.39-4.02-2.39-7.03s.8-5.55,2.41-7.27c1.61-1.72,3.69-2.59,6.26-2.59.31,0,.61.01.91.04h11.95v-4.03h3.13v4.03h3.16v2.45h-3.16v11.38c0,.9.06,1.47.17,1.73.11.26.29.46.54.61.25.15.61.23,1.07.23.35,0,.81-.04,1.38-.12l.45,2.78Zm-14.49-11.18c-.14-1.56-.54-2.73-1.19-3.51-1-1.21-2.3-1.82-3.9-1.82-1.44,0-2.66.48-3.64,1.45-.98.97-1.53,2.26-1.63,3.88h10.36Zm-35.34,7.28c-.57,0-1.05.2-1.45.61-.4.41-.59.9-.59,1.49s.2,1.06.59,1.48.88.62,1.45.62,1.08-.21,1.49-.62c.41-.41.61-.91.61-1.48s-.2-1.06-.61-1.48c-.41-.42-.9-.62-1.49-.62Zm20.17-18.07c-1.63.72-3.69,1.07-6.17,1.07-4.36,0-7.38-.84-9.05-2.52,0,0-.01-.01-.02-.02l.79,2.1h-8.29l-1.28-4.23h-8.99l-1.25,4.23H0L9.63.44h8.64l6.43,17.12,7.11-.45c.16,1.22.5,2.16,1,2.8.82,1.04,1.98,1.56,3.5,1.56,1.13,0,2-.26,2.61-.8.61-.53.92-1.14.92-1.84s-.29-1.26-.87-1.78c-.58-.52-1.93-1.02-4.05-1.49-3.47-.78-5.95-1.82-7.43-3.11-1.49-1.29-2.24-2.94-2.24-4.95,0-1.32.38-2.56,1.14-3.73.76-1.17,1.91-2.09,3.44-2.76,1.53-.67,3.63-1.01,6.3-1.01,3.27,0,5.77.61,7.49,1.83,1.72,1.22,2.74,3.15,3.07,5.81l-7.46.44c-.2-1.15-.61-1.99-1.25-2.52-.63-.52-1.51-.79-2.63-.79-.92,0-1.61.2-2.08.59-.47.39-.7.87-.7,1.42,0,.41.19.78.58,1.1.37.34,1.26.65,2.66.94,3.46.75,5.94,1.5,7.44,2.26,1.5.76,2.59,1.71,3.27,2.84.35.58.61,1.19.78,1.84V.44h13.16c2.87,0,5.01.68,6.44,2.04,1.43,1.36,2.14,3.3,2.14,5.82s-.78,4.61-2.33,6.06c-1.56,1.46-3.93,2.18-7.12,2.18h-4.33v9.51h-7.95v-6.32c-.22.89-.59,1.73-1.12,2.53-.91,1.39-2.18,2.44-3.81,3.15Zm12.88-14.06h1.94c1.53,0,2.6-.26,3.22-.8.62-.53.93-1.21.93-2.04s-.27-1.49-.8-2.04c-.54-.56-1.54-.84-3.02-.84h-2.25v5.72Zm-38.55,4.93l-2.83-9.21-2.8,9.21h5.63Z"/>
</svg>