<?xml version="1.0" encoding="UTF-8"?>
<svg id="Layer_1" data-name="Layer 1" xmlns="http://www.w3.org/2000/svg" viewBox="0 0 115.08 114.31">
  <defs>
    <style>
      .cls-1 {
        fill: #5c2e63;
        stroke: #5c2e63;
        stroke-miterlimit: 10;
      }
    </style>
  </defs>
  <path class="cls-1" d="M38.75,113.52c-11.81,.08-23.62,.06-35.42,.29-3.97,.08-2.6-2.66-2.6-4.43,0-29.6,.1-59.21,.17-88.81,.01-5.66,.12-11.31-.05-16.96C.77,1.14,1.61,.58,3.95,.59c19.63,.12,39.3-.47,58.9,.37,12.4,.53,23.53,5.16,32.7,14.5,6.54,6.66,12.66,13.22,15.35,22.35-11.34,.13-22.69,.25-34.03,.38-11.91-1.16-23.85-.2-35.77-.53-2-.06-2.57,.86-2.55,2.7,.15,11.94,.24,23.88,.35,35.82-.05,12.45-.09,24.89-.14,37.34Z"/>
  <path class="cls-1" d="M76.86,38.18c11.34-.13,22.69-.26,34.03-.38,12.57,31.33-8.36,68.76-41.8,74.83-10.07,1.83-20.22,.89-30.34,.89,.05-12.45,.09-24.89,.14-37.34,6.29-.07,12.58,.05,18.86-.26,11.49-.57,18.86-8.42,18.95-19.87,.05-5.95,.11-11.91,.16-17.86Z"/>
</svg>