<?xml version="1.0" encoding="UTF-8"?>
<svg id="Layer_1" data-name="Layer 1" xmlns="http://www.w3.org/2000/svg" viewBox="0 0 72 37.87">
  <defs>
    <style>
      .cls-1 {
        fill: #5c2e63;
      }
    </style>
  </defs>
  <path class="cls-1" d="m56.44,14.43c.52.58.65,1.58.37,2.99-.29,1.47-.84,2.52-1.65,3.14-.82.63-2.06.94-3.72.94h-2.51l1.54-7.94h2.83c1.57,0,2.62.29,3.14.87Zm-35.41-.87h-2.83l-1.54,7.94h2.51c1.67,0,2.91-.31,3.72-.94.82-.63,1.37-1.68,1.65-3.14.27-1.41.15-2.41-.37-2.99-.52-.58-1.57-.87-3.14-.87Zm50.97,5.38c0,10.46-16.12,18.94-36,18.94S0,29.4,0,18.94,16.12,0,36,0s36,8.48,36,18.94Zm-44.1,1.31c.43-.77.73-1.61.91-2.54.44-2.25.11-4-.99-5.26-1.1-1.26-2.84-1.88-5.23-1.88h-7.95l-3.69,18.98h4.13l.98-5.04h3.54c1.56,0,2.85-.16,3.86-.49,1.01-.33,1.93-.88,2.75-1.65.69-.64,1.25-1.34,1.68-2.11Zm14.55,4.25l1.72-8.83c.35-1.8.09-3.1-.79-3.9-.87-.8-2.46-1.2-4.76-1.2h-3.65l.98-5.05h-4.1l-3.69,18.98h4.1l2.11-10.87h3.28c1.05,0,1.74.17,2.06.52.32.35.39,1,.21,1.95l-1.63,8.4h4.17Zm17.64-12.05c-1.1-1.26-2.84-1.88-5.23-1.88h-7.95l-3.69,18.98h4.13l.98-5.04h3.54c1.56,0,2.85-.16,3.86-.49,1.01-.33,1.93-.88,2.75-1.65.69-.64,1.25-1.34,1.68-2.11.43-.77.73-1.61.91-2.54.44-2.25.11-4-.99-5.26Z"/>
</svg>