<?xml version="1.0" encoding="UTF-8"?>
<svg id="Layer_1" data-name="Layer 1" xmlns="http://www.w3.org/2000/svg" viewBox="0 0 511.07 454.89">
  <defs>
    <style>
      .cls-1 {
        fill: #5c2e63;
      }
    </style>
  </defs>
  <path class="cls-1" d="M511.07,234.42c-7.79,31.26-31.66,47.21-58.28,59.85-15.53,7.38-31.96,12.86-48.63,19.45,1.4,6.82,3.15,14.53,4.55,22.3,4.48,24.86,7,49.8,.51,74.69-5.55,21.32-17.1,37.48-39.86,42.77-15.05,3.5-29.42-.02-43.29-5.71-24.68-10.13-45.29-26.31-64.68-44.23-1.82-1.69-3.61-3.41-5.83-5.5-2.26,2.12-4.38,4.15-6.54,6.14-18.83,17.27-38.77,32.96-62.55,43-13.82,5.84-28.11,9.57-43.21,6.64-19.17-3.72-31.38-15.84-38.31-33.58-6.54-16.74-8.29-34.35-6.41-52,1.84-17.3,5.27-34.44,8-51.64,.18-1.14,.36-2.28,.59-3.76-7.74-2.56-15.47-4.94-23.08-7.66-18.36-6.56-36.18-14.38-51.84-26.19-6.59-4.97-12.98-10.54-18.27-16.84-19.25-22.89-18.46-49.51,1.6-71.71,15.2-16.82,34.57-27.35,55.19-35.72,11.8-4.8,23.96-8.72,36.28-13.15-1.83-9.21-3.96-18.58-5.52-28.04-4.02-24.44-5.95-48.94,1.39-73.13C108.87,20.72,120.45,6.12,141.5,1.32c13.6-3.1,26.78-.37,39.6,4.34,24.96,9.16,45.63,24.97,65.23,42.39,2.98,2.65,5.86,5.4,9.11,8.4,5.9-5.23,11.61-10.49,17.53-15.49,17.61-14.88,36.37-27.98,58.32-35.76,12.21-4.33,24.77-6.74,37.71-4.03,18.79,3.93,30.47,16.12,37.23,33.44,6.47,16.59,8.2,34.03,6.36,51.52-1.82,17.31-5.21,34.45-7.91,51.66-.2,1.29-.4,2.58-.59,3.8,11.47,4.07,23.06,7.27,33.84,12.24,13.82,6.36,27.53,13.32,40.32,21.52,16.53,10.59,28.4,25.34,32.83,45.11v13.97Zm-255.48-90.17c-14.34,.69-28.79,1.27-43.21,2.2-1.93,.12-4.43,1.51-5.52,3.1-16.27,23.73-30.69,48.56-43.1,74.52-.84,1.76-.92,4.6-.08,6.33,12.49,26.11,27.01,51.07,43.33,74.97,1,1.47,3.3,2.75,5.1,2.89,28.88,2.33,57.77,2.35,86.65,0,1.93-.16,4.41-1.5,5.49-3.08,16.25-23.74,30.63-48.59,43.09-74.53,.89-1.86,.84-4.91-.06-6.78-12.38-25.79-26.65-50.51-42.87-74.08-1.17-1.7-3.82-3.22-5.87-3.36-14.25-.95-28.53-1.5-42.94-2.19Zm-142.5,18.02c-9.45,3.2-18.66,5.95-27.59,9.42-19.27,7.49-37.94,16.15-52.63,31.36-15.31,15.86-15.22,32.81,.14,48.77,9.23,9.6,20.37,16.46,32.18,22.32,15.31,7.61,31.31,13.38,47.66,17.79,.47-.62,.74-.85,.85-1.14,7.85-20.25,15.76-40.48,23.42-60.81,.7-1.86,.3-4.53-.47-6.48-5.42-13.73-11.18-27.33-16.59-41.06-2.53-6.43-4.53-13.08-6.96-20.17Zm284.94,.26c-.67,1.83-1.21,3.36-1.79,4.87-6.72,17.49-13.15,35.1-20.36,52.39-2.31,5.55-2.83,10.01,.15,15.31,2.59,4.6,4.41,9.65,6.31,14.61,5.35,13.91,10.57,27.87,15.94,42.07,.58-.1,1.38-.17,2.14-.39,20.16-5.8,39.72-13.06,57.75-23.98,9.44-5.71,18.2-12.29,24.76-21.33,9.02-12.42,9.23-25.02,0-37.25-3.75-4.98-8.3-9.58-13.22-13.43-21.17-16.58-46.02-25.27-71.69-32.87Zm-270.17-26.79c22.78-3.18,44.79-6.2,66.76-9.45,1.66-.24,3.41-1.86,4.55-3.29,9.28-11.71,18.34-23.6,27.66-35.28,4.3-5.39,9.04-10.44,14.38-16.56-12.36-9.93-24.07-19.98-36.46-29.11-12.47-9.2-26.09-16.49-41.49-19.78-19.44-4.16-33.28,3.75-39.48,22.6-.77,2.36-1.5,4.76-1.97,7.19-5.56,28.62-.33,56.42,6.05,83.68Zm255.67,182.6c-1.43,0-1.92-.06-2.4,0-21.5,3.31-43.01,6.57-64.48,10.05-1.68,.27-3.49,1.75-4.6,3.16-5.43,6.94-10.45,14.2-15.98,21.05-8.23,10.19-16.76,20.12-25.82,30.94,10.8,8.86,21.33,18.01,32.41,26.45,12.34,9.41,25.62,17.57,40.89,21.13,6.96,1.62,14.63,2.36,21.61,1.22,12.31-2.01,18.54-11.48,22.17-22.62,6.03-18.51,5-37.46,2.51-56.32-1.55-11.79-4.18-23.44-6.32-35.09Zm-112.34-247.17c14.06,17.96,27.72,35.52,41.59,52.91,1.13,1.41,3.61,2.14,5.58,2.42,9.87,1.39,19.81,2.29,29.66,3.81,11.6,1.78,23.14,4.02,35.26,6.15,1.89-9.44,4.04-18.64,5.54-27.95,3.05-18.96,4.47-38,.42-57.02-5.4-25.34-21.49-35.27-46.3-27.82-28.9,8.68-50.86,28.02-71.75,47.5Zm-143.03,247c-5.61,22.14-9.73,44.16-8.38,66.76,.51,8.54,1.79,17.27,4.32,25.41,5.76,18.58,19.77,26.38,38.79,21.91,31.57-7.41,54.66-28.3,77.11-48.66-14.11-18-27.79-35.56-41.66-52.97-1.04-1.31-3.27-2.08-5.06-2.34-12-1.74-24.06-3.1-36.05-4.92-9.63-1.46-19.19-3.41-29.07-5.19Zm22-115.98c10.57-18.28,20.4-35.3,30.85-53.37-16.11,2.81-31.33,5.46-47.46,8.26,5.7,15.49,10.99,29.86,16.6,45.11Zm179.93-53.35c10.51,18.17,20.39,35.25,30.88,53.37,5.63-15.4,10.92-29.87,16.53-45.22-16.34-2.81-31.43-5.4-47.42-8.15Zm-179.95,103.65c-5.64,15.42-10.94,29.9-16.56,45.24,16.35,2.8,31.5,5.39,47.41,8.12-10.39-17.96-20.25-35.01-30.86-53.35Zm210.82,.08c-10.51,18.16-20.42,35.27-30.88,53.33,16.1-2.8,31.36-5.45,47.48-8.25-5.7-15.48-10.99-29.84-16.6-45.08Zm-74.54-128.9c-10.58-12.66-20.47-24.49-30.88-36.93-10.51,12.58-20.33,24.34-30.85,36.93h61.73Zm.04,207.28h-61.9c10.64,12.7,20.57,24.56,31,37.02,10.54-12.63,20.39-24.43,30.9-37.02Z"/>
  <path class="cls-1" d="M254.9,272.98c-25.22-.64-45.31-21.21-44.9-45.97,.42-25.32,21.33-45.73,46.23-45.13,25.39,.62,45.75,21.7,44.88,46.46-.9,25.34-21.53,45.27-46.21,44.64Z"/>
</svg>