<?xml version="1.0" encoding="UTF-8"?>
<svg id="Layer_1" data-name="Layer 1" xmlns="http://www.w3.org/2000/svg" viewBox="0 0 72 72">
  <defs>
    <style>
      .cls-1 {
        fill: #5c2e63;
      }
    </style>
  </defs>
  <path class="cls-1" d="m5.14,36c0-4.53.92-8.74,2.68-12.55l14.71,40.32c-10.29-4.94-17.38-15.53-17.38-27.77h0Zm51.73-1.54c0,2.68-1.03,5.66-2.37,9.98l-3.09,10.29-11.21-33.22c1.85-.1,3.6-.31,3.6-.31,1.65-.21,1.44-2.57-.21-2.47,0,0-5.04.31-8.23.31s-8.13-.31-8.13-.31c-1.65-.1-1.85,2.37-.21,2.47,0,0,1.54.21,3.19.31l4.83,13.17-6.79,20.26-11.21-33.43c1.85-.1,3.5-.31,3.5-.31,1.75-.21,1.54-2.57-.21-2.47,0,0-4.94.31-8.23.31h-1.96c5.56-8.33,15.02-13.89,25.82-13.89,8.02,0,15.32,3.09,20.88,8.13-.21-.1-.31-.1-.41-.1-3.09,0-5.25,2.68-5.25,5.56,0,2.47,1.54,4.63,3.09,7.2,1.13,2.06,2.57,4.73,2.57,8.54h0Zm-29.62,31.17l9.26-26.95,9.56,26.02c0,.21.1.31.21.41-3.19,1.13-6.68,1.75-10.29,1.75-2.98,0-5.97-.41-8.74-1.23h0ZM63.05,21.19c2.47,4.42,3.8,9.46,3.8,14.81,0,11.42-6.17,21.29-15.32,26.74l9.46-27.36c1.75-4.32,2.26-7.92,2.26-11.01,0-1.13,0-2.16-.21-3.19ZM36,0c19.85,0,36,16.15,36,36s-16.15,36-36,36S0,55.85,0,36,16.15,0,36,0Zm0,70.35c18.92,0,34.35-15.43,34.35-34.35S54.92,1.64,36,1.64,1.65,17.07,1.65,36s15.43,34.35,34.35,34.35Z"/>
</svg>