<?xml version="1.0" encoding="UTF-8"?>
<svg id="Layer_1" data-name="Layer 1" xmlns="http://www.w3.org/2000/svg" viewBox="0 0 72 72">
  <defs>
    <style>
      .cls-1 {
        fill: #5a2b5f;
      }
    </style>
  </defs>
  <path class="cls-1" d="M.05,35.98C.05,24.82,.1,13.66,0,2.5-.02,.66,.44-.02,3.14,0,20.94,.1,38.74,.04,56.55,.1c1.09,0,2.43,.44,3.23,1.01,3.72,2.67,7.34,5.43,10.87,8.24,.72,.57,1.26,1.53,1.26,2.31,.07,19.51,.03,39.02,.09,58.53,0,1.47-.65,1.8-2.47,1.8-22.34-.04-44.67-.05-67.01,0-2.08,0-2.51-.54-2.5-1.97,.06-11.35,.03-22.7,.03-34.05ZM1.63,1.23V70.75H70.39V11.08h-13.04V1.23H1.63ZM68.55,9.96c-3.2-2.44-6.45-4.91-9.57-7.28v7.28h9.57Z"/>
  <path class="cls-1" d="M48.6,28.7h-8.21c-.37-3.52-.74-7-1.13-10.6h10.47c-.38,3.56-.75,7-1.13,10.6Z"/>
  <path class="cls-1" d="M22.58,22.41c.05-2.41,2.64-4.17,6.51-4.39,4.29-.25,7.51,1.44,8.12,4.39h-14.63Z"/>
  <path class="cls-1" d="M59.14,41.21H12.81c2.16-1.1,44.33-1.09,46.33,0Z"/>
  <path class="cls-1" d="M59.16,48.47H12.84c2.08-1.12,44.29-1.12,46.33,0Z"/>
  <path class="cls-1" d="M58.7,55.8H12.63c.86-.5,1.19-.86,1.52-.86,14.88-.03,29.75-.02,44.63-.02-.02,.29-.05,.59-.07,.89Z"/>
  <path class="cls-1" d="M59.42,63.05H13.31l-.17-.4c.42-.17,.82-.45,1.26-.49,6.57-.57,43.09-.09,45.02,.89Z"/>
  <path class="cls-1" d="M29.76,23.02c2.01,0,4.03-.12,6.01,.06,.8,.07,1.5,.77,2.24,1.18-.71,.44-1.41,1.23-2.14,1.25-4.17,.12-8.36,.1-12.53-.01-.68-.02-1.32-.76-1.98-1.16,.71-.44,1.37-1.18,2.14-1.25,2.06-.18,4.17-.06,6.26-.06Z"/>
  <path class="cls-1" d="M37.16,26.16c-.49,2.12-1.58,2.64-6.4,2.57-3.07-.05-6.72,.73-8.7-2.57h15.1Z"/>
  <path class="cls-1" d="M50.29,17.56c-3.47,0-7.13,.03-10.79-.04-.44,0-.86-.53-1.29-.81,.42-.29,.82-.82,1.26-.84,1.83-.1,3.68-.13,5.5-.02,1.82,.11,2.62-.39,2.65-1.77,.01-.62,.14-1.29,.47-1.85,.22-.38,.89-.6,1.27-.84,.33,2.22,.62,4.13,.92,6.18Z"/>
</svg>