<?xml version="1.0" encoding="UTF-8"?>
<svg id="Layer_1" data-name="Layer 1" xmlns="http://www.w3.org/2000/svg" viewBox="0 0 72 72">
  <defs>
    <style>
      .cls-1 {
        fill: #5a2b5f;
      }
    </style>
  </defs>
  <path class="cls-1" d="M21.24,17.83c-2.39-.04-2.95-1.42-2.77-3.48,.1-1.15,.01-2.32,.02-3.48,.02-3.02,.08-3.09,3.02-3.56,0-.32,.02-.65,0-.99-.36-4.87,3.14-7.59,7.42-5.71,.93,.41,1.93,.93,2.58,1.7,1.39,1.66,2.88,2.74,5.05,2.15,.65-.18,1.36-.31,1.89-.69,.73-.51,1.27-1.32,1.98-1.87,2.14-1.65,4.48-2.63,7.06-1.27,2.57,1.35,2.84,3.83,2.41,6.49q3.13,.95,3.13,4.37c0,.94-.07,1.89,.02,2.83,.19,2.05-.41,3.42-2.73,3.57,0,4.86,0,9.63,0,14.4,0,3.73-.53,4.27-4.02,4.28-7.1,0-14.19,0-21.29,0-3.25,0-3.75-.55-3.76-4.08,0-4.78,0-9.56,0-14.66Zm10.97-.1c-2.59,0-5.03-.06-7.47,.06-.4,.02-1.1,.84-1.11,1.3-.08,4.55-.09,9.1,0,13.66,0,.45,.72,1.25,1.14,1.27,2.43,.12,4.86,.06,7.44,.06V17.73Zm7.08,16.17h8.48V17.9h-8.48v16Zm-7.27-23.77h-11.05v5.06c2.56,0,4.99,0,7.43,0q4.46,0,3.85-4.69c0-.06-.07-.12-.23-.37Zm7.14-.04c0,1.44-.08,2.73,.05,4,.04,.39,.63,1.02,.97,1.02,3.43,.08,6.87,.05,10.31,.05v-5.07h-11.33Zm-4.41,11.74s0,0,0,0c0,3.55-.04,7.1,.04,10.64,.01,.53,.56,1.05,.86,1.58,.37-.53,1.05-1.05,1.06-1.59,.07-6.95,.06-13.9,0-20.85,0-.53-.56-1.06-.87-1.58-.37,.53-1.03,1.05-1.05,1.59-.1,3.4-.05,6.8-.05,10.21Zm-2.7-14.32c.09-.2,.18-.4,.26-.6-1.57-2.07-3.13-4.2-6.02-4.3-1.52-.05-2.44,.91-2.48,2.52-.04,1.61,.66,2.51,2.36,2.41,1.95-.12,3.91-.03,5.87-.03Zm6.75,0c2.79,0,4.95,.09,7.1-.06,.57-.04,1.43-.73,1.55-1.27,.18-.8,.11-2.12-.37-2.54-.73-.63-1.99-1.08-2.88-.88-2.27,.51-3.76,2.28-5.4,4.75Z"/>
  <path class="cls-1" d="M32.37,72c-4.84-.42-9.25-1.95-13.32-4.4-4.6-2.77-9.44-4.44-14.71-4.86-.61-.05-1.16-.84-1.74-1.28,.69-.38,1.4-1.13,2.05-1.08,4.72,.37,9.28,1.34,13.5,3.9,2.47,1.5,5.15,2.68,7.84,3.69,4.11,1.55,8.29,1.53,12.42-.13,10.08-4.05,19.37-9.66,28.25-16.08,.78-.56,1.5-1.29,2.09-2.07,.39-.51,.85-1.56,.64-1.83-.38-.52-1.29-1-1.87-.88-1.93,.38-3.91,.79-5.68,1.64-3.97,1.92-7.81,4.15-11.74,6.16-.99,.51-2.35,2.04-3.19,.44-.99-1.89,1.15-2.09,2.13-2.63,4.37-2.38,8.75-4.72,13.23-6.85,1.64-.78,3.53-1.06,5.34-1.29,1.74-.22,3.28,.51,4.06,2.29,.77,1.74,.1,3.28-1.04,4.56-.89,1-1.83,1.98-2.89,2.74-8.72,6.27-17.83,11.82-27.69,15.81-2.46,.99-5.11,1.44-7.68,2.13Z"/>
  <path class="cls-1" d="M17.76,41.48c-3,.73-5.33,1.25-7.64,1.86-2.71,.72-5.39,1.6-8.12,2.23-.59,.14-1.34-.51-2.01-.8,.5-.54,.91-1.38,1.5-1.55,4.4-1.27,8.82-2.52,13.27-3.55,3.69-.85,7.14,.1,10.42,2.08,3.79,2.29,7.69,4.36,11.47,6.67,2.3,1.4,4.49,3.01,6.63,4.68,.91,.71,1.64,1.74,2.3,2.74,1.05,1.61,1.3,3.4,.23,5.1-1.04,1.66-2.71,2-4.38,1.55-2.77-.74-5.48-1.75-8.24-2.56-4.33-1.26-8.68-2.42-13.01-3.71-.58-.17-1.04-.85-1.55-1.29,.62-.39,1.34-1.21,1.85-1.09,4.05,.95,8.08,2.02,12.08,3.18,2.95,.86,5.84,2.01,8.79,2.86,.73,.21,1.63-.26,2.45-.41-.18-.93-.06-2.26-.6-2.71-2.81-2.36-5.69-4.66-8.73-6.67-3.17-2.1-6.51-3.94-9.87-5.69-2.34-1.21-4.84-2.08-6.86-2.92Z"/>
  <path class="cls-1" d="M59.12,41.17c1.12,.45,2.23,.76,3.2,1.36,.34,.21,.3,1.1,.43,1.68-.53,.13-1.22,.55-1.57,.34-2.09-1.25-4.07-.55-5.87,.45-3.32,1.85-6.51,3.95-9.75,5.96-.81,.5-1.75,1.42-2.36,.04-.2-.44,.5-1.71,1.08-2.09,3.37-2.19,6.78-4.32,10.28-6.27,1.35-.75,2.96-.97,4.56-1.47Z"/>
  <path class="cls-1" d="M52.53,39.69c.3,.17,.97,.54,1.63,.92-.28,.54-.59,1.56-.85,1.55-3.74-.21-6.12,2.48-8.81,4.5-1,.75-1.92,1.64-2.98,2.28-.4,.24-1.18,.12-1.61-.15-.22-.14-.24-1.28,0-1.47,3.51-2.8,6.62-6.3,11.09-7.49,.33-.09,.68-.06,1.52-.13Z"/>
  <path class="cls-1" d="M44.77,39.32c.32,.31,.89,.86,1.46,1.42-.61,.39-1.23,.78-1.84,1.16-1.32,.82-2.69,1.56-3.95,2.47-.95,.69-1.72,1.67-2.67,2.36-.34,.24-1.14,.21-1.44-.06-.28-.25-.41-1.28-.2-1.47,2.3-2.09,4.03-5.02,7.29-5.72,.27-.06,.54-.06,1.34-.15Z"/>
</svg>