<?xml version="1.0" encoding="UTF-8"?>
<svg id="Layer_1" data-name="Layer 1" xmlns="http://www.w3.org/2000/svg" viewBox="0 0 200 200">
  <defs>
    <style>
      .cls-1 {
        fill: #5c2e63;
      }
    </style>
  </defs>
  <path class="cls-1" d="M114.87,79.58c-1.03-1.23-1.89-2.68-3.13-3.64-4.29-3.33-8.76-6.43-13.07-9.74-2.06-1.58-4.06-3.3-5.78-5.22-.64-.71-.9-2.48-.44-3.22,.4-.65,2.31-1.07,3.11-.69,2.78,1.34,5.47,2.92,8,4.68,4.29,2.99,8.42,6.21,12.65,9.3,.56,.41,1.23,.85,1.88,.89,.93,.06,1.89-.23,2.83-.37-.14-.94-.04-2.02-.49-2.77-.54-.9-1.52-1.57-2.39-2.24-5.76-4.4-11.54-8.78-17.32-13.15-1.64-1.23-3.19-2.75-1.78-4.72,1.4-1.96,3.53-1.07,5.15,.03,5.74,3.92,11.4,7.95,17.09,11.94,.82,.58,1.58,1.39,2.5,1.66,1.11,.33,2.35,.21,3.54,.28-.41-1.11-.48-2.63-1.28-3.28-4.6-3.75-9.37-7.3-14.08-10.91-1.76-1.35-3.51-2.7-5.28-4.03-1.52-1.14-2.58-2.51-1.2-4.28,1.32-1.7,3.01-1.28,4.56-.16,6.2,4.48,12.39,8.99,18.59,13.47,1.53,1.1,3.46,2.87,4.98,.89,1.62-2.13-.66-3.54-2.26-4.75-5.54-4.2-11.08-8.38-16.62-12.57-.64-.49-1.62-.87-1.83-1.51-.46-1.33-1.09-3.05-.6-4.16,.77-1.73,2.52-1.19,3.89-.24,3.65,2.51,7.29,5.04,10.94,7.55,2.98,2.06,5.89,4.25,9.01,6.09,1.08,.64,2.67,.41,4.03,.59-.39-1.45-.54-3.04-1.25-4.32-.48-.86-1.76-1.28-2.66-1.92-5.25-3.73-10.53-7.43-15.73-11.24-1.52-1.11-3.86-2.11-2.3-4.7,1.14-1.88,3.27-1.8,5.81,0,5.91,4.2,11.76,8.48,17.81,12.48,1.36,.9,4.54,1.55,4.93,1,1.54-2.23-.7-3.45-2.31-4.61-5.24-3.75-10.54-7.42-15.75-11.21-1.28-.93-2.52-2.05-3.4-3.34-.51-.74-.72-2.43-.25-2.91,.69-.7,2.16-1.06,3.2-.91,1.11,.16,2.17,1.01,3.15,1.69,5.79,4.02,11.5,8.16,17.38,12.04,1.11,.73,3.68,1.19,4.15,.62,1.44-1.76-.02-3.23-1.54-4.43-5.54-4.35-11.08-8.71-16.58-13.1-2.85-2.27-3.55-5.71-1.78-8.17,1.97-2.73,5.22-3.06,8.57-.68,6.81,4.84,13.6,9.72,20.33,14.67,4.76,3.49,6.04,7.74,3.73,13.17-1.08,2.54-2.66,4.93-4.33,7.16-12.91,17.28-25.92,34.48-38.81,51.78-1.33,1.79-2.68,2.48-4.83,2.02-1.18-.25-2.44-.1-3.62-.34-2.77-.57-6.28,.07-7.02-4.09-.11-.61-1.12-1.09-1.76-1.58-5.88-4.58-11.75-9.16-17.65-13.7-1.51-1.16-2.72-2.75-1.44-4.21,.64-.73,3.3-.62,4.4,.09,6.35,4.09,12.46,8.54,18.75,12.71,1.35,.89,3.15,1.13,4.75,1.66,.29-.45,.57-.9,.86-1.36Z"/>
  <path class="cls-1" d="M88.53,115.38c.1,.17,.23,.33,.3,.52,4.01,12.2,4.08,12.25-3.88,22.52-13.21,17.06-26.51,34.05-39.78,51.06-2.63,3.36-3.24,3.44-6.62,1.02-8.34-5.99-16.68-11.98-25.02-17.98-1.81-1.3-3.54-3.08-2.53-5.24,.99-2.12,2.8-4.01,4.66-5.51,.61-.49,2.71,.29,3.78,1,5.06,3.31,9.98,6.81,14.98,10.2,1.58,1.07,3.17,2.19,4.91,2.95,.92,.4,2.17,.05,3.27,.04-.35-1.24-.29-2.98-1.12-3.64-3.77-3.01-7.79-5.71-11.7-8.54-2.61-1.88-5.34-3.64-7.71-5.78-.89-.8-1.61-2.83-1.19-3.78,.83-1.86,2.87-1.71,4.46-.71,2.9,1.81,5.68,3.8,8.5,5.74,3.82,2.62,7.58,5.34,11.5,7.81,.98,.62,2.5,.4,3.77,.57-.53-1.26-.7-2.95-1.64-3.71-4.71-3.77-9.67-7.24-14.42-10.95-2.05-1.6-3.96-3.42-5.65-5.39-.62-.73-.41-2.16-.57-3.26,1.12-.15,2.36-.69,3.32-.38,1.79,.58,3.55,1.48,5.09,2.56,5.11,3.59,10.11,7.33,15.15,11,.49,.35,.95,.94,1.47,1,1.2,.15,2.43,.06,3.65,.06-.43-1.21-.49-2.85-1.34-3.54-5.63-4.56-11.43-8.92-17.17-13.34-.72-.55-1.7-.98-2.07-1.71-.61-1.22-.83-2.64-1.21-3.97,1.56-.05,3.55-.73,4.62-.03,6.44,4.14,12.64,8.63,18.99,12.92,1.44,.98,3.33,3.25,4.83,1.05,1.38-2.02-.95-3.46-2.6-4.67-5.2-3.81-10.39-7.62-15.5-11.54-1.34-1.02-2.53-2.32-3.49-3.7-.47-.66-.64-2.1-.22-2.64,.45-.58,1.78-.78,2.66-.66,.93,.13,1.86,.73,2.67,1.3,5.85,4.12,11.66,8.28,17.49,12.42,1.74,1.24,4.02,2.9,5.54,.82,1.36-1.87-1.11-3.24-2.6-4.38-5.82-4.48-11.66-8.94-17.49-13.42-1.39-1.07-2.92-2.21-1.73-4.19,1.1-1.81,2.98-1.68,4.58-.86,2.05,1.05,4,2.32,5.85,3.68,4.3,3.16,8.51,6.43,12.75,9.66,.16,.12,.32,.32,.49,.34,1.44,.17,2.89,.3,4.33,.45-.55-1.39-.71-3.24-1.72-4.08-3.79-3.14-7.89-5.91-11.81-8.9-2.24-1.7-4.58-3.36-6.45-5.41-.94-1.03-1.76-3.42-1.2-4.27,1.26-1.91,3.21-.77,4.74,.32,5.9,4.22,11.76,8.47,17.67,12.69,1.62,1.16,3.78,3.05,5.31,1.16,1.72-2.14-.74-3.67-2.42-4.93-5.24-3.92-10.49-7.83-15.73-11.75-.73-.54-1.72-.96-2.1-1.68-.71-1.38-1.9-3.38-1.39-4.32,1.06-1.94,3.17-1.21,4.75-.09,6,4.25,11.9,8.64,17.98,12.78,1.54,1.05,3.63,1.32,5.46,1.95,.19-.21,.38-.42,.56-.62Z"/>
  <path class="cls-1" d="M.23,64.61c4.37,1.04,8.74,2.05,13.1,3.13,31.45,7.74,62.84,15.68,94.35,23.15,17.75,4.21,34.82,1.21,50.71-7.38,17-9.18,37.48-.42,41.29,18.04,1.55,7.5-2.6,15.69-10.34,19.98-8.52,4.73-17.25,4.17-25.97,.51-17.2-7.22-34.38-14.48-51.56-21.72-1.58-.67-3.32-1.08-4.73-2-6.6-4.35-13.13-4.02-19.71-.05-2.37,1.43-4.59,1.06-7.1,.04-25.85-10.57-51.74-21.03-77.62-31.53-.9-.36-1.77-.79-2.66-1.18,.08-.33,.15-.66,.23-.99Zm155.87,35.86c-.25,.1-.5,.2-.75,.29,1.3,3.28,2.11,6.87,4,9.77,5.36,8.22,16.29,11.44,25.71,8.05,8.33-2.99,12.16-11.14,9.1-19.37-3.97-10.66-15.61-16.46-26.8-13.33-6.82,1.91-11.22,7.6-11.25,14.58Zm-66.44-8.4c.03-3.01-1.88-5.11-4.68-5.13-2.73-.02-4.71,2.15-4.7,5.15,.01,2.92,2.07,5.04,4.86,5,2.56-.04,4.49-2.18,4.53-5.01Z"/>
  <path class="cls-1" d="M87.4,104.02c1.5-.65,2.86-1.23,4.44-1.91,4.47,7.35,8.91,14.59,13.29,21.87,8.25,13.73,16.61,27.39,24.6,41.26,3.97,6.89,5.56,14.26,2.06,22.06-5.8,12.91-18.57,14.82-28.34,10.83-13.74-5.62-20.04-20.5-14.6-34.61,3.89-10.1,6.75-20.49,5.45-31.26-.98-8.05-3.6-15.9-5.53-23.84-.35-1.43-.87-2.81-1.37-4.4Zm40.63,73.98c.19-9.97-7.03-18.56-17.25-20.51-7.22-1.38-13.53,1.96-16.43,8.69-3.8,8.83,.04,20.53,8.36,25.46,11.63,6.9,25.07-.34,25.32-13.65Z"/>
  <path class="cls-1" d="M89.79,83.05c-4.5-1.04-9.01-2.04-13.48-3.18-.61-.16-1.22-.99-1.5-1.65-9.02-21.68-18-43.37-26.98-65.07-.06-.15,.07-.37,.24-1.19,14.27,23.77,28.29,47.13,42.31,70.49-.2,.2-.4,.4-.59,.61Z"/>
  <path class="cls-1" d="M89.93,100.12c3.59-3.07,7.44-3.5,11.54-1.88,3.35,1.32,6.63,2.78,10.26,4.32-2.85,3.85-5.52,7.44-8.17,11.05-.35,.48-.61,1.02-1.12,1.9-2.86-4.68-5.35-8.64-7.71-12.67-1.07-1.82-1.96-3.7-4.8-2.72Z"/>
  <path class="cls-1" d="M66.98,95.21c5.62,2.15,11.24,4.3,16.85,6.47,.35,.14,.84,.38,.93,.68,.86,2.8,1.64,5.62,1.98,8.88-6.77-5.13-13.53-10.25-20.3-15.38,.18-.21,.36-.43,.54-.64Z"/>
  <path class="cls-1" d="M98.87,86.62c-2.22-.54-4.43-1.09-6.83-1.68,.06-1.21,.12-2.33,.2-3.92,2.48,1.74,4.75,3.33,7.03,4.93-.13,.22-.26,.45-.4,.67Z"/>
</svg>