<?xml version="1.0" encoding="UTF-8"?>
<svg id="Layer_1" data-name="Layer 1" xmlns="http://www.w3.org/2000/svg" viewBox="0 0 200 200">
  <defs>
    <style>
      .cls-1 {
        fill: #5c2e63;
      }
    </style>
  </defs>
  <path class="cls-1" d="M0,189.08C0,135.32,0,81.55,0,27.79c.2-.62,.41-1.23,.61-1.86,1.68-5.36,5.96-9.01,11.5-9.17,7.35-.21,14.7-.04,22.05-.02,.1,0,.2,.14,.45,.33,0,.6,0,1.32,0,2.03,0,6.16-.14,12.32,.07,18.47,.08,2.52,.46,5.23,1.5,7.47,2.84,6.14,8.05,8.34,14.54,8.24,9.27-.16,15.26-6.14,15.28-15.57,.02-6.29,0-12.58,0-18.87,0-.7,0-1.39,0-2.02h69.46c.04,.29,.08,.42,.08,.55,0,6.82-.03,13.64,.03,20.45,.05,6.4,2.77,11.25,8.55,13.95,3.98,1.86,8.28,1.69,12.46,.83,6.98-1.43,10.34-5.72,10.39-12.97,.05-6.88,.01-13.77,.01-20.65,0-.71,0-1.43,0-2.21,.65-.05,1.09-.11,1.53-.11,6.05,0,12.11-.05,18.16,0,7.83,.07,13.3,5.57,13.3,13.52,.03,52.1,.03,104.19-.04,156.29,0,2.05-.47,4.27-1.33,6.12-2.51,5.35-7.03,7.42-12.73,7.4-15.23-.05-30.46-.02-45.69-.02-41.85,0-83.7,.02-125.55-.06-2.53,0-5.21-.5-7.55-1.45C3.05,196.83,1.18,193.14,0,189.08Zm12.95-2.21H187.06V68.33H12.95v118.55Z"/>
  <path class="cls-1" d="M41.01,23.62c0-4.83-.02-9.66,0-14.49,.03-5.48,3.24-8.7,8.66-8.75,.39,0,.78,0,1.17,0,5.54,.03,8.74,3.2,8.77,8.86,.05,9.59,.06,19.19,0,28.78-.04,5.53-3.26,8.7-8.68,8.76-.97,.01-1.96,.01-2.92-.12-4.17-.59-6.92-3.67-6.98-7.96-.07-5.03-.02-10.06-.02-15.09Z"/>
  <path class="cls-1" d="M160.57,23.33c0,4.9,.03,9.79,0,14.69-.03,5.2-3.17,8.43-8.25,8.48-1.61,.01-3.29,.02-4.82-.42-3.09-.89-4.86-3.15-5.35-6.39-.13-.85-.17-1.71-.17-2.57-.01-9.13,.02-18.26-.02-27.39-.02-3.53,.74-6.72,4.04-8.41,3.48-1.79,7.22-1.75,10.7,.06,2.62,1.36,3.86,3.86,3.87,6.87,.03,5.03,0,10.06,0,15.09h0Z"/>
  <path class="cls-1" d="M43.09,174.34c-3.51,0-7.03-.04-10.54,.02-1.79,.03-2.62-.66-2.6-2.56,.05-6.15,.06-12.31,0-18.46-.02-1.85,.67-2.67,2.5-2.66,7.09,.03,14.18,.03,21.27,0,1.82,0,2.55,.81,2.53,2.66-.06,6.09-.01,12.17-.03,18.26,0,2.28-.47,2.73-2.79,2.74-3.45,.01-6.9,0-10.34,0Z"/>
  <path class="cls-1" d="M80.67,174.33c-3.58,0-7.16-.03-10.73,.01-1.71,.02-2.47-.69-2.46-2.49,.05-6.22,.05-12.44,0-18.66-.02-1.78,.71-2.53,2.42-2.53,7.16,.02,14.31,.02,21.47,0,1.73,0,2.42,.84,2.4,2.58-.05,6.15-.05,12.31,0,18.46,.02,1.86-.74,2.65-2.56,2.63-3.51-.05-7.03-.01-10.54-.01Z"/>
  <path class="cls-1" d="M118.1,174.34c-3.51,0-7.03-.04-10.54,.02-1.78,.03-2.62-.65-2.6-2.56,.06-6.15,.06-12.31,0-18.46-.02-1.85,.67-2.67,2.5-2.66,7.09,.03,14.18,.03,21.27,0,1.82,0,2.54,.8,2.52,2.66-.06,6.09-.01,12.17-.03,18.26,0,2.28-.47,2.73-2.79,2.74-3.45,.01-6.9,0-10.34,0Z"/>
  <path class="cls-1" d="M155.62,174.34c-3.45,0-6.9,.01-10.34,0-2.38,0-2.77-.39-2.78-2.72-.01-6.09-.01-12.17,0-18.26,0-2.22,.42-2.65,2.64-2.66,6.96-.02,13.92-.02,20.88,0,2.26,0,2.71,.5,2.71,2.83,0,6.02,.01,12.04,0,18.06,0,2.29-.47,2.75-2.78,2.76-3.45,.02-6.9,0-10.34,0Z"/>
  <path class="cls-1" d="M117.96,108.04c-3.51,0-7.02-.04-10.54,.02-1.75,.03-2.46-.71-2.45-2.49,.04-6.22,.05-12.44,0-18.65-.01-1.8,.74-2.48,2.46-2.47,7.15,.04,14.31,.03,21.46,0,1.62,0,2.37,.67,2.36,2.37-.04,6.28-.03,12.57,0,18.85,0,1.69-.74,2.39-2.37,2.37-3.64-.04-7.28-.01-10.93-.01Z"/>
  <path class="cls-1" d="M155.55,108.04c-3.58,0-7.15-.03-10.73,.01-1.65,.02-2.35-.71-2.34-2.39,.04-6.28,.04-12.57,0-18.85-.01-1.72,.73-2.37,2.35-2.36,7.15,.03,14.31,.03,21.46,0,1.71,0,2.48,.68,2.47,2.48-.05,6.22-.04,12.43,0,18.65,.01,1.79-.76,2.5-2.48,2.47-3.58-.05-7.15-.02-10.73-.02Z"/>
  <path class="cls-1" d="M43.07,141.14c-3.51,0-7.02-.04-10.54,.02-1.8,.03-2.6-.65-2.58-2.56,.06-6.15,.05-12.3,0-18.45-.02-1.85,.68-2.62,2.54-2.61,7.09,.05,14.18,.04,21.27,0,1.72,0,2.5,.67,2.49,2.46-.04,6.22-.04,12.43,0,18.65,.01,1.78-.73,2.51-2.45,2.49-3.58-.05-7.15-.01-10.73-.01Z"/>
  <path class="cls-1" d="M80.42,141.14c-3.51,0-7.02-.04-10.54,.02-1.75,.03-2.44-.73-2.42-2.5,.05-6.22,.05-12.43,0-18.65-.01-1.8,.75-2.46,2.48-2.45,7.09,.04,14.18,.05,21.27,0,1.84-.01,2.56,.76,2.55,2.61-.05,6.15-.05,12.3,0,18.45,.02,1.92-.83,2.57-2.61,2.54-3.58-.06-7.15-.02-10.73-.02Z"/>
  <path class="cls-1" d="M117.96,141.14c-3.51,0-7.02-.04-10.54,.02-1.72,.03-2.47-.67-2.46-2.47,.05-6.22,.05-12.43,0-18.65-.01-1.77,.71-2.5,2.45-2.48,7.15,.04,14.31,.03,21.46,0,1.63,0,2.38,.69,2.37,2.37-.03,6.28-.03,12.57,0,18.85,0,1.7-.75,2.38-2.37,2.37-3.64-.03-7.28,0-10.93,0Z"/>
  <path class="cls-1" d="M155.59,141.14c-3.51,0-7.02-.04-10.54,.02-1.79,.03-2.6-.63-2.58-2.55,.07-6.15,.06-12.3,0-18.45-.02-1.85,.66-2.63,2.52-2.61,7.09,.05,14.18,.04,21.27,0,1.71,0,2.51,.65,2.5,2.45-.04,6.22-.04,12.44,0,18.65,.01,1.78-.72,2.52-2.45,2.5-3.58-.04-7.15-.01-10.73-.01Z"/>
</svg>