<?xml version="1.0" encoding="UTF-8"?>
<svg id="Layer_1" data-name="Layer 1" xmlns="http://www.w3.org/2000/svg" viewBox="0 0 200 150">
  <defs>
    <style>
      .cls-1 {
        fill: #5c2e63;
      }
    </style>
  </defs>
  <path class="cls-1" d="M41.11,119.47c.43-1.64-.19-2.25-2.12-2.54-10.43-1.55-15.79-12.32-10.62-21.91,2.35-4.36,2.78-8.23,1.78-13.08-1.03-4.96-3.04-7.84-7.66-9.63-6.61-2.56-12.95-5.89-19.4-8.91-3.12-1.46-3.8-3.23-2.35-6.46C8.83,38.94,16.96,20.95,25.1,2.96,26.49-.1,28.2-.7,31.22,.75c7.73,3.71,15.51,7.33,23.16,11.21,3.8,1.92,7.63,1.94,11.57,1.17,6.56-1.28,12.96-3.42,19.77-3.1,4.98,.23,9.57,1.66,13.92,4.06,.87,.48,1.53,.76,2.48,.16,11.02-7.03,22.41-6.96,34.07-1.89,3.57,1.55,7.12,3.19,10.92,4.11,2.77,.67,5.39,.48,7.94-.98,5.54-3.15,11.13-6.2,16.68-9.32,3.29-1.85,5.31-1.17,6.64,2.41,6.95,18.68,13.89,37.36,20.81,56.05,1.55,4.18,1.06,5.35-2.94,7.14-6.56,2.94-13.13,5.88-19.72,8.74-1.24,.54-1.64,1.19-1.62,2.61,.1,8.17-4.53,13.82-12.33,15.01-1.54,.24-1.33,1.1-1.33,2.13-.04,7.55-4.21,13.05-11.15,14.75-.07,.02-.15,.07-.22,.06-3.68-.57-4.57,1.35-5.19,4.91-1.07,6.13-5.33,9.56-11.09,10.86-1.16,.26-1.59,.41-1.45,1.88,1.02,10.84-9.98,18.92-19.65,14.49-1.74-.79-3.4-1.77-5.05-2.76-.79-.47-1.23-.48-1.89,.31-7.18,8.66-19.74,5.88-23.53-3.26-.42-1.01-.97-1.27-1.95-.88-6.4,2.51-13.92-.6-17.01-6.79-.82-1.65-1.73-.7-2.63-.34-9.42,3.77-19.32-3.28-19.32-14.02ZM94.04,19.86c-2.4-1.41-4.97-1.93-7.61-2.16-5.95-.53-11.61,1.2-17.29,2.58-6.67,1.62-13,1.35-19.24-2.03-5.79-3.13-11.86-5.73-17.76-8.65-1.26-.63-1.83-.44-2.42,.88-6.81,15.21-13.67,30.41-20.54,45.6-.48,1.06-.5,1.61,.68,2.15,5.86,2.64,11.59,5.61,17.53,8.02,5.01,2.03,8.11,5.43,9.08,10.89,.32,1.77,.81,1.59,2.01,.67,8.36-6.42,19.42-2.56,22.22,7.78,.45,1.66,1.04,2.18,2.75,2.1,6.39-.31,11.52,3.09,13.84,9.13,.59,1.54,1.19,1.68,2.64,1.39,6.96-1.38,13.12,2.08,15.83,8.91,.58,1.45,1.23,1.7,2.54,1.4,5.01-1.14,9.29,.41,12.96,4.03,.55,.54,1.14,1.06,1.79,1.44,4.84,2.83,9.71,5.61,14.55,8.43,1.68,.97,3.44,1.25,5.28,.75,2.73-.74,4.69-3.03,4.99-5.85,.34-3.28-1.02-5.72-3.7-7.31-7.06-4.2-14.17-8.33-21.25-12.5-2.61-1.54-3.35-3.44-2.24-5.59,1.08-2.09,3.22-2.54,5.73-1.1,3.13,1.79,6.24,3.63,9.36,5.44,6.04,3.51,12.08,7.03,18.13,10.53,2.43,1.4,4.86,1.22,7.12-.35,2.21-1.53,3.16-3.8,2.87-6.56-.25-2.45-1.44-4.29-3.5-5.51-6.68-3.94-13.36-7.89-20.04-11.84-.66-.39-1.34-.75-1.98-1.18-2.01-1.35-2.61-3.6-1.49-5.5,1.06-1.78,3.13-2.25,5.2-1.05,8.22,4.81,16.43,9.63,24.61,14.51,2.11,1.26,4.24,1.78,6.53,.87,2.53-1.01,4.15-2.88,4.38-5.82,.26-3.29-1.19-5.64-3.86-7.23-11.75-7-23.51-13.97-35.25-20.97-2.17-1.29-4.46-1.91-6.97-1.87-4.59,.06-8.77,1.8-12.95,3.45-5.68,2.25-11.22,4.86-17.16,6.35-13.29,3.33-22.8-1.5-30.38-12.21-1.55-2.19-1.06-4.43,1.14-5.9,.77-.51,1.56-.98,2.35-1.46,10.96-6.68,20.67-15,29.52-24.66Zm25.51-3.6c-1.32-.18-3.1,.31-4.87,.73-6.79,1.63-12.29,5.65-17.36,10.41-3.27,3.07-6.41,6.29-9.69,9.35-5.16,4.81-10.91,8.81-16.71,12.71-1.28,.86-1.02,1.41-.17,2.34,1.89,2.04,4.08,3.57,6.63,4.47,6.17,2.18,12.12,.81,17.99-1.39,5.85-2.19,11.5-4.98,17.49-6.78,6.87-2.06,13.54-2.25,19.99,1.76,6.97,4.34,14.15,8.32,21.1,12.69,5.7,3.58,12,6.18,17.06,10.85,.76,.7,1.51,.5,2.33,.14,5.59-2.46,11.18-4.92,16.78-7.35,1.15-.5,1.41-1.22,.91-2.43-.98-2.4-1.87-4.84-2.78-7.27-4.93-13.27-9.88-26.53-14.75-39.83-.66-1.79-1.41-2.16-2.99-1.2-2.49,1.52-5.04,2.93-7.57,4.37-4.68,2.66-9.31,5.38-15,4.58-4.19-.59-8.03-2.24-11.9-3.85-5.15-2.15-10.31-4.24-16.5-4.3Zm-48.75,86.43c.02-3.61-1.92-6.42-4.9-7.27-2.84-.81-6.18,.76-7.69,3.67-2.96,5.7-5.93,11.39-8.86,17.11-2.06,4.01-.26,8.93,3.72,10.31,3.35,1.16,6.55-.27,8.52-4.03,2.87-5.48,5.62-11.03,8.44-16.54,.55-1.08,.89-2.18,.77-3.24Zm11.91,3.02c-2.87-.05-4.91,1.39-6.25,3.94-2.37,4.51-4.66,9.07-6.99,13.6-1.75,3.4-.7,7.49,2.46,9.53,2.9,1.88,7.06,1.32,8.75-1.67,2.97-5.24,5.85-10.56,8.27-16.09,2-4.58-1.4-9.29-6.24-9.31Zm-42.65,3.42c3.27,.11,5.35-1.15,6.57-3.91,.25-.57,.63-1.08,.89-1.65,1.98-4.18,4.63-8.01,6.06-12.45,1.08-3.36-.71-6.88-3.97-8.28-2.83-1.23-6.74,.03-8.18,2.75-2.38,4.5-4.76,9-6.98,13.59-2.26,4.67,.99,9.97,5.61,9.96Zm67.72,13.78c0-3.05-1.63-5.71-4.01-6.57-2.88-1.03-6.6-.2-7.98,2.27-2.56,4.57-5.02,9.23-7.15,14.04-1.61,3.63-.01,7.42,3.23,9.03,3.16,1.57,6.77,.55,8.66-2.83,2.42-4.3,4.55-8.77,6.82-13.16,.46-.88,.44-1.83,.43-2.78Zm16.99,10.76c.09-2.01-.66-3.85-2.28-5.24-1.88-1.62-4.16-2.57-6.27-3.8-.81-.47-1.04-.09-1.15,.72-.35,2.47-1.67,4.54-2.56,6.79-.7,1.76-3.22,3.37-1.84,5.26,1.12,1.53,3.4,2.31,5.3,3.03,4.37,1.64,8.77-1.73,8.8-6.76Z"/>
</svg>