<?xml version="1.0" encoding="UTF-8"?>
<svg id="Layer_1" data-name="Layer 1" xmlns="http://www.w3.org/2000/svg" viewBox="0 0 200 200">
  <defs>
    <style>
      .cls-1 {
        fill: #5c2e63;
      }
    </style>
  </defs>
  <path class="cls-1" d="M0,164.37c0-32.28,0-64.57,0-96.85,3.08,.14,6.18,.19,9.25,.44,2.87,.24,3.9-.87,3.86-3.78-.14-8.71-.07-17.43-.03-26.15,0-1.84,.18-3.68,.3-5.94h51.33c0-4.09,.28-7.78-.05-11.41-.94-10.16,3.11-17.09,12.71-20.7h90.7c9.67,3.88,13.18,11.01,12.67,21.31-.62,12.4-.15,24.85-.15,37.28,0,1.87,0,3.74,0,6.09,4.38,0,8.2-.06,12.01,.01,5.01,.1,7.34,2.33,7.36,7.36,.07,18.64,.07,37.28,0,55.92-.02,4.96-2.4,7.15-7.48,7.24-3.81,.07-7.61,.01-11.89,.01,0,2.15,0,3.74,0,5.32,0,13.32-.49,26.65,.14,39.94,.61,12.87-8.57,19.69-19.29,19.49-25.75-.48-51.53-.49-77.28,0-10.48,.21-20.52-5.84-19.5-19.62,.39-5.23,.06-10.51,.06-16H0ZM71.39,32.33V167.61h102.64v-32.37h-5.03c-21.03,0-42.06,0-63.09,0-7.1,0-9.01-1.89-9.01-8.85,0-17.61,0-35.22,0-52.83,0-6.98,1.91-8.87,8.98-8.88,21.03-.01,42.06,0,63.09,0,1.7,0,3.4,0,5.08,0V32.33H71.39Zm122.15,64.75H103.48v31.6h90.05v-31.6ZM6.43,157.86h57.86v-6.61c-25.54-.79-40.14-12.42-41.33-32.53-.57-9.59,1.95-18.16,8.26-25.49,8.72-10.14,20.07-13.46,33.11-12.14v-6.74H6.43v83.5ZM174.29,25.56c0-2.16,0-4.46,0-6.75-.01-9.24-3.27-12.49-12.58-12.5-15.7-.01-31.39,0-47.09,0-10.96,0-21.92-.05-32.87,.02-5.97,.04-10.01,3.03-10.53,8.08-.37,3.61-.07,7.3-.07,11.15h103.14ZM71,174.32c0,2.34,0,4.38,0,6.41,.02,9.86,3.07,12.87,13.07,12.87,17.47,0,34.94,0,52.42,0,9.03,0,18.07,.07,27.1-.03,6.11-.07,10.08-3.23,10.57-8.59,.32-3.47,.06-7,.06-10.66H71ZM19.63,67.93c14.35,0,28.26,.04,42.16-.08,.96,0,2.73-1.21,2.74-1.88,.19-8.96,.12-17.93,.12-27.15H19.63v29.12Zm45.08,32.18c0-2.88-.23-5.68,.06-8.43,.39-3.68-1.44-4.5-4.63-4.71-16.28-1.07-30.33,11.38-31.27,27.86-.89,15.6,11.9,29.54,27.91,30.4,7.56,.41,8.04,.04,7.87-7.57-.04-1.95-.92-3.88-1.41-5.82-.75,1.81-1.5,3.62-2.27,5.42-.11,.26-.29,.5-.52,.88h-5.31c.64-4.14-.85-6.27-4.79-7.52-3.15-1.01-4.91-4.02-4.85-8.19,2.14,.3,5.17-.12,5.87,.96,2.65,4.09,6.41,2.39,9.68,2.37,1.18,0,2.35-2.04,3.52-3.15-1.26-1.16-2.35-2.94-3.81-3.34-2.22-.6-4.72-.03-7.06-.34-4.45-.58-7.33-3.27-8.2-7.6-.84-4.2,.7-8.13,4.61-9.62,3.88-1.48,5.86-3.36,5.02-7.71h5.17c2.04,1.86-1.21,6.52,4.41,6.12Zm128.78-16.1H103.42v6.06h90.06v-6.06Zm.1-12.68H103.37v5.73h90.21v-5.73ZM64.48,112.99c.4-3.45,.46-6.39-3.76-6.72-1.89-.15-3.94-.43-5.66,.14-1.35,.44-2.3,2.1-3.43,3.21,1.12,1.12,2.12,3.02,3.38,3.22,2.97,.48,6.07,.15,9.47,.15Z"/>
  <path class="cls-1" d="M77.69,58.27h5.76v96.08h-5.76V58.27Z"/>
  <path class="cls-1" d="M83.41,51.37h-5.68v-5.81h5.68v5.81Z"/>
  <path class="cls-1" d="M110.05,116.48h15.26v5.84h-15.26v-5.84Z"/>
  <path class="cls-1" d="M168.34,116.47h5.72v5.87h-5.72v-5.87Z"/>
  <path class="cls-1" d="M180.89,122.31v-5.73h5.83v5.73h-5.83Z"/>
  <path class="cls-1" d="M25.57,81.06v5.53c-1.99,.19-3.85,.37-5.94,.57-.16,1.9-.3,3.63-.47,5.76h-5.77v-11.86h12.18Z"/>
  <path class="cls-1" d="M19.63,145.07c2,.17,3.87,.33,5.93,.51v5.45H13.37v-11.83h5.74c.17,1.93,.33,3.79,.52,5.87Z"/>
  <path class="cls-1" d="M141.62,186.6h-38.16v-5.73h38.16v5.73Z"/>
  <path class="cls-1" d="M32.32,51.71c-.13,2.02-.25,3.75-.38,5.83h-5.82v-11.91h12.19v5.69c-1.74,.11-3.6,.24-5.99,.39Z"/>
</svg>