<?xml version="1.0" encoding="UTF-8"?>
<svg id="Layer_1" data-name="Layer 1" xmlns="http://www.w3.org/2000/svg" viewBox="0 0 180 200">
  <defs>
    <style>
      .cls-1 {
        fill: #5c2e63;
      }
    </style>
  </defs>
  <path class="cls-1" d="M86.51,200c-1.3-.33-2.62-.59-3.91-.99-11.55-3.57-18.66-11.23-21.07-23.18-.1-.5-.24-1-.39-1.63-.8,0-1.57,0-2.34,0-12.26,0-24.51,.06-36.77-.03-9.1-.07-17.25-5.93-20.52-14.49-3.28-8.58-1.09-18.07,5.66-24.31,4.26-3.94,9.33-5.98,15.11-6.33,2.87-.17,3.48-.87,3.48-3.73,0-12.69-.25-25.39,.06-38.07,.67-27.79,13.89-47.49,38.82-59.4,1.21-.58,2.9-.81,3.53-1.76,.58-.87-.02-2.5-.04-3.79-.18-10.77,7.52-20.09,18.09-21.94,.37-.06,.72-.24,1.08-.36,1.82,0,3.63,0,5.45,0,3.16,1.25,6.66,1.99,9.43,3.84,7.9,5.28,10.7,13.02,9.45,22.49,.39,.2,.83,.44,1.29,.64,23.96,10.58,37.7,28.89,40.98,54.96,.53,4.17,.37,8.44,.39,12.67,.05,10.02,.02,20.05,.02,30.07,0,3.73,.34,4.11,3.99,4.43,10.77,.95,19.36,8.25,21.29,18.06,2.74,13.98-7.7,26.93-21.9,27.03-12.19,.09-24.39,.02-36.58,.02-.71,0-1.42,0-2.24,0-.2,1.04-.36,1.99-.57,2.92-2.68,11.89-12.01,20.64-24.03,22.54-.38,.06-.74,.22-1.1,.33h-6.62Zm3.58-38.69c22.25,0,44.5,.01,66.74,0,5.67,0,9.94-3.72,10.28-8.83,.36-5.46-3.3-9.69-9.08-10.45-1.41-.19-2.86-.14-4.25-.44-7.36-1.56-12.31-7.72-12.34-15.43-.05-12.37-.04-24.73,0-37.1,.02-6.85-1.15-13.45-3.59-19.84-11.08-29-43.75-42.2-70.91-28.16-18.07,9.35-27.66,24.73-28.24,45.22-.38,13.33-.04,26.68-.1,40.03-.03,7.63-5.12,13.85-12.47,15.32-1.64,.33-3.36,.26-5.02,.55-6.79,1.18-10.36,8.54-6.93,14.3,2.05,3.44,5.21,4.85,9.16,4.84,22.25-.02,44.5-.01,66.74-.01Zm-15.55,12.97c.4,6.89,8.3,13.1,16.2,12.8,7.26-.27,14.75-6.78,14.69-12.8h-30.88ZM98.88,22.9c.49-3.61-1.23-7.05-4.4-8.81-3.32-1.85-7.3-1.51-10.2,.86-2.62,2.14-3.84,5.55-3.03,7.95h17.63Z"/>
  <path class="cls-1" d="M179.64,70.6c.03,3.52-2.29,6.28-5.39,6.72-3.26,.47-6.17-1.41-7.17-4.65-1.18-3.84-2.14-7.78-3.55-11.53-3.65-9.68-9.2-18.17-16.45-25.54-1.58-1.61-2.64-3.41-2.41-5.71,.27-2.61,1.63-4.53,4.1-5.45,2.62-.98,5-.4,6.97,1.57,5.16,5.18,9.61,10.91,13.36,17.19,4.79,8.04,8.19,16.64,10.29,25.77,.14,.63,.19,1.28,.24,1.63Z"/>
  <path class="cls-1" d="M6.67,77.38c-4.36,0-7.27-3.84-6.03-8.4,1.29-4.75,2.69-9.51,4.48-14.09,4.29-10.91,10.77-20.42,19-28.73,2.29-2.31,5.39-2.77,7.99-1.28,2.51,1.44,3.82,4.33,2.96,7.18-.36,1.19-1.09,2.39-1.96,3.28-10.03,10.3-16.69,22.42-19.96,36.44-.85,3.66-3.19,5.59-6.48,5.59Z"/>
</svg>