<?xml version="1.0" encoding="UTF-8"?>
<svg id="Layer_1" data-name="Layer 1" xmlns="http://www.w3.org/2000/svg" viewBox="0 0 200 200">
  <defs>
    <style>
      .cls-1 {
        fill: #5c2e63;
      }
    </style>
  </defs>
  <path class="cls-1" d="M153.17,0c.29,.15,.56,.33,.86,.44,4.64,1.61,7.3,4.97,7.34,9.62,.07,7.55,.04,15.1,.01,22.65,0,2.26-1.25,3.61-3.16,3.6-1.9-.01-3.04-1.35-3.05-3.65-.02-7.03,0-14.06,0-21.09,0-4.52-1.24-5.71-5.98-5.71-40.36,0-80.72,0-121.08,0-5.21,0-6.31,1.05-6.24,5.99,0,.51,.07,1.02,.12,1.75,.95,0,1.83,0,2.71,0,36.76,0,73.52,.1,110.28-.08,7.67-.04,12.07,4.99,12.05,11.37-.15,50.97-.08,101.94-.08,152.91,0,.83,0,1.67,0,2.69,1.66,0,3.17,.12,4.65-.03,1.84-.19,3-1.3,3.38-2.99,.2-.88,.19-1.81,.19-2.71,0-41.79,0-83.58,0-125.37,0-.72-.03-1.43,.01-2.15,.1-1.85,1.3-3.05,3.03-3.07,1.73-.02,2.98,1.15,3.16,2.99,.05,.45,.02,.91,.02,1.37,0,42.31,0,84.62,0,126.94,0,5.73-3.2,9.96-8.43,10.75-2.22,.33-4.55,.06-7.29,.06,.87,6.65-1.23,11.62-8.29,13.74H8.6C1.76,197.43,0,194.96,0,187.88c0-7.94,0-15.88,0-23.83,0-.77,.01-1.58,.23-2.32,.42-1.44,1.54-2.13,3.12-2.03,1.59,.1,2.55,.94,2.79,2.41,.11,.64,.08,1.3,.08,1.95,0,8.27,0,16.53,0,24.8,0,3.95,1.41,5.27,5.61,5.27,40.71,0,81.41,0,122.12,0,4.23,0,5.56-1.26,5.56-5.27,0-54.75,0-109.49,0-164.24,0-3.95-1.28-5.17-5.41-5.17-40.78,0-81.55,0-122.33,0-4.22,0-5.55,1.26-5.55,5.29,0,40.69,0,81.37,0,122.06,0,.85,.03,1.7-.08,2.53-.2,1.51-1.27,2.33-2.79,2.43-1.53,.11-2.69-.61-3.12-2.05-.2-.68-.23-1.41-.23-2.12C0,106.52,0,65.45,0,24.37c0-6.8,4.26-10.76,11.5-10.77,1.3,0,2.6,0,4.12,0,0-1.24,0-2.26,0-3.28,.04-5.03,2.59-8.34,7.64-9.96C23.52,.28,23.74,.12,23.97,0,67.04,0,110.1,0,153.17,0Z"/>
  <path class="cls-1" d="M87.58,62.31c0,8.33,.01,16.66,0,24.99,0,4.89-2.9,7.6-8.11,7.61-17.85,.01-35.71,.01-53.56,0-5.13,0-8.09-2.81-8.09-7.67-.01-16.79-.01-33.58,0-50.37,0-4.84,2.97-7.58,8.16-7.58,17.85,0,35.71,0,53.56,0,5.2,0,8.04,2.7,8.04,7.64,.01,8.46,0,16.92,0,25.38Zm-63.54-.4c0,8.2,0,16.39,0,24.59,0,2.5,.05,2.55,2.66,2.55,17.37,0,34.73-.02,52.1,.04,1.99,0,2.61-.54,2.6-2.43-.07-16.39-.07-32.79,0-49.18,0-1.97-.74-2.37-2.65-2.36-17.37,.06-34.73,.03-52.1,.03-2.6,0-2.61,0-2.61,2.57,0,8.07,0,16.13,0,24.2Z"/>
  <path class="cls-1" d="M45.35,156.76c1.49-1.48,3.08-3.11,4.72-4.69,1.58-1.53,3.38-1.71,4.74-.52,1.39,1.21,1.36,2.89-.18,4.49-1.77,1.83-3.7,3.53-5.34,5.45-.74,.87-1.29,2.13-1.33,3.23-.15,4.22-.04,8.46-.07,12.69-.03,4.46-2.61,6.88-7.33,6.89-5.19,.02-10.38,.02-15.57,0-4.55-.02-7.17-2.52-7.19-6.83-.02-4.88-.02-9.76,0-14.64,.02-4.3,2.61-6.78,7.21-6.82,5.19-.05,10.38-.06,15.57,.02,1.48,.02,2.96,.44,4.77,.73Zm-5.29,5.3h-15.92c2.24,3.17,4.37,6.17,6.6,9.32,3.13-3.13,6.1-6.1,9.32-9.32Zm1.48,7.08c-3.24,3.25-6.11,6.12-9.16,9.17h9.16v-9.17Zm-17.41,9.2h3.97c-1.33-1.9-2.5-3.57-3.97-5.67v5.67Z"/>
  <path class="cls-1" d="M72.93,139.44c16.74,0,33.49,0,50.23,0,.62,0,1.25-.04,1.87,.03,1.65,.19,2.66,1.1,2.79,2.66,.14,1.58-.76,2.61-2.34,3.03-.71,.19-1.51,.14-2.27,.14-33.56,0-67.11,0-100.67,0-.48,0-.97,.02-1.45-.01-1.92-.13-3.25-1.33-3.27-2.91-.02-1.67,1.35-2.91,3.42-2.92,8.37-.03,16.74-.01,25.12-.01,8.86,0,17.71,0,26.57,0Z"/>
  <path class="cls-1" d="M72.77,106.22c16.74,0,33.49,0,50.23,0,.69,0,1.39-.05,2.07,.04,1.65,.21,2.64,1.13,2.75,2.7,.11,1.58-.8,2.6-2.39,2.99-.72,.18-1.51,.13-2.27,.13-33.56,0-67.11,0-100.67,0-.35,0-.69,0-1.04,0-2.22-.08-3.65-1.24-3.63-2.97,.01-1.73,1.42-2.88,3.68-2.88,10.93-.02,21.86,0,32.79,0,6.16,0,12.32,0,18.47,0Z"/>
  <path class="cls-1" d="M72.77,128.65c-16.74,0-33.48,0-50.22,0-3.19,0-4.7-.94-4.72-2.89-.02-1.96,1.55-2.97,4.67-2.97,33.55,0,67.1,0,100.65,0,.69,0,1.4-.02,2.07,.1,1.73,.32,2.69,1.34,2.59,3.02-.09,1.57-1.08,2.49-2.75,2.68-.75,.08-1.52,.06-2.28,.06-16.67,0-33.34,0-50.02,0Z"/>
  <path class="cls-1" d="M91.47,173.06c-10.66,0-21.32-.01-31.98,.01-1.55,0-2.91-.22-3.68-1.65-.94-1.74,.19-3.8,2.32-4.16,.67-.11,1.38-.07,2.07-.07,20.97,0,41.95,0,62.92,0,.42,0,.83-.01,1.25,0,2.12,.09,3.44,1.19,3.47,2.88,.04,1.79-1.31,2.96-3.56,2.96-10.94,.02-21.87,0-32.81,0Z"/>
  <path class="cls-1" d="M111.09,66.03c-4.43,0-8.85,.01-13.28,0-2.31-.01-3.63-1.08-3.66-2.86-.02-1.78,1.32-2.97,3.56-2.98,8.85-.03,17.71-.03,26.56,0,2.24,0,3.59,1.2,3.56,2.99-.03,1.76-1.38,2.84-3.67,2.85-4.36,.02-8.72,0-13.07,0Z"/>
  <path class="cls-1" d="M110.88,49.44c-4.29,0-8.57,.02-12.86,0-2.51-.02-3.84-1.04-3.86-2.89-.02-1.85,1.29-2.94,3.78-2.95,8.71-.03,17.42-.03,26.14,0,2.46,0,3.8,1.14,3.76,2.98-.04,1.83-1.38,2.84-3.9,2.86-4.36,.02-8.71,0-13.07,0Z"/>
  <path class="cls-1" d="M110.79,83.76c-4.36,0-8.71,.04-13.07-.01-2.43-.03-3.87-1.43-3.53-3.34,.3-1.67,1.5-2.47,3.22-2.47,9.06-.03,18.12-.04,27.17,0,2.03,.01,3.23,1.19,3.26,2.84,.03,1.73-1.21,2.92-3.36,2.95-4.56,.06-9.13,.02-13.69,.02h0Z"/>
  <path class="cls-1" d="M169.31,105.87c0-13.34,0-26.68,0-40.03,0-5.23,2.58-7.68,8.08-7.69,4.98,0,9.97-.02,14.95,0,4.78,.02,7.61,2.64,7.63,7.17,.04,8.2,.01,16.4,.01,24.6,0,18.81,.02,37.62-.04,56.43,0,1.37-.4,2.84-1.03,4.08-2.96,5.8-6.09,11.52-9.11,17.3-1.08,2.05-2.5,3.66-5.12,3.7-2.73,.04-4.18-1.65-5.29-3.76-3.03-5.77-6.14-11.5-9.12-17.29-.58-1.12-.92-2.47-.93-3.71-.06-13.6-.04-27.21-.04-40.81Zm24.32-23.38h-17.97v62.37h17.97v-62.37Zm-18.08-6.15h18.19c0-3.8,.04-7.49-.06-11.17-.01-.39-.81-1.09-1.25-1.1-5.18-.08-10.36-.08-15.54,0-.46,0-1.27,.78-1.29,1.22-.1,3.63-.06,7.27-.06,11.05Zm16.19,74.59h-14.24c2.39,4.5,4.67,8.79,7.12,13.41,2.46-4.64,4.73-8.92,7.12-13.41Z"/>
  <path class="cls-1" d="M61.89,78.18c-.18-1.81-.13-3.66-.57-5.4-1.02-3.95-5.05-6.45-9.4-6.1-4.25,.34-7.69,3.4-8.06,7.39-.21,2.26-.08,4.55-.15,6.82-.06,2.12-1.29,3.44-3.11,3.44-1.82,0-3.05-1.31-3.1-3.44-.05-2.02-.02-4.03,.01-6.05,.08-4.65,2.27-8.35,6.02-11.27-7.84-7.21-5.31-15.91-.62-20.03,5.65-4.97,14.39-4.91,19.86,.2,5.16,4.83,6.18,13.61-1.1,19.97,.51,.32,1.07,.58,1.5,.97,3,2.67,4.58,5.99,4.77,9.86,.11,2.14,.07,4.29,.03,6.44-.05,2.24-1.21,3.33-3.61,3.36-2.9,.04-5.81,.04-8.72,0-2.24-.03-3.6-1.19-3.57-2.97,.02-1.78,1.35-2.84,3.65-2.88,1.8-.03,3.6-.02,5.39-.04,.13,0,.25-.08,.78-.27Zm-17.16-25.07c-.04,4.22,3.5,7.6,7.97,7.6,4.4,0,7.92-3.26,7.98-7.4,.06-4.21-3.5-7.61-7.97-7.61-4.36,0-7.94,3.32-7.98,7.4Z"/>
</svg>