<?xml version="1.0" encoding="UTF-8"?>
<svg id="Layer_1" data-name="Layer 1" xmlns="http://www.w3.org/2000/svg" viewBox="0 0 200 200">
  <defs>
    <style>
      .cls-1 {
        fill: #5c2e63;
      }
    </style>
  </defs>
  <path class="cls-1" d="M98.63,171.71c-.64,0-1.17,0-1.7,0-11.91,0-23.81,0-35.72,0-13.87,0-27.74,.06-41.6-.04-8.17-.05-14.21-3.83-17.79-11.34C.6,157.77,0,155,0,152.12c0-39.67-.01-79.34,0-119.01,0-10.41,7.11-18.55,17.3-19.57,4.14-.42,8.34-.22,12.51-.28,2.63-.03,5.26-.03,7.89,0,.88,.01,1.16-.32,1.17-1.19,0-2.07,0-4.15,.18-6.21,.3-3.62,3.09-6.01,6.61-5.81,3.3,.18,5.76,2.91,5.77,6.46,.02,6.52,.02,13.04,0,19.56,0,3.67-2.43,6.36-5.81,6.53-3.49,.17-6.15-2.11-6.57-5.72-.11-.98-.45-1.39-1.48-1.38-5.81,.04-11.61-.02-17.42,.04-4.9,.05-7.55,2.83-7.57,7.8-.02,3.9,.03,7.79-.02,11.69-.01,1.06,.36,1.47,1.36,1.4,.33-.02,.67,0,1,0,46.58,0,93.15,0,139.73,0,2.42,0,2.44,0,2.42-2.5-.03-3.85,.01-7.7-.16-11.55-.21-4.73-3.28-6.68-7.31-6.83-2.46-.09-4.93-.07-7.39,0-1.06,.03-1.49-.25-1.46-1.41,.07-3.17,.06-6.35,0-9.53-.02-1.05,.33-1.42,1.37-1.36,3.83,.19,7.72-.03,11.49,.55,7.68,1.18,12.69,5.89,15.07,13.31,.7,2.17,.99,4.57,1,6.86,.07,20.66,.05,41.32,.05,61.98,0,1.64,.02,1.54-1.51,1.14-3.26-.86-6.53-1.69-9.83-2.37-1.09-.22-1.32-.66-1.32-1.67,.03-8.21,.02-16.43,.02-24.64,0-3.22,0-6.44,0-9.65q0-1.97-1.91-1.98c-31.04,0-62.07,0-93.11,0-15.87,0-31.75,0-47.62,0q-1.85,0-1.86,1.87c0,30.78,0,61.56,0,92.34,0,3.21,.82,6.04,4.05,7.32,1.32,.52,2.84,.73,4.27,.73,24.19,.04,48.37,.03,72.56,.04,1.97,0,1.78-.29,2.26,1.76,.77,3.32,1.81,6.58,2.73,9.87,.08,.27,.1,.55,.17,1.01Z"/>
  <path class="cls-1" d="M178.73,112.04c-2.38,1.75-4.72,3.5-7.11,5.16-.27,.19-.95,0-1.32-.23-4.24-2.55-8.77-4.33-13.64-5.1-12.77-2.03-23.98,1.35-33.5,10.19-6.59,6.12-10.54,13.8-11.98,22.73-2.68,16.66,5.45,32.8,19.24,40.77,7.39,4.27,15.34,6.2,23.82,5.03,17.08-2.36,28.24-12.06,33.55-28.58,1.93-6,1.97-12.22,.82-18.44-.09-.46-.13-1.13,.13-1.44,2.11-2.55,4.29-5.04,6.49-7.59,6.32,15.19,3.93,40.72-16.96,56.1-20.97,15.45-49.86,11.35-65.99-9.15-16.16-20.53-13.48-49.98,6.02-67.21,19.18-16.94,45.42-14.48,60.43-2.24Z"/>
  <path class="cls-1" d="M149,167.57c-2.78,.08-5.21-.95-6.82-3.13-5.97-8.08-11.13-16.66-14.53-26.21-.24-.67-.35-1.39-.46-2.1-.21-1.32-.03-2.55,1.09-3.43,1.07-.84,2.34-.86,3.43-.26,2.48,1.37,4.99,2.73,7.25,4.43,3.28,2.47,6.36,5.22,9.47,7.9,.8,.69,1.33,.77,2.22,.06,9.92-7.87,19.79-15.81,29.88-23.46,4.53-3.43,9.48-6.29,14.31-9.29,.89-.55,2.13-.7,3.21-.7,1.49,0,2.32,1.09,1.78,2.48-.7,1.82-1.55,3.68-2.73,5.21-2.68,3.46-5.58,6.73-8.42,10.06-10.38,12.16-21.25,23.86-32.46,35.24-1.99,2.02-4.31,3.31-7.23,3.22Z"/>
  <path class="cls-1" d="M90.52,13.25c8.69,0,17.38-.02,26.07,.03,1.26,0,1.7-.36,1.65-1.65-.07-1.94-.03-3.9,.04-5.84,.1-2.86,2.28-5.25,5.14-5.71,2.8-.46,5.81,1.27,6.72,3.93,.27,.79,.5,1.64,.5,2.47,.04,6.65,.07,13.29,0,19.94-.04,4.19-4.09,7.14-8.03,5.97-2.41-.72-4.28-2.9-4.33-5.31-.03-1.35-.59-1.57-1.76-1.57-16.96,.03-33.92,.02-50.88,.02-.42,0-.84,0-1.25,0-1.99,0-1.93,0-1.88-1.98,.07-2.75,.03-5.5,.04-8.25,0-1.85,0-1.87,1.78-1.87,8.73,0,17.46,0,26.19,0,0-.06,0-.11,0-.17Z"/>
  <path class="cls-1" d="M84.89,81.07c3.3,0,6.6-.02,9.89,0,2.72,.02,4.49,1.74,4.52,4.49,.04,4.4,.04,8.8,0,13.2-.02,2.78-1.79,4.67-4.53,4.69-6.64,.06-13.28,.05-19.91,0-2.8-.02-4.65-2.03-4.66-4.89-.02-4.23-.02-8.46,0-12.69,.01-2.96,1.86-4.79,4.79-4.8,3.3-.01,6.6,0,9.89,0Z"/>
  <path class="cls-1" d="M41.64,81.07c3.26,0,6.51-.01,9.77,0,2.95,.01,4.6,1.65,4.62,4.6,.02,4.36-.07,8.72,.03,13.07,.07,2.85-1.96,4.69-4.49,4.71-6.68,.07-13.36,.07-20.03,0-2.75-.03-4.46-1.96-4.46-4.74,0-4.36,0-8.71,0-13.07,0-2.75,1.72-4.55,4.43-4.57,3.38-.03,6.76,0,10.14,0Z"/>
  <path class="cls-1" d="M41.52,120.36c3.34,0,6.68-.02,10.01,0,2.92,.02,4.48,1.6,4.49,4.55,.02,4.36,.02,8.71,0,13.07-.01,2.94-1.71,4.64-4.58,4.65-6.59,0-13.18,0-19.78,0-2.84,0-4.59-1.78-4.59-4.66,0-4.36,0-8.71,0-13.07,0-2.78,1.68-4.51,4.43-4.53,3.34-.03,6.68,0,10.01,0Z"/>
  <path class="cls-1" d="M84.76,120.36c3.34,0,6.69,.08,10.02-.02,2.8-.08,4.41,2.15,4.6,4.59,.23,3.05-1.26,5.55-1.97,8.3-.68,2.61-1.3,5.24-1.82,7.89-.21,1.09-.54,1.55-1.74,1.54-6.31-.07-12.61-.03-18.92-.03-2.73,0-4.65-1.76-4.7-4.51-.08-4.44-.06-8.89,0-13.34,.03-2.23,1.72-4.5,4.51-4.43,3.34,.08,6.68,.02,10.02,.02Z"/>
  <path class="cls-1" d="M128.02,81.07c3.3,0,6.59-.01,9.89,0,2.9,.01,4.58,1.69,4.62,4.63,.03,2.58-.04,5.16,.03,7.74,.03,1.09-.39,1.47-1.38,1.64-6.46,1.12-12.58,3.23-18.32,6.45-.58,.33-1.19,.63-1.72,1.04-1.76,1.37-3.63,1.15-5.41,.23-1.76-.9-2.22-2.58-2.2-4.5,.04-4.14,0-8.29,.02-12.43,0-3.08,1.7-4.8,4.71-4.81,3.25-.01,6.51,0,9.76,0Z"/>
</svg>