<?xml version="1.0" encoding="UTF-8"?>
<svg id="Layer_1" data-name="Layer 1" xmlns="http://www.w3.org/2000/svg" viewBox="0 0 200 200">
  <defs>
    <style>
      .cls-1 {
        fill: #5c2e63;
      }
    </style>
  </defs>
  <path class="cls-1" d="M38.02,200c.02-27.38,12.47-51.27,36.12-61.67,5.93,16.82,11.88,33.66,18.25,51.73,6.32-17.95,12.21-34.71,18.08-51.39,19.69,4.86,35.29,31.19,36.64,61.33H38.02Z"/>
  <path class="cls-1" d="M200,173.08h-52.66c-4.4-17.58-14.25-30.09-27.87-40.69,5.84-4.72,11.02-8.92,16.8-13.6,5.48,15.4,10.63,29.89,16.23,45.63,5.46-15.47,10.53-29.82,15.73-44.57,9.94,4.22,17.78,11.04,23.44,21.12,4.28,7.62,6.56,16.09,7.5,25.09,.14,1.39,.54,2.75,.82,4.13v2.88Z"/>
  <path class="cls-1" d="M0,111.54c.83-4.49,1.42-9.06,2.55-13.45,4.46-17.36,14.14-29.19,29.16-36.27,5.17,14.73,10.26,29.24,15.77,44.93,5.51-15.58,10.61-29.99,16.02-45.3,3.96,2.25,7.55,4.28,12,6.8-12.35,10.39-13.96,25.48-16.76,39.91-1.36,6.98-1.29,6.98-7.55,7C34.13,115.23,17.06,115.31,0,115.38,0,114.1,0,112.82,0,111.54Z"/>
  <path class="cls-1" d="M50.41,0c.89,.34,1.76,.77,2.66,1.02,11.76,3.25,19.13,16.15,17.93,31.42-.99,12.61-10.87,23.76-21.58,24.35-12.68,.69-22.85-8.74-25.23-23.41-2.16-13.29,4.95-27.61,15.76-31.72,1.54-.59,3.11-1.1,4.66-1.65,1.93,0,3.86,0,5.79,0Z"/>
  <path class="cls-1" d="M92.32,67.2c15.5-.01,27.39,14.09,27.45,32.58,.06,18.21-12.08,32.82-27.32,32.87-15.38,.05-27.33-14.54-27.27-33.29,.06-18.43,11.64-32.15,27.14-32.16Z"/>
  <path class="cls-1" d="M176.24,86.95c-.04,15.33-10.45,28-23.16,28.19-13.25,.19-24.11-12.75-24.09-28.7,.02-15.73,10.34-27.91,23.62-27.89,13.46,.02,23.67,12.29,23.63,28.39Z"/>
</svg>