<?xml version="1.0" encoding="UTF-8"?>
<svg id="Layer_1" data-name="Layer 1" xmlns="http://www.w3.org/2000/svg" viewBox="0 0 200 200">
  <defs>
    <style>
      .cls-1 {
        fill: #5c2e63;
      }
    </style>
  </defs>
  <path class="cls-1" d="M200,62.86c-1.04,4.34-1.81,8.78-3.19,13-2.12,6.51-5.83,12.13-10.38,17.11-1.24,1.36-1.8,2.82-2.05,4.6-1.68,11.82-3.39,23.64-5.13,35.45-.64,4.36-4.35,5.88-8.04,3.28-8.82-6.21-17.61-12.45-26.38-18.73-1.1-.79-2.09-.91-3.41-.79-6.15,.55-12.32,.91-18.48,1.32-.5,.03-1.09,0-1.51-.23-4.42-2.41-8.81-4.87-13.38-7.41,2.27-2.48,4.18-4.42,8-3.82,9.21,1.46,18.44,.59,27.57-1.23,1.38-.28,2.45-.11,3.63,.73,6.99,5.03,14.04,9.99,21.07,14.97,.53,.37,1.08,.71,1.88,1.24,.71-4.83,1.39-9.43,2.06-14.03,.83-5.71,1.59-11.43,2.53-17.12,.17-1.02,.85-2.09,1.58-2.85,5.96-6.16,10.57-13.12,12.33-21.77,2.28-11.22-.35-21.35-6.94-30.37-8.68-11.87-20.64-18.59-34.27-22.49-7.96-2.28-16.1-3.11-24.35-2.91-.73,.02-1.64-.04-2.19-.46-3.93-2.93-7.79-5.95-11.68-8.95,2.11-.3,4.55-.77,7-.98,19.86-1.72,38.67,1.75,55.85,12.56,10.76,6.76,19.35,15.73,24.18,27.91,1.68,4.23,2.29,8.9,3.38,13.37,.14,.57,.22,1.16,.34,1.74v6.86Z"/>
  <path class="cls-1" d="M77.73,138.7c1.8-4.9,3.46-9.27,5-13.68,.65-1.88,1.75-3.02,3.64-3.5,5-1.27,9.52-3.6,13.59-6.82,1.53-1.21,3.01-1.34,4.69-.37,10.74,6.18,21.45,12.41,32.27,18.45,5.45,3.04,8.93,7.7,11.43,13.31,3.67,8.24,5.64,17,6.98,25.91,.19,1.29-.4,2.93-1.12,4.1-4.27,6.93-10.83,10.91-17.86,14.12-9.97,4.55-20.53,6.8-31.3,8.14-17.01,2.1-34.06,2.17-51.09,.43-11.95-1.22-23.72-3.48-34.8-8.51-6.98-3.17-13.43-7.12-17.87-13.84-1.13-1.71-1.54-3.37-1.15-5.47,1.7-9.19,3.89-18.21,7.94-26.66,2.21-4.62,5.16-8.48,9.64-11.02,11.06-6.27,22.07-12.65,33.09-18.99,1.52-.88,2.94-.87,4.36,.26,4.23,3.36,8.93,5.76,14.11,7.09,1.7,.44,2.65,1.5,3.24,3.14,1.39,3.9,2.85,7.78,4.29,11.67,.22,.6,.48,1.19,.92,2.27Z"/>
  <path class="cls-1" d="M113.69,88.19c-4.99,.53-10.08,1.09-15.18,1.6-1.16,.12-2.35,.02-3.52,.08-2.35,.12-4.58,.13-6.59-1.61-.92-.79-2.39-1.19-3.63-1.25-3.57-.16-7.17-.32-10.72,0-5.54,.51-9.49,5.49-9.32,11.25,.16,5.66,4.51,10.3,10.08,10.58,3.05,.15,6.12,.07,9.18,0,.9-.02,1.92-.07,2.66-.51,4.97-2.97,10.42-1.24,15.6-2.08,.08,.15,.16,.3,.24,.46-.65,.57-1.3,1.15-1.96,1.71-4.38,3.69-9.28,6.4-14.58,8.42-7.67,2.92-14.89,1.25-21.85-2.32-10.18-5.22-17.91-13.06-22.87-23.66-.33-.7-.2-1.71-.06-2.54,.32-2.04,1.08-4.05,1.11-6.08,.13-8.74,.07-17.48,.05-26.22,0-2.95-.59-5.73-2.36-8.15-.26-.35-.57-.86-.51-1.24,1.06-7.28,2.44-14.46,7.26-20.3,4.59-5.57,10.74-8.17,17.47-9.41,9.58-1.77,19.19-1.72,28.74,.36,10.97,2.39,18.28,8.91,21.15,20.32,.29,1.17,.61,2.33,.86,3.51,.66,3.11,1.41,6.08-.71,9.16-.98,1.43-1.05,3.71-1.07,5.61-.1,8.8-.08,17.61-.02,26.42,.01,1.78,.34,3.57,.57,5.88Z"/>
  <path class="cls-1" d="M24.04,48.4c1.79-7.13,2.94-13.92,5.22-20.29,4.66-13.04,14.11-21.04,27.02-24.52,14.25-3.84,28.64-3.88,42.87,.02,16.66,4.57,26.09,16.28,29.67,33.37,.39,1.84,.76,3.68,1.05,5.53,.29,1.85,.48,3.71,.75,5.87,1.13,0,2.21-.04,3.29,0,4.08,.16,6.66,2.84,6.68,7.07,.03,9.07,.03,18.15,0,27.22-.02,4.44-2.63,7.15-6.98,7.12-1.56-.01-2.63,.39-3.67,1.63-3.53,4.21-8.37,6.01-13.4,7.33-8.79,2.29-17.76,2.54-26.77,2.5-.99,0-2.13,.41-2.94,1.01-2.4,1.77-12.36,1.95-14.71,.11-1.82-1.42-2.57-3.81-1.92-6.12,.61-2.17,2.47-3.87,4.68-3.95,2.99-.11,6-.16,8.98,.06,1.13,.08,2.48,.72,3.23,1.57,.96,1.09,1.93,1.34,3.22,1.35,8.28,.03,16.56-.11,24.64-2.24,2.74-.72,5.37-1.89,8.52-3.01-.73-.52-.94-.72-1.19-.83-2.65-1.25-3.96-3.41-3.96-6.37-.02-9.07,0-18.15,0-27.22,0-2.27,.71-4.19,2.43-5.7,.34-.3,.66-.9,.61-1.32-.81-7.16-2.05-14.22-5.38-20.68-4.24-8.23-11.11-13.11-19.65-15.31-12.06-3.1-24.24-3.17-36.36-.18-13.57,3.35-21.45,12.46-24.45,26.29-.67,3.07-1.09,6.21-1.48,9.33-.08,.63,.47,1.35,.77,2.01,.73,1.66,2.08,3.29,2.12,4.96,.21,9.4,.14,18.82,.08,28.23-.03,3.75-2.62,6.42-6.32,6.56-3.19,.12-6.39,.13-9.57,0-3.67-.15-6.29-2.81-6.33-6.59-.09-9.41-.09-18.82,0-28.23,.04-3.76,2.68-6.33,6.37-6.57,1.15-.07,2.31-.01,2.91-.01Z"/>
</svg>