<?xml version="1.0" encoding="UTF-8"?>
<svg id="Layer_1" data-name="Layer 1" xmlns="http://www.w3.org/2000/svg" viewBox="0 0 200 200">
  <defs>
    <style>
      .cls-1 {
        fill: #5c2e63;
      }
    </style>
  </defs>
  <path class="cls-1" d="M119.15,142.86c2.74-2,5.6-3.6,8.67-4.95,3.06-1.34,6.26-2.4,9.61-3.23,.03-.14,.07-.27,.07-.41,0-2.78,0-5.56-.01-8.35,0-.53-.08-1.05-.13-1.58-.2-.13-.38-.23-.55-.34-5.7-3.49-9.47-8.08-11.31-13.78-.2-.61-.19-.61-.8-.94-3.78-2.04-7.87-3.5-12.2-4.51-2.79-.65-5.63-1.09-8.5-1.33-2.81-.23-5.62-.3-8.44-.17-4.93,.23-9.73,.97-14.38,2.34-1.76,.52-3.48,1.13-5.16,1.83-.24,.1-.47,.21-.67,.3-1.54,8.62-6.86,14.99-16,19.17,0,2.62,0,5.26,0,7.88,1.73,.42,3.4,.82,5.07,1.25,1.67,.43,3.29,.98,4.89,1.57,1.59,.59,3.13,1.26,4.73,2.01,.02-.27,.04-.45,.04-.62,0-.95,0-1.91,0-2.86,0-.54,.16-1.04,.5-1.51,.76-1.04,2.26-1.57,3.64-1.29,1.52,.3,2.56,1.33,2.68,2.64,.02,.18,0,.37,0,.55,0,2.17,0,4.35,0,6.52,0,.16,0,.32,0,.49,0,.15,.06,.28,.2,.37,.13,.09,.25,.19,.38,.29,2.93,2.27,5.39,4.84,7.23,7.81,1.41,2.27,2.36,4.67,2.82,7.2,.2,1.1,.31,2.22,.31,3.34,0,11.41,0,22.83,0,34.24,0,.37,0,.73-.12,1.09-.42,1.34-1.97,2.24-3.63,2.11-1.68-.13-2.99-1.3-3.07-2.65-.01-.24,0-.49,0-.73,0-11.21-.02-22.42,0-33.63,0-3.69-1.22-7.04-3.62-10.11-1.91-2.44-4.33-4.48-7.1-6.23-3.66-2.31-7.72-3.97-12.06-5.17-2.96-.82-5.98-1.38-9.07-1.73-3.41-.39-6.82-.49-10.25-.33-6.89,.32-13.48,1.65-19.66,4.27-3.31,1.4-6.34,3.15-9,5.33-2.22,1.82-4.07,3.87-5.41,6.23-1.34,2.37-2.02,4.85-2.02,7.48,.01,11.29,0,22.58,0,33.87,0,.34,0,.69-.07,1.03-.24,1.37-1.6,2.36-3.27,2.41-1.6,.04-3.05-.89-3.41-2.2-.05-.18-.06-.36-.07-.54-.01-.22,0-.45,0-.67,0-11.21,.03-22.42-.01-33.63-.02-5.09,1.77-9.67,5.2-13.83,2.27-2.75,5.07-5.08,8.25-7.08,4.31-2.71,9.08-4.68,14.2-6.07,3.17-.86,6.41-1.47,9.71-1.87,3.93-.47,7.88-.57,11.85-.43,.9,.03,1.79,.12,2.69,.18,.17,.01,.34,0,.54,0,.02-.09,.07-.18,.07-.28,0-1.42,0-2.84,0-4.26,0-.1-.04-.19-.06-.33-.43,.06-.83,.11-1.23,.17-2.23,.35-4.48,.46-6.74,.37-6.02-.25-11.46-1.86-16.26-4.89-6.09-3.84-9.86-8.93-11.36-15.18-.51-2.12-.63-4.27-.44-6.43,.94-10.49,9.45-18.82,20.51-21.76,3.39-.9,6.86-1.26,10.41-1.13,12.22,.44,23.33,7.37,26.98,17.75,.35,.99,.63,2,.81,3.03,.03,.16,.09,.31,.15,.49,.22-.06,.4-.11,.58-.17,3.45-1.23,7.02-2.13,10.69-2.75,2.26-.38,4.54-.64,6.85-.8,2.94-.2,5.87-.24,8.81-.08,7.59,.41,14.85,1.89,21.69,4.74,.19,.08,.39,.15,.58,.22,.17-.2,.15-.41,.17-.61,.62-6.05,3.49-11.23,8.61-15.52,4.27-3.57,9.4-5.83,15.35-6.78,2.52-.4,5.05-.52,7.61-.37,10.37,.58,19.79,5.81,24.47,13.77,1.48,2.52,2.43,5.17,2.82,7.96,1.48,10.68-5.19,20.37-15.87,24.96-2.94,1.26-6.04,2.09-9.32,2.47-4.47,.52-8.86,.22-13.17-.91-.23-.06-.46-.12-.74-.19-.12,.7-.04,1.36-.05,2.02-.01,.65,0,1.3,0,1.95,0,.67-.04,1.33,.03,2.02,.15,0,.27,0,.38,0,1.69-.16,3.37-.36,5.07-.46,1.74-.1,3.49-.13,5.24-.13,2.04,0,4.08,.12,6.1,.32,7.04,.7,13.73,2.33,19.97,5.18,4.19,1.92,7.95,4.29,11.13,7.28,2.81,2.64,4.98,5.59,6.34,8.95,.93,2.31,1.42,4.68,1.42,7.12,0,11.47,0,22.95,0,34.42,0,.37-.02,.73-.14,1.08-.37,1.05-1.66,2.1-3.51,2-1.52-.08-2.79-1-3.09-2.28-.06-.26-.08-.52-.08-.79,0-1.14,0-2.27,0-3.41,0-10.15-.03-20.31,.02-30.46,.02-4.12-1.48-7.78-4.35-11.08-1.87-2.16-4.15-3.97-6.71-5.55-3.53-2.17-7.42-3.76-11.57-4.92-2.93-.82-5.93-1.4-8.99-1.74-3.43-.39-6.86-.52-10.32-.37-4.93,.22-9.73,.96-14.39,2.33-4.17,1.23-8.06,2.91-11.57,5.18-2.39,1.55-4.51,3.33-6.25,5.42-1.66,1.98-2.88,4.14-3.53,6.5-.31,1.11-.49,2.24-.51,3.38,0,.39,0,.77,0,1.16,0,11.15,0,22.3,0,33.45,0,.37,0,.73-.11,1.09-.33,1.09-1.66,2.27-3.71,2.1-1.56-.13-2.86-1.24-2.99-2.59-.02-.2-.01-.41-.01-.61,0-11.29,0-22.58,0-33.87,0-4.3,1.28-8.31,3.88-12.02,.18-.26,.23-.52,.23-.81,0-1.67,0-3.33,0-5,0-2.6,0-5.2,0-7.8,0-.26,.01-.53,.07-.79,.31-1.36,1.66-2.29,3.27-2.33,1.35-.03,2.97,.69,3.39,2.21,.08,.27,.09,.56,.09,.85,0,1.93,0,3.86,0,5.79,0,.2,.02,.39,.04,.73Zm34.94-19.89c12.53,.04,22.76-8.53,22.77-19.01,0-10.3-9.95-19.03-22.75-19.04-12.73,0-22.77,8.64-22.77,19.02,0,10.56,10.29,19.06,22.75,19.03Zm-108.17,.9c12.68-.04,22.76-8.59,22.75-19.04,0-10.41-10.03-19.03-22.77-19.02-12.99,0-22.76,8.87-22.76,19.03,0,10.21,9.86,18.99,22.77,19.03Z"/>
  <path class="cls-1" d="M98.42,43.99c16.63,.05,29.62,11.3,29.59,24.79-.04,13.73-13.4,24.71-29.62,24.69-16.19-.01-29.59-11-29.55-24.81,.04-13.47,13.04-24.62,29.58-24.67Zm0,43.77c12.55,.03,22.76-8.54,22.77-19.01,0-10.31-9.95-19-22.68-19.04-12.79-.04-22.84,8.66-22.84,19.02,0,10.48,10.21,19.06,22.75,19.03Z"/>
  <path class="cls-1" d="M129.74,183.79c0-4.04,0-8.08,0-12.12,0-.32,0-.66,.09-.97,.39-1.42,1.92-2.34,3.68-2.2,1.5,.12,2.9,1.11,3.05,2.67,.02,.16,0,.32,0,.49,0,8.1,0,16.19,0,24.29,0,.32-.03,.65-.11,.97-.27,1.14-1.65,2.33-3.7,2.16-1.62-.13-2.94-1.3-3.01-2.7-.01-.2,0-.41,0-.61,0-4,0-8,0-11.99Z"/>
  <path class="cls-1" d="M59.79,184.7c0-4.06,0-8.12,0-12.18,0-.3,0-.61,.08-.91,.41-1.52,2.04-2.34,3.58-2.23,1.73,.12,3.05,1.27,3.15,2.72,.01,.14,0,.28,0,.43,0,8.1,0,16.2,0,24.29,0,.34-.03,.69-.12,1.02-.38,1.35-1.94,2.26-3.59,2.14-1.8-.13-3.05-1.39-3.11-2.68,0-.2,0-.41,0-.61,0-4,0-8,0-11.99Z"/>
  <path class="cls-1" d="M174.79,183.78c0,4.06,0,8.12,0,12.18,0,.32,0,.65-.09,.97-.32,1.23-1.74,2.33-3.7,2.17-1.61-.13-2.91-1.27-3.02-2.69-.01-.16,0-.32,0-.49,0-8.08,0-16.15,0-24.23,0-.3,.02-.61,.09-.91,.34-1.45,1.9-2.41,3.68-2.26,1.94,.16,3.04,1.53,3.05,2.73,0,.2,0,.41,0,.61,0,3.98,0,7.96,0,11.93Z"/>
  <path class="cls-1" d="M28.36,184.73c0,4,0,8,0,11.99,0,.22,0,.45-.01,.67-.13,1.46-1.57,2.58-3.34,2.61-1.75,.03-3.24-1.07-3.42-2.53-.03-.22-.03-.45-.03-.67,0-8.08,0-16.15,0-24.23,0-.2,0-.41,.03-.61,.15-1.4,1.47-2.48,3.15-2.58,1.41-.08,3.01,.6,3.51,2.08,.12,.34,.12,.72,.12,1.09,0,3.55,0,7.1,0,10.65,0,.51,0,1.01,0,1.52Z"/>
  <path class="cls-1" d="M104.42,11.92c0,2.8,0,5.6,0,8.4,0,.24,0,.49-.01,.73-.1,1.46-1.53,2.63-3.28,2.66-2.06,.04-3.32-1.28-3.47-2.42-.03-.22-.05-.44-.05-.67,0-5.84,0-11.69,0-17.53,0-.34,.02-.7,.14-1.02,.53-1.51,2.19-2.18,3.6-2.05,1.69,.15,2.96,1.26,3.06,2.65,.02,.24,.01,.49,.01,.73,0,2.84,0,5.68,0,8.52Z"/>
  <path class="cls-1" d="M40.03,24.84c.77,.02,1.63,.3,2.31,.92,.15,.13,.28,.28,.41,.43,2.34,2.69,4.67,5.38,7.02,8.07,.36,.42,.64,.85,.76,1.37,.37,1.65-1.14,3.27-3.14,3.34-1.26,.05-2.27-.36-3.01-1.21-.97-1.11-1.94-2.23-2.91-3.35-1.43-1.64-2.85-3.28-4.28-4.92-.51-.58-.77-1.21-.73-1.93,.08-1.51,1.56-2.71,3.59-2.72Z"/>
  <path class="cls-1" d="M165.04,27.81c.01,.49-.19,1.02-.59,1.5-.25,.3-.51,.59-.77,.89-1.8,2.07-3.6,4.14-5.4,6.21-.14,.16-.28,.33-.45,.48-1.19,1.1-3.14,1.26-4.55,.39-1.44-.89-1.82-2.53-.87-3.81,.11-.16,.25-.3,.38-.45,1.95-2.25,3.91-4.5,5.86-6.75,.14-.16,.28-.33,.45-.48,.96-.9,2.46-1.19,3.79-.74,1.32,.44,2.15,1.46,2.14,2.75Z"/>
</svg>