<?xml version="1.0" encoding="UTF-8"?>
<svg id="Layer_1" data-name="Layer 1" xmlns="http://www.w3.org/2000/svg" viewBox="0 0 200 200">
  <defs>
    <style>
      .cls-1 {
        fill: #5a2b5f;
      }
    </style>
  </defs>
  <path class="cls-1" d="M42.35,.26c11.91,0,23.83,.07,35.74-.05,3.31-.03,5.75,1.01,8.11,3.39,35.19,35.35,70.47,70.6,105.71,105.9,2.44,2.45,4.76,5.01,7.1,7.56,1.3,1.41,1.32,3.29,0,4.7-3.31,3.52-6.61,7.06-10.03,10.47-21.45,21.39-42.93,42.75-64.41,64.12-.83,.82-1.76,1.55-2.53,2.41-1.49,1.67-3.69,1.63-5.34,.01-7.54-7.43-15.23-14.7-22.73-22.17-29.05-28.94-58.04-57.93-87.05-86.91-1.83-1.83-3.64-3.68-5.33-5.62-.58-.67-1.08-1.65-1.13-2.51-.24-4.24-.41-8.5-.42-12.75C0,47.26,0,25.71,.02,4.16c0-.61,.39-1.29,.75-1.83C2.07,.36,3.93-.02,6.23,0c12.04,.11,24.08,.05,36.12,.05,0,.07,0,.14,0,.21ZM119.17,188.41c23.05-23.12,46.04-46.18,69.09-69.3-.13-.14-.39-.45-.68-.73C151.58,82.37,115.57,46.37,79.58,10.35c-.62-.62-1.23-.84-2.08-.84-22.16,.02-44.32,.01-66.48,.02-.48,0-.96,.05-1.55,.08,0,.54,0,.95,0,1.36,0,22.22,0,44.44,.03,66.66,0,.65,.35,1.47,.81,1.93,35.95,36,71.92,71.97,107.9,107.94,.32,.32,.65,.62,.95,.9Z"/>
  <path class="cls-1" d="M108.99,104.8c0,12.92-.05,25.83,.05,38.75,.02,2.12-1.23,2.96-2.69,3.72-1.52,.79-3.09,.61-4.45-.5-1.27-1.03-1.94-2.22-1.93-4.03,.1-22.12,.08-44.25,.12-66.37,0-3.54,.11-7.08,.34-10.61,.21-3.24,3.37-4.84,6.2-3.24,1.49,.85,2.43,1.88,2.41,3.91-.11,12.79-.06,25.58-.06,38.37Z"/>
  <path class="cls-1" d="M60.52,42.89c-.05,9.32-8.57,17.77-17.85,17.69-9.53-.08-17.83-8.48-17.81-18.03,.02-8.87,8.77-17.72,17.45-17.65,9.93,.08,18.26,8.31,18.21,17.99Zm-17.91-8.6c-5.23,0-8.36,3.08-8.38,8.27-.02,5.66,2.94,8.71,8.43,8.71,5.55,0,8.56-3.03,8.56-8.6,0-5.44-3.01-8.37-8.61-8.38Z"/>
  <path class="cls-1" d="M128.71,90.14c8.05-.43,14.68,7.88,14.55,14.39-.15,7.7-6.88,14.52-14.62,14.54-7.54,.02-14.35-7.01-14.41-14.78-.05-6.57,7.21-14.66,14.48-14.15Zm-4.96,14.55c0,3.57,1.57,5.21,5.03,5.24,3.11,.02,5.28-2.12,5.28-5.24,0-3.7-1.7-5.27-5.74-5.27-3.03,0-4.57,1.78-4.58,5.27Z"/>
  <path class="cls-1" d="M95.03,104.92c.82,7.22-7.3,14.32-14.33,14.14-7.57-.19-14.33-6.79-14.38-14.35-.05-7.68,6.52-14.3,13.94-14.55,7.96-.27,15.68,7.41,14.76,14.76Zm-9.1-.38c.01-3.24-1.78-5.11-4.92-5.13-3.7-.02-5.54,1.68-5.58,5.16-.04,3.11,2.19,5.34,5.32,5.33,3.54-.01,5.16-1.69,5.18-5.36Z"/>
</svg>