<?xml version="1.0" encoding="UTF-8"?>
<svg id="Layer_1" data-name="Layer 1" xmlns="http://www.w3.org/2000/svg" viewBox="0 0 200 200">
  <defs>
    <style>
      .cls-1 {
        fill: #5c2e63;
      }
    </style>
  </defs>
  <path class="cls-1" d="M3.23,199.93c0-1.95,0-3.75,0-5.55,0-.26,.07-.52,.13-.95h6.82c-1.45-6.15-2.65-12.14-4.31-18.01-2.56-9.06-3.22-18.32-3.88-27.59-.64-8.94-1.28-17.87-1.95-26.81-.26-3.42,.45-6.59,2.09-9.65,9.49-17.75,18.92-35.54,28.42-53.29,2.32-4.34,6.47-6.44,11.32-7.77v-2.48c0-12.3,0-24.59,0-36.89C41.89,4.15,46.21,0,53.33,0c27.52,0,55.04,0,82.56,0,7.01,0,11.39,4.15,11.39,10.78,.01,28.83,0,57.66,0,86.48v2.65c17.56,.59,31.92,7.14,42.44,20.52,7.59,9.65,10.94,20.66,10.16,32.66-1.56,24-21.37,43.97-45.92,46.54-15.01,1.57-28.47-2-40.14-11.08-11.61-9.04-17.73-20.93-19.14-35.08h-17.68c0,4.78-.09,9.49,.02,14.18,.12,4.78-2.62,8.38-5.24,12.03-.85,1.18-2.05,2.19-3.25,3.09-3.59,2.69-3.82,6.8-5.39,10.65h6.72v6.49H3.23Zm91.23-53.21c3.95-25.78,19.17-41.15,45.8-46.46v-1.48c0-29.25,0-58.49,0-87.74,0-.35,.02-.7-.01-1.04-.17-1.98-1.42-3.22-3.51-3.3-2.05-.08-4.1-.02-6.15-.03-3.78,0-7.56,0-11.29,0-1.03,6.81-4.92,10-11.93,10-8.27,0-16.54,0-24.82,0-7.74,0-11.27-2.72-12.77-10-5.37,0-10.78,0-16.18,0-3.58,0-4.69,1.07-4.69,4.5,0,31.75,0,63.5,0,95.24,0,.58,.08,1.16,.15,2.04,1.12-.94,2-1.66,2.86-2.39,7.21-6.1,14.44-12.18,21.63-18.31,2.71-2.31,5.76-3.83,9.43-3.94,6.19-.18,10.69,2.67,13.69,7.55,2.91,4.73,2.6,9.61-.58,14.18-7.13,10.26-14.36,20.45-21.53,30.69-.43,.62-.97,1.33-1,2.01-.13,2.36-.13,4.73,.01,7.08,.03,.49,.88,1.33,1.37,1.33,6.51,.09,13.02,.06,19.52,.06Zm-38.69,46.61c.51-1.45,1.12-2.8,1.44-4.22,1.24-5.34,4.2-9.55,8.51-13.2,2.85-2.42,4.44-5.73,4.29-9.62-.14-3.54,.02-7.09-.06-10.63-.02-.93-.19-2-.69-2.76-2.4-3.61-3.25-7.51-2.81-11.72,.11-1.03-.15-2.11,.06-3.12,.29-1.45,.54-3.05,1.36-4.24,7.37-10.69,14.89-21.28,22.3-31.94,2.42-3.48,1.68-6.84-1.9-9.76-2.92-2.38-6.62-2.27-9.73,.35-8.92,7.52-17.91,14.96-26.7,22.62-4.87,4.25-10.48,5.42-16.86,4.8v-6.44c2.35-.1,4.56-.19,6.7-.28V57.4c-2.44,1.02-4.18,2.3-5.3,4.42-9.24,17.41-18.58,34.77-27.73,52.22-1.05,2.01-1.53,4.52-1.46,6.78,.19,6.17,.86,12.33,1.27,18.5,.86,13.02,1.55,26.05,5.26,38.73,1.48,5.04,2.46,10.21,3.66,15.28H55.77Zm137.19-43.27c-.08-23.89-20.55-43.42-45.44-43.35-25.68,.07-45.94,19.38-45.9,43.74,.03,23.62,20.72,42.98,45.88,42.94,24.99-.04,45.54-19.63,45.47-43.34ZM77.02,6.67c.35,2.18,1.53,3.29,3.53,3.3,9.35,.05,18.7,.05,28.05,0,2.12-.01,3.18-1.17,3.29-3.31h-34.87Z"/>
  <path class="cls-1" d="M111.19,36.1c.7-.59,1.29-1.09,1.96-1.66,1.61,1.58,3.16,3.1,4.8,4.7-.7,.72-1.43,1.48-2.14,2.22,6.89,11.61,2.85,25.5-8.67,32.01-10.46,5.91-24.13,3.51-31.61-5.52-7.59-9.16-6.93-22.16,1.41-30.48,8.07-8.05,22.6-10.52,34.26-1.26Zm-5.38,4.68c-6.56-5.7-17.01-5.44-23.57,.65-6.65,6.17-7.11,16.37-1.04,22.83,6.38,6.78,16.95,7.7,24.35,2.15,7.38-5.53,7.99-15.39,4.47-20.06-.54,.65-.98,1.3-1.54,1.84-3.65,3.51-7.34,6.99-11,10.48-1.39,1.32-3.18,2.06-4.69,.77-2.63-2.24-4.91-4.85-7.15-7.11,1.38-1.45,2.85-2.98,4.67-4.88,1.38,1.58,2.67,3.07,3.84,4.41,4.08-3.87,7.84-7.45,11.67-11.09Z"/>
  <path class="cls-1" d="M189.45,150.03c-.06,22.21-18.99,40.11-42.36,40.03-23.32-.08-42.01-18.07-41.96-40.4,.05-21.89,19.21-39.72,42.57-39.61,22.94,.11,41.81,18.17,41.75,39.98Zm-77.29,.04c-.04,18.28,15.68,33.24,35.03,33.33,19.24,.09,35.19-14.92,35.23-33.16,.04-18.4-15.62-33.48-34.82-33.53-19.63-.05-35.4,14.79-35.44,33.36Z"/>
  <path class="cls-1" d="M143.66,153.36c-5.44,.41-10.33-.54-14-4.58-2.39-2.63-3.54-5.71-3.43-9.19,.23-7.91,5.87-12.16,17.48-12.99v-6.42h7.06v6.57c5.68-.4,10.77,.59,14.48,4.94,2,2.35,3.02,5.05,3.06,8.22h-6.11c-1.4-1.9-2.28-4.13-3.98-5.15-1.94-1.17-4.59-1.26-7.24-1.89v13.87c5.53-.35,10.63,.6,14.31,5.01,2.17,2.6,3.26,5.58,3.07,8.9-.23,4.19-2.15,7.57-5.66,10.14-3.45,2.52-7.51,2.8-11.8,2.64v6.5h-7.06v-6.55c-5.71,.44-10.72-.58-14.41-4.84-2.06-2.38-3.15-5.11-3.18-8.34h6.8c1.46,5.45,4.25,7.14,10.62,6.36v-13.18Zm-.05-6.77v-13.11c-6.72-.4-10.39,1.98-10.37,6.6,.02,4.62,3.87,7.07,10.37,6.51Zm7.27,20.03c3.95,.37,7.48,.18,9.57-3.39,1.41-2.41,1.2-4.83-.48-7.05-2.3-3.03-5.6-3.02-9.09-2.65v13.09Z"/>
</svg>