<?xml version="1.0" encoding="UTF-8"?>
<svg id="Layer_1" data-name="Layer 1" xmlns="http://www.w3.org/2000/svg" viewBox="0 0 250 200">
  <defs>
    <style>
      .cls-1 {
        fill: #5c2e63;
      }
    </style>
  </defs>
  <path class="cls-1" d="M0,177.15C0,129.02,0,80.89,0,32.76c2.31-.68,4.61-1.9,6.94-1.94,11.4-.2,22.8-.09,34.56-.09,0-8.2,0-15.75,0-23.3C41.5,.33,41.81,0,48.82,0,113.4,0,177.98,0,242.56,0c6.89,0,7.43,.53,7.43,7.37,0,54.7,.03,109.4-.06,164.09,0,3.58-.49,7.26-1.46,10.71-3.22,11.53-13,17.78-27.6,17.79-65.09,.04-130.18,.03-195.26,.02-10.8,0-19.95-6.5-23.71-16.81-.72-1.98-1.28-4.02-1.91-6.03Zm42.06,15.17c2.91,0,4.88,0,6.85,0,35.07,0,70.14,0,105.21,0,22.09,0,44.17,.1,66.26-.04,15.17-.1,21.54-6.5,21.54-21.13,0-52.55,0-105.1,0-157.65V7.93H49.6v6.35c0,48.27-.07,96.53,.05,144.8,.03,11.42,.03,22.71-7.59,33.25ZM8.37,38.72c-.1,1.49-.26,2.76-.26,4.03-.01,43.48-.01,86.95,0,130.43,0,.66-.01,1.32,.03,1.98,.51,8.89,7.55,16.45,15.93,17.11,7.73,.61,14.23-4.8,16.25-13.95,.77-3.51,1.13-7.17,1.14-10.76,.08-41.5,.05-83,.04-124.5,0-1.43-.17-2.85-.26-4.34H8.37Z"/>
  <path class="cls-1" d="M219.58,33v59.86H72.21V33H219.58Zm-65.37,28.6c-.33-.04-.65-.08-.98-.11-.87-4.59-1.75-9.19-2.59-13.61h-8.01c2.05,10.23,4.03,20.15,5.99,29.95q8.46,.95,10.28-6.64c.77-3.18,1.65-6.33,2.48-9.5l.99,.05c1.45,5.45,2.9,10.91,4.35,16.35h8.37c2-10.04,3.98-20.03,5.99-30.14h-8.01c-.94,4.73-1.83,9.18-2.71,13.62-.3-.05-.6-.11-.91-.16-1.2-4.54-2.4-9.09-3.56-13.48q-8.05-.61-9.8,6.25c-.63,2.47-1.25,4.95-1.88,7.42Zm-45.25,16.23v-29.88h-7.87v15.91c-2.87-4.68-5.31-7.88-6.9-11.44-2.35-5.25-6.16-5.5-10.86-4.3v29.8h8.04v-15.85c2.74,4.39,5.17,7.42,6.63,10.86,2.17,5.1,5.69,6.37,10.96,4.91Zm16.4-12.6h12.56v-6.32c-2.97,0-5.62,.03-8.28,0-4.43-.06-4.43-.07-3.79-4.54h13.03v-6.47h-22.17v30.02h22.67v-6.7h-14.02v-5.98Zm58.76,2.97c.58,6.58,2.53,8.98,7.9,10.13,6.97,1.51,12.56-.24,15.2-4.74,3.03-5.18,1.27-11.2-4.25-13.76-2.25-1.04-4.8-1.44-7.12-2.37-1.13-.45-2.09-1.38-2.96-2.25-.12-.12,.78-1.73,1.24-1.75,1.4-.06,3.67-.14,4.09,.61,2.44,4.28,5.9,2.07,9.12,2.1-.9-7.47-5.79-10.26-14.45-8.76-4.51,.78-7.42,3.13-8.1,7.55-.71,4.56,1.82,7.52,5.87,9.27,2.14,.93,4.54,1.28,6.63,2.29,1.2,.58,2.34,1.82,2.84,3.02,.24,.56-.99,2.4-1.73,2.51-1.51,.23-3.44,.11-4.64-.67-1.21-.79-1.75-2.56-2.67-4.04-2.43,.3-4.71,.58-6.97,.85Z"/>
  <path class="cls-1" d="M185.49,158.22c10.28,0,20.56,.04,30.83-.03,2.91-.02,5.87,.2,5.95,3.68,.08,3.39-2.75,4.07-5.72,4.07-20.89-.01-41.78-.01-62.68,0-2.98,0-5.8-.7-5.7-4.09,.1-3.47,3.07-3.68,5.97-3.66,10.45,.06,20.89,.03,31.34,.03Z"/>
  <path class="cls-1" d="M185.13,143.04c-10.26,0-20.53-.02-30.79,.01-3.06,0-6.27-.28-6.13-4.08,.13-3.48,3.23-3.53,6.08-3.53,20.7,.04,41.39,.04,62.09,0,2.9,0,5.86,.22,5.88,3.73,.02,3.48-2.93,3.88-5.83,3.88-10.43-.02-20.86,0-31.3,0Z"/>
  <path class="cls-1" d="M105.78,135.47c9.59,0,19.18,.01,28.76,0,2.67,0,5.36,.1,5.5,3.51,.14,3.66-2.57,4.08-5.51,4.08-19.34-.02-38.69-.02-58.03,0-2.69,0-5.42-.28-5.55-3.56-.14-3.56,2.6-4.05,5.56-4.03,9.76,.04,19.51,.01,29.27,.01Z"/>
  <path class="cls-1" d="M103.88,158.27c9.59,0,19.17,.04,28.75-.02,2.76-.02,5.43,.37,5.53,3.57,.11,3.46-2.67,4.13-5.62,4.13-19.34,0-38.68,.1-58.01-.17-1.89-.03-5.12-2.1-5.36-3.58-.54-3.35,2.45-3.97,5.45-3.95,9.75,.07,19.51,.02,29.26,.02Z"/>
  <path class="cls-1" d="M185.25,120.15c-10.27,0-20.54-.02-30.8,.01-3,.01-6.29,.01-6.25-3.87,.03-3.5,3.08-3.66,5.95-3.65,20.7,.04,41.41,.04,62.11,0,2.86,0,5.9,.1,5.99,3.62,.09,3.93-3.2,3.91-6.19,3.9-10.27-.03-20.54,0-30.8,0Z"/>
  <path class="cls-1" d="M104.08,112.67c9.45,0,18.89,.04,28.34-.02,2.94-.02,5.81,.28,5.74,3.85-.07,3.62-3.11,3.67-5.95,3.67-19.06-.02-38.13-.02-57.19,0-2.8,0-5.96,0-6.02-3.6-.06-3.92,3.23-3.91,6.23-3.91,9.62,.03,19.23,0,28.85,0Z"/>
</svg>