<?xml version="1.0" encoding="UTF-8"?>
<svg id="Layer_1" data-name="Layer 1" xmlns="http://www.w3.org/2000/svg" viewBox="0 0 200 200">
  <defs>
    <style>
      .cls-1 {
        fill: #5c2e63;
      }
    </style>
  </defs>
  <path class="cls-1" d="M23.23,153.02c-.39,.06-1.87-.12-2.88,.5-5.48,3.33-8.53,.68-10.54-4.2-3.2-7.74-6.22-15.54-9.29-23.33-1.35-3.44-.02-5.45,3.33-6.76,8.67-3.39,10.93-10.87,11.03-19.07,.1-8.25-2.18-15.8-10.74-19.24-4.04-1.63-4.96-4.09-3.51-7.68,3.34-8.27,6.78-16.51,10.37-24.68,1.45-3.29,3.78-4.32,7.57-2.81,8.68,3.44,15.67-.14,21.67-6.31,5.73-5.9,8.75-12.76,5.44-20.9-1.42-3.49-.76-5.87,2.37-7.23,8.68-3.76,17.48-7.24,26.24-10.82,3.32-1.35,5.21,.24,6.36,3.21,3.49,8.94,11.05,11.28,19.47,11.21,8.41-.07,15.79-2.48,19.49-11.4,.65-1.56,4.27-3.39,5.73-2.87,8.91,3.15,17.62,6.85,26.32,10.57,3.43,1.47,3.97,3.97,2.52,7.63-3.25,8.21,.04,15.01,5.79,20.81,5.88,5.92,12.74,9.48,21.21,6.15,3.66-1.44,6.18-.87,7.65,2.54,3.68,8.51,7.16,17.12,10.63,25.72,1.37,3.4-.02,5.42-3.39,6.73-8.68,3.37-11,10.8-11.01,19.06-.01,8.22,2.14,15.76,10.75,19.25,3.55,1.44,5.09,3.41,3.59,7.09-3.43,8.43-6.85,16.86-10.42,25.22-1.58,3.69-4.13,4.28-8.02,2.76-8.23-3.23-14.97,.19-20.77,5.94-5.81,5.75-9.28,12.54-6.1,20.73,1.64,4.23,.76,6.74-3.04,8.37-8.21,3.51-16.48,6.86-24.76,10.19-3.56,1.43-5.75,.17-7.17-3.49-3.29-8.44-10.66-10.7-18.65-10.82-8.41-.13-16.12,2.07-19.68,10.93-1.33,3.32-3.31,4.85-6.72,3.47-8.77-3.56-17.58-7.06-26.12-11.12-1.48-.7-3.04-4.72-2.35-5.98,6.34-11.54-7.28-29.81-22.38-29.37ZM145.21,21.59c1.87-3.95-.72-5.83-4.33-7.23-3.4-1.31-6.82-2.61-10.13-4.14-3.19-1.48-5.01-.71-7.22,2.19-9.93,13.04-34.37,14.7-44.87,2.12-5.06-6.06-9-4.94-14.33-2.58-2.17,.96-4.26,2.13-6.47,2.97-3.11,1.19-3.64,3.19-3.26,6.39,2,16.61-13.31,34.54-30.01,33.41-7.98-.54-10.17,2.87-12.2,8.62-.85,2.41-2.21,4.76-2.47,7.22-.18,1.7,.58,4.24,1.85,5.25,13.33,10.75,15.6,34.06,2.94,45.31-6.04,5.37-5.44,9.44-2.55,15.12,.91,1.79,1.84,3.59,2.5,5.48,1.15,3.32,3.19,4.05,6.67,3.65,16.46-1.86,34.27,12.99,33.23,29.55-.56,8.97,3.83,10.83,9.79,13.17,1.7,.66,3.54,1,5.18,1.77,2.99,1.4,4.73,.61,6.81-2.06,10.11-12.98,33.5-15.17,44.36-2.76,5.95,6.8,10.31,5.11,16.21,2.43,1.5-.68,2.98-1.4,4.51-2,3.26-1.28,4.43-3.09,3.91-7.02-2.16-16.47,13.74-34.44,30.29-33.1,7.36,.6,9.65-2.39,11.62-7.84,.93-2.58,1.85-5.16,2.9-7.69,1.09-2.61,.34-4.11-1.96-5.88-13.38-10.27-15.71-33.44-3.16-44.7,6.58-5.9,5.09-10.33,2.41-16.24-.68-1.5-1.53-2.93-2.07-4.47-1.22-3.46-3.25-4.34-7.06-3.85-17.35,2.2-35.01-15.36-33.12-33.09Z"/>
  <path class="cls-1" d="M40.52,99.73c.3-32.77,27.56-59.55,60.28-59.22,32.29,.33,59.11,27.88,58.68,60.28-.43,32.1-27.84,59.04-59.74,58.7-32.49-.34-59.51-27.61-59.21-59.77Zm98.75,33.04c18.44-21.79,15.28-53.95-6.42-72.32-21.3-18.02-53.67-15.06-72.28,6.56-17.81,20.7-13.82,52.1,.35,65.19,4.44-11.41,12.67-19.26,23.51-24.56-10.41-12.53-11.1-26.38-2.17-35.55,8.97-9.21,22.59-10.78,32.15-2.59,4.03,3.45,7.38,8.76,8.86,13.86,2.66,9.18-.66,17.5-8.17,24.34,11.78,5.27,19.55,13.37,24.16,25.06Zm-38.98,18.45c10.49,.34,20.29-3.05,29.33-9.16,2.57-1.74,3.15-3.49,2.22-6.41-4.15-13.03-17.47-22.7-31.66-22.8-14.05-.09-27.55,9.48-31.94,22.46-1.04,3.06-.56,4.95,2.26,6.83,8.91,5.95,18.53,9.3,29.79,9.07Zm15.97-62.15c.14-9.48-7.07-16.81-16.47-16.76-8.86,.04-15.97,7.17-16.02,16.07-.05,9.16,7.02,16.4,16.15,16.54,8.67,.13,16.22-7.19,16.34-15.84Z"/>
</svg>