<?xml version="1.0" encoding="UTF-8"?>
<svg id="Layer_1" data-name="Layer 1" xmlns="http://www.w3.org/2000/svg" viewBox="0 0 200 200">
  <defs>
    <style>
      .cls-1 {
        fill: #5c2e63;
      }
    </style>
  </defs>
  <path class="cls-1" d="M76.43,183.07c-.71,3.67-2.15,7.08-4.7,9.96-4,4.51-9.03,6.84-15.04,6.91-6.6,.07-13.19,.1-19.79,0-8.58-.13-14.99-4.06-18.47-11.89-3.52-7.92-2.02-15.31,3.71-21.82,.18-.21,.36-.41,.71-.8-6.38-2.83-10.73-7.42-12.33-14.22-1.6-6.83,.24-12.88,4.85-18.31-8.09-2.55-13.47-7.62-15-16-1.53-8.39,1.67-15.04,8.41-20.24C1.97,91.41-.95,84.72,.33,76.01c2.29,.45,4.3,.84,6.2,1.22,.17,2.04,.15,3.92,.52,5.72,1.23,5.82,6.34,10.19,12.29,10.31,7.08,.15,14.17,.16,21.24,0,7.11-.16,12.75-6.22,12.72-13.36-.03-7.12-5.73-13.09-12.87-13.21-6.94-.12-13.89-.08-20.83,0-4.21,.04-7.56,2-10.33,5.24-1.73-1.29-3.39-2.52-5.2-3.87,6.23-8.68,15.32-8.41,24.6-7.96-.13-.58-.18-.94-.28-1.29-.81-2.72-.16-5.07,1.81-7.07,2.69-2.71,5.37-5.43,8.11-8.09,3.14-3.06,6.97-3.02,10.13,.1,3.16,3.11,6.27,6.27,9.51,9.51,8.26-5.74,17.23-9.58,27.25-11.77-6.22-5.65-9.21-12.43-8.4-20.56,.62-6.19,3.39-11.38,8.18-15.42,9.35-7.89,23.23-7.15,31.74,1.57,7.89,8.08,10.2,23.14-1.79,34.4,9.79,2.24,18.85,5.81,26.71,11.75,.31-.13,.45-.17,.56-.24,2.72-1.73,3.1-3.8,1.98-6.95-1.95-5.45-3.94-11.05-4.66-16.75C137.6,14.25,150.88-.04,166.06,0c1.82,0,3.01,.73,3.81,2.32,9.82,19.66,19.66,39.31,29.45,58.99,.44,.89,.62,1.99,.62,3,.03,30.82,.11,61.64,0,92.46-.08,23.84-19.23,43.03-43.05,43.14-26.25,.12-52.49,.03-78.74,.03-.41,0-.82,0-1.37,0v-6.66h2.45c25.62,0,51.24,.02,76.86,0,18.26-.02,33.03-12.13,36.54-29.99,.46-2.36,.63-4.82,.64-7.24,.04-30.06,.04-60.12,0-90.17,0-1.12-.3-2.34-.8-3.35-8.95-18-17.98-35.96-26.91-53.98-.73-1.47-1.46-1.79-3.01-1.5-11.64,2.18-19.12,14.34-15.79,25.97,1.08,3.79,2.46,7.5,3.8,11.54,.62-.56,1.09-1,1.58-1.43,2.75-2.35,6.44-2.39,9.08,.11,3.03,2.86,5.98,5.81,8.83,8.84,2.69,2.85,2.53,6.6-.3,9.51-3.14,3.22-6.37,6.37-9.4,9.39,18.17,30.58,18.65,60.74-3.92,88.62-20.67,25.53-48.32,31.96-80,23.49Zm-12.63-21.9c.62,.32,1.1,.58,1.58,.83,5.11,2.55,8.57,6.55,10.29,11.96,.42,1.33,1.12,1.87,2.32,2.28,12.05,4.13,24.28,4.83,36.71,2.05,33.15-7.4,55.75-39.27,51.42-72.94-5.44-42.31-50.85-72.5-94.63-52.29-6.59,3.04-12.49,7.13-17.77,12.32,4.49,4.58,6.71,9.97,6.18,16.27-.53,6.28-3.63,11.21-8.79,15.02,4.73,3.39,7.51,7.8,8.64,13.35h6.75v6.65h-6.18c-1.88,3.75-3.59,7.15-5.19,10.34,2.05,1.06,4.22,2.27,6.47,3.31,.61,.28,1.59,.27,2.19-.02,1.9-.94,3.7-2.08,5.65-3.21,1.15,2,2.21,3.83,3.3,5.72-2.05,1.24-3.85,2.33-5.64,3.41,4.68,9.28,3.67,16.95-3.3,24.95Zm-23.72-27.86c-3.4,0-6.8-.04-10.19,0-7.39,.12-13.21,5.98-13.23,13.26-.02,7.3,5.77,13.26,13.13,13.36,6.79,.09,13.59,.09,20.39,0,7.36-.1,13.16-6.07,13.13-13.36-.02-7.28-5.85-13.15-13.24-13.27-3.33-.05-6.66,0-9.99,0Zm6.62,33.32c-3.33,0-6.66-.03-9.99,0-7.53,.09-13.39,5.93-13.4,13.31,0,7.37,5.85,13.26,13.38,13.33,6.66,.06,13.31,.07,19.97,0,7.49-.08,13.34-6.03,13.3-13.41-.04-7.28-5.88-13.11-13.28-13.22-3.33-.05-6.66,0-9.99,0Zm-16.93-39.99c3.4,0,6.8,.04,10.19,0,7.51-.1,13.36-5.99,13.34-13.37-.02-7.37-5.9-13.21-13.44-13.26-6.59-.05-13.18-.05-19.76,0-7.53,.06-13.42,5.91-13.45,13.26-.02,7.37,5.84,13.27,13.34,13.37,3.26,.05,6.52,0,9.78,0ZM110.08,36.28c5.29-3.2,7.84-11.11,5.81-17.76-2.27-7.42-9.12-12.21-16.92-11.82-7.54,.38-13.85,5.96-15.34,13.55-1.23,6.24,1.74,13.81,6.28,15.94v-2.66c-2.8-1.11-3.26-1.76-3.27-4.63,0-3.82-.02-7.64,0-11.45,.02-2.88,1.18-4.09,4.01-4.1,6.18-.02,12.36-.02,18.54,0,2.95,0,4.09,1.19,4.11,4.22,.02,3.61-.08,7.22,.03,10.83,.08,2.57-.45,4.57-3.26,5.02v2.86Zm54.6,20.72c-2.84-2.84-5.64-5.64-8.37-8.37-2.76,2.76-5.73,5.75-8.46,8.48,2.75,2.78,5.55,5.62,8.31,8.4,2.79-2.78,5.77-5.76,8.53-8.51Zm-129.71-.29c1.53,2.23,3.33,3.61,6.31,3.42,1.79-.11,3.63,.73,5.46,1.06,.59,.1,1.42,.13,1.82-.19,1.38-1.12,2.62-2.41,3.6-3.34-3.1-3.11-6.11-6.14-9.05-9.1-2.57,2.58-5.31,5.32-8.14,8.16ZM106.47,26.59v-6.48h-13.03v6.48h13.03Zm-3.27,6.87h-6.41v6.46h6.41v-6.46Z"/>
  <path class="cls-1" d="M65.44,72.61c-1.42-1.67-2.76-3.25-4.1-4.82,15.83-14.87,47.01-21.6,72.64-3.84,26.33,18.24,33.82,53.25,17.28,80.41-16.87,27.69-50.53,35.39-75.92,23.52,.87-1.92,1.73-3.84,2.67-5.91,15.22,6.36,30.3,6.37,45.17-.72,11.03-5.26,19.26-13.52,24.62-24.47,10.78-22.01,5.28-48.2-13.36-64.09-18.51-15.79-47.29-17.84-68.99-.07Z"/>
  <path class="cls-1" d="M138.29,87.13c1.14,1.94,2.19,3.72,3.32,5.65-.65,.42-1.26,.85-1.9,1.22-9.4,5.48-18.8,10.98-28.23,16.41-1.16,.67-1.6,1.35-1.56,2.75,.12,4.7-2.95,8.61-7.45,9.79-4.3,1.13-8.84-.74-11.1-4.58-2.3-3.91-1.68-8.86,1.52-12.08,3.29-3.32,8.13-3.98,12.21-1.5,1.14,.7,1.89,.6,2.96-.03,9.98-5.87,19.99-11.68,30.23-17.65Zm-38.31,22.87c-1.8,0-3.29,1.46-3.32,3.26-.04,1.87,1.54,3.43,3.41,3.37,1.79-.05,3.25-1.58,3.22-3.36-.03-1.79-1.52-3.27-3.31-3.27Z"/>
  <path class="cls-1" d="M119.53,86.1c-2.03-1.18-3.82-2.21-5.76-3.33,2.23-3.86,4.38-7.6,6.65-11.53,1.93,1.12,3.75,2.17,5.76,3.33-2.23,3.86-4.38,7.59-6.66,11.53Z"/>
  <path class="cls-1" d="M72.77,93.75c-1.17,2.03-2.21,3.82-3.33,5.76-3.85-2.22-7.59-4.38-11.53-6.65,1.11-1.92,2.15-3.73,3.32-5.76,3.85,2.22,7.58,4.37,11.54,6.65Z"/>
  <path class="cls-1" d="M127.2,132.85c1.15-1.99,2.17-3.77,3.32-5.76,3.88,2.24,7.66,4.43,11.53,6.67-1.17,2.01-2.24,3.83-3.36,5.74-3.91-2.26-7.64-4.43-11.49-6.65Z"/>
  <path class="cls-1" d="M86.19,143.83c-2.24,3.88-4.41,7.63-6.66,11.53-1.94-1.12-3.76-2.17-5.76-3.33,2.23-3.86,4.39-7.59,6.66-11.53,1.98,1.14,3.81,2.19,5.76,3.32Z"/>
  <path class="cls-1" d="M96.79,66.75h6.4v13.14h-6.4v-13.14Z"/>
  <path class="cls-1" d="M80.44,86.12c-2.27-3.93-4.41-7.62-6.66-11.5,1.88-1.11,3.71-2.18,5.74-3.38,2.2,3.8,4.37,7.55,6.67,11.52-1.88,1.1-3.69,2.16-5.75,3.36Z"/>
  <path class="cls-1" d="M146.55,110.12v6.41h-13.07v-6.41h13.07Z"/>
  <path class="cls-1" d="M113.76,143.85c2.02-1.16,3.8-2.18,5.77-3.32,2.24,3.86,4.4,7.6,6.65,11.5-1.95,1.13-3.77,2.19-5.75,3.35-2.24-3.88-4.41-7.63-6.67-11.53Z"/>
  <path class="cls-1" d="M96.75,146.73h6.41v13.11h-6.41v-13.11Z"/>
</svg>