<?xml version="1.0" encoding="UTF-8"?>
<svg id="Layer_1" data-name="Layer 1" xmlns="http://www.w3.org/2000/svg" viewBox="0 0 200 200">
  <defs>
    <style>
      .cls-1 {
        fill: #fbb247;
      }
    </style>
  </defs>
  <path class="cls-1" d="M151.33,153.65c-1.02,0-1.87,0-2.71,0-5.48,0-10.97,0-16.45,0-2.84,0-3.99-1.13-4-4.02-.02-5.16,0-10.32,0-15.48,0-10.86,0-21.72,0-32.58,0-.53,0-1.06,0-1.7h-23.52v51.87c2.15,0,4.23,0,6.31,0,3.98,0,7.96-.02,11.94,0,2.36,0,3.57,1.19,3.58,3.56,.01,13.76,.01,27.52,0,41.29,0,2.36-1.21,3.55-3.6,3.56-13.87,.02-27.74,.02-41.61,0-2.3,0-3.5-1.18-3.5-3.47-.02-13.87-.01-27.74,0-41.61,0-2.17,1.23-3.33,3.45-3.33,5-.01,10,0,15,0,.58,0,1.16,0,1.89,0v-51.86h-24.19c0,.62,0,1.24,0,1.86,0,13.17,0,26.34,0,39.51,0,2.95,.02,5.91,0,8.86-.01,2.37-1.2,3.56-3.58,3.57-7.09,.02-14.18,0-21.55,0,0,.63,0,1.19,0,1.75,0,4.57,0,9.14,0,13.71,0,2.52-1.11,3.66-3.61,3.66-13.87,.02-27.74,.02-41.61,0-2.27,0-3.49-1.21-3.49-3.48-.02-13.82-.02-27.63,0-41.45,0-2.24,1.35-3.52,3.69-3.53,12.42-.01,24.84,0,37.26,0,1.4,0,2.8-.03,4.19,0,2.37,.04,3.57,1.23,3.57,3.6,.02,5.86,0,11.72,0,17.58,0,.52,0,1.04,0,1.69h18.7v-47.41c-.84,0-1.57,0-2.3,0-5.43,0-10.86,.01-16.29,0-4.59-.01-7.94-3.3-7.94-7.92-.02-21.07,0-42.15,0-63.22,0-6.67,0-13.33,0-20,0-5.19,3.27-8.49,8.42-8.49,34.73,0,69.46,0,104.19,0,4.98,0,8.38,3.43,8.38,8.42,0,12.26,0,24.51,0,36.77,0,15.25,0,30.5,0,45.75,0,5.48-3.21,8.7-8.7,8.7-6.12,0-12.25,0-18.49,0v47.35h16.61c0-.57,0-1.14,0-1.71,0-5.75,0-11.5,0-17.25,0-2.63,1.2-3.85,3.84-3.84,10.53,.02,21.07,.07,31.6,.09,3.12,0,6.23-.08,9.35-.09,2.79,0,3.91,1.12,3.91,3.9,0,13.6,0,27.2-.01,40.8,0,2.67-1.07,3.77-3.67,3.77-13.6,0-27.2,0-40.8,0-3.28,0-4.22-.95-4.22-4.21,0-4.89,0-9.78,0-14.93Zm4.15-123.96H47.35c0,.85,0,1.49,0,2.12,0,19.67,0,39.34,0,59.02,0,2.36,.19,2.54,2.61,2.54,8.28,0,16.56,0,24.83,0,26.07,0,52.14,0,78.21,0,2.07,0,2.46-.4,2.46-2.42,0-19.89,0-39.77,0-59.66,0-.47,0-.94,0-1.6Zm0-6.46c0-4.77,0-9.33,0-13.88,0-2.47-.33-2.77-2.78-2.77-16.23,0-32.46,0-48.69,0-18.06,0-36.12,0-54.17,0-2.15,0-2.45,.29-2.46,2.39-.01,3.39,0,6.77,0,10.16,0,1.32,0,2.64,0,4.11h108.11ZM84.26,158.18v35.42h35.68v-35.42h-35.68Zm-42.07,8.13v-35.45H6.54v35.45H42.19Zm115.69-35.55v35.57h35.63v-35.57h-35.63Z"/>
  <path class="cls-1" d="M109.8,48.21c-3.55,10.05-7.04,19.92-10.54,29.83h-6.28c1.1-3.14,2.17-6.2,3.25-9.26,2.25-6.36,4.54-12.7,6.75-19.07,.39-1.13,.9-1.64,2.16-1.53,1.48,.13,2.97,.03,4.66,.03Z"/>
  <path class="cls-1" d="M89.51,52.58c.62,1.8,1.21,3.5,1.84,5.31-2.8,1.71-5.58,3.41-8.6,5.25,2.96,1.81,5.75,3.52,8.59,5.25-.61,1.79-1.2,3.5-1.84,5.38-3.57-2.08-7.08-4.13-10.59-6.17-.56-.32-1.08-.74-1.67-.96-2.01-.73-2.68-2.08-2.44-4.19,.12-1.02,.35-1.6,1.27-2.12,4.01-2.27,7.96-4.64,11.94-6.97,.45-.27,.93-.49,1.49-.78Z"/>
  <path class="cls-1" d="M119.99,63.15c-2.92-1.78-5.69-3.48-8.58-5.24,.59-1.72,1.17-3.42,1.82-5.33,1,.57,1.91,1.08,2.81,1.6,3.62,2.1,7.25,4.19,10.85,6.3,1.37,.81,1.45,4.38,.14,5.24-.31,.21-.64,.39-.97,.58-4.21,2.46-8.43,4.91-12.82,7.47-.63-1.82-1.23-3.57-1.86-5.37,2.86-1.75,5.65-3.45,8.59-5.25Z"/>
  <path class="cls-1" d="M127.82,15.08c-.03,2.76-2.18,4.79-5.01,4.74-2.69-.05-4.74-2.19-4.7-4.88,.04-2.64,2.22-4.8,4.86-4.79,2.74,0,4.89,2.18,4.85,4.94Z"/>
  <path class="cls-1" d="M135.37,19.82c-2.78-.02-4.82-2.14-4.77-4.96,.04-2.59,2.16-4.7,4.74-4.72,2.71-.02,5,2.2,4.99,4.85,0,2.74-2.17,4.85-4.95,4.83Z"/>
  <path class="cls-1" d="M147.9,19.81c-2.8,0-4.94-2.12-4.91-4.86,.02-2.59,2.29-4.83,4.86-4.82,2.66,.02,4.87,2.16,4.91,4.77,.05,2.74-2.1,4.91-4.86,4.91Z"/>
  <path class="cls-1" d="M87.47,190.27c-.37-.96-.65-1.69-.97-2.55,1.83-1.17,3.67-2.33,5.68-3.61-1.35-.85-2.56-1.61-3.76-2.38q-2.04-1.3-.87-3.73c2.72,1.57,5.44,3.11,8.12,4.73,.82,.49,.72,2.36-.12,2.86-2.62,1.55-5.27,3.06-8.07,4.69Z"/>
  <path class="cls-1" d="M86.54,164.17c.29-.86,.55-1.61,.89-2.62,2.86,1.67,5.63,3.23,8.34,4.89,.74,.46,.55,2.29-.22,2.75-2.62,1.55-5.27,3.06-8.09,4.69-.33-.88-.61-1.66-.94-2.55,1.84-1.17,3.62-2.32,5.65-3.61-1.93-1.22-3.71-2.34-5.63-3.55Z"/>
  <path class="cls-1" d="M117.9,169.17h-6.09v-2.82h6.09v2.82Z"/>
  <path class="cls-1" d="M111.76,185.47v-2.8h6.14v2.8h-6.14Z"/>
  <path class="cls-1" d="M107.41,169.22h-6.04v-2.88h6.04v2.88Z"/>
  <path class="cls-1" d="M101.37,185.51v-2.86h6.03v2.86h-6.03Z"/>
  <path class="cls-1" d="M9.79,162.92c-.33-.91-.62-1.7-.93-2.56,1.88-1.19,3.68-2.33,5.65-3.57-1.93-1.23-3.74-2.39-5.62-3.59,.3-.86,.58-1.66,.91-2.58,2.77,1.6,5.46,3.12,8.12,4.71,.84,.5,.86,2.41,.04,2.9-2.66,1.58-5.36,3.09-8.16,4.7Z"/>
  <path class="cls-1" d="M14.53,140.42c-1.4-.88-2.56-1.63-3.74-2.36q-2.15-1.33-.9-3.76c2.64,1.53,5.29,3.03,7.91,4.59,.99,.59,.97,2.45-.02,3.04-2.62,1.56-5.27,3.06-7.91,4.59q-1.22-2.43,.89-3.76c1.17-.73,2.35-1.47,3.76-2.35Z"/>
  <path class="cls-1" d="M34.24,138.91h5.96v2.95h-5.96v-2.95Z"/>
  <path class="cls-1" d="M29.74,138.94v2.94h-6.04v-2.94h6.04Z"/>
  <path class="cls-1" d="M23.68,158.21v-2.88h6.04v2.88h-6.04Z"/>
  <path class="cls-1" d="M40.25,155.34v2.88h-6.01v-2.88h6.01Z"/>
  <path class="cls-1" d="M161.04,162.95c-.34-.98-.61-1.77-.89-2.58,1.88-1.21,3.66-2.36,5.6-3.6-1.94-1.23-3.69-2.35-5.56-3.54,.24-.79,.48-1.59,.8-2.65,2.87,1.66,5.64,3.22,8.36,4.88,.82,.5,.59,2.33-.29,2.85-2.58,1.52-5.19,3.01-8.02,4.65Z"/>
  <path class="cls-1" d="M161.05,146.57c-.31-.85-.59-1.64-.92-2.57,1.83-1.16,3.65-2.32,5.64-3.59-1.94-1.23-3.73-2.36-5.62-3.57,.3-.86,.59-1.69,.91-2.61,2.72,1.57,5.31,3.06,7.88,4.58,1.23,.73,1.23,2.48,0,3.2-2.58,1.52-5.18,3-7.89,4.55Z"/>
  <path class="cls-1" d="M185.38,141.85v-2.88h6.13v2.88h-6.13Z"/>
  <path class="cls-1" d="M175.01,141.9v-2.84h5.83v2.84h-5.83Z"/>
  <path class="cls-1" d="M185.39,155.31h6.12v2.91h-6.12v-2.91Z"/>
  <path class="cls-1" d="M174.95,158.21v-2.88h6.02v2.88h-6.02Z"/>
</svg>