<?xml version="1.0" encoding="UTF-8"?>
<svg id="Layer_1" data-name="Layer 1" xmlns="http://www.w3.org/2000/svg" viewBox="0 0 200 200">
  <defs>
    <style>
      .cls-1 {
        fill: #fbb247;
      }
    </style>
  </defs>
  <path class="cls-1" d="M0,165.45c2.11-6.24,4.15-12.5,6.34-18.71,1.37-3.89,3.87-5.02,7.11-3.42,2.41,1.18,3.59,2.88,2.46,5.8-.73,1.9-1.16,3.92-1.94,6.65,4.17-2.49,7.84-4.32,11.05-6.79,1.14-.88,1.63-3.32,1.64-5.06,.1-22.39,.2-44.78-.06-67.16-.06-4.86,1.69-6.94,5.9-8.35,19.72-6.64,39.34-13.59,59.06-20.26,2.81-.95,3.85-2.2,3.74-5.36-.25-7.64-.08-15.29-.08-24.04-1.93,2.21-3.2,3.57-4.36,5.02-2.01,2.5-4.28,2.39-6.49,.55-2.15-1.78-3.27-4.29-1.25-6.7C88.17,11.62,93.48,5.86,98.69,0c.87,0,1.75,0,2.62,0,5.15,5.73,10.38,11.37,15.4,17.22,1.94,2.26,1.46,4.93-.62,6.9-2.29,2.17-4.81,1.88-7.02-.3-1.31-1.3-2.45-2.8-4.38-5.03,0,4.62,0,8.19,0,11.75,0,12.87,0,25.74,0,38.61,0,1.21,.05,2.43-.05,3.63-.23,2.93-1.7,5.07-4.55,5.14-3.08,.07-4.78-2.09-4.84-5.24-.12-5.59-.03-11.18-.03-17.59-18.06,6.26-35.67,12.36-54.11,18.76,17.67,8.37,34.59,15.98,51.11,24.41,5.85,2.99,10.46,2.64,16.12-.11,16.42-7.98,33.1-15.38,50.4-23.34-1.85-.81-3.08-1.43-4.36-1.9-11.1-3.98-22.21-7.94-33.32-11.9q-6.65-2.37-5.35-10.21c13.19,4.7,26.34,9.37,39.48,14.06,4.39,1.56,8.71,3.41,13.18,4.65,3.78,1.06,4.99,3.22,4.96,7.17-.13,21.95,.05,43.91-.16,65.87-.04,4.16,.96,6.79,4.7,8.45,2.61,1.16,4.99,2.89,8.18,4.79-.74-2.48-1.11-4.21-1.77-5.82-1.36-3.28-.57-5.65,2.62-6.88,3.39-1.3,5.6,.19,6.76,3.62,2.11,6.25,4.22,12.49,6.32,18.74v2.73c-1.54,1.25-2.92,3.16-4.65,3.62-6.04,1.6-12.18,2.77-18.31,3.97-3.02,.59-5.2-.7-5.84-3.92-.69-3.45,1.05-5.48,4.12-6.36,1.67-.48,3.39-.74,6.01-1.29-2.4-1.48-3.88-2.4-5.38-3.3-12.44-7.5-24.87-14.99-37.31-22.48-2.94-1.77-6.3-3.4-4.15-7.94,1.47-3.11,4.09-3.17,8.62-.45,4.02,2.42,8.04,4.86,12.07,7.26,3.34,1.99,6.7,3.96,10.29,6.07v-62.76c-1.64,.64-2.86,1.05-4.03,1.59-17.91,8.22-35.8,16.52-53.76,24.64-2.73,1.23-3.85,2.63-3.83,5.91,.16,24.07,.08,48.15,.09,72.22,0,1.29,.11,2.57,.19,4.37,1.46-.75,2.47-1.25,3.47-1.78,14.11-7.44,28.42-14.51,42.22-22.52,5.56-3.22,9.29-2.25,13.41,1.92-1.44,.78-2.83,1.55-4.23,2.3-19.23,10.25-38.46,20.51-57.68,30.76h-2.62c-12.67-6.99-25.33-13.98-38.01-20.95-7.66-4.21-15.34-8.39-23.09-12.63,4.39-4.44,8.29-4.8,13.6-1.65,13.23,7.84,26.91,14.87,40.42,22.2,1.37,.74,2.8,1.36,4.32,2.1,.15-.84,.29-1.28,.29-1.71,.02-25.28,.07-50.56-.09-75.84,0-1.42-1.48-3.52-2.79-4.15-18.41-8.91-36.91-17.62-55.39-26.36-1.1-.52-2.29-.85-3.43-1.26v63.72c8.03-4.83,15.57-9.32,23.07-13.89,2.9-1.76,5.83-2.78,7.88,.91,2.11,3.8-.5,5.8-3.32,7.5-12.82,7.7-25.64,15.41-38.46,23.13-1.47,.88-2.88,1.86-4.92,3.18,2.36,.49,3.91,.82,5.47,1.14,3.37,.71,5.25,2.77,4.55,6.41-.66,3.46-3.07,4.52-6.26,3.86-5.55-1.15-11.16-2.06-16.61-3.58C3.76,171.51,1.96,169.53,0,168.18c0-.91,0-1.82,0-2.73Z"/>
</svg>