<?xml version="1.0" encoding="UTF-8"?>
<svg id="Layer_1" data-name="Layer 1" xmlns="http://www.w3.org/2000/svg" viewBox="0 0 200.01 170">
  <defs>
    <style>
      .cls-1 {
        fill: #fbb247;
      }
    </style>
  </defs>
  <path class="cls-1" d="M182.05,78.64c.47,.02,.83,.04,1.19,.04,2.39,0,4.79,0,7.18,0,6.35,.04,10.56,4.27,9.39,9.51-3.59,16.23-7.22,32.45-10.83,48.68-1.84,8.28-3.69,16.56-5.52,24.85-1.07,4.85-5.7,8.17-11.63,8.28H10.71c-6.34,0-10.71-3.63-10.71-8.94C.01,127.75,.01,94.43,.01,61.11c0-4.74,3.93-7.96,9.59-7.95,6.2,.03,12.41,0,18.61,.03,.99,0,1.15-.3,1.15-1.03-.02-12.89-.02-25.8-.02-38.69,0-.37-.02-.74,0-1.11,.09-1.34,1.04-2.14,2.65-2.17,1.95-.03,3.91-.03,5.87,0,.77,.02,.97-.21,.96-.83-.04-2.26-.02-4.52,0-6.79,0-1.87,.83-2.58,3.03-2.58,39.05,.02,78.09,.02,117.13,.02,2.27,0,3.1,.71,3.1,2.62V63.98c0,.8,.47,1.21,1.4,1.21h9.2c5.44,.02,9.35,3.31,9.37,7.89v5.57h0Zm-90.98,87.18h80.51c3.75,0,6.38-1.85,7.06-4.96,1.3-5.89,2.6-11.78,3.91-17.67,4.11-18.48,8.24-36.95,12.35-55.43,.69-3.09-1.14-4.93-4.89-4.93H29.61c-3.75,0-5.98,1.53-6.71,4.63-.51,2.19-.99,4.39-1.48,6.58-3.15,14.14-6.3,28.29-9.44,42.42-1.98,8.92-3.96,17.84-5.96,26.76-.13,.57,0,.96,.5,1.35,1.12,.88,2.42,1.25,3.95,1.25,26.87,0,53.74,0,80.61,0h-.01Zm-1.23-87.18l.02-.16c-.45-.05-.9-.1-1.35-.15-4.63-.53-9.04-1.55-12.91-3.87-.31-.19-.81-.18-1.23-.22-1.76-.17-3.59-.12-5.28-.52-2.71-.65-5-2.03-5.7-4.4-1.5-5.07-.59-9.89,3.12-14.2,3.02-3.5,7.11-5.92,11.7-7.75,2.21-.88,4.52-1.6,6.83-2.41-.07-.12-.14-.28-.24-.41-3.82-4.85-5.25-10.24-4.83-15.98,.24-3.31,1.85-6.21,4.95-8.36,3.35-2.32,7.16-3.82,11.62-3.26,7.65,.99,12.82,5.43,13.39,11.68,.5,5.46-.97,10.62-4.37,15.34-.24,.33-.51,.65-.76,.95,.11,.09,.14,.14,.2,.16,.38,.12,.76,.23,1.14,.34,3.84,1.1,7.5,2.53,10.83,4.5,7.62,4.51,11.41,10.46,9.83,18.44-.28,1.44-1.07,2.6-2.32,3.57-2.47,1.91-5.46,2.45-8.71,2.31-.48-.02-1.08-.03-1.43,.19-3.96,2.36-8.47,3.4-13.2,3.91-.35,.03-.69,.09-1.04,.14,0,.03,.02,.07,.03,.1h47.57v-.99c0-20.73,0-41.46,.03-62.19,0-.88-.29-1.07-1.3-1.07-36.95,.03-73.9,.03-110.86,0-1.02,0-1.3,.21-1.3,1.08,.03,20.67,.02,41.35,.02,62.02,0,1.22,0,1.23,1.47,1.23h53.2c.29,0,.57-.03,.86-.03h.02Zm5.72-4.05c1.25-.08,3.04-.14,4.81-.31,3.57-.36,7.02-1.08,10.14-2.66,.59-.3,.84-.63,.7-1.23-.2-.86-.33-1.73-.41-2.6-.1-1.13,.85-2.07,2.14-2.21,1.33-.14,2.51,.62,2.75,1.78,.07,.33,.12,.67,.17,1,.31,2.07,.46,2.15,2.89,1.64,.2-.04,.39-.08,.58-.14,1.45-.48,2.49-1.17,2.75-2.63,.91-5.16-1.29-9.27-5.91-12.55-4.49-3.2-9.81-5-15.44-6.25-.29-.07-.69-.03-.96,.08-3.2,1.42-6.37,1.43-9.58,.02-.29-.13-.73-.16-1.05-.08-5.05,1.13-9.86,2.72-14.08,5.36-5.41,3.39-8.25,7.73-7.16,13.56,.22,1.16,.96,1.87,2.13,2.27,.89,.3,1.88,.4,2.83,.55,.64,.1,1-.11,1.06-.71,.06-.71,.19-1.4,.34-2.1,.24-1.19,1.37-1.92,2.72-1.78,1.34,.14,2.23,1.08,2.13,2.28-.04,.51-.15,1.01-.22,1.51-.19,1.3,.44,2.25,1.87,2.84,4.5,1.84,9.34,2.28,14.79,2.38h.01ZM4.92,144.46c.08,.02,.16,.03,.24,.04,.04-.1,.08-.21,.11-.31,4.19-18.86,8.39-37.72,12.56-56.59,1.24-5.6,4.26-8.14,10.82-8.87,.6-.07,.69-.29,.69-.72,0-6.67-.01-13.34,0-20.02,0-.53-.23-.68-.83-.68-6.51,.02-13.01,0-19.52,.02-2.07,0-3.72,1.29-4,3.02-.08,.48-.07,.96-.07,1.44,0,27.28,0,54.57-.01,81.86v.82h.01ZM43.71,4.21c0,1.74,.04,3.41-.02,5.07-.03,.76,.26,1.04,1.15,.94,.36-.04,.74,0,1.11,0h103.18c2.78,0,3.5,.6,3.5,2.89V77.26c0,.28,.02,.57,0,.85-.03,.43,.2,.61,.72,.59,.88-.02,1.76-.06,2.63,0,.97,.08,1.17-.25,1.17-1-.02-24.16-.02-48.31-.02-72.47v-1.03s-113.42,0-113.42,0Zm61.48,26.22c-.09-.66-.15-1.66-.38-2.62-.9-3.8-5.62-7-10.04-6.85-4.82,.17-9.22,3.37-9.78,7.4-.65,4.77,.53,9.3,3.58,13.37,.83,1.1,2.14,2.01,3.41,2.82,1.81,1.15,3.79,1.13,5.76,.13,2.08-1.06,3.57-2.57,4.64-4.37,1.79-3.01,2.47-6.25,2.81-9.89h0Zm57.06,38.92c-.08,.16-.14,.24-.14,.31,0,2.83,0,5.65-.03,8.48,0,.56,.42,.54,.88,.54h13.45c.19,0,.39-.03,.57-.06,0-2.24,.18-4.44-.06-6.61-.18-1.62-1.98-2.65-4-2.67-2.49-.03-4.99,0-7.48,0h-3.19Z"/>
</svg>