<svg width="54" height="45" viewBox="0 0 54 45" fill="none" xmlns="http://www.w3.org/2000/svg">
<g id="Group 103">
<path id="Vector" d="M10.2091 43.3307C9.59003 44.2508 8.69538 44.5433 7.60993 44.5476C6.24464 44.5476 4.87511 44.6705 3.50982 44.7087C1.87741 44.7553 0.719877 43.8098 0.584196 42.1732C0.384915 39.7309 0.295874 37.2759 0.160193 34.8294C0.109312 33.8754 0.0329916 32.9214 0.0117915 31.9674C-0.0263689 30.2587 0.978519 29.1054 2.67029 28.9782C4.23911 28.8594 5.8164 28.7238 7.38521 28.7704C8.03818 28.7916 8.67842 29.275 9.33139 29.5336C9.58579 29.6311 9.89955 29.8135 10.1116 29.7371C14.165 28.3506 18.0998 28.8467 22.0685 30.2078C24.0485 30.8904 26.1431 31.2932 28.2165 31.6324C30.222 31.9589 32.27 32.0098 34.2925 32.2303C35.6535 32.3787 36.3786 33.2521 36.298 34.4987C36.2217 35.6477 35.3228 36.4321 34.0254 36.4576C31.316 36.5085 28.6023 36.5551 25.893 36.6017C25.7912 36.6017 25.6598 36.5636 25.5877 36.6102C25.346 36.7756 25.1213 36.9749 24.8923 37.1614C25.117 37.3522 25.3375 37.7042 25.5622 37.7042C28.6108 37.7296 31.6637 37.7805 34.7038 37.6533C35.6578 37.6109 36.6754 37.1954 37.5191 36.7035C41.2164 34.5496 44.8586 32.2981 48.5305 30.106C49.052 29.7923 49.6202 29.4785 50.2053 29.3682C51.3035 29.1605 52.4441 29.911 52.8469 30.9583C53.2624 32.0395 52.9147 33.1716 51.9013 33.8881C48.3821 36.3728 44.8671 38.8659 41.3182 41.3082C39.902 42.2834 38.4562 43.2586 36.9128 44.0006C34.8522 44.9885 32.6049 45.1157 30.328 44.9249C27.6017 44.696 24.8669 44.5561 22.1405 44.3737C18.5619 44.1363 14.9791 43.9031 11.4005 43.6487C11.0274 43.6232 10.667 43.4579 10.2091 43.3349V43.3307ZM3.70486 40.7485C3.69214 41.588 4.34511 42.2834 5.17615 42.3131C5.97328 42.3428 6.72377 41.6432 6.75345 40.8333C6.78313 40.0065 6.1132 39.273 5.30759 39.2475C4.41295 39.2179 3.72182 39.8666 3.7091 40.7443L3.70486 40.7485Z" fill="white"/>
<path id="Vector_2" d="M22.0426 3.11403C22.4072 3.33452 23.0686 3.66524 23.6453 4.09772C24.1711 4.49204 24.6332 4.68709 25.2099 4.2334C25.3455 4.1274 25.5321 4.05108 25.706 4.02564C27.0204 3.83908 27.3511 2.96139 27.4613 1.77842C27.5843 0.442812 28.1779 0.0103281 29.5177 0.0145681C29.7509 0.0145681 29.9841 0.0315283 30.2131 0.0145681C32.0745 -0.112633 32.5282 0.591213 32.6893 2.20243C32.7783 3.10979 33.1599 3.52956 34.0207 3.94508C35.2884 4.55989 36.1916 4.46236 37.2219 3.54652C38.0699 2.79179 38.884 2.90627 39.7023 3.71188C41.3093 5.30189 42.2039 5.63685 40.1517 8.18935C39.8295 8.58792 39.7659 8.9356 40.0669 9.36384C40.1984 9.55041 40.3298 9.77513 40.3553 9.99137C40.5206 11.3736 41.4916 11.6577 42.6491 11.8061C43.972 11.9757 44.3494 12.4548 44.3748 13.7989C44.3875 14.3416 44.413 14.8844 44.3748 15.4229C44.3155 16.2327 43.8406 16.8517 43.0477 16.8984C41.5043 16.9874 40.5503 17.5726 40.139 19.1753C39.9694 19.8495 39.8761 20.2989 40.3341 20.8204C40.6054 21.1299 40.8259 21.4861 41.0422 21.838C41.4619 22.5207 41.3898 23.3178 40.8471 23.9072C40.4613 24.3227 40.0542 24.7213 39.6429 25.1156C38.99 25.7431 38.0572 25.9254 37.4084 25.3276C36.2806 24.2803 35.2248 24.1488 33.8595 24.9078C33.2362 25.2513 32.8589 25.4845 32.7741 26.2265C32.473 28.9104 31.7438 28.779 29.7297 28.7493C28.0846 28.7281 27.6818 28.4058 27.4359 26.8031C27.4359 26.7777 27.4274 26.7522 27.4274 26.7268C27.3935 25.7049 26.8889 25.2343 25.9264 24.7594C24.6799 24.1488 23.8785 24.3948 22.9287 25.1792C21.979 25.9593 21.1988 25.8491 20.3381 24.9884C19.9565 24.6068 19.5579 24.2336 19.206 23.8224C18.659 23.1864 18.5191 22.4528 19.0745 21.8507C20.1981 20.6423 20.3593 19.4721 19.4773 18.0517C19.1933 17.5938 19.0576 17.1485 18.4343 17.1697C18.3834 17.1697 18.3368 17.1316 18.2859 17.1273C15.1695 16.8814 15.6486 15.5501 15.7164 13.2053C15.7376 12.4167 16.3694 11.8612 17.1708 11.8358C18.6124 11.7849 19.4519 11.2295 19.8929 9.75817C20.1345 8.94408 20.2066 8.4056 19.6385 7.79079C19.3968 7.52791 19.189 7.21839 19.0364 6.89614C18.9007 6.60358 18.7862 6.26438 18.7862 5.95062C18.7862 4.96269 20.7197 3.11827 22.0553 3.11403H22.0426ZM30.0138 9.44017C27.2324 9.46561 25.0784 11.6407 25.0911 14.4052C25.1081 17.1655 27.3384 19.3873 30.0605 19.3449C32.8377 19.3025 35.0595 17.0341 35.0171 14.278C34.9789 11.6026 32.7105 9.41049 30.0138 9.43593V9.44017Z" fill="white"/>
<path id="Vector_3" d="M37.5693 32.3914C39.3078 31.4926 41.0886 30.5725 42.8694 29.6566C43.4884 29.3386 44.1117 29.0249 44.7265 28.7026C45.6424 28.2235 46.5031 28.2956 47.4486 29.0079C44.2898 30.9371 41.1946 32.8324 38.1121 34.715C37.9297 33.9433 37.7644 33.231 37.5693 32.3957V32.3914Z" fill="white"/>
<path id="Vector_4" d="M42.773 28.1812C40.6657 29.2285 38.6898 30.2164 36.7055 31.1874C36.5656 31.2553 36.3663 31.2807 36.2179 31.2383C35.4759 31.0263 34.7381 30.7889 33.9834 30.5514C34.9501 30.1698 35.9635 29.7628 36.9811 29.3642C38.198 28.8851 39.4149 28.4017 40.6403 27.9438C41.3399 27.6809 42.031 27.6555 42.773 28.177V28.1812Z" fill="white"/>
</g>
</svg>
