<?xml version="1.0" encoding="UTF-8"?>
<svg id="Layer_1" data-name="Layer 1" xmlns="http://www.w3.org/2000/svg" viewBox="0 0 72 72">
  <defs>
    <style>
      .cls-1 {
        fill: #5a2b5f;
      }
    </style>
  </defs>
  <path class="cls-1" d="M46.52,55.73c1.79,.09,2.87-.56,3.28-2.15,.1-.38-.14-.91-.41-1.26-.45-.59-1.03-1.1-.63-1.89,.47-.92,1.24-1.57,2.31-1.85,.28-.07,.7,.11,.98,.28,.41,.24,.75,.58,1.12,.87,1.07,.83,2.27,.74,3.42,.27,.35-.15,.58-.63,.76-.99,.16-.31,.17-.69,.26-1.03,.19-.66,.68-1.08,1.42-1.11,.58-.03,1.2,.01,1.75,.15,1.13,.29,1.23,.45,1.12,1.53-.17,1.77,.96,2.64,2.71,3.23,.46,.15,1.16-.21,1.71-.42,.64-.25,1.16-.86,1.97-.39,1.01,.58,1.61,1.39,1.68,2.47,.01,.17-.16,.38-.29,.53-.3,.35-.67,.66-.95,1.02-.82,1.05-.61,2.13-.01,3.19,.1,.17,.32,.3,.52,.4,.22,.11,.48,.17,.73,.24,1.9,.53,2.56,2.06,1.53,3.65-.15,.23-.54,.4-.85,.46-.42,.08-.88,0-1.32,.03-2.24,.08-3.63,2.55-2.19,4.05,.87,.9,.73,1.39-.25,2.22-.26,.22-.56,.42-.85,.61-.94,.6-1.94,.45-2.64-.39-.83-1-2.41-1.36-3.59-.75-.31,.16-.56,.48-.74,.77-.17,.28-.23,.62-.33,.93-.21,.63-.31,1.38-1.17,1.53-1.09,.2-2.22,.15-3.06-.61-.29-.26-.41-.81-.38-1.22,.11-1.19-.47-2.03-1.44-2.73-.61-.44-1.25-.52-1.94-.17-.43,.22-.85,.45-1.28,.65-.87,.4-1.36,.37-2.01-.29-.43-.44-.78-.99-1.01-1.55-.25-.58-.1-1.17,.54-1.55,1.33-.8,1.3-2.47,.78-3.57-.3-.63-.96-.81-1.65-.9-1.24-.16-1.76-.69-1.77-1.83,0-.21,0-.42,0-.63,.04-1.39,.61-1.87,2.15-1.79Zm11.66,9.37c3.25,.03,6.03-2.47,6.08-5.46,.05-3.16-2.64-5.71-6.08-5.75-3.33-.05-6.13,2.46-6.17,5.53-.04,3.11,2.72,5.65,6.17,5.69Z"/>
  <path class="cls-1" d="M42.02,65.53v1.88h-.85c-12.71,0-25.41,0-38.12,0-2.11,0-3.05-.84-3.05-2.74C0,45.52,0,26.36,0,7.21c0-1.9,.89-2.71,2.97-2.71,2.82,0,5.64,0,8.46,0,.28,0,.56,0,.89,0v1.85c-.3,0-.57,0-.85,0-2.28,0-4.55,0-6.83,0-1.53,0-2.52,.9-2.57,2.28,0,.19,0,.38,0,.56,0,17.84,0,35.68,0,53.51,0,.31,0,.61,.04,.91,.13,.92,.95,1.7,1.96,1.84,.41,.06,.83,.05,1.24,.05,11.88,0,23.76,0,35.64,0h1.08Z"/>
  <path class="cls-1" d="M23.23,29.71c-1.73,2.23-3.45,4.47-5.2,6.67-.16,.2-.58,.27-.89,.3-3.06,.36-5.66,2.37-6.38,4.97-.1,.36-.15,.73-.23,1.16-1,0-1.97,.02-2.95-.02-.2,0-.45-.22-.58-.39-.45-.66-.88-1.33-1.27-2.02-.42-.75-.3-1.54,.16-2.23,1.62-2.4,3.26-4.79,4.95-7.15,.26-.37,.74-.67,1.2-.84,3.57-1.38,7.24-1.35,10.95-.58,.07,.01,.14,.06,.25,.12Z"/>
  <path class="cls-1" d="M52,6.34v-1.77c.18-.02,.35-.06,.52-.06,3.08,0,6.16,0,9.24,0,.18,0,.36,0,.54,.02,1.37,.13,2.05,.79,2.05,2.03,0,7.03,0,14.05,0,21.08,0,5.5,0,11,0,16.5v.85h-2.07v-.89c0-11.82,0-23.64,0-35.46,0-1.53-.72-2.23-2.43-2.25-2.48-.03-4.97-.01-7.45-.01-.1,0-.2-.01-.39-.03Z"/>
  <path class="cls-1" d="M18.58,16.91c3.17,0,5.67,2.37,5.84,5.5,.17,3.2-2.62,5.93-5.99,5.86-3.44-.08-6.16-3.1-5.69-6.31,.44-2.98,2.84-5.06,5.84-5.05Z"/>
  <path class="cls-1" d="M29.07,46.26c5.05,0,10.1,0,15.14,0,.64,0,1.19,.06,1.43,.7,.29,.77,.12,1.94-.39,2.25-.22,.13-.53,.19-.8,.19-10.28,0-20.55,0-30.83,0-.77,0-1.18-.36-1.23-1.08-.02-.28-.02-.56,0-.85,.03-.88,.41-1.22,1.39-1.22,5.1,0,10.2,0,15.3,0Z"/>
  <path class="cls-1" d="M49.49,6.76c0,1.43,0,2.87,0,4.3-.01,1.47-.97,2.37-2.59,2.41-.8,.02-1.6,.02-2.4,0-1.39-.06-2.41-.95-2.42-2.2-.03-3.01-.03-6.01,0-9.02,.01-1.29,1.07-2.2,2.48-2.22,.83-.01,1.66-.02,2.48,0,1.41,.03,2.43,.95,2.45,2.24,.03,1.5,0,3.01,0,4.51Z"/>
  <path class="cls-1" d="M14.86,6.75c0-1.46,0-2.91,0-4.37C14.87,.93,15.87,.02,17.48,0c.75,0,1.5,0,2.25,0,1.46,.02,2.53,.91,2.55,2.23,.04,3.01,.04,6.01,0,9.02-.02,1.26-1.04,2.14-2.43,2.2-.83,.03-1.66,.03-2.48,0-1.53-.05-2.49-.95-2.5-2.34-.01-1.46,0-2.91,0-4.37Z"/>
  <path class="cls-1" d="M27.2,56.87c-4.47,0-8.95,0-13.42,0-1.03,0-1.38-.31-1.4-1.26,0-.28-.02-.56,0-.85,.06-.74,.41-1.05,1.24-1.05,9.08,0,18.15,0,27.23,0,.79,0,1.12,.3,1.19,1.01,0,.09,0,.19,0,.28,.03,1.73-.11,1.86-1.97,1.86-4.29,0-8.59,0-12.88,0Z"/>
  <path class="cls-1" d="M19.27,36.53c1.71-2.21,3.39-4.38,5.08-6.56,1.03,.12,1.79,.63,2.31,1.38,1.56,2.27,3.08,4.55,4.61,6.84,.53,.79,.5,1.6-.02,2.4-.07,.1-.13,.2-.19,.3-1.68,2.47-.87,1.84-3.94,1.9-.18,0-.49-.24-.53-.41-.8-3.34-3.01-5.22-6.79-5.73-.15-.02-.29-.07-.52-.13Z"/>
  <path class="cls-1" d="M44.1,39.36c-2.25,0-4.5-.02-6.75,.01-.66,.01-.99-.23-1.01-.78-.02-.63-.03-1.27,.09-1.89,.04-.21,.47-.52,.72-.52,4.65-.03,9.31-.03,13.96,0,.26,0,.53,.31,.75,.52,.09,.08,.08,.27,.1,.4,.22,2.06,.03,2.25-2.2,2.25-1.89,0-3.77,0-5.66,0Z"/>
  <path class="cls-1" d="M44.13,31.46c-2.28,0-4.55-.02-6.83,.01-.65,.01-.89-.25-.97-.75-.02-.09-.02-.19-.03-.28-.15-2.09-.06-2.18,2.2-2.18,4.11,0,8.22,.02,12.34-.02,.8,0,1.08,.3,1.11,.93,.02,.52,.02,1.03-.03,1.55-.05,.51-.32,.76-.97,.75-2.28-.04-4.55-.01-6.83-.01Z"/>
  <path class="cls-1" d="M12.42,42.77c.07-2.62,2.87-4.58,6.34-4.51,3.29,.06,5.94,2.06,5.91,4.51H12.42Z"/>
  <path class="cls-1" d="M24.79,6.31v-1.76h14.73v1.76h-14.73Z"/>
</svg>