<?xml version="1.0" encoding="UTF-8"?>
<svg id="Layer_1" data-name="Layer 1" xmlns="http://www.w3.org/2000/svg" viewBox="0 0 256 216">
  <defs>
    <style>
      .cls-1 {
        fill: #5b2c62;
      }
    </style>
  </defs>
  <path class="cls-1" d="m149.2,50h9.28l-17.33-29.4c-1.13-1.9-1.44-4.17-.87-6.3.59-2.19,2.04-4.05,4.03-5.15,1.33-.75,2.83-1.15,4.36-1.15,3.09-.02,5.95,1.59,7.54,4.24l22.25,37.76h9.29l-24.64-41.82c-4.7-7.83-14.78-10.49-22.73-6-3.86,2.15-6.68,5.78-7.82,10.05-1.14,4.2-.52,8.69,1.7,12.43l14.93,25.34Zm-85.2,78v24c0,2.21,1.79,4,4,4s4-1.79,4-4v-24c0-2.21-1.79-4-4-4s-4,1.79-4,4Zm20,0v24c0,2.21,1.79,4,4,4s4-1.79,4-4v-24c0-2.21-1.79-4-4-4s-4,1.79-4,4Zm28,24v-24c0-2.21-1.79-4-4-4s-4,1.79-4,4v24c0,2.21,1.79,4,4,4s4-1.79,4-4Zm16-28c-2.21,0-4,1.79-4,4v31.39c-1.93-1.06-4.36-.35-5.41,1.59-.67,1.22-.65,2.71.05,3.92l5.9,10.22c1.1,1.91,3.55,2.57,5.46,1.46.61-.35,1.11-.86,1.46-1.46l5.9-10.22c1.11-1.91.46-4.35-1.45-5.46-1.21-.7-2.69-.72-3.91-.05v-31.39c0-2.21-1.79-4-4-4Zm24,28v-24c0-2.21-1.79-4-4-4s-4,1.79-4,4v24c0,2.21,1.79,4,4,4s4-1.79,4-4Zm20,0v-24c0-2.21-1.79-4-4-4s-4,1.79-4,4v24c0,2.21,1.79,4,4,4s4-1.79,4-4Zm20,0v-24c0-2.21-1.79-4-4-4s-4,1.79-4,4v24c0,2.21,1.79,4,4,4s4-1.79,4-4Z"/>
  <path class="cls-1" d="m244,58H111.38l-4.71,8h137.33c2.21,0,4,1.79,4,4v12H97.24l-4.71,8h133.97l-23.73,102H53.23l-23.72-102h3.16c.62-2.81,1.67-5.51,3.12-8H8v-12c0-2.21,1.79-4,4-4h37.54l4.71-8H12c-6.62,0-11.99,5.38-12,12v14c0,3.31,2.69,6,6,6h15.29l27.34,117.55.12.4c1.67,4.82,6.21,8.06,11.31,8.06h135.9c5.1,0,9.64-3.24,11.3-8.06l27.45-117.94h15.29c3.31,0,6-2.69,6-6v-14c0-6.62-5.38-11.99-12-12Zm-48.05,150.01H60.05c-1.63,0-3.09-.99-3.68-2.51l-1.28-5.49h145.82l-1.28,5.49c-.6,1.51-2.06,2.51-3.68,2.51h0Z"/>
  <path class="cls-1" d="m40,96c0,11.05,8.95,20,20,20s20-8.95,20-20c0-.15-.02-.3-.02-.46L121.75,24.66c2.22-3.74,2.84-8.22,1.7-12.43-1.14-4.27-3.96-7.89-7.82-10.05-7.95-4.49-18.03-1.83-22.73,6l-40.98,69.54c-7.24,3.2-11.91,10.37-11.92,18.28Zm8,0c0-6.63,5.37-12,12-12s12,5.37,12,12c0,6.63-5.37,12-12,12-6.62,0-11.99-5.38-12-12ZM99.79,12.24c1.58-2.65,4.45-4.26,7.54-4.24,1.53,0,3.03.39,4.36,1.15,1.98,1.1,3.44,2.96,4.03,5.16.58,2.13.26,4.4-.87,6.3l-38.06,64.59c-3.27-5.07-8.65-8.4-14.64-9.06L99.79,12.24Z"/>
  <circle class="cls-1" cx="60" cy="96" r="4"/>
</svg>