<?xml version="1.0" encoding="UTF-8"?>
<svg id="Layer_1" data-name="Layer 1" xmlns="http://www.w3.org/2000/svg" viewBox="0 0 72 72">
  <defs>
    <style>
      .cls-1 {
        fill: #5a2b5f;
      }
    </style>
  </defs>
  <path class="cls-1" d="M37.84,23.23c3.58,0,7.16,0,10.74,0,2.31,0,3.75,1.44,3.75,3.77,0,5.59,0,11.17,.01,16.76,0,.6-.19,1.06-.61,1.48-1.77,1.75-3.51,3.54-5.31,5.26-.34,.33-.92,.58-1.39,.58-6.02,.04-12.04,.03-18.06,.02-2.18,0-3.66-1.47-3.66-3.63,0-6.87,0-13.74,0-20.6,0-2.16,1.49-3.63,3.66-3.63,3.63,0,7.25,0,10.88,0Zm-12.22,7c0,.28,0,.49,0,.7,0,5.42,0,10.83,0,16.25,0,1.23,.36,1.59,1.6,1.59,5.42,0,10.83,0,16.25,0,.23,0,.46-.02,.73-.03,0-1.44,0-2.82,0-4.2,0-1.2,.37-1.57,1.54-1.58,.89,0,1.79,0,2.68,0h1.54v-12.74H25.62Zm0-2.4h24.35c.15-1.99-.1-2.27-2.01-2.27-6.84,0-13.68,0-20.52,0-.22,0-.44-.01-.65,0-.69,.05-1.11,.46-1.16,1.15-.02,.36,0,.72,0,1.11Zm22.6,17.53h-1.66v1.66c.57-.57,1.09-1.09,1.66-1.66Z"/>
  <path class="cls-1" d="M38.39,3.53c0-.79-.02-1.51,0-2.23,.03-1.11,.89-1.63,1.85-1.07,1.88,1.1,3.74,2.22,5.6,3.36,.92,.56,.93,1.54,.02,2.1-1.85,1.14-3.72,2.26-5.59,3.36-.99,.58-1.84,.06-1.87-1.1-.02-.63-.02-1.26-.02-1.88,0-.02-.02-.04-.09-.22-10.64-.41-19.55,3.27-26.11,11.8-6.56,8.54-7.83,18.12-4.63,28.44-.67,.24-1.35,.48-2.04,.73C-2.4,26.3,13.73,1.98,38.39,3.53Zm2.35,2.53c.83-.5,1.55-.93,2.36-1.42-.86-.51-1.58-.93-2.36-1.39v2.81Z"/>
  <path class="cls-1" d="M64.6,25.92c.71-.25,1.36-.48,2.14-.76,2.81,8.42,2.63,16.71-1.28,24.61-6.44,13.01-17.29,18.91-31.71,18.79,0,.62,0,1.31,0,2.01-.02,1.25-.87,1.77-1.93,1.14-1.83-1.08-3.66-2.17-5.47-3.28-.98-.6-.97-1.57,.02-2.18,1.81-1.11,3.64-2.21,5.47-3.28,1.03-.61,1.89-.1,1.91,1.1,.01,.65,0,1.3,0,2.08,10.77,.41,19.68-3.27,26.24-11.82,6.55-8.54,7.82-18.12,4.62-28.42ZM31.38,68.75v-2.8c-.8,.48-1.52,.91-2.34,1.41,.83,.5,1.55,.92,2.34,1.4Z"/>
  <path class="cls-1" d="M61.6,0c5.7-.02,10.43,4.65,10.46,10.33,.03,5.81-4.61,10.55-10.37,10.57-5.8,.02-10.51-4.62-10.53-10.4C51.14,4.72,55.81,.02,61.6,0Zm.02,2.32c-4.51,0-8.15,3.65-8.14,8.17,0,4.42,3.66,8.08,8.08,8.08,4.54,0,8.2-3.67,8.17-8.21-.02-4.42-3.69-8.05-8.12-8.04Z"/>
  <path class="cls-1" d="M10.55,51.1c5.79,.03,10.43,4.72,10.42,10.52-.02,5.75-4.75,10.41-10.55,10.38-5.71-.03-10.39-4.79-10.34-10.52,.05-5.75,4.75-10.41,10.48-10.38Zm8.09,10.45c0-4.48-3.65-8.14-8.1-8.13-4.51,0-8.15,3.65-8.15,8.16,0,4.42,3.65,8.08,8.07,8.09,4.52,0,8.18-3.62,8.18-8.12Z"/>
  <path class="cls-1" d="M33.76,35.96v-2.22h2.26v2.22h-2.26Z"/>
  <path class="cls-1" d="M39.59,33.71h2.24v2.25h-2.24v-2.25Z"/>
  <path class="cls-1" d="M47.65,33.74v2.22h-2.26v-2.22h2.26Z"/>
  <path class="cls-1" d="M27.95,40.59v-2.21h2.26v2.21h-2.26Z"/>
  <path class="cls-1" d="M36.02,40.61h-2.23v-2.23h2.23v2.23Z"/>
  <path class="cls-1" d="M41.85,38.38v2.22h-2.26v-2.22h2.26Z"/>
  <path class="cls-1" d="M47.65,38.37v2.24h-2.23v-2.24h2.23Z"/>
  <path class="cls-1" d="M30.23,43.02v2.23h-2.26v-2.23h2.26Z"/>
  <path class="cls-1" d="M33.76,45.25v-2.22h2.26v2.22h-2.26Z"/>
  <path class="cls-1" d="M41.84,43.02v2.23h-2.23v-2.23h2.23Z"/>
  <path class="cls-1" d="M56.26,12.14c.6-.6,1.12-1.11,1.7-1.68,.48,.56,.96,1.12,1.43,1.67,2.01-2.02,3.9-3.91,5.8-5.82,.61,.63,1.11,1.16,1.66,1.73-.08,.1-.19,.25-.32,.38-1.96,1.96-3.93,3.93-5.89,5.88-.8,.8-1.35,.79-2.15,0-.72-.71-1.45-1.41-2.22-2.16Z"/>
  <path class="cls-1" d="M11.71,67.32h-2.25s-.09-.07-.08-.1c.09-.72-.15-1.14-.88-1.46-.97-.43-1.4-1.34-1.47-2.47,.69,0,1.34,0,1.99,0,.09,0,.25,0,.28,.04,.38,.83,1.13,.5,1.73,.5,.21,0,.43-.34,.64-.52-.22-.2-.41-.51-.66-.58-.39-.1-.82-.01-1.23-.04-1.31-.07-2.36-.98-2.67-2.28-.28-1.19,.24-2.55,1.37-3.08,.72-.34,1.08-.71,.84-1.55h2.36c0,.19,.02,.38,0,.56-.05,.41,.08,.62,.51,.79,1.14,.45,1.71,1.35,1.83,2.66-.71,0-1.37,0-2.04,0-.09,0-.23-.02-.26-.07-.43-.84-1.19-.44-1.82-.46-.17,0-.49,.36-.49,.55,0,.19,.3,.5,.51,.54,.44,.09,.92,.01,1.37,.04,1.28,.08,2.31,.97,2.62,2.24,.29,1.17-.18,2.49-1.26,3.06-.7,.37-1.23,.69-.94,1.62Z"/>
</svg>