<?xml version="1.0" encoding="UTF-8"?>
<svg id="Layer_1" data-name="Layer 1" xmlns="http://www.w3.org/2000/svg" viewBox="0 0 200 200">
  <defs>
    <style>
      .cls-1 {
        fill: #5c2e63;
      }
    </style>
  </defs>
  <path class="cls-1" d="M107.63,115.01c3.67-2.67,6.78-6.8,10.17-7.02,7.68-.48,6.09,6.79,8.08,12.84,1.66-5.85,2.46-10.96,9.48-9.51,4.55,.94,5.55,2.41,7.35,13.58,1.05-2.11,1.28-3.57,2.16-4.16,2.29-1.54,5.1-4,7.26-3.65,2.13,.34,5.25,3.64,5.3,5.7,.5,20.09-.45,39.8-13.14,57.52-3.77,5.26-4.02,12.75-6.02,19.7h-43.68c1.89-13.1-5.9-22.45-13.03-32.06-9.84-13.26-11.92-29-15.46-44.21-.43-1.84,1.8-5.82,3.36-6.11,2.28-.43,6.02,.93,7.43,2.72,2.26,2.86,2.88,6.81,4.62,10.1,2.63,5.01,5.62,9.85,8.46,14.77,.81-.22,1.63-.44,2.44-.66,.2-2.05,.57-4.09,.58-6.14,.04-18.97,.03-37.93,.03-56.9,0-1.86,0-3.71,.04-5.57,.08-4.47,1.15-8.7,6.86-8.77,6.08-.08,7.3,4.33,7.33,9.02,.08,11.13,.02,22.26,.07,33.39,0,2.13,.24,4.25,.3,5.4Z"/>
  <path class="cls-1" d="M83.25,39.62c-.06,21.78-18.62,39.32-41.66,39.33C18.32,78.97-.17,61.21,0,38.98,.17,17.24,18.93-.18,41.96,0c23.05,.19,41.34,17.74,41.28,39.62ZM16.3,27.41c-1.96,4.5-3.71,7.79-4.74,11.27-.39,1.33,.34,3.72,1.46,4.57,7.27,5.56,14.71,10.92,22.3,16.09,1.17,.8,4.24,.97,4.97,.2,10.54-11.13,20.83-22.47,31.34-33.94-3.61-4.07-6.74-7.61-10.33-11.65-8.62,9.48-16.65,18.33-24.92,27.43-6.56-4.56-12.81-8.91-20.09-13.97Z"/>
  <path class="cls-1" d="M200,41.51c-.12,21.77-18.83,39.2-41.84,38.98-22.89-.22-41.32-18.08-41.12-39.82,.2-21.4,18.81-38.59,41.67-38.5,23.35,.09,41.41,17.3,41.29,39.34Zm-11.49-14.13c-4.21-3.25-7.59-5.54-10.56-8.24-2.48-2.26-4.35-2.18-6.55,.16-3.89,4.15-7.88,8.22-12.43,12.95-4.98-4.9-8.88-9.03-13.17-12.75-1.18-1.02-4.31-1.73-5.23-1.04-3.64,2.75-6.75,6.12-11.07,10.22,6.04,5.05,11.36,9.49,17.39,14.53-5.1,4.52-9.55,8.16-13.55,12.2-1.06,1.07-1.67,4.08-.9,4.97,2.96,3.39,6.57,6.28,11.02,10.36,5.37-5.56,10.15-10.52,16.23-16.81,5.07,5.8,9.62,11,13.15,15.04,5.39-3.98,9.74-7.21,15.89-11.75-6.51-5.14-11.99-9.46-18.3-14.44,5.96-5.07,11.12-9.47,18.07-15.39Z"/>
</svg>