<?xml version="1.0" encoding="UTF-8"?>
<svg id="Layer_1" data-name="Layer 1" xmlns="http://www.w3.org/2000/svg" viewBox="0 0 200 200">
  <defs>
    <style>
      .cls-1 {
        fill: #5c2e63;
      }
    </style>
  </defs>
  <path class="cls-1" d="M31.27,25.61H12.76v25.18H161.65V25.68h-18.61c-.16,1.74-.29,3.26-.43,4.78-.37,3.99-2.76,6.68-6.03,6.02-2.25-.45-5.59-3.48-5.76-5.6-.66-8.42-.64-16.98,.03-25.4,.16-2.04,3.58-4.89,5.86-5.37,3.42-.71,5.63,2.03,5.91,6.04,.12,1.74,.21,3.47,.35,5.91,7.59,0,14.97-.02,22.35,0,7.04,.03,8.84,1.86,8.85,9.26,.03,23.69,.01,47.38,0,71.06,0,1.54-.17,3.09-.28,4.9-3.94-.97-7.62-1.86-11.83-2.9v-29.67H12.78v93.44H102.73c.95,4.73,1.78,8.88,2.67,13.29-1.25,.14-2.13,.33-3,.33-31.4,.01-62.8,.04-94.2-.01-6.06-.01-8.16-2.33-8.17-9C-.01,115.61,0,68.43,.03,21.25c0-7.09,1.96-9.12,8.46-9.16,7.42-.04,14.84,0,22.59,0,.16-2.09,.21-3.8,.45-5.48,.57-4.08,2.71-6.57,6.6-6.28,3.63,.27,5.48,2.88,5.53,6.76,.09,7.3,.03,14.61,.05,21.91,.01,4.49-1.33,8.01-6.01,8.04-4.6,.03-6.17-3.36-6.25-7.88-.02-.98-.1-1.95-.18-3.55Z"/>
  <path class="cls-1" d="M198.82,144.97c4.7,19.54-6.69,42.3-25.35,51.18-19.4,9.23-42.31,1.41-53.87-18.4-11.39-19.52-7.87-45.19,8.33-60.72,14.92-14.31,38.74-15.51,53.56-2.31-2.17,1.77-4.31,3.51-6.78,5.53-10.03-6.34-21.36-7.7-32.93-1.87-15.09,7.59-23.04,25.39-19.29,42.65,3.81,17.58,17.99,29.85,34.27,29.65,16.55-.21,30.95-13,33.7-30.94,.97-6.34,3.3-10.93,8.37-14.76Z"/>
  <path class="cls-1" d="M154.68,157.4c10.38-10.62,20.43-20.87,30.44-31.15,1.85-1.9,3.3-4.65,5.47-5.65,2.11-.97,5.44-1.17,7.26,.04,2.79,1.86,2.74,5.46,.51,8.28-2.37,2.98-5.01,5.71-7.55,8.54-9.89,11.02-19.75,22.06-29.69,33.04-4.48,4.94-7.02,4.85-11.24-.3-5.07-6.19-10.04-12.48-15.09-18.69-2.49-3.06-3.34-6.36-.36-9.39,3.26-3.32,6.25-1.86,8.88,1.41,4.03,5.01,8.13,9.95,11.36,13.88Z"/>
  <path class="cls-1" d="M53.11,126.58v21.12H25.22v-21.12h27.89Z"/>
  <path class="cls-1" d="M72.96,147.71v-21.17h27.92v21.17h-27.92Z"/>
  <path class="cls-1" d="M53.02,100.84H25.22v-21.04h27.8v21.04Z"/>
  <path class="cls-1" d="M100.98,100.85h-27.81v-21.05h27.81v21.05Z"/>
  <path class="cls-1" d="M148.82,94.92c-8.91,2.51-17.83,5.02-27.6,7.77v-22.99h27.6v15.22Z"/>
  <path class="cls-1" d="M93.29,18.88c0,3.75,.09,7.51-.03,11.25-.14,4.1-2.01,6.86-5.96,6.94-3.95,.08-6.05-2.52-6.13-6.68-.14-7.7-.12-15.4-.04-23.1,.05-4.12,1.96-6.91,5.92-6.94,4.25-.04,6.12,2.92,6.23,7.27,.09,3.75,.02,7.5,.01,11.25Z"/>
  <path class="cls-1" d="M123.49,12.54v12.27h-23.18V12.54h23.18Z"/>
  <path class="cls-1" d="M51.01,12.4h22.69v12.47h-22.69V12.4Z"/>
</svg>