<?xml version="1.0" encoding="UTF-8"?>
<svg id="SvgjsSvg1001" xmlns="http://www.w3.org/2000/svg" viewBox="0 0 240.56 203.99">
  <defs>
    <style>
      .cls-1 {
        fill: #5c2e63;
      }
    </style>
  </defs>
  <g id="SvgjsG1008">
    <g>
      <path class="cls-1" d="M237.62,56.42C203.26,47.22,166.26,28,130.62,.82c-1.11-.85-2.58-1.05-3.88-.55C90.28,14.51,53.51,19.45,20.43,14.53c-2.21-.29-4.23,1.26-4.52,3.46-.13,.97,.1,1.96,.65,2.78,7.6,10.94,15.47,21.46,23.6,31.57-9.23,.12-18.46-.49-27.6-1.82-2.2-.3-4.23,1.24-4.53,3.44-.13,.98,.1,1.98,.65,2.8,6.2,8.86,12.64,17.55,19.32,26.05-7.85-.07-15.68-.68-23.45-1.81-2.21-.29-4.23,1.27-4.51,3.47-.13,.97,.1,1.95,.65,2.77,30.16,44.08,67.01,83.2,109.22,115.94,1.11,.85,2.58,1.05,3.88,.54,41.37-16.76,78.74-42.04,109.69-74.21,1.54-1.61,1.48-4.16-.13-5.69-.47-.45-1.05-.78-1.68-.96-3.92-1.07-7.81-2.24-11.67-3.52,7.43-6.4,14.63-13.16,21.6-20.27,1.54-1.58,1.51-4.11-.07-5.66-.49-.48-1.1-.83-1.76-1-5.55-1.52-11.05-3.26-16.46-5.2,9.13-7.59,17.85-15.64,26.15-24.12,1.54-1.61,1.48-4.16-.13-5.69-.48-.46-1.06-.79-1.69-.97h0Zm-24.64,72.28c-28.64,28.59-62.63,51.26-100.02,66.74-38.45-30.08-72.31-65.6-100.53-105.44,7.23,.66,14.5,.9,21.76,.72,24.56,30.56,52.68,58.1,83.75,82.02,1.11,.85,2.58,1.05,3.88,.55,29.32-11.69,56.64-27.87,81-47.94,3.32,1.17,6.68,2.32,10.16,3.36h0Zm8.12-30.44c-28.65,28.61-62.67,51.29-100.1,66.74C82.54,134.92,48.66,99.39,20.44,59.54c8.71,.81,17.46,1.02,26.19,.64,23.43,28.41,49.99,54.1,79.18,76.56,1.11,.85,2.58,1.05,3.88,.54,27.45-10.93,53.15-25.81,76.29-44.18,5.1,1.91,10.16,3.66,15.12,5.16h0Zm-92.22,30.74C90.43,98.9,56.55,63.38,28.32,23.55c33.79,2.65,67.74-2.49,99.24-15.02,33.66,25.39,68.54,43.85,101.4,53.74-28.66,28.6-62.66,51.27-100.08,66.73h0Z"/>
      <path class="cls-1" d="M147.8,62.46c.12-1.43-.53-2.82-1.71-3.63-12.88-8.92-25.26-18.55-37.08-28.83-1.03-.88-2.43-1.19-3.73-.82-16.58,4.88-33.69,7.78-50.96,8.62-2.22,.13-3.92,2.03-3.79,4.25,.05,.86,.37,1.68,.93,2.35,11.57,13.51,23.82,26.41,36.72,38.65,.96,.91,2.31,1.29,3.6,1.01,18.52-4.12,36.54-10.26,53.72-18.3,1.3-.6,2.18-1.86,2.3-3.29h0Zm-55.67,13.31c-10.19-9.76-19.97-19.94-29.31-30.51,14.41-1.25,28.67-3.86,42.59-7.8,9.77,8.4,19.9,16.37,30.36,23.89-14.07,6.14-28.68,10.97-43.64,14.43h0Z"/>
      <path class="cls-1" d="M101.1,43.94c-1.54,2.81-3.06,5.52-4.59,8.29-6.25-1.12-12.44-2.51-18.57-4.18-2.11-.66-4.35,.51-5.01,2.62-.66,2.11,.51,4.35,2.62,5.01,.09,.03,.18,.05,.26,.07,5.48,1.51,11.04,2.74,16.62,3.83-1.08,1.94-2.17,3.94-3.25,5.86-1.07,1.95-.36,4.39,1.59,5.46,.58,.32,1.23,.49,1.9,.5,4.65-.45,5.56-7.1,8.1-10.35,6.6,1.01,13.23,1.82,19.87,2.21,2.21,0,4-1.79,4-4,0-2.11-1.64-3.86-3.75-3.99-5.34-.37-10.67-.93-15.98-1.7,1.57-3.38,6.34-8.34,1.62-11.22-1.94-1.06-4.37-.35-5.43,1.59Zm22.03-7.14c.79,2.06,3.11,3.09,5.17,2.3,4.26-1.64,8.49-3.38,12.66-5.23,2.02-.89,2.93-3.26,2.04-5.28s-3.26-2.93-5.28-2.04h0c-4.1,1.82-8.23,3.53-12.29,5.08-2.06,.79-3.09,3.11-2.3,5.17Zm13.46,10.07c3.34,5.8,10.37-1.12,14.75-2.43,1.98-.98,2.79-3.38,1.81-5.36-.98-1.97-3.36-2.78-5.33-1.82-3.66,2.67-13.4,3.47-11.22,9.61Zm13.43,9.22c2.91,4.92,8.12-.04,11.66-1.58,1.94-1.05,2.66-3.48,1.61-5.42-2.93-4.81-8.02,.19-11.54,1.61-1.97,1.01-2.75,3.42-1.74,5.38,0,0,0,0,0,0Zm10.21,16.29c-1.03-1.95-3.45-2.7-5.4-1.68-14.72,7.8-30.13,14.2-46.04,19.12-2.12,.62-3.34,2.84-2.73,4.96,.62,2.12,2.84,3.34,4.96,2.73,.04-.01,.07-.02,.11-.03,16.39-5.07,32.27-11.66,47.42-19.69,1.95-1.03,2.7-3.45,1.67-5.4Zm1.14,13.28c-11.82,6.64-24.12,12.41-36.79,17.25-2.07,.78-3.1,3.09-2.32,5.16,.78,2.07,3.09,3.1,5.16,2.32,13.04-4.98,25.69-10.92,37.86-17.76,1.92-1.1,2.58-3.54,1.48-5.46-1.08-1.89-3.48-2.56-5.39-1.52h0Z"/>
    </g>
  </g>
</svg>