<?xml version="1.0" encoding="UTF-8"?>
<svg id="Layer_1" data-name="Layer 1" xmlns="http://www.w3.org/2000/svg" viewBox="0 0 200 200">
  <defs>
    <style>
      .cls-1 {
        fill: #5c2e63;
      }
    </style>
  </defs>
  <path class="cls-1" d="M71.65,76.34c.85,.35,1.51,.56,2.09,.89,.53,.3,1,.74,1.48,1.13,5.05,4.06,5.06,4.09,10.85,1.19,.51-.26,.86-1.16,.97-1.82,.32-1.9,.41-3.85,.73-5.75,.39-2.35,1.42-3.17,3.81-3.18,3.53-.02,7.05-.02,10.58,0,2.37,.02,3.39,.85,3.77,3.22,.32,1.98,.4,3.99,.78,5.95,.13,.64,.78,1.29,1.37,1.69,.6,.42,1.52,.4,2.1,.83,2.77,2.07,4.77,.94,7.09-1.06,4.68-4.03,5.14-3.88,9.51,.49,1.86,1.86,3.72,3.71,5.57,5.58,1.77,1.79,1.84,3.02,.28,5.06-1.01,1.32-2.07,2.59-3.11,3.89-.26,.32-.53,.64-.77,.98-.82,1.18,2.03,7.66,3.45,7.85,1.99,.27,3.98,.48,5.96,.78,2,.31,3.03,1.49,3.02,3.55,0,3.66,.03,7.33-.01,10.99-.03,2.18-.98,3.26-3.21,3.61-1.91,.31-3.87,.33-5.75,.73-.75,.16-1.45,.93-1.98,1.58-.41,.51-.39,1.36-.78,1.9-2.01,2.76-.96,4.77,1.06,7.1,4.07,4.67,3.92,4.79-.48,9.19-1.91,1.91-3.8,3.83-5.72,5.72-1.66,1.63-2.86,1.69-4.74,.3-.28-.21-.53-.44-.8-.66-5.09-4.12-5.1-4.15-11.02-1.45-.52,.24-.96,1.09-1.07,1.73-.35,1.97-.45,3.98-.78,5.96-.37,2.23-1.41,3.13-3.65,3.16-3.59,.05-7.19,.05-10.78,0-2.25-.03-3.31-.92-3.69-3.12-.33-1.9-.53-3.83-.69-5.76-.09-1.16-.41-1.93-1.71-2.18-.93-.18-1.93-.5-2.68-1.05-2.1-1.54-3.72-.94-5.36,.74-.96,.98-2.11,1.78-3.22,2.61-1.9,1.43-3.05,1.37-4.74-.28-2.67-2.61-5.3-5.26-7.92-7.91-1.55-1.57-1.64-2.79-.3-4.57,1.25-1.66,2.66-3.19,3.82-4.9,.38-.57,.3-1.53,.23-2.3-.04-.52-.57-.99-.64-1.51-.55-4.03-3.32-4.83-6.75-4.82-.89,0-1.79-.14-2.66-.34-1.69-.38-2.63-1.47-2.64-3.23-.02-3.8-.03-7.6,0-11.41,.01-1.96,1.08-3.08,2.98-3.37,2.05-.3,4.13-.42,6.15-.84,.68-.14,1.38-.86,1.79-1.49,.48-.73,.48-1.79,1-2.48,1.77-2.37,.8-4.06-.86-6.04-4.42-5.26-4.34-5.33,.46-10.13,1.81-1.81,3.59-3.65,5.45-5.4,.62-.58,1.45-.93,2.15-1.36Zm22.1-1.23c-.29,2.04-.6,4-.83,5.97-.24,2-1.23,3.15-3.22,3.8-2.73,.89-5.39,2.07-8,3.29-1.68,.79-3.1,.91-4.59-.33-1.68-1.4-3.45-2.69-5.07-3.94-1.57,1.49-3.01,2.85-4.5,4.26,1.42,1.83,2.76,3.59,4.13,5.32,1.13,1.43,1.05,2.81,.27,4.43-1.24,2.6-2.41,5.26-3.32,7.99-.66,1.98-1.82,2.98-3.8,3.24-2.1,.28-4.19,.6-6.23,.89v6.22c2.17,.28,4.23,.54,6.28,.8,1.78,.23,3,1.01,3.65,2.86,1.02,2.91,2.26,5.75,3.53,8.57,.69,1.54,.77,2.87-.34,4.23-1.42,1.75-2.77,3.56-3.96,5.09,1.5,1.66,2.82,3.12,4.18,4.62,1.82-1.41,3.53-2.7,5.2-4.04,1.47-1.19,2.88-1.17,4.59-.34,2.59,1.26,5.26,2.4,7.99,3.3,2.06,.68,3.08,1.84,3.25,3.98,.16,2.04,.53,4.06,.81,6.06h6.22c.29-2.24,.57-4.36,.85-6.49,.24-1.82,1.18-2.88,3.01-3.5,2.79-.94,5.53-2.11,8.19-3.38,1.69-.81,3.09-.89,4.58,.35,1.68,1.4,3.45,2.69,4.99,3.89,1.63-1.5,3.08-2.85,4.57-4.22-1.32-1.7-2.49-3.33-3.79-4.86-1.46-1.71-1.48-3.3-.41-5.29,1.23-2.29,2.16-4.76,3-7.23,.86-2.55,1.83-3.45,4.57-3.66,1.84-.14,3.69-.31,5.62-.48v-6.25c-2.09-.27-4.13-.56-6.18-.79-2.08-.23-3.28-1.23-3.93-3.34-.83-2.68-1.97-5.29-3.22-7.81-.88-1.77-.91-3.23,.36-4.77,1.35-1.65,2.62-3.37,3.93-5.06-1.47-1.48-2.87-2.89-4.36-4.39-1.7,1.31-3.41,2.58-5.06,3.93-1.53,1.25-2.98,1.28-4.76,.39-2.58-1.28-5.26-2.39-7.99-3.3-1.97-.66-2.98-1.75-3.16-3.82-.18-2.1-.56-4.18-.85-6.23h-6.19Z"/>
  <path class="cls-1" d="M172.84,37.7c.7,4.37,1.25,8.54,2.08,12.65,.53,2.64,.19,4.79-1.67,6.87-2.03,2.26-3.74,4.8-5.63,7.18-1.84,2.33-4.01,2.37-5.85,.07-2.37-2.97-4.74-5.95-6.94-9.05-.56-.79-.82-2.07-.67-3.03,.77-4.75,1.72-9.47,2.62-14.27-12.25,2.58-23,11.95-20.67,33.73,.76,0,1.56,0,2.36,0,11.27,0,22.54,0,33.81,0,.82,0,1.68,0,2.46,.22,1.57,.43,2.15,1.63,2.04,3.18-.11,1.6-.96,2.6-2.56,2.75-1.3,.12-2.62,.06-3.94,.06-12.17,0-24.34,0-36.51,0-3.25,0-4.16-.8-4.07-4.02,.16-5.93-.23-12,.88-17.76,2.2-11.4,9.64-18.8,20.19-23.21,.68-.28,1.36-.58,2.07-.88-8.12-10.19-8.32-20.03-.63-27.22,7.06-6.6,17.97-6.65,25.05-.11,7.79,7.2,7.65,16.97-.47,27.37,6.36,2.43,11.68,6.25,15.82,11.65,4.6,6,7.05,12.78,7.32,20.32,.12,3.32,.07,6.64,.04,9.96-.02,2.51-1.01,3.56-3.5,3.61-3.11,.07-6.22,.07-9.33,0-2.27-.05-3.35-1.12-3.36-3.08-.01-1.97,1.05-3.05,3.3-3.14,2.13-.08,4.27-.02,6.35-.02,3.07-14.24-6.82-30.66-20.58-33.85Zm-8.44-7.75c6.94-.05,12.19-5.25,12.09-11.99-.1-6.57-5.45-11.81-11.98-11.73-6.5,.09-11.82,5.52-11.75,12.01,.07,6.68,5.11,11.75,11.64,11.71Zm.36,27.39c1.03-1.34,2.03-2.56,2.92-3.86,.4-.59,.92-1.37,.82-1.98-.79-4.96-1.71-9.9-2.59-14.86h-2.85c-.6,3.37-.79,6.75-1.85,9.85-1.51,4.46-.1,7.68,3.12,10.56,.05,.05,.11,.08,.42,.28Z"/>
  <path class="cls-1" d="M23.2,154.36c-9.83-9.68-6.68-21.95-.33-27.53,7.14-6.28,17.99-6.16,24.69,.36,6.12,5.97,8.91,17.9-.71,27.08,.44,.24,.83,.48,1.23,.66,13.84,6.39,21.24,17.15,21.92,32.42,.13,2.9,.05,5.81,.02,8.71-.03,2.88-1.03,3.89-3.86,3.91-2.97,.02-5.95,.04-8.92,0-2.31-.03-3.48-1.17-3.44-3.21,.04-1.95,1.16-2.96,3.41-3.01,2.07-.04,4.14,0,6.17,0,3.8-13.07-7.51-31.78-20.5-33.78,.84,4.53,1.6,9,2.52,13.45,.36,1.77,.11,3.2-1.05,4.62-2.19,2.68-4.23,5.47-6.37,8.18-1.96,2.48-4,2.48-5.96,0-2.15-2.71-4.17-5.52-6.39-8.16-1.2-1.42-1.44-2.84-1.08-4.59,.81-3.92,1.53-7.86,2.27-11.8,.1-.53,.11-1.08,.17-1.63-13.53,1.11-21.99,14.82-20.65,33.71,.76,0,1.55,0,2.35,0,11.61,0,23.23-.01,34.84,.01,2.87,0,4.39,2.08,3.34,4.44-.66,1.5-1.95,1.8-3.42,1.79-6.43-.01-12.86,0-19.29,0-6.71,0-13.41,0-20.12,0-3.11,0-4.11-.96-4.04-4.11,.12-5.52-.26-11.14,.65-16.54,2.02-11.98,9.45-19.78,20.62-24.19,.62-.25,1.24-.51,1.93-.78Zm-.03-14.01c.02,6.56,5.37,11.89,11.88,11.84,6.52-.05,11.83-5.43,11.81-11.95-.02-6.55-5.35-11.82-11.92-11.79-6.6,.03-11.8,5.28-11.77,11.9Zm12.14,39.28c1.29-1.67,2.46-3.1,3.51-4.61,.3-.44,.42-1.15,.33-1.69-.73-4.41-1.49-8.82-2.38-13.2-.11-.55-.95-1.15-1.57-1.34-1.03-.31-1.53,.23-1.72,1.38-.7,4.27-1.59,8.52-2.27,12.8-.12,.76,.19,1.76,.64,2.41,.96,1.41,2.15,2.67,3.46,4.25Z"/>
  <path class="cls-1" d="M30.3,68.05c1.76-1.84,3.49-3.71,5.29-5.5,1.58-1.57,3.45-1.65,4.74-.31,1.25,1.3,1.17,3.08-.33,4.6-3.64,3.69-7.3,7.36-11,11-1.64,1.61-3.28,1.61-4.89-.01-3.74-3.78-7.45-7.6-11.14-11.44-1.39-1.46-1.41-3.17-.19-4.44,1.3-1.35,3.05-1.36,4.58,.11,1.89,1.81,3.69,3.71,5.95,5.99,.06-1.22,.12-1.92,.13-2.61,0-6.57-.02-13.14,.01-19.7,.04-10.3,6.43-16.69,16.71-16.69,21.5-.01,43,0,64.5,0,2.79,0,4.14,1.1,4.04,3.27-.08,1.68-.96,2.7-2.64,2.92-.68,.09-1.38,.04-2.07,.04-21.15,0-42.31,0-63.46,0-6.92,0-10.78,3.84-10.8,10.76-.02,6.64,0,13.27,0,19.91,0,.61,.05,1.21,.08,1.82,.17,.09,.34,.18,.51,.28Z"/>
  <path class="cls-1" d="M181.82,140.73c-1.96,2.04-3.71,3.91-5.52,5.7-1.64,1.62-3.4,1.73-4.73,.42-1.4-1.38-1.32-3.05,.34-4.73,3.6-3.64,7.21-7.26,10.86-10.85,1.77-1.74,3.27-1.76,5.04-.02,3.65,3.58,7.27,7.21,10.86,10.86,1.65,1.67,1.69,3.07,.28,4.51-1.5,1.54-3.23,1.56-4.89-.1-1.85-1.84-3.6-3.78-5.81-6.13-.09,1.3-.17,1.88-.17,2.46,0,6.78,.02,13.56-.01,20.33-.04,10.04-6.47,16.47-16.49,16.47-21.44,.01-42.88,0-64.32,0-.55,0-1.11,.03-1.66-.03-1.81-.22-2.83-1.43-2.74-3.26,.09-1.81,1.1-2.82,2.87-2.91,1.93-.09,3.87-.03,5.81-.03,19.99,0,39.97,0,59.96,0,7.12,0,10.66-3.57,10.66-10.74,0-7.05,0-14.11-.02-21.16,0-.12-.09-.24-.31-.79Z"/>
  <path class="cls-1" d="M96.93,132.43c-10.62,.04-19.33-8.55-19.4-19.14-.07-10.71,8.58-19.5,19.23-19.54,10.84-.04,19.42,8.33,19.43,18.98,.02,10.97-8.48,19.66-19.27,19.7Zm13.03-18.76c-.02-7.51-5.81-13.36-13.18-13.33-7.19,.03-13,5.88-13,13.08,0,7.24,5.97,13.17,13.22,13.11,7.16-.06,12.99-5.85,12.97-12.87Z"/>
</svg>