<?xml version="1.0" encoding="UTF-8"?>
<svg id="Layer_1" data-name="Layer 1" xmlns="http://www.w3.org/2000/svg" viewBox="0 0 200 200">
  <defs>
    <style>
      .cls-1 {
        fill: #5c2e63;
      }
    </style>
  </defs>
  <path class="cls-1" d="M125.78,200c-.4-.31-.83-.59-1.21-.93-1.2-1.09-1.75-2.41-1.26-4.03,.51-1.67,1.66-2.6,3.37-2.82,.64-.08,1.3-.04,1.95-.04,16.92,0,33.84,0,50.77,0,7.93,0,12.78-4.84,12.78-12.76,0-28.51,0-57.01,0-85.52,0-7.79-4.88-12.65-12.68-12.66-46.67,0-93.33,0-140,0-7.94,0-12.77,4.8-12.78,12.77-.02,28.44-.02,56.88,0,85.33,0,8.06,4.83,12.84,12.9,12.84,17.18,0,34.36,0,51.55,0,3.13,0,5.23,2.08,4.42,4.67-.38,1.2-1.72,2.1-2.62,3.13H35.94c-1.18-.33-2.38-.6-3.54-.98-8.37-2.75-13.47-10.12-13.48-19.59-.03-17.1,0-34.21,0-51.31,0-4.05,0-4.03-3.87-5.06-7.08-1.88-11.79-6.32-14.15-13.24C.53,108.77,.29,107.7,0,106.64c0-1.69,0-3.39,0-5.08,.29-1.13,.57-2.25,.87-3.38C8.29,70.51,15.7,42.83,23.12,15.15c1.62-6.06,5.12-10.62,10.86-13.27C35.71,1.07,37.62,.62,39.45,0c1.82,0,3.65,0,5.47,0,1.17,.34,2.34,.69,3.52,1,25.91,6.95,51.83,13.89,77.74,20.84,19.39,5.2,38.79,10.33,58.15,15.62,10.74,2.94,16.56,13.17,13.83,23.97-1.32,5.23-2.78,10.42-4.12,15.64-.16,.61-.23,1.59,.12,1.94,3.15,3.14,4.78,7.02,5.83,11.23v92.97s-.13,.08-.14,.13c-1.93,9.09-7.43,14.6-16.52,16.53-.05,.01-.09,.09-.13,.14h-57.42Zm62.47-131.62c-53.35-14.29-106.52-28.54-159.82-42.82-1.26,4.73-2.44,9.16-3.65,13.68,.75,.24,1.29,.43,1.84,.58,37.83,10.14,75.69,20.18,113.48,30.49,8.11,2.21,16.16,3.5,24.57,3.2,7.25-.26,14.52,.09,22.11,.17,.35-1.29,.87-3.15,1.46-5.3ZM30.59,18.04c53.26,14.27,106.39,28.51,159.49,42.74,2.83-6.75-.84-13.93-8.03-15.87-27.61-7.44-55.22-14.83-82.84-22.24-17.76-4.76-35.53-9.51-53.29-14.26-7.51-2.01-13.85,1.91-15.33,9.62Zm-7.82,28.82c-.39,1.4-.74,2.64-1.08,3.89-4.44,16.57-8.9,33.13-13.32,49.7-2.05,7.68,2.55,14.46,10.54,15.33,0-.72,0-1.42,0-2.13,0-6.44-.03-12.89,.02-19.33,.02-1.81,.09-3.67,.48-5.43,2.05-9.34,9.8-15.44,19.62-15.45,26.49-.02,52.98,0,79.47,0,.69,0,1.38,0,2.07,0,.02-.12,.04-.24,.06-.36-32.53-8.72-65.07-17.43-97.85-26.22Z"/>
  <path class="cls-1" d="M108.2,200c-1.52-1.06-2.86-2.24-2.62-4.35,.21-1.78,1.69-3.22,3.45-3.43,1.69-.2,3.36,.81,4.02,2.42,.68,1.67,.13,3.53-1.39,4.63-.36,.26-.75,.49-1.12,.73h-2.34Z"/>
  <path class="cls-1" d="M58.72,94.53c5.47,0,10.94,0,16.41,0,3.27,0,4.69,1.36,4.71,4.59,.03,6.84,.03,13.67,0,20.51-.02,3.23-1.44,4.58-4.71,4.59-10.94,0-21.87,.01-32.81,0-3.11,0-4.61-1.41-4.64-4.49-.05-6.9-.05-13.8,0-20.7,.02-3.08,1.52-4.48,4.64-4.49,5.47-.02,10.94,0,16.41,0Zm-13.13,21.78h26.31v-13.87h-26.31v13.87Z"/>
  <path class="cls-1" d="M108.59,161.72c-5.4,0-10.79,0-16.19,0-3.49,0-4.89-1.37-4.9-4.8-.01-5.2-.02-10.4,0-15.6,.01-3.1,1.46-4.59,4.51-4.59,11.05-.02,22.1-.02,33.16,0,3.05,0,4.5,1.5,4.51,4.59,.02,5.27,.02,10.53,0,15.8-.01,3.16-1.48,4.59-4.71,4.6-5.46,.01-10.92,0-16.38,0Zm-13.12-17.12v9.21h26.29v-9.21h-26.29Z"/>
  <path class="cls-1" d="M160.05,161.72c-5.4,0-10.79,0-16.19,0-3.36,0-4.78-1.4-4.79-4.71-.01-5.2-.01-10.4,0-15.6,0-3.22,1.43-4.68,4.62-4.68,10.99-.01,21.97-.01,32.96,0,3.17,0,4.59,1.47,4.6,4.7,.02,5.14,.01,10.27,0,15.41,0,3.49-1.37,4.87-4.82,4.88-5.46,.01-10.92,0-16.38,0Zm13.3-17.05h-26.32v9.14h26.32v-9.14Z"/>
  <path class="cls-1" d="M58.61,161.72c-4.94,0-9.88,.01-14.82,0-3.31,0-4.71-1.43-4.72-4.78-.01-5.14-.01-10.27,0-15.41,0-3.38,1.39-4.8,4.69-4.8,9.88-.01,19.76-.01,29.64,0,3.31,0,4.71,1.43,4.72,4.78,.01,5.14,.01,10.27,0,15.41,0,3.44-1.4,4.8-4.89,4.81-4.88,0-9.75,0-14.63,0Zm-11.64-7.95h23.19v-9.14h-23.19v9.14Z"/>
  <path class="cls-1" d="M58.5,178.91c-4.94,0-9.88,.01-14.81,0-2.83,0-4.61-1.53-4.61-3.89,0-2.36,1.77-3.91,4.6-3.91,9.94-.01,19.88-.01,29.82,0,2.83,0,4.61,1.53,4.62,3.89,0,2.36-1.78,3.9-4.6,3.91-5,.02-10.01,0-15.01,0Z"/>
  <path class="cls-1" d="M107.24,171.09c4.87,0,9.75,0,14.62,0,2.86,0,4.64,1.47,4.69,3.82,.05,2.42-1.78,3.98-4.72,3.99-9.88,0-19.75,0-29.63,0-2.86,0-4.63-1.47-4.69-3.82-.05-2.42,1.77-3.98,4.72-3.98,5-.01,10.01,0,15.01,0Z"/>
  <path class="cls-1" d="M161.7,102.34c-4.94,0-9.88,.01-14.81,0-2.82,0-4.63-1.53-4.66-3.86-.03-2.33,1.8-3.94,4.58-3.94,9.94-.01,19.88-.01,29.82,0,2.87,0,4.61,1.47,4.63,3.86,.02,2.41-1.71,3.93-4.55,3.94-5,.02-10.01,0-15.01,0Z"/>
  <path class="cls-1" d="M169.72,121.09c-2.41,0-4.81,.03-7.22,0-2.47-.04-4.24-1.71-4.23-3.91,0-2.19,1.78-3.86,4.25-3.88,4.81-.04,9.63-.03,14.44,0,2.57,.02,4.25,1.55,4.29,3.81,.05,2.35-1.65,3.95-4.32,3.98-2.41,.03-4.81,0-7.22,0Z"/>
</svg>