<?xml version="1.0" encoding="UTF-8"?>
<svg id="Layer_1" data-name="Layer 1" xmlns="http://www.w3.org/2000/svg" viewBox="0 0 200 300">
  <defs>
    <style>
      .cls-1 {
        fill: #5c2e63;
      }
    </style>
  </defs>
  <path class="cls-1" d="M99.94,148.37c6.41-10.37,12.55-20.02,18.37-29.85,1.65-2.79,3.3-3.77,6.65-3.22,12.15,2.01,24.15,4.42,35.25,9.87,8.32,4.08,14.6,10.19,18.82,18.28,9.08,17.42,13.16,36.36,17.62,55.16,2.22,9.33,4.59,18.72,2.61,28.45-2.55,12.56-10.09,20.52-23.03,23.46-3.13,.71-6.37,1.12-9.37,2.16-1.09,.38-1.87,2.12-2.39,3.4-9.85,23.96-27.64,38.75-53.91,43.01-32.26,5.24-63.36-12.57-74.9-42.44-1.05-2.72-2.22-3.8-5.4-4.4-19.53-3.69-33.81-13.1-29.47-39.32,3.12-18.85,8.72-37.36,13.94-55.83,5.92-20.93,20.36-33.59,42.23-38.17,5.79-1.21,11.63-2.22,17.4-3.53,3.52-.8,5.54,.13,7.38,3.36,5.05,8.87,10.57,17.49,15.92,26.2,.57,.93,1.21,1.81,2.29,3.41Zm79.29,95.29c5.16-1.86,9.14-5.28,11.74-10.24,3.27-6.25,3.85-12.93,2.61-19.66-1.65-9.04-3.29-18.12-5.78-26.96-4.37-15.52-7.52-31.56-17-45.28-8.15-11.8-21.08-14.92-34.94-18.42,3.71,8.47,6.98,15.93,10.65,24.32-6.81-1.43-12.52-2.83-18.31-3.74-1.96-.31-4.5,.07-6.13,1.09-5.8,3.64-11.39,7.6-16.88,11.67-1.12,.83-1.95,2.58-2.11,3.99-.52,4.68-.57,4.82-6.26,3.62,1.89-5.21-1.51-7.65-5.52-10.15-4.97-3.09-9.49-6.85-14.4-10.04-1.15-.75-3.15-.74-4.63-.45-6.01,1.17-11.96,2.59-19.01,4.15,3.78-8.6,7.06-16.06,10.41-23.7-17.61,.37-34.52,11.82-40.66,28.7-5.11,14.04-9.26,28.45-12.95,42.91-2.26,8.84-3.71,18.06-3.96,27.15-.28,10.32,6,18.05,14.41,20.77-.43-7.23-1.51-14.6-1.15-21.9,.53-11.06,4.97-20.34,16.5-24.59,3.15-1.16,4.26-2.88,4.59-5.91,.72-6.78,1.73-13.52,2.66-20.63,2.22,.42,3.91,.74,5.68,1.07-.84,6.66-1.61,12.83-2.47,19.63,29.86-33.27,79.71-31.35,107.19,.04-.86-6.93-1.65-13.22-2.47-19.87,2.05-.25,3.77-.46,5.73-.7,1,7.53,1.79,14.62,2.99,21.63,.26,1.51,1.71,3.5,3.11,4.04,12.49,4.78,17.37,14.36,17.64,26.51,.16,6.92-.81,13.87-1.28,20.97Zm-138.57,8.74c6.49,25.87,36.29,44.35,66.3,41.54,23.74-2.22,50.87-23.94,51.83-41.57-.69-.08-1.38-.17-2.08-.23-8.02-.66-9.51-2.25-9.67-10.17-.01-.62-.46-1.22-.59-1.86-1.05-5.19-2.08-10.38-3.06-15.58-.09-.49,.35-1.04,.4-1.58,.21-2.06,.36-4.12,.62-7.19-9.37,5.42-17.52,10.05-25.54,14.89-1.02,.62-1.36,2.35-1.92,3.61-1.55,3.45-2.08,8.19-4.77,10.1-5.07,3.62-4.97,7.95-4.71,12.87,.15,2.74,.11,5.49,.11,8.23,.01,6.13,0,12.25,0,18.88,19.65-3.57,32.91-13.91,41.28-30.8,1.79,.79,3.37,1.49,4.91,2.16-7.46,20.54-31.82,35.66-55.52,34.84-23.21-.81-46.92-16.63-52.03-34.87,.71-.34,1.43-.76,2.21-1.05,.86-.33,1.77-.54,2.66-.8,8.73,17.22,22.37,27.54,41.95,30.61,0-11.86,.05-23.08-.09-34.3-.01-.92-1.16-2.08-2.09-2.69-4.74-3.15-7.33-7.41-8.01-12.95-.15-1.24-1.1-2.84-2.18-3.45-8.05-4.55-16.22-8.89-24.94-13.61-.13,1.64-.69,3.06-.26,4.09,2.35,5.7-1.33,11.02-.88,16.61,.16,2.07-1.18,4.22-1.4,6.38-.39,3.79-2.83,6.69-6.79,7.35-1.8,.3-3.64,.36-5.73,.55Zm100.34-50.92c-19.73-25.6-62.53-26.52-83.17,1.08,10.24,5.56,20.43,11.14,30.71,16.56,.83,.44,2.4,.06,3.39-.4,5.17-2.43,10.28-2.48,15.55-.26,1.1,.46,2.85,.66,3.79,.13,9.89-5.56,19.67-11.29,29.74-17.12Zm-93.19,4.33c3.4-4.28,5.91-7.94,8.93-11.15,25.83-27.43,71.87-23.59,92.51,7.7,.71,1.08,1.48,3.03,.97,3.81-1.66,2.58-.33,2.85,1.76,2.73,1.53-.09,3.05-.45,4.59-.69-5.71-19.02-31.86-35.64-56.19-35.82-24.59-.18-50.85,16.21-57.19,36,5.22,.46,10.31,.7,15.02,3.63,7.6,4.72,15.68,8.71,23.6,12.91,.93,.49,2.17,.44,3.27,.64,.14-.51,.27-1.01,.41-1.52-12.29-5.93-23.29-14.19-37.67-18.26Zm116.82,7.36c-4.19,.47-7.3,.64-10.32,1.25-1.52,.31-2.86,1.43-4.29,2.18,1.43,.52,2.84,1.39,4.3,1.48,3.73,.21,7.49,.07,11.52,.07-.11,2.27-.18,3.84-.27,5.69-4.54,0-8.62-.14-12.68,.08-1.23,.07-2.4,1.12-3.59,1.72,1.23,.58,2.43,1.61,3.68,1.67,4.3,.21,8.63,.08,12.82,.08v5.74c-4.22,0-8.16-.13-12.08,.08-1.1,.06-2.14,1.1-3.21,1.69,1.03,.63,2.03,1.74,3.09,1.8,3.76,.22,7.55,.09,11.39,.09v5.68c-3.48,0-6.71-.12-9.91,.08-.85,.05-1.63,1.09-2.45,1.68,.75,.67,1.44,1.82,2.26,1.91,3.5,.4,7.06,.31,10.56,.74,4.24,.52,6.81-1.44,7.22-5.15,.87-7.86,2.05-15.83,1.48-23.65-.61-8.47-6.13-14.02-12.95-15.72,1.08,3.4,2.17,6.83,3.43,10.81Zm-130.79,14.22c4.58,0,8.79,.13,12.99-.08,1.26-.06,2.48-1.06,3.72-1.63-1.18-.61-2.34-1.69-3.55-1.75-4.18-.22-8.38-.08-12.78-.08v-5.69c3,0,5.82,.27,8.56-.08,2.37-.3,5.46,1.73,7.05-1.69-2.21-.75-4.38-1.68-6.65-2.2-2.39-.54-4.89-.68-7.99-1.08,1.3-4.05,2.39-7.47,3.55-11.07-4.69,1.22-7.93,3.85-10.02,7.79-5.95,11.19-4.23,22.61-.65,33.93,.44,1.38,3.05,2.81,4.78,2.96,3.62,.32,7.34-.03,10.97-.47,1.19-.14,2.24-1.39,3.36-2.13-1.13-.56-2.22-1.5-3.39-1.59-3.01-.23-6.04-.08-9.03-.08v-5.65c2.55,0,4.97,.28,7.29-.08,2.46-.38,6.92,1.83,6.94-1.86,.02-3.41-4.35-1.32-6.72-1.63-2.72-.36-5.53-.08-8.42-.08v-5.75Zm65.9,16.79c6.14,.09,11.08-4.47,11.27-10.42,.2-6.1-4.69-11.14-10.91-11.24-6.05-.1-11.09,4.58-11.28,10.48-.2,6.15,4.62,11.08,10.92,11.18Zm36.37-104.08c.04-.49,.09-.98,.13-1.46-2.19-5.03-4.3-10.1-6.62-15.08-1.27-2.73-5.29-3.39-6.76-1.07-4.79,7.56-9.38,15.24-14.05,22.88,8.6-4.77,15.85-12.77,27.29-5.27Zm-72.66-.89c2.38-.45,3.52-.51,4.53-.89,5.36-2.01,10.17-1.95,14.64,2.31,2.22,2.12,5.24,3.45,7.9,5.13-4.1-7.98-8.68-15.58-13.4-23.1-1.35-2.16-5.48-2.03-6.6,.31-2.41,5.03-4.48,10.22-7.08,16.25Zm36.11,110.55c-1.59,7.61-.52,33.34,1.36,34.95,1.83-4.16,.95-32.98-1.36-34.95Zm46.26-41.5c-.05-.37-.09-.75-.14-1.12-.91-.06-2.04-.49-2.69-.12-9.14,5.19-18.22,10.46-27.26,15.8-.59,.35-.73,1.42-1.08,2.15,.72,.01,1.6,.3,2.13,0,9.7-5.53,19.36-11.13,29.03-16.72Z"/>
  <path class="cls-1" d="M99.82,0c9.34-.03,18.27,1.67,26.43,6.22,9.61,5.36,15.26,13.15,15.39,24.28,.05,4.79,.54,9.58,.69,14.37,.13,3.94,.38,7.43,3.53,10.81,4.41,4.73,2.62,13.44-3.17,17.5-2.47,1.73-3.37,3.67-3.88,6.33-3.1,15.97-12.67,26.48-28.97,30.28-16,3.73-29.87-.41-40.85-12.63-4.71-5.24-6.6-11.65-8.21-18.25-.46-1.9-1.72-3.99-3.27-5.2-6.83-5.36-7.67-13.68-1.91-20.2,.9-1.02,1.43-2.63,1.53-4,.46-6.42,.87-12.86,.99-19.29,.21-10.79,5.67-18.38,14.91-23.72C81.28,1.74,90.34,.04,99.82,0ZM59.75,57.86c-3.46,4.54-2.22,10.12,2.72,11.74,2.55,.84,3.2,2.16,3.49,4.32,.27,2.04,.73,4.05,1.14,6.07,4.66,22.93,31.08,31.11,49.64,21.3,11-5.81,15.54-15.43,17.09-26.84,.33-2.45,.93-4,3.82-4.98,4.87-1.65,5.92-7.58,2.28-11.49-4.56,6.62-11.08,7.09-18.4,5.8-14.16-2.5-28.4-2.52-42.57-.11-7.51,1.28-14.45,1.33-19.2-5.81Zm76.92-8.35c-.33-6.71-.8-12.97-.92-19.24-.16-8.36-4.15-14.6-11.44-18.44-16.05-8.47-32.41-8.43-48.58-.2-5.43,2.77-9.88,7.07-10.82,13.04-1.27,8.05-1.41,16.27-2.07,24.9,24.97-5.73,49.14-5.73,73.82-.06Zm-71.58,5.46c3.36,4.72,7.63,3.5,11.79,3.28,11.39-.61,22.78-1.29,34.18-1.39,5.31-.05,10.63,1.24,15.97,1.77,3.04,.3,5.75-.4,7.36-3.73-23.15-5.28-45.9-5.28-69.3,.07Z"/>
  <path class="cls-1" d="M97.27,185.53h5.17v23.45h-5.17v-23.45Z"/>
  <path class="cls-1" d="M100.05,41.03c-4.67-1.77-9.34-2.75-13.05-5.14-5.75-3.71-5.49-10.32-.13-14.58,6.65-5.28,19.55-5.23,26.12,.1,5.16,4.19,5.47,10.65-.06,14.32-3.67,2.43-8.31,3.48-12.88,5.3Zm-.28-18.62c-3.08,1.11-6.27,1.82-8.98,3.35-2.85,1.61-2.63,3.96,0,5.97,4.25,3.26,13.73,3.29,18.06,.05,2.8-2.1,2.96-4.54-.11-6.21-2.62-1.43-5.7-2.05-8.95-3.15Z"/>
</svg>