<?xml version="1.0" encoding="UTF-8"?>
<svg id="Layer_1" data-name="Layer 1" xmlns="http://www.w3.org/2000/svg" viewBox="0 0 200 100">
  <defs>
    <style>
      .cls-1 {
        fill: #5c2e63;
      }

      .cls-2 {
        fill: #fdfdfd;
      }

      .cls-3 {
        fill: #f2f2f2;
      }

      .cls-4 {
        fill: #fefefe;
      }
    </style>
  </defs>
  <path class="cls-1" d="M199.95,54.71c0,9.83-.1,19.67,.05,29.5,.06,3.94-1.45,5.71-5.78,5.55-5.13-.19-10.27-.09-15.41-.03-3.31,.04-5.48-1.04-4.99-4.49,.43-3.05-1.27-3.26-3.81-3.25-24.95,.06-49.9,.07-74.84-.03-2.53-.01-3.85,.95-5.33,2.69-12.49,14.7-32.4,19.34-49.78,11.74-17.82-7.79-27.12-25.48-22.92-44.15,.68-3.02-.18-3.22-2.98-3.44-7.27-.57-12.97-5.89-14.02-12.52-.91-5.75,2.47-11.31,9.19-13.76C32.7,14.01,56.15,5.75,80.78,.9c9.72-1.91,18.88-.68,27.92,2.84,12.87,5.02,24.77,11.84,37.2,17.66,7.5,3.51,15.16,5.91,23.71,5.34,2.7-.18,4.62-.19,4.23-3.53-.41-3.5,1.98-4.36,5.21-4.31,5.14,.08,10.28,.15,15.41-.02,4.1-.14,5.55,1.64,5.52,5.29-.09,10.18-.03,20.36-.03,30.54Z"/>
  <path class="cls-4" d="M129.35,75.65c-13.21,0-26.41,.02-39.62-.01-5.88-.01-8.97-2.23-8.64-6.34,.39-4.93,3.96-5.95,8.52-5.93,15.59,.08,31.18,.03,46.77,.03,2.75,0,6.13,.4,5.95-3.43-.16-3.44-3.39-2.93-5.92-2.93-5.69-.01-11.38-.14-17.06,.06-2.6,.09-3.81-.78-4.85-2.96-4.09-8.58-11.06-14-20.93-15.84-2.56-.48-4.1-1.92-5.76-3.57-18.61-18.56-48.46-16.77-64.31,4-2.87,3.76-6.15,4.42-10.42,3.19-3.62-1.04-5.25-3.51-5.61-6.9-.36-3.46,1.58-5.56,4.78-6.71C35.67,19.94,59.04,11.43,83.74,6.85c8.07-1.5,15.65,.15,23.03,3.08,11.31,4.49,21.9,10.31,32.77,15.62,9.68,4.74,19.55,8.73,30.85,7.62,2.42-.24,3.59,.23,3.55,2.98-.17,12.07-.18,24.15,0,36.23,.04,2.94-1.19,3.33-3.86,3.31-13.57-.11-27.15-.05-40.72-.05Z"/>
  <path class="cls-4" d="M34.88,61.22c-.08-10.91,8.07-19.85,19.56-21.46,10.76-1.51,21.84,5.39,24.81,15.37,.63,2.12,.8,3.68-1.36,5.37-3.62,2.83-5.22,6.93-3.97,11.14,.93,3.13-.61,4.5-2.64,5.97-7.13,5.14-14.94,6.19-23.18,2.8-8.19-3.36-13.15-10.79-13.21-19.2Z"/>
  <path class="cls-2" d="M83.03,81.73c-9.64,11.08-25.29,14.73-38.96,9.34-14.26-5.62-22.64-19.28-20.99-34.18,1.48-13.28,13.19-25.2,27.24-27.72,18.18-3.26,35.63,6.71,40.44,23.21,.44,1.51,2.21,3.74-.86,4.59-3,.83-3.45-1.36-4.13-3.46-4.54-14.03-18.52-22.35-33.42-20.02-14.25,2.23-25.2,14.8-24.62,28.27,.62,14.36,11.97,25.59,27.4,26.89,7.85,.66,14.95-1.54,20.79-6.42,2.49-2.08,4.37-2.63,7.1-.49Z"/>
  <path class="cls-2" d="M180.55,54.14c0-8.26,.15-16.52-.08-24.77-.09-3.15,.82-4.5,4.26-4.03,1.25,.17,2.57,.16,3.83,0,3.26-.4,4.44,.64,4.41,3.92-.17,16.85-.14,33.71-.01,50.57,.02,2.75-.9,3.77-3.71,3.36-.18-.03-.37,0-.55,0q-8.16,.14-8.16-7.38c0-7.22,0-14.45,0-21.67Z"/>
  <path class="cls-3" d="M95.87,45.68c5.22,1.7,8.64,4.6,11.25,8.44,1.38,2.02,1.14,2.82-1.72,3.03-4.54,.34-7.76-.19-7.76-5.52,0-1.87-1.07-3.73-1.77-5.95Z"/>
  <path class="cls-1" d="M64.33,52.22c-.5,3.62-2.23,4.59-5.09,3.65-1.15-.38-2.42-1.6-3,.3-.42,1.36,1.14,1.42,2.12,1.76,8.56,2.97,9.76,7.56,3.58,14.22-.92,1-1.06,2.12-1.61,3.16-.89,1.66-2.5,1.95-4.23,1.41-1.69-.53-5.91-7.49-5.36-8.78,.69-1.6,1.99-2.48,3.87-2.2,1.31,.2,3.17,2.02,3.75,.28,.77-2.34-2.16-1.62-3.44-2.12-6.09-2.4-7.73-8.39-3.41-13.01,.59-.64,1.71-1.01,1.98-1.71,.84-2.12,1.47-4.96,4.5-4.02,3.63,1.12,3.41,5.65,6.34,7.07Z"/>
</svg>