<?xml version="1.0" encoding="UTF-8"?>
<svg id="SvgjsSvg1001" xmlns="http://www.w3.org/2000/svg" viewBox="0 0 244.91 244.38">
  <defs>
    <style>
      .cls-1 {
        fill: #5c2e63;
      }
    </style>
  </defs>
  <g id="SvgjsG1008">
    <path class="cls-1" d="M47.88,244.38c11.33,0,21.36-7.37,25.03-17.81h83.07c3.69,10.46,13.7,17.81,25.02,17.81s21.89-7.74,25.32-18.67l38.6-5.92-1.12-10.25h.01l-1.88-17.08c-2.2-18.26-15.79-21.8-31.39-25.39-20.79-14.09-44.59-22.78-69.51-25.52v-12.22h-30.31c-7.98,0-10.04-7.03-10.51-9.46v-1.04c0-5.79,4.71-10.51,10.84-10.52,4.85-.43,9.52-.22,14.03-.01,10.72,.47,21.81,.98,26.66-10.22,2.29-5.28,1.78-11.31-1.38-16.12-3.16-4.82-8.49-7.69-14.24-7.69h-35.91v-3.12c5.05-5.87,24.49-29.4,24.49-42.82,0-15.6-12.71-28.29-28.34-28.29s-28.29,12.69-28.29,28.29c0,13.47,19.53,37.08,24.49,42.87v10.71h43.55c3.22,0,6.09,1.54,7.85,4.24,1.77,2.69,2.04,5.93,.76,8.89-2.65,6.1-8.13,6.12-19.31,5.63-4.54-.21-9.68-.43-14.71,.02-9.71,0-17.66,7.67-18.13,17.26-.15,.69-.18,1.54-.03,2.58,.97,6.89,6.22,16.46,18.16,16.46h22.67v3.93c-8.08-.49-16.25-.4-24.46,.38-18.38,1.79-20.6,3.63-32.93,13.8-4.89,4.03-11.53,9.51-21.66,17.01-.45,.09-26.95,5.34-26.38,5.22C11.15,180.52,0,195.38,0,211.21v15.36H22.82c3.71,10.6,13.57,17.81,25.06,17.81ZM96.35,7.64c11.41,0,20.69,9.26,20.69,20.65,0,7.91-11.71,24.69-20.69,35.53-8.97-10.84-20.65-27.61-20.65-35.53,0-11.39,9.26-20.65,20.65-20.65ZM47.88,236.74c-10.79,0-19.03-8.73-19.03-18.99s8.53-19.03,19.03-19.03,18.99,8.53,18.99,19.03c0,10.63-8.73,18.99-18.99,18.99Zm26.6-17.81c.02-.39,.03-.79,.03-1.19,0-1.97-.23-3.88-.64-5.73h61.32l22.02-6.2c-1.81,3.59-2.85,7.64-2.85,11.93,0,.4,0,.79,.03,1.19H74.48Zm106.51,17.81c-8.82,0-16.61-6.23-18.52-14.88-.31-1.3-.47-2.68-.47-4.12,0-10.49,8.52-19.03,18.99-19.03s18.99,8.53,18.99,19.03c0,1.32-.13,2.59-.38,3.79-1.78,8.81-9.6,15.2-18.61,15.2Zm51.83-48.81c.58,1.42,1.19,2.84,1.49,5.4l.94,8.56h-1.99c-3.85,0-6.99-3.14-6.99-6.99,0-3.71,2.9-6.74,6.55-6.97Zm-104.34-39.57c12.34,.38,24.44,2.26,36.09,5.6v14.56c-14.74,.48-31.27,1.03-47.01,1.54l10.91-21.69Zm43.74,7.99c8.48,2.94,16.7,6.63,24.54,11.11-6.61,.22-15.03,.5-24.54,.81v-11.92Zm-91.38,4.62c11.79-9.73,12.75-10.53,28.8-12.09,3.43-.32,6.88-.49,10.33-.58l-11.08,22.03s1-.03-27.37,.84h0c-3.54,.13-8.97,.31-13.95,.47,5.65-4.38,9.88-7.88,13.28-10.68ZM7.64,218.93v-7.72c0-12.18,8.58-23.88,21.76-26.4,30.05-5.86,24.95-5.08,29.2-5.22,163.87-4.9,160.26-8.46,169.89,1.54-5.72,1.99-9.86,7.38-9.86,13.77,0,8.07,6.56,14.63,14.63,14.63h2.84l.42,3.81-28.9,4.43v-.03c0-14.71-11.95-26.67-26.63-26.67-5.16,0-9.97,1.5-14.06,4.06l-32.79,9.23h-63.26c-4.62-7.94-13.19-13.29-23-13.29-14.7,0-26.67,11.96-26.67,26.67,0,.4,0,.79,.03,1.19H7.64Z"/>
    <path class="cls-1" d="M181,206.28c-6.32,0-11.46,5.14-11.46,11.46s5.29,11.46,11.46,11.46c6.49,0,11.46-5.37,11.46-11.46s-5.14-11.46-11.46-11.46Zm2.83,13.99c-2.13,2.49-6.65,1.07-6.65-2.52,0-2.14,1.68-3.82,3.82-3.82s3.82,1.71,3.82,3.82c0,.9-.34,1.78-.99,2.52Zm-135.95-13.99c-6.32,0-11.46,5.14-11.46,11.46s5.29,11.46,11.46,11.46,11.46-5.33,11.46-11.46-5.14-11.46-11.46-11.46Zm2.83,13.98c-1.43,1.66-4.24,1.66-5.74-.04-.6-.68-.91-1.53-.91-2.47,0-2.14,1.68-3.82,3.82-3.82s3.82,1.71,3.82,3.82c0,.9-.34,1.78-.99,2.52ZM110.49,28.13c0-7.76-6.35-14.07-14.16-14.07s-14.07,6.31-14.07,14.07,6.31,14.06,14.07,14.06,14.16-6.31,14.16-14.06Zm-14.16,6.42c-3.54,0-6.43-2.88-6.43-6.42s2.88-6.43,6.43-6.43,6.52,2.88,6.52,6.43-2.87,6.42-6.52,6.42Z"/>
  </g>
</svg>