<?xml version="1.0" encoding="UTF-8"?>
<svg id="Layer_1" data-name="Layer 1" xmlns="http://www.w3.org/2000/svg" viewBox="0 0 200 200">
  <defs>
    <style>
      .cls-1 {
        fill: #5c2e63;
      }
    </style>
  </defs>
  <path class="cls-1" d="M199.98,99.85c0,25.23,.02,50.45,0,75.68-.01,16.76-8.27,24.45-26.26,24.46-28.57,.02-57.14,.02-85.7,0-18.95-.01-27.2-7.54-27.23-24.8-.02-11.95-.03-23.9,.02-35.85,.01-2.93-.84-6.99,3.82-7.1,4.66-.11,4.08,3.84,4.08,6.85,0,7.97,.15,15.94-.07,23.9-.09,3.42,.53,4.9,4.89,4.88,37.82-.18,75.63-.13,113.45-.05,3.59,0,5.41-.28,5.39-4.45-.19-43.43-.18-86.87,0-130.3,.02-4.01-1.56-4.53-5.27-4.52-37.82,.1-75.63,.13-113.45-.04-4.21-.02-5.09,1.24-5.01,4.78,.22,9.48,.04,18.97,.09,28.45,.01,2.76,.07,5.91-3.75,6.05-4.44,.16-4.17-3.34-4.17-6.21-.02-13.09-.15-26.18,.03-39.26C61.02,8.33,69.97,.13,85.19,.08c30.21-.1,60.43-.11,90.64,0,15.23,.06,24.04,8.25,24.11,22.38,.12,25.79,.03,51.59,.04,77.39Zm-68.86,76.78c-3.9,0-7.8-.12-11.69,.03-3.76,.15-6.35,1.9-6.22,5.62,.12,3.39,2.59,5.08,6.1,5.14,7.38,.11,14.77,.14,22.14,.01,3.78-.07,6.38-1.94,6.25-5.6-.12-3.33-2.64-5.03-6.14-5.17-3.48-.14-6.97-.03-10.46-.04Z"/>
  <path class="cls-1" d="M176.82,100.8c-.61,23.57-21.86,42.63-46.95,42.13-25.82-.52-46.54-20.26-45.91-43.72,.63-23.52,21.87-42.53,47.02-42.1,25.8,.44,46.45,20.12,45.84,43.69Zm-38.7,9.63c-.19,4.19-2.53,6.68-6.64,7.25-4.16,.58-7.01-1.38-8.5-5.04-.86-2.12-2.27-3.81-5.04-2.84-3.03,1.06-2.89,3.4-2.03,5.71,1.18,3.15,3.29,5.79,6.52,7.25,2.8,1.26,4.76,2.51,4.33,5.84-.24,1.85,1.19,3.25,3.36,3.36,2.44,.12,4.25-1.21,4.02-3.33-.36-3.32,1.55-4.44,4.27-5.86,5.89-3.08,8.41-9.02,7.05-15.09-1.25-5.59-6.28-10.01-12.58-11.03-1.61-.26-3.33-.14-4.83-.63-3.44-1.12-5.3-3.44-5.19-6.91,.1-3.2,1.79-5.33,5.04-6.41,3.58-1.2,6.42-.05,8.72,2.48,.63,.7,.93,1.66,1.36,2.51,1.06,2.1,2.56,3.53,5.26,2.41,2.65-1.11,2.6-3.23,1.82-5.33-1.24-3.33-3.46-6.14-6.91-7.66-2.67-1.18-4.26-2.42-3.96-5.45,.21-2.13-1.31-3.59-3.78-3.58-2.53,0-3.58,1.52-3.72,3.68-.12,1.83,.08,3.33-2.35,4.62-7.77,4.13-10.45,9.3-8.97,15.7,1.58,6.82,5.92,10.11,15.39,11.49,4.46,.65,6.94,2.91,7.38,6.87Z"/>
  <path class="cls-1" d="M44.79,103.55c-7.17,0-14.35-.03-21.52,.02-2.88,.02-5.78-.3-5.83-3.53-.04-3.26,2.84-3.61,5.73-3.6,14.55,.04,29.1,.03,43.66,.01,2.93,0,5.66,.47,5.5,3.79-.14,2.92-2.72,3.33-5.41,3.32-7.38-.04-14.76-.01-22.14-.01Z"/>
  <path class="cls-1" d="M57.18,75.04c5.93,0,11.86,.02,17.79,0,2.75-.01,5.07,.61,5.04,3.61-.03,3.05-2.52,3.48-5.17,3.47-12.27,0-24.54,0-36.81,0-2.71,0-5.11-.54-5.04-3.58,.07-2.98,2.43-3.53,5.17-3.52,6.34,.04,12.68,.01,19.02,.02Z"/>
  <path class="cls-1" d="M57.17,117.9c5.93,0,11.87,.01,17.8-.02,2.74-.01,5.11,.59,5.05,3.59-.05,2.96-2.43,3.55-5.16,3.54-12.28-.02-24.55-.02-36.83,0-2.76,0-5.06-.67-5.05-3.63,.01-3.05,2.48-3.49,5.16-3.48,6.34,.02,12.68,0,19.03,0Z"/>
  <path class="cls-1" d="M11.51,100.02c-.25,3.29-2.3,5.33-5.75,5.33-3.42,0-5.73-2.03-5.76-5.32-.04-3.33,2.31-5.31,5.72-5.34,3.44-.03,5.53,1.97,5.79,5.33Z"/>
  <path class="cls-1" d="M27.06,78.29c-.45,3.58-2.31,5.71-5.97,5.61-3.6-.1-5.67-2.13-5.55-5.53,.11-3.16,2.23-4.95,5.51-5.02,3.63-.08,5.53,1.97,6.01,4.95Z"/>
  <path class="cls-1" d="M27.02,121.28c-.25,3.42-2.32,5.39-5.85,5.39-3.2,0-5.49-1.73-5.63-4.91-.15-3.36,1.83-5.5,5.43-5.66,3.63-.16,5.55,1.95,6.05,5.18Z"/>
</svg>