<?xml version="1.0" encoding="UTF-8"?>
<svg id="Layer_1" data-name="Layer 1" xmlns="http://www.w3.org/2000/svg" viewBox="0 0 200 200">
  <defs>
    <style>
      .cls-1 {
        fill: #5c2e63;
      }
    </style>
  </defs>
  <path class="cls-1" d="M180.01,.08c3.32,6.29,6.6,12.49,10.01,18.94-16.04,11.73-29.83,26.28-38.7,47.57-4.45,10.67-7.17,22.1-8.37,34.51,10.46-6.62,20.95-5.82,31.31-1,22.9,10.64,32.16,44.59,21.03,73.09-13.03,33.36-43.44,31.59-59.31,16.31-11.65-11.22-18.64-26.77-21.52-45.11-5.75-36.57,1.53-69.1,19.05-97.98,12.17-20.06,27.57-34.8,45.18-45.7,.38-.24,.79-.39,1.31-.64Z"/>
  <path class="cls-1" d="M67.66,0c3.34,6.32,6.63,12.52,10.06,19.01-24.98,18.19-43.02,43.07-47.06,81.79,15.19-7.82,29.27-5.28,42,7.01,16.67,16.1,19.75,46.01,8.18,69.99-9.83,20.39-28.64,25.87-44.7,19.61-14.99-5.83-24.21-19.84-30.13-37.72-8.03-24.26-7.57-49.23-1.34-73.99C11.85,57.23,25.97,35.43,44.19,17.86c7.27-7.01,15.05-12.93,23.47-17.86Z"/>
</svg>