<?xml version="1.0" encoding="utf-8"?>
<!-- Generator: Adobe Illustrator 21.1.0, SVG Export Plug-In . SVG Version: 6.00 Build 0)  -->
<svg version="1.1" id="Layer_1" xmlns="http://www.w3.org/2000/svg" xmlns:xlink="http://www.w3.org/1999/xlink" x="0px" y="0px"
	 viewBox="0 0 89.8 89.9" style="enable-background:new 0 0 89.8 89.9;" xml:space="preserve">
<style type="text/css">
	.st0{fill:url(#SVGID_1_);}
	.st1{fill:#FFFFFF;}
	.st2{fill:url(#SVGID_2_);}
	.st3{fill:url(#SVGID_3_);}
	.st4{fill:url(#SVGID_4_);}
	.st5{fill:url(#SVGID_5_);}
</style>
<g>
	
		<image style="overflow:visible;opacity:0.25;enable-background:new    ;" width="120" height="120" xlink:href="1D21D9C3.png"  transform="matrix(1 0 0 1 -8.4615 -7.9112)">
	</image>
	<g>
		<g>
			<g>
				
					<linearGradient id="SVGID_1_" gradientUnits="userSpaceOnUse" x1="0.5" y1="47.05" x2="88.875" y2="47.05" gradientTransform="matrix(1 0 0 -1 0 92)">
					<stop  offset="8.625479e-03" style="stop-color:#2F0E39"/>
					<stop  offset="0.9995" style="stop-color:#61117F"/>
				</linearGradient>
				<path class="st0" d="M75.9,13.7c-17.3-17.3-45.3-17.3-62.5,0s-17.2,45.3,0,62.5c17.3,17.3,45.3,17.3,62.5,0
					C93.2,59,93.2,31,75.9,13.7z M62.7,63c-9.9,10-26.1,10-36,0c-10-9.9-10-26.1,0-36s26.1-10,36,0C72.6,36.9,72.6,53,62.7,63z"/>
			</g>
		</g>
	</g>
</g>
<g>
	<circle class="st1" cx="44.7" cy="45" r="25.5"/>
	<g>
		<g>
			<g>
				
					<linearGradient id="SVGID_2_" gradientUnits="userSpaceOnUse" x1="31.7065" y1="56.2752" x2="64.6466" y2="23.335" gradientTransform="matrix(1 0 0 -1 0 92)">
					<stop  offset="8.625479e-03" style="stop-color:#2F0E39"/>
					<stop  offset="0.9995" style="stop-color:#61117F"/>
				</linearGradient>
				<path class="st2" d="M49.5,43.7l-0.1-0.2l-1.3,1.3v0.1c0.2,0.6,0.3,1.2,0.3,1.8c0,3-2.5,5.5-5.5,5.5s-5.5-2.5-5.5-5.5
					s2.5-5.5,5.5-5.5c0.6,0,1.2,0.1,1.8,0.3h0.1l1.3-1.3l-0.3-0.1C45,39.7,44,39.5,43,39.5c-4,0-7.2,3.2-7.2,7.2s3.2,7.2,7.2,7.2
					s7.2-3.2,7.2-7.2C50.2,45.7,50,44.6,49.5,43.7z"/>
				
					<linearGradient id="SVGID_3_" gradientUnits="userSpaceOnUse" x1="31.8315" y1="56.4002" x2="64.7716" y2="23.46" gradientTransform="matrix(1 0 0 -1 0 92)">
					<stop  offset="8.625479e-03" style="stop-color:#2F0E39"/>
					<stop  offset="0.9995" style="stop-color:#61117F"/>
				</linearGradient>
				<path class="st3" d="M52.8,40.4l-0.1-0.2l-1.1,1.1l0.1,0.1c1,1.6,1.5,3.4,1.5,5.3c0,5.6-4.5,10.1-10.1,10.1S33,52.3,33,46.7
					s4.5-10.1,10.1-10.1c1.8,0,3.7,0.5,5.2,1.4l0.1,0.1l1.1-1.1l-0.2-0.1c-1.9-1.2-4-1.8-6.2-1.8c-6.4,0-11.6,5.2-11.6,11.6
					s5.2,11.6,11.6,11.6s11.6-5.2,11.6-11.6C54.6,44.5,54,42.3,52.8,40.4z"/>
			</g>
			
				<linearGradient id="SVGID_4_" gradientUnits="userSpaceOnUse" x1="39.9815" y1="64.5501" x2="72.9217" y2="31.6099" gradientTransform="matrix(1 0 0 -1 0 92)">
				<stop  offset="8.625479e-03" style="stop-color:#2F0E39"/>
				<stop  offset="0.9995" style="stop-color:#61117F"/>
			</linearGradient>
			<path class="st4" d="M57.9,35.4l-2.1,2.1c-0.1,0.1-0.2,0.1-0.4,0.1l-2.2-0.3c-0.1,0-0.1,0-0.2-0.1l-7.6,7.6
				c-0.2-0.2-0.4-0.4-0.6-0.5l7.6-7.6c-0.1-0.1-0.1-0.1-0.1-0.2L52,34.3c0-0.1,0-0.3,0.1-0.4l2.1-2.1c0.3-0.3,0.7-0.1,0.8,0.3
				l0.3,1.9l1.4-1.4c0.1-0.1,0.4-0.1,0.5,0s0.1,0.4,0,0.5l-1.3,1.3l1.8,0.2C58,34.6,58.1,35.1,57.9,35.4z"/>
		</g>
		
			<linearGradient id="SVGID_5_" gradientUnits="userSpaceOnUse" x1="31.9064" y1="56.4752" x2="64.8466" y2="23.535" gradientTransform="matrix(1 0 0 -1 0 92)">
			<stop  offset="8.625479e-03" style="stop-color:#2F0E39"/>
			<stop  offset="0.9995" style="stop-color:#61117F"/>
		</linearGradient>
		<circle class="st5" cx="43.1" cy="46.7" r="2.1"/>
	</g>
</g>
</svg>
