<?xml version="1.0" encoding="utf-8"?>
<!-- Generator: Adobe Illustrator 21.1.0, SVG Export Plug-In . SVG Version: 6.00 Build 0)  -->
<svg version="1.1" id="Layer_1" xmlns="http://www.w3.org/2000/svg" xmlns:xlink="http://www.w3.org/1999/xlink" x="0px" y="0px"
	 viewBox="0 0 89.8 89.9" style="enable-background:new 0 0 89.8 89.9;" xml:space="preserve">
<style type="text/css">
	.st0{fill:url(#SVGID_1_);}
	.st1{fill:#FFFFFF;}
	.st2{fill:url(#SVGID_2_);}
	.st3{fill:url(#SVGID_3_);}
</style>
<g>
	<g>
		
			<image style="overflow:visible;opacity:0.25;" width="119" height="120" xlink:href="D8E842F8.png"  transform="matrix(1 0 0 1 -7.4615 -7.9112)">
		</image>
		<g>
			<g>
				<g>
					<linearGradient id="SVGID_1_" gradientUnits="userSpaceOnUse" x1="0.6213" y1="45.0888" x2="89.039" y2="45.0888">
						<stop  offset="8.625479e-03" style="stop-color:#2F0E39"/>
						<stop  offset="0.9995" style="stop-color:#61117F"/>
					</linearGradient>
					<circle class="st0" cx="44.8" cy="45.1" r="44.2"/>
				</g>
			</g>
		</g>
	</g>
	<g>
		
			<image style="overflow:visible;opacity:0.25;" width="82" height="82" xlink:href="D8E842FF.png"  transform="matrix(1 0 0 1 10.5385 11.0888)">
		</image>
		<g>
			<g>
				<g>
					
						<ellipse transform="matrix(0.7071 -0.7071 0.7071 0.7071 -18.7521 44.9058)" class="st1" cx="44.8" cy="45.1" rx="25.5" ry="25.5"/>
				</g>
			</g>
		</g>
	</g>
	<g>
		<linearGradient id="SVGID_2_" gradientUnits="userSpaceOnUse" x1="40.9151" y1="44.3888" x2="47.3451" y2="44.3888">
			<stop  offset="8.625479e-03" style="stop-color:#2F0E39"/>
			<stop  offset="0.9995" style="stop-color:#61117F"/>
		</linearGradient>
		<path class="st2" d="M44.1,41.2c-1.8,0-3.2,1.4-3.2,3.2c0,1.8,1.4,3.2,3.2,3.2c1.8,0,3.2-1.4,3.2-3.2
			C47.3,42.6,45.9,41.2,44.1,41.2z M43.6,44.7c-0.5,0-0.9-0.4-0.9-0.9s0.4-0.9,0.9-0.9c0.5,0,0.9,0.4,0.9,0.9S44.1,44.7,43.6,44.7z"
			/>
		<linearGradient id="SVGID_3_" gradientUnits="userSpaceOnUse" x1="28.6551" y1="45.0888" x2="61.0052" y2="45.0888">
			<stop  offset="8.625479e-03" style="stop-color:#2F0E39"/>
			<stop  offset="0.9995" style="stop-color:#61117F"/>
		</linearGradient>
		<path class="st3" d="M44.8,37.1c-8.9,0-16.2,8-16.2,8s7.2,8,16.2,8c8.9,0,16.2-8,16.2-8S53.8,37.1,44.8,37.1z M44.8,51.5
			c-3.5,0-6.4-2.9-6.4-6.4c0-3.5,2.9-6.4,6.4-6.4c3.5,0,6.4,2.9,6.4,6.4C51.2,48.6,48.4,51.5,44.8,51.5z"/>
	</g>
</g>
</svg>
